<?xml version="1.0" encoding="UTF-8"?>
<svg xmlns="http://www.w3.org/2000/svg" viewBox="0 0 1 1">
<g transform="translate(0.3373434528286707,0.11344159583471114) rotate(0) scale(1,1) translate(-0.07809586966010823,-0.07809586966010823)"><path d="M 0.08805959278066881 0.06912851885160369 C 0.0892338288114044 0.07018533127926573 0.09218670202893538 0.07959042812819231 0.09218670202893538 0.07809586966010822 C 0.09218670202893538 0.07959042812819231 0.08688535674993322 0.08812003289627479 0.08805959278066881 0.08706322046861276 C 0.08688535674993322 0.08812003289627479 0.0764352491400148 0.09077761879205266 0.07809586966010823 0.09077761879205266 C 0.0764352491400148 0.09077761879205266 0.06695791050881206 0.08600640804095072 0.06813214653954765 0.08706322046861276 C 0.06695791050881206 0.08600640804095072 0.06400503729128107 0.07660131119202414 0.06400503729128107 0.07809586966010823 C 0.06400503729128107 0.07660131119202414 0.06930638257028322 0.06807170642394167 0.06813214653954763 0.0691285188516037 C 0.06930638257028322 0.06807170642394167 0.07975649018020164 0.06541412052816378 0.07809586966010822 0.06541412052816378 C 0.07975649018020164 0.06541412052816378 0.0892338288114044 0.07018533127926573 0.08805959278066881 0.06912851885160369 Z" fill="#cccccc" stroke="none" stroke-width="0"/>
</g><g id="黒目">
<g transform="translate(0.3373434528286707,0.11344159583471114) rotate(0) scale(1,1) translate(-0.12234836603134454,-0.12234836603134451)"><path d="M 0.12797518110918724 0.11460371948836708 C 0.12873387927955057 0.11515494597505589 0.13174254098958094 0.12028207747374317 0.1314527440757045 0.11939017428278147 C 0.13174254098958094 0.12028207747374317 0.13116294716182808 0.1261984609708692 0.1314527440757045 0.1253065577799075 C 0.13116294716182808 0.1261984609708692 0.1272164829388239 0.13064423906101064 0.12797518110918724 0.13009301257432182 C 0.1272164829388239 0.13064423906101064 0.12141056351837075 0.13192127562017333 0.12234836603134454 0.13192127562017333 C 0.12141056351837075 0.13192127562017333 0.11596285278313839 0.129541786087633 0.11672155095350173 0.13009301257432182 C 0.11596285278313839 0.129541786087633 0.11295419107310806 0.12441465458894582 0.1132439879869845 0.1253065577799075 C 0.11295419107310806 0.12441465458894582 0.11353378490086094 0.11849827109181976 0.1132439879869845 0.11939017428278147 C 0.11353378490086094 0.11849827109181976 0.11748024912386507 0.11405249300167826 0.11672155095350173 0.11460371948836708 C 0.11748024912386507 0.11405249300167826 0.12328616854431833 0.11277545644251563 0.12234836603134454 0.11277545644251563 C 0.12328616854431833 0.11277545644251563 0.12873387927955057 0.11515494597505589 0.12797518110918724 0.11460371948836708 Z" fill="#cccccc" stroke="#000000" stroke-width="0.001"/>
</g><g transform="translate(0.3373434528286707,0.11344159583471114) rotate(0) scale(1,1) translate(-0.12234836603134454,-0.12234836603134451)"><path d="M 0.12404624552164494 0.12001143539775623 C 0.12427518108198722 0.12017776681851763 0.12518303835826916 0.1217248678508536 0.1250955927554519 0.12145573795866459 C 0.12518303835826916 0.1217248678508536 0.12500814715263464 0.12351012399621339 0.1250955927554519 0.12324099410402438 C 0.12500814715263464 0.12351012399621339 0.12381730996130265 0.1248516280856942 0.12404624552164494 0.12468529666493279 C 0.12381730996130265 0.1248516280856942 0.12206538611629444 0.12523697115316124 0.12234836603134451 0.12523697115316124 C 0.12206538611629444 0.12523697115316124 0.12042155098070186 0.12451896524417139 0.12065048654104414 0.12468529666493279 C 0.12042155098070186 0.12451896524417139 0.11951369370441986 0.12297186421183537 0.1196011393072371 0.12324099410402438 C 0.11951369370441986 0.12297186421183537 0.11968858491005435 0.12118660806647558 0.1196011393072371 0.12145573795866459 C 0.11968858491005435 0.12118660806647558 0.12087942210138643 0.11984510397699483 0.12065048654104414 0.12001143539775623 C 0.12087942210138643 0.11984510397699483 0.12263134594639458 0.11945976090952772 0.12234836603134451 0.11945976090952772 C 0.12263134594639458 0.11945976090952772 0.12427518108198722 0.12017776681851763 0.12404624552164494 0.12001143539775623 Z" fill="#cccccc" stroke="#000000" stroke-width="0.001"/>
</g><g transform="translate(0.3373434528286707,0.11344159583471114) rotate(0) scale(1,1) translate(-0.095,-0.07703415104052588)"><path d="M 0.095 0.07546724565596526 C 0.09509721715339135 0.07541570085486453 0.09636885815878965 0.07482208991111108 0.0961666058406962 0.0748487080427565 C 0.09636885815878965 0.07482208991111108 0.09758002977319713 0.07527415288568687 0.09742702781712143 0.07514782807622021 C 0.09758002977319713 0.07527415288568687 0.09800204863122206 0.07658539532356873 0.0980026293136046 0.07636460575635638 C 0.09800204863122206 0.07658539532356873 0.09726196714955308 0.07801059524698505 0.0974200596285309 0.07779730288276838 C 0.09726196714955308 0.07801059524698505 0.09590384793015988 0.0791014199167936 0.0961055195658708 0.07892411412695625 C 0.09590384793015988 0.0791014199167936 0.09490787336951077 0.08000837721363825 0.095 0.07992497236081655" fill="none" stroke="none" stroke-width="0"/>
<path d="M 0.095 0.07992497236081655 C 0.09490787336951077 0.07984156750799486 0.09369280879841833 0.0787468083371189 0.09389448043412923 0.07892411412695625 C 0.09369280879841833 0.0787468083371189 0.09242184789249132 0.07758401051855172 0.09257994037146913 0.07779730288276838 C 0.09242184789249132 0.07758401051855172 0.0919967900040129 0.07614381618914404 0.09199737068639544 0.07636460575635638 C 0.0919967900040129 0.07614381618914404 0.0927259741389544 0.07502150326675355 0.0925729721828787 0.07514782807622021 C 0.0927259741389544 0.07502150326675355 0.09403564647739732 0.07487532617440193 0.09383339415930388 0.0748487080427565 C 0.09403564647739732 0.07487532617440193 0.09509721715339134 0.07551879045706598 0.095 0.07546724565596526" fill="none" stroke="none" stroke-width="0"/>
</g><g transform="translate(0.33279126380649066,0.11013423691457822) rotate(0) scale(1,1) translate(-0.12234836603134454,-0.12234836603134451)"><path d="M 0.12379594837188353 0.12035593986943321 C 0.12399113482425905 0.12049775112797452 0.12476515805051473 0.12181678239387611 0.1246906034598508 0.12158732695756887 C 0.12476515805051473 0.12181678239387611 0.12461604886918685 0.12333886054142734 0.1246906034598508 0.1231094051051201 C 0.12461604886918685 0.12333886054142734 0.123600761919508 0.12448260345179707 0.12379594837188353 0.12434079219325576 C 0.123600761919508 0.12448260345179707 0.12210710230792134 0.12481114020761584 0.12234836603134451 0.12481114020761584 C 0.12210710230792134 0.12481114020761584 0.12070559723842994 0.12419898093471446 0.12090078369080547 0.12434079219325576 C 0.12070559723842994 0.12419898093471446 0.11993157401217426 0.12287994966881285 0.1200061286028382 0.1231094051051201 C 0.11993157401217426 0.12287994966881285 0.12008068319350214 0.12135787152126162 0.1200061286028382 0.12158732695756887 C 0.12008068319350214 0.12135787152126162 0.12109597014318099 0.12021412861089191 0.12090078369080547 0.12035593986943321 C 0.12109597014318099 0.12021412861089191 0.12258962975476768 0.11988559185507314 0.12234836603134451 0.11988559185507314 C 0.12258962975476768 0.11988559185507314 0.12399113482425905 0.12049775112797452 0.12379594837188353 0.12035593986943321 Z" fill="#cccccc" stroke="none" stroke-width="0"/>
</g><g transform="translate(0.3418956418508507,0.11674895475484402) rotate(0) scale(1,1) translate(-0.14270234686771827,-0.14270234686771827)"><path d="M 0.14414992920825728 0.140709920705807 C 0.14434511566063282 0.14085173196434833 0.14511913888688854 0.14217076323024988 0.1450445842962246 0.14194130779394265 C 0.14511913888688854 0.14217076323024988 0.14497002970556067 0.14369284137780108 0.1450445842962246 0.14346338594149385 C 0.14497002970556067 0.14369284137780108 0.14395474275588174 0.14483658428817087 0.14414992920825728 0.14469477302962955 C 0.14395474275588174 0.14483658428817087 0.1424610831442951 0.14516512104398963 0.14270234686771827 0.14516512104398963 C 0.1424610831442951 0.14516512104398963 0.1410595780748037 0.14455296177108823 0.14125476452717922 0.14469477302962955 C 0.1410595780748037 0.14455296177108823 0.14028555484854804 0.14323393050518662 0.14036010943921198 0.14346338594149385 C 0.14028555484854804 0.14323393050518662 0.14043466402987592 0.14171185235763542 0.14036010943921198 0.14194130779394265 C 0.14043466402987592 0.14171185235763542 0.14144995097955473 0.1405681094472657 0.14125476452717922 0.140709920705807 C 0.14144995097955473 0.1405681094472657 0.14294361059114144 0.14023957269144696 0.14270234686771827 0.14023957269144696 C 0.14294361059114144 0.14023957269144696 0.14434511566063282 0.14085173196434833 0.14414992920825728 0.140709920705807 Z" fill="#cccccc" stroke="none" stroke-width="0"/>
</g></g>
</svg>
