<?xml version="1.0" encoding="UTF-8"?>
<svg xmlns="http://www.w3.org/2000/svg" viewBox="0 0 1 1">
<g transform="translate(0.4285093654377815,0.17558092828914248) rotate(0) scale(1,1) translate(-0.133501349118799,-0.14511974897634428)"><path d="M 0.13420100681534972 0.13791176815007034 C 0.1343087400529509 0.137967202396198 0.1348766034203034 0.1385065255402655 0.13479414797001332 0.13840409640947038 C 0.1348766034203034 0.1385065255402655 0.13523509678696313 0.13927474782843294 0.13519047221883035 0.13914091771961157 C 0.13523509678696313 0.13927474782843294 0.13532964278760667 0.1401549143812793 0.13532964278760667 0.14001005771532676 C 0.13532964278760667 0.1401549143812793 0.13514584765069756 0.14101302781986327 0.13519047221883035 0.1408791977110419 C 0.13514584765069756 0.14101302781986327 0.13471169251972326 0.1417184481519782 0.13479414797001332 0.1416160190211831 C 0.13471169251972326 0.1417184481519782 0.13409327357774853 0.14216378152671083 0.13420100681534972 0.14210834728058316 C 0.13409327357774853 0.14216378152671083 0.1333847395027072 0.1422812299747152 0.133501349118799 0.1422812299747152 C 0.1333847395027072 0.1422812299747152 0.1326939581846471 0.1420529130344555 0.1328016914222483 0.14210834728058316 C 0.1326939581846471 0.1420529130344555 0.13212609481729456 0.14151358989038798 0.13220855026758463 0.1416160190211831 C 0.13212609481729456 0.14151358989038798 0.13176760145063476 0.1407453676022205 0.13181222601876755 0.14087919771104188 C 0.13176760145063476 0.1407453676022205 0.13167305544999128 0.13986520104937425 0.13167305544999128 0.14001005771532676 C 0.13167305544999128 0.13986520104937425 0.13185685058690033 0.1390070876107902 0.13181222601876755 0.13914091771961157 C 0.13185685058690033 0.1390070876107902 0.1322910057178747 0.13830166727867527 0.13220855026758463 0.13840409640947038 C 0.1322910057178747 0.13830166727867527 0.13290942465984948 0.13785633390394267 0.1328016914222483 0.13791176815007034 C 0.13290942465984948 0.13785633390394267 0.13361795873489077 0.1377388854559383 0.133501349118799 0.1377388854559383 C 0.13361795873489077 0.1377388854559383 0.1343087400529509 0.137967202396198 0.13420100681534972 0.13791176815007034 Z" fill="#cccccc" stroke="none" stroke-width="0"/>
</g></svg>
