<?xml version="1.0" encoding="UTF-8"?>
<svg xmlns="http://www.w3.org/2000/svg" viewBox="0 0 1 1">
<g transform="translate(0.4285093654377815,0.17558092828914248) rotate(0) scale(1,1) translate(-0.133501349118799,-0.14511974897634428)"><path d="M 0.13463875430587116 0.12022824209461144 C 0.1348412185719517 0.12038307082744117 0.1356130393486057 0.1221324748717282 0.13549181402601082 0.12183386226603754 C 0.1356130393486057 0.1221324748717282 0.13616928644101586 0.12423390337118227 0.1360934581770097 0.12381159336289929 C 0.13616928644101586 0.12423390337118227 0.13648417255590148 0.1273662688873089 0.13640175319408457 0.12690158236543334 C 0.13648417255590148 0.1273662688873089 0.1370407152315985 0.12983712619706123 0.13708249051881255 0.12938783162540587 C 0.1370407152315985 0.12983712619706123 0.13569553545626037 0.13277177665928422 0.1359004497475159 0.13229311722529769 C 0.13569553545626037 0.13277177665928422 0.13442359397135326 0.13590319323626618 0.13462351902374634 0.1351317448332444 C 0.13442359397135326 0.13590319323626618 0.13331432080130776 0.1415350175553398 0.133501349118799 0.1415504980615593 C 0.13331432080130776 0.1415350175553398 0.13221457674509443 0.134217101747692 0.13237917921385167 0.1349459787586101 C 0.13221457674509443 0.134217101747692 0.13133297939700173 0.1323640157621042 0.13152611949371198 0.13280397393054194 C 0.13133297939700173 0.1323640157621042 0.13003149696065977 0.12914365376115905 0.13006149805332856 0.12966648073735715 C 0.13003149696065977 0.12914365376115905 0.13126029993804858 0.12605375331462473 0.1311661063816864 0.12653005021616492 C 0.13126029993804858 0.12605375331462473 0.13120406079620348 0.12356849555441307 0.13119182072967475 0.12395091791887489 C 0.13120406079620348 0.12356849555441307 0.13136961616660656 0.12164494666270328 0.13131298718003112 0.1219409818426232 C 0.13136961616660656 0.12164494666270328 0.1320171398729977 0.12023474039562405 0.13187136856857992 0.12039849575983591 C 0.1320171398729977 0.12023474039562405 0.13329285831115206 0.11996172966664552 0.13306224283304446 0.11997591747208089 C 0.13329285831115206 0.11996172966664552 0.1348412185719517 0.12038307082744117 0.13463875430587116 0.12022824209461144 Z" fill="#cccccc" stroke="none" stroke-width="0"/>
</g></svg>
