<?xml version="1.0" encoding="UTF-8"?>
<svg xmlns="http://www.w3.org/2000/svg" viewBox="0 0 1 1">
<g transform="translate(0.4285093654377815,0.17558092828914248) rotate(0) scale(1,1) translate(-0.133501349118799,-0.1536409101445903)"><path d="M 0.1351796812573475 0.10776563471471177 C 0.13540899994023092 0.1080536773691061 0.1362991780793298 0.11046989054240051 0.13620358290551438 0.11009456745388585 C 0.1362991780793298 0.11046989054240051 0.1363367083790496 0.11267607477535502 0.13632682334313276 0.11226951177688782 C 0.1363367083790496 0.11267607477535502 0.13639934442958063 0.11544298786294693 0.13632220333651646 0.1149733234354922 C 0.13639934442958063 0.11544298786294693 0.13717299638531108 0.11842416042883945 0.1372525164599028 0.1179054849063446 C 0.13717299638531108 0.11842416042883945 0.13511709224660914 0.12231966377364188 0.1353679624414157 0.1211974297054304 C 0.13511709224660914 0.12231966377364188 0.13405667863121806 0.13243749804269567 0.1342420741222242 0.1313722937248824 C 0.13405667863121806 0.13243749804269567 0.132973493497047 0.1334945654183828 0.13314321654934214 0.13397988151918963 C 0.132973493497047 0.1334945654183828 0.13191640221032944 0.12444646860406272 0.13220539749468266 0.12554850051520045 C 0.13191640221032944 0.12444646860406272 0.12938146562536548 0.12008469923704644 0.12967527313710336 0.12075549858553697 C 0.12938146562536548 0.12008469923704644 0.12869488542608323 0.11700968500669057 0.12867970735382808 0.11749890833331417 C 0.12869488542608323 0.11700968500669057 0.13010336857145569 0.1144287446109915 0.12985741000416526 0.11488481866605368 C 0.13010336857145569 0.1144287446109915 0.13171654644809117 0.11160094935162343 0.13163121016131324 0.11202601967256806 C 0.13171654644809117 0.11160094935162343 0.13085671448459907 0.10942302375018054 0.1308814454455005 0.1097839748147181 C 0.13085671448459907 0.10942302375018054 0.1315486314026135 0.10743244696365362 0.13133443863049576 0.10769460689811729 C 0.1315486314026135 0.10743244696365362 0.1337721955964844 0.10664397458587024 0.13345175871091342 0.10663805560115404 C 0.1337721955964844 0.10664397458587024 0.13540899994023092 0.1080536773691061 0.1351796812573475 0.10776563471471177 Z" fill="#cccccc" stroke="none" stroke-width="0"/>
</g></svg>
