<?xml version="1.0" encoding="UTF-8"?>
<svg xmlns="http://www.w3.org/2000/svg" viewBox="0 0 1 1">
<g transform="translate(0.4285093654377815,0.17558092828914248) rotate(0) scale(1,1) translate(-0.133501349118799,-0.14511974897634428)"><path d="M 0.13478092995425517 0.1303033758324557 C 0.13500870225359576 0.13039553579247337 0.1358770006273315 0.1314368477235966 0.13574062213941226 0.13125910212497122 C 0.1358770006273315 0.1314368477235966 0.1365292946863506 0.13270891088493683 0.13641747180928604 0.13243632301596037 C 0.1365292946863506 0.13270891088493683 0.13720173452628864 0.134849181400945 0.13708249666418698 0.13453015655268877 C 0.13720173452628864 0.134849181400945 0.13782784503644777 0.13654266487209132 0.13784832615450593 0.13626462119503532 C 0.13782784503644777 0.13654266487209132 0.13657967858976883 0.13810917127902256 0.1368367232474889 0.13786668067736088 C 0.13657967858976883 0.13810917127902256 0.13448584241780726 0.13951854834528557 0.13476379026186475 0.1391745084149753 C 0.13448584241780726 0.13951854834528557 0.13329094226162136 0.1419859452540486 0.133501349118799 0.14199515984108402 C 0.13329094226162136 0.1419859452540486 0.1319953948222545 0.1387240206905412 0.13223890797573323 0.13906393337055015 C 0.1319953948222545 0.1387240206905412 0.13036190866825526 0.13770205676291514 0.1305791912770543 0.1379162076809767 C 0.13036190866825526 0.13770205676291514 0.12958185579285778 0.13623594798047536 0.12963151667014475 0.1364941223538113 C 0.12958185579285778 0.13623594798047536 0.130089228500518 0.1344868761964009 0.12998326074961053 0.13481811520094525 C 0.130089228500518 0.1344868761964009 0.13099114478004042 0.13222798334734212 0.1309031296810342 0.13251925429927916 C 0.13099114478004042 0.13222798334734212 0.13110314954758248 0.13114665236108178 0.13103944193768513 0.13132286377770078 C 0.13110314954758248 0.13114665236108178 0.13183161371727253 0.1303072438687727 0.13166762099980253 0.1304047172998512 C 0.13183161371727253 0.1303072438687727 0.13326679696019617 0.13014473748247596 0.13300735454732512 0.13015318260475892 C 0.13326679696019617 0.13014473748247596 0.13500870225359576 0.13039553579247337 0.13478092995425517 0.1303033758324557 Z" fill="#cccccc" stroke="none" stroke-width="0"/>
</g></svg>
