<?xml version="1.0" encoding="UTF-8"?>
<svg xmlns="http://www.w3.org/2000/svg" viewBox="0 0 1 1">
<g transform="translate(0.4285093654377815,0.17558092828914248) rotate(0) scale(1,1) translate(-0.133501349118799,-0.15866835892351938)"><path d="M 0.13643507369698177 0.10925136934295628 C 0.13686062813017863 0.10928366336157991 0.13864606657569256 0.11139069522092918 0.13852131828417746 0.11099789640209207 C 0.13864606657569256 0.11139069522092918 0.13795639091666462 0.11446073733211501 0.13793205319516294 0.11396495516900154 C 0.13795639091666462 0.11446073733211501 0.1390470350749405 0.11760033531053145 0.13881337094219767 0.11694728235945373 C 0.1390470350749405 0.11760033531053145 0.140565257643455 0.12244747818383651 0.14073602278807706 0.1218015905819341 C 0.140565257643455 0.12244747818383651 0.1363044368282205 0.12503120475284854 0.13676418920673294 0.12469793358228269 C 0.1363044368282205 0.12503120475284854 0.1349101164778424 0.1259995488583058 0.1352189942459276 0.1258008446287244 C 0.1349101164778424 0.1259995488583058 0.13265868449470603 0.1271251055538971 0.13305765598971064 0.12708238433725955 C 0.13265868449470603 0.1271251055538971 0.12988274428375296 0.1259700924250443 0.13043133630587211 0.12631349922837504 C 0.12988274428375296 0.1259700924250443 0.1260209749628748 0.1224018438080982 0.12647455172428068 0.12296150269729085 C 0.1260209749628748 0.1224018438080982 0.1249799498490308 0.11917218476248337 0.12498841516900125 0.11959759255806324 C 0.1249799498490308 0.11917218476248337 0.1266729609778226 0.1175502504862149 0.1263729678846353 0.11785660915033239 C 0.1266729609778226 0.1175502504862149 0.12869534591310414 0.11548191793782087 0.12858833228724875 0.11592128858865339 C 0.12869534591310414 0.11548191793782087 0.12775090283639973 0.11202152790411038 0.12765713139490004 0.1125841613403421 C 0.12775090283639973 0.11202152790411038 0.13019338405948783 0.10900520459039481 0.12971358958524493 0.10916968735387261 C 0.13019338405948783 0.10900520459039481 0.13397478876179306 0.11061717501103215 0.13341466508581498 0.1106103681786085 C 0.13397478876179306 0.11061717501103215 0.13686062813017863 0.10928366336157991 0.13643507369698177 0.10925136934295628 Z" fill="#cccccc" stroke="none" stroke-width="0"/>
</g><g transform="translate(0.4285093654377815,0.17558092828914248) rotate(0) scale(1,1) translate(-0.133501349118799,-0.14511974897634428)"><path d="M 0.1348062004764993 0.11829966808091541 C 0.13504092426661404 0.11843595512761522 0.13611434675946021 0.11975547836078854 0.1359192643433893 0.11952442401762468 C 0.13611434675946021 0.11975547836078854 0.13721155505888954 0.12144030162247006 0.1371471894693504 0.12107232019888158 C 0.13721155505888954 0.12144030162247006 0.13654508017859485 0.12435947546221066 0.13669165141785927 0.12394020110068646 C 0.13654508017859485 0.12435947546221066 0.13524504853528663 0.12664951567771723 0.13538833459817745 0.1261036125371719 C 0.13524504853528663 0.12664951567771723 0.13488536308979768 0.13117429944991338 0.1349722186631695 0.13049103878723045 C 0.13488536308979768 0.13117429944991338 0.13422349525568478 0.13522941945469938 0.13434606771771565 0.1343027404893671 C 0.13422349525568478 0.13522941945469938 0.133346031895653 0.14159442098298194 0.133501349118799 0.1416111863712177 C 0.133346031895653 0.14159442098298194 0.13240687353445904 0.13315170169209425 0.1324822610399639 0.13410155583053823 C 0.13240687353445904 0.13315170169209425 0.13252053610376194 0.1295147675965445 0.13259669905274055 0.1302129367098901 C 0.13252053610376194 0.1295147675965445 0.13138456630207015 0.1251563135139808 0.13156830565222055 0.12572352647039137 C 0.13138456630207015 0.1251563135139808 0.13029763678860545 0.12301086703362804 0.13039182685093587 0.12340638123296334 C 0.13029763678860545 0.12301086703362804 0.13050974387668765 0.12064810632261787 0.13043802490425543 0.12097735607836774 C 0.13050974387668765 0.12064810632261787 0.13138437724170002 0.11923615713600644 0.13125245452012255 0.11945538416396494 C 0.13138437724170002 0.11923615713600644 0.13217527459167602 0.11821609801730422 0.1320210975631852 0.11834663174286571 C 0.13217527459167602 0.11821609801730422 0.13333467077145525 0.11788506581873118 0.1331025788620124 0.11788897945722704 C 0.13333467077145525 0.11788506581873118 0.13504092426661404 0.11843595512761522 0.1348062004764993 0.11829966808091541 Z" fill="#cccccc" stroke="none" stroke-width="0"/>
</g></svg>
