<?xml version="1.0" encoding="UTF-8"?>
<svg xmlns="http://www.w3.org/2000/svg" viewBox="0 0 1 1">
<g transform="translate(0.4285093654377815,0.17558092828914248) rotate(0) scale(1,1) translate(-0.133501349118799,-0.15866835892351938)"><path d="M 0.13643507369698177 0.10925136934295628 C 0.13686062813017863 0.10928366336157991 0.13864606657569256 0.11139069522092918 0.13852131828417746 0.11099789640209207 C 0.13864606657569256 0.11139069522092918 0.13795639091666462 0.11446073733211501 0.13793205319516294 0.11396495516900154 C 0.13795639091666462 0.11446073733211501 0.1390470350749405 0.11760033531053145 0.13881337094219767 0.11694728235945373 C 0.1390470350749405 0.11760033531053145 0.140565257643455 0.12244747818383651 0.14073602278807706 0.1218015905819341 C 0.140565257643455 0.12244747818383651 0.1363044368282205 0.12503120475284854 0.13676418920673294 0.12469793358228269 C 0.1363044368282205 0.12503120475284854 0.1349101164778424 0.1259995488583058 0.1352189942459276 0.1258008446287244 C 0.1349101164778424 0.1259995488583058 0.13265868449470603 0.1271251055538971 0.13305765598971064 0.12708238433725955 C 0.13265868449470603 0.1271251055538971 0.12988274428375296 0.1259700924250443 0.13043133630587211 0.12631349922837504 C 0.12988274428375296 0.1259700924250443 0.1260209749628748 0.1224018438080982 0.12647455172428068 0.12296150269729085 C 0.1260209749628748 0.1224018438080982 0.1249799498490308 0.11917218476248337 0.12498841516900125 0.11959759255806324 C 0.1249799498490308 0.11917218476248337 0.1266729609778226 0.1175502504862149 0.1263729678846353 0.11785660915033239 C 0.1266729609778226 0.1175502504862149 0.12869534591310414 0.11548191793782087 0.12858833228724875 0.11592128858865339 C 0.12869534591310414 0.11548191793782087 0.12775090283639973 0.11202152790411038 0.12765713139490004 0.1125841613403421 C 0.12775090283639973 0.11202152790411038 0.13019338405948783 0.10900520459039481 0.12971358958524493 0.10916968735387261 C 0.13019338405948783 0.10900520459039481 0.13397478876179306 0.11061717501103215 0.13341466508581498 0.1106103681786085 C 0.13397478876179306 0.11061717501103215 0.13686062813017863 0.10928366336157991 0.13643507369698177 0.10925136934295628 Z" fill="#cccccc" stroke="none" stroke-width="0"/>
</g><g transform="translate(0.4285093654377815,0.17558092828914248) rotate(0) scale(1,1) translate(-0.133501349118799,-0.14511974897634428)"><path d="M 0.13471391190799817 0.1310441944896501 C 0.1349297546331608 0.13113174645166692 0.1357525758795721 0.13212099278623401 0.13562334021495762 0.1319521344675399 C 0.1357525758795721 0.13212099278623401 0.1363707060372501 0.13332945278950722 0.1362647398833718 0.13307049431397958 C 0.1363707060372501 0.13332945278950722 0.1370079268405714 0.13536270977971498 0.1368949340614973 0.13505963617387154 C 0.1370079268405714 0.13536270977971498 0.1376012448127609 0.13697151907730398 0.13762065323226078 0.1367073775841008 C 0.1376012448127609 0.13697151907730398 0.13641845108372677 0.13845970016388864 0.13666203302749877 0.13822933409231006 C 0.13641845108372677 0.13845970016388864 0.1344342795812717 0.13979860837683852 0.13469766990699666 0.13947177044304376 C 0.1344342795812717 0.13979860837683852 0.13330196232076605 0.1421426354401634 0.133501349118799 0.14215138929784704 C 0.13330196232076605 0.1421426354401634 0.132074269178536 0.13904380710483136 0.1323050283306013 0.13936672415083987 C 0.132074269178536 0.13904380710483136 0.1305263368618525 0.13807294137358658 0.13073223929401567 0.13827638474574508 C 0.1305263368618525 0.13807294137358658 0.12978713925580398 0.13668013803026882 0.12983419914464306 0.13692540368493797 C 0.12978713925580398 0.13668013803026882 0.13026793831790046 0.1350185198353981 0.1301675206279468 0.1353331968897152 C 0.13026793831790046 0.1350185198353981 0.1311226167322829 0.13287257162879224 0.13103921142408714 0.13314927903313242 C 0.1311226167322829 0.13287257162879224 0.13122875525012495 0.13184530719184492 0.13116838432629596 0.13201270803763296 C 0.13122875525012495 0.13184530719184492 0.1319190661089275 0.1310478691241513 0.131763662510035 0.13114046888367586 C 0.1319190661089275 0.1310478691241513 0.133279081629503 0.13089348805716938 0.13303322751300606 0.13090151092333818 C 0.133279081629503 0.13089348805716938 0.1349297546331608 0.13113174645166692 0.13471391190799817 0.1310441944896501 Z" fill="#cccccc" stroke="none" stroke-width="0"/>
</g></svg>
