<?xml version="1.0" encoding="UTF-8"?>
<svg xmlns="http://www.w3.org/2000/svg" viewBox="0 0 1 1">
<g id="前腹">
<g id="腹節7">
<g transform="translate(0.3373434528286709,0.43945992190253136) rotate(0) scale(1,1) translate(-0.09499999999999997,-0.07829460229446786)"><path d="M 0.07006012898858613 0.07829460229446784 C 0.07033857141762133 0.0772554410023256 0.07444059942915074 0.06402478663351163 0.07340143813700849 0.06582466678876092 C 0.07444059942915074 0.06402478663351163 0.08432994464954235 0.05565687913933411 0.08253006449429307 0.05669604043147636 C 0.08432994464954235 0.05565687913933411 0.09707832258428448 0.05335473128305401 0.09499999999999999 0.05335473128305401 C 0.09707832258428448 0.05335473128305401 0.1092698156609562 0.057735201723618616 0.10746993550570691 0.05669604043147637 C 0.1092698156609562 0.057735201723618616 0.11763772315513371 0.06762454694401024 0.11659856186299147 0.06582466678876095 C 0.11763772315513371 0.06762454694401024 0.12021831344044903 0.07933376358661011 0.11993987101141383 0.07829460229446787" fill="none" stroke="#000000" stroke-width="0.001"/>
<path d="M 0.11993987101141383 0.07829460229446787 C 0.12009616086975203 0.07891645226952239 0.1215144374640497 0.08765596543245081 0.12181534931147212 0.08575680199512213 C 0.1215144374640497 0.08765596543245081 0.11484244510323086 0.10294483672898946 0.11632892884234491 0.101084563542412 C 0.11484244510323086 0.10294483672898946 0.10294826240875 0.10866303995835498 0.10397754444210346 0.10808008023405168" fill="none" stroke="#000000" stroke-width="0.001"/>
<path d="M 0.08640428711072654 0.10808008023405168 C 0.0853431857813039 0.10749712050974837 0.07215276812247175 0.09922429035583454 0.07367107115765498 0.10108456354241199 C 0.07215276812247175 0.09922429035583454 0.06788373884110538 0.08385763855779345 0.06818465068852778 0.08575680199512213 C 0.06788373884110538 0.08385763855779345 0.07021641884692433 0.07767275231941331 0.07006012898858613 0.07829460229446784" fill="none" stroke="#000000" stroke-width="0.001"/>
</g><g transform="translate(0.33734345282867084,0.4545860023768306) rotate(0) scale(1,1) translate(-0.09500000000000003,-0.09500000000000001)"><path d="M 0.07006012898858613 0.08138652757313074 C 0.07213845157287062 0.08138652757313074 0.09915664516856894 0.08138652757313077 0.09499999999999996 0.08138652757313077 C 0.09915664516856894 0.08138652757313077 0.12201819359569833 0.08138652757313077 0.11993987101141385 0.08138652757313077" fill="none" stroke="#000000" stroke-width="0.001"/>
<path d="M 0.11993987101141385 0.08138652757313077 C 0.12009616086975204 0.08194619255067984 0.12151443746404973 0.08981175439731544 0.12181534931147214 0.08810250730371963 C 0.12151443746404973 0.08981175439731544 0.11533917966964403 0.10360673978987629 0.11632892884234491 0.10189749269628048 C 0.11533917966964403 0.10360673978987629 0.10940581177212133 0.10917313740441838 0.1099383592390616 0.1086134724268693" fill="none" stroke="#000000" stroke-width="0.001"/>
<path d="M 0.1099383592390616 0.1086134724268693 C 0.10959410242232975 0.1087465883248451 0.10501271739495252 0.11034397910055463 0.10580727743827935 0.11021086320257883 C 0.10501271739495252 0.11034397910055463 0.09995333549254469 0.11021086320257883 0.10040363871913967 0.11021086320257883" fill="none" stroke="#000000" stroke-width="0.001"/>
<path d="M 0.10040363871913967 0.11021086320257883 C 0.09995333549254469 0.11021086320257883 0.09409939354681005 0.11021086320257883 0.09499999999999999 0.11021086320257883 C 0.09409939354681005 0.11021086320257883 0.08914605805426534 0.11021086320257883 0.08959636128086032 0.11021086320257883" fill="none" stroke="#000000" stroke-width="0.001"/>
<path d="M 0.08959636128086032 0.11021086320257883 C 0.08914605805426534 0.11021086320257883 0.08339816251839381 0.11007774730460304 0.08419272256172064 0.11021086320257883 C 0.08339816251839381 0.11007774730460304 0.07971738394420652 0.10848035652889351 0.08006164076093837 0.1086134724268693" fill="none" stroke="#000000" stroke-width="0.001"/>
<path d="M 0.08006164076093837 0.1086134724268693 C 0.07952909329399808 0.10805380744932024 0.07268132198495413 0.10018824560268466 0.073671071157655 0.10189749269628047 C 0.07268132198495413 0.10018824560268466 0.06788373884110539 0.08639326021012382 0.0681846506885278 0.08810250730371963 C 0.06788373884110539 0.08639326021012382 0.07021641884692433 0.08082686259558167 0.07006012898858613 0.08138652757313074" fill="none" stroke="#000000" stroke-width="0.001"/>
</g></g>
<g id="腹節6">
<g transform="translate(0.3373434528286709,0.4085430481686546) rotate(0) scale(1,1) translate(-0.09499999999999997,-0.07829460229446786)"><path d="M 0.06223693253680239 0.07829460229446784 C 0.06260271743131615 0.07692947448350128 0.06799147908193405 0.05954859783544968 0.06662635127096748 0.06191306856286906 C 0.06799147908193405 0.05954859783544968 0.08098293699582056 0.0485558257544688 0.07861846626840119 0.04992095356543536 C 0.08098293699582056 0.0485558257544688 0.0977302556219331 0.04553153483127027 0.09499999999999997 0.04553153483127027 C 0.0977302556219331 0.04553153483127027 0.11374600445901813 0.05128608137640193 0.11138153373159876 0.04992095356543536 C 0.11374600445901813 0.05128608137640193 0.12473877653999903 0.06427753929028844 0.12337364872903246 0.06191306856286906 C 0.12473877653999903 0.06427753929028844 0.1281288523577113 0.07965973010543444 0.12776306746319754 0.07829460229446787" fill="none" stroke="#000000" stroke-width="0.001"/>
<path d="M 0.12776306746319754 0.07829460229446787 C 0.1279683826859669 0.07893011581010867 0.13014477297350296 0.0878616571110064 0.13022685013642998 0.08592076448215746 C 0.13014477297350296 0.0878616571110064 0.12592623786604878 0.10352620646950397 0.12677814150807348 0.10158531384065504 C 0.12592623786604878 0.10352620646950397 0.1194394951758054 0.1098469895439854 0.12000400643213371 0.1092114760283446" fill="none" stroke="#000000" stroke-width="0.001"/>
<path d="M 0.06999599356786619 0.1092114760283446 C 0.06943148231153788 0.10857596251270381 0.062369954849901724 0.09964442121180608 0.06322185849192641 0.10158531384065501 C 0.062369954849901724 0.09964442121180608 0.05969107270064293 0.08397987185330853 0.059773149863569935 0.08592076448215746 C 0.05969107270064293 0.08397987185330853 0.06244224775957176 0.07765908877882705 0.06223693253680239 0.07829460229446784" fill="none" stroke="#000000" stroke-width="0.001"/>
</g><g transform="translate(0.33734345282867084,0.42400148503559304) rotate(0) scale(1,1) translate(-0.09500000000000003,-0.09500000000000001)"><path d="M 0.0622369325368024 0.08108740681975549 C 0.06496718815873553 0.08108740681975549 0.10046051124386621 0.08108740681975551 0.09499999999999995 0.08108740681975551 C 0.10046051124386621 0.08108740681975551 0.13049332308513067 0.08108740681975551 0.12776306746319754 0.08108740681975551" fill="none" stroke="#000000" stroke-width="0.001"/>
<path d="M 0.12776306746319754 0.08108740681975551 C 0.1279683826859669 0.08165936898383223 0.13014477297350296 0.08969775615464019 0.13022685013642998 0.08795095278867615 C 0.13014477297350296 0.08969775615464019 0.12605923790026227 0.10379585057728798 0.12677814150807348 0.10204904721132395 C 0.12605923790026227 0.10379585057728798 0.12116849562058062 0.10948455534432128 0.12160000684269545 0.10891259318024456" fill="none" stroke="#000000" stroke-width="0.001"/>
<path d="M 0.12160000684269545 0.10891259318024456 C 0.12120351002042624 0.10904863395487491 0.11553546294588479 0.11068112325043908 0.11684204497546503 0.11054508247580873 C 0.11553546294588479 0.11068112325043908 0.10501093728042148 0.11054508247580873 0.10592102248773252 0.11054508247580873" fill="none" stroke="#000000" stroke-width="0.001"/>
<path d="M 0.10592102248773252 0.11054508247580873 C 0.10501093728042148 0.11054508247580873 0.0931798295853779 0.11054508247580873 0.09499999999999999 0.11054508247580873 C 0.0931798295853779 0.11054508247580873 0.08316889230495642 0.11054508247580873 0.08407897751226746 0.11054508247580873" fill="none" stroke="#000000" stroke-width="0.001"/>
<path d="M 0.08407897751226746 0.11054508247580873 C 0.08316889230495642 0.11054508247580873 0.07185137299495464 0.11040904170117838 0.0731579550245349 0.11054508247580873 C 0.07185137299495464 0.11040904170117838 0.06800349633503527 0.10877655240561421 0.06839999315730448 0.10891259318024456" fill="none" stroke="#000000" stroke-width="0.001"/>
<path d="M 0.06839999315730448 0.10891259318024456 C 0.06796848193518965 0.10834063101616784 0.06250295488411521 0.1003022438453599 0.06322185849192642 0.10204904721132393 C 0.06250295488411521 0.1003022438453599 0.059691072700642944 0.08620414942271211 0.05977314986356995 0.08795095278867615 C 0.059691072700642944 0.08620414942271211 0.06244224775957177 0.08051544465567877 0.0622369325368024 0.08108740681975549" fill="none" stroke="#000000" stroke-width="0.001"/>
</g><g transform="translate(0.33734345282867084,0.42400148503559304) rotate(0) scale(1,1) translate(-0.09499999999999999,-0.09500000000000001)"><path d="M 0.10908811900917494 0.0831298900881912 C 0.10884768177808501 0.08376603367694964 0.10660894642574581 0.09219110982309371 0.1062028722360959 0.09076361315329243 C 0.10660894642574581 0.09219110982309371 0.11468279058221055 0.10161840543919011 0.11396100928497382 0.10025985012580657 C 0.11468279058221055 0.10161840543919011 0.11493951767943357 0.1076334791462356 0.11486424780293666 0.1070662769138949" fill="none" stroke="#000000" stroke-width="0.001"/>
<path d="M 0.0751357521970633 0.1070662769138949 C 0.0752110220735602 0.10649907468155421 0.07676077201226283 0.09890129481242302 0.07603899071502611 0.10025985012580656 C 0.07676077201226283 0.09890129481242302 0.08420320195355395 0.08933611648349114 0.08379712776390404 0.09076361315329243 C 0.08420320195355395 0.08933611648349114 0.08067144375973512 0.08249374649943274 0.08091188099082504 0.08312989008819117" fill="none" stroke="#000000" stroke-width="0.001"/>
</g><g transform="translate(0.31116817902004285,0.4229855226456441) rotate(0) scale(1,1) translate(-0.14696662808641978,-0.14696662808641975)"><path d="M 0.15101366372311223 0.14524833249839195 C 0.1503567093881874 0.14593932967422169 0.1434684077946811 0.15143939023992667 0.14423497755504944 0.1509359811904287 C 0.1434684077946811 0.15143939023992667 0.14170521117324866 0.15110165296603592 0.14181482659869216 0.1512892410923677 C 0.14170521117324866 0.15110165296603592 0.1435765467846523 0.14799392649861776 0.14291959244972746 0.1486849236744475 C 0.1435765467846523 0.14799392649861776 0.15046484837815852 0.1424938659329128 0.14969827861779017 0.14299727498241077 C 0.15046484837815852 0.1424938659329128 0.152228044999591 0.1428316032068036 0.1521184295741475 0.14264401508047184 C 0.152228044999591 0.1428316032068036 0.1503567093881874 0.14593932967422169 0.15101366372311223 0.14524833249839195 Z" fill="#cccccc" stroke="#000000" stroke-width="0.001"/>
</g><g transform="translate(0.3635187266372988,0.4229855226456441) rotate(0) scale(1,1) translate(-0.14696662808641978,-0.14696662808641975)"><path d="M 0.14181482659869216 0.14264401508047184 C 0.14192444202413565 0.14245642695414007 0.14500154731541778 0.14350068403190874 0.14423497755504944 0.14299727498241077 C 0.14500154731541778 0.14350068403190874 0.1516706180580371 0.14937592085027723 0.15101366372311226 0.1486849236744475 C 0.1516706180580371 0.14937592085027723 0.15200881414870399 0.15147682921869945 0.1521184295741475 0.1512892410923677 C 0.15200881414870399 0.15147682921869945 0.14893170885742182 0.15043257214093073 0.14969827861779017 0.1509359811904287 C 0.14893170885742182 0.15043257214093073 0.14226263811480264 0.1445573353225622 0.14291959244972746 0.14524833249839195 C 0.14226263811480264 0.1445573353225622 0.14192444202413565 0.14245642695414007 0.14181482659869216 0.14264401508047184 Z" fill="#cccccc" stroke="#000000" stroke-width="0.001"/>
</g></g>
<g id="腹節5">
<g transform="translate(0.3373434528286706,0.3759922536609382) rotate(0) scale(1,1) translate(-0.09499999999999997,-0.07829460229446786)"><path d="M 0.05645191251438611 0.07829460229446784 C 0.05688228455236671 0.07668843198256727 0.06322254728205394 0.05623858996584039 0.06161637697015336 0.05902055855166094 C 0.06322254728205394 0.05623858996584039 0.07850792484301358 0.04330480895272071 0.07572595625719303 0.04491097926462128 C 0.07850792484301358 0.04330480895272071 0.09821234062380108 0.039746514808854036 0.09499999999999993 0.039746514808854036 C 0.09821234062380108 0.039746514808854036 0.11705601232862739 0.04651714957652185 0.11427404374280684 0.04491097926462128 C 0.11705601232862739 0.04651714957652185 0.1299897933417471 0.06180252713748149 0.12838362302984652 0.05902055855166094 C 0.1299897933417471 0.06180252713748149 0.13397845952359436 0.07990077260636845 0.13354808748561375 0.07829460229446787" fill="none" stroke="#000000" stroke-width="0.001"/>
<path d="M 0.13354808748561375 0.07829460229446787 C 0.13372258931336417 0.07896356388987924 0.1356131636203044 0.08836518631187684 0.1356421094186187 0.08632214143940428 C 0.1356131636203044 0.08836518631187684 0.1325441510762238 0.10485418563661111 0.13320073790584225 0.10281114076413855 C 0.1325441510762238 0.10485418563661111 0.12730992825964382 0.11150764150448632 0.12776306746319754 0.11083867990907495" fill="none" stroke="#000000" stroke-width="0.001"/>
<path d="M 0.06223693253680237 0.11083867990907495 C 0.06178379333324864 0.11016971831366358 0.05614267526453917 0.10076809589166598 0.0567992620941576 0.10281114076413854 C 0.05614267526453917 0.10076809589166598 0.0543289447830669 0.08427909656693172 0.05435789058138119 0.08632214143940428 C 0.0543289447830669 0.08427909656693172 0.05662641434213652 0.07762564069905648 0.05645191251438611 0.07829460229446784" fill="none" stroke="#000000" stroke-width="0.001"/>
</g><g transform="translate(0.3373434528286706,0.3922642924682418) rotate(0) scale(1,1) translate(-0.09500000000000003,-0.09500000000000001)"><path d="M 0.05645191251438613 0.08035516507342683 C 0.05966425313818728 0.08035516507342683 0.10142468124760225 0.08035516507342685 0.09499999999999995 0.08035516507342685 C 0.10142468124760225 0.08035516507342685 0.13676042810941497 0.08035516507342685 0.1335480874856138 0.08035516507342685" fill="none" stroke="#000000" stroke-width="0.001"/>
<path d="M 0.1335480874856138 0.08035516507342685 C 0.13372258931336423 0.08095723050929708 0.1356131636203044 0.08941869068909496 0.1356421094186187 0.08757995030386966 C 0.1356131636203044 0.08941869068909496 0.1325441510762238 0.10425879008135579 0.13320073790584225 0.10242004969613049 C 0.1325441510762238 0.10425879008135579 0.12730992825964382 0.11024690036244346 0.12776306746319754 0.10964483492657323" fill="none" stroke="#000000" stroke-width="0.001"/>
<path d="M 0.12776306746319754 0.10964483492657323 C 0.12711199671103862 0.1097880357419736 0.1182595552502445 0.11150644552677798 0.11995021843729052 0.11136324471137761 C 0.1182595552502445 0.11150644552677798 0.10643551678375816 0.11136324471137761 0.10747510921864527 0.11136324471137761" fill="none" stroke="#000000" stroke-width="0.001"/>
<path d="M 0.10747510921864527 0.11136324471137761 C 0.10643551678375816 0.11136324471137761 0.09292081513022578 0.11136324471137761 0.09499999999999999 0.11136324471137761 C 0.09292081513022578 0.11136324471137761 0.0814852983464676 0.11136324471137761 0.0825248907813547 0.11136324471137761" fill="none" stroke="#000000" stroke-width="0.001"/>
<path d="M 0.0825248907813547 0.11136324471137761 C 0.0814852983464676 0.11136324471137761 0.06835911837566339 0.11122004389597724 0.07004978156270941 0.11136324471137761 C 0.06835911837566339 0.11122004389597724 0.06158586178464346 0.10950163411117286 0.06223693253680238 0.10964483492657323" fill="none" stroke="#000000" stroke-width="0.001"/>
<path d="M 0.06223693253680238 0.10964483492657323 C 0.061783793333248654 0.109042769490703 0.05614267526453919 0.10058130931090517 0.05679926209415762 0.10242004969613047 C 0.05614267526453919 0.10058130931090517 0.054328944783066914 0.08574120991864435 0.054357890581381206 0.08757995030386966 C 0.054328944783066914 0.08574120991864435 0.05662641434213654 0.07975309963755658 0.05645191251438613 0.08035516507342683" fill="none" stroke="#000000" stroke-width="0.001"/>
</g><g transform="translate(0.3373434528286706,0.3922642924682418) rotate(0) scale(1,1) translate(-0.09499999999999999,-0.09500000000000001)"><path d="M 0.11157567761881393 0.08250514746125391 C 0.1112607933870261 0.08317477229152595 0.10822069409512278 0.09204327349799338 0.10779706683736001 0.09054064542451834 C 0.10822069409512278 0.09204327349799338 0.11748369715533662 0.10196674256756853 0.11665920471196713 0.10053668434295428 C 0.11748369715533662 0.10196674256756853 0.1177769571116127 0.10829839910130064 0.11769097615779382 0.10770134411988938" fill="none" stroke="#000000" stroke-width="0.001"/>
<path d="M 0.07230902384220611 0.10770134411988938 C 0.072395004796025 0.10710428913847812 0.07416528773140227 0.09910662611834001 0.07334079528803278 0.10053668434295426 C 0.07416528773140227 0.09910662611834001 0.08262656042040267 0.0890380173510433 0.08220293316263991 0.09054064542451834 C 0.08262656042040267 0.0890380173510433 0.07810943814939819 0.08183552263098184 0.07842432238118602 0.08250514746125388" fill="none" stroke="#000000" stroke-width="0.001"/>
</g><g transform="translate(0.3074433770841717,0.39119485837355866) rotate(0) scale(1,1) translate(-0.14696662808641978,-0.14696662808641975)"><path d="M 0.15201493202987093 0.14521215785443342 C 0.15119544204821636 0.145917702339228 0.1426029207017527 0.1515335536536847 0.14355914582344714 0.15101954651893412 C 0.1426029207017527 0.1515335536536847 0.1404034954294979 0.15118870612139626 0.14054023056953777 0.15138024347144027 C 0.1404034954294979 0.15118870612139626 0.14273781412462316 0.14801555383361142 0.14191832414296862 0.148721098318406 C 0.14273781412462316 0.14801555383361142 0.15133033547108685 0.14239970251915474 0.1503741103493924 0.1429137096539053 C 0.15133033547108685 0.14239970251915474 0.15352976074334176 0.1427445500514433 0.1533930256033019 0.14255301270139928 C 0.15352976074334176 0.1427445500514433 0.15119544204821636 0.145917702339228 0.15201493202987093 0.14521215785443342 Z" fill="#cccccc" stroke="#000000" stroke-width="0.001"/>
</g><g transform="translate(0.36724352857316955,0.3911948583735587) rotate(0) scale(1,1) translate(-0.14696662808641978,-0.14696662808641975)"><path d="M 0.14054023056953777 0.14255301270139928 C 0.14067696570957766 0.14236147535135527 0.1445153709451416 0.14342771678865585 0.14355914582344717 0.1429137096539053 C 0.1445153709451416 0.14342771678865585 0.15283442201152553 0.14942664280320056 0.15201493202987096 0.148721098318406 C 0.15283442201152553 0.14942664280320056 0.153256290463262 0.1515717808214843 0.15339302560330187 0.15138024347144027 C 0.153256290463262 0.1515717808214843 0.14941788522769794 0.15050553938418354 0.15037411034939238 0.15101954651893412 C 0.14941788522769794 0.15050553938418354 0.14109883416131405 0.14450661336963885 0.1419183241429686 0.14521215785443342 C 0.14109883416131405 0.14450661336963885 0.14067696570957766 0.14236147535135527 0.14054023056953777 0.14255301270139928 Z" fill="#cccccc" stroke="#000000" stroke-width="0.001"/>
</g></g>
<g id="腹節4">
<g transform="translate(0.3373434528286706,0.34336661194203383) rotate(0) scale(1,1) translate(-0.09499999999999997,-0.07829460229446786)"><path d="M 0.05555850284395758 0.07829460229446784 C 0.05599884939859241 0.07665120657963274 0.062486057214410674 0.05572740884141129 0.060842661499575575 0.058573853716446654 C 0.062486057214410674 0.05572740884141129 0.07812569629701414 0.04249386807920835 0.07527925142197878 0.04413726379404345 C 0.07812569629701414 0.04249386807920835 0.09828679142967017 0.038853105138425464 0.09499999999999997 0.038853105138425464 C 0.09828679142967017 0.038853105138425464 0.11756719345305654 0.04578065950887855 0.11472074857802117 0.04413726379404345 C 0.11756719345305654 0.04578065950887855 0.13080073421525948 0.06142029859148202 0.12915733850042438 0.058573853716446654 C 0.13080073421525948 0.06142029859148202 0.13488184371067719 0.07993799800930297 0.13444149715604237 0.07829460229446787" fill="none" stroke="#000000" stroke-width="0.001"/>
<path d="M 0.13444149715604237 0.07829460229446787 C 0.1347240034530054 0.07896524048535646 0.1380787394351097 0.08839042587081772 0.1378315727195985 0.08634226058513095 C 0.1380787394351097 0.08839042587081772 0.13705432542947582 0.10492075100839593 0.13740749774217675 0.10287258572270916 C 0.13705432542947582 0.10492075100839593 0.13327567223593836 0.11159088220426079 0.13359350496718747 0.11092024401337221" fill="none" stroke="#000000" stroke-width="0.001"/>
<path d="M 0.056406495032812455 0.11092024401337221 C 0.05608866230156335 0.11024960582248362 0.052239329945122245 0.10082442043702237 0.052592502257823165 0.10287258572270915 C 0.052239329945122245 0.10082442043702237 0.05241559399591262 0.08429409529944418 0.05216842728040142 0.08634226058513095 C 0.05241559399591262 0.08429409529944418 0.05584100914092059 0.07762396410357925 0.05555850284395758 0.07829460229446784" fill="none" stroke="#000000" stroke-width="0.001"/>
</g><g transform="translate(0.3373434528286706,0.35967943280148595) rotate(0) scale(1,1) translate(-0.09500000000000003,-0.09500000000000001)"><path d="M 0.055558502843957594 0.08031846122649307 C 0.05884529427362779 0.08031846122649307 0.10157358285934034 0.0803184612264931 0.09499999999999995 0.0803184612264931 C 0.10157358285934034 0.0803184612264931 0.13772828858571257 0.0803184612264931 0.13444149715604237 0.0803184612264931" fill="none" stroke="#000000" stroke-width="0.001"/>
<path d="M 0.13444149715604237 0.0803184612264931 C 0.1347240034530054 0.08092203559829282 0.1380787394351097 0.08940470244520796 0.1378315727195985 0.08756135368808986 C 0.1380787394351097 0.08940470244520796 0.13705432542947582 0.10428199506902835 0.13740749774217675 0.10243864631191026 C 0.13705432542947582 0.10428199506902835 0.13327567223593836 0.11028511314530673 0.13359350496718747 0.109681538773507" fill="none" stroke="#000000" stroke-width="0.001"/>
<path d="M 0.13359350496718747 0.109681538773507 C 0.1326343096682954 0.10982509848819409 0.11999550102407025 0.11154781506443909 0.12208316138048243 0.111404255349752 C 0.11999550102407025 0.11154781506443909 0.10741311563272113 0.111404255349752 0.10854158069024122 0.111404255349752" fill="none" stroke="#000000" stroke-width="0.001"/>
<path d="M 0.10854158069024122 0.111404255349752 C 0.10741311563272112 0.111404255349752 0.09274306988495978 0.111404255349752 0.09499999999999999 0.111404255349752 C 0.09274306988495978 0.111404255349752 0.08032995425223863 0.111404255349752 0.08145841930975874 0.111404255349752" fill="none" stroke="#000000" stroke-width="0.001"/>
<path d="M 0.08145841930975874 0.111404255349752 C 0.08032995425223863 0.111404255349752 0.06582917826310533 0.11126069563506491 0.06791683861951751 0.111404255349752 C 0.06582917826310533 0.11126069563506491 0.05544729973392039 0.10953797905881991 0.056406495032812476 0.109681538773507" fill="none" stroke="#000000" stroke-width="0.001"/>
<path d="M 0.056406495032812476 0.109681538773507 C 0.05608866230156337 0.10907796440170728 0.05223932994512226 0.10059529755479214 0.05259250225782318 0.10243864631191024 C 0.05223932994512226 0.10059529755479214 0.052415593995912634 0.08571800493097176 0.052168427280401435 0.08756135368808986 C 0.052415593995912634 0.08571800493097176 0.055841009140920606 0.07971488685469333 0.055558502843957594 0.08031846122649307" fill="none" stroke="#000000" stroke-width="0.001"/>
</g><g transform="translate(0.3373434528286706,0.35967943280148595) rotate(0) scale(1,1) translate(-0.09499999999999999,-0.09500000000000001)"><path d="M 0.11195984377709821 0.08247383204135729 C 0.11167039577663573 0.0831451351293493 0.10897531619864428 0.09203586315588307 0.10848646777154844 0.09052946909726148 C 0.10897531619864428 0.09203586315588307 0.11869493423176163 0.10198420307525669 0.11782602490224829 0.10055056074481633 C 0.11869493423176163 0.10198420307525669 0.11900399262766347 0.10833172842235651 0.11891337972570845 0.10773317706254573" fill="none" stroke="#000000" stroke-width="0.001"/>
<path d="M 0.07108662027429145 0.10773317706254573 C 0.07117723317624647 0.10713462570273495 0.07304288442726495 0.09911691841437593 0.07217397509775161 0.10055056074481629 C 0.07304288442726495 0.09911691841437593 0.0820023806555473 0.08902307503863989 0.08151353222845145 0.09052946909726148 C 0.0820023806555473 0.08902307503863989 0.07775070822243928 0.08180252895336525 0.07804015622290175 0.08247383204135726" fill="none" stroke="#000000" stroke-width="0.001"/>
</g><g transform="translate(0.30583260639643994,0.35860731842085125) rotate(0) scale(1,1) translate(-0.14696662808641978,-0.14696662808641975)"><path d="M 0.1531404063691558 0.14520739803285995 C 0.15213821840497394 0.14591485663725517 0.14163007105945621 0.15154594357654758 0.14279947804363394 0.15103054195689536 C 0.14163007105945621 0.15154594357654758 0.1389403035390274 0.15120016048394372 0.13910752255902323 0.1513922174686867 C 0.1389403035390274 0.15120016048394372 0.14179503776786573 0.14801839953558427 0.14079284980368387 0.1487258581399795 C 0.14179503776786573 0.14801839953558427 0.1523031851133834 0.14238731259629187 0.15113377812920567 0.14290271421594408 C 0.1523031851133834 0.14238731259629187 0.15499295263381224 0.14273309568889583 0.1548257336138164 0.14254103870415286 C 0.15499295263381224 0.14273309568889583 0.15213821840497394 0.14591485663725517 0.1531404063691558 0.14520739803285995 Z" fill="#cccccc" stroke="#000000" stroke-width="0.001"/>
</g><g transform="translate(0.3688542992609013,0.3586073184208513) rotate(0) scale(1,1) translate(-0.14696662808641978,-0.14696662808641975)"><path d="M 0.13910752255902323 0.14254103870415286 C 0.1392747415790191 0.14234898171940988 0.14396888502781172 0.1434181158355963 0.142799478043634 0.14290271421594408 C 0.14396888502781172 0.1434181158355963 0.15414259433333768 0.1494333167443747 0.15314040636915582 0.1487258581399795 C 0.15414259433333768 0.1494333167443747 0.15465851459382052 0.15158427445342967 0.15482573361381635 0.1513922174686867 C 0.15465851459382052 0.15158427445342967 0.14996437114502792 0.15051514033724314 0.15113377812920564 0.15103054195689536 C 0.14996437114502792 0.15051514033724314 0.13979066183950195 0.14449993942846473 0.1407928498036838 0.14520739803285995 C 0.13979066183950195 0.14449993942846473 0.1392747415790191 0.14234898171940988 0.13910752255902323 0.14254103870415286 Z" fill="#cccccc" stroke="#000000" stroke-width="0.001"/>
</g></g>
<g id="腹節3">
<g transform="translate(0.3373434528286706,0.31094418136297863) rotate(0) scale(1,1) translate(-0.09499999999999997,-0.07829460229446786)"><path d="M 0.05512421567689463 0.07829460229446786 C 0.05556941085218353 0.07674197670109281 0.06212804879382419 0.056979314451090605 0.060466557780361474 0.059663095173967305 C 0.06212804879382419 0.056979314451090605 0.07793989469008383 0.044544046977427164 0.07506210783844729 0.046089233619947496 C 0.07793989469008383 0.044544046977427164 0.09832298202692538 0.04112085546372332 0.09499999999999995 0.04112085546372332 C 0.09832298202692538 0.04112085546372332 0.11781567901318915 0.047634420262467815 0.1149378921615526 0.04608923361994748 C 0.11781567901318915 0.047634420262467815 0.13119493323310114 0.062346875896843984 0.12953344221963842 0.059663095173967284 C 0.13119493323310114 0.062346875896843984 0.1353209794983942 0.0798472278878429 0.1348757843231053 0.07829460229446786" fill="none" stroke="#000000" stroke-width="0.001"/>
<path d="M 0.1348757843231053 0.07829460229446786 C 0.13512210002281305 0.07896106336748178 0.13808146096802326 0.08832754331254221 0.13783157271959848 0.08629213517063486 C 0.13808146096802326 0.08832754331254221 0.13759489778422576 0.10475490813926347 0.1378744433042028 0.10271949999735612 C 0.13759489778422576 0.10475490813926347 0.13419390841118023 0.11138349394653696 0.13447702647987428 0.11071703287352305" fill="none" stroke="#000000" stroke-width="0.001"/>
<path d="M 0.05552297352012566 0.11071703287352305 C 0.05523985545143161 0.11005057180050914 0.051846011175820064 0.10068409185544874 0.05212555669579708 0.10271949999735609 C 0.051846011175820064 0.10068409185544874 0.05241831552882621 0.08425672702872751 0.052168427280401414 0.08629213517063486 C 0.05241831552882621 0.08425672702872751 0.055370531376602396 0.07762814122145394 0.05512421567689463 0.07829460229446786" fill="none" stroke="#000000" stroke-width="0.001"/>
</g><g transform="translate(0.3373434528286706,0.32715539665250626) rotate(0) scale(1,1) translate(-0.09500000000000003,-0.09500000000000001)"><path d="M 0.05512421567689464 0.08040990623942523 C 0.058447197703820085 0.08056527389601298 0.10164596405385083 0.08227431811847827 0.09499999999999995 0.08227431811847827 C 0.10164596405385083 0.08227431811847827 0.13819876635003076 0.08025453858283751 0.13487578432310532 0.08040990623942526" fill="none" stroke="#000000" stroke-width="0.001"/>
<path d="M 0.13487578432310532 0.08040990623942526 C 0.13512210002281308 0.08100972120513777 0.13808146096802326 0.08943955315569212 0.13783157271959848 0.0876076858279755 C 0.13808146096802326 0.08943955315569212 0.13762812760449503 0.1042241814997413 0.1378744433042028 0.10239231417202468 C 0.13762812760449503 0.1042241814997413 0.13462589607468053 0.11018990872628741 0.13487578432310532 0.1095900937605749" fill="none" stroke="#000000" stroke-width="0.001"/>
<path d="M 0.13487578432310532 0.1095900937605749 C 0.13376812364746352 0.10973275930332478 0.11936853486411991 0.11144474581632345 0.12158385621540355 0.11130208027357356 C 0.11936853486411991 0.11144474581632345 0.10718426743205996 0.11130208027357356 0.10829192810770177 0.11130208027357356" fill="none" stroke="#000000" stroke-width="0.001"/>
<path d="M 0.10829192810770177 0.11130208027357356 C 0.10718426743205996 0.11130208027357356 0.09278467864871635 0.11130208027357356 0.09499999999999999 0.11130208027357356 C 0.09278467864871635 0.11130208027357356 0.08060041121665637 0.11130208027357356 0.08170807189229819 0.11130208027357356" fill="none" stroke="#000000" stroke-width="0.001"/>
<path d="M 0.08170807189229819 0.11130208027357356 C 0.08060041121665637 0.11130208027357356 0.06620082243331275 0.11115941473082368 0.06841614378459639 0.11130208027357356 C 0.06620082243331275 0.11115941473082368 0.0540165550012528 0.10944742821782501 0.055124215676894614 0.1095900937605749" fill="none" stroke="#000000" stroke-width="0.001"/>
<path d="M 0.055124215676894614 0.1095900937605749 C 0.05487432742846982 0.10899027879486238 0.05187924099608933 0.10056044684430804 0.0521255566957971 0.10239231417202466 C 0.05187924099608933 0.10056044684430804 0.05241831552882623 0.08577581850025888 0.052168427280401435 0.0876076858279755 C 0.05241831552882623 0.08577581850025888 0.05537053137660241 0.0798100912737127 0.05512421567689464 0.08040990623942523" fill="none" stroke="#000000" stroke-width="0.001"/>
</g><g transform="translate(0.3373434528286706,0.32715539665250626) rotate(0) scale(1,1) translate(-0.09499999999999999,-0.09500000000000001)"><path d="M 0.11214658725893525 0.08255185217321401 C 0.1118539521697161 0.08321897400197224 0.10912919728628925 0.09205432549394073 0.10863496618830527 0.09055731411831285 C 0.10912919728628925 0.09205432549394073 0.11895583725530919 0.10194070146753084 0.11807736043474307 0.10051598868074865 C 0.11895583725530919 0.10194070146753084 0.11926829866846167 0.1082486907996116 0.1191766880350987 0.10765386755969907" fill="none" stroke="#000000" stroke-width="0.001"/>
<path d="M 0.07082331196490119 0.10765386755969907 C 0.07091492259826415 0.10705904431978652 0.07280111638582294 0.0990912758939664 0.07192263956525682 0.10051598868074858 C 0.07280111638582294 0.0990912758939664 0.0818592649096786 0.08906030274268496 0.0813650338116946 0.09055731411831285 C 0.0818592649096786 0.08906030274268496 0.07756077765184552 0.08188473034445574 0.07785341274106468 0.08255185217321398" fill="none" stroke="#000000" stroke-width="0.001"/>
</g><g transform="translate(0.30548564298948133,0.32608996001287094) rotate(0) scale(1,1) translate(-0.14696662808641978,-0.14696662808641975)"><path d="M 0.15353413362205348 0.14512861735174423 C 0.15246803200630302 0.14586775690122256 0.14128973685211452 0.1517510114655515 0.14253372173305395 0.1512125294701621 C 0.14128973685211452 0.1517510114655515 0.13842843178559125 0.15138974374232847 0.13860631505078022 0.15159040129641738 C 0.13842843178559125 0.15138974374232847 0.1414652241665366 0.14806549927161683 0.14039912255078615 0.14880463882109518 C 0.1414652241665366 0.14806549927161683 0.15264351932072504 0.14218224470728782 0.1513995344397856 0.14272072670267724 C 0.15264351932072504 0.14218224470728782 0.1555048243872484 0.14254351243051108 0.15532694112205941 0.14234285487642218 C 0.1555048243872484 0.14254351243051108 0.15246803200630302 0.14586775690122256 0.15353413362205348 0.14512861735174423 Z" fill="#cccccc" stroke="#000000" stroke-width="0.001"/>
</g><g transform="translate(0.36920126266785985,0.326089960012871) rotate(0) scale(1,1) translate(-0.14696662808641978,-0.14696662808641975)"><path d="M 0.13860631505078022 0.14234285487642218 C 0.13878419831596922 0.14214219732233327 0.14377770661399344 0.14325920869806666 0.142533721733054 0.14272072670267724 C 0.14377770661399344 0.14325920869806666 0.15460023523780395 0.14954377837057353 0.1535341336220535 0.14880463882109518 C 0.15460023523780395 0.14954377837057353 0.1551490578568704 0.15179105885050628 0.1553269411220594 0.15159040129641738 C 0.1551490578568704 0.15179105885050628 0.15015554955884614 0.15067404747477267 0.15139953443978557 0.1512125294701621 C 0.15015554955884614 0.15067404747477267 0.13933302093503566 0.1443894778022659 0.1403991225507861 0.14512861735174423 C 0.13933302093503566 0.1443894778022659 0.13878419831596922 0.14214219732233327 0.13860631505078022 0.14234285487642218 Z" fill="#cccccc" stroke="#000000" stroke-width="0.001"/>
</g></g>
<g id="腹節2">
<g transform="translate(0.3373434528286706,0.29528562114013945) rotate(0) scale(1,1) translate(-0.09499999999999997,-0.07829460229446786)"><path d="M 0.055883754425906165 0.07829460229446786 C 0.05632046969309433 0.07728315762560838 0.06275418119775135 0.06458505129904703 0.061124337632164114 0.06615726626815407 C 0.06275418119775135 0.06458505129904703 0.07826484907693936 0.05866199618935726 0.07544187721295303 0.05942802266518327 C 0.07826484907693936 0.05866199618935726 0.0982596871311744 0.05696494855824202 0.09499999999999992 0.05696494855824202 C 0.0982596871311744 0.05696494855824202 0.11738109465103312 0.06019404914100925 0.1145581227870468 0.05942802266518325 C 0.11738109465103312 0.06019404914100925 0.130505505933423 0.0677294812372611 0.12887566236783576 0.06615726626815405 C 0.130505505933423 0.0677294812372611 0.1345529608412819 0.07930604696332734 0.13411624557409374 0.07829460229446786" fill="none" stroke="#000000" stroke-width="0.001"/>
<path d="M 0.13411624557409374 0.07829460229446786 C 0.13429022628960824 0.07861647269904844 0.13644914263253222 0.08314005676342422 0.1362040141602679 0.08215704714943486 C 0.13644914263253222 0.08314005676342422 0.1368838065257511 0.09107372727632937 0.1370577872412656 0.09009071766234003 C 0.1368838065257511 0.09107372727632937 0.13387111710182947 0.09427503292188759 0.1341162455740938 0.09395316251730701" fill="none" stroke="#000000" stroke-width="0.001"/>
<path d="M 0.05588375442590614 0.09395316251730701 C 0.055638625953641815 0.09363129211272643 0.052768232043219766 0.08910770804835066 0.05294221275873428 0.09009071766234002 C 0.052768232043219766 0.08910770804835066 0.054041114311996326 0.08117403753544551 0.053795985839732004 0.08215704714943486 C 0.054041114311996326 0.08117403753544551 0.05605773514142068 0.07797273188988728 0.055883754425906165 0.07829460229446786" fill="none" stroke="#000000" stroke-width="0.001"/>
</g></g>
</g>
<g transform="translate(0.33734345282867056,0.2712976456560574) rotate(0) scale(1,1) translate(-0.13550000000000004,-0.13549999999999998)"><path d="M 0.10564101409620855 0.09962041112462726 C 0.10633125444758175 0.10063035558186276 0.11553398705586854 0.11377639168852063 0.113923898312687 0.11173974461145321 C 0.11553398705586854 0.11377639168852063 0.12623351970347424 0.1259477544383896 0.1249620790143871 0.12406017604943642 C 0.12623351970347424 0.1259477544383896 0.13005934666386715 0.13553906842236896 0.12918118658173272 0.1343906852788912 C 0.13005934666386715 0.13553906842236896 0.13655313556971133 0.13784077377116968 0.1355000000000001 0.13784077377116968 C 0.13655313556971133 0.13784077377116968 0.14269697350040192 0.13324230213541344 0.1418188134182675 0.1343906852788912 C 0.14269697350040192 0.13324230213541344 0.14730936167470035 0.12217259766048326 0.14603792098561322 0.12406017604943642 C 0.14730936167470035 0.12217259766048326 0.15868619043049473 0.10970309753438579 0.1570761016873132 0.11173974461145321 C 0.15868619043049473 0.10970309753438579 0.16604922625516488 0.09861046666739176 0.16535898590379167 0.09962041112462726" fill="none" stroke="#000000" stroke-width="0.001"/>
<path d="M 0.16535898590379167 0.09962041112462726 C 0.16604432557359391 0.10052351748818772 0.17441513854062074 0.1132184068434458 0.17358306194141873 0.11045768748735281 C 0.17441513854062074 0.1132184068434458 0.17570407947580863 0.13561803520384869 0.17534390509421566 0.1327490433977432 C 0.17570407947580863 0.13561803520384869 0.1777410702527694 0.14711383350114673 0.17790515452053451 0.1448855891606185 C 0.1777410702527694 0.14711383350114673 0.17299737216107572 0.16070484101103732 0.17337489388103408 0.15948797548408203" fill="none" stroke="#000000" stroke-width="0.001"/>
<path d="M 0.17337489388103408 0.15948797548408203 C 0.17127073310986551 0.15948797548408203 0.14391664308467433 0.15948797548408203 0.14812496462701144 0.15948797548408203 C 0.14391664308467433 0.15948797548408203 0.11866671383065167 0.15948797548408203 0.12287503537298877 0.15948797548408203 C 0.11866671383065167 0.15948797548408203 0.09552094534779758 0.15948797548408203 0.09762510611896613 0.15948797548408203" fill="none" stroke="none" stroke-width="0"/>
<path d="M 0.09762510611896613 0.15948797548408203 C 0.09724758439900777 0.15827110995712673 0.09293076121170062 0.1426573448200903 0.09309484547946574 0.14488558916061853 C 0.09293076121170062 0.1426573448200903 0.0960162692873776 0.12988005159163776 0.09565609490578461 0.13274904339774324 C 0.0960162692873776 0.12988005159163776 0.09824901465778356 0.10769696813125984 0.09741693805858156 0.11045768748735284 C 0.09824901465778356 0.10769696813125984 0.1063263537660108 0.0987173047610668 0.10564101409620855 0.09962041112462726" fill="none" stroke="#000000" stroke-width="0.001"/>
</g><g id="基節">
<g transform="translate(0.3274369703450959,0.2637796738359033) rotate(0) scale(1,1) translate(-0.06972157252014745,-0.06972157252014745)"><path d="M 0.046911598558793774 0.05695998521190704 C 0.047343644889904626 0.056868877355670304 0.05338961415936985 0.056069661927187035 0.05209615453212396 0.055866690937066234 C 0.05338961415936985 0.056069661927187035 0.06390308949674298 0.05997248660023255 0.062433114085744486 0.05939563709335665 C 0.06390308949674298 0.05997248660023255 0.07066603090595586 0.06350102460949932 0.06973585946410578 0.06278888501957706 C 0.07066603090595586 0.06350102460949932 0.07391678071493202 0.06837068110182762 0.07359517138794539 0.06794131217242373" fill="none" stroke="#000000" stroke-width="0.001"/>
<path d="M 0.07359517138794539 0.06794131217242373 C 0.0736846155796754 0.06807107604685225 0.07473717100824497 0.0697618746617203 0.07466850168870556 0.06949847866556591 C 0.07473717100824497 0.0697618746617203 0.07439842835022767 0.0712356962480023 0.07441920322241828 0.07110206412627643" fill="none" stroke="#000000" stroke-width="0.001"/>
<path d="M 0.07441920322241828 0.07110206412627643 C 0.07423711738993215 0.0712429922130457 0.07126589570569755 0.07314853501317167 0.07223417323258466 0.07279320116750775 C 0.07126589570569755 0.07314853501317167 0.061096173945126106 0.07588745916421787 0.06279987289977294 0.07536607027424361 C 0.061096173945126106 0.07588745916421787 0.05052524464769123 0.07930597669485619 0.05178978577682258 0.07904986784719882 C 0.05052524464769123 0.07930597669485619 0.047278345481311254 0.07838850216270969 0.04762537935019674 0.07843937644613193" fill="none" stroke="#000000" stroke-width="0.001"/>
<path d="M 0.04762537935019674 0.07843937644613193 C 0.04717390751226228 0.0783343430139711 0.04141777609238466 0.07675724428857597 0.0422077172949832 0.07717897526020198 C 0.04141777609238466 0.07675724428857597 0.037672841255880864 0.07261840445032978 0.03814608491901423 0.07337860478661987 C 0.037672841255880864 0.07261840445032978 0.036499052471074364 0.06716159658996157 0.03652879333738282 0.06805657122472095 C 0.036499052471074364 0.06716159658996157 0.038210925494938756 0.06184896796690888 0.03778919452331275 0.06263890916950741 C 0.038210925494938756 0.06184896796690888 0.04234976533318496 0.05810403313040509 0.04158956499689488 0.058577276793538455 C 0.04234976533318496 0.05810403313040509 0.047355101355618684 0.05682521091343776 0.046911598558793774 0.05695998521190704" fill="none" stroke="#000000" stroke-width="0.001"/>
</g><g transform="translate(0.33356415817123464,0.26992116930860377) rotate(0) scale(1,1) translate(-0.06972157252014745,-0.06972157252014745)"><path d="M 0.04703983829269489 0.06663606293149263 C 0.047412072882719127 0.06653304892817595 0.05273074139217727 0.06541926140773446 0.051506653372985704 0.06539989489169241 C 0.05273074139217727 0.06541926140773446 0.06321643410722691 0.06746481867759506 0.06172889452299368 0.06686846112399727 C 0.06321643410722691 0.06746481867759506 0.07031017185229123 0.07316283084787961 0.06935712838378438 0.07255618553486583 C 0.07031017185229123 0.07316283084787961 0.07348277345851682 0.07428087315893742 0.07316541614507586 0.07414820488016267" fill="none" stroke="#000000" stroke-width="0.001"/>
<path d="M 0.07316541614507586 0.07414820488016267 C 0.07333961515677566 0.07429907028588037 0.07526853288775023 0.07615605372339765 0.07525580428547334 0.07595858974877501 C 0.07526853288775023 0.07615605372339765 0.07315668896297577 0.0765643711445394 0.07331815937239866 0.07651777257563444" fill="none" stroke="#000000" stroke-width="0.001"/>
<path d="M 0.07331815937239866 0.07651777257563444 C 0.07308930657048437 0.07668273569575586 0.0695500590747941 0.07888677790193457 0.07057192574942724 0.0784973300170914 C 0.0695500590747941 0.07888677790193457 0.059332258153698324 0.08172527241790592 0.06105575927680098 0.08119114719375244 C 0.059332258153698324 0.08172527241790592 0.048622243918187986 0.08519338834562562 0.04988991227219536 0.08490683270693328 C 0.048622243918187986 0.08519338834562562 0.045506557925088925 0.08460673003732111 0.0458437390287125 0.08462981485806051" fill="none" stroke="#000000" stroke-width="0.001"/>
<path d="M 0.0458437390287125 0.08462981485806051 C 0.04547554615173924 0.08450445005469567 0.04080104964479125 0.08270740687137661 0.041425424505033406 0.08312543721768247 C 0.04080104964479125 0.08270740687137661 0.03801953138850547 0.07893923837281547 0.03835124070580661 0.07961345070239023 C 0.03801953138850547 0.07893923837281547 0.03749475016675234 0.0742851495991784 0.037444912697419744 0.07503488926278538 C 0.03749475016675234 0.0742851495991784 0.03936732068410366 0.06999219987886414 0.0389492903377978 0.07061657473910629 C 0.03936732068410366 0.06999219987886414 0.04313548918266478 0.06721068162257834 0.04246127685309002 0.06754239093987949 C 0.04313548918266478 0.06721068162257834 0.04742138507932863 0.06656053559746039 0.04703983829269489 0.06663606293149263" fill="none" stroke="#000000" stroke-width="0.001"/>
</g><g transform="translate(0.3151009677776919,0.2557775397037062) rotate(0) scale(1,1) translate(-0.011628401968068896,-0.011628401968068892)"><path d="M 0.03212939447556476 0.025374253575771857 C 0.03150481701325007 0.025265478952761357 0.023474725276915548 0.02367796141434648 0.024634464927788514 0.024068958099645838 C 0.023474725276915548 0.02367796141434648 0.017677356476530896 0.020400071289890718 0.018212518665089175 0.020682293352179575" fill="none" stroke="#000000" stroke-width="0.001"/>
<path d="M 0.018212518665089175 0.020682293352179575 C 0.018320255035832345 0.020223515335787437 0.019943786917567548 0.014314268475640584 0.01950535511400723 0.015176957155473927 C 0.019943786917567548 0.014314268475640584 0.02380439574063013 0.009926118530738264 0.023473700307812984 0.010330029194179469" fill="none" stroke="#000000" stroke-width="0.001"/>
<path d="M 0.023473700307812984 0.010330029194179469 C 0.023932751499086805 0.011071701372181712 0.029703622450411495 0.02048378069533908 0.028982314603098847 0.019230095330206382 C 0.029703622450411495 0.02048378069533908 0.03239165113160358 0.025886266762902312 0.03212939447556476 0.025374253575771857" fill="none" stroke="#000000" stroke-width="0.001"/>
</g><g transform="translate(0.33131834484693135,0.2740229519544356) rotate(0) scale(1,1) translate(-0.06972157252014745,-0.06972157252014745)"><path d="M 0.04558159581880171 0.06327591978066507 C 0.04591773645012009 0.06316194019163833 0.0508374469655441 0.061960108962149596 0.04961528339462223 0.06190816471234416 C 0.0508374469655441 0.061960108962149596 0.06205986457175344 0.06442308326357693 0.06024755866986413 0.06389925077833036 C 0.06205986457175344 0.06442308326357693 0.07262410928948207 0.06880973364614852 0.07136295421729401 0.06819415453530292 C 0.07262410928948207 0.06880973364614852 0.07571629164602317 0.07154387057290874 0.07538141953612093 0.07128620010847753" fill="none" stroke="#000000" stroke-width="0.001"/>
<path d="M 0.07538141953612093 0.07128620010847753 C 0.07534335434273345 0.07150559974024195 0.07474717538136412 0.07438565855443788 0.07492463721547113 0.0739189956896506 C 0.07474717538136412 0.07438565855443788 0.0731124808861173 0.07713341771894766 0.07325187752683682 0.07688615448592481" fill="none" stroke="#000000" stroke-width="0.001"/>
<path d="M 0.07325187752683682 0.07688615448592481 C 0.0729990612117804 0.07701210225385428 0.0691055892701815 0.07862181567881844 0.07021808174615991 0.0783975277010785 C 0.0691055892701815 0.07862181567881844 0.05803140459603989 0.07983637295110427 0.05990196781509588 0.07957761021880419 C 0.05803140459603989 0.07983637295110427 0.046400502328857715 0.08158947313583532 0.04777132311748804 0.08150268048867938 C 0.046400502328857715 0.08158947313583532 0.04309218462103567 0.08054549210934185 0.04345211835153201 0.08061912198467551" fill="none" stroke="#000000" stroke-width="0.001"/>
<path d="M 0.04345211835153201 0.08061912198467551 C 0.04310268896744127 0.08047794334942543 0.03867751095252616 0.07848682074978089 0.03925896574244318 0.07892497836167453 C 0.03867751095252616 0.07848682074978089 0.0361901850592543 0.07469104762423191 0.036474660872527764 0.07536123064195184 C 0.0361901850592543 0.07469104762423191 0.03593398421096453 0.07016014872386835 0.03584525598316163 0.07088278214903544 C 0.03593398421096453 0.07016014872386835 0.03797755721805626 0.0661081747500296 0.03753939960616262 0.06668962953994662 C 0.03797755721805626 0.0661081747500296 0.04177333034360521 0.06362084885675773 0.04110314732588529 0.0639053246700312 C 0.04177333034360521 0.06362084885675773 0.045954799859878076 0.06322346937321789 0.04558159581880171 0.06327591978066507" fill="none" stroke="#000000" stroke-width="0.001"/>
</g><g transform="translate(0.33128464507090755,0.2790100167559939) rotate(0) scale(1,1) translate(-0.06972157252014745,-0.06972157252014745)"><path d="M 0.03463662635512887 0.06133653686792046 C 0.03502329496884192 0.06123371469407703 0.04072574299032219 0.060384067427892506 0.0392766497196855 0.06010267078179923 C 0.04072574299032219 0.060384067427892506 0.05410466223701012 0.06536314244532909 0.05202574560276908 0.0647132966210397 C 0.05410466223701012 0.06536314244532909 0.06596105587384658 0.06842931852286721 0.06422364933057795 0.06790082067327191 C 0.06596105587384658 0.06842931852286721 0.07359553868794388 0.07131814166142587 0.07287462412199266 0.07105527081618326" fill="none" stroke="#000000" stroke-width="0.001"/>
<path d="M 0.07287462412199266 0.07105527081618326 C 0.07299407949700687 0.07121380241177078 0.07409086546425432 0.07338725974481092 0.07430808862216319 0.07295764996323342 C 0.07409086546425432 0.07338725974481092 0.06993126769416319 0.07648166638110324 0.07026794622708626 0.07621058819511325" fill="none" stroke="#000000" stroke-width="0.001"/>
<path d="M 0.07026794622708626 0.07621058819511325 C 0.06983759615715504 0.07638408466427433 0.06420266219709754 0.07857860875895477 0.06510374538791164 0.07829254582504627 C 0.06420266219709754 0.07857860875895477 0.05733907881799816 0.07988957930457494 0.05945494793731705 0.07964334340201519 C 0.05733907881799816 0.07988957930457494 0.03764095992627229 0.08121670326720144 0.039713315956084905 0.08124737665576315 C 0.03764095992627229 0.08121670326720144 0.034159455548189076 0.07911091991290076 0.03458667557956568 0.0792752627392748" fill="none" stroke="#000000" stroke-width="0.001"/>
<path d="M 0.03458667557956568 0.0792752627392748 C 0.03421323096287024 0.07917408319998238 0.029459072807206436 0.07768558236875525 0.030105340179220452 0.07806110826776583 C 0.029459072807206436 0.07768558236875525 0.02645954610310161 0.07412060329681881 0.026831467115397474 0.07476895195114797 C 0.02645954610310161 0.07412060329681881 0.025644369313985234 0.06953347750450958 0.025642288031670103 0.07028092441581602 C 0.025644369313985234 0.06953347750450958 0.027231968402189624 0.06515332164345677 0.026856442503179055 0.0657995890154708 C 0.027231968402189624 0.06515332164345677 0.03079694747412606 0.06215379493935195 0.03014859881979691 0.06252571595164781 C 0.03079694747412606 0.06215379493935195 0.03501062864973986 0.06123743861094318 0.03463662635512887 0.06133653686792046" fill="none" stroke="#000000" stroke-width="0.001"/>
</g><g transform="translate(0.3313365863182979,0.28302917916771453) rotate(0) scale(1,1) translate(-0.06972157252014745,-0.06972157252014745)"><path d="M 0.004826071734616272 0.07316415343212643 C 0.005299440802182216 0.07293208860952935 0.012566923743023484 0.06999194280310014 0.010506500545407603 0.07037937556096151 C 0.012566923743023484 0.06999194280310014 0.03282913672087184 0.06854296992687992 0.02955115010600684 0.06851496033779005 C 0.03282913672087184 0.06854296992687992 0.0536338147726108 0.0710233847242105 0.04984233992378764 0.0707154906300399 C 0.0536338147726108 0.0710233847242105 0.07714939065589274 0.07233420603765384 0.07504884829188466 0.07220968946783737" fill="none" stroke="#000000" stroke-width="0.001"/>
<path d="M 0.07504884829188466 0.07220968946783737 C 0.07484344054664317 0.07226327393516696 0.07197679289303933 0.07322410924749005 0.07258395534898683 0.07285270307579235 C 0.07197679289303933 0.07322410924749005 0.06736114410980872 0.07698438523257785 0.06776289882051473 0.07666656352820973" fill="none" stroke="#000000" stroke-width="0.001"/>
<path d="M 0.06776289882051473 0.07666656352820973 C 0.06702754231096258 0.07671997462832926 0.05704625759634621 0.07796593717124367 0.05893862070588894 0.07730749672964413 C 0.05704625759634621 0.07796593717124367 0.04115050931091484 0.0858091425084483 0.04505454150600201 0.08456784882740423 C 0.04115050931091484 0.0858091425084483 0.00868941432075047 0.09269531218431921 0.012090234364842897 0.09220302090217303 C 0.00868941432075047 0.09269531218431921 0.003590906527897056 0.09033137115574058 0.00424470097689289 0.09047534421315846" fill="none" stroke="#000000" stroke-width="0.001"/>
<path d="M 0.00424470097689289 0.09047534421315846 C 0.0038872965403096197 0.09036659649758509 -0.0006567041624093174 0.0887887434081229 -4.4152262106356144E-05 0.08917037162627797 C -0.0006567041624093174 0.0887887434081229 -0.0034455932244639026 0.08525902991342277 -0.003105921826742644 0.08589580559529754 C -0.0034455932244639026 0.08525902991342277 -0.004095985253189651 0.08080776382790443 -0.004120209034761457 0.08152906344378076 C -0.004095985253189651 0.08080776382790443 -0.0024336082297258892 0.07662765830447854 -0.002815236447880967 0.0772402102047815 C -0.0024336082297258892 0.07662765830447854 0.0010961052649742496 0.07383876924242397 0.0004593295830994798 0.07417844064014523 C 0.0010961052649742496 0.07383876924242397 0.005189966913909338 0.07307962949812485 0.004826071734616272 0.07316415343212643" fill="none" stroke="#000000" stroke-width="0.001"/>
</g><g transform="translate(0.3472499353122456,0.26377967383590323) rotate(0) scale(1,1) translate(-0.06972157252014745,-0.06972157252014745)"><path d="M 0.09253154648150108 0.056959985211907 C 0.09297504927832599 0.057094759510376285 0.09861378037969006 0.05905052045667179 0.09785358004339997 0.05857727679353843 C 0.09861378037969006 0.05905052045667179 0.10207568148860811 0.06342885037210592 0.1016539505169821 0.06263890916950739 C 0.10207568148860811 0.06342885037210592 0.10288461083660362 0.06895154585948032 0.10291435170291208 0.06805657122472095 C 0.10288461083660362 0.06895154585948032 0.10082381645814725 0.07413880512290992 0.10129706012128062 0.07337860478661984 C 0.10082381645814725 0.07413880512290992 0.09644548654271315 0.07760070623182799 0.09723542774531169 0.07717897526020198 C 0.09644548654271315 0.07760070623182799 0.09136629385216365 0.07854440987829273 0.09181776569009811 0.0784393764461319" fill="none" stroke="#000000" stroke-width="0.001"/>
<path d="M 0.09181776569009811 0.0784393764461319 C 0.09147073182121263 0.07849025072955414 0.08638881813434096 0.07879375899954144 0.08765335926347231 0.07904986784719881 C 0.08638881813434096 0.07879375899954144 0.07493957318587507 0.07484468138426931 0.07664327214052191 0.07536607027424357 C 0.07493957318587507 0.07484468138426931 0.06624069428082308 0.07243786732184378 0.06720897180771018 0.0727932011675077 C 0.06624069428082308 0.07243786732184378 0.06484185598539048 0.07096113603950716 0.06502394181787662 0.07110206412627643" fill="none" stroke="#000000" stroke-width="0.001"/>
<path d="M 0.06502394181787662 0.07110206412627643 C 0.065003166945686 0.07096843200455055 0.0648433126711287 0.06923508266941149 0.06477464335158929 0.06949847866556588 C 0.0648433126711287 0.06923508266941149 0.06593741784407949 0.06781154829799518 0.06584797365234947 0.0679413121724237" fill="none" stroke="#000000" stroke-width="0.001"/>
<path d="M 0.06584797365234947 0.0679413121724237 C 0.0661695829793361 0.06751194324301982 0.07063745701803917 0.0620767454296548 0.06970728557618909 0.06278888501957705 C 0.07063745701803917 0.0620767454296548 0.0784800063655489 0.05881878758648076 0.07701003095455042 0.05939563709335666 C 0.0784800063655489 0.05881878758648076 0.08864045013541683 0.055663719946945425 0.08734699050817094 0.055866690937066234 C 0.08864045013541683 0.055663719946945425 0.09296359281261193 0.057051093068143724 0.09253154648150108 0.056959985211907" fill="none" stroke="#000000" stroke-width="0.001"/>
</g><g transform="translate(0.3411227474861067,0.26992116930860377) rotate(0) scale(1,1) translate(-0.06972157252014745,-0.06972157252014745)"><path d="M 0.09240330674760003 0.06663606293149266 C 0.09278485353423377 0.0667115902655249 0.09765608051677961 0.06787410025718066 0.09698186818720486 0.06754239093987952 C 0.09765608051677961 0.06787410025718066 0.10091188504880293 0.07124094959934849 0.10049385470249707 0.07061657473910633 C 0.10091188504880293 0.07124094959934849 0.1020480698122077 0.0757846289263924 0.1019982323428751 0.07503488926278541 C 0.1020480698122077 0.0757846289263924 0.10076019501718708 0.08028766303196501 0.10109190433448823 0.07961345070239026 C 0.10076019501718708 0.08028766303196501 0.09739334567501925 0.08354346756398831 0.09801772053526141 0.08312543721768245 C 0.09739334567501925 0.08354346756398831 0.09323121313460908 0.08475517966142534 0.09359940601158234 0.08462981485806051" fill="none" stroke="#000000" stroke-width="0.001"/>
<path d="M 0.09359940601158234 0.08462981485806051 C 0.09326222490795877 0.08465289967879991 0.08828556441409213 0.08462027706824093 0.0895532327680995 0.08490683270693328 C 0.08828556441409213 0.08462027706824093 0.0766638846403913 0.08065702196959897 0.07838738576349395 0.08119114719375245 C 0.0766638846403913 0.08065702196959897 0.06784935261623454 0.07810788213224824 0.06887121929086767 0.07849733001709142 C 0.06784935261623454 0.07810788213224824 0.06589613286598196 0.07635280945551304 0.06612498566789625 0.07651777257563445" fill="none" stroke="#000000" stroke-width="0.001"/>
<path d="M 0.06612498566789625 0.07651777257563445 C 0.06596351525847337 0.07647117400672951 0.0642000693570985 0.07576112577415237 0.0641873407548216 0.07595858974877502 C 0.0642000693570985 0.07576112577415237 0.06645192790691878 0.07399733947444498 0.066277728895219 0.07414820488016267" fill="none" stroke="#000000" stroke-width="0.001"/>
<path d="M 0.066277728895219 0.07414820488016267 C 0.06659508620865996 0.07401553660138793 0.0710390601250174 0.07194954022185206 0.07008601665651056 0.07255618553486584 C 0.0710390601250174 0.07194954022185206 0.07920179010153441 0.06627210357039949 0.0777142505173012 0.06686846112399727 C 0.07920179010153441 0.06627210357039949 0.0891605796865007 0.06538052837565037 0.08793649166730913 0.06539989489169241 C 0.0891605796865007 0.06538052837565037 0.09277554133762426 0.06673907693480935 0.09240330674760003 0.06663606293149266" fill="none" stroke="#000000" stroke-width="0.001"/>
</g><g transform="translate(0.35958593787964954,0.2557775397037062) rotate(0) scale(1,1) translate(-0.011628401968068896,-0.011628401968068892)"><path d="M -0.008872590539426923 0.02537425357577189 C -0.008610333883388091 0.02486224038864144 -0.005004202819648302 0.017976409965073766 -0.005725510666960951 0.019230095330206465 C -0.005004202819648302 0.017976409965073766 0.00024215481959868733 0.009588357016177272 -0.00021689637167513105 0.010330029194179517" fill="none" stroke="#000000" stroke-width="0.001"/>
<path d="M -0.00021689637167513105 0.010330029194179517 C 0.00011379906114200892 0.010733939857620717 0.004189880625690865 0.01603964583530726 0.0037514488221305486 0.015176957155473916 C 0.004189880625690865 0.01603964583530726 0.0051520216417918424 0.021141071368571757 0.005044285271048666 0.020682293352179616" fill="none" stroke="#000000" stroke-width="0.001"/>
<path d="M 0.005044285271048666 0.020682293352179616 C 0.004509123082490386 0.02096451541446847 -0.0025374006425236554 0.02445995478494522 -0.0013776609916506897 0.024068958099645862 C -0.0025374006425236554 0.02445995478494522 -0.009497168001741609 0.025483028198782395 -0.008872590539426923 0.02537425357577189" fill="none" stroke="#000000" stroke-width="0.001"/>
</g><g transform="translate(0.34336856081040995,0.27402295195443555) rotate(0) scale(1,1) translate(-0.06972157252014745,-0.06972157252014745)"><path d="M 0.09386154922149317 0.06327591978066507 C 0.09423475326256954 0.06332837018811226 0.09901018073212953 0.06418980048330467 0.0983399977144096 0.0639053246700312 C 0.09901018073212953 0.06418980048330467 0.10234190304602594 0.06727108432986363 0.1019037454341323 0.06668962953994662 C 0.10234190304602594 0.06727108432986363 0.10368661728493611 0.07160541557420255 0.10359788905713321 0.07088278214903544 C 0.10368661728493611 0.07160541557420255 0.10268400835449358 0.07603141365967178 0.10296848416776705 0.07536123064195185 C 0.10268400835449358 0.07603141365967178 0.09960272450793464 0.07936313597356817 0.10018417929785166 0.07892497836167453 C 0.09960272450793464 0.07936313597356817 0.09564159730467216 0.08076030061992559 0.09599102668876289 0.08061912198467551" fill="none" stroke="#000000" stroke-width="0.001"/>
<path d="M 0.09599102668876289 0.08061912198467551 C 0.09563109295826655 0.08069275186000917 0.09030100113417655 0.08141588784152343 0.09167182192280687 0.08150268048867937 C 0.09030100113417655 0.08141588784152343 0.07767061400614296 0.07931884748650411 0.07954117722519895 0.07957761021880419 C 0.07767061400614296 0.07931884748650411 0.06811257081815655 0.07817323972333856 0.06922506329413497 0.07839752770107851 C 0.06811257081815655 0.07817323972333856 0.06593845119840162 0.07676020671799536 0.06619126751345804 0.07688615448592483" fill="none" stroke="#000000" stroke-width="0.001"/>
<path d="M 0.06619126751345804 0.07688615448592483 C 0.06605187087273852 0.07663889125290198 0.06434104599071674 0.07345233282486333 0.06451850782482374 0.0739189956896506 C 0.06434104599071674 0.07345233282486333 0.06402366031078653 0.07106680047671309 0.06406172550417401 0.07128620010847751" fill="none" stroke="#000000" stroke-width="0.001"/>
<path d="M 0.06406172550417401 0.07128620010847751 C 0.06439659761407625 0.0710285296440463 0.06934134589518891 0.06757857542445733 0.06808019082300085 0.06819415453530293 C 0.06934134589518891 0.06757857542445733 0.08100789227232005 0.0633754182930838 0.07919558637043074 0.06389925077833036 C 0.08100789227232005 0.0633754182930838 0.09105002521659453 0.06185622046253872 0.08982786164567266 0.06190816471234416 C 0.09105002521659453 0.06185622046253872 0.09419768985281154 0.06338989936969182 0.09386154922149317 0.06327591978066507" fill="none" stroke="#000000" stroke-width="0.001"/>
</g><g transform="translate(0.34340226058643375,0.27901001675599385) rotate(0) scale(1,1) translate(-0.06972157252014745,-0.06972157252014745)"><path d="M 0.10465483602773351 0.060725497209162045 C 0.1050305108630415 0.060818053132940766 0.10981767487578743 0.062196717417202514 0.10916293405142953 0.06183616829450669 C 0.10981767487578743 0.062196717417202514 0.1128984735454692 0.06569170179325771 0.1125117259200284 0.06505208668151198 C 0.1128984735454692 0.06569170179325771 0.11381903126933125 0.07025884638359209 0.11380390555671908 0.06951154963545546 C 0.11381903126933125 0.07025884638359209 0.11233268534867857 0.07467438848350938 0.11269323447137441 0.07401964765915148 C 0.11233268534867857 0.07467438848350938 0.10883770097262334 0.07775518715319109 0.10947731608436907 0.0773684395277503 C 0.10883770097262334 0.07775518715319109 0.10464623121759692 0.0787683008008319 0.10501785313042554 0.078660619164441" fill="none" stroke="#000000" stroke-width="0.001"/>
<path d="M 0.10501785313042554 0.078660619164441 C 0.10459356634452995 0.0788323929782323 0.09785490662417073 0.08078874124650759 0.09992641169967834 0.0807219049299365 C 0.09785490662417073 0.08078874124650759 0.07803994795307981 0.07925338357149349 0.08015979222433431 0.07946265496329415 C 0.07803994795307981 0.07925338357149349 0.0735823420065554 0.07794035493327042 0.07448828044462427 0.07821064822832861 C 0.0735823420065554 0.07794035493327042 0.06885521851108159 0.07605317602211815 0.06928853096750795 0.07621913542259588" fill="none" stroke="#000000" stroke-width="0.001"/>
<path d="M 0.06928853096750795 0.07621913542259588 C 0.068947172745678 0.0759539743737219 0.06496754450726129 0.07261144955302058 0.06519223230554859 0.07303720283610807 C 0.06496754450726129 0.07261144955302058 0.06670894781160305 0.07094950379133252 0.06659227738806041 0.07111009602554602" fill="none" stroke="#000000" stroke-width="0.001"/>
<path d="M 0.06659227738806041 0.07111009602554602 C 0.06730849442639973 0.07083468352279484 0.07691480021669668 0.06724640671057898 0.07518688184813227 0.06780514599253187 C 0.07691480021669668 0.06724640671057898 0.08939455644255448 0.06371919569443858 0.08732729781083336 0.06440522464211133 C 0.08939455644255448 0.06371919569443858 0.10143794694686066 0.05926615466771302 0.09999398542878565 0.05957279862045879 C 0.10143794694686066 0.05926615466771302 0.1050432402443125 0.06082155542488732 0.10465483602773351 0.060725497209162045" fill="none" stroke="#000000" stroke-width="0.001"/>
</g><g transform="translate(0.34335031933904336,0.28302917916771453) rotate(0) scale(1,1) translate(-0.06972157252014745,-0.06972157252014745)"><path d="M 0.13461707330567857 0.07316415343212647 C 0.13498096848497163 0.07324867736612804 0.1396205911390701 0.07451811203786654 0.13898381545719535 0.07417844064014528 C 0.1396205911390701 0.07451811203786654 0.14264000970633084 0.0778527621050845 0.14225838148817577 0.07724021020478154 C 0.14264000970633084 0.0778527621050845 0.14358757785662807 0.08225036305965712 0.14356335407505627 0.08152906344378079 C 0.14358757785662807 0.08225036305965712 0.14220939546931624 0.08653258127717232 0.1425490668670375 0.08589580559529755 C 0.14220939546931624 0.08653258127717232 0.13887474540209827 0.08955199984443307 0.13948729730240123 0.089170371626278 C 0.13887474540209827 0.08955199984443307 0.1348410396268187 0.09058409192873186 0.13519844406340198 0.09047534421315849" fill="none" stroke="#000000" stroke-width="0.001"/>
<path d="M 0.13519844406340198 0.09047534421315849 C 0.13454464961440615 0.09061931727057637 0.12395209063135953 0.09171072962002687 0.12735291067545196 0.09220302090217306 C 0.12395209063135953 0.09171072962002687 0.09048457133920573 0.08332655514636014 0.0943886035342929 0.08456784882740422 C 0.09048457133920573 0.08332655514636014 0.0786121612248632 0.0766490562880446 0.08050452433440593 0.07730749672964414 C 0.0786121612248632 0.0766490562880446 0.07094488971022803 0.07661315242809022 0.07168024621978017 0.07666656352820975" fill="none" stroke="#000000" stroke-width="0.001"/>
<path d="M 0.07168024621978017 0.07666656352820975 C 0.07127849150907416 0.07634874182384163 0.06625202723536058 0.07248129690409466 0.06685918969130807 0.07285270307579235 C 0.06625202723536058 0.07248129690409466 0.06418888900316881 0.07215610500050793 0.0643942967484103 0.0722096894678375" fill="none" stroke="#000000" stroke-width="0.001"/>
<path d="M 0.0643942967484103 0.0722096894678375 C 0.06649483911241837 0.07208517289802104 0.09339227996533035 0.0704075965358693 0.08960080511650721 0.07071549063003991 C 0.09339227996533035 0.0704075965358693 0.113169981549153 0.06848695074870022 0.109891994934288 0.06851496033779009 C 0.113169981549153 0.06848695074870022 0.13099706769250316 0.07076680831882289 0.1289366444948873 0.07037937556096152 C 0.13099706769250316 0.07076680831882289 0.13509044237324452 0.07339621825472355 0.13461707330567857 0.07316415343212647" fill="none" stroke="#000000" stroke-width="0.001"/>
</g></g>
<g transform="translate(0.33644973611819495,0.2543060660562381) rotate(0) scale(1,1) translate(-0.12317768801182705,-0.12070628432295682)"><path d="M 0.12175535761521453 0.11848277536484525 C 0.12211996640966619 0.11882350439827703 0.12430472129633967 0.12416083020661468 0.12394301038192448 0.12052714956543595 C 0.12430472129633967 0.12416083020661468 0.12324210432815466 0.14341564977303142 0.12392562310170563 0.14028485921191766 C 0.12324210432815466 0.14341564977303142 0.11916127684710418 0.1391497318854853 0.11984189774061867 0.1393118929321185" fill="none" stroke="#000000" stroke-width="0.001"/>
<path d="M 0.11984189774061867 0.1393118929321185 C 0.11942350862295278 0.13913605933005532 0.11447527584078128 0.13620931466479036 0.11482122832862811 0.1372018897073604 C 0.11447527584078128 0.13620931466479036 0.11576290451627574 0.1265842509807708 0.11569046788645669 0.1274009924212777" fill="none" stroke="#000000" stroke-width="0.001"/>
<path d="M 0.11569046788645669 0.1274009924212777 C 0.1159789562358098 0.12683170184031753 0.11965773555609041 0.11982632069505286 0.11915232807869393 0.12056950544975556 C 0.11965773555609041 0.11982632069505286 0.1219722767432579 0.11830888119110272 0.12175535761521453 0.11848277536484525" fill="none" stroke="#000000" stroke-width="0.001"/>
</g><g transform="translate(0.33823716953914645,0.2543060660562381) rotate(0) scale(1,1) translate(-0.12317768801182705,-0.12070628432295682)"><path d="M 0.1246000184084396 0.11848277536484525 C 0.12481693753648297 0.11865666953858778 0.12770845542235668 0.12131269020445826 0.12720304794496018 0.12056950544975556 C 0.12770845542235668 0.12131269020445826 0.13095339648655055 0.12797028300223787 0.13066490813719744 0.1274009924212777" fill="none" stroke="#000000" stroke-width="0.001"/>
<path d="M 0.13066490813719744 0.1274009924212777 C 0.13073734476701648 0.1282177338617846 0.1311881952071792 0.13819446474993047 0.13153414769502603 0.1372018897073604 C 0.1311881952071792 0.13819446474993047 0.1260950891653695 0.13948772653418165 0.12651347828303539 0.1393118929321185" fill="none" stroke="#000000" stroke-width="0.001"/>
<path d="M 0.12651347828303539 0.1393118929321185 C 0.1258328573895209 0.13947405397875168 0.12174623414839751 0.1371540686508039 0.12242975292194846 0.14028485921191766 C 0.12174623414839751 0.1371540686508039 0.12277407655614482 0.11689346892425721 0.12241236564172964 0.12052714956543595 C 0.12277407655614482 0.11689346892425721 0.12496462720289125 0.11814204633141347 0.1246000184084396 0.11848277536484525" fill="none" stroke="#000000" stroke-width="0.001"/>
</g><g id="生殖口">
<g transform="translate(0.3373434528286706,0.2848259755981801) rotate(0) scale(1,1) translate(-0.06703317901234568,-0.06703317901234568)"><path d="M 0.06703317901234568 0.061172633398977674 C 0.06725232640955897 0.06136998868807896 0.07015984321891607 0.06441017986560511 0.06966294777890518 0.06354089686819314 C 0.07015984321891607 0.06441017986560511 0.07348307975193533 0.07271809807864481 0.07299592429247631 0.0716040293679214 C 0.07348307975193533 0.07271809807864481 0.07571822070907484 0.07735186239928668 0.07550881329241342 0.07690972139687396" fill="none" stroke="#000000" stroke-width="0.001"/>
<path d="M 0.07550881329241342 0.07690972139687396 C 0.07536151780575336 0.07689790446853532 0.07303496459582032 0.07675610132847165 0.07374126745249263 0.07676791825681029 C 0.07303496459582032 0.07675610132847165 0.06647417164233344 0.07676791825681029 0.06703317901234568 0.07676791825681029" fill="none" stroke="none" stroke-width="0"/>
<path d="M 0.06703317901234568 0.07676791825681029 C 0.06703317901234568 0.0762114827715021 0.06703317901234568 0.06879108536162598 0.06703317901234568 0.07009069243311203 C 0.06703317901234568 0.06879108536162598 0.06703317901234568 0.06042946181279981 0.06703317901234568 0.061172633398977674" fill="none" stroke="#000000" stroke-width="0.001"/>
<path d="M 0.06703317901234568 0.061172633398977674 C 0.06703317901234568 0.06191580498515554 0.06703317901234568 0.07139029950459808 0.06703317901234568 0.07009069243311203 C 0.06703317901234568 0.07139029950459808 0.06703317901234568 0.07732435374211848 0.06703317901234568 0.07676791825681029" fill="none" stroke="#000000" stroke-width="0.001"/>
<path d="M 0.06703317901234568 0.07676791825681029 C 0.06647417164233344 0.07676791825681029 0.059618787715526395 0.07677973518514893 0.06032509057219871 0.07676791825681029 C 0.059618787715526395 0.07677973518514893 0.05841024924561787 0.07692153832521262 0.058557544732277936 0.07690972139687398" fill="none" stroke="none" stroke-width="0"/>
<path d="M 0.058557544732277936 0.07690972139687398 C 0.05876695214893936 0.07646758039446126 0.06155758919167407 0.070489960657198 0.061070433732215046 0.0716040293679214 C 0.06155758919167407 0.070489960657198 0.06490030568579706 0.06267161387078117 0.06440341024578618 0.06354089686819314 C 0.06490030568579706 0.06267161387078117 0.06725232640955897 0.06097527810987639 0.06703317901234568 0.061172633398977674" fill="none" stroke="#000000" stroke-width="0.001"/>
</g><g transform="translate(0.3373434528286706,0.2962008673085149) rotate(0) scale(1,1) translate(-0.125079463847689,-0.125079463847689)"><path d="M 0.125079463847689 0.11858585413503028 C 0.12550018738259783 0.11866646830574548 0.13083444912326714 0.1199694958825171 0.13012814626659483 0.11955322418361275 C 0.13083444912326714 0.1199694958825171 0.13384067744952025 0.12391677205007165 0.13355509812775676 0.1235811145218825" fill="none" stroke="#000000" stroke-width="0.001"/>
<path d="M 0.13355509812775676 0.1235811145218825 C 0.13365895572945802 0.123823490990916 0.1349113668347979 0.12700530723894865 0.13480138934817182 0.12648963215028453 C 0.1349113668347979 0.12700530723894865 0.13488094785219448 0.1300425142054826 0.13487482796726966 0.12976921558585197" fill="none" stroke="#000000" stroke-width="0.001"/>
<path d="M 0.13487482796726966 0.12976921558585197 C 0.13462535420890825 0.13002297093652626 0.13116060930786158 0.13323109843054037 0.13188114286693275 0.13281427979394358 C 0.13116060930786158 0.13323109843054037 0.1256616186734786 0.1350191749344541 0.1262284252584156 0.13477103922501335 C 0.1256616186734786 0.1350191749344541 0.12488797027923448 0.13579190830723262 0.12507946384768892 0.13579190830723262 C 0.12488797027923448 0.13579190830723262 0.12336369585202536 0.1345229035155726 0.12393050243696235 0.13477103922501335 C 0.12336369585202536 0.1345229035155726 0.11755725126937391 0.1323974611573468 0.11827778482844509 0.13281427979394358 C 0.11755725126937391 0.1323974611573468 0.11503462596974692 0.12951546023517768 0.11528409972810832 0.12976921558585197" fill="none" stroke="#000000" stroke-width="0.001"/>
<path d="M 0.11528409972810832 0.12976921558585197 C 0.11529021961303314 0.12949591696622134 0.11546751583383223 0.1259739570616204 0.11535753834720615 0.12648963215028453 C 0.11546751583383223 0.1259739570616204 0.11670768716932252 0.123338738052849 0.11660382956762126 0.1235811145218825" fill="none" stroke="#000000" stroke-width="0.001"/>
<path d="M 0.11660382956762126 0.1235811145218825 C 0.11688940888938476 0.12324545699369335 0.1207370842854555 0.1191369524847084 0.12003078142878319 0.11955322418361275 C 0.1207370842854555 0.1191369524847084 0.12550018738259783 0.11850523996431508 0.125079463847689 0.11858585413503028" fill="none" stroke="#000000" stroke-width="0.001"/>
</g></g>
</svg>
