<?xml version="1.0" encoding="UTF-8"?>
<svg xmlns="http://www.w3.org/2000/svg" viewBox="0 0 1 1">
<g transform="translate(0.3373409185069321,0.3295278901102576) rotate(0) scale(1,1) translate(-0.5,-0.525925439940814)"><path d="M 0.4705787159002164 0.525223454946835 C 0.470907191288334 0.5239975681093441 0.4757463073951191 0.5083895146100794 0.47452042055762816 0.5105128128969436 C 0.4757463073951191 0.5083895146100794 0.4874126562369719 0.4985179886669733 0.48528935795010764 0.4997438755044642 C 0.4874126562369719 0.4985179886669733 0.5024517736749807 0.49580217084705247 0.4999999999999989 0.49580217084705247 C 0.5024517736749807 0.49580217084705247 0.5168339403367542 0.5009697623419551 0.51471064204989 0.4997438755044642 C 0.5168339403367542 0.5009697623419551 0.5267054662798605 0.5126361111838078 0.5254795794423696 0.5105128128969436 C 0.5267054662798605 0.5126361111838078 0.5297497594878989 0.5264493417843259 0.5294212840997813 0.525223454946835" fill="none" stroke="#000000" stroke-width="0.001"/>
<path d="M 0.5294212840997813 0.525223454946835 C 0.5292410216938954 0.5257341975928962 0.5270174274551269 0.5328680705533702 0.5272581352291513 0.5313523666995701 C 0.5270174274551269 0.5328680705533702 0.5264723454433493 0.5444168624001742 0.526532790811488 0.5434119011924354" fill="none" stroke="#000000" stroke-width="0.001"/>
<path d="M 0.526532790811488 0.5434119011924354 C 0.5262287137097483 0.5434686993655546 0.5217070369572624 0.544190050130382 0.5228838655906122 0.5440934792698656 C 0.5217070369572624 0.544190050130382 0.5105038584120725 0.5446107062062989 0.5124108472112902 0.5445707515186325 C 0.5105038584120725 0.5446107062062989 0.4979315254647849 0.5445729355218627 0.49999999999999994 0.5445729355218627 C 0.4979315254647849 0.5445729355218627 0.4856821639894923 0.5445307968309662 0.48758915278871007 0.5445707515186325 C 0.4856821639894923 0.5445307968309662 0.4759393057760369 0.5439969084093492 0.4771161344093867 0.5440934792698656 C 0.4759393057760369 0.5439969084093492 0.4731631320867725 0.5433551030193162 0.4734672091885121 0.5434119011924354" fill="none" stroke="none" stroke-width="0"/>
<path d="M 0.4734672091885121 0.5434119011924354 C 0.4734067638203735 0.5424069399846967 0.47250115699682405 0.52983666284577 0.4727418647708487 0.5313523666995701 C 0.47250115699682405 0.52983666284577 0.47039845349433035 0.5247127123007738 0.4705787159002164 0.525223454946835" fill="none" stroke="#000000" stroke-width="0.001"/>
</g><g id="筋肉">
<g transform="translate(0.3247179218341816,0.339371645220783) rotate(0) scale(1,1) translate(-0.03902359100054435,-0.023714552641113516)"><path d="M 0.0444603921734888 0.0362406242859766 C 0.043923739208964696 0.03621007577059565 0.03718033192043195 0.03569779656415031 0.03802055659919954 0.03587404210140516 C 0.03718033192043195 0.03569779656415031 0.034074124314034185 0.033979980817044536 0.03437769602827767 0.03412567783891843" fill="none" stroke="#000000" stroke-width="0.001"/>
<path d="M 0.03437769602827767 0.03412567783891843 C 0.03411933500935928 0.03355279563860984 0.031303308814041274 0.026166106675932395 0.031277363801256945 0.02725109143521543 C 0.031303308814041274 0.026166106675932395 0.03497334221339232 0.02059375816854756 0.0346890361816896 0.021105860727522012" fill="none" stroke="#000000" stroke-width="0.001"/>
<path d="M 0.0346890361816896 0.021105860727522012 C 0.035248777259275034 0.021094151849620116 0.042559966680349656 0.020948551923089278 0.041405929112714825 0.02096535419269927 C 0.042559966680349656 0.020948551923089278 0.04913178348335695 0.020899140100494026 0.04853748699330756 0.02090423349220212" fill="none" stroke="none" stroke-width="0"/>
<path d="M 0.04853748699330756 0.02090423349220212 C 0.04864654762101101 0.02126167847256994 0.04996748328706682 0.026112695506464546 0.04984621452574903 0.025193573256615958 C 0.04996748328706682 0.026112695506464546 0.05000492026273544 0.032495377759865954 0.0499927121291211 0.031933700490385186" fill="none" stroke="#000000" stroke-width="0.001"/>
<path d="M 0.0499927121291211 0.031933700490385186 C 0.04992555144808717 0.03224469837239338 0.04872575729374461 0.03602458539078281 0.04918678395671397 0.035665675074483524 C 0.04872575729374461 0.03602458539078281 0.04406652619155337 0.03628853672026769 0.0444603921734888 0.0362406242859766" fill="none" stroke="#000000" stroke-width="0.001"/>
</g><g transform="translate(0.34996391517968345,0.339371645220783) rotate(0) scale(1,1) translate(-0.03902359100054435,-0.023714552641113516)"><path d="M 0.03358678982759978 0.0362406242859766 C 0.03319292384566435 0.036192711851685516 0.02839937138140527 0.03530676475818424 0.02886039804437463 0.035665675074483524 C 0.02839937138140527 0.03530676475818424 0.027987309190933514 0.03162270260837699 0.028054469871967445 0.031933700490385186" fill="none" stroke="#000000" stroke-width="0.001"/>
<path d="M 0.028054469871967445 0.031933700490385186 C 0.02806667800558179 0.03137202322090442 0.028322236236657358 0.024274451006767374 0.028200967475339563 0.02519357325661596 C 0.028322236236657358 0.024274451006767374 0.02961875563548444 0.0205467885118343 0.029509695007780987 0.02090423349220212" fill="none" stroke="#000000" stroke-width="0.001"/>
<path d="M 0.029509695007780987 0.02090423349220212 C 0.030103991497830385 0.020909326883910215 0.03779529045600857 0.02098215646230926 0.03664125288837374 0.02096535419269927 C 0.03779529045600857 0.02098215646230926 0.043917886896984386 0.021117569605423908 0.04335814581939895 0.021105860727522012" fill="none" stroke="none" stroke-width="0"/>
<path d="M 0.04335814581939895 0.021105860727522012 C 0.043642451851101674 0.021617963286496462 0.04679576321261591 0.028336076194498468 0.04676981819983158 0.02725109143521543 C 0.04679576321261591 0.028336076194498468 0.043411124953892474 0.034698560039227014 0.04366948597281087 0.03412567783891843" fill="none" stroke="#000000" stroke-width="0.001"/>
<path d="M 0.04366948597281087 0.03412567783891843 C 0.043365914258567374 0.03427137486079232 0.03918640072312139 0.03605028763866001 0.040026625401888984 0.03587404210140516 C 0.03918640072312139 0.03605028763866001 0.03305013686307568 0.036271172801357554 0.03358678982759978 0.0362406242859766" fill="none" stroke="#000000" stroke-width="0.001"/>
</g></g>
<g id="獣性">
<g transform="translate(0.31229768625140886,0.3432575699465866) rotate(0) scale(1,1) translate(-0.009302710415341272,-0.009302710415341276)"><path d="M 0.0027864889489742847 0.007260187473850167 C 0.003060379303662417 0.0071203784358337355 0.006511300562616468 0.005307196349574402 0.006073173205231874 0.0055824790176529845 C 0.006511300562616468 0.005307196349574402 0.008208254240285873 0.0038213218268450225 0.00804401723758941 0.0039567954569071735" fill="none" stroke="#000000" stroke-width="0.001"/>
<path d="M 0.007980658780636652 0.01207692647125699 C 0.007870158366210966 0.012023555405250044 0.006230028442902787 0.011464934673593375 0.006654653807528428 0.011436473679173642 C 0.006230028442902787 0.011464934673593375 0.0025710294549290014 0.01250029046472048 0.0028851544051289573 0.0124184584042938" fill="none" stroke="#000000" stroke-width="0.001"/>
<path d="M 0.0028851544051289573 0.0124184584042938 C 0.003274167033390128 0.012034269306015638 0.007545083822916782 0.007378333314085565 0.007553305944263004 0.007808189224955867 C 0.007545083822916782 0.007378333314085565 0.0023892541993668906 0.007214520661258025 0.002786488948974284 0.007260187473850167" fill="none" stroke="#000000" stroke-width="0.001"/>
</g><g transform="translate(0.3623841507624553,0.3432575699465866) rotate(0) scale(1,1) translate(-0.009302710415341272,-0.009302710415341276)"><path d="M 0.015818931881708225 0.007260187473850169 C 0.015421697132100834 0.0073058542864423105 0.011043892765073313 0.00823804513582617 0.011052114886419533 0.007808189224955867 C 0.011043892765073313 0.00823804513582617 0.016109279053814762 0.012802647502571962 0.015720266425553592 0.0124184584042938" fill="none" stroke="#000000" stroke-width="0.001"/>
<path d="M 0.015720266425553592 0.0124184584042938 C 0.015406141475353635 0.01233662634386712 0.01152614165852845 0.01140801268475391 0.011950767023154098 0.011436473679173643 C 0.01152614165852845 0.01140801268475391 0.010514261635620142 0.012130297537263942 0.010624762050045831 0.012076926471256995" fill="none" stroke="#000000" stroke-width="0.001"/>
<path d="M 0.010561403593093144 0.003956795456907173 C 0.010725640595789603 0.004092269086969323 0.012970374982835249 0.005857761685731567 0.012532247625450658 0.0055824790176529845 C 0.012970374982835249 0.005857761685731567 0.016092822236396357 0.007399996511866601 0.015818931881708225 0.007260187473850169" fill="none" stroke="#000000" stroke-width="0.001"/>
</g></g>
</svg>
