<?xml version="1.0" encoding="UTF-8"?>
<svg xmlns="http://www.w3.org/2000/svg" viewBox="0 0 1 1">
<g transform="translate(0.25451988212391374,0.26112151971860603) rotate(0) scale(1,1) translate(-0.09618997628511519,-0.08047523037063936)"><path d="M 0.09485808170227875 0.06873107414458807 C 0.09536229154827565 0.06880669675265969 0.10181165693167424 0.070031764072208 0.10090859985424158 0.06963854544144747 C 0.10181165693167424 0.070031764072208 0.10628022768621434 0.07424176357591072 0.1056947666314706 0.07344969771371444 C 0.10628022768621434 0.07424176357591072 0.10804512372640288 0.08012201547330716 0.1079341325111665 0.07914333578780289 C 0.10804512372640288 0.08012201547330716 0.1066863730138807 0.08607870306336285 0.10702666121430708 0.08519385393976575 C 0.1066863730138807 0.08607870306336285 0.10321648145806339 0.09034495904843277 0.10385067410604991 0.089761525270968 C 0.10321648145806339 0.09034495904843277 0.09904682238283716 0.09239785376920757 0.0994163494384689 0.09219505926934299" fill="none" stroke="none" stroke-width="0"/>
<path d="M 0.0994163494384689 0.09219505926934299 C 0.09918450698831498 0.09230771708055585 0.09658775645804972 0.09392941269429214 0.09663424003662179 0.09354695300389734 C 0.09658775645804972 0.09392941269429214 0.09904390536718591 0.09705437743326244 0.09885854649560405 0.0967845755540805" fill="none" stroke="#000000" stroke-width="0.001"/>
<path d="M 0.09885854649560405 0.0967845755540805 C 0.09841864006494715 0.09657066500277953 0.09323684161221325 0.09431465420398322 0.09357966932772115 0.0942176489384688 C 0.09323684161221325 0.09431465420398322 0.09484169262465829 0.09825955455706882 0.09474461390950928 0.09794863874025343" fill="none" stroke="#000000" stroke-width="0.001"/>
<path d="M 0.09474461390950928 0.09794863874025343 C 0.09439667099393156 0.09767474847947274 0.08994754427900387 0.09440801552060504 0.09056929892257666 0.09466195561088517 C 0.08994754427900387 0.09440801552060504 0.08700974645864075 0.09492130782739251 0.08728355818663582 0.09490135765689195" fill="none" stroke="#000000" stroke-width="0.001"/>
<path d="M 0.08728355818663582 0.09490135765689195 C 0.08625838270483986 0.09500263186845956 0.07288806989726912 0.09605247570651486 0.07498145240508441 0.0961166481957032 C 0.07288806989726912 0.09605247570651486 0.06026910822713663 0.09399408391899723 0.062162968092852364 0.09413128778663185 C 0.06026910822713663 0.09399408391899723 0.05071787610359819 0.09458330430758018 0.052255134016495654 0.09447020178408783 C 0.05071787610359819 0.09458330430758018 0.04300426806488168 0.09557337775891107 0.043715873138082756 0.09548851806854006" fill="none" stroke="#000000" stroke-width="0.001"/>
<path d="M 0.043715873138082756 0.09548851806854006 C 0.04309992429563318 0.09531677059091637 0.03526098458005725 0.09279908875954933 0.036324487028687916 0.09342754833705581 C 0.03526098458005725 0.09279908875954933 0.030347053405766912 0.08687098995477466 0.03095384375451478 0.08794700313846224 C 0.030347053405766912 0.08687098995477466 0.029055513578770446 0.07928014020655041 0.029043002843713528 0.08051539013280477 C 0.029055513578770446 0.07928014020655041 0.031732432152704285 0.07206050157477932 0.0311039725751978 0.07312400402340999 C 0.031732432152704285 0.07206050157477932 0.037660530957478955 0.06714657040048892 0.03658451777379137 0.0677533607492368 C 0.037660530957478955 0.06714657040048892 0.044635431863253625 0.06568328309586881 0.04401613077944883 0.06584251983843557" fill="none" stroke="#000000" stroke-width="0.001"/>
<path d="M 0.04401613077944883 0.06584251983843557 C 0.04482928156411871 0.0659711623760137 0.055512300495084876 0.06755750636298852 0.053773940195487334 0.06738623028937316 C 0.055512300495084876 0.06755750636298852 0.06699445477326865 0.06777901964875632 0.06487645437461931 0.06789783272181997 C 0.06699445477326865 0.06777901964875632 0.08168841392325113 0.0660299101978401 0.07918994497927952 0.06596047341260942 C 0.08168841392325113 0.0660299101978401 0.09616375976252868 0.06896195753891962 0.09485808170227875 0.06873107414458807" fill="none" stroke="#000000" stroke-width="0.001"/>
</g><g id="筋肉">
<g transform="translate(0.22663122193051607,0.2633184636123225) rotate(0) scale(1,1) translate(-0.01713961730213782,-0.01713961730213782)"><path d="M 0.030309903312496996 0.02033418034092388 C 0.030795967956529998 0.02051586757698756 0.03692519856571673 0.022970938137349635 0.036142679040893 0.02251442717368804 C 0.03692519856571673 0.022970938137349635 0.03999659249117243 0.026087135632460953 0.0397001376103817 0.025812311904863036" fill="none" stroke="#000000" stroke-width="0.001"/>
<path d="M 0.0397001376103817 0.025812311904863036 C 0.03844171255629272 0.02629693209668805 0.021973653193441734 0.031854008435554686 0.024599036961314 0.03162775420676317 C 0.021973653193441734 0.031854008435554686 0.006828573682131249 0.02826899668732773 0.008195532395914537 0.028527362650361227" fill="none" stroke="#000000" stroke-width="0.001"/>
<path d="M 0.008195532395914537 0.028527362650361227 C 0.007259267054322961 0.02848431785791264 -0.003580826919065115 0.026981424172630646 -0.003039651703184376 0.028010825140978163 C -0.003580826919065115 0.026981424172630646 0.002096519931056512 0.015188194854292101 0.0017014298053456747 0.01617455103019103" fill="none" stroke="#000000" stroke-width="0.001"/>
<path d="M 0.0017014298053456747 0.01617455103019103 C 0.00301002718452724 0.016055855273354597 0.019788637814453735 0.015096837724048255 0.017404598355524457 0.014750201948153852 C 0.019788637814453735 0.015096837724048255 0.03138534539224471 0.020799511873654714 0.030309903312496996 0.02033418034092388" fill="none" stroke="#000000" stroke-width="0.001"/>
</g><g transform="translate(0.22678381655457253,0.2608167749777102) rotate(0) scale(1,1) translate(-0.01713961730213782,-0.01713961730213782)"><path d="M 0.03056756376962971 0.014125394798332771 C 0.02918651182443046 0.014497776676968173 0.011595451446487272 0.018780252913139464 0.013994940427238724 0.018593977341957602 C 0.011595451446487272 0.018780252913139464 0.0007552589650600887 0.01617459534506158 0.0017736960006122914 0.01636070165251512" fill="none" stroke="none" stroke-width="0"/>
<path d="M 0.0017736960006122914 0.01636070165251512 C 0.0013706945262101284 0.01543059281857607 -0.002451079450853253 0.0042171395696416316 -0.0030623216922136647 0.005199395645246517 C -0.002451079450853253 0.0042171395696416316 0.010122846612699805 0.004521481503590667 0.009108602896937231 0.004573628745256502" fill="none" stroke="#000000" stroke-width="0.001"/>
<path d="M 0.009108602896937231 0.004573628745256502 C 0.010448502184669568 0.0042825642523748415 0.02782520071656288 0.0011252433836611024 0.02518739434972527 0.0010808548306765753 C 0.02782520071656288 0.0011252433836611024 0.042060186378093826 0.005441744426937016 0.040762279298988555 0.005106291381070828" fill="none" stroke="#000000" stroke-width="0.001"/>
<path d="M 0.040762279298988555 0.005106291381070828 C 0.04039667209723724 0.00561527827766038 0.03552543325052623 0.011965726091583946 0.0363749928779728 0.011214134140145451 C 0.03552543325052623 0.011965726091583946 0.030083611343934454 0.014367999853181714 0.03056756376962971 0.014125394798332771" fill="none" stroke="#000000" stroke-width="0.001"/>
</g></g>
<g id="鱗">
<g transform="translate(0.22663122193051607,0.2633184636123225) rotate(0) scale(1,1) translate(-0.05494750170481757,-0.05494750170481757)"><path d="M 0.04222815420899291 0.054889360964013374 C 0.04251318499188269 0.055009743404759164 0.04621858516944981 0.05657471513445441 0.045648523603670256 0.05633395025296283 C 0.04621858516944981 0.05657471513445441 0.049353923781237354 0.05789892198265809 0.049068892998347574 0.057778539541912304" fill="none" stroke="#000000" stroke-width="0.001"/>
<path d="M 0.049068892998347574 0.057778539541912304 C 0.049125659272534976 0.058108603868030816 0.04971760073952488 0.06252777013324906 0.04975008828859636 0.06173931145533445 C 0.04971760073952488 0.06252777013324906 0.04858978858623089 0.06769843802868379 0.048679042409489774 0.06724004367688768" fill="none" stroke="#000000" stroke-width="0.001"/>
<path d="M 0.048679042409489774 0.06724004367688768 C 0.04843315156021189 0.06721701959685947 0.04512154872389601 0.06695105044378291 0.045728352218155216 0.06696375471654908 C 0.04512154872389601 0.06695105044378291 0.041036487833398014 0.0670979122109557 0.04139740047837934 0.06708759240369366" fill="none" stroke="#000000" stroke-width="0.001"/>
<path d="M 0.04139740047837934 0.06708759240369366 C 0.04126004999759566 0.06689670065877149 0.03947364652841168 0.06430812623313306 0.03974919470897518 0.06479689146462757 C 0.03947364652841168 0.06430812623313306 0.0379526246118375 0.060924536139187184 0.038090822311617326 0.06122240962575952" fill="none" stroke="#000000" stroke-width="0.001"/>
<path d="M 0.038090822311617326 0.06122240962575952 C 0.038263211140674644 0.06095853259818676 0.040504265918419755 0.05752813123974094 0.040159488260305125 0.05805588529488645 C 0.040504265918419755 0.05752813123974094 0.04240054303805023 0.054625483936440615 0.04222815420899291 0.054889360964013374" fill="none" stroke="#000000" stroke-width="0.001"/>
</g><g transform="translate(0.2187826541310459,0.27011410279290515) rotate(0) scale(1,1) translate(-0.044769149660670284,-0.044751613021905126)"><path d="M 0.047912159333775836 0.03906088343641489 C 0.048181597401522454 0.03921425947928034 0.05168429228222848 0.04120814803653121 0.05114541614673525 0.04090139595080031 C 0.05168429228222848 0.04120814803653121 0.05464811102744128 0.04289528450805118 0.05437867295969466 0.04274190846518573" fill="none" stroke="#000000" stroke-width="0.001"/>
<path d="M 0.05437867295969466 0.04274190846518573 C 0.054377261757880685 0.04307681573260558 0.054255728306908405 0.04752923813766734 0.05436173853792695 0.046760795674223865 C 0.054255728306908405 0.04752923813766734 0.05300195115826754 0.052396753222531026 0.05310655018747212 0.0519632180265074" fill="none" stroke="#000000" stroke-width="0.001"/>
<path d="M 0.05310655018747212 0.0519632180265074 C 0.05279635941579207 0.05187934524404119 0.048821153258756564 0.050813852785819985 0.049384260927311525 0.0509567446369129 C 0.048821153258756564 0.050813852785819985 0.046096341267937664 0.05018949674476568 0.04634925816481258 0.05024851581339239" fill="none" stroke="#000000" stroke-width="0.001"/>
<path d="M 0.04634925816481258 0.05024851581339239 C 0.046151973134993314 0.05006408009791709 0.043700179799089106 0.04753350561449571 0.04398183780698141 0.04803528722768875 C 0.043700179799089106 0.04753350561449571 0.04288498909203188 0.043909790557358094 0.04296936207010492 0.04422713645507584" fill="none" stroke="#000000" stroke-width="0.001"/>
<path d="M 0.04296936207010492 0.04422713645507584 C 0.04317531195609121 0.04401187591263163 0.04585266047391295 0.04121348886085694 0.04544076070194037 0.04164400994574535 C 0.04585266047391295 0.04121348886085694 0.048118109219762124 0.038845622893970685 0.047912159333775836 0.03906088343641489" fill="none" stroke="#000000" stroke-width="0.001"/>
</g><g transform="translate(0.22576370064369425,0.2716666885702775) rotate(0) scale(1,1) translate(-0.044769149660670284,-0.044751613021905126)"><path d="M 0.047666605841162946 0.03882550956651598 C 0.04793945871197978 0.03896096656561017 0.05148654603259861 0.040721907553834646 0.05094084029096495 0.04045099355564626 C 0.05148654603259861 0.040721907553834646 0.05448792761158379 0.04221193454387073 0.05421507474076696 0.042076477544776544" fill="none" stroke="#000000" stroke-width="0.001"/>
<path d="M 0.05421507474076696 0.042076477544776544 C 0.05423702892657616 0.04241066743538762 0.05446498543344075 0.04684841359878866 0.05447852497047742 0.04608675623210944 C 0.05446498543344075 0.04684841359878866 0.05401710657348102 0.051643833420995294 0.0540526002963269 0.05121636594492715" fill="none" stroke="#000000" stroke-width="0.001"/>
<path d="M 0.0540526002963269 0.05121636594492715 C 0.053721676326238595 0.05120427700194932 0.049420921270141985 0.05100415415454385 0.05008151265526725 0.0510712986291932 C 0.049420921270141985 0.05100415415454385 0.04579583625978677 0.050355576717463525 0.04612550367482373 0.050410632249135036" fill="none" stroke="#000000" stroke-width="0.001"/>
<path d="M 0.04612550367482373 0.050410632249135036 C 0.04596611280130566 0.050216596933458 0.04394711793856779 0.04757748584770261 0.044212813192606844 0.048082208461010634 C 0.04394711793856779 0.04757748584770261 0.042830856245834104 0.04404327359180781 0.04293716062635508 0.0443539608894388" fill="none" stroke="#000000" stroke-width="0.001"/>
<path d="M 0.04293716062635508 0.0443539608894388 C 0.04313422084363874 0.04412360875098368 0.04569600366832634 0.041129030951067146 0.04530188323375901 0.04158973522797738 C 0.04569600366832634 0.041129030951067146 0.04786366605844661 0.03859515742806086 0.047666605841162946 0.03882550956651598" fill="none" stroke="#000000" stroke-width="0.001"/>
</g><g transform="translate(0.23283604458691873,0.27272851913896273) rotate(0) scale(1,1) translate(-0.044769149660670284,-0.044751613021905126)"><path d="M 0.04654859935635862 0.038115188467745004 C 0.0468328744559615 0.03819456271024418 0.05052845075079899 0.03922642786273343 0.049959900551593224 0.03906767937773508 C 0.05052845075079899 0.03922642786273343 0.053655476846430676 0.04009954453022434 0.053371201746827794 0.040020170287725164" fill="none" stroke="#000000" stroke-width="0.001"/>
<path d="M 0.053371201746827794 0.040020170287725164 C 0.05346776961652104 0.040340856295845405 0.054676908874184235 0.044621082203999116 0.05453001618314674 0.043868402385168065 C 0.054676908874184235 0.044621082203999116 0.05518423886062195 0.04948432192440856 0.055133914039277705 0.04905232811369775" fill="none" stroke="#000000" stroke-width="0.001"/>
<path d="M 0.055133914039277705 0.04905232811369775 C 0.0548200026257012 0.04910749275754034 0.05068750560251167 0.04980615444502083 0.051366977076359614 0.04971430383980882 C 0.05068750560251167 0.04980615444502083 0.04661469629283094 0.05019122133761132 0.04698025635310237 0.0501545353762419" fill="none" stroke="#000000" stroke-width="0.001"/>
<path d="M 0.04698025635310237 0.0501545353762419 C 0.046813259408332225 0.04998515692745012 0.04463582682978191 0.04767380442210771 0.044976293015860584 0.048121993990740575 C 0.04463582682978191 0.04767380442210771 0.042721192878849845 0.04449744943280643 0.04289466212015836 0.044776260552647516" fill="none" stroke="#000000" stroke-width="0.001"/>
<path d="M 0.04289466212015836 0.044776260552647516 C 0.04304690950500004 0.044498715882443245 0.04502612550794185 0.04089063516978772 0.044721630738258494 0.04144572451019626 C 0.04502612550794185 0.04089063516978772 0.0467008467412003 0.03783764379754073 0.04654859935635862 0.038115188467745004" fill="none" stroke="#000000" stroke-width="0.001"/>
</g><g transform="translate(0.23996598471902214,0.2721722038322527) rotate(0) scale(1,1) translate(-0.044769149660670284,-0.044751613021905126)"><path d="M 0.046343214134607354 0.03780799801348002 C 0.04659636816393235 0.03784092813230977 0.049887370545157295 0.03826901967709659 0.0493810624865073 0.03820315943943708 C 0.049887370545157295 0.03826901967709659 0.05267206486773225 0.03863125098422391 0.05241891083840725 0.03859832086539415" fill="none" stroke="#000000" stroke-width="0.001"/>
<path d="M 0.05241891083840725 0.03859832086539415 C 0.05256969816608639 0.03889736609788009 0.05443197233326062 0.042948630866166904 0.05422835877055697 0.04218686365522543 C 0.05443197233326062 0.042948630866166904 0.05491509982587562 0.048202249375147374 0.05486227359085111 0.04773952739669184" fill="none" stroke="#000000" stroke-width="0.001"/>
<path d="M 0.05486227359085111 0.04773952739669184 C 0.05463445941407443 0.04780233417262451 0.05155697849589129 0.04864896837652682 0.05212850346953102 0.048493208707883824 C 0.05155697849589129 0.04864896837652682 0.04766026311031128 0.04970159631311808 0.04800397390717434 0.04960864342040775" fill="none" stroke="#000000" stroke-width="0.001"/>
<path d="M 0.04800397390717434 0.04960864342040775 C 0.0478001766279205 0.04947749149074664 0.045168767921153714 0.047613295178083326 0.04555840655612822 0.04803482026447447 C 0.045168767921153714 0.047613295178083326 0.04314246893175957 0.04425996922698403 0.043328310287480236 0.04455034238371407" fill="none" stroke="#000000" stroke-width="0.001"/>
<path d="M 0.043328310287480236 0.04455034238371407 C 0.04345393128111053 0.044269411368287645 0.045087004198304394 0.0406173081677442 0.0448357622110438 0.041179170198597036 C 0.045087004198304394 0.0406173081677442 0.04646883512823765 0.0375270669980536 0.046343214134607354 0.03780799801348002" fill="none" stroke="#000000" stroke-width="0.001"/>
</g><g transform="translate(0.24689100190041205,0.2703862390942713) rotate(0) scale(1,1) translate(-0.044769149660670284,-0.044751613021905126)"><path d="M 0.04597626346690891 0.038130216366209266 C 0.046280890678745974 0.03820273920095757 0.05024104443262782 0.03914553605268552 0.049631790008953694 0.03900049038318891 C 0.05024104443262782 0.03914553605268552 0.05359194376283551 0.03994328723491685 0.05328731655099845 0.03987076440016855" fill="none" stroke="#000000" stroke-width="0.001"/>
<path d="M 0.05328731655099845 0.03987076440016855 C 0.05338946645548987 0.040189716224545806 0.05464058762638643 0.04435991650600551 0.054513115404895486 0.04369818629269564 C 0.05464058762638643 0.04435991650600551 0.05484230552588933 0.04815430534881958 0.05481698320888981 0.04781152695988697" fill="none" stroke="#000000" stroke-width="0.001"/>
<path d="M 0.05481698320888981 0.04781152695988697 C 0.054519999367177586 0.04788666777869179 0.050679866541724114 0.04885604721677706 0.05125317710834317 0.04871321678554486 C 0.050679866541724114 0.04885604721677706 0.047660929684554314 0.0495931817471007 0.04793725640946115 0.049525492134673325" fill="none" stroke="#000000" stroke-width="0.001"/>
<path d="M 0.04793725640946115 0.049525492134673325 C 0.04771577765688161 0.04937309396398716 0.04490295262265948 0.047269294620272864 0.045279511378506714 0.04769671408643939 C 0.04490295262265948 0.047269294620272864 0.043263471336026676 0.044121437245194677 0.04341855133929437 0.04439645854067504" fill="none" stroke="#000000" stroke-width="0.001"/>
<path d="M 0.04341855133929437 0.04439645854067504 C 0.04352512267794498 0.04413536511673897 0.044910550080402845 0.040741150605570015 0.04469740740310163 0.04126333745344216 C 0.044910550080402845 0.040741150605570015 0.04608283480555952 0.03786912294227319 0.04597626346690891 0.038130216366209266" fill="none" stroke="#000000" stroke-width="0.001"/>
</g><g transform="translate(0.2540101470672587,0.2697055739040181) rotate(0) scale(1,1) translate(-0.011628401968068896,-0.011628401968068892)"><path d="M 0.015882162284429364 0.0022698254068139086 C 0.01635882630198589 0.0021998618012588306 0.022365810105485016 0.0015678007147922723 0.021602130495107685 0.0014302621401529707 C 0.022365810105485016 0.0015678007147922723 0.025333333201778132 0.004127790482679907 0.025046317608957328 0.003920288302485528" fill="none" stroke="#000000" stroke-width="0.001"/>
<path d="M 0.025046317608957328 0.003920288302485528 C 0.024954013710987887 0.00434626710248531 0.02350850084133402 0.009865132426232392 0.02393867083332405 0.009032033902482917 C 0.02350850084133402 0.009865132426232392 0.019102479331420136 0.01444554952029765 0.019884277705076992 0.01391747058747924 C 0.019102479331420136 0.01444554952029765 0.014113158069805511 0.015489940305372561 0.01455709034944178 0.015368981096303844" fill="none" stroke="#000000" stroke-width="0.001"/>
<path d="M 0.01455709034944178 0.015368981096303844 C 0.014365441596261382 0.015138865052575574 0.01195691562144715 0.012053196307196274 0.012257305311277016 0.012607588571564599 C 0.01195691562144715 0.012053196307196274 0.010843673134833915 0.008391997703243883 0.010952414071483384 0.008716273923883938" fill="none" stroke="#000000" stroke-width="0.001"/>
<path d="M 0.010952414071483384 0.008716273923883938 C 0.011182041549524327 0.008485419701497826 0.01411875615905354 0.005408819212161417 0.01370794380797471 0.005946023255250586 C 0.01411875615905354 0.005408819212161417 0.016063347157467253 0.0019634755861108522 0.015882162284429364 0.0022698254068139086" fill="none" stroke="#000000" stroke-width="0.001"/>
</g></g>
<g id="腕輪">
<g transform="translate(0.2177406861459798,0.2615745053846972) rotate(0) scale(1,1) translate(-0.011152769902399133,-0.011152769902399133)"><path d="M 0.006526577737697307 0.026200330438122844 C 0.006526577737697307 0.024946367060145868 0.006526577737697306 0.00864484314644518 0.0065265777376973064 0.011152769902399131 C 0.006526577737697306 0.00864484314644518 0.0065265777376972995 -0.00514875401130154 0.0065265777376973 -0.003894790633324565" fill="none" stroke="#000000" stroke-width="0.001"/>
<path d="M 0.0065265777376973 -0.003894790633324565 C 0.006912093751422453 -0.0038947906333245672 0.011923801929849438 -0.0038947906333245894 0.011152769902399133 -0.0038947906333245894 C 0.011923801929849438 -0.0038947906333245894 0.016164478080826113 -0.003894790633324563 0.01577896206710096 -0.003894790633324565" fill="none" stroke="#000000" stroke-width="0.001"/>
<path d="M 0.01577896206710096 -0.003894790633324565 C 0.01577896206710096 -0.0026408272553475904 0.01577896206710096 0.013660696658353084 0.01577896206710096 0.011152769902399133 C 0.01577896206710096 0.013660696658353084 0.01577896206710096 0.02745429381609982 0.01577896206710096 0.026200330438122844" fill="none" stroke="#000000" stroke-width="0.001"/>
<path d="M 0.01577896206710096 0.026200330438122844 C 0.015393446053375809 0.026200330438122844 0.010381737874948836 0.026200330438122844 0.01115276990239914 0.026200330438122844 C 0.010381737874948836 0.026200330438122844 0.0061410617239721545 0.026200330438122844 0.006526577737697307 0.026200330438122844" fill="none" stroke="#000000" stroke-width="0.001"/>
</g><g transform="translate(0.2177406861459798,0.26543928343274675) rotate(0) scale(1,1) translate(-0.00775832499658671,-0.0077583249965867095)"><path d="M 0.013877009936646544 0.0015835053323061477 C 0.013768248908468875 0.0025727544375824286 0.01166085780334887 0.014443743700897798 0.012571877598514507 0.013454494595621517 C 0.01166085780334887 0.014443743700897798 0.002033752599493271 0.012465245490345242 0.002944772394658907 0.013454494595621522 C 0.002033752599493271 0.012465245490345242 0.0015308790283492081 0.0005942562270298739 0.0016396400565268773 0.0015835053323061546" fill="none" stroke="#000000" stroke-width="0.001"/>
<path d="M 0.0016396400565268773 0.0015835053323061546 C 0.0017254014407529965 0.0015835053323061546 0.0027888426051568757 0.0015835053323061546 0.0026687766672403085 0.0015835053323061546 C 0.0027888426051568757 0.0015835053323061546 0.0031147358652161305 0.0015835053323061546 0.0030804313115256826 0.0015835053323061546" fill="none" stroke="#000000" stroke-width="0.001"/>
<path d="M 0.0030804313115256826 0.0015835053323061546 C 0.003163074099961761 0.002415674239937072 0.004769150931832719 0.012401701131508083 0.004072144772758626 0.011569532223877165 C 0.004769150931832719 0.012401701131508083 0.0121415113794889 0.01073736331624625 0.011444505220414805 0.011569532223877167 C 0.0121415113794889 0.01073736331624625 0.01251886147008383 0.0007513364246752294 0.012436218681647751 0.0015835053323061477" fill="none" stroke="#000000" stroke-width="0.001"/>
<path d="M 0.012436218681647751 0.0015835053323061477 C 0.012470523235338198 0.0015835053323061477 0.012967939263849686 0.0015835053323061477 0.01284787332593312 0.0015835053323061477 C 0.012967939263849686 0.0015835053323061477 0.013962771320872662 0.0015835053323061477 0.013877009936646544 0.0015835053323061477" fill="none" stroke="#000000" stroke-width="0.001"/>
</g><g transform="translate(0.2177406861459798,0.27044157211179903) rotate(0) scale(1,1) translate(-0.0022536622055164745,-0.002253662205516475)"><path d="M 0.003148853814843599 0.0009902776982199375 C 0.003136030115177821 0.001193386495163888 0.0028585945169655185 0.003630692058491293 0.0029949694188542613 0.0034275832615473425 C 0.0028585945169655185 0.003630692058491293 0.0013759800902899428 0.0032244744646033937 0.0015123549921786856 0.003427583261547344 C 0.0013759800902899428 0.0032244744646033937 0.0013456468965235707 0.0007871689012759884 0.0013584705961893488 0.0009902776982199388" fill="none" stroke="#000000" stroke-width="0.001"/>
<path d="M 0.0013584705961893488 0.0009902776982199388 C 0.0014330698969666092 0.0009496559388311489 0.0024028608070709944 0.0005028165855544591 0.0022536622055164737 0.0005028165855544592 C 0.0024028608070709944 0.0005028165855544591 0.0032234531156208595 0.0010308994576087274 0.003148853814843599 0.0009902776982199375" fill="none" stroke="#000000" stroke-width="0.001"/>
</g><g transform="translate(0.2177406861459798,0.25330960776907246) rotate(0) scale(1,1) translate(-0.006469483550722008,-0.0064694835507220095)"><path d="M 0.0009999463189583448 0.005479929117343714 C 0.0028231253962129003 0.00515007763955095 0.013762199859740228 0.00580978059513648 0.011939020782485673 0.005479929117343714 C 0.013762199859740228 0.00580978059513648 0.010115841705231117 0.007788889461893069 0.011939020782485673 0.007459037984100305 C 0.010115841705231117 0.007788889461893069 -0.0008232327582962141 0.007129186506307538 0.0009999463189583405 0.007459037984100303 C -0.0008232327582962141 0.007129186506307538 0.0028231253962129003 0.00515007763955095 0.0009999463189583448 0.005479929117343714 Z" fill="#cccccc" stroke="#000000" stroke-width="0.001"/>
</g><g transform="translate(0.2177406861459798,0.2750801613880739) rotate(0) scale(1,1) translate(-0.009906215631991292,-0.007758324996586713)"><path d="M 0.01602490057205112 0.007758324996586713 C 0.01578472955784082 0.008351874459752481 0.012363238592394528 0.015474468017741702 0.013142848401527536 0.014880918554575934 C 0.012363238592394528 0.015474468017741702 0.005889973053322026 0.014287369091410165 0.006669582862455033 0.014880918554575934 C 0.005889973053322026 0.014287369091410165 0.0035473596777211517 0.007164775533420946 0.0037875306919314504 0.007758324996586715" fill="none" stroke="#000000" stroke-width="0.001"/>
<path d="M 0.0037875306919314504 0.007758324996586715 C 0.00387329207615757 0.007758324996586715 0.004936733240561449 0.007758324996586715 0.0048166673026448815 0.007758324996586715 C 0.004936733240561449 0.007758324996586715 0.005262626500620705 0.007758324996586713 0.005228321946930257 0.007758324996586713" fill="none" stroke="#000000" stroke-width="0.001"/>
<path d="M 0.005228321946930257 0.007758324996586713 C 0.005421924903737267 0.00824046735113451 0.008137603419317541 0.014026175605708074 0.007551557428614379 0.013544033251160277 C 0.008137603419317541 0.014026175605708074 0.012846919826071359 0.01306189089661248 0.012260873835368197 0.013544033251160277 C 0.012846919826071359 0.01306189089661248 0.014777712273859333 0.007276182642038916 0.014584109317052323 0.007758324996586713" fill="none" stroke="#000000" stroke-width="0.001"/>
<path d="M 0.014584109317052323 0.007758324996586713 C 0.014618413870742772 0.007758324996586713 0.015115829899254262 0.007758324996586713 0.014995763961337696 0.007758324996586713 C 0.015115829899254262 0.007758324996586713 0.01611066195627724 0.007758324996586713 0.01602490057205112 0.007758324996586713" fill="none" stroke="#000000" stroke-width="0.001"/>
</g><g transform="translate(0.2177406861459798,0.24806884938132048) rotate(0) scale(1,1) translate(-0.005610434361182026,-0.007758324996586713)"><path d="M 0.011729119301241847 0.007758324996586713 C 0.011643357917015729 0.007758324996586713 0.010579916752611856 0.007758324996586713 0.010699982690528423 0.007758324996586713 C 0.010579916752611856 0.007758324996586713 0.01025402349255261 0.007758324996586713 0.010288328046243057 0.007758324996586713" fill="none" stroke="#000000" stroke-width="0.001"/>
<path d="M 0.010288328046243057 0.007758324996586713 C 0.010094725089436046 0.007276182642038906 0.007379046573855762 0.001490474387465224 0.007965092564558924 0.001972616742013031 C 0.007379046573855762 0.001490474387465224 0.0026697301671019533 0.002454759096560838 0.003255776157805114 0.001972616742013031 C 0.0026697301671019533 0.002454759096560838 0.0007389377193139804 0.00824046735113452 0.0009325406761209907 0.007758324996586713" fill="none" stroke="#000000" stroke-width="0.001"/>
<path d="M 0.0009325406761209907 0.007758324996586713 C 0.000898236122430543 0.007758324996586713 0.0004008200939190505 0.007758324996586713 0.0005208860318356174 0.007758324996586713 C 0.0004008200939190505 0.007758324996586713 -0.0005940119631039311 0.007758324996586713 -0.000508250578877812 0.007758324996586713" fill="none" stroke="#000000" stroke-width="0.001"/>
<path d="M -0.000508250578877812 0.007758324996586713 C -0.00026807956466751376 0.00716477553342094 0.0031534114007787735 4.218197543166737E-05 0.0023738015916457667 0.0006357314385974401 C 0.0031534114007787735 4.218197543166737E-05 0.009626676939851276 0.0012292809017632128 0.00884706713071827 0.0006357314385974401 C 0.009626676939851276 0.0012292809017632128 0.011969290315452146 0.008351874459752485 0.011729119301241847 0.007758324996586713" fill="none" stroke="#000000" stroke-width="0.001"/>
</g></g>
</svg>
