<?xml version="1.0" encoding="UTF-8"?>
<svg xmlns="http://www.w3.org/2000/svg" viewBox="0 0 1 1">
<g transform="translate(0.5050897951864706,0.16252707523137233) rotate(0) scale(1,1) translate(-0.04974904766736707,-0.05061008480583568)"><path d="M 0.05021535286043602 0.04891191040723831 C 0.050202012045734046 0.048945061400610494 0.05025118034781354 0.049443787586662055 0.05005526308401231 0.04930972232770455 C 0.05025118034781354 0.049443787586662055 0.052775618104554035 0.05062160778031366 0.05256636002605083 0.05052069351472834" fill="none" stroke="#000000" stroke-width="0.001"/>
<path d="M 0.05256636002605083 0.05052069351472834 C 0.05219100897893698 0.05042321163419817 0.048035465831280655 0.0494172129351106 0.04806214746068461 0.04935091094836623 C 0.048035465831280655 0.0494172129351106 0.0525948498909133 0.05148010122293538 0.0522461804732034 0.05131631735566083" fill="none" stroke="#000000" stroke-width="0.001"/>
<path d="M 0.0522461804732034 0.05131631735566083 C 0.05192994081967683 0.051218835475130654 0.04839656704064035 0.05021283677604309 0.0484513046308845 0.050146534789298716 C 0.04839656704064035 0.05021283677604309 0.05185083145355602 0.052275725063867864 0.051589329390273594 0.05211194119659331" fill="none" stroke="#000000" stroke-width="0.001"/>
<path d="M 0.051589329390273594 0.05211194119659331 C 0.051356878518809046 0.05201445931606314 0.04876359460869632 0.05100846061697557 0.04879991893269905 0.0509421586302312 C 0.04876359460869632 0.05100846061697557 0.051349564049702694 0.05307134890480035 0.05115343750224088 0.0529075650375258" fill="none" stroke="#000000" stroke-width="0.001"/>
<path d="M 0.05115343750224088 0.0529075650375258 C 0.050972956812894286 0.05282322374194438 0.048793847726033235 0.051844279188339545 0.0489876692300818 0.051895469490548775 C 0.048793847726033235 0.051844279188339545 0.04881423863895609 0.052326432404387196 0.04882757945365807 0.05229328141101501" fill="none" stroke="#000000" stroke-width="0.001"/>
</g></svg>
