<?xml version="1.0" encoding="UTF-8"?>
<svg xmlns="http://www.w3.org/2000/svg" viewBox="0 0 1 1">
<g id="前翅">
<g transform="translate(0.3243384088334827,0.22160763844169667) rotate(0) scale(1,1) translate(-0.28476639499999995,-0.28476639499999995)"><path d="M 0.2098143463120335 0.2591134469380043 C 0.21233168272638853 0.25947995794453294 0.24481645154636753 0.2643092243555176 0.24002238328429382 0.2635115790163481 C 0.24481645154636753 0.2643092243555176 0.2696198973046367 0.26911632534067953 0.267343165456918 0.26868519100803867" fill="none" stroke="none" stroke-width="0"/>
<path d="M 0.267343165456918 0.26868519100803867 C 0.2681926588654132 0.2693978029811481 0.279324020329049 0.2783809652088157 0.2775370863588608 0.2772365346853525 C 0.279324020329049 0.2783809652088157 0.2897238136608692 0.2828501758399515 0.28878637309917626 0.2824183572895977" fill="none" stroke="none" stroke-width="0"/>
<path d="M 0.28878637309917626 0.2824183572895977 C 0.2882703255049085 0.28309730485187945 0.27916298399517997 0.29233681109977366 0.28259380196796297 0.2905657280369788 C 0.27916298399517997 0.29233681109977366 0.24470178704726492 0.3047634895436495 0.24761655742578015 0.3036713540431364" fill="none" stroke="#000000" stroke-width="0.001"/>
<path d="M 0.24761655742578015 0.3036713540431364 C 0.24287738890066707 0.30377802745738347 0.1820373547739944 0.30479191136994443 0.19074653512442302 0.30495143501410144 C 0.1820373547739944 0.30479191136994443 0.13913638139532136 0.3014908732548481 0.14310639322063687 0.30175707031325216" fill="none" stroke="#000000" stroke-width="0.001"/>
<path d="M 0.14310639322063687 0.30175707031325216 C 0.1398076175581436 0.3012316595180253 0.09728512292867099 0.29407624543622896 0.10352108527071766 0.2954521407705294 C 0.09728512292867099 0.29407624543622896 0.06533765843652353 0.2843958417625733 0.06827484511607693 0.28524632630164687" fill="none" stroke="#000000" stroke-width="0.001"/>
<path d="M 0.06827484511607693 0.28524632630164687 C 0.070750918421015 0.2841617715789827 0.10305911278517181 0.27042894686127666 0.09798772477533377 0.2722316696296772 C 0.10305911278517181 0.27042894686127666 0.1317268159390335 0.26289548503510424 0.1291315012341335 0.2636136530808406" fill="none" stroke="none" stroke-width="0"/>
<path d="M 0.1291315012341335 0.2636136530808406 C 0.13232938661754046 0.26336992758805017 0.17422969625817528 0.26031392998878566 0.16750612583501695 0.26068894716735536 C 0.17422969625817528 0.26031392998878566 0.21334003135178464 0.2589821552522252 0.20981434631203327 0.2591134469380044" fill="none" stroke="none" stroke-width="0"/>
</g><g transform="translate(0.28721861435003454,0.22411434158577687) rotate(0) scale(1,1) translate(-0.016744898834019206,-0.016744898834019206)"><path d="M 0.021261530663365204 0.01878758168992012 C 0.022072848279368222 0.01838173571118783 0.03252486612127496 0.013155840992011543 0.03099734205540141 0.013917429945132648 C 0.03252486612127496 0.013155840992011543 0.04030802590371837 0.009292771278078033 0.039591819453847835 0.00964851425246685" fill="none" stroke="#000000" stroke-width="0.001"/>
</g><g transform="translate(0.28721861435003454,0.22411434158577687) rotate(0) scale(1,1) translate(-0.016744898834019206,-0.016744898834019206)"><path d="M 0.004116197907975794 0.02676240720511939 C 0.005465105574797447 0.025991102845319317 0.023040039946029912 0.016048499492842688 0.020303089909835634 0.017506754887518523 C 0.023040039946029912 0.016048499492842688 0.03834764071167978 0.00857639143413358 0.03695959834230715 0.009263342469009346" fill="none" stroke="#000000" stroke-width="0.001"/>
</g><g transform="translate(0.2540033986237105,0.2251471992484918) rotate(0) scale(1,1) translate(-0.016744898834019206,-0.016744898834019206)"><path d="M 0.022897922407241544 0.016712004144767784 C 0.024027065259466202 0.016196213586825003 0.038726321797716054 0.00954161890933756 0.03644763663393746 0.010522517449454424 C 0.038726321797716054 0.00954161890933756 0.05139168668413864 0.004476113681191339 0.0502421443725847 0.0049412216633654225" fill="none" stroke="#000000" stroke-width="0.001"/>
</g><g transform="translate(0.2540033986237105,0.2251471992484918) rotate(0) scale(1,1) translate(-0.016744898834019206,-0.016744898834019206)"><path d="M -0.0014915908963980158 0.02754666871269677 C 0.0007334663778767749 0.02638874784466346 0.0292876437335102 0.0117184482603927 0.025209096394899475 0.013651618296297081 C 0.0292876437335102 0.0117184482603927 0.04930446723126662 0.0035733791139731237 0.04745097716693069 0.0043486282818441975" fill="none" stroke="#000000" stroke-width="0.001"/>
</g><g transform="translate(0.21988975345422568,0.2255988125028494) rotate(0) scale(1,1) translate(-0.016744898834019206,-0.016744898834019206)"><path d="M 0.021137374714711155 0.013833827342928316 C 0.022213118667093648 0.013345777136528212 0.03676849700213423 0.0068493188617125686 0.034046302143301066 0.007977224866127076 C 0.03676849700213423 0.0068493188617125686 0.05545016392715976 -0.0003409005080601767 0.05380371302070909 0.00029895528995422735" fill="none" stroke="#000000" stroke-width="0.001"/>
</g><g transform="translate(0.21988975345422568,0.2255988125028494) rotate(0) scale(1,1) translate(-0.016744898834019206,-0.016744898834019206)"><path d="M -0.010398099176038997 0.026466591430418435 C -0.007227309468347863 0.024980525552800417 0.03270383083588107 0.0064207426645265225 0.0276513773162546 0.008633800899002215 C 0.03270383083588107 0.0064207426645265225 0.05211300687141393 -0.0008170997401475449 0.0502313430594786 -9.010738328987106E-05" fill="none" stroke="#000000" stroke-width="0.001"/>
</g><g transform="translate(0.17594211719704866,0.22353617247801905) rotate(0) scale(1,1) translate(-0.016744898834019206,-0.016744898834019206)"><path d="M 0.019753730980565362 0.013754554811424045 C 0.02061217835572589 0.013405799193656835 0.03301249197679149 0.008430401498081077 0.030055099482491715 0.009569487398217526 C 0.03301249197679149 0.008430401498081077 0.05734138603130194 -0.0007048062725825852 0.055242440912162696 8.552400978665414E-05" fill="none" stroke="#000000" stroke-width="0.001"/>
</g><g transform="translate(0.17594211719704866,0.22353617247801905) rotate(0) scale(1,1) translate(-0.016744898834019206,-0.016744898834019206)"><path d="M -0.012093023709815454 0.02445132290839628 C -0.008892238037517644 0.02313224748969283 0.03147467364123943 0.006596847715928314 0.02631640435775828 0.008622417883954897 C 0.03147467364123943 0.006596847715928314 0.051763691303141755 -0.0005620138572458521 0.04980620769195841 0.00014448089207728249" fill="none" stroke="#000000" stroke-width="0.001"/>
</g><g transform="translate(0.20922312297090823,0.1992153328684343) rotate(0) scale(1,1) translate(-0.17528835204887805,-0.24272471925198885)"><path d="M 0.21545158922348606 0.23946407676325565 C 0.2179689256378411 0.2398305877697843 0.25045369445782006 0.24465985418076897 0.24565962619574638 0.24386220884159943 C 0.25045369445782006 0.24465985418076897 0.27525714021608927 0.24946695516593087 0.27298040836837056 0.24903582083328998" fill="none" stroke="#000000" stroke-width="0.001"/>
<path d="M 0.27298040836837056 0.24903582083328998 C 0.2738299017768658 0.24974843280639947 0.2849612632405016 0.25873159503406706 0.2831743292703134 0.2575871645106038 C 0.2849612632405016 0.25873159503406706 0.2953610565723218 0.26320080566520276 0.29442361601062883 0.262768987114849" fill="none" stroke="#000000" stroke-width="0.001"/>
<path d="M 0.29442361601062883 0.262768987114849 C 0.29237485047789147 0.26248047637444294 0.26566751826587176 0.2586200981819771 0.26983842961778043 0.2593068582299763 C 0.26566751826587176 0.2586200981819771 0.2422505339685533 0.2541296172312658 0.24437267978772462 0.25452786653885895" fill="none" stroke="#000000" stroke-width="0.001"/>
<path d="M 0.24437267978772462 0.25452786653885895 C 0.24038158838196058 0.2541517079513781 0.18899192499880374 0.2497192385174217 0.19647958291855616 0.25001396348908844 C 0.18899192499880374 0.2497192385174217 0.1510242182367073 0.2510726004946722 0.1545207847506957 0.2509911668788581" fill="none" stroke="#000000" stroke-width="0.001"/>
<path d="M 0.1545207847506957 0.2509911668788581 C 0.15132123687288473 0.2513649590815361 0.10940881882336692 0.25669382241499805 0.11612621021696411 0.2554766733109947 C 0.10940881882336692 0.25669382241499805 0.07039424451174324 0.2664403130282235 0.07391208802752947 0.2655969561268982" fill="none" stroke="#000000" stroke-width="0.001"/>
<path d="M 0.07391208802752947 0.2655969561268982 C 0.07638816133246754 0.26451240140423404 0.10869635569662439 0.25077957668652795 0.10362496768678635 0.2525822994549285 C 0.10869635569662439 0.25077957668652795 0.13736405885048605 0.24324611486035555 0.13476874414558607 0.24396428290609193" fill="none" stroke="#000000" stroke-width="0.001"/>
<path d="M 0.13476874414558607 0.24396428290609193 C 0.13796662952899302 0.24372055741330148 0.1798669391696279 0.240664559814037 0.17314336874646957 0.2410395769926067 C 0.1798669391696279 0.240664559814037 0.2189772742632372 0.23933278507747643 0.21545158922348584 0.23946407676325568" fill="none" stroke="#000000" stroke-width="0.001"/>
</g><g transform="translate(0.252777347257239,0.20254731396825318) rotate(0) scale(1,1) translate(-0.0896951850180319,-0.08969518501803192)"><path d="M 0.09566259195360337 0.08968054148937138 C 0.0944245670391558 0.09034544384319945 0.08388580067496201 0.09401155899466669 0.08525073899913223 0.09367727737667009 C 0.08388580067496201 0.09401155899466669 0.07915641865383813 0.09336130016949917 0.07928333206356078 0.09369192090533064 C 0.07915641865383813 0.09336130016949917 0.08496580299690802 0.08904492619286437 0.08372777808246046 0.08970982854669245 C 0.08496580299690802 0.08904492619286437 0.0955045693611018 0.08537881104139715 0.09413963103693158 0.08571309265939375 C 0.0955045693611018 0.08537881104139715 0.10023395138222568 0.0860290698665647 0.10010703797250303 0.08569844913073323 C 0.10023395138222568 0.0860290698665647 0.0944245670391558 0.09034544384319945 0.09566259195360337 0.08968054148937138 Z" fill="#cccccc" stroke="#000000" stroke-width="0.001"/>
</g><g transform="translate(0.23348716198197755,0.2012063113293719) rotate(0) scale(1,1) translate(-0.0896951850180319,-0.08969518501803192)"><path d="M 0.09595773075584603 0.09000798313044661 C 0.09462207730894157 0.09063759845695307 0.08336189226483322 0.0939049839324794 0.08481253720551221 0.093629276033278 C 0.08336189226483322 0.0939049839324794 0.07843499997392356 0.09296257049355829 0.07854999146769809 0.09331647792086335 C 0.07843499997392356 0.09296257049355829 0.08476829272712227 0.08875277157911077 0.08343263928021781 0.08938238690561723 C 0.08476829272712227 0.08875277157911077 0.09602847777123061 0.08548538610358444 0.09457783283055161 0.08576109400278584 C 0.09602847777123061 0.08548538610358444 0.10095537006214027 0.08642779954250558 0.10084037856836574 0.08607389211520051 C 0.10095537006214027 0.08642779954250558 0.09462207730894157 0.09063759845695307 0.09595773075584603 0.09000798313044661 Z" fill="#cccccc" stroke="#000000" stroke-width="0.001"/>
</g></g>
</svg>
