<?xml version="1.0" encoding="UTF-8"?>
<svg xmlns="http://www.w3.org/2000/svg" viewBox="0 0 1 1">
<g transform="translate(0.3373434528286706,0.2649004817027368) rotate(0) scale(1,1) translate(-0.11919468730772295,-0.11388483716227914)"><path d="M 0.1194742739491885 0.11412028566772511 C 0.11957040291547771 0.11424491763883171 0.12043054273433915 0.11560448651202228 0.12034823490319363 0.11535357865797054 C 0.12043054273433915 0.11560448651202228 0.12044388501812663 0.11739467643390782 0.12046196792293476 0.11713117991634606 C 0.12044388501812663 0.11739467643390782 0.12013482293343485 0.11880838014060857 0.12013124004549595 0.11851553686871162 C 0.12013482293343485 0.11880838014060857 0.12051022720062711 0.12094382534841906 0.12050496257820147 0.12064529917910946 C 0.12051022720062711 0.12094382534841906 0.12020335350212986 0.12242490093300401 0.1201944155146037 0.12209785090042688 C 0.12020335350212986 0.12242490093300401 0.1206441114706926 0.124952632819755 0.12061221842851537 0.12456989957003503 C 0.1206441114706926 0.124952632819755 0.12060698499222858 0.12714402272636566 0.12057713202073043 0.12669064989706635 C 0.12060698499222858 0.12714402272636566 0.12097234495381481 0.13061235599992138 0.12097045408649312 0.13001037352162684 C 0.12097234495381481 0.13061235599992138 0.12058889455654657 0.13458256641516303 0.12059982242859069 0.1339144396366008 C 0.12058889455654657 0.13458256641516303 0.12082899816129264 0.1385822073411802 0.12083931962196376 0.13802789486437356 C 0.12082899816129264 0.1385822073411802 0.1204959346282531 0.14075515783022569 0.12047596490053727 0.14056618935828077 C 0.1204959346282531 0.14075515783022569 0.1213693933434232 0.1404361274786517 0.12107895635455365 0.1402955165277126 C 0.1213693933434232 0.1404361274786517 0.12381289040198715 0.14259164188161771 0.12396120876697192 0.14225352076954978 C 0.12381289040198715 0.14259164188161771 0.11852535775409395 0.14434954666961577 0.11929913597473629 0.14435296987252766 C 0.11852535775409395 0.14434954666961577 0.11451333585411091 0.1418755410930589 0.11467587011926389 0.1422124423346073 C 0.11451333585411091 0.1418755410930589 0.11761334464872723 0.14017594569521946 0.11734872479290066 0.14031015497394672 C 0.11761334464872723 0.14017594569521946 0.11788510835075466 0.14033943004179636 0.11785130838918266 0.14060193098988025 C 0.11788510835075466 0.14033943004179636 0.1177839517645032 0.1365580995658625 0.11775432433176473 0.13716014359694 C 0.1177839517645032 0.1365580995658625 0.11820729242180833 0.13273710003886635 0.11820683758204424 0.13337740261695025 C 0.11820729242180833 0.13273710003886635 0.11776993729048497 0.12894493784007527 0.11775978240893385 0.12947651265993315 C 0.11776993729048497 0.12894493784007527 0.11832195646618886 0.12662431073953678 0.11832869616065778 0.1269985047786555 C 0.11832195646618886 0.12662431073953678 0.11763566446304045 0.12465017982798017 0.11767890607530687 0.12498618419050833 C 0.11763566446304045 0.12465017982798017 0.11786894667184904 0.12262941593547516 0.11780979681346077 0.12296645242831758 C 0.11786894667184904 0.12262941593547516 0.11841856859168479 0.1206164144553342 0.11838870437596606 0.12094174627639923 C 0.11841856859168479 0.1206164144553342 0.11817500962883896 0.11873828028846461 0.1181681674020855 0.11906247057553732 C 0.11817500962883896 0.11873828028846461 0.11846134779045223 0.11676951406615259 0.11847081109700772 0.11705146283152688 C 0.11846134779045223 0.11676951406615259 0.11809163185419036 0.11543482062739562 0.11805460772341955 0.11567908539104577 C 0.11809163185419036 0.11543482062739562 0.11901010729828272 0.11396852813552891 0.11891510066625743 0.11412028566772511 C 0.11901010729828272 0.11396852813552891 0.11924128508130054 0.11385799500469129 0.11919468730772295 0.11385799500469129 C 0.11924128508130054 0.11385799500469129 0.11957040291547771 0.11424491763883171 0.1194742739491885 0.11412028566772511 Z" fill="#cccccc" stroke="#000000" stroke-width="0.001"/>
</g><g transform="translate(0.3401207846328328,0.29299576635674535) rotate(0) scale(1,1) translate(-0.007632439264170959,-0.011489070732754177)"><path d="M 0.011307456424729996 0.009236245034342156 C 0.011392952792822923 0.009370866901069029 0.01122196005663707 0.010447841834884003 0.011307456424729996 0.010313219968157131 C 0.01122196005663707 0.010447841834884003 0.009927317986119679 0.010988854493584986 0.010281500007614875 0.010851707435064622 C 0.009927317986119679 0.010988854493584986 0.006971775798694713 0.011824362803674632 0.007057272166787639 0.011958984670401504 C 0.006971775798694713 0.011824362803674632 0.009524229243902031 0.00896447610909492 0.009255543590499762 0.009236245034342156 C 0.009524229243902031 0.00896447610909492 0.010452492743800728 0.008697757567434666 0.010281500007614875 0.008697757567434666 C 0.010452492743800728 0.008697757567434666 0.011392952792822923 0.009370866901069029 0.011307456424729996 0.009236245034342156 Z" fill="#cccccc" stroke="#000000" stroke-width="0.001"/>
</g><g transform="translate(0.33393541891736256,0.2924096446796026) rotate(0) scale(1,1) translate(-0.009274318487558978,-0.011539567016504784)"><path d="M 0.006353729017912096 0.00846214425174002 C 0.006542248509556993 0.00846214425174002 0.0077810719006574935 0.00935545192409061 0.007484845967781477 0.009055826684005532 C 0.0077810719006574935 0.00935545192409061 0.009814180466601843 0.01220606774082734 0.009908440212424291 0.012057647132760963 C 0.009814180466601843 0.01220606774082734 0.005963243339213631 0.010685669348783346 0.006353729017912096 0.010836873980802048 C 0.005963243339213631 0.010685669348783346 0.005128352322220267 0.010094770940470163 0.005222612068042715 0.01024319154853654 C 0.005128352322220267 0.010094770940470163 0.0053168718138651636 0.008907406075939156 0.005222612068042715 0.009055826684005532 C 0.0053168718138651636 0.008907406075939156 0.006542248509556993 0.00846214425174002 0.006353729017912096 0.00846214425174002 Z" fill="#cccccc" stroke="#000000" stroke-width="0.001"/>
</g><g transform="translate(0.33526598471982216,0.2905001606774919) rotate(0) scale(1,1) translate(-0.008434564811809,-0.010934425164257432)"><path d="M 0.007372833408661317 0.010950700939610578 C 0.007386043879973035 0.010814437876527763 0.008080524771844344 0.01016975064856069 0.007939911638635644 0.010222257493181792 C 0.008080524771844344 0.01016975064856069 0.009175539622035869 0.010411034068715784 0.009060191007165723 0.010320618804157349 C 0.009175539622035869 0.010411034068715784 0.009298830498738841 0.011450162777062553 0.009324095017077396 0.011307240667883016 C 0.009298830498738841 0.011450162777062553 0.008628457700921207 0.012081531912836174 0.008757016787103071 0.012035684114311794 C 0.008628457700921207 0.012081531912836174 0.007666037368024888 0.011766998985617137 0.0077813859828950345 0.011857414250175571 C 0.007666037368024888 0.011766998985617137 0.007386043879973035 0.010814437876527763 0.007372833408661317 0.010950700939610578 Z" fill="#cccccc" stroke="#000000" stroke-width="0.001"/>
</g><g transform="translate(0.33805272570171535,0.2922555452537938) rotate(0) scale(1,1) translate(-0.007887010811670887,-0.011755036522883896)"><path d="M 0.010389632817056325 0.00824535593115057 C 0.010520933592743944 0.0083358699204668 0.010784341580423937 0.009394042758863467 0.010810440448300509 0.00923671658477387 C 0.010784341580423937 0.009394042758863467 0.009804007757690181 0.01039790449417988 0.01007644640253746 0.010133270020225729 C 0.009804007757690181 0.01039790449417988 0.007409875934445549 0.01232181628290746 0.007541176710133168 0.01241233027222369 C 0.007409875934445549 0.01232181628290746 0.008641974963445698 0.00869195368516059 0.008500837094286038 0.009047102148430972 C 0.008641974963445698 0.00869195368516059 0.009392230783613275 0.008083736528205751 0.009234831140049084 0.008150548712979117 C 0.009392230783613275 0.008083736528205751 0.010520933592743944 0.0083358699204668 0.010389632817056325 0.00824535593115057 Z" fill="#cccccc" stroke="#000000" stroke-width="0.001"/>
</g><g transform="translate(0.34246400727418463,0.2883740143166032) rotate(0) scale(1,1) translate(-0.008434564811809,-0.010934425164257432)"><path d="M 0.007372833408661317 0.010950700939610578 C 0.007386043879973035 0.010814437876527763 0.008080524771844344 0.01016975064856069 0.007939911638635644 0.010222257493181792 C 0.008080524771844344 0.01016975064856069 0.009175539622035869 0.010411034068715784 0.009060191007165723 0.010320618804157349 C 0.009175539622035869 0.010411034068715784 0.009298830498738841 0.011450162777062553 0.009324095017077396 0.011307240667883016 C 0.009298830498738841 0.011450162777062553 0.008628457700921207 0.012081531912836174 0.008757016787103071 0.012035684114311794 C 0.008628457700921207 0.012081531912836174 0.007666037368024888 0.011766998985617137 0.0077813859828950345 0.011857414250175571 C 0.007666037368024888 0.011766998985617137 0.007386043879973035 0.010814437876527763 0.007372833408661317 0.010950700939610578 Z" fill="#cccccc" stroke="#000000" stroke-width="0.001"/>
</g></svg>
