<?xml version="1.0" encoding="UTF-8"?>
<svg xmlns="http://www.w3.org/2000/svg" viewBox="0 0 1 1">
<g id="鰭2">
<g transform="translate(0.24374121509687002,0.3364312447023099) rotate(0) scale(1,1) translate(-0.00840825463728747,-0.010944286804664683)"><path d="M 0.008746453764092037 0.003927401468057805 C 0.008668226058748963 0.004803855132252174 0.0064824868181134945 0.016280874920022937 0.007807721299975145 0.014444845438390235 C 0.0064824868181134945 0.016280874920022937 -0.008403366794766345 0.02691933106508856 -0.007156360018247768 0.025959755247650228" fill="none" stroke="#000000" stroke-width="0.001"/>
<path d="M -0.007156360018247768 0.025959755247650228 C -0.008567849785897272 0.025838616493211446 -0.02783093905660376 0.02361326165355686 -0.02409423723004181 0.024506090194384857 C -0.02783093905660376 0.02361326165355686 -0.05432199399590361 0.014474122971325066 -0.051996781936991164 0.015245812757714281" fill="none" stroke="#000000" stroke-width="0.001"/>
<path d="M -0.051996781936991164 0.015245812757714281 C -0.05171225936379963 0.015078476003306368 -0.04808250295710365 0.01295276939548392 -0.04858251105869278 0.013237771704819311 C -0.04808250295710365 0.01295276939548392 -0.04578119918952398 0.011708119490762097 -0.04599668471792158 0.011825785045689576" fill="none" stroke="none" stroke-width="0"/>
<path d="M -0.04599668471792158 0.011825785045689576 C -0.04564394788203238 0.011863032280600202 -0.041267299796071216 0.011904224197797885 -0.041763842687251175 0.012272751864617088 C -0.041267299796071216 0.011904224197797885 -0.03989436396847133 0.006997678142129321 -0.04003817002376209 0.007403453043859149" fill="none" stroke="#000000" stroke-width="0.001"/>
<path d="M -0.04003817002376209 0.007403453043859149 C -0.04041703532100147 0.007395916119982642 -0.04508109648181467 0.0076815376241602595 -0.044584553590634714 0.007313009957341058 C -0.04508109648181467 0.0076815376241602595 -0.04611436231186215 0.012201849636385285 -0.04599668471792158 0.011825785045689576" fill="none" stroke="#000000" stroke-width="0.001"/>
<path d="M -0.04599668471792158 0.011825785045689576 C -0.04621217024631918 0.011943450600617054 -0.04908251916028191 0.013522774014154703 -0.04858251105869278 0.013237771704819311 C -0.04908251916028191 0.013522774014154703 -0.052281304510182695 0.015413149512122195 -0.051996781936991164 0.015245812757714281" fill="none" stroke="none" stroke-width="0"/>
<path d="M -0.051996781936991164 0.015245812757714281 C -0.05227145908967698 0.014138505053735768 -0.05575140715725835 0.008083861395575046 -0.05364484485310606 0.008601966533843201 C -0.05575140715725835 0.008083861395575046 -0.06646804091337134 0.012726384493815713 -0.06463615576190487 0.012137181928105353" fill="none" stroke="#000000" stroke-width="0.001"/>
<path d="M -0.06463615576190487 0.012137181928105353 C -0.06506503117904905 0.011504602519985602 -0.06885676734601336 0.008122303356301786 -0.06720940826476993 0.008341705479386842 C -0.06885676734601336 0.008122303356301786 -0.07573879391346473 0.011233946474629714 -0.07452031024936548 0.010820769189595018" fill="none" stroke="#000000" stroke-width="0.001"/>
<path d="M -0.07452031024936548 0.010820769189595018 C -0.07491659227165684 0.010778887706237299 -0.08156221352679505 0.010084853541400407 -0.07927569451686181 0.01031819138930239 C -0.08156221352679505 0.010084853541400407 -0.10384877535620618 0.007829258650226963 -0.1019585383685643 0.008020715014771227" fill="none" stroke="#000000" stroke-width="0.001"/>
<path d="M -0.1019585383685643 0.008020715014771227 C -0.09967547025267062 0.007535809611251621 -0.06961426290239058 0.0013974207789043147 -0.07456172097784014 0.0022018501725359456 C -0.06961426290239058 0.0013974207789043147 -0.03751742825834354 -0.0019308372946748378 -0.04258904146316957 -0.0016324377088083458 C -0.03751742825834354 -0.0019308372946748378 -0.009424404584322626 -0.0009156249264564459 -0.01370236251992776 -0.0013789448578619586 C -0.009424404584322626 -0.0009156249264564459 0.01061718845442702 0.004369596995217785 0.008746453764092037 0.003927401468057805" fill="none" stroke="#000000" stroke-width="0.001"/>
</g><g transform="translate(0.2061122644742598,0.321117356383548) rotate(0) scale(1,1) translate(0.006710210153804868,-0.017881266687031116)"><path d="M 0.03208140913656978 0.025811995078345022 C 0.03228063688339056 0.025902757218880613 0.03479852506485754 0.027170119098123755 0.03447214209841904 0.026901140764772104 C 0.03479852506485754 0.027170119098123755 0.03614617150745424 0.02943586863153421 0.0359980047338318 0.029039735078564832 C 0.03614617150745424 0.02943586863153421 0.036180392795357466 0.03207188850737874 0.036250143381888346 0.03165474340040465 C 0.036180392795357466 0.03207188850737874 0.0348920193621096 0.034371859328692425 0.03516099769546126 0.034045476362253926 C 0.0348920193621096 0.034371859328692425 0.03262626982869914 0.035719505771289115 0.03302240338166852 0.03557133899766667 C 0.03262626982869914 0.035719505771289115 0.03018947769967539 0.03584448919972793 0.030407395059828708 0.03582347764572322" fill="none" stroke="#000000" stroke-width="0.001"/>
<path d="M 0.030407395059828708 0.03582347764572322 C 0.028561862231256084 0.035094246564283095 0.004560754053264499 0.026057644929879352 0.00826100111695722 0.02707270466844175 C 0.004560754053264499 0.026057644929879352 -0.0180770815432549 0.023428158605082267 -0.013995569704483953 0.02364276078297445 C -0.0180770815432549 0.023428158605082267 -0.04649593087613009 0.025097764536808946 -0.04071714094829417 0.02449747853373553 C -0.04649593087613009 0.025097764536808946 -0.08689304116270004 0.031375252343698735 -0.08334104883851497 0.030846192819855414" fill="none" stroke="#000000" stroke-width="0.001"/>
<path d="M -0.08334104883851497 0.030846192819855414 C -0.08006101206672105 0.03004346905347189 -0.038231732589576406 0.02012058867224473 -0.043980607576988 0.021213507623253122 C -0.038231732589576406 0.02012058867224473 -0.0099124793496752 0.017556682432808873 -0.014354548989575918 0.017731165407754722 C -0.0099124793496752 0.017556682432808873 0.013193891278999432 0.019793114396452125 0.009324228101820623 0.019119711923902934 C 0.013193891278999432 0.019793114396452125 0.033977840889465545 0.026369685341215195 0.03208140913656978 0.025811995078345022" fill="none" stroke="#000000" stroke-width="0.001"/>
</g></g>
<g id="鰭1">
<g transform="translate(0.23944699543525544,0.341187286887799) rotate(0) scale(1,1) translate(-0.009087003375103238,-0.017113090322245672)"><path d="M 0.00870013261338061 0.0221105968523956 C 0.008096532986364797 0.022217164882959755 -0.0018061725541744034 0.024992388154683125 0.0014569370891908693 0.023389413219165475 C -0.0018061725541744034 0.024992388154683125 -0.03311669312335212 0.042842702983560896 -0.030457183107002662 0.0413462960786074" fill="none" stroke="#000000" stroke-width="0.001"/>
<path d="M -0.030457183107002662 0.0413462960786074 C -0.03001705071227005 0.04087330164471623 -0.024576448070275946 0.03497821199047867 -0.025175594370211288 0.03567036287191337 C -0.024576448070275946 0.03497821199047867 -0.023108413602575827 0.03282132905384749 -0.023267427507778556 0.03304048550139102" fill="none" stroke="#000000" stroke-width="0.001"/>
<path d="M -0.023267427507778556 0.03304048550139102 C -0.022323630285393123 0.03233036527790713 -0.017487613296064793 0.02811880297346734 -0.01760464417346596 0.02877976416048765 C -0.017487613296064793 0.02811880297346734 -0.023392008588355818 0.029123877415732743 -0.02256524224337155 0.029074718379269157" fill="none" stroke="#000000" stroke-width="0.001"/>
<path d="M -0.02256524224337155 0.029074718379269157 C -0.02256801697325116 0.02894199177566726 -0.022617951183730584 0.027196959768036773 -0.022598539001926862 0.027481999136046383 C -0.022617951183730584 0.027196959768036773 -0.022814825876940295 0.025501933198746135 -0.022798188425016186 0.025654245963153847" fill="none" stroke="#000000" stroke-width="0.001"/>
<path d="M -0.022798188425016186 0.025654245963153847 C -0.02368866870336965 0.02540055944617918 -0.03571130138829641 0.022458444563483875 -0.03348395176525777 0.022610007759457824 C -0.03571130138829641 0.022458444563483875 -0.05086325324616502 0.02393761093246716 -0.04952638390147985 0.023835487611466442" fill="none" stroke="#000000" stroke-width="0.001"/>
<path d="M -0.04952638390147985 0.023835487611466442 C -0.04690291008837459 0.02311080919424842 -0.013083956017326015 0.01421972352862497 -0.01804469814421674 0.015139346604850152 C -0.013083956017326015 0.01421972352862497 0.012339789934994329 0.012605066037757112 0.010002521621208862 0.012800010696764268" fill="none" stroke="#000000" stroke-width="0.001"/>
</g><g transform="translate(0.24023547482648,0.34186965573530664) rotate(0) scale(1,1) translate(-0.009819831312519482,-0.015177894163139374)"><path d="M 0.009946870167400621 0.0101824456901504 C 0.010106543549870959 0.010260202319831975 0.012119070470208002 0.011346510863107995 0.011862950757044664 0.011115525246329284 C 0.012119070470208002 0.011346510863107995 0.01312412961854721 0.013295145839755055 0.01302030672536068 0.012954273091494939 C 0.01312412961854721 0.013295145839755055 0.013032532288107556 0.015565421527574123 0.013108825475283026 0.015205998225450674 C 0.013032532288107556 0.015565421527574123 0.011868821909609249 0.017549019389418205 0.012104788479255054 0.01726735271697633 C 0.011868821909609249 0.017549019389418205 0.009988867696226466 0.01877147155548697 0.010277226639533357 0.018585998294753187 C 0.009988867696226466 0.01877147155548697 0.008508419036242278 0.019568617975034095 0.008644481159572361 0.019493031845781716" fill="none" stroke="#000000" stroke-width="0.001"/>
<path d="M 0.008644481159572361 0.019493031845781716 C 0.008015358510299365 0.019840599430079927 -0.0023627641712941037 0.02537178258360216 0.0010950093682964152 0.023663842857360225 C -0.0023627641712941037 0.02537178258360216 -0.035677452205831385 0.041348680702628635 -0.03284880131551386 0.03998830856068491" fill="none" stroke="#000000" stroke-width="0.001"/>
<path d="M -0.03284880131551386 0.03998830856068491 C -0.031427343944521575 0.039081110211740086 -0.012756800487950937 0.027109845703988635 -0.015791312863606417 0.029101928373347016 C -0.012756800487950937 0.027109845703988635 0.0032896266922982924 0.014930016878535589 0.003565347192351899 0.01608331652838436 C 0.0032896266922982924 0.014930016878535589 -0.024107235810260877 0.015867062126952214 -0.0190999588642497 0.015262332575161755 C -0.024107235810260877 0.015867062126952214 -0.059640477601076596 0.024013216031095533 -0.05652197615978222 0.023340071149869857" fill="none" stroke="#000000" stroke-width="0.001"/>
<path d="M -0.05652197615978222 0.023340071149869857 C -0.05325665824753678 0.02229081347168042 -0.011799090685571775 0.00965251022328668 -0.01733816121283701 0.010748979011596636 C -0.011799090685571775 0.00965251022328668 0.012220622782420424 0.010135234580029882 0.009946870167400621 0.0101824456901504" fill="none" stroke="#000000" stroke-width="0.001"/>
</g></g>
</svg>
