<?xml version="1.0" encoding="UTF-8"?>
<svg xmlns="http://www.w3.org/2000/svg" viewBox="0 0 1 1">
<g transform="translate(0.24374121509687002,0.33643124470230995) rotate(0) scale(1,1) translate(-0.1041516067121338,-0.013952564684521102)"><path d="M 0.10565827976390303 0.006612661577188819 C 0.1059310750042908 0.006739539561197588 0.10937067521268098 0.0085188499258035 0.10893182264855633 0.008135197385294038 C 0.10937067521268098 0.0085188499258035 0.11110539233842909 0.011791135213744454 0.1109245105333988 0.011216492063302361 C 0.11110539233842909 0.011791135213744454 0.11097684822127225 0.01564257378287685 0.11110240430891968 0.015030915190599159 C 0.11097684822127225 0.01564257378287685 0.10901948615359436 0.019041175778903564 0.10941783748162957 0.01855639517063464 C 0.10901948615359436 0.019041175778903564 0.10575777972072507 0.021076288541594445 0.10632218837249716 0.020848282489826217 C 0.10575777972072507 0.021076288541594445 0.10233849576768689 0.02132948323368899 0.1026449336603646 0.021292467791853394" fill="none" stroke="none" stroke-width="0"/>
<path d="M 0.1026449336603646 0.021292467791853394 C 0.10041788194141837 0.022308773101089058 0.07061955216295981 0.03388237997530027 0.07592031303300979 0.03348813150268136 C 0.07061955216295981 0.03388237997530027 0.03495904691149775 0.02550183173926495 0.03903580321976492 0.026023449463280335 C 0.03495904691149775 0.02550183173926495 0.02512166886556255 0.02700921920609372 0.026999237333803758 0.027228718814496768 C 0.02512166886556255 0.02700921920609372 0.014975173685538572 0.02318405540848614 0.016504981600870425 0.023389454162443743 C 0.014975173685538572 0.02318405540848614 0.007126839480272844 0.024546541360414325 0.008641542349821521 0.02476393376700554 C 0.007126839480272844 0.024546541360414325 -0.00414981505797953 0.02031520794322681 -0.0016714528337136991 0.020780745283349163 C -0.00414981505797953 0.02031520794322681 -0.02271775030033969 0.01904388071905299 -0.02109880434136846 0.019177485685537312" fill="none" stroke="#000000" stroke-width="0.001"/>
<path d="M -0.02109880434136846 0.019177485685537312 C -0.020372427712735796 0.018373422786400216 -0.010937084225774567 0.008230792917339205 -0.012382284797776477 0.009528730895892165 C -0.010937084225774567 0.008230792917339205 -0.0025114282519127116 0.0025879930921172386 -0.0037563974773455328 0.003602229942901795 C -0.0025114282519127116 0.0025879930921172386 0.0037189207854756053 -0.003227746429284019 0.00255734590741738 -0.002642111313522511 C 0.0037189207854756053 -0.003227746429284019 0.0113917336148563 -0.0039842380949452715 0.010182501059353172 -0.003425391446236303 C 0.0113917336148563 -0.0039842380949452715 0.018390633434869696 -0.009755452752577866 0.017068136573454934 -0.00934827109803013 C 0.018390633434869696 -0.009755452752577866 0.02744531754884622 -0.008614188430966825 0.026052463396330314 -0.00831157130080915 C 0.02744531754884622 -0.008614188430966825 0.035385655620658714 -0.013148796933825455 0.033782386403645795 -0.012979676659922229 C 0.035385655620658714 -0.013148796933825455 0.04881815535282727 -0.009948369480878695 0.04529169400048533 -0.010341014587647862 C 0.04881815535282727 -0.009948369480878695 0.08113047144536728 -0.00685512903162251 0.07609992263174914 -0.008267935378692233 C 0.08113047144536728 -0.00685512903162251 0.10812147619158251 0.007852711323512227 0.10565827976390302 0.006612661577188808" fill="none" stroke="#000000" stroke-width="0.001"/>
</g></svg>
