<?xml version="1.0" encoding="UTF-8"?>
<svg xmlns="http://www.w3.org/2000/svg" viewBox="0 0 1 1">
<g transform="translate(0.336873385639299,0.12633116493929744) rotate(0) scale(1,1) translate(-0.031356046728840126,-0.027175517844381894)"><path d="M 0.031580075336351876 0.027175517844381894 C 0.03157804488333294 0.027240486080267468 0.031556623662394645 0.02808289589957379 0.031555709900124684 0.02795513667500878 C 0.031556623662394645 0.02808289589957379 0.0315939846988803 0.028771419527841458 0.031591040483591404 0.02870862853916202" fill="none" stroke="#000000" stroke-width="0.001"/>
<path d="M 0.031591040483591404 0.02870862853916202 C 0.031591177275683884 0.02872681478315562 0.03158642364059983 0.028963390566748567 0.03159268198870113 0.028926863467085215 C 0.03158642364059983 0.028963390566748567 0.03149622070138741 0.02917253176246931 0.031515940306375834 0.02914695373512226 C 0.03149622070138741 0.02917253176246931 0.031329397799250785 0.02923379979524983 0.03135604672884007 0.02923379979524983 C 0.031329397799250785 0.02923379979524983 0.031176433546316006 0.02912137570777521 0.031196153151304418 0.02914695373512226 C 0.031176433546316006 0.02912137570777521 0.031113153120877812 0.028890336367421863 0.03111941146897912 0.028926863467085215 C 0.031113153120877812 0.028890336367421863 0.031121189766181206 0.02869044229516842 0.031121052974088736 0.02870862853916202" fill="none" stroke="#000000" stroke-width="0.001"/>
<path d="M 0.031121052974088736 0.02870862853916202 C 0.03112399718937763 0.028645837550482584 0.031157297319825427 0.02782737745044377 0.031156383557555456 0.02795513667500878 C 0.031157297319825427 0.02782737745044377 0.03112998766830945 0.02711054960849632 0.031132018121328375 0.027175517844381894" fill="none" stroke="#000000" stroke-width="0.001"/>
</g></svg>
