<?xml version="1.0" encoding="UTF-8"?>
<svg xmlns="http://www.w3.org/2000/svg" viewBox="0 0 1 1">
<g transform="translate(0.3162111684713726,0.08586243713995967) rotate(0) scale(1,1) translate(-0.05237361908782202,-0.058512673275187194)"><path d="M 0.04208923419748293 0.049727706014815735 C 0.042218037043704325 0.04951553112645692 0.04390174453652686 0.04675308394194101 0.04363486835213967 0.047181607354510005 C 0.04390174453652686 0.04675308394194101 0.04542982174829495 0.0443690765397776 0.04529174841012916 0.044585425063987785" fill="none" stroke="#000000" stroke-width="0.001"/>
<path d="M 0.04529174841012916 0.044585425063987785 C 0.04592636112920369 0.04400011815779625 0.05403240383755315 0.03768859653722962 0.05290710103902354 0.03756174218968937 C 0.05403240383755315 0.03768859653722962 0.0592860720719396 0.04681983848820259 0.05879538199248452 0.046107677234470804" fill="none" stroke="#000000" stroke-width="0.001"/>
<path d="M 0.05879538199248452 0.046107677234470804 C 0.05899126635297334 0.046621044170138064 0.061441985808785515 0.053159340926704476 0.06114599431835038 0.05226808046247791 C 0.061441985808785515 0.053159340926704476 0.06244738700765241 0.05718069633374891 0.0623472798777061 0.0568028028051896" fill="none" stroke="#000000" stroke-width="0.001"/>
<path d="M 0.0623472798777061 0.0568028028051896 C 0.06192757732827368 0.05687443726674253 0.056268724825707835 0.057843081691643435 0.05731084928451703 0.05766241634382473 C 0.056268724825707835 0.057843081691643435 0.04857168927774951 0.05931965102033816 0.04984178637199574 0.05897078697901408 C 0.04857168927774951 0.05931965102033816 0.04103642462823548 0.06216250098767063 0.04206968415356231 0.06184878483971366 C 0.04103642462823548 0.06216250098767063 0.03705708772761639 0.0628092637473964 0.03744267206807377 0.06273538075449772" fill="none" stroke="none" stroke-width="0"/>
<path d="M 0.03744267206807377 0.06273538075449772 C 0.037588516784616395 0.06218974283439102 0.03958002217736932 0.055103752818243854 0.03919280866658523 0.056187725713217354 C 0.03958002217736932 0.055103752818243854 0.042330602991724406 0.049189371039948936 0.04208923419748293 0.049727706014815735" fill="none" stroke="#000000" stroke-width="0.001"/>
</g><g transform="translate(0.3116448524523139,0.08473695599100642) rotate(0) scale(1,1) translate(-0.05227190599157801,-0.05588765039951838)"><path d="M 0.04793966666209422 0.050438925441161866 C 0.048233590810248445 0.049974316109164044 0.052195088199420245 0.04386640263884898 0.05146675643994493 0.04486361345718802 C 0.052195088199420245 0.04386640263884898 0.057114055387119105 0.03793979413475212 0.056679647775798016 0.03847239562109334" fill="none" stroke="none" stroke-width="0"/>
<path d="M 0.056679647775798016 0.03847239562109334 C 0.05701393189204345 0.03928046769062764 0.06109149307904706 0.04965604071667032 0.06069105717074319 0.04816926045550487 C 0.06109149307904706 0.04965604071667032 0.06155103046750283 0.05699246694670988 0.061484878675444395 0.05631375875507873" fill="none" stroke="none" stroke-width="0"/>
<path d="M 0.061484878675444395 0.05631375875507873 C 0.06118183212904284 0.056373255887315635 0.057192239337140946 0.057184530777436716 0.057848320118625694 0.057027724341921604 C 0.057192239337140946 0.057184530777436716 0.05279715917933006 0.058476433801888605 0.053611909297627436 0.05819543598126011 C 0.05279715917933006 0.058476433801888605 0.0472113880977182 0.06072440525374831 0.04807131869905723 0.06039969818946352 C 0.0472113880977182 0.06072440525374831 0.042894527363434264 0.062232939299612086 0.04329274208155911 0.06209192075267758" fill="none" stroke="none" stroke-width="0"/>
<path d="M 0.04329274208155911 0.06209192075267758 C 0.04349085204196514 0.061564675118637245 0.04605730532147611 0.054793890201567205 0.045670061606431514 0.055764973144193514 C 0.04605730532147611 0.054793890201567205 0.04812880041673278 0.049995088132575895 0.04793966666209422 0.050438925441161866" fill="none" stroke="none" stroke-width="0"/>
</g><g transform="translate(0.31941920408707136,0.0859321642853148) rotate(0) scale(1,1) translate(-0.10686528644759212,-0.13479431090419783)"><path d="M 0.0893518973177191 0.13737585254761198 C 0.08993147606943283 0.13757192537929086 0.09320618946131601 0.13895644445480776 0.0928293698280015 0.1385522895376853 C 0.09320618946131601 0.13895644445480776 0.091410055999207 0.14000886413579025 0.09161281511760622 0.13980078205034668" fill="none" stroke="none" stroke-width="0"/>
<path d="M 0.09161281511760622 0.13980078205034668 C 0.092033804867106 0.13960357906307755 0.09757709397854217 0.137062315665841 0.09666469211160361 0.13743434620311692 C 0.09757709397854217 0.137062315665841 0.10371349808435573 0.13501997147415448 0.10256163752086891 0.13533641560303586 C 0.10371349808435573 0.13501997147415448 0.11114746731949354 0.1334954000776657 0.11048701887344549 0.13363701665654032" fill="none" stroke="none" stroke-width="0"/>
<path d="M 0.11048701887344549 0.13363701665654032 C 0.11035083301940041 0.13325535934412777 0.1085136100801616 0.12833415575182144 0.10885278862490447 0.12905712890758986 C 0.1085136100801616 0.12833415575182144 0.10569455560550207 0.12399544651403309 0.10641687633653109 0.12496133878731919 C 0.10569455560550207 0.12399544651403309 0.09966561181222508 0.11684184519822649 0.10018493985255632 0.1174664216281567" fill="none" stroke="none" stroke-width="0"/>
<path d="M 0.10018493985255632 0.1174664216281567 C 0.10127183056173118 0.11921176243518666 0.1062217493722387 0.12852493746486576 0.10670628410760548 0.12793846647033646 C 0.1062217493722387 0.12852493746486576 0.09570630599581402 0.1198263777828318 0.09727773144035566 0.12098524759533247" fill="none" stroke="none" stroke-width="0"/>
<path d="M 0.09727773144035566 0.12098524759533247 C 0.0986283339467742 0.12248770155588425 0.10497407163153738 0.1305656598286167 0.1053813464788669 0.12999997135864313 C 0.10497407163153738 0.1305656598286167 0.09307620500263042 0.12344261292459566 0.09483408235637848 0.12437937841517387" fill="none" stroke="none" stroke-width="0"/>
<path d="M 0.09483408235637848 0.12437937841517387 C 0.09634246406542168 0.12571107328555295 0.10357999503085094 0.1329172925675254 0.10388437261063767 0.1323695476374484 C 0.10357999503085094 0.1329172925675254 0.0911950575888282 0.12688189805533379 0.09300781687765813 0.12766584799563588" fill="none" stroke="none" stroke-width="0"/>
<path d="M 0.09300781687765813 0.12766584799563588 C 0.09441232580608135 0.1287840691199819 0.10119418253324772 0.13491891615694085 0.10143487044819739 0.13437517474171198 C 0.10119418253324772 0.13491891615694085 0.0899184925445872 0.130353816777892 0.09156368938796008 0.13092829648700915" fill="none" stroke="none" stroke-width="0"/>
<path d="M 0.09156368938796008 0.13092829648700915 C 0.09272389305985745 0.1317551567702894 0.09833877516262801 0.13644327927535976 0.09852491141934434 0.13588945818669065 C 0.09833877516262801 0.13644327927535976 0.08910053191904842 0.13397818382441276 0.09044687184766212 0.1342512230190239" fill="none" stroke="none" stroke-width="0"/>
<path d="M 0.09044687184766212 0.1342512230190239 C 0.0912614299336202 0.13473749034641758 0.09515172460842013 0.13768959857148397 0.09533422036341063 0.13716882698338595 C 0.09515172460842013 0.13768959857148397 0.08835484347677051 0.13741035680831631 0.0893518973177191 0.13737585254761198" fill="none" stroke="none" stroke-width="0"/>
</g></svg>
