<?xml version="1.0" encoding="UTF-8"?>
<svg xmlns="http://www.w3.org/2000/svg" viewBox="0 0 1 1">
<g transform="translate(0.3162111684713726,0.08586243713995967) rotate(0) scale(1,1) translate(-0.05237361908782202,-0.058512673275187194)"><path d="M 0.04116429061409068 0.04839848830319765 C 0.04129318637538645 0.048181548718542994 0.04296043503305448 0.0453853637228715 0.04271103974963989 0.045795213287341784 C 0.04296043503305448 0.0453853637228715 0.04427753353718456 0.04328738354973861 0.04415703401506574 0.04348029352955424" fill="none" stroke="#000000" stroke-width="0.001"/>
<path d="M 0.04415703401506574 0.04348029352955424 C 0.044677689030741256 0.04300277592742002 0.05142904278004002 0.038160881694943784 0.05040489420317193 0.037750082303943645 C 0.05142904278004002 0.038160881694943784 0.05695031049867536 0.04929820321469029 0.05644681693748279 0.04840988622155593" fill="none" stroke="#000000" stroke-width="0.001"/>
<path d="M 0.05644681693748279 0.04840988622155593 C 0.05669041912602273 0.04890315904899137 0.05986510122240253 0.05529237967422486 0.05937004319996211 0.05432916015078114 C 0.05986510122240253 0.05529237967422486 0.06263896904066835 0.06043846719888886 0.06238751320676787 0.059968520502880575" fill="none" stroke="#000000" stroke-width="0.001"/>
<path d="M 0.06238751320676787 0.059968520502880575 C 0.06196621609622173 0.05990695370397467 0.05628499996010243 0.0590795077042956 0.05733194788021412 0.05922971891600972 C 0.05628499996010243 0.0590795077042956 0.04850839913012174 0.05810529379548507 0.04982413816542762 0.05816598596231107 C 0.04850839913012174 0.05810529379548507 0.04046344763082891 0.05848047994795346 0.04154307945654358 0.05850141291409775 C 0.04046344763082891 0.05848047994795346 0.03647901265687727 0.057865905156453054 0.036868556256851606 0.05791479036857957" fill="none" stroke="none" stroke-width="0"/>
<path d="M 0.036868556256851606 0.05791479036857957 C 0.0370447829954355 0.057488088720575335 0.0393412549829616 0.052001345420413556 0.03898327711985834 0.052794370592528714 C 0.0393412549829616 0.052001345420413556 0.04134604173861004 0.04803216477908673 0.04116429061409068 0.04839848830319765" fill="none" stroke="#000000" stroke-width="0.001"/>
</g><g transform="translate(0.3122161366678591,0.08338097170770462) rotate(0) scale(1,1) translate(-0.05227190599157801,-0.05588765039951838)"><path d="M 0.046629242503909984 0.04961739126265296 C 0.0468523357983742 0.04924193095600556 0.04985015346703336 0.04430854760709782 0.04930636203748063 0.045111867582884185 C 0.04985015346703336 0.04430854760709782 0.0534754377936312 0.03954969188407765 0.0531547396585427 0.03997755155321661" fill="none" stroke="none" stroke-width="0"/>
<path d="M 0.0531547396585427 0.03997755155321661 C 0.053625831542526134 0.040966088794910906 0.05936766486636712 0.05341565804563239 0.058807842266343946 0.05183999845354813 C 0.05936766486636712 0.05341565804563239 0.05996134157486053 0.05947258900861779 0.05987261085882079 0.05888546665822782" fill="none" stroke="none" stroke-width="0"/>
<path d="M 0.05987261085882079 0.05888546665822782 C 0.059508339687891244 0.05884399819048317 0.054788208793505794 0.05834280444421577 0.0555013568076662 0.05838784504529212 C 0.054788208793505794 0.05834280444421577 0.05055552321869337 0.05836715475948327 0.05131483468889595 0.058344979445311675 C 0.05055552321869337 0.05836715475948327 0.04560454977381826 0.05870557881371684 0.04638961916523518 0.05865394881535131 C 0.04560454977381826 0.05870557881371684 0.04151936722744774 0.058990421976560216 0.04189400199189293 0.058964539425697994" fill="none" stroke="none" stroke-width="0"/>
<path d="M 0.04189400199189293 0.058964539425697994 C 0.04210247521257098 0.058569905643929235 0.04479028401603102 0.05345000503088578 0.0443956806400296 0.05422893404447287 C 0.04479028401603102 0.05345000503088578 0.04681537265923335 0.04923309603083463 0.046629242503909984 0.04961739126265296" fill="none" stroke="none" stroke-width="0"/>
</g><g transform="translate(0.3192406447753059,0.08692008911972332) rotate(0) scale(1,1) translate(-0.10686528644759212,-0.13479431090419783)"><path d="M 0.08940263449482051 0.13186280231452938 C 0.08989470494936866 0.13222417262953962 0.09258999139523871 0.13452763632953657 0.09235505722210943 0.1340310242045908 C 0.09258999139523871 0.13452763632953657 0.09055510325217735 0.1349777168741396 0.09081223953359621 0.13484247506420405" fill="none" stroke="none" stroke-width="0"/>
<path d="M 0.09081223953359621 0.13484247506420405 C 0.09127356365255912 0.13478501686518193 0.09733083846062754 0.1340811022917852 0.09634812896115107 0.13415297667593878 C 0.09733083846062754 0.1340811022917852 0.10361588112511236 0.13401358761720458 0.10260475352731391 0.133979982454361 C 0.10361588112511236 0.13401358761720458 0.10897140235201738 0.13460425997803682 0.1084816601347325 0.13455623863006175" fill="none" stroke="none" stroke-width="0"/>
<path d="M 0.1084816601347325 0.13455623863006175 C 0.10840952277480981 0.134237571015433 0.10735475211383493 0.13004418048895972 0.10761601181566027 0.13073222725451666 C 0.10735475211383493 0.13004418048895972 0.10467237884246114 0.1251925759885502 0.10534654371282827 0.1262996774433785 C 0.10467237884246114 0.1251925759885502 0.09904099084279017 0.11670928749267677 0.09952603337125464 0.1174470097965769" fill="none" stroke="none" stroke-width="0"/>
<path d="M 0.09952603337125464 0.1174470097965769 C 0.10057547049983452 0.11926230408474055 0.10555777502336029 0.12855270710767763 0.10582265614273396 0.12833877552555878 C 0.10555777502336029 0.12855270710767763 0.09662242840705901 0.1171292365832453 0.09793674665501258 0.11873059928929008" fill="none" stroke="none" stroke-width="0"/>
<path d="M 0.09793674665501258 0.11873059928929008 C 0.09914844998259213 0.12058154978560423 0.10490690794765971 0.13016018044471248 0.10520696662048994 0.12983630226717496 C 0.10490690794765971 0.13016018044471248 0.09462463261762138 0.11914679603573847 0.09613639461803118 0.12067386835451512" fill="none" stroke="none" stroke-width="0"/>
<path d="M 0.09613639461803118 0.12067386835451512 C 0.09746370337078197 0.12255742642047329 0.1038296176399455 0.13244587620202922 0.10410024713453593 0.1319752167502642 C 0.1038296176399455 0.13244587620202922 0.09291467940314739 0.12208492645091212 0.09451261765048861 0.12349782506510527" fill="none" stroke="none" stroke-width="0"/>
<path d="M 0.09451261765048861 0.12349782506510527 C 0.09568808228017991 0.12504162384569956 0.10128072096694887 0.13324083898470793 0.10156540542863646 0.13276061774867096 C 0.10128072096694887 0.13324083898470793 0.09134436178898427 0.1253155749367697 0.09280451088036315 0.12637915248132703" fill="none" stroke="none" stroke-width="0"/>
<path d="M 0.09280451088036315 0.12637915248132703 C 0.09374285986314623 0.12752123396201998 0.09817753569395082 0.13371930147945568 0.09843460477706167 0.13323164136548468 C 0.09817753569395082 0.13371930147945568 0.09006667831580413 0.12865069179843103 0.09126209638169806 0.12930511316515297" fill="none" stroke="none" stroke-width="0"/>
<path d="M 0.09126209638169806 0.12930511316515297 C 0.09190407038148457 0.13000661641104555 0.0948040300659375 0.13394041416540456 0.0951139403804171 0.1335141326405085 C 0.0948040300659375 0.13394041416540456 0.08845075018055441 0.13158758059353287 0.08940263449482051 0.13186280231452938" fill="none" stroke="none" stroke-width="0"/>
</g></svg>
