<?xml version="1.0" encoding="UTF-8"?>
<svg xmlns="http://www.w3.org/2000/svg" viewBox="0 0 1 1">
<g id="中">
<g transform="translate(0.33734345282867056,0.22296548292119492) rotate(0) scale(1,1) translate(-0.05000000000000001,-0.05000000000000001)"><path d="M 0.05000000000000001 0.0536616209898942 C 0.05170954973143102 0.054321121210994215 0.0729490966900203 0.06308141364309439 0.07051459677717214 0.06157562364309439 C 0.0729490966900203 0.06308141364309439 0.07993894913559496 0.07257739076879419 0.07921399895417783 0.0717311009898942" fill="none" stroke="none" stroke-width="0"/>
<path d="M 0.07921399895417783 0.0717311009898942 C 0.07677949904132968 0.0717311009898942 0.045131000174303715 0.0717311009898942 0.05000000000000002 0.0717311009898942 C 0.045131000174303715 0.0717311009898942 0.018351501132974055 0.0717311009898942 0.020786001045822206 0.0717311009898942" fill="none" stroke="#000000" stroke-width="0.001"/>
<path d="M 0.020786001045822206 0.0717311009898942 C 0.021510951227239346 0.07088481121099421 0.031919903135676025 0.06006983364309439 0.029485403222827875 0.06157562364309439 C 0.031919903135676025 0.06006983364309439 0.051709549731431 0.05300212076879419 0.04999999999999999 0.0536616209898942" fill="none" stroke="none" stroke-width="0"/>
</g><g transform="translate(0.3373434528286706,0.2416850039110891) rotate(0) scale(1,1) translate(-0.011628401968068896,-0.011628401968068892)"><path d="M -0.006068891766750711 0.013351037526700383 C -0.006668882117540412 0.013207484563481092 -0.013268775976227129 0.011341296041630311 -0.013268775976227129 0.011628401968068892 C -0.013268775976227129 0.011341296041630311 -0.00546890141596102 0.009762213446218112 -0.006068891766750721 0.009905766409437402" fill="none" stroke="none" stroke-width="0"/>
<path d="M -0.006068891766750721 0.009905766409437402 C -0.0044409888160808165 0.009977542891047048 0.016721749542627947 0.010910637151972437 0.013465943641288136 0.010767084188753146 C 0.016721749542627947 0.010910637151972437 0.0346286819999969 0.011700178449678538 0.033000779049326995 0.011628401968068892" fill="none" stroke="#000000" stroke-width="0.001"/>
<path d="M 0.033000779049326995 0.011628401968068892 C 0.03137287609865709 0.011700178449678538 0.010210137739948333 0.012633272710603927 0.013465943641288142 0.012489719747384637 C 0.010210137739948333 0.012633272710603927 -0.007696794717420616 0.013422814008310028 -0.006068891766750711 0.013351037526700383" fill="none" stroke="#000000" stroke-width="0.001"/>
</g><g transform="translate(0.33734345282867056,0.2382847569214543) rotate(0) scale(1,1) translate(-0.011628401968068896,-0.011628401968068892)"><path d="M 0.025078345206531846 0.009905766409437402 C 0.025816794869042252 0.010049319372656693 0.03393974115665672 0.011915507894507474 0.03393974115665672 0.011628401968068892 C 0.03393974115665672 0.011915507894507474 0.02433989554402144 0.013494590489919673 0.025078345206531846 0.013351037526700383" fill="none" stroke="none" stroke-width="0"/>
<path d="M 0.025078345206531846 0.013351037526700383 C 0.023841138964022717 0.013279261045090737 0.007757457811404045 0.012346166784165346 0.010231870296422302 0.012489719747384637 C 0.007757457811404045 0.012346166784165346 -0.005851810856196368 0.011556625486459247 -0.0046146046136872395 0.011628401968068892" fill="none" stroke="#000000" stroke-width="0.001"/>
<path d="M -0.0046146046136872395 0.011628401968068892 C -0.003377398371178111 0.011556625486459247 0.012706282781440559 0.010623531225533856 0.010231870296422302 0.010767084188753146 C 0.012706282781440559 0.010623531225533856 0.026315551449040974 0.009833989927827757 0.025078345206531846 0.009905766409437402" fill="none" stroke="#000000" stroke-width="0.001"/>
</g></g>
<g id="左">
<g transform="translate(0.3195721701726507,0.23299257653718153) rotate(0) scale(1,1) translate(-0.0495775971461754,-0.05000000000000001)"><path d="M 0.027865113691291212 0.06756839125990817 C 0.02752664082431828 0.06655919903188348 0.02443650979306681 0.053492121918619476 0.023803439287616017 0.055458084523611825 C 0.02443650979306681 0.053492121918619476 0.036433503129124425 0.043020069623032356 0.0354619597567007 0.04397684000000001" fill="none" stroke="#000000" stroke-width="0.001"/>
<path d="M 0.0354619597567007 0.04397684000000001 C 0.03663826287249026 0.04397684000000001 0.053034031779527875 0.04397684000000004 0.0495775971461754 0.04397684000000004 C 0.053034031779527875 0.04397684000000004 0.07921930687449331 0.04397684000000004 0.0769391753569304 0.04397684000000004" fill="none" stroke="#000000" stroke-width="0.001"/>
<path d="M 0.0769391753569304 0.04397684000000004 C 0.07541933502586703 0.04505977403608451 0.05461158624536667 0.058938011038006034 0.05870109138416993 0.05697204843301369 C 0.05461158624536667 0.058938011038006034 0.025295448883551345 0.06845141982881604 0.027865113691291236 0.06756839125990817" fill="none" stroke="#000000" stroke-width="0.001"/>
</g><g transform="translate(0.30029640350214615,0.25020767529662236) rotate(0) scale(1,1) translate(-0.06890552069993462,-0.06890552069993462)"><path d="M 0.06297146599837726 0.062083304595780146 C 0.06345384161198209 0.06251295240407423 0.0712463362941008 0.06711421160338649 0.0687599733616351 0.0672390782953092 C 0.0712463362941008 0.06711421160338649 0.09481180850682672 0.06003038979249076 0.09280782118796582 0.06058490429270756" fill="none" stroke="#000000" stroke-width="0.001"/>
<path d="M 0.09280782118796582 0.06058490429270756 C 0.09104151512844692 0.06130752676858022 0.06873953352455049 0.07119642934458506 0.07161214847373908 0.06925637400317945 C 0.06873953352455049 0.07119642934458506 0.05723013290803316 0.08508300125510783 0.058336441797702844 0.08386556838957487" fill="none" stroke="#000000" stroke-width="0.001"/>
<path d="M 0.058336441797702844 0.08386556838957487 C 0.05811029354364421 0.08285762369912705 0.05600891476572212 0.0699550434547182 0.05562266274899925 0.0717702321042011 C 0.05600891476572212 0.0699550434547182 0.06358386626915874 0.06127606063674507 0.06297146599837725 0.062083304595780146" fill="none" stroke="#000000" stroke-width="0.001"/>
</g><g transform="translate(0.2990392988372622,0.2463124887455338) rotate(0) scale(1,1) translate(-0.06890552069993462,-0.06890552069993462)"><path d="M 0.06364631787813359 0.0639252569329492 C 0.06425336106652056 0.06408533231501509 0.07404481903022549 0.06540424548343748 0.07093083613877732 0.06584616151773988 C 0.07404481903022549 0.06540424548343748 0.1035210522785727 0.058020273104952204 0.10101411257551152 0.05862226452132049" fill="none" stroke="#000000" stroke-width="0.001"/>
<path d="M 0.10101411257551152 0.05862226452132049 C 0.09899473355831544 0.059460541225356246 0.0740178612593701 0.06970209647790478 0.07678156436915859 0.06868158496974958 C 0.0740178612593701 0.06970209647790478 0.06710535116545714 0.07105063742330239 0.06784967525804957 0.07086840261918295" fill="none" stroke="none" stroke-width="0"/>
<path d="M 0.06784967525804957 0.07086840261918295 C 0.06720992286369781 0.07061126668203163 0.05982236674416887 0.06720417589951425 0.06017264652582853 0.06778277137336705 C 0.05982236674416887 0.06720417589951425 0.06393579049082566 0.06360379739624772 0.06364631787813357 0.0639252569329492" fill="none" stroke="#000000" stroke-width="0.001"/>
</g><g transform="translate(0.31070306118258545,0.2377072377994754) rotate(0) scale(1,1) translate(-0.016744898834019206,-0.016744898834019206)"><path d="M -0.0002431842351760797 0.017835251831111912 C 0.0006632424123454689 0.01768939393239113 0.012347906036921256 0.0157740271003403 0.010633935535082503 0.016084957046462546 C 0.012347906036921256 0.0157740271003403 0.021132005641206167 0.013939020430243532 0.020324461786888962 0.014104092477644995" fill="none" stroke="#000000" stroke-width="0.001"/>
<path d="M 0.020324461786888962 0.014104092477644995 C 0.020933798765392503 0.013952442650780768 0.02881137677158245 0.011973364609152031 0.027636505528931453 0.012284294555274274 C 0.02881137677158245 0.011973364609152031 0.03498845096284837 0.010213653004920062 0.034422916698700914 0.010372933124178078" fill="none" stroke="none" stroke-width="0"/>
<path d="M 0.034422916698700914 0.010372933124178078 C 0.034970929877105934 0.010190762127738694 0.0420073832780901 0.00781766276188165 0.04099907483956117 0.008186881166905453 C 0.0420073832780901 0.00781766276188165 0.046982913221172 0.0057552648553080244 0.04652261796104809 0.005942312263892442" fill="none" stroke="#000000" stroke-width="0.001"/>
<path d="M 0.04652261796104809 0.005942312263892442 C 0.04690235419377892 0.005893577897097699 0.0516797141545753 0.005356063303176233 0.05107945275381802 0.005357499862355526 C 0.0516797141545753 0.005356063303176233 0.05394627993816185 0.005972371361356367 0.0537257547701354 0.005925073553740918" fill="none" stroke="#000000" stroke-width="0.001"/>
<path d="M 0.0537257547701354 0.005925073553740918 C 0.05189446662487028 0.006665004766371743 0.027418332457701186 0.016133338977869113 0.031750297026954005 0.014804248105310825 C 0.027418332457701186 0.016133338977869113 -0.0007584964848861163 0.022463323684367813 0.0017421799391015853 0.02187416402444035" fill="none" stroke="#000000" stroke-width="0.001"/>
<path d="M 0.0017421799391015853 0.02187416402444035 C 0.0014658761184220845 0.021710251535187738 -0.0017389129235755641 0.019570638137298292 -0.001573465909052425 0.019907214153408997 C -0.0017389129235755641 0.019570638137298292 -0.00013232742901972237 0.01766258830425382 -0.00024318423517608409 0.017835251831111912" fill="none" stroke="#000000" stroke-width="0.001"/>
</g><g transform="translate(0.3135833003870443,0.23335468211518123) rotate(0) scale(1,1) translate(-0.017735275757644442,-0.016744898834019206)"><path d="M 1.2934856574270534E-05 0.01855555092211899 C 0.001162151754470278 0.018348706039356125 0.015402010449946593 0.01576959877390948 0.013803537631326362 0.016073412328964636 C 0.015402010449946593 0.01576959877390948 0.019643864600741263 0.01481281958916483 0.01919460868001704 0.014909788261457122" fill="none" stroke="#000000" stroke-width="0.001"/>
<path d="M 0.01919460868001704 0.014909788261457122 C 0.01964343071649033 0.01481552174457651 0.025447960789811697 0.013583707948738621 0.024580473117696507 0.013778590058889779 C 0.025447960789811697 0.013583707948738621 0.030023126381041224 0.012470587346372675 0.02960446074539932 0.012571202939643221" fill="none" stroke="none" stroke-width="0"/>
<path d="M 0.02960446074539932 0.012571202939643221 C 0.030013320018813527 0.012453996507675962 0.03520799367379262 0.010954170088512823 0.03451077202636977 0.011164725756036109 C 0.03520799367379262 0.010954170088512823 0.03825948288848216 0.009951185693807766 0.037971120514473516 0.010044534929363792" fill="none" stroke="#000000" stroke-width="0.001"/>
<path d="M 0.037971120514473516 0.010044534929363792 C 0.038185968676729284 0.01001964731787464 0.04091391026850767 0.009772141846090224 0.040549298461542704 0.009745883591493974 C 0.04091391026850767 0.009772141846090224 0.04249622584276229 0.010410779850604202 0.04234646219805309 0.0103596339845188" fill="none" stroke="#000000" stroke-width="0.001"/>
<path d="M 0.04234646219805309 0.0103596339845188 C 0.04043007046684805 0.01097988396977165 0.015657946155027136 0.018735018486494327 0.01934976142359267 0.017802633807553002 C 0.015657946155027136 0.018735018486494327 -0.0037307445620938474 0.021860384825503155 -0.001955321024733346 0.021548250131814682" fill="none" stroke="none" stroke-width="0"/>
<path d="M -0.001955321024733346 0.021548250131814682 C -0.0019422159691158372 0.021415918010826134 -0.0016340390338809418 0.019710873079144143 -0.0017980603573232428 0.019960264679952117 C -0.0016340390338809418 0.019710873079144143 0.00016385112439905867 0.018438491442299563 1.2934856574266251E-05 0.01855555092211899" fill="none" stroke="#000000" stroke-width="0.001"/>
</g><g transform="translate(0.3065663668932555,0.23003142376065613) rotate(0) scale(1,1) translate(-0.02120189008406099,-0.019715036973858124)"><path d="M 0.01711430748519731 0.019062184001808282 C 0.017590425548128914 0.019053045539173186 0.02453443976316177 0.018751759624079267 0.022827724240376532 0.018952522450187147 C 0.02453443976316177 0.018751759624079267 0.03882549121847381 0.01646140572504091 0.03759489375862018 0.0166530300885137" fill="none" stroke="none" stroke-width="0"/>
<path d="M 0.03759489375862018 0.0166530300885137 C 0.03795140168377953 0.016606835388535267 0.0424832160470302 0.016098693770478532 0.041872988860532354 0.016098693688772515 C 0.0424832160470302 0.016098693770478532 0.04517133925793284 0.016699225850670327 0.04491761999659434 0.01665303106898588" fill="none" stroke="#000000" stroke-width="0.001"/>
<path d="M 0.04491761999659434 0.01665303106898588 C 0.04382507638008809 0.01689314174166415 0.029116796715982614 0.020040638610727943 0.031807096598519324 0.019534359141125116 C 0.029116796715982614 0.020040638610727943 0.011036265140123363 0.022994553501144377 0.012634021406153821 0.02272838470421982" fill="none" stroke="#000000" stroke-width="0.001"/>
<path d="M 0.012634021406153821 0.02272838470421982 C 0.012715452040752065 0.022525155775733857 0.013984546194586365 0.01998412083718732 0.013611189021332742 0.02028963756238828 C 0.013984546194586365 0.01998412083718732 0.017406234023852683 0.018959896205093283 0.017114307485197305 0.019062184001808282" fill="none" stroke="#000000" stroke-width="0.001"/>
</g><g transform="translate(0.30580492144427857,0.22796984369023013) rotate(0) scale(1,1) translate(-0.06733824782050474,-0.06098934136132629)"><path d="M 0.06666911393738535 0.0602855902566185 C 0.06704434992764921 0.06030152297510968 0.07214706062627856 0.060480487034792973 0.07117194582055157 0.06047678287851268 C 0.07214706062627856 0.060480487034792973 0.07897037042157222 0.06031781156977117 0.0783704916061091 0.06033004013198205" fill="none" stroke="none" stroke-width="0"/>
<path d="M 0.0783704916061091 0.06033004013198205 C 0.07774076226080384 0.06040613816117049 0.06967328445018828 0.06137221762729346 0.07081373946244604 0.06124321648224334 C 0.06967328445018828 0.06137221762729346 0.06417430579206346 0.061930956988445175 0.06468503145901597 0.061878053872583494" fill="none" stroke="#000000" stroke-width="0.001"/>
<path d="M 0.06468503145901597 0.061878053872583494 C 0.06469880602592223 0.06179204879557709 0.06501566646842191 0.060713287647176296 0.06485032626189113 0.06084599294850671 C 0.06501566646842191 0.060713287647176296 0.06682067957700986 0.060238890032294476 0.06666911393738535 0.0602855902566185" fill="none" stroke="#000000" stroke-width="0.001"/>
</g></g>
<g id="右">
<g transform="translate(0.3551147354846905,0.23299257653718153) rotate(0) scale(1,1) translate(-0.0495775971461754,-0.05000000000000001)"><path d="M 0.07129008060105946 0.06756839125990817 C 0.06872041579331957 0.0666853626910003 0.03636459776937753 0.05500608582802135 0.04045410290818079 0.05697204843301369 C 0.03636459776937753 0.05500608582802135 0.02069617860435698 0.04289390596391557 0.02221601893542035 0.04397684000000004" fill="none" stroke="#000000" stroke-width="0.001"/>
<path d="M 0.02221601893542035 0.04397684000000004 C 0.024496150452983267 0.04397684000000004 0.05303403177952784 0.04397684000000004 0.04957759714617537 0.04397684000000004 C 0.05303403177952784 0.04397684000000004 0.06486953765143956 0.04397684000000001 0.06369323453565001 0.04397684000000001" fill="none" stroke="#000000" stroke-width="0.001"/>
<path d="M 0.06369323453565001 0.04397684000000001 C 0.06466477790807375 0.044933610376967664 0.07598482551018558 0.057424047128604175 0.07535175500473479 0.055458084523611825 C 0.07598482551018558 0.057424047128604175 0.07095160773408664 0.06857758348793286 0.07129008060105957 0.06756839125990817" fill="none" stroke="#000000" stroke-width="0.001"/>
</g><g transform="translate(0.3743905021551951,0.25020767529662236) rotate(0) scale(1,1) translate(-0.06890552069993462,-0.06890552069993462)"><path d="M 0.07483957540149196 0.062083304595780146 C 0.07545197567227346 0.06289054855481523 0.08257463066759281 0.07358542075368399 0.08218837865086996 0.0717702321042011 C 0.08257463066759281 0.07358542075368399 0.07924845134810755 0.0848735130800227 0.0794745996021662 0.08386556838957487" fill="none" stroke="#000000" stroke-width="0.001"/>
<path d="M 0.0794745996021662 0.08386556838957487 C 0.07836829071249653 0.08264813552404192 0.06332627797694153 0.06731631866177384 0.0661988929261301 0.06925637400317945 C 0.06332627797694153 0.06731631866177384 0.04323691415238454 0.0598622818168349 0.04500322021190343 0.06058490429270756" fill="none" stroke="#000000" stroke-width="0.001"/>
<path d="M 0.04500322021190343 0.06058490429270756 C 0.047007207530764324 0.061139418792924366 0.07153743097069988 0.06736394498723192 0.06905106803823417 0.0672390782953092 C 0.07153743097069988 0.06736394498723192 0.07532195101509677 0.06165365678748606 0.07483957540149196 0.062083304595780146" fill="none" stroke="#000000" stroke-width="0.001"/>
</g><g transform="translate(0.3756476068200791,0.2463124887455338) rotate(0) scale(1,1) translate(-0.06890552069993462,-0.06890552069993462)"><path d="M 0.07416472352173561 0.0639252569329492 C 0.0744541961344277 0.06424671646965069 0.07728811509238104 0.06836136684721986 0.0776383948740407 0.06778277137336705 C 0.07728811509238104 0.06836136684721986 0.06932161374746797 0.07112553855633427 0.06996136614181972 0.07086840261918295" fill="none" stroke="#000000" stroke-width="0.001"/>
<path d="M 0.06996136614181972 0.07086840261918295 C 0.0692170420492273 0.07068616781506351 0.058265773920922144 0.06766107346159438 0.06102947703071065 0.06868158496974958 C 0.058265773920922144 0.06766107346159438 0.034777549807161585 0.05778398781728473 0.036796928824357665 0.05862226452132049" fill="none" stroke="none" stroke-width="0"/>
<path d="M 0.036796928824357665 0.05862226452132049 C 0.03930386852741885 0.05922425593768877 0.06999418815254004 0.06628807755204227 0.06688020526109187 0.06584616151773988 C 0.06999418815254004 0.06628807755204227 0.07477176671012259 0.06376518155088332 0.07416472352173561 0.0639252569329492" fill="none" stroke="#000000" stroke-width="0.001"/>
</g><g transform="translate(0.36398384447475574,0.2377072377994754) rotate(0) scale(1,1) translate(-0.016744898834019206,-0.016744898834019206)"><path d="M 0.03373298190321454 0.017835251831111912 C 0.033843838709370896 0.018007915357970004 0.03489781656256766 0.0202437901695197 0.0350632635770908 0.019907214153408997 C 0.03489781656256766 0.0202437901695197 0.03147131390825734 0.022038076513692963 0.03174761772893683 0.02187416402444035" fill="none" stroke="#000000" stroke-width="0.001"/>
<path d="M 0.03174761772893683 0.02187416402444035 C 0.029246941304949127 0.02128500436451289 -0.0025924639281684862 0.01347515723275254 0.001739500641084338 0.014804248105310825 C -0.0025924639281684862 0.01347515723275254 -0.022067245247362175 0.005185142341110093 -0.02023595710209706 0.005925073553740918" fill="none" stroke="#000000" stroke-width="0.001"/>
<path d="M -0.02023595710209706 0.005925073553740918 C -0.020015431934070606 0.005877775746125469 -0.016989393685022332 0.00535893642153482 -0.01758965508577961 0.005357499862355526 C -0.016989393685022332 0.00535893642153482 -0.012653084060278935 0.005991046630687185 -0.013032820293009756 0.005942312263892442" fill="none" stroke="#000000" stroke-width="0.001"/>
<path d="M -0.013032820293009756 0.005942312263892442 C -0.012572525032885843 0.006129359672476859 -0.006500968732993858 0.008556099571929257 -0.007509277171522796 0.008186881166905453 C -0.006500968732993858 0.008556099571929257 -0.00038510585225747266 0.010555104120617463 -0.0009331190306624975 0.010372933124178078" fill="none" stroke="#000000" stroke-width="0.001"/>
<path d="M -0.0009331190306624975 0.010372933124178078 C -0.00036758476651504524 0.010532213243436095 0.007028163381757923 0.012595224501396517 0.00585329213910693 0.012284294555274274 C 0.007028163381757923 0.012595224501396517 0.013774672859652944 0.014255742304509222 0.013165335881149405 0.014104092477644995" fill="none" stroke="none" stroke-width="0"/>
<path d="M 0.013165335881149405 0.014104092477644995 C 0.01397287973546661 0.014269164525046459 0.024569832634794612 0.01639588699258479 0.022855862132955852 0.016084957046462546 C 0.024569832634794612 0.01639588699258479 0.0346394085507361 0.017981109729832693 0.03373298190321454 0.017835251831111912" fill="none" stroke="#000000" stroke-width="0.001"/>
</g><g transform="translate(0.3611036052702969,0.23335468211518123) rotate(0) scale(1,1) translate(-0.017735275757644442,-0.016744898834019206)"><path d="M 0.035457616658714566 0.01855555092211899 C 0.03560853292653937 0.018672610401938416 0.03743263319605453 0.02020965628076009 0.037268611872612226 0.019960264679952117 C 0.03743263319605453 0.02020965628076009 0.03743897759563966 0.02168058225280323 0.037425872540022165 0.021548250131814682" fill="none" stroke="#000000" stroke-width="0.001"/>
<path d="M 0.037425872540022165 0.021548250131814682 C 0.03565044900266167 0.02123611543812621 0.012428974823130738 0.016870249128611677 0.016120790091696265 0.017802633807553002 C 0.012428974823130738 0.016870249128611677 -0.00879230241396919 0.00973938399926595 -0.006875910682764155 0.0103596339845188" fill="none" stroke="none" stroke-width="0"/>
<path d="M -0.006875910682764155 0.0103596339845188 C -0.006726147038054965 0.010308488118433398 -0.004714135139288913 0.009719625336897724 -0.005078746946253871 0.009745883591493974 C -0.004714135139288913 0.009719625336897724 -0.002285720836928893 0.010069422540852944 -0.0025005689991846607 0.010044534929363792" fill="none" stroke="#000000" stroke-width="0.001"/>
<path d="M -0.0025005689991846607 0.010044534929363792 C -0.0022122066251760103 0.010137884164919817 0.001657001136341998 0.011375281423559395 0.0009597794889191457 0.011164725756036109 C 0.001657001136341998 0.011375281423559395 0.006274950043303768 0.01268840937161048 0.005866090769889566 0.012571202939643221" fill="none" stroke="#000000" stroke-width="0.001"/>
<path d="M 0.005866090769889566 0.012571202939643221 C 0.006284756405531467 0.012671818532913767 0.011757566069707567 0.013973472169040936 0.010890078397592375 0.013778590058889779 C 0.011757566069707567 0.013973472169040936 0.016724764871745165 0.015004054778337734 0.016275942835271874 0.014909788261457122" fill="none" stroke="none" stroke-width="0"/>
<path d="M 0.016275942835271874 0.014909788261457122 C 0.016725198755996096 0.015006756933749414 0.023265486702582775 0.01637722588401979 0.02166701388396255 0.016073412328964636 C 0.023265486702582775 0.01637722588401979 0.03660683355661057 0.018762395804881853 0.035457616658714566 0.01855555092211899" fill="none" stroke="#000000" stroke-width="0.001"/>
</g><g transform="translate(0.36812053876408574,0.23003142376065613) rotate(0) scale(1,1) translate(-0.02120189008406099,-0.019715036973858124)"><path d="M 0.025289472682924804 0.019062184001808282 C 0.025581399221580182 0.01916447179852328 0.02916594832004299 0.02059515428758924 0.028792591146789368 0.02028963756238828 C 0.02916594832004299 0.02059515428758924 0.029851189396566495 0.02293161363270578 0.029769758761968256 0.02272838470421982" fill="none" stroke="#000000" stroke-width="0.001"/>
<path d="M 0.029769758761968256 0.02272838470421982 C 0.028172002495937803 0.02246221590729526 0.00790638368706609 0.01902807967152229 0.010596683569602798 0.019534359141125116 C 0.00790638368706609 0.01902807967152229 -0.0036063834449785066 0.016412920396307613 -0.0025138398284722525 0.01665303106898588" fill="none" stroke="#000000" stroke-width="0.001"/>
<path d="M -0.0025138398284722525 0.01665303106898588 C -0.0022601205671337514 0.016606836287301436 0.0011410184940876104 0.0160986936070665 0.0005307913075897595 0.016098693688772515 C 0.0011410184940876104 0.0160986936070665 0.005165394334661307 0.01669922478849213 0.004808886409501957 0.0166530300885137" fill="none" stroke="#000000" stroke-width="0.001"/>
<path d="M 0.004808886409501957 0.0166530300885137 C 0.0060394838693555945 0.016844654451986487 0.02128277145053084 0.019153285276295028 0.019576055927745604 0.018952522450187147 C 0.02128277145053084 0.019153285276295028 0.025765590745856402 0.019071322464443378 0.025289472682924804 0.019062184001808282" fill="none" stroke="none" stroke-width="0"/>
</g><g transform="translate(0.3688819842130627,0.22796984369023013) rotate(0) scale(1,1) translate(-0.06733824782050474,-0.06098934136132629)"><path d="M 0.06800738170362396 0.0602855902566185 C 0.06815894734324848 0.06033229048094252 0.06999150958564904 0.06097869824983713 0.06982616937911826 0.06084599294850671 C 0.06999150958564904 0.06097869824983713 0.07000523874889963 0.061964058949589895 0.06999146418199337 0.061878053872583494" fill="none" stroke="#000000" stroke-width="0.001"/>
<path d="M 0.06999146418199337 0.061878053872583494 C 0.06948073851504086 0.06182515075672181 0.06272230116630553 0.06111421533719322 0.0638627561785633 0.06124321648224334 C 0.06272230116630553 0.06111421533719322 0.05567627468959498 0.06025394210279361 0.056306004034900235 0.06033004013198205" fill="none" stroke="#000000" stroke-width="0.001"/>
<path d="M 0.056306004034900235 0.06033004013198205 C 0.05690588285036336 0.06034226869419294 0.0644796646261847 0.060473078722232385 0.06350454982045772 0.06047678287851268 C 0.0644796646261847 0.060473078722232385 0.06838261769388781 0.06026965753812732 0.06800738170362396 0.0602855902566185" fill="none" stroke="none" stroke-width="0"/>
</g></g>
</svg>
