<?xml version="1.0" encoding="UTF-8"?>
<svg xmlns="http://www.w3.org/2000/svg" viewBox="0 0 1 1">
<g transform="translate(0.3373403974394918,0.40419038501528964) rotate(0) scale(1,1) translate(-0.01998441619478862,-0.00887311800743398)"><path d="M 0.03260203985805782 0.05118773086071862 C 0.03260203985805782 0.06422594197943013 0.015778541640365552 0.09030236421685314 0.01998441619478862 0.09030236421685314 C 0.015778541640365552 0.09030236421685314 0.0073667925315194175 0.03814951974200713 0.007366792531519419 0.051187730860718636 C 0.0073667925315194175 0.03814951974200713 0.024190290749211675 0.012073097504584103 0.01998441619478861 0.012073097504584105 C 0.024190290749211675 0.012073097504584103 0.03260203985805782 0.06422594197943013 0.03260203985805782 0.05118773086071862 Z" fill="#cccccc" stroke="none" stroke-width="0"/>
</g><g transform="translate(0.33753894791380884,0.41422739269309206) rotate(0) scale(1,1) translate(-0.08849994995935555,-0.083180731644454)"><path d="M 0.08931315374559647 0.08162586023549849 C 0.08942763911216374 0.08187088427100951 0.08964999378283059 0.08257459798611289 0.08964999378283059 0.0824390640217394 C 0.08964999378283059 0.08257459798611289 0.08921731676030688 0.08334810479326991 0.08931315374559647 0.08325226780798033 C 0.08921731676030688 0.08334810479326991 0.08836441599498206 0.08358910784521446 0.08849994995935555 0.08358910784521446 C 0.08836441599498206 0.08358910784521446 0.08759090918782503 0.08315643082269074 0.08768674617311462 0.08325226780798033 C 0.08759090918782503 0.08315643082269074 0.08734990613588048 0.0823035300573659 0.08734990613588048 0.0824390640217394 C 0.08734990613588048 0.0823035300573659 0.08776393477712652 0.08138083619998747 0.08768674617311462 0.08162586023549849 C 0.08776393477712652 0.08138083619998747 0.08841170334839686 0.07949877559560709 0.08827616938402337 0.07949877559560709 C 0.08841170334839686 0.07949877559560709 0.08942763911216374 0.08187088427100951 0.08931315374559647 0.08162586023549849 Z" fill="#cccccc" stroke="#000000" stroke-width="0.001"/>
</g><g transform="translate(0.33973085486413196,0.42367583449303037) rotate(0) scale(1,1) translate(-0.08849994995935555,-0.083180731644454)"><path d="M 0.08931315374559647 0.08162586023549849 C 0.08945960776578261 0.08181227507270823 0.08964999378283059 0.08257459798611289 0.08964999378283059 0.0824390640217394 C 0.08964999378283059 0.08257459798611289 0.08921731676030688 0.08334810479326991 0.08931315374559647 0.08325226780798033 C 0.08921731676030688 0.08334810479326991 0.08836441599498206 0.08358910784521446 0.08849994995935555 0.08358910784521446 C 0.08836441599498206 0.08358910784521446 0.08759090918782503 0.08315643082269074 0.08768674617311462 0.08325226780798033 C 0.08759090918782503 0.08315643082269074 0.08734990613588048 0.0823035300573659 0.08734990613588048 0.0824390640217394 C 0.08734990613588048 0.0823035300573659 0.08773196612350764 0.08143944539828875 0.08768674617311462 0.08162586023549849 C 0.08773196612350764 0.08143944539828875 0.08802807950497026 0.08020208597522245 0.08789254554059676 0.08020208597522245 C 0.08802807950497026 0.08020208597522245 0.08945960776578261 0.08181227507270823 0.08931315374559647 0.08162586023549849 Z" fill="#cccccc" stroke="#000000" stroke-width="0.001"/>
</g><g transform="translate(0.33382080066095615,0.42057591131444555) rotate(0) scale(1,1) translate(-0.08849994995935555,-0.083180731644454)"><path d="M 0.08931315374559647 0.08162586023549849 C 0.08937702207726717 0.08182559534504943 0.08964999378283059 0.08257459798611289 0.08964999378283059 0.0824390640217394 C 0.08964999378283059 0.08257459798611289 0.08921731676030688 0.08334810479326991 0.08931315374559647 0.08325226780798033 C 0.08921731676030688 0.08334810479326991 0.08836441599498206 0.08358910784521446 0.08849994995935555 0.08358910784521446 C 0.08836441599498206 0.08358910784521446 0.08759090918782503 0.08315643082269074 0.08768674617311462 0.08325226780798033 C 0.08759090918782503 0.08315643082269074 0.08734990613588048 0.0823035300573659 0.08734990613588048 0.0824390640217394 C 0.08734990613588048 0.0823035300573659 0.08781455181202309 0.08142612512594755 0.08768674617311462 0.08162586023549849 C 0.08781455181202309 0.08142612512594755 0.08901910776715562 0.08004224270712802 0.08888357380278213 0.08004224270712802 C 0.08901910776715562 0.08004224270712802 0.08937702207726717 0.08182559534504943 0.08931315374559647 0.08162586023549849 Z" fill="#cccccc" stroke="#000000" stroke-width="0.001"/>
</g><g transform="translate(0.3447608143414351,0.42843854312338675) rotate(0) scale(1,1) translate(-0.08849994995935555,-0.083180731644454)"><path d="M 0.08931315374559647 0.08162586023549849 C 0.0894649358747191 0.08182026723611295 0.08964999378283059 0.08257459798611289 0.08964999378283059 0.0824390640217394 C 0.08964999378283059 0.08257459798611289 0.08921731676030688 0.08334810479326991 0.08931315374559647 0.08325226780798033 C 0.08921731676030688 0.08334810479326991 0.08836441599498206 0.08358910784521446 0.08849994995935555 0.08358910784521446 C 0.08836441599498206 0.08358910784521446 0.08759090918782503 0.08315643082269074 0.08768674617311462 0.08325226780798033 C 0.08759090918782503 0.08315643082269074 0.08734990613588048 0.0823035300573659 0.08734990613588048 0.0824390640217394 C 0.08734990613588048 0.0823035300573659 0.08772663801457117 0.08143145323488403 0.08768674617311462 0.08162586023549849 C 0.08772663801457117 0.08143145323488403 0.08796414219773258 0.08010618001436583 0.08782860823335908 0.08010618001436583 C 0.08796414219773258 0.08010618001436583 0.0894649358747191 0.08182026723611295 0.08931315374559647 0.08162586023549849 Z" fill="#cccccc" stroke="#000000" stroke-width="0.001"/>
</g><g transform="translate(0.3303757880432007,0.4274200584288914) rotate(0) scale(1,1) translate(-0.08849994995935555,-0.083180731644454)"><path d="M 0.08931315374559647 0.08162586023549849 C 0.08936636585939421 0.08180428290930351 0.08964999378283059 0.08257459798611289 0.08964999378283059 0.0824390640217394 C 0.08964999378283059 0.08257459798611289 0.08921731676030688 0.08334810479326991 0.08931315374559647 0.08325226780798033 C 0.08921731676030688 0.08334810479326991 0.08836441599498206 0.08358910784521446 0.08849994995935555 0.08358910784521446 C 0.08836441599498206 0.08358910784521446 0.08759090918782503 0.08315643082269074 0.08768674617311462 0.08325226780798033 C 0.08759090918782503 0.08315643082269074 0.08734990613588048 0.0823035300573659 0.08734990613588048 0.0824390640217394 C 0.08734990613588048 0.0823035300573659 0.08782520802989605 0.08144743756169347 0.08768674617311462 0.08162586023549849 C 0.08782520802989605 0.08144743756169347 0.08914698238163112 0.08029799193607907 0.08901144841725762 0.08029799193607907 C 0.08914698238163112 0.08029799193607907 0.08936636585939421 0.08180428290930351 0.08931315374559647 0.08162586023549849 Z" fill="#cccccc" stroke="#000000" stroke-width="0.001"/>
</g><g transform="translate(0.3414446853742887,0.4342181439216722) rotate(0) scale(1,1) translate(-0.08849994995935555,-0.083180731644454)"><path d="M 0.08931315374559647 0.08162586023549849 C 0.08946759992918733 0.08183891561739064 0.08964999378283059 0.08257459798611289 0.08964999378283059 0.0824390640217394 C 0.08964999378283059 0.08257459798611289 0.08921731676030688 0.08334810479326991 0.08931315374559647 0.08325226780798033 C 0.08921731676030688 0.08334810479326991 0.08836441599498206 0.08358910784521446 0.08849994995935555 0.08358910784521446 C 0.08836441599498206 0.08358910784521446 0.08759090918782503 0.08315643082269074 0.08768674617311462 0.08325226780798033 C 0.08759090918782503 0.08315643082269074 0.08734990613588048 0.0823035300573659 0.08734990613588048 0.0824390640217394 C 0.08734990613588048 0.0823035300573659 0.08772397396010292 0.08141280485360634 0.08768674617311462 0.08162586023549849 C 0.08772397396010292 0.08141280485360634 0.08793217354411369 0.07988239943903369 0.0877966395797402 0.07988239943903369 C 0.08793217354411369 0.07988239943903369 0.08946759992918733 0.08183891561739064 0.08931315374559647 0.08162586023549849 Z" fill="#cccccc" stroke="#000000" stroke-width="0.001"/>
</g><g transform="translate(0.3343022788771349,0.43361825960314837) rotate(0) scale(1,1) translate(-0.08849994995935555,-0.083180731644454)"><path d="M 0.08931315374559647 0.08162586023549849 C 0.08941165478535429 0.08180961101824 0.08964999378283059 0.08257459798611289 0.08964999378283059 0.0824390640217394 C 0.08964999378283059 0.08257459798611289 0.08921731676030688 0.08334810479326991 0.08931315374559647 0.08325226780798033 C 0.08921731676030688 0.08334810479326991 0.08836441599498206 0.08358910784521446 0.08849994995935555 0.08358910784521446 C 0.08836441599498206 0.08358910784521446 0.08759090918782503 0.08315643082269074 0.08768674617311462 0.08325226780798033 C 0.08759090918782503 0.08315643082269074 0.08734990613588048 0.0823035300573659 0.08734990613588048 0.0824390640217394 C 0.08734990613588048 0.0823035300573659 0.08777991910393597 0.08144210945275698 0.08768674617311462 0.08162586023549849 C 0.08777991910393597 0.08144210945275698 0.08860351527011015 0.08023405462884133 0.08846798130573666 0.08023405462884133 C 0.08860351527011015 0.08023405462884133 0.08941165478535429 0.08180961101824 0.08931315374559647 0.08162586023549849 Z" fill="#cccccc" stroke="#000000" stroke-width="0.001"/>
</g><g transform="translate(0.3274948583036122,0.4346069390154376) rotate(0) scale(1,1) translate(-0.08849994995935555,-0.083180731644454)"><path d="M 0.08931315374559647 0.08162586023549849 C 0.08937968613173541 0.08180161885483528 0.08964999378283059 0.08257459798611289 0.08964999378283059 0.0824390640217394 C 0.08964999378283059 0.08257459798611289 0.08921731676030688 0.08334810479326991 0.08931315374559647 0.08325226780798033 C 0.08921731676030688 0.08334810479326991 0.08836441599498206 0.08358910784521446 0.08849994995935555 0.08358910784521446 C 0.08836441599498206 0.08358910784521446 0.08759090918782503 0.08315643082269074 0.08768674617311462 0.08325226780798033 C 0.08759090918782503 0.08315643082269074 0.08734990613588048 0.0823035300573659 0.08734990613588048 0.0824390640217394 C 0.08734990613588048 0.0823035300573659 0.08781188775755484 0.0814501016161617 0.08768674617311462 0.08162586023549849 C 0.08781188775755484 0.0814501016161617 0.08898713911353671 0.08032996058969796 0.08885160514916322 0.08032996058969796 C 0.08898713911353671 0.08032996058969796 0.08937968613173541 0.08180161885483528 0.08931315374559647 0.08162586023549849 Z" fill="#cccccc" stroke="#000000" stroke-width="0.001"/>
</g><g transform="translate(0.3457443109571599,0.4392938002737553) rotate(0) scale(1,1) translate(-0.08849994995935555,-0.083180731644454)"><path d="M 0.08931315374559647 0.08162586023549849 C 0.0894382953300367 0.0817962907458988 0.08964999378283059 0.08257459798611289 0.08964999378283059 0.0824390640217394 C 0.08964999378283059 0.08257459798611289 0.08921731676030688 0.08334810479326991 0.08931315374559647 0.08325226780798033 C 0.08921731676030688 0.08334810479326991 0.08836441599498206 0.08358910784521446 0.08849994995935555 0.08358910784521446 C 0.08836441599498206 0.08358910784521446 0.08759090918782503 0.08315643082269074 0.08768674617311462 0.08325226780798033 C 0.08759090918782503 0.08315643082269074 0.08734990613588048 0.0823035300573659 0.08734990613588048 0.0824390640217394 C 0.08734990613588048 0.0823035300573659 0.08775327855925356 0.08145542972509819 0.08768674617311462 0.08162586023549849 C 0.08775327855925356 0.08145542972509819 0.08828382873392132 0.08039389789693571 0.08814829476954783 0.08039389789693571 C 0.08828382873392132 0.08039389789693571 0.0894382953300367 0.0817962907458988 0.08931315374559647 0.08162586023549849 Z" fill="#cccccc" stroke="#000000" stroke-width="0.001"/>
</g><g transform="translate(0.33251344547137346,0.4439342936561597) rotate(0) scale(1,1) translate(-0.08849994995935555,-0.083180731644454)"><path d="M 0.08931315374559647 0.08162586023549849 C 0.08939567045854485 0.0818229312905812 0.08964999378283059 0.08257459798611289 0.08964999378283059 0.0824390640217394 C 0.08964999378283059 0.08257459798611289 0.08921731676030688 0.08334810479326991 0.08931315374559647 0.08325226780798033 C 0.08921731676030688 0.08334810479326991 0.08836441599498206 0.08358910784521446 0.08849994995935555 0.08358910784521446 C 0.08836441599498206 0.08358910784521446 0.08759090918782503 0.08315643082269074 0.08768674617311462 0.08325226780798033 C 0.08759090918782503 0.08315643082269074 0.08734990613588048 0.0823035300573659 0.08734990613588048 0.0824390640217394 C 0.08734990613588048 0.0823035300573659 0.0877959034307454 0.08142878918041578 0.08768674617311462 0.08162586023549849 C 0.0877959034307454 0.08142878918041578 0.08879532719182344 0.08007421136074695 0.08865979322744995 0.08007421136074695 C 0.08879532719182344 0.08007421136074695 0.08939567045854485 0.0818229312905812 0.08931315374559647 0.08162586023549849 Z" fill="#cccccc" stroke="#000000" stroke-width="0.001"/>
</g><g transform="translate(0.3251601963329142,0.4423697623902328) rotate(0) scale(1,1) translate(-0.08849994995935555,-0.083180731644454)"><path d="M 0.08931315374559647 0.08162586023549849 C 0.08935570964152126 0.08183891561739064 0.08964999378283059 0.08257459798611289 0.08964999378283059 0.0824390640217394 C 0.08964999378283059 0.08257459798611289 0.08921731676030688 0.08334810479326991 0.08931315374559647 0.08325226780798033 C 0.08921731676030688 0.08334810479326991 0.08836441599498206 0.08358910784521446 0.08849994995935555 0.08358910784521446 C 0.08836441599498206 0.08358910784521446 0.08759090918782503 0.08315643082269074 0.08768674617311462 0.08325226780798033 C 0.08759090918782503 0.08315643082269074 0.08734990613588048 0.0823035300573659 0.08734990613588048 0.0824390640217394 C 0.08734990613588048 0.0823035300573659 0.087835864247769 0.08141280485360634 0.08768674617311462 0.08162586023549849 C 0.087835864247769 0.08141280485360634 0.08927485699610663 0.07988239943903365 0.08913932303173314 0.07988239943903365 C 0.08927485699610663 0.07988239943903365 0.08935570964152126 0.08183891561739064 0.08931315374559647 0.08162586023549849 Z" fill="#cccccc" stroke="#000000" stroke-width="0.001"/>
</g><g transform="translate(0.33891461789055005,0.4481760755184522) rotate(0) scale(1,1) translate(-0.08849994995935555,-0.083180731644454)"><path d="M 0.08931315374559647 0.08162586023549849 C 0.08940632667641782 0.0818229312905812 0.08964999378283059 0.08257459798611289 0.08964999378283059 0.0824390640217394 C 0.08964999378283059 0.08257459798611289 0.08921731676030688 0.08334810479326991 0.08931315374559647 0.08325226780798033 C 0.08921731676030688 0.08334810479326991 0.08836441599498206 0.08358910784521446 0.08849994995935555 0.08358910784521446 C 0.08836441599498206 0.08358910784521446 0.08759090918782503 0.08315643082269074 0.08768674617311462 0.08325226780798033 C 0.08759090918782503 0.08315643082269074 0.08734990613588048 0.0823035300573659 0.08734990613588048 0.0824390640217394 C 0.08734990613588048 0.0823035300573659 0.08778524721287244 0.08142878918041578 0.08768674617311462 0.08162586023549849 C 0.08778524721287244 0.08142878918041578 0.0886674525773479 0.08007421136074691 0.08853191861297441 0.08007421136074691 C 0.0886674525773479 0.08007421136074691 0.08940632667641782 0.0818229312905812 0.08931315374559647 0.08162586023549849 Z" fill="#cccccc" stroke="#000000" stroke-width="0.001"/>
</g><g transform="translate(0.3443488634363962,0.45148519865071457) rotate(0) scale(1,1) translate(-0.08849994995935555,-0.083180731644454)"><path d="M 0.08931315374559647 0.08162586023549849 C 0.08943030316663197 0.08182825939951768 0.08964999378283059 0.08257459798611289 0.08964999378283059 0.0824390640217394 C 0.08964999378283059 0.08257459798611289 0.08921731676030688 0.08334810479326991 0.08931315374559647 0.08325226780798033 C 0.08921731676030688 0.08334810479326991 0.08836441599498206 0.08358910784521446 0.08849994995935555 0.08358910784521446 C 0.08836441599498206 0.08358910784521446 0.08759090918782503 0.08315643082269074 0.08768674617311462 0.08325226780798033 C 0.08759090918782503 0.08315643082269074 0.08734990613588048 0.0823035300573659 0.08734990613588048 0.0824390640217394 C 0.08734990613588048 0.0823035300573659 0.08776127072265828 0.0814234610714793 0.08768674617311462 0.08162586023549849 C 0.08776127072265828 0.0814234610714793 0.08837973469477796 0.08001027405350916 0.08824420073040447 0.08001027405350916 C 0.08837973469477796 0.08001027405350916 0.08943030316663197 0.08182825939951768 0.08931315374559647 0.08162586023549849 Z" fill="#cccccc" stroke="#000000" stroke-width="0.001"/>
</g><g transform="translate(0.3506646789907623,0.4445041942146787) rotate(0) scale(1,1) translate(-0.08849994995935555,-0.083180731644454)"><path d="M 0.08931315374559647 0.08162586023549849 C 0.0894612797374671 0.08185861158258681 0.08964999378283059 0.08257459798611289 0.08964999378283059 0.0824390640217394 C 0.08964999378283059 0.08257459798611289 0.08921731676030688 0.08334810479326991 0.08931315374559647 0.08325226780798033 C 0.08921731676030688 0.08334810479326991 0.08836441599498206 0.08358910784521446 0.08849994995935555 0.08358910784521446 C 0.08836441599498206 0.08358910784521446 0.08759090918782503 0.08315643082269074 0.08768674617311462 0.08325226780798033 C 0.08759090918782503 0.08315643082269074 0.08734990613588048 0.0823035300573659 0.08734990613588048 0.0824390640217394 C 0.08734990613588048 0.0823035300573659 0.08773029415182315 0.08139310888841017 0.08768674617311462 0.08162586023549849 C 0.08773029415182315 0.08139310888841017 0.08800801584475638 0.07964604785667956 0.0878724818803829 0.07964604785667956 C 0.08800801584475638 0.07964604785667956 0.0894612797374671 0.08185861158258681 0.08931315374559647 0.08162586023549849 Z" fill="#cccccc" stroke="#000000" stroke-width="0.001"/>
</g><g transform="translate(0.32072767183048495,0.45429474193585334) rotate(0) scale(1,1) translate(-0.08849994995935555,-0.083180731644454)"><path d="M 0.08931315374559647 0.08162586023549849 C 0.0893423338680453 0.08190865973085214 0.08964999378283059 0.08257459798611289 0.08964999378283059 0.0824390640217394 C 0.08964999378283059 0.08257459798611289 0.08921731676030688 0.08334810479326991 0.08931315374559647 0.08325226780798033 C 0.08921731676030688 0.08334810479326991 0.08836441599498206 0.08358910784521446 0.08849994995935555 0.08358910784521446 C 0.08836441599498206 0.08358910784521446 0.08759090918782503 0.08315643082269074 0.08768674617311462 0.08325226780798033 C 0.08759090918782503 0.08315643082269074 0.08734990613588048 0.0823035300573659 0.08734990613588048 0.0824390640217394 C 0.08734990613588048 0.0823035300573659 0.08784924002124496 0.08134306074014484 0.08768674617311462 0.08162586023549849 C 0.08784924002124496 0.08134306074014484 0.08943536627781809 0.0790454700774957 0.0892998323134446 0.0790454700774957 C 0.08943536627781809 0.0790454700774957 0.0893423338680453 0.08190865973085214 0.08931315374559647 0.08162586023549849 Z" fill="#cccccc" stroke="#000000" stroke-width="0.001"/>
</g><g transform="translate(0.3291406704402788,0.4676714397721486) rotate(0) scale(1,1) translate(-0.08849994995935555,-0.083180731644454)"><path d="M 0.08931315374559647 0.08162586023549849 C 0.08936302191602523 0.08194062838447101 0.08964999378283059 0.08257459798611289 0.08964999378283059 0.0824390640217394 C 0.08964999378283059 0.08257459798611289 0.08921731676030688 0.08334810479326991 0.08931315374559647 0.08325226780798033 C 0.08921731676030688 0.08334810479326991 0.08836441599498206 0.08358910784521446 0.08849994995935555 0.08358910784521446 C 0.08836441599498206 0.08358910784521446 0.08759090918782503 0.08315643082269074 0.08768674617311462 0.08325226780798033 C 0.08759090918782503 0.08315643082269074 0.08734990613588048 0.0823035300573659 0.08734990613588048 0.0824390640217394 C 0.08734990613588048 0.0823035300573659 0.08782855197326503 0.08131109208652597 0.08768674617311462 0.08162586023549849 C 0.08782855197326503 0.08131109208652597 0.08918710970205894 0.07866184623406917 0.08905157573768545 0.07866184623406917 C 0.08918710970205894 0.07866184623406917 0.08936302191602523 0.08194062838447101 0.08931315374559647 0.08162586023549849 Z" fill="#cccccc" stroke="#000000" stroke-width="0.001"/>
</g><g transform="translate(0.33226407235444927,0.45650527725344525) rotate(0) scale(1,1) translate(-0.08849994995935555,-0.083180731644454)"><path d="M 0.08931315374559647 0.08162586023549849 C 0.08938699840623938 0.08189497176349318 0.08964999378283059 0.08257459798611289 0.08964999378283059 0.0824390640217394 C 0.08964999378283059 0.08257459798611289 0.08921731676030688 0.08334810479326991 0.08931315374559647 0.08325226780798033 C 0.08921731676030688 0.08334810479326991 0.08836441599498206 0.08358910784521446 0.08849994995935555 0.08358910784521446 C 0.08836441599498206 0.08358910784521446 0.08759090918782503 0.08315643082269074 0.08768674617311462 0.08325226780798033 C 0.08759090918782503 0.08315643082269074 0.08734990613588048 0.0823035300573659 0.08734990613588048 0.0824390640217394 C 0.08734990613588048 0.0823035300573659 0.08780457548305087 0.0813567487075038 0.08768674617311462 0.08162586023549849 C 0.08780457548305087 0.0813567487075038 0.08889939181948908 0.07920972568580309 0.08876385785511559 0.07920972568580309 C 0.08889939181948908 0.07920972568580309 0.08938699840623938 0.08189497176349318 0.08931315374559647 0.08162586023549849 Z" fill="#cccccc" stroke="#000000" stroke-width="0.001"/>
</g><g transform="translate(0.3404949094943845,0.4766264709431459) rotate(0) scale(1,1) translate(-0.08849994995935555,-0.083180731644454)"><path d="M 0.08931315374559647 0.08162586023549849 C 0.08944268685732418 0.08194522110337199 0.08964999378283059 0.08257459798611289 0.08964999378283059 0.0824390640217394 C 0.08964999378283059 0.08257459798611289 0.08921731676030688 0.08334810479326991 0.08931315374559647 0.08325226780798033 C 0.08921731676030688 0.08334810479326991 0.08836441599498206 0.08358910784521446 0.08849994995935555 0.08358910784521446 C 0.08836441599498206 0.08358910784521446 0.08759090918782503 0.08315643082269074 0.08768674617311462 0.08325226780798033 C 0.08759090918782503 0.08315643082269074 0.08734990613588048 0.0823035300573659 0.08734990613588048 0.0824390640217394 C 0.08734990613588048 0.0823035300573659 0.08774888703196608 0.08130649936762499 0.08768674617311462 0.08162586023549849 C 0.08774888703196608 0.08130649936762499 0.08823113040647147 0.07860673360725742 0.08809559644209798 0.07860673360725742 C 0.08823113040647147 0.07860673360725742 0.08944268685732418 0.08194522110337199 0.08931315374559647 0.08162586023549849 Z" fill="#cccccc" stroke="#000000" stroke-width="0.001"/>
</g><g transform="translate(0.34312582456240276,0.4636899645988881) rotate(0) scale(1,1) translate(-0.08849994995935555,-0.083180731644454)"><path d="M 0.08931315374559647 0.08162586023549849 C 0.08946331940416935 0.08190333162191565 0.08964999378283059 0.08257459798611289 0.08964999378283059 0.0824390640217394 C 0.08964999378283059 0.08257459798611289 0.08921731676030688 0.08334810479326991 0.08931315374559647 0.08325226780798033 C 0.08921731676030688 0.08334810479326991 0.08836441599498206 0.08358910784521446 0.08849994995935555 0.08358910784521446 C 0.08836441599498206 0.08358910784521446 0.08759090918782503 0.08315643082269074 0.08768674617311462 0.08325226780798033 C 0.08759090918782503 0.08315643082269074 0.08734990613588048 0.0823035300573659 0.08734990613588048 0.0824390640217394 C 0.08734990613588048 0.0823035300573659 0.08772825448512091 0.08134838884908133 0.08768674617311462 0.08162586023549849 C 0.08772825448512091 0.08134838884908133 0.08798353984432945 0.07910940738473345 0.08784800587995596 0.07910940738473345 C 0.08798353984432945 0.07910940738473345 0.08946331940416935 0.08190333162191565 0.08931315374559647 0.08162586023549849 Z" fill="#cccccc" stroke="#000000" stroke-width="0.001"/>
</g><g transform="translate(0.3529532793437667,0.45981495666763444) rotate(0) scale(1,1) translate(-0.08849994995935555,-0.083180731644454)"><path d="M 0.08931315374559647 0.08162586023549849 C 0.0894506970585977 0.08187139904403437 0.08964999378283059 0.08257459798611289 0.08964999378283059 0.0824390640217394 C 0.08964999378283059 0.08257459798611289 0.08921731676030688 0.08334810479326991 0.08931315374559647 0.08325226780798033 C 0.08921731676030688 0.08334810479326991 0.08836441599498206 0.08358910784521446 0.08849994995935555 0.08358910784521446 C 0.08836441599498206 0.08358910784521446 0.08759090918782503 0.08315643082269074 0.08768674617311462 0.08325226780798033 C 0.08759090918782503 0.08315643082269074 0.08734990613588048 0.0823035300573659 0.08734990613588048 0.0824390640217394 C 0.08734990613588048 0.0823035300573659 0.08774087683069257 0.08138032142696261 0.08768674617311462 0.08162586023549849 C 0.08774087683069257 0.08138032142696261 0.08813500799118928 0.07949259831930887 0.0879994740268158 0.07949259831930887 C 0.08813500799118928 0.07949259831930887 0.0894506970585977 0.08187139904403437 0.08931315374559647 0.08162586023549849 Z" fill="#cccccc" stroke="#000000" stroke-width="0.001"/>
</g></svg>
