<?xml version="1.0" encoding="UTF-8"?>
<svg xmlns="http://www.w3.org/2000/svg" viewBox="0 0 1 1">
<g transform="translate(0.336873385639299,0.12633116493929744) rotate(0) scale(1,1) translate(-0.031356046728840126,-0.027175517844381894)"><path d="M 0.031580075336351876 0.027175517844381894 C 0.03157769157749828 0.0272670824173974 0.031551147421957366 0.028455897793554657 0.031551470230108736 0.028274292720567945 C 0.031551147421957366 0.028455897793554657 0.0315782625892377 0.02944481922019366 0.03157620163853547 0.02935477872022245" fill="none" stroke="#000000" stroke-width="0.001"/>
<path d="M 0.03157620163853547 0.02935477872022245 C 0.03157567598218794 0.02937625403931714 0.03156319378197044 0.029655905696355588 0.031569893762365075 0.02961248254935874 C 0.03156319378197044 0.029655905696355588 0.03147798128767277 0.02990620454145934 0.031495801873799856 0.029875856484184594 C 0.03147798128767277 0.02990620454145934 0.03133275420468012 0.029976659236655722 0.03135604672884007 0.029976659236655722 C 0.03133275420468012 0.029976659236655722 0.03119847099775332 0.029845508426909848 0.031216291583880396 0.029875856484184594 C 0.03119847099775332 0.029845508426909848 0.03113549971492054 0.029569059402361896 0.031142199695315176 0.02961248254935874 C 0.03113549971492054 0.029569059402361896 0.031135366162797246 0.029333303401127758 0.03113589181914478 0.02935477872022245" fill="none" stroke="#000000" stroke-width="0.001"/>
<path d="M 0.03113589181914478 0.02935477872022245 C 0.031137952769847006 0.02926473822025124 0.03116030041942015 0.028092687647581233 0.031160623227571516 0.028274292720567945 C 0.03116030041942015 0.028092687647581233 0.03112963436247478 0.02708395327136639 0.031132018121328375 0.027175517844381894" fill="none" stroke="#000000" stroke-width="0.001"/>
</g></svg>
