<?xml version="1.0" encoding="UTF-8"?>
<svg xmlns="http://www.w3.org/2000/svg" viewBox="0 0 1 1">
<g id="淫タトゥ">
<g id="ハート">
<g transform="translate(0.3373434528286706,0.23916577780668663) rotate(0) scale(1,1) translate(0.001427499956110473,-0.008042065181432531)"><path d="M -0.001427499956110473 0.0041237290094580095 C -0.001427499956110473 0.004170119551054642 -0.001427499956110473 0.004776958866645267 -0.001427499956110473 0.004680415508617598 C -0.001427499956110473 0.004776958866645267 -0.001427499956110473 0.005332402122221077 -0.001427499956110473 0.00528224930579004" fill="none" stroke="none" stroke-width="0"/>
<path d="M -0.001427499956110473 0.00528224930579004 C -0.001575937329633557 0.005150996700078827 -0.003496007417811292 0.003475988757866118 -0.003208748438387481 0.0037072180372554847 C -0.003496007417811292 0.003475988757866118 -0.0051246181982330385 0.002296971691865788 -0.0048746077091962065 0.0025074979531176426 C -0.0051246181982330385 0.002296971691865788 -0.006345017880545783 0.0009436791248342459 -0.0062088743068294625 0.0011809029022332293 C -0.006345017880545783 0.0009436791248342459 -0.006468262460229363 -0.0005735056877837685 -0.0065083305937920465 -0.0003391873756701577 C -0.006468262460229363 -0.0005735056877837685 -0.005534782196379568 -0.001789582750769631 -0.0057280567040772605 -0.0016309168431301 C -0.005534782196379568 -0.001789582750769631 -0.003931718843860322 -0.0022819346658847434 -0.004189036501419741 -0.0022431782673445286 C -0.003931718843860322 -0.0022819346658847434 -0.0024101167679217873 -0.002006752573682359 -0.002640244813364226 -0.0020959936256126775 C -0.0024101167679217873 -0.002006752573682359 -0.0013264378846726602 -0.0010953099790613758 -0.001427499956110473 -0.0011722856441807067" fill="none" stroke="none" stroke-width="0"/>
<path d="M -0.001427499956110473 -0.0011722856441807067 C -0.001427499956110473 -0.001147849060037172 -0.001427499956110473 -0.0008109044448251527 -0.001427499956110473 -0.0008790466344582886 C -0.001427499956110473 -0.0008109044448251527 -0.001427499956110473 -0.00031087376309347527 -0.001427499956110473 -0.00035457936858307627" fill="none" stroke="none" stroke-width="0"/>
<path d="M -0.001427499956110473 -0.00035457936858307627 C -0.0015408929930353613 -0.0004218309773083537 -0.002993338147407447 -0.0012423766588798252 -0.0027882163992091332 -0.0011615986732864052 C -0.002993338147407447 -0.0012423766588798252 -0.0040678928242269315 -0.0013026938734691967 -0.0038889609344902377 -0.0013239151957041176 C -0.0040678928242269315 -0.0013026938734691967 -0.005063005016834116 -0.0008040391312140282 -0.004935399076049455 -0.0009069428064673548 C -0.005063005016834116 -0.0008040391312140282 -0.005442163974184041 7.0989843011437E-05 -0.005420232223906172 -8.907109266419956E-05 C -0.005442163974184041 7.0989843011437E-05 -0.005096553667681724 0.0011872474535170748 -0.005198580079383883 0.0010137884216402842 C -0.005096553667681724 0.0011872474535170748 -0.00400792965921449 0.002154320769334076 -0.004195915283480267 0.0019924372898572867 C -0.00400792965921449 0.002154320769334076 -0.0027120513109137384 0.0031339978186618136 -0.0029427525881945546 0.0029563901753617535 C -0.0027120513109137384 0.0031339978186618136 -0.0013012289034367995 0.004221007245632697 -0.001427499956110473 0.0041237290094580095" fill="none" stroke="none" stroke-width="0"/>
</g><g transform="translate(0.3373434528286706,0.23916577780668663) rotate(0) scale(1,1) translate(0.001427499956110473,-0.008042065181432531)"><path d="M -0.0014274999561105783 0.0041237290094580095 C -0.0013012289034369056 0.004026450773283322 0.00031845395325430514 0.0027787825320616934 8.77526759734959E-05 0.0029563901753617535 C 0.00031845395325430514 0.0027787825320616934 0.0015289009955249029 0.0018305538103804977 0.0013409153712591326 0.0019924372898572867 C 0.0015289009955249029 0.0018305538103804977 0.0024456065788648895 0.0008403293897634936 0.00234358016716274 0.0010137884216402842 C 0.0024456065788648895 0.0008403293897634936 0.002543300561407058 -0.0002491320283398361 0.0025652323116849285 -8.907109266419956E-05 C 0.002543300561407058 -0.0002491320283398361 0.0019527932230436473 -0.0010098464817206814 0.002080399163828295 -0.0009069428064673548 C 0.0019527932230436473 -0.0010098464817206814 0.0008550291325324736 -0.0013451365179390385 0.0010339610222691586 -0.0013239151957041176 C 0.0008550291325324736 -0.0013451365179390385 -0.00027190526121023684 -0.0010808206876929852 -6.678351301192542E-05 -0.0011615986732864052 C -0.00027190526121023684 -0.0010808206876929852 -0.001540892993035466 -0.00028732775985779884 -0.0014274999561105783 -0.00035457936858307627" fill="none" stroke="none" stroke-width="0"/>
<path d="M -0.0014274999561105783 -0.00035457936858307627 C -0.0014274999561105783 -0.0003982849740726773 -0.0014274999561105783 -0.0009471888240914245 -0.0014274999561105783 -0.0008790466344582886 C -0.0014274999561105783 -0.0009471888240914245 -0.0014274999561105783 -0.0011967222283242416 -0.0014274999561105783 -0.0011722856441807067" fill="none" stroke="none" stroke-width="0"/>
<path d="M -0.0014274999561105783 -0.0011722856441807067 C -0.0013264378846727747 -0.0012492613093000376 1.5372946585490155E-05 -0.002185234677542996 -0.00021475509885693356 -0.0020959936256126775 C 1.5372946585490155E-05 -0.002185234677542996 0.0015913542467579183 -0.002204421868804314 0.0013340365891985062 -0.0022431782673445286 C 0.0015913542467579183 -0.002204421868804314 0.0030663312995537115 -0.0014722509354905692 0.00287305679185601 -0.0016309168431301 C 0.0030663312995537115 -0.0014722509354905692 0.003693398815133605 -0.00013663432823682003 0.003653330681570921 -0.0003391873756701577 C 0.003693398815133605 -0.00013663432823682003 0.0032177308208918842 0.0010369435034689352 0.003353874394608214 0.0007997197260699518 C 0.0032177308208918842 0.0010369435034689352 0.0017695973079381495 0.0027497894790497702 0.002019607796974965 0.0025074979531176426 C 0.0017695973079381495 0.0027497894790497702 6.648954674263557E-05 0.003938447316644851 0.0003537485261664308 0.0037072180372554847 C 6.648954674263557E-05 0.003938447316644851 -0.0015759373296336625 0.005413501911501253 -0.0014274999561105783 0.00528224930579004" fill="none" stroke="none" stroke-width="0"/>
<path d="M -0.0014274999561105783 0.00528224930579004 C -0.0014274999561105783 0.005232096489359003 -0.0014274999561105783 0.004583872150589929 -0.0014274999561105783 0.004680415508617598 C -0.0014274999561105783 0.004583872150589929 -0.0014274999561105783 0.004077338467861377 -0.0014274999561105783 0.0041237290094580095" fill="none" stroke="none" stroke-width="0"/>
</g><g transform="translate(0.3373434528286706,0.23916577780668663) rotate(0) scale(1,1) translate(0.001436065550653578,-0.008105469171541388)"><path d="M -0.001436065550653578 0.006933249498166106 C -0.001436065550653578 0.007005233726395199 -0.001436065550653578 0.007936418970901258 -0.001436065550653578 0.007797060236915222 C -0.001436065550653578 0.007936418970901258 -0.001436065550653578 0.00867292881175548 -0.001436065550653578 0.008605554305998537" fill="none" stroke="none" stroke-width="0"/>
<path d="M -0.001436065550653578 0.008605554305998537 C -0.001726932318597709 0.008346929456664131 -0.005467212424548591 0.005066078716922751 -0.004926466765983151 0.0055020561139856785 C -0.005467212424548591 0.005066078716922751 -0.008375032333705151 0.0029974837358822206 -0.007925013453438854 0.0033738255412434056 C -0.008375032333705151 0.0029974837358822206 -0.010571751761868097 0.0005589516503332909 -0.01032669332917872 0.00098595444965146 C -0.010571751761868097 0.0005589516503332909 -0.010793592005298535 -0.00217198101237912 -0.010865714645711365 -0.001750208050574623 C -0.010793592005298535 -0.00217198101237912 -0.009113327530368915 -0.004360919725753662 -0.00946122164422476 -0.004075321092002507 C -0.009113327530368915 -0.004360919725753662 -0.006239997886134411 -0.005243936493921625 -0.006690985279441221 -0.0051773916555884775 C -0.006239997886134411 -0.005243936493921625 -0.0036114629471440673 -0.004712063353989057 -0.0040493729245430375 -0.004873859152000283 C -0.0036114629471440673 -0.004712063353989057 -0.0012182899361627897 -0.003099340656741542 -0.001436065550653578 -0.003235842079453753" fill="none" stroke="none" stroke-width="0"/>
<path d="M -0.001436065550653578 -0.003235842079453753 C -0.001436065550653578 -0.003201153678721973 -0.001436065550653578 -0.002699938706444375 -0.001436065550653578 -0.0028195812706723953 C -0.001436065550653578 -0.002699938706444375 -0.001436065550653578 -0.0017151771452212704 -0.001436065550653578 -0.0018001313087175107" fill="none" stroke="none" stroke-width="0"/>
<path d="M -0.001436065550653578 -0.0018001313087175107 C -0.0016617466504936197 -0.0019252379281348513 -0.004538975863451043 -0.0034514464737109233 -0.004144238748734079 -0.0033014107417255966 C -0.004538975863451043 -0.0034514464737109233 -0.006502682400041877 -0.003561449195662475 -0.0061729109272571515 -0.0036005600925414338 C -0.006502682400041877 -0.003561449195662475 -0.008336674171016923 -0.0026424285056862082 -0.008101496422150793 -0.0028320799791780884 C -0.008336674171016923 -0.0026424285056862082 -0.009035464129412835 -0.0010297501061886742 -0.008995043913650722 -0.0013247424106388717 C -0.009035464129412835 -0.0010297501061886742 -0.008398504334529057 0.0010371164135656904 -0.008586539011296135 0.0007078276742242813 C -0.008398504334529057 0.0010371164135656904 -0.006392170286923949 0.0029202718423375173 -0.006738627792445776 0.0026267224614580365 C -0.006392170286923949 0.0029202718423375173 -0.0039871687582181915 0.004589297497837055 -0.004429048945034208 0.00423042024477805 C -0.0039871687582181915 0.004589297497837055 -0.0011866502677885253 0.0071584852692817775 -0.001436065550653578 0.006933249498166106" fill="none" stroke="none" stroke-width="0"/>
</g><g transform="translate(0.3373434528286706,0.23916577780668663) rotate(0) scale(1,1) translate(0.001436065550653578,-0.008105469171541388)"><path d="M -0.0014360655506535647 0.006933249498166106 C -0.0011866502677885065 0.006708013727050435 0.0019987980305431474 0.003871542991719044 0.0015569178437271347 0.00423042024477805 C 0.0019987980305431474 0.003871542991719044 0.004212954196660419 0.0023331730805785556 0.003866496691138588 0.0026267224614580365 C 0.004212954196660419 0.0023331730805785556 0.005902442586756207 0.0003785389348828722 0.0057144079099891165 0.0007078276742242813 C 0.005902442586756207 0.0003785389348828722 0.006082492596581557 -0.0016197347150890692 0.006122912812343673 -0.0013247424106388717 C 0.006082492596581557 -0.0016197347150890692 0.004994187571977597 -0.0030217314526699685 0.005229365320843726 -0.0028320799791780884 C 0.004994187571977597 -0.0030217314526699685 0.002971008353165383 -0.0036396709894203926 0.0033007798259501175 -0.0036005600925414338 C 0.002971008353165383 -0.0036396709894203926 0.0008773705327099386 -0.00315137500974027 0.0012721076474269122 -0.0033014107417255966 C 0.0008773705327099386 -0.00315137500974027 -0.0016617466504936045 -0.0016750246893001701 -0.0014360655506535647 -0.0018001313087175107" fill="none" stroke="none" stroke-width="0"/>
<path d="M -0.0014360655506535647 -0.0018001313087175107 C -0.0014360655506535647 -0.001885085472213751 -0.0014360655506535647 -0.0029392238349004157 -0.0014360655506535647 -0.0028195812706723953 C -0.0014360655506535647 -0.0029392238349004157 -0.0014360655506535647 -0.003270530480185533 -0.0014360655506535647 -0.003235842079453753" fill="none" stroke="none" stroke-width="0"/>
<path d="M -0.0014360655506535647 -0.003235842079453753 C -0.001218289936162779 -0.003372343502165964 0.001615151800634836 -0.00503565495001151 0.001177241823235864 -0.004873859152000283 C 0.001615151800634836 -0.00503565495001151 0.004269841571440909 -0.00511084681725533 0.0038188541781341012 -0.0051773916555884775 C 0.004269841571440909 -0.00511084681725533 0.006936984656773411 -0.0037897224582513524 0.006589090542917564 -0.004075321092002507 C 0.006936984656773411 -0.0037897224582513524 0.008065706184817112 -0.0013284350887701258 0.00799358354440427 -0.001750208050574623 C 0.008065706184817112 -0.0013284350887701258 0.007209503795182278 0.001412957248969629 0.007454562227871664 0.00098595444965146 C 0.007209503795182278 0.001412957248969629 0.004602863471865337 0.0037501673466045905 0.005052882352131638 0.0033738255412434056 C 0.004602863471865337 0.0037501673466045905 0.0015135900061106211 0.005938033511048606 0.0020543356646760547 0.0055020561139856785 C 0.0015135900061106211 0.005938033511048606 -0.0017269323185976997 0.008864179155332942 -0.0014360655506535647 0.008605554305998537" fill="none" stroke="none" stroke-width="0"/>
<path d="M -0.0014360655506535647 0.008605554305998537 C -0.0014360655506535647 0.008538179800241593 -0.0014360655506535647 0.0076577015029291855 -0.0014360655506535647 0.007797060236915222 C -0.0014360655506535647 0.0076577015029291855 -0.0014360655506535647 0.006861265269937014 -0.0014360655506535647 0.006933249498166106" fill="none" stroke="none" stroke-width="0"/>
</g></g>
<g transform="translate(0.3373434528286706,0.23916577780668663) rotate(0) scale(1,1) translate(-0.014321047318078182,-0.013714177965114286)"><path d="M 0.0014440973085872505 -0.008630497705662672 C 0.0016849320926703272 -0.008428243436211446 0.004671031777728009 -0.0058289908793749306 0.004334114717584171 -0.006203446472247961 C 0.004671031777728009 -0.0058289908793749306 0.005563382345638574 -0.003749274084113242 0.0054871020303133055 -0.004137030591186305 C 0.005563382345638574 -0.003749274084113242 0.005055687454350916 -0.0009922876241198236 0.005249478501487385 -0.0015503683873712099 C 0.005055687454350916 -0.0009922876241198236 0.002942124138273179 0.0031267431633063333 0.0031616094646756848 0.002559938567830328 C 0.002942124138273179 0.0031267431633063333 0.002657781714702259 0.005684066825715402 0.002615654584657315 0.005251286758340854 C 0.002657781714702259 0.005684066825715402 0.003952234808699047 0.00815611101440683 0.0036671350252150126 0.007753299376324914 C 0.003952234808699047 0.00815611101440683 0.006489200915833617 0.010476606609592374 0.006036851986465729 0.010085026415323854 C 0.006489200915833617 0.010476606609592374 0.009550400483609464 0.012874690423315049 0.00909532217762967 0.012452261707547166 C 0.009550400483609464 0.012874690423315049 0.011782401870289396 0.015623398885158906 0.011497791658223254 0.015154171004538449 C 0.011782401870289396 0.015623398885158906 0.012607901775662192 0.018608450809925438 0.012510644722423376 0.018082996274992658 C 0.012607901775662192 0.018608450809925438 0.012614631472089077 0.022006061198902194 0.012664876297089038 0.0214596254237318 C 0.012614631472089077 0.022006061198902194 0.011717938425847188 0.025184923312905012 0.011907706822423862 0.024640225577037378 C 0.011717938425847188 0.025184923312905012 0.010110438593644027 0.028507117405028756 0.010387655538168946 0.027995998254143405 C 0.010110438593644027 0.028507117405028756 0.00826944914044256 0.031229471682478284 0.008581103488124847 0.030773655387661584 C 0.00826944914044256 0.031229471682478284 0.006486695022469556 0.03369013865896734 0.006647803365981502 0.033465793791943824" fill="none" stroke="none" stroke-width="0"/>
<path d="M 0.006647803365981502 0.033465793791943824 C 0.006621712077721176 0.03338933806791909 0.006268524654928127 0.03231729070869591 0.006334707906857586 0.032548325103647004 C 0.006268524654928127 0.03231729070869591 0.005813512379158864 0.03053880238160437 0.005853604342827996 0.030693381052530725" fill="none" stroke="none" stroke-width="0"/>
<path d="M 0.005853604342827996 0.030693381052530725 C 0.006041473222404209 0.030451631901711452 0.008472943031606367 0.02724133898889083 0.008108030897742547 0.02779239124269946 C 0.008472943031606367 0.02724133898889083 0.010488440794954914 0.02347144064074322 0.010232549949193826 0.024080754006827167 C 0.010488440794954914 0.02347144064074322 0.011235221011987146 0.019896244548702133 0.01117872104687561 0.020480630849692084 C 0.011235221011987146 0.019896244548702133 0.010774691458304998 0.016542452304290564 0.010910549530532256 0.017068118394947752 C 0.010774691458304998 0.016542452304290564 0.009210819509540006 0.013735119238945562 0.00954842418014851 0.014172637761805848 C 0.009210819509540006 0.013735119238945562 0.006635199258487013 0.011621667650525865 0.006859293483230205 0.011817896120624324" fill="none" stroke="none" stroke-width="0"/>
<path d="M 0.006859293483230205 0.011817896120624324 C 0.00669136668755953 0.011745051027262799 0.004326604495651029 0.010813696161003195 0.004844171935182105 0.010943755000286019 C 0.004326604495651029 0.010813696161003195 8.387634760506689E-05 0.01010048654821125 0.0006484842088572989 0.010257190049230421 C 8.387634760506689E-05 0.01010048654821125 -0.0022357736926885067 0.008813773405761184 -0.0019311223998446795 0.009063312988055952 C -0.0022357736926885067 0.008813773405761184 -0.0030888930482857826 0.006950882142709592 -0.003007331305268629 0.007262715061693202 C -0.0030888930482857826 0.006950882142709592 -0.002846853307003009 0.005007388281989905 -0.002909863316050518 0.00532131796025263 C -0.002846853307003009 0.005007388281989905 -0.0021963235200858533 0.0033434123360644944 -0.00225121119669852 0.0034955589225405047" fill="none" stroke="none" stroke-width="0"/>
<path d="M -0.00225121119669852 0.0034955589225405047 C -0.002212656139360992 0.0037011160050568815 -0.0016444865765769313 0.0063330306767676574 -0.001788550508648182 0.005962243912737029 C -0.0016444865765769313 0.0063330306767676574 -0.0002465985527123639 0.008215855933082333 -0.0005224440118435116 0.007945000090908049 C -0.0002465985527123639 0.008215855933082333 0.0019327410738639171 0.009372758303469802 0.0015215950009255905 0.009212514018828442 C 0.0019327410738639171 0.009372758303469802 0.00465211835195731 0.009922549630585685 0.004411308863416409 0.009867931506604359" fill="none" stroke="none" stroke-width="0"/>
<path d="M 0.004411308863416409 0.009867931506604359 C 0.00424981272934016 0.009709156932295057 0.0022156280346315228 0.007593511100158549 0.002473355254501425 0.00796263661489274 C 0.0022156280346315228 0.007593511100158549 0.0012600391777161692 0.004969833117528146 0.0013185822249775813 0.005438425329794067 C 0.0012600391777161692 0.004969833117528146 0.001928521548742138 0.0017055232383212191 0.0017708386873644805 0.002339530067701682 C 0.001928521548742138 0.0017055232383212191 0.0033132915154616407 -0.0028313291917879384 0.0032107765615094703 -0.0021696566227714896 C 0.0033132915154616407 -0.0028313291917879384 0.0028537948637136733 -0.0061389441840699705 0.003001018134790526 -0.005600540760495706 C 0.0028537948637136733 -0.0061389441840699705 0.0013143539064036321 -0.008882994117759915 0.0014440973085872394 -0.008630497705662668" fill="none" stroke="none" stroke-width="0"/>
</g><g transform="translate(0.3373434528286706,0.23916577780668663) rotate(0) scale(1,1) translate(-0.014321047318078182,-0.013714177965114286)"><path d="M 0.027197997327569112 -0.008630497705662668 C 0.027068253925385505 -0.008378001293565421 0.025493853230288965 -0.005062137336921441 0.025641076501365823 -0.005600540760495706 C 0.025493853230288965 -0.005062137336921441 0.02553383302859899 -0.0015079840537550408 0.025431318074646825 -0.0021696566227714896 C 0.02553383302859899 -0.0015079840537550408 0.02702893881016946 0.0029735368970821453 0.026871255948791806 0.002339530067701682 C 0.02702893881016946 0.0029735368970821453 0.027264969363917285 0.0059070175420599886 0.027323512411178696 0.005438425329794067 C 0.027264969363917285 0.0059070175420599886 0.025911012161784968 0.00833176212962693 0.02616873938165487 0.00796263661489274 C 0.025911012161784968 0.00833176212962693 0.0240692896386636 0.010026706080913661 0.02423078577273985 0.009867931506604359" fill="none" stroke="none" stroke-width="0"/>
<path d="M 0.02423078577273985 0.009867931506604359 C 0.02447159526128075 0.009813313382623033 0.02753164570816899 0.009052269734187083 0.027120499635230666 0.009212514018828442 C 0.02753164570816899 0.009052269734187083 0.029440384107130874 0.007674144248733764 0.029164538647999727 0.007945000090908049 C 0.029440384107130874 0.007674144248733764 0.03057470907687569 0.005591457148706401 0.030430645144804425 0.005962243912737029 C 0.03057470907687569 0.005591457148706401 0.030931860890192415 0.003290001840024128 0.030893305832854878 0.0034955589225405047" fill="none" stroke="none" stroke-width="0"/>
<path d="M 0.030893305832854878 0.0034955589225405047 C 0.030948193509467536 0.003647705509016515 0.03161496796125427 0.005635247638515355 0.03155195795220678 0.00532131796025263 C 0.03161496796125427 0.005635247638515355 0.03156786419840768 0.007574547980676812 0.031649425941424836 0.007262715061693202 C 0.03156786419840768 0.007574547980676812 0.03026856574315709 0.00931285257035072 0.03057321703600091 0.009063312988055952 C 0.03026856574315709 0.00931285257035072 0.027429002566046756 0.010413893550249593 0.027993610427298976 0.010257190049230421 C 0.027429002566046756 0.010413893550249593 0.023280355261443175 0.011073813839568843 0.02379792270097425 0.010943755000286019 C 0.023280355261443175 0.011073813839568843 0.021614874357255398 0.01189074121398585 0.02178280115292608 0.011817896120624324" fill="none" stroke="none" stroke-width="0"/>
<path d="M 0.02178280115292608 0.011817896120624324 C 0.021558706928182885 0.012014124590722784 0.018756065785399234 0.014610156284666134 0.01909367045600774 0.014172637761805848 C 0.018756065785399234 0.014610156284666134 0.017595687033396774 0.01759378448560494 0.017731545105624025 0.017068118394947752 C 0.017595687033396774 0.01759378448560494 0.017519873554392273 0.021065017150682035 0.01746337358928074 0.020480630849692084 C 0.017519873554392273 0.021065017150682035 0.018665435532723512 0.024690067372911115 0.01840954468696243 0.024080754006827167 C 0.018665435532723512 0.024690067372911115 0.02089897587227753 0.02834344349650809 0.02053406373841371 0.02779239124269946 C 0.02089897587227753 0.02834344349650809 0.022976359172904515 0.030935130203349998 0.0227884902933283 0.030693381052530725" fill="none" stroke="none" stroke-width="0"/>
<path d="M 0.0227884902933283 0.030693381052530725 C 0.022748398329659164 0.03084795972345708 0.022241203477369204 0.032779359498598094 0.02230738672929866 0.032548325103647004 C 0.022241203477369204 0.032779359498598094 0.021968199981914505 0.033542249515968556 0.021994291270174826 0.033465793791943824" fill="none" stroke="none" stroke-width="0"/>
<path d="M 0.021994291270174826 0.033465793791943824 C 0.02183318292666288 0.03324144892492031 0.01974933680034922 0.030317839092844884 0.020060991148031504 0.030773655387661584 C 0.01974933680034922 0.030317839092844884 0.01797722215346249 0.027484879103258055 0.018254439097987407 0.027995998254143405 C 0.01797722215346249 0.027484879103258055 0.01654461941715581 0.024095527841169743 0.016734387813732488 0.024640225577037378 C 0.01654461941715581 0.024095527841169743 0.015926973514067327 0.020913189648561405 0.01597721833906729 0.0214596254237318 C 0.015926973514067327 0.020913189648561405 0.01622870696697175 0.017557541740059877 0.016131449913732943 0.018082996274992658 C 0.01622870696697175 0.017557541740059877 0.017428913189999156 0.014684943123917991 0.017144302977933012 0.015154171004538449 C 0.017428913189999156 0.014684943123917991 0.020001850764506446 0.012029832991779283 0.01954677245852665 0.012452261707547166 C 0.020001850764506446 0.012029832991779283 0.02305759157905844 0.009693446221055333 0.02260524264969055 0.010085026415323854 C 0.02305759157905844 0.009693446221055333 0.025260059394425355 0.007350487738242997 0.024974959610941316 0.007753299376324914 C 0.025260059394425355 0.007350487738242997 0.02606856718154395 0.004818506690966305 0.02602644005149901 0.005251286758340854 C 0.02606856718154395 0.004818506690966305 0.025260999845078097 0.001993133972354323 0.025480485171480605 0.002559938567830328 C 0.025260999845078097 0.001993133972354323 0.02319882508753245 -0.002108449150622596 0.02339261613466892 -0.0015503683873712099 C 0.02319882508753245 -0.002108449150622596 0.02323127292116824 -0.004524787098259367 0.023154992605842972 -0.004137030591186305 C 0.02323127292116824 -0.004524787098259367 0.02464489697871598 -0.006577902065120991 0.024307979918572142 -0.006203446472247961 C 0.02464489697871598 -0.006577902065120991 0.027438832111652073 -0.008832751975113897 0.027197997327569 -0.008630497705662672" fill="none" stroke="none" stroke-width="0"/>
</g><g transform="translate(0.3373434528286706,0.23916577780668663) rotate(0) scale(1,1) translate(-0.014357830744681672,-0.013443040996989642)"><path d="M -0.007071647933862559 0.008182474533275284 C -0.006928775662478868 0.008275226441176073 -0.005016119477922829 0.009484609426204877 -0.005357180677258267 0.009295497428084764 C -0.005016119477922829 0.009484609426204877 -0.002451222038138377 0.010588053289432783 -0.002978913541837306 0.010451818510716648 C -0.002451222038138377 0.010588053289432783 0.0016040720324898257 0.011025056846988625 0.0009751173671288839 0.010930314772678388 C 0.0016040720324898257 0.011025056846988625 0.00507521862648321 0.0117375446451904 0.004568542442493996 0.011588723402439481 C 0.00507521862648321 0.0117375446451904 0.007408667845541127 0.012949311564893694 0.0070552315749994494 0.012716169685689421 C 0.007408667845541127 0.012949311564893694 0.009045064116879716 0.014728089214435504 0.00880977768899413 0.014386425952890757 C 0.009045064116879716 0.014728089214435504 0.009987683090089454 0.017237348790581253 0.009878668709626484 0.01681612882422637 C 0.009987683090089454 0.017237348790581253 0.010086007694809466 0.019923772425452478 0.010117950254549767 0.019441065549149327 C 0.010086007694809466 0.019923772425452478 0.009308653922857792 0.023132730151219697 0.009495357992742879 0.022608611339864176 C 0.009308653922857792 0.023132730151219697 0.00755141273603129 0.02625934196139057 0.00787750141592873 0.02573049128541559 C 0.00755141273603129 0.02625934196139057 0.005391026535477345 0.029223513465409603 0.005582293833973605 0.02895481945156391" fill="none" stroke="none" stroke-width="0"/>
<path d="M 0.005582293833973605 0.02895481945156391 C 0.005573773724836091 0.028915687492723236 0.005459231743423856 0.028404647859229318 0.005480052524323443 0.02848523594547582 C 0.005459231743423856 0.028404647859229318 0.005320143791416483 0.027946306289200046 0.005332444463178557 0.027987762416605874" fill="none" stroke="none" stroke-width="0"/>
<path d="M 0.005332444463178557 0.027987762416605874 C 0.005488950742600312 0.027757845363450575 0.007494792652752845 0.02474922698844083 0.007210519816239619 0.025228757778742287 C 0.007494792652752845 0.02474922698844083 0.008918971557594385 0.021742982388200997 0.008743718501337273 0.022233392932988358 C 0.008918971557594385 0.021742982388200997 0.00933964615382166 0.01889863773743926 0.00931355649132496 0.01934383124129395 C 0.00933964615382166 0.01889863773743926 0.008958574858920156 0.016509926656510344 0.009056794451297668 0.01689107088673206 C 0.008958574858920156 0.016509926656510344 0.007927942001562735 0.014470186001645591 0.008134921382794827 0.014770100478633367 C 0.007927942001562735 0.014470186001645591 0.0062495382044491215 0.013095322295744605 0.006573041876512557 0.013292097162878757 C 0.0062495382044491215 0.013095322295744605 0.003803275563310349 0.012321692629711079 0.004252877318033605 0.012408802073023542 C 0.003803275563310349 0.012321692629711079 0.0005210747202097145 0.01222036246216093 0.0011778208198334847 0.012246783843129203 C 0.0005210747202097145 0.01222036246216093 -0.004256220590066322 0.01192540496598421 -0.0036280758774516375 0.01209174550140426 C -0.004256220590066322 0.01192540496598421 -0.006646880069576971 0.00992492483741119 -0.006359915731542727 0.010250697418088605 C -0.006646880069576971 0.00992492483741119 -0.007130958950722545 0.008010122626207507 -0.007071647933862559 0.008182474533275284" fill="none" stroke="none" stroke-width="0"/>
</g><g transform="translate(0.3373434528286706,0.23916577780668663) rotate(0) scale(1,1) translate(-0.014357830744681672,-0.013443040996989642)"><path d="M 0.035787309423225944 0.008182474533275284 C 0.03572799840636596 0.00835482644034306 0.034788612882871904 0.01057646999876602 0.03507557722090615 0.010250697418088605 C 0.034788612882871904 0.01057646999876602 0.03171559265420026 0.012258086036824309 0.03234373736681495 0.01209174550140426 C 0.03171559265420026 0.012258086036824309 0.026881094569906033 0.012273205224097476 0.0275378406695298 0.012246783843129203 C 0.026881094569906033 0.012273205224097476 0.024013182416606493 0.012495911516336005 0.024462784171329743 0.012408802073023542 C 0.024013182416606493 0.012495911516336005 0.021819115940787365 0.013488872030012908 0.0221426196128508 0.013292097162878757 C 0.021819115940787365 0.013488872030012908 0.02037376072533642 0.015070014955621143 0.020580740106568518 0.014770100478633367 C 0.02037376072533642 0.015070014955621143 0.019560647445688122 0.017272215116953777 0.01965886703806563 0.01689107088673206 C 0.019560647445688122 0.017272215116953777 0.01942819466053511 0.01978902474514864 0.019402104998038405 0.01934383124129395 C 0.01942819466053511 0.01978902474514864 0.020147196044283177 0.02272380347777572 0.01997194298802607 0.022233392932988358 C 0.020147196044283177 0.02272380347777572 0.021789414509636895 0.025708288569043745 0.021505141673123673 0.025228757778742287 C 0.021789414509636895 0.025708288569043745 0.023539723305606487 0.028217679469761173 0.023383217026184733 0.027987762416605874" fill="none" stroke="none" stroke-width="0"/>
<path d="M 0.023383217026184733 0.027987762416605874 C 0.02337091635442266 0.028029218544011702 0.023214788184140262 0.028565824031722323 0.023235608965039845 0.02848523594547582 C 0.023214788184140262 0.028565824031722323 0.023124847546252252 0.028993951410404586 0.023133367655389758 0.02895481945156391" fill="none" stroke="none" stroke-width="0"/>
<path d="M 0.023133367655389758 0.02895481945156391 C 0.022942100356893497 0.02868612543771822 0.020512071393537196 0.025201640609440613 0.02083816007343464 0.02573049128541559 C 0.020512071393537196 0.025201640609440613 0.019033599426735315 0.022084492528508654 0.019220303496620406 0.022608611339864176 C 0.019033599426735315 0.022084492528508654 0.018565768675073275 0.018958358672846176 0.018597711234813574 0.019441065549149327 C 0.018565768675073275 0.018958358672846176 0.018946007160199795 0.01639490885787149 0.018836992779736828 0.01681612882422637 C 0.018946007160199795 0.01639490885787149 0.020141170228254762 0.01404476269134601 0.019905883800369173 0.014386425952890757 C 0.020141170228254762 0.01404476269134601 0.022013866184905573 0.012483027806485148 0.0216604299143639 0.012716169685689421 C 0.022013866184905573 0.012483027806485148 0.024653795230858495 0.011439902159688563 0.02414711904686928 0.011588723402439481 C 0.024653795230858495 0.011439902159688563 0.028369498787595416 0.010835572698368151 0.02774054412223448 0.010930314772678388 C 0.028369498787595416 0.010835572698368151 0.03222226653489948 0.010315583732000512 0.031694575031200545 0.010451818510716648 C 0.03222226653489948 0.010315583732000512 0.0344139033659571 0.00910638542996465 0.03407284216662165 0.009295497428084764 C 0.0344139033659571 0.00910638542996465 0.03593018169460963 0.008089722625374494 0.035787309423225944 0.008182474533275284" fill="none" stroke="none" stroke-width="0"/>
</g></g>
<g id="植タトゥ">
<g transform="translate(0.3323442786894815,0.23876404957624886) rotate(0) scale(1,1) translate(-0.017861643923213048,-0.01786164392321305)"><path d="M 0.02836982331091531 0.0014419242833534956 C 0.028567149106559997 0.0018714382818948046 0.03071460786326935 0.007375275263044126 0.030737732858651556 0.006596092265849204 C 0.03071460786326935 0.007375275263044126 0.027194480470718846 0.011514427330727096 0.02809232336632883 0.010792120249692557 C 0.027194480470718846 0.011514427330727096 0.019313730620767317 0.016080987079585222 0.019963618111331738 0.015263777238263672 C 0.019313730620767317 0.016080987079585222 0.020321178093574466 0.021043210104491776 0.020293673479555796 0.020598638345551153" fill="none" stroke="none" stroke-width="0"/>
<path d="M 0.020293673479555796 0.020598638345551153 C 0.020157721291701302 0.02012951718242171 0.01921195138756812 0.01402537010784582 0.018662247225301853 0.014969184387997844 C 0.01921195138756812 0.01402537010784582 0.027749216065917136 0.008506216546187925 0.02689012342675101 0.009272866983726856 C 0.027749216065917136 0.008506216546187925 0.0290946672189757 0.005116800579166218 0.02897135889529534 0.005769379137530665 C 0.0290946672189757 0.005116800579166218 0.028319695345550306 0.0010813030455053983 0.02836982331091531 0.0014419242833534956" fill="none" stroke="none" stroke-width="0"/>
</g><g transform="translate(0.3423426269678596,0.23876404957624886) rotate(0) scale(1,1) translate(-0.017861643923213048,-0.01786164392321305)"><path d="M 0.00735346453551089 0.0014419242833534956 C 0.007303336570145887 0.001802545521201593 0.006875237274811217 0.006421957695895111 0.006751928951130859 0.005769379137530665 C 0.006875237274811217 0.006421957695895111 0.009692257058841311 0.010039517421265787 0.008833164419675188 0.009272866983726856 C 0.009692257058841311 0.010039517421265787 0.017610744783390614 0.01591299866814987 0.017061040621124346 0.014969184387997844 C 0.017610744783390614 0.01591299866814987 0.015293662179015908 0.021067759508680596 0.015429614366870403 0.020598638345551153" fill="none" stroke="none" stroke-width="0"/>
<path d="M 0.015429614366870403 0.020598638345551153 C 0.015457118980889075 0.02015406658661053 0.015109782244530042 0.014446567396942122 0.01575966973509446 0.015263777238263672 C 0.015109782244530042 0.014446567396942122 0.006733121584487385 0.010069813168658018 0.007630964480097369 0.010792120249692557 C 0.006733121584487385 0.010069813168658018 0.004962429992392443 0.005816909268654282 0.00498555498777465 0.006596092265849204 C 0.004962429992392443 0.005816909268654282 0.007550790331155576 0.0010124102848121867 0.00735346453551089 0.0014419242833534956" fill="none" stroke="none" stroke-width="0"/>
</g></g>
<g transform="translate(0.3373434528286706,0.23916577780668666) rotate(0) scale(1,1) translate(-0.05000000000000001,-0.05000000000000001)"><path d="M 0.05 0.06067742811229323 C 0.04992361215082804 0.060519318666012914 0.04883387854070388 0.0584113448888312 0.04908334580993642 0.05878011475692947 C 0.04883387854070388 0.0584113448888312 0.04686690855353856 0.055910614779972306 0.047006392769209565 0.05625218969511398 C 0.04686690855353856 0.055910614779972306 0.04756370674630194 0.05453688498949949 0.04740953522188439 0.05468121577522935 C 0.04756370674630194 0.05453688498949949 0.049072323127063146 0.05459323664465228 0.048856451062220176 0.054520220266355675 C 0.049072323127063146 0.05459323664465228 0.050095295744814985 0.05564384498549135 0.05 0.055557412314788605" fill="none" stroke="none" stroke-width="0"/>
<path d="M 0.05 0.055557412314788605 C 0.050095295744814985 0.05547097964408586 0.05135942100262281 0.05444720388805904 0.05114354893777984 0.05452022026635565 C 0.05135942100262281 0.05444720388805904 0.052744636302533184 0.0548255465609592 0.05259046477811563 0.05468121577522934 C 0.052744636302533184 0.0548255465609592 0.05285412301511945 0.05659376461025566 0.052993607230790454 0.05625218969511398 C 0.05285412301511945 0.05659376461025566 0.05066718692083106 0.05914888462502776 0.050916654190063595 0.058780114756929486 C 0.05066718692083106 0.05914888462502776 0.04992361215082804 0.060835537558573544 0.05 0.06067742811229323" fill="none" stroke="none" stroke-width="0"/>
</g><g transform="translate(0.3373434528286706,0.23916577780668663) rotate(0) scale(1,1) translate(-0.05000000000000001,-0.05000000000000001)"><path d="M 0.05 0.061048408507419785 C 0.04991643737129149 0.06108588197807033 0.04877947871007955 0.061457559798050634 0.04899724845549789 0.06149809015522628 C 0.04877947871007955 0.061457559798050634 0.04725255593827014 0.06048404039348581 0.04738676305497996 0.060562044221312" fill="none" stroke="none" stroke-width="0"/>
<path d="M 0.04738676305497996 0.060562044221312 C 0.047491949497906326 0.0605286919071176 0.04853992404698214 0.06003384901291442 0.048649000370096285 0.06016181645097922 C 0.04853992404698214 0.06003384901291442 0.04586358441156966 0.05893181984066398 0.04607784717761017 0.059026434964534386" fill="none" stroke="none" stroke-width="0"/>
<path d="M 0.04607784717761017 0.059026434964534386 C 0.046217054408656026 0.05898083008840479 0.047621355181019745 0.058336565707186955 0.04774833395016047 0.05847917645097919 C 0.047621355181019745 0.058336565707186955 0.04428791594773493 0.057218100171364944 0.04455410194792151 0.05731510603902758" fill="none" stroke="none" stroke-width="0"/>
<path d="M 0.04455410194792151 0.05731510603902758 C 0.04474523241311344 0.057271891906690214 0.046773117353018895 0.05663479975684907 0.04684766753022465 0.05679653645097918 C 0.046773117353018895 0.05663479975684907 0.0433938191790547 0.05525574314767349 0.04365949982145239 0.055374265709466235" fill="none" stroke="none" stroke-width="0"/>
<path d="M 0.04365949982145239 0.055374265709466235 C 0.04385012492885543 0.05535256827125898 0.045898025855978186 0.05496112504606993 0.04594700111028884 0.05511389645097916 C 0.045898025855978186 0.05496112504606993 0.04283219640801081 0.05340993488385355 0.0430717967697245 0.05354100885055552" fill="none" stroke="none" stroke-width="0"/>
<path d="M 0.0430717967697245 0.05354100885055552 C 0.04364914703891413 0.05360952529867593 0.05115470053837927 0.05436320622800043 0.05000000000000002 0.05436320622800043 C 0.05115470053837927 0.05436320622800043 0.057505553499465144 0.05347249240243512 0.05692820323027552 0.05354100885055553" fill="none" stroke="none" stroke-width="0"/>
<path d="M 0.05692820323027552 0.05354100885055553 C 0.056688602868561824 0.0536720828172575 0.05400402363540053 0.0552666678558884 0.054052998889711185 0.05511389645097917 C 0.05400402363540053 0.0552666678558884 0.056531125285950674 0.055395963147673505 0.05634050017854764 0.05537426570946625" fill="none" stroke="none" stroke-width="0"/>
<path d="M 0.05634050017854764 0.05537426570946625 C 0.05607481953614995 0.055492788271258996 0.05307778229256961 0.0569582731451093 0.05315233246977537 0.05679653645097919 C 0.05307778229256961 0.0569582731451093 0.05563702851727045 0.05735832017136495 0.055445898052078516 0.057315106039027584" fill="none" stroke="none" stroke-width="0"/>
<path d="M 0.055445898052078516 0.057315106039027584 C 0.055179712051891934 0.05741211190669022 0.052124687280698835 0.058621787194771444 0.05225166604983956 0.058479176450979206 C 0.052124687280698835 0.058621787194771444 0.05406136005343572 0.05907203984066399 0.05392215282238986 0.05902643496453439" fill="none" stroke="none" stroke-width="0"/>
<path d="M 0.05392215282238986 0.05902643496453439 C 0.05370789005634935 0.05912105008840479 0.05124192330678959 0.06028978388904402 0.051350999629903735 0.06016181645097922 C 0.05124192330678959 0.06028978388904402 0.052718423387946425 0.0605953965355064 0.05261323694502006 0.060562044221312" fill="none" stroke="none" stroke-width="0"/>
<path d="M 0.05261323694502006 0.060562044221312 C 0.052479029828310236 0.06064004804913819 0.0507849817990838 0.061538620512401956 0.05100275154450214 0.06149809015522631 C 0.0507849817990838 0.061538620512401956 0.0499164373712915 0.06101093503676924 0.05000000000000001 0.061048408507419785" fill="none" stroke="none" stroke-width="0"/>
</g><g id="獣性">
<g transform="translate(0.3373434528286706,0.23916577780668663) rotate(0) scale(1,1) translate(-0.028511229159074496,-0.0285112291590745)"><path d="M 0.02851122915907442 0.03214078877913252 C 0.028728652178515276 0.03184615480841994 0.03173659778515126 0.02793418670622697 0.031120305392364708 0.028605181130581525 C 0.03173659778515126 0.02793418670622697 0.03630560724585875 0.023712495233235875 0.03590673787251305 0.02408885568687785" fill="none" stroke="#000000" stroke-width="0.001"/>
<path d="M 0.03590673787251305 0.02408885568687785 C 0.03581983201900505 0.02438095735475135 0.0353921860334316 0.02745228799267032 0.034863867630417086 0.027594075701359883 C 0.0353921860334316 0.02745228799267032 0.04286178296520965 0.021953513806040017 0.04224655870868715 0.022387403182603082" fill="none" stroke="#000000" stroke-width="0.001"/>
<path d="M 0.04224655870868715 0.022387403182603082 C 0.04216233051462598 0.02264626659348122 0.04176688797014803 0.025486758557297567 0.041235820379953145 0.02549376411314074 C 0.04176688797014803 0.025486758557297567 0.04923466557528178 0.022037467545763727 0.04861936979102573 0.022303336512485037" fill="none" stroke="#000000" stroke-width="0.001"/>
<path d="M 0.04861936979102573 0.022303336512485037 C 0.04851758163230065 0.022526315841868698 0.048057274878270655 0.025187292441190338 0.04739791188632487 0.024979088465088988 C 0.048057274878270655 0.025187292441190338 0.05729287684504602 0.024787008872418904 0.05653172569437516 0.02480178422570122" fill="none" stroke="#000000" stroke-width="0.001"/>
<path d="M 0.05653172569437516 0.02480178422570122 C 0.055614956385426906 0.02554326110279034 0.044087596440691136 0.034864193604489 0.04553049398699613 0.03369950675077066 C 0.044087596440691136 0.034864193604489 0.03845584191366206 0.03996562479516142 0.03921695513871526 0.03877802647032134 C 0.03845584191366206 0.03996562479516142 0.036162150298661315 0.048715074997062506 0.036397135286357775 0.047950686648851645" fill="none" stroke="none" stroke-width="0"/>
<path d="M 0.036397135286357775 0.047950686648851645 C 0.036163396790372476 0.048202751594063925 0.032935114490593935 0.05132560457871822 0.03359227333453421 0.05097546599139899 C 0.032935114490593935 0.05132560457871822 0.027664388463164474 0.052152349696682476 0.028511229159074433 0.052152349696682476 C 0.027664388463164474 0.052152349696682476 0.022773026139674437 0.050625327404079754 0.023430184983614714 0.05097546599139899 C 0.022773026139674437 0.050625327404079754 0.020391584535805807 0.047698621703639366 0.02062532303179111 0.047950686648851645" fill="none" stroke="none" stroke-width="0"/>
<path d="M 0.02062532303179111 0.047950686648851645 C 0.020390338044094652 0.047186298300640785 0.01704438995438042 0.037590428145481254 0.017805503179433618 0.03877802647032134 C 0.01704438995438042 0.037590428145481254 0.010049066784847734 0.032534819897052314 0.01149196433115272 0.03369950675077066 C 0.010049066784847734 0.032534819897052314 -0.0004260366851744599 0.024060307348612097 0.0004907326237737847 0.02480178422570122" fill="none" stroke="none" stroke-width="0"/>
<path d="M 0.0004907326237737847 0.02480178422570122 C 0.0012518837744446378 0.024816559578983533 0.010283909423769805 0.02477088448898764 0.009624546431824024 0.024979088465088988 C 0.010283909423769805 0.02477088448898764 0.008301300368398094 0.022080357183101376 0.008403088527123166 0.022303336512485037" fill="none" stroke="#000000" stroke-width="0.001"/>
<path d="M 0.008403088527123166 0.022303336512485037 C 0.009018384311379213 0.022569205479206347 0.01631770552839061 0.02550076966898391 0.01578663793819573 0.02549376411314074 C 0.01631770552839061 0.02550076966898391 0.014691671415400573 0.022128539771724944 0.014775899609461738 0.022387403182603082" fill="none" stroke="#000000" stroke-width="0.001"/>
<path d="M 0.014775899609461738 0.022387403182603082 C 0.015391123865984244 0.022821292559166147 0.022686909090746315 0.027735863410049445 0.022158590687731808 0.027594075701359883 C 0.022686909090746315 0.027735863410049445 0.021028814592127843 0.023796754019004347 0.021115720445635842 0.02408885568687785" fill="none" stroke="#000000" stroke-width="0.001"/>
<path d="M 0.021115720445635842 0.02408885568687785 C 0.021514589818981536 0.024465216140519823 0.02651844531857073 0.02927617555493608 0.025902152925784183 0.028605181130581525 C 0.02651844531857073 0.02927617555493608 0.028728652178515272 0.0324354227498451 0.02851122915907442 0.03214078877913252" fill="none" stroke="#000000" stroke-width="0.001"/>
</g></g>
<g id="鱗">
<g transform="translate(0.3373434528286706,0.23916577780668663) rotate(0) scale(1,1) translate(-0.015058466988291021,-0.015058466988291016)"><path d="M 0.015058466988291 0.014925847911407244 C 0.015886498031570283 0.014868438831877969 0.02601736459867024 0.014299491601619987 0.02499483950764238 0.014236938957055937 C 0.02601736459867024 0.014299491601619987 0.027523262128373905 0.01579644137026918 0.027328768080625326 0.015676479646175856" fill="none" stroke="#000000" stroke-width="0.001"/>
<path d="M 0.027328768080625326 0.015676479646175856 C 0.027153349142000988 0.01587303171081123 0.024848347242383394 0.018489205328666478 0.025223740817133262 0.01803510442180032 C 0.024848347242383394 0.018489205328666478 0.02262407054750141 0.021383239370800528 0.022824045183626934 0.021125690528569743" fill="none" stroke="#000000" stroke-width="0.001"/>
<path d="M 0.022824045183626934 0.021125690528569743 C 0.02217691366734894 0.021199758044221313 0.013764203955735013 0.022014500716388608 0.015058466988291 0.022014500716388608 C 0.013764203955735013 0.022014500716388608 0.0066457572766770966 0.021051623012918172 0.00729288879295509 0.021125690528569743" fill="none" stroke="#000000" stroke-width="0.001"/>
<path d="M 0.00729288879295509 0.021125690528569743 C 0.007092914156829562 0.020868141686338958 0.004517799584698896 0.017581003514934163 0.004893193159448762 0.01803510442180032 C 0.004517799584698896 0.017581003514934163 0.0026127469573323657 0.015479927581540483 0.002788165895956704 0.015676479646175856" fill="none" stroke="#000000" stroke-width="0.001"/>
<path d="M 0.002788165895956704 0.015676479646175856 C 0.002982659943705283 0.015556517922082529 0.006144619559967514 0.014174386312491887 0.005122094468939656 0.014236938957055937 C 0.006144619559967514 0.014174386312491887 0.01588649803157028 0.014983256990936519 0.015058466988291 0.014925847911407244" fill="none" stroke="#000000" stroke-width="0.001"/>
</g><g transform="translate(0.3373434528286706,0.24523300134696535) rotate(0) scale(1,1) translate(-0.015058466988291021,-0.015058466988291016)"><path d="M 0.015058466988291 0.013471133912916594 C 0.015768400104022574 0.013430792549434937 0.024454351826989906 0.013049548370849573 0.023577664377069894 0.01298703755113671 C 0.024454351826989906 0.013049548370849573 0.02574547072151958 0.01432411593266545 0.02557871638733114 0.014221263749470931" fill="none" stroke="#000000" stroke-width="0.001"/>
<path d="M 0.02557871638733114 0.014221263749470931 C 0.025428316574828098 0.014389782575887683 0.023452065571143467 0.016632824431496333 0.023773918637294632 0.01624348966647196 C 0.023452065571143467 0.016632824431496333 0.02154502633986902 0.019114096868371 0.021716479593517145 0.018893280929763383" fill="none" stroke="#000000" stroke-width="0.001"/>
<path d="M 0.021716479593517145 0.018893280929763383 C 0.021161645209748302 0.01895678456599515 0.013948798220753312 0.01965532456454458 0.015058466988291 0.01965532456454458 C 0.013948798220753312 0.01965532456454458 0.007845619999296038 0.018829777293531615 0.008400454383064882 0.018893280929763383" fill="none" stroke="#000000" stroke-width="0.001"/>
<path d="M 0.008400454383064882 0.018893280929763383 C 0.008229001129416758 0.018672464991155765 0.0060211622731362255 0.01585415490144759 0.006343015339287392 0.01624348966647196 C 0.0060211622731362255 0.01585415490144759 0.004387817776747846 0.014052744923054179 0.004538217589250888 0.014221263749470931" fill="none" stroke="#000000" stroke-width="0.001"/>
<path d="M 0.004538217589250888 0.014221263749470931 C 0.004704971923439326 0.014118411566276412 0.0074159570494321545 0.012924526731423849 0.006539269599512145 0.01298703755113671 C 0.0074159570494321545 0.012924526731423849 0.01576840010402257 0.013511475276398252 0.015058466988291 0.013471133912916594" fill="none" stroke="#000000" stroke-width="0.001"/>
</g><g transform="translate(0.3373434528286706,0.24906781528843772) rotate(0) scale(1,1) translate(-0.015058466988291021,-0.015058466988291016)"><path d="M 0.015058466988291 0.013590970339834807 C 0.01566714589339136 0.013565262409399478 0.023114263751870482 0.01334495013474192 0.02236261384949531 0.01328247517461085 C 0.023114263751870482 0.01334495013474192 0.02422123681406785 0.014428852751974048 0.02407826581679304 0.014340669861407649" fill="none" stroke="#000000" stroke-width="0.001"/>
<path d="M 0.02407826581679304 0.014340669861407649 C 0.023949316777548246 0.014485153690206712 0.022254928573264138 0.016408281701159176 0.022530877345855495 0.016074475806996405 C 0.022254928573264138 0.016408281701159176 0.020619880812350208 0.018535662656724607 0.020766880545696767 0.0183463405913609" fill="none" stroke="#000000" stroke-width="0.001"/>
<path d="M 0.020766880545696767 0.0183463405913609 C 0.020291179415912953 0.018236975495381696 0.014107064728723376 0.017033959439610443 0.015058466988291 0.017033959439610443 C 0.014107064728723376 0.017033959439610443 0.008874352301101448 0.018455705687340104 0.00935005343088526 0.0183463405913609" fill="none" stroke="#000000" stroke-width="0.001"/>
<path d="M 0.00935005343088526 0.0183463405913609 C 0.0092030536975387 0.018157018525997194 0.007310107858135182 0.015740669912833634 0.007586056630726538 0.016074475806996405 C 0.007310107858135182 0.015740669912833634 0.005909719120544197 0.014196186032608585 0.0060386681597889924 0.014340669861407649" fill="none" stroke="#000000" stroke-width="0.001"/>
<path d="M 0.0060386681597889924 0.014340669861407649 C 0.006181639157063805 0.01425248697084125 0.008505970029461903 0.01322000021447978 0.0077543201270867355 0.01328247517461085 C 0.008505970029461903 0.01322000021447978 0.015667145893391354 0.013616678270270136 0.015058466988291 0.013590970339834807" fill="none" stroke="#000000" stroke-width="0.001"/>
</g><g transform="translate(0.3373434528286706,0.2523556888915076) rotate(0) scale(1,1) translate(-0.015058466988291021,-0.015058466988291016)"><path d="M 0.015058466988291 0.01369371509636381 C 0.015580333064551422 0.013680553505586574 0.021965305738464953 0.01359822022205912 0.02132085990341604 0.013535776007036988 C 0.021965305738464953 0.01359822022205912 0.022914396767666427 0.014518651482428757 0.022791817008877936 0.01444304567662939" fill="none" stroke="#000000" stroke-width="0.001"/>
<path d="M 0.022791817008877936 0.01444304567662939 C 0.02268125932635543 0.014566922499345986 0.02122853323970735 0.016215764377736353 0.02146512481860786 0.01592956754922855 C 0.02122853323970735 0.016215764377736353 0.01982668416569377 0.01803972762451425 0.019952718062071776 0.017877407618723043" fill="none" stroke="#000000" stroke-width="0.001"/>
<path d="M 0.019952718062071776 0.017877407618723043 C 0.019764045153719708 0.0180696854266894 0.017280788905698556 0.02040927212220238 0.017688643161846953 0.020184741314319354 C 0.017280788905698556 0.02040927212220238 0.01462010429269836 0.020571777313319356 0.015058466988291016 0.020571777313319356 C 0.01462010429269836 0.020571777313319356 0.012020436558586683 0.01996021050643633 0.01242829081473508 0.020184741314319354 C 0.012020436558586683 0.01996021050643633 0.009975543006158192 0.017685129810756685 0.01016421591451026 0.017877407618723043" fill="none" stroke="#000000" stroke-width="0.001"/>
<path d="M 0.01016421591451026 0.017877407618723043 C 0.010038182018132252 0.017715087612931835 0.008415217579073661 0.015643370720720747 0.008651809157974175 0.01592956754922855 C 0.008415217579073661 0.015643370720720747 0.007214559285181591 0.014319168853912793 0.007325116967704097 0.01444304567662939" fill="none" stroke="#000000" stroke-width="0.001"/>
<path d="M 0.007325116967704097 0.01444304567662939 C 0.0074476967264925885 0.014367439870830022 0.009440519908214906 0.013473331792014856 0.008796074073165997 0.013535776007036988 C 0.009440519908214906 0.013473331792014856 0.015580333064551418 0.013706876687141045 0.015058466988291 0.01369371509636381" fill="none" stroke="#000000" stroke-width="0.001"/>
</g></g>
<g id="虫性">
<g id="腹板2">
<g transform="translate(0.3373434528286705,0.22205605965101644) rotate(0) scale(1,1) translate(-0.03764899741035618,-0.03764899741035618)"><path d="M 0.02883976798464411 0.03556589500613216 C 0.029573870436786786 0.035359705967603926 0.03911720231464154 0.03309162654379338 0.03764899741035619 0.03309162654379338 C 0.03911720231464154 0.03309162654379338 0.04719232928821101 0.03577208404466039 0.04645822683606833 0.03556589500613216" fill="none" stroke="#000000" stroke-width="0.001"/>
<path d="M 0.04645822683606833 0.03556589500613216 C 0.04633071334712363 0.03607838694140351 0.044608809237652154 0.04279869046441911 0.04492806496873197 0.04171579822938834 C 0.044608809237652154 0.04279869046441911 0.0424354158209754 0.04913100212626079 0.04262715806311052 0.04856060182650137" fill="none" stroke="#000000" stroke-width="0.001"/>
<path d="M 0.04262715806311052 0.04856060182650137 C 0.04221231134204766 0.048762583729856535 0.03681930396823047 0.05098438466676332 0.03764899741035619 0.05098438466676332 C 0.03681930396823047 0.05098438466676332 0.03225599003653908 0.048358619923146204 0.032670836757601934 0.04856060182650137" fill="none" stroke="#000000" stroke-width="0.001"/>
<path d="M 0.032670836757601934 0.04856060182650137 C 0.032479094515466815 0.04799020152674195 0.03005067412090065 0.04063290599435757 0.03036992985198047 0.04171579822938834 C 0.03005067412090065 0.04063290599435757 0.028712254495699415 0.03505340307086081 0.02883976798464411 0.03556589500613216" fill="none" stroke="#000000" stroke-width="0.001"/>
</g><g transform="translate(0.3373434528286705,0.2264450678459386) rotate(0) scale(1,1) translate(-0.011152769902399133,-0.011152769902399133)"><path d="M 0.010133122315786119 0.002276707077658753 C 0.01021809294800387 0.0022708474336764423 0.011322711166834634 0.002206391349871028 0.011152769902399133 0.002206391349871028 C 0.011322711166834634 0.002206391349871028 0.012257388121229888 0.0022825667216410613 0.012172417489012138 0.002276707077658751" fill="none" stroke="#000000" stroke-width="0.001"/>
<path d="M 0.012172417489012138 0.002276707077658751 C 0.012131996680953291 0.0023137298730949553 0.011640777950030162 0.0028398097135417444 0.011687367792305984 0.0027209806228932 C 0.011640777950030162 0.0028398097135417444 0.011607170347485311 0.003784462460653619 0.011613339381702286 0.003702656165441279" fill="none" stroke="#000000" stroke-width="0.001"/>
<path d="M 0.011613339381702286 0.003702656165441279 C 0.011613339381702286 0.0043234989768544336 0.011613339381702286 0.012378662790614553 0.011613339381702286 0.01115276990239913 C 0.011613339381702286 0.012378662790614553 0.011613339381702286 0.01901842090082864 0.011613339381702286 0.01841337082402637" fill="none" stroke="#000000" stroke-width="0.001"/>
<path d="M 0.011613339381702286 0.01841337082402637 C 0.011628549418310322 0.018490367507199762 0.011895391399474512 0.019440367955666487 0.01179585982099871 0.019337331022107055 C 0.011895391399474512 0.019440367955666487 0.012892039865279675 0.019675854277125607 0.01280771832341191 0.019649814026739564" fill="none" stroke="#000000" stroke-width="0.001"/>
<path d="M 0.01280771832341191 0.019649814026739564 C 0.012673301471422798 0.01970766943900993 0.01091889136270712 0.020344078973983944 0.011194716099542583 0.020344078973983944 C 0.01091889136270712 0.020344078973983944 0.009356413596539999 0.019591958614469197 0.009497821481386351 0.019649814026739564" fill="none" stroke="#000000" stroke-width="0.001"/>
<path d="M 0.009497821481386351 0.019649814026739564 C 0.009582143023254117 0.01962377377635352 0.01060921156227535 0.019234294088547623 0.010509679983799548 0.019337331022107055 C 0.01060921156227535 0.019234294088547623 0.010707410459704006 0.018336374140852995 0.01069220042309597 0.018413370824026384" fill="none" stroke="#000000" stroke-width="0.001"/>
<path d="M 0.01069220042309597 0.018413370824026384 C 0.01069220042309597 0.01780832074722411 0.01069220042309597 0.009926877014183712 0.01069220042309597 0.011152769902399136 C 0.01069220042309597 0.009926877014183712 0.01069220042309597 0.0030818133540281337 0.01069220042309597 0.0037026561654412878" fill="none" stroke="#000000" stroke-width="0.001"/>
<path d="M 0.01069220042309597 0.0037026561654412878 C 0.010686031388878995 0.0036208498702289477 0.010571582170216457 0.0026021515322446624 0.010618172012492278 0.002720980622893207 C 0.010571582170216457 0.0026021515322446624 0.010092701507727272 0.0022396842822225483 0.010133122315786119 0.002276707077658753" fill="none" stroke="#000000" stroke-width="0.001"/>
</g></g>
<g id="腹板1">
<g transform="translate(0.3373434528286706,0.23916577780668663) rotate(0) scale(1,1) translate(-0.5000000158677831,-0.5162142508926452)"><path d="M 0.5000000158677831 0.5023825873966268 C 0.5008979041908314 0.5027894240577797 0.5086762209037895 0.505435476467591 0.5071831224521689 0.5056372806858499 C 0.5086762209037895 0.505435476467591 0.51254001360932 0.500159512771144 0.5119448034807477 0.5007681536505558" fill="none" stroke="#000000" stroke-width="0.001"/>
<path d="M 0.5119448034807477 0.5007681536505558 C 0.5118241100906331 0.5001155448598783 0.5095010838316265 0.4919735125100829 0.5104964827993735 0.492936848162426 C 0.5095010838316265 0.4919735125100829 0.49912531029015056 0.48889739896077344 0.5000000158677831 0.489208125822439" fill="none" stroke="#000000" stroke-width="0.001"/>
<path d="M 0.5000000158677831 0.489208125822439 C 0.49912531029015056 0.48951885268410456 0.4885081499684456 0.4939001838147691 0.48950354893619263 0.492936848162426 C 0.4885081499684456 0.4939001838147691 0.48793453486470395 0.5014207624412333 0.48805522825481845 0.5007681536505558" fill="none" stroke="#000000" stroke-width="0.001"/>
<path d="M 0.48805522825481845 0.5007681536505558 C 0.4886504383833908 0.5013767945299676 0.4943100077350177 0.5058390849041088 0.4928169092833971 0.5056372806858499 C 0.4943100077350177 0.5058390849041088 0.5008979041908314 0.5019757507354738 0.5000000158677831 0.5023825873966268" fill="none" stroke="#000000" stroke-width="0.001"/>
</g><g transform="translate(0.3373434528286706,0.2187468835235747) rotate(0) scale(1,1) translate(-0.011152769902399133,-0.011152769902399133)"><path d="M 0.010133122315786119 0.004864502173448705 C 0.010303063580221622 0.004814674985643374 0.011492652431270137 0.004565539046616721 0.011152769902399133 0.004565539046616721 C 0.011492652431270137 0.004565539046616721 0.012342358753447639 0.004914329361254033 0.012172417489012138 0.004864502173448703" fill="none" stroke="#000000" stroke-width="0.001"/>
<path d="M 0.012172417489012138 0.004864502173448703 C 0.012131996680953291 0.004901306912114655 0.011640777950030162 0.005424770071318417 0.011687367792305984 0.005306159037440125 C 0.011640777950030162 0.005424770071318417 0.011607170347485311 0.006369640875200545 0.011613339381702286 0.006287834579988205" fill="none" stroke="#000000" stroke-width="0.001"/>
<path d="M 0.011613339381702286 0.006287834579988205 C 0.011613339381702286 0.006693245856855782 0.011613339381702286 0.011967323047020705 0.011613339381702286 0.01115276990239913 C 0.011613339381702286 0.011967323047020705 0.011613339381702286 0.016471614183201113 0.011613339381702286 0.016062472315447114" fill="none" stroke="#000000" stroke-width="0.001"/>
<path d="M 0.011613339381702286 0.016062472315447114 C 0.011625426226556065 0.016159100489647263 0.011857913098423432 0.01743367775639381 0.01175838151994763 0.017222010405848902 C 0.011857913098423432 0.01743367775639381 0.012895163057033933 0.018717519698330784 0.01280771832341191 0.018602480521986025" fill="none" stroke="#000000" stroke-width="0.001"/>
<path d="M 0.01280771832341191 0.018602480521986025 C 0.012531893586576446 0.01845873373546447 0.010601120428728206 0.01773999980285669 0.011152769902399133 0.01773999980285669 C 0.010601120428728206 0.01773999980285669 0.009221996744550888 0.01874622730850758 0.009497821481386351 0.018602480521986025" fill="none" stroke="#000000" stroke-width="0.001"/>
<path d="M 0.009497821481386351 0.018602480521986025 C 0.009585266215008374 0.018487441345641266 0.01064668986332643 0.017010343055303995 0.010547158284850628 0.017222010405848902 C 0.01064668986332643 0.017010343055303995 0.010704287267949749 0.01596584414124698 0.01069220042309597 0.016062472315447128" fill="none" stroke="#000000" stroke-width="0.001"/>
<path d="M 0.01069220042309597 0.016062472315447128 C 0.01069220042309597 0.01565333044769313 0.01069220042309597 0.01033821675777756 0.01069220042309597 0.011152769902399136 C 0.01069220042309597 0.01033821675777756 0.01069220042309597 0.005882423303120637 0.01069220042309597 0.006287834579988214" fill="none" stroke="#000000" stroke-width="0.001"/>
<path d="M 0.01069220042309597 0.006287834579988214 C 0.010686031388878995 0.006206028284775874 0.010571582170216457 0.005187548003561839 0.010618172012492278 0.005306159037440132 C 0.010571582170216457 0.005187548003561839 0.010092701507727272 0.004827697434782752 0.010133122315786119 0.004864502173448705" fill="none" stroke="#000000" stroke-width="0.001"/>
</g></g>
</g>
</svg>
