<?xml version="1.0" encoding="UTF-8"?>
<svg xmlns="http://www.w3.org/2000/svg" viewBox="0 0 1 1">
<g id="親指">
<g transform="translate(0.20653143765555473,0.16722521439041185) rotate(0) scale(1,1) translate(-0.017815859593261256,-0.014881607178823718)"><path d="M 0.01772383035363282 0.016329879346712806 C 0.017606012639067928 0.016307407169266677 0.016062920545164828 0.016026718135378343 0.01631001777885412 0.01606021321735923 C 0.016062920545164828 0.016026718135378343 0.014629384030236925 0.015916915458407378 0.014758663549361324 0.015927938362942137" fill="none" stroke="#000000" stroke-width="0.001"/>
<path d="M 0.014758663549361324 0.015927938362942137 C 0.014591088781193069 0.01592541399507869 0.012546784410263218 0.01582418656452059 0.012747766331342256 0.015897645948580744 C 0.012546784410263218 0.01582418656452059 0.01238674203410247 0.014900735713610653 0.012346880496412855 0.015046425754220286 C 0.01238674203410247 0.014900735713610653 0.013412250405766657 0.014029402350247418 0.013226104783617635 0.014149365461265164 C 0.013412250405766657 0.014029402350247418 0.014693504893749734 0.01356166033540252 0.014580627962201111 0.013606868422007338" fill="none" stroke="#000000" stroke-width="0.001"/>
<path d="M 0.014580627962201111 0.013606868422007338 C 0.014707848683064921 0.013588298238061134 0.016382341968836363 0.013357776931108494 0.016107276612566827 0.013384026214652884 C 0.016382341968836363 0.013357776931108494 0.01802925687284128 0.013284197919876471 0.017881412237435553 0.013291877019474657" fill="none" stroke="#000000" stroke-width="0.001"/>
<path d="M 0.017881412237435553 0.013291877019474657 C 0.017946616537268492 0.01337736215716605 0.018724754968778255 0.014508304053091484 0.01866386383543084 0.014317698671771377 C 0.018724754968778255 0.014508304053091484 0.0185337697141214 0.01574682331822774 0.01861210583760457 0.015579141595315954 C 0.0185337697141214 0.01574682331822774 0.017649807396635176 0.016392440825995877 0.01772383035363282 0.016329879346712806" fill="none" stroke="none" stroke-width="0"/>
</g><g transform="translate(0.2099275913326711,0.1641098754981128) rotate(0) scale(1,1) translate(-0.018110482705012847,-0.015186404574128454)"><path d="M 0.019080991269910218 0.016933836853198006 C 0.01896300272178568 0.017011306031759845 0.017391676808403117 0.018074793746202154 0.017665128692415762 0.017863466995940065 C 0.017391676808403117 0.018074793746202154 0.01564410532587036 0.01960361542804333 0.015799568661758467 0.01946975785634308" fill="none" stroke="#000000" stroke-width="0.001"/>
<path d="M 0.015799568661758467 0.01946975785634308 C 0.01570733009520219 0.01950154214314616 0.014508390942765619 0.019860531771604403 0.01469270586308311 0.01985116929798001 C 0.014508390942765619 0.019860531771604403 0.013495713264187343 0.019559685726657082 0.013587789617948556 0.019582107539835768" fill="none" stroke="#000000" stroke-width="0.001"/>
<path d="M 0.013587789617948556 0.019582107539835768 C 0.013550948567610901 0.01947607318060391 0.013149138661903837 0.01810566369044314 0.013145697013896689 0.018309695229053458 C 0.013149138661903837 0.01810566369044314 0.013669372092379131 0.01703573189713351 0.013629089394034328 0.01713372907651197" fill="none" stroke="none" stroke-width="0"/>
<path d="M 0.013629089394034328 0.01713372907651197 C 0.01377148284349515 0.016993199491702304 0.015606905522422563 0.01516062936182074 0.01533781078756419 0.015447374058795994 C 0.015606905522422563 0.01516062936182074 0.016984927497732356 0.013546577600643341 0.016858226212334803 0.01369279271280893" fill="none" stroke="#000000" stroke-width="0.001"/>
<path d="M 0.016858226212334803 0.01369279271280893 C 0.016992959684453454 0.013710088879741535 0.01869724817087738 0.01402938584924948 0.018475027877758607 0.01390034671600018 C 0.01869724817087738 0.01402938584924948 0.01957536667910608 0.015494053156567019 0.019524869729760114 0.015241262311800534 C 0.01957536667910608 0.015494053156567019 0.019044001398256058 0.017074884731647796 0.019080991269910218 0.016933836853198006" fill="none" stroke="none" stroke-width="0"/>
</g><g transform="translate(0.21570048930888042,0.15816265832450613) rotate(0) scale(1,1) translate(-0.02374131944444444,-0.01749131944444444)"><path d="M 0.02829941846051314 0.01890443727186034 C 0.027986329256188946 0.019213879072450528 0.02377628431367017 0.02313505700026735 0.024542348008622806 0.02261773887894262 C 0.02377628431367017 0.02313505700026735 0.018653679630453068 0.02532013104849167 0.01910665412108151 0.02511225472775713" fill="none" stroke="#000000" stroke-width="0.001"/>
<path d="M 0.01910665412108151 0.02511225472775713 C 0.019004457986322446 0.02513147598521461 0.01766457234211841 0.0253062093461964 0.017880300503972754 0.025342909817246902 C 0.01766457234211841 0.0253062093461964 0.016404384151734085 0.024615927346643134 0.01651791617882937 0.024671849075151117" fill="none" stroke="none" stroke-width="0"/>
<path d="M 0.01651791617882937 0.024671849075151117 C 0.016496599243764936 0.024544647404316892 0.01628813567776945 0.022903176477906566 0.01626211295805617 0.023145429025140402 C 0.01628813567776945 0.022903176477906566 0.016877528470166433 0.02164976763194545 0.01683018881538872 0.021764818508345062" fill="none" stroke="none" stroke-width="0"/>
<path d="M 0.01683018881538872 0.021764818508345062 C 0.016936661404288955 0.02142407373419627 0.01835749417685929 0.017132479344337127 0.018107859882191508 0.01767588121855956 C 0.01835749417685929 0.017132479344337127 0.019968962057169658 0.015041338917602233 0.019825800351402106 0.015243996017675874" fill="none" stroke="#000000" stroke-width="0.001"/>
<path d="M 0.019825800351402106 0.015243996017675874 C 0.019981088540863758 0.015236182900590345 0.02206088437159455 0.015175396373256354 0.021689258624941924 0.015150238612649525 C 0.02206088437159455 0.015175396373256354 0.02466094118800907 0.01579237758892424 0.024285309311233617 0.015545889144957817 C 0.02466094118800907 0.01579237758892424 0.02653135024202065 0.018387978950821813 0.026196841146247356 0.018108099940246602 C 0.02653135024202065 0.018387978950821813 0.028474633236701956 0.018970798716161485 0.02829941846051314 0.01890443727186034" fill="none" stroke="none" stroke-width="0"/>
</g><g transform="translate(0.20831857836764825,0.16557889145135235) rotate(0) scale(1,1) translate(-0.00967276663863141,-0.00967276663863141)"><path d="M 0.006396573659552826 0.010792642028990015 C 0.006287045715992608 0.01060369970746725 0.004639505020593394 0.00820179376328956 0.0050822383368302046 0.008525334170716842 C 0.004639505020593394 0.00820179376328956 0.0007505684920345091 0.006775559053958121 0.001083773864711101 0.006910157139862638" fill="none" stroke="#000000" stroke-width="0.001"/>
<path d="M 0.001083773864711101 0.006910157139862638 C 0.0014506014222219771 0.006810612406658657 0.006291215983316783 0.005681668504169769 0.0054857045548416155 0.005715620341414861 C 0.006291215983316783 0.005681668504169769 0.011188594877377412 0.006568327988880429 0.01074991100641312 0.0065027350929215385" fill="none" stroke="none" stroke-width="0"/>
<path d="M 0.01074991100641312 0.0065027350929215385 C 0.010812083161937776 0.006523578334694941 0.011568058066180581 0.006838715183819935 0.011495976872708988 0.006752853994202371 C 0.011568058066180581 0.006838715183819935 0.011624794366019181 0.007598087316176467 0.011614885328072243 0.0075330693683323055" fill="none" stroke="#000000" stroke-width="0.001"/>
<path d="M 0.011614885328072243 0.0075330693683323055 C 0.01138882586510574 0.0076913569811959915 0.008467312466764252 0.00970415177775135 0.008902171772474203 0.009432520722696541 C 0.008467312466764252 0.00970415177775135 0.0061877738168093785 0.010905985471181137 0.006396573659552826 0.010792642028990015" fill="none" stroke="#000000" stroke-width="0.001"/>
</g></g>
<g id="人指">
<g transform="translate(0.19742589928890755,0.16198456782909015) rotate(0) scale(1,1) translate(-0.018347050754458152,-0.012212198913662067)"><path d="M 0.018410960493605927 0.013623072061520445 C 0.01828619411634823 0.01360050731120016 0.016670140082949265 0.013299177904824388 0.01691376396651356 0.013352295057677044 C 0.016670140082949265 0.013299177904824388 0.015368616384527831 0.012955113824756198 0.015487473890834425 0.012985666227288572" fill="none" stroke="#000000" stroke-width="0.001"/>
<path d="M 0.015487473890834425 0.012985666227288572 C 0.015386410302900864 0.012935711415851564 0.014142304660463657 0.012274623776248338 0.014274710835631695 0.012386208490044492 C 0.014142304660463657 0.012274623776248338 0.013911874821257239 0.011526717571751176 0.01389859978881798 0.011646649661734737 C 0.013911874821257239 0.011526717571751176 0.014556152319087499 0.010865501580839088 0.014434011224902793 0.010947023410241771 C 0.014556152319087499 0.010865501580839088 0.015441816393545428 0.010645168067124266 0.015364292919034456 0.010668387708902535" fill="none" stroke="#000000" stroke-width="0.001"/>
<path d="M 0.015364292919034456 0.010668387708902535 C 0.015484146314119668 0.01067011918604235 0.017063341089600198 0.010697600866137899 0.016802533660057004 0.010689165434580318 C 0.017063341089600198 0.010697600866137899 0.01863493610801079 0.010776316842011276 0.018493982073552805 0.01076961288759351" fill="none" stroke="#000000" stroke-width="0.001"/>
<path d="M 0.018493982073552805 0.01076961288759351 C 0.018565160093329452 0.010848397389682223 0.019405978072983724 0.011889007309594081 0.01934811831087256 0.01171502691265807 C 0.019405978072983724 0.011889007309594081 0.019110202734114533 0.013016381413230829 0.01918829921888675 0.012857377650825631 C 0.019110202734114533 0.013016381413230829 0.018346182266499193 0.013686879929078346 0.018410960493605927 0.013623072061520445" fill="none" stroke="none" stroke-width="0"/>
</g><g transform="translate(0.20063840144929435,0.161451947096036) rotate(0) scale(1,1) translate(-0.018347050754458152,-0.013480335131195698)"><path d="M 0.018661454264997566 0.014893908169652312 C 0.01852064423272355 0.01491627359331684 0.01668315981889861 0.015206456699782954 0.0169717338777094 0.015162293253626665 C 0.01668315981889861 0.015206456699782954 0.015050801532731337 0.015445667546019542 0.015198565559268112 0.015423869523527782" fill="none" stroke="#000000" stroke-width="0.001"/>
<path d="M 0.015198565559268112 0.015423869523527782 C 0.01512105221171589 0.015397475087938725 0.014141924580727756 0.015008728979554378 0.014268405388641464 0.015107136296459094 C 0.014141924580727756 0.015008728979554378 0.013662862680254118 0.014081708894720005 0.013680795864303605 0.014242981720671195 C 0.013662862680254118 0.014081708894720005 0.014155601998920152 0.013033443404754357 0.014053207180047631 0.013171862385044824 C 0.014155601998920152 0.013033443404754357 0.01498089423333437 0.01253279492153066 0.014909533690773852 0.012581953957185596" fill="none" stroke="none" stroke-width="0"/>
<path d="M 0.014909533690773852 0.012581953957185596 C 0.015048587368650114 0.012566535317633262 0.016842076833252603 0.012345396410747483 0.016578177825288993 0.01239693028255759 C 0.016842076833252603 0.012345396410747483 0.018201167116424513 0.01192743226320652 0.018076321786337165 0.011963547495464296" fill="none" stroke="#000000" stroke-width="0.001"/>
<path d="M 0.018076321786337165 0.011963547495464296 C 0.018162856253343858 0.012014806252504163 0.01922245491879246 0.012752821941115872 0.01911473539041746 0.012578652579942708 C 0.01922245491879246 0.012752821941115872 0.019331182699718813 0.0142465177953514 0.019368956126837138 0.014053579829542267 C 0.019331182699718813 0.0142465177953514 0.018602495776510936 0.01496393553132815 0.018661454264997566 0.014893908169652312" fill="none" stroke="none" stroke-width="0"/>
</g><g transform="translate(0.20455566458223026,0.16000240071087823) rotate(0) scale(1,1) translate(-0.0213073592558212,-0.01473294942839358)"><path d="M 0.021923574422276913 0.016295330231665052 C 0.021759961987672688 0.016344808255157887 0.01960776129324519 0.016997475500835732 0.019960225207026214 0.016889066513579083 C 0.01960776129324519 0.016997475500835732 0.017505155977727845 0.01765516904250864 0.017694007456904644 0.01759623807874483" fill="none" stroke="#000000" stroke-width="0.001"/>
<path d="M 0.017694007456904644 0.01759623807874483 C 0.01762457091854221 0.0175933397070631 0.016716380179318868 0.017484666396977287 0.016860768996555434 0.017561457618564057 C 0.016716380179318868 0.017484666396977287 0.015886389371191707 0.016600850569798542 0.01596134165006584 0.016674743419703583" fill="none" stroke="none" stroke-width="0"/>
<path d="M 0.01596134165006584 0.016674743419703583 C 0.01596821835368835 0.016596656830259116 0.01611690404606203 0.015576795116540637 0.016043862093535963 0.01573770434636998 C 0.01611690404606203 0.015576795116540637 0.0169040103292822 0.014661010021366602 0.016837845080378642 0.014743832661751477" fill="none" stroke="none" stroke-width="0"/>
<path d="M 0.016837845080378642 0.014743832661751477 C 0.017002878696724576 0.01468131704064168 0.019139356727278747 0.013862539872048139 0.018818248476529867 0.013993645208433911 C 0.019139356727278747 0.013862539872048139 0.020847218723768143 0.013101978909846232 0.020691144089365197 0.013170568625122206" fill="none" stroke="#000000" stroke-width="0.001"/>
<path d="M 0.020691144089365197 0.013170568625122206 C 0.020800641567418156 0.01320167856037376 0.022165357793464017 0.013700128954384008 0.022005113826000715 0.013543887848140847 C 0.022165357793464017 0.013700128954384008 0.022607276748614513 0.01527474876533383 0.02261407169892483 0.015045461900040146 C 0.022607276748614513 0.01527474876533383 0.021866032982556252 0.016399485925967128 0.021923574422276913 0.016295330231665052" fill="none" stroke="none" stroke-width="0"/>
</g><g transform="translate(0.2026375421681871,0.16071080714349115) rotate(0) scale(1,1) translate(-0.00967276663863141,-0.00967276663863141)"><path d="M 0.004805046207790561 0.009737676459567027 C 0.004792471004214885 0.009601758954861416 0.004501430074276105 0.007828414921632484 0.004654143764882447 0.008106666403099688 C 0.004501430074276105 0.007828414921632484 0.002832343433483793 0.0062563247051989875 0.0029724819205144584 0.00639865868196058" fill="none" stroke="#000000" stroke-width="0.001"/>
<path d="M 0.0029724819205144584 0.00639865868196058 C 0.0034440600997165272 0.006405676127486193 0.009279539161430839 0.006491541062514694 0.008631420070939285 0.006482868028267947 C 0.009279539161430839 0.006491541062514694 0.010926451917702605 0.006504390681642671 0.01074991100641312 0.0065027350929215385" fill="none" stroke="none" stroke-width="0"/>
<path d="M 0.01074991100641312 0.0065027350929215385 C 0.010777957030180144 0.0065496747883919525 0.011091706755355887 0.007145974193698045 0.011086463291617426 0.007066011438566508 C 0.011091706755355887 0.007145974193698045 0.01079003001124609 0.007495311214161104 0.010812832571274654 0.0074622881544999815" fill="none" stroke="none" stroke-width="0"/>
<path d="M 0.010812832571274654 0.0074622881544999815 C 0.010632203476184519 0.007573710612175127 0.008144634566569353 0.008988973338690651 0.008645283430193027 0.008799357646601731 C 0.008144634566569353 0.008988973338690651 0.004485026439257023 0.009815869693980801 0.004805046207790561 0.009737676459567027" fill="none" stroke="#000000" stroke-width="0.001"/>
</g></g>
<g id="中指">
<g transform="translate(0.19668351393208494,0.156218127551462) rotate(0) scale(1,1) translate(-0.018347050754458152,-0.012212198913662067)"><path d="M 0.01843583895836786 0.01364111266667914 C 0.01829175340609799 0.013633858958690367 0.016437648166304553 0.013532115712610836 0.01670681233112943 0.013554068170813866 C 0.016437648166304553 0.013532115712610836 0.015080790367914307 0.013362984418028518 0.015205868980469316 0.013377683168242775" fill="none" stroke="#000000" stroke-width="0.001"/>
<path d="M 0.015205868980469316 0.013377683168242775 C 0.01512732533570093 0.013350693692281855 0.01414453155985177 0.012967674973153862 0.014263345243248678 0.013053809456711732 C 0.01414453155985177 0.012967674973153862 0.013768845165502395 0.012218879803134455 0.0137801047797064 0.012344069365548334 C 0.013768845165502395 0.012218879803134455 0.014242497462500859 0.011449673139627482 0.014128229872800623 0.011551534707745184 C 0.014242497462500859 0.011449673139627482 0.01523657302138494 0.01108591353483513 0.015151315856109224 0.011121730548135905" fill="none" stroke="#000000" stroke-width="0.001"/>
<path d="M 0.015151315856109224 0.011121730548135905 C 0.015277775519237646 0.011103519776966704 0.01693187726435252 0.01087780710174337 0.016668831813650288 0.010903201294105496 C 0.01693187726435252 0.01087780710174337 0.01844444705210982 0.010809816818597471 0.01830786126453601 0.010817000239790396" fill="none" stroke="#000000" stroke-width="0.001"/>
<path d="M 0.01830786126453601 0.010817000239790396 C 0.01839371236066641 0.010881667621526226 0.019425458966984208 0.01175141974835779 0.019338074418100818 0.011593008820620355 C 0.019425458966984208 0.01175141974835779 0.019281289562825606 0.012888606693144511 0.019356475851136687 0.012717931372639612 C 0.019281289562825606 0.012888606693144511 0.018359119217303793 0.013718044441182433 0.01843583895836786 0.01364111266667914" fill="none" stroke="none" stroke-width="0"/>
</g><g transform="translate(0.2000158598440594,0.15612833204091905) rotate(0) scale(1,1) translate(-0.018347050754458152,-0.013480335131195698)"><path d="M 0.01836730264175301 0.014938364930013187 C 0.01823402590741418 0.014941485143569262 0.016490937501746284 0.01498060823093794 0.016767981829687053 0.014975807492686071 C 0.016490937501746284 0.01498060823093794 0.014899003112861861 0.014997654313731403 0.0150427707064638 0.014995973789035609" fill="none" stroke="#000000" stroke-width="0.001"/>
<path d="M 0.0150427707064638 0.014995973789035609 C 0.014951038401542934 0.014964180614479126 0.01381125040774155 0.014498011026767392 0.013941983047413418 0.014614455694357821 C 0.01381125040774155 0.014498011026767392 0.01347118971796765 0.01342794320073518 0.01347397903040136 0.013598637777950446 C 0.01347118971796765 0.01342794320073518 0.014033866003968313 0.012447569273860681 0.013908511298208887 0.012566120767774629 C 0.014033866003968313 0.012447569273860681 0.01506737918295661 0.01214351144125044 0.014978235499514478 0.01217601985098307" fill="none" stroke="none" stroke-width="0"/>
<path d="M 0.014978235499514478 0.01217601985098307 C 0.015123156976421845 0.012165599654051545 0.016994465143312494 0.012032797773123627 0.016717293222402885 0.012050977487804761 C 0.016994465143312494 0.012032797773123627 0.01843654899443202 0.011950103757059854 0.018304298550429778 0.011957863274809463" fill="none" stroke="#000000" stroke-width="0.001"/>
<path d="M 0.018304298550429778 0.011957863274809463 C 0.018387695115983364 0.012013261268604547 0.019396508799231507 0.012802917930505774 0.019305057337072815 0.01262263920035048 C 0.019396508799231507 0.012802917930505774 0.019323569871724115 0.014314185180811533 0.0194017160963341 0.014121208036672973 C 0.019323569871724115 0.014314185180811533 0.01828110152053792 0.015006461337791538 0.01836730264175301 0.014938364930013187" fill="none" stroke="none" stroke-width="0"/>
</g><g transform="translate(0.2043032790090748,0.15598236723445594) rotate(0) scale(1,1) translate(-0.0213073592558212,-0.01473294942839358)"><path d="M 0.02138134070759066 0.01641082953453807 C 0.021210533642678588 0.01640434492645414 0.018967849672866518 0.016326234383354392 0.01933165592864582 0.01633301423753094 C 0.018967849672866518 0.016326234383354392 0.016822666447371806 0.0163291760383269 0.017015665638239037 0.01632947128441952" fill="none" stroke="#000000" stroke-width="0.001"/>
<path d="M 0.017015665638239037 0.01632947128441952 C 0.016935085184107686 0.016293348014678126 0.015929896414020567 0.015780242677232718 0.01604870018866283 0.015895992047522796 C 0.015929896414020567 0.015780242677232718 0.01555179702202096 0.01486085274038989 0.015590020342531874 0.014940478840938576" fill="none" stroke="none" stroke-width="0"/>
<path d="M 0.015590020342531874 0.014940478840938576 C 0.015613346811711757 0.014853645123425836 0.01598466944315223 0.013766527954125344 0.015869937972690467 0.013898474230785694 C 0.01598466944315223 0.013766527954125344 0.017058202989354922 0.013312010961866764 0.016966797988073042 0.013357123521014374" fill="none" stroke="none" stroke-width="0"/>
<path d="M 0.016966797988073042 0.013357123521014374 C 0.01715244421304625 0.013345992256992305 0.01955010100574975 0.013198377169519113 0.01919455268775155 0.013223548352749546 C 0.01955010100574975 0.013198377169519113 0.021403279897076445 0.013041029403040805 0.02123337780405145 0.013055069322249169" fill="none" stroke="#000000" stroke-width="0.001"/>
<path d="M 0.02123337780405145 0.013055069322249169 C 0.02133394768310549 0.01311299803342817 0.022553208375553593 0.013949750907758152 0.022440216352699924 0.01375021385639718 C 0.022553208375553593 0.013949750907758152 0.02250104244120307 0.015671231911759252 0.022589282078295508 0.015449513938580847 C 0.02250104244120307 0.015671231911759252 0.021280678926698587 0.016490939167534503 0.02138134070759066 0.01641082953453807" fill="none" stroke="none" stroke-width="0"/>
</g><g transform="translate(0.2022590240614523,0.15602769910120262) rotate(0) scale(1,1) translate(-0.00967276663863141,-0.00967276663863141)"><path d="M 0.003292128672970495 0.00866993810784035 C 0.003390235572293434 0.008524475233080272 0.004511408667764928 0.006642876875054204 0.004469411464845767 0.006924383610719418 C 0.004511408667764928 0.006642876875054204 0.0037399854115966447 0.00515581341895265 0.0037960951080004235 0.005291857279857786" fill="none" stroke="#000000" stroke-width="0.001"/>
<path d="M 0.0037960951080004235 0.005291857279857786 C 0.00418913397038657 0.005346297210642779 0.00913552723337701 0.006097930087520236 0.008512561456634184 0.005945136449277702 C 0.00913552723337701 0.006097930087520236 0.011501611343271014 0.007223734646225741 0.011271684428914335 0.0071253809387682" fill="none" stroke="none" stroke-width="0"/>
<path d="M 0.011271684428914335 0.0071253809387682 C 0.011294955852868466 0.007165282537099076 0.011548741437422759 0.007678810471178212 0.011550941516363902 0.007604200118738712 C 0.011548741437422759 0.007678810471178212 0.01121981197872536 0.008055413922150829 0.011245283481620634 0.008020705168042205" fill="none" stroke="none" stroke-width="0"/>
<path d="M 0.011245283481620634 0.008020705168042205 C 0.010996908559487312 0.00806137284209187 0.007602021515299929 0.008562820001621355 0.008264784416020774 0.008508717256638175 C 0.007602021515299929 0.008562820001621355 0.002877740694382972 0.008683373178773865 0.003292128672970495 0.00866993810784035" fill="none" stroke="#000000" stroke-width="0.001"/>
</g></g>
<g id="薬指">
<g transform="translate(0.19741385217522897,0.15049093922664666) rotate(0) scale(1,1) translate(-0.018347050754458152,-0.012212198913662067)"><path d="M 0.01863384123568266 0.01361484964659376 C 0.018487818393771314 0.013615400688075447 0.016627184571540873 0.01362519359997981 0.016881567132746515 0.013621462144374005 C 0.016627184571540873 0.01362519359997981 0.015472890781920675 0.013662807527987535 0.01558125050121497 0.013659627113863418" fill="none" stroke="#000000" stroke-width="0.001"/>
<path d="M 0.01558125050121497 0.013659627113863418 C 0.015500499922070414 0.01364580156064689 0.014476961253713987 0.013425554559179525 0.014612243551480305 0.013493720475265102 C 0.014476961253713987 0.013425554559179525 0.013931766099825124 0.012715312179436628 0.013957862928019156 0.012841636120836495 C 0.013931766099825124 0.012715312179436628 0.014405038408118962 0.011864539534095445 0.014299081613151916 0.011977833178466691 C 0.014405038408118962 0.011864539534095445 0.015306866372163016 0.011440802322541114 0.0152293444676237 0.011482112388381543" fill="none" stroke="#000000" stroke-width="0.001"/>
<path d="M 0.0152293444676237 0.011482112388381543 C 0.015342499365126633 0.011456410769528518 0.016854724590359547 0.011115260888375314 0.016587203237658894 0.011173692962145243 C 0.016854724590359547 0.011115260888375314 0.018593967155229263 0.010748197048225506 0.018439600700031544 0.010780927503142409" fill="none" stroke="#000000" stroke-width="0.001"/>
<path d="M 0.018439600700031544 0.010780927503142409 C 0.01849783449139189 0.010835862552409337 0.019215212441596137 0.011592592543091468 0.019138406196355713 0.011440148094345555 C 0.019215212441596137 0.011592592543091468 0.01931922856286055 0.012791486017447394 0.019361275642916637 0.012610260888093376 C 0.01931922856286055 0.012791486017447394 0.018573221701746495 0.013698565376468791 0.01863384123568266 0.01361484964659376" fill="none" stroke="none" stroke-width="0"/>
</g><g transform="translate(0.20065474336848682,0.15080792384651381) rotate(0) scale(1,1) translate(-0.018347050754458152,-0.013480335131195698)"><path d="M 0.018189462553009055 0.014929965081197705 C 0.0180591907651187 0.014909763129998348 0.01636342356058514 0.014658767023377385 0.016626201098324817 0.014687541666805422 C 0.01636342356058514 0.014658767023377385 0.014903626350283593 0.014576096667832572 0.015036132100132918 0.014584669360061253" fill="none" stroke="#000000" stroke-width="0.001"/>
<path d="M 0.015036132100132918 0.014584669360061253 C 0.014942634630393276 0.014541710198601707 0.013798212006132692 0.013939652214051856 0.0139141624632572 0.014069159422546704 C 0.013798212006132692 0.013939652214051856 0.013663523947310397 0.012863669795286607 0.01364472661463881 0.013030582858123084 C 0.013663523947310397 0.012863669795286607 0.014263226875944028 0.011960847590182047 0.014139730455316246 0.012066202668508975 C 0.014263226875944028 0.011960847590182047 0.015208929762743508 0.01174133185567419 0.01512668366217218 0.011766321918199943" fill="none" stroke="none" stroke-width="0"/>
<path d="M 0.01512668366217218 0.011766321918199943 C 0.01527894484424882 0.01177488957246965 0.01725215899683284 0.01188900897019438 0.01695381784709186 0.011869133769436425 C 0.01725215899683284 0.01188900897019438 0.018852857426728237 0.012016131873783654 0.0187067774590639 0.012004824327295405" fill="none" stroke="#000000" stroke-width="0.001"/>
<path d="M 0.0187067774590639 0.012004824327295405 C 0.018766089620483584 0.012076418937707712 0.0194673502662348 0.013051356182098364 0.01941852339610012 0.01286395965224308 C 0.0194673502662348 0.013051356182098364 0.01919027816375577 0.014425749804638363 0.019292699900680027 0.01425358268555881 C 0.01919027816375577 0.014425749804638363 0.018097526107369807 0.014986330280834279 0.018189462553009055 0.014929965081197705" fill="none" stroke="none" stroke-width="0"/>
</g><g transform="translate(0.20465556759999226,0.1520077324329066) rotate(0) scale(1,1) translate(-0.0213073592558212,-0.01473294942839358)"><path d="M 0.020859226330289294 0.01635156976276967 C 0.0206987830122752 0.016292620248178694 0.01859745189314513 0.015523778005867976 0.018933906514120167 0.015644175587677937 C 0.01859745189314513 0.015523778005867976 0.016645759575627937 0.01484535071383115 0.01682177087858888 0.014906798781050135" fill="none" stroke="#000000" stroke-width="0.001"/>
<path d="M 0.01682177087858888 0.014906798781050135 C 0.01675704259553042 0.01485503237223973 0.01597576651138437 0.014134020290797864 0.016045031481887375 0.014285601875325267 C 0.01597576651138437 0.014134020290797864 0.015986054545108302 0.01298800459100429 0.015990591232552847 0.013087819766721288" fill="none" stroke="none" stroke-width="0"/>
<path d="M 0.015990591232552847 0.013087819766721288 C 0.016037150143026237 0.01302362812693176 0.016690112201639188 0.012231973003977025 0.01654929815823354 0.012317520089246947 C 0.016690112201639188 0.012231973003977025 0.017774614886352878 0.012039899298001842 0.01768035975342062 0.012061254743482235" fill="none" stroke="none" stroke-width="0"/>
<path d="M 0.01768035975342062 0.012061254743482235 C 0.017854029056076325 0.012109861061886957 0.0201039857542834 0.012732286760216864 0.019764391385289053 0.012644530564338912 C 0.0201039857542834 0.012732286760216864 0.021921417247691456 0.013153478971490887 0.02175549218135281 0.01311432909401766" fill="none" stroke="#000000" stroke-width="0.001"/>
<path d="M 0.02175549218135281 0.01311432909401766 C 0.021832017763651776 0.013209385412449733 0.022708830078001088 0.014485588313638002 0.022673799168940405 0.014255004915202544 C 0.022708830078001088 0.014485588313638002 0.02202464868686006 0.016056043612540424 0.022175863090080985 0.015881329875243162 C 0.02202464868686006 0.016056043612540424 0.020749506600306653 0.016390756420063546 0.020859226330289294 0.01635156976276967" fill="none" stroke="none" stroke-width="0"/>
</g><g transform="translate(0.20269735729387567,0.15141913608052143) rotate(0) scale(1,1) translate(-0.00967276663863141,-0.00967276663863141)"><path d="M 0.004504520105554926 0.007584825746317542 C 0.004729976819807437 0.007467948533557769 0.00745803084422126 0.005897723565817902 0.007210000676585056 0.006182299193200258 C 0.00745803084422126 0.005897723565817902 0.007503455570573072 0.004002219803106684 0.007480882117189378 0.004169918217729267" fill="none" stroke="#000000" stroke-width="0.001"/>
<path d="M 0.007480882117189378 0.004169918217729267 C 0.007698602945348428 0.0042746196228903195 0.010464556611473236 0.005698489100644744 0.010093532055097974 0.005426335079661905 C 0.010464556611473236 0.005698489100644744 0.012086480521908756 0.0076032190853451325 0.011933176793692542 0.0074357664695233455" fill="none" stroke="none" stroke-width="0"/>
<path d="M 0.011933176793692542 0.0074357664695233455 C 0.011943381185274448 0.007494553228320319 0.012018783934038163 0.008239305013078152 0.012055629492675399 0.008141207575087033 C 0.012018783934038163 0.008239305013078152 0.011443980139826575 0.008652246404610911 0.011491030090045715 0.008612935725416767" fill="none" stroke="none" stroke-width="0"/>
<path d="M 0.011491030090045715 0.008612935725416767 C 0.011297171047519252 0.008571237253154116 0.008582512414353923 0.008026878226673355 0.009164721579728155 0.008112554058264956 C 0.008582512414353923 0.008026878226673355 0.004116169982707156 0.0075408483869885915 0.004504520105554926 0.007584825746317542" fill="none" stroke="#000000" stroke-width="0.001"/>
</g></g>
<g id="小指">
<g transform="translate(0.20106580814005737,0.14495967570350837) rotate(0) scale(1,1) translate(-0.018347050754458152,-0.012212198913662067)"><path d="M 0.0185606252625785 0.013384437806037097 C 0.018430664564655162 0.013376059916904437 0.01679122634690464 0.013264823783379388 0.017001096887498447 0.013283903136445178 C 0.01679122634690464 0.013264823783379388 0.01596226893278234 0.01314478410531449 0.01604217877545281 0.01315548556924762" fill="none" stroke="#000000" stroke-width="0.001"/>
<path d="M 0.01604217877545281 0.01315548556924762 C 0.015965242479953637 0.01312832399843202 0.01498758397806247 0.012743629047416943 0.015118943229462738 0.012829546719460422 C 0.01498758397806247 0.012743629047416943 0.014456924292958575 0.012002716312190392 0.0144658677586496 0.012124473504725862 C 0.014456924292958575 0.012002716312190392 0.015132078053897992 0.0112751668897925 0.01501162164117044 0.011368460409034773 C 0.015132078053897992 0.0112751668897925 0.015986321633897696 0.010974658845883905 0.015911344711380216 0.011004951273818587" fill="none" stroke="#000000" stroke-width="0.001"/>
<path d="M 0.015911344711380216 0.011004951273818587 C 0.01602037909183334 0.010996742352035968 0.017462391337475482 0.010903707135713935 0.017219757276817724 0.010906444212427173 C 0.017462391337475482 0.010903707135713935 0.018956553119477932 0.010977578198329107 0.0188229534392733 0.010972106353259728" fill="none" stroke="#000000" stroke-width="0.001"/>
<path d="M 0.0188229534392733 0.010972106353259728 C 0.018861570010796778 0.011019632063825547 0.019321872625075866 0.011699883515036709 0.01928635229755501 0.011542414880049558 C 0.019321872625075866 0.011699883515036709 0.019188720116608847 0.01301523188360449 0.019249197369523557 0.012861729973105529 C 0.019188720116608847 0.01301523188360449 0.018503244253666413 0.013427996792114727 0.0185606252625785 0.013384437806037097" fill="none" stroke="none" stroke-width="0"/>
</g><g transform="translate(0.20365952419813813,0.14607424014205767) rotate(0) scale(1,1) translate(-0.018347050754458152,-0.013480335131195698)"><path d="M 0.01777251762822957 0.014820548815667297 C 0.017661285898836396 0.014753380115056548 0.016243164429483453 0.013907397764630965 0.016437736875511498 0.014014524408338301 C 0.016243164429483453 0.013907397764630965 0.01535430755925817 0.013495071148082668 0.015437648275893041 0.013535029091179256" fill="none" stroke="#000000" stroke-width="0.001"/>
<path d="M 0.015437648275893041 0.013535029091179256 C 0.01534689336181817 0.013480734486821635 0.014256636678369359 0.0127360033823509 0.014348589306994576 0.012883493838887804 C 0.014256636678369359 0.0127360033823509 0.0144092314514866 0.011625102352887252 0.01433421673239043 0.011765143612736412 C 0.0144092314514866 0.011625102352887252 0.015406932009119384 0.011149690685270226 0.015248765936148611 0.011202998720697889 C 0.015406932009119384 0.011149690685270226 0.016314163247363955 0.011118984559846678 0.0162322096080397 0.011125447187604463" fill="none" stroke="none" stroke-width="0"/>
<path d="M 0.0162322096080397 0.011125447187604463 C 0.016360528173320368 0.011170470826744352 0.018026794896046163 0.01176142251915736 0.01777203239140773 0.011665730857283134 C 0.018026794896046163 0.01176142251915736 0.019415803603058668 0.0123244151528295 0.019289359663700902 0.012273747130095165" fill="none" stroke="#000000" stroke-width="0.001"/>
<path d="M 0.019289359663700902 0.012273747130095165 C 0.01931124411682269 0.012354240189457182 0.019521164522861043 0.01343035808582204 0.019551973101162325 0.013239663842439353 C 0.019521164522861043 0.01343035808582204 0.018771368768007793 0.014693818465123083 0.01891965672408552 0.014562078050687422 C 0.018771368768007793 0.014693818465123083 0.017676922703574908 0.014842088046082287 0.01777251762822957 0.014820548815667297" fill="none" stroke="none" stroke-width="0"/>
</g><g transform="translate(0.2063766093922194,0.1484399643657208) rotate(0) scale(1,1) translate(-0.0213073592558212,-0.01473294942839358)"><path d="M 0.020239617256063054 0.01602936060072819 C 0.020117021919357863 0.01591024936287038 0.01854824569976415 0.014383949303427528 0.018768473215600764 0.01460002574643448 C 0.01854824569976415 0.014383949303427528 0.01749925488689227 0.013339478079495636 0.017596887066023692 0.013436443284644778" fill="none" stroke="#000000" stroke-width="0.001"/>
<path d="M 0.017596887066023692 0.013436443284644778 C 0.0175616274390869 0.01336505455297813 0.017164212727184453 0.0124134708289813 0.01717377154278218 0.012579778504644997 C 0.017164212727184453 0.0124134708289813 0.01750788209019 0.011345832232683366 0.01748218127885094 0.011440751176680414" fill="none" stroke="none" stroke-width="0"/>
<path d="M 0.01748218127885094 0.011440751176680414 C 0.017563412303537775 0.011397044842892714 0.018628405831500165 0.010893656580085963 0.01845695357509297 0.010916275171228007 C 0.018628405831500165 0.010893656580085963 0.019629829587457615 0.011190415825621537 0.01953960835573726 0.01116932808297588" fill="none" stroke="none" stroke-width="0"/>
<path d="M 0.01953960835573726 0.01116932808297588 C 0.01964024302980165 0.01125500926684849 0.020983515519496735 0.012386436470537436 0.02074722444450992 0.012197502289447187 C 0.020983515519496735 0.012386436470537436 0.022510757656501477 0.013539791253276515 0.02237510125557905 0.013436538256058875" fill="none" stroke="#000000" stroke-width="0.001"/>
<path d="M 0.02237510125557905 0.013436538256058875 C 0.02239765047304934 0.013560431613139277 0.022583953887767585 0.015141656204713212 0.02264569186522255 0.014923258541023695 C 0.022583953887767585 0.015141656204713212 0.02143373930868955 0.016149485391975124 0.02163424552611951 0.016057310220333083 C 0.02143373930868955 0.016149485391975124 0.02012339823355835 0.016027031465761114 0.020239617256063054 0.01602936060072819" fill="none" stroke="none" stroke-width="0"/>
</g></g>
<g transform="translate(0.2193798439177092,0.15510363692965318) rotate(0) scale(1,1) translate(-0.03705046059658651,-0.027869118277169504)"><path d="M 0.028986954971104276 0.036354860847030226 C 0.028791179794082192 0.03630566911009034 0.026106098076954368 0.035634747093855945 0.02663765284683928 0.03576456000375157 C 0.026106098076954368 0.035634747093855945 0.0222725181396225 0.03471648475532704 0.02260829773248533 0.03479710592828278" fill="none" stroke="#000000" stroke-width="0.001"/>
<path d="M 0.02260829773248533 0.03479710592828278 C 0.022534291011227194 0.03478156942016484 0.021592780307627492 0.03456318222383333 0.021720217077387707 0.03461066783086747 C 0.021592780307627492 0.03456318222383333 0.02102562644686064 0.03419532954495694 0.021079056495362722 0.034227278643873135" fill="none" stroke="#000000" stroke-width="0.001"/>
<path d="M 0.020473680244620023 0.032379027407532 C 0.02050209474951288 0.032312679819382364 0.020897409023756003 0.03146446190185266 0.0208146543033343 0.03158285634973637 C 0.020897409023756003 0.03146446190185266 0.0215210771052093 0.03090624717319338 0.021466736889680454 0.030958294032927457" fill="none" stroke="#000000" stroke-width="0.001"/>
<path d="M 0.021466736889680454 0.030958294032927457 C 0.021410059232694723 0.03090796029733042 0.020695070226873755 0.03024574689416413 0.02078660500585168 0.030354289205763014 C 0.020695070226873755 0.03024574689416413 0.020333462419953156 0.029597577717738986 0.02036831954194535 0.029655786293740834" fill="none" stroke="#000000" stroke-width="0.001"/>
<path d="M 0.020464688490482767 0.02778567173534112 C 0.020505385068571642 0.027743958928169086 0.021064761262093373 0.027201141654838223 0.020953047427549255 0.02728511804927671 C 0.021064761262093373 0.027201141654838223 0.02187627176146741 0.02673569141481285 0.021805254505012167 0.0267779550020793" fill="none" stroke="#000000" stroke-width="0.001"/>
<path d="M 0.021805254505012167 0.0267779550020793 C 0.02174327660364608 0.0267122784873732 0.020969623690224874 0.025868279432986595 0.021061519688619124 0.0259898368256061 C 0.020969623690224874 0.025868279432986595 0.020672584427252994 0.02526338541273186 0.020702502524281158 0.02531926629064526" fill="none" stroke="#000000" stroke-width="0.001"/>
<path d="M 0.021025294272256786 0.023530097402143717 C 0.021064305018875774 0.02350415056133225 0.02160762178252857 0.023162430769906855 0.02149342323168462 0.023218735312406112 C 0.02160762178252857 0.023162430769906855 0.02247086468660916 0.022824085190464843 0.022395676882384193 0.022854442892152632" fill="none" stroke="#000000" stroke-width="0.001"/>
<path d="M 0.022395676882384193 0.022854442892152632 C 0.022403180976905804 0.022808748134957924 0.022479005582840623 0.02219933084208882 0.022485726016643535 0.022306105805816146 C 0.022479005582840623 0.02219933084208882 0.022300807148424726 0.021512063120892093 0.02231503167674925 0.021573143327424712" fill="none" stroke="#000000" stroke-width="0.001"/>
<path d="M 0.022710897649775904 0.020230691409442482 C 0.02276051922534779 0.020182044079788363 0.023439263954951887 0.019578694658187595 0.023306356556638513 0.019646923453593063 C 0.023439263954951887 0.019578694658187595 0.02438907225227787 0.019392364398825534 0.02430578642953638 0.019411945864576882" fill="none" stroke="none" stroke-width="0"/>
<path d="M 0.02430578642953638 0.019411945864576882 C 0.02499315057247711 0.01951439005368402 0.0336548450297049 0.020971382714334626 0.03255415614482512 0.0206412761338625 C 0.0336548450297049 0.020971382714334626 0.03792737779003286 0.023600887221607386 0.0375140530480938 0.023373224830242394" fill="none" stroke="#000000" stroke-width="0.001"/>
<path d="M 0.0375140530480938 0.023373224830242394 C 0.03738297760859766 0.023521586074756892 0.03575469382568855 0.025566600531817568 0.03594114777414017 0.02515355976441639 C 0.03575469382568855 0.025566600531817568 0.035232818902682705 0.02897224415522563 0.035276605666674385 0.028329714039056538 C 0.035232818902682705 0.02897224415522563 0.03489156904827585 0.033532683392443294 0.03541570660624003 0.03286392115844548 C 0.03489156904827585 0.033532683392443294 0.028451225668176296 0.03664577248774562 0.028986954971104276 0.036354860847030226" fill="none" stroke="none" stroke-width="0"/>
</g><g transform="translate(0.2105128589216114,0.15538357061704058) rotate(0) scale(1,1) translate(-0.014303772200158306,-0.014303772200158308)"><path d="M 0.01919988336659422 0.007001738199557476 C 0.019448033859864437 0.0066986116748462676 0.020998333534101417 0.0052070911979822 0.020688786326215507 0.0051829790512902246 C 0.020998333534101417 0.0052070911979822 0.021368793798455205 0.007301939657682409 0.021057166613909675 0.007146411079709326 C 0.021368793798455205 0.007301939657682409 0.02279735624657274 0.006268984941162647 0.022558549433488694 0.006116150519128724 C 0.02279735624657274 0.006268984941162647 0.02247858383556815 0.008387962127376886 0.022490007492413942 0.008063417611912862" fill="none" stroke="#000000" stroke-width="0.001"/>
<path d="M 0.022490007492413942 0.008063417611912862 C 0.022747654095979505 0.00821885535867866 0.024606868437425374 0.009103591759299713 0.024035887113807324 0.008996044092507647 C 0.024606868437425374 0.009103591759299713 0.0261485397987619 0.008942559111225988 0.025915895434122246 0.008708703612665257 C 0.0261485397987619 0.008942559111225988 0.025430244449716328 0.011089732779196252 0.025431753301645238 0.010399177083872035 C 0.025430244449716328 0.011089732779196252 0.0259717811540989 0.013775383366522651 0.025906842322548786 0.012852037784610564 C 0.0259717811540989 0.013775383366522651 0.025700383045288572 0.016856104153913122 0.025821386290945922 0.01593925057534456 C 0.025700383045288572 0.016856104153913122 0.02518605655621694 0.0190491161252563 0.025180822848604692 0.018353159256021954 C 0.02518605655621694 0.0190491161252563 0.025648699132157272 0.020456252699433262 0.02585278853661941 0.020114991790750637 C 0.025648699132157272 0.020456252699433262 0.02366736350592845 0.020814815617242365 0.023956286421831854 0.020400724708117705 C 0.02366736350592845 0.020814815617242365 0.023849144605833768 0.022839079372203495 0.02411925104119897 0.022599537245498603 C 0.023849144605833768 0.022839079372203495 0.021735450985581446 0.021854290990008934 0.022335647809640653 0.021837977468347064 C 0.021735450985581446 0.021854290990008934 0.020215140478044232 0.022840658526656954 0.02051807009684372 0.022697418375469826" fill="none" stroke="none" stroke-width="0"/>
<path d="M 0.02051807009684372 0.022697418375469826 C 0.02052619913240941 0.023027787285862775 0.02027956149476437 0.024799425014379296 0.02056684431023785 0.02467963183782753 C 0.02027956149476437 0.024799425014379296 0.018379906833536557 0.02350598655528521 0.01879437320400284 0.023416177434780416 C 0.018379906833536557 0.02350598655528521 0.01773491271835282 0.02510861068331129 0.01808004608744016 0.02521848656085629 C 0.01773491271835282 0.02510861068331129 0.01649749413981856 0.02234666143761943 0.01672357298947879 0.02275692216951041" fill="none" stroke="#000000" stroke-width="0.001"/>
<path d="M 0.01672357298947879 0.02275692216951041 C 0.016516951709255774 0.02251904914865033 0.015105774027789412 0.021261113903261762 0.015483845308140691 0.021329684044349928 C 0.015105774027789412 0.021261113903261762 0.014283695307242848 0.022514804202753324 0.014455145307371112 0.02234550132298141" fill="none" stroke="none" stroke-width="0"/>
<path d="M 0.014455145307371112 0.02234550132298141 C 0.01419887485723951 0.021781972307574986 0.01244346520496443 0.018510705441538388 0.012917522606581506 0.018964327230542866 C 0.01244346520496443 0.018510705441538388 0.011393013946183183 0.019733677815356482 0.011610800897668657 0.019623770588954537" fill="none" stroke="none" stroke-width="0"/>
<path d="M 0.011610800897668657 0.019623770588954537 C 0.011538771484073647 0.019334341838714283 0.010552648434843652 0.015698102488537594 0.010746447934528532 0.01615062558607152 C 0.010552648434843652 0.015698102488537594 0.00916343681536024 0.014030399071253781 0.009285206901450108 0.014193493418547453" fill="none" stroke="none" stroke-width="0"/>
<path d="M 0.009285206901450108 0.014193493418547453 C 0.009465729277773616 0.014040908192127319 0.011781052861061389 0.011836247169131847 0.011451475417332208 0.012362470701505845 C 0.011781052861061389 0.011836247169131847 0.013389191293605943 0.007505172724105607 0.013240136226200272 0.007878811030059472" fill="none" stroke="none" stroke-width="0"/>
<path d="M 0.013240136226200272 0.007878811030059472 C 0.013421682267317749 0.008223867084689066 0.014905696230451876 0.00969706290003232 0.014329412472905138 0.00994914735783704 C 0.014905696230451876 0.00969706290003232 0.01709257648790995 0.0057691637707968455 0.01669783877148069 0.006366304283231159" fill="none" stroke="none" stroke-width="0"/>
<path d="M 0.01669783877148069 0.006366304283231159 C 0.016766976385669475 0.006698330782891237 0.017529671889132306 0.00846436893391268 0.017112664456613386 0.008358463281191627 C 0.017529671889132306 0.00846436893391268 0.01954775318492436 0.006775617352618451 0.01919988336659422 0.007001738199557476" fill="none" stroke="none" stroke-width="0"/>
</g><g id="鱗">
<g transform="translate(0.2105128589216114,0.15538357061704056) rotate(0) scale(1,1) translate(-0.022056771251806547,-0.022056771251806547)"><path d="M 0.025478749641665386 0.02789430819533154 C 0.025741080501825015 0.027436438037705527 0.028701764389449855 0.021488974364395997 0.028626719963580943 0.022399866303819408 C 0.028701764389449855 0.021488974364395997 0.026191996317801638 0.01651058314045319 0.026379282752092354 0.016963604922250592" fill="none" stroke="none" stroke-width="0"/>
<path d="M 0.026379282752092354 0.016963604922250592 C 0.026705395365462056 0.01691702206456763 0.030830079311499593 0.016513179508949094 0.030292634112528787 0.016404610630055046 C 0.030830079311499593 0.016513179508949094 0.033039957725343114 0.01842158320555617 0.03282862513974201 0.01826643146897916" fill="none" stroke="#000000" stroke-width="0.001"/>
<path d="M 0.03282862513974201 0.01826643146897916 C 0.032947199548593875 0.018552071465091993 0.03424698586855937 0.022328104101907106 0.03425151804596438 0.021694111422333125 C 0.03424698586855937 0.022328104101907106 0.03265113242462504 0.026222696307328073 0.03277423901088192 0.025874343623866924" fill="none" stroke="#000000" stroke-width="0.001"/>
<path d="M 0.03277423901088192 0.025874343623866924 C 0.032536345757698 0.026011999047671125 0.0293115625252402 0.02769453909047271 0.02991951997267491 0.027526208709517327 C 0.0293115625252402 0.02769453909047271 0.025108685447414594 0.02792498315248272 0.025478749641665386 0.02789430819533154" fill="none" stroke="#000000" stroke-width="0.001"/>
</g><g transform="translate(0.21438510386668372,0.15575575592402507) rotate(0) scale(1,1) translate(-0.022056771251806547,-0.022056771251806547)"><path d="M 0.017948183954294043 0.027579342096594288 C 0.018200415955401505 0.027118105652617554 0.02102644838899748 0.02107301967513709 0.020974967967583618 0.022044504768873496 C 0.02102644838899748 0.02107301967513709 0.018365197431566792 0.015411272321997765 0.018565949011260394 0.015921520971757436" fill="none" stroke="none" stroke-width="0"/>
<path d="M 0.018565949011260394 0.015921520971757436 C 0.018851666188421434 0.01588503697312664 0.02252863404981297 0.015605747012484815 0.02199455513719289 0.015483712988187879 C 0.02252863404981297 0.015605747012484815 0.02522325769816037 0.017544447286248394 0.024974895962701332 0.017385929263320662" fill="none" stroke="#000000" stroke-width="0.001"/>
<path d="M 0.024974895962701332 0.017385929263320662 C 0.025110301803306805 0.017715330981992874 0.02661206530431559 0.022046800866677072 0.02659976604996699 0.021338749887387213 C 0.02661206530431559 0.022046800866677072 0.024999380428627677 0.0262611902754166 0.025122487014884547 0.025882541014798956" fill="none" stroke="#000000" stroke-width="0.001"/>
<path d="M 0.025122487014884547 0.025882541014798956 C 0.02483409946643981 0.026074057020214703 0.021063977845165144 0.028322133169937536 0.021661836433547684 0.028180733079787926 C 0.021063977845165144 0.028322133169937536 0.017638712914356237 0.02752922618132815 0.017948183954294043 0.027579342096594288" fill="none" stroke="#000000" stroke-width="0.001"/>
</g><g transform="translate(0.21060559681575872,0.15577257969606367) rotate(0) scale(1,1) translate(-0.022056771251806547,-0.022056771251806547)"><path d="M 0.01619203496638976 0.02803840164714594 C 0.016264467608251128 0.027907280628231865 0.017066050681425794 0.02618250966424458 0.017061226668726177 0.026464949420177058 C 0.017066050681425794 0.02618250966424458 0.01618231448962342 0.024497805838937806 0.016249923118785172 0.02464912457595621" fill="none" stroke="#000000" stroke-width="0.001"/>
<path d="M 0.016249923118785172 0.02464912457595621 C 0.016348916428229356 0.024472101360820068 0.017454478082797334 0.02218517937042773 0.0174378428321154 0.022524845994322473 C 0.017454478082797334 0.02218517937042773 0.016367188068206136 0.02041048168046067 0.016449546126968386 0.020573125089219272" fill="none" stroke="#000000" stroke-width="0.001"/>
<path d="M 0.016449546126968386 0.020573125089219272 C 0.016551905722763292 0.020422604070156364 0.017715550434758618 0.018454992716840455 0.01767786127650728 0.018766872860464353 C 0.017715550434758618 0.018454992716840455 0.016837145588440912 0.016669204241171527 0.01690181602598448 0.016830563365732513" fill="none" stroke="#000000" stroke-width="0.001"/>
<path d="M 0.01690181602598448 0.016830563365732513 C 0.017039609335726336 0.016693935586805028 0.018689168712417215 0.014912015020530515 0.01855533574288677 0.01519103001860269 C 0.018689168712417215 0.014912015020530515 0.01850385132013841 0.013339996169721738 0.018507811660349822 0.013482383388866427" fill="none" stroke="#000000" stroke-width="0.001"/>
<path d="M 0.018507811660349822 0.013482383388866427 C 0.0188505510551896 0.013601191274978764 0.02317643952204337 0.015277135234311701 0.022620684398427137 0.014908078022214466 C 0.02317643952204337 0.015277135234311701 0.025389888872521086 0.01816131926001815 0.02517687314374463 0.01791106993403325" fill="none" stroke="#000000" stroke-width="0.001"/>
<path d="M 0.02517687314374463 0.01791106993403325 C 0.02529544755259649 0.018196709930146084 0.026595233872561984 0.021972742566961193 0.02659976604996699 0.021338749887387213 C 0.026595233872561984 0.021972742566961193 0.024999380428627677 0.02586733477238216 0.025122487014884547 0.025518982088921012" fill="none" stroke="#000000" stroke-width="0.001"/>
<path d="M 0.025122487014884547 0.025518982088921012 C 0.0248130601767478 0.025734062098791814 0.020665160619868988 0.028309893837222697 0.021409364957243552 0.02809994220737062 C 0.020665160619868988 0.028309893837222697 0.015757257467151946 0.028033273267127214 0.01619203496638976 0.02803840164714594" fill="none" stroke="#000000" stroke-width="0.001"/>
</g></g>
<g id="悪タトゥ">
<g id="五芒星">
<g transform="translate(0.21051285892161142,0.15538357061704056) rotate(0) scale(1,1) translate(-0.25155149516253505,-0.25573631032976507)"><path d="M 0.25763044851039957 0.2605147626966577 C 0.2570897007271568 0.26094603283249745 0.25265784269101266 0.26164892928369643 0.253338290304349 0.26173345871371545 C 0.25265784269101266 0.26164892928369643 0.24904352669034102 0.25894959673423706 0.24946507715036298 0.2595004095364294 C 0.24904352669034102 0.25894959673423706 0.24836397001963414 0.25442926758223755 0.2482796847840854 0.2551237050874076 C 0.24836397001963414 0.25442926758223755 0.2510172477601905 0.2507358893385488 0.2504764999769477 0.25116715947438856 C 0.2510172477601905 0.2507358893385488 0.2554491057963352 0.25003299288734954 0.2547686581829988 0.24994846345733052 C 0.2554491057963352 0.25003299288734954 0.2590634217970062 0.25273232543680907 0.2586418713369843 0.25218151263461674 C 0.2590634217970062 0.25273232543680907 0.2597429784677132 0.2572526545888086 0.2598272637032619 0.2565582170836385 C 0.2597429784677132 0.2572526545888086 0.2570897007271568 0.26094603283249745 0.25763044851039957 0.2605147626966577 Z" fill="#cccccc" stroke="#000000" stroke-width="0.001"/>
</g><g transform="translate(0.21300225757753402,0.15572827018593677) rotate(0) scale(1,1) translate(-0.25613753700109465,-0.2561375370010946)"><path d="M 0.25889180718647353 0.25973636424166835 C 0.2584754313933766 0.26006844224626496 0.25506290070554544 0.26060967251368805 0.25558684536781445 0.26067476017480273 C 0.25506290070554544 0.26060967251368805 0.25227987738502855 0.2585311864506043 0.25260447123924545 0.2589553123082924 C 0.25227987738502855 0.2585311864506043 0.25175661874858446 0.25505053300356484 0.25169171911721194 0.2555852498825458 C 0.25175661874858446 0.25505053300356484 0.2537996426088127 0.2522066317559242 0.2533832668157158 0.25253870976052084 C 0.2537996426088127 0.2522066317559242 0.2572121732966438 0.25166540148850114 0.2566882286343748 0.25160031382738646 C 0.2572121732966438 0.25166540148850114 0.25999519661716075 0.25374388755158483 0.25967060276294385 0.25331976169389675 C 0.25999519661716075 0.25374388755158483 0.260518455253605 0.2572245409986246 0.2605833548849775 0.2566898241196436 C 0.260518455253605 0.2572245409986246 0.2584754313933766 0.26006844224626496 0.25889180718647353 0.25973636424166835 Z" fill="#cccccc" stroke="#000000" stroke-width="0.001"/>
</g><g transform="translate(0.21300225757753405,0.15572827018593677) rotate(0) scale(1,1) translate(-0.03408017706782698,-0.03408017706782699)"><path d="M 0.03608190220406244 0.034328843800584104 C 0.036390898522386715 0.034898734109859775 0.03766605162045992 0.038043364008606174 0.03793588011400809 0.037748185656238144 C 0.03766605162045992 0.038043364008606174 0.03388410643090095 0.03582520195788466 0.0344629312427734 0.0360999139147923" fill="none" stroke="#000000" stroke-width="0.001"/>
<path d="M 0.0344629312427734 0.0360999139147923 C 0.03402657780282248 0.03657700219506785 0.03148682323277967 0.03879242066978436 0.03184481060306785 0.03896244359644559 C 0.03148682323277967 0.03879242066978436 0.0323933730907071 0.034432665147888196 0.03231500702104435 0.03507977635482497" fill="none" stroke="#000000" stroke-width="0.001"/>
<path d="M 0.03231500702104435 0.03507977635482497 C 0.03173632944572246 0.034804742818393825 0.02889152170027991 0.0330293168363267 0.028842941569113028 0.03342957513623809 C 0.02889152170027991 0.0330293168363267 0.0332337455145344 0.03255300179187633 0.032606487808045634 0.032678226555356585" fill="none" stroke="#000000" stroke-width="0.001"/>
<path d="M 0.032606487808045634 0.032678226555356585 C 0.03268519883792026 0.032031158201520506 0.033466765529820634 0.02871846612537685 0.033078753987293395 0.028795816432340113 C 0.033466765529820634 0.02871846612537685 0.035243857575861695 0.03278384276044981 0.03493455706320908 0.03221412471357699" fill="none" stroke="#000000" stroke-width="0.001"/>
<path d="M 0.03493455706320908 0.03221412471357699 C 0.03556188073028299 0.032089248014293 0.03888972325579478 0.031817317699040865 0.03869849906565256 0.03146486451787301 C 0.03888972325579478 0.031817317699040865 0.035645802727130756 0.03480617368103595 0.03608190220406244 0.034328843800584104" fill="none" stroke="#000000" stroke-width="0.001"/>
</g><g transform="translate(0.21300225757753405,0.15572827018593677) rotate(0) scale(1,1) translate(-0.03408017706782698,-0.03408017706782699)"><path d="M 0.0344629312427734 0.0360999139147923 C 0.033835115378937054 0.036225069340499114 0.03200559978192305 0.03450949512825235 0.03231500702104435 0.03507977635482497 C 0.03200559978192305 0.03450949512825235 0.033043079481739755 0.03220061794848192 0.032606487808045634 0.032678226555356585 C 0.033043079481739755 0.03220061794848192 0.035513792795878546 0.03248922758778158 0.03493455706320908 0.03221412471357699 C 0.035513792795878546 0.03248922758778158 0.03600329790065649 0.03497647533411999 0.03608190220406244 0.034328843800584104 C 0.03600329790065649 0.03497647533411999 0.033835115378937054 0.036225069340499114 0.0344629312427734 0.0360999139147923 Z" fill="#cccccc" stroke="#000000" stroke-width="0.001"/>
</g></g>
</g>
<g id="グローブ">
<g transform="translate(0.21051285892161142,0.15538357061704056) rotate(0) scale(1,1) translate(-0.003389818855922237,-0.0033898188559222373)"><path d="M 0.014161672779554721 -0.00040052090245335696 C 0.014183130313103077 -0.00027765078460344715 0.014452937755130147 0.0013751682455160111 0.014419163182134983 0.0010739205117455608 C 0.014452937755130147 0.0013751682455160111 0.014567544380508534 0.003590769581320121 0.014566967655496687 0.003214451902792047 C 0.014567544380508534 0.003590769581320121 0.014387777130158751 0.0059224776021629365 0.014426083882277152 0.005589732654082452 C 0.014387777130158751 0.0059224776021629365 0.014080720192392433 0.007342196165230809 0.014107286630075874 0.007207391279757858" fill="none" stroke="none" stroke-width="0"/>
<path d="M 0.014107286630075874 0.007207391279757858 C 0.013871143346507542 0.0074669811971916945 0.010881928391345436 0.01069542130041141 0.0112735672272559 0.010322470288963891 C 0.010881928391345436 0.01069542130041141 0.009252125046808174 0.011796164511141752 0.009407620599150306 0.01168280341712807" fill="none" stroke="#000000" stroke-width="0.001"/>
<path d="M 0.009407620599150306 0.01168280341712807 C 0.0088851427075938 0.011387422529590402 0.0021229353491185746 0.007511419664613678 0.0031378859004722423 0.008138232766676062 C 0.0021229353491185746 0.007511419664613678 -0.0032642586768908727 0.0038296139778547585 -0.00277178601709371 0.004161046192379474" fill="none" stroke="#000000" stroke-width="0.001"/>
<path d="M -0.00277178601709371 0.004161046192379474 C -0.002228912055500439 0.0037581989229184855 0.004667099302099248 -0.0013681396807948614 0.003742701522025545 -0.0006731210411523915 C 0.004667099302099248 -0.0013681396807948614 0.00870251116227115 -0.004471348853511644 0.008320987343790718 -0.004179177483330163" fill="none" stroke="#000000" stroke-width="0.001"/>
<path d="M 0.008320987343790718 -0.004179177483330163 C 0.008601759484700187 -0.004049228990816278 0.012176976821018017 -0.0023049075247571463 0.01169025303470435 -0.002619795573163547 C 0.012176976821018017 -0.0023049075247571463 0.014367624424958918 -0.00021558134656084066 0.01416167277955472 -0.00040052090245335653" fill="none" stroke="#000000" stroke-width="0.001"/>
</g><g transform="translate(0.21086574158771473,0.15132063071996593) rotate(0) scale(1,1) translate(-0.004561674574908911,-0.004561674574908911)"><path d="M -0.0026329495570143347 0.009374227230790247 C -0.0020537242624215505 0.008942083465599196 0.00524527045692697 0.0034814100850811434 0.004317753978099079 0.004188502048497645 C 0.00524527045692697 0.0034814100850811434 0.008845539373155461 0.0006141754715667694 0.008497248188920354 0.0008891236697922214" fill="none" stroke="#000000" stroke-width="0.001"/>
<path d="M 0.008497248188920354 0.0008891236697922214 C 0.008543663318461864 0.0008992721797008314 0.009126818109334087 0.0010308047727068989 0.009054229743418478 0.0010109057886955415 C 0.009126818109334087 0.0010308047727068989 0.009394481816281764 0.0011376619520312564 0.009368308579907666 0.0011279114779285092" fill="none" stroke="#000000" stroke-width="0.001"/>
<path d="M 0.009368308579907666 0.0011279114779285092 C 0.008993501649653127 0.001436033184987502 0.00399132489296198 0.005511342932055958 0.004870625416853213 0.004825371962636423 C 0.00399132489296198 0.005511342932055958 -0.0016877913004238409 0.009737412373323479 -0.0011832977067871445 0.009359563110962936" fill="none" stroke="#000000" stroke-width="0.001"/>
<path d="M -0.0011832977067871445 0.009359563110962936 C -0.0012436998672132773 0.00936017411595574 -0.0020289279527530056 0.009368117180862202 -0.0019081236319007397 0.009366895170876592 C -0.0020289279527530056 0.009368117180862202 -0.002693351717440468 0.009374838235783051 -0.0026329495570143347 0.009374227230790247" fill="none" stroke="none" stroke-width="0"/>
</g><g transform="translate(0.21026092596616142,0.16013198452779437) rotate(0) scale(1,1) translate(-0.004561674574908911,-0.004561674574908911)"><path d="M -0.002028133935461009 0.0005628734229617793 C -0.0019677317750348765 0.0005622624179689758 -0.0011825036894951499 0.000554319353062531 -0.0013033080103474154 0.0005555413630481379 C -0.0011825036894951499 0.000554319353062531 -0.0005180799248076903 0.0005475982981416929 -0.000578482085233823 0.0005482093031344964" fill="none" stroke="none" stroke-width="0"/>
<path d="M -0.000578482085233823 0.0005482093031344964 C -0.00011433080483545121 0.0008637802783852543 0.005970373877822208 0.004950501694881275 0.004991333279546638 0.00433506100614359 C 0.005970373877822208 0.004950501694881275 0.011684894411950222 0.00823336728147364 0.011170005094073022 0.007933497567986713" fill="none" stroke="#000000" stroke-width="0.001"/>
<path d="M 0.011170005094073022 0.007933497567986713 C 0.011142931030071097 0.007949173828071792 0.010778851785100308 0.008158854692201055 0.010845116326049927 0.008121612689007667 C 0.010778851785100308 0.008158854692201055 0.010335640125729906 0.008401967349415682 0.0103748306026776 0.008380401606307373" fill="none" stroke="#000000" stroke-width="0.001"/>
<path d="M 0.0103748306026776 0.008380401606307373 C 0.00990542235560091 0.008111921383356254 0.0037083512595791016 0.004507178248948475 0.004741931637757319 0.005158638930893942 C 0.0037083512595791016 0.004507178248948475 -0.0025923060665625362 0.00017989296396743243 -0.002028133935461009 0.0005628734229617793" fill="none" stroke="#000000" stroke-width="0.001"/>
</g></g>
</svg>
