<?xml version="1.0" encoding="UTF-8"?>
<svg xmlns="http://www.w3.org/2000/svg" viewBox="0 0 1 1">
<g id="小指">
<g transform="translate(0.20019485004841575,0.15202159005106294) rotate(0) scale(1,1) translate(-0.018347050754458152,-0.012212198913662067)"><path d="M 0.01790399478800455 0.013565550617367285 C 0.017844393074135937 0.013505850552649587 0.017140968607560463 0.01266923268478182 0.01718877422158118 0.012849149840754921 C 0.017140968607560463 0.01266923268478182 0.017471252418506607 0.011249096798878639 0.017330327419755924 0.011406544745690075 C 0.017471252418506607 0.011249096798878639 0.019009003105492167 0.010922543623461648 0.01887987420658938 0.010959774479017682" fill="none" stroke="#000000" stroke-width="0.001"/>
<path d="M 0.01887987420658938 0.010959774479017682 C 0.018981011759877056 0.011002971823759772 0.020317466276348558 0.011579307229059544 0.0200935248460415 0.011478142615922775 C 0.020317466276348558 0.011579307229059544 0.02168997524729348 0.01223171710505359 0.0215671713702741 0.012173749836658912" fill="none" stroke="#000000" stroke-width="0.001"/>
<path d="M 0.0215671713702741 0.012173749836658912 C 0.021611652644744312 0.012233332103553268 0.022140820633237298 0.013021395445831592 0.022100946663916654 0.012888737039391179 C 0.022140820633237298 0.013021395445831592 0.02198843580797686 0.013899154797113124 0.022045659002121843 0.013765650713943872 C 0.02198843580797686 0.013899154797113124 0.0212817579442291 0.014559144948042651 0.021414268334176843 0.014490786037422203 C 0.0212817579442291 0.014559144948042651 0.020375639821796614 0.014593888608386512 0.02045553432274894 0.014585957641389258" fill="none" stroke="#000000" stroke-width="0.001"/>
<path d="M 0.02045553432274894 0.014585957641389258 C 0.02032444532738211 0.014533528573659896 0.018669838083784966 0.013871774909968423 0.018882466378347 0.01395680882863692 C 0.018669838083784966 0.013871774909968423 0.017822455488809345 0.013532945766428148 0.01790399478800455 0.013565550617367285" fill="none" stroke="#000000" stroke-width="0.001"/>
</g><g transform="translate(0.2006684598090426,0.14962851337766384) rotate(0) scale(1,1) translate(-0.018347050754458152,-0.013480335131195698)"><path d="M 0.016963657989000118 0.013257165308784626 C 0.01702856168678176 0.013201237569715005 0.017924520389345604 0.012556850365292986 0.017742502362379824 0.012586032439949185 C 0.017924520389345604 0.012556850365292986 0.019323684610037795 0.013014648096446467 0.019147874312589467 0.012906980412910237 C 0.019323684610037795 0.013014648096446467 0.01991092190002397 0.013958966661506745 0.019852225931759778 0.013878044642383937" fill="none" stroke="none" stroke-width="0"/>
<path d="M 0.019852225931759778 0.013878044642383937 C 0.019827371726332855 0.01395129370112142 0.01949746461897694 0.014945405771259796 0.019553975466636696 0.014757033347233722 C 0.01949746461897694 0.014945405771259796 0.0191424391176099 0.016253637095985422 0.019174095759842733 0.01613851373069683" fill="none" stroke="#000000" stroke-width="0.001"/>
<path d="M 0.019174095759842733 0.01613851373069683 C 0.019130951448241697 0.016192445865223382 0.018532630605831244 0.016845449316879365 0.01865636402063032 0.016785699345015462 C 0.018532630605831244 0.016845449316879365 0.017537879787934686 0.016815626760340624 0.017689294782253836 0.01685551339306366 C 0.017537879787934686 0.016815626760340624 0.016754574622114615 0.01619653429610435 0.01683938408880051 0.01630705975233903 C 0.016754574622114615 0.01619653429610435 0.016657597606458272 0.015464386932073236 0.01667158118202306 0.015529207918247528" fill="none" stroke="none" stroke-width="0"/>
<path d="M 0.01667158118202306 0.015529207918247528 C 0.016683248083284277 0.01541437850050988 0.016835923731072393 0.01396191802127383 0.01681158399715764 0.01415125490539574 C 0.016835923731072393 0.01396191802127383 0.01697633082165366 0.013182657842400367 0.016963657989000118 0.013257165308784626" fill="none" stroke="#000000" stroke-width="0.001"/>
</g><g transform="translate(0.20591943124021153,0.14817655255958542) rotate(0) scale(1,1) translate(-0.0213073592558212,-0.01473294942839358)"><path d="M 0.020742552204175684 0.013141705331482751 C 0.020880098868470004 0.013170791055905398 0.022583486701301766 0.013647033942079672 0.022393112175707525 0.013490734024554503 C 0.022583486701301766 0.013647033942079672 0.02298046235737204 0.015251049998519006 0.0230270465113066 0.015017304341784778 C 0.02298046235737204 0.015251049998519006 0.02173469031325829 0.016402213368996946 0.021834102328492772 0.01629568190536524" fill="none" stroke="none" stroke-width="0"/>
<path d="M 0.021834102328492772 0.01629568190536524 C 0.021608720539499117 0.01635418054448545 0.018696897733841724 0.017108025284573995 0.019129520860568926 0.016997665574807745 C 0.018696897733841724 0.017108025284573995 0.01643538347003279 0.017671859493206283 0.016642624807766338 0.01761999842256024" fill="none" stroke="#000000" stroke-width="0.001"/>
<path d="M 0.016642624807766338 0.01761999842256024 C 0.016547201177526564 0.017609631338375988 0.015320900831826417 0.017430554018924543 0.01549754124488905 0.01749559341234918 C 0.015320900831826417 0.017430554018924543 0.014441723068191872 0.016784853392224252 0.014522939851014733 0.01683952570146463" fill="none" stroke="none" stroke-width="0"/>
<path d="M 0.014522939851014733 0.01683952570146463 C 0.014541752757869054 0.016732504738095233 0.014849266937550896 0.015378970730659048 0.014748694733266588 0.015555274141031842 C 0.014849266937550896 0.015378970730659048 0.015811565599856418 0.014654602329987713 0.01572980630242643 0.014723884776991108" fill="none" stroke="#000000" stroke-width="0.001"/>
<path d="M 0.01572980630242643 0.014723884776991108 C 0.01593321942683808 0.01466078301647849 0.018588492620512004 0.013834815363714009 0.018170763795366234 0.013966663650839706 C 0.018588492620512004 0.013834815363714009 0.020956867904909804 0.013072958804869672 0.020742552204175684 0.013141705331482751" fill="none" stroke="#000000" stroke-width="0.001"/>
</g></g>
<g id="薬指">
<g transform="translate(0.20258817726822942,0.1529502357817909) rotate(0) scale(1,1) translate(-0.00967276663863141,-0.00967276663863141)"><path d="M 0.0067982457563326125 0.009800981335201032 C 0.00682998922882447 0.009684718532649135 0.0072174650136688735 0.008182919362282427 0.007179167426234901 0.008405827704578268 C 0.0072174650136688735 0.008182919362282427 0.007264370920482401 0.00701943568790699 0.007257816805540286 0.007126081227650935" fill="none" stroke="#000000" stroke-width="0.001"/>
<path d="M 0.007257816805540286 0.007126081227650935 C 0.007456110521171247 0.007079302466627077 0.009988397429712663 0.00648371949787201 0.009637341393111816 0.00656473609536464 C 0.009988397429712663 0.00648371949787201 0.011623251565720333 0.006119644221270612 0.011470489244750448 0.006153882057739383" fill="none" stroke="#000000" stroke-width="0.001"/>
<path d="M 0.011470489244750448 0.006153882057739383 C 0.011508540633172009 0.006180238364829631 0.011942369575810194 0.006567618417417135 0.011927105905809176 0.006470157742822364 C 0.011942369575810194 0.006567618417417135 0.011630865566342121 0.007394514520381149 0.011653653284762665 0.007323410152876627" fill="none" stroke="#000000" stroke-width="0.001"/>
<path d="M 0.011653653284762665 0.007323410152876627 C 0.011412180109601952 0.007443457470622234 0.008351357888798275 0.00897044223101761 0.008755975182834113 0.00876397796582391 C 0.008351357888798275 0.00897044223101761 0.006635101637457487 0.009887398282649125 0.0067982457563326125 0.009800981335201032" fill="none" stroke="none" stroke-width="0"/>
</g><g transform="translate(0.20117187831058023,0.1569365438808456) rotate(0) scale(1,1) translate(-0.018347050754458152,-0.012212198913662067)"><path d="M 0.018843244965248817 0.013527525055416817 C 0.018748405605298397 0.013489341848025544 0.017574693891078953 0.012940412399811498 0.01770517264584377 0.013069326566721528 C 0.017574693891078953 0.012940412399811498 0.017287381059927234 0.011793384011578133 0.01727749990807101 0.011980555052496462 C 0.017287381059927234 0.011793384011578133 0.0178692670147891 0.010726833994302012 0.01782374646811848 0.010823274075701585" fill="none" stroke="none" stroke-width="0"/>
<path d="M 0.01782374646811848 0.010823274075701585 C 0.017929165964219913 0.010790178158485363 0.019334370860879947 0.010338993288974637 0.019088780421335674 0.010426123069106922 C 0.019334370860879947 0.010338993288974637 0.020911002686092604 0.00972368285119811 0.020770831742649765 0.009777716714114171" fill="none" stroke="#000000" stroke-width="0.001"/>
<path d="M 0.020770831742649765 0.009777716714114171 C 0.02084040173182381 0.009786524592416194 0.021727872930667583 0.009957934256155397 0.021605671612738325 0.009883411253738452 C 0.021727872930667583 0.009957934256155397 0.022294740836313394 0.010821835208706772 0.02223724755780087 0.010671992743117507 C 0.022294740836313394 0.010821835208706772 0.02225469741117706 0.011818907085448463 0.022295590954888624 0.011681520840809636 C 0.02225469741117706 0.011818907085448463 0.021700769539793243 0.012373886581947907 0.021746525033262118 0.012320627678783424" fill="none" stroke="#000000" stroke-width="0.001"/>
<path d="M 0.021746525033262118 0.012320627678783424 C 0.021605862420984327 0.012377249861362379 0.01981663368026087 0.013100668651116991 0.020058573685928643 0.013000093869730875 C 0.01981663368026087 0.013100668651116991 0.018741967571858833 0.013571477654223979 0.018843244965248817 0.013527525055416817" fill="none" stroke="#000000" stroke-width="0.001"/>
</g><g transform="translate(0.20005394504645135,0.15424869491938437) rotate(0) scale(1,1) translate(-0.018347050754458152,-0.013480335131195698)"><path d="M 0.01702255756672988 0.014045981094850092 C 0.0170523566737562 0.013950329548638557 0.017516283426829822 0.012759130642358266 0.01738014685104574 0.012898162540311666 C 0.017516283426829822 0.012759130642358266 0.018856412505657106 0.012375458059675618 0.01865619647613888 0.01237759831940928 C 0.018856412505657106 0.012375458059675618 0.019876617766024892 0.01291371951551591 0.01978273920526443 0.012872479423507707" fill="none" stroke="none" stroke-width="0"/>
<path d="M 0.01978273920526443 0.012872479423507707 C 0.01980878419483719 0.012961647206318646 0.020178552476236754 0.014170550659514385 0.020095279080137557 0.013942492817238967 C 0.020178552476236754 0.014170550659514385 0.020839248364981237 0.015748063590277202 0.0207820199584548 0.015609173530812722" fill="none" stroke="#000000" stroke-width="0.001"/>
<path d="M 0.0207820199584548 0.015609173530812722 C 0.02078155850278118 0.01569755459794327 0.02071153807754582 0.016822024440640522 0.02077648249037135 0.01666974633637929 C 0.02071153807754582 0.016822024440640522 0.01984747283052393 0.017502390808453318 0.020002687004548412 0.017436510781947495 C 0.01984747283052393 0.017502390808453318 0.01875935082492512 0.017401196977161994 0.018913912402077543 0.017460306654449184 C 0.01875935082492512 0.017401196977161994 0.018084117718439485 0.01666610198783888 0.018147948078719337 0.01672719465450121" fill="none" stroke="#000000" stroke-width="0.001"/>
<path d="M 0.018147948078719337 0.01672719465450121 C 0.018088506191939323 0.016589009908852398 0.017340862894693384 0.014845543243411193 0.017434645437359172 0.015068977706715453 C 0.017340862894693384 0.014845543243411193 0.016988216910844105 0.013960731377194646 0.01702255756672988 0.014045981094850092" fill="none" stroke="#000000" stroke-width="0.001"/>
</g><g transform="translate(0.20501722358320393,0.15170286231384272) rotate(0) scale(1,1) translate(-0.0213073592558212,-0.01473294942839358)"><path d="M 0.020440727970670983 0.013312769467469295 C 0.02058961923656261 0.01331308192665554 0.02245401675134375 0.01343437421152899 0.02222742316137051 0.013316518977704242 C 0.02245401675134375 0.01343437421152899 0.023155398331983247 0.014963416474334077 0.023159851050349862 0.014727032273366275 C 0.023155398331983247 0.014963416474334077 0.02209183549852289 0.01627197081564717 0.02217399054097112 0.016153129389317872" fill="none" stroke="none" stroke-width="0"/>
<path d="M 0.02217399054097112 0.016153129389317872 C 0.021966269517566382 0.016248391062344596 0.01926318423075309 0.01749796279974452 0.019681338260114253 0.01729626946563855 C 0.01926318423075309 0.01749796279974452 0.01694570918268073 0.01867988105966873 0.017156142188637157 0.018573449398589487" fill="none" stroke="#000000" stroke-width="0.001"/>
<path d="M 0.017156142188637157 0.018573449398589487 C 0.017064223104369773 0.018576700964027842 0.015874814960773736 0.018551933606534406 0.01605311317742857 0.01861246818384974 C 0.015874814960773736 0.018551933606534406 0.014930184456391713 0.017783248328051757 0.015016563588779164 0.017847034470805448" fill="none" stroke="none" stroke-width="0"/>
<path d="M 0.015016563588779164 0.017847034470805448 C 0.01501141474649852 0.017757489595315475 0.014997732119804838 0.016617252648132082 0.01495477748141142 0.016772495964925777 C 0.014997732119804838 0.016617252648132082 0.015580122730174239 0.015918416227977412 0.015532019249500175 0.01598411466928113" fill="none" stroke="#000000" stroke-width="0.001"/>
<path d="M 0.015532019249500175 0.01598411466928113 C 0.015743958280506752 0.015874136474094788 0.01848434668167666 0.014441764226894012 0.018075287621579093 0.014664376327044999 C 0.01848434668167666 0.014441764226894012 0.020637847999761975 0.013200135562504652 0.020440727970670983 0.013312769467469295" fill="none" stroke="#000000" stroke-width="0.001"/>
</g></g>
<g id="中指">
<g transform="translate(0.20183842822104475,0.1564106266218884) rotate(0) scale(1,1) translate(-0.00967276663863141,-0.00967276663863141)"><path d="M 0.007093348381252973 0.009336159319095236 C 0.00711199281635198 0.009267843828945032 0.007340660853117715 0.008396908600836939 0.007317081602441063 0.008516373437292791 C 0.007340660853117715 0.008396908600836939 0.007381234204950441 0.00785143193531937 0.007376299389372796 0.007902581281625017" fill="none" stroke="#000000" stroke-width="0.001"/>
<path d="M 0.007376299389372796 0.007902581281625017 C 0.0075821931436182355 0.007835430819306774 0.010190409966570044 0.00699393748852561 0.009847024440318061 0.007096775733806099 C 0.010190409966570044 0.00699393748852561 0.011634417476403128 0.006632834555296904 0.011496925704396584 0.0066685223382591495" fill="none" stroke="#000000" stroke-width="0.001"/>
<path d="M 0.011496925704396584 0.0066685223382591495 C 0.011555883878825194 0.006698004479625901 0.012191274048336299 0.0071234782519241265 0.012204423797539906 0.007022308034660172 C 0.012191274048336299 0.0071234782519241265 0.011267020790321084 0.007954253021323805 0.011339128713953301 0.007882564945426603" fill="none" stroke="#000000" stroke-width="0.001"/>
<path d="M 0.011339128713953301 0.007882564945426603 C 0.011123865919693368 0.007956016030459713 0.008402160155109086 0.008885110830296295 0.008755975182834113 0.00876397796582391 C 0.008402160155109086 0.008885110830296295 0.006954796147787878 0.009383841098534514 0.007093348381252973 0.009336159319095236" fill="none" stroke="none" stroke-width="0"/>
</g><g transform="translate(0.20018983700561221,0.15987460083630123) rotate(0) scale(1,1) translate(-0.018347050754458152,-0.012212198913662067)"><path d="M 0.018556389713405976 0.013600453430172939 C 0.018466217724564537 0.013542251082497564 0.01736626558843345 0.012753617755172678 0.017474325847308708 0.01290202525806845 C 0.01736626558843345 0.012753617755172678 0.01731402599978559 0.011639927933723874 0.017259666606902875 0.011819563395423675 C 0.01731402599978559 0.011639927933723874 0.018198886224817842 0.010656969411191437 0.018126638561901307 0.01074639971767084" fill="none" stroke="none" stroke-width="0"/>
<path d="M 0.018126638561901307 0.01074639971767084 C 0.018236742124199054 0.010735741147647563 0.019706489639914386 0.01058386101657344 0.019447881309474287 0.010618496877391513 C 0.019706489639914386 0.01058386101657344 0.021378443295324866 0.01030679209705916 0.021229938527182513 0.010330769387853956" fill="none" stroke="#000000" stroke-width="0.001"/>
<path d="M 0.021229938527182513 0.010330769387853956 C 0.02129616401038209 0.010353703575377533 0.02212857124853873 0.010704003984068445 0.022024644325577422 0.010605979638136875 C 0.02212857124853873 0.010704003984068445 0.022501855446712404 0.011665411030338546 0.022477061602718226 0.011507061539032805 C 0.022501855446712404 0.011665411030338546 0.022253307320986192 0.012632089186073652 0.02232217045350757 0.012506173533805762 C 0.022253307320986192 0.012632089186073652 0.021594748475707883 0.013060705685617614 0.021650704012461705 0.013018049366247472" fill="none" stroke="#000000" stroke-width="0.001"/>
<path d="M 0.021650704012461705 0.013018049366247472 C 0.021501174645696314 0.013044456259446963 0.019598492086355685 0.013383465756635153 0.019856351611276996 0.013334932084641364 C 0.019598492086355685 0.013383465756635153 0.018448059555250057 0.013622580208967236 0.018556389713405976 0.013600453430172939" fill="none" stroke="#000000" stroke-width="0.001"/>
</g><g transform="translate(0.19911020001288238,0.15717206030423475) rotate(0) scale(1,1) translate(-0.018347050754458152,-0.013480335131195698)"><path d="M 0.017010915927312048 0.014018880544917893 C 0.017042456715608986 0.013922199338290966 0.017537624869367108 0.012721085873824345 0.017389405386875306 0.012858706065394774 C 0.017537624869367108 0.012721085873824345 0.018990039097811332 0.012371032865926643 0.018789549717213663 0.012367438246072738 C 0.018990039097811332 0.012371032865926643 0.01987908864045015 0.012946375108439035 0.019795277954047345 0.012901841503641627" fill="none" stroke="none" stroke-width="0"/>
<path d="M 0.019795277954047345 0.012901841503641627 C 0.019820027127605066 0.012991282934088804 0.020172265483889888 0.014204218889352587 0.020092268036740007 0.013975138669007747 C 0.020172265483889888 0.014204218889352587 0.020810495593438103 0.015790442937677382 0.020755247319845942 0.015650804147779716" fill="none" stroke="#000000" stroke-width="0.001"/>
<path d="M 0.020755247319845942 0.015650804147779716 C 0.020753441130315145 0.015738947809253657 0.02066616435947548 0.016859155403428756 0.020733573045476367 0.016708528085466995 C 0.02066616435947548 0.016859155403428756 0.019789770840662496 0.01752103719276647 0.019946343087835303 0.017458331963320833 C 0.019789770840662496 0.01752103719276647 0.01870068816996056 0.017399042106766596 0.01885470607940267 0.01746099083881461 C 0.01870068816996056 0.017399042106766596 0.018035080015790596 0.016652776873738815 0.018098128174529986 0.016714947178744645" fill="none" stroke="#000000" stroke-width="0.001"/>
<path d="M 0.018098128174529986 0.016714947178744645 C 0.018040650613875487 0.01657596903287658 0.0173177964260745 0.014822537208842313 0.017408397446675994 0.015047209428327876 C 0.0173177964260745 0.014822537208842313 0.01697779246736505 0.013933186471300395 0.017010915927312048 0.014018880544917893" fill="none" stroke="#000000" stroke-width="0.001"/>
</g><g transform="translate(0.2045234007811638,0.1557209009482568) rotate(0) scale(1,1) translate(-0.0213073592558212,-0.01473294942839358)"><path d="M 0.02082545989957683 0.013052546616936585 C 0.020982389745765787 0.013098010515862932 0.022899014036967695 0.013779044580861677 0.022708618053844318 0.013598113404052762 C 0.022899014036967695 0.013779044580861677 0.023034344032107308 0.015453110672180467 0.023110211697057348 0.015223720738643576 C 0.023034344032107308 0.015453110672180467 0.021688872272559404 0.016444715262149755 0.02179820607444386 0.016350792606495433" fill="none" stroke="none" stroke-width="0"/>
<path d="M 0.02179820607444386 0.016350792606495433 C 0.021574404850214435 0.016400441329089098 0.018659648426644894 0.017056272533595974 0.01911259138369074 0.016946577277619404 C 0.018659648426644894 0.017056272533595974 0.016133748857077294 0.01772718221159716 0.01636289058989371 0.017667135678214256" fill="none" stroke="#000000" stroke-width="0.001"/>
<path d="M 0.01636289058989371 0.017667135678214256 C 0.016272947626406385 0.017650344352847857 0.015132800032308113 0.017386725289118048 0.01528357502804579 0.01746563977381746 C 0.015132800032308113 0.017386725289118048 0.01449275860879122 0.0166580387024883 0.014553590641041572 0.016720161861821313" fill="none" stroke="none" stroke-width="0"/>
<path d="M 0.014553590641041572 0.016720161861821313 C 0.014559032912282879 0.01661991742079995 0.014691550874615936 0.015352281099424794 0.014618897895937245 0.015517228569564953 C 0.014691550874615936 0.015352281099424794 0.015492637092623265 0.01467608919102061 0.015425426385185879 0.014740792220139406" fill="none" stroke="#000000" stroke-width="0.001"/>
<path d="M 0.015425426385185879 0.014740792220139406 C 0.01565098935372985 0.014670623945663706 0.018582184800579448 0.013758085792830764 0.018132182007713535 0.013898772926431 C 0.018582184800579448 0.013758085792830764 0.02104989972389877 0.012982027757812051 0.02082545989957683 0.013052546616936585" fill="none" stroke="#000000" stroke-width="0.001"/>
</g></g>
<g id="人指">
<g transform="translate(0.20168758204374587,0.15937600472638108) rotate(0) scale(1,1) translate(-0.00967276663863141,-0.00967276663863141)"><path d="M 0.006865066699888945 0.008886348904881812 C 0.0068876424317428925 0.008847581583513509 0.007167668712033903 0.008348673815540976 0.007135975482136318 0.008421141048462165 C 0.007167668712033903 0.008348673815540976 0.007254502956703603 0.00798304219827466 0.007245385458659966 0.008016742109827545" fill="none" stroke="#000000" stroke-width="0.001"/>
<path d="M 0.007245385458659966 0.008016742109827545 C 0.007471859284676564 0.007963053752478284 0.010279128712335725 0.007308856299755087 0.009963071370859153 0.0073724818216364075 C 0.010279128712335725 0.007308856299755087 0.011127657071838814 0.007243298682719636 0.01103807355637884 0.007253235847251695" fill="none" stroke="#000000" stroke-width="0.001"/>
<path d="M 0.01103807355637884 0.007253235847251695 C 0.01108811841600613 0.0072829972415834115 0.011660904027741443 0.007693570184337115 0.01163861187190632 0.00761037257923229 C 0.011660904027741443 0.007693570184337115 0.011277826722608136 0.008305043319282697 0.011305579426400304 0.00825160710850959" fill="none" stroke="#000000" stroke-width="0.001"/>
<path d="M 0.011305579426400304 0.00825160710850959 C 0.011076337762326622 0.008281723697120075 0.008184636730306843 0.008665901321533102 0.008554679457516123 0.008613006171835417 C 0.008184636730306843 0.008665901321533102 0.006724265636753346 0.008909127465969013 0.006865066699888945 0.008886348904881812" fill="none" stroke="none" stroke-width="0"/>
</g><g transform="translate(0.19967839367872153,0.16213820819927252) rotate(0) scale(1,1) translate(-0.018347050754458152,-0.012212198913662067)"><path d="M 0.01838228295314754 0.013614937244275331 C 0.01830638411305078 0.013545842129431928 0.017389052391092254 0.012622717123933841 0.01747149687198639 0.012785795866154494 C 0.017389052391092254 0.012622717123933841 0.01746286327483479 0.011486774426035051 0.017392949182417933 0.011657992337627486 C 0.01746286327483479 0.011486774426035051 0.018386925714202886 0.0106539466428301 0.01831046598098866 0.010731180927045284" fill="none" stroke="none" stroke-width="0"/>
<path d="M 0.01831046598098866 0.010731180927045284 C 0.018421087985147383 0.010733755385914125 0.019898949596612772 0.010758592734439191 0.019637930030893345 0.010762074433471361 C 0.019898949596612772 0.010758592734439191 0.021593098331182472 0.010683344380758242 0.02144270076962177 0.01068940053865925" fill="none" stroke="#000000" stroke-width="0.001"/>
<path d="M 0.02144270076962177 0.01068940053865925 C 0.02150559020490349 0.010720071750819796 0.022288354275211263 0.01116715086483645 0.022197373993002405 0.011057455084585806 C 0.022288354275211263 0.01116715086483645 0.022539392024476416 0.012165860873550233 0.022534464156128076 0.012005749901666963 C 0.022539392024476416 0.012165860873550233 0.02217249718922544 0.013095522074856468 0.02225650841318249 0.012978786747185033 C 0.02217249718922544 0.013095522074856468 0.021465481223265234 0.013442222757602438 0.021526329468643485 0.013406573833724176" fill="none" stroke="#000000" stroke-width="0.001"/>
<path d="M 0.021526329468643485 0.013406573833724176 C 0.021374612790911143 0.013414918786835053 0.01944372545956406 0.013524076888600627 0.019705729335855387 0.013506713271054698 C 0.01944372545956406 0.013524076888600627 0.018271995754588554 0.013623955908710385 0.01838228295314754 0.013614937244275331" fill="none" stroke="#000000" stroke-width="0.001"/>
</g><g transform="translate(0.19881268737511198,0.15936982694394863) rotate(0) scale(1,1) translate(-0.018347050754458152,-0.013480335131195698)"><path d="M 0.016999868050675583 0.013818268860858495 C 0.017032627294526297 0.013735541918403208 0.017544259924651803 0.012708772777871363 0.017392978976884153 0.012825545551395048 C 0.017544259924651803 0.012708772777871363 0.019019233074972816 0.012433957834553096 0.01881523942388736 0.012416995578574277 C 0.019019233074972816 0.012433957834553096 0.01992637473707816 0.013080100710188091 0.019840902789909635 0.013029092623140875" fill="none" stroke="none" stroke-width="0"/>
<path d="M 0.019840902789909635 0.013029092623140875 C 0.01986038476336364 0.013129025182076039 0.020136549190707294 0.014461964420975193 0.020074686471357732 0.014228283330362837 C 0.020136549190707294 0.014461964420975193 0.020625636167999915 0.01596701424216633 0.020583255422104364 0.01583326571048914" fill="none" stroke="none" stroke-width="0"/>
<path d="M 0.020583255422104364 0.01583326571048914 C 0.02057607020953677 0.015928570357780728 0.020419969833361397 0.017131983050371932 0.020497032871293237 0.016976921477988197 C 0.020419969833361397 0.017131983050371932 0.019496984185786385 0.01774296591080557 0.019658498966922285 0.01769400457909398 C 0.019496984185786385 0.01774296591080557 0.018407502141588157 0.017478637665481907 0.01855885549766243 0.017564457458527256 C 0.018407502141588157 0.017478637665481907 0.017782542293728398 0.016589142862885018 0.017842258694031016 0.016664167062549806" fill="none" stroke="#000000" stroke-width="0.001"/>
<path d="M 0.017842258694031016 0.016664167062549806 C 0.017797592422293576 0.016530864050178742 0.017236064212902125 0.014827372730622781 0.017306263433181746 0.015064530914097056 C 0.017236064212902125 0.014827372730622781 0.016974335102133403 0.013714413689755282 0.016999868050675583 0.013818268860858495" fill="none" stroke="#000000" stroke-width="0.001"/>
</g><g transform="translate(0.20443603979600242,0.15947917457876312) rotate(0) scale(1,1) translate(-0.0213073592558212,-0.01473294942839358)"><path d="M 0.021247734826762635 0.012872797759096978 C 0.021379709283688306 0.01296686040185896 0.0229541451120904 0.014233011853178549 0.022831428309870665 0.014001549472240749 C 0.0229541451120904 0.014233011853178549 0.022585542860508855 0.015853782947324854 0.022720336453399496 0.015650346330350583 C 0.022585542860508855 0.015853782947324854 0.021088369256998276 0.01650882575473046 0.021213905195182986 0.016442788875932007" fill="none" stroke="none" stroke-width="0"/>
<path d="M 0.021213905195182986 0.016442788875932007 C 0.02098506713617465 0.016427979889958512 0.018010518413717983 0.016244409419588386 0.01846784848708296 0.016265081044250083 C 0.018010518413717983 0.016244409419588386 0.015497452300446628 0.016188866741303428 0.01572594431480327 0.016194729379991633" fill="none" stroke="#000000" stroke-width="0.001"/>
<path d="M 0.01572594431480327 0.016194729379991633 C 0.01564735917591929 0.016157613270401553 0.014667293610151736 0.015645903981358632 0.0147829226481955 0.015749336064910656 C 0.014667293610151736 0.015645903981358632 0.014301351959118332 0.014887228403405412 0.014338395858278114 0.014953544377367354" fill="none" stroke="none" stroke-width="0"/>
<path d="M 0.014338395858278114 0.014953544377367354 C 0.014366242958216598 0.014846674765991464 0.01479025853342769 0.013512825975276515 0.014672561057539921 0.013671109040856673 C 0.01479025853342769 0.013512825975276515 0.015840615944880627 0.01300273413620119 0.015750765568931343 0.013054147590405457" fill="none" stroke="#000000" stroke-width="0.001"/>
<path d="M 0.015750765568931343 0.013054147590405457 C 0.015992364648190927 0.01304917513351942 0.019108035291532304 0.012979365621830621 0.018649954520046363 0.012994478107772994 C 0.019108035291532304 0.012979365621830621 0.021464216518988992 0.012862657730040644 0.021247734826762635 0.012872797759096978" fill="none" stroke="#000000" stroke-width="0.001"/>
</g></g>
<g id="親指">
<g transform="translate(0.20312430061102693,0.16432865375760652) rotate(0) scale(1,1) translate(-0.017815859593261256,-0.014881607178823718)"><path d="M 0.017648201715712707 0.01622710766938159 C 0.01755208043127859 0.016201954098590786 0.01630135054334475 0.015881683966217898 0.016494746302503308 0.015925264819891954 C 0.01630135054334475 0.015881683966217898 0.015230178131085582 0.015685710142409656 0.015327452605810022 0.01570413742529291" fill="none" stroke="#000000" stroke-width="0.001"/>
<path d="M 0.015327452605810022 0.01570413742529291 C 0.015198824589406612 0.015678731384501998 0.01358685718849623 0.015318833755846126 0.013783916408969093 0.015399264935801982 C 0.01358685718849623 0.015318833755846126 0.012933705863658128 0.01459936118471841 0.012962741960135653 0.014738963265822623 C 0.012933705863658128 0.01459936118471841 0.0135705211113501 0.013609993107149096 0.01343548325123878 0.013724039962551433 C 0.0135705211113501 0.013609993107149096 0.01467883903399088 0.013340931087531496 0.014583196281471488 0.013370401000994568" fill="none" stroke="#000000" stroke-width="0.001"/>
<path d="M 0.014583196281471488 0.013370401000994568 C 0.014729315990314053 0.01336486673190519 0.016630537606257254 0.013303000511195845 0.01633663278758226 0.013303989771922044 C 0.016630537606257254 0.013303000511195845 0.018257839215403825 0.013363074880643344 0.018110054105571396 0.013358529872280167" fill="none" stroke="#000000" stroke-width="0.001"/>
<path d="M 0.018110054105571396 0.013358529872280167 C 0.018152777221038415 0.013447725452502944 0.018646019409237935 0.014618787545944194 0.018622731491175635 0.014428876834953485 C 0.018646019409237935 0.014618787545944194 0.018308298307697105 0.01578731097370434 0.018389509122319014 0.015637458404168667 C 0.018308298307697105 0.01578731097370434 0.017586426098495513 0.01627624510814933 0.017648201715712707 0.01622710766938159" fill="none" stroke="none" stroke-width="0"/>
</g><g transform="translate(0.20772657643262757,0.16395253904401724) rotate(0) scale(1,1) translate(-0.018110482705012847,-0.015186404574128454)"><path d="M 0.017646049893560462 0.017121424440997915 C 0.01748926013625543 0.017110619787326906 0.015443270843992 0.016988827665001455 0.015764572805900087 0.01699176859694582 C 0.015443270843992 0.016988827665001455 0.01362591414606035 0.01709399697939219 0.013790426350663408 0.017086133257665545" fill="none" stroke="#000000" stroke-width="0.001"/>
<path d="M 0.013790426350663408 0.017086133257665545 C 0.013739643890454416 0.017077599510896612 0.013082301732445876 0.016952150045289303 0.013181036828155503 0.01698372829643834 C 0.013082301732445876 0.016952150045289303 0.012557652566647245 0.016684149739497 0.01260560520214788 0.016707194243877104" fill="none" stroke="#000000" stroke-width="0.001"/>
<path d="M 0.01260560520214788 0.016707194243877104 C 0.012601986775791914 0.01655995121609001 0.012659990624680166 0.014716871800304992 0.012562184085876286 0.014940277910431966 C 0.012659990624680166 0.014716871800304992 0.013880708632954299 0.013950157840013527 0.013779283667794451 0.014026320922353407" fill="none" stroke="none" stroke-width="0"/>
<path d="M 0.013779283667794451 0.014026320922353407 C 0.013935621146419948 0.014003578830111867 0.01596068989499397 0.013695444121500491 0.015655333411300418 0.01375341581545493 C 0.01596068989499397 0.013695444121500491 0.01759258047718513 0.013295430993187233 0.017443561472117078 0.013330660594900132" fill="none" stroke="#000000" stroke-width="0.001"/>
<path d="M 0.017443561472117078 0.013330660594900132 C 0.017627123744273564 0.013535767788323596 0.019777257661211033 0.016095736874382427 0.0196463087379949 0.015791946915981705 C 0.019777257661211033 0.016095736874382427 0.018848260313674488 0.017086929889460162 0.019014948550710693 0.016976140095708813 C 0.018848260313674488 0.017086929889460162 0.01753197500546461 0.017133531469772006 0.017646049893560462 0.017121424440997915" fill="none" stroke="#000000" stroke-width="0.001"/>
</g><g transform="translate(0.21474025717245473,0.16005284674337145) rotate(0) scale(1,1) translate(-0.02374131944444444,-0.01749131944444444)"><path d="M 0.028396557717502848 0.017070498914893616 C 0.028000189916761124 0.01740642514596099 0.022732407661909235 0.021615539276516518 0.02364014410860217 0.0211016136877021 C 0.022732407661909235 0.021615539276516518 0.016992351711236413 0.023415605338413685 0.017503720357187624 0.02323760598066664" fill="none" stroke="#000000" stroke-width="0.001"/>
<path d="M 0.017503720357187624 0.02323760598066664 C 0.017385809571041754 0.023217781376150156 0.01589349672535411 0.022908590987638044 0.0160887909234372 0.022999710726468853 C 0.01589349672535411 0.022908590987638044 0.01507996401741468 0.02194334830699412 0.015160189980190544 0.022144169114696906 C 0.01507996401741468 0.02194334830699412 0.015200588564250179 0.020372614788827438 0.015126079370126836 0.020589861034035387 C 0.015200588564250179 0.020372614788827438 0.01613165205463264 0.019449493600382037 0.016054300309670654 0.019537214172201525" fill="none" stroke="none" stroke-width="0"/>
<path d="M 0.016054300309670654 0.019537214172201525 C 0.01590249600278139 0.019412129843314894 0.014618308460968493 0.01759643885735164 0.014232648626999482 0.018036202225561952 C 0.014618308460968493 0.01759643885735164 0.021219682458157044 0.013945374714354102 0.02068221831729877 0.014260053753677783" fill="none" stroke="#000000" stroke-width="0.001"/>
<path d="M 0.02068221831729877 0.014260053753677783 C 0.02086208007432535 0.014293317738416446 0.02321337480754184 0.014755629479170806 0.02284055940161773 0.01465922157054174 C 0.02321337480754184 0.014755629479170806 0.02549973762257884 0.015554192100892837 0.025156003188388103 0.015416948657226582 C 0.02549973762257884 0.015554192100892837 0.027235418822666134 0.01644393874934238 0.026965372611906572 0.016306142894536794 C 0.027235418822666134 0.01644393874934238 0.028515823142969205 0.01713419524992335 0.028396557717502848 0.017070498914893616" fill="none" stroke="none" stroke-width="0"/>
</g><g transform="translate(0.20532604683621497,0.16413872667608917) rotate(0) scale(1,1) translate(-0.00967276663863141,-0.00967276663863141)"><path d="M 0.006651470893423772 0.008892920200716102 C 0.006559003115003863 0.008812471218307841 0.005278321633646385 0.007825431709616271 0.005541857552384869 0.007927532411816965 C 0.005278321633646385 0.007825431709616271 0.0033179717282433917 0.007646060054515348 0.003489039868561967 0.00766771177430778" fill="none" stroke="#000000" stroke-width="0.001"/>
<path d="M 0.003489039868561967 0.00766771177430778 C 0.0034989902039001264 0.007540863232852743 0.004043769567485686 0.006030632747119281 0.0036084438926198806 0.00614552927684734 C 0.004043769567485686 0.006030632747119281 0.009138323306479273 0.006300905429298045 0.008712947966951627 0.006288953417571068" fill="none" stroke="#000000" stroke-width="0.001"/>
<path d="M 0.008712947966951627 0.006288953417571068 C 0.008939084213418219 0.006403291009988644 0.011628077909473473 0.007834336837647147 0.011426582924550737 0.007661004526581983 C 0.011628077909473473 0.007834336837647147 0.011106246524480601 0.008427935869000635 0.011130887786024458 0.008368941150353046" fill="none" stroke="#000000" stroke-width="0.001"/>
<path d="M 0.011130887786024458 0.008368941150353046 C 0.010932978402425263 0.008401860884975618 0.008382690441784055 0.008807642886687497 0.008755975182834113 0.00876397796582391 C 0.008382690441784055 0.008807642886687497 0.0064760955359729104 0.008903665386957117 0.006651470893423772 0.008892920200716102" fill="none" stroke="#000000" stroke-width="0.001"/>
</g></g>
<g transform="translate(0.2193798439177092,0.15510363692965318) rotate(0) scale(1,1) translate(-0.037430889589031235,-0.028734443662627084)"><path d="M 0.037579480103551756 0.03325183718496478 C 0.036947330868695186 0.03340201463169485 0.028842172181994807 0.035216883748187926 0.029993689285272875 0.035053966545725616 C 0.028842172181994807 0.035216883748187926 0.02324190699579344 0.03521958337024477 0.023761274864214935 0.035206843614512526" fill="none" stroke="none" stroke-width="0"/>
<path d="M 0.023761274864214935 0.035206843614512526 C 0.023586699383332046 0.03516122250053033 0.02142533506129603 0.03457303780598597 0.02166636909362027 0.034659390246726166 C 0.02142533506129603 0.03457303780598597 0.020802407924882742 0.034129882998872214 0.02086886647632409 0.03417061432563021" fill="none" stroke="#000000" stroke-width="0.001"/>
<path d="M 0.020817431184239767 0.03176351457124028 C 0.020850111759375515 0.03172633345006513 0.021291238148537853 0.031249180492418458 0.021209598085868763 0.031317341117138554 C 0.021291238148537853 0.031249180492418458 0.021846071423802176 0.030914607571054152 0.021797111936268838 0.030945587074599105" fill="none" stroke="#000000" stroke-width="0.001"/>
<path d="M 0.021797111936268838 0.030945587074599105 C 0.02175190092151356 0.030908437972552008 0.021175928314014835 0.030402293029489425 0.021254579759205503 0.030499797850033927 C 0.021175928314014835 0.030402293029489425 0.020819854163545433 0.029715173509567674 0.020853294593980824 0.02977552922806508" fill="none" stroke="none" stroke-width="0"/>
<path d="M 0.020881918901321628 0.0281805221654421 C 0.020933983818603855 0.028128454981190175 0.021627579029690095 0.02746656374486787 0.021506697908708346 0.027555715954419 C 0.021627579029690095 0.02746656374486787 0.022401308556802127 0.027073610625529335 0.022332492353102605 0.02711069565082854" fill="none" stroke="#000000" stroke-width="0.001"/>
<path d="M 0.022332492353102605 0.02711069565082854 C 0.022286290885332672 0.02706541743420708 0.02170206802975926 0.026464849341931752 0.021778074739863415 0.026567357051371036 C 0.02170206802975926 0.026464849341931752 0.021390606589518524 0.025823373644739318 0.021420411831852747 0.02588060313755714" fill="none" stroke="none" stroke-width="0"/>
<path d="M 0.021465889212689177 0.024459312375283516 C 0.02152740621787096 0.024402921316162566 0.02234022036972216 0.02369403034041865 0.022204093274870582 0.0237826196658321 C 0.02234022036972216 0.02369403034041865 0.02317402444057789 0.023364042204029645 0.0230994143509081 0.02339624047032214" fill="none" stroke="#000000" stroke-width="0.001"/>
<path d="M 0.0230994143509081 0.02339624047032214 C 0.023062484860880136 0.023357825548730126 0.022596654511909738 0.022841020644896425 0.022656260470572533 0.022935261411217964 C 0.022596654511909738 0.022841020644896425 0.022361466378319705 0.022209525429734128 0.022384142846954537 0.022265351274463652" fill="none" stroke="none" stroke-width="0"/>
<path d="M 0.022974194271956173 0.02036066354519721 C 0.023049852273414807 0.020329980533710258 0.0240562143368013 0.01996311966500129 0.02388209028945981 0.019992467407353748 C 0.0240562143368013 0.01996311966500129 0.025162148885936923 0.02000982590610222 0.02506368284005407 0.020008490636967722" fill="none" stroke="#000000" stroke-width="0.001"/>
<path d="M 0.02506368284005407 0.020008490636967722 C 0.025717310044197347 0.02014197159328298 0.0339644260298154 0.02196301696996336 0.03290720928977342 0.021610262112750814 C 0.0339644260298154 0.02196301696996336 0.03815387325645651 0.0244608228244156 0.03775028372055781 0.02424154892351831" fill="none" stroke="#000000" stroke-width="0.001"/>
<path d="M 0.03775028372055781 0.02424154892351831 C 0.03763337567055997 0.024328892718131667 0.036181643876028395 0.025653741151900028 0.03634738712058373 0.025289674458878596 C 0.036181643876028395 0.025653741151900028 0.03573830296400668 0.02913700846444687 0.0357613647858938 0.028610349239775495 C 0.03573830296400668 0.02913700846444687 0.036222154867743175 0.0319963758170342 0.03607064525793834 0.03160958515493509 C 0.036222154867743175 0.0319963758170342 0.03770521634068621 0.03338869152080059 0.037579480103551756 0.03325183718496478" fill="none" stroke="none" stroke-width="0"/>
</g><g transform="translate(0.2111120037765969,0.1539542931630998) rotate(0) scale(1,1) translate(-0.014303772200158306,-0.014303772200158308)"><path d="M 0.01667339237869104 0.00790410556633274 C 0.016845705826660548 0.007594593396678968 0.017996874873991934 0.006049126131831856 0.0177072730665081 0.006047032548410111 C 0.017996874873991934 0.006049126131831856 0.01874490334512401 0.008015719323558265 0.018411003223594048 0.007916667066863215 C 0.01874490334512401 0.008015719323558265 0.01997239201555613 0.006750390244420058 0.01971067379568786 0.006641346088580404 C 0.01997239201555613 0.006750390244420058 0.020026419000656315 0.008892529654121264 0.019981312542803678 0.00857093200190114" fill="none" stroke="#000000" stroke-width="0.001"/>
<path d="M 0.019981312542803678 0.00857093200190114 C 0.020267255695599597 0.00865455630797289 0.022229470667062365 0.00907313620129731 0.021696971459579197 0.009072677838331633 C 0.022229470667062365 0.00907313620129731 0.02340663641960303 0.008731528237094374 0.02317630778770268 0.008573682179695197 C 0.02340663641960303 0.008731528237094374 0.023269727062421558 0.010688598452855021 0.023078943250981296 0.010019754182726694 C 0.023269727062421558 0.010688598452855021 0.02460334374269088 0.013523771799366877 0.024321010656344247 0.012586747800465169 C 0.02460334374269088 0.013523771799366877 0.02476247755634316 0.016719693860700168 0.0247729417690611 0.01564189817613694 C 0.02476247755634316 0.016719693860700168 0.024336858229036987 0.019824215279770355 0.02425822538003662 0.019053521907844546 C 0.024336858229036987 0.019824215279770355 0.025090963553089176 0.020587741365849826 0.025244738863063283 0.0202660584076918 C 0.025090963553089176 0.020587741365849826 0.023107868738612525 0.02142585768972733 0.023335573520191985 0.0209836196567927 C 0.023107868738612525 0.02142585768972733 0.02366245914522945 0.023171685320861356 0.02387851017358652 0.022919486605299598 C 0.02366245914522945 0.023171685320861356 0.0214334494905633 0.022563866669771275 0.02203926735004958 0.022496811950163252 C 0.0214334494905633 0.022563866669771275 0.01994432562777204 0.023459315418411807 0.020243603016668832 0.02332181492294773" fill="none" stroke="none" stroke-width="0"/>
<path d="M 0.020243603016668832 0.02332181492294773 C 0.02029286822556418 0.023643906508247447 0.020251787515231486 0.025385535188335286 0.020539194270040924 0.025254364434746032 C 0.020251787515231486 0.025385535188335286 0.018117405992900387 0.02423441354656168 0.018519162487812213 0.02410883944448325 C 0.018117405992900387 0.02423441354656168 0.017778867526991614 0.025994376157756943 0.018128655300569972 0.02600780904721662 C 0.017778867526991614 0.025994376157756943 0.016135732603970752 0.023698314284476617 0.01642043584634207 0.024028242107725188" fill="none" stroke="#000000" stroke-width="0.001"/>
<path d="M 0.01642043584634207 0.024028242107725188 C 0.016168377068444914 0.023758534715544097 0.014482106707553802 0.022406454210169416 0.014908083178959136 0.022409997754638637 C 0.014482106707553802 0.022406454210169416 0.013690659324401878 0.02427314468862173 0.013864577017910058 0.02400698084090986" fill="none" stroke="none" stroke-width="0"/>
<path d="M 0.013864577017910058 0.02400698084090986 C 0.013732237221283547 0.023276185331840765 0.012614627218066526 0.01906177074756375 0.01307053823815099 0.019622207786495295 C 0.012614627218066526 0.01906177074756375 0.010805539673945319 0.020814717077458123 0.011129110897403273 0.020644358607320577" fill="none" stroke="none" stroke-width="0"/>
<path d="M 0.011129110897403273 0.020644358607320577 C 0.011128623810693397 0.020333725486529897 0.010966764877587885 0.016417454734266767 0.011123265856884754 0.016916761157832423 C 0.010966764877587885 0.016417454734266767 0.009095085253253853 0.014464008221757736 0.009251099145840845 0.014652681524532711" fill="none" stroke="none" stroke-width="0"/>
<path d="M 0.009251099145840845 0.014652681524532711 C 0.009383803804196986 0.014530704243715668 0.011061382264108027 0.012693127786291265 0.01084355504611453 0.013188954154728186 C 0.011061382264108027 0.012693127786291265 0.011950148321400159 0.008328916015669777 0.011865025761762803 0.008702765103289654" fill="none" stroke="none" stroke-width="0"/>
<path d="M 0.011865025761762803 0.008702765103289654 C 0.012044457652945552 0.009103454039268639 0.013358866161605611 0.010901548020544608 0.012941617108859292 0.011106898719163563 C 0.013358866161605611 0.010901548020544608 0.01460633723980429 0.006864621276977983 0.014368520078240719 0.007470660911575923" fill="none" stroke="none" stroke-width="0"/>
<path d="M 0.014368520078240719 0.007470660911575923 C 0.01450875763774196 0.0077742083120586145 0.015594090818656562 0.009364186090264875 0.015209945435248175 0.009291945314472073 C 0.015594090818656562 0.009364186090264875 0.016917300202598184 0.00767279894164285 0.01667339237869104 0.00790410556633274" fill="none" stroke="none" stroke-width="0"/>
</g><g id="鱗">
<g transform="translate(0.2111120037765969,0.1539542931630998) rotate(0) scale(1,1) translate(-0.022056771251806547,-0.022056771251806547)"><path d="M 0.024283633234247124 0.028982677991180966 C 0.0246186041655892 0.028535588859151223 0.02837832883622097 0.022706716467400658 0.028303284410352056 0.023617608406824073 C 0.02837832883622097 0.022706716467400658 0.02492423983920093 0.017588171910706333 0.025184166344674092 0.018051974718100005" fill="none" stroke="none" stroke-width="0"/>
<path d="M 0.025184166344674092 0.018051974718100005 C 0.025510278958043794 0.018005391860417042 0.029634962904081324 0.017601549304798517 0.029097517705110525 0.01749298042590447 C 0.029634962904081324 0.017601549304798517 0.03184484131792479 0.019509953001405594 0.03163350873232369 0.019354801264828584" fill="none" stroke="#000000" stroke-width="0.001"/>
<path d="M 0.03163350873232369 0.019354801264828584 C 0.03175208314117555 0.019640441260941416 0.03305186946114101 0.023416473897756536 0.03305640163854602 0.022782481218182556 C 0.03305186946114101 0.023416473897756536 0.031456016017206746 0.0273110661031775 0.031579122603463614 0.02696271341971635" fill="none" stroke="#000000" stroke-width="0.001"/>
<path d="M 0.031579122603463614 0.02696271341971635 C 0.0313412293502797 0.02710036884352055 0.028116446117821943 0.028782908886322144 0.02872440356525665 0.02861457850536676 C 0.028116446117821943 0.028782908886322144 0.023913569039996332 0.029013352948332148 0.024283633234247124 0.028982677991180966" fill="none" stroke="#000000" stroke-width="0.001"/>
</g><g transform="translate(0.21378913231425095,0.15541484826593374) rotate(0) scale(1,1) translate(-0.022056771251806547,-0.022056771251806547)"><path d="M 0.017910240143461445 0.02701018493410535 C 0.01823511221575136 0.02655972951572489 0.021860185432354257 0.020633234819803396 0.021808705010940396 0.0216047199135398 C 0.021860185432354257 0.020633234819803396 0.018254613549551744 0.014831334133912544 0.018528005200427793 0.015352363809268486" fill="none" stroke="none" stroke-width="0"/>
<path d="M 0.018528005200427793 0.015352363809268486 C 0.018813722377588833 0.01531587981063769 0.022490690238980367 0.015036589849995868 0.02195661132636029 0.014914555825698932 C 0.022490690238980367 0.015036589849995868 0.025185313887327768 0.016975290123759458 0.02493695215186873 0.016816772100831726" fill="none" stroke="#000000" stroke-width="0.001"/>
<path d="M 0.02493695215186873 0.016816772100831726 C 0.025072357992474203 0.017146173819503938 0.026574121493482993 0.021477643704188136 0.02656182223913439 0.020769592724898277 C 0.026574121493482993 0.021477643704188136 0.02496143661779508 0.025692033112927663 0.02508454320405195 0.02531338385231002" fill="none" stroke="#000000" stroke-width="0.001"/>
<path d="M 0.02508454320405195 0.02531338385231002 C 0.024770859781718814 0.025527033747378115 0.020722483547671776 0.028018582683276776 0.021320342136054316 0.027877182593127166 C 0.020722483547671776 0.028018582683276776 0.01762606497741204 0.026937935129186866 0.017910240143461445 0.02701018493410535" fill="none" stroke="#000000" stroke-width="0.001"/>
</g><g transform="translate(0.20997168145249334,0.15486251487548341) rotate(0) scale(1,1) translate(-0.022056771251806547,-0.022056771251806547)"><path d="M 0.017163396523704213 0.028152233079643728 C 0.017257330658370717 0.028002772552160566 0.018290370977624214 0.02606488385066353 0.018290606139702275 0.026358706749845785 C 0.018290370977624214 0.02606488385066353 0.0170664052820229 0.02448199591775757 0.01716057457876747 0.024626358289456664" fill="none" stroke="#000000" stroke-width="0.001"/>
<path d="M 0.01716057457876747 0.024626358289456664 C 0.017270318634614222 0.02444996747116773 0.018505521642860238 0.022177590608261206 0.018477503248928523 0.022509668469989433 C 0.018505521642860238 0.022177590608261206 0.017415069644032992 0.020485736905278648 0.017496795305948033 0.02064142394871794" fill="none" stroke="#000000" stroke-width="0.001"/>
<path d="M 0.017496795305948033 0.02064142394871794 C 0.01761622961661761 0.020507977644529697 0.018971490573317547 0.018728188154835138 0.018930007033982947 0.019040068298459036 C 0.018971490573317547 0.018728188154835138 0.017916647006628265 0.016720428385795526 0.01799459777796324 0.01689886222523118" fill="none" stroke="#000000" stroke-width="0.001"/>
<path d="M 0.01799459777796324 0.01689886222523118 C 0.018119743150760897 0.016750218906206708 0.019546698837233874 0.014841818970490212 0.01949634225153514 0.015115142396937497 C 0.019546698837233874 0.014841818970490212 0.018524088019249103 0.013494301000440967 0.01859887680634803 0.013618981107863777" fill="none" stroke="#000000" stroke-width="0.001"/>
<path d="M 0.01859887680634803 0.013618981107863777 C 0.018925611723144484 0.013728473235002047 0.023064700185119153 0.015230483001885533 0.022519695807905485 0.01493288663352302 C 0.023064700185119153 0.015230483001885533 0.025357198793329247 0.017378241769438172 0.025138929332912036 0.01719013752821393" fill="none" stroke="#000000" stroke-width="0.001"/>
<path d="M 0.025138929332912036 0.01719013752821393 C 0.025263827710235998 0.017513721335159355 0.02663633966763063 0.021767213591617967 0.026637709860799587 0.021073143211559044 C 0.02663633966763063 0.021767213591617967 0.02499621844439163 0.02588946866203451 0.025122487014884547 0.025518982088921012" fill="none" stroke="#000000" stroke-width="0.001"/>
<path d="M 0.025122487014884547 0.025518982088921012 C 0.02481828954525956 0.02575303400420811 0.02080885983845301 0.028547042654926424 0.021472117379384707 0.0283276050723662 C 0.02080885983845301 0.028547042654926424 0.016804336452397504 0.028137618746916854 0.017163396523704213 0.028152233079643728" fill="none" stroke="#000000" stroke-width="0.001"/>
</g></g>
<g id="悪タトゥ">
<g id="五芒星">
<g transform="translate(0.2111120037765969,0.1539542931630998) rotate(0) scale(1,1) translate(-0.25155149516253505,-0.25573631032976507)"><path d="M 0.256386636506772 0.2600622001114768 C 0.2558481980080637 0.26046118768475507 0.25142547141288907 0.2610992254425911 0.25210518271452714 0.2611801393941383 C 0.25142547141288907 0.2610992254425911 0.24780728244454867 0.25857781551196907 0.24823010088711517 0.25909123269291057 C 0.24780728244454867 0.25857781551196907 0.2471131171294682 0.2543739656339448 0.24703136140372914 0.2550191332228405 C 0.2471131171294682 0.2543739656339448 0.24974960809469254 0.25095023405288464 0.24921116959598416 0.2513492216261629 C 0.24974960809469254 0.25095023405288464 0.2541723346898677 0.25031219629504825 0.25349262338822964 0.25023128234350106 C 0.2541723346898677 0.25031219629504825 0.25779052365820765 0.25283360622567064 0.2573677052156412 0.25232018904472914 C 0.25779052365820765 0.25283360622567064 0.2584846889732881 0.25703745610369494 0.2585664446990272 0.2563922885147993 C 0.2584846889732881 0.25703745610369494 0.2558481980080637 0.26046118768475507 0.256386636506772 0.2600622001114768 Z" fill="#cccccc" stroke="#000000" stroke-width="0.001"/>
</g><g transform="translate(0.21242294472084994,0.15372731784079305) rotate(0) scale(1,1) translate(-0.25613753700109465,-0.2561375370010946)"><path d="M 0.2589000917617479 0.25949203371794066 C 0.25848549411774246 0.2597992541493649 0.25507999463945796 0.2602905432228985 0.25560337234171926 0.26035284696558986 C 0.25507999463945796 0.2602905432228985 0.2522939891338361 0.25834905757631943 0.2526195593346123 0.2587443888056444 C 0.2522939891338361 0.25834905757631943 0.25175948184122426 0.25511209317024097 0.25169652993240516 0.2556088722136906 C 0.25175948184122426 0.25511209317024097 0.25378957988444695 0.2524758198528244 0.2533749822404415 0.2527830402842487 C 0.25378957988444695 0.2524758198528244 0.2571950793627314 0.25198453077929067 0.2566717016604701 0.25192222703659933 C 0.2571950793627314 0.25198453077929067 0.25998108486835336 0.2539260164258697 0.2596555146675772 0.25353068519654476 C 0.25998108486835336 0.2539260164258697 0.26051559216096526 0.2571629808319485 0.26057854406978437 0.25666620178849886 C 0.26051559216096526 0.2571629808319485 0.25848549411774246 0.2597992541493649 0.2589000917617479 0.25949203371794066 Z" fill="#cccccc" stroke="#000000" stroke-width="0.001"/>
</g><g transform="translate(0.21242294472084994,0.15372731784079305) rotate(0) scale(1,1) translate(-0.03408017706782698,-0.03408017706782699)"><path d="M 0.03607973613924612 0.034318207869184325 C 0.03639023658960722 0.03484896887297227 0.037674339309008674 0.037776202588314337 0.03794273884141269 0.037502773891912006 C 0.037674339309008674 0.037776202588314337 0.03389043896205689 0.035701447740212666 0.034469338944822 0.03595878004759829" fill="none" stroke="#000000" stroke-width="0.001"/>
<path d="M 0.034469338944822 0.03595878004759829 C 0.034035295452577975 0.03640071416587955 0.03150704371114027 0.03845111920924197 0.031865077991357856 0.03861038475728583 C 0.03150704371114027 0.03845111920924197 0.032397142475542914 0.03440198709301001 0.032321133263516474 0.03500318675933513" fill="none" stroke="#000000" stroke-width="0.001"/>
<path d="M 0.032321133263516474 0.03500318675933513 C 0.03174237918235287 0.034745556061433217 0.0288957309546268 0.03308554235359336 0.028848608776534855 0.03345740257192367 C 0.0288957309546268 0.03308554235359336 0.033229742591323684 0.032657795928924864 0.03260386633206814 0.032772025449353266" fill="none" stroke="#000000" stroke-width="0.001"/>
<path d="M 0.03260386633206814 0.032772025449353266 C 0.032680220131025346 0.03217086680322327 0.03344914651371371 0.029094516866625057 0.03306198912581137 0.029165073572573284 C 0.03344914651371371 0.029094516866625057 0.03523761424842731 0.032879287153845686 0.03492681065948217 0.032348685213663915" fill="none" stroke="#000000" stroke-width="0.001"/>
<path d="M 0.03492681065948217 0.032348685213663915 C 0.0355527539835715 0.032234779435626616 0.038874624850645474 0.03199350432136018 0.03868247060401815 0.03166525054544011 C 0.038874624850645474 0.03199350432136018 0.03564594706178412 0.034760367423141696 0.03607973613924612 0.034318207869184325" fill="none" stroke="#000000" stroke-width="0.001"/>
</g><g transform="translate(0.21242294472084994,0.15372731784079305) rotate(0) scale(1,1) translate(-0.03408017706782698,-0.03408017706782699)"><path d="M 0.034469338944822 0.03595878004759829 C 0.033842905132200396 0.036072943195956754 0.03201022116139083 0.034472060992960955 0.032321133263516474 0.03500318675933513 C 0.03201022116139083 0.034472060992960955 0.03303814589806242 0.03232960852507473 0.03260386633206814 0.032772025449353266 C 0.03303814589806242 0.03232960852507473 0.03550612229401184 0.03260638228363576 0.03492681065948217 0.032348685213663915 C 0.03550612229401184 0.03260638228363576 0.036003490853469426 0.03491989034150672 0.03607973613924612 0.034318207869184325 C 0.036003490853469426 0.03491989034150672 0.033842905132200396 0.036072943195956754 0.034469338944822 0.03595878004759829 Z" fill="#cccccc" stroke="#000000" stroke-width="0.001"/>
</g></g>
</g>
<g id="グローブ">
<g transform="translate(0.2111120037765969,0.1539542931630998) rotate(0) scale(1,1) translate(-0.003389818855922237,-0.0033898188559222373)"><path d="M 0.011977053140617153 4.6267905744579655E-05 C 0.012097933998510516 0.0001836640835494912 0.013615557641415008 0.002058410509878339 0.013427623435337512 0.0016950220394035178 C 0.013615557641415008 0.002058410509878339 0.014213445926728368 0.0048718335795776176 0.0142322636135471 0.004406929551442432 C 0.014213445926728368 0.0048718335795776176 0.012999643350329071 0.007661339258649182 0.013201811193512724 0.007273870377025748 C 0.012999643350329071 0.007661339258649182 0.011689952687162488 0.009205113277081785 0.011806249495343276 0.009056556130923628" fill="none" stroke="none" stroke-width="0"/>
<path d="M 0.011806249495343276 0.009056556130923628 C 0.011692447552893266 0.009201889776271583 0.010127074120615505 0.011129479503477126 0.010440626185943155 0.010800559875099083 C 0.010127074120615505 0.011129479503477126 0.007843874588533844 0.01318717765449022 0.008043624711411483 0.013003591671460132" fill="none" stroke="#000000" stroke-width="0.001"/>
<path d="M 0.008043624711411483 0.013003591671460132 C 0.0076348131438332125 0.012598145096061459 0.0022366016730968096 0.007401353976752674 0.0031378859004722423 0.008138232766676062 C 0.0022366016730968096 0.007401353976752674 -0.0032642586768908727 0.0038296139778547585 -0.00277178601709371 0.004161046192379474" fill="none" stroke="#000000" stroke-width="0.001"/>
<path d="M -0.00277178601709371 0.004161046192379474 C -0.002228912055500439 0.0037581989229184855 0.00456592535853545 -0.0012741924474856201 0.003742701522025545 -0.0006731210411523915 C 0.00456592535853545 -0.0012741924474856201 0.007387249895941775 -0.003250034820491509 0.007106900021025142 -0.003051810683619269" fill="none" stroke="#000000" stroke-width="0.001"/>
<path d="M 0.007106900021025142 -0.003051810683619269 C 0.007289788482275626 -0.0029635078869107044 0.00970740764933028 -0.0017340039073361693 0.009301561556030945 -0.00199217712311649 C 0.00970740764933028 -0.0017340039073361693 0.012200010772666001 0.00021613832481633593 0.011977053140617151 4.626790574458009E-05" fill="none" stroke="#000000" stroke-width="0.001"/>
</g><g transform="translate(0.2114648864427002,0.14989135326602518) rotate(0) scale(1,1) translate(-0.004561674574908911,-0.004561674574908911)"><path d="M -0.0026329495570143347 0.009374227230790247 C -0.0020537242624215505 0.008942083465599196 0.005144096513363172 0.0035753573183903843 0.004317753978099079 0.004188502048497645 C 0.005144096513363172 0.0035753573183903843 0.007530278106826089 0.0018354895045869027 0.007283160866154781 0.0020164904695031136" fill="none" stroke="#000000" stroke-width="0.001"/>
<path d="M 0.007283160866154781 0.0020164904695031136 C 0.007329575995696292 0.0020266389794117235 0.007912730786568524 0.002158171572417791 0.007840142420652913 0.002138272588406434 C 0.007912730786568524 0.002158171572417791 0.008180394493516199 0.002265028751742149 0.0081542212571421 0.002255278277639402" fill="none" stroke="#000000" stroke-width="0.001"/>
<path d="M 0.0081542212571421 0.002255278277639402 C 0.00788058827045136 0.0024694527513891536 0.004092498836525777 0.005417395698746718 0.004870625416853213 0.004825371962636423 C 0.004092498836525777 0.005417395698746718 -0.0016877913004238409 0.009737412373323479 -0.0011832977067871445 0.009359563110962936" fill="none" stroke="#000000" stroke-width="0.001"/>
<path d="M -0.0011832977067871445 0.009359563110962936 C -0.0012436998672132773 0.00936017411595574 -0.0020289279527530056 0.009368117180862202 -0.0019081236319007397 0.009366895170876592 C -0.0020289279527530056 0.009368117180862202 -0.002693351717440468 0.009374838235783051 -0.0026329495570143347 0.009374227230790247" fill="none" stroke="none" stroke-width="0"/>
</g><g transform="translate(0.21086007082114688,0.15870270707385362) rotate(0) scale(1,1) translate(-0.004561674574908911,-0.004561674574908911)"><path d="M -0.002028133935461009 0.0005628734229617793 C -0.0019677317750348765 0.0005622624179689758 -0.0011825036894951499 0.000554319353062531 -0.0013033080103474154 0.0005555413630481379 C -0.0011825036894951499 0.000554319353062531 -0.0005180799248076903 0.0005475982981416929 -0.000578482085233823 0.0005482093031344964" fill="none" stroke="none" stroke-width="0"/>
<path d="M -0.000578482085233823 0.0005482093031344964 C -0.00013167490944638802 0.0008984684876071278 0.005646388788954363 0.005472446874288027 0.004783204024215396 0.004751319516806074 C 0.005646388788954363 0.005472446874288027 0.010196112680585314 0.009572605765927259 0.009779735091633782 0.009201737592917937" fill="none" stroke="#000000" stroke-width="0.001"/>
<path d="M 0.009779735091633782 0.009201737592917937 C 0.009754850537190225 0.009226901727755945 0.009431642137308975 0.009551896761959269 0.009481120438311104 0.009503707210974039 C 0.009431642137308975 0.009551896761959269 0.009161401733049664 0.009803037620887915 0.009185995479608236 0.009780012204740693" fill="none" stroke="#000000" stroke-width="0.001"/>
<path d="M 0.009185995479608236 0.009780012204740693 C 0.008798312721509723 0.009429585974475336 0.003599291597836973 0.00480680254307485 0.004533802382426077 0.005574897441556426 C 0.003599291597836973 0.00480680254307485 -0.0025749619619515997 0.00014520475474555876 -0.002028133935461009 0.0005628734229617793" fill="none" stroke="#000000" stroke-width="0.001"/>
</g></g>
</svg>
