<?xml version="1.0" encoding="UTF-8"?>
<svg xmlns="http://www.w3.org/2000/svg" viewBox="0 0 1 1">
<g transform="translate(0.3162111684713726,0.08586243713995967) rotate(0) scale(1,1) translate(-0.16982229769154875,-0.1566406284573846)"><path d="M 0.16894237986460395 0.16866943153616581 C 0.16892375152382813 0.16955601716343938 0.16907625706627838 0.181495169525748 0.1687188397752942 0.1793084590634484 C 0.16907625706627838 0.181495169525748 0.17360743298817413 0.19621008191878725 0.17323138735641413 0.1949099570837612" fill="none" stroke="#000000" stroke-width="0.001"/>
<path d="M 0.17323138735641413 0.1949099570837612 C 0.1732127358575723 0.19506448137805824 0.17278922663808216 0.19687603237659929 0.17300756937031203 0.1967642486153259 C 0.17278922663808216 0.19687603237659929 0.1704115833362675 0.19620862168601794 0.17061127456965552 0.19625136221904163" fill="none" stroke="#000000" stroke-width="0.001"/>
<path d="M 0.17061127456965552 0.19625136221904163 C 0.17009472186543306 0.19465663271526396 0.1639702060844048 0.17452894623281653 0.164412642118986 0.17711460817370958 C 0.1639702060844048 0.17452894623281653 0.1653761588243221 0.16423248649120967 0.16530204215468086 0.16522341892832504" fill="none" stroke="#000000" stroke-width="0.001"/>
</g><g id="編節1">
<g transform="translate(0.31845473594794976,0.12453146669943058) rotate(0) scale(1,1) translate(-0.13796833536796266,-0.11460177227368223)"><path d="M 0.13902915323905635 0.11460177227368223 C 0.1390890772753189 0.11467228278925279 0.13983664316346484 0.11560101433138809 0.13974824167420702 0.1154478984605288 C 0.13983664316346484 0.11560101433138809 0.14011844856314537 0.1165217680792824 0.14008997111015012 0.11643916272399366" fill="none" stroke="#000000" stroke-width="0.001"/>
<path d="M 0.14008997111015012 0.11643916272399366 C 0.14005544623729577 0.11652418704722603 0.13957843099771425 0.11761257047364147 0.13967567263589784 0.11745945460278219 C 0.13957843099771425 0.11761257047364147 0.13886035468661775 0.11834464472193201 0.138923071451947 0.1182765531743051" fill="none" stroke="#000000" stroke-width="0.001"/>
<path d="M 0.138923071451947 0.1182765531743051 C 0.13891241225350162 0.11831633384447111 0.1387553804004367 0.11882282335818396 0.13879516107060272 0.11875392121629728 C 0.1387553804004367 0.11882282335818396 0.13837680126806814 0.11914315954711126 0.13844570340995482 0.11910337887694523 C 0.13837680126806814 0.11914315954711126 0.13788877402763056 0.11923128925828949 0.1379683353679626 0.11923128925828949 C 0.13788877402763056 0.11923128925828949 0.13742206518408376 0.11906359820677921 0.13749096732597044 0.11910337887694523 C 0.13742206518408376 0.11906359820677921 0.13710172899515644 0.1186850190744106 0.13714150966532246 0.11875392121629728 C 0.13710172899515644 0.1186850190744106 0.1370029400855328 0.1182367725041391 0.13701359928397816 0.1182765531743051" fill="none" stroke="#000000" stroke-width="0.001"/>
<path d="M 0.13701359928397816 0.1182765531743051 C 0.13695088251864893 0.1182084616266782 0.13616375646184375 0.11730633873192291 0.13626099810002734 0.11745945460278219 C 0.13616375646184375 0.11730633873192291 0.13581217475292082 0.11635413840076128 0.13584669962577517 0.11643916272399366" fill="none" stroke="#000000" stroke-width="0.001"/>
<path d="M 0.13584669962577517 0.11643916272399366 C 0.13587517707877042 0.11635655736870491 0.136276830550976 0.11529478258966952 0.13618842906171819 0.1154478984605288 C 0.136276830550976 0.11529478258966952 0.13696744153313142 0.11453126175811168 0.13690751749686886 0.11460177227368223" fill="none" stroke="#000000" stroke-width="0.001"/>
</g><g transform="translate(0.3184547359479497,0.126368857149742) rotate(0) scale(1,1) translate(-0.10433725337565573,-0.10418740031181734)"><path d="M 0.10539477977018896 0.10234784420541011 C 0.10536352581755651 0.10249541558400938 0.1050357742548387 0.1035615414889868 0.10520725605439422 0.1032332724770057 C 0.1050357742548387 0.1035615414889868 0.10409049234922602 0.1043600786217839 0.10436588897285586 0.10431745827729673 C 0.10409049234922602 0.1043600786217839 0.10337281669004818 0.10316126834412291 0.10355487631261517 0.1034889945439287 C 0.10337281669004818 0.10316126834412291 0.10327353123745389 0.10235110107846206 0.10327353123745389 0.10235110107846206 C 0.10327353123745389 0.10235110107846206 0.10373693593518217 0.10381672074373448 0.10355487631261517 0.1034889945439287 C 0.10373693593518217 0.10381672074373448 0.10438587437007073 0.10460584588134197 0.10436588897285586 0.10431745827729673 C 0.10438587437007073 0.10460584588134197 0.10351144105449363 0.10550352063462555 0.1036747886959044 0.1052193201682002 C 0.10351144105449363 0.10550352063462555 0.10333763886247242 0.10615655122712361 0.10338580312439127 0.10602266107584885" fill="none" stroke="#000000" stroke-width="0.001"/>
</g></g>
<g id="編節2">
<g transform="translate(0.3184547359479497,0.12820624760005345) rotate(0) scale(1,1) translate(-0.13796833536796266,-0.11460177227368223)"><path d="M 0.138923071451947 0.11460177227368223 C 0.13897700308458327 0.11466523173769573 0.13964981238391458 0.11550109012561752 0.13957025104358256 0.11536328584184416 C 0.13964981238391458 0.11550109012561752 0.13990343724362708 0.11632976849872238 0.13987780753593135 0.11625542367896252" fill="none" stroke="#000000" stroke-width="0.001"/>
<path d="M 0.13987780753593135 0.11625542367896252 C 0.13984673515036244 0.11633194556987166 0.13941742143473915 0.11731149065364556 0.13950493890910437 0.1171736863698722 C 0.13941742143473915 0.11731149065364556 0.13877115275475221 0.11797035747710705 0.13882759784354853 0.11790907508424282" fill="none" stroke="#000000" stroke-width="0.001"/>
<path d="M 0.13882759784354853 0.11790907508424282 C 0.13881800456494772 0.11794487768739224 0.13867667589718932 0.1184007182497338 0.13871247850033874 0.1183387063220358 C 0.13867667589718932 0.1184007182497338 0.13833595467805754 0.11868902081976834 0.13839796660575554 0.11865321821661894 C 0.13833595467805754 0.11868902081976834 0.13789673016166376 0.11876833755982875 0.1379683353679626 0.11876833755982875 C 0.13789673016166376 0.11876833755982875 0.1374766922024716 0.11861741561346953 0.1375387041301696 0.11865321821661894 C 0.1374766922024716 0.11861741561346953 0.13718838963243704 0.1182766943943378 0.13722419223558646 0.1183387063220358 C 0.13718838963243704 0.1182766943943378 0.13709947961377586 0.1178732724810934 0.13710907289237667 0.11790907508424282" fill="none" stroke="#000000" stroke-width="0.001"/>
<path d="M 0.13710907289237667 0.11790907508424282 C 0.13705262780358035 0.1178477926913786 0.1363442143524556 0.11703588208609884 0.13643173182682083 0.1171736863698722 C 0.1363442143524556 0.11703588208609884 0.13602779081442498 0.11617890178805339 0.13605886319999388 0.11625542367896252" fill="none" stroke="#000000" stroke-width="0.001"/>
<path d="M 0.13605886319999388 0.11625542367896252 C 0.13608449290768962 0.11618107885920266 0.13644598103267463 0.1152254815580708 0.13636641969234262 0.11536328584184416 C 0.13644598103267463 0.1152254815580708 0.13706753091661444 0.11453831280966874 0.13701359928397816 0.11460177227368223" fill="none" stroke="#000000" stroke-width="0.001"/>
</g><g transform="translate(0.31845473594794965,0.12985989900533373) rotate(0) scale(1,1) translate(-0.10433725337565573,-0.10418740031181734)"><path d="M 0.10528902713073562 0.10253179981605084 C 0.1052608985733664 0.10266461405679018 0.10496592216692036 0.10362412737126984 0.10512025578652032 0.10332868526048686 C 0.10496592216692036 0.10362412737126984 0.10411516845186898 0.10434281079078724 0.10436302541313583 0.10430445248074878 C 0.10411516845186898 0.10434281079078724 0.1034692603586089 0.10326388154089236 0.1036331140189192 0.10355883512071756 C 0.1034692603586089 0.10326388154089236 0.10337990345127407 0.10253473100179758 0.10337990345127407 0.10253473100179758 C 0.10337990345127407 0.10253473100179758 0.1037969676792295 0.10385378870054277 0.1036331140189192 0.10355883512071756 C 0.1037969676792295 0.10385378870054277 0.10438101227062921 0.1045640013243895 0.10436302541313583 0.10430445248074878 C 0.10438101227062921 0.1045640013243895 0.10359402228660981 0.10537190860234472 0.1037410351638795 0.1051161281825619 C 0.10359402228660981 0.10537190860234472 0.10343760031379073 0.10595963613559299 0.1034809481495177 0.1058391349994457" fill="none" stroke="#000000" stroke-width="0.001"/>
</g></g>
<g id="編節3">
<g transform="translate(0.31845473594794965,0.13151355041061402) rotate(0) scale(1,1) translate(-0.13796833536796266,-0.11460177227368223)"><path d="M 0.13882759784354853 0.11460177227368223 C 0.1388761363129212 0.11465888579129438 0.13948166468231943 0.115411158340424 0.1394100594760206 0.11528713448502798 C 0.13948166468231943 0.115411158340424 0.13970992705606067 0.11615696887621839 0.13968686031913452 0.11609005853843452" fill="none" stroke="#000000" stroke-width="0.001"/>
<path d="M 0.13968686031913452 0.11609005853843452 C 0.1396588951721225 0.11615892824025274 0.1392725128280614 0.11704051881564922 0.13935127855499013 0.1169164949602532 C 0.1392725128280614 0.11704051881564922 0.13869087101607325 0.11763349895676455 0.13874167159598993 0.11757834480318675" fill="none" stroke="#000000" stroke-width="0.001"/>
<path d="M 0.13874167159598993 0.11757834480318675 C 0.1387330376452492 0.11761056714602122 0.13860584184426658 0.11802082365212865 0.13863806418710106 0.11796501291720045 C 0.13860584184426658 0.11802082365212865 0.13829919274704805 0.11828029596515975 0.13835500348197627 0.11824807362232528 C 0.13829919274704805 0.11828029596515975 0.13790389068229367 0.1183516810312141 0.1379683353679626 0.1183516810312141 C 0.13790389068229367 0.1183516810312141 0.13752585651902072 0.11821585127949082 0.13758166725394894 0.11824807362232528 C 0.13752585651902072 0.11821585127949082 0.13726638420598958 0.11790920218227224 0.13729860654882406 0.11796501291720045 C 0.13726638420598958 0.11790920218227224 0.13718636518919458 0.11754612246035229 0.1371949991399353 0.11757834480318675" fill="none" stroke="#000000" stroke-width="0.001"/>
<path d="M 0.1371949991399353 0.11757834480318675 C 0.1371441985600186 0.11752319064960896 0.13650662645400632 0.11679247110485719 0.13658539218093504 0.1169164949602532 C 0.13650662645400632 0.11679247110485719 0.1362218452697787 0.11602118883661629 0.13624981041679074 0.11609005853843452" fill="none" stroke="#000000" stroke-width="0.001"/>
<path d="M 0.13624981041679074 0.11609005853843452 C 0.1362728771537169 0.11602314820065064 0.13659821646620346 0.11516311062963194 0.13652661125990465 0.11528713448502796 C 0.13659821646620346 0.11516311062963194 0.13715761136174934 0.11454465875607009 0.13710907289237667 0.11460177227368223" fill="none" stroke="#000000" stroke-width="0.001"/>
</g><g transform="translate(0.3184547359479496,0.1330018366753663) rotate(0) scale(1,1) translate(-0.10433725337565573,-0.10418740031181734)"><path d="M 0.1051938497552276 0.10269735986562749 C 0.1051685340535953 0.1028168926822929 0.10490305528779391 0.10368045466532462 0.10504195554543387 0.10341455676561992 C 0.10490305528779391 0.10368045466532462 0.10413737694424767 0.10432726974289026 0.10436044820938783 0.10429274726385566 C 0.10413737694424767 0.10432726974289026 0.10355605966031363 0.10335623341798483 0.10370352795459291 0.10362169163982753 C 0.10355605966031363 0.10335623341798483 0.10347563844371219 0.10269999793279955 0.10347563844371219 0.10269999793279955 C 0.10347563844371219 0.10269999793279955 0.10385099624887219 0.10388714986167022 0.10370352795459291 0.10362169163982753 C 0.10385099624887219 0.10388714986167022 0.10437663638113187 0.10452634122313231 0.10436044820938783 0.10429274726385566 C 0.10437663638113187 0.10452634122313231 0.10366834539551441 0.105253457773292 0.10380065698505712 0.10502325539548746 C 0.10366834539551441 0.105253457773292 0.10352756561997724 0.10578241255321542 0.10356657867213151 0.10567396153068286" fill="none" stroke="#000000" stroke-width="0.001"/>
</g></g>
<g id="編節4">
<g transform="translate(0.3184547359479496,0.13449012294011853) rotate(0) scale(1,1) translate(-0.13796833536796266,-0.11460177227368223)"><path d="M 0.13874167159598993 0.11460177227368223 C 0.13878535621842533 0.11465317443953316 0.13933033175088377 0.11533021973374981 0.1392658870652148 0.11521859826389338 C 0.13933033175088377 0.11533021973374981 0.13953576788725086 0.11600144921596475 0.13951500782401732 0.11594122991195926" fill="none" stroke="#000000" stroke-width="0.001"/>
<path d="M 0.13951500782401732 0.11594122991195926 C 0.1394898391917065 0.11600321264359567 0.1391420950820516 0.11679664416145252 0.13921298423628745 0.1166850226915961 C 0.1391420950820516 0.11679664416145252 0.13861861745126214 0.11733032628845633 0.13866433797318717 0.11728068755023631" fill="none" stroke="#000000" stroke-width="0.001"/>
<path d="M 0.13866433797318717 0.11728068755023631 C 0.1386565674175205 0.11730968765878734 0.1385420911966362 0.117678918514284 0.13857109130518724 0.1176286888528486 C 0.1385420911966362 0.117678918514284 0.13826610700913952 0.11791244359601201 0.1383163366705749 0.11788344348746098 C 0.13826610700913952 0.11791244359601201 0.13791033515086054 0.11797669015546093 0.1379683353679626 0.11797669015546093 C 0.13791033515086054 0.11797669015546093 0.1375701044039149 0.11785444337890995 0.1376203340653503 0.11788344348746098 C 0.1375701044039149 0.11785444337890995 0.13733657932218693 0.11757845919141321 0.13736557943073796 0.1176286888528486 C 0.13733657932218693 0.11757845919141321 0.1372645622070713 0.11725168744168528 0.13727233276273798 0.11728068755023631" fill="none" stroke="#000000" stroke-width="0.001"/>
<path d="M 0.13727233276273798 0.11728068755023631 C 0.13722661224081295 0.11723104881201629 0.13665279734540195 0.11657340122173968 0.1367236864996378 0.1166850226915961 C 0.13665279734540195 0.11657340122173968 0.13639649427959705 0.11587924718032286 0.13642166291190788 0.11594122991195926" fill="none" stroke="#000000" stroke-width="0.001"/>
<path d="M 0.13642166291190788 0.11594122991195926 C 0.13644242297514142 0.11588101060795378 0.13673522835637936 0.11510697679403696 0.1366707836707104 0.11521859826389338 C 0.13673522835637936 0.11510697679403696 0.1372386837623707 0.11455037010783131 0.1371949991399353 0.11460177227368223" fill="none" stroke="#000000" stroke-width="0.001"/>
</g><g transform="translate(0.31845473594794954,0.13582958057839556) rotate(0) scale(1,1) translate(-0.10433725337565573,-0.10418740031181734)"><path d="M 0.10510819011727042 0.10284636391024647 C 0.10508540598580136 0.10295394344524533 0.10484647509658009 0.10373114922997391 0.10497148532845606 0.10349184112023968 C 0.10484647509658009 0.10373114922997391 0.10415736458738846 0.10431328279978297 0.1043581287260146 0.10428221256865182 C 0.10415736458738846 0.10431328279978297 0.10363417903184782 0.10343935010736813 0.10376690049669916 0.10367826250702654 C 0.10363417903184782 0.10343935010736813 0.10356179993690658 0.10284873817070135 0.10356179993690658 0.10284873817070135 C 0.10356179993690658 0.10284873817070135 0.1038996219615505 0.10391717490668495 0.10376690049669916 0.10367826250702654 C 0.1038996219615505 0.10391717490668495 0.10437269808058425 0.1044924471320008 0.1043581287260146 0.10428221256865182 C 0.10437269808058425 0.1044924471320008 0.10373523619352853 0.10514685202714455 0.10385431662411698 0.10493966988712046 C 0.10373523619352853 0.10514685202714455 0.10360853439554507 0.10562291132907563 0.10364364614248392 0.10552530540879632" fill="none" stroke="#000000" stroke-width="0.001"/>
</g></g>
<g transform="translate(0.31845473594794954,0.1371690382166726) rotate(0) scale(1,1) translate(-0.020184612282548316,-0.020184612282548316)"><path d="M 0.02018461228254831 0.019232006619672552 C 0.02033560925307125 0.019232006619672552 0.021137254735676674 0.020033847596538566 0.02109059410568595 0.019890240943781893 C 0.021137254735676674 0.020033847596538566 0.020622380727184784 0.021044040245166845 0.020744539842436977 0.020955286452752617 C 0.020622380727184784 0.021044040245166845 0.019502525607407444 0.02086653266033839 0.019624684722659637 0.020955286452752617 C 0.019502525607407444 0.02086653266033839 0.01932529108940139 0.01974663429102522 0.019278630459410667 0.019890240943781893 C 0.01932529108940139 0.01974663429102522 0.02033560925307125 0.019232006619672552 0.02018461228254831 0.019232006619672552 Z" fill="#cccccc" stroke="#000000" stroke-width="0.001"/>
</g><g transform="translate(0.31845473594794954,0.1371690382166726) rotate(0) scale(1,1) translate(-0.02639292779899103,-0.02639292779899103)"><path d="M 0.026392927798991037 0.025744278548282862 C 0.0264957448151037 0.025744278548282862 0.027041602100956755 0.026290268950293592 0.02700982989566702 0.02619248415713362 C 0.027041602100956755 0.026290268950293592 0.02669101354912181 0.02697813039195825 0.02677419426246788 0.02691769606620251 C 0.02669101354912181 0.02697813039195825 0.025928480622168133 0.02685726174044677 0.0260116613355142 0.02691769606620251 C 0.025928480622168133 0.02685726174044677 0.025807797907604794 0.02609469936397365 0.025776025702315058 0.02619248415713362 C 0.025807797907604794 0.02609469936397365 0.0264957448151037 0.025744278548282862 0.026392927798991037 0.025744278548282862 Z" fill="#cccccc" stroke="#000000" stroke-width="0.001"/>
</g><g transform="translate(0.3178782953168807,0.13733416779071453) rotate(0) scale(1,1) translate(-0.17301747436630832,-0.18476934738774106)"><path d="M 0.17200519091279393 0.18599641214303483 C 0.17206491448036496 0.18589772534683624 0.17282643048611787 0.18467814323550172 0.17272187372364614 0.18481217058865185 C 0.17282643048611787 0.18467814323550172 0.17330470525735547 0.18435274334828178 0.17325987206245475 0.1843880839052333" fill="none" stroke="#000000" stroke-width="0.001"/>
<path d="M 0.17325987206245475 0.1843880839052333 C 0.17326404200172843 0.1847828666958085 0.1732654126689635 0.1897458626412911 0.1733099113337391 0.1891254773921357 C 0.1732654126689635 0.1897458626412911 0.17267721948109813 0.1920583093536783 0.17272588808514744 0.1918327068950981" fill="none" stroke="#000000" stroke-width="0.001"/>
<path d="M 0.17272588808514744 0.1918327068950981 C 0.17270472245408738 0.19196337057731366 0.17239483906036496 0.19380200593719307 0.1724719005124269 0.19340067108168485 C 0.17239483906036496 0.19380200593719307 0.17174525483940242 0.19691939633448946 0.1718011506604043 0.1966487251611968" fill="none" stroke="#000000" stroke-width="0.001"/>
<path d="M 0.1718011506604043 0.1966487251611968 C 0.17180008260191265 0.19636451092061194 0.1717779979432456 0.19281265633441827 0.17178833395850457 0.19323815427417831 C 0.1717779979432456 0.19281265633441827 0.1716678505205293 0.19140146618490098 0.17167711847729664 0.19154274988407616" fill="none" stroke="#000000" stroke-width="0.001"/>
<path d="M 0.17167711847729664 0.19154274988407616 C 0.171675573261162 0.19130841439212862 0.17168591525330593 0.18826852916895226 0.17165857588368116 0.1887307239807057 C 0.17168591525330593 0.18826852916895226 0.17203407549855332 0.18576855282322893 0.17200519091279393 0.18599641214303483" fill="none" stroke="#000000" stroke-width="0.001"/>
</g><g transform="translate(0.3190311765790183,0.13733416779071453) rotate(0) scale(1,1) translate(-0.17301747436630832,-0.18476934738774106)"><path d="M 0.17402975781982274 0.18599641214303483 C 0.17405864240558214 0.18622427146284073 0.17440989867672002 0.18920524124703053 0.17437637284893548 0.1887307239807057 C 0.17440989867672002 0.18920524124703053 0.17443670899526245 0.19193727728545176 0.1744320677532373 0.19169061933893283" fill="none" stroke="#000000" stroke-width="0.001"/>
<path d="M 0.1744320677532373 0.19169061933893283 C 0.17442891499147806 0.19182225925253807 0.17440099529529957 0.19370265698611955 0.17439423461212641 0.19327029830219578 C 0.17440099529529957 0.19370265698611955 0.1745231093962475 0.19717964231633645 0.1745131959513151 0.19687892354601794" fill="none" stroke="#000000" stroke-width="0.001"/>
<path d="M 0.1745131959513151 0.19687892354601794 C 0.17445291035629337 0.19660629754258438 0.1736945752238285 0.19320063502292767 0.1737897688110546 0.1936074115048154 C 0.1736945752238285 0.19320063502292767 0.1733359649123977 0.19186345528491117 0.17337087290460207 0.19199760576336533" fill="none" stroke="#000000" stroke-width="0.001"/>
<path d="M 0.17337087290460207 0.19199760576336533 C 0.17331705327912503 0.19175826173242952 0.17267538771267416 0.1884913505706247 0.1727250373988775 0.1891254773921357 C 0.17267538771267416 0.1884913505706247 0.17277924660943553 0.18399330111465811 0.17277507667016184 0.1843880839052333" fill="none" stroke="#000000" stroke-width="0.001"/>
<path d="M 0.17277507667016184 0.1843880839052333 C 0.17281990986506257 0.18442342446218485 0.17341763177144215 0.18494619794180198 0.17331307500897042 0.18481217058865185 C 0.17341763177144215 0.18494619794180198 0.17408948138739377 0.18609509893923343 0.17402975781982274 0.18599641214303483" fill="none" stroke="#000000" stroke-width="0.001"/>
</g><g transform="translate(0.31845473594794954,0.1371690382166726) rotate(0) scale(1,1) translate(-0.19551282657519264,-0.15725534279570835)"><path d="M 0.19549584144675033 0.17259684071631426 C 0.19546506761717788 0.17214333681272956 0.1950649300063817 0.16644537104959467 0.19512655549188102 0.16715479387329787 C 0.1950649300063817 0.16644537104959467 0.1947254839648315 0.1638278479117571 0.1947563356207584 0.16408376683187564" fill="none" stroke="#000000" stroke-width="0.001"/>
<path d="M 0.1947563356207584 0.16408376683187564 C 0.19474486924315756 0.16385374838889863 0.19463502629021565 0.16074825938529763 0.19461873908954835 0.16132354551615147 C 0.19463502629021565 0.16074825938529763 0.19497953560703404 0.15683506557375268 0.19495178202876592 0.1571803332616295" fill="none" stroke="#000000" stroke-width="0.001"/>
<path d="M 0.19495178202876592 0.1571803332616295 C 0.19499853574096815 0.15715551342084835 0.1956063339995971 0.15688249517225586 0.19551282657519264 0.15688249517225586 C 0.1956063339995971 0.15688249517225586 0.19612062483382156 0.15720515310241065 0.19607387112161934 0.1571803332616295" fill="none" stroke="#000000" stroke-width="0.001"/>
<path d="M 0.19607387112161934 0.1571803332616295 C 0.19609847318621643 0.15753840264779737 0.19638331222398764 0.16204020194917887 0.1963690958967844 0.16147716589564381 C 0.19638331222398764 0.16204020194917887 0.19623408131066447 0.16414173257141734 0.1962444670480583 0.16393676590405015" fill="none" stroke="#000000" stroke-width="0.001"/>
<path d="M 0.1962444670480583 0.16393676590405015 C 0.19622423468785716 0.16419324617289857 0.1959392932588686 0.16773620203125314 0.19600167872564428 0.16701452913023113 C 0.1959392932588686 0.16773620203125314 0.19545368834017585 0.17306203334848785 0.19549584144675033 0.17259684071631426" fill="none" stroke="#000000" stroke-width="0.001"/>
</g></svg>
