<?xml version="1.0" encoding="UTF-8"?>
<svg xmlns="http://www.w3.org/2000/svg" viewBox="0 0 1 1">
<g transform="translate(0.3152081825632307,0.17380834186661692) rotate(0) scale(1,1) translate(-0.06190446871606211,-0.07267129069752817)"><path d="M 0.06172652572660475 0.07044804765866942 C 0.061762188697551214 0.07052171668881146 0.06189538113252488 0.0710977528861258 0.061879260629941646 0.07101089158079998 C 0.06189538113252488 0.0710977528861258 0.06192385272130491 0.07157206158942132 0.061919971757603554 0.0714903833225792 C 0.06192385272130491 0.07157206158942132 0.06189612123323727 0.07200555147390175 0.06192583219435799 0.07199103078290542 C 0.06189612123323727 0.07200555147390175 0.06151214273077466 0.0716102296277923 0.06156344022415494 0.07166463161453522 C 0.06151214273077466 0.0716102296277923 0.061258144108423083 0.07128258280849424 0.06131026227379466 0.07133820694199033 C 0.061258144108423083 0.07128258280849424 0.060881057204855066 0.07092532285909806 0.06093802223969602 0.07099714201258205 C 0.060881057204855066 0.07092532285909806 0.06062687783095802 0.07039750271988757 0.06062668185570319 0.07047637710018241 C 0.06062687783095802 0.07039750271988757 0.061009092536327386 0.07002152329228675 0.06094037394275398 0.07005064944904399 C 0.061009092536327386 0.07002152329228675 0.06151681762723832 0.07015997973656433 0.06145130497858409 0.07012686321909554 C 0.06151681762723832 0.07015997973656433 0.061762188697551214 0.07052171668881146 0.06172652572660475 0.07044804765866942 Z" fill="#cccccc" stroke="#000000" stroke-width="0.001"/>
</g><g transform="translate(0.3152081825632307,0.17380834186661692) rotate(0) scale(1,1) translate(-0.06190446871606211,-0.07267129069752817)"><path d="M 0.060420794951422274 0.07157814722082262 C 0.06049903318862293 0.07162108881225226 0.060889101986441575 0.07205404174202944 0.06082145455683907 0.07197026974720741 C 0.060889101986441575 0.07205404174202944 0.06128872665995555 0.07269083792994827 0.06123256410665234 0.07258341115868694 C 0.06128872665995555 0.07269083792994827 0.061468420626525216 0.07327650765749198 0.06149540519647756 0.07325939100234341 C 0.061468420626525216 0.07327650765749198 0.06083109936962042 0.07273511665532774 0.06090874926722423 0.0727888110204698 C 0.06083109936962042 0.07273511665532774 0.06050135599916833 0.07259029093242489 0.06056360642523184 0.07261505862063869 C 0.06050135599916833 0.07259029093242489 0.06009328750036721 0.07246006903962059 0.06016174415446207 0.0724915987619042 C 0.06009328750036721 0.07246006903962059 0.05968843610721006 0.07217784002306854 0.05974212657609346 0.0722367019532353 C 0.05968843610721006 0.07217784002306854 0.05952916428905609 0.07172011132463788 0.05951745852786128 0.07178525559990317 C 0.05952916428905609 0.07172011132463788 0.059957873745727946 0.07143771161846169 0.0598825957104312 0.07145497065005173 C 0.059957873745727946 0.07143771161846169 0.06049903318862293 0.07162108881225226 0.060420794951422274 0.07157814722082262 Z" fill="#cccccc" stroke="#000000" stroke-width="0.001"/>
</g><g transform="translate(0.3152081825632307,0.17380834186661692) rotate(0) scale(1,1) translate(-0.06190446871606211,-0.07267129069752817)"><path d="M 0.059523432427407985 0.07289059937474412 C 0.05960826142038018 0.07290057899059348 0.06014685605333404 0.07309716181363421 0.06005623537245808 0.07306094142354584 C 0.06014685605333404 0.07309716181363421 0.06070111970816697 0.07336578992452981 0.060610880597919525 0.07332524405580455 C 0.06070111970816697 0.07336578992452981 0.06112234231882888 0.07356344160364006 0.06113910469542738 0.07354749184824898 C 0.06112234231882888 0.07356344160364006 0.06030328202646823 0.07351288091803043 0.060409732078737566 0.0735166411204975 C 0.06030328202646823 0.07351288091803043 0.059771571867574286 0.07350222420330901 0.059861704068195354 0.07350236941864428 C 0.059771571867574286 0.07350222420330901 0.05925331627768412 0.07350954704682773 0.05932814567128475 0.0735148985364743 C 0.05925331627768412 0.07350954704682773 0.05892462016767517 0.07341296116156222 0.05896375134498777 0.07343815154288541 C 0.05892462016767517 0.07341296116156222 0.05886478288618391 0.07317120016813511 0.05885857154353358 0.07321261396059608 C 0.05886478288618391 0.07317120016813511 0.05909369253044794 0.07291435148453265 0.05903828745679174 0.07294118603335364 C 0.05909369253044794 0.07291435148453265 0.05960826142038018 0.07290057899059348 0.059523432427407985 0.07289059937474412 Z" fill="#cccccc" stroke="#000000" stroke-width="0.001"/>
</g><g transform="translate(0.3152081825632307,0.17380834186661692) rotate(0) scale(1,1) translate(-0.06190446871606211,-0.07267129069752817)"><path d="M 0.059133759324128454 0.07434795704464814 C 0.059196932144534094 0.07432648339533648 0.05963942700594003 0.07424052968726545 0.059568104389752685 0.07425229238876548 C 0.05963942700594003 0.07424052968726545 0.06007693724492084 0.07420560727320671 0.059989630718376596 0.07420680462664785 C 0.06007693724492084 0.07420560727320671 0.0606222960572752 0.07425487080178471 0.060615782708283605 0.07423792414747196 C 0.0606222960572752 0.07425487080178471 0.059987867429800966 0.07444240206794737 0.060067790906275675 0.07441016447840074 C 0.059987867429800966 0.07444240206794737 0.0595921408354757 0.07466258978547088 0.059656700990587064 0.07462477522203168 C 0.0595921408354757 0.07466258978547088 0.059229364003476226 0.07489532179126891 0.05929306904493925 0.07486393923967119 C 0.059229364003476226 0.07489532179126891 0.058841302966172015 0.07499300537157554 0.05889224049303077 0.07500136584120436 C 0.058841302966172015 0.07499300537157554 0.05867496789362208 0.07472266446573378 0.05868181872263423 0.07476361360412537 C 0.05867496789362208 0.07472266446573378 0.05884769226167617 0.0744753381338822 0.058810030544884984 0.0745099761805053 C 0.05884769226167617 0.0744753381338822 0.059196932144534094 0.07432648339533648 0.059133759324128454 0.07434795704464814 Z" fill="#cccccc" stroke="#000000" stroke-width="0.001"/>
</g><g transform="translate(0.3152081825632307,0.17380834186661692) rotate(0) scale(1,1) translate(-0.06190446871606211,-0.07267129069752817)"><path d="M 0.05915823900791006 0.08162382853933914 C 0.0591817801530904 0.081417817825637 0.059484671332772916 0.08007560087332558 0.05944626071808545 0.08029844533812755 C 0.059484671332772916 0.08007560087332558 0.05965158442948615 0.07871401612730183 0.05961916638415965 0.07894969496171549 C 0.05965158442948615 0.07871401612730183 0.059861513659214875 0.07747580888179563 0.05983527726200344 0.0774702993251637 C 0.059861513659214875 0.07747580888179563 0.05995348556513858 0.07925720602722296 0.05993400315069686 0.07901580964129876 C 0.05995348556513858 0.07925720602722296 0.06009543451721127 0.08057568128229745 0.06006906623530417 0.08036705595625415 C 0.06009543451721127 0.08057568128229745 0.06027748630768293 0.08170672884342456 0.06025042253358204 0.0815193135538183 C 0.06027748630768293 0.08170672884342456 0.06036116503650277 0.0827725421718162 0.06039383152451494 0.08261603943152912 C 0.06036116503650277 0.0827725421718162 0.0597559192983865 0.08341022430984871 0.05985842467743596 0.08339734643726338 C 0.0597559192983865 0.08341022430984871 0.05910541817012758 0.08262278074439272 0.059163766975921406 0.08277057390255307 C 0.05910541817012758 0.08262278074439272 0.0591817801530904 0.081417817825637 0.05915823900791006 0.08162382853933914 Z" fill="#cccccc" stroke="#000000" stroke-width="0.001"/>
</g><g transform="translate(0.3152081825632307,0.17380834186661692) rotate(0) scale(1,1) translate(-0.06190446871606211,-0.07267129069752817)"><path d="M 0.06395550499440628 0.08054174172363326 C 0.06391757827064029 0.08063780727643749 0.0634373489920397 0.08094077325401448 0.06350397748842185 0.08094914387119495 C 0.0634373489920397 0.08094077325401448 0.06313472982061265 0.08033956753628108 0.06315596303782056 0.08044129431746769 C 0.06313472982061265 0.08033956753628108 0.06326677033509252 0.0796066025587116 0.06324917888192694 0.07972842249695566 C 0.06326677033509252 0.0796066025587116 0.06338419985904716 0.07884384859661081 0.06336706047580754 0.07897945505853896 C 0.06338419985904716 0.07884384859661081 0.06346751505018945 0.07794423730296722 0.06345485148080232 0.07810114495381795 C 0.06346751505018945 0.07794423730296722 0.06353607696664047 0.07709298203651939 0.06351902330845305 0.07709656324833015 C 0.06353607696664047 0.07709298203651939 0.06368056710851368 0.07821136165445769 0.06365949537905147 0.07805817041208882 C 0.06368056710851368 0.07821136165445769 0.06379685096154648 0.07907970705887794 0.06377188406199963 0.07893485815675666 C 0.06379685096154648 0.07907970705887794 0.06397439991798089 0.07993026420145058 0.06395909817361367 0.07979635723754419 C 0.06397439991798089 0.07993026420145058 0.06391757827064029 0.08063780727643749 0.06395550499440628 0.08054174172363326 Z" fill="#cccccc" stroke="#000000" stroke-width="0.001"/>
</g></svg>
