<?xml version="1.0" encoding="UTF-8"?>
<svg xmlns="http://www.w3.org/2000/svg" viewBox="0 0 1 1">
<g transform="translate(0.3152081825632307,0.17380834186661692) rotate(0) scale(1,1) translate(-0.06190446871606211,-0.07267129069752817)"><path d="M 0.04735421433022624 0.0643235472107094 C 0.047600901301815185 0.06426537046760648 0.04918483860194842 0.06410424740585582 0.048971995886008535 0.06412506690180919 C 0.04918483860194842 0.06410424740585582 0.050076879347073104 0.06406918300032066 0.04990832692150493 0.06407371325926894 C 0.050076879347073104 0.06406918300032066 0.0509936423377187 0.06408418405195826 0.05099462499282659 0.06407070379442989 C 0.0509936423377187 0.06408418405195826 0.049724616905510256 0.06426956703336315 0.0498965350602103 0.0642354763496094 C 0.049724616905510256 0.06426956703336315 0.04877405640256815 0.06453522601623683 0.04893160713642608 0.06447979199947483 C 0.04877405640256815 0.06453522601623683 0.047818616758509395 0.06500421656120184 0.04800592625391509 0.06490068455075337 C 0.047818616758509395 0.06500421656120184 0.04649716717963243 0.06578488467175019 0.046683893191557746 0.06572217612485637 C 0.04649716717963243 0.06578488467175019 0.04570920236375998 0.0655782714213282 0.04576521411081136 0.06565318711347921 C 0.04570920236375998 0.0655782714213282 0.04614416891189244 0.06471238449381346 0.046011752226941205 0.06482318781904428 C 0.04614416891189244 0.06471238449381346 0.047600901301815185 0.06426537046760648 0.04735421433022624 0.0643235472107094 Z" fill="#cccccc" stroke="#000000" stroke-width="0.001"/>
</g><g transform="translate(0.3152081825632307,0.17380834186661692) rotate(0) scale(1,1) translate(-0.06190446871606211,-0.07267129069752817)"><path d="M 0.045343197701043114 0.07400403144197436 C 0.04544276898799968 0.07386571128801703 0.04625970719678003 0.07305332169250472 0.0461186412842991 0.07318687602740756 C 0.04625970719678003 0.07305332169250472 0.04720403216904572 0.07227725875301232 0.047035988650814264 0.07240137942314033 C 0.04720403216904572 0.07227725875301232 0.048162009459411466 0.07171910463574417 0.04813516350307656 0.07169742798587134 C 0.048162009459411466 0.07171910463574417 0.047255453394249435 0.07280818190375649 0.04735814012683315 0.07266149922161437 C 0.047255453394249435 0.07280818190375649 0.046831691218660626 0.07360413516139389 0.04690292271207197 0.0734576201715767 C 0.046831691218660626 0.07360413516139389 0.04642165249689522 0.07458743406875644 0.046503362205897014 0.07441967909942064 C 0.04642165249689522 0.07458743406875644 0.045801409525770775 0.07558009788752382 0.045922406204050414 0.07547067980360632 C 0.045801409525770775 0.07558009788752382 0.04496818370293884 0.07568069927903806 0.045051402066541346 0.07573269610643063 C 0.04496818370293884 0.07568069927903806 0.0449481021436955 0.07470266248619079 0.04492378584082035 0.07484671787489547 C 0.0449481021436955 0.07470266248619079 0.04544276898799968 0.07386571128801703 0.045343197701043114 0.07400403144197436 Z" fill="#cccccc" stroke="#000000" stroke-width="0.001"/>
</g><g transform="translate(0.3152081825632307,0.17380834186661692) rotate(0) scale(1,1) translate(-0.06190446871606211,-0.07267129069752817)"><path d="M 0.04963790967574555 0.08209909980728378 C 0.0496805016584636 0.0819452286732234 0.050043131780592276 0.08107652020424508 0.04999303134108146 0.08120227564660933 C 0.050043131780592276 0.08107652020424508 0.0502887570971772 0.08048086064315067 0.05023911494987532 0.08059003449891286 C 0.0502887570971772 0.08048086064315067 0.050621669172851075 0.0799080630177128 0.05058873710870404 0.07989218937746312 C 0.050621669172851075 0.0799080630177128 0.050636971316646705 0.08092584904265508 0.05063429971963973 0.08078051818190904 C 0.050636971316646705 0.08092584904265508 0.050621635313314074 0.0817775977379179 0.050620796272787705 0.08163615970641565 C 0.050621635313314074 0.0817775977379179 0.050636567977756015 0.08261785527302162 0.05064436820595619 0.08247777455993616 C 0.050636567977756015 0.08261785527302162 0.05046722547024734 0.08342812838580166 0.05052719353438562 0.08331712826344131 C 0.05046722547024734 0.08342812838580166 0.049837645937470094 0.08378740944425128 0.04992475143629682 0.08380977602826023 C 0.049837645937470094 0.08378740944425128 0.04945802406841898 0.08290617290358585 0.04948192754846492 0.08304872925533388 C 0.04945802406841898 0.08290617290358585 0.0496805016584636 0.0819452286732234 0.04963790967574555 0.08209909980728378 Z" fill="#cccccc" stroke="#000000" stroke-width="0.001"/>
</g><g transform="translate(0.3152081825632307,0.17380834186661692) rotate(0) scale(1,1) translate(-0.06190446871606211,-0.07267129069752817)"><path d="M 0.05579888459279303 0.08341868068711532 C 0.05580515796047874 0.0832856800537801 0.05593759862165507 0.08243766558918147 0.055915703846390996 0.08256970632028708 C 0.05593759862165507 0.08243766558918147 0.056086652107853734 0.08167216708600117 0.05606162189596198 0.0818341919138481 C 0.056086652107853734 0.08167216708600117 0.056241990978617734 0.08062739620915864 0.056216066389092045 0.08062540838612403 C 0.056241990978617734 0.08062739620915864 0.0563961532504342 0.08201716366491071 0.05637271697027024 0.08185804579026337 C 0.0563961532504342 0.08201716366491071 0.056515869188397204 0.08266856142001212 0.05649730175105949 0.08253482288189212 C 0.056515869188397204 0.08266856142001212 0.05659693742199881 0.0836037686587893 0.056595526218322756 0.0834629082477034 C 0.05659693742199881 0.0836037686587893 0.05647871182166331 0.08431970617266073 0.05651423619517215 0.08422514781492278 C 0.05647871182166331 0.08431970617266073 0.05611308267279916 0.08459265571600771 0.05616923373621663 0.08459760854055881 C 0.05611308267279916 0.08459265571600771 0.05580956100554388 0.08406746993252263 0.05584042343416251 0.0841657139203096 C 0.05580956100554388 0.08406746993252263 0.05580515796047874 0.0832856800537801 0.05579888459279303 0.08341868068711532 Z" fill="#cccccc" stroke="#000000" stroke-width="0.001"/>
</g><g transform="translate(0.3152081825632307,0.17380834186661692) rotate(0) scale(1,1) translate(-0.06190446871606211,-0.07267129069752817)"><path d="M 0.05915823900791006 0.08162382853933914 C 0.0591817801530904 0.081417817825637 0.059484671332772916 0.08007560087332558 0.05944626071808545 0.08029844533812755 C 0.059484671332772916 0.08007560087332558 0.05965158442948615 0.07871401612730183 0.05961916638415965 0.07894969496171549 C 0.05965158442948615 0.07871401612730183 0.059861513659214875 0.07747580888179563 0.05983527726200344 0.0774702993251637 C 0.059861513659214875 0.07747580888179563 0.05995348556513858 0.07925720602722296 0.05993400315069686 0.07901580964129876 C 0.05995348556513858 0.07925720602722296 0.06009543451721127 0.08057568128229745 0.06006906623530417 0.08036705595625415 C 0.06009543451721127 0.08057568128229745 0.06027748630768293 0.08170672884342456 0.06025042253358204 0.0815193135538183 C 0.06027748630768293 0.08170672884342456 0.06036116503650277 0.0827725421718162 0.06039383152451494 0.08261603943152912 C 0.06036116503650277 0.0827725421718162 0.0597559192983865 0.08341022430984871 0.05985842467743596 0.08339734643726338 C 0.0597559192983865 0.08341022430984871 0.05910541817012758 0.08262278074439272 0.059163766975921406 0.08277057390255307 C 0.05910541817012758 0.08262278074439272 0.0591817801530904 0.081417817825637 0.05915823900791006 0.08162382853933914 Z" fill="#cccccc" stroke="#000000" stroke-width="0.001"/>
</g><g transform="translate(0.3152081825632307,0.17380834186661692) rotate(0) scale(1,1) translate(-0.06190446871606211,-0.07267129069752817)"><path d="M 0.06395550499440628 0.08054174172363326 C 0.06391757827064029 0.08063780727643749 0.0634373489920397 0.08094077325401448 0.06350397748842185 0.08094914387119495 C 0.0634373489920397 0.08094077325401448 0.06313472982061265 0.08033956753628108 0.06315596303782056 0.08044129431746769 C 0.06313472982061265 0.08033956753628108 0.06326677033509252 0.0796066025587116 0.06324917888192694 0.07972842249695566 C 0.06326677033509252 0.0796066025587116 0.06338419985904716 0.07884384859661081 0.06336706047580754 0.07897945505853896 C 0.06338419985904716 0.07884384859661081 0.06346751505018945 0.07794423730296722 0.06345485148080232 0.07810114495381795 C 0.06346751505018945 0.07794423730296722 0.06353607696664047 0.07709298203651939 0.06351902330845305 0.07709656324833015 C 0.06353607696664047 0.07709298203651939 0.06368056710851368 0.07821136165445769 0.06365949537905147 0.07805817041208882 C 0.06368056710851368 0.07821136165445769 0.06379685096154648 0.07907970705887794 0.06377188406199963 0.07893485815675666 C 0.06379685096154648 0.07907970705887794 0.06397439991798089 0.07993026420145058 0.06395909817361367 0.07979635723754419 C 0.06397439991798089 0.07993026420145058 0.06391757827064029 0.08063780727643749 0.06395550499440628 0.08054174172363326 Z" fill="#cccccc" stroke="#000000" stroke-width="0.001"/>
</g></svg>
