<?xml version="1.0" encoding="UTF-8"?>
<svg xmlns="http://www.w3.org/2000/svg" viewBox="0 0 1 1">
<g transform="translate(0.429270083235357,0.12785357132169123) rotate(0) scale(1,1) translate(-0.1328199792366229,-0.11784743534370264)"><path d="M 0.13643507369698177 0.10925136934295628 C 0.13686062813017863 0.10932608908967213 0.13864606657569256 0.11209071973445095 0.13852131828417746 0.11169792091561384 C 0.13864606657569256 0.11209071973445095 0.13795639091666462 0.11440240195598819 0.13793205319516294 0.11396495516900154 C 0.13795639091666462 0.11440240195598819 0.1390470350749405 0.11767988355070437 0.13881337094219767 0.11694728235945373 C 0.1390470350749405 0.11767988355070437 0.140565257643455 0.12347842337647767 0.14073602278807706 0.12275616946400925 C 0.140565257643455 0.12347842337647767 0.1363044368282205 0.126524590381695 0.13676418920673294 0.12561432930907485 C 0.1363044368282205 0.126524590381695 0.1349101164778424 0.13439453980455557 0.1352189942459276 0.13367930233545128 C 0.1349101164778424 0.13439453980455557 0.13265868449470603 0.1336735166849326 0.13305765598971064 0.1341971789383263 C 0.13265868449470603 0.1336735166849326 0.12988274428375296 0.12645904894130724 0.13043133630587211 0.12739535529472687 C 0.12988274428375296 0.12645904894130724 0.1260209749628748 0.12238063094405209 0.12647455172428068 0.12296150269729085 C 0.1260209749628748 0.12238063094405209 0.1249799498490308 0.11999948646028183 0.12498841516900125 0.1204248942558617 C 0.1249799498490308 0.11999948646028183 0.1266729609778226 0.11748130867806503 0.1263729678846353 0.11785660915033239 C 0.1266729609778226 0.11748130867806503 0.12869534591310414 0.11554555652995921 0.12858833228724875 0.11592128858865339 C 0.12869534591310414 0.11554555652995921 0.12775090283639973 0.1127851910097705 0.12765713139490004 0.11334782444600222 C 0.12775090283639973 0.1127851910097705 0.13019338405948783 0.10895747564629106 0.12971358958524493 0.10916968735387261 C 0.13019338405948783 0.10895747564629106 0.13397478876179306 0.11080809078744717 0.13341466508581498 0.11080128395502353 C 0.13397478876179306 0.11080809078744717 0.13686062813017863 0.10932608908967213 0.13643507369698177 0.10925136934295628 Z" fill="#cccccc" stroke="none" stroke-width="0"/>
</g></svg>
