<?xml version="1.0" encoding="UTF-8"?>
<svg xmlns="http://www.w3.org/2000/svg" viewBox="0 0 1 1">
<g transform="translate(0.3162111684713726,0.08586243713995967) rotate(0) scale(1,1) translate(-0.15056728247896173,-0.14370249149167058)"><path d="M 0.1496076895619931 0.14209131286498142 C 0.14963958350221648 0.14246409023456266 0.149959159019377 0.1473357126779843 0.14999041684467349 0.14656464129995644 C 0.149959159019377 0.1473357126779843 0.14904814637797356 0.1520027139670514 0.14923259565843536 0.15134416940131562 C 0.14904814637797356 0.1520027139670514 0.14751895054233674 0.154808568046543 0.14777702547913205 0.15446717608878577 C 0.14751895054233674 0.154808568046543 0.14599891899503845 0.15552201429487056 0.1461356964168918 0.1554408728944025" fill="none" stroke="none" stroke-width="0"/>
<path d="M 0.1461356964168918 0.1554408728944025 C 0.14500601905166424 0.15502667833124614 0.13108860088292798 0.14919875405636787 0.13257956803416088 0.15047053813652628 C 0.13108860088292798 0.14919875405636787 0.12857800567852587 0.13827841777725008 0.1282440906020971 0.14017946393250152 C 0.12857800567852587 0.13827841777725008 0.13762823786057396 0.12561125616473712 0.13658654895130615 0.12765798427350897 C 0.13762823786057396 0.12561125616473712 0.1411130177665487 0.1157152657984758 0.1407443575133108 0.11561872662723945 C 0.1411130177665487 0.1157152657984758 0.14071670743167886 0.1307364982486134 0.141010471990161 0.1288164543283451 C 0.14071670743167886 0.1307364982486134 0.1371431891343025 0.1398251528461849 0.137219182811525 0.1386592536704588 C 0.1371431891343025 0.1398251528461849 0.1411309234260301 0.14309324936993525 0.14009854786349107 0.14280724443705836 C 0.1411309234260301 0.14309324936993525 0.15040011803686829 0.14203165190064168 0.1496076895619931 0.14209131286498142" fill="none" stroke="#000000" stroke-width="0.001"/>
</g><g transform="translate(0.3094555512526751,0.09066157121926549) rotate(0) scale(1,1) translate(-0.06336124437236938,-0.06336124437236941)"><path d="M 0.060872673989535456 0.06896664713872672 C 0.06082140741443663 0.06892557683617936 0.0616802630711673 0.06738486625986218 0.061506714010755456 0.06764965878030495 C 0.0616802630711673 0.06738486625986218 0.06307737745607153 0.06544379631964455 0.06295526271447757 0.0657891368934135 C 0.06307737745607153 0.06544379631964455 0.0628444093981728 0.0630752687903706 0.06297209090988301 0.06350557189507755 C 0.0628444093981728 0.0630752687903706 0.06140440192634053 0.06017612286979383 0.061423084573955136 0.06062549963693018 C 0.06140440192634053 0.06017612286979383 0.06300449795246708 0.05786065127843826 0.06274789913850774 0.058113050689441385 C 0.06300449795246708 0.05786065127843826 0.06454014478809252 0.05763131759821645 0.0645022703414672 0.05759670670489263 C 0.06454014478809252 0.05763131759821645 0.06302699195406132 0.05875900176030114 0.06320239249801153 0.05852838140932727 C 0.06302699195406132 0.05875900176030114 0.06249455300119332 0.06074417080659486 0.06239746381406463 0.060364150916579054 C 0.06249455300119332 0.06074417080659486 0.0645261797046625 0.0635405080540107 0.06436746274355583 0.06308862008951693 C 0.0645261797046625 0.0635405080540107 0.0641149381947101 0.06620796335061717 0.06430206734734464 0.06578680649050414 C 0.0641149381947101 0.06620796335061717 0.06183613013212387 0.06840748913155847 0.0621219129119413 0.06814250241087326 C 0.06183613013212387 0.06840748913155847 0.06082140741443663 0.06892557683617936 0.060872673989535456 0.06896664713872672 Z" fill="#cccccc" stroke="#000000" stroke-width="0.001"/>
</g><g transform="translate(0.30230748631462484,0.08904184786049163) rotate(0) scale(1,1) translate(-0.06336124437236938,-0.06336124437236941)"><path d="M 0.05887629317707929 0.06662702081162504 C 0.058854706389253234 0.0665716573906951 0.06022442284088973 0.0657531031170265 0.05996869399540044 0.06588204895190505 C 0.06022442284088973 0.0657531031170265 0.06219690601307706 0.06486435808696014 0.06194503932295083 0.06507967079308244 C 0.06219690601307706 0.06486435808696014 0.06308569520810042 0.06290343811456188 0.0629910942769152 0.06329829647843749 C 0.06308569520810042 0.06290343811456188 0.06326887023817634 0.059980870315072175 0.06308025049717354 0.060341370426575065 C 0.06326887023817634 0.059980870315072175 0.06556971719763216 0.058890622238828 0.06525453116894873 0.05897229514040278 C 0.06556971719763216 0.058890622238828 0.0668764996285245 0.059405541263805595 0.06686248284137472 0.05936129560767776 C 0.0668764996285245 0.059405541263805595 0.06518100958045114 0.05960458031957768 0.06542273261474617 0.059503243013936793 C 0.06518100958045114 0.05960458031957768 0.06386598235051409 0.06091897175680008 0.0639618064298344 0.060577343275368414 C 0.06386598235051409 0.06091897175680008 0.0641927934861563 0.06402859065922889 0.0642728436629025 0.06360278479111686 C 0.0641927934861563 0.06402859065922889 0.06266411195774739 0.06593231579370837 0.06300120430887983 0.06568701369271274 C 0.06266411195774739 0.06593231579370837 0.059883992854996446 0.06662474392964038 0.06022773544931316 0.06654641000306435 C 0.059883992854996446 0.06662474392964038 0.058854706389253234 0.0665716573906951 0.05887629317707929 0.06662702081162504 Z" fill="#cccccc" stroke="#000000" stroke-width="0.001"/>
</g><g transform="translate(0.298567545352313,0.08380360883756335) rotate(0) scale(1,1) translate(-0.06336124437236938,-0.06336124437236941)"><path d="M 0.05857104910858094 0.06378544876479934 C 0.05857972636798974 0.06373467755520044 0.059962833208021885 0.06373798710985447 0.0597152650730698 0.06371962678627383 C 0.059962833208021885 0.06373798710985447 0.06182512215229674 0.06395823947268087 0.061541866728005996 0.06400577264776706 C 0.06182512215229674 0.06395823947268087 0.06336089411959041 0.06289808748193906 0.06311433016455877 0.0631492286852395 C 0.06336089411959041 0.06289808748193906 0.06480171416037318 0.06080843755419755 0.06450063418838571 0.06099207820816169 C 0.06480171416037318 0.06080843755419755 0.06699792969162657 0.06102556776083784 0.0667272898284085 0.06094554083766988 C 0.06699792969162657 0.06102556776083784 0.06773897419887706 0.061991532680214324 0.06774831254700263 0.06195240128617723 C 0.06773897419887706 0.061991532680214324 0.06639039291975918 0.06138249713426444 0.0666152296509017 0.061415117566115 C 0.06639039291975918 0.06138249713426444 0.06482656248542282 0.061772002237204915 0.06505027177329221 0.06156095610397053 C 0.06482656248542282 0.061772002237204915 0.06368114932504466 0.0642283018104444 0.06393071819646888 0.06394767116492767 C 0.06368114932504466 0.0642283018104444 0.06169548029650964 0.06496029136154906 0.0620554453162017 0.06492852385017131 C 0.06169548029650964 0.06496029136154906 0.059320771609529116 0.06423362504434625 0.05961113796016418 0.06432888130146058 C 0.059320771609529116 0.06423362504434625 0.05857972636798974 0.06373467755520044 0.05857104910858094 0.06378544876479934 Z" fill="#cccccc" stroke="#000000" stroke-width="0.001"/>
</g><g transform="translate(0.30038857780587314,0.0778867349942069) rotate(0) scale(1,1) translate(-0.06336124437236938,-0.06336124437236941)"><path d="M 0.06040171890582752 0.061791658239001075 C 0.06042605123247027 0.06176528831148552 0.06123284947553749 0.06229197819528819 0.061095178475991024 0.0621873231714308 C 0.06123284947553749 0.06229197819528819 0.06223729178129773 0.063127216426264 0.062053770900385066 0.06304751852528975 C 0.06223729178129773 0.063127216426264 0.06353676334474265 0.0630905208686939 0.06329742904694295 0.06314369798312165 C 0.06353676334474265 0.0630905208686939 0.06517135673732256 0.06241633554934784 0.06492578247398144 0.06240939315215672 C 0.06517135673732256 0.06241633554934784 0.06637207386786183 0.06337644282001768 0.06624432020703638 0.06322700674941513 C 0.06637207386786183 0.06337644282001768 0.06643852404190531 0.0642219447660018 0.06645882640388674 0.06420262599938743 C 0.06643852404190531 0.0642219447660018 0.0658817115975024 0.06335447011423145 0.0660006918632592 0.06345883194878757 C 0.0658817115975024 0.06335447011423145 0.06482029355425463 0.06298870746932049 0.0650310632148052 0.06295028398471399 C 0.06482029355425463 0.06298870746932049 0.06321917765965764 0.06398917944755111 0.0634714559366523 0.06391991376406563 C 0.06321917765965764 0.06398917944755111 0.061781368442504814 0.06366345956466911 0.06200372389086933 0.06378147218653979 C 0.061781368442504814 0.06366345956466911 0.060669690140857865 0.062337944472655914 0.06080319055627802 0.06250376230161747 C 0.060669690140857865 0.062337944472655914 0.06042605123247027 0.06176528831148552 0.06040171890582752 0.061791658239001075 Z" fill="#cccccc" stroke="#000000" stroke-width="0.001"/>
</g><g transform="translate(0.30351988533743435,0.07282878457913114) rotate(0) scale(1,1) translate(-0.06336124437236938,-0.06336124437236941)"><path d="M 0.06111982770683265 0.06201769677856708 C 0.061139859388818565 0.061998147764031786 0.06174685972246604 0.062441382339800275 0.06164388544276595 0.062354234566892736 C 0.06174685972246604 0.062441382339800275 0.0624952297130298 0.06313304787771981 0.062355519063233715 0.06306347005345751 C 0.0624952297130298 0.06313304787771981 0.06350902781318138 0.06315751410339605 0.06332041324031895 0.06318916845804025 C 0.06350902781318138 0.06315751410339605 0.06480991505246929 0.06269905183361739 0.06461889393758291 0.06268361779772721 C 0.06480991505246929 0.06269905183361739 0.06570608696638275 0.06349600461075258 0.06561266661895553 0.06337437688872229 C 0.06570608696638275 0.06349600461075258 0.0657233336748156 0.06415737108711578 0.06573993810670961 0.06414315046209075 C 0.0657233336748156 0.06415737108711578 0.06532498743542317 0.06345886808350044 0.06541341343622736 0.06354502438902264 C 0.06532498743542317 0.06345886808350044 0.06451306596551133 0.06313060212452026 0.06467882609705924 0.06310927479582441 C 0.06451306596551133 0.06313060212452026 0.06322493697531638 0.0638446113745549 0.06342429185765246 0.06380095233337275 C 0.06322493697531638 0.0638446113745549 0.06211816862579991 0.06353217249067213 0.06228656750902637 0.06363318329001016 C 0.06211816862579991 0.06353217249067213 0.06130627694208545 0.06245419886536274 0.061403505258934926 0.06258882274131633 C 0.06130627694208545 0.06245419886536274 0.061139859388818565 0.061998147764031786 0.06111982770683265 0.06201769677856708 Z" fill="#cccccc" stroke="#000000" stroke-width="0.001"/>
</g><g transform="translate(0.30518731027310547,0.06748615084236981) rotate(0) scale(1,1) translate(-0.06336124437236938,-0.06336124437236941)"><path d="M 0.06173703136378254 0.062348715611081226 C 0.06175195042167261 0.062334655943202366 0.062190790452094045 0.06266699495194844 0.06211649646466871 0.06260186049457578 C 0.062190790452094045 0.06266699495194844 0.06272997978370029 0.06318306668127611 0.0626285592128865 0.0631303290995532 C 0.06272997978370029 0.06318306668127611 0.06347207015032587 0.06321394196259157 0.06333354331443419 0.06323471147525082 C 0.06347207015032587 0.06321394196259157 0.06443056848824506 0.06289483896665099 0.06429088124358667 0.06288109494764212 C 0.06443056848824506 0.06289483896665099 0.06507664717107553 0.06348990166361958 0.06500979025033486 0.06339963970335732 C 0.06507664717107553 0.06348990166361958 0.06508082311480509 0.06397443997379959 0.06509316429247469 0.06396423847078919 C 0.06508082311480509 0.06397443997379959 0.06479804314436007 0.06345783529325007 0.06486169611829962 0.06352205773948211 C 0.06479804314436007 0.06345783529325007 0.06420767005195002 0.06320706829310502 0.06432932860520008 0.06319356911600472 C 0.06420767005195002 0.06320706829310502 0.06325524808021403 0.06371347110843105 0.06340179347929893 0.06368404786468555 C 0.06325524808021403 0.06371347110843105 0.062448756673738684 0.06347052542798702 0.06257078381618128 0.06354664804095064 C 0.062448756673738684 0.06347052542798702 0.06186798839895453 0.06267074880663297 0.06193746776998776 0.06277057650912209 C 0.06186798839895453 0.06267074880663297 0.06175195042167261 0.062334655943202366 0.06173703136378254 0.062348715611081226 Z" fill="#cccccc" stroke="#000000" stroke-width="0.001"/>
</g><g transform="translate(0.30312845045541587,0.08369788080895693) rotate(0) scale(1,1) translate(-0.008762238655048054,-0.008762238655048054)"><path d="M 0.008530514189429962 0.00710882697198867 C 0.008517970447007693 0.007204489694897909 0.008396009281900431 0.008448111183138018 0.00837998928036272 0.008256779646899545 C 0.008396009281900431 0.008448111183138018 0.008751317951842481 0.00950047422017957 0.0087227542078825 0.009404805406850339" fill="none" stroke="#000000" stroke-width="0.001"/>
</g></svg>
