<?xml version="1.0" encoding="UTF-8"?>
<svg xmlns="http://www.w3.org/2000/svg" viewBox="0 0 1 1">
<g transform="translate(0.3162111684713726,0.08586243713995967) rotate(0) scale(1,1) translate(-0.15333722326487756,-0.14069361642964173)"><path d="M 0.15335583709176676 0.13717118384210542 C 0.15313051803669164 0.13753994348573956 0.15025965779710385 0.1423649964627267 0.1506520084308655 0.14159629956571526 C 0.15025965779710385 0.1423649964627267 0.14833168270169486 0.1472770536245172 0.14864762948662683 0.14639554660624265 C 0.14833168270169486 0.1472770536245172 0.14650827836258287 0.1528757831966446 0.146860647011682 0.15217438378501003 C 0.14650827836258287 0.1528757831966446 0.14421575225458363 0.15503216919259502 0.14441920569743735 0.1548123395458577" fill="none" stroke="none" stroke-width="0"/>
<path d="M 0.14441920569743735 0.1548123395458577 C 0.1425998848331042 0.15439798088225737 0.12013405052525447 0.14893246006229346 0.12258735532543959 0.1498400355826534 C 0.12013405052525447 0.14893246006229346 0.11463773295530234 0.1432936625808872 0.11497954809521604 0.1439214333015385 C 0.11463773295530234 0.1432936625808872 0.11900180768771983 0.1420625281459006 0.11848557364647512 0.14230678693483767 C 0.11900180768771983 0.1420625281459006 0.12151672079151915 0.14064248794747675 0.12117435659015252 0.14099032783429352 C 0.12151672079151915 0.14064248794747675 0.1227572960058962 0.13759835378252647 0.1225939440628746 0.13813270829303648 C 0.1227572960058962 0.13759835378252647 0.12391284218707188 0.1345062532117543 0.12313457990641166 0.1345780737081734 C 0.12391284218707188 0.1345062532117543 0.13445152952957684 0.13748695484716827 0.13193309143079726 0.13727086233600727 C 0.13445152952957684 0.13748695484716827 0.15514106589684754 0.13716287730094692 0.15335583709176676 0.13717118384210542" fill="none" stroke="#000000" stroke-width="0.001"/>
</g><g transform="translate(0.3070063199834024,0.09010151169250352) rotate(0) scale(1,1) translate(-0.0719033592111224,-0.07359226318180771)"><path d="M 0.07658665693907699 0.0659263574295069 C 0.07606061021936783 0.06646649608909727 0.07214924045380225 0.07127198182274679 0.07290635667303792 0.06918118460000124 C 0.07214924045380225 0.07127198182274679 0.07118251787786545 0.08070352860717236 0.07204395962366295 0.07847114076598016 C 0.07118251787786545 0.08070352860717236 0.0669307654749848 0.083243707197372 0.06773770619825295 0.08257551164715447 C 0.0669307654749848 0.083243707197372 0.06769590283698423 0.0817462717337155 0.06720231528405406 0.08248031406728526 C 0.06769590283698423 0.0817462717337155 0.07141653610331726 0.07596923881564795 0.070699231515834 0.07817125764573594 C 0.07141653610331726 0.07596923881564795 0.07240004372153008 0.06722971691954444 0.0715061428089536 0.06926820108675727 C 0.07240004372153008 0.06722971691954444 0.07690938934631346 0.0653833786995839 0.0760626369912929 0.06594035264245895 C 0.07690938934631346 0.0653833786995839 0.07606061021936783 0.06646649608909727 0.07658665693907699 0.0659263574295069 Z" fill="#cccccc" stroke="#000000" stroke-width="0.001"/>
</g><g transform="translate(0.29888190518069613,0.09008839358966425) rotate(0) scale(1,1) translate(-0.0719033592111224,-0.07359226318180771)"><path d="M 0.07723855244242737 0.06612861012521513 C 0.07660661620363654 0.0666476310886654 0.07207469645502232 0.0711192403248763 0.07290075545276983 0.06926128578168556 C 0.07207469645502232 0.0711192403248763 0.07155266494630994 0.07925831564893696 0.07228219845594225 0.07727633738435966 C 0.07155266494630994 0.07925831564893696 0.06781079303939463 0.08178110580347529 0.06852355439497593 0.08115315536914935 C 0.06781079303939463 0.08178110580347529 0.06840236282366441 0.0803600545035423 0.06800563032245445 0.08104403999031531 C 0.06840236282366441 0.0803600545035423 0.07148736814998555 0.07508660263125165 0.0709039494022357 0.07704924244851133 C 0.07148736814998555 0.07508660263125165 0.07247088005616678 0.06745118734550272 0.0715061428089536 0.06926820108675727 C 0.07247088005616678 0.06745118734550272 0.07764777449109378 0.06562389484072699 0.07669237288551482 0.06614716000098401 C 0.07764777449109378 0.06562389484072699 0.07660661620363654 0.0666476310886654 0.07723855244242737 0.06612861012521513 Z" fill="#cccccc" stroke="#000000" stroke-width="0.001"/>
</g><g transform="translate(0.29134008580701315,0.08896164443551607) rotate(0) scale(1,1) translate(-0.0719033592111224,-0.07359226318180771)"><path d="M 0.07745224198756162 0.06720545580835441 C 0.0768424555439723 0.06760658499321294 0.0723599666058727 0.07116579427408236 0.07325693260770985 0.06958447607957984 C 0.0723599666058727 0.07116579427408236 0.07133176311516407 0.07851884775699143 0.07207044597653871 0.07669336497536955 C 0.07133176311516407 0.07851884775699143 0.06820462200402024 0.08115671324535041 0.068824835439462 0.08053737276931114 C 0.06820462200402024 0.08115671324535041 0.06867086265853665 0.07973162287031949 0.06834916536388815 0.0804094078316052 C 0.06867086265853665 0.07973162287031949 0.07134254007869298 0.07463912893437133 0.07075501920735304 0.0764706630015968 C 0.07134254007869298 0.07463912893437133 0.0729010626022432 0.06787137642305766 0.07187429059192775 0.06942020342825235 C 0.0729010626022432 0.06787137642305766 0.07784530983518471 0.06680857636711232 0.07691565126924574 0.06717770097042865 C 0.07784530983518471 0.06680857636711232 0.0768424555439723 0.06760658499321294 0.07745224198756162 0.06720545580835441 Z" fill="#cccccc" stroke="#000000" stroke-width="0.001"/>
</g><g transform="translate(0.28480808192379903,0.08621141106350924) rotate(0) scale(1,1) translate(-0.0719033592111224,-0.07359226318180771)"><path d="M 0.0771766105603103 0.06873976591849466 C 0.0767400461505376 0.0689199302041002 0.07304986705014357 0.07097733131849511 0.07408336028897528 0.06962852587163679 C 0.07304986705014357 0.07097733131849511 0.06988841117699324 0.07848820999258145 0.07097565112732009 0.0768325985996446 C 0.06988841117699324 0.07848820999258145 0.06693188629197443 0.07996587390542523 0.06755992058701418 0.07956219422925788 C 0.06693188629197443 0.07996587390542523 0.06754840762246786 0.07874935977980631 0.06720744535708154 0.07925467665664865 C 0.06754840762246786 0.07874935977980631 0.07052335384331643 0.07487555023212836 0.06960569417933213 0.07653029296820381 C 0.07052335384331643 0.07487555023212836 0.07389624543570053 0.06799576143849592 0.0727134033409873 0.06932622024019597 C 0.07389624543570053 0.06799576143849592 0.07744661461749863 0.06844979777105334 0.07670274674761146 0.06854754015800356 C 0.07744661461749863 0.06844979777105334 0.0767400461505376 0.0689199302041002 0.0771766105603103 0.06873976591849466 Z" fill="#cccccc" stroke="#000000" stroke-width="0.001"/>
</g></svg>
