<?xml version="1.0" encoding="UTF-8"?>
<svg xmlns="http://www.w3.org/2000/svg" viewBox="0 0 1 1">
<g transform="translate(0.3162111684713726,0.08586243713995967) rotate(0) scale(1,1) translate(-0.15056728247896173,-0.14370249149167058)"><path d="M 0.14841148065154733 0.1500420469721456 C 0.14854329511927805 0.15007958236947663 0.15017720872098334 0.15103630421133846 0.14999325426431614 0.15049247174011793 C 0.15017720872098334 0.15103630421133846 0.1506806148995805 0.15755519650955613 0.15061893413155356 0.15656803662679197 C 0.1506806148995805 0.15755519650955613 0.15068635949311543 0.16311550515563278 0.15073342348063973 0.16233839033328767 C 0.15068635949311543 0.16311550515563278 0.14999756151464724 0.16618966650840356 0.15005416628126206 0.1658934144949331" fill="none" stroke="none" stroke-width="0"/>
<path d="M 0.15005416628126206 0.1658934144949331 C 0.14901004542559604 0.16541965030553787 0.13611602971128436 0.1591763752174458 0.13752471601326974 0.1602082442221902 C 0.13611602971128436 0.1591763752174458 0.13304704534713202 0.15272367512310736 0.1331499306574377 0.15351098643799996 C 0.13304704534713202 0.15272367512310736 0.13671453603185868 0.15034242122781696 0.13629009228960187 0.15076050844347913 C 0.13671453603185868 0.15034242122781696 0.1388034102135283 0.14821944465877615 0.1382432555645195 0.1484939398500541 C 0.1388034102135283 0.14821944465877615 0.1436906416923277 0.1474669990668847 0.1430119480777073 0.14746656614814382 C 0.1436906416923277 0.1474669990668847 0.14676400445598564 0.14868846336044342 0.14638757893996426 0.14849913487494462 C 0.14676400445598564 0.14868846336044342 0.14769771274592897 0.14986708398222953 0.1475290542699637 0.14973850797412944 C 0.14769771274592897 0.14986708398222953 0.14848501618334597 0.15006734188864695 0.14841148065154733 0.1500420469721456" fill="none" stroke="#000000" stroke-width="0.001"/>
</g><g transform="translate(0.3052949061760655,0.09127348294410056) rotate(0) scale(1,1) translate(-0.002175468882786078,-0.0021754688827860785)"><path d="M 0.008553223116443546 0.004197808426341115 C 0.008281929361905709 0.0041924262191783655 0.0048663697763802185 0.004270438608623433 0.0052976980619895 0.004133221940388124 C 0.0048663697763802185 0.004270438608623433 0.003210512681526419 0.00582053671057077 0.003377283689132166 0.005844408445164818 C 0.003210512681526419 0.00582053671057077 0.0033846665870556087 0.0035533353393991506 0.003296445970720541 0.003846761125259553 C 0.0033846665870556087 0.0035533353393991506 0.004723494326615057 0.0021950451109654374 0.004435931085152979 0.0023232990148399878 C 0.004723494326615057 0.0021950451109654374 0.007065191276023275 0.0022169467469485616 0.006747204868265478 0.0023077142787649493 C 0.007065191276023275 0.0022169467469485616 0.00837714823741162 0.0011446198292331992 0.008251767978246533 0.0012340886330433338" fill="none" stroke="#000000" stroke-width="0.001"/>
</g><g transform="translate(0.3052949061760655,0.09127348294410056) rotate(0) scale(1,1) translate(-0.00328446270195594,-0.003284462701955941)"><path d="M 0.004394262995315852 0.006906478366851394 C 0.0038780149561485283 0.006986670053412541 -0.0024320562522976014 0.007949922731052722 -0.001800713474692029 0.007868778605585167 C -0.0024320562522976014 0.007949922731052722 -0.0032969450743892672 0.007881160311368457 -0.0031818503359510183 0.00788020787246205" fill="none" stroke="#000000" stroke-width="0.001"/>
<path d="M 0.004544993252870605 0.0018862916499966281 C 0.004439179755627402 0.002093522353548578 0.0028827659388910186 0.004633610329349174 0.003275231285952174 0.004373060092620024 C 0.0028827659388910186 0.004633610329349174 -0.00045124276168121173 0.005066214023923618 -0.000164590911863259 0.005012894490746418" fill="none" stroke="#000000" stroke-width="0.001"/>
</g><g transform="translate(0.31295356958831305,0.09972396029356334) rotate(0) scale(1,1) translate(-0.05333103705355032,-0.05333103705355031)"><path d="M 0.04872111508798922 0.056307091157339687 C 0.04883243614482069 0.05598838895028211 0.05058574784609932 0.054085423926379494 0.0501178709071304 0.05443890783752498 C 0.05058574784609932 0.054085423926379494 0.054753818784640765 0.051621255705974485 0.054335638355616285 0.05206528422359384 C 0.054753818784640765 0.051621255705974485 0.0551395440131456 0.04860011402618697 0.05513603605542419 0.04911056562609271 C 0.0551395440131456 0.04860011402618697 0.054413871994535255 0.04575263279911757 0.05437773384827316 0.04593986502472502 C 0.054413871994535255 0.04575263279911757 0.05573576151795946 0.047103491053332995 0.05556969381056933 0.04686377891880335 C 0.05573576151795946 0.047103491053332995 0.05642913473881358 0.04920032600822838 0.056370546336954715 0.048816410639080814 C 0.05642913473881358 0.04920032600822838 0.056128755190451234 0.05186678440207478 0.05627275463287571 0.05147076334857417 C 0.056128755190451234 0.05186678440207478 0.05413831328846562 0.053948408395478084 0.05464255302786099 0.0535686632810881 C 0.05413831328846562 0.053948408395478084 0.04979502788172753 0.056459494397053 0.050221877760131255 0.056027704721253985 C 0.04979502788172753 0.056459494397053 0.04940036619243475 0.05893644185742314 0.04952035448701629 0.05875013939067632 C 0.04940036619243475 0.05893644185742314 0.04871541494190054 0.058059746969437824 0.048782018225152796 0.05826333432221588 C 0.04871541494190054 0.058059746969437824 0.04883243614482069 0.05598838895028211 0.04872111508798922 0.056307091157339687 Z" fill="#cccccc" stroke="#000000" stroke-width="0.001"/>
</g><g transform="translate(0.3065520479042838,0.09622331986693278) rotate(0) scale(1,1) translate(-0.05333103705355032,-0.05333103705355031)"><path d="M 0.04758470752695764 0.05230179973215036 C 0.047902571037584406 0.052134592322400405 0.05064757335518275 0.05192608231704619 0.05002703886971376 0.05186164183934169 C 0.05064757335518275 0.05192608231704619 0.05567868502812428 0.05303301474318846 0.05503112135258553 0.05307508546460437 C 0.05567868502812428 0.05303301474318846 0.058170908113680066 0.05096215927804367 0.057797802976178696 0.051356793182350716 C 0.058170908113680066 0.05096215927804367 0.05967235461522587 0.04822001564783313 0.05950838300260198 0.048339478612919845 C 0.05967235461522587 0.04822001564783313 0.059720747242374785 0.0502302522311344 0.05976546232766531 0.04992323760131016 C 0.059720747242374785 0.0502302522311344 0.05873882632391798 0.05236488715658734 0.0589718019791157 0.05202365417081074 C 0.05873882632391798 0.05236488715658734 0.05657036277199005 0.054221691234735324 0.05696975446529261 0.05401803343062929 C 0.05657036277199005 0.054221691234735324 0.05351121879037133 0.05439715674812558 0.054179101659484995 0.054467547820083145 C 0.05351121879037133 0.05439715674812558 0.0483097310259033 0.05319959790614496 0.04895516003592863 0.0531733405671385 C 0.0483097310259033 0.05319959790614496 0.04620541326470306 0.054840535070594144 0.04643395353918106 0.0547826358881606 C 0.04620541326470306 0.054840535070594144 0.04630857290784063 0.05366139441000691 0.04621267674219258 0.0538681307563411 C 0.04630857290784063 0.05366139441000691 0.047902571037584406 0.052134592322400405 0.04758470752695764 0.05230179973215036 Z" fill="#cccccc" stroke="#000000" stroke-width="0.001"/>
</g><g transform="translate(0.31190670790642383,0.09306358794164193) rotate(0) scale(1,1) translate(-0.008762238655048054,-0.008762238655048054)"><path d="M 0.00803932336605481 0.010627844742415647 C 0.008139366503257335 0.010494770696657614 0.009389022520187983 0.008724737379999794 0.009239841012485114 0.009030956193319239 C 0.009389022520187983 0.008724737379999794 0.00987863982898958 0.006780074215020885 0.009829501458489237 0.006953218982582297" fill="none" stroke="#000000" stroke-width="0.001"/>
</g></svg>
