<?xml version="1.0" encoding="UTF-8"?>
<svg xmlns="http://www.w3.org/2000/svg" viewBox="0 0 1 1">
<g transform="translate(0.3162111684713726,0.08586243713995967) rotate(0) scale(1,1) translate(-0.14337612156732896,-0.14974815774481318)"><path d="M 0.14317137725915027 0.16387569941995161 C 0.1431317429191061 0.16412471966228054 0.14245202122595937 0.16726102076161806 0.14269576517862015 0.16686394232789872 C 0.14245202122595937 0.16726102076161806 0.13979331997227556 0.16874906447592983 0.14024644982722106 0.1686406406245836 C 0.13979331997227556 0.16874906447592983 0.13686112848555468 0.1679212845913927 0.137258206919274 0.16816502854405346 C 0.13686112848555468 0.1679212845913927 0.13533345043119874 0.16551160358003783 0.13548150862258915 0.1657157131926544" fill="none" stroke="none" stroke-width="0"/>
<path d="M 0.13548150862258915 0.1657157131926544 C 0.1353351240479192 0.16532094534330502 0.13363420864020115 0.16040864652205308 0.1337248937265498 0.1609784990004619 C 0.13363420864020115 0.16040864652205308 0.13449056384802063 0.15861995278315366 0.13439328758640529 0.15887748345174843 C 0.13449056384802063 0.15861995278315366 0.13504111572142716 0.15772948665754383 0.13489220886593387 0.15788813097732457 C 0.13504111572142716 0.15772948665754383 0.13640583357622965 0.15692234161987714 0.13618016985232476 0.15697375161437963 C 0.13640583357622965 0.15692234161987714 0.13782530108809066 0.1572894271978452 0.13760017355279264 0.15727121104329472 C 0.13782530108809066 0.1572894271978452 0.13909706143089762 0.15726987118402172 0.13888170027590105 0.1571923454689854 C 0.13909706143089762 0.15726987118402172 0.14054198049468888 0.15875846578631114 0.14018450741275146 0.15820151962373064 C 0.14054198049468888 0.15875846578631114 0.14342028307968352 0.16434854773630336 0.14317137725915027 0.16387569941995161" fill="none" stroke="#000000" stroke-width="0.001"/>
</g><g transform="translate(0.30978974747369425,0.09570428870724274) rotate(0) scale(1,1) translate(-0.002175468882786078,-0.0021754688827860785)"><path d="M -0.0008415209344592701 0.004355322306642289 C -0.0007928261528511875 0.004308852664794295 -0.0001409051178249851 0.0036920470713472054 -0.0002571835551622788 0.003797686604466363 C -0.0001409051178249851 0.0036920470713472054 0.0007395365937196663 0.0030433712126271928 0.0005538203135882543 0.0030876479092124 C 0.0007395365937196663 0.0030433712126271928 0.002170018320786627 0.0032359131208240578 0.001971411806414664 0.003266366245443875 C 0.002170018320786627 0.0032359131208240578 0.003147873005824709 0.002691025501049758 0.0029370984860518107 0.002722210413774592 C 0.003147873005824709 0.002691025501049758 0.004726150020956935 0.0027629936297903605 0.004500706043689445 0.0028921472927458686 C 0.004726150020956935 0.0027629936297903605 0.005737569560726048 0.0010290513887720482 0.005642426213261694 0.001172366458308496" fill="none" stroke="#000000" stroke-width="0.001"/>
</g><g transform="translate(0.30978974747369425,0.09570428870724274) rotate(0) scale(1,1) translate(-0.00328446270195594,-0.003284462701955941)"><path d="M 0.0042900438970120205 0.0018050090668879205 C 0.004148132059521543 0.0019488015454626787 0.002283969654523178 0.003609683513090885 0.0025871018471262837 0.0035305188097850193 C 0.002283969654523178 0.003609683513090885 0.0004912372306621263 0.002690357731289416 0.0006524575857747537 0.002754985506558309" fill="none" stroke="#000000" stroke-width="0.001"/>
<path d="M 0.006299534932856213 0.0015782146035375735 C 0.006175648930149576 0.0016734673049334826 0.0046256031828631385 0.0026717641963664033 0.004812902900376564 0.0027212470202884823 C 0.0046256031828631385 0.0026717641963664033 0.003988524607888319 0.0008396851911546392 0.004051938322695107 0.000984420716472627" fill="none" stroke="#000000" stroke-width="0.001"/>
</g><g transform="translate(0.3120109350754008,0.1012223238337305) rotate(0) scale(1,1) translate(-0.024452356684618076,-0.027256273054233456)"><path d="M 0.02762015224785631 0.02445014159806117 C 0.027538505647299743 0.024709604510902698 0.026217049871333668 0.02772755947384585 0.02664039304117751 0.027563696552159487 C 0.026217049871333668 0.02772755947384585 0.02208569751718332 0.026501231294222112 0.022540034209730175 0.026416496658297515 C 0.02208569751718332 0.026501231294222112 0.02107571260735565 0.028760846810334435 0.02118835273061523 0.02858051218325467" fill="none" stroke="#000000" stroke-width="0.001"/>
</g><g transform="translate(0.31025201740242486,0.09764449947346893) rotate(0) scale(1,1) translate(-0.024452356684618076,-0.027256273054233456)"><path d="M 0.027575163441274447 0.02451052498039342 C 0.02749179581704164 0.024764187385962446 0.02615993865403926 0.02771540426137022 0.02657475195048073 0.027554473847221705 C 0.02615993865403926 0.02771540426137022 0.022159785119943137 0.02651911683756192 0.022597403883976814 0.026441689950175592 C 0.022159785119943137 0.02651911683756192 0.02121715369025158 0.0286537553746645 0.021323326782076598 0.02848359649585766" fill="none" stroke="#000000" stroke-width="0.001"/>
</g></svg>
