<?xml version="1.0" encoding="UTF-8"?>
<svg xmlns="http://www.w3.org/2000/svg" viewBox="0 0 1 1">
<g transform="translate(0.3162111684713726,0.08586243713995967) rotate(0) scale(1,1) translate(-0.011392780750057691,-0.04320718407411321)"><path d="M 0.0023714732785672897 0.019087273510383484 C 0.002285587838386293 0.0200225909822576 0.0013683761949271924 0.03191019576924243 0.0013408479963953283 0.030311083172872875 C 0.0013683761949271924 0.03191019576924243 0.0033833541416016175 0.03945887185173416 0.0027018116609496593 0.03827662466681815 C 0.0033833541416016175 0.03945887185173416 0.010087486606157924 0.04501650145228555 0.009519357764218826 0.04449804939186498" fill="none" stroke="#000000" stroke-width="0.001"/>
<path d="M 0.009519357764218826 0.04449804939186498 C 0.009512475855897644 0.04491841788709694 0.00930707884481637 0.05052649680570762 0.009436774864364629 0.04954247133464848 C 0.00930707884481637 0.05052649680570762 0.007554236728639433 0.05724022310239673 0.007963005529639721 0.05630635504457471 C 0.007554236728639433 0.05724022310239673 0.004245594562587963 0.06111909911050761 0.0045315492523611755 0.060748888028512776" fill="none" stroke="none" stroke-width="0"/>
<path d="M 0.0045315492523611755 0.060748888028512776 C 0.004267365042744275 0.06022397774135424 0.0007622635642712815 0.053580621152288614 0.0013613387369583695 0.054449964582610366 C 0.0007622635642712815 0.053580621152288614 -0.003463491601894801 0.04957236764018785 -0.0026573528198838795 0.05031676686465172 C -0.003463491601894801 0.04957236764018785 -0.009108819036636163 0.044715398009643206 -0.008312326647172685 0.04551717388904402 C -0.009108819036636163 0.044715398009643206 -0.012540506063968353 0.04029364651374173 -0.012215261493445609 0.04069545631184191" fill="none" stroke="#000000" stroke-width="0.001"/>
<path d="M -0.012215261493445609 0.04069545631184191 C -0.011744701197492338 0.03933557029305573 -0.005874199140874909 0.022288457373894267 -0.006568537942006368 0.02437682408640774 C -0.005874199140874909 0.022288457373894267 -0.0036594173746899105 0.01490657506795292 -0.0038831958798680997 0.015635055761680214" fill="none" stroke="#000000" stroke-width="0.001"/>
<path d="M -0.0038831958798680997 0.015635055761680214 C -0.0033110007846257647 0.015753990405606627 0.0005924195513251414 0.016924033250022563 -0.00045002530841408995 0.016348663625238683 C 0.0005924195513251414 0.016924033250022563 0.0028417230430641863 0.01954370849124095 0.0023714732785672897 0.019087273510383484" fill="none" stroke="#000000" stroke-width="0.001"/>
</g><g id="刺">
<g transform="translate(0.30431012068671576,0.06806068839876964) rotate(0) scale(1,1) translate(-0.01265243108335263,-0.012652431083352629)"><path d="M 0.01287262275201228 0.0102612121739405 C 0.013162953111162804 0.010179376590178995 0.01709828050869644 0.009181134232223094 0.01635658706181856 0.009279185168802438 C 0.01709828050869644 0.009181134232223094 0.022224307202274193 0.009068385582170524 0.021772944114546836 0.009084600934988363" fill="none" stroke="#000000" stroke-width="0.001"/>
<path d="M 0.021772944114546836 0.009084600934988363 C 0.02142689039191519 0.009320851644762816 0.01702617365724028 0.01234067825185597 0.017620299442967068 0.011919609452281796 C 0.01702617365724028 0.01234067825185597 0.01439536262273024 0.014322244619678187 0.014643434685825381 0.014137426529878464" fill="none" stroke="#000000" stroke-width="0.001"/>
<path d="M 0.014643434685825381 0.014137426529878464 C 0.01435023974235989 0.014049401923965279 0.01097752770308838 0.012758113395925409 0.011125095364239472 0.013081131258920239 C 0.01097752770308838 0.012758113395925409 0.01301825003432667 0.010026218916858867 0.01287262275201227 0.01026121217394051" fill="none" stroke="#000000" stroke-width="0.001"/>
</g><g transform="translate(0.30590834070324247,0.0801505754775487) rotate(0) scale(1,1) translate(-0.01265243108335263,-0.012652431083352629)"><path d="M 0.012884211787204895 0.010135358547129335 C 0.013189822691573866 0.010049215827380383 0.017332272583714538 0.008998434397953118 0.016551542639632558 0.009101645910141901 C 0.017332272583714538 0.008998434397953118 0.022728090155901645 0.008879751608424098 0.02225297111618864 0.008896820400863929" fill="none" stroke="#000000" stroke-width="0.001"/>
<path d="M 0.02225297111618864 0.008896820400863929 C 0.021888704039734273 0.009145505358521247 0.017256370634813317 0.012324270208092989 0.01788176619873625 0.011881039892751752 C 0.017256370634813317 0.012324270208092989 0.014487095861644853 0.01441012954264269 0.014748224349113421 0.014215584184958772" fill="none" stroke="#000000" stroke-width="0.001"/>
<path d="M 0.014748224349113421 0.014215584184958772 C 0.014439598092833955 0.014122926705050156 0.010889374893600787 0.012763675622902924 0.011044709273759832 0.013103694426055376 C 0.010889374893600787 0.012763675622902924 0.013037503663325303 0.00988799722388551 0.012884211787204882 0.010135358547129346" fill="none" stroke="#000000" stroke-width="0.001"/>
</g></g>
<g transform="translate(0.30284154456087153,0.061673405852271594) rotate(0) scale(1,1) translate(-0.007923031191268859,-0.007923031191268857)"><path d="M 0.008905077322568669 0.008878257328657865 C 0.00851212862579442 0.008477698195274493 0.0060659857280963535 0.005751849300622163 0.00654738514192318 0.006474902528357634 C 0.0060659857280963535 0.005751849300622163 0.005928230122555133 0.004217443867892941 0.006016680839607711 0.00453993796224504" fill="none" stroke="#000000" stroke-width="0.001"/>
<path d="M 0.006016680839607711 0.00453993796224504 C 0.006338365224715552 0.0047841759485832 0.008518981626255258 0.006124300635707981 0.007946787150254753 0.006005365880274002 C 0.008518981626255258 0.006124300635707981 0.009700357786503407 0.005128243263944738 0.009449847695610742 0.005253546494848918" fill="none" stroke="#000000" stroke-width="0.001"/>
</g></svg>
