<?xml version="1.0" encoding="UTF-8"?>
<svg xmlns="http://www.w3.org/2000/svg" viewBox="0 0 1 1">
<g transform="translate(0.3276418299157398,0.25663963079405216) rotate(0) scale(1,1) translate(-0.03532867461186611,-0.03135835425921253)"><path d="M 0.012807987433822 0.013737127184892724 C 0.013800048609815603 0.01435904556311999 0.02665358393957114 0.02258838500624238 0.024712721545745227 0.021200147723619923 C 0.02665358393957114 0.02258838500624238 0.03704713737756528 0.03116229348075739 0.036098336159732965 0.0303959745763622" fill="none" stroke="#000000" stroke-width="0.001"/>
<path d="M 0.03443330512759992 0.032333946378584943 C 0.03349119198927299 0.03152778147373876 0.02124885791234268 0.021293863431363982 0.023127947467676803 0.02265996752043078 C 0.02124885791234268 0.021293863431363982 0.01094725404658323 0.015380758125562747 0.011884230463590429 0.015940697309783366" fill="none" stroke="#000000" stroke-width="0.001"/>
<path d="M 0.011884230463590429 0.015940697309783366 C 0.011922720337350078 0.015848881887912922 0.01242308869622551 0.014655281403597158 0.012346108948706212 0.014838912247338045 C 0.01242308869622551 0.014655281403597158 0.012846477307581646 0.013645311763022281 0.012807987433821997 0.013737127184892724" fill="none" stroke="#000000" stroke-width="0.001"/>
</g><g transform="translate(0.3470450757416016,0.2566396307940521) rotate(0) scale(1,1) translate(-0.03532867461186611,-0.03135835425921253)"><path d="M 0.05784936178991013 0.013737127184892721 C 0.05788785166366978 0.013828942606763164 0.058388220022545206 0.01502254309107893 0.05831124027502591 0.014838912247338043 C 0.058388220022545206 0.01502254309107893 0.05881160863390134 0.01603251273165381 0.05877311876014169 0.015940697309783366" fill="none" stroke="#000000" stroke-width="0.001"/>
<path d="M 0.05877311876014169 0.015940697309783366 C 0.05783614234313449 0.016500636494003983 0.045650312200721146 0.02402607160949758 0.04752940175605527 0.02265996752043078 C 0.045650312200721146 0.02402607160949758 0.03528193095780524 0.03314011128343112 0.03622404409613217 0.03233394637858494" fill="none" stroke="#000000" stroke-width="0.001"/>
<path d="M 0.034559013063999194 0.0303959745763622 C 0.0355078142818315 0.02962965567196701 0.0478854900718128 0.019811910440997463 0.04594462767798689 0.02120014772361992 C 0.0478854900718128 0.019811910440997463 0.058841422965903736 0.013115208806665455 0.05784936178991013 0.013737127184892721" fill="none" stroke="#000000" stroke-width="0.001"/>
</g><g transform="translate(0.3373434528286706,0.23965019150517883) rotate(0) scale(1,1) translate(-0.1048391138123241,-0.10483911381232405)"><path d="M 0.10661382106050543 0.14216944098929535 C 0.10646592878982365 0.14203884843520076 0.10454332927096058 0.1406023303401603 0.10483911381232412 0.1406023303401603 C 0.10454332927096058 0.1406023303401603 0.10291651429346105 0.14230003354338994 0.10306440656414283 0.14216944098929535" fill="none" stroke="#000000" stroke-width="0.001"/>
<path d="M 0.10306440656414283 0.14216944098929535 C 0.10299669574432108 0.14179284335807377 0.10200272365546025 0.1370790167709133 0.10225187672628189 0.13765026941463637 C 0.10200272365546025 0.1370790167709133 0.09982843288607177 0.1349245392983598 0.1000745697142831 0.13531440926461866 C 0.09982843288607177 0.1349245392983598 0.0992335402105345 0.13277661486577266 0.09929823478774594 0.13297182981953004" fill="none" stroke="#000000" stroke-width="0.001"/>
<path d="M 0.09929823478774594 0.13297182981953004 C 0.09919438553994957 0.13267519024772143 0.09760287988043628 0.12853666777208378 0.09805204381418944 0.12941215495782665 C 0.09760287988043628 0.12853666777208378 0.09356295289675119 0.12188713597668127 0.09390826758270798 0.12246598359061553" fill="none" stroke="#000000" stroke-width="0.001"/>
<path d="M 0.09390826758270798 0.12246598359061553 C 0.09397871338182626 0.12238608087955635 0.09489463031283944 0.1213491092469096 0.09475361717212724 0.1215071510579055 C 0.09489463031283944 0.1213491092469096 0.0956709926128483 0.12049134275872811 0.09560042527125437 0.12056948185866483" fill="none" stroke="#000000" stroke-width="0.001"/>
<path d="M 0.09560042527125437 0.12056948185866483 C 0.09637031598301019 0.12082323824243228 0.10637889523583577 0.1236145584638743 0.10483911381232414 0.1236145584638743 C 0.10637889523583577 0.1236145584638743 0.11484769306514973 0.12031572547489737 0.11407780235339392 0.12056948185866483" fill="none" stroke="#000000" stroke-width="0.001"/>
<path d="M 0.11407780235339392 0.12056948185866483 C 0.11414836969498784 0.12064762095860156 0.11506562359323325 0.12166519286890141 0.11492461045252104 0.12150715105790552 C 0.11506562359323325 0.12166519286890141 0.11584040584105856 0.12254588630167473 0.11576996004194029 0.12246598359061556" fill="none" stroke="#000000" stroke-width="0.001"/>
<path d="M 0.11576996004194029 0.12246598359061556 C 0.1154246453559835 0.12304483120454981 0.1111770198767057 0.13028764214356953 0.11162618381045886 0.12941215495782665 C 0.1111770198767057 0.13028764214356953 0.11027614358910594 0.13326846939133866 0.11037999283690232 0.13297182981953004" fill="none" stroke="#000000" stroke-width="0.001"/>
<path d="M 0.11037999283690232 0.13297182981953004 C 0.1103152982596909 0.13316704477328742 0.10935752108215387 0.13570427923087752 0.1096036579103652 0.13531440926461866 C 0.10935752108215387 0.13570427923087752 0.10717719782754472 0.13822152205835944 0.10742635089836636 0.13765026941463637 C 0.10717719782754472 0.13822152205835944 0.1065461102406837 0.14254603862051693 0.10661382106050543 0.14216944098929535" fill="none" stroke="#000000" stroke-width="0.001"/>
</g><g transform="translate(0.3373434528286707,0.2708520701497399) rotate(0) scale(1,1) translate(-0.005607832739230754,-0.005607832739230756)"><path d="M 0.010372376837271723 0.004881249546964705 C 0.010235931501989846 0.005022008306417539 0.008485166924607308 0.006757148281062731 0.008735032813889185 0.006570354660398712 C 0.008485166924607308 0.006757148281062731 0.007260565611889187 0.007168807856144121 0.007373986165889187 0.007122772994932936" fill="none" stroke="#000000" stroke-width="0.001"/>
<path d="M 0.007373986165889187 0.007122772994932936 C 0.007226806713667651 0.0071319799671751725 0.005313473834787685 0.00723325666183978 0.0056078327392307566 0.00723325666183978 C 0.005313473834787685 0.00723325666183978 0.003694499860350791 0.007113566022690701 0.0038416793125723267 0.0071227729949329376" fill="none" stroke="#000000" stroke-width="0.001"/>
<path d="M 0.0038416793125723267 0.0071227729949329376 C 0.003728258758572327 0.007076738133721752 0.0022307667752904485 0.006383561039734696 0.002480632664572327 0.006570354660398715 C 0.0022307667752904485 0.006383561039734696 0.000706843305907907 0.004740490787511871 0.0008432886411897855 0.004881249546964705" fill="none" stroke="#000000" stroke-width="0.001"/>
</g><g id="ライン">
<g transform="translate(0.3373434528286707,0.25893676184300235) rotate(0) scale(1,1) translate(-0.013368228944623991,-0.012049079174014547)"><path d="M 0.003737491988301949 0.007743332882488376 C 0.004540053401328784 0.008059551266259452 0.014973351770677639 0.011537953487741287 0.013368228944623974 0.011537953487741287 C 0.014973351770677639 0.011537953487741287 0.02380152731397276 0.0074271144987173 0.022998965900945932 0.007743332882488376" fill="none" stroke="#000000" stroke-width="0.001"/>
<path d="M 0.022998965900945932 0.007743332882488376 C 0.022989113050721474 0.007799923781458399 0.022861025997803503 0.008535605468068695 0.022880731698252423 0.008422423670128649 C 0.022861025997803503 0.008535605468068695 0.02275264464533445 0.009158105356738945 0.02276249749555891 0.009101514457768923" fill="none" stroke="none" stroke-width="0"/>
<path d="M 0.02276249749555891 0.009101514457768923 C 0.021979641782980997 0.009401516828758998 0.011802517519468148 0.012701542909649808 0.013368228944623972 0.012701542909649808 C 0.011802517519468148 0.012701542909649808 0.003191104681111109 0.008801512086778849 0.003973960393689022 0.009101514457768923" fill="none" stroke="#000000" stroke-width="0.001"/>
<path d="M 0.003973960393689022 0.009101514457768923 C 0.00396410754346456 0.009044923558798901 0.0038360204905465625 0.008309241872188603 0.0038557261909954853 0.008422423670128649 C 0.0038360204905465625 0.008309241872188603 0.0037276391380774874 0.007686741983518353 0.003737491988301949 0.007743332882488376" fill="none" stroke="none" stroke-width="0"/>
</g><g transform="translate(0.32764182991573976,0.25663963079405216) rotate(0) scale(1,1) translate(-0.01342586555605409,-0.013368228944623991)"><path d="M 0.011333464595344797 0.01374395597352835 C 0.01142348987378525 0.013644646968580547 0.01259404184640674 0.012353552724864682 0.012413767936630224 0.012552247914154713 C 0.01259404184640674 0.012353552724864682 0.01358700014399905 0.011260227517705753 0.013496751512662986 0.01135961370204798" fill="none" stroke="#000000" stroke-width="0.001"/>
<path d="M 0.013496751512662986 0.01135961370204798 C 0.013506604362887444 0.011416204601018005 0.013634691415805401 0.012151886287628328 0.013614985715356485 0.012038704489688279 C 0.013634691415805401 0.012151886287628328 0.013743072768274441 0.012774386176298603 0.013733219918049983 0.012717795277328577" fill="none" stroke="none" stroke-width="0"/>
<path d="M 0.013733219918049983 0.012717795277328577 C 0.013692613562579373 0.01276372366185069 0.013164730941461448 0.013360792660638146 0.013245943652402668 0.013268935891593923 C 0.013164730941461448 0.013360792660638146 0.012718061031284743 0.01386600489038138 0.012758667386755353 0.013820076505859267" fill="none" stroke="#000000" stroke-width="0.001"/>
<path d="M 0.012758667386755353 0.013820076505859267 C 0.012699283937113247 0.013816904817012145 0.011927299091765863 0.013775672861999565 0.012046065991050075 0.013782016239693808 C 0.011927299091765863 0.013775672861999565 0.011274081145702691 0.013740784284681229 0.011333464595344797 0.01374395597352835" fill="none" stroke="none" stroke-width="0"/>
</g><g transform="translate(0.3470450757416016,0.25663963079405216) rotate(0) scale(1,1) translate(-0.01342586555605409,-0.013368228944623991)"><path d="M 0.015518266516763357 0.01374395597352835 C 0.015458883067121253 0.013747127662375472 0.014686898221773888 0.01378835961738805 0.014805665121058098 0.013782016239693808 C 0.014686898221773888 0.01378835961738805 0.014033680275710735 0.013823248194706388 0.01409306372535284 0.013820076505859267" fill="none" stroke="none" stroke-width="0"/>
<path d="M 0.01409306372535284 0.013820076505859267 C 0.014052457369882226 0.013774148121337154 0.013524574748764265 0.013177079122549699 0.01360578745970549 0.013268935891593923 C 0.013524574748764265 0.013177079122549699 0.01307790483858753 0.012671866892806465 0.013118511194058142 0.012717795277328577" fill="none" stroke="#000000" stroke-width="0.001"/>
<path d="M 0.013118511194058142 0.012717795277328577 C 0.013128364044282602 0.012661204378358552 0.013256451097200583 0.011925522691748229 0.013236745396751664 0.012038704489688279 C 0.013256451097200583 0.011925522691748229 0.013364832449669645 0.011303022803077954 0.013354979599445186 0.01135961370204798" fill="none" stroke="none" stroke-width="0"/>
<path d="M 0.013354979599445186 0.01135961370204798 C 0.01344522823078125 0.011458999886390207 0.014618237085254478 0.012750943103444743 0.014437963175477964 0.012552247914154713 C 0.014618237085254478 0.012750943103444743 0.015608291795203807 0.013843264978476153 0.015518266516763357 0.01374395597352835" fill="none" stroke="#000000" stroke-width="0.001"/>
</g><g transform="translate(0.3326583089995004,0.26292806273745667) rotate(0) scale(1,1) translate(-0.011690181759371858,-0.013368228944623991)"><path d="M 0.006006504506312488 0.007531644562454749 C 0.0063707242057369756 0.008108414450328432 0.010844163981862399 0.015539050591788497 0.010377140899406345 0.014452883216938953 C 0.010844163981862399 0.015539050591788497 0.011713584878816704 0.02107505054762514 0.011610781495785137 0.02056565306064928" fill="none" stroke="#000000" stroke-width="0.001"/>
<path d="M 0.011610781495785137 0.02056565306064928 C 0.011440469270622533 0.020109469091886496 0.008981244812093624 0.013998934682952078 0.009567034793833891 0.015091445435495865 C 0.008981244812093624 0.013998934682952078 0.004165823958324269 0.006819197246342831 0.004581301714901932 0.007455524030123833" fill="none" stroke="#000000" stroke-width="0.001"/>
<path d="M 0.004581301714901932 0.007455524030123833 C 0.004640685164544038 0.007458695718970954 0.005412670009891423 0.007499927673983534 0.00529390311060721 0.007493584296289291 C 0.005412670009891423 0.007499927673983534 0.006065887955954594 0.0075348162513018705 0.006006504506312488 0.007531644562454749" fill="none" stroke="none" stroke-width="0"/>
</g><g transform="translate(0.34202859665784097,0.26292806273745667) rotate(0) scale(1,1) translate(-0.011690181759371858,-0.013368228944623991)"><path d="M 0.017373859012431207 0.007531644562454749 C 0.017433242462073315 0.007528472873607628 0.01820522730742074 0.007487240918595048 0.01808646040813652 0.007493584296289291 C 0.01820522730742074 0.007487240918595048 0.01885844525348394 0.0074523523412767115 0.018799061803841832 0.007455524030123833" fill="none" stroke="none" stroke-width="0"/>
<path d="M 0.018799061803841832 0.007455524030123833 C 0.018383584047264163 0.008091850813904835 0.013227538743169545 0.016183956188039653 0.013813328724909812 0.015091445435495865 C 0.013227538743169545 0.016183956188039653 0.011599269797796038 0.021021837029412065 0.011769582022958636 0.02056565306064928" fill="none" stroke="#000000" stroke-width="0.001"/>
<path d="M 0.011769582022958636 0.02056565306064928 C 0.011872385405990199 0.02005625557367342 0.013470245701793443 0.013366715842089408 0.013003222619337396 0.014452883216938953 C 0.013470245701793443 0.013366715842089408 0.01773807871185569 0.006954874674581065 0.017373859012431207 0.007531644562454749" fill="none" stroke="#000000" stroke-width="0.001"/>
</g><g transform="translate(0.33604983428564955,0.2739204924386941) rotate(0) scale(1,1) translate(-0.004497166424359802,-0.004497166424359803)"><path d="M 0.0029387344343652223 0.002564375386867203 C 0.00297744560234255 0.0025805534965402527 0.003500681805916073 0.00279061079551613 0.003403268450093152 0.002758512702943799 C 0.003500681805916073 0.00279061079551613 0.004166396892085863 0.002965472480634457 0.00410769470424027 0.0029495524977351754" fill="none" stroke="none" stroke-width="0"/>
<path d="M 0.00410769470424027 0.0029495524977351754 C 0.004134463543783356 0.003029914019026976 0.004487364384941169 0.004221308132448229 0.004428920778757305 0.003913890753236785 C 0.004487364384941169 0.004221308132448229 0.0048406927450874125 0.0068656169061921376 0.004809017978446635 0.006638561048272495" fill="none" stroke="#000000" stroke-width="0.001"/>
<path d="M 0.004809017978446635 0.006638561048272495 C 0.004764589288592876 0.006693597934808349 0.004209795343311153 0.0073755563178108385 0.004275873700201521 0.007299003686702744 C 0.004209795343311153 0.0073755563178108385 0.003994428028725599 0.007578708366141865 0.004016077695762208 0.007557192621569625" fill="none" stroke="#000000" stroke-width="0.001"/>
<path d="M 0.004016077695762208 0.007557192621569625 C 0.0039714545028713775 0.007257052953464075 0.003390820775955827 0.0035394485014111628 0.0034805993810722424 0.003955516604303031 C 0.003390820775955827 0.0035394485014111628 0.002893579022139637 0.0024484469520808846 0.0029387344343652223 0.0025643753868672035" fill="none" stroke="#000000" stroke-width="0.001"/>
</g><g transform="translate(0.33863707137169174,0.2739204924386941) rotate(0) scale(1,1) translate(-0.004497166424359802,-0.004497166424359803)"><path d="M 0.006055598414354435 0.0025643753868672035 C 0.006010443002128847 0.0026803038216535223 0.005423954862530972 0.004371584707194899 0.005513733467647386 0.003955516604303031 C 0.005423954862530972 0.004371584707194899 0.004933631960066641 0.007857332289675174 0.004978255152957467 0.007557192621569625" fill="none" stroke="#000000" stroke-width="0.001"/>
<path d="M 0.004978255152957467 0.007557192621569625 C 0.004956605485920852 0.007535676876997384 0.004652380791627719 0.00722245105559465 0.004718459148518095 0.007299003686702744 C 0.004652380791627719 0.00722245105559465 0.004140886180419199 0.006583524161736641 0.00418531487027296 0.006638561048272495" fill="none" stroke="#000000" stroke-width="0.001"/>
<path d="M 0.00418531487027296 0.006638561048272495 C 0.004216989636913739 0.006411505190352852 0.004623855676146177 0.0036064733740253417 0.004565412069962305 0.003913890753236785 C 0.004623855676146177 0.0036064733740253417 0.004913406984022521 0.0028691909764433747 0.004886638144479427 0.0029495524977351754" fill="none" stroke="#000000" stroke-width="0.001"/>
<path d="M 0.004886638144479427 0.0029495524977351754 C 0.004945340332325012 0.002933632514835894 0.0056884777544493614 0.0027264146103714677 0.005591064398626444 0.002758512702943799 C 0.0056884777544493614 0.0027264146103714677 0.006094309582331768 0.0025481972771941534 0.006055598414354435 0.002564375386867203" fill="none" stroke="none" stroke-width="0"/>
</g></g>
<g id="結び紐左">
<g transform="translate(0.30465926425257994,0.2401201887821777) rotate(0) scale(1,1) translate(-0.004599968736372043,-0.01602013802246163)"><path d="M 0.0055430219110076204 0.016237859003024966 C 0.005301109710381692 0.017285695863731163 0.0023519317636632397 0.030897319863998154 0.00264007550349648 0.028811901331499343 C 0.0023519317636632397 0.030897319863998154 0.0020390654938014213 0.042300463064803326 0.0020852970330087336 0.04126288139301071" fill="none" stroke="#000000" stroke-width="0.001"/>
<path d="M 0.0020852970330087336 0.04126288139301071 C 0.002006709268455769 0.04124473797796376 0.0009850683292672285 0.04100887358235346 0.001142243858373158 0.04104516041244735 C 0.0009850683292672285 0.04100887358235346 0.00012060291918461392 0.04080929601683708 0.00019919068373757884 0.04082743943188403" fill="none" stroke="#000000" stroke-width="0.001"/>
<path d="M 0.00019919068373757884 0.04082743943188403 C 0.000245422222944891 0.03978985776009142 0.001042112894058565 0.026291040837873866 0.0007539691542253245 0.028376459370372677 C 0.001042112894058565 0.026291040837873866 0.0038988277623623934 0.014754580181192094 0.003656915561736465 0.015802417041898293" fill="none" stroke="#000000" stroke-width="0.001"/>
<path d="M 0.003656915561736465 0.015802417041898293 C 0.0037355033262894298 0.015820560456945236 0.0047571442654779725 0.01605642485255552 0.004599968736372043 0.01602013802246163 C 0.0047571442654779725 0.01605642485255552 0.005621609675560587 0.016256002418071902 0.005543021911007622 0.01623785900302496" fill="none" stroke="none" stroke-width="0"/>
</g><g transform="translate(0.30465926425257994,0.2401201887821777) rotate(0) scale(1,1) translate(-0.004599968736372043,-0.01602013802246163)"><path d="M 0.005484152246457256 0.016413801884228356 C 0.005046747955605337 0.01739622800654526 -0.0004849283192868485 0.030159666428023323 0.0002353007562342288 0.02820291535203122 C -0.0004849283192868485 0.030159666428023323 -0.00344142144446483 0.0408691397498088 -0.0031585966597956717 0.0398948147961336" fill="none" stroke="#000000" stroke-width="0.001"/>
<path d="M -0.0031585966597956717 0.0398948147961336 C -0.0032322786189694394 0.039862009474319705 -0.004190144088228421 0.03943554029073907 -0.004042780169880885 0.03950115093436686 C -0.004190144088228421 0.03943554029073907 -0.00500064563913987 0.03907468175078625 -0.004926963679966102 0.039107487072600144" fill="none" stroke="#000000" stroke-width="0.001"/>
<path d="M -0.004926963679966102 0.039107487072600144 C -0.004644138895296943 0.038133162118924945 -0.0008128371884151231 0.02545883655250566 -0.0015330662639362006 0.027415587628497766 C -0.0008128371884151231 0.02545883655250566 0.004153189517138748 0.014644048038377998 0.0037157852262868288 0.015626474160694903" fill="none" stroke="#000000" stroke-width="0.001"/>
<path d="M 0.0037157852262868288 0.015626474160694903 C 0.0037894671854605965 0.0156592794825088 0.004747332654719578 0.016085748666089417 0.004599968736372043 0.01602013802246163 C 0.004747332654719578 0.016085748666089417 0.0055578342056310254 0.01644660720604224 0.005484152246457257 0.01641380188422835" fill="none" stroke="none" stroke-width="0"/>
</g><g id="輪1">
<g transform="translate(0.30465926425257994,0.2401201887821777) rotate(0) scale(1,1) translate(-0.004599968736372043,-0.01602013802246163)"><path d="M 0.003745399655715873 0.015565755582270462 C 0.003816613745770556 0.015603620785619726 0.004742396916481433 0.01609586842916017 0.004599968736372067 0.01602013802246164 C 0.004742396916481433 0.01609586842916017 0.005525751907082946 0.016512385666002084 0.0054545378170282625 0.01647452046265282" fill="none" stroke="none" stroke-width="0"/>
<path d="M 0.0054545378170282625 0.01647452046265282 C 0.004864683700630998 0.01707848291190234 -0.002180102399990021 0.024914953286749687 -0.0016237115797389052 0.02372206985364709 C -0.002180102399990021 0.024914953286749687 -0.001188688729838977 0.031378042643737065 -0.0012221520259851253 0.03078912165988399" fill="none" stroke="#000000" stroke-width="0.001"/>
<path d="M -0.0012221520259851253 0.03078912165988399 C -0.0012933661160398078 0.030751256456534724 -0.0022191492867506797 0.030259008812994276 -0.002076721106641314 0.030334739219692805 C -0.0022191492867506797 0.030259008812994276 -0.0030025042773522 0.029842491576152368 -0.0029312901872975165 0.029880356779501634" fill="none" stroke="none" stroke-width="0"/>
<path d="M -0.0029312901872975165 0.029880356779501634 C -0.0029647534834436645 0.02929143579564856 -0.002776458920800178 0.02162042154016213 -0.003332849741051294 0.02281330497326473 C -0.002776458920800178 0.02162042154016213 0.004335253772113133 0.014961793133020942 0.0037453996557158696 0.015565755582270465" fill="none" stroke="#000000" stroke-width="0.001"/>
</g><g transform="translate(0.30465926425257994,0.2401201887821777) rotate(0) scale(1,1) translate(-0.004599968736372043,-0.016020138022461605)"><path d="M 0.005454537817028236 0.01647452046265279 C 0.005389717608913272 0.017330932212274944 0.004120304499397551 0.027944344891221246 0.004676695319648667 0.026751461458118648 C 0.004120304499397551 0.027944344891221246 -0.0017137226381213047 0.031125593343364406 -0.001222152025985153 0.030789121659883963" fill="none" stroke="#000000" stroke-width="0.001"/>
<path d="M -0.001222152025985153 0.030789121659883963 C -0.0012933661160398353 0.030751256456534697 -0.0022191492867507045 0.03025900881299424 -0.002076721106641339 0.03033473921969277 C -0.0022191492867507045 0.03025900881299424 -0.0030025042773522224 0.029842491576152333 -0.002931290187297539 0.0298803567795016" fill="none" stroke="#000000" stroke-width="0.001"/>
<path d="M -0.002931290187297539 0.0298803567795016 C -0.0024397195751613876 0.029543885096021155 0.003523947978587393 0.02464981314463369 0.0029675571583362773 0.025842696577736288 C 0.003523947978587393 0.02464981314463369 0.0038102198638308117 0.014709343832648271 0.0037453996557158475 0.015565755582270427" fill="none" stroke="#000000" stroke-width="0.001"/>
<path d="M 0.0037453996557158475 0.015565755582270427 C 0.0038166137457705303 0.015603620785619691 0.004742396916481408 0.016095868429160134 0.004599968736372043 0.016020138022461605 C 0.004742396916481408 0.016095868429160134 0.005525751907082924 0.016512385666002053 0.005454537817028241 0.016474520462652787" fill="none" stroke="none" stroke-width="0"/>
</g></g>
<g id="輪2">
<g transform="translate(0.30465926425257994,0.2401201887821777) rotate(0) scale(1,1) translate(-0.004599968736372043,-0.01602013802246163)"><path d="M 0.003990875113639254 0.015267970039685268 C 0.004041632915533654 0.015330650704916633 0.00470148434016086 0.016145499352924378 0.004599968736372059 0.016020138022461647 C 0.00470148434016086 0.016145499352924378 0.005259820160999269 0.01683498667046939 0.005209062359104868 0.016772306005238026" fill="none" stroke="none" stroke-width="0"/>
<path d="M 0.005209062359104868 0.016772306005238026 C 0.0044465379125518565 0.01718390839834035 -0.004786995348342286 0.022649703633034025 -0.0039412309995312655 0.021711534722465946 C -0.004786995348342286 0.022649703633034025 -0.005023349728885383 0.028556899449520737 -0.004940109826627374 0.028030332932054983" fill="none" stroke="#000000" stroke-width="0.001"/>
<path d="M -0.004940109826627374 0.028030332932054983 C -0.004990867628521774 0.027967652266823618 -0.0056507190531489785 0.027152803618815877 -0.005549203449360177 0.027278164949278608 C -0.0056507190531489785 0.027152803618815877 -0.0062090548739874 0.026463316301270867 -0.006158297072092998 0.026525996966502232" fill="none" stroke="none" stroke-width="0"/>
<path d="M -0.006158297072092998 0.026525996966502232 C -0.006075057169834989 0.02599943044903648 -0.004313653896185866 0.01926902984634511 -0.005159418244996886 0.020207198756913188 C -0.004313653896185866 0.01926902984634511 0.004753399560192261 0.014856367646582946 0.0039908751136392496 0.015267970039685271" fill="none" stroke="#000000" stroke-width="0.001"/>
</g><g transform="translate(0.30465926425257994,0.2401201887821777) rotate(0) scale(1,1) translate(-0.004599968736372043,-0.016020138022461605)"><path d="M 0.005209062359104849 0.016772306005237984 C 0.004870553094459832 0.01751000586960518 0.00030118683455362374 0.02656287328821241 0.001146951183364644 0.02562470437764433 C 0.00030118683455362374 0.02656287328821241 -0.005447364910793398 0.02823080197825583 -0.004940109826627395 0.028030332932054945" fill="none" stroke="#000000" stroke-width="0.001"/>
<path d="M -0.004940109826627395 0.028030332932054945 C -0.004990867628521795 0.02796765226682358 -0.005650719053148995 0.027152803618815828 -0.005549203449360194 0.02727816494927856 C -0.005650719053148995 0.027152803618815828 -0.006209054873987408 0.02646331630127081 -0.006158297072093007 0.026525996966502177" fill="none" stroke="#000000" stroke-width="0.001"/>
<path d="M -0.006158297072093007 0.026525996966502177 C -0.005651041987927004 0.026325527920301295 0.0007745282867100458 0.023182199501523497 -7.123606210097423E-05 0.024120368412091576 C 0.0007745282867100458 0.023182199501523497 0.0043293843782842515 0.014530270175318029 0.003990875113639234 0.015267970039685224" fill="none" stroke="#000000" stroke-width="0.001"/>
<path d="M 0.003990875113639234 0.015267970039685224 C 0.004041632915533635 0.01533065070491659 0.0047014843401608445 0.016145499352924336 0.004599968736372043 0.016020138022461605 C 0.0047014843401608445 0.016145499352924336 0.005259820160999254 0.016834986670469346 0.005209062359104853 0.01677230600523798" fill="none" stroke="none" stroke-width="0"/>
</g></g>
<g transform="translate(0.30465926425257994,0.2401201887821777) rotate(0) scale(1,1) translate(-0.014814031015816116,-0.014814031015816118)"><path d="M 0.015153798899358311 0.013500832149353614 C 0.015227664013131479 0.013570281829694686 0.016082781047525273 0.014534354054845445 0.016040180264636328 0.01433422831344648 C 0.016082781047525273 0.014534354054845445 0.01563374396314144 0.016033017107199083 0.015665008294025663 0.015902341046141192" fill="none" stroke="#000000" stroke-width="0.001"/>
<path d="M 0.015665008294025663 0.015902341046141192 C 0.015605816225562818 0.01587661652794829 0.014774725568927774 0.015585665680622578 0.014954703472471537 0.01559364682782637 C 0.014774725568927774 0.015585665680622578 0.01338448761641957 0.015824310650684802 0.013505273451500491 0.01580656727969569" fill="none" stroke="#000000" stroke-width="0.001"/>
<path d="M 0.013505273451500491 0.01580656727969569 C 0.013500966622050116 0.015761586665126885 0.013448099146689195 0.015176162952954557 0.013453591498095987 0.015266799904870045 C 0.013448099146689195 0.015176162952954557 0.013438179712662571 0.01467326751936316 0.013439365234618987 0.014718923856709844" fill="none" stroke="#000000" stroke-width="0.001"/>
<path d="M 0.013439365234618987 0.014718923856709844 C 0.013486106836379724 0.014646364440519226 0.01414313392780944 0.013746703220142736 0.01400026445574783 0.013848210862422421 C 0.01414313392780944 0.013746703220142736 0.015249926769659184 0.013471883923264547 0.015153798899358311 0.013500832149353614" fill="none" stroke="#000000" stroke-width="0.001"/>
</g></g>
<g id="結び紐右">
<g transform="translate(0.37002764140476135,0.24012018878217764) rotate(0) scale(1,1) translate(-0.004599968736372043,-0.01602013802246163)"><path d="M 0.003656915561736418 0.01623785900302496 C 0.0037355033262893855 0.016219715587978016 0.004757144265477964 0.01598385119236774 0.004599968736372029 0.01602013802246163 C 0.004757144265477964 0.01598385119236774 0.005621609675560607 0.01578427362685135 0.0055430219110076395 0.015802417041898293" fill="none" stroke="none" stroke-width="0"/>
<path d="M 0.0055430219110076395 0.015802417041898293 C 0.005784934111633565 0.01685025390260449 0.008734112058351978 0.030461877902871488 0.008445968318518737 0.028376459370372677 C 0.008734112058351978 0.030461877902871488 0.009046978328213847 0.04186502110367664 0.00900074678900653 0.04082743943188403" fill="none" stroke="#000000" stroke-width="0.001"/>
<path d="M 0.00900074678900653 0.04082743943188403 C 0.008922159024453563 0.040845582846930975 0.007900518085264985 0.041081447242541244 0.00805769361437092 0.04104516041244735 C 0.007900518085264985 0.041081447242541244 0.0070360526751823416 0.041281024808057655 0.007114640439735309 0.04126288139301071" fill="none" stroke="#000000" stroke-width="0.001"/>
<path d="M 0.007114640439735309 0.04126288139301071 C 0.007068408900528002 0.04022529972121809 0.006271718229414386 0.02672648279900053 0.006559861969247627 0.028811901331499343 C 0.006271718229414386 0.02672648279900053 0.0034150033611104838 0.015190022142318769 0.003656915561736418 0.016237859003024966" fill="none" stroke="#000000" stroke-width="0.001"/>
</g><g transform="translate(0.37002764140476135,0.24012018878217764) rotate(0) scale(1,1) translate(-0.004599968736372043,-0.01602013802246163)"><path d="M 0.003715785226286794 0.01641380188422835 C 0.0037894671854605635 0.016380996562414457 0.0047473326547195676 0.015954527378833842 0.004599968736372029 0.01602013802246163 C 0.0047473326547195676 0.015954527378833842 0.005557834205631033 0.01559366883888101 0.005484152246457263 0.015626474160694903" fill="none" stroke="none" stroke-width="0"/>
<path d="M 0.005484152246457263 0.015626474160694903 C 0.005921556537309173 0.016608900283011808 0.01145323281220125 0.02937233870448987 0.01073300373668018 0.027415587628497766 C 0.01145323281220125 0.02937233870448987 0.01440972593737925 0.040081812026275344 0.014126901152710092 0.039107487072600144" fill="none" stroke="#000000" stroke-width="0.001"/>
<path d="M 0.014126901152710092 0.039107487072600144 C 0.014053219193536323 0.039140292394414036 0.013095353724277317 0.03956676157799465 0.013242717642624857 0.03950115093436686 C 0.013095353724277317 0.03956676157799465 0.012284852173365854 0.03992762011794749 0.012358534132539623 0.0398948147961336" fill="none" stroke="#000000" stroke-width="0.001"/>
<path d="M 0.012358534132539623 0.0398948147961336 C 0.012075709347870472 0.0389204898424584 0.008244407640988752 0.026246164276039114 0.008964636716509822 0.02820291535203122 C 0.008244407640988752 0.026246164276039114 0.003278380935434875 0.015431375761911451 0.003715785226286794 0.016413801884228356" fill="none" stroke="#000000" stroke-width="0.001"/>
</g><g id="輪1">
<g transform="translate(0.37002764140476135,0.24012018878217764) rotate(0) scale(1,1) translate(-0.004599968736372043,-0.01602013802246163)"><path d="M 0.005454537817028204 0.015565755582270465 C 0.006044391933425458 0.016169718031519988 0.013089178034046365 0.024006188406367326 0.012532787213795249 0.02281330497326473 C 0.013089178034046365 0.024006188406367326 0.012097764363895461 0.03046927776335471 0.0121312276600416 0.029880356779501634" fill="none" stroke="#000000" stroke-width="0.001"/>
<path d="M 0.0121312276600416 0.029880356779501634 C 0.012060013569986908 0.0299182219828509 0.01113423039927595 0.030410469626391334 0.011276658579385312 0.030334739219692805 C 0.01113423039927595 0.030410469626391334 0.010350875408674576 0.030826986863233256 0.010422089498729248 0.03078912165988399" fill="none" stroke="none" stroke-width="0"/>
<path d="M 0.010422089498729248 0.03078912165988399 C 0.010455552794875386 0.030200200676030915 0.010267258232231772 0.02252918642054449 0.010823649052482898 0.02372206985364709 C 0.010267258232231772 0.02252918642054449 0.0031555455393184792 0.015870558013403296 0.003745399655715742 0.01647452046265282" fill="none" stroke="#000000" stroke-width="0.001"/>
<path d="M 0.003745399655715742 0.01647452046265282 C 0.0038166137457704328 0.016436655259303552 0.004742396916481401 0.01594440761576311 0.004599968736372029 0.01602013802246164 C 0.004742396916481401 0.01594440761576311 0.005525751907082886 0.015527890378921197 0.005454537817028204 0.015565755582270462" fill="none" stroke="none" stroke-width="0"/>
</g><g transform="translate(0.37002764140476135,0.24012018878217764) rotate(0) scale(1,1) translate(-0.004599968736372043,-0.016020138022461605)"><path d="M 0.003745399655715853 0.016474520462652787 C 0.0038166137457705343 0.01643665525930352 0.004742396916481391 0.015944407615763077 0.004599968736372029 0.016020138022461605 C 0.004742396916481391 0.015944407615763077 0.005525751907082886 0.015527890378921163 0.005454537817028204 0.015565755582270427" fill="none" stroke="none" stroke-width="0"/>
<path d="M 0.005454537817028204 0.015565755582270427 C 0.005519358025143167 0.01642216733189258 0.006788771134658876 0.027035580010838885 0.006232380314407759 0.025842696577736288 C 0.006788771134658876 0.027035580010838885 0.012622798272177752 0.030216828462982043 0.0121312276600416 0.0298803567795016" fill="none" stroke="#000000" stroke-width="0.001"/>
<path d="M 0.0121312276600416 0.0298803567795016 C 0.012060013569986908 0.029918221982850865 0.01113423039927595 0.030410469626391302 0.011276658579385312 0.03033473921969277 C 0.01113423039927595 0.030410469626391302 0.010350875408674576 0.03082698686323323 0.010422089498729248 0.030789121659883963" fill="none" stroke="#000000" stroke-width="0.001"/>
<path d="M 0.010422089498729248 0.030789121659883963 C 0.009930518886593095 0.03045264997640352 0.003966851332844292 0.02555857802501605 0.004523242153095408 0.026751461458118648 C 0.003966851332844292 0.02555857802501605 0.00368057944760089 0.015618108713030637 0.003745399655715853 0.01647452046265279" fill="none" stroke="#000000" stroke-width="0.001"/>
</g></g>
<g id="輪2">
<g transform="translate(0.37002764140476135,0.24012018878217764) rotate(0) scale(1,1) translate(-0.004599968736372043,-0.01602013802246163)"><path d="M 0.005209062359104788 0.015267970039685271 C 0.00597158680565781 0.015679572432787597 0.015205120066552077 0.021145367667481266 0.014359355717741051 0.020207198756913188 C 0.015205120066552077 0.021145367667481266 0.015441474447095094 0.027052563483967985 0.01535823454483709 0.026525996966502232" fill="none" stroke="#000000" stroke-width="0.001"/>
<path d="M 0.01535823454483709 0.026525996966502232 C 0.015307476742942694 0.026588677631733598 0.014647625318315519 0.02740352627974134 0.014749140922104331 0.027278164949278608 C 0.014647625318315519 0.02740352627974134 0.014089289497476934 0.02809301359728635 0.01414004729937135 0.028030332932054983" fill="none" stroke="none" stroke-width="0"/>
<path d="M 0.01414004729937135 0.028030332932054983 C 0.014056807397113347 0.02750376641458923 0.012295404123464295 0.020773365811897867 0.01314116847227531 0.021711534722465946 C 0.012295404123464295 0.020773365811897867 0.003228350667086146 0.0163607036121357 0.0039908751136391585 0.016772306005238026" fill="none" stroke="#000000" stroke-width="0.001"/>
<path d="M 0.0039908751136391585 0.016772306005238026 C 0.004041632915533565 0.01670962534000666 0.0047014843401608315 0.015894776691998916 0.004599968736372029 0.016020138022461647 C 0.0047014843401608315 0.015894776691998916 0.005259820160999185 0.015205289374453902 0.005209062359104788 0.015267970039685268" fill="none" stroke="none" stroke-width="0"/>
</g><g transform="translate(0.37002764140476135,0.24012018878217764) rotate(0) scale(1,1) translate(-0.004599968736372043,-0.016020138022461605)"><path d="M 0.0039908751136391585 0.01677230600523798 C 0.004041632915533565 0.016709625340006615 0.0047014843401608315 0.015894776691998874 0.004599968736372029 0.016020138022461605 C 0.0047014843401608315 0.015894776691998874 0.005259820160999185 0.015205289374453859 0.005209062359104788 0.015267970039685224" fill="none" stroke="none" stroke-width="0"/>
<path d="M 0.005209062359104788 0.015267970039685224 C 0.005547571623749803 0.01600566990405242 0.010116937883655993 0.025058537322659655 0.009271173534844968 0.024120368412091576 C 0.010116937883655993 0.025058537322659655 0.0158654896290031 0.026726466012703058 0.01535823454483709 0.026525996966502177" fill="none" stroke="#000000" stroke-width="0.001"/>
<path d="M 0.01535823454483709 0.026525996966502177 C 0.015307476742942694 0.026588677631733542 0.014647625318315519 0.02740352627974129 0.014749140922104331 0.02727816494927856 C 0.014647625318315519 0.02740352627974129 0.014089289497476934 0.02809301359728631 0.01414004729937135 0.028030332932054945" fill="none" stroke="#000000" stroke-width="0.001"/>
<path d="M 0.01414004729937135 0.028030332932054945 C 0.013632792215205358 0.02782986388585406 0.007207221940568433 0.02468653546707625 0.008052986289379449 0.02562470437764433 C 0.007207221940568433 0.02468653546707625 0.0036523658489941344 0.016034606140870787 0.0039908751136391585 0.016772306005237984" fill="none" stroke="#000000" stroke-width="0.001"/>
</g></g>
<g transform="translate(0.37002764140476135,0.24012018878217764) rotate(0) scale(1,1) translate(-0.014814031015816116,-0.014814031015816118)"><path d="M 0.014474263132273957 0.013500832149353614 C 0.014570391002574826 0.01352978037544268 0.015770667047946007 0.013949718504702106 0.015627797575884395 0.013848210862422421 C 0.015770667047946007 0.013949718504702106 0.016235438398774032 0.014791483272900462 0.01618869679701329 0.014718923856709844" fill="none" stroke="#000000" stroke-width="0.001"/>
<path d="M 0.01618869679701329 0.014718923856709844 C 0.01618751127505687 0.014764580194056527 0.01616897818212947 0.015357436856785532 0.016174470533536267 0.015266799904870045 C 0.01616897818212947 0.015357436856785532 0.01611848175068134 0.015851547894264496 0.01612278858013172 0.01580656727969569" fill="none" stroke="#000000" stroke-width="0.001"/>
<path d="M 0.01612278858013172 0.01580656727969569 C 0.016002002745050804 0.01578882390870658 0.014493380655616986 0.01560162797503016 0.014673358559160743 0.01559364682782637 C 0.014493380655616986 0.01560162797503016 0.013903861669143805 0.015928065564334095 0.013963053737606645 0.015902341046141192" fill="none" stroke="#000000" stroke-width="0.001"/>
<path d="M 0.013963053737606645 0.015902341046141192 C 0.013931789406722414 0.0157716649850833 0.013630482549884823 0.014134102572047514 0.01358788176699588 0.01433422831344648 C 0.013630482549884823 0.014134102572047514 0.01454812824604713 0.013431382469012541 0.014474263132273957 0.013500832149353614" fill="none" stroke="#000000" stroke-width="0.001"/>
</g></g>
<g id="ヴィオラ">
<g transform="translate(0.31924127705040783,0.24937552188801118) rotate(0) scale(1,1) translate(-0.03532867461186611,-0.03135835425921253)"><path d="M 0.023573567767634487 0.014461699232279007 C 0.024147440306203364 0.015148775663694918 0.03156357465078099 0.02412230260419471 0.030460038230461003 0.02270661640926994 C 0.03156357465078099 0.02412230260419471 0.037345668693225406 0.03217854333488512 0.0368160048114743 0.03144993357137626" fill="none" stroke="#000000" stroke-width="0.001"/>
<path d="M 0.0368160048114743 0.03144993357137626 C 0.0367628199078101 0.0315305812945076 0.03602232037880187 0.032532378346028165 0.036177785967503914 0.032417706248952335 C 0.03602232037880187 0.032532378346028165 0.03484813706201187 0.03286002311023069 0.03495041774704972 0.0328259987362862" fill="none" stroke="#000000" stroke-width="0.001"/>
<path d="M 0.03495041774704972 0.0328259987362862 C 0.03442974960352625 0.03208657022692934 0.02766897490903646 0.022628825002170318 0.02870240002476809 0.02395285662400387 C 0.02766897490903646 0.022628825002170318 0.022036559386061978 0.01635301616180687 0.02254931635827014 0.016937619274283562" fill="none" stroke="#000000" stroke-width="0.001"/>
<path d="M 0.02254931635827014 0.016937619274283562 C 0.022591993500326986 0.01683445593920004 0.023146796347066 0.015493332583114236 0.023061442062952308 0.015699659253281283 C 0.023146796347066 0.015493332583114236 0.023616244909691324 0.014358535897195481 0.023573567767634477 0.014461699232279005" fill="none" stroke="#000000" stroke-width="0.001"/>
</g><g transform="translate(0.35544562860693346,0.2493755218880111) rotate(0) scale(1,1) translate(-0.03532867461186611,-0.03135835425921253)"><path d="M 0.04708413931557828 0.01446171872627207 C 0.047126815887528206 0.014564871461312688 0.04768161132287718 0.015905857016840705 0.04759625817897734 0.01569955154675947 C 0.04768161132287718 0.015905857016840705 0.048151053614326325 0.017040537102287485 0.0481083770423764 0.016937384367246868" fill="none" stroke="#000000" stroke-width="0.001"/>
<path d="M 0.0481083770423764 0.016937384367246868 C 0.04759520618766576 0.017522004819707733 0.04091050912949369 0.025270517134983374 0.041950326785848695 0.023952829796777264 C 0.04091050912949369 0.025270517134983374 0.035103918364472034 0.033482699311465434 0.035630565166116394 0.03274963242572019" fill="none" stroke="#000000" stroke-width="0.001"/>
<path d="M 0.035630565166116394 0.03274963242572019 C 0.03553464834029238 0.032721971910989536 0.034330461526740005 0.03230939801109034 0.034479563256228224 0.032417706248952335 C 0.034330461526740005 0.03230939801109034 0.033788159508593596 0.031369285848244916 0.0338413444122578 0.03144993357137626" fill="none" stroke="#000000" stroke-width="0.001"/>
<path d="M 0.0338413444122578 0.03144993357137626 C 0.03437100829400891 0.0307213238078674 0.04130087723521452 0.02129093183884459 0.040197310993271146 0.02270661640926994 C 0.04130087723521452 0.02129093183884459 0.04765804167577054 0.01377464391935558 0.04708413931557828 0.01446171872627207" fill="none" stroke="#000000" stroke-width="0.001"/>
</g><g transform="translate(0.31924127705040783,0.24937552188801118) rotate(0) scale(1,1) translate(-0.02205677125180655,-0.022056771251806547)"><path d="M 0.022800627898434803 0.021555033608345944 C 0.02287304748931344 0.021662400067138272 0.022812808694217118 0.022560137758445117 0.022863217120392496 0.022450101182830213 C 0.022812808694217118 0.022560137758445117 0.022066534908062405 0.022884506491761214 0.022195726784330256 0.022875472515724804 C 0.022066534908062405 0.022884506491761214 0.02123413115508583 0.022457506295688656 0.021312914605178302 0.02255850889526715 C 0.02123413115508583 0.022457506295688656 0.021307097668609817 0.021547040885954143 0.021250325383220605 0.02166344132078288 C 0.021307097668609817 0.021547040885954143 0.022123373906116704 0.02115266970128587 0.021994182029848854 0.02116170367732228 C 0.022123373906116704 0.02115266970128587 0.02287304748931344 0.021662400067138272 0.022800627898434803 0.021555033608345944 Z" fill="#cccccc" stroke="#000000" stroke-width="0.001"/>
</g><g transform="translate(0.35544562860693346,0.2493755218880111) rotate(0) scale(1,1) translate(-0.02205677125180655,-0.022056771251806547)"><path d="M 0.022119360473764192 0.02116170367732228 C 0.022248552350032046 0.02117073765335869 0.022919989405781615 0.021779841755611613 0.022863217120392406 0.021663441320782875 C 0.022919989405781615 0.021779841755611613 0.022728208307556078 0.02266587535405947 0.022800627898434712 0.022558508895267143 C 0.022728208307556078 0.02266587535405947 0.021864990153580944 0.022942804850254406 0.021994182029848798 0.022951838826290816 C 0.021864990153580944 0.022942804850254406 0.021193553097831254 0.022333700748001464 0.021250325383220473 0.022450101182830206 C 0.021193553097831254 0.022333700748001464 0.02138533419605681 0.02144766714955361 0.021312914605178167 0.021555033608345937 C 0.02138533419605681 0.02144766714955361 0.022248552350032046 0.02117073765335869 0.022119360473764192 0.02116170367732228 Z" fill="#cccccc" stroke="#000000" stroke-width="0.001"/>
</g><g id="金具左">
<g transform="translate(0.3276418299157398,0.25663963079405216) rotate(0) scale(1,1) translate(-0.011152769902399133,-0.011152769902399133)"><path d="M 0.011743976271473264 0.010441095636770644 C 0.011800837143762006 0.010490524038951909 0.01254002848351565 0.01113309326730836 0.012426306738938166 0.011034236462945829 C 0.01254002848351565 0.01113309326730836 0.013165498078691804 0.011676805691302274 0.013108637206403062 0.01162737728912101" fill="none" stroke="#000000" stroke-width="0.001"/>
<path d="M 0.013108637206403062 0.01162737728912101 C 0.013094328984719012 0.011643837015309856 0.012908322102826357 0.011857813455764856 0.012936938546194458 0.011824894003387165 C 0.012908322102826357 0.011857813455764856 0.012750931664301803 0.012038870443842166 0.012765239885985854 0.01202241071765332" fill="none" stroke="#000000" stroke-width="0.001"/>
<path d="M 0.012765239885985854 0.01202241071765332 C 0.012708379013697112 0.011972982315472055 0.01196918767394347 0.011330413087115607 0.012082909418520953 0.011429269891478138 C 0.01196918767394347 0.011330413087115607 0.011343718078767313 0.01078670066312169 0.011400578951056055 0.010836129065302954" fill="none" stroke="#000000" stroke-width="0.001"/>
<path d="M 0.011400578951056055 0.010836129065302954 C 0.011414887172740106 0.010819669339114107 0.01160089405463276 0.010605692898659107 0.01157227761126466 0.010638612351036799 C 0.01160089405463276 0.010605692898659107 0.011758284493157314 0.010424635910581797 0.011743976271473264 0.010441095636770644" fill="none" stroke="#000000" stroke-width="0.001"/>
</g><g transform="translate(0.32764182991573976,0.25663963079405216) rotate(0) scale(1,1) translate(-0.011152769902399133,-0.011152769902399133)"><path d="M 0.010827455531698072 0.011485304199183852 C 0.01088344509923614 0.011535717432233614 0.011611309477231015 0.012191089461880534 0.011499330342154881 0.012090262995781009 C 0.011611309477231015 0.012191089461880534 0.012227194720149753 0.012745635025427922 0.012171205152611686 0.01269522179237816" fill="none" stroke="#000000" stroke-width="0.001"/>
<path d="M 0.012171205152611686 0.01269522179237816 C 0.012156611848307807 0.012711429298770758 0.011966898892357386 0.012922126881874538 0.011996085500965143 0.01288971186908934 C 0.011966898892357386 0.012922126881874538 0.01180637254501472 0.01310040945219312 0.011820965849318599 0.013084201945800521" fill="none" stroke="#000000" stroke-width="0.001"/>
<path d="M 0.011820965849318599 0.013084201945800521 C 0.011764976281780531 0.013033788712750759 0.011037111903785658 0.012378416683103844 0.011149091038861792 0.01247924314920337 C 0.011037111903785658 0.012378416683103844 0.010421226660866917 0.011823871119556451 0.010477216228404985 0.011874284352606214" fill="none" stroke="#000000" stroke-width="0.001"/>
<path d="M 0.010477216228404985 0.011874284352606214 C 0.010491809532708864 0.011858076846213615 0.010681522488659285 0.011647379263109837 0.010652335880051529 0.011679794275895035 C 0.010681522488659285 0.011647379263109837 0.010842048836001952 0.011469096692791253 0.010827455531698072 0.011485304199183852" fill="none" stroke="#000000" stroke-width="0.001"/>
</g></g>
<g id="金具右">
<g transform="translate(0.3470450757416016,0.25663963079405216) rotate(0) scale(1,1) translate(-0.011152769902399133,-0.011152769902399133)"><path d="M 0.010561563533324936 0.010441095636770644 C 0.010575871755008986 0.010457555362959491 0.010761878636901645 0.010671531803414491 0.010733262193533544 0.010638612351036799 C 0.010761878636901645 0.010671531803414491 0.010919269075426202 0.0108525887914918 0.010904960853742152 0.010836129065302954" fill="none" stroke="#000000" stroke-width="0.001"/>
<path d="M 0.010904960853742152 0.010836129065302954 C 0.01084809998145341 0.010885557467484219 0.010108908641699757 0.01152812669584067 0.010222630386277243 0.011429269891478138 C 0.010108908641699757 0.01152812669584067 0.009483439046523592 0.012071839119834584 0.009540299918812334 0.01202241071765332" fill="none" stroke="#000000" stroke-width="0.001"/>
<path d="M 0.009540299918812334 0.01202241071765332 C 0.009525991697128283 0.012005950991464473 0.009339984815235625 0.011791974551009473 0.009368601258603726 0.011824894003387165 C 0.009339984815235625 0.011791974551009473 0.009182594376711067 0.011610917562932163 0.009196902598395118 0.01162737728912101" fill="none" stroke="#000000" stroke-width="0.001"/>
<path d="M 0.009196902598395118 0.01162737728912101 C 0.00925376347068386 0.011577948886939745 0.009992954810437512 0.010935379658583298 0.009879233065860027 0.011034236462945829 C 0.009992954810437512 0.010935379658583298 0.010618424405613678 0.01039166723458938 0.010561563533324936 0.010441095636770644" fill="none" stroke="#000000" stroke-width="0.001"/>
</g><g transform="translate(0.34704507574160154,0.25663963079405216) rotate(0) scale(1,1) translate(-0.011152769902399133,-0.011152769902399133)"><path d="M 0.011478084273100153 0.011485304199183852 C 0.011492677577404029 0.01150151170557645 0.011682390533354422 0.011712209288680232 0.011653203924746669 0.011679794275895035 C 0.011682390533354422 0.011712209288680232 0.01184291688069706 0.011890491858998813 0.011828323576393185 0.011874284352606214" fill="none" stroke="#000000" stroke-width="0.001"/>
<path d="M 0.011828323576393185 0.011874284352606214 C 0.011772334008855126 0.011924697585655977 0.011044469630860337 0.012580069615302895 0.011156448765936466 0.01247924314920337 C 0.011044469630860337 0.012580069615302895 0.010428584387941567 0.013134615178850284 0.010484573955479637 0.013084201945800521" fill="none" stroke="#000000" stroke-width="0.001"/>
<path d="M 0.010484573955479637 0.013084201945800521 C 0.010469980651175761 0.013067994439407923 0.010280267695225359 0.012857296856304143 0.010309454303833121 0.01288971186908934 C 0.010280267695225359 0.012857296856304143 0.010119741347882608 0.01267901428598556 0.010134334652186494 0.01269522179237816" fill="none" stroke="#000000" stroke-width="0.001"/>
<path d="M 0.010134334652186494 0.01269522179237816 C 0.010190324219724564 0.012644808559328397 0.010918188597719461 0.011989436529681484 0.010806209462643324 0.012090262995781009 C 0.010918188597719461 0.011989436529681484 0.011534073840638223 0.011434890966134089 0.011478084273100153 0.011485304199183852" fill="none" stroke="#000000" stroke-width="0.001"/>
</g></g>
</g>
<g id="染み">
<g transform="translate(0.3373434528286707,0.2708520701497399) rotate(0) scale(1,1) translate(-0.004497166424359802,-0.004497166424359803)"><path d="M 0.001645115939666537 0.005632797793021586 C 0.0014808777865528099 0.0054217624234416326 -0.0003063335658538304 0.0025444033177441207 -0.0003257418976981892 0.0031003733580621403 C -0.0003063335658538304 0.0025444033177441207 0.002279924948637009 -0.0016289078866362106 0.0018780159217988428 -0.0010388426907946508 C 0.002279924948637009 -0.0016289078866362106 0.004933691508119962 -0.003980408992036577 0.004497166424359802 -0.003980408992036577 C 0.004933691508119962 -0.003980408992036577 0.007518225953758935 -0.00044877749495309145 0.007116316926920769 -0.0010388426907946512 C 0.007518225953758935 -0.00044877749495309145 0.009339483078262156 0.003656343398380159 0.009320074746417798 0.0031003733580621394 C 0.009339483078262156 0.003656343398380159 0.007184978755939336 0.005843833162601539 0.007349216909053064 0.005632797793021585" fill="none" stroke="none" stroke-width="0"/>
<path d="M 0.007349216909053064 0.005632797793021585 C 0.007304059466096234 0.005749297419375633 0.006717548990771307 0.007446861407115694 0.006807327593571109 0.007030793309270156 C 0.006717548990771307 0.007446861407115694 0.006227252515612468 0.010925183438659534 0.00627187367545544 0.010625614967168044" fill="none" stroke="none" stroke-width="0"/>
<path d="M 0.00627187367545544 0.010625614967168044 C 0.0061239814045308035 0.010495022414909223 0.0042013818825105305 0.009058504340062197 0.004497166424359803 0.009058504340062197 C 0.0042013818825105305 0.009058504340062197 0.00257456690233954 0.010756207519426865 0.0027224591732641756 0.010625614967168044" fill="none" stroke="none" stroke-width="0"/>
<path d="M 0.0027224591732641756 0.010625614967168044 C 0.0026778380134212035 0.010326046495676554 0.002097226652348708 0.0066147252114246175 0.002187005255148511 0.007030793309270156 C 0.002097226652348708 0.0066147252114246175 0.0015999584967097053 0.005516298166667539 0.0016451159396665366 0.005632797793021587" fill="none" stroke="none" stroke-width="0"/>
</g><g transform="translate(0.3373434528286707,0.2708520701497399) rotate(0) scale(1,1) translate(-0.04892744984382835,-0.04892744984382835)"><path d="M 0.05126009061412293 0.04257097680379641 C 0.05153788514836385 0.04313552720093815 0.05227254699112667 0.04777375426881145 0.05226098425471938 0.0470959123969134 C 0.05227254699112667 0.04777375426881145 0.0511210489167695 0.0511470646577974 0.05139884345101042 0.050705079266572944 C 0.0511210489167695 0.0511470646577974 0.048515550909298 0.052399737091606884 0.048927449843828345 0.052399737091606884 C 0.048515550909298 0.052399737091606884 0.046178261702405354 0.05026309387534849 0.046456056236646275 0.050705079266572944 C 0.046178261702405354 0.05026309387534849 0.0456054781693446 0.046418070525015356 0.04559391543293731 0.0470959123969134 C 0.0456054781693446 0.046418070525015356 0.04687260360777468 0.042006426406654675 0.046594809073533756 0.042570976803796415 C 0.04687260360777468 0.042006426406654675 0.04931622330554411 0.040321307631212513 0.048927449843828345 0.040321307631212513 C 0.04931622330554411 0.040321307631212513 0.05153788514836385 0.04313552720093815 0.05126009061412293 0.04257097680379641 Z" fill="#cccccc" stroke="none" stroke-width="0"/>
</g></g>
</svg>
