<?xml version="1.0" encoding="UTF-8"?>
<svg xmlns="http://www.w3.org/2000/svg" viewBox="0 0 1 1">
<g transform="translate(0.32764182991573976,0.2551924256594531) rotate(0) scale(1,1) translate(-0.03532867461186611,-0.031978342044168495)"><path d="M 0.012800796343791455 0.015632039840616688 C 0.01283580027442044 0.015541039397911538 0.013290851372597222 0.014358033642744593 0.013220843511339255 0.014540034528154892 C 0.013290851372597222 0.014358033642744593 0.013675894609516041 0.013357028772987946 0.013640890678887057 0.013448029215693096" fill="none" stroke="#000000" stroke-width="0.001"/>
<path d="M 0.013640890678887057 0.013448029215693096 C 0.014589580925175549 0.01406252212224047 0.026896627424419454 0.022276523241833136 0.02502517363434896 0.0208219440942616 C 0.026896627424419454 0.022276523241833136 0.03702109970351496 0.0317430652275757 0.036098336159732965 0.03090297898655154" fill="none" stroke="#000000" stroke-width="0.001"/>
<path d="M 0.03443330512759992 0.03306846867835523 C 0.03351722966332331 0.03217399930970507 0.021637690490963164 0.020881800518075123 0.023440399556280536 0.022334836254553334 C 0.021637690490963164 0.020881800518075123 0.011914162742750698 0.015073473472788633 0.012800796343791455 0.015632039840616688" fill="none" stroke="#000000" stroke-width="0.001"/>
</g><g transform="translate(0.3470450757416016,0.2551924256594531) rotate(0) scale(1,1) translate(-0.03532867461186611,-0.031978342044168495)"><path d="M 0.05701645854484508 0.013448029215693092 C 0.05705146247547406 0.013539029658398241 0.05750651357365083 0.01472203541356519 0.057436505712392866 0.01454003452815489 C 0.05750651357365083 0.01472203541356519 0.05789155681056963 0.01572304028332184 0.05785655287994065 0.015632039840616688" fill="none" stroke="#000000" stroke-width="0.001"/>
<path d="M 0.05785655287994065 0.015632039840616688 C 0.05696991927889989 0.01619060620844474 0.04541424060213419 0.023787871991031544 0.04721694966745156 0.022334836254553334 C 0.04541424060213419 0.023787871991031544 0.035307968631855584 0.033962938047005384 0.036224044096132196 0.03306846867835522" fill="none" stroke="#000000" stroke-width="0.001"/>
<path d="M 0.03455901306399915 0.03090297898655154 C 0.03548177660778115 0.030062892745527377 0.04750362937945364 0.01936736494669006 0.045632175589383143 0.020821944094261597 C 0.04750362937945364 0.01936736494669006 0.05796514879113357 0.012833536309145717 0.05701645854484508 0.013448029215693092" fill="none" stroke="#000000" stroke-width="0.001"/>
</g><g transform="translate(0.3373434528286706,0.23840427763450495) rotate(0) scale(1,1) translate(-0.1048391138123241,-0.10483911381232405)"><path d="M 0.1073288631544837 0.14446001157912922 C 0.10712138404263707 0.1442770623590897 0.10442415559737614 0.14226462093865472 0.10483911381232412 0.14226462093865472 C 0.10442415559737614 0.14226462093865472 0.10214188547200659 0.14464296079916875 0.10234936457510793 0.14446001157912922" fill="none" stroke="#000000" stroke-width="0.001"/>
<path d="M 0.10234936457510793 0.14446001157912922 C 0.10232956500822454 0.14408595397092536 0.10192220353410526 0.13930103045971073 0.10211176977250733 0.139971320280683 C 0.10192220353410526 0.13930103045971073 0.09984010846555298 0.1359133736637108 0.1000745697142831 0.13641653372746204 C 0.09984010846555298 0.1359133736637108 0.0992335402105345 0.1337264716646853 0.09929823478774594 0.13393339951566813" fill="none" stroke="#000000" stroke-width="0.001"/>
<path d="M 0.09929823478774594 0.13393339951566813 C 0.09919438553994957 0.133618961569551 0.09760287988043628 0.1291939880914692 0.09805204381418944 0.13016014416226254 C 0.09760287988043628 0.1291939880914692 0.09356295289675119 0.12168780854147188 0.09390826758270798 0.12233952666614809" fill="none" stroke="#000000" stroke-width="0.001"/>
<path d="M 0.09390826758270798 0.12233952666614809 C 0.09397871338182626 0.12225024337681056 0.09489463031283944 0.12109153127449108 0.09475361717212724 0.1212681271940979 C 0.09489463031283944 0.12109153127449108 0.0956709926128483 0.12013306300059705 0.09560042527125437 0.12022037563086635" fill="none" stroke="#000000" stroke-width="0.001"/>
<path d="M 0.09560042527125437 0.12022037563086635 C 0.09637031598301019 0.1205039230140881 0.10637889523583577 0.12362294422952744 0.10483911381232414 0.12362294422952744 C 0.10637889523583577 0.12362294422952744 0.11484769306514973 0.1199368282476446 0.11407780235339392 0.12022037563086635" fill="none" stroke="#000000" stroke-width="0.001"/>
<path d="M 0.11407780235339392 0.12022037563086635 C 0.11414836969498784 0.12030768826113565 0.11506562359323325 0.12144472311370473 0.11492461045252104 0.12126812719409792 C 0.11506562359323325 0.12144472311370473 0.11584040584105856 0.12242880995548563 0.11576996004194029 0.12233952666614811" fill="none" stroke="#000000" stroke-width="0.001"/>
<path d="M 0.11576996004194029 0.12233952666614811 C 0.1154246453559835 0.12299124479082432 0.1111770198767057 0.13112630023305588 0.11162618381045886 0.13016014416226254 C 0.1111770198767057 0.13112630023305588 0.11027614358910594 0.13424783746178526 0.11037999283690232 0.13393339951566813" fill="none" stroke="#000000" stroke-width="0.001"/>
<path d="M 0.11037999283690232 0.13393339951566813 C 0.1103152982596909 0.13414032736665096 0.10936919666163508 0.13691969379121327 0.1096036579103652 0.13641653372746204 C 0.10936919666163508 0.13691969379121327 0.10737689162248412 0.14064161010165524 0.10756645785214092 0.139971320280683 C 0.10737689162248412 0.14064161010165524 0.1073090635963456 0.14483406918733308 0.1073288631544837 0.14446001157912922" fill="none" stroke="#000000" stroke-width="0.001"/>
</g><g transform="translate(0.3373434528286707,0.2707518757334454) rotate(0) scale(1,1) translate(-0.005607832739230754,-0.005607832739230756)"><path d="M 0.010372376837271723 0.0048376545554287415 C 0.010235931501989846 0.004986858840448746 0.008485166924607308 0.00682610721357265 0.008735032813889185 0.006628105975668789 C 0.008485166924607308 0.00682610721357265 0.007260565611889187 0.007262466363158923 0.007373986165889187 0.007213669410275066" fill="none" stroke="#000000" stroke-width="0.001"/>
<path d="M 0.007373986165889187 0.007213669410275066 C 0.007226806713667651 0.007223428800851838 0.005313473834787685 0.007330782097196321 0.0056078327392307566 0.007330782097196321 C 0.005313473834787685 0.007330782097196321 0.003694499860350791 0.007203910019698297 0.0038416793125723267 0.007213669410275068" fill="none" stroke="#000000" stroke-width="0.001"/>
<path d="M 0.0038416793125723267 0.007213669410275068 C 0.003728258758572327 0.007164872457391212 0.0022307667752904485 0.006430104737764932 0.002480632664572327 0.006628105975668793 C 0.0022307667752904485 0.006430104737764932 0.000706843305907907 0.004688450270408737 0.0008432886411897855 0.0048376545554287415" fill="none" stroke="#000000" stroke-width="0.001"/>
</g><g id="ライン">
<g transform="translate(0.3373434528286707,0.2577592398935501) rotate(0) scale(1,1) translate(-0.013368228944623991,-0.012221878128614309)"><path d="M 0.003737491988301949 0.007410637222462965 C 0.004540053401328784 0.007763979644488765 0.014973351770677639 0.011650746286772568 0.013368228944623974 0.011650746286772568 C 0.014973351770677639 0.011650746286772568 0.02380152731397276 0.007057294800437165 0.022998965900945932 0.007410637222462965" fill="none" stroke="#000000" stroke-width="0.001"/>
<path d="M 0.022998965900945932 0.007410637222462965 C 0.022989113050721474 0.007473871892972069 0.022861025997803503 0.008295922609590414 0.022880731698252423 0.008169453268572206 C 0.022861025997803503 0.008295922609590414 0.02275264464533445 0.008991503985190552 0.02276249749555891 0.008928269314681448" fill="none" stroke="none" stroke-width="0"/>
<path d="M 0.02276249749555891 0.008928269314681448 C 0.021979641782980997 0.009263491964025757 0.011802517519468148 0.01295094110681315 0.013368228944623972 0.01295094110681315 C 0.011802517519468148 0.01295094110681315 0.003191104681111109 0.00859304666533714 0.003973960393689022 0.008928269314681448" fill="none" stroke="#000000" stroke-width="0.001"/>
<path d="M 0.003973960393689022 0.008928269314681448 C 0.00396410754346456 0.008865034644172345 0.0038360204905465625 0.008042983927553999 0.0038557261909954853 0.008169453268572206 C 0.0038360204905465625 0.008042983927553999 0.0037276391380774874 0.007347402551953861 0.003737491988301949 0.007410637222462965" fill="none" stroke="none" stroke-width="0"/>
</g><g transform="translate(0.32764182991573976,0.2551924256594531) rotate(0) scale(1,1) translate(-0.01342586555605409,-0.013393410033973922)"><path d="M 0.011333464595344778 0.013921202916311555 C 0.011423489873785232 0.013801238742496221 0.012594041846406742 0.012250614534328214 0.012413767936630224 0.012481632830527552 C 0.012594041846406742 0.012250614534328214 0.01358700014399905 0.011037929239535484 0.013496751512662986 0.011148983361919489" fill="none" stroke="#000000" stroke-width="0.001"/>
<path d="M 0.013496751512662986 0.011148983361919489 C 0.013506604362887444 0.011212218032428594 0.013634691415805401 0.012034268749046968 0.013614985715356485 0.011907799408028757 C 0.013634691415805401 0.012034268749046968 0.013743072768274441 0.012729850124647134 0.013733219918049983 0.012666615454138028" fill="none" stroke="none" stroke-width="0"/>
<path d="M 0.013733219918049983 0.012666615454138028 C 0.013692613562579373 0.012717935831003037 0.013164730941461446 0.0133940970219348 0.013245943652402668 0.013282459976518125 C 0.013164730941461446 0.0133940970219348 0.012718061031284722 0.01406657666768979 0.012758667386755334 0.014006259999138123" fill="none" stroke="#000000" stroke-width="0.001"/>
<path d="M 0.012758667386755334 0.014006259999138123 C 0.012699283937113228 0.01400271595402035 0.011927299091765844 0.01395664336748929 0.012046065991050056 0.013963731457724837 C 0.011927299091765844 0.01395664336748929 0.011274081145702672 0.013917658871193781 0.011333464595344778 0.013921202916311555" fill="none" stroke="none" stroke-width="0"/>
</g><g transform="translate(0.3470450757416016,0.2551924256594531) rotate(0) scale(1,1) translate(-0.01342586555605409,-0.013393410033973922)"><path d="M 0.015518266516763395 0.013921202916311555 C 0.015458883067121289 0.013924746961429329 0.014686898221773909 0.013970819547960384 0.014805665121058121 0.013963731457724837 C 0.014686898221773909 0.013970819547960384 0.01403368027571074 0.014009804044255895 0.014093063725352847 0.014006259999138121" fill="none" stroke="none" stroke-width="0"/>
<path d="M 0.014093063725352847 0.014006259999138121 C 0.014052457369882233 0.013945943330586455 0.013524574748764265 0.013170822931101448 0.01360578745970549 0.013282459976518123 C 0.013524574748764265 0.013170822931101448 0.01307790483858753 0.01261529507727302 0.013118511194058142 0.012666615454138028" fill="none" stroke="#000000" stroke-width="0.001"/>
<path d="M 0.013118511194058142 0.012666615454138028 C 0.013128364044282602 0.012603380783628923 0.013256451097200583 0.011781330067010544 0.013236745396751664 0.011907799408028757 C 0.013256451097200583 0.011781330067010544 0.013364832449669645 0.011085748691410382 0.013354979599445186 0.011148983361919487" fill="none" stroke="none" stroke-width="0"/>
<path d="M 0.013354979599445186 0.011148983361919487 C 0.01344522823078125 0.011260037484303492 0.014618237085254481 0.01271265112672689 0.014437963175477964 0.01248163283052755 C 0.014618237085254481 0.01271265112672689 0.015608291795203847 0.014041167090126889 0.015518266516763395 0.013921202916311555" fill="none" stroke="#000000" stroke-width="0.001"/>
</g><g transform="translate(0.33265830899950033,0.2623524278764252) rotate(0) scale(1,1) translate(-0.011690181759371858,-0.013368228944623991)"><path d="M 0.006006504506312507 0.006821076692816149 C 0.006370724205736993 0.007462483841187958 0.010844163981862397 0.015699330957844072 0.010377140899406345 0.014517962473277852 C 0.010844163981862397 0.015699330957844072 0.011713584878816704 0.021537459843805208 0.011610781495785137 0.020997498507610797" fill="none" stroke="#000000" stroke-width="0.001"/>
<path d="M 0.011610781495785137 0.020997498507610797 C 0.011440469270622533 0.020513943500722245 0.008981244812093626 0.014006381850146412 0.009567034793833891 0.01519483842494818 C 0.008981244812093626 0.014006381850146412 0.00416582395832429 0.006031118042076366 0.004581301714901951 0.0067360196099895825" fill="none" stroke="#000000" stroke-width="0.001"/>
<path d="M 0.004581301714901951 0.0067360196099895825 C 0.0046406851645440575 0.006739563655107356 0.005412670009891442 0.006785636241638412 0.005293903110607229 0.006778548151402865 C 0.005412670009891442 0.006785636241638412 0.006065887955954613 0.006824620737933922 0.006006504506312507 0.006821076692816149" fill="none" stroke="none" stroke-width="0"/>
</g><g transform="translate(0.342028596657841,0.2623524278764252) rotate(0) scale(1,1) translate(-0.011690181759371858,-0.013368228944623991)"><path d="M 0.017373859012431193 0.006821076692816148 C 0.0174332424620733 0.006817532647698374 0.01820522730742071 0.006771460061167318 0.018086460408136495 0.006778548151402865 C 0.01820522730742071 0.006771460061167318 0.018858445253483905 0.006732475564871809 0.018799061803841798 0.0067360196099895825" fill="none" stroke="none" stroke-width="0"/>
<path d="M 0.018799061803841798 0.0067360196099895825 C 0.01838358404726413 0.007440921177902799 0.013227538743169549 0.01638329499974995 0.013813328724909812 0.01519483842494818 C 0.013227538743169549 0.01638329499974995 0.011599269797796038 0.02148105351449935 0.011769582022958636 0.020997498507610797" fill="none" stroke="#000000" stroke-width="0.001"/>
<path d="M 0.011769582022958636 0.020997498507610797 C 0.011872385405990199 0.020457537171416386 0.013470245701793442 0.01333659398871163 0.013003222619337396 0.014517962473277852 C 0.013470245701793442 0.01333659398871163 0.017738078711855676 0.006179669544444339 0.017373859012431193 0.006821076692816148" fill="none" stroke="#000000" stroke-width="0.001"/>
</g><g transform="translate(0.33595618654396675,0.27470630999385237) rotate(0) scale(1,1) translate(-0.004497166424359802,-0.004497166424359803)"><path d="M 0.002076135375392938 0.0007036612529130876 C 0.0021503151916203926 0.0007775372091197388 0.0030949905821001855 0.0016933045083291764 0.0029662931701223945 0.0015901727273929028 C 0.0030949905821001855 0.0016933045083291764 0.003675021914876767 0.0019704984488779914 0.0036205043191264307 0.0019412426241483694" fill="none" stroke="none" stroke-width="0"/>
<path d="M 0.0036205043191264307 0.0019412426241483694 C 0.0036680909064854433 0.002093608633885105 0.004248751587025237 0.004167332498846127 0.00419154336743458 0.0037696347409891936 C 0.004248751587025237 0.004167332498846127 0.004316624586445955 0.006958947466551771 0.004307002954214311 0.006713615718431573" fill="none" stroke="#000000" stroke-width="0.001"/>
<path d="M 0.004307002954214311 0.006713615718431573 C 0.004252119192607267 0.006776119252692169 0.003572371178743814 0.007555526129815489 0.0036483978149297923 0.007463658129558721 C 0.003572371178743814 0.007555526129815489 0.0033735404454036336 0.007845396187508962 0.003394683319982569 0.00781603172151279" fill="none" stroke="#000000" stroke-width="0.001"/>
<path d="M 0.003394683319982569 0.00781603172151279 C 0.003382061540796481 0.007482300794058011 0.0031333429743670435 0.0032185630530054653 0.0032432219697495126 0.0038112605920554406 C 0.0031333429743670435 0.0032185630530054653 0.001978878159196557 0.00044469464131789195 0.002076135375392938 0.000703661252913088" fill="none" stroke="#000000" stroke-width="0.001"/>
</g><g transform="translate(0.3387307191133745,0.27470630999385237) rotate(0) scale(1,1) translate(-0.004497166424359802,-0.004497166424359803)"><path d="M 0.006918197473326726 0.000703661252913088 C 0.006820940257130342 0.000962627864508284 0.005641231883587654 0.004403958131105416 0.005751110878970123 0.0038112605920554406 C 0.005641231883587654 0.004403958131105416 0.0055870277495510086 0.008149762648967569 0.005599649528737094 0.00781603172151279" fill="none" stroke="#000000" stroke-width="0.001"/>
<path d="M 0.005599649528737094 0.00781603172151279 C 0.005578506654158155 0.007786667255516617 0.005269908397603847 0.007371790129301953 0.005345935033789828 0.007463658129558721 C 0.005269908397603847 0.007371790129301953 0.0046324461328982785 0.006651112184170977 0.004687329894505321 0.006713615718431573" fill="none" stroke="#000000" stroke-width="0.001"/>
<path d="M 0.004687329894505321 0.006713615718431573 C 0.004696951526736964 0.006468283970311375 0.0048599977008757 0.00337193698313226 0.004802789481285041 0.0037696347409891936 C 0.0048599977008757 0.00337193698313226 0.005421415116952243 0.001788876614411634 0.0053738285295932275 0.0019412426241483694" fill="none" stroke="#000000" stroke-width="0.001"/>
<path d="M 0.0053738285295932275 0.0019412426241483694 C 0.00542834612534356 0.0019119867994187472 0.006156737090575011 0.0014870409464566292 0.006028039678597219 0.0015901727273929028 C 0.006156737090575011 0.0014870409464566292 0.006992377289554185 0.0006297852967064363 0.006918197473326726 0.0007036612529130876" fill="none" stroke="none" stroke-width="0"/>
</g></g>
<g id="結び紐左">
<g transform="translate(0.305533998815213,0.2377541181434395) rotate(0) scale(1,1) translate(-0.004599968736372043,-0.01602013802246163)"><path d="M 0.0055430219110076204 0.016237859003024966 C 0.005301109710381692 0.017285695863731163 0.0023519317636632397 0.030897319863998154 0.00264007550349648 0.028811901331499343 C 0.0023519317636632397 0.030897319863998154 0.0020390654938014213 0.042300463064803326 0.0020852970330087336 0.04126288139301071" fill="none" stroke="#000000" stroke-width="0.001"/>
<path d="M 0.0020852970330087336 0.04126288139301071 C 0.002006709268455769 0.04124473797796376 0.0009850683292672285 0.04100887358235346 0.001142243858373158 0.04104516041244735 C 0.0009850683292672285 0.04100887358235346 0.00012060291918461392 0.04080929601683708 0.00019919068373757884 0.04082743943188403" fill="none" stroke="#000000" stroke-width="0.001"/>
<path d="M 0.00019919068373757884 0.04082743943188403 C 0.000245422222944891 0.03978985776009142 0.001042112894058565 0.026291040837873866 0.0007539691542253245 0.028376459370372677 C 0.001042112894058565 0.026291040837873866 0.0038988277623623934 0.014754580181192094 0.003656915561736465 0.015802417041898293" fill="none" stroke="#000000" stroke-width="0.001"/>
<path d="M 0.003656915561736465 0.015802417041898293 C 0.0037355033262894298 0.015820560456945236 0.0047571442654779725 0.01605642485255552 0.004599968736372043 0.01602013802246163 C 0.0047571442654779725 0.01605642485255552 0.005621609675560587 0.016256002418071902 0.005543021911007622 0.01623785900302496" fill="none" stroke="none" stroke-width="0"/>
</g><g transform="translate(0.305533998815213,0.2377541181434395) rotate(0) scale(1,1) translate(-0.004599968736372043,-0.01602013802246163)"><path d="M 0.005484152246457256 0.016413801884228356 C 0.005046747955605337 0.01739622800654526 -0.0004849283192868485 0.030159666428023323 0.0002353007562342288 0.02820291535203122 C -0.0004849283192868485 0.030159666428023323 -0.00344142144446483 0.0408691397498088 -0.0031585966597956717 0.0398948147961336" fill="none" stroke="#000000" stroke-width="0.001"/>
<path d="M -0.0031585966597956717 0.0398948147961336 C -0.0032322786189694394 0.039862009474319705 -0.004190144088228421 0.03943554029073907 -0.004042780169880885 0.03950115093436686 C -0.004190144088228421 0.03943554029073907 -0.00500064563913987 0.03907468175078625 -0.004926963679966102 0.039107487072600144" fill="none" stroke="#000000" stroke-width="0.001"/>
<path d="M -0.004926963679966102 0.039107487072600144 C -0.004644138895296943 0.038133162118924945 -0.0008128371884151231 0.02545883655250566 -0.0015330662639362006 0.027415587628497766 C -0.0008128371884151231 0.02545883655250566 0.004153189517138748 0.014644048038377998 0.0037157852262868288 0.015626474160694903" fill="none" stroke="#000000" stroke-width="0.001"/>
<path d="M 0.0037157852262868288 0.015626474160694903 C 0.0037894671854605965 0.0156592794825088 0.004747332654719578 0.016085748666089417 0.004599968736372043 0.01602013802246163 C 0.004747332654719578 0.016085748666089417 0.0055578342056310254 0.01644660720604224 0.005484152246457257 0.01641380188422835" fill="none" stroke="none" stroke-width="0"/>
</g><g id="輪1">
<g transform="translate(0.305533998815213,0.2377541181434395) rotate(0) scale(1,1) translate(-0.004599968736372043,-0.01602013802246163)"><path d="M 0.003745399655715873 0.015565755582270462 C 0.003816613745770556 0.015603620785619726 0.004742396916481433 0.01609586842916017 0.004599968736372067 0.01602013802246164 C 0.004742396916481433 0.01609586842916017 0.005525751907082946 0.016512385666002084 0.0054545378170282625 0.01647452046265282" fill="none" stroke="none" stroke-width="0"/>
<path d="M 0.0054545378170282625 0.01647452046265282 C 0.004864683700630998 0.01707848291190234 -0.002180102399990021 0.024914953286749687 -0.0016237115797389052 0.02372206985364709 C -0.002180102399990021 0.024914953286749687 -0.001188688729838977 0.031378042643737065 -0.0012221520259851253 0.03078912165988399" fill="none" stroke="#000000" stroke-width="0.001"/>
<path d="M -0.0012221520259851253 0.03078912165988399 C -0.0012933661160398078 0.030751256456534724 -0.0022191492867506797 0.030259008812994276 -0.002076721106641314 0.030334739219692805 C -0.0022191492867506797 0.030259008812994276 -0.0030025042773522 0.029842491576152368 -0.0029312901872975165 0.029880356779501634" fill="none" stroke="none" stroke-width="0"/>
<path d="M -0.0029312901872975165 0.029880356779501634 C -0.0029647534834436645 0.02929143579564856 -0.002776458920800178 0.02162042154016213 -0.003332849741051294 0.02281330497326473 C -0.002776458920800178 0.02162042154016213 0.004335253772113133 0.014961793133020942 0.0037453996557158696 0.015565755582270465" fill="none" stroke="#000000" stroke-width="0.001"/>
</g><g transform="translate(0.305533998815213,0.2377541181434395) rotate(0) scale(1,1) translate(-0.004599968736372043,-0.016020138022461605)"><path d="M 0.005454537817028236 0.01647452046265279 C 0.005389717608913272 0.017330932212274944 0.004120304499397551 0.027944344891221246 0.004676695319648667 0.026751461458118648 C 0.004120304499397551 0.027944344891221246 -0.0017137226381213047 0.031125593343364406 -0.001222152025985153 0.030789121659883963" fill="none" stroke="#000000" stroke-width="0.001"/>
<path d="M -0.001222152025985153 0.030789121659883963 C -0.0012933661160398353 0.030751256456534697 -0.0022191492867507045 0.03025900881299424 -0.002076721106641339 0.03033473921969277 C -0.0022191492867507045 0.03025900881299424 -0.0030025042773522224 0.029842491576152333 -0.002931290187297539 0.0298803567795016" fill="none" stroke="#000000" stroke-width="0.001"/>
<path d="M -0.002931290187297539 0.0298803567795016 C -0.0024397195751613876 0.029543885096021155 0.003523947978587393 0.02464981314463369 0.0029675571583362773 0.025842696577736288 C 0.003523947978587393 0.02464981314463369 0.0038102198638308117 0.014709343832648271 0.0037453996557158475 0.015565755582270427" fill="none" stroke="#000000" stroke-width="0.001"/>
<path d="M 0.0037453996557158475 0.015565755582270427 C 0.0038166137457705303 0.015603620785619691 0.004742396916481408 0.016095868429160134 0.004599968736372043 0.016020138022461605 C 0.004742396916481408 0.016095868429160134 0.005525751907082924 0.016512385666002053 0.005454537817028241 0.016474520462652787" fill="none" stroke="none" stroke-width="0"/>
</g></g>
<g id="輪2">
<g transform="translate(0.305533998815213,0.2377541181434395) rotate(0) scale(1,1) translate(-0.004599968736372043,-0.01602013802246163)"><path d="M 0.003990875113639254 0.015267970039685268 C 0.004041632915533654 0.015330650704916633 0.00470148434016086 0.016145499352924378 0.004599968736372059 0.016020138022461647 C 0.00470148434016086 0.016145499352924378 0.005259820160999269 0.01683498667046939 0.005209062359104868 0.016772306005238026" fill="none" stroke="none" stroke-width="0"/>
<path d="M 0.005209062359104868 0.016772306005238026 C 0.0044465379125518565 0.01718390839834035 -0.004786995348342286 0.022649703633034025 -0.0039412309995312655 0.021711534722465946 C -0.004786995348342286 0.022649703633034025 -0.005023349728885383 0.028556899449520737 -0.004940109826627374 0.028030332932054983" fill="none" stroke="#000000" stroke-width="0.001"/>
<path d="M -0.004940109826627374 0.028030332932054983 C -0.004990867628521774 0.027967652266823618 -0.0056507190531489785 0.027152803618815877 -0.005549203449360177 0.027278164949278608 C -0.0056507190531489785 0.027152803618815877 -0.0062090548739874 0.026463316301270867 -0.006158297072092998 0.026525996966502232" fill="none" stroke="none" stroke-width="0"/>
<path d="M -0.006158297072092998 0.026525996966502232 C -0.006075057169834989 0.02599943044903648 -0.004313653896185866 0.01926902984634511 -0.005159418244996886 0.020207198756913188 C -0.004313653896185866 0.01926902984634511 0.004753399560192261 0.014856367646582946 0.0039908751136392496 0.015267970039685271" fill="none" stroke="#000000" stroke-width="0.001"/>
</g><g transform="translate(0.305533998815213,0.2377541181434395) rotate(0) scale(1,1) translate(-0.004599968736372043,-0.016020138022461605)"><path d="M 0.005209062359104849 0.016772306005237984 C 0.004870553094459832 0.01751000586960518 0.00030118683455362374 0.02656287328821241 0.001146951183364644 0.02562470437764433 C 0.00030118683455362374 0.02656287328821241 -0.005447364910793398 0.02823080197825583 -0.004940109826627395 0.028030332932054945" fill="none" stroke="#000000" stroke-width="0.001"/>
<path d="M -0.004940109826627395 0.028030332932054945 C -0.004990867628521795 0.02796765226682358 -0.005650719053148995 0.027152803618815828 -0.005549203449360194 0.02727816494927856 C -0.005650719053148995 0.027152803618815828 -0.006209054873987408 0.02646331630127081 -0.006158297072093007 0.026525996966502177" fill="none" stroke="#000000" stroke-width="0.001"/>
<path d="M -0.006158297072093007 0.026525996966502177 C -0.005651041987927004 0.026325527920301295 0.0007745282867100458 0.023182199501523497 -7.123606210097423E-05 0.024120368412091576 C 0.0007745282867100458 0.023182199501523497 0.0043293843782842515 0.014530270175318029 0.003990875113639234 0.015267970039685224" fill="none" stroke="#000000" stroke-width="0.001"/>
<path d="M 0.003990875113639234 0.015267970039685224 C 0.004041632915533635 0.01533065070491659 0.0047014843401608445 0.016145499352924336 0.004599968736372043 0.016020138022461605 C 0.0047014843401608445 0.016145499352924336 0.005259820160999254 0.016834986670469346 0.005209062359104853 0.01677230600523798" fill="none" stroke="none" stroke-width="0"/>
</g></g>
<g transform="translate(0.305533998815213,0.2377541181434395) rotate(0) scale(1,1) translate(-0.014814031015816116,-0.014814031015816118)"><path d="M 0.015153798899358311 0.013500832149353614 C 0.015227664013131479 0.013570281829694686 0.016082781047525273 0.014534354054845445 0.016040180264636328 0.01433422831344648 C 0.016082781047525273 0.014534354054845445 0.01563374396314144 0.016033017107199083 0.015665008294025663 0.015902341046141192" fill="none" stroke="#000000" stroke-width="0.001"/>
<path d="M 0.015665008294025663 0.015902341046141192 C 0.015605816225562818 0.01587661652794829 0.014774725568927774 0.015585665680622578 0.014954703472471537 0.01559364682782637 C 0.014774725568927774 0.015585665680622578 0.01338448761641957 0.015824310650684802 0.013505273451500491 0.01580656727969569" fill="none" stroke="#000000" stroke-width="0.001"/>
<path d="M 0.013505273451500491 0.01580656727969569 C 0.013500966622050116 0.015761586665126885 0.013448099146689195 0.015176162952954557 0.013453591498095987 0.015266799904870045 C 0.013448099146689195 0.015176162952954557 0.013438179712662571 0.01467326751936316 0.013439365234618987 0.014718923856709844" fill="none" stroke="#000000" stroke-width="0.001"/>
<path d="M 0.013439365234618987 0.014718923856709844 C 0.013486106836379724 0.014646364440519226 0.01414313392780944 0.013746703220142736 0.01400026445574783 0.013848210862422421 C 0.01414313392780944 0.013746703220142736 0.015249926769659184 0.013471883923264547 0.015153798899358311 0.013500832149353614" fill="none" stroke="#000000" stroke-width="0.001"/>
</g></g>
<g id="結び紐右">
<g transform="translate(0.36915290684212837,0.2377541181434395) rotate(0) scale(1,1) translate(-0.004599968736372043,-0.01602013802246163)"><path d="M 0.003656915561736418 0.01623785900302496 C 0.0037355033262893855 0.016219715587978016 0.004757144265477964 0.01598385119236774 0.004599968736372029 0.01602013802246163 C 0.004757144265477964 0.01598385119236774 0.005621609675560607 0.01578427362685135 0.0055430219110076395 0.015802417041898293" fill="none" stroke="none" stroke-width="0"/>
<path d="M 0.0055430219110076395 0.015802417041898293 C 0.005784934111633565 0.01685025390260449 0.008734112058351978 0.030461877902871488 0.008445968318518737 0.028376459370372677 C 0.008734112058351978 0.030461877902871488 0.009046978328213847 0.04186502110367664 0.00900074678900653 0.04082743943188403" fill="none" stroke="#000000" stroke-width="0.001"/>
<path d="M 0.00900074678900653 0.04082743943188403 C 0.008922159024453563 0.040845582846930975 0.007900518085264985 0.041081447242541244 0.00805769361437092 0.04104516041244735 C 0.007900518085264985 0.041081447242541244 0.0070360526751823416 0.041281024808057655 0.007114640439735309 0.04126288139301071" fill="none" stroke="#000000" stroke-width="0.001"/>
<path d="M 0.007114640439735309 0.04126288139301071 C 0.007068408900528002 0.04022529972121809 0.006271718229414386 0.02672648279900053 0.006559861969247627 0.028811901331499343 C 0.006271718229414386 0.02672648279900053 0.0034150033611104838 0.015190022142318769 0.003656915561736418 0.016237859003024966" fill="none" stroke="#000000" stroke-width="0.001"/>
</g><g transform="translate(0.36915290684212837,0.2377541181434395) rotate(0) scale(1,1) translate(-0.004599968736372043,-0.01602013802246163)"><path d="M 0.003715785226286794 0.01641380188422835 C 0.0037894671854605635 0.016380996562414457 0.0047473326547195676 0.015954527378833842 0.004599968736372029 0.01602013802246163 C 0.0047473326547195676 0.015954527378833842 0.005557834205631033 0.01559366883888101 0.005484152246457263 0.015626474160694903" fill="none" stroke="none" stroke-width="0"/>
<path d="M 0.005484152246457263 0.015626474160694903 C 0.005921556537309173 0.016608900283011808 0.01145323281220125 0.02937233870448987 0.01073300373668018 0.027415587628497766 C 0.01145323281220125 0.02937233870448987 0.01440972593737925 0.040081812026275344 0.014126901152710092 0.039107487072600144" fill="none" stroke="#000000" stroke-width="0.001"/>
<path d="M 0.014126901152710092 0.039107487072600144 C 0.014053219193536323 0.039140292394414036 0.013095353724277317 0.03956676157799465 0.013242717642624857 0.03950115093436686 C 0.013095353724277317 0.03956676157799465 0.012284852173365854 0.03992762011794749 0.012358534132539623 0.0398948147961336" fill="none" stroke="#000000" stroke-width="0.001"/>
<path d="M 0.012358534132539623 0.0398948147961336 C 0.012075709347870472 0.0389204898424584 0.008244407640988752 0.026246164276039114 0.008964636716509822 0.02820291535203122 C 0.008244407640988752 0.026246164276039114 0.003278380935434875 0.015431375761911451 0.003715785226286794 0.016413801884228356" fill="none" stroke="#000000" stroke-width="0.001"/>
</g><g id="輪1">
<g transform="translate(0.36915290684212837,0.2377541181434395) rotate(0) scale(1,1) translate(-0.004599968736372043,-0.01602013802246163)"><path d="M 0.005454537817028204 0.015565755582270465 C 0.006044391933425458 0.016169718031519988 0.013089178034046365 0.024006188406367326 0.012532787213795249 0.02281330497326473 C 0.013089178034046365 0.024006188406367326 0.012097764363895461 0.03046927776335471 0.0121312276600416 0.029880356779501634" fill="none" stroke="#000000" stroke-width="0.001"/>
<path d="M 0.0121312276600416 0.029880356779501634 C 0.012060013569986908 0.0299182219828509 0.01113423039927595 0.030410469626391334 0.011276658579385312 0.030334739219692805 C 0.01113423039927595 0.030410469626391334 0.010350875408674576 0.030826986863233256 0.010422089498729248 0.03078912165988399" fill="none" stroke="none" stroke-width="0"/>
<path d="M 0.010422089498729248 0.03078912165988399 C 0.010455552794875386 0.030200200676030915 0.010267258232231772 0.02252918642054449 0.010823649052482898 0.02372206985364709 C 0.010267258232231772 0.02252918642054449 0.0031555455393184792 0.015870558013403296 0.003745399655715742 0.01647452046265282" fill="none" stroke="#000000" stroke-width="0.001"/>
<path d="M 0.003745399655715742 0.01647452046265282 C 0.0038166137457704328 0.016436655259303552 0.004742396916481401 0.01594440761576311 0.004599968736372029 0.01602013802246164 C 0.004742396916481401 0.01594440761576311 0.005525751907082886 0.015527890378921197 0.005454537817028204 0.015565755582270462" fill="none" stroke="none" stroke-width="0"/>
</g><g transform="translate(0.36915290684212837,0.2377541181434395) rotate(0) scale(1,1) translate(-0.004599968736372043,-0.016020138022461605)"><path d="M 0.003745399655715853 0.016474520462652787 C 0.0038166137457705343 0.01643665525930352 0.004742396916481391 0.015944407615763077 0.004599968736372029 0.016020138022461605 C 0.004742396916481391 0.015944407615763077 0.005525751907082886 0.015527890378921163 0.005454537817028204 0.015565755582270427" fill="none" stroke="none" stroke-width="0"/>
<path d="M 0.005454537817028204 0.015565755582270427 C 0.005519358025143167 0.01642216733189258 0.006788771134658876 0.027035580010838885 0.006232380314407759 0.025842696577736288 C 0.006788771134658876 0.027035580010838885 0.012622798272177752 0.030216828462982043 0.0121312276600416 0.0298803567795016" fill="none" stroke="#000000" stroke-width="0.001"/>
<path d="M 0.0121312276600416 0.0298803567795016 C 0.012060013569986908 0.029918221982850865 0.01113423039927595 0.030410469626391302 0.011276658579385312 0.03033473921969277 C 0.01113423039927595 0.030410469626391302 0.010350875408674576 0.03082698686323323 0.010422089498729248 0.030789121659883963" fill="none" stroke="#000000" stroke-width="0.001"/>
<path d="M 0.010422089498729248 0.030789121659883963 C 0.009930518886593095 0.03045264997640352 0.003966851332844292 0.02555857802501605 0.004523242153095408 0.026751461458118648 C 0.003966851332844292 0.02555857802501605 0.00368057944760089 0.015618108713030637 0.003745399655715853 0.01647452046265279" fill="none" stroke="#000000" stroke-width="0.001"/>
</g></g>
<g id="輪2">
<g transform="translate(0.36915290684212837,0.2377541181434395) rotate(0) scale(1,1) translate(-0.004599968736372043,-0.01602013802246163)"><path d="M 0.005209062359104788 0.015267970039685271 C 0.00597158680565781 0.015679572432787597 0.015205120066552077 0.021145367667481266 0.014359355717741051 0.020207198756913188 C 0.015205120066552077 0.021145367667481266 0.015441474447095094 0.027052563483967985 0.01535823454483709 0.026525996966502232" fill="none" stroke="#000000" stroke-width="0.001"/>
<path d="M 0.01535823454483709 0.026525996966502232 C 0.015307476742942694 0.026588677631733598 0.014647625318315519 0.02740352627974134 0.014749140922104331 0.027278164949278608 C 0.014647625318315519 0.02740352627974134 0.014089289497476934 0.02809301359728635 0.01414004729937135 0.028030332932054983" fill="none" stroke="none" stroke-width="0"/>
<path d="M 0.01414004729937135 0.028030332932054983 C 0.014056807397113347 0.02750376641458923 0.012295404123464295 0.020773365811897867 0.01314116847227531 0.021711534722465946 C 0.012295404123464295 0.020773365811897867 0.003228350667086146 0.0163607036121357 0.0039908751136391585 0.016772306005238026" fill="none" stroke="#000000" stroke-width="0.001"/>
<path d="M 0.0039908751136391585 0.016772306005238026 C 0.004041632915533565 0.01670962534000666 0.0047014843401608315 0.015894776691998916 0.004599968736372029 0.016020138022461647 C 0.0047014843401608315 0.015894776691998916 0.005259820160999185 0.015205289374453902 0.005209062359104788 0.015267970039685268" fill="none" stroke="none" stroke-width="0"/>
</g><g transform="translate(0.36915290684212837,0.2377541181434395) rotate(0) scale(1,1) translate(-0.004599968736372043,-0.016020138022461605)"><path d="M 0.0039908751136391585 0.01677230600523798 C 0.004041632915533565 0.016709625340006615 0.0047014843401608315 0.015894776691998874 0.004599968736372029 0.016020138022461605 C 0.0047014843401608315 0.015894776691998874 0.005259820160999185 0.015205289374453859 0.005209062359104788 0.015267970039685224" fill="none" stroke="none" stroke-width="0"/>
<path d="M 0.005209062359104788 0.015267970039685224 C 0.005547571623749803 0.01600566990405242 0.010116937883655993 0.025058537322659655 0.009271173534844968 0.024120368412091576 C 0.010116937883655993 0.025058537322659655 0.0158654896290031 0.026726466012703058 0.01535823454483709 0.026525996966502177" fill="none" stroke="#000000" stroke-width="0.001"/>
<path d="M 0.01535823454483709 0.026525996966502177 C 0.015307476742942694 0.026588677631733542 0.014647625318315519 0.02740352627974129 0.014749140922104331 0.02727816494927856 C 0.014647625318315519 0.02740352627974129 0.014089289497476934 0.02809301359728631 0.01414004729937135 0.028030332932054945" fill="none" stroke="#000000" stroke-width="0.001"/>
<path d="M 0.01414004729937135 0.028030332932054945 C 0.013632792215205358 0.02782986388585406 0.007207221940568433 0.02468653546707625 0.008052986289379449 0.02562470437764433 C 0.007207221940568433 0.02468653546707625 0.0036523658489941344 0.016034606140870787 0.0039908751136391585 0.016772306005237984" fill="none" stroke="#000000" stroke-width="0.001"/>
</g></g>
<g transform="translate(0.36915290684212837,0.2377541181434395) rotate(0) scale(1,1) translate(-0.014814031015816116,-0.014814031015816118)"><path d="M 0.014474263132273957 0.013500832149353614 C 0.014570391002574826 0.01352978037544268 0.015770667047946007 0.013949718504702106 0.015627797575884395 0.013848210862422421 C 0.015770667047946007 0.013949718504702106 0.016235438398774032 0.014791483272900462 0.01618869679701329 0.014718923856709844" fill="none" stroke="#000000" stroke-width="0.001"/>
<path d="M 0.01618869679701329 0.014718923856709844 C 0.01618751127505687 0.014764580194056527 0.01616897818212947 0.015357436856785532 0.016174470533536267 0.015266799904870045 C 0.01616897818212947 0.015357436856785532 0.01611848175068134 0.015851547894264496 0.01612278858013172 0.01580656727969569" fill="none" stroke="#000000" stroke-width="0.001"/>
<path d="M 0.01612278858013172 0.01580656727969569 C 0.016002002745050804 0.01578882390870658 0.014493380655616986 0.01560162797503016 0.014673358559160743 0.01559364682782637 C 0.014493380655616986 0.01560162797503016 0.013903861669143805 0.015928065564334095 0.013963053737606645 0.015902341046141192" fill="none" stroke="#000000" stroke-width="0.001"/>
<path d="M 0.013963053737606645 0.015902341046141192 C 0.013931789406722414 0.0157716649850833 0.013630482549884823 0.014134102572047514 0.01358788176699588 0.01433422831344648 C 0.013630482549884823 0.014134102572047514 0.01454812824604713 0.013431382469012541 0.014474263132273957 0.013500832149353614" fill="none" stroke="#000000" stroke-width="0.001"/>
</g></g>
<g id="ヴィオラ">
<g transform="translate(0.3192412770504078,0.2469800524796354) rotate(0) scale(1,1) translate(-0.03532867461186611,-0.03176013778032352)"><path d="M 0.024734686031463848 0.014719171376541763 C 0.025208921535887913 0.015333630920729754 0.03142941147072779 0.02352129400073046 0.030425512084552613 0.022092685906797666 C 0.03142941147072779 0.02352129400073046 0.03731114254731702 0.032676617053480066 0.03678147866556591 0.03186246850373527" fill="none" stroke="#000000" stroke-width="0.001"/>
<path d="M 0.03678147866556591 0.03186246850373527 C 0.036731170940727406 0.031952584269562226 0.036025197557627564 0.03306080664422668 0.036177785967503914 0.032943857693658776 C 0.036025197557627564 0.03306080664422668 0.03484813706201187 0.03329268909529099 0.03495041774704972 0.03326585591055005" fill="none" stroke="#000000" stroke-width="0.001"/>
<path d="M 0.03495041774704972 0.03326585591055005 C 0.03442974960352625 0.032439618494194696 0.02775018239199151 0.02198431427340141 0.02870240002476809 0.02335100691428577 C 0.02775018239199151 0.02198431427340141 0.02309225666447767 0.01632508899540875 0.02352380615373078 0.01686554421993775" fill="none" stroke="#000000" stroke-width="0.001"/>
<path d="M 0.02352380615373078 0.01686554421993775 C 0.023574259481969655 0.016776112018129584 0.024230152749075064 0.015613493394623423 0.02412924609259731 0.015792357798239755 C 0.024230152749075064 0.015613493394623423 0.024785139359702713 0.014629739174733595 0.024734686031463837 0.014719171376541761" fill="none" stroke="#000000" stroke-width="0.001"/>
</g><g transform="translate(0.3554456286069335,0.2469800524796354) rotate(0) scale(1,1) translate(-0.03532867461186611,-0.03176013778032352)"><path d="M 0.04592266319226823 0.014719171376541761 C 0.04597311652050712 0.014808603578349927 0.046629009787612634 0.015971222201856088 0.04652810313113487 0.015792357798239755 C 0.046629009787612634 0.015971222201856088 0.04718399639824027 0.01695497642174592 0.047133543070001394 0.01686554421993775" fill="none" stroke="#000000" stroke-width="0.001"/>
<path d="M 0.047133543070001394 0.01686554421993775 C 0.04670199358074828 0.017405999444466753 0.041002731566187445 0.024717699555170128 0.04195494919896403 0.02335100691428577 C 0.041002731566187445 0.024717699555170128 0.035186263333158885 0.0340920933269054 0.03570693147668236 0.03326585591055005" fill="none" stroke="#000000" stroke-width="0.001"/>
<path d="M 0.03570693147668236 0.03326585591055005 C 0.035604650791644515 0.03323902272580911 0.03432697484635191 0.032826908743090875 0.03447956325622825 0.032943857693658776 C 0.03432697484635191 0.032826908743090875 0.03382556283332771 0.03177235273790831 0.03387587055816621 0.03186246850373527" fill="none" stroke="#000000" stroke-width="0.001"/>
<path d="M 0.03387587055816621 0.03186246850373527 C 0.03440553443991732 0.031048319953990468 0.04123573652535472 0.020664077812864872 0.04023183713917955 0.022092685906797666 C 0.04123573652535472 0.020664077812864872 0.046396898696692286 0.014104711832353772 0.04592266319226823 0.014719171376541763" fill="none" stroke="#000000" stroke-width="0.001"/>
</g><g transform="translate(0.3192412770504078,0.2469800524796354) rotate(0) scale(1,1) translate(-0.02205677125180655,-0.022057501822844293)"><path d="M 0.022800627898434803 0.02149686018004142 C 0.02287304748931344 0.021616831461095967 0.022812808694217118 0.022619963557362233 0.022863217120392496 0.02249700868777014 C 0.022812808694217118 0.022619963557362233 0.022066534908062405 0.022982413179969644 0.022195726784330256 0.022972318615146557 C 0.022066534908062405 0.022982413179969644 0.02123413115508583 0.022505283160878166 0.021312914605178302 0.022618143465647174 C 0.02123413115508583 0.022505283160878166 0.021307097668609817 0.021487929112040813 0.021250325383220605 0.021617994957918447 C 0.021307097668609817 0.021487929112040813 0.022123373906116704 0.021047258750292487 0.021994182029848854 0.021057353315115573 C 0.022123373906116704 0.021047258750292487 0.02287304748931344 0.021616831461095967 0.022800627898434803 0.02149686018004142 Z" fill="#cccccc" stroke="#000000" stroke-width="0.001"/>
</g><g transform="translate(0.35544562860693346,0.24698005247963542) rotate(0) scale(1,1) translate(-0.02205677125180655,-0.022056771251806547)"><path d="M 0.022119360473764192 0.021056622744077828 C 0.022248552350032046 0.021066717308900914 0.022919989405781615 0.021747330232758332 0.022863217120392406 0.021617264386880698 C 0.022919989405781615 0.021747330232758332 0.022728208307556078 0.022737384175663965 0.022800627898434712 0.022617412894609418 C 0.022728208307556078 0.022737384175663965 0.021864990153580944 0.023046825194712184 0.021994182029848798 0.02305691975953527 C 0.021864990153580944 0.023046825194712184 0.021193553097831254 0.022366212270854748 0.021250325383220473 0.022496278116732382 C 0.021193553097831254 0.022366212270854748 0.02138533419605681 0.021376158327949115 0.021312914605178167 0.021496129609003663 C 0.02138533419605681 0.021376158327949115 0.022248552350032046 0.021066717308900914 0.022119360473764192 0.021056622744077828 Z" fill="#cccccc" stroke="#000000" stroke-width="0.001"/>
</g><g id="金具左">
<g transform="translate(0.32764182991573976,0.2551924256594531) rotate(0) scale(1,1) translate(-0.011152769902399133,-0.011148236262424874)"><path d="M 0.011743976271473264 0.010353011438011601 C 0.011800837143762006 0.010408242734608948 0.01254002848351565 0.011126249590374443 0.012426306738938166 0.011015786997179752 C 0.01254002848351565 0.011126249590374443 0.013165498078691804 0.011733793852945243 0.013108637206403062 0.011678562556347898" fill="none" stroke="#000000" stroke-width="0.001"/>
<path d="M 0.013108637206403062 0.011678562556347898 C 0.013094328984719012 0.011696954654391314 0.012908322102826357 0.011936051928955735 0.012936938546194458 0.0118992677328689 C 0.012908322102826357 0.011936051928955735 0.012750931664301803 0.01213836500743332 0.012765239885985854 0.012119972909389903" fill="none" stroke="#000000" stroke-width="0.001"/>
<path d="M 0.012765239885985854 0.012119972909389903 C 0.012708379013697112 0.012064741612792558 0.01196918767394347 0.011346734757027063 0.012082909418520953 0.011457197350221755 C 0.01196918767394347 0.011346734757027063 0.011343718078767313 0.010739190494456256 0.011400578951056055 0.010794421791053603" fill="none" stroke="#000000" stroke-width="0.001"/>
<path d="M 0.011400578951056055 0.010794421791053603 C 0.011414887172740106 0.010776029693010187 0.01160089405463276 0.010536932418445768 0.01157227761126466 0.010573716614532602 C 0.01160089405463276 0.010536932418445768 0.011758284493157314 0.010334619339968185 0.011743976271473264 0.010353011438011601" fill="none" stroke="#000000" stroke-width="0.001"/>
</g><g transform="translate(0.32764182991573976,0.2551924256594531) rotate(0) scale(1,1) translate(-0.011152769902399133,-0.011087794068435792)"><path d="M 0.010827455531698072 0.011459367891663037 C 0.01088344509923614 0.011515699638272842 0.011611309477231015 0.01224801234420031 0.011499330342154881 0.0121353488509807 C 0.011611309477231015 0.01224801234420031 0.012227194720149753 0.012867661556908161 0.012171205152611686 0.012811329810298356" fill="none" stroke="#000000" stroke-width="0.001"/>
<path d="M 0.012171205152611686 0.012811329810298356 C 0.012156611848307807 0.012829440077941446 0.011966898892357386 0.013064873557301607 0.011996085500965143 0.013028653022015429 C 0.011966898892357386 0.013064873557301607 0.01180637254501472 0.013264086501375592 0.011820965849318599 0.013245976233732502" fill="none" stroke="#000000" stroke-width="0.001"/>
<path d="M 0.011820965849318599 0.013245976233732502 C 0.011764976281780531 0.013189644487122697 0.011037111903785658 0.012457331781195236 0.011149091038861792 0.012569995274414845 C 0.011037111903785658 0.012457331781195236 0.010421226660866917 0.011837682568487379 0.010477216228404985 0.011894014315097184" fill="none" stroke="#000000" stroke-width="0.001"/>
<path d="M 0.010477216228404985 0.011894014315097184 C 0.010491809532708864 0.011875904047454094 0.010681522488659285 0.011640470568093935 0.010652335880051529 0.011676691103380113 C 0.010681522488659285 0.011640470568093935 0.010842048836001952 0.011441257624019947 0.010827455531698072 0.011459367891663037" fill="none" stroke="#000000" stroke-width="0.001"/>
</g></g>
<g id="金具右">
<g transform="translate(0.3470450757416016,0.2551924256594531) rotate(0) scale(1,1) translate(-0.011152769902399133,-0.011148236262424874)"><path d="M 0.010561563533324936 0.010353011438011601 C 0.010575871755008986 0.010371403536055018 0.010761878636901645 0.010610500810619436 0.010733262193533544 0.010573716614532602 C 0.010761878636901645 0.010610500810619436 0.010919269075426202 0.01081281388909702 0.010904960853742152 0.010794421791053603" fill="none" stroke="#000000" stroke-width="0.001"/>
<path d="M 0.010904960853742152 0.010794421791053603 C 0.01084809998145341 0.01084965308765095 0.010108908641699757 0.011567659943416447 0.010222630386277243 0.011457197350221755 C 0.010108908641699757 0.011567659943416447 0.009483439046523592 0.012175204205987248 0.009540299918812334 0.012119972909389903" fill="none" stroke="#000000" stroke-width="0.001"/>
<path d="M 0.009540299918812334 0.012119972909389903 C 0.009525991697128283 0.012101580811346487 0.009339984815235625 0.011862483536782067 0.009368601258603726 0.0118992677328689 C 0.009339984815235625 0.011862483536782067 0.009182594376711067 0.011660170458304482 0.009196902598395118 0.011678562556347898" fill="none" stroke="#000000" stroke-width="0.001"/>
<path d="M 0.009196902598395118 0.011678562556347898 C 0.00925376347068386 0.011623331259750553 0.009992954810437512 0.01090532440398506 0.009879233065860027 0.011015786997179752 C 0.009992954810437512 0.01090532440398506 0.010618424405613678 0.010297780141414255 0.010561563533324936 0.010353011438011601" fill="none" stroke="#000000" stroke-width="0.001"/>
</g><g transform="translate(0.3470450757416016,0.2551924256594531) rotate(0) scale(1,1) translate(-0.011152769902399133,-0.011087794068435792)"><path d="M 0.011478084273100153 0.011459367891663037 C 0.011492677577404029 0.011477478159306127 0.011682390533354422 0.011712911638666291 0.011653203924746669 0.011676691103380113 C 0.011682390533354422 0.011712911638666291 0.01184291688069706 0.011912124582740274 0.011828323576393185 0.011894014315097184" fill="none" stroke="#000000" stroke-width="0.001"/>
<path d="M 0.011828323576393185 0.011894014315097184 C 0.011772334008855126 0.011950346061706989 0.011044469630860337 0.012682658767634455 0.011156448765936466 0.012569995274414845 C 0.011044469630860337 0.012682658767634455 0.010428584387941567 0.013302307980342307 0.010484573955479637 0.013245976233732502" fill="none" stroke="#000000" stroke-width="0.001"/>
<path d="M 0.010484573955479637 0.013245976233732502 C 0.010469980651175761 0.013227865966089412 0.010280267695225359 0.01299243248672925 0.010309454303833121 0.013028653022015429 C 0.010280267695225359 0.01299243248672925 0.010119741347882608 0.012793219542655266 0.010134334652186494 0.012811329810298356" fill="none" stroke="#000000" stroke-width="0.001"/>
<path d="M 0.010134334652186494 0.012811329810298356 C 0.010190324219724564 0.012754998063688551 0.010918188597719461 0.01202268535776109 0.010806209462643324 0.0121353488509807 C 0.010918188597719461 0.01202268535776109 0.011534073840638223 0.011403036145053232 0.011478084273100153 0.011459367891663037" fill="none" stroke="#000000" stroke-width="0.001"/>
</g></g>
</g>
<g id="染み">
<g transform="translate(0.3373434528286707,0.2707518757334454) rotate(0) scale(1,1) translate(-0.004497166424359802,-0.004497166424359803)"><path d="M 0.0006888693722002527 0.004678995733266226 C 0.0006118863492197052 0.0045088148984260695 -0.0001358313577664348 0.0021185795043019385 -0.0002349269035663173 0.00263682571518434 C -0.0001358313577664348 0.0021185795043019385 0.002272357032459353 -0.0021534650395057357 0.0018780159217988428 -0.0015399587973225922 C 0.002272357032459353 -0.0021534650395057357 0.004933691508119962 -0.004725249191013384 0.004497166424359802 -0.004725249191013384 C 0.004933691508119962 -0.004725249191013384 0.007510658037581279 -0.0009264525551394491 0.007116316926920769 -0.0015399587973225926 C 0.007510658037581279 -0.0009264525551394491 0.009328355298085806 0.0031550719260667404 0.009229259752285925 0.002636825715184339 C 0.009328355298085806 0.0031550719260667404 0.008228480453538788 0.004849176568106382 0.008305463476519337 0.0046789957332662255" fill="none" stroke="none" stroke-width="0"/>
<path d="M 0.008305463476519337 0.0046789957332662255 C 0.00820824022183865 0.004936600635285274 0.007028905444746545 0.008361210417628714 0.007138784420351096 0.007770254557494813 C 0.007028905444746545 0.008361210417628714 0.006974260048340856 0.01210381701298788 0.00698691576926472 0.011770466054873028" fill="none" stroke="none" stroke-width="0"/>
<path d="M 0.00698691576926472 0.011770466054873028 C 0.006779436657189311 0.011587516844973127 0.0040822082002089834 0.009575075536074219 0.004497166424359803 0.009575075536074219 C 0.0040822082002089834 0.009575075536074219 0.001799937967379483 0.01195341526477293 0.0020074170794548924 0.011770466054873028" fill="none" stroke="none" stroke-width="0"/>
<path d="M 0.0020074170794548924 0.011770466054873028 C 0.001994761358531029 0.011437115096758177 0.0017456694527639759 0.007179298697360913 0.0018555484283685293 0.007770254557494813 C 0.0017456694527639759 0.007179298697360913 0.0005916461175195625 0.004421390831247179 0.0006888693722002522 0.004678995733266227" fill="none" stroke="none" stroke-width="0"/>
</g><g transform="translate(0.3373434528286707,0.2707518757334454) rotate(0) scale(1,1) translate(-0.04892744984382835,-0.04892744984382835)"><path d="M 0.05126009061412293 0.042038389362832385 C 0.05153788514836385 0.04264669241575261 0.05227254699112667 0.047644382081386084 0.05226098425471938 0.046914007464415944 C 0.05227254699112667 0.047644382081386084 0.0511210489167695 0.05127912402551845 0.05139884345101042 0.0508028847664741 C 0.0511210489167695 0.05127912402551845 0.048515550909298 0.05262887857294818 0.048927449843828345 0.05262887857294818 C 0.048515550909298 0.05262887857294818 0.046178261702405354 0.05032664550742975 0.046456056236646275 0.0508028847664741 C 0.046178261702405354 0.05032664550742975 0.0456054781693446 0.0461836328474458 0.04559391543293731 0.046914007464415944 C 0.0456054781693446 0.0461836328474458 0.04687260360777468 0.04143008630991217 0.046594809073533756 0.0420383893628324 C 0.04687260360777468 0.04143008630991217 0.04931622330554411 0.03961437082937324 0.048927449843828345 0.03961437082937324 C 0.04931622330554411 0.03961437082937324 0.05153788514836385 0.04264669241575261 0.05126009061412293 0.042038389362832385 Z" fill="#cccccc" stroke="none" stroke-width="0"/>
</g></g>
</svg>
