<?xml version="1.0" encoding="UTF-8"?>
<svg xmlns="http://www.w3.org/2000/svg" viewBox="0 0 1 1">
<g transform="translate(0.32764182991573976,0.24761181179911745) rotate(0) scale(1,1) translate(-0.03532867461186611,-0.032494616286981234)"><path d="M 0.014444050621392802 0.01824685260506837 C 0.015432353598710384 0.018723494958794145 0.02810821014406548 0.02508228404455117 0.0263036863492038 0.023966560849777673 C 0.02810821014406548 0.02508228404455117 0.03691455697727706 0.032274611783398056 0.036098336159732965 0.03163553094235033" fill="none" stroke="#000000" stroke-width="0.001"/>
<path d="M 0.03443330512759992 0.03336549594812281 C 0.033623772389561206 0.03270949709627655 0.02300436022326604 0.02439523044155892 0.024718912271135377 0.025493509725967728 C 0.02300436022326604 0.02439523044155892 0.012953661243337251 0.019743864102654548 0.013858680553167876 0.0201861445352171" fill="none" stroke="#000000" stroke-width="0.001"/>
<path d="M 0.013858680553167876 0.0201861445352171 C 0.013883070972677249 0.020105340704794236 0.014200146426299081 0.01905489090929701 0.014151365587280338 0.019216498570142737 C 0.014200146426299081 0.01905489090929701 0.014468441040902169 0.018166048774645508 0.014444050621392798 0.01824685260506837" fill="none" stroke="#000000" stroke-width="0.001"/>
</g><g transform="translate(0.3470450757416015,0.24761181179911745) rotate(0) scale(1,1) translate(-0.03532867461186611,-0.032494616286981234)"><path d="M 0.05621329860233935 0.01824685260506837 C 0.05623768902184872 0.018327656435491235 0.056554764475470566 0.019378106230988464 0.05650598363645182 0.019216498570142737 C 0.056554764475470566 0.019378106230988464 0.056823059090073666 0.020266948365639963 0.056798668670564295 0.0201861445352171" fill="none" stroke="#000000" stroke-width="0.001"/>
<path d="M 0.056798668670564295 0.0201861445352171 C 0.05589364936073366 0.02062842496777965 0.044223884904727354 0.026591789010376538 0.045938436952596695 0.025493509725967728 C 0.044223884904727354 0.026591789010376538 0.035414511358093516 0.03402149479996907 0.036224044096132224 0.03336549594812281" fill="none" stroke="#000000" stroke-width="0.001"/>
<path d="M 0.03455901306399911 0.03163553094235033 C 0.03537523388154321 0.03099645010130261 0.04615818666939004 0.022850837655004175 0.044353662874528355 0.02396656084977767 C 0.04615818666939004 0.022850837655004175 0.05720160157965693 0.017770210251342598 0.05621329860233935 0.01824685260506837" fill="none" stroke="#000000" stroke-width="0.001"/>
</g><g transform="translate(0.33734345282867056,0.23916577780668663) rotate(0) scale(1,1) translate(-0.1048391138123241,-0.10483911381232405)"><path d="M 0.10947398839737804 0.1452260198534213 C 0.10908774884862354 0.1450545720994585 0.10406663471481514 0.14316864680586755 0.10483911381232412 0.14316864680586755 C 0.10406663471481514 0.14316864680586755 0.09981799967851572 0.1453974676073841 0.10020423922727022 0.1452260198534213" fill="none" stroke="#000000" stroke-width="0.001"/>
<path d="M 0.10020423922727022 0.1452260198534213 C 0.10031226189856557 0.14462759139517956 0.10148970549006552 0.13669160118889614 0.10150051128281444 0.1380448783545204 C 0.10148970549006552 0.13669160118889614 0.09989104667302738 0.12802101300848995 0.1000745697142831 0.12898669386593042 C 0.09989104667302738 0.12802101300848995 0.0992335402105345 0.12624587591517678 0.09929823478774594 0.12645670806523474" fill="none" stroke="#000000" stroke-width="0.001"/>
<path d="M 0.09929823478774594 0.12645670806523474 C 0.09919438553994957 0.12613633732768142 0.09760287988043628 0.12157787823320076 0.09805204381418944 0.1226122592145949 C 0.09760287988043628 0.12157787823320076 0.09356295289675119 0.11333012604466423 0.09390826758270798 0.11404413628850506" fill="none" stroke="#000000" stroke-width="0.001"/>
<path d="M 0.09390826758270798 0.11404413628850506 C 0.09397871338182626 0.1139489961304469 0.09489463031283944 0.11271427400745442 0.09475361717212724 0.11290245439180722 C 0.09489463031283944 0.11271427400745442 0.0956709926128483 0.11169293144997669 0.09560042527125437 0.11178597167627134" fill="none" stroke="#000000" stroke-width="0.001"/>
<path d="M 0.09560042527125437 0.11178597167627134 C 0.09637031598301019 0.11204891199001789 0.10637889523583577 0.1149412554412299 0.10483911381232414 0.1149412554412299 C 0.10637889523583577 0.1149412554412299 0.11484769306514973 0.1115230313625248 0.11407780235339392 0.11178597167627134" fill="none" stroke="#000000" stroke-width="0.001"/>
<path d="M 0.11407780235339392 0.11178597167627134 C 0.11414836969498784 0.111879011902566 0.11506562359323325 0.11309063477616006 0.11492461045252104 0.11290245439180725 C 0.11506562359323325 0.11309063477616006 0.11584040584105856 0.11413927644656324 0.11576996004194029 0.11404413628850509" fill="none" stroke="#000000" stroke-width="0.001"/>
<path d="M 0.11576996004194029 0.11404413628850509 C 0.1154246453559835 0.11475814653234591 0.1111770198767057 0.12364664019598903 0.11162618381045886 0.1226122592145949 C 0.1111770198767057 0.12364664019598903 0.11027614358910594 0.12677707880278805 0.11037999283690232 0.12645670806523474" fill="none" stroke="#000000" stroke-width="0.001"/>
<path d="M 0.11037999283690232 0.12645670806523474 C 0.1103152982596909 0.1266675402152927 0.10942013486910948 0.1299523747233709 0.1096036579103652 0.12898669386593042 C 0.10942013486910948 0.1299523747233709 0.10816691054908488 0.13939815552014465 0.1081777163418338 0.1380448783545204 C 0.10816691054908488 0.13939815552014465 0.1095820110686734 0.14582444831166302 0.10947398839737804 0.1452260198534213" fill="none" stroke="#000000" stroke-width="0.001"/>
</g><g transform="translate(0.3373434528286706,0.2640980677079408) rotate(0) scale(1,1) translate(-0.005607832739230754,-0.005607832739230756)"><path d="M 0.010372376837271723 0.004823122891583421 C 0.010235931501989846 0.0049751423517924815 0.008485166924607308 0.006849093524409289 0.008735032813889185 0.006647356414092149 C 0.008485166924607308 0.006849093524409289 0.007260565611889187 0.007293685865497191 0.007373986165889187 0.00724396821538911" fill="none" stroke="#000000" stroke-width="0.001"/>
<path d="M 0.007373986165889187 0.00724396821538911 C 0.007226806713667651 0.007253911745410726 0.005313473834787685 0.007363290575648502 0.0056078327392307566 0.007363290575648502 C 0.005313473834787685 0.007363290575648502 0.003694499860350791 0.007234024685367497 0.0038416793125723267 0.007243968215389113" fill="none" stroke="#000000" stroke-width="0.001"/>
<path d="M 0.0038416793125723267 0.007243968215389113 C 0.003728258758572327 0.007194250565281033 0.0022307667752904485 0.006445619303775011 0.002480632664572327 0.006647356414092152 C 0.0022307667752904485 0.006445619303775011 0.000706843305907907 0.00467110343137436 0.0008432886411897855 0.004823122891583421" fill="none" stroke="#000000" stroke-width="0.001"/>
</g><g id="ライン">
<g transform="translate(0.3373434528286706,0.25034700573910246) rotate(0) scale(1,1) translate(-0.013368228944623991,-0.012382334300742655)"><path d="M 0.003737491988301949 0.007567676074419306 C 0.004540053401328784 0.007878973734653755 0.014973351770677639 0.011303247997232693 0.013368228944623974 0.011303247997232693 C 0.014973351770677639 0.011303247997232693 0.02380152731397276 0.007256378414184857 0.022998965900945932 0.007567676074419306" fill="none" stroke="#000000" stroke-width="0.001"/>
<path d="M 0.022998965900945932 0.007567676074419306 C 0.022989113050721474 0.007609042700906507 0.022861025997803503 0.008172825002156523 0.022880731698252423 0.008064075592265716 C 0.022861025997803503 0.008172825002156523 0.02275264464533445 0.008940051776512595 0.02276249749555891 0.00887266899310899" fill="none" stroke="none" stroke-width="0"/>
<path d="M 0.02276249749555891 0.00887266899310899 C 0.021979641782980997 0.009190674403841505 0.011802517519468148 0.012688733921899169 0.013368228944623972 0.012688733921899169 C 0.011802517519468148 0.012688733921899169 0.003191104681111109 0.008554663582376474 0.003973960393689022 0.00887266899310899" fill="none" stroke="#000000" stroke-width="0.001"/>
<path d="M 0.003973960393689022 0.00887266899310899 C 0.00396410754346456 0.008805286209705384 0.0038360204905465625 0.007955326182374909 0.0038557261909954853 0.008064075592265716 C 0.0038360204905465625 0.007955326182374909 0.0037276391380774874 0.007526309447932106 0.003737491988301949 0.007567676074419306" fill="none" stroke="none" stroke-width="0"/>
</g><g transform="translate(0.32764182991573976,0.24761181179911745) rotate(0) scale(1,1) translate(-0.01342586555605409,-0.013415849833981952)"><path d="M 0.01133346459534476 0.014163854971193194 C 0.011423489873785215 0.01402055549201061 0.012594041846406744 0.012208638769039715 0.012413767936630224 0.012444261221002183 C 0.012594041846406744 0.012208638769039715 0.01358700014399905 0.011244062574863673 0.013496751512662986 0.011336385547643558" fill="none" stroke="#000000" stroke-width="0.001"/>
<path d="M 0.013496751512662986 0.011336385547643558 C 0.013506604362887444 0.011377752174130762 0.013634691415805401 0.011941534475380811 0.013614985715356485 0.011832785065489999 C 0.013634691415805401 0.011941534475380811 0.013743072768274441 0.01270876124973691 0.013733219918049983 0.012641378466333302" fill="none" stroke="none" stroke-width="0"/>
<path d="M 0.013733219918049983 0.012641378466333302 C 0.013692613562579373 0.012696065393783781 0.013164730941461446 0.013432047697631242 0.013245943652402668 0.01329762159573905 C 0.013164730941461446 0.013432047697631242 0.012718061031284702 0.014334230863481326 0.012758667386755315 0.014254491689039613" fill="none" stroke="#000000" stroke-width="0.001"/>
<path d="M 0.012758667386755315 0.014254491689039613 C 0.012699283937113209 0.014250715159129346 0.011927299091765825 0.01420162027029587 0.012046065991050037 0.014209173330116405 C 0.011927299091765825 0.01420162027029587 0.011274081145702653 0.014160078441282926 0.01133346459534476 0.014163854971193194" fill="none" stroke="none" stroke-width="0"/>
</g><g transform="translate(0.3470450757416015,0.24761181179911743) rotate(0) scale(1,1) translate(-0.01342586555605409,-0.013415849833981952)"><path d="M 0.01551826651676345 0.01416385497119319 C 0.015458883067121343 0.014167631501103457 0.01468689822177395 0.01421672638993694 0.014805665121058164 0.014209173330116403 C 0.01468689822177395 0.01421672638993694 0.014033680275710773 0.01425826821894988 0.01409306372535288 0.014254491689039613" fill="none" stroke="none" stroke-width="0"/>
<path d="M 0.01409306372535288 0.014254491689039613 C 0.014052457369882265 0.0141747525145979 0.013524574748764262 0.013163195493846857 0.01360578745970549 0.01329762159573905 C 0.013524574748764262 0.013163195493846857 0.01307790483858753 0.012586691538882823 0.013118511194058142 0.012641378466333302" fill="none" stroke="#000000" stroke-width="0.001"/>
<path d="M 0.013118511194058142 0.012641378466333302 C 0.013128364044282602 0.012573995682929693 0.013256451097200583 0.011724035655599187 0.013236745396751664 0.011832785065489999 C 0.013256451097200583 0.011724035655599187 0.013364832449669645 0.011295018921156355 0.013354979599445186 0.011336385547643558" fill="none" stroke="none" stroke-width="0"/>
<path d="M 0.013354979599445186 0.011336385547643558 C 0.01344522823078125 0.011428708520423443 0.014618237085254485 0.012679883672964652 0.014437963175477964 0.012444261221002183 C 0.014618237085254485 0.012679883672964652 0.015608291795203908 0.014307154450375774 0.01551826651676345 0.01416385497119319" fill="none" stroke="#000000" stroke-width="0.001"/>
</g><g transform="translate(0.33265830899950033,0.25554013970267475) rotate(0) scale(1,1) translate(-0.011690181759371858,-0.013368228944623991)"><path d="M 0.006006504506312527 0.006278542896124362 C 0.006370724205737012 0.006966968951341011 0.010844163981862396 0.015778230899874728 0.010377140899406345 0.01453965555872415 C 0.010844163981862396 0.015778230899874728 0.011713584878816704 0.021691596275865234 0.011610781495785137 0.021141446989931305" fill="none" stroke="#000000" stroke-width="0.001"/>
<path d="M 0.011610781495785137 0.021141446989931305 C 0.011440469270622533 0.0206487683036675 0.008981244812093628 0.013983174353794502 0.009567034793833891 0.015229302754765615 C 0.008981244812093628 0.013983174353794502 0.00416582395832431 0.005434456463570632 0.0045813017149019695 0.006187906178277938" fill="none" stroke="#000000" stroke-width="0.001"/>
<path d="M 0.0045813017149019695 0.006187906178277938 C 0.004640685164544076 0.006191682708188206 0.005412670009891461 0.006240777597021686 0.005293903110607248 0.006233224537201151 C 0.005412670009891461 0.006240777597021686 0.006065887955954633 0.006282319426034629 0.006006504506312527 0.006278542896124362" fill="none" stroke="none" stroke-width="0"/>
</g><g transform="translate(0.3420285966578409,0.25554013970267475) rotate(0) scale(1,1) translate(-0.011690181759371858,-0.013368228944623991)"><path d="M 0.017373859012431162 0.006278542896124362 C 0.01743324246207327 0.006274766366214095 0.018205227307420666 0.006225671477380618 0.01808646040813645 0.006233224537201153 C 0.018205227307420666 0.006225671477380618 0.018858445253483843 0.006184129648367672 0.018799061803841735 0.00618790617827794" fill="none" stroke="none" stroke-width="0"/>
<path d="M 0.018799061803841735 0.00618790617827794 C 0.018383584047264076 0.006941355892985246 0.013227538743169554 0.016475431155736728 0.013813328724909812 0.015229302754765615 C 0.013227538743169554 0.016475431155736728 0.011599269797796038 0.02163412567619511 0.011769582022958636 0.021141446989931305" fill="none" stroke="#000000" stroke-width="0.001"/>
<path d="M 0.011769582022958636 0.021141446989931305 C 0.011872385405990199 0.020591297703997376 0.01347024570179344 0.013301080217573572 0.013003222619337396 0.01453965555872415 C 0.01347024570179344 0.013301080217573572 0.01773807871185564 0.005590116840907713 0.017373859012431162 0.006278542896124362" fill="none" stroke="#000000" stroke-width="0.001"/>
</g><g transform="translate(0.33567403153978537,0.27493452242657235) rotate(0) scale(1,1) translate(-0.004497166424359802,-0.004497166424359803)"><path d="M 0.0014020435118427322 -0.007123998031052288 C 0.0014790093326787293 -0.007032927255613821 0.0024359117135994966 -0.005903533693478826 0.0023256333618746966 -0.006031148725790695 C 0.0024359117135994966 -0.005903533693478826 0.002758696263429135 -0.005556073386436466 0.002725383732540332 -0.005592617643309868" fill="none" stroke="none" stroke-width="0"/>
<path d="M 0.002725383732540332 -0.005592617643309868 C 0.0028121951997462325 -0.004971242059962017 0.003761326875691308 0.003036231849335381 0.003767121339011142 0.0018638893568643457 C 0.003761326875691308 0.003036231849335381 0.0025632442421765866 0.009026459175465741 0.0026558501727023216 0.008475492266342557" fill="none" stroke="#000000" stroke-width="0.001"/>
<path d="M 0.0026558501727023216 0.008475492266342557 C 0.0025865554010610792 0.008516646258589885 0.0017306347390753255 0.009022659834610931 0.001824312913007413 0.008969340173310488 C 0.0017306347390753255 0.009022659834610931 0.0015073286832264251 0.009127493871000987 0.0015317120855172703 0.009115328201947872" fill="none" stroke="#000000" stroke-width="0.001"/>
<path d="M 0.0015317120855172703 0.009115328201947872 C 0.0016389694068346707 0.008514510452446432 0.002807994226853196 0.0005522380218472458 0.002818799941326074 0.0019055152079305924 C 0.002807994226853196 0.0005522380218472458 0.0012839804760524536 -0.007876457467634195 0.0014020435118427322 -0.007123998031052288" fill="none" stroke="#000000" stroke-width="0.001"/>
</g><g transform="translate(0.3390128741175559,0.27493452242657235) rotate(0) scale(1,1) translate(-0.004497166424359802,-0.004497166424359803)"><path d="M 0.007592289336876945 -0.007123998031052288 C 0.007474226301086666 -0.006371538594470381 0.006164727192920706 0.003258792394013939 0.006175532907393588 0.0019055152079305924 C 0.006164727192920706 0.003258792394013939 0.007569878084519764 0.009716145951449312 0.0074626207632023656 0.009115328201947872" fill="none" stroke="#000000" stroke-width="0.001"/>
<path d="M 0.0074626207632023656 0.009115328201947872 C 0.007438237360911519 0.009103162532894758 0.007076341761780115 0.008916020512010046 0.007170019935712202 0.008969340173310488 C 0.007076341761780115 0.008916020512010046 0.006269187904376093 0.008434338274095229 0.006338482676017332 0.008475492266342557" fill="none" stroke="#000000" stroke-width="0.001"/>
<path d="M 0.006338482676017332 0.008475492266342557 C 0.0062458767454915964 0.007924525357219372 0.005221417046388677 0.0006915468643933103 0.005227211509708507 0.0018638893568643457 C 0.005221417046388677 0.0006915468643933103 0.006355760583385273 -0.00621399322665772 0.0062689491161793676 -0.005592617643309868" fill="none" stroke="#000000" stroke-width="0.001"/>
<path d="M 0.0062689491161793676 -0.005592617643309868 C 0.006302261647068162 -0.0056291619001832705 0.006778977838569696 -0.006158763758102564 0.006668699486844898 -0.006031148725790695 C 0.006778977838569696 -0.006158763758102564 0.007669255157712949 -0.007215068806490754 0.007592289336876945 -0.007123998031052288" fill="none" stroke="none" stroke-width="0"/>
</g></g>
<g id="結び紐左">
<g transform="translate(0.306464520891154,0.23433369408227897) rotate(0) scale(1,1) translate(-0.004599968736372043,-0.01602013802246163)"><path d="M 0.0055430219110076204 0.016237859003024966 C 0.005301109710381692 0.017285695863731163 0.0023519317636632397 0.030897319863998154 0.00264007550349648 0.028811901331499343 C 0.0023519317636632397 0.030897319863998154 0.0020390654938014213 0.042300463064803326 0.0020852970330087336 0.04126288139301071" fill="none" stroke="#000000" stroke-width="0.001"/>
<path d="M 0.0020852970330087336 0.04126288139301071 C 0.002006709268455769 0.04124473797796376 0.0009850683292672285 0.04100887358235346 0.001142243858373158 0.04104516041244735 C 0.0009850683292672285 0.04100887358235346 0.00012060291918461392 0.04080929601683708 0.00019919068373757884 0.04082743943188403" fill="none" stroke="#000000" stroke-width="0.001"/>
<path d="M 0.00019919068373757884 0.04082743943188403 C 0.000245422222944891 0.03978985776009142 0.001042112894058565 0.026291040837873866 0.0007539691542253245 0.028376459370372677 C 0.001042112894058565 0.026291040837873866 0.0038988277623623934 0.014754580181192094 0.003656915561736465 0.015802417041898293" fill="none" stroke="#000000" stroke-width="0.001"/>
<path d="M 0.003656915561736465 0.015802417041898293 C 0.0037355033262894298 0.015820560456945236 0.0047571442654779725 0.01605642485255552 0.004599968736372043 0.01602013802246163 C 0.0047571442654779725 0.01605642485255552 0.005621609675560587 0.016256002418071902 0.005543021911007622 0.01623785900302496" fill="none" stroke="none" stroke-width="0"/>
</g><g transform="translate(0.306464520891154,0.23433369408227897) rotate(0) scale(1,1) translate(-0.004599968736372043,-0.01602013802246163)"><path d="M 0.005484152246457256 0.016413801884228356 C 0.005046747955605337 0.01739622800654526 -0.0004849283192868485 0.030159666428023323 0.0002353007562342288 0.02820291535203122 C -0.0004849283192868485 0.030159666428023323 -0.00344142144446483 0.0408691397498088 -0.0031585966597956717 0.0398948147961336" fill="none" stroke="#000000" stroke-width="0.001"/>
<path d="M -0.0031585966597956717 0.0398948147961336 C -0.0032322786189694394 0.039862009474319705 -0.004190144088228421 0.03943554029073907 -0.004042780169880885 0.03950115093436686 C -0.004190144088228421 0.03943554029073907 -0.00500064563913987 0.03907468175078625 -0.004926963679966102 0.039107487072600144" fill="none" stroke="#000000" stroke-width="0.001"/>
<path d="M -0.004926963679966102 0.039107487072600144 C -0.004644138895296943 0.038133162118924945 -0.0008128371884151231 0.02545883655250566 -0.0015330662639362006 0.027415587628497766 C -0.0008128371884151231 0.02545883655250566 0.004153189517138748 0.014644048038377998 0.0037157852262868288 0.015626474160694903" fill="none" stroke="#000000" stroke-width="0.001"/>
<path d="M 0.0037157852262868288 0.015626474160694903 C 0.0037894671854605965 0.0156592794825088 0.004747332654719578 0.016085748666089417 0.004599968736372043 0.01602013802246163 C 0.004747332654719578 0.016085748666089417 0.0055578342056310254 0.01644660720604224 0.005484152246457257 0.01641380188422835" fill="none" stroke="none" stroke-width="0"/>
</g><g id="輪1">
<g transform="translate(0.306464520891154,0.23433369408227897) rotate(0) scale(1,1) translate(-0.004599968736372043,-0.01602013802246163)"><path d="M 0.003745399655715873 0.015565755582270462 C 0.003816613745770556 0.015603620785619726 0.004742396916481433 0.01609586842916017 0.004599968736372067 0.01602013802246164 C 0.004742396916481433 0.01609586842916017 0.005525751907082946 0.016512385666002084 0.0054545378170282625 0.01647452046265282" fill="none" stroke="none" stroke-width="0"/>
<path d="M 0.0054545378170282625 0.01647452046265282 C 0.004864683700630998 0.01707848291190234 -0.002180102399990021 0.024914953286749687 -0.0016237115797389052 0.02372206985364709 C -0.002180102399990021 0.024914953286749687 -0.001188688729838977 0.031378042643737065 -0.0012221520259851253 0.03078912165988399" fill="none" stroke="#000000" stroke-width="0.001"/>
<path d="M -0.0012221520259851253 0.03078912165988399 C -0.0012933661160398078 0.030751256456534724 -0.0022191492867506797 0.030259008812994276 -0.002076721106641314 0.030334739219692805 C -0.0022191492867506797 0.030259008812994276 -0.0030025042773522 0.029842491576152368 -0.0029312901872975165 0.029880356779501634" fill="none" stroke="none" stroke-width="0"/>
<path d="M -0.0029312901872975165 0.029880356779501634 C -0.0029647534834436645 0.02929143579564856 -0.002776458920800178 0.02162042154016213 -0.003332849741051294 0.02281330497326473 C -0.002776458920800178 0.02162042154016213 0.004335253772113133 0.014961793133020942 0.0037453996557158696 0.015565755582270465" fill="none" stroke="#000000" stroke-width="0.001"/>
</g><g transform="translate(0.306464520891154,0.23433369408227897) rotate(0) scale(1,1) translate(-0.004599968736372043,-0.016020138022461605)"><path d="M 0.005454537817028236 0.01647452046265279 C 0.005389717608913272 0.017330932212274944 0.004120304499397551 0.027944344891221246 0.004676695319648667 0.026751461458118648 C 0.004120304499397551 0.027944344891221246 -0.0017137226381213047 0.031125593343364406 -0.001222152025985153 0.030789121659883963" fill="none" stroke="#000000" stroke-width="0.001"/>
<path d="M -0.001222152025985153 0.030789121659883963 C -0.0012933661160398353 0.030751256456534697 -0.0022191492867507045 0.03025900881299424 -0.002076721106641339 0.03033473921969277 C -0.0022191492867507045 0.03025900881299424 -0.0030025042773522224 0.029842491576152333 -0.002931290187297539 0.0298803567795016" fill="none" stroke="#000000" stroke-width="0.001"/>
<path d="M -0.002931290187297539 0.0298803567795016 C -0.0024397195751613876 0.029543885096021155 0.003523947978587393 0.02464981314463369 0.0029675571583362773 0.025842696577736288 C 0.003523947978587393 0.02464981314463369 0.0038102198638308117 0.014709343832648271 0.0037453996557158475 0.015565755582270427" fill="none" stroke="#000000" stroke-width="0.001"/>
<path d="M 0.0037453996557158475 0.015565755582270427 C 0.0038166137457705303 0.015603620785619691 0.004742396916481408 0.016095868429160134 0.004599968736372043 0.016020138022461605 C 0.004742396916481408 0.016095868429160134 0.005525751907082924 0.016512385666002053 0.005454537817028241 0.016474520462652787" fill="none" stroke="none" stroke-width="0"/>
</g></g>
<g id="輪2">
<g transform="translate(0.306464520891154,0.23433369408227897) rotate(0) scale(1,1) translate(-0.004599968736372043,-0.01602013802246163)"><path d="M 0.003990875113639254 0.015267970039685268 C 0.004041632915533654 0.015330650704916633 0.00470148434016086 0.016145499352924378 0.004599968736372059 0.016020138022461647 C 0.00470148434016086 0.016145499352924378 0.005259820160999269 0.01683498667046939 0.005209062359104868 0.016772306005238026" fill="none" stroke="none" stroke-width="0"/>
<path d="M 0.005209062359104868 0.016772306005238026 C 0.0044465379125518565 0.01718390839834035 -0.004786995348342286 0.022649703633034025 -0.0039412309995312655 0.021711534722465946 C -0.004786995348342286 0.022649703633034025 -0.005023349728885383 0.028556899449520737 -0.004940109826627374 0.028030332932054983" fill="none" stroke="#000000" stroke-width="0.001"/>
<path d="M -0.004940109826627374 0.028030332932054983 C -0.004990867628521774 0.027967652266823618 -0.0056507190531489785 0.027152803618815877 -0.005549203449360177 0.027278164949278608 C -0.0056507190531489785 0.027152803618815877 -0.0062090548739874 0.026463316301270867 -0.006158297072092998 0.026525996966502232" fill="none" stroke="none" stroke-width="0"/>
<path d="M -0.006158297072092998 0.026525996966502232 C -0.006075057169834989 0.02599943044903648 -0.004313653896185866 0.01926902984634511 -0.005159418244996886 0.020207198756913188 C -0.004313653896185866 0.01926902984634511 0.004753399560192261 0.014856367646582946 0.0039908751136392496 0.015267970039685271" fill="none" stroke="#000000" stroke-width="0.001"/>
</g><g transform="translate(0.306464520891154,0.23433369408227897) rotate(0) scale(1,1) translate(-0.004599968736372043,-0.016020138022461605)"><path d="M 0.005209062359104849 0.016772306005237984 C 0.004870553094459832 0.01751000586960518 0.00030118683455362374 0.02656287328821241 0.001146951183364644 0.02562470437764433 C 0.00030118683455362374 0.02656287328821241 -0.005447364910793398 0.02823080197825583 -0.004940109826627395 0.028030332932054945" fill="none" stroke="#000000" stroke-width="0.001"/>
<path d="M -0.004940109826627395 0.028030332932054945 C -0.004990867628521795 0.02796765226682358 -0.005650719053148995 0.027152803618815828 -0.005549203449360194 0.02727816494927856 C -0.005650719053148995 0.027152803618815828 -0.006209054873987408 0.02646331630127081 -0.006158297072093007 0.026525996966502177" fill="none" stroke="#000000" stroke-width="0.001"/>
<path d="M -0.006158297072093007 0.026525996966502177 C -0.005651041987927004 0.026325527920301295 0.0007745282867100458 0.023182199501523497 -7.123606210097423E-05 0.024120368412091576 C 0.0007745282867100458 0.023182199501523497 0.0043293843782842515 0.014530270175318029 0.003990875113639234 0.015267970039685224" fill="none" stroke="#000000" stroke-width="0.001"/>
<path d="M 0.003990875113639234 0.015267970039685224 C 0.004041632915533635 0.01533065070491659 0.0047014843401608445 0.016145499352924336 0.004599968736372043 0.016020138022461605 C 0.0047014843401608445 0.016145499352924336 0.005259820160999254 0.016834986670469346 0.005209062359104853 0.01677230600523798" fill="none" stroke="none" stroke-width="0"/>
</g></g>
<g transform="translate(0.306464520891154,0.23433369408227897) rotate(0) scale(1,1) translate(-0.014814031015816116,-0.014814031015816118)"><path d="M 0.015153798899358311 0.013500832149353614 C 0.015227664013131479 0.013570281829694686 0.016082781047525273 0.014534354054845445 0.016040180264636328 0.01433422831344648 C 0.016082781047525273 0.014534354054845445 0.01563374396314144 0.016033017107199083 0.015665008294025663 0.015902341046141192" fill="none" stroke="#000000" stroke-width="0.001"/>
<path d="M 0.015665008294025663 0.015902341046141192 C 0.015605816225562818 0.01587661652794829 0.014774725568927774 0.015585665680622578 0.014954703472471537 0.01559364682782637 C 0.014774725568927774 0.015585665680622578 0.01338448761641957 0.015824310650684802 0.013505273451500491 0.01580656727969569" fill="none" stroke="#000000" stroke-width="0.001"/>
<path d="M 0.013505273451500491 0.01580656727969569 C 0.013500966622050116 0.015761586665126885 0.013448099146689195 0.015176162952954557 0.013453591498095987 0.015266799904870045 C 0.013448099146689195 0.015176162952954557 0.013438179712662571 0.01467326751936316 0.013439365234618987 0.014718923856709844" fill="none" stroke="#000000" stroke-width="0.001"/>
<path d="M 0.013439365234618987 0.014718923856709844 C 0.013486106836379724 0.014646364440519226 0.01414313392780944 0.013746703220142736 0.01400026445574783 0.013848210862422421 C 0.01414313392780944 0.013746703220142736 0.015249926769659184 0.013471883923264547 0.015153798899358311 0.013500832149353614" fill="none" stroke="#000000" stroke-width="0.001"/>
</g></g>
<g id="結び紐右">
<g transform="translate(0.3682223847661872,0.23433369408227894) rotate(0) scale(1,1) translate(-0.004599968736372043,-0.01602013802246163)"><path d="M 0.003656915561736418 0.01623785900302496 C 0.0037355033262893855 0.016219715587978016 0.004757144265477964 0.01598385119236774 0.004599968736372029 0.01602013802246163 C 0.004757144265477964 0.01598385119236774 0.005621609675560607 0.01578427362685135 0.0055430219110076395 0.015802417041898293" fill="none" stroke="none" stroke-width="0"/>
<path d="M 0.0055430219110076395 0.015802417041898293 C 0.005784934111633565 0.01685025390260449 0.008734112058351978 0.030461877902871488 0.008445968318518737 0.028376459370372677 C 0.008734112058351978 0.030461877902871488 0.009046978328213847 0.04186502110367664 0.00900074678900653 0.04082743943188403" fill="none" stroke="#000000" stroke-width="0.001"/>
<path d="M 0.00900074678900653 0.04082743943188403 C 0.008922159024453563 0.040845582846930975 0.007900518085264985 0.041081447242541244 0.00805769361437092 0.04104516041244735 C 0.007900518085264985 0.041081447242541244 0.0070360526751823416 0.041281024808057655 0.007114640439735309 0.04126288139301071" fill="none" stroke="#000000" stroke-width="0.001"/>
<path d="M 0.007114640439735309 0.04126288139301071 C 0.007068408900528002 0.04022529972121809 0.006271718229414386 0.02672648279900053 0.006559861969247627 0.028811901331499343 C 0.006271718229414386 0.02672648279900053 0.0034150033611104838 0.015190022142318769 0.003656915561736418 0.016237859003024966" fill="none" stroke="#000000" stroke-width="0.001"/>
</g><g transform="translate(0.3682223847661872,0.23433369408227894) rotate(0) scale(1,1) translate(-0.004599968736372043,-0.01602013802246163)"><path d="M 0.003715785226286794 0.01641380188422835 C 0.0037894671854605635 0.016380996562414457 0.0047473326547195676 0.015954527378833842 0.004599968736372029 0.01602013802246163 C 0.0047473326547195676 0.015954527378833842 0.005557834205631033 0.01559366883888101 0.005484152246457263 0.015626474160694903" fill="none" stroke="none" stroke-width="0"/>
<path d="M 0.005484152246457263 0.015626474160694903 C 0.005921556537309173 0.016608900283011808 0.01145323281220125 0.02937233870448987 0.01073300373668018 0.027415587628497766 C 0.01145323281220125 0.02937233870448987 0.01440972593737925 0.040081812026275344 0.014126901152710092 0.039107487072600144" fill="none" stroke="#000000" stroke-width="0.001"/>
<path d="M 0.014126901152710092 0.039107487072600144 C 0.014053219193536323 0.039140292394414036 0.013095353724277317 0.03956676157799465 0.013242717642624857 0.03950115093436686 C 0.013095353724277317 0.03956676157799465 0.012284852173365854 0.03992762011794749 0.012358534132539623 0.0398948147961336" fill="none" stroke="#000000" stroke-width="0.001"/>
<path d="M 0.012358534132539623 0.0398948147961336 C 0.012075709347870472 0.0389204898424584 0.008244407640988752 0.026246164276039114 0.008964636716509822 0.02820291535203122 C 0.008244407640988752 0.026246164276039114 0.003278380935434875 0.015431375761911451 0.003715785226286794 0.016413801884228356" fill="none" stroke="#000000" stroke-width="0.001"/>
</g><g id="輪1">
<g transform="translate(0.3682223847661872,0.23433369408227894) rotate(0) scale(1,1) translate(-0.004599968736372043,-0.01602013802246163)"><path d="M 0.005454537817028204 0.015565755582270465 C 0.006044391933425458 0.016169718031519988 0.013089178034046365 0.024006188406367326 0.012532787213795249 0.02281330497326473 C 0.013089178034046365 0.024006188406367326 0.012097764363895461 0.03046927776335471 0.0121312276600416 0.029880356779501634" fill="none" stroke="#000000" stroke-width="0.001"/>
<path d="M 0.0121312276600416 0.029880356779501634 C 0.012060013569986908 0.0299182219828509 0.01113423039927595 0.030410469626391334 0.011276658579385312 0.030334739219692805 C 0.01113423039927595 0.030410469626391334 0.010350875408674576 0.030826986863233256 0.010422089498729248 0.03078912165988399" fill="none" stroke="none" stroke-width="0"/>
<path d="M 0.010422089498729248 0.03078912165988399 C 0.010455552794875386 0.030200200676030915 0.010267258232231772 0.02252918642054449 0.010823649052482898 0.02372206985364709 C 0.010267258232231772 0.02252918642054449 0.0031555455393184792 0.015870558013403296 0.003745399655715742 0.01647452046265282" fill="none" stroke="#000000" stroke-width="0.001"/>
<path d="M 0.003745399655715742 0.01647452046265282 C 0.0038166137457704328 0.016436655259303552 0.004742396916481401 0.01594440761576311 0.004599968736372029 0.01602013802246164 C 0.004742396916481401 0.01594440761576311 0.005525751907082886 0.015527890378921197 0.005454537817028204 0.015565755582270462" fill="none" stroke="none" stroke-width="0"/>
</g><g transform="translate(0.3682223847661872,0.23433369408227894) rotate(0) scale(1,1) translate(-0.004599968736372043,-0.016020138022461605)"><path d="M 0.003745399655715853 0.016474520462652787 C 0.0038166137457705343 0.01643665525930352 0.004742396916481391 0.015944407615763077 0.004599968736372029 0.016020138022461605 C 0.004742396916481391 0.015944407615763077 0.005525751907082886 0.015527890378921163 0.005454537817028204 0.015565755582270427" fill="none" stroke="none" stroke-width="0"/>
<path d="M 0.005454537817028204 0.015565755582270427 C 0.005519358025143167 0.01642216733189258 0.006788771134658876 0.027035580010838885 0.006232380314407759 0.025842696577736288 C 0.006788771134658876 0.027035580010838885 0.012622798272177752 0.030216828462982043 0.0121312276600416 0.0298803567795016" fill="none" stroke="#000000" stroke-width="0.001"/>
<path d="M 0.0121312276600416 0.0298803567795016 C 0.012060013569986908 0.029918221982850865 0.01113423039927595 0.030410469626391302 0.011276658579385312 0.03033473921969277 C 0.01113423039927595 0.030410469626391302 0.010350875408674576 0.03082698686323323 0.010422089498729248 0.030789121659883963" fill="none" stroke="#000000" stroke-width="0.001"/>
<path d="M 0.010422089498729248 0.030789121659883963 C 0.009930518886593095 0.03045264997640352 0.003966851332844292 0.02555857802501605 0.004523242153095408 0.026751461458118648 C 0.003966851332844292 0.02555857802501605 0.00368057944760089 0.015618108713030637 0.003745399655715853 0.01647452046265279" fill="none" stroke="#000000" stroke-width="0.001"/>
</g></g>
<g id="輪2">
<g transform="translate(0.3682223847661872,0.23433369408227894) rotate(0) scale(1,1) translate(-0.004599968736372043,-0.01602013802246163)"><path d="M 0.005209062359104788 0.015267970039685271 C 0.00597158680565781 0.015679572432787597 0.015205120066552077 0.021145367667481266 0.014359355717741051 0.020207198756913188 C 0.015205120066552077 0.021145367667481266 0.015441474447095094 0.027052563483967985 0.01535823454483709 0.026525996966502232" fill="none" stroke="#000000" stroke-width="0.001"/>
<path d="M 0.01535823454483709 0.026525996966502232 C 0.015307476742942694 0.026588677631733598 0.014647625318315519 0.02740352627974134 0.014749140922104331 0.027278164949278608 C 0.014647625318315519 0.02740352627974134 0.014089289497476934 0.02809301359728635 0.01414004729937135 0.028030332932054983" fill="none" stroke="none" stroke-width="0"/>
<path d="M 0.01414004729937135 0.028030332932054983 C 0.014056807397113347 0.02750376641458923 0.012295404123464295 0.020773365811897867 0.01314116847227531 0.021711534722465946 C 0.012295404123464295 0.020773365811897867 0.003228350667086146 0.0163607036121357 0.0039908751136391585 0.016772306005238026" fill="none" stroke="#000000" stroke-width="0.001"/>
<path d="M 0.0039908751136391585 0.016772306005238026 C 0.004041632915533565 0.01670962534000666 0.0047014843401608315 0.015894776691998916 0.004599968736372029 0.016020138022461647 C 0.0047014843401608315 0.015894776691998916 0.005259820160999185 0.015205289374453902 0.005209062359104788 0.015267970039685268" fill="none" stroke="none" stroke-width="0"/>
</g><g transform="translate(0.3682223847661872,0.23433369408227894) rotate(0) scale(1,1) translate(-0.004599968736372043,-0.016020138022461605)"><path d="M 0.0039908751136391585 0.01677230600523798 C 0.004041632915533565 0.016709625340006615 0.0047014843401608315 0.015894776691998874 0.004599968736372029 0.016020138022461605 C 0.0047014843401608315 0.015894776691998874 0.005259820160999185 0.015205289374453859 0.005209062359104788 0.015267970039685224" fill="none" stroke="none" stroke-width="0"/>
<path d="M 0.005209062359104788 0.015267970039685224 C 0.005547571623749803 0.01600566990405242 0.010116937883655993 0.025058537322659655 0.009271173534844968 0.024120368412091576 C 0.010116937883655993 0.025058537322659655 0.0158654896290031 0.026726466012703058 0.01535823454483709 0.026525996966502177" fill="none" stroke="#000000" stroke-width="0.001"/>
<path d="M 0.01535823454483709 0.026525996966502177 C 0.015307476742942694 0.026588677631733542 0.014647625318315519 0.02740352627974129 0.014749140922104331 0.02727816494927856 C 0.014647625318315519 0.02740352627974129 0.014089289497476934 0.02809301359728631 0.01414004729937135 0.028030332932054945" fill="none" stroke="#000000" stroke-width="0.001"/>
<path d="M 0.01414004729937135 0.028030332932054945 C 0.013632792215205358 0.02782986388585406 0.007207221940568433 0.02468653546707625 0.008052986289379449 0.02562470437764433 C 0.007207221940568433 0.02468653546707625 0.0036523658489941344 0.016034606140870787 0.0039908751136391585 0.016772306005237984" fill="none" stroke="#000000" stroke-width="0.001"/>
</g></g>
<g transform="translate(0.3682223847661872,0.23433369408227894) rotate(0) scale(1,1) translate(-0.014814031015816116,-0.014814031015816118)"><path d="M 0.014474263132273957 0.013500832149353614 C 0.014570391002574826 0.01352978037544268 0.015770667047946007 0.013949718504702106 0.015627797575884395 0.013848210862422421 C 0.015770667047946007 0.013949718504702106 0.016235438398774032 0.014791483272900462 0.01618869679701329 0.014718923856709844" fill="none" stroke="#000000" stroke-width="0.001"/>
<path d="M 0.01618869679701329 0.014718923856709844 C 0.01618751127505687 0.014764580194056527 0.01616897818212947 0.015357436856785532 0.016174470533536267 0.015266799904870045 C 0.01616897818212947 0.015357436856785532 0.01611848175068134 0.015851547894264496 0.01612278858013172 0.01580656727969569" fill="none" stroke="#000000" stroke-width="0.001"/>
<path d="M 0.01612278858013172 0.01580656727969569 C 0.016002002745050804 0.01578882390870658 0.014493380655616986 0.01560162797503016 0.014673358559160743 0.01559364682782637 C 0.014493380655616986 0.01560162797503016 0.013903861669143805 0.015928065564334095 0.013963053737606645 0.015902341046141192" fill="none" stroke="#000000" stroke-width="0.001"/>
<path d="M 0.013963053737606645 0.015902341046141192 C 0.013931789406722414 0.0157716649850833 0.013630482549884823 0.014134102572047514 0.01358788176699588 0.01433422831344648 C 0.013630482549884823 0.014134102572047514 0.01454812824604713 0.013431382469012541 0.014474263132273957 0.013500832149353614" fill="none" stroke="#000000" stroke-width="0.001"/>
</g></g>
<g id="ヴィオラ">
<g transform="translate(0.3192412770504077,0.24074554420281244) rotate(0) scale(1,1) translate(-0.03532867461186611,-0.032025071400695646)"><path d="M 0.02585838618557706 0.019383194447968485 C 0.02624185718931739 0.019793090218515115 0.03137317311595244 0.02536224593243855 0.030460038230461003 0.024301943694528042 C 0.03137317311595244 0.02536224593243855 0.037345668693225406 0.03275722777025844 0.0368160048114743 0.032106821302894564" fill="none" stroke="#000000" stroke-width="0.001"/>
<path d="M 0.0368160048114743 0.032106821302894564 C 0.0367628199078101 0.03217881292767075 0.03602232037880187 0.03306400159147501 0.036177785967503914 0.03297072080020878 C 0.03602232037880187 0.03306400159147501 0.03484813706201187 0.03324747996457935 0.03495041774704972 0.033226190798089306" fill="none" stroke="#000000" stroke-width="0.001"/>
<path d="M 0.03495041774704972 0.033226190798089306 C 0.03442974960352625 0.03256612678477872 0.027834773250047018 0.02427194905314312 0.02870240002476809 0.0253054226383623 C 0.027834773250047018 0.02427194905314312 0.024191937819199257 0.02045109820355052 0.02453889645039686 0.02082450777545912" fill="none" stroke="#000000" stroke-width="0.001"/>
<path d="M 0.02453889645039686 0.02082450777545912 C 0.0245938751893627 0.020764453053480344 0.025308598795918638 0.019983741667756252 0.025198641317986957 0.020103851111713804 C 0.025308598795918638 0.019983741667756252 0.02591336492454289 0.01932313972598971 0.02585838618557705 0.019383194447968485" fill="none" stroke="#000000" stroke-width="0.001"/>
</g><g transform="translate(0.3554456286069334,0.24074554420281244) rotate(0) scale(1,1) translate(-0.03532867461186611,-0.032025071400695646)"><path d="M 0.044798963038155115 0.019383194447968485 C 0.04485394177712096 0.01944324916994726 0.04556866538367688 0.020223960555671355 0.0454587079057452 0.020103851111713804 C 0.04556866538367688 0.020223960555671355 0.04617343151230114 0.020884562497437895 0.046118452773335296 0.02082450777545912" fill="none" stroke="#000000" stroke-width="0.001"/>
<path d="M 0.046118452773335296 0.02082450777545912 C 0.04577149414213769 0.021197917347367718 0.041087322424242956 0.026338896223581484 0.04195494919896403 0.0253054226383623 C 0.041087322424242956 0.026338896223581484 0.035186263333158885 0.03388625481139989 0.03570693147668236 0.033226190798089306" fill="none" stroke="#000000" stroke-width="0.001"/>
<path d="M 0.03570693147668236 0.033226190798089306 C 0.035604650791644515 0.03320490163159926 0.034324097667526206 0.032877440008942556 0.03447956325622825 0.03297072080020878 C 0.034324097667526206 0.032877440008942556 0.03378815950859363 0.03203482967811838 0.033841344412257834 0.032106821302894564" fill="none" stroke="#000000" stroke-width="0.001"/>
<path d="M 0.033841344412257834 0.032106821302894564 C 0.034371008294008944 0.03145641483553069 0.041110445878762614 0.023241641456617536 0.040197310993271174 0.024301943694528042 C 0.041110445878762614 0.023241641456617536 0.045182434041895446 0.018973298677421854 0.044798963038155115 0.019383194447968485" fill="none" stroke="#000000" stroke-width="0.001"/>
</g><g transform="translate(0.3192412770504077,0.24074554420281244) rotate(0) scale(1,1) translate(-0.02205677125180655,-0.022058180210236485)"><path d="M 0.022800627898434803 0.021610295176888703 C 0.02287304748931344 0.021706137756378977 0.022812808694217118 0.022507519277277562 0.022863217120392496 0.022409293170504236 C 0.022812808694217118 0.022507519277277562 0.022066534908062405 0.022797072797591942 0.022195726784330256 0.022789008458168607 C 0.022066534908062405 0.022797072797591942 0.02123413115508583 0.022415903476234282 0.021312914605178302 0.02250606524358427 C 0.02123413115508583 0.022415903476234282 0.021307097668609817 0.02160316033105513 0.021250325383220605 0.02170706724996874 C 0.021307097668609817 0.02160316033105513 0.022123373906116704 0.021251117877197617 0.021994182029848854 0.021259182216620952 C 0.022123373906116704 0.021251117877197617 0.02287304748931344 0.021706137756378977 0.022800627898434803 0.021610295176888703 Z" fill="#cccccc" stroke="#000000" stroke-width="0.001"/>
</g><g transform="translate(0.3554456286069334,0.24074554420281244) rotate(0) scale(1,1) translate(-0.02205677125180655,-0.022058180210236485)"><path d="M 0.02211936047376417 0.021259182216620952 C 0.022248552350032025 0.021267246556044287 0.022919989405781622 0.02181097416888235 0.02286321712039241 0.02170706724996874 C 0.022919989405781622 0.02181097416888235 0.02272184444834226 0.022596227010934257 0.022800627898434733 0.02250606524358427 C 0.02272184444834226 0.022596227010934257 0.021788623843014897 0.02278094411874527 0.02191781571928275 0.022789008458168607 C 0.021788623843014897 0.02278094411874527 0.021199916957045085 0.02231106706373091 0.02125032538322047 0.022409293170504236 C 0.021199916957045085 0.02231106706373091 0.021385334196056788 0.02151445259739843 0.021312914605178146 0.021610295176888703 C 0.021385334196056788 0.02151445259739843 0.022248552350032025 0.021267246556044287 0.02211936047376417 0.021259182216620952 Z" fill="#cccccc" stroke="#000000" stroke-width="0.001"/>
</g><g id="金具左">
<g transform="translate(0.32764182991573976,0.24761181179911745) rotate(0) scale(1,1) translate(-0.011152769902399133,-0.011144026453877348)"><path d="M 0.011743976271473264 0.010296635905793506 C 0.011800837143762006 0.010355490304270739 0.01254002848351565 0.011120597484474765 0.012426306738938166 0.0110028886875203 C 0.01254002848351565 0.011120597484474765 0.013165498078691804 0.011767995867724321 0.013108637206403062 0.011709141469247088" fill="none" stroke="#000000" stroke-width="0.001"/>
<path d="M 0.013108637206403062 0.011709141469247088 C 0.013094328984719012 0.011728740065220148 0.012908322102826357 0.011983521812869918 0.012936938546194458 0.0119443246209238 C 0.012908322102826357 0.011983521812869918 0.012750931664301803 0.012199106368573569 0.012765239885985854 0.012179507772600509" fill="none" stroke="#000000" stroke-width="0.001"/>
<path d="M 0.012765239885985854 0.012179507772600509 C 0.012708379013697112 0.012120653374123276 0.01196918767394347 0.011355546193919257 0.012082909418520953 0.011473254990873722 C 0.01196918767394347 0.011355546193919257 0.011343718078767313 0.010708147810669696 0.011400578951056055 0.010767002209146928" fill="none" stroke="#000000" stroke-width="0.001"/>
<path d="M 0.011400578951056055 0.010767002209146928 C 0.011414887172740106 0.010747403613173868 0.01160089405463276 0.0104926218655241 0.01157227761126466 0.010531819057470217 C 0.01160089405463276 0.0104926218655241 0.011758284493157314 0.010277037309820446 0.011743976271473264 0.010296635905793506" fill="none" stroke="#000000" stroke-width="0.001"/>
</g><g transform="translate(0.32764182991573976,0.24761181179911745) rotate(0) scale(1,1) translate(-0.011152769902399133,-0.01102745936546983)"><path d="M 0.010827455531698072 0.011423407952651397 C 0.01088344509923614 0.01148343498924375 0.011611309477231015 0.012263786464944337 0.011499330342154881 0.012143732391759633 C 0.011611309477231015 0.012263786464944337 0.012227194720149753 0.012924083867460209 0.012171205152611686 0.012864056830867858" fill="none" stroke="#000000" stroke-width="0.001"/>
<path d="M 0.012171205152611686 0.012864056830867858 C 0.012156611848307807 0.012883355108729524 0.011966898892357386 0.013134232720931194 0.011996085500965143 0.01309563616520786 C 0.011966898892357386 0.013134232720931194 0.01180637254501472 0.013346513777409532 0.011820965849318599 0.013327215499547865" fill="none" stroke="#000000" stroke-width="0.001"/>
<path d="M 0.011820965849318599 0.013327215499547865 C 0.011764976281780531 0.013267188462955512 0.011037111903785658 0.012486836987254932 0.011149091038861792 0.012606891060439636 C 0.011037111903785658 0.012486836987254932 0.010421226660866917 0.01182653958473905 0.010477216228404985 0.011886566621331402" fill="none" stroke="#000000" stroke-width="0.001"/>
<path d="M 0.010477216228404985 0.011886566621331402 C 0.010491809532708864 0.011867268343469736 0.010681522488659285 0.011616390731268068 0.010652335880051529 0.011654987286991401 C 0.010681522488659285 0.011616390731268068 0.010842048836001952 0.01140410967478973 0.010827455531698072 0.011423407952651397" fill="none" stroke="#000000" stroke-width="0.001"/>
</g></g>
<g id="金具右">
<g transform="translate(0.3470450757416014,0.24761181179911743) rotate(0) scale(1,1) translate(-0.011152769902399133,-0.011144026453877348)"><path d="M 0.010561563533324936 0.010296635905793506 C 0.010575871755008986 0.010316234501766566 0.010761878636901645 0.010571016249416336 0.010733262193533544 0.010531819057470217 C 0.010761878636901645 0.010571016249416336 0.010919269075426202 0.010786600805119988 0.010904960853742152 0.010767002209146928" fill="none" stroke="#000000" stroke-width="0.001"/>
<path d="M 0.010904960853742152 0.010767002209146928 C 0.01084809998145341 0.010825856607624161 0.010108908641699757 0.011590963787828187 0.010222630386277243 0.011473254990873722 C 0.010108908641699757 0.011590963787828187 0.009483439046523592 0.012238362171077741 0.009540299918812334 0.012179507772600509" fill="none" stroke="#000000" stroke-width="0.001"/>
<path d="M 0.009540299918812334 0.012179507772600509 C 0.009525991697128283 0.012159909176627449 0.009339984815235625 0.011905127428977681 0.009368601258603726 0.0119443246209238 C 0.009339984815235625 0.011905127428977681 0.009182594376711067 0.011689542873274028 0.009196902598395118 0.011709141469247088" fill="none" stroke="#000000" stroke-width="0.001"/>
<path d="M 0.009196902598395118 0.011709141469247088 C 0.00925376347068386 0.011650287070769856 0.009992954810437512 0.010885179890565835 0.009879233065860027 0.0110028886875203 C 0.009992954810437512 0.010885179890565835 0.010618424405613678 0.010237781507316274 0.010561563533324936 0.010296635905793506" fill="none" stroke="#000000" stroke-width="0.001"/>
</g><g transform="translate(0.3470450757416014,0.24761181179911743) rotate(0) scale(1,1) translate(-0.011152769902399133,-0.01102745936546983)"><path d="M 0.011478084273100153 0.011423407952651397 C 0.011492677577404029 0.011442706230513064 0.011682390533354422 0.011693583842714735 0.011653203924746669 0.011654987286991401 C 0.011682390533354422 0.011693583842714735 0.01184291688069706 0.01190586489919307 0.011828323576393185 0.011886566621331402" fill="none" stroke="#000000" stroke-width="0.001"/>
<path d="M 0.011828323576393185 0.011886566621331402 C 0.011772334008855126 0.011946593657923756 0.011044469630860337 0.01272694513362434 0.011156448765936466 0.012606891060439636 C 0.011044469630860337 0.01272694513362434 0.010428584387941567 0.013387242536140218 0.010484573955479637 0.013327215499547865" fill="none" stroke="#000000" stroke-width="0.001"/>
<path d="M 0.010484573955479637 0.013327215499547865 C 0.010469980651175761 0.013307917221686198 0.010280267695225359 0.013057039609484527 0.010309454303833121 0.01309563616520786 C 0.010280267695225359 0.013057039609484527 0.010119741347882608 0.01284475855300619 0.010134334652186494 0.012864056830867858" fill="none" stroke="#000000" stroke-width="0.001"/>
<path d="M 0.010134334652186494 0.012864056830867858 C 0.010190324219724564 0.012804029794275506 0.010918188597719461 0.012023678318574928 0.010806209462643324 0.012143732391759633 C 0.010918188597719461 0.012023678318574928 0.011534073840638223 0.011363380916059044 0.011478084273100153 0.011423407952651397" fill="none" stroke="#000000" stroke-width="0.001"/>
</g></g>
</g>
<g id="染み">
<g transform="translate(0.3373434528286706,0.2640980677079408) rotate(0) scale(1,1) translate(-0.004497166424359802,-0.004497166424359803)"><path d="M -0.000267377627597293 0.003922641895474402 C -0.00024794440999314213 0.0038440582234035006 0.00013278893964297996 0.002514128989657632 -3.4179016347482476E-05 0.0029796378306235836 C 0.00013278893964297996 0.002514128989657632 0.0021138499643471964 -0.002298476800135402 0.001736237844288256 -0.0016634641961170188 C 0.0021138499643471964 -0.002298476800135402 0.0049573211877050605 -0.004640513417597017 0.004497166424359802 -0.004640513417597017 C 0.0049573211877050605 -0.004640513417597017 0.007635707124490299 -0.0010284515920986376 0.007258095004431359 -0.001663464196117021 C 0.007635707124490299 -0.0010284515920986376 0.009195479821057544 0.0034451466715895336 0.009028511865067085 0.002979637830623582 C 0.009195479821057544 0.0034451466715895336 0.009281143693921029 0.004001225567545304 0.00926171047631688 0.003922641895474402" fill="none" stroke="none" stroke-width="0"/>
<path d="M 0.00926171047631688 0.003922641895474402 C 0.0091443640366545 0.004657209127047932 0.007842747494387514 0.01407321043197703 0.00785355320036832 0.012737448674356753 C 0.007842747494387514 0.01407321043197703 0.00923858273822879 0.02055297751296447 0.009132042004547215 0.019951782986917722" fill="none" stroke="none" stroke-width="0"/>
<path d="M 0.009132042004547215 0.019951782986917722 C 0.00874580237286493 0.01978033520511335 0.0037246871609952375 0.01789440960526526 0.004497166424359803 0.01789440960526526 C 0.0037246871609952375 0.01789440960526526 -0.0005239487875098529 0.020123230768722095 -0.0001377091558275717 0.019951782986917722" fill="none" stroke="none" stroke-width="0"/>
<path d="M -0.0001377091558275717 0.019951782986917722 C -3.116842214599813E-05 0.019350588460870975 0.0011299739423705011 0.011401686916736476 0.0011407796483513112 0.012737448674356753 C 0.0011299739423705011 0.011401686916736476 -0.00038472406725967713 0.0031880746639008748 -0.00026737762759729343 0.003922641895474404" fill="none" stroke="none" stroke-width="0"/>
</g><g transform="translate(0.3373434528286706,0.2640980677079408) rotate(0) scale(1,1) translate(-0.04892744984382835,-0.04892744984382835)"><path d="M 0.05126009061412293 0.0416868610572782 C 0.05153788514836385 0.04227963897427703 0.05227254699112667 0.047149777395544 0.05226098425471938 0.04643804343005105 C 0.05227254699112667 0.047149777395544 0.0511210489167695 0.050691753303979244 0.05139884345101042 0.050227668643193564 C 0.0511210489167695 0.050691753303979244 0.048515550909298 0.052007059359479205 0.048927449843828345 0.052007059359479205 C 0.048515550909298 0.052007059359479205 0.046178261702405354 0.049763583982407884 0.046456056236646275 0.050227668643193564 C 0.046178261702405354 0.049763583982407884 0.0456054781693446 0.0457263094645581 0.04559391543293731 0.04643804343005105 C 0.0456054781693446 0.0457263094645581 0.04687260360777468 0.04109408314027938 0.046594809073533756 0.04168686105727821 C 0.04687260360777468 0.04109408314027938 0.04931622330554411 0.039324708426065114 0.048927449843828345 0.039324708426065114 C 0.04931622330554411 0.039324708426065114 0.05153788514836385 0.04227963897427703 0.05126009061412293 0.0416868610572782 Z" fill="#cccccc" stroke="none" stroke-width="0"/>
</g></g>
</svg>
