<?xml version="1.0" encoding="UTF-8"?>
<svg xmlns="http://www.w3.org/2000/svg" viewBox="0 0 1 1">
<g transform="translate(0.13279710446803486,0.1715494882341176) rotate(0) scale(1,1) translate(-0.3798670310818438,-0.379867031081844)"><path d="M 0.36540479439067314 0.3620025235633408 C 0.3651777307589243 0.3618896780143132 0.36237332487086155 0.3603342382185283 0.362680030809687 0.36064837697500995 C 0.36237332487086155 0.3603342382185283 0.3617369819687679 0.35788051336166926 0.3617243231247676 0.358232858485561 C 0.3617369819687679 0.35788051336166926 0.3630964196224778 0.35622807756988983 0.3628319369376907 0.35642023548830865 C 0.3630964196224778 0.35622807756988983 0.36523712726619956 0.3560238048196276 0.3648981153422122 0.3559269634645351 C 0.36523712726619956 0.3560238048196276 0.3671040663895388 0.357971100645469 0.36690008002553887 0.357582331749418 C 0.3671040663895388 0.357971100645469 0.3673831076839338 0.3608430117561247 0.3673459517102111 0.3605921902171473" fill="none" stroke="none" stroke-width="0"/>
<path d="M 0.3673459517102111 0.3605921902171473 C 0.36787513362354496 0.3606157547645657 0.3746395828511043 0.3605684198898228 0.37369613467021706 0.36087496478616815 C 0.3746395828511043 0.3605684198898228 0.37908159614841136 0.3565835420172395 0.37866732988085794 0.35691365146100323" fill="none" stroke="none" stroke-width="0"/>
<path d="M 0.37866732988085794 0.35691365146100323 C 0.3785499604934739 0.3566888928400264 0.37719541304369714 0.3537821271890637 0.37725889723224926 0.3542165480092813 C 0.37719541304369714 0.3537821271890637 0.37812286410569873 0.3514229891070926 0.37790551961823254 0.35170060161839173 C 0.37812286410569873 0.3514229891070926 0.3801939496591118 0.3508851978736915 0.37986703108184333 0.3508851978736915 C 0.3801939496591118 0.3508851978736915 0.3820458870329202 0.3519782141296909 0.38182854254545406 0.35170060161839173 C 0.3820458870329202 0.3519782141296909 0.3824116807428851 0.35465096882949876 0.38247516493143724 0.35421654800928115 C 0.3824116807428851 0.35465096882949876 0.38094936289544423 0.3571384100819798 0.38106673228282834 0.35691365146100296" fill="none" stroke="none" stroke-width="0"/>
<path d="M 0.38106673228282834 0.35691365146100296 C 0.38148099855038176 0.3572437609047668 0.3869813756743568 0.36118150968251417 0.38603792749346955 0.36087496478616876 C 0.3869813756743568 0.36118150968251417 0.39291729236680917 0.3605686256697293 0.3923881104534753 0.3605921902171477" fill="none" stroke="none" stroke-width="0"/>
<path d="M 0.3923881104534753 0.3605921902171477 C 0.392425266427198 0.36034136867817024 0.39303796850214723 0.35719356285336656 0.3928339821381473 0.3575823317494176 C 0.39303796850214723 0.35719356285336656 0.39517495874546166 0.3558301221094424 0.3948359468214743 0.35592696346453484 C 0.39517495874546166 0.3558301221094424 0.3971666079107825 0.3566123934067273 0.39690212522599544 0.3564202354883084 C 0.3971666079107825 0.3566123934067273 0.3980223978829192 0.358585203609453 0.39800973903891884 0.35823285848556125 C 0.3980223978829192 0.358585203609453 0.39674732541517416 0.36096251573149124 0.3970540313539996 0.3606483769750096 C 0.39674732541517416 0.36096251573149124 0.39410220414126484 0.36211536911236836 0.3943292677730137 0.3620025235633408" fill="none" stroke="none" stroke-width="0"/>
<path d="M 0.3943292677730137 0.3620025235633408 C 0.39447038276097385 0.3625130873159395 0.39660573067094784 0.3689318335522352 0.3960226476285353 0.3681292885945252 C 0.39660573067094784 0.3689318335522352 0.40176823233641645 0.37192504426097217 0.40132626428196405 0.37163306305586086" fill="none" stroke="none" stroke-width="0"/>
<path d="M 0.40132626428196405 0.37163306305586086 C 0.40150375329771654 0.3714519839016615 0.4038496735297391 0.369265492738107 0.4034561324709936 0.3694601132054688 C 0.4038496735297391 0.369265492738107 0.40637994531504723 0.36941853735476216 0.40604875698691034 0.36929761744751916 C 0.40637994531504723 0.36941853735476216 0.40753141580478913 0.37122207013559355 0.40743039240863627 0.37091115209238446 C 0.40753141580478913 0.37122207013559355 0.4070641756931292 0.37332112784095656 0.4072610377407445 0.3730286339660285 C 0.4070641756931292 0.37332112784095656 0.4046352713922334 0.37449494495647495 0.4050680478372523 0.37442107859152157 C 0.4046352713922334 0.37449494495647495 0.40181769311412274 0.37387285965829803 0.4020677204005173 0.3739150303454691" fill="none" stroke="none" stroke-width="0"/>
<path d="M 0.4020677204005173 0.3739150303454691 C 0.4018817829798055 0.37441103040683366 0.3998364713519751 0.38085903120457354 0.3998364713519751 0.3798670310818443 C 0.3998364713519751 0.38085903120457354 0.40225365782122885 0.3863150318795846 0.402067720400517 0.38581903181821997" fill="none" stroke="none" stroke-width="0"/>
<path d="M 0.402067720400517 0.38581903181821997 C 0.4023177476869116 0.3857768611310489 0.40550082428227097 0.3853868499371203 0.40506804783725203 0.38531298357216703 C 0.40550082428227097 0.3853868499371203 0.40745789978835956 0.3869979220725875 0.40726103774074424 0.3867054281976594 C 0.40745789978835956 0.3869979220725875 0.4073293690124833 0.38913382811451297 0.4074303924086361 0.3888229100713039 C 0.4073293690124833 0.38913382811451297 0.4057175686587737 0.3905573646234116 0.4060487569869105 0.3904364447161686 C 0.4057175686587737 0.3905573646234116 0.4030625914122483 0.3900793284908579 0.4034561324709939 0.39027394895821965 C 0.4030625914122483 0.3900793284908579 0.4011487752662112 0.38791991995362873 0.4013262642819637 0.388100999107828" fill="none" stroke="none" stroke-width="0"/>
<path d="M 0.4013262642819637 0.388100999107828 C 0.4008842962275113 0.3883929803129393 0.39543956458612256 0.39240731852687305 0.3960226476285351 0.39160477356916307 C 0.39543956458612256 0.39240731852687305 0.39418815278505315 0.3982421023529465 0.3943292677730133 0.39773153860034777" fill="none" stroke="none" stroke-width="0"/>
<path d="M 0.3943292677730133 0.39773153860034777 C 0.3945563314047622 0.39784438414937534 0.3973607372928253 0.39939982394516044 0.3970540313539998 0.3990856851886788 C 0.3973607372928253 0.39939982394516044 0.3979970801949188 0.4018535488020191 0.3980097390389191 0.40150120367812736 C 0.3979970801949188 0.4018535488020191 0.3966376425412087 0.40350598459379877 0.39690212522599577 0.40331382667537996 C 0.3966376425412087 0.40350598459379877 0.394496934897487 0.4037102573440609 0.3948359468214743 0.4038070986991534 C 0.394496934897487 0.4037102573440609 0.3926299957741477 0.40176296151821955 0.39283398213814763 0.4021517304142706 C 0.3926299957741477 0.40176296151821955 0.39235095447975243 0.39889105040756345 0.39238811045347516 0.39914187194654094" fill="none" stroke="none" stroke-width="0"/>
<path d="M 0.39238811045347516 0.39914187194654094 C 0.3918589285401413 0.3991183073991225 0.3850944793125821 0.3991656422738653 0.3860379274934693 0.39885909737751996 C 0.3850944793125821 0.3991656422738653 0.38065246601527497 0.40315052014644925 0.3810667322828284 0.4028204107026855" fill="none" stroke="none" stroke-width="0"/>
<path d="M 0.3810667322828284 0.4028204107026855 C 0.38118410167021244 0.4030451693236623 0.3825386491199894 0.4059519349746249 0.38247516493143724 0.4055175141544073 C 0.3825386491199894 0.4059519349746249 0.38161119805798815 0.4083110730565957 0.3818285425454543 0.40803346054529654 C 0.38161119805798815 0.4083110730565957 0.3795401125045749 0.408848864289997 0.3798670310818434 0.408848864289997 C 0.3795401125045749 0.408848864289997 0.3776881751307663 0.4077558480339977 0.37790551961823243 0.4080334605452969 C 0.3776881751307663 0.4077558480339977 0.37732238142080166 0.40508309333418974 0.37725889723224953 0.4055175141544074 C 0.37732238142080166 0.40508309333418974 0.3787846992682416 0.40259565208170833 0.3786673298808576 0.4028204107026852" fill="none" stroke="none" stroke-width="0"/>
<path d="M 0.3786673298808576 0.4028204107026852 C 0.37825306361330424 0.40249030125892143 0.3727526864893299 0.39855255248117444 0.3736961346702171 0.3988590973775198 C 0.3727526864893299 0.39855255248117444 0.3668167697968773 0.3991654364939592 0.3673459517102111 0.39914187194654077" fill="none" stroke="none" stroke-width="0"/>
<path d="M 0.3673459517102111 0.39914187194654077 C 0.36730879573648845 0.39939269348551826 0.36669609366153894 0.40254049931032165 0.36690008002553887 0.40215173041427066 C 0.36669609366153894 0.40254049931032165 0.3645591034182246 0.40390394005424546 0.36489811534221195 0.40380709869915304 C 0.3645591034182246 0.40390394005424546 0.3625674542529037 0.40312166875696104 0.3628319369376907 0.40331382667537985 C 0.3625674542529037 0.40312166875696104 0.3617116642807671 0.4011488585542352 0.36172432312476743 0.401501203678127 C 0.3617116642807671 0.4011488585542352 0.3629867367485123 0.39877154643219664 0.3626800308096868 0.39908568518867826 C 0.3629867367485123 0.39877154643219664 0.3656318580224218 0.39761869305131986 0.36540479439067297 0.39773153860034743" fill="none" stroke="none" stroke-width="0"/>
<path d="M 0.36540479439067297 0.39773153860034743 C 0.3652636794027128 0.39722097484774876 0.3631283314927385 0.3908022286114531 0.36371141453515105 0.39160477356916307 C 0.3631283314927385 0.3908022286114531 0.3579658298272699 0.38780901790271644 0.3584077978817223 0.3881009991078277" fill="none" stroke="none" stroke-width="0"/>
<path d="M 0.3584077978817223 0.3881009991078277 C 0.3582303088659698 0.388282078262027 0.3558843886339472 0.39046856942558084 0.35627792969269273 0.3902739489582191 C 0.3558843886339472 0.39046856942558084 0.3533541168486393 0.3903155248089259 0.35368530517677615 0.39043644471616884 C 0.3533541168486393 0.3903155248089259 0.35220264635889775 0.3885119920280945 0.35230366975505056 0.3888229100713036 C 0.35220264635889775 0.3885119920280945 0.3526698864705575 0.3864129343227315 0.3524730244229422 0.3867054281976596 C 0.3526698864705575 0.3864129343227315 0.3550987907714537 0.3852391172072136 0.35466601432643474 0.3853129835721669 C 0.3550987907714537 0.3852391172072136 0.35791636904956387 0.3858612025053905 0.3576663417631693 0.38581903181821947" fill="none" stroke="none" stroke-width="0"/>
<path d="M 0.3576663417631693 0.38581903181821947 C 0.35785227918388113 0.38532303175685484 0.3598975908117114 0.3788750309591148 0.3598975908117114 0.379867031081844 C 0.3598975908117114 0.3788750309591148 0.35748040434245776 0.37341903028410417 0.3576663417631696 0.37391503034546875" fill="none" stroke="none" stroke-width="0"/>
<path d="M 0.3576663417631696 0.37391503034546875 C 0.357416314476775 0.37395720103263985 0.35423323788141564 0.3743472122265685 0.35466601432643463 0.37442107859152185 C 0.35423323788141564 0.3743472122265685 0.35227616237532644 0.3727361400911011 0.3524730244229418 0.3730286339660292 C 0.35227616237532644 0.3727361400911011 0.3524046931512032 0.37060023404917597 0.35230366975505034 0.3709111520923851 C 0.3524046931512032 0.37060023404917597 0.35401649350491293 0.36917669754027665 0.3536853051767761 0.36929761744751965 C 0.35401649350491293 0.36917669754027665 0.35667147075143796 0.3696547336728307 0.35627792969269245 0.36946011320546895 C 0.35667147075143796 0.3696547336728307 0.35858528689747493 0.37181414221005965 0.35840779788172245 0.37163306305586036" fill="none" stroke="none" stroke-width="0"/>
<path d="M 0.35840779788172245 0.37163306305586036 C 0.35884976593617485 0.3713410818507491 0.36429449757756366 0.3673267436368152 0.3637114145351511 0.3681292885945252 C 0.36429449757756366 0.3673267436368152 0.3655459093786333 0.36149195981074206 0.36540479439067314 0.3620025235633408" fill="none" stroke="none" stroke-width="0"/>
</g><g transform="translate(0.13279710446803433,0.1905415545297935) rotate(0) scale(1,1) translate(-0.09500000000000003,-0.0959079831688285)"><path d="M 0.09888908729652604 0.0959079831688285 C 0.09883075098707815 0.09605503869269783 0.09813071527370346 0.09796676050299906 0.09818905158315135 0.09767264945526041 C 0.09813071527370346 0.09796676050299906 0.09824738789259924 0.0997695732239173 0.09818905158315135 0.09943731574169232 C 0.09824738789259924 0.0997695732239173 0.09894742360597393 0.10184494120031583 0.09888908729652604 0.10165973924196017" fill="none" stroke="none" stroke-width="0"/>
<path d="M 0.09888908729652604 0.10165973924196017 C 0.09879416335514887 0.10188890590862684 0.0974259093919562 0.10473382985000401 0.09775000000000003 0.10440973924196018 C 0.0974259093919562 0.10473382985000401 0.09454166666666669 0.10554882653848618 0.09500000000000003 0.10554882653848618 C 0.09454166666666669 0.10554882653848618 0.09192590939195619 0.10408564863391634 0.09225000000000003 0.10440973924196018 C 0.09192590939195619 0.10408564863391634 0.09101598876209685 0.1014305725752935 0.09111091270347402 0.10165973924196017" fill="none" stroke="none" stroke-width="0"/>
<path d="M 0.09111091270347402 0.10165973924196017 C 0.09116924901292191 0.10147453728360452 0.09186928472629659 0.09910505825946733 0.0918109484168487 0.09943731574169232 C 0.09186928472629659 0.09910505825946733 0.09175261210740081 0.09737853840752177 0.0918109484168487 0.09767264945526041 C 0.09175261210740081 0.09737853840752177 0.09105257639402613 0.09576092764495917 0.09111091270347402 0.0959079831688285" fill="none" stroke="none" stroke-width="0"/>
</g><g transform="translate(0.12163384798887514,0.18691439262561504) rotate(0) scale(1,1) translate(-0.09500000000000003,-0.08152714424032358)"><path d="M 0.09733345237791563 0.08212571926673257 C 0.0972984505922469 0.08220239878505547 0.0968784291642221 0.0832574458311501 0.09691343094989083 0.08304587348660744 C 0.0968784291642221 0.0832574458311501 0.09694843273555956 0.08492522340600286 0.09691343094989083 0.08466458740124454 C 0.09694843273555956 0.08492522340600286 0.09736845416358436 0.08629924872224598 0.09733345237791563 0.08617350554370741" fill="none" stroke="none" stroke-width="0"/>
<path d="M 0.09733345237791563 0.08617350554370741 C 0.09727649801308932 0.08631100554370741 0.09645554563517372 0.08801795990853371 0.09665000000000003 0.08782350554370741 C 0.09645554563517372 0.08801795990853371 0.09472500000000003 0.08850695792162303 0.09500000000000003 0.08850695792162303 C 0.09472500000000003 0.08850695792162303 0.09315554563517373 0.0876290511788811 0.09335000000000003 0.08782350554370741 C 0.09315554563517373 0.0876290511788811 0.09260959325725812 0.08603600554370741 0.09266654762208443 0.08617350554370741" fill="none" stroke="none" stroke-width="0"/>
<path d="M 0.09266654762208443 0.08617350554370741 C 0.09270154940775316 0.08604776236516884 0.09312157083577796 0.08440395139648621 0.09308656905010923 0.08466458740124454 C 0.09312157083577796 0.08440395139648621 0.0930515672644405 0.08278441988986403 0.09308656905010923 0.08304587348660744 C 0.0930515672644405 0.08278441988986403 0.0926315458364157 0.08140058346979992 0.09266654762208443 0.08152714424032358" fill="none" stroke="none" stroke-width="0"/>
</g></svg>
