<?xml version="1.0" encoding="UTF-8"?>
<svg xmlns="http://www.w3.org/2000/svg" viewBox="0 0 1 1">
<g transform="translate(0.3373434528286706,0.2718577331237974) rotate(0) scale(1,1) translate(-0.04650436568689439,-0.044263044861705014)"><path d="M 0.04719790218630142 0.04377254214834438 C 0.047311976141117686 0.0438575797999273 0.047912284260168365 0.04463464954789297 0.04787325314468956 0.0445267716431456 C 0.047912284260168365 0.04463464954789297 0.04764063491709206 0.04519790247765472 0.047666275572047015 0.045067077005312886 C 0.04764063491709206 0.04519790247765472 0.0475890605042665 0.046254642159678394 0.04756556528523016 0.04609667731124763 C 0.0475890605042665 0.046254642159678394 0.04809534541413014 0.04713315759565517 0.04794821820048304 0.04696265518648213 C 0.04809534541413014 0.04713315759565517 0.04942997283509652 0.04839940742663381 0.04933109184899532 0.048142706221324216 C 0.04942997283509652 0.04839940742663381 0.049460616564021426 0.05036771589420819 0.04913479003369751 0.05004306965019727 C 0.049460616564021426 0.05036771589420819 0.05357189524672985 0.05257258823257967 0.053241010212882314 0.05203846114945526 C 0.05357189524672985 0.05257258823257967 0.052544023396035686 0.05698565208135864 0.05310541043986801 0.056452594647690105 C 0.052544023396035686 0.05698565208135864 0.045404191561398806 0.05843515035347771 0.04650436568689441 0.05843515035347771 C 0.045404191561398806 0.05843515035347771 0.039341933890088485 0.05591953721402157 0.03990332093392081 0.056452594647690105 C 0.039341933890088485 0.05591953721402157 0.04009860619475404 0.051504334066330856 0.0397677211609065 0.05203846114945526 C 0.04009860619475404 0.051504334066330856 0.044199767870415206 0.049718423406186346 0.043873941340091295 0.05004306965019727 C 0.044199767870415206 0.049718423406186346 0.04377652051089465 0.04788600501601462 0.04367763952479345 0.048142706221324216 C 0.04377652051089465 0.04788600501601462 0.04520764038695284 0.04679215277730908 0.04506051317330574 0.04696265518648213 C 0.04520764038695284 0.04679215277730908 0.045466661307594955 0.04593871246281686 0.04544316608855862 0.04609667731124763 C 0.045466661307594955 0.04593871246281686 0.045316815146786815 0.04493625153297105 0.04534245580174177 0.045067077005312886 C 0.045316815146786815 0.04493625153297105 0.04517450934457803 0.044418893738398225 0.045135478229099225 0.0445267716431456 C 0.04517450934457803 0.044418893738398225 0.04592490314230363 0.04368750449676147 0.04581082918748736 0.04377254214834438 C 0.04592490314230363 0.04368750449676147 0.04661995510346222 0.043506319824150576 0.04650436568689439 0.043506319824150576 C 0.04661995510346222 0.043506319824150576 0.047311976141117686 0.0438575797999273 0.04719790218630142 0.04377254214834438 Z" fill="#cccccc" stroke="#000000" stroke-width="0.001"/>
</g></svg>
