<?xml version="1.0" encoding="UTF-8"?>
<svg xmlns="http://www.w3.org/2000/svg" viewBox="0 0 1 1">
<g transform="translate(0.33734345282867084,0.21402334173156035) rotate(0) scale(1,1) translate(-0.5001099674872155,-0.5377754570749748)"><path d="M 0.5210240103278385 0.5345110932519298 C 0.5210863245468927 0.5347481303055075 0.5222172201511259 0.5380305949316562 0.5217717809564894 0.5373555378948628 C 0.5222172201511259 0.5380305949316562 0.5270306164966576 0.5435538164781134 0.526369280663478 0.5426117776934505 C 0.5270306164966576 0.5435538164781134 0.5299860218122413 0.5491640221122648 0.5297078109546441 0.5486600033108175" fill="none" stroke="#000000" stroke-width="0.001"/>
<path d="M 0.5297078109546441 0.5486600033108175 C 0.5282792831981562 0.5493940780888718 0.5107195188553324 0.5589993009987247 0.5125654778767885 0.5574689006474683 C 0.5107195188553324 0.5589993009987247 0.5071388714322025 0.5678211330990965 0.5075563026971707 0.5670248075258943" fill="none" stroke="#000000" stroke-width="0.001"/>
<path d="M 0.5075563026971707 0.5670248075258943 C 0.5063152468288449 0.5647377617722474 0.4988882560188683 0.547152484769733 0.5001099674872158 0.5533025330040131 C 0.4988882560188683 0.547152484769733 0.500245378287064 0.5262615156395802 0.5002260338870856 0.5301245181202136" fill="none" stroke="#000000" stroke-width="0.001"/>
<path d="M 0.499993901087347 0.5301245181202136 C 0.5000132454873252 0.5339875206008469 0.4988882560188681 0.5594525812382932 0.5001099674872158 0.5533025330040131 C 0.4988882560188681 0.5594525812382932 0.4914225764089347 0.5693118532795413 0.49266363227726057 0.5670248075258943" fill="none" stroke="#000000" stroke-width="0.001"/>
<path d="M 0.49266363227726057 0.5670248075258943 C 0.4922462010122924 0.5662284819526922 0.4858084980761861 0.555938500296212 0.4876544570976422 0.5574689006474683 C 0.4858084980761861 0.555938500296212 0.469083596263299 0.5479259285327633 0.4705121240197869 0.5486600033108175" fill="none" stroke="#000000" stroke-width="0.001"/>
<path d="M 0.4705121240197869 0.5486600033108175 C 0.4707903348773841 0.5481559845093703 0.47451199014413264 0.5416697389087876 0.4738506543109531 0.5426117776934505 C 0.47451199014413264 0.5416697389087876 0.47889359321257835 0.5366804808580694 0.4784481540179417 0.5373555378948628 C 0.47889359321257835 0.5366804808580694 0.47925823886564684 0.5342740561983521 0.4791959246465926 0.5345110932519298" fill="none" stroke="#000000" stroke-width="0.001"/>
<path d="M 0.4791959246465926 0.5345110932519298 C 0.47939998810869827 0.5337232175992235 0.48249911183470134 0.5237675461093361 0.48164468619186074 0.5250565854194544 C 0.48249911183470134 0.5237675461093361 0.4909878058019596 0.518358019243031 0.48944903236068005 0.5190426215305095 C 0.4909878058019596 0.518358019243031 0.5018867900083047 0.5168413579697132 0.5001099674872155 0.5168413579697132 C 0.5018867900083047 0.5168413579697132 0.5123096760550305 0.519727223817988 0.5107709026137509 0.5190426215305095 C 0.5123096760550305 0.519727223817988 0.5194296744254109 0.5263456247295728 0.5185752487825702 0.5250565854194544 C 0.5194296744254109 0.5263456247295728 0.5212280737899442 0.5352989689046361 0.5210240103278385 0.5345110932519298" fill="none" stroke="#000000" stroke-width="0.001"/>
</g><g id="縁">
<g transform="translate(0.33590777139045536,0.2158389949973305) rotate(0) scale(1,1) translate(-0.028511229159074506,-0.028511229159074506)"><path d="M 0.02760394387401366 0.013961015874304084 C 0.027696218841845262 0.013961015874304084 0.028908002033618138 0.013961015874304084 0.028711243487992907 0.013961015874304084 C 0.028908002033618138 0.013961015874304084 0.03006952999931006 0.013961015874304084 0.02996504642151643 0.013961015874304084" fill="none" stroke="#000000" stroke-width="0.001"/>
<path d="M 0.02996504642151643 0.013961015874304084 C 0.02996800896974141 0.014941416406775333 0.02999753636433292 0.028079832723790794 0.030000597000216178 0.025725822263959062 C 0.02999753636433292 0.028079832723790794 0.029739264623078108 0.044211779411854495 0.02992831879091734 0.04220914139228485 C 0.029739264623078108 0.044211779411854495 0.027098383863075226 0.05101892270873885 0.02773194698614538 0.04975747849879479 C 0.027098383863075226 0.05101892270873885 0.02187502917473634 0.05797888802934844 0.0223255613140755 0.057346471911613545" fill="none" stroke="#000000" stroke-width="0.001"/>
<path d="M 0.0223255613140755 0.057346471911613545 C 0.022307759251035297 0.05723530249015347 0.022068199948261334 0.05576836879270777 0.022111936557593057 0.056012438854092655 C 0.022068199948261334 0.05576836879270777 0.021774787455803322 0.05428473053507018 0.02180072200209484 0.054417631174994985" fill="none" stroke="#000000" stroke-width="0.001"/>
<path d="M 0.02180072200209484 0.054417631174994985 C 0.022140304516818553 0.053909830311780794 0.026368461975518072 0.04725289200477667 0.025875712178779403 0.04832402081642473 C 0.026368461975518072 0.04725289200477667 0.027860701419120015 0.039680902222512845 0.027713719562958847 0.04156408543521832 C 0.027860701419120015 0.039680902222512845 0.027630346478634642 0.023425566467216215 0.02763949445271341 0.02572582226395907 C 0.027630346478634642 0.023425566467216215 0.02760098132578868 0.012980615341832839 0.02760394387401366 0.013961015874304088" fill="none" stroke="#000000" stroke-width="0.001"/>
</g><g transform="translate(0.3387791342668871,0.2158389949973305) rotate(0) scale(1,1) translate(-0.028511229159074506,-0.028511229159074506)"><path d="M 0.029418514444135402 0.013961015874304088 C 0.029415551895910424 0.014941416406775336 0.029373815891356913 0.028026078060701922 0.02938296386543567 0.02572582226395907 C 0.029373815891356913 0.028026078060701922 0.02945572061135148 0.043447268647923795 0.029308738755190314 0.04156408543521832 C 0.02945572061135148 0.043447268647923795 0.03163949593610833 0.04939514962807279 0.031146746139369668 0.04832402081642473 C 0.03163949593610833 0.04939514962807279 0.035561318830778045 0.054925432038209175 0.035221736316054325 0.054417631174994985" fill="none" stroke="#000000" stroke-width="0.001"/>
<path d="M 0.035221736316054325 0.054417631174994985 C 0.0351958017697628 0.05455053181491979 0.03486678515122432 0.05625650891547754 0.03491052176055605 0.056012438854092655 C 0.03486678515122432 0.05625650891547754 0.03467909494103342 0.05745764133307362 0.03469689700407362 0.057346471911613545" fill="none" stroke="#000000" stroke-width="0.001"/>
<path d="M 0.03469689700407362 0.057346471911613545 C 0.034246364864734466 0.05671405579387865 0.028656948208933622 0.048496034288850735 0.029290511332003773 0.04975747849879479 C 0.028656948208933622 0.048496034288850735 0.026905085359392584 0.040206503372715204 0.027094139527231817 0.04220914139228485 C 0.026905085359392584 0.040206503372715204 0.027018800682049728 0.02337181180412733 0.027021861317932987 0.025725822263959062 C 0.027018800682049728 0.02337181180412733 0.027060374444857697 0.012980615341832836 0.02705741189663272 0.013961015874304084" fill="none" stroke="#000000" stroke-width="0.001"/>
<path d="M 0.02705741189663272 0.013961015874304084 C 0.027161895474426344 0.013961015874304084 0.028507973375781433 0.013961015874304084 0.02831121483015621 0.013961015874304084 C 0.028507973375781433 0.013961015874304084 0.029510789411967 0.013961015874304084 0.029418514444135402 0.013961015874304084" fill="none" stroke="#000000" stroke-width="0.001"/>
</g></g>
<g id="柄">
<g id="柄左">
<g transform="translate(0.31909014803689006,0.21825924397620908) rotate(0) scale(1,1) translate(-0.022986364471475812,-0.022986364471475812)"><path d="M 0.02535203928873934 0.019731870906660766 C 0.025540286025048486 0.01991161810386838 0.02796732864850514 0.02217069661560278 0.02761100012444909 0.02188883727315216 C 0.02796732864850514 0.02217069661560278 0.030157218913980197 0.02330359796977774 0.02962798157741195 0.02311418301606824 C 0.030157218913980197 0.02330359796977774 0.0345172999329672 0.024410718269634257 0.03396184816326804 0.02416181671766616 C 0.0345172999329672 0.024410718269634257 0.03659629422416794 0.026514941395218677 0.03629340281380183 0.026101001639685407 C 0.03659629422416794 0.026514941395218677 0.037705140277149767 0.02938143479609708 0.03759654508766146 0.02912909378406541" fill="none" stroke="#000000" stroke-width="0.001"/>
<path d="M 0.03759654508766146 0.02912909378406541 C 0.03738343935453159 0.028895348149403397 0.03454337680355832 0.025994683133912382 0.035039276290102936 0.026324146168121256 C 0.03454337680355832 0.025994683133912382 0.030901881539438004 0.025062004384594 0.03164575124912608 0.025175537373558914 C 0.030901881539438004 0.025062004384594 0.0253612123204583 0.024756250641960846 0.026112839773846024 0.024961750300542308 C 0.0253612123204583 0.024756250641960846 0.022183059045754894 0.022066654263192566 0.022626221808473377 0.022709541470581397 C 0.022183059045754894 0.022066654263192566 0.020642275355620132 0.016791900673650943 0.020794886621224227 0.01724710381187636" fill="none" stroke="#000000" stroke-width="0.001"/>
<path d="M 0.020794886621224227 0.01724710381187636 C 0.020936801427855808 0.017555987265485008 0.022815440197087748 0.02141722659641668 0.022497864300803187 0.020953705255180102 C 0.022815440197087748 0.02141722659641668 0.02498275146615172 0.023014261770682977 0.024605797376638948 0.022809359906715312 C 0.02498275146615172 0.023014261770682977 0.02717737725709373 0.023326256031582955 0.02702131337495645 0.02341252762279208 C 0.02717737725709373 0.023326256031582955 0.0263394577884349 0.02146737941919486 0.026478563962286327 0.021774100812205804 C 0.0263394577884349 0.02146737941919486 0.025258162232610425 0.01956168508119868 0.02535203928873934 0.019731870906660766" fill="none" stroke="#000000" stroke-width="0.001"/>
</g><g id="柄2">
<g transform="translate(0.32329910907233816,0.22607810089624747) rotate(0) scale(1,1) translate(-0.0027208726628668114,-0.0036841586952166046)"><path d="M -0.006481686284123543 -0.006958525556534308 C -0.006385078914230677 -0.007063881510617307 -0.005172170892099687 -0.008405798176368594 -0.00532239784540915 -0.008222797005530294 C -0.005172170892099687 -0.008405798176368594 -0.00462534326099339 -0.009232184823349206 -0.004678962844409986 -0.009154539606593905" fill="none" stroke="#000000" stroke-width="0.001"/>
<path d="M -0.004678962844409986 -0.009154539606593905 C -0.0047621925124114286 -0.00891038298056863 -0.005774990526942266 -0.005779535657268525 -0.005677718860427295 -0.0062246600942905995 C -0.005774990526942266 -0.005779535657268525 -0.005823402188452914 -0.0034180717501033544 -0.005846222842589632 -0.0038130463623290136 C -0.005823402188452914 -0.0034180717501033544 -0.0052833758048618385 -0.0011359328045592756 -0.005403871010786687 -0.001484964747582687 C -0.0052833758048618385 -0.0011359328045592756 -0.0041952185981198875 0.0006438453635315062 -0.00440028037149145 0.0003753369539519222 C -0.0041952185981198875 0.0006438453635315062 -0.0026805927584257596 0.0019322965165448924 -0.002943129730327933 0.0017371361673723207 C -0.0026805927584257596 0.0019322965165448924 -0.000996896081845481 0.0028327513331499734 -0.0012498367086653667 0.0027172611440227827 C -0.000996896081845481 0.0028327513331499734 0.0003140984001372399 0.0031642994414901857 9.215779151069267E-05 0.0031230184368986093 C 0.0003140984001372399 0.0031642994414901857 0.001612352856328085 0.0032186336732415734 0.0014134505948532007 0.003212633199121702 C 0.001612352856328085 0.0032186336732415734 0.0025677794570723137 0.003193556703605013 0.002478984929209305 0.003195024126337066" fill="none" stroke="#000000" stroke-width="0.001"/>
<path d="M 0.002962760396524317 0.004173293264096142 C 0.0028694321624082404 0.004172099902784353 0.0016193511748673957 0.004150281078455006 0.0018428215871313977 0.0041589729283546695 C 0.0016193511748673957 0.004150281078455006 -2.727479301124514E-05 0.004023610391092566 0.0002811154493562938 0.004068991065300178 C -2.727479301124514E-05 0.004023610391092566 -0.0022463687089655624 0.0034721781633182537 -0.0018578613212790695 0.003614404837863325 C -0.0022463687089655624 0.0034721781633182537 -0.004776224262280584 0.0020856006156281066 -0.004380973202881621 0.002362270970759323 C -0.004776224262280584 0.0020856006156281066 -0.006897791750952892 -8.845646031418092E-05 -0.006600874034066631 0.0002943605762887303 C -0.006897791750952892 -8.845646031418092E-05 -0.008061914167951401 -0.0026124886006126044 -0.00794398580551675 -0.0022315334684756124 C -0.008061914167951401 -0.0026124886006126044 -0.007969974541155559 -0.004570953733812477 -0.00801601438328245 -0.004277101009355173 C -0.007969974541155559 -0.004570953733812477 -0.007263647025064152 -0.005981218207561524 -0.007391507699994061 -0.005757766161963263 C -0.007263647025064152 -0.005981218207561524 -0.006405867832800999 -0.0070585888394152285 -0.006481686284123543 -0.006958525556534308" fill="none" stroke="#000000" stroke-width="0.001"/>
</g><g transform="translate(0.32329910907233816,0.22607810089624747) rotate(0) scale(1,1) translate(-0.0027208726628668114,-0.0036841586952166046)"><path d="M 0.005807761677766383 0.009556434419097398 C 0.0057466903271419945 0.009446922232228467 0.004990803465284513 0.00801814476844231 0.005074905470273724 0.00824228817667023 C 0.004990803465284513 0.00801814476844231 0.004775506963531039 0.006752082299003379 0.0047985376178958615 0.006866713520362368" fill="none" stroke="#000000" stroke-width="0.001"/>
<path d="M 0.0047985376178958615 0.006866713520362368 C 0.0050043868253086075 0.007084620352413732 0.007654484882213377 0.009750383579242823 0.007268728106848808 0.009481595504978737 C 0.007654484882213377 0.009750383579242823 0.00967472773190374 0.010039810964284506 0.00942761892227068 0.010092170411531402 C 0.00967472773190374 0.010039810964284506 0.01024735485631228 0.008600319522773365 0.010234033822445523 0.008853282138015997 C 0.01024735485631228 0.008600319522773365 0.00941746511677187 0.006782807403028712 0.00958747132867177 0.007056619028619817 C 0.00941746511677187 0.006782807403028712 0.00795263517179065 0.005367079065738626 0.008193959279646707 0.005567542630922738 C 0.00795263517179065 0.005367079065738626 0.006454551055613799 0.00454086927329482 0.0066915820343991 0.004651056246410478 C 0.006454551055613799 0.00454086927329482 0.005127646925596565 0.0042040179489432755 0.005349587534223106 0.004245298953534848 C 0.005127646925596565 0.0042040179489432755 0.003829392469405727 0.0041496837171917265 0.0040282947308806095 0.004155684191311607 C 0.003829392469405727 0.0041496837171917265 0.0028739658686615095 0.004174760686828343 0.0029627603965245173 0.004173293264096286" fill="none" stroke="#000000" stroke-width="0.001"/>
<path d="M 0.002478984929209477 0.0031950241263372548 C 0.002572313163325556 0.0031962174876490495 0.003822394150866414 0.0032118369506686758 0.003598923738602421 0.0032093444620787896 C 0.003822394150866414 0.0032118369506686758 0.005459721076780278 0.0032703146636235037 0.005160629876377394 0.003224933989415889 C 0.005459721076780278 0.0032703146636235037 0.007567226489158863 0.0039271360336641074 0.007188018143437025 0.003753912552570165 C 0.007567226489158863 0.0039271360336641074 0.01007538427788955 0.005639180050117265 0.009711130025039448 0.0053036157625432 C 0.01007538427788955 0.005639180050117265 0.011711119875028795 0.008222394972504704 0.011559069177638251 0.007780684003458948 C 0.011711119875028795 0.008222394972504704 0.011400353964864062 0.01093860731340598 0.011535738393725962 0.010604147391092285 C 0.011400353964864062 0.01093860731340598 0.00961121002615724 0.011843181023944544 0.00993445603129545 0.011794203071223284 C 0.00961121002615724 0.011843181023944544 0.007312895135940011 0.011005402102736914 0.007656786332067433 0.011191882823747404 C 0.007312895135940011 0.011005402102736914 0.005653676289907962 0.009420147052043231 0.005807761677766383 0.009556434419097398" fill="none" stroke="#000000" stroke-width="0.001"/>
</g></g>
</g>
<g id="柄右">
<g transform="translate(0.3555967576204519,0.21825924397620944) rotate(0) scale(1,1) translate(-0.022986364471475812,-0.022986364471475812)"><path d="M 0.020620689654212376 0.019731870906660766 C 0.02052681259808346 0.019902056732122853 0.01935505880681393 0.022080822205216746 0.019494164980665363 0.021774100812205804 C 0.01935505880681393 0.022080822205216746 0.01910747945013246 0.023498799214001206 0.018951415567995178 0.02341252762279208 C 0.01910747945013246 0.023498799214001206 0.021743885655825534 0.022604458042747647 0.021366931566312752 0.022809359906715312 C 0.021743885655825534 0.022604458042747647 0.0237924405384331 0.020490183913943524 0.02347486464214854 0.020953705255180102 C 0.0237924405384331 0.020490183913943524 0.02531975712835906 0.016938220358267714 0.025177842321727484 0.01724710381187636" fill="none" stroke="#000000" stroke-width="0.001"/>
<path d="M 0.025177842321727484 0.01724710381187636 C 0.025025231056123382 0.01770230695010178 0.022903344371759792 0.023352428677970227 0.023346507134478278 0.022709541470581397 C 0.022903344371759792 0.023352428677970227 0.019108261715717917 0.02516724995912377 0.019859889169105638 0.024961750300542308 C 0.019108261715717917 0.02516724995912377 0.013583107984137551 0.025289070362523827 0.014326977693825627 0.025175537373558914 C 0.013583107984137551 0.025289070362523827 0.010437553166304117 0.02665360920233013 0.01093345265284873 0.026324146168121256 C 0.010437553166304117 0.02665360920233013 0.008163078122160392 0.029362839418727426 0.008376183855290265 0.02912909378406541" fill="none" stroke="#000000" stroke-width="0.001"/>
<path d="M 0.008376183855290265 0.02912909378406541 C 0.008484779044778568 0.028876752772033745 0.009982217539516012 0.025687061884152138 0.009679326129149901 0.026101001639685407 C 0.009982217539516012 0.025687061884152138 0.012566332549382747 0.02391291516569806 0.012010880779683597 0.02416181671766616 C 0.012566332549382747 0.02391291516569806 0.016873984702107953 0.02292476806235874 0.016344747365539702 0.02311418301606824 C 0.016873984702107953 0.02292476806235874 0.018718057342558676 0.021606977930701536 0.01836172881850262 0.02188883727315216 C 0.018718057342558676 0.021606977930701536 0.02080893639052152 0.01955212370945315 0.020620689654212376 0.019731870906660766" fill="none" stroke="#000000" stroke-width="0.001"/>
</g><g id="柄2">
<g transform="translate(0.35138779658500396,0.22607810089624747) rotate(0) scale(1,1) translate(-0.0027208726628668114,-0.0036841586952166046)"><path d="M 0.011923431609857054 -0.006958525556534308 C 0.011999250061179599 -0.006858462273653388 0.012961113700657516 -0.005534314116365002 0.012833253025727602 -0.005757766161963263 C 0.012961113700657516 -0.005534314116365002 0.013503799551142922 -0.003983248284897869 0.013457759709016023 -0.004277101009355173 C 0.013503799551142922 -0.003983248284897869 0.013267802768815729 -0.0018505783363386204 0.013385731131250382 -0.0022315334684756124 C 0.013267802768815729 -0.0018505783363386204 0.011745701642913928 0.0006771776128916415 0.012042619359800182 0.0002943605762887303 C 0.011745701642913928 0.0006771776128916415 0.009427467469216359 0.002638941325890539 0.009822718528615321 0.002362270970759323 C 0.009427467469216359 0.002638941325890539 0.006911099259326127 0.0037566315124083964 0.007299606647012629 0.003614404837863325 C 0.006911099259326127 0.0037566315124083964 0.0048522396340097565 0.0041143717395077896 0.00516062987637729 0.004068991065300178 C 0.0048522396340097565 0.0041143717395077896 0.003375453326338221 0.004167664778254333 0.003598923738602224 0.0041589729283546695 C 0.003375453326338221 0.004167664778254333 0.002385656695093168 0.004174486625407932 0.002478984929209249 0.004173293264096142" fill="none" stroke="#000000" stroke-width="0.001"/>
<path d="M 0.002962760396524243 0.003195024126337066 C 0.0030515549243872535 0.0031964915490691193 0.004227196992355256 0.0032066327250018308 0.004028294730880367 0.003212633199121702 C 0.004227196992355256 0.0032066327250018308 0.0055715281428494745 0.003081737432307033 0.005349587534222919 0.0031230184368986093 C 0.0055715281428494745 0.003081737432307033 0.006944522661218916 0.002601770954895592 0.006691582034399041 0.0027172611440227827 C 0.006944522661218916 0.002601770954895592 0.008647412027963593 0.001541975818199749 0.00838487505606143 0.0017371361673723207 C 0.008647412027963593 0.001541975818199749 0.010047087470596572 0.00010682854437233822 0.009842025697225 0.0003753369539519222 C 0.010047087470596572 0.00010682854437233822 0.01096611154244513 -0.0018339966906060984 0.010845616336520284 -0.001484964747582687 C 0.01096611154244513 -0.0018339966906060984 0.011310788822459863 -0.004208020974554673 0.011287968168323148 -0.0038130463623290136 C 0.011310788822459863 -0.004208020974554673 0.011022192519645906 -0.006669784531312674 0.011119464186160864 -0.0062246600942905995 C 0.011022192519645906 -0.006669784531312674 0.010037478502142221 -0.00939869623261918 0.010120708170143655 -0.009154539606593905" fill="none" stroke="#000000" stroke-width="0.001"/>
<path d="M 0.010120708170143655 -0.009154539606593905 C 0.010174327753560254 -0.009076894389838604 0.010914370124452297 -0.008039795834691993 0.010764143171142847 -0.008222797005530294 C 0.010914370124452297 -0.008039795834691993 0.012020038979749905 -0.006853169602451309 0.011923431609857054 -0.006958525556534308" fill="none" stroke="#000000" stroke-width="0.001"/>
</g><g transform="translate(0.35138779658500396,0.22607810089624747) rotate(0) scale(1,1) translate(-0.0027208726628668114,-0.0036841586952166046)"><path d="M -0.00036601635203274436 0.009556434419097398 C -0.0005201017398911683 0.009692721786151565 -0.0025589322024612547 0.011378363544757894 -0.0022150410063338324 0.011191882823747404 C -0.0025589322024612547 0.011378363544757894 -0.004815956710700024 0.011745225118502024 -0.004492710705561811 0.011794203071223284 C -0.004815956710700024 0.011745225118502024 -0.006229377496854296 0.01026968746877859 -0.006093993067992392 0.010604147391092285 C -0.006229377496854296 0.01026968746877859 -0.005965273154514113 0.0073389730344131906 -0.006117323851904659 0.007780684003458948 C -0.005965273154514113 0.0073389730344131906 -0.00390513044645574 0.004968051474969135 -0.004269384699305847 0.0053036157625432 C -0.00390513044645574 0.004968051474969135 -0.001367064471981542 0.0035806890714762223 -0.0017462728177033795 0.003753912552570165 C -0.001367064471981542 0.0035806890714762223 0.0005802066497590807 0.0031795533152082747 0.00028111544935620277 0.003224933989415889 C 0.0005802066497590807 0.0031795533152082747 0.00206629199939515 0.0032068519734889033 0.0018428215871311559 0.0032093444620787896 C 0.00206629199939515 0.0032068519734889033 0.003056088630640212 0.00319383076502546 0.002962760396524131 0.0031950241263372548" fill="none" stroke="#000000" stroke-width="0.001"/>
<path d="M 0.0024789849292091368 0.004173293264096286 C 0.0023901904013461264 0.00417182584136423 0.0012145483333781243 0.004161684665431487 0.001413450594853014 0.004155684191311607 C 0.0012145483333781243 0.004161684665431487 -0.0001297828171160849 0.004286579958126421 9.215779151046196E-05 0.004245298953534848 C -0.0001297828171160849 0.004286579958126421 -0.001486867687450848 0.004761243219526135 -0.0012498367086655484 0.004651056246410478 C -0.001486867687450848 0.004761243219526135 -0.002993538061769183 0.0057680061961068495 -0.002752213953913134 0.005567542630922738 C -0.002993538061769183 0.0057680061961068495 -0.004315732214838037 0.007330430654210921 -0.004145726002938135 0.007056619028619817 C -0.004315732214838037 0.007330430654210921 -0.004778967462845204 0.009106244753258629 -0.00479228849671196 0.008853282138015997 C -0.004778967462845204 0.009106244753258629 -0.003738764786903998 0.010144529858778298 -0.003985873596537065 0.010092170411531402 C -0.003738764786903998 0.010144529858778298 -0.0014412260057505883 0.00921280743071465 -0.001826982781115152 0.009481595504978737 C -0.0014412260057505883 0.00921280743071465 0.0008490569152504359 0.006648806688311004 0.0006432077078376984 0.006866713520362368" fill="none" stroke="#000000" stroke-width="0.001"/>
<path d="M 0.0006432077078376984 0.006866713520362368 C 0.0006201770534728779 0.006981344741721357 0.0002827378504706492 0.008466431584898149 0.00036683985545985274 0.00824228817667023 C 0.0002827378504706492 0.008466431584898149 -0.00042708770265712745 0.009665946605966329 -0.00036601635203274436 0.009556434419097398" fill="none" stroke="#000000" stroke-width="0.001"/>
</g></g>
</g>
</g>
</svg>
