<?xml version="1.0" encoding="UTF-8"?>
<svg xmlns="http://www.w3.org/2000/svg" viewBox="0 0 1 1">
<g transform="translate(0.44988538948556284,0.20537491987605058) rotate(0) scale(1,1) translate(-0.032929014394115344,0.04070976691710671)"><path d="M 0.0321785309086904 -0.03741812306531322 C 0.031989911321277875 -0.037648056649757344 0.0295985124342818 -0.040643997961934526 0.02991509585974014 -0.04017732607864278 C 0.0295985124342818 -0.040643997961934526 0.028144125984763204 -0.04350830455466702 0.02837952980319029 -0.04301818566481416 C 0.028144125984763204 -0.04350830455466702 0.026898359500114627 -0.046532627411155554 0.027090250038615118 -0.046058752756877076 C 0.026898359500114627 -0.046532627411155554 0.025988993140418394 -0.04915469403891104 0.02607684334118442 -0.048704681516155916 C 0.025988993140418394 -0.04915469403891104 0.02602048974814881 -0.0518694682808059 0.02603604762942281 -0.05145890302993855 C 0.02602048974814881 -0.0518694682808059 0.025938744919293284 -0.05390131188549871 0.025890148765896452 -0.05363146452656409 C 0.025938744919293284 -0.05390131188549871 0.02678216159297405 -0.05475709404400065 0.026619201470184768 -0.05469707133715403 C 0.02678216159297405 -0.05475709404400065 0.02802790782079038 -0.054234428115402133 0.02784567023936782 -0.054351737008723575 C 0.02802790782079038 -0.054234428115402133 0.02890233663198495 -0.052986725212636664 0.02880605244725549 -0.05328936461729677 C 0.02890233663198495 -0.052986725212636664 0.029077172175143225 -0.05034461348171829 0.02900108045612135 -0.05072006415280234 C 0.029077172175143225 -0.05034461348171829 0.02989682483615159 -0.04848978155760475 0.02971915307551796 -0.04878395656428814 C 0.02989682483615159 -0.04848978155760475 0.031419764295844185 -0.04689308975908019 0.031133141583724926 -0.04718996407260168 C 0.031419764295844185 -0.04689308975908019 0.033426913541399 -0.04477180754104695 0.03315862562094904 -0.045221464802030244 C 0.033426913541399 -0.04477180754104695 0.03445209421313902 -0.041508461285699766 0.03435259662912441 -0.04179407694080211" fill="none" stroke="#000000" stroke-width="0.001"/>
</g><g transform="translate(0.45569570683724314,0.19282987272818242) rotate(0) scale(1,1) translate(-0.09500000000000003,-0.09500000000000001)"><path d="M 0.0887804054851909 0.09720592684796323 C 0.08884866306837091 0.09711370677262281 0.0897894492867751 0.09604074793036307 0.08959949648335117 0.09609928594387816 C 0.0897894492867751 0.09604074793036307 0.0912889966345683 0.0966010528056787 0.09105983912627802 0.09650347068578216 C 0.0912889966345683 0.0966010528056787 0.09248457078354635 0.09735556431404802 0.09234938658283456 0.09727027138263665 C 0.09248457078354635 0.09735556431404802 0.09270977144748492 0.09754837873605873 0.09268204953481951 0.09752698586271857" fill="none" stroke="#000000" stroke-width="0.001"/>
<path d="M 0.09268204953481951 0.09752698586271857 C 0.09275030711799953 0.0975237665190531 0.09369365082869323 0.09746510911881308 0.0935011405329798 0.09748835373873294 C 0.09369365082869323 0.09746510911881308 0.09522388808396054 0.09729192520549715 0.09499217308338075 0.09724805042368033 C 0.09522388808396054 0.09729192520549715 0.09641690474064908 0.0981001440519462 0.09628172053993729 0.09801485112053483 C 0.09641690474064908 0.0981001440519462 0.09664210540458765 0.0982929584739569 0.09661438349192224 0.09827156560061674" fill="none" stroke="#000000" stroke-width="0.001"/>
<path d="M 0.09661438349192224 0.09827156560061674 C 0.09668264107510226 0.09826834625695127 0.09762598478579598 0.09820968885671125 0.09743347449008254 0.0982329334766311 C 0.09762598478579598 0.09820968885671125 0.09915622204106332 0.09803650494339534 0.09892450704048353 0.09799263016157853 C 0.09915622204106332 0.09803650494339534 0.10034923869775182 0.09884472378984437 0.10021405449704003 0.098759430858433 C 0.10034923869775182 0.09884472378984437 0.1005744393616904 0.09903753821185506 0.10054671744902499 0.0990161453385149" fill="none" stroke="#000000" stroke-width="0.001"/>
<path d="M 0.10054671744902499 0.0990161453385149 C 0.10061497503220501 0.09901292599484943 0.10155831874289874 0.09895426859460943 0.1013658084471853 0.09897751321452929 C 0.10155831874289874 0.09895426859460943 0.10308855599816605 0.09878108468129349 0.10285684099758625 0.09873720989947667 C 0.10308855599816605 0.09878108468129349 0.10428157265485455 0.0996783042594175 0.10414638845414276 0.09950401059633117 C 0.10428157265485455 0.0996783042594175 0.10450677331879314 0.10093912746152767 0.10447905140612773 0.10082873385651255" fill="none" stroke="#000000" stroke-width="0.001"/>
<path d="M 0.10447905140612773 0.10082873385651255 C 0.10432894394074665 0.10143116653414885 0.1023027318040342 0.1090517445010421 0.1026777618215548 0.10805792598814828 C 0.1023027318040342 0.1090517445010421 0.09975376864374083 0.1131459418464958 0.09997869119588036 0.11275455601123831" fill="none" stroke="#000000" stroke-width="0.001"/>
<path d="M 0.09997869119588036 0.11275455601123831 C 0.09944916022671339 0.11278477892983087 0.09266269522979449 0.11295740895005099 0.09362431956587672 0.11311723103434904 C 0.09266269522979449 0.11295740895005099 0.08800710579597845 0.1106466459967711 0.08843919916289371 0.1108366909996617" fill="none" stroke="none" stroke-width="0"/>
<path d="M 0.08843919916289371 0.1108366909996617 C 0.08833792134724996 0.11068728225036858 0.0870752638442074 0.10870667802848985 0.08722386537516881 0.10904378600814431 C 0.0870752638442074 0.10870667802848985 0.08664144634817492 0.10641093286172994 0.08665598079135674 0.1067913952438082 C 0.08664144634817492 0.10641093286172994 0.08714548501210152 0.10413580469362449 0.08704945205698704 0.10447823742320524 C 0.08714548501210152 0.10413580469362449 0.08787161993570913 0.10253253291097542 0.08780837625273051 0.10268220248883925" fill="none" stroke="none" stroke-width="0"/>
<path d="M 0.08780837625273051 0.10268220248883925 C 0.08784940811382047 0.10251791287328046 0.08838176102184846 0.10025437079872758 0.08830075858581009 0.10071072710213391 C 0.08838176102184846 0.10025437079872758 0.08882037606013929 0.09691386016011566 0.0887804054851909 0.09720592684796323" fill="none" stroke="#000000" stroke-width="0.001"/>
</g><g transform="translate(0.4634516553320156,0.19828631671574581) rotate(0) scale(1,1) translate(-0.03292128146110527,0.04070976691710671)"><path d="M 0.03134383088323165 -0.04136021740724347 C 0.03141820874795831 -0.041538103934194597 0.03237249809375413 -0.04384537589142213 0.03223636525995158 -0.04349485573065697 C 0.03237249809375413 -0.04384537589142213 0.03305431815092423 -0.0459304199522533 0.03297742488886224 -0.045566459336425384 C 0.03305431815092423 -0.0459304199522533 0.03317987249131876 -0.04816681294359006 0.03315908440469551 -0.04786238312059196 C 0.03317987249131876 -0.04816681294359006 0.033257568823498916 -0.049411816153371244 0.033226881928341244 -0.04921961721240253 C 0.033257568823498916 -0.049411816153371244 0.033604921448142144 -0.050290832123674384 0.03352732714658754 -0.05016877041221651 C 0.033604921448142144 -0.050290832123674384 0.03428275359274122 -0.050730949421046556 0.0341580135469965 -0.05068435774989703 C 0.03428275359274122 -0.050730949421046556 0.03515278879686037 -0.0506844465536068 0.03502420769552422 -0.05072787046601083 C 0.03515278879686037 -0.0506844465536068 0.035781866169190886 -0.050046151163408215 0.035700986763030254 -0.05016327080104868 C 0.035781866169190886 -0.050046151163408215 0.03602854267205755 -0.0491453156403919 0.035994760569451806 -0.049322434814325265 C 0.03602854267205755 -0.0491453156403919 0.036114248542521 -0.04781548266482834 0.03610637199429921 -0.048037840713848305 C 0.036114248542521 -0.04781548266482834 0.03607271645127839 -0.046347502703424866 0.036089279148113315 -0.046654138226085634 C 0.03607271645127839 -0.046347502703424866 0.03583072637021805 -0.04399425382609114 0.03590761963228004 -0.04435821444191905 C 0.03583072637021805 -0.04399425382609114 0.03504915270392764 -0.04192836933490491 0.035166560003369395 -0.042286610836150644 C 0.03504915270392764 -0.04192836933490491 0.03444307970861313 -0.03987370855953849 0.034498732038979 -0.0400593164269702" fill="none" stroke="#000000" stroke-width="0.001"/>
</g><g transform="translate(0.4592762573077178,0.19754173697784766) rotate(0) scale(1,1) translate(-0.03292428902679828,0.04070976691710671)"><path d="M 0.031210628182937333 -0.04116374406298994 C 0.03128042472513191 -0.04141469754490065 0.03217461868462575 -0.04466706836591881 0.03204818668927226 -0.044175185845918515 C 0.03217461868462575 -0.04466706836591881 0.0328025287057561 -0.04756648442881782 0.03272781212717919 -0.04706633430299353 C 0.0328025287057561 -0.04756648442881782 0.032963092783099245 -0.05054654646648371 0.032944785632195106 -0.05017698735580999 C 0.032963092783099245 -0.05054654646648371 0.032964585415743354 -0.051723992998639036 0.032947497938028834 -0.05150104363107815 C 0.032964585415743354 -0.051723992998639036 0.033229334870718844 -0.05303795198082405 0.03314983536476935 -0.05285237976654064 C 0.033229334870718844 -0.05303795198082405 0.03404341921509655 -0.05381022508086091 0.033901492009422766 -0.053727910202479044 C 0.03404341921509655 -0.05381022508086091 0.034998103817591865 -0.05380170779095774 0.03485296183285479 -0.053840158307123055 C 0.034998103817591865 -0.05380170779095774 0.035740762701345255 -0.053133558591611244 0.03564319582626773 -0.05326650400849529 C 0.035740762701345255 -0.053133558591611244 0.03606302935077787 -0.05204813179265878 0.03602376433378505 -0.0522448133045145 C 0.03606302935077787 -0.05204813179265878 0.036120968064927934 -0.050665901730197 0.03611437603018155 -0.05090632586622673 C 0.036120968064927934 -0.050665901730197 0.03608592277931082 -0.048969450570495364 0.03610286875074167 -0.049359723672157754 C 0.03608592277931082 -0.048969450570495364 0.03583840188837484 -0.04572073002269851 0.03591102437301128 -0.04622304864627807 C 0.03583840188837484 -0.04572073002269851 0.03512530939324171 -0.04283462861628186 0.03523139893510437 -0.04333190018920305 C 0.03512530939324171 -0.04283462861628186 0.03458849578195555 -0.03999944723639222 0.03463794987065931 -0.04025578977122382" fill="none" stroke="#000000" stroke-width="0.001"/>
</g><g transform="translate(0.4553439233506151,0.1967971572399495) rotate(0) scale(1,1) translate(-0.03293544000987633,0.04070976691710671)"><path d="M 0.03117123686839468 -0.04074799614234325 C 0.03120072325035905 -0.041043065887665285 0.03156475452783257 -0.044893912221773004 0.031525073451967096 -0.04428883308620767 C 0.03156475452783257 -0.044893912221773004 0.03164402311281287 -0.04854649211410127 0.031647409778780396 -0.04800894576912725 C 0.03164402311281287 -0.04854649211410127 0.031461438494180545 -0.051085628369755415 0.03148443346035683 -0.05073938922589585 C 0.031461438494180545 -0.051085628369755415 0.03135803364086727 -0.0524098948708351 0.03137147018466496 -0.05216381549544196 C 0.03135803364086727 -0.0524098948708351 0.031364068836088645 -0.0539224710059491 0.031323194934784554 -0.05369234173061353 C 0.031364068836088645 -0.0539224710059491 0.03199700828488876 -0.05506093552819979 0.031861957000314044 -0.05492536679946877 C 0.03199700828488876 -0.05506093552819979 0.03311122048766991 -0.0553175022645558 0.03294381034968116 -0.0553191664753857 C 0.03311122048766991 -0.0553175022645558 0.03399387761616552 -0.05477251088082871 0.03387087865617895 -0.05490539626950998 C 0.03399387761616552 -0.05477251088082871 0.03448092307996471 -0.053488081618862045 0.03441979786952002 -0.05372454181121048 C 0.03448092307996471 -0.053488081618862045 0.03463420823032699 -0.051796296318381174 0.03460438118151529 -0.052067873961328746 C 0.03463420823032699 -0.051796296318381174 0.03481339328509336 -0.050122235197684564 0.03477772245526045 -0.050465610095839594 C 0.03481339328509336 -0.050122235197684564 0.035037728660891054 -0.047423990425064164 0.03503243113951018 -0.04794737518346841 C 0.035037728660891054 -0.047423990425064164 0.034813560379484965 -0.043578673204022166 0.03484129271183098 -0.04418499299498865 C 0.034813560379484965 -0.043578673204022166 0.03468783902131857 -0.040378749749944064 0.034699643151357984 -0.04067153769187057" fill="none" stroke="#000000" stroke-width="0.001"/>
</g><g transform="translate(0.4511697529226162,0.1954080894450947) rotate(0) scale(1,1) translate(-0.03295231879265402,0.04070976691710671)"><path d="M 0.031224496971650886 -0.040410802640150636 C 0.031186066703035482 -0.04070327447005079 0.030682623711875023 -0.044438042784891135 0.030763333748266068 -0.04392046459895241 C 0.030682623711875023 -0.044438042784891135 0.03020558895712439 -0.047025692515676454 0.030255976534958363 -0.046621740871415365 C 0.03020558895712439 -0.047025692515676454 0.03015416728859238 -0.04902550559159989 0.03015868281425837 -0.04876788433008546 C 0.03015416728859238 -0.04902550559159989 0.030224754676556092 -0.049889647140047545 0.030201790226966473 -0.0497131960095885 C 0.030224754676556092 -0.049889647140047545 0.030479771082645452 -0.051069211604628524 0.03043425620933382 -0.05088529789559406 C 0.030479771082645452 -0.051069211604628524 0.030841508399757342 -0.0520457621260096 0.030747968706706052 -0.05192016051800206 C 0.030841508399757342 -0.0520457621260096 0.031703073903399104 -0.05241783857816447 0.03155673252594929 -0.05239251719168454 C 0.031703073903399104 -0.05241783857816447 0.03264321552422523 -0.052138677796517104 0.03250406523610382 -0.05222401715576113 C 0.03264321552422523 -0.052138677796517104 0.03329566499889648 -0.05119308526920403 0.03322653598340615 -0.05136844488075622 C 0.03329566499889648 -0.05119308526920403 0.03333249592659821 -0.04993373588107384 0.0333336134219878 -0.05011970181713494 C 0.03333249592659821 -0.04993373588107384 0.03321516482360639 -0.048837928011321266 0.033213126038731104 -0.049136853648023004 C 0.03321516482360639 -0.048837928011321266 0.03341883173913734 -0.04609046619806645 0.03335807884049124 -0.046532594176714105 C 0.03341883173913734 -0.04609046619806645 0.034052332636914755 -0.04337099598903022 0.03394216082248427 -0.04383131790425114 C 0.034052332636914755 -0.04337099598903022 0.03474163892958816 -0.04077351563488076 0.034680140613657096 -0.0410087311940631" fill="none" stroke="#000000" stroke-width="0.001"/>
</g><g id="呪印">
<g id="輪1">
<g transform="translate(0.45611131126298865,0.20493946305702554) rotate(0) scale(1,1) translate(-0.007641903189281717,-0.002256731567462246)"><path d="M 0.012123487871277797 -0.0011203847205345434 C 0.012072079802613083 -0.0010816459621842865 0.011410405627556968 -0.0006156467717226421 0.011506591047301241 -0.0006555196203314603 C 0.011410405627556968 -0.0006156467717226421 0.010924485483266962 -0.0006407764469701647 0.010969262834346523 -0.0006419105372287259" fill="none" stroke="none" stroke-width="0"/>
<path d="M 0.010969262834346523 -0.0006419105372287259 C 0.010900244144354122 -0.0007046309962315769 0.010002804009756573 -0.0015025567081090167 0.010141038554437718 -0.0013945560452629376 C 0.010002804009756573 -0.0015025567081090167 0.009241232443484043 -0.0019831986952249035 0.009310448298172787 -0.0019379184913816754" fill="none" stroke="none" stroke-width="0"/>
<path d="M 0.009310448298172787 -0.0019379184913816754 C 0.009215748239172048 -0.001958880937023926 0.008000332631366423 -0.0022138818843983714 0.00817404759016391 -0.002189467839088681 C 0.008000332631366423 -0.0022138818843983714 0.007146853892806203 -0.002234338634765399 0.007225868792602949 -0.0022308870350979592" fill="none" stroke="none" stroke-width="0"/>
<path d="M 0.007225868792602949 -0.0022308870350979592 C 0.00713485608980445 -0.0022026064668977806 0.005971067769030116 -0.0018258059207444085 0.006133716359020951 -0.0018915202166958154 C 0.005971067769030116 -0.0018258059207444085 0.005202449825520589 -0.0014048817559298478 0.005274085712712925 -0.001442315483681076" fill="none" stroke="none" stroke-width="0"/>
<path d="M 0.005274085712712925 -0.001442315483681076 C 0.005228716236777516 -0.001456118884254093 0.004645543767202345 -0.0016731677597950105 0.004729652001488011 -0.0016079562905572807 C 0.004645543767202345 -0.0016731677597950105 0.004226048142934673 -0.0022762611831985444 0.00426478690128493 -0.002224853114533832" fill="none" stroke="none" stroke-width="0"/>
<path d="M 0.00426478690128493 -0.002224853114533832 C 0.004365919328131681 -0.0022782277904565013 0.005702812701117225 -0.002956027529424374 0.0054783760234459414 -0.0028653492256058635 C 0.005702812701117225 -0.002956027529424374 0.007081331284164865 -0.003350296388251798 0.0069580270333403325 -0.003312992760355957" fill="none" stroke="none" stroke-width="0"/>
<path d="M 0.0069580270333403325 -0.003312992760355957 C 0.007014713536970882 -0.0033217664171260094 0.007685412251752385 -0.0034520832732799277 0.00763826507690693 -0.0034182766415965845 C 0.007685412251752385 -0.0034520832732799277 0.007514253802700711 -0.0037437053154693676 0.007523793131485805 -0.0037186723405560765" fill="none" stroke="none" stroke-width="0"/>
<path d="M 0.007523793131485805 -0.0037186723405560765 C 0.007578117082886164 -0.0037953330194518795 0.008292094975112843 -0.004814741342019481 0.008175680548290109 -0.00463860048730571 C 0.008292094975112843 -0.004814741342019481 0.008982856728780984 -0.005931842772939302 0.008920766253358609 -0.005832362597121333" fill="none" stroke="none" stroke-width="0"/>
<path d="M 0.008920766253358609 -0.005832362597121333 C 0.008946008177416993 -0.005724876051532914 0.009276252711320973 -0.004340692504945587 0.009223669342059208 -0.004542524050060304 C 0.009276252711320973 -0.004340692504945587 0.009579108129703164 -0.003316039056218432 0.009551766684499783 -0.00341038405574473" fill="none" stroke="none" stroke-width="0"/>
<path d="M 0.009551766684499783 -0.00341038405574473 C 0.009533850809076474 -0.00339371723180721 0.009360338224803689 -0.0031685776030553657 0.009336776179420076 -0.003210382168494492 C 0.009360338224803689 -0.0031685776030553657 0.009875989149910051 -0.0028835915289736093 0.00983451122910313 -0.0029087292704752157" fill="none" stroke="none" stroke-width="0"/>
<path d="M 0.00983451122910313 -0.0029087292704752157 C 0.009936223427915966 -0.002850921352441787 0.011245805668371718 -0.0020660055415790135 0.011055057614857164 -0.0022150342540740693 C 0.011245805668371718 -0.0020660055415790135 0.012212523725979516 -0.0010291639260729163 0.012123487871277797 -0.0011203847205345434" fill="none" stroke="none" stroke-width="0"/>
</g><g transform="translate(0.45611131126298865,0.20493946305702554) rotate(0) scale(1,1) translate(-0.007627600131118717,-0.0016130983682119242)"><path d="M 0.010200029738584462 -0.0003253663810982324 C 0.010170521507170918 -0.00030313033380518497 0.009792351687214661 -4.48975468307592E-05 0.009845930961621925 -5.853381358166356E-05 C 0.009792351687214661 -4.48975468307592E-05 0.009533007402703566 -0.00017033096062952314 0.009557078445697286 -0.0001617311800873801" fill="none" stroke="none" stroke-width="0"/>
<path d="M 0.009557078445697286 -0.0001617311800873801 C 0.009517461717641649 -0.00019773272355501657 0.00900233108038265 -0.0006557420821726671 0.009081677709029628 -0.0005937497016990177 C 0.00900233108038265 -0.0006557420821726671 0.008565189001342219 -0.0009316305827771854 0.008604918901933559 -0.0009056397457711724" fill="none" stroke="none" stroke-width="0"/>
<path d="M 0.008604918901933559 -0.0009056397457711724 C 0.008550561068067133 -0.0009176721895698243 0.007852912509186705 -0.0010640427333627567 0.007952624895536463 -0.0010500290713549945 C 0.007852912509186705 -0.0010640427333627567 0.00736301571325314 -0.00107578490807343 0.007408370265736473 -0.0010738036898643197" fill="none" stroke="none" stroke-width="0"/>
<path d="M 0.007408370265736473 -0.0010738036898643197 C 0.007356128974330134 -0.0010575706437174171 0.006688114478205668 -0.0008412871302253824 0.006781474768860408 -0.0008790071361014899 C 0.006688114478205668 -0.0008412871302253824 0.006246927778631199 -0.0005996766596218238 0.0062880467778795995 -0.0006211636193510289" fill="none" stroke="none" stroke-width="0"/>
<path d="M 0.0062880467778795995 -0.0006211636193510289 C 0.006260373542166727 -0.0006198360229293835 0.0059060586663192095 -0.0006334130972831831 0.005955967949325129 -0.0006052324622912835 C 0.0059060586663192095 -0.0006334130972831831 0.005666899334515513 -0.0009888394706673693 0.00568913538180856 -0.0009593312392538241" fill="none" stroke="none" stroke-width="0"/>
<path d="M 0.00568913538180856 -0.0009593312392538241 C 0.005747185394818595 -0.0009899683032334363 0.006514562190912296 -0.0013790253534009963 0.006385735537928979 -0.0013269760070091713 C 0.006514562190912296 -0.0013790253534009963 0.007305831857581643 -0.0016053356783679359 0.007235055217608362 -0.0015839233959557232" fill="none" stroke="none" stroke-width="0"/>
<path d="M 0.007235055217608362 -0.0015839233959557232 C 0.0072998521504042384 -0.0015828569839777264 0.008150210238522875 -0.0015517891819537995 0.008012618411158887 -0.0015711264522197616 C 0.008150210238522875 -0.0015517891819537995 0.008958952040544317 -0.0013336052944762139 0.008886157145976207 -0.001351876152764179" fill="none" stroke="none" stroke-width="0"/>
<path d="M 0.008886157145976207 -0.001351876152764179 C 0.008944539948094774 -0.0013186944078129909 0.009696240154116376 -0.0008681527323777582 0.00958675077139902 -0.0009536952133499205 C 0.009696240154116376 -0.0008681527323777582 0.010251136319183249 -0.0002730056450772584 0.010200029738584462 -0.0003253663810982324" fill="none" stroke="none" stroke-width="0"/>
</g></g>
<g id="輪2">
<g transform="translate(0.45611131126298865,0.20493946305702554) rotate(0) scale(1,1) translate(-0.0065252214806324465,-0.00044657355231321645)"><path d="M 0.007209097636573833 0.006016297880131419 C 0.0072012529220638 0.005952407807533154 0.00712852287250909 0.0051463815676756255 0.007114961062453441 0.005249617008952244 C 0.00712852287250909 0.0051463815676756255 0.007393245881807298 0.004738127216133642 0.007371839357241616 0.004777472584811996" fill="none" stroke="none" stroke-width="0"/>
<path d="M 0.007371839357241616 0.004777472584811996 C 0.007460666213071306 0.00474906087544408 0.008600410217188728 0.004370817776445594 0.008437761627197893 0.0044365320723970016 C 0.008600410217188728 0.004370817776445594 0.009397444171292782 0.003951598446811623 0.009323622437131637 0.0039889010333951135" fill="none" stroke="none" stroke-width="0"/>
<path d="M 0.009323622437131637 0.0039889010333951135 C 0.009389126477083646 0.003917369599381713 0.01021767157940183 0.0029922892805531614 0.010109670916555749 0.0031305238252343063 C 0.01021767157940183 0.0029922892805531614 0.010662127014178664 0.002263383386553629 0.010619630391284593 0.0023300864972213733" fill="none" stroke="none" stroke-width="0"/>
<path d="M 0.010619630391284593 0.0023300864972213733 C 0.01064064505218903 0.0022371269004307 0.010896220367447522 0.001040856376935807 0.010871806322137832 0.0012145713357332934 C 0.010896220367447522 0.001040856376935807 0.010915998319406128 0.00016475162964472328 0.010912598935000874 0.0002455069916515364" fill="none" stroke="none" stroke-width="0"/>
<path d="M 0.010912598935000874 0.0002455069916515364 C 0.010947237768523424 0.0002131175732215936 0.011426793843392288 -0.00018340016244775258 0.011328264937271473 -0.00014316602950777718 C 0.011426793843392288 -0.00018340016244775258 0.01215883588104891 -0.0002451473181382011 0.012094945808450646 -0.0002373026036281685" fill="none" stroke="none" stroke-width="0"/>
<path d="M 0.012094945808450646 -0.0002373026036281685 C 0.012090603420295064 -0.0001230320148711761 0.012009148526426936 0.0013736514777693066 0.012042837150583664 0.0011339444614557402 C 0.012009148526426936 0.0013736514777693066 0.011661336082568766 0.002764618019691202 0.011690682318569911 0.002639181592134628" fill="none" stroke="none" stroke-width="0"/>
<path d="M 0.011690682318569911 0.002639181592134628 C 0.011675205914325856 0.0026977609047791865 0.01151301433557641 0.003409735893556594 0.011504965467641237 0.003342133343869327 C 0.01151301433557641 0.003409735893556594 0.01181079400597122 0.0034594354254245396 0.01178726873379199 0.003450412188381831" fill="none" stroke="none" stroke-width="0"/>
<path d="M 0.01178726873379199 0.003450412188381831 C 0.011793751140491152 0.0035058127851102148 0.011872627750271087 0.004236219332134684 0.011865057614181919 0.0041152193491224365 C 0.011872627750271087 0.004236219332134684 0.011879198096252019 0.00496801137081266 0.011878110366862012 0.004902411984528797" fill="none" stroke="none" stroke-width="0"/>
<path d="M 0.011878110366862012 0.004902411984528797 C 0.011830427875953882 0.004908633346274793 0.01119822190864707 0.004991796215694386 0.011305920475964442 0.0049770683254807485 C 0.01119822190864707 0.004991796215694386 0.010525711482644308 0.005087653195560088 0.01058572755905355 0.005079146667092447" fill="none" stroke="none" stroke-width="0"/>
<path d="M 0.01058572755905355 0.005079146667092447 C 0.01057655593091341 0.005048312767393458 0.010418718872169847 0.004696557501305986 0.010475668021371874 0.004709139870704582 C 0.010418718872169847 0.004696557501305986 0.00985456024756735 0.004946409764609684 0.009902337768629237 0.004928158234309292" fill="none" stroke="none" stroke-width="0"/>
<path d="M 0.009902337768629237 0.004928158234309292 C 0.009801418543665981 0.004987339623339267 0.008466870391398882 0.005729013206487503 0.008691307069070165 0.0056383349026689926 C 0.008466870391398882 0.005729013206487503 0.007085580183865806 0.006047794794919954 0.007209097636573833 0.006016297880131419" fill="none" stroke="none" stroke-width="0"/>
</g><g transform="translate(0.45611131126298865,0.20493946305702554) rotate(0) scale(1,1) translate(-0.007089775710983777,-0.0007560033402174114)"><path d="M 0.007482320624494132 0.003953025104385059 C 0.007477817758365373 0.0039163522027136554 0.007443266514733593 0.0034597311381997335 0.007428286230949025 0.0035129502843282145 C 0.007443266514733593 0.0034597311381997335 0.007681567179822275 0.003297849106386211 0.007662084029908948 0.003314395350843288" fill="none" stroke="none" stroke-width="0"/>
<path d="M 0.007662084029908948 0.003314395350843288 C 0.00771307064515519 0.003298087029666104 0.00836728370351859 0.0030809754908409726 0.008273923412863851 0.0031186954967170805 C 0.00836728370351859 0.0030809754908409726 0.008824781193174317 0.002840343595631071 0.00878240751776582 0.0028617552803299946" fill="none" stroke="none" stroke-width="0"/>
<path d="M 0.00878240751776582 0.0028617552803299946 C 0.008820006836698273 0.0028206962372063025 0.00929559172542891 0.002289700134198715 0.00923359934495526 0.002369046762845692 C 0.00929559172542891 0.002289700134198715 0.009550709144990812 0.0018713081510429827 0.009526316083449615 0.001909595736566268" fill="none" stroke="none" stroke-width="0"/>
<path d="M 0.009526316083449615 0.001909595736566268 C 0.009538378498808762 0.0018562369280084217 0.00968507872976714 0.0011695776475223543 0.009671065067759377 0.0012692900338721115 C 0.00968507872976714 0.0011695776475223543 0.00969643127419138 0.0006666935225772717 0.009694480027542765 0.0007130471003691824" fill="none" stroke="none" stroke-width="0"/>
<path d="M 0.009694480027542765 0.0007130471003691824 C 0.009707166913172083 0.0006884175770260973 0.0098960824423953 0.00038836043078031705 0.009846722655094578 0.0004174928202521609 C 0.0098960824423953 0.00038836043078031705 0.01032347037682283 0.00035895556057829786 0.010286797475151425 0.00036345842670705656" fill="none" stroke="none" stroke-width="0"/>
<path d="M 0.010286797475151425 0.00036345842670705656 C 0.010284304944350122 0.0004290497446535701 0.010237549835269812 0.0012881460694292063 0.010256887105535774 0.0011505542420652192 C 0.010237549835269812 0.0012881460694292063 0.010037905492495221 0.002086560864492375 0.01005475023195988 0.0020145603550749016" fill="none" stroke="none" stroke-width="0"/>
<path d="M 0.01005475023195988 0.0020145603550749016 C 0.010021428225698096 0.002070142938974446 0.00956934367584631 0.0027910407445867888 0.009654886156818473 0.002681551361869434 C 0.00956934367584631 0.0027910407445867888 0.008976019985583557 0.0033823397465009685 0.009028240460293935 0.003328432947683158" fill="none" stroke="none" stroke-width="0"/>
<path d="M 0.009028240460293935 0.003328432947683158 C 0.008970312825165026 0.003362403064986364 0.008204282185763708 0.0037881237017134512 0.008333108838747025 0.003736074355321626 C 0.008204282185763708 0.0037881237017134512 0.007411421606639724 0.003971104333473679 0.007482320624494132 0.003953025104385059" fill="none" stroke="none" stroke-width="0"/>
</g></g>
<g id="輪3">
<g transform="translate(0.45611131126298865,0.20493946305702554) rotate(0) scale(1,1) translate(-0.008651205160940159,-0.00038457783225604933)"><path d="M 0.0034857443230026978 -0.0018080302075653648 C 0.003544997106177443 -0.0017828788933173573 0.004279401330788266 -0.001442851843921474 0.004196777721099642 -0.0015062144365892741 C 0.004279401330788266 -0.001442851843921474 0.00450059846578006 -0.001009467817131969 0.004477227639266182 -0.0010476790955517617" fill="none" stroke="none" stroke-width="0"/>
<path d="M 0.004477227639266182 -0.0010476790955517617 C 0.004457419473428893 -0.0009565469271809945 0.004215115603909024 0.00021962188369493082 0.004239529649218714 4.5906924897444674E-05 C 0.004215115603909024 0.00021962188369493082 0.0041796532160775 0.0011194832004447909 0.0041842590955499005 0.001036900410018072" fill="none" stroke="none" stroke-width="0"/>
<path d="M 0.0041842590955499005 0.001036900410018072 C 0.004213455114598631 0.0011293942896737229 0.004600325620086075 0.002309475555876719 0.004534611324134668 0.0021468269658858835 C 0.004600325620086075 0.002309475555876719 0.005009348923869459 0.003058838200243281 0.004972830646966782 0.0029886834899080965" fill="none" stroke="none" stroke-width="0"/>
<path d="M 0.004972830646966782 0.0029886834899080965 C 0.005042828688860845 0.003053362518498591 0.0059510416943766836 0.003872832495840111 0.005812807149695539 0.003764831832994031 C 0.0059510416943766836 0.003872832495840111 0.006699881685927604 0.004328013078316635 0.006631645183140522 0.00428469144406105" fill="none" stroke="none" stroke-width="0"/>
<path d="M 0.006631645183140522 0.00428469144406105 C 0.006642375825553382 0.00433088426306401 0.0067459922202596865 0.004944450874274273 0.006760412892094835 0.004839005272096568 C 0.0067459922202596865 0.004944450874274273 0.006433445806870736 0.005609291453368254 0.006458597121118744 0.005550038670193509" fill="none" stroke="none" stroke-width="0"/>
<path d="M 0.006458597121118744 0.005550038670193509 C 0.006361807082427576 0.0054891427573591865 0.005106368603310163 0.004670259003686578 0.005297116656824718 0.004819287716181634 C 0.005106368603310163 0.004670259003686578 0.004075662464120695 0.0036735613205921046 0.004169620478944081 0.0037616941202528375" fill="none" stroke="none" stroke-width="0"/>
<path d="M 0.004169620478944081 0.0037616941202528375 C 0.004122349637588793 0.003721566363041335 0.0035314481932283447 0.003262466333021674 0.003602370382680629 0.0032801610337148098 C 0.0035314481932283447 0.003262466333021674 0.00329490285741967 0.003571790768453574 0.003318554205516667 0.0035493577119352073" fill="none" stroke="none" stroke-width="0"/>
<path d="M 0.003318554205516667 0.0035493577119352073 C 0.003243985938377718 0.003547713150161137 0.002243044843570059 0.003523052840310793 0.002423734999849276 0.0035296229706463646 C 0.002243044843570059 0.003523052840310793 0.0010441504410257894 0.0034655905793468506 0.0011502723301660576 0.0034705161479083517" fill="none" stroke="none" stroke-width="0"/>
<path d="M 0.0011502723301660576 0.0034705161479083517 C 0.0012177639540963286 0.0033848461256125385 0.0020795707925317366 0.002289456849471547 0.0019601718173293103 0.002442475880358594 C 0.0020795707925317366 0.002289456849471547 0.0026349673838673305 0.0015669387686725544 0.002583060032595175 0.0016342877772637882" fill="none" stroke="none" stroke-width="0"/>
<path d="M 0.002583060032595175 0.0016342877772637882 C 0.002612234757081981 0.0016402021319732612 0.002974691793147413 0.0016581072180219352 0.002933156726436848 0.0017052600337774647 C 0.002974691793147413 0.0016581072180219352 0.003093841175345716 0.001015386817732431 0.003081480833121957 0.0010684539881974336" fill="none" stroke="none" stroke-width="0"/>
<path d="M 0.003081480833121957 0.0010684539881974336 C 0.0030806878592723767 0.0009514646811340297 0.0031056537710837232 -0.0005751247128769806 0.0030719651469269947 -0.00033541769656341406 C 0.0031056537710837232 -0.0005751247128769806 0.003520225921009006 -0.0019307479168155274 0.0034857443230026978 -0.0018080302075653648" fill="none" stroke="none" stroke-width="0"/>
</g><g transform="translate(0.45611131126298865,0.20493946305702554) rotate(0) scale(1,1) translate(-0.008100953988751828,-0.0007187812436021757)"><path d="M 0.005135979467775726 -0.0005397757712553152 C 0.0051699905653180295 -0.000525338916876959 0.005582711628906068 -0.00032695063933746487 0.005544112638283371 -0.0003665335187150414 C 0.005582711628906068 -0.00032695063933746487 0.0056037552483284795 -3.963519372517633E-05 0.0055991673552480865 -6.478121872439672E-05" fill="none" stroke="none" stroke-width="0"/>
<path d="M 0.0055991673552480865 -6.478121872439672E-05 C 0.005587797468057483 -1.2471354079576351E-05 0.005448715046953077 0.0006626495433632048 0.005462728708960839 0.0005629371570134477 C 0.005448715046953077 0.0006626495433632048 0.005428359636337783 0.0011791699391776242 0.005431003411154941 0.0011317674174726876" fill="none" stroke="none" stroke-width="0"/>
<path d="M 0.005431003411154941 0.0011317674174726876 C 0.005447761926088913 0.0011848589043950313 0.005669825596238704 0.0018622255511955518 0.005632105590362597 0.0017688652605408121 C 0.005669825596238704 0.0018622255511955518 0.005904604972610368 0.002292359709061958 0.005883643481668231 0.002252090905329562" fill="none" stroke="none" stroke-width="0"/>
<path d="M 0.005883643481668231 0.002252090905329562 C 0.005923822357715424 0.002289216667740506 0.006445136622881514 0.002759592434734538 0.006365789994234537 0.0026976000542608884 C 0.006445136622881514 0.002759592434734538 0.0068749707780317425 0.003020866089076062 0.006835803025431957 0.0029959994710133564" fill="none" stroke="none" stroke-width="0"/>
<path d="M 0.006835803025431957 0.0029959994710133564 C 0.006850789375515512 0.003019301397934796 0.007016188722139812 0.0033329356185343765 0.007015639226434614 0.003275622594070633 C 0.007016188722139812 0.0033329356185343765 0.00682796011951598 0.0037177668621205823 0.006842396973894336 0.0036837557645782787" fill="none" stroke="none" stroke-width="0"/>
<path d="M 0.006842396973894336 0.0036837557645782787 C 0.006786839491685606 0.003648801510611377 0.006066217804672212 0.0031787622360032997 0.0061757071873895664 0.003264304716975462 C 0.006066217804672212 0.0031787622360032997 0.005474592480777458 0.00260665776590707 0.005528524381286082 0.002657245992912331" fill="none" stroke="none" stroke-width="0"/>
<path d="M 0.005528524381286082 0.002657245992912331 C 0.005497049454751988 0.00260059699703479 0.005098775916485136 0.001848631389398522 0.005150825262876961 0.0019774580423818386 C 0.005098775916485136 0.001848631389398522 0.004883357804726449 0.0010391485000067553 0.004903932224584181 0.001111326157112531" fill="none" stroke="none" stroke-width="0"/>
<path d="M 0.004903932224584181 0.001111326157112531 C 0.004903477057594522 0.0010441742948581372 0.004917807490974235 0.0001679119826958168 0.004898470220708273 0.000305503810059804 C 0.004917807490974235 0.0001679119826958168 0.005155771905031347 -0.0006102157363649085 0.005135979467775726 -0.0005397757712553152" fill="none" stroke="none" stroke-width="0"/>
</g></g>
<g transform="translate(0.45611131126298865,0.20493946305702554) rotate(0) scale(1,1) translate(-0.012596498644260162,-0.012596498644260162)"><path d="M 0.011380147149380087 0.01595036697885003 C 0.011453544478045943 0.015869861370745163 0.01238267610972043 0.015001412076463695 0.012260915093370356 0.014984299681591644 C 0.01238267610972043 0.015001412076463695 0.012889643033265194 0.01625333372029156 0.012841279345580976 0.016155715717314643" fill="none" stroke="none" stroke-width="0"/>
<path d="M 0.012841279345580976 0.016155715717314643 C 0.012812218938375157 0.016362491258867077 0.012452417828956484 0.01892260917890495 0.01249255445911116 0.018637022215943835 C 0.012452417828956484 0.01892260917890495 0.012348563560776007 0.019661570694256687 0.012359639783724865 0.019582759272848006" fill="none" stroke="none" stroke-width="0"/>
<path d="M 0.010898507587523976 0.019377410534383403 C 0.010909583810472833 0.019298599112974723 0.011071558893064949 0.01814608651451811 0.011031422262910272 0.018431673477479225 C 0.011071558893064949 0.01814608651451811 0.011409207556585903 0.0157435914372976 0.011380147149380085 0.015950366978850033" fill="none" stroke="none" stroke-width="0"/>
</g><g transform="translate(0.45611131126298865,0.20493946305702554) rotate(0) scale(1,1) translate(-0.012596498644260162,-0.012596498644260162)"><path d="M 0.01610920957040323 0.011972955771462547 C 0.016002791004304375 0.011949644624320433 0.014786126037720712 0.011579217674971375 0.014832186777216962 0.011693222005757177 C 0.014786126037720712 0.011579217674971375 0.015616838523050836 0.010514210618389232 0.01555648069644823 0.01060490380203292" fill="none" stroke="none" stroke-width="0"/>
<path d="M 0.01555648069644823 0.01060490380203292 C 0.01575008377191683 0.010526683082141263 0.01824898168619255 0.009508582016639509 0.017879717602071438 0.009666255163333028 C 0.01824898168619255 0.009508582016639509 0.020163310714554114 0.008633373614908825 0.0199876497059016 0.008712826041710687" fill="none" stroke="none" stroke-width="0"/>
<path d="M 0.0199876497059016 0.008712826041710687 C 0.020036937828902618 0.008764715966508603 0.02057493326194322 0.009471251857404677 0.020579107181913813 0.009335505139285686 C 0.02057493326194322 0.009471251857404677 0.019884100623282903 0.010425643452459648 0.019937562666254512 0.010341786659138574" fill="none" stroke="none" stroke-width="0"/>
<path d="M 0.019937562666254512 0.010341786659138574 C 0.01981213631706884 0.010399496698607248 0.018113417051372167 0.011170237892122983 0.01843244647602644 0.011034307132762652 C 0.018113417051372167 0.011170237892122983 0.015915606494934634 0.012051176491354208 0.016109209570403234 0.011972955771462549" fill="none" stroke="none" stroke-width="0"/>
</g><g transform="translate(0.45611131126298865,0.20493946305702554) rotate(0) scale(1,1) translate(-0.012596498644260162,-0.012596498644260162)"><path d="M 0.010300139212997165 0.009866173182467906 C 0.010333160450430165 0.009969989937714885 0.01062069378533934 0.011208866181345414 0.010696394062193164 0.011111974245431663 C 0.01062069378533934 0.011208866181345414 0.009283014376464453 0.011021951594099688 0.009391735890751277 0.011028876413432916" fill="none" stroke="none" stroke-width="0"/>
<path d="M 0.009391735890751277 0.011028876413432916 C 0.009231229093318742 0.010890350625050038 0.007200431651416793 0.009101209218158957 0.007465654321560868 0.009366566952838381 C 0.007200431651416793 0.009101209218158957 0.0061043479763108355 0.007717751650983292 0.006209063849022377 0.007844583597279837" fill="none" stroke="none" stroke-width="0"/>
<path d="M 0.006209063849022377 0.007844583597279837 C 0.0061857910482170575 0.007745933435898294 0.005965966292444489 0.00650503279230772 0.00592979023935855 0.0066607816607013185 C 0.005965966292444489 0.00650503279230772 0.006702625339944901 0.005918498469544601 0.006643176486053643 0.005975597176556656" fill="none" stroke="none" stroke-width="0"/>
<path d="M 0.006643176486053643 0.005975597176556656 C 0.006787416582533069 0.006161286055333048 0.008678804537718712 0.008528078389032637 0.008374057643806752 0.008203863721873367 C 0.008678804537718712 0.008528078389032637 0.010460646010429698 0.010004698970850783 0.010300139212997163 0.009866173182467904" fill="none" stroke="none" stroke-width="0"/>
</g></g>
</svg>
