<?xml version="1.0" encoding="UTF-8"?>
<svg xmlns="http://www.w3.org/2000/svg" viewBox="0 0 1 1">
<g transform="translate(0.3373434528286707,0.16513021119802657) rotate(0) scale(1,1) translate(-0.05564574782993492,-0.0791909660782871)"><path d="M 0.045144131436855355 0.11631668091425648 C 0.045581698786567 0.11643413355220045 0.05127007433281844 0.11810259103904945 0.05039493963339514 0.11772611256958398 C 0.05127007433281844 0.11810259103904945 0.05608331517964658 0.12109344837936355 0.05564574782993493 0.12083442254784205" fill="none" stroke="#000000" stroke-width="0.001"/>
<path d="M 0.05564574782993493 0.12083442254784205 C 0.05608331517964658 0.12057539671632055 0.061771690725898 0.11734963410011852 0.060896556026474695 0.11772611256958398 C 0.061771690725898 0.11734963410011852 0.06658493157272619 0.11619922827631252 0.06614736422301454 0.11631668091425648" fill="none" stroke="#000000" stroke-width="0.001"/>
<path d="M 0.06614736422301454 0.11631668091425648 C 0.06645216257433746 0.11632222626599664 0.07028716581833913 0.11716063874272042 0.06980494443888965 0.11638322513513845 C 0.07028716581833913 0.11716063874272042 0.07211144380453484 0.1264175124610821 0.07193402077640829 0.12564564420524027" fill="none" stroke="none" stroke-width="0"/>
<path d="M 0.07193402077640829 0.12564564420524027 C 0.0711808444931604 0.12591198610883036 0.06160935898118221 0.12957018374830284 0.06289590537743356 0.12884174704832152 C 0.06160935898118221 0.12957018374830284 0.05596209390838861 0.13484897940140736 0.05649546402139207 0.13438688460501613" fill="none" stroke="#000000" stroke-width="0.001"/>
<path d="M 0.05649546402139207 0.13438688460501613 C 0.05642465433877064 0.13438688460501613 0.05550412846469207 0.13438688460501613 0.05564574782993493 0.13438688460501613 C 0.05550412846469207 0.13438688460501613 0.05472522195585636 0.13438688460501613 0.054796031638477787 0.13438688460501613" fill="none" stroke="#000000" stroke-width="0.001"/>
<path d="M 0.054796031638477787 0.13438688460501613 C 0.05426266152547433 0.1339247898086249 0.04710904388618492 0.1281133103483402 0.04839559028243627 0.12884174704832152 C 0.04710904388618492 0.1281133103483402 0.03860429860021368 0.12537930230165018 0.03935747488346157 0.12564564420524027" fill="none" stroke="#000000" stroke-width="0.001"/>
<path d="M 0.03935747488346157 0.12564564420524027 C 0.03953489791158812 0.12487377594939846 0.041968772600429624 0.11560581152755647 0.04148655122098014 0.11638322513513845 C 0.041968772600429624 0.11560581152755647 0.045448929788178286 0.11631113556251632 0.045144131436855355 0.11631668091425648" fill="none" stroke="none" stroke-width="0"/>
</g><g transform="translate(0.3373434528286707,0.20366535768932348) rotate(0) scale(1,1) translate(-0.05564574782993492,-0.09283117384426133)"><path d="M 0.046433803625479136 0.08328142849339817 C 0.04681763463399813 0.08336704737859175 0.051807437744745034 0.08454383326483024 0.05103977572770705 0.08430885511572109 C 0.051807437744745034 0.08454383326483024 0.056029578838453914 0.0862505255466235 0.05564574782993492 0.08610116628270793" fill="none" stroke="#000000" stroke-width="0.001"/>
<path d="M 0.05564574782993492 0.08610116628270793 C 0.056029578838453914 0.08595180701879236 0.06101938194920078 0.08407387696661194 0.060251719932162794 0.08430885511572109 C 0.06101938194920078 0.08407387696661194 0.0652415230429097 0.0831958096082046 0.06485769203439071 0.08328142849339817" fill="none" stroke="#000000" stroke-width="0.001"/>
<path d="M 0.06485769203439071 0.08328142849339817 C 0.06510623413847196 0.08353380852354722 0.0682524683170739 0.08701374079037813 0.06784019728336566 0.0863099888551867 C 0.0682524683170739 0.08701374079037813 0.06996867336851668 0.0921778236207376 0.06980494443888968 0.09172645171569523" fill="none" stroke="none" stroke-width="0"/>
<path d="M 0.06980494443888968 0.09172645171569523 C 0.06915499366500738 0.09185820611072232 0.060887715858241355 0.0937863869777896 0.06200553515230212 0.09330750445602028 C 0.060887715858241355 0.0937863869777896 0.055923244389981995 0.09782017010366931 0.05639111291016047 0.09747304197692708" fill="none" stroke="#000000" stroke-width="0.001"/>
<path d="M 0.05639111291016047 0.09747304197692708 C 0.05632899915347501 0.09747304197692708 0.055521520316564 0.09747304197692708 0.05564574782993492 0.09747304197692708 C 0.055521520316564 0.09747304197692708 0.05483826899302393 0.09747304197692708 0.05490038274970939 0.09747304197692708" fill="none" stroke="#000000" stroke-width="0.001"/>
<path d="M 0.05490038274970939 0.09747304197692708 C 0.054432514229530916 0.09712591385018485 0.04816814121350694 0.09282862193425095 0.049285960507567714 0.09330750445602028 C 0.04816814121350694 0.09282862193425095 0.0408366004470978 0.09159469732066813 0.0414865512209801 0.09172645171569523" fill="none" stroke="#000000" stroke-width="0.001"/>
<path d="M 0.0414865512209801 0.09172645171569523 C 0.04165028015060711 0.09127507981065285 0.04386356941021242 0.08560623691999528 0.04345129837650417 0.0863099888551867 C 0.04386356941021242 0.08560623691999528 0.046682345729560384 0.08302904846324913 0.046433803625479136 0.08328142849339817" fill="none" stroke="none" stroke-width="0"/>
</g><g transform="translate(0.3373434528286707,0.19406613175718568) rotate(0) scale(1,1) translate(-0.05564574782993492,-0.09283117384426133)"><path d="M 0.046433803625479136 0.08328142849339817 C 0.04666832385996539 0.08309992391207438 0.049874563338874515 0.08009134978415719 0.049248046439314186 0.08110337351751273 C 0.049874563338874515 0.08009134978415719 0.05434400308527715 0.07030662454109998 0.05395200642020308 0.07113714369313173" fill="none" stroke="#000000" stroke-width="0.001"/>
<path d="M 0.05395200642020308 0.07113714369313173 C 0.05409315153768073 0.07102029178301915 0.05592803806489023 0.06973492077178073 0.05564574782993492 0.06973492077178073 C 0.05592803806489023 0.06973492077178073 0.057480634357144414 0.07125399560324432 0.05733948923966676 0.07113714369313173" fill="none" stroke="#000000" stroke-width="0.001"/>
<path d="M 0.05733948923966676 0.07113714369313173 C 0.05773148590474084 0.07196766284516348 0.06266996612011598 0.08211539725086828 0.06204344922055565 0.08110337351751273 C 0.06266996612011598 0.08211539725086828 0.06509221226887696 0.08346293307472197 0.06485769203439071 0.08328142849339817" fill="none" stroke="#000000" stroke-width="0.001"/>
<path d="M 0.06485769203439071 0.08328142849339817 C 0.06522175613679893 0.08344420853460094 0.06992612848795725 0.08565001768817682 0.06922646126328924 0.08523478898783128 C 0.06992612848795725 0.08565001768817682 0.07358930185266663 0.0885166215566873 0.07325369873040682 0.08826417289754453" fill="none" stroke="#000000" stroke-width="0.001"/>
<path d="M 0.07325369873040682 0.08826417289754453 C 0.07231635176556477 0.08872131036307088 0.06060031966728159 0.09455408807612928 0.06200553515230212 0.0937498224838607 C 0.06060031966728159 0.09455408807612928 0.055923244389981995 0.09826248813150971 0.05639111291016047 0.09791536000476748" fill="none" stroke="#000000" stroke-width="0.001"/>
<path d="M 0.05639111291016047 0.09791536000476748 C 0.05632899915347501 0.09791536000476748 0.055521520316564 0.09791536000476748 0.05564574782993492 0.09791536000476748 C 0.055521520316564 0.09791536000476748 0.05483826899302393 0.09791536000476748 0.05490038274970939 0.09791536000476748" fill="none" stroke="#000000" stroke-width="0.001"/>
<path d="M 0.05490038274970939 0.09791536000476748 C 0.054432514229530916 0.09756823187802525 0.047880745022547175 0.09294555689159212 0.049285960507567714 0.0937498224838607 C 0.047880745022547175 0.09294555689159212 0.037100449964620905 0.08780703543201818 0.038037796929462964 0.08826417289754453" fill="none" stroke="#000000" stroke-width="0.001"/>
<path d="M 0.038037796929462964 0.08826417289754453 C 0.03837340005172277 0.08801172423840176 0.04276470162124861 0.08481956028748575 0.042065034396580596 0.08523478898783128 C 0.04276470162124861 0.08481956028748575 0.04679786772788735 0.08311864845219541 0.046433803625479136 0.08328142849339817" fill="none" stroke="#000000" stroke-width="0.001"/>
</g><g id="鎧左">
<g transform="translate(0.323378274438286,0.19772873376571637) rotate(0) scale(1,1) translate(-0.023836682994024576,-0.023836682994024572)"><path d="M 0.011846982126521868 0.010406400749895102 C 0.012230145348846885 0.01074405381284262 0.017275147885207343 0.01491240307338594 0.016444940794422075 0.014458237505265313 C 0.017275147885207343 0.01491240307338594 0.022676068694383142 0.015997324209387424 0.021809467215945087 0.015856387567342645 C 0.022676068694383142 0.015997324209387424 0.027709935269671974 0.01603119910366982 0.026844158535678734 0.016149477209802678 C 0.027709935269671974 0.01603119910366982 0.032714860821573113 0.01434082081778566 0.032198788023863965 0.01443705029374834 C 0.032714860821573113 0.01434082081778566 0.03310688578188219 0.01504119626529235 0.03303703210818848 0.014994723498250503" fill="none" stroke="#000000" stroke-width="0.001"/>
<path d="M 0.03303703210818848 0.014994723498250503 C 0.03297013185952607 0.01529892241581938 0.03203964494400265 0.019134215399575088 0.032234229124239504 0.018645110509077033 C 0.03203964494400265 0.019134215399575088 0.030574338013771806 0.02104888815715633 0.030702021945346245 0.020863982184227154" fill="none" stroke="#000000" stroke-width="0.001"/>
<path d="M 0.030702021945346245 0.020863982184227154 C 0.030434230589993738 0.021163838141324946 0.02697584732163513 0.025124333854899376 0.027488525681116156 0.024462253669400667 C 0.02697584732163513 0.025124333854899376 0.024304994627445405 0.029171168638612577 0.024549881631573924 0.02880894441021166" fill="none" stroke="#000000" stroke-width="0.001"/>
<path d="M 0.024549881631573924 0.02880894441021166 C 0.02406108794993309 0.02907962570117702 0.017752082043340285 0.03156360019184761 0.018684357451883883 0.032057119901795994 C 0.017752082043340285 0.03156360019184761 0.012919095002147978 0.02212250688991729 0.013362576729050741 0.022886707890831037" fill="none" stroke="none" stroke-width="0"/>
<path d="M 0.013362576729050741 0.022886707890831037 C 0.013028266654051112 0.021959956146848928 0.011104117178631483 0.015246146236782393 0.011356716279052962 0.017326197426938382 C 0.011104117178631483 0.015246146236782393 0.01192869310110002 0.009253101303721221 0.011846982126521868 0.010406400749895102" fill="none" stroke="#000000" stroke-width="0.001"/>
</g><g transform="translate(0.32111847423009265,0.19918117213653652) rotate(0) scale(1,1) translate(-0.02745500941535619,-0.027455009415356186)"><path d="M 0.025890692069872562 0.028181645358547266 C 0.026407149769978117 0.02879307462017944 0.029745657635710274 0.0323157521120363 0.028989438270505895 0.03185022092834032 C 0.029745657635710274 0.0323157521120363 0.03066776992619766 0.030828934382786957 0.030428008261098836 0.03097483246072315" fill="none" stroke="#000000" stroke-width="0.001"/>
<path d="M 0.030428008261098836 0.03097483246072315 C 0.030330042536725593 0.031282947126962064 0.02911169364281843 0.03524520249892626 0.02925241956861991 0.03467220845559012 C 0.02911169364281843 0.03524520249892626 0.02869653695005288 0.03811564035785406 0.028739297151481113 0.037850760980756834" fill="none" stroke="#000000" stroke-width="0.001"/>
<path d="M 0.028739297151481113 0.037850760980756834 C 0.028586367719171325 0.0381281409569792 0.026477479228284972 0.04125895108630954 0.02690414396376364 0.04117932069542522 C 0.026477479228284972 0.04125895108630954 0.023345585022568234 0.038608576086030535 0.02361932032573711 0.03880632567136859" fill="none" stroke="#000000" stroke-width="0.001"/>
<path d="M 0.02361932032573711 0.03880632567136859 C 0.023441533597396022 0.03829721926592805 0.02197560575009758 0.03446312503315242 0.02255259995569058 0.03575168723872535 C 0.02197560575009758 0.03446312503315242 0.019605372325993298 0.029291770555033885 0.02015735509217912 0.031074952437931024 C 0.019605372325993298 0.029291770555033885 0.01908792806964174 0.024048869858577772 0.019240703358575653 0.02505259594134252" fill="none" stroke="#000000" stroke-width="0.001"/>
<path d="M 0.019240703358575653 0.02505259594134252 C 0.01952135939282585 0.025177449340695986 0.023162741495519414 0.026811590851684487 0.022608575769578004 0.02655083673358409 C 0.023162741495519414 0.026811590851684487 0.02616420176156377 0.028317546077294198 0.025890692069872556 0.028181645358547266" fill="none" stroke="#000000" stroke-width="0.001"/>
</g></g>
<g id="鎧右">
<g transform="translate(0.35130863121905537,0.19772873376571637) rotate(0) scale(1,1) translate(-0.023836682994024576,-0.023836682994024572)"><path d="M 0.035826383861527165 0.010406400749895102 C 0.035908094836105325 0.011559700196068983 0.03606405060857467 0.01940624861709437 0.03631664970899614 0.017326197426938382 C 0.03606405060857467 0.01940624861709437 0.0339764791839987 0.023813459634813145 0.03431078925899834 0.022886707890831037" fill="none" stroke="#000000" stroke-width="0.001"/>
<path d="M 0.03431078925899834 0.022886707890831037 C 0.033867307532095575 0.023650908891744784 0.028056733127621608 0.03255063961174438 0.02898900853616521 0.032057119901795994 C 0.028056733127621608 0.03255063961174438 0.022634690674834267 0.028538263119246298 0.02312348435647511 0.02880894441021166" fill="none" stroke="none" stroke-width="0"/>
<path d="M 0.02312348435647511 0.02880894441021166 C 0.022878597352346593 0.028446720181810742 0.019672161947451885 0.023800173483901958 0.020184840306932912 0.024462253669400667 C 0.019672161947451885 0.023800173483901958 0.016703552687350267 0.020564126227129362 0.016971344042702778 0.020863982184227154" fill="none" stroke="#000000" stroke-width="0.001"/>
<path d="M 0.016971344042702778 0.020863982184227154 C 0.01684366011112834 0.020679076211297977 0.015244552683572655 0.01815600561857898 0.015439136863809502 0.018645110509077033 C 0.015244552683572655 0.01815600561857898 0.014569433631198208 0.014690524580681626 0.014636333879860615 0.014994723498250503" fill="none" stroke="#000000" stroke-width="0.001"/>
<path d="M 0.014636333879860615 0.014994723498250503 C 0.014706187553554321 0.014948250731208656 0.015990650761894244 0.01453327976971102 0.0154745779641851 0.01443705029374834 C 0.015990650761894244 0.01453327976971102 0.02169498418636361 0.016267755315935536 0.020829207452370366 0.016149477209802678 C 0.02169498418636361 0.016267755315935536 0.026730500250542057 0.015715450925297865 0.02586389877210401 0.015856387567342645 C 0.026730500250542057 0.015715450925297865 0.032058632284412206 0.014004071937144685 0.031228425193626945 0.014458237505265313 C 0.032058632284412206 0.014004071937144685 0.036209547083852184 0.010068747686947585 0.035826383861527165 0.010406400749895102" fill="none" stroke="#000000" stroke-width="0.001"/>
</g><g transform="translate(0.35356843142724853,0.19918117213653652) rotate(0) scale(1,1) translate(-0.02745500941535619,-0.027455009415356186)"><path d="M 0.029019326760839768 0.028181645358547266 C 0.02929283645253098 0.028045744639800335 0.032855608787075725 0.026290082615483695 0.03230144306113432 0.02655083673358409 C 0.032855608787075725 0.026290082615483695 0.03594997150638685 0.024927742541989057 0.035669315472136656 0.02505259594134252" fill="none" stroke="#000000" stroke-width="0.001"/>
<path d="M 0.035669315472136656 0.02505259594134252 C 0.03551654018320275 0.02605632202410727 0.03420068097234742 0.03285813432082816 0.03475266373853324 0.031074952437931024 C 0.03420068097234742 0.03285813432082816 0.03178042466942877 0.037040249444298276 0.032357418875021776 0.03575168723872535 C 0.03178042466942877 0.037040249444298276 0.031112911776634094 0.039315432076809126 0.03129069850497519 0.03880632567136859" fill="none" stroke="#000000" stroke-width="0.001"/>
<path d="M 0.03129069850497519 0.03880632567136859 C 0.031016963201806316 0.03900407525670664 0.027579210131470036 0.04109969030454091 0.0280058748669487 0.04117932069542522 C 0.027579210131470036 0.04109969030454091 0.026017792246921433 0.037573381004534466 0.02617072167923122 0.037850760980756834" fill="none" stroke="#000000" stroke-width="0.001"/>
<path d="M 0.02617072167923122 0.037850760980756834 C 0.026127961477802983 0.03758588160365961 0.025516873336290897 0.03409921441225398 0.025657599262092372 0.03467220845559012 C 0.025516873336290897 0.03409921441225398 0.0243840448452403 0.03066671779448424 0.024482010569613535 0.03097483246072315" fill="none" stroke="#000000" stroke-width="0.001"/>
<path d="M 0.024482010569613535 0.03097483246072315 C 0.02472177223471235 0.031120730538659346 0.026676799925410805 0.03138468974464434 0.025920580560206432 0.03185022092834032 C 0.026676799925410805 0.03138468974464434 0.029535784460945323 0.027570216096915092 0.029019326760839768 0.028181645358547266" fill="none" stroke="#000000" stroke-width="0.001"/>
</g></g>
<g id="胸鎧左">
<g transform="translate(0.3179022952219229,0.17631404971750406) rotate(0) scale(1,1) translate(-0.006729399287076907,-0.006729399287076907)"><path d="M 0.004958044824598421 -0.002478609691814364 C 0.005390068989871707 -0.002313218308462632 0.011096723444337733 -0.00018780001861591172 0.010142334807877854 -0.0004939130915935751 C 0.011096723444337733 -0.00018780001861591172 0.017511705739224285 0.0014844315649288693 0.016410708462116952 0.0011947471839175961 C 0.017511705739224285 0.0014844315649288693 0.02386181909792822 0.0036709088013761036 0.023354302133165868 0.0029822994805417022 C 0.02386181909792822 0.0036709088013761036 0.022053776267610476 0.01046221094399505 0.0225009120392652 0.009458059033930414 C 0.022053776267610476 0.01046221094399505 0.01761265294281285 0.015496627681932915 0.017988672873309186 0.015032122401317339" fill="none" stroke="#000000" stroke-width="0.001"/>
<path d="M -0.0004238371265081546 0.0024416211641657883 C -0.0001195685024365493 0.0020915688738860237 0.003675876524943323 -0.0021690255571897347 0.003227386362351109 -0.0017590063191913888 C 0.003675876524943323 -0.0021690255571897347 0.005102266363119024 -0.0025385766395329447 0.004958044824598415 -0.0024786096918143633" fill="none" stroke="#000000" stroke-width="0.001"/>
</g><g transform="translate(0.31344327512966547,0.19015568246020126) rotate(0) scale(1,1) translate(-0.0341383493377638,-0.0341383493377638)"><path d="M 0.036423195046846386 0.01962164277409705 C 0.0369667386426401 0.019790411229339437 0.04387613759648549 0.021868849471129888 0.04294571819637093 0.021646864237005705 C 0.04387613759648549 0.021868849471129888 0.04797510365254195 0.02233868236246906 0.0475882278482211 0.022285465583587263" fill="none" stroke="#000000" stroke-width="0.001"/>
<path d="M 0.0475882278482211 0.022285465583587263 C 0.047713385353166556 0.02251720013346411 0.04939458455265143 0.02546774727103617 0.04909011790756654 0.02506628018210942 C 0.04939458455265143 0.02546774727103617 0.05142113672937922 0.027272803189758183 0.051241827589239786 0.02710307065070828" fill="none" stroke="#000000" stroke-width="0.001"/>
<path d="M 0.051241827589239786 0.02710307065070828 C 0.05120578276623733 0.027173620606794603 0.05069385766546146 0.028074367545294073 0.05080928971321031 0.027949670123744177 C 0.05069385766546146 0.028074367545294073 0.04977725579150718 0.028653587174770588 0.049856643016253574 0.028599439709307017" fill="none" stroke="#000000" stroke-width="0.001"/>
<path d="M 0.049856643016253574 0.028599439709307017 C 0.04938829756107376 0.028788604842772274 0.04344999855501347 0.031297137320586754 0.04423649755409583 0.030869421310890096 C 0.04344999855501347 0.031297137320586754 0.040100501483362666 0.033970582701898275 0.040418655027265216 0.03373203182566688" fill="none" stroke="#000000" stroke-width="0.001"/>
<path d="M 0.040418655027265216 0.03373203182566688 C 0.039910352645351414 0.033520323363383224 0.03345828657449227 0.030528258820255706 0.034319026444299586 0.03119153027826302 C 0.03345828657449227 0.030528258820255706 0.029684776574489154 0.024713036429688088 0.030089776589577417 0.02577277432957911 C 0.029684776574489154 0.024713036429688088 0.029601438511396395 0.01727762187948522 0.029459026263240432 0.018474675479570782 C 0.029601438511396395 0.01727762187948522 0.031993698342799665 0.010819252432634164 0.03179872356744896 0.011408131128552365" fill="none" stroke="#000000" stroke-width="0.001"/>
<path d="M 0.03179872356744896 0.011408131128552365 C 0.031920690660738854 0.01148655491360117 0.03364770131021087 0.013033675852933423 0.03326232868692775 0.012349216549138033 C 0.03364770131021087 0.013033675852933423 0.036686600576839604 0.020227678292843634 0.036423195046846386 0.01962164277409705" fill="none" stroke="#000000" stroke-width="0.001"/>
</g></g>
<g id="胸鎧右">
<g transform="translate(0.35678461043541837,0.17631404971750406) rotate(0) scale(1,1) translate(-0.006729399287076907,-0.006729399287076907)"><path d="M 0.008500753749555511 -0.0024786096918143633 C 0.008644975288076116 -0.002418642744095782 0.010679902374394987 -0.0013489870811930428 0.010231412211802767 -0.0017590063191913888 C 0.010679902374394987 -0.0013489870811930428 0.014186904324733766 0.002791673454445553 0.01388263570066215 0.0024416211641657883" fill="none" stroke="#000000" stroke-width="0.001"/>
<path d="M -0.0045298742991553426 0.015032122401317339 C -0.0049058942296516745 0.014567617120701763 -0.009489249236766046 0.008453907123865777 -0.009042113465111327 0.009458059033930414 C -0.009489249236766046 0.008453907123865777 -0.009387986594249624 0.002293690159707301 -0.009895503559011976 0.0029822994805417022 C -0.009387986594249624 0.002293690159707301 -0.001850912610855776 0.000905062802906323 -0.0029519098879631123 0.0011947471839175961 C -0.001850912610855776 0.000905062802906323 0.004270852402735946 -0.0008000261645712385 0.00331646376627606 -0.0004939130915935751 C 0.004270852402735946 -0.0008000261645712385 0.008932777914828799 -0.0026440010751660964 0.008500753749555511 -0.002478609691814364" fill="none" stroke="#000000" stroke-width="0.001"/>
</g><g transform="translate(0.36124363052767583,0.19015568246020126) rotate(0) scale(1,1) translate(-0.0341383493377638,-0.0341383493377638)"><path d="M 0.03185350362868131 0.01962164277409705 C 0.03211690915867452 0.019015607255350463 0.03539974261188298 0.011664757245342643 0.035014369988599865 0.012349216549138033 C 0.03539974261188298 0.011664757245342643 0.03659994220136856 0.01132970734350356 0.03647797510807866 0.011408131128552365" fill="none" stroke="#000000" stroke-width="0.001"/>
<path d="M 0.03647797510807866 0.011408131128552365 C 0.036672949883429375 0.011997009824470566 0.038960084660443164 0.019671729079656343 0.0388176724122872 0.018474675479570782 C 0.038960084660443164 0.019671729079656343 0.03778192207086196 0.02683251222947013 0.038186922085950224 0.02577277432957911 C 0.03778192207086196 0.02683251222947013 0.033096932361420715 0.03185480173627033 0.03395767223122803 0.03119153027826302 C 0.033096932361420715 0.03185480173627033 0.02734974126634864 0.03394374028795053 0.02785804364826244 0.03373203182566688" fill="none" stroke="#000000" stroke-width="0.001"/>
<path d="M 0.02785804364826244 0.03373203182566688 C 0.02753989010435989 0.03349348094943548 0.023253702122349465 0.03044170530119344 0.024040201121431827 0.030869421310890096 C 0.023253702122349465 0.03044170530119344 0.017951710204094286 0.02841027457584176 0.0184200556592741 0.028599439709307017" fill="none" stroke="#000000" stroke-width="0.001"/>
<path d="M 0.0184200556592741 0.028599439709307017 C 0.018340668434527703 0.028545292243843445 0.01735197691456849 0.027824972702194282 0.01746740896231734 0.027949670123744177 C 0.01735197691456849 0.027824972702194282 0.016998826263285416 0.027032520694621955 0.017034871086287873 0.02710307065070828" fill="none" stroke="#000000" stroke-width="0.001"/>
<path d="M 0.017034871086287873 0.02710307065070828 C 0.017214180226427307 0.026933338111658375 0.019491047413045977 0.02466481309318267 0.019186580767961092 0.02506628018210942 C 0.019491047413045977 0.02466481309318267 0.020813628332251956 0.022053731033710416 0.020688470827306505 0.022285465583587263" fill="none" stroke="#000000" stroke-width="0.001"/>
<path d="M 0.020688470827306505 0.022285465583587263 C 0.02107534663162736 0.022232248804705465 0.026261399879271327 0.021424879002881522 0.02533098047915676 0.021646864237005705 C 0.026261399879271327 0.021424879002881522 0.03239704722447502 0.01945287431885466 0.03185350362868131 0.01962164277409705" fill="none" stroke="#000000" stroke-width="0.001"/>
</g></g>
</svg>
