<?xml version="1.0" encoding="UTF-8"?>
<svg xmlns="http://www.w3.org/2000/svg" viewBox="0 0 1 1">
<g transform="translate(0.3373434528286706,0.2649004817027368) rotate(0) scale(1,1) translate(-0.31403212779456446,-0.3097273832173949)"><path d="M 0.32196722870051286 0.2988056537933331 C 0.32410710586217695 0.3003603655559895 0.32768875110855505 0.30807123026802036 0.326871390764549 0.3055556537933331 C 0.32768875110855505 0.30807123026802036 0.326054030420543 0.31641468911614395 0.326871390764549 0.3138991126414567 C 0.326054030420543 0.31641468911614395 0.3198273515388488 0.32220382440411305 0.32196722870051286 0.3206491126414567 C 0.3198273515388488 0.32220382440411305 0.3113870941592483 0.3232273832173949 0.31403212779456446 0.3232273832173949 C 0.3113870941592483 0.3232273832173949 0.303957149726952 0.3190944008788003 0.30609702688861606 0.3206491126414567 C 0.303957149726952 0.3190944008788003 0.3003755044805738 0.31138353616676945 0.30119286482457985 0.3138991126414567 C 0.3003755044805738 0.31138353616676945 0.3020102251685859 0.30304007731864585 0.30119286482457985 0.3055556537933331 C 0.3020102251685859 0.30304007731864585 0.30823690405028015 0.29725094203067676 0.30609702688861606 0.2988056537933331 C 0.30823690405028015 0.29725094203067676 0.3166771614298806 0.2962273832173949 0.31403212779456446 0.2962273832173949 C 0.3166771614298806 0.2962273832173949 0.32410710586217695 0.3003603655559895 0.32196722870051286 0.2988056537933331 Z" fill="#cccccc" stroke="none" stroke-width="0"/>
</g><g transform="translate(0.3372667280599853,0.26309199943035116) rotate(0) scale(1,1) translate(-0.04481464761927566,-0.04481464761927564)"><path d="M 0.045364014516182785 0.04405850895466732 C 0.045438089042140264 0.044112327248017266 0.045731835881980674 0.04461290817745994 0.04570354193076545 0.04452582834960322 C 0.045731835881980674 0.04461290817745994 0.04567524797955023 0.04519054671680478 0.04570354193076545 0.045103466888948056 C 0.04567524797955023 0.04519054671680478 0.045289939990225306 0.0456246045772339 0.045364014516182785 0.04557078628388395 C 0.045289939990225306 0.0456246045772339 0.044723086469791146 0.04574928640914743 0.044814647619275665 0.04574928640914743 C 0.044723086469791146 0.04574928640914743 0.04419120619641106 0.04551696799053401 0.04426528072236854 0.04557078628388395 C 0.04419120619641106 0.04551696799053401 0.043897459356570655 0.04501638706109133 0.04392575330778588 0.045103466888948056 C 0.043897459356570655 0.04501638706109133 0.0439540472590011 0.04443874852174649 0.04392575330778588 0.04452582834960322 C 0.0439540472590011 0.04443874852174649 0.044339355248326016 0.044004690661317375 0.04426528072236854 0.04405850895466732 C 0.044339355248326016 0.044004690661317375 0.044906208768760184 0.04388000882940385 0.044814647619275665 0.04388000882940385 C 0.044906208768760184 0.04388000882940385 0.045438089042140264 0.044112327248017266 0.045364014516182785 0.04405850895466732 Z" fill="#cccccc" stroke="#000000" stroke-width="0.001"/>
</g><g transform="translate(0.3390905152416402,0.26473335080050736) rotate(0) scale(1,1) translate(-0.04481464761927566,-0.04481464761927564)"><path d="M 0.045364014516182785 0.04405850895466732 C 0.045438089042140264 0.044112327248017266 0.045731835881980674 0.04461290817745994 0.04570354193076545 0.04452582834960322 C 0.045731835881980674 0.04461290817745994 0.04567524797955023 0.04519054671680478 0.04570354193076545 0.045103466888948056 C 0.04567524797955023 0.04519054671680478 0.045289939990225306 0.0456246045772339 0.045364014516182785 0.04557078628388395 C 0.045289939990225306 0.0456246045772339 0.044723086469791146 0.04574928640914743 0.044814647619275665 0.04574928640914743 C 0.044723086469791146 0.04574928640914743 0.04419120619641106 0.04551696799053401 0.04426528072236854 0.04557078628388395 C 0.04419120619641106 0.04551696799053401 0.043897459356570655 0.04501638706109133 0.04392575330778588 0.045103466888948056 C 0.043897459356570655 0.04501638706109133 0.0439540472590011 0.04443874852174649 0.04392575330778588 0.04452582834960322 C 0.0439540472590011 0.04443874852174649 0.044339355248326016 0.044004690661317375 0.04426528072236854 0.04405850895466732 C 0.044339355248326016 0.044004690661317375 0.044906208768760184 0.04388000882940385 0.044814647619275665 0.04388000882940385 C 0.044906208768760184 0.04388000882940385 0.045438089042140264 0.044112327248017266 0.045364014516182785 0.04405850895466732 Z" fill="#cccccc" stroke="#000000" stroke-width="0.001"/>
</g><g transform="translate(0.3385961838202965,0.26723851405074045) rotate(0) scale(1,1) translate(-0.04481464761927566,-0.04481464761927564)"><path d="M 0.045364014516182785 0.04405850895466732 C 0.045438089042140264 0.044112327248017266 0.045731835881980674 0.04461290817745994 0.04570354193076545 0.04452582834960322 C 0.045731835881980674 0.04461290817745994 0.04567524797955023 0.04519054671680478 0.04570354193076545 0.045103466888948056 C 0.04567524797955023 0.04519054671680478 0.045289939990225306 0.0456246045772339 0.045364014516182785 0.04557078628388395 C 0.045289939990225306 0.0456246045772339 0.044723086469791146 0.04574928640914743 0.044814647619275665 0.04574928640914743 C 0.044723086469791146 0.04574928640914743 0.04419120619641106 0.04551696799053401 0.04426528072236854 0.04557078628388395 C 0.04419120619641106 0.04551696799053401 0.043897459356570655 0.04501638706109133 0.04392575330778588 0.045103466888948056 C 0.043897459356570655 0.04501638706109133 0.0439540472590011 0.04443874852174649 0.04392575330778588 0.04452582834960322 C 0.0439540472590011 0.04443874852174649 0.044339355248326016 0.044004690661317375 0.04426528072236854 0.04405850895466732 C 0.044339355248326016 0.044004690661317375 0.044906208768760184 0.04388000882940385 0.044814647619275665 0.04388000882940385 C 0.044906208768760184 0.04388000882940385 0.045438089042140264 0.044112327248017266 0.045364014516182785 0.04405850895466732 Z" fill="#cccccc" stroke="#000000" stroke-width="0.001"/>
</g><g transform="translate(0.33593727229967413,0.2669060400531041) rotate(0) scale(1,1) translate(-0.04481464761927566,-0.04481464761927564)"><path d="M 0.045364014516182785 0.04405850895466732 C 0.045438089042140264 0.044112327248017266 0.045731835881980674 0.04461290817745994 0.04570354193076545 0.04452582834960322 C 0.045731835881980674 0.04461290817745994 0.04567524797955023 0.04519054671680478 0.04570354193076545 0.045103466888948056 C 0.04567524797955023 0.04519054671680478 0.045289939990225306 0.0456246045772339 0.045364014516182785 0.04557078628388395 C 0.045289939990225306 0.0456246045772339 0.044723086469791146 0.04574928640914743 0.044814647619275665 0.04574928640914743 C 0.044723086469791146 0.04574928640914743 0.04419120619641106 0.04551696799053401 0.04426528072236854 0.04557078628388395 C 0.04419120619641106 0.04551696799053401 0.043897459356570655 0.04501638706109133 0.04392575330778588 0.045103466888948056 C 0.043897459356570655 0.04501638706109133 0.0439540472590011 0.04443874852174649 0.04392575330778588 0.04452582834960322 C 0.0439540472590011 0.04443874852174649 0.044339355248326016 0.044004690661317375 0.04426528072236854 0.04405850895466732 C 0.044339355248326016 0.044004690661317375 0.044906208768760184 0.04388000882940385 0.044814647619275665 0.04388000882940385 C 0.044906208768760184 0.04388000882940385 0.045438089042140264 0.044112327248017266 0.045364014516182785 0.04405850895466732 Z" fill="#cccccc" stroke="#000000" stroke-width="0.001"/>
</g><g transform="translate(0.335570815492806,0.2643497269570807) rotate(0) scale(1,1) translate(-0.04481464761927566,-0.04481464761927564)"><path d="M 0.045364014516182785 0.04405850895466732 C 0.045438089042140264 0.044112327248017266 0.045731835881980674 0.04461290817745994 0.04570354193076545 0.04452582834960322 C 0.045731835881980674 0.04461290817745994 0.04567524797955023 0.04519054671680478 0.04570354193076545 0.045103466888948056 C 0.04567524797955023 0.04519054671680478 0.045289939990225306 0.0456246045772339 0.045364014516182785 0.04557078628388395 C 0.045289939990225306 0.0456246045772339 0.044723086469791146 0.04574928640914743 0.044814647619275665 0.04574928640914743 C 0.044723086469791146 0.04574928640914743 0.04419120619641106 0.04551696799053401 0.04426528072236854 0.04557078628388395 C 0.04419120619641106 0.04551696799053401 0.043897459356570655 0.04501638706109133 0.04392575330778588 0.045103466888948056 C 0.043897459356570655 0.04501638706109133 0.0439540472590011 0.04443874852174649 0.04392575330778588 0.04452582834960322 C 0.0439540472590011 0.04443874852174649 0.044339355248326016 0.044004690661317375 0.04426528072236854 0.04405850895466732 C 0.044339355248326016 0.044004690661317375 0.044906208768760184 0.04388000882940385 0.044814647619275665 0.04388000882940385 C 0.044906208768760184 0.04388000882940385 0.045438089042140264 0.044112327248017266 0.045364014516182785 0.04405850895466732 Z" fill="#cccccc" stroke="#000000" stroke-width="0.001"/>
</g><g transform="translate(0.33889604998607886,0.26234799114391216) rotate(0) scale(1,1) translate(-0.04481464761927566,-0.044814647619275644)"><path d="M 0.045364014516182785 0.04405850895466732 C 0.045438089042140264 0.044112327248017266 0.045731835881980674 0.04461290817745994 0.04570354193076545 0.04452582834960322 C 0.045731835881980674 0.04461290817745994 0.04567524797955023 0.04519054671680478 0.04570354193076545 0.045103466888948056 C 0.04567524797955023 0.04519054671680478 0.045289939990225306 0.0456246045772339 0.045364014516182785 0.04557078628388395 C 0.045289939990225306 0.0456246045772339 0.044723086469791146 0.04574928640914743 0.044814647619275665 0.04574928640914743 C 0.044723086469791146 0.04574928640914743 0.04419120619641106 0.04551696799053401 0.04426528072236854 0.04557078628388395 C 0.04419120619641106 0.04551696799053401 0.043897459356570655 0.04501638706109133 0.04392575330778588 0.045103466888948056 C 0.043897459356570655 0.04501638706109133 0.0439540472590011 0.04443874852174649 0.04392575330778588 0.04452582834960322 C 0.0439540472590011 0.04443874852174649 0.044339355248326016 0.044004690661317375 0.04426528072236854 0.04405850895466732 C 0.044339355248326016 0.044004690661317375 0.044906208768760184 0.04388000882940385 0.044814647619275665 0.04388000882940385 C 0.044906208768760184 0.04388000882940385 0.045438089042140264 0.044112327248017266 0.045364014516182785 0.04405850895466732 Z" fill="#cccccc" stroke="#000000" stroke-width="0.001"/>
</g><g transform="translate(0.34043636836485375,0.2660534334083706) rotate(0) scale(1,1) translate(-0.04481464761927566,-0.044814647619275644)"><path d="M 0.045364014516182785 0.04405850895466732 C 0.045438089042140264 0.044112327248017266 0.045731835881980674 0.04461290817745994 0.04570354193076545 0.04452582834960322 C 0.045731835881980674 0.04461290817745994 0.04567524797955023 0.04519054671680478 0.04570354193076545 0.045103466888948056 C 0.04567524797955023 0.04519054671680478 0.045289939990225306 0.0456246045772339 0.045364014516182785 0.04557078628388395 C 0.045289939990225306 0.0456246045772339 0.044723086469791146 0.04574928640914743 0.044814647619275665 0.04574928640914743 C 0.044723086469791146 0.04574928640914743 0.04419120619641106 0.04551696799053401 0.04426528072236854 0.04557078628388395 C 0.04419120619641106 0.04551696799053401 0.043897459356570655 0.04501638706109133 0.04392575330778588 0.045103466888948056 C 0.043897459356570655 0.04501638706109133 0.0439540472590011 0.04443874852174649 0.04392575330778588 0.04452582834960322 C 0.0439540472590011 0.04443874852174649 0.044339355248326016 0.044004690661317375 0.04426528072236854 0.04405850895466732 C 0.044339355248326016 0.044004690661317375 0.044906208768760184 0.04388000882940385 0.044814647619275665 0.04388000882940385 C 0.044906208768760184 0.04388000882940385 0.045438089042140264 0.044112327248017266 0.045364014516182785 0.04405850895466732 Z" fill="#cccccc" stroke="#000000" stroke-width="0.001"/>
</g><g transform="translate(0.3369086791394538,0.26854493511720423) rotate(0) scale(1,1) translate(-0.04481464761927566,-0.044814647619275644)"><path d="M 0.045364014516182785 0.04405850895466732 C 0.045438089042140264 0.044112327248017266 0.045731835881980674 0.04461290817745994 0.04570354193076545 0.04452582834960322 C 0.045731835881980674 0.04461290817745994 0.04567524797955023 0.04519054671680478 0.04570354193076545 0.045103466888948056 C 0.04567524797955023 0.04519054671680478 0.045289939990225306 0.0456246045772339 0.045364014516182785 0.04557078628388395 C 0.045289939990225306 0.0456246045772339 0.044723086469791146 0.04574928640914743 0.044814647619275665 0.04574928640914743 C 0.044723086469791146 0.04574928640914743 0.04419120619641106 0.04551696799053401 0.04426528072236854 0.04557078628388395 C 0.04419120619641106 0.04551696799053401 0.043897459356570655 0.04501638706109133 0.04392575330778588 0.045103466888948056 C 0.043897459356570655 0.04501638706109133 0.0439540472590011 0.04443874852174649 0.04392575330778588 0.04452582834960322 C 0.0439540472590011 0.04443874852174649 0.044339355248326016 0.044004690661317375 0.04426528072236854 0.04405850895466732 C 0.044339355248326016 0.044004690661317375 0.044906208768760184 0.04388000882940385 0.044814647619275665 0.04388000882940385 C 0.044906208768760184 0.04388000882940385 0.045438089042140264 0.044112327248017266 0.045364014516182785 0.04405850895466732 Z" fill="#cccccc" stroke="#000000" stroke-width="0.001"/>
</g><g transform="translate(0.33419938744669736,0.2660534334083706) rotate(0) scale(1,1) translate(-0.04481464761927566,-0.044814647619275644)"><path d="M 0.045364014516182785 0.04405850895466732 C 0.045438089042140264 0.044112327248017266 0.045731835881980674 0.04461290817745994 0.04570354193076545 0.04452582834960322 C 0.045731835881980674 0.04461290817745994 0.04567524797955023 0.04519054671680478 0.04570354193076545 0.045103466888948056 C 0.04567524797955023 0.04519054671680478 0.045289939990225306 0.0456246045772339 0.045364014516182785 0.04557078628388395 C 0.045289939990225306 0.0456246045772339 0.044723086469791146 0.04574928640914743 0.044814647619275665 0.04574928640914743 C 0.044723086469791146 0.04574928640914743 0.04419120619641106 0.04551696799053401 0.04426528072236854 0.04557078628388395 C 0.04419120619641106 0.04551696799053401 0.043897459356570655 0.04501638706109133 0.04392575330778588 0.045103466888948056 C 0.043897459356570655 0.04501638706109133 0.0439540472590011 0.04443874852174649 0.04392575330778588 0.04452582834960322 C 0.0439540472590011 0.04443874852174649 0.044339355248326016 0.044004690661317375 0.04426528072236854 0.04405850895466732 C 0.044339355248326016 0.044004690661317375 0.044906208768760184 0.04388000882940385 0.044814647619275665 0.04388000882940385 C 0.044906208768760184 0.04388000882940385 0.045438089042140264 0.044112327248017266 0.045364014516182785 0.04405850895466732 Z" fill="#cccccc" stroke="#000000" stroke-width="0.001"/>
</g><g transform="translate(0.3352793572133601,0.26265489021865324) rotate(0) scale(1,1) translate(-0.04481464761927566,-0.044814647619275644)"><path d="M 0.045364014516182785 0.04405850895466732 C 0.045438089042140264 0.044112327248017266 0.045731835881980674 0.04461290817745994 0.04570354193076545 0.04452582834960322 C 0.045731835881980674 0.04461290817745994 0.04567524797955023 0.04519054671680478 0.04570354193076545 0.045103466888948056 C 0.04567524797955023 0.04519054671680478 0.045289939990225306 0.0456246045772339 0.045364014516182785 0.04557078628388395 C 0.045289939990225306 0.0456246045772339 0.044723086469791146 0.04574928640914743 0.044814647619275665 0.04574928640914743 C 0.044723086469791146 0.04574928640914743 0.04419120619641106 0.04551696799053401 0.04426528072236854 0.04557078628388395 C 0.04419120619641106 0.04551696799053401 0.043897459356570655 0.04501638706109133 0.04392575330778588 0.045103466888948056 C 0.043897459356570655 0.04501638706109133 0.0439540472590011 0.04443874852174649 0.04392575330778588 0.04452582834960322 C 0.0439540472590011 0.04443874852174649 0.044339355248326016 0.044004690661317375 0.04426528072236854 0.04405850895466732 C 0.044339355248326016 0.044004690661317375 0.044906208768760184 0.04388000882940385 0.044814647619275665 0.04388000882940385 C 0.044906208768760184 0.04388000882940385 0.045438089042140264 0.044112327248017266 0.045364014516182785 0.04405850895466732 Z" fill="#cccccc" stroke="#000000" stroke-width="0.001"/>
</g></svg>
