<?xml version="1.0" encoding="UTF-8"?>
<svg xmlns="http://www.w3.org/2000/svg" viewBox="0 0 1 1">
<g transform="translate(0.33734039743949207,0.3454668444095271) rotate(0) scale(1,1) translate(-0.5000000000000002,-0.47233384179720206)"><path d="M 0.47414218431759136 0.47233384179720206 C 0.47443087518551363 0.47125643281043506 0.4786838837194255 0.45753880685038595 0.4776064747326585 0.45940493395599774 C 0.4786838837194255 0.45753880685038595 0.4889372192644075 0.44886290754309355 0.4870710921587957 0.44994031652986055 C 0.4889372192644075 0.44886290754309355 0.502154817973534 0.4464760261147934 0.5 0.4464760261147934 C 0.502154817973534 0.4464760261147934 0.5147950349468162 0.45101772551662755 0.5129289078412044 0.44994031652986055 C 0.5147950349468162 0.45101772551662755 0.5234709342541085 0.46127106106160953 0.5223935252673415 0.45940493395599774 C 0.5234709342541085 0.46127106106160953 0.5261465065503309 0.47341125078396906 0.5258578156824086 0.47233384179720206" fill="none" stroke="#000000" stroke-width="0.001"/>
<path d="M 0.5258578156824086 0.47233384179720206 C 0.5262672310973802 0.47307109889449256 0.5316875960639276 0.48258842150153813 0.5307708006620663 0.48118092696468784 C 0.5316875960639276 0.48258842150153813 0.5373667404916346 0.48989401367896535 0.5368593605047447 0.48922377623940555" fill="none" stroke="#000000" stroke-width="0.001"/>
<path d="M 0.5368593605047447 0.48922377623940555 C 0.5370846186288565 0.4899700620378808 0.5402590660582317 0.4998663311507771 0.5395624579940855 0.49817920582110875 C 0.5402590660582317 0.4998663311507771 0.5456900072145334 0.5104101197266189 0.5452186572744989 0.5094692801954258" fill="none" stroke="#000000" stroke-width="0.001"/>
<path d="M 0.5452186572744989 0.5094692801954258 C 0.5453103266143634 0.5102662995347123 0.5465302542147565 0.5208146084919474 0.5463186893528723 0.5190335122668632 C 0.5465302542147565 0.5208146084919474 0.5476682248042497 0.5327418620853892 0.54775743561711 0.530842434896435 C 0.5476682248042497 0.5327418620853892 0.544329508848031 0.5434790275157438 0.5452481595985491 0.5418266385343141 C 0.544329508848031 0.5434790275157438 0.5349502874278699 0.5517004505774392 0.5367336266108929 0.5506711026735912 C 0.5349502874278699 0.5517004505774392 0.5218405916610127 0.5543540310538821 0.5238480894022731 0.5541788133804899 C 0.5218405916610127 0.5543540310538821 0.5117099507418921 0.552656623202115 0.5126436537157676 0.5527737147542976" fill="none" stroke="#000000" stroke-width="0.001"/>
<path d="M 0.5126436537157676 0.5527737147542976 C 0.5120226525120435 0.5524110405038355 0.5041380014614307 0.5476263067810312 0.505191639271078 0.5484216237487524 C 0.5041380014614307 0.5476263067810312 0.4995673633940771 0.5427972684243846 0.5000000000000002 0.5432299111416437" fill="none" stroke="#000000" stroke-width="0.001"/>
<path d="M 0.5000000000000002 0.5432299111416437 C 0.49956736339407704 0.5436625538589027 0.49375472291927475 0.5492169407164735 0.49480836072892204 0.5484216237487524 C 0.49375472291927475 0.5492169407164735 0.4867353450805084 0.5531363890047597 0.4873563462842325 0.5527737147542976" fill="none" stroke="#000000" stroke-width="0.001"/>
<path d="M 0.4873563462842325 0.5527737147542976 C 0.4864226433103571 0.5528908063064802 0.4741444128564671 0.5540035957070977 0.4761519105977275 0.5541788133804899 C 0.4741444128564671 0.5540035957070977 0.46148303420608466 0.5496417547697432 0.46326637338910776 0.5506711026735912 C 0.46148303420608466 0.5496417547697432 0.45383318965093244 0.5401742495528844 0.45475184040145056 0.5418266385343141 C 0.45383318965093244 0.5401742495528844 0.4521533535700301 0.5289430077074808 0.45224256438289034 0.530842434896435 C 0.4521533535700301 0.5289430077074808 0.45389287550901203 0.5172524160417791 0.4536813106471278 0.5190335122668632 C 0.45389287550901203 0.5172524160417791 0.4548730120653656 0.5086722608561394 0.4547813427255012 0.5094692801954258" fill="none" stroke="#000000" stroke-width="0.001"/>
<path d="M 0.4547813427255012 0.5094692801954258 C 0.45525269266553564 0.5085284406642328 0.4611341500700608 0.4964920804914404 0.46043754200591464 0.49817920582110875 C 0.4611341500700608 0.4964920804914404 0.4633658976193671 0.4884774904409303 0.46314063949525536 0.48922377623940555" fill="none" stroke="#000000" stroke-width="0.001"/>
<path d="M 0.46314063949525536 0.48922377623940555 C 0.4636480194821452 0.48855353879984575 0.47014599473979485 0.47977343242783754 0.4692291993379335 0.48118092696468784 C 0.47014599473979485 0.47977343242783754 0.4745515997325628 0.47159658469991156 0.4741421843175913 0.47233384179720206" fill="none" stroke="#000000" stroke-width="0.001"/>
</g><g transform="translate(0.33734345282867073,0.3988082172926717) rotate(0) scale(1,1) translate(-0.09500000000000003,-0.10103679588786563)"><path d="M 0.11022836222174132 0.0890623703347507 C 0.10995538611883787 0.08949015196999117 0.10653671149296733 0.09514108404462565 0.1069526489869 0.09419574995763644 C 0.10653671149296733 0.09514108404462565 0.10509415090351999 0.1009239318303699 0.10523711229454923 0.10040637937862118" fill="none" stroke="#000000" stroke-width="0.001"/>
<path d="M 0.10523711229454923 0.10040637937862118 C 0.1051870540147468 0.10063068430660214 0.10452494355098269 0.10349646803700434 0.10463641293692018 0.10309803851439274 C 0.10452494355098269 0.10349646803700434 0.10383806855716429 0.10536165824459097 0.10389947966329936 0.10518753364996034" fill="none" stroke="#000000" stroke-width="0.001"/>
<path d="M 0.10389947966329936 0.10518753364996034 C 0.10381974806939835 0.10531287778554532 0.1027613787862884 0.10692165766493378 0.10294270053648728 0.10669166327698014 C 0.1027613787862884 0.10692165766493378 0.10162202850461478 0.10805211655777266 0.10172361866091267 0.10794746630540401" fill="none" stroke="#000000" stroke-width="0.001"/>
<path d="M 0.08827638133908741 0.10794746630540401 C 0.08817479118278954 0.10784281605303536 0.08687597771331397 0.1064616688890265 0.08705729946351286 0.10669166327698014 C 0.08687597771331397 0.1064616688890265 0.08602078874279978 0.10506218951437535 0.08610052033670079 0.10518753364996034" fill="none" stroke="#000000" stroke-width="0.001"/>
<path d="M 0.08610052033670079 0.10518753364996034 C 0.08603910923056572 0.1050134090553297 0.08525211767714244 0.10269960899178114 0.08536358706307993 0.10309803851439274 C 0.08525211767714244 0.10269960899178114 0.0847128294256484 0.10018207445064022 0.08476288770545082 0.10040637937862118" fill="none" stroke="#000000" stroke-width="0.001"/>
<path d="M 0.08476288770545082 0.10040637937862118 C 0.08461992631442158 0.09988882692687245 0.08263141351916733 0.09325041587064722 0.08304735101310001 0.09419574995763644 C 0.08263141351916733 0.09325041587064722 0.07949866167535531 0.08863458869951023 0.07977163777825876 0.0890623703347507" fill="none" stroke="#000000" stroke-width="0.001"/>
</g><g transform="translate(0.33734039743949207,0.37131220843343377) rotate(0) scale(1,1) translate(-0.095,-0.09632994090643211)"><path d="M 0.0698462071752793 0.0711154406260545 C 0.07101811056074316 0.07030278415514274 0.08692944321950184 0.06055090650420153 0.08390904780084557 0.0613635629751133 C 0.08692944321950184 0.06055090650420153 0.10911134761781079 0.06217621944602507 0.10609095219915451 0.0613635629751133 C 0.10911134761781079 0.06217621944602507 0.12132569621018462 0.07192809709696626 0.12015379282472076 0.0711154406260545" fill="none" stroke="none" stroke-width="0"/>
<path d="M 0.12015379282472076 0.0711154406260545 C 0.12056638347593587 0.0721226884129556 0.12505315759038232 0.08592536231105782 0.12510488063930209 0.08320241406886765 C 0.12505315759038232 0.08592536231105782 0.11906880253754888 0.10550651998762564 0.11953311623768374 0.10379081953233657" fill="none" stroke="none" stroke-width="0"/>
<path d="M 0.11953311623768374 0.10379081953233657 C 0.11924572367001716 0.10405186761768284 0.1153136885167599 0.10759247766574996 0.11608440542568481 0.1069233965564918 C 0.1153136885167599 0.10759247766574996 0.10980118898932643 0.11222782586734638 0.11028451333058477 0.11181979284343449" fill="none" stroke="#000000" stroke-width="0.001"/>
<path d="M 0.11028451333058477 0.11181979284343449 C 0.10978335357528438 0.11203287298202808 0.10299688682276473 0.11473165282349118 0.10427059626698013 0.11437675450655753 C 0.10299688682276473 0.11473165282349118 0.09345490062217002 0.11607857264663829 0.09500000000000003 0.11607857264663829 C 0.09345490062217002 0.11607857264663829 0.08445569428880456 0.11402185618962388 0.08572940373301995 0.11437675450655753 C 0.08445569428880456 0.11402185618962388 0.07921432691411495 0.1116067127048409 0.07971548666941533 0.11181979284343449" fill="none" stroke="none" stroke-width="0"/>
<path d="M 0.07971548666941533 0.11181979284343449 C 0.07923216232815698 0.1114117598195226 0.0731448776653903 0.10625431544723364 0.07391559457431522 0.1069233965564918 C 0.0731448776653903 0.10625431544723364 0.07017949119464971 0.1035297714469903 0.07046688376231629 0.10379081953233657" fill="none" stroke="#000000" stroke-width="0.001"/>
<path d="M 0.07046688376231629 0.10379081953233657 C 0.07000257006218143 0.1020751190770475 0.06484339631177827 0.08047946582667748 0.06489511936069801 0.08320241406886765 C 0.06484339631177827 0.08047946582667748 0.07025879782649441 0.0701081928391534 0.0698462071752793 0.0711154406260545" fill="none" stroke="none" stroke-width="0"/>
</g><g transform="translate(0.33734039743949185,0.348268734521392) rotate(0) scale(1,1) translate(-0.027392108961499424,-0.02565601281319204)"><path d="M 0.0443249359441467 0.024387868873906166 C 0.04392694491205119 0.024487058273213482 0.03864340726433952 0.02570460779492278 0.03954904355900056 0.025578141665593964 C 0.03864340726433952 0.02570460779492278 0.03294965514564871 0.02593273915587347 0.033457300408214236 0.02590546242585197" fill="none" stroke="#000000" stroke-width="0.001"/>
<path d="M 0.033457300408214236 0.02590546242585197 C 0.032951867787654666 0.02596196523743368 0.026381243720380292 0.026583496164832524 0.027392108961499427 0.026583496164832524 C 0.026381243720380292 0.026583496164832524 0.020821484894225056 0.02584895961427026 0.021326917514784622 0.025905462425851972" fill="none" stroke="#000000" stroke-width="0.001"/>
<path d="M 0.021326917514784622 0.025905462425851972 C 0.020819272252219096 0.02587818569583047 0.014329538069337263 0.025451675536265157 0.015235174363998296 0.025578141665593974 C 0.014329538069337263 0.025451675536265157 0.010061290946756722 0.024288679474598857 0.010459281978852228 0.024387868873906173" fill="none" stroke="#000000" stroke-width="0.001"/>
</g><g id="筋肉">
<g transform="translate(0.33734039743949207,0.37131220843343377) rotate(0) scale(1,1) translate(-0.006218922926089482,-0.012421130242836014)"><path d="M 0.01245401096206436 0.006432006689712818 C 0.012358595604463219 0.006501175684720954 0.011038497279338526 0.007434802496490394 0.011309026670850656 0.007262034629810455 C 0.011038497279338526 0.007434802496490394 0.00903254423000782 0.008608819961543885 0.009207658263918807 0.008505221089872082" fill="none" stroke="#000000" stroke-width="0.001"/>
<path d="M 0.009207658263918807 0.008505221089872082 C 0.008958596985766364 0.008626553615967203 0.005720800369784594 0.009954586196440041 0.006218922926089482 0.009961211403013533 C 0.005720800369784594 0.009954586196440041 0.002981126310107708 0.00829776087832156 0.003230187588260152 0.008425718610990174" fill="none" stroke="#000000" stroke-width="0.001"/>
<path d="M 0.003230187588260152 0.008425718610990174 C 0.0030550735543491653 0.008315494532744879 0.0008582897898161793 0.006917011392219714 0.001128819181328308 0.007103029672046637 C 0.0008582897898161793 0.006917011392219714 -0.00011158046748653287 0.006117705051485462 -1.6165109885391285E-05 0.006193499253067091" fill="none" stroke="#000000" stroke-width="0.001"/>
</g><g transform="translate(0.3291663452708597,0.35019669499490025) rotate(0) scale(1,1) translate(-0.03649433879459807,-0.02487077539596666)"><path d="M 0.03608065193384413 0.03691046282731553 C 0.03582213764178954 0.03669896975479799 0.03251306227737949 0.03387969549865166 0.03297848042918902 0.03437254595710515 C 0.03251306227737949 0.03387969549865166 0.030288730252374843 0.030714899939937708 0.03049563411212978 0.030996257325873664" fill="none" stroke="none" stroke-width="0"/>
<path d="M 0.03049563411212978 0.030996257325873664 C 0.03032483981421074 0.030473069443582922 0.028452028238962125 0.023976002001756397 0.028446102537101312 0.024718002738384762 C 0.028452028238962125 0.023976002001756397 0.03074346253423937 0.021873435631995636 0.03056674253445952 0.02209224848633326" fill="none" stroke="#000000" stroke-width="0.001"/>
<path d="M 0.03056674253445952 0.02209224848633326 C 0.031242841457797054 0.022103731086614703 0.03961821757437631 0.022269269946635403 0.03867992961450993 0.022230039689710556 C 0.03961821757437631 0.022269269946635403 0.042088387089384845 0.02259075922607481 0.041826198052856006 0.022563011569431406" fill="none" stroke="none" stroke-width="0"/>
<path d="M 0.041826198052856006 0.022563011569431406 C 0.04195430360492569 0.022753450717870882 0.0434972517308037 0.025626892494586696 0.043363464677692254 0.024848281350705118 C 0.0434972517308037 0.025626892494586696 0.04343732419123515 0.032494517291452446 0.04343164269019339 0.031906345296010344" fill="none" stroke="#000000" stroke-width="0.001"/>
<path d="M 0.04343164269019339 0.031906345296010344 C 0.043149403096010716 0.03235049669229114 0.039432184996972215 0.03765317184565534 0.04004476756000132 0.037236162051379904 C 0.039432184996972215 0.03765317184565534 0.0357503089649977 0.03688332122531016 0.03608065193384413 0.03691046282731553" fill="none" stroke="#000000" stroke-width="0.001"/>
</g><g transform="translate(0.34551444960812383,0.35019669499490025) rotate(0) scale(1,1) translate(-0.03649433879459807,-0.02487077539596666)"><path d="M 0.03690802565535192 0.03691046282731553 C 0.03657768268650549 0.03693760442932089 0.03233132746616565 0.03681915225710447 0.032943910029194744 0.037236162051379904 C 0.03233132746616565 0.03681915225710447 0.029274795304820096 0.03146219389972955 0.02955703489900276 0.031906345296010344" fill="none" stroke="#000000" stroke-width="0.001"/>
<path d="M 0.02955703489900276 0.031906345296010344 C 0.02956271640004452 0.03131817330056824 0.029758999964615337 0.02406967020682354 0.029625212911503888 0.024848281350705118 C 0.029758999964615337 0.02406967020682354 0.031290585088409824 0.02237257242099193 0.03116247953634014 0.022563011569431406" fill="none" stroke="#000000" stroke-width="0.001"/>
<path d="M 0.03116247953634014 0.022563011569431406 C 0.03142466857286898 0.022535263912788 0.0352470359345526 0.02219080943278571 0.03430874797468622 0.022230039689710556 C 0.0352470359345526 0.02219080943278571 0.043098033978074206 0.022080765886051817 0.04242193505473667 0.02209224848633326" fill="none" stroke="none" stroke-width="0"/>
<path d="M 0.04242193505473667 0.02209224848633326 C 0.042598655054516515 0.022311061340670884 0.044548500753955625 0.025460003475013128 0.044542575052094815 0.024718002738384762 C 0.044548500753955625 0.025460003475013128 0.04232224917914732 0.03151944520816441 0.04249304347706636 0.030996257325873664" fill="none" stroke="#000000" stroke-width="0.001"/>
<path d="M 0.04249304347706636 0.030996257325873664 C 0.042286139617311425 0.03127761471180962 0.039544779008197604 0.034865396415558636 0.040010197160007144 0.03437254595710515 C 0.039544779008197604 0.034865396415558636 0.03664951136329732 0.03712195589983306 0.03690802565535192 0.03691046282731553" fill="none" stroke="none" stroke-width="0"/>
</g><g transform="translate(0.3098449200971974,0.348415872798689) rotate(0) scale(1,1) translate(-0.006478044714676546,-0.010275205513680292)"><path d="M 0.014656750712648676 0.01598951440243672 C 0.014045272496906748 0.0154999962959399 0.010094131908601813 0.011975929526049813 0.010987881418197107 0.013052405763455807 C 0.010094131908601813 0.011975929526049813 0.00901198236122355 0.008943698847091577 0.009294253655076915 0.009530656978000753" fill="none" stroke="#000000" stroke-width="0.001"/>
</g><g transform="translate(0.3648358747817864,0.348415872798689) rotate(0) scale(1,1) translate(-0.006478044714676546,-0.010275205513680292)"><path d="M 0.0036618357742760365 0.009530656978000753 C 0.0033795644804226694 0.01011761510890993 0.0010744585015605352 0.0141288820008618 0.001968208011155833 0.013052405763455807 C 0.0010744585015605352 0.0141288820008618 -0.00231213949903768 0.01647903250893354 -0.0017006612832957497 0.01598951440243672" fill="none" stroke="#000000" stroke-width="0.001"/>
</g><g transform="translate(0.31095002640126895,0.3719102852381819) rotate(0) scale(1,1) translate(-0.006478044714676546,-0.010275205513680292)"><path d="M 0.00833202613798547 0.017134312653524136 C 0.008113446107840405 0.016784666483539004 0.005332306471593665 0.012200170616297735 0.0057090657762447015 0.012938558613702553 C 0.005332306471593665 0.012200170616297735 0.0036527352076670596 0.007884914857246628 0.003810914482173032 0.008273656684666314" fill="none" stroke="#000000" stroke-width="0.001"/>
</g><g transform="translate(0.36373076847771535,0.3719102852381819) rotate(0) scale(1,1) translate(-0.006478044714676546,-0.010275205513680292)"><path d="M 0.009145174947179934 0.008273656684666314 C 0.008986995672673966 0.008662398512086 0.006870264348457284 0.013676946611107372 0.007247023653108318 0.012938558613702553 C 0.006870264348457284 0.013676946611107372 0.004405483261222456 0.01748395882350927 0.004624063291367522 0.017134312653524136" fill="none" stroke="#000000" stroke-width="0.001"/>
</g></g>
<g transform="translate(0.3373403974394919,0.3523930509183325) rotate(0) scale(1,1) translate(-0.35878523175949983,-0.35878523175950006)"><path d="M 0.359223884838292 0.3573477374826238 C 0.35928303113752164 0.35739349364555156 0.36001537860427446 0.3580166026274968 0.35993364042904785 0.3578968114377571 C 0.36001537860427446 0.3580166026274968 0.36020474294101107 0.35893330181312394 0.36020474294101107 0.35878523175950006 C 0.36020474294101107 0.35893330181312394 0.35985190225382124 0.3597934432709832 0.35993364042904785 0.3596736520812435 C 0.35985190225382124 0.3597934432709832 0.35909162969259695 0.36026848219930435 0.359223884838292 0.3602227260363766 C 0.35909162969259695 0.36026848219930435 0.3582143235350126 0.3601769698734489 0.3583465786807076 0.3602227260363766 C 0.3582143235350126 0.3601769698734489 0.3575550849147253 0.3595538608915038 0.3576368230899519 0.3596736520812435 C 0.3575550849147253 0.3595538608915038 0.35736572057798854 0.3586371617058762 0.35736572057798854 0.35878523175950006 C 0.35736572057798854 0.3586371617058762 0.35771856126517854 0.3577770202480174 0.3576368230899519 0.3578968114377571 C 0.35771856126517854 0.3577770202480174 0.3584057249799372 0.357301981319696 0.3583465786807076 0.3573477374826238" fill="none" stroke="#000000" stroke-width="0.001"/>
</g><g id="紋柄">
<g id="紋左">
<g transform="translate(0.3098449200971974,0.348415872798689) rotate(0) scale(1,1) translate(-0.011409164915427155,-0.011409164915427157)"><path d="M 0.014596003296806187 0.020087340553723142 C 0.014660455158397439 0.019847704453002518 0.017197566975981862 0.019553533127385614 0.01705694071905258 0.01937339268259254 C 0.017197566975981862 0.019553533127385614 0.01607844026143703 0.022308521547167576 0.016283518379957562 0.022249025891240025 C 0.01607844026143703 0.022308521547167576 0.014660455158397439 0.019847704453002518 0.014596003296806187 0.020087340553723142 Z" fill="#cccccc" stroke="none" stroke-width="0"/>
</g><g transform="translate(0.3098449200971974,0.348415872798689) rotate(0) scale(1,1) translate(-0.011409164915427155,-0.011409164915427157)"><path d="M 0.007413190253845902 0.0222453309385115 C 0.007278728315412679 0.022073511370701227 0.008842268818484786 0.01962801470279375 0.008608220985728051 0.01967074404294717 C 0.008842268818484786 0.01962801470279375 0.01012217835260321 0.02194712776463413 0.010221764246926722 0.02173257885667044 C 0.01012217835260321 0.02194712776463413 0.007278728315412679 0.022073511370701227 0.007413190253845902 0.0222453309385115 Z" fill="#cccccc" stroke="none" stroke-width="0"/>
</g><g transform="translate(0.3098449200971974,0.348415872798689) rotate(0) scale(1,1) translate(-0.011409164915427155,-0.011409164915427157)"><path d="M 0.01135627564802769 0.015991749451335874 C 0.011328508703201338 0.015777344856340116 0.01335640290880455 0.013976692178098552 0.013176915939674315 0.013933784649889952 C 0.01335640290880455 0.013976692178098552 0.013358399253286635 0.01667813685662623 0.013510119277590521 0.016506639789839073 C 0.013358399253286635 0.01667813685662623 0.011328508703201338 0.015777344856340116 0.01135627564802769 0.015991749451335874 Z" fill="#cccccc" stroke="none" stroke-width="0"/>
</g></g>
<g id="紋右">
<g transform="translate(0.3648358747817864,0.34841587279868896) rotate(0) scale(1,1) translate(-0.011409164915427155,-0.011409164915427157)"><path d="M 0.006534811450896816 0.022249025891240025 C 0.006329733332376289 0.022189530235312473 0.005902015368731148 0.01919325223779947 0.005761389111801868 0.01937339268259254 C 0.005902015368731148 0.01919325223779947 0.008286778395639433 0.020326976654443767 0.008222326534048186 0.020087340553723142 C 0.008286778395639433 0.020326976654443767 0.006329733332376289 0.022189530235312473 0.006534811450896816 0.022249025891240025 Z" fill="#cccccc" stroke="none" stroke-width="0"/>
</g><g transform="translate(0.3648358747817864,0.34841587279868896) rotate(0) scale(1,1) translate(-0.011409164915427155,-0.011409164915427157)"><path d="M 0.012596565583927688 0.02173257885667044 C 0.01249697968960418 0.021518029948706746 0.014444156677883117 0.01971347338310059 0.014210108845126385 0.01967074404294717 C 0.014444156677883117 0.01971347338310059 0.015270677638575257 0.02241715050632177 0.015405139577008481 0.0222453309385115 C 0.015270677638575257 0.02241715050632177 0.01249697968960418 0.021518029948706746 0.012596565583927688 0.02173257885667044 Z" fill="#cccccc" stroke="none" stroke-width="0"/>
</g><g transform="translate(0.3648358747817864,0.34841587279868896) rotate(0) scale(1,1) translate(-0.011409164915427155,-0.011409164915427157)"><path d="M 0.009308210553263863 0.016506639789839073 C 0.009156490528959981 0.016335142723051914 0.009820900860310353 0.013890877121681352 0.009641413891180117 0.013933784649889952 C 0.009820900860310353 0.013890877121681352 0.011434287238000343 0.016206154046331633 0.011462054182826698 0.015991749451335874 C 0.011434287238000343 0.016206154046331633 0.009156490528959981 0.016335142723051914 0.009308210553263863 0.016506639789839073 Z" fill="#cccccc" stroke="none" stroke-width="0"/>
</g></g>
</g>
<g id="虎柄">
<g transform="translate(0.3098449200971974,0.348415872798689) rotate(0) scale(1,1) translate(-0.009690334973390745,-0.009690334973390745)"><path d="M 0.008435587590164339 0.012165641628859058 C 0.008670757854231482 0.012412230501287763 0.012102709755552339 0.015328137639703435 0.011257630758970058 0.015124708098003509 C 0.012102709755552339 0.015328137639703435 0.01943804280591896 0.014824732010415757 0.018576535549151715 0.014606796129258161 C 0.01943804280591896 0.014824732010415757 0.02184731636442907 0.01800103388378102 0.021595717840176963 0.017739938671894648" fill="none" stroke="none" stroke-width="0"/>
<path d="M 0.021595717840176963 0.017739938671894648 C 0.02130792821564198 0.017599937638551753 0.01719877558284003 0.016107906544163032 0.018142242345757162 0.016059926271779924 C 0.01719877558284003 0.016107906544163032 0.009280213301888914 0.018301612027813163 0.010274116685171388 0.01831570194049195 C 0.009280213301888914 0.018301612027813163 0.0058771755014671405 0.015688776101229693 0.006215401746367468 0.01589084731963448" fill="none" stroke="none" stroke-width="0"/>
<path d="M 0.006215401746367468 0.01589084731963448 C 0.0062979381611992045 0.015758232521876733 0.007390854211331387 0.013989035938976867 0.007205838724348315 0.014299469746541485 C 0.007390854211331387 0.013989035938976867 0.008538066662315666 0.01198782261905219 0.008435587590164332 0.012165641628859058" fill="none" stroke="#000000" stroke-width="0.001"/>
</g><g transform="translate(0.3648358747817864,0.348415872798689) rotate(0) scale(1,1) translate(-0.009690334973390745,-0.009690334973390745)"><path d="M 0.010945082356617175 0.012165641628859058 C 0.011047561428768513 0.012343460638665926 0.012359846709416311 0.014609903554106103 0.012174831222433236 0.014299469746541485 C 0.012359846709416311 0.014609903554106103 0.01324780461524582 0.01602346211739223 0.013165268200414082 0.01589084731963448" fill="none" stroke="#000000" stroke-width="0.001"/>
<path d="M 0.013165268200414082 0.01589084731963448 C 0.012827041955513754 0.01609291853803927 0.008112649878327669 0.018329791853170734 0.00910655326161014 0.01831570194049195 C 0.008112649878327669 0.018329791853170734 0.00029496083810730733 0.016011945999396815 0.0012384276010244388 0.016059926271779924 C 0.00029496083810730733 0.016011945999396815 -0.0025028375179304285 0.017879939705237543 -0.0022150478933954387 0.017739938671894648" fill="none" stroke="none" stroke-width="0"/>
<path d="M -0.0022150478933954387 0.017739938671894648 C -0.001963449369143333 0.017478843460008275 0.0016656416543970784 0.014388860248100566 0.0008041343976298299 0.014606796129258161 C 0.0016656416543970784 0.014388860248100566 0.008968118184393822 0.014921278556303583 0.008123039187811543 0.015124708098003509 C 0.008968118184393822 0.014921278556303583 0.011180252620684311 0.011919052756430354 0.010945082356617175 0.012165641628859058" fill="none" stroke="none" stroke-width="0"/>
</g></g>
<g id="鱗">
<g id="中">
<g transform="translate(0.33734345282867073,0.39708952169884487) rotate(0) scale(1,1) translate(-0.015058466988291021,-0.015058466988291016)"><path d="M 0.015058466988290988 -0.009752568475194701 C 0.016252570555804043 -0.00988476152709279 0.030862293232218896 -0.011277787512110065 0.02938770979844762 -0.01133888509797177 C 0.030862293232218896 -0.011277787512110065 0.03303394805980455 -0.008826106807094449 0.032753468193546326 -0.009019397444854242" fill="none" stroke="#000000" stroke-width="0.001"/>
<path d="M 0.032753468193546326 -0.009019397444854242 C 0.032500496542156164 -0.008702699146180092 0.029176453302717634 -0.004487339031047273 0.029717808376864416 -0.005219017860764436 C 0.029176453302717634 -0.004487339031047273 0.02596882388102831 0.00017572904279472014 0.026257207303784936 -0.00023925148824829184" fill="none" stroke="#000000" stroke-width="0.001"/>
<path d="M 0.026257207303784936 -0.00023925148824829184 C 0.02532397894416044 -0.00011990877751467786 0.013192010269042 0.001192861040555076 0.015058466988290988 0.001192861040555076 C 0.013192010269042 0.001192861040555076 0.0029264983131725812 -0.0003585941989819058 0.003859726672797074 -0.00023925148824829184" fill="none" stroke="#000000" stroke-width="0.001"/>
<path d="M 0.003859726672797074 -0.00023925148824829184 C 0.0035713432500404513 -0.0006542320192913038 -0.00014222947442918215 -0.005950696690481598 0.0003991255997175989 -0.005219017860764436 C -0.00014222947442918215 -0.005950696690481598 -0.002889505868354456 -0.009336095743528392 -0.002636534216964298 -0.009019397444854242" fill="none" stroke="#000000" stroke-width="0.001"/>
<path d="M -0.002636534216964298 -0.009019397444854242 C -0.0023560543507060716 -0.009212688082614036 0.002203807611905691 -0.011399982683833474 0.000729224178134417 -0.01133888509797177 C 0.002203807611905691 -0.011399982683833474 0.016252570555804036 -0.009620375423296612 0.015058466988290988 -0.009752568475194701" fill="none" stroke="#000000" stroke-width="0.001"/>
</g><g transform="translate(0.33734345282867073,0.3817918032223056) rotate(0) scale(1,1) translate(-0.015058466988291021,-0.015058466988291016)"><path d="M 0.015058466988290988 0.01297714481255402 C 0.016082261534487493 0.012872452446769617 0.028608272514178683 0.011781866617906082 0.027344001542649033 0.011720836423141182 C 0.028608272514178683 0.011781866617906082 0.030470195071979917 0.01387522971028213 0.030229718646646773 0.013709507149732826" fill="none" stroke="#000000" stroke-width="0.001"/>
<path d="M 0.030229718646646773 0.013709507149732826 C 0.030012827077036137 0.013981036353558577 0.027162875504622524 0.017595180732270593 0.027627019811319122 0.01696785759564184 C 0.027162875504622524 0.017595180732270593 0.024412734229201653 0.021593178722080848 0.02465998696628761 0.021237384789277846" fill="none" stroke="#000000" stroke-width="0.001"/>
<path d="M 0.02465998696628761 0.021237384789277846 C 0.02385986030145456 0.021339706245893077 0.013458213658624887 0.02246524226866063 0.015058466988290988 0.02246524226866063 C 0.013458213658624887 0.02246524226866063 0.004656820345461357 0.021135063332662615 0.005456947010294406 0.021237384789277846" fill="none" stroke="#000000" stroke-width="0.001"/>
<path d="M 0.005456947010294406 0.021237384789277846 C 0.005209694273208446 0.020881590856474844 0.0020257698585662907 0.016340534459013088 0.0024899141652628873 0.01696785759564184 C 0.0020257698585662907 0.016340534459013088 -0.0003296762396753917 0.013437977945907075 -0.00011278467006475487 0.013709507149732826" fill="none" stroke="#000000" stroke-width="0.001"/>
<path d="M -0.00011278467006475487 0.013709507149732826 C 0.00012769175526839162 0.013543784589183523 0.004037203405462648 0.011659806228376281 0.002772932433933003 0.011720836423141182 C 0.004037203405462648 0.011659806228376281 0.016082261534487486 0.013081837178338423 0.015058466988290988 0.01297714481255402" fill="none" stroke="#000000" stroke-width="0.001"/>
</g><g transform="translate(0.33734345282867073,0.38797072102329244) rotate(0) scale(1,1) translate(-0.015058466988291021,-0.015058466988291016)"><path d="M 0.015058466988290988 0.013170233562827857 C 0.015936242837336217 0.013089119597800177 0.026675731501048957 0.01225783839781897 0.025591777176833724 0.012196865982495692 C 0.026675731501048957 0.01225783839781897 0.028272097354043787 0.014043988927058153 0.02806591887887378 0.013901902546707194" fill="none" stroke="#000000" stroke-width="0.001"/>
<path d="M 0.02806591887887378 0.013901902546707194 C 0.027879961469378864 0.014134704897837297 0.025436484239980753 0.01723338193453551 0.02583442996493475 0.016695530760268435 C 0.025436484239980753 0.01723338193453551 0.023078581863966767 0.02066116546104909 0.023290570179425842 0.020356116637912116" fill="none" stroke="#000000" stroke-width="0.001"/>
<path d="M 0.023290570179425842 0.020356116637912116 C 0.022604561580164606 0.02024645629167579 0.013686449789768516 0.019040192483076226 0.015058466988290988 0.019040192483076226 C 0.013686449789768516 0.019040192483076226 0.006140355197894939 0.02046577698414844 0.006826363797156174 0.020356116637912116" fill="none" stroke="#000000" stroke-width="0.001"/>
<path d="M 0.006826363797156174 0.020356116637912116 C 0.006614375481697099 0.020051067814775142 0.0038845582866932848 0.01615767958600136 0.004282504011647279 0.016695530760268435 C 0.0038845582866932848 0.01615767958600136 0.0018650576882133253 0.013669100195577091 0.002051015097708245 0.013901902546707194" fill="none" stroke="#000000" stroke-width="0.001"/>
<path d="M 0.002051015097708245 0.013901902546707194 C 0.002257193572878251 0.013759816166356235 0.005609111123963548 0.012135893567172413 0.0045251567997483194 0.012196865982495692 C 0.005609111123963548 0.012135893567172413 0.01593624283733621 0.013251347527855537 0.015058466988290988 0.013170233562827857" fill="none" stroke="#000000" stroke-width="0.001"/>
</g><g transform="translate(0.33734345282867023,0.39325255935225584) rotate(0) scale(1,1) translate(-0.015058466988291021,-0.015058466988291016)"><path d="M 0.015058466988290988 0.013335783030093898 C 0.01581105005686614 0.013274884596415012 0.025018819149916847 0.01266592470262177 0.024089463811192813 0.012605001825947254 C 0.025018819149916847 0.01266592470262177 0.026387503323128288 0.014188678860541492 0.026210731052979407 0.01406685755018809" fill="none" stroke="#000000" stroke-width="0.001"/>
<path d="M 0.026210731052979407 0.01406685755018809 C 0.0260512958190137 0.01426645646598826 0.0239563195294585 0.01692318469032738 0.024297508245390932 0.016462044539790145 C 0.0239563195294585 0.01692318469032738 0.021934712979823523 0.01986208059137195 0.022116466461790246 0.01960053935663489" fill="none" stroke="#000000" stroke-width="0.001"/>
<path d="M 0.022116466461790246 0.01960053935663489 C 0.02184438126065573 0.01987204102944281 0.018263277425384424 0.02317522001689197 0.018851444048176028 0.02285855943032992 C 0.018263277425384424 0.02317522001689197 0.01442630414497684 0.023400466395379484 0.01505846698829101 0.023400466395379484 C 0.01442630414497684 0.023400466395379484 0.010677323305614397 0.022541898843767873 0.011265489928406 0.02285855943032992 C 0.010677323305614397 0.022541898843767873 0.007728382313657268 0.019329037683826968 0.008000467514791786 0.01960053935663489" fill="none" stroke="#000000" stroke-width="0.001"/>
<path d="M 0.008000467514791786 0.01960053935663489 C 0.007818714032825063 0.019338998121897828 0.005478237015258667 0.01600090438925291 0.005819425731191098 0.016462044539790145 C 0.005478237015258667 0.01600090438925291 0.0037467676896369108 0.01386725863438792 0.0039062029236026172 0.01406685755018809" fill="none" stroke="#000000" stroke-width="0.001"/>
<path d="M 0.0039062029236026172 0.01406685755018809 C 0.004082975193751501 0.013945036239834688 0.006956825504113253 0.012544078949272739 0.0060274701653892215 0.012605001825947254 C 0.006956825504113253 0.012544078949272739 0.015811050056866137 0.013396681463772785 0.015058466988290988 0.013335783030093898" fill="none" stroke="#000000" stroke-width="0.001"/>
</g></g>
<g id="左">
<g transform="translate(0.3098449200971972,0.3484158727986889) rotate(0) scale(1,1) translate(-0.0857970750145922,-0.08579707501459222)"><path d="M 0.08963341708200158 0.09666919597646764 C 0.08875302012012404 0.09658099314124317 0.08543273569262061 0.09399612660888398 0.08589390556247158 0.09470123116880903 C 0.08543273569262061 0.09399612660888398 0.08621311449880177 0.09042845575066086 0.08594405812319388 0.09102835949706722 C 0.08621311449880177 0.09042845575066086 0.08884895855606463 0.09011562618690436 0.0880463565673347 0.0899020011975581 C 0.08884895855606463 0.09011562618690436 0.092976214619303 0.09342546599346806 0.09236487403303334 0.09273735941183722 C 0.092976214619303 0.09342546599346806 0.09259564913861298 0.09589833342118359 0.09293708125749195 0.09540685385060478 C 0.09259564913861298 0.09589833342118359 0.08875302012012404 0.09658099314124317 0.08963341708200158 0.09666919597646764 Z" fill="#cccccc" stroke="#000000" stroke-width="0.001"/>
</g><g transform="translate(0.3098449200971972,0.3484158727986889) rotate(0) scale(1,1) translate(-0.0857970750145922,-0.08579707501459222)"><path d="M 0.08514214702010808 0.10364785361033343 C 0.08429583919822584 0.1036075969291543 0.08152098101064728 0.10164603039938463 0.08194806174050294 0.1023191708566128 C 0.08152098101064728 0.10164603039938463 0.0820030798418695 0.09763086210340494 0.08172550118126277 0.09826272995250819 C 0.0820030798418695 0.09763086210340494 0.08493720387409137 0.09742990689908762 0.08416869102535673 0.0972642280637867 C 0.08493720387409137 0.09742990689908762 0.08844233313241537 0.10026028516519783 0.08787360397113984 0.09958816063491545 C 0.08844233313241537 0.10026028516519783 0.08837709219668193 0.10314868592797302 0.08871852431556089 0.10264122430604578 C 0.08837709219668193 0.10314868592797302 0.08429583919822584 0.1036075969291543 0.08514214702010808 0.10364785361033343 Z" fill="#cccccc" stroke="#000000" stroke-width="0.001"/>
</g></g>
<g id="右">
<g transform="translate(0.3648358747817863,0.34841587279868896) rotate(0) scale(1,1) translate(-0.0857970750145922,-0.08579707501459222)"><path d="M 0.07865706877169257 0.09540685385060478 C 0.07831563665281359 0.09491537428002597 0.0798406165824207 0.09204925283020639 0.07922927599615105 0.09273735941183722 C 0.0798406165824207 0.09204925283020639 0.08435039545057968 0.08968837620821185 0.08354779346184973 0.0899020011975581 C 0.08435039545057968 0.08968837620821185 0.08591914828159848 0.09162826324347359 0.08565009190599057 0.09102835949706722 C 0.08591914828159848 0.09162826324347359 0.08523907459686202 0.09540633572873408 0.08570024446671298 0.09470123116880903 C 0.08523907459686202 0.09540633572873408 0.08108033598530533 0.09675739881169211 0.08196073294718288 0.09666919597646764 C 0.08108033598530533 0.09675739881169211 0.07831563665281359 0.09491537428002597 0.07865706877169257 0.09540685385060478 Z" fill="#cccccc" stroke="#000000" stroke-width="0.001"/>
</g><g transform="translate(0.3648358747817863,0.34841587279868896) rotate(0) scale(1,1) translate(-0.0857970750145922,-0.08579707501459222)"><path d="M 0.0828756257136236 0.10264122430604578 C 0.08253419359474462 0.10213376268411853 0.08428927521932007 0.09891603610463306 0.08372054605804456 0.09958816063491545 C 0.08428927521932007 0.09891603610463306 0.08819397185256234 0.09709854922848579 0.0874254590038277 0.0972642280637867 C 0.08819397185256234 0.09709854922848579 0.09014622750852835 0.09889459780161144 0.08986864884792162 0.09826272995250819 C 0.09014622750852835 0.09889459780161144 0.08921900755882589 0.10299231131384096 0.08964608828868155 0.1023191708566128 C 0.08921900755882589 0.10299231131384096 0.08560569518719412 0.10368811029151256 0.08645200300907636 0.10364785361033343 C 0.08560569518719412 0.10368811029151256 0.08253419359474462 0.10213376268411853 0.0828756257136236 0.10264122430604578 Z" fill="#cccccc" stroke="#000000" stroke-width="0.001"/>
</g></g>
</g>
</svg>
