<?xml version="1.0" encoding="UTF-8"?>
<svg xmlns="http://www.w3.org/2000/svg" viewBox="0 0 1 1">
<g transform="translate(0.3373434528286707,0.16513021119802657) rotate(0) scale(1,1) translate(-0.027518731894252097,-0.027518731894252097)"><path d="M 0.0020703292459354487 0.043569361922352175 C 0.0031306793562819756 0.043569361922352175 0.016915230790786825 0.043569361922352175 0.014794530570093771 0.043569361922352175 C 0.016915230790786825 0.043569361922352175 0.029639432114945147 0.043569361922352175 0.027518731894252094 0.043569361922352175 C 0.029639432114945147 0.043569361922352175 0.04236363343910346 0.043569361922352175 0.04024293321841041 0.043569361922352175 C 0.04236363343910346 0.043569361922352175 0.054027484652915264 0.043569361922352175 0.05296713454256874 0.043569361922352175" fill="none" stroke="#000000" stroke-width="0.001"/>
<path d="M 0.05296713454256874 0.043569361922352175 C 0.05296713454256874 0.04365367259225664 0.05296713454256874 0.0447497113010147 0.05296713454256874 0.044581089961205765 C 0.05296713454256874 0.0447497113010147 0.05296713454256874 0.04567712866996381 0.05296713454256874 0.04559281800005935" fill="none" stroke="#000000" stroke-width="0.001"/>
<path d="M 0.05296713454256874 0.04559281800005935 C 0.051906784432222214 0.04559281800005935 0.03812223299771735 0.04559281800005935 0.04024293321841041 0.04559281800005935 C 0.03812223299771735 0.04559281800005935 0.025398031673559033 0.04559281800005935 0.027518731894252087 0.04559281800005935 C 0.025398031673559033 0.04559281800005935 0.012673830349400709 0.04559281800005935 0.014794530570093762 0.04559281800005935 C 0.012673830349400709 0.04559281800005935 0.0010099791355889151 0.04559281800005935 0.002070329245935442 0.04559281800005935" fill="none" stroke="#000000" stroke-width="0.001"/>
<path d="M 0.002070329245935442 0.04559281800005935 C 0.0020703292459354414 0.045508507330154886 0.0020703292459354344 0.04441246862139683 0.002070329245935435 0.044581089961205765 C 0.0020703292459354344 0.04441246862139683 0.002070329245935435 0.04348505125244771 0.002070329245935435 0.043569361922352175" fill="none" stroke="#000000" stroke-width="0.001"/>
</g><g id="カップ左">
<g transform="translate(0.3183722317088444,0.16765590624685137) rotate(0) scale(1,1) translate(-0.011868249318287113,-0.03885712911379911)"><path d="M 0.01853000457287293 0.01636019861697328 C 0.018629002567337023 0.01636019861697328 0.01988560851448791 0.01636019861697328 0.019717980506442044 0.01636019861697328 C 0.01988560851448791 0.01636019861697328 0.020610170683005073 0.01636019861697328 0.020541540669423302 0.01636019861697328" fill="none" stroke="#000000" stroke-width="0.001"/>
<path d="M 0.020541540669423302 0.01636019861697328 C 0.020241733834770976 0.017244137297769954 0.016309360182134754 0.02891316469026109 0.0169438586535954 0.026967462786533374 C 0.016309360182134754 0.02891316469026109 0.012592867375087233 0.040770384684636896 0.012927559011895554 0.039708621461705854" fill="none" stroke="#000000" stroke-width="0.001"/>
<path d="M 0.01102138960740033 0.03912874913686634 C 0.011334157950849539 0.03815624455399535 0.015400327642580234 0.025561314932423317 0.01477460972879085 0.027458694142414405 C 0.015400327642580234 0.025561314932423317 0.018842954143213103 0.015435323989853186 0.01853000457287293 0.01636019861697328" fill="none" stroke="#000000" stroke-width="0.001"/>
</g><g transform="translate(0.3373434528286707,0.18173172136484844) rotate(0) scale(1,1) translate(-0.0738128523851645,-0.07381285238516451)"><path d="M 0.04893656997416566 0.076387178789309 C 0.048874679332400944 0.07628900861209793 0.048087248440813815 0.07500170783284707 0.04819388227298906 0.07520913666277629 C 0.048087248440813815 0.07500170783284707 0.047612220797652136 0.07378877417744019 0.04765696398806267 0.07389803283015835" fill="none" stroke="#000000" stroke-width="0.001"/>
<path d="M 0.04765696398806267 0.07389803283015835 C 0.047769402439643324 0.07341439778239196 0.0494996476420101 0.06690109781778295 0.04900622540703051 0.06809441225696174 C 0.0494996476420101 0.06690109781778295 0.05395901459121668 0.05886858016860047 0.05357803080781774 0.05957825956001288" fill="none" stroke="#000000" stroke-width="0.001"/>
<path d="M 0.05357803080781774 0.05957825956001288 C 0.05368333084594445 0.05959149103560909 0.05508608922019502 0.05976269194700218 0.054841631265338184 0.05973703726716743 C 0.05508608922019502 0.05976269194700218 0.05665068418282988 0.05989853892226847 0.05651152626609975 0.05988611571802993" fill="none" stroke="#000000" stroke-width="0.001"/>
<path d="M 0.05651152626609975 0.05988611571802993 C 0.056740028586103795 0.060457901121088516 0.05991618459448844 0.06786286228063844 0.05925355410614824 0.06674754055473293 C 0.05991618459448844 0.06786286228063844 0.06489722029451833 0.07381351275174289 0.06446309212618218 0.07326997642889597" fill="none" stroke="#000000" stroke-width="0.001"/>
<path d="M 0.06446309212618218 0.07326997642889597 C 0.06442958509721575 0.07335470586436815 0.0639865182766948 0.07445535097982015 0.0640610077785851 0.07428672965456216 C 0.0639865182766948 0.07445535097982015 0.06352823563057473 0.07537732422177756 0.06356921810349861 0.07529343233199176" fill="none" stroke="#000000" stroke-width="0.001"/>
<path d="M 0.06356921810349861 0.07529343233199176 C 0.06290977383627706 0.07541989915213737 0.054436499552728945 0.07690217971184891 0.05565588689684002 0.07681103417373915 C 0.054436499552728945 0.07690217971184891 0.048376626897276155 0.07635185750727312 0.048936569974165685 0.07638717878930897" fill="none" stroke="#000000" stroke-width="0.001"/>
</g><g id="縁">
<g transform="translate(0.31253682585053666,0.17601328123664567) rotate(0) scale(1,1) translate(-0.01808804748827716,-0.01808804748827716)"><path d="M 0.016471818062105334 0.022579973305578704 C 0.016597690349174396 0.022117831479823345 0.018468883122483473 0.01591549595473604 0.01798228550693406 0.017034271396514384 C 0.018468883122483473 0.01591549595473604 0.022671714777178612 0.008498034388215558 0.022310989448698262 0.009154668004238545" fill="none" stroke="#000000" stroke-width="0.001"/>
<path d="M 0.022310989448698262 0.009154668004238545 C 0.022338605428322427 0.00921130580364044 0.022697613163436582 0.009947597195865078 0.02264238120418825 0.009834321597061288 C 0.022697613163436582 0.009947597195865078 0.023001388939302408 0.010570612989285926 0.022973772959678243 0.01051397518988403" fill="none" stroke="none" stroke-width="0"/>
<path d="M 0.022973772959678243 0.01051397518988403 C 0.022641221941600505 0.01111467914542415 0.018494679777337812 0.018916918917686782 0.018983160742745395 0.017722422656365467 C 0.018494679777337812 0.018916918917686782 0.016956071427457396 0.025441722631520988 0.01711200137478724 0.024847930325739793" fill="none" stroke="#000000" stroke-width="0.001"/>
<path d="M 0.01711200137478724 0.024847930325739793 C 0.017066180015170258 0.0247291751803743 0.0165087964499933 0.023233872163007138 0.016562145059383457 0.023422868581353895 C 0.0165087964499933 0.023233872163007138 0.016464290812332156 0.02250973203259744 0.016471818062105334 0.022579973305578704" fill="none" stroke="#000000" stroke-width="0.001"/>
</g><g transform="translate(0.3183722317088444,0.16765590624685137) rotate(0) scale(1,1) translate(-0.01808804748827716,-0.01808804748827716)"><path d="M 0.01647558359039057 0.017512042994032886 C 0.016624291615633446 0.017523412819695553 0.01855288906917251 0.017680732065078024 0.01826007989330509 0.0176484809019849 C 0.01855288906917251 0.017680732065078024 0.020133394851424135 0.01791993828858081 0.019989293700799594 0.017899056951150353" fill="none" stroke="#000000" stroke-width="0.001"/>
<path d="M 0.019989293700799594 0.017899056951150353 C 0.01994703262572259 0.017947903583755084 0.019397638649721542 0.01858290980761658 0.01948216079987555 0.018485216542407118 C 0.019397638649721542 0.01858290980761658 0.018932766823874497 0.01912022276626862 0.018975027898951502 0.01907137613366389" fill="none" stroke="none" stroke-width="0"/>
<path d="M 0.018975027898951502 0.01907137613366389 C 0.01890117480161787 0.019062684243321384 0.017935735664482828 0.018950404620055008 0.018088790730947907 0.0189670734495538 C 0.017935735664482828 0.018950404620055008 0.017059165132239106 0.018863373240522098 0.017138367101370552 0.018871350179678382" fill="none" stroke="#000000" stroke-width="0.001"/>
<path d="M 0.017138367101370552 0.018871350179678382 C 0.017110751121746388 0.018814712380276485 0.01675174338663223 0.01807842098805184 0.016806975345880562 0.01819169658685563 C 0.01675174338663223 0.01807842098805184 0.016447967610766404 0.017455405194630992 0.01647558359039057 0.017512042994032886" fill="none" stroke="none" stroke-width="0"/>
</g><g transform="translate(0.3227841545496544,0.17466640953441687) rotate(0) scale(1,1) translate(-0.01808804748827716,-0.01808804748827716)"><path d="M 0.0155773708599895 0.01088855366358483 C 0.015654023246135493 0.011190301869545798 0.016727559296238016 0.015104401973695954 0.01649719949374144 0.014509532135116441 C 0.016727559296238016 0.015104401973695954 0.01871044802786273 0.018582168869029313 0.01834168848994839 0.018026991726538977 C 0.01871044802786273 0.018582168869029313 0.021381005161093182 0.021720282150903013 0.020922313948713515 0.021171657845000483 C 0.021381005161093182 0.021720282150903013 0.02408962212932029 0.02489705219340008 0.02384598303850438 0.02461048339736934" fill="none" stroke="#000000" stroke-width="0.001"/>
<path d="M 0.02384598303850438 0.02461048339736934 C 0.02378458610604116 0.02461923490019935 0.022986425984019267 0.024733004436989444 0.023109219848945713 0.024715501431329428 C 0.022986425984019267 0.024733004436989444 0.022311059726923824 0.024829270968119526 0.022372456659387047 0.024820519465289518" fill="none" stroke="none" stroke-width="0"/>
<path d="M 0.022372456659387047 0.024820519465289518 C 0.022174050054636407 0.024583845148176457 0.01957148685080516 0.0214695970417453 0.019991577402379352 0.02198042765993279 C 0.01957148685080516 0.0214695970417453 0.016951748982236337 0.018117879905731916 0.017331370040496747 0.018690552047039684 C 0.016951748982236337 0.018117879905731916 0.015205435954724834 0.014555888697494471 0.015436124703254445 0.015108361964239581 C 0.015205435954724834 0.014555888697494471 0.014490353421048666 0.011806915419586598 0.014563105058141419 0.012060872846098365" fill="none" stroke="#000000" stroke-width="0.001"/>
<path d="M 0.014563105058141419 0.012060872846098365 C 0.014605366133218422 0.012012026213493635 0.015154760109219467 0.011377019989632137 0.01507023795906546 0.011474713254841598 C 0.015154760109219467 0.011377019989632137 0.015619631935066504 0.0108397070309801 0.0155773708599895 0.01088855366358483" fill="none" stroke="none" stroke-width="0"/>
</g><g transform="translate(0.3191864873403462,0.18472990315342308) rotate(0) scale(1,1) translate(-0.01808804748827716,-0.01808804748827716)"><path d="M 0.011005808598113134 0.0171188119726097 C 0.011266043612829782 0.017171878396360918 0.014803733582425253 0.017796835415570738 0.014128628774712897 0.017755609057624307 C 0.014803733582425253 0.017796835415570738 0.019980325063612484 0.017485763359780897 0.019107066290661407 0.017613528267966885 C 0.019980325063612484 0.017485763359780897 0.02517965551496196 0.015984388290918812 0.024607734050125802 0.016222430159392443 C 0.02517965551496196 0.015984388290918812 0.02608365635357612 0.014634908820190872 0.025970123868695325 0.0147570258462833" fill="none" stroke="#000000" stroke-width="0.001"/>
<path d="M 0.025970123868695325 0.0147570258462833 C 0.026031520801158545 0.014748274343453292 0.026829680923180423 0.014634504806663175 0.02670688705825398 0.014652007812323193 C 0.026829680923180423 0.014634504806663175 0.02750504718027585 0.014538238275533081 0.02744365024781263 0.014546989778363089" fill="none" stroke="none" stroke-width="0"/>
<path d="M 0.02744365024781263 0.014546989778363089 C 0.02729226853323776 0.014757542066359361 0.024903886543276906 0.017431603972968696 0.025627069672914202 0.017073617234318356 C 0.024903886543276906 0.017431603972968696 0.017695263995455412 0.018977182580669605 0.018765452692165088 0.018842830642167175 C 0.017695263995455412 0.018977182580669605 0.012138168304560418 0.018542172273884397 0.012784805312398081 0.01868584049634752 C 0.012138168304560418 0.018542172273884397 0.010857558871922721 0.016988226262298213 0.011005808598113134 0.0171188119726097" fill="none" stroke="#000000" stroke-width="0.001"/>
</g></g>
</g>
<g id="カップ右">
<g transform="translate(0.3563146739484969,0.16765590624685137) rotate(0) scale(1,1) translate(-0.011868249318287113,-0.03885712911379911)"><path d="M 0.005206494063701392 0.01636019861697329 C 0.005519443634041555 0.017285073244093382 0.009587606821572718 0.02935607335240549 0.008961888907783344 0.027458694142414402 C 0.009587606821572718 0.02935607335240549 0.013027877372623075 0.04010125371973733 0.012715109029173865 0.039128749136866335" fill="none" stroke="#000000" stroke-width="0.001"/>
<path d="M 0.010808939624678666 0.039708621461705854 C 0.010474247987870345 0.03864685823877481 0.006158141511518167 0.02502176088280566 0.0067926399829788065 0.026967462786533374 C 0.006158141511518167 0.02502176088280566 0.0028951511324986755 0.015476259936176618 0.0031949579671509934 0.01636019861697329" fill="none" stroke="#000000" stroke-width="0.001"/>
<path d="M 0.0031949579671509934 0.01636019861697329 C 0.0032635879807327664 0.01636019861697329 0.004186146138178135 0.01636019861697329 0.004018518130132268 0.01636019861697329 C 0.004186146138178135 0.01636019861697329 0.005305492058165486 0.01636019861697329 0.005206494063701392 0.01636019861697329" fill="none" stroke="#000000" stroke-width="0.001"/>
</g><g transform="translate(0.3373434528286707,0.18173172136484844) rotate(0) scale(1,1) translate(-0.0738128523851645,-0.07381285238516451)"><path d="M 0.09868913479616329 0.07638717878930897 C 0.09812919171927376 0.07642250007134481 0.0907504305293778 0.07671988863562938 0.09196981787348889 0.07681103417373915 C 0.0907504305293778 0.07671988863562938 0.08339704239960873 0.07516696551184615 0.08405648666683027 0.07529343233199176" fill="none" stroke="#000000" stroke-width="0.001"/>
<path d="M 0.08405648666683027 0.07529343233199176 C 0.0840155041939064 0.07520954044220596 0.08349020748985346 0.07411810832930418 0.08356469699174376 0.07428672965456216 C 0.08349020748985346 0.07411810832930418 0.08312910561518025 0.0731852469934238 0.08316261264414668 0.07326997642889597" fill="none" stroke="#000000" stroke-width="0.001"/>
<path d="M 0.08316261264414668 0.07326997642889597 C 0.08359674081248283 0.07272644010604906 0.08903478115252077 0.06563221882882743 0.08837215066418057 0.06674754055473293 C 0.08903478115252077 0.06563221882882743 0.09134268082423318 0.059314330314971346 0.09111417850422913 0.05988611571802993" fill="none" stroke="#000000" stroke-width="0.001"/>
<path d="M 0.09111417850422913 0.05988611571802993 C 0.09125333642095927 0.05987369251379139 0.09302853145984755 0.059711382587332676 0.09278407350499071 0.05973703726716743 C 0.09302853145984755 0.059711382587332676 0.09415297400063788 0.05956502808441667 0.09404767396251118 0.05957825956001288" fill="none" stroke="#000000" stroke-width="0.001"/>
<path d="M 0.09404767396251118 0.05957825956001288 C 0.09442865774591011 0.060287938951425285 0.09911290159827803 0.06928772669614053 0.09861947936329843 0.06809441225696174 C 0.09911290159827803 0.06928772669614053 0.10008117923384695 0.07438166787792473 0.0999687407822663 0.07389803283015835" fill="none" stroke="#000000" stroke-width="0.001"/>
<path d="M 0.0999687407822663 0.07389803283015835 C 0.09992399759185576 0.0740072914828765 0.09932518866516457 0.0754165654927055 0.09943182249733983 0.07520913666277629 C 0.09932518866516457 0.0754165654927055 0.09862724415439858 0.07648534896652005 0.09868913479616329 0.076387178789309" fill="none" stroke="#000000" stroke-width="0.001"/>
</g><g id="縁">
<g transform="translate(0.3621500798068046,0.17601328123664567) rotate(0) scale(1,1) translate(-0.01808804748827716,-0.01808804748827716)"><path d="M 0.019704276914449047 0.022579973305578704 C 0.019696749664675873 0.02265021457855997 0.01956060130778079 0.023611864999700652 0.01961394991717095 0.023422868581353895 C 0.01956060130778079 0.023611864999700652 0.01901827224215015 0.024966685471105286 0.019064093601767133 0.024847930325739793" fill="none" stroke="#000000" stroke-width="0.001"/>
<path d="M 0.019064093601767133 0.024847930325739793 C 0.018908163654437288 0.0242541380199586 0.016704453268401403 0.016527926395044152 0.01719293423380899 0.017722422656365467 C 0.016704453268401403 0.016527926395044152 0.01286977099879834 0.00991327123434391 0.013202322016876083 0.01051397518988403" fill="none" stroke="#000000" stroke-width="0.001"/>
<path d="M 0.013202322016876083 0.01051397518988403 C 0.013229937996500254 0.010457337390482135 0.01358894573161449 0.009721045998257497 0.013533713772366153 0.009834321597061288 C 0.01358894573161449 0.009721045998257497 0.013892721507480273 0.00909803020483665 0.01386510552785611 0.009154668004238545" fill="none" stroke="none" stroke-width="0"/>
<path d="M 0.01386510552785611 0.009154668004238545 C 0.014225830856336462 0.009811301620261531 0.018680407085169732 0.01815304683829273 0.01819380946962032 0.017034271396514384 C 0.018680407085169732 0.01815304683829273 0.01983014920151811 0.023042115131334064 0.019704276914449047 0.022579973305578704" fill="none" stroke="#000000" stroke-width="0.001"/>
</g><g transform="translate(0.3563146739484969,0.16765590624685137) rotate(0) scale(1,1) translate(-0.01808804748827716,-0.01808804748827716)"><path d="M 0.019700511386163827 0.017512042994032886 C 0.019672895406539666 0.01756868079343478 0.019313887671425535 0.01830497218565942 0.01936911963067387 0.01819169658685563 C 0.019313887671425535 0.01830497218565942 0.01901011189555963 0.01892798797908028 0.0190377278751838 0.018871350179678382" fill="none" stroke="none" stroke-width="0"/>
<path d="M 0.0190377278751838 0.018871350179678382 C 0.018958525906052355 0.018879327118834666 0.01793424917914136 0.018983742279052595 0.01808730424560644 0.0189670734495538 C 0.01793424917914136 0.018983742279052595 0.01712721398026922 0.019080068024006396 0.01720106707760285 0.01907137613366389" fill="none" stroke="#000000" stroke-width="0.001"/>
<path d="M 0.01720106707760285 0.01907137613366389 C 0.017158806002525846 0.01902252950105916 0.016609412026524797 0.018387523277197657 0.016693934176678804 0.018485216542407118 C 0.016609412026524797 0.018387523277197657 0.016144540200677748 0.017850210318545622 0.016186801275754753 0.017899056951150353" fill="none" stroke="none" stroke-width="0"/>
<path d="M 0.016186801275754753 0.017899056951150353 C 0.016330902426379294 0.017878175613719897 0.01820882425911669 0.017616229738891778 0.017916015083249266 0.0176484809019849 C 0.01820882425911669 0.017616229738891778 0.01984921941140671 0.01750067316837022 0.019700511386163827 0.017512042994032886" fill="none" stroke="#000000" stroke-width="0.001"/>
</g><g transform="translate(0.35190275110768676,0.17466640953441687) rotate(0) scale(1,1) translate(-0.01808804748827716,-0.01808804748827716)"><path d="M 0.020598724116564892 0.01088855366358483 C 0.020640985191641897 0.01093740029618956 0.021190379167642947 0.01157240652005106 0.02110585701748894 0.011474713254841598 C 0.021190379167642947 0.01157240652005106 0.021655250993489996 0.012109719478703096 0.02161298991841299 0.012060872846098365" fill="none" stroke="none" stroke-width="0"/>
<path d="M 0.02161298991841299 0.012060872846098365 C 0.021540238281320238 0.012314830272610133 0.02050928152477033 0.01566083523098469 0.020739970273299938 0.015108361964239581 C 0.02050928152477033 0.01566083523098469 0.01846510387779728 0.01926322418834745 0.01884472493605769 0.018690552047039684 C 0.01846510387779728 0.01926322418834745 0.015764427022600794 0.022491258278120277 0.016184517574174995 0.02198042765993279 C 0.015764427022600794 0.022491258278120277 0.013605231712416642 0.02505719378240258 0.013803638317167284 0.024820519465289518" fill="none" stroke="#000000" stroke-width="0.001"/>
<path d="M 0.013803638317167284 0.024820519465289518 C 0.013742241384704064 0.02481176796245951 0.012944081262682212 0.02469799842566941 0.013066875127608651 0.024715501431329428 C 0.012944081262682212 0.02469799842566941 0.0122687150055868 0.024601731894539333 0.012330111938050019 0.02461048339736934" fill="none" stroke="none" stroke-width="0"/>
<path d="M 0.012330111938050019 0.02461048339736934 C 0.012573751028865926 0.024323914601338602 0.01571247224022057 0.020623033539097953 0.015253781027840906 0.021171657845000483 C 0.01571247224022057 0.020623033539097953 0.018203166024520347 0.01747181458404864 0.017834406486606013 0.018026991726538977 C 0.018203166024520347 0.01747181458404864 0.019909255285309506 0.013914662296536928 0.019678895482812934 0.014509532135116441 C 0.019909255285309506 0.013914662296536928 0.02067537650271089 0.010586805457623862 0.020598724116564892 0.01088855366358483" fill="none" stroke="#000000" stroke-width="0.001"/>
</g><g transform="translate(0.3555004183169951,0.18472990315342308) rotate(0) scale(1,1) translate(-0.01808804748827716,-0.01808804748827716)"><path d="M 0.0251702863784412 0.0171188119726097 C 0.02502203665225079 0.017249397682921185 0.02274465265631864 0.018829508718810645 0.0233912896641563 0.01868584049634752 C 0.02274465265631864 0.018829508718810645 0.016340453587679594 0.018708478703664745 0.017410642284389273 0.018842830642167175 C 0.016340453587679594 0.018708478703664745 0.009825842174002841 0.016715630495668016 0.01054902530364014 0.017073617234318356 C 0.009825842174002841 0.016715630495668016 0.008581063014166829 0.014336437490366817 0.0087324447287417 0.014546989778363089" fill="none" stroke="#000000" stroke-width="0.001"/>
<path d="M 0.0087324447287417 0.014546989778363089 C 0.008793841661204928 0.014555741281193097 0.009592001783226892 0.014669510817983211 0.009469207918300445 0.014652007812323193 C 0.009592001783226892 0.014669510817983211 0.010267368040322297 0.014765777349113308 0.010205971107859077 0.0147570258462833" fill="none" stroke="none" stroke-width="0"/>
<path d="M 0.010205971107859077 0.0147570258462833 C 0.010319503592739874 0.014879142872375729 0.012140282391264787 0.016460472027866074 0.01156836092642863 0.016222430159392443 C 0.012140282391264787 0.016460472027866074 0.017942287458844023 0.017741293176152872 0.01706902868589295 0.017613528267966885 C 0.017942287458844023 0.017741293176152872 0.02272257100955388 0.017714382699677875 0.022047466201841524 0.017755609057624307 C 0.02272257100955388 0.017714382699677875 0.025430521393157837 0.01706574554885848 0.0251702863784412 0.0171188119726097" fill="none" stroke="#000000" stroke-width="0.001"/>
</g></g>
</g>
</svg>
