<?xml version="1.0" encoding="UTF-8"?>
<svg xmlns="http://www.w3.org/2000/svg" viewBox="0 0 1 1">
<g transform="translate(0.15847678407676016,0.1722403631213784) rotate(0) scale(1,1) translate(-0.2955298382755143,-0.29552983827551427)"><path d="M 0.271225708053691 0.22842354265681203 C 0.27258199992677973 0.22853388382485287 0.2901963589373032 0.2299642225325573 0.2875012105307556 0.22974763667330222 C 0.2901963589373032 0.2299642225325573 0.30490634546572093 0.23112881765908727 0.30356748893226204 0.23102257296787304" fill="none" stroke="none" stroke-width="0"/>
<path d="M 0.30356748893226204 0.23102257296787304 C 0.30665449164546293 0.2315458999081252 0.3446782687724146 0.23750398750152943 0.3406115214906728 0.23730249625089922 C 0.3446782687724146 0.23750398750152943 0.3533482008817046 0.23311863228581356 0.3523684563131637 0.23344046797543552" fill="none" stroke="#000000" stroke-width="0.001"/>
<path d="M 0.3523684563131637 0.23344046797543552 C 0.3544619881523072 0.23539245121714422 0.3822365696116952 0.2598364126111195 0.3774908383828852 0.25686426687593994 C 0.3822365696116952 0.2598364126111195 0.4150191847951412 0.27011304547047377 0.4093172310588836 0.2691062167975904 C 0.4150191847951412 0.27011304547047377 0.44896403756456776 0.268932877129953 0.44591428321797666 0.2689462109505405" fill="none" stroke="#000000" stroke-width="0.001"/>
<path d="M 0.44591428321797666 0.2689462109505405 C 0.4407885285724657 0.274883627130268 0.3746868049871826 0.35100617795277606 0.3844052274718454 0.34019520510727036 C 0.3746868049871826 0.35100617795277606 0.3247005455628713 0.4035514417623868 0.32929321340202317 0.39867788509660856" fill="none" stroke="none" stroke-width="0"/>
<path d="M 0.32929321340202317 0.39867788509660856 C 0.32512145957808913 0.3956863097398562 0.27014035676908954 0.35933843614876054 0.2792321675148146 0.3627789808155804 C 0.27014035676908954 0.35933843614876054 0.21527142753153167 0.35694237978470267 0.22019148445332265 0.35739134909477016" fill="none" stroke="#000000" stroke-width="0.001"/>
<path d="M 0.22019148445332265 0.35739134909477016 C 0.21809277960486376 0.3531322519030181 0.18901756723160162 0.29930707415350777 0.19500702627181601 0.30628218279374586 C 0.18901756723160162 0.29930707415350777 0.1444272217789946 0.27097403396342706 0.1483179759707501 0.2736900454119131" fill="none" stroke="#000000" stroke-width="0.001"/>
<path d="M 0.1483179759707501 0.2736900454119131 C 0.15167354211780387 0.27202490410815455 0.19503258142054233 0.2511450602489337 0.1885847697353952 0.25370834976681034 C 0.19503258142054233 0.2511450602489337 0.22878396173060916 0.24203242298327493 0.2256917161925158 0.24293057119739303" fill="none" stroke="none" stroke-width="0"/>
<path d="M 0.2256917161925158 0.24293057119739303 C 0.22701354882546834 0.24259643742755393 0.24266661929110966 0.23809048762815377 0.2415537077879464 0.23892096595932405 C 0.24266661929110966 0.23809048762815377 0.23883773310068562 0.23246848666201858 0.23904665423047491 0.23296483122334977" fill="none" stroke="#000000" stroke-width="0.001"/>
<path d="M 0.23904665423047491 0.23296483122334977 C 0.2404289552786359 0.23264185564470888 0.25831585462700785 0.22871068356578106 0.2556342668084065 0.2290891242796592 C 0.25831585462700785 0.22871068356578106 0.2725249948241314 0.22836807752157476 0.271225708053691 0.22842354265681203" fill="none" stroke="none" stroke-width="0"/>
</g></svg>
