<?xml version="1.0" encoding="UTF-8"?>
<svg xmlns="http://www.w3.org/2000/svg" viewBox="0 0 1 1">
<g transform="translate(0.3373434528286707,0.1259206661913191) rotate(0) scale(1,1) translate(-0.09832873292759998,-0.0846133331755345)"><path d="M 0.09120729286634942 0.08029985108638577 C 0.09161295333636102 0.0804103464557226 0.09685646471335219 0.08173629088776474 0.0960752185064887 0.0816257955184279 C 0.09685646471335219 0.08173629088776474 0.10136349355557475 0.08151530014909106 0.10058224734871127 0.0816257955184279 C 0.10136349355557475 0.08151530014909106 0.10585583345886215 0.08018935571704892 0.10545017298885055 0.08029985108638577" fill="none" stroke="none" stroke-width="0"/>
<path d="M 0.10545017298885055 0.08029985108638577 C 0.10571949524955096 0.08014835416763688 0.10931480110488613 0.07806650415510218 0.10868204011725549 0.07848188806139925 C 0.10931480110488613 0.07806650415510218 0.11340674356734848 0.07505135722327265 0.11304330484041825 0.07531524421082085" fill="none" stroke="none" stroke-width="0"/>
<path d="M 0.11304330484041825 0.07531524421082085 C 0.1126554602042861 0.07602845749528259 0.10716295488076431 0.0848456724664471 0.1083891692068325 0.08387380362436164 C 0.10716295488076431 0.0848456724664471 0.09665199354772791 0.08697767031584634 0.0983287329276 0.08697767031584634 C 0.09665199354772791 0.08697767031584634 0.08704208232229932 0.08290193478227618 0.08826829664836751 0.08387380362436164 C 0.08704208232229932 0.08290193478227618 0.08322631637864958 0.07460203092635911 0.08361416101478172 0.07531524421082085" fill="none" stroke="none" stroke-width="0"/>
<path d="M 0.08361416101478172 0.07531524421082085 C 0.08397759974171196 0.07557913119836905 0.08860818672557513 0.07889727196769633 0.0879754257379445 0.07848188806139926 C 0.08860818672557513 0.07889727196769633 0.09147661512704983 0.08045134800513463 0.09120729286634942 0.08029985108638577" fill="none" stroke="none" stroke-width="0"/>
</g><g transform="translate(0.3373434528286707,0.11344159583471114) rotate(0) scale(1,1) translate(-0.09832873292759998,-0.0846133331755345)"><path d="M 0.08357988781459966 0.085929936725713 C 0.08366128666503198 0.08609100552311899 0.08473053910821081 0.08815194763547174 0.0845566740197874 0.08786276229458478 C 0.08473053910821081 0.08815194763547174 0.08575873511367162 0.08952827735983737 0.08566626887568052 0.0894001608163564" fill="none" stroke="#000000" stroke-width="0.0017000000000000001"/>
<path d="M 0.08566626887568052 0.0894001608163564 C 0.08544226182684272 0.08876075938033892 0.08303070171960968 0.08036016848729657 0.08297818428962693 0.08172734358414664 C 0.08303070171960968 0.08036016848729657 0.08757569042197116 0.07193105125404256 0.08629647803547341 0.07299405965415559 C 0.08757569042197116 0.07193105125404256 0.10033410874295441 0.06897124278279029 0.09832873292759998 0.06897124278279029 C 0.10033410874295441 0.06897124278279029 0.1116402002062243 0.07405706805426862 0.11036098781972654 0.07299405965415559 C 0.1116402002062243 0.07405706805426862 0.11373179899555577 0.08309451868099671 0.11367928156557303 0.08172734358414664 C 0.11373179899555577 0.08309451868099671 0.11076718993068167 0.09003956225237389 0.11099119697951947 0.0894001608163564" fill="none" stroke="none" stroke-width="0"/>
<path d="M 0.11099119697951947 0.0894001608163564 C 0.11108366321751056 0.08927204427287544 0.11227465692383598 0.08757357695369783 0.11210079183541258 0.08786276229458478 C 0.11227465692383598 0.08757357695369783 0.1131589768910326 0.08576886792830701 0.1130775780406003 0.085929936725713" fill="none" stroke="#000000" stroke-width="0.0017000000000000001"/>
<path d="M 0.1130775780406003 0.085929936725713 C 0.11263440882846874 0.08559544422069242 0.10653047706893834 0.08145757364034012 0.1077595474950217 0.08191602666546596 C 0.10653047706893834 0.08145757364034012 0.09675693049969639 0.08042850042420294 0.0983287329276 0.08042850042420294 C 0.09675693049969639 0.08042850042420294 0.08766884793409492 0.0823744796905918 0.08889791836017828 0.08191602666546596 C 0.08766884793409492 0.0823744796905918 0.0831367186024681 0.08626442923073359 0.08357988781459966 0.085929936725713" fill="none" stroke="#000000" stroke-width="0.0017000000000000001"/>
</g><g transform="translate(0.3373434528286707,0.10182232231333223) rotate(0) scale(1,1) translate(-0.004673193949358962,-0.009407905204451655)"><path d="M -0.009669827507903024 0.017319659258971186 C -0.009264988364874337 0.01703047913243534 -0.0036165060034536083 0.013316121062708299 -0.004811757791558774 0.013849497740541075 C -0.0036165060034536083 0.013316121062708299 0.00625401923951192 0.010919139124977866 0.004673193949358964 0.010919139124977866 C 0.00625401923951192 0.010919139124977866 0.015353397478381872 0.014382874418373852 0.014158145690276706 0.013849497740541075 C 0.015353397478381872 0.014382874418373852 0.019421054549649635 0.01760883938550703 0.019016215406620948 0.017319659258971186" fill="none" stroke="none" stroke-width="0"/>
<path d="M 0.019016215406620948 0.017319659258971186 C 0.018627441826177586 0.016824839931343188 0.013155680653195436 0.01063638522347613 0.014350932441300602 0.011381827327435192 C 0.013155680653195436 0.01063638522347613 0.0030602375340353562 0.008374354011462441 0.004673193949358962 0.008374354011462441 C 0.0030602375340353562 0.008374354011462441 -0.006199796330687835 0.012127269431394257 -0.005004544542582669 0.011381827327435194 C -0.006199796330687835 0.012127269431394257 -0.010058601088346386 0.017814478586599184 -0.009669827507903024 0.017319659258971186" fill="none" stroke="#000000" stroke-width="0.001"/>
</g><g transform="translate(0.32431112382478683,0.11771595730160918) rotate(0) scale(1,1) translate(-0.008380251738491874,-0.0057170889593407765)"><path d="M 0.006983942987493364 0.007508231371163522 C 0.007055729924172291 0.007387077346085781 0.00793658088827126 0.005898781415791473 0.007845386227640487 0.0060543830702306295 C 0.00793658088827126 0.005898781415791473 0.008097686639014487 0.005606563888532231 0.008078278915062641 0.005641011517893646" fill="none" stroke="#000000" stroke-width="0.001"/>
<path d="M 0.008078278915062641 0.005641011517893646 C 0.008097299189613829 0.005629607430069149 0.008348975132368843 0.005507194531753336 0.008306522209676896 0.005504162463999683 C 0.008348975132368843 0.005507194531753336 0.008612868666638874 0.005715561871625493 0.008587713987366019 0.005677396330937474 C 0.008612868666638874 0.005715561871625493 0.008610100392083243 0.005985878337365781 0.008608378360951149 0.005962148952255912" fill="none" stroke="#000000" stroke-width="0.001"/>
<path d="M 0.008608378360951149 0.005962148952255912 C 0.008578560034501944 0.005996061500843593 0.00811518882910587 0.006497939736883715 0.008250558443560685 0.0063690995353080804 C 0.00811518882910587 0.006497939736883715 0.0068783916994877535 0.007603159024151476 0.006983942987493364 0.007508231371163522" fill="none" stroke="#000000" stroke-width="0.001"/>
</g><g transform="translate(0.3233834268386099,0.11637836457707913) rotate(0) scale(1,1) translate(-0.008380251738491874,-0.0057170889593407765)"><path d="M 0.005669395662350483 0.007415057393176147 C 0.00582276858022032 0.007289289836877236 0.007705523986369929 0.005743836413984875 0.007509870676788515 0.005905846717589215 C 0.007705523986369929 0.005743836413984875 0.008059515769039034 0.00543469100261864 0.008017235377327455 0.005470933749924069" fill="none" stroke="#000000" stroke-width="0.001"/>
<path d="M 0.008017235377327455 0.005470933749924069 C 0.008047902475064506 0.00546500273563198 0.008439966845857615 0.005424224911373255 0.008385240550172065 0.005399761578418996 C 0.008439966845857615 0.005424224911373255 0.008688858366110006 0.005827123722787915 0.008673950925554062 0.00576449374537517 C 0.008688858366110006 0.005827123722787915 0.008554978079450826 0.00618355693753833 0.008564129836843383 0.006151321307371933" fill="none" stroke="#000000" stroke-width="0.001"/>
<path d="M 0.008564129836843383 0.006151321307371933 C 0.008508328659298311 0.006181840889588832 0.007653287858428117 0.006622867634458407 0.007894515706302525 0.006517556293974723 C 0.007653287858428117 0.006622867634458407 0.005483968992021146 0.007489849151442933 0.005669395662350483 0.007415057393176147" fill="none" stroke="#000000" stroke-width="0.001"/>
</g><g transform="translate(0.3503757818325545,0.11771595730160918) rotate(0) scale(1,1) translate(-0.008380251738491874,-0.0057170889593407765)"><path d="M 0.009776560489490382 0.007508231371163522 C 0.009671009201484773 0.007413303718175569 0.008374575418968244 0.006240259333732446 0.00850994503342306 0.0063690995353080804 C 0.008374575418968244 0.006240259333732446 0.008122306789583375 0.005928236403668231 0.008152125116032582 0.005962148952255912" fill="none" stroke="#000000" stroke-width="0.001"/>
<path d="M 0.008152125116032582 0.005962148952255912 C 0.00815384714716468 0.005938419567146042 0.008197944168890609 0.005639230790249455 0.008172789489617749 0.005677396330937474 C 0.008197944168890609 0.005639230790249455 0.008496434189998847 0.005501130396246031 0.008453981267306898 0.005504162463999683 C 0.008496434189998847 0.005501130396246031 0.008701244836472324 0.005652415605718143 0.008682224561921137 0.005641011517893646" fill="none" stroke="#000000" stroke-width="0.001"/>
<path d="M 0.008682224561921137 0.005641011517893646 C 0.008701632285872979 0.005675459147255061 0.00900631190997401 0.006209984724669786 0.00891511724934324 0.0060543830702306295 C 0.00900631190997401 0.006209984724669786 0.00984834742616931 0.007629385396241264 0.009776560489490382 0.007508231371163522" fill="none" stroke="#000000" stroke-width="0.001"/>
</g><g transform="translate(0.3513034788187315,0.11637836457707913) rotate(0) scale(1,1) translate(-0.008380251738491874,-0.0057170889593407765)"><path d="M 0.011091107814633294 0.007415057393176147 C 0.010905681144303958 0.0073402656349093615 0.00862475992280685 0.006412244953491039 0.00886598777068126 0.006517556293974723 C 0.00862475992280685 0.006412244953491039 0.008140572462595289 0.006120801725155034 0.008196373640140364 0.006151321307371933" fill="none" stroke="#000000" stroke-width="0.001"/>
<path d="M 0.008196373640140364 0.006151321307371933 C 0.008187221882747814 0.006119085677205536 0.008101459991985702 0.005701863767962426 0.00808655255142976 0.00576449374537517 C 0.008101459991985702 0.005701863767962426 0.008429989222497223 0.005375298245464738 0.008375262926811677 0.005399761578418996 C 0.008429989222497223 0.005375298245464738 0.008773935197393362 0.005476864764216158 0.00874326809965631 0.005470933749924069" fill="none" stroke="#000000" stroke-width="0.001"/>
<path d="M 0.00874326809965631 0.005470933749924069 C 0.008785548491367886 0.005507176497229498 0.009446286109776639 0.006067857021193555 0.009250632800195224 0.005905846717589215 C 0.009446286109776639 0.006067857021193555 0.011244480732503134 0.007540824949475058 0.011091107814633294 0.007415057393176147" fill="none" stroke="#000000" stroke-width="0.001"/>
</g><g transform="translate(0.322723168808557,0.11431820230203192) rotate(0) scale(1,1) translate(-0.008380251738491874,-0.0057170889593407765)"><path d="M 0.004255420739700296 0.005525348145550783 C 0.004510789592169798 0.005507749282506112 0.007646777983146438 0.005290205486052018 0.007319846969334317 0.005314161789014739 C 0.007646777983146438 0.005290205486052018 0.008250155066788367 0.0052315150700800814 0.008178592905445748 0.0052378725099981325" fill="none" stroke="#000000" stroke-width="0.001"/>
<path d="M 0.008178592905445748 0.0052378725099981325 C 0.008215422300975252 0.005252758597436429 0.008660312137473486 0.005476637814901918 0.00862054565179979 0.005416505559257692 C 0.008660312137473486 0.005476637814901918 0.008625173776271844 0.006029442752039725 0.0086557907335301 0.005959459577728851 C 0.008625173776271844 0.006029442752039725 0.008219588117298265 0.006281040657093127 0.008253142164700713 0.006256303650988183" fill="none" stroke="#000000" stroke-width="0.001"/>
<path d="M 0.008253142164700713 0.006256303650988183 C 0.008171517632943822 0.00624811194726284 0.006940504331534649 0.006097090247497611 0.007273647783618017 0.0061580032062840614 C 0.006940504331534649 0.006097090247497611 0.0040039018193738195 0.005472626890489676 0.004255420739700296 0.005525348145550783" fill="none" stroke="#000000" stroke-width="0.001"/>
</g><g transform="translate(0.32516302883871895,0.1121898605962439) rotate(0) scale(1,1) translate(-0.008380251738491874,-0.0057170889593407765)"><path d="M 0.0045605499899618734 0.005664768138197107 C 0.004795559163727944 0.0056409154158844265 0.007681454933233872 0.005346687813400178 0.007380660075154721 0.005378535470444939 C 0.007681454933233872 0.005346687813400178 0.00823587397122477 0.005274601318927895 0.00817008828691169 0.0052825962536599755" fill="none" stroke="#000000" stroke-width="0.001"/>
<path d="M 0.00817008828691169 0.0052825962536599755 C 0.008204850014251005 0.005295174594503188 0.008626959322130118 0.005487622060705722 0.008587229014983464 0.005433536343778517 C 0.008626959322130118 0.005487622060705722 0.008622059541394464 0.005996881707565651 0.00864685197267154 0.005931624856786433 C 0.008622059541394464 0.005996881707565651 0.008259958828574148 0.00624036802782435 0.008289719839658562 0.006216618553129126" fill="none" stroke="#000000" stroke-width="0.001"/>
<path d="M 0.008289719839658562 0.006216618553129126 C 0.008213914165504509 0.006211540563908345 0.00706928759566852 0.006109695147902082 0.007380051749809911 0.006155682682479751 C 0.00706928759566852 0.006109695147902082 0.004325591509974537 0.00562385859284022 0.0045605499899618734 0.005664768138197107" fill="none" stroke="#000000" stroke-width="0.001"/>
</g><g transform="translate(0.32887099727561586,0.11020007336606703) rotate(0) scale(1,1) translate(-0.008380251738491874,-0.0057170889593407765)"><path d="M 0.0046570747920723935 0.0055630914234723 C 0.004886719933573312 0.005546248868087752 0.007706773749666333 0.00533814233949206 0.00741281649008341 0.005360980758857728 C 0.007706773749666333 0.00533814233949206 0.008248874025149474 0.005283034527103159 0.00818456190706747 0.00528903039108428" fill="none" stroke="#000000" stroke-width="0.001"/>
<path d="M 0.00818456190706747 0.00528903039108428 C 0.00821818827951945 0.00530219678383355 0.008625668055731006 0.00550067827532302 0.008588078376491243 0.005447027104075522 C 0.008625668055731006 0.00550067827532302 0.008610079589717623 0.005995613264630165 0.008635638057944628 0.005932844446054254 C 0.008610079589717623 0.005995613264630165 0.008251854982752412 0.006222536967064141 0.008281376757767198 0.006200252926986458" fill="none" stroke="#000000" stroke-width="0.001"/>
<path d="M 0.008281376757767198 0.006200252926986458 C 0.008207572469027794 0.006193269643996513 0.007093700129086451 0.0060633567391476005 0.007395725292894352 0.006116453531107114 C 0.007093700129086451 0.0060633567391476005 0.004428853917003897 0.0055169779145027315 0.0046570747920723935 0.0055630914234723" fill="none" stroke="#000000" stroke-width="0.001"/>
</g><g transform="translate(0.35196373684878435,0.11431820230203192) rotate(0) scale(1,1) translate(-0.008380251738491874,-0.0057170889593407765)"><path d="M 0.012505082737283457 0.005525348145550783 C 0.012253563816956978 0.005578069400611889 0.009153712241282344 0.006218916165070512 0.009486855693365714 0.0061580032062840614 C 0.009153712241282344 0.006218916165070512 0.008425736780526133 0.006264495354713526 0.008507361312283024 0.006256303650988183" fill="none" stroke="#000000" stroke-width="0.001"/>
<path d="M 0.008507361312283024 0.006256303650988183 C 0.008473807264880581 0.006231566644883239 0.008074095786195445 0.005889476403417977 0.008104712743453701 0.005959459577728851 C 0.008074095786195445 0.005889476403417977 0.008179724310857645 0.005356373303613465 0.008139957825183952 0.005416505559257692 C 0.008179724310857645 0.005356373303613465 0.008618739967067515 0.005222986422559836 0.00858191057153801 0.0052378725099981325" fill="none" stroke="#000000" stroke-width="0.001"/>
<path d="M 0.00858191057153801 0.0052378725099981325 C 0.008653472732880632 0.0052442299499161835 0.00976758752146159 0.005338118091977461 0.00944065650764947 0.005314161789014739 C 0.00976758752146159 0.005338118091977461 0.012760451589752956 0.005542947008595453 0.012505082737283457 0.005525348145550783" fill="none" stroke="#000000" stroke-width="0.001"/>
</g><g transform="translate(0.3495238768186224,0.1121898605962439) rotate(0) scale(1,1) translate(-0.008380251738491874,-0.0057170889593407765)"><path d="M 0.012199953487021853 0.005664768138197107 C 0.011964995007034518 0.005705677683553994 0.009069687573032448 0.006201670217057419 0.009380451727173833 0.006155682682479751 C 0.009069687573032448 0.006201670217057419 0.00839497796317118 0.006221696542349907 0.00847078363732523 0.006216618553129126" fill="none" stroke="#000000" stroke-width="0.001"/>
<path d="M 0.00847078363732523 0.006216618553129126 C 0.00844102262624081 0.006192869078433902 0.008088859073035129 0.005866368006007216 0.008113651504312203 0.005931624856786433 C 0.008088859073035129 0.005866368006007216 0.008213004769146992 0.005379450626851312 0.008173274462000335 0.005433536343778517 C 0.008213004769146992 0.005379450626851312 0.0086251769174114 0.005270017912816763 0.008590415190072087 0.0052825962536599755" fill="none" stroke="#000000" stroke-width="0.001"/>
<path d="M 0.008590415190072087 0.0052825962536599755 C 0.00865620087438517 0.005290591188392056 0.009680638259908217 0.005410383127489701 0.009379843401829069 0.005378535470444939 C 0.009680638259908217 0.005410383127489701 0.012434962660787918 0.005688620860509788 0.012199953487021853 0.005664768138197107" fill="none" stroke="#000000" stroke-width="0.001"/>
</g><g transform="translate(0.34581590838172555,0.11020007336606703) rotate(0) scale(1,1) translate(-0.008380251738491874,-0.0057170889593407765)"><path d="M 0.012103428684911322 0.0055630914234723 C 0.01187520780984283 0.005609204932441868 0.009062753020281533 0.0061695503230666275 0.009364778184089428 0.006116453531107114 C 0.009062753020281533 0.0061695503230666275 0.008405322430477175 0.006207236209976403 0.008479126719216579 0.006200252926986458" fill="none" stroke="#000000" stroke-width="0.001"/>
<path d="M 0.008479126719216579 0.006200252926986458 C 0.00844960494420179 0.0061779688869087745 0.008099306950812115 0.0058700756274783425 0.008124865419039118 0.005932844446054254 C 0.008099306950812115 0.0058700756274783425 0.008210014779732303 0.005393375932828024 0.008172425100492542 0.005447027104075522 C 0.008210014779732303 0.005393375932828024 0.008609567942368232 0.00527586399833501 0.008575941569916257 0.00528903039108428" fill="none" stroke="#000000" stroke-width="0.001"/>
<path d="M 0.008575941569916257 0.00528903039108428 C 0.008640253687998265 0.005295026255065401 0.009641644246483283 0.005383819178223396 0.009347686986900361 0.005360980758857728 C 0.009641644246483283 0.005383819178223396 0.012333073826412235 0.005579933978856848 0.012103428684911322 0.0055630914234723" fill="none" stroke="#000000" stroke-width="0.001"/>
</g></svg>
