<?xml version="1.0" encoding="UTF-8"?>
<svg xmlns="http://www.w3.org/2000/svg" viewBox="0 0 1 1">
<g transform="translate(0.3257456317518053,0.1130072566562324) rotate(0) scale(1,1) translate(-0.14152185117886698,-0.14116273906070584)"><path d="M 0.1317967290307309 0.14152128608500533 C 0.13196830228129378 0.1409422222775161 0.13460562065393775 0.1336900036301274 0.13385560803748547 0.13457252039513456 C 0.13460562065393775 0.1336900036301274 0.1419803629113017 0.13082619305892967 0.1407968804281583 0.13093108490491925 C 0.1419803629113017 0.13082619305892967 0.1489283753604131 0.13394357602344725 0.14805739783520633 0.13331381824325977 C 0.1489283753604131 0.13394357602344725 0.15151454513859225 0.13891937493582826 0.1512486107306395 0.13848817826716914" fill="none" stroke="none" stroke-width="0"/>
<path d="M 0.1512486107306395 0.13848817826716914 C 0.15133270124434645 0.1392156041124309 0.1511553777398453 0.1436887033481238 0.1517531538128812 0.14285273333873974 C 0.1511553777398453 0.1436887033481238 0.14698008770568116 0.1436125424875958 0.147661954292424 0.14350399832347352" fill="none" stroke="none" stroke-width="0"/>
<path d="M 0.147661954292424 0.14350399832347352 C 0.1474923582743888 0.14326796719914375 0.14512768223515998 0.1403651392376666 0.1456268020760015 0.14067162483151635 C 0.14512768223515998 0.1403651392376666 0.1409519120863258 0.13979327865693666 0.14167251620232565 0.13982617119727675 C 0.1409519120863258 0.13979327865693666 0.13635343213913184 0.1404858781732186 0.13697955268400316 0.1402769143474353 C 0.13635343213913184 0.1404858781732186 0.13392402941219192 0.14250513900327938 0.1341590696638697 0.142333737106676" fill="none" stroke="#000000" stroke-width="0.001"/>
<path d="M 0.1341590696638697 0.142333737106676 C 0.1342131017360374 0.1424191909858405 0.13495742192314994 0.1435635007908063 0.13480745452988216 0.14335918365664987 C 0.13495742192314994 0.1435635007908063 0.1360546137041831 0.14490440597154508 0.135958678383083 0.14478554271655314" fill="none" stroke="#000000" stroke-width="0.001"/>
<path d="M 0.135958678383083 0.14478554271655314 C 0.13626446458476305 0.14489451981446125 0.14035128095806948 0.14616614365439942 0.13962811280324341 0.14609326789145036 C 0.14035128095806948 0.14616614365439942 0.14526744896529548 0.14546394087534736 0.1446366962409959 0.14566005187194195 C 0.14526744896529548 0.14546394087534736 0.1474492503324574 0.14356026480327644 0.1471971454948384 0.14373993593231546 C 0.1474492503324574 0.14356026480327644 0.14770068835888947 0.14348433685607004 0.147661954292424 0.14350399832347352" fill="none" stroke="none" stroke-width="0"/>
<path d="M 0.147661954292424 0.14350399832347352 C 0.14834378690894504 0.14339553076830625 0.1520847674999646 0.14334893137874033 0.1517529499915501 0.14285319299246987 C 0.1520847674999646 0.14334893137874033 0.1493028442348047 0.14708263458253393 0.14965285934291117 0.1464784286410962" fill="none" stroke="none" stroke-width="0"/>
<path d="M 0.14965285934291117 0.1464784286410962 C 0.14939918984363396 0.14681606825337767 0.14579911671264256 0.15095336070947737 0.14660882535158462 0.15053010398847386 C 0.14579911671264256 0.15095336070947737 0.1389062862568372 0.15139561909381702 0.13993635567560644 0.15155750929313846 C 0.1389062862568372 0.15139561909381702 0.13356969010594757 0.1477510696626053 0.13424799232635387 0.1485874215966164 C 0.13356969010594757 0.1477510696626053 0.131592457089429 0.14093244145903774 0.1317967290307309 0.14152128608500533" fill="none" stroke="none" stroke-width="0"/>
<path d="M 0.1317967290307309 0.14152128608500533 C 0.1317967290307309 0.14152128608500533 0.1317967290307309 0.14152128608500533 0.1317967290307309 0.14152128608500533 C 0.1317967290307309 0.14152128608500533 0.1317967290307309 0.14152128608500533 0.1317967290307309 0.14152128608500533 C 0.1317967290307309 0.14152128608500533 0.1317967290307309 0.14152128608500533 0.1317967290307309 0.14152128608500533 C 0.1317967290307309 0.14152128608500533 0.1317967290307309 0.14152128608500533 0.1317967290307309 0.14152128608500533" fill="none" stroke="#000000" stroke-width="0.001"/>
</g><g transform="translate(0.32588449103078504,0.10825672161350267) rotate(0) scale(1,1) translate(-0.014991016181195468,-0.014142268789137224)"><path d="M 0.021044888996724298 0.017652994492077113 C 0.020862922722053756 0.017497491070871986 0.018352970229166987 0.015539258172341358 0.018861293700677774 0.015786953437615603 C 0.018352970229166987 0.015539258172341358 0.01430409368385205 0.014617202282220475 0.01494500733859484 0.014680651308786182 C 0.01430409368385205 0.014617202282220475 0.010573384514198314 0.015192559371489216 0.011170329843764294 0.015025565118827135 C 0.010573384514198314 0.015192559371489216 0.007499274512139651 0.016822833775889817 0.007781663383803085 0.016684582340731148" fill="none" stroke="none" stroke-width="0"/>
<path d="M 0.007781663383803085 0.016684582340731148 C 0.008026189540507642 0.016481812258478445 0.011324166603032107 0.013993353205950153 0.010715977264257768 0.014251341353698736 C 0.011324166603032107 0.013993353205950153 0.015748725731280153 0.013633389815711558 0.015079935449095146 0.013588724567748157 C 0.015748725731280153 0.013633389815711558 0.019238540112780297 0.015126013489620286 0.018741460650477867 0.014787324329259539 C 0.019238540112780297 0.015126013489620286 0.0212368413589115 0.017891800338978577 0.021044888996724298 0.017652994492077113" fill="none" stroke="#000000" stroke-width="0.001"/>
</g><g id="睫毛">
<g transform="translate(0.31950046536202364,0.11620148050060888) rotate(0) scale(1,1) translate(-0.008417252494995203,-0.005828091228850773)"><path d="M 0.006215180083332669 0.006989743696660248 C 0.006332311306187094 0.0069037864415587786 0.00778909023011003 0.005835710189546795 0.007620754757585773 0.0059582566354426094 C 0.00778909023011003 0.005835710189546795 0.00828641000329358 0.005482597155116125 0.008235205753623749 0.00551918634591047" fill="none" stroke="#000000" stroke-width="0.001"/>
<path d="M 0.008235205753623749 0.00551918634591047 C 0.008266658289255845 0.005524231711680515 0.008654489079162277 0.0056158485585399535 0.00861263618120889 0.005579730735151005 C 0.008654489079162277 0.0056158485585399535 0.008728632003743408 0.006006670112051693 0.008737440529064404 0.005952600226577848 C 0.008728632003743408 0.006006670112051693 0.00848772498971466 0.006251566788692081 0.008506933877356947 0.00622856936083714" fill="none" stroke="#000000" stroke-width="0.001"/>
<path d="M 0.008506933877356947 0.00622856936083714 C 0.008447686724063127 0.006245406081473412 0.007604988554995751 0.0064940412031243245 0.0077959680378311075 0.006430610008472399 C 0.007604988554995751 0.0064940412031243245 0.0060834477537911325 0.007036338170675903 0.006215180083332669 0.006989743696660248" fill="none" stroke="#000000" stroke-width="0.001"/>
</g><g transform="translate(0.32132685310488135,0.11208493048839255) rotate(0) scale(1,1) translate(-0.008380251738491874,-0.0057170889593407765)"><path d="M 0.005042954052134134 0.00577477034740932 C 0.005248233066146137 0.005749138966425516 0.007769042176070713 0.005433312447478483 0.00750630222027817 0.005467193775603671 C 0.007769042176070713 0.005433312447478483 0.008253294463425187 0.005359944462765683 0.008195833521644647 0.005368194409907066" fill="none" stroke="#000000" stroke-width="0.001"/>
<path d="M 0.008195833521644647 0.005368194409907066 C 0.008226227413139676 0.005377541247262972 0.008595371718006088 0.005523430385945473 0.008560560219584998 0.005480356458177936 C 0.008595371718006088 0.005523430385945473 0.008592031336816987 0.005938963066059831 0.008613571502697728 0.005885081543117502 C 0.008592031336816987 0.005938963066059831 0.008276120456209308 0.006147089166016581 0.008302078229016109 0.006126934733485883" fill="none" stroke="#000000" stroke-width="0.001"/>
<path d="M 0.008302078229016109 0.006126934733485883 C 0.008235838869768137 0.006124784341895788 0.007235612236633602 0.0060717830022316965 0.007507205918040434 0.0061011300344047436 C 0.007235612236633602 0.0060717830022316965 0.004837599729975276 0.005747573706826368 0.005042954052134134 0.00577477034740932" fill="none" stroke="#000000" stroke-width="0.001"/>
</g><g transform="translate(0.3190750347987731,0.11306752448786025) rotate(0) scale(1,1) translate(-0.008355584567489648,-0.005692421788338555)"><path d="M 0.004891485552021816 0.005830740100749716 C 0.005104689226155865 0.005801030338930281 0.0077277026203899455 0.005432313513018943 0.007449929641630402 0.005474222958916501 C 0.0077277026203899455 0.005432313513018943 0.008289330601761841 0.005315627065900895 0.008224761297136346 0.005327826749979018" fill="none" stroke="#000000" stroke-width="0.001"/>
<path d="M 0.008224761297136346 0.005327826749979018 C 0.008254060729313032 0.005340073183304797 0.008612529226508021 0.005518100012992155 0.008576354483256578 0.005474783949888373 C 0.008612529226508021 0.005518100012992155 0.008636938821571821 0.005902943423312948 0.008658858216153661 0.005847619507224399 C 0.008636938821571821 0.005902943423312948 0.008284527042617909 0.006162925229261507 0.008313321748274505 0.00613867094295096" fill="none" stroke="#000000" stroke-width="0.001"/>
<path d="M 0.008313321748274505 0.00613867094295096 C 0.008241898584704912 0.006137998974062893 0.007171090769084999 0.006104946412777383 0.007456243785439389 0.006130607316294153 C 0.007171090769084999 0.006104946412777383 0.004677755699237019 0.005805751166121012 0.004891485552021816 0.005830740100749716" fill="none" stroke="#000000" stroke-width="0.001"/>
</g></g>
</svg>
