<?xml version="1.0" encoding="UTF-8"?>
<svg xmlns="http://www.w3.org/2000/svg" viewBox="0 0 1 1">
<g transform="translate(0.3373434528286706,0.2649004817027368) rotate(0) scale(1,1) translate(-0.01998441619478862,-0.00887311800743398)"><path d="M 0.030078515125403976 0.04272480829006169 C 0.030078515125403976 0.0531553771850309 0.016619716551250167 0.0740165149749693 0.01998441619478862 0.0740165149749693 C 0.016619716551250167 0.0740165149749693 0.009890317264173257 0.0322942393950925 0.009890317264173259 0.04272480829006171 C 0.009890317264173257 0.0322942393950925 0.023349115838327068 0.011433101605154079 0.019984416194788614 0.01143310160515408 C 0.023349115838327068 0.011433101605154079 0.030078515125403976 0.0531553771850309 0.030078515125403976 0.04272480829006169 Z" fill="#cccccc" stroke="none" stroke-width="0"/>
</g><g transform="translate(0.337293005450884,0.2693292488927607) rotate(0) scale(1,1) translate(-0.08849994995935555,-0.083180731644454)"><path d="M 0.08915051298834828 0.08193683451728959 C 0.08922443443472645 0.0821335323359798 0.08941998501813558 0.08269582471778111 0.08941998501813558 0.08258739754628232 C 0.08941998501813558 0.08269582471778111 0.0890738434001166 0.08331463016350674 0.08915051298834828 0.08323796057527506 C 0.0890738434001166 0.08331463016350674 0.08839152278785675 0.08350743260506237 0.08849994995935555 0.08350743260506237 C 0.08839152278785675 0.08350743260506237 0.08777271734213113 0.08316129098704339 0.0878493869303628 0.08323796057527506 C 0.08777271734213113 0.08316129098704339 0.0875799149005755 0.08247897037478352 0.0875799149005755 0.08258739754628232 C 0.0875799149005755 0.08247897037478352 0.08792880466044797 0.08174013669859938 0.0878493869303628 0.08193683451728959 C 0.08792880466044797 0.08174013669859938 0.08864135483309626 0.08022702372199977 0.08853292766159747 0.08022702372199977 C 0.08864135483309626 0.08022702372199977 0.08922443443472645 0.0821335323359798 0.08915051298834828 0.08193683451728959 Z" fill="#cccccc" stroke="#000000" stroke-width="0.001"/>
</g><g transform="translate(0.33825140375762397,0.27188740418825463) rotate(0) scale(1,1) translate(-0.08849994995935555,-0.083180731644454)"><path d="M 0.08915051298834828 0.08193683451728959 C 0.0892676762044972 0.08208596638705738 0.08941998501813558 0.08269582471778111 0.08941998501813558 0.08258739754628232 C 0.08941998501813558 0.08269582471778111 0.0890738434001166 0.08331463016350674 0.08915051298834828 0.08323796057527506 C 0.0890738434001166 0.08331463016350674 0.08839152278785675 0.08350743260506237 0.08849994995935555 0.08350743260506237 C 0.08839152278785675 0.08350743260506237 0.08777271734213113 0.08316129098704339 0.0878493869303628 0.08323796057527506 C 0.08777271734213113 0.08316129098704339 0.0875799149005755 0.08247897037478352 0.0875799149005755 0.08258739754628232 C 0.0875799149005755 0.08247897037478352 0.08788556289067723 0.08178770264752179 0.0878493869303628 0.08193683451728959 C 0.08788556289067723 0.08178770264752179 0.08812245359584732 0.08079781510906876 0.08801402642434852 0.08079781510906876 C 0.08812245359584732 0.08079781510906876 0.0892676762044972 0.08208596638705738 0.08915051298834828 0.08193683451728959 Z" fill="#cccccc" stroke="#000000" stroke-width="0.001"/>
</g><g transform="translate(0.33611263711630834,0.27131001789948883) rotate(0) scale(1,1) translate(-0.08849994995935555,-0.083180731644454)"><path d="M 0.08915051298834828 0.08193683451728959 C 0.08920160765368484 0.08209662260493035 0.08941998501813558 0.08269582471778111 0.08941998501813558 0.08258739754628232 C 0.08941998501813558 0.08269582471778111 0.0890738434001166 0.08331463016350674 0.08915051298834828 0.08323796057527506 C 0.0890738434001166 0.08331463016350674 0.08839152278785675 0.08350743260506237 0.08849994995935555 0.08350743260506237 C 0.08839152278785675 0.08350743260506237 0.08777271734213113 0.08316129098704339 0.0878493869303628 0.08323796057527506 C 0.08777271734213113 0.08316129098704339 0.0875799149005755 0.08247897037478352 0.0875799149005755 0.08258739754628232 C 0.0875799149005755 0.08247897037478352 0.08795163144148958 0.08177704642964882 0.0878493869303628 0.08193683451728959 C 0.08795163144148958 0.08177704642964882 0.08891527620559561 0.08066994049459322 0.08880684903409682 0.08066994049459322 C 0.08891527620559561 0.08066994049459322 0.08920160765368484 0.08209662260493035 0.08915051298834828 0.08193683451728959 Z" fill="#cccccc" stroke="#000000" stroke-width="0.001"/>
</g><g transform="translate(0.3399575026387421,0.274012911227526) rotate(0) scale(1,1) translate(-0.08849994995935555,-0.083180731644454)"><path d="M 0.08915051298834828 0.08193683451728959 C 0.08927193869164637 0.08209236011778116 0.08941998501813558 0.08269582471778111 0.08941998501813558 0.08258739754628232 C 0.08941998501813558 0.08269582471778111 0.0890738434001166 0.08331463016350674 0.08915051298834828 0.08323796057527506 C 0.0890738434001166 0.08331463016350674 0.08839152278785675 0.08350743260506237 0.08849994995935555 0.08350743260506237 C 0.08839152278785675 0.08350743260506237 0.08777271734213113 0.08316129098704339 0.0878493869303628 0.08323796057527506 C 0.08777271734213113 0.08316129098704339 0.0875799149005755 0.08247897037478352 0.0875799149005755 0.08258739754628232 C 0.0875799149005755 0.08247897037478352 0.08788130040352804 0.08178130891679801 0.0878493869303628 0.08193683451728959 C 0.08788130040352804 0.08178130891679801 0.08807130375005717 0.08072109034038347 0.08796287657855838 0.08072109034038347 C 0.08807130375005717 0.08072109034038347 0.08927193869164637 0.08209236011778116 0.08915051298834828 0.08193683451728959 Z" fill="#cccccc" stroke="#000000" stroke-width="0.001"/>
</g><g transform="translate(0.33489403481021845,0.2735276746005691) rotate(0) scale(1,1) translate(-0.08849994995935555,-0.083180731644454)"><path d="M 0.08915051298834828 0.08193683451728959 C 0.08919308267938647 0.0820795726563336 0.08941998501813558 0.08269582471778111 0.08941998501813558 0.08258739754628232 C 0.08941998501813558 0.08269582471778111 0.0890738434001166 0.08331463016350674 0.08915051298834828 0.08323796057527506 C 0.0890738434001166 0.08331463016350674 0.08839152278785675 0.08350743260506237 0.08849994995935555 0.08350743260506237 C 0.08839152278785675 0.08350743260506237 0.08777271734213113 0.08316129098704339 0.0878493869303628 0.08323796057527506 C 0.08777271734213113 0.08316129098704339 0.0875799149005755 0.08247897037478352 0.0875799149005755 0.08258739754628232 C 0.0875799149005755 0.08247897037478352 0.08796015641578794 0.08179409637824557 0.0878493869303628 0.08193683451728959 C 0.08796015641578794 0.08179409637824557 0.089017575897176 0.08087453987775406 0.0889091487256772 0.08087453987775406 C 0.089017575897176 0.08087453987775406 0.08919308267938647 0.0820795726563336 0.08915051298834828 0.08193683451728959 Z" fill="#cccccc" stroke="#000000" stroke-width="0.001"/>
</g><g transform="translate(0.3398045723549777,0.27636589819882845) rotate(0) scale(1,1) translate(-0.08849994995935555,-0.083180731644454)"><path d="M 0.08915051298834828 0.08193683451728959 C 0.08927406993522097 0.0821072788228033 0.08941998501813558 0.08269582471778111 0.08941998501813558 0.08258739754628232 C 0.08941998501813558 0.08269582471778111 0.0890738434001166 0.08331463016350674 0.08915051298834828 0.08323796057527506 C 0.0890738434001166 0.08331463016350674 0.08839152278785675 0.08350743260506237 0.08849994995935555 0.08350743260506237 C 0.08839152278785675 0.08350743260506237 0.08777271734213113 0.08316129098704339 0.0878493869303628 0.08323796057527506 C 0.08777271734213113 0.08316129098704339 0.0875799149005755 0.08247897037478352 0.0875799149005755 0.08258739754628232 C 0.0875799149005755 0.08247897037478352 0.08787916915995345 0.08176639021177587 0.0878493869303628 0.08193683451728959 C 0.08787916915995345 0.08176639021177587 0.08804572882716206 0.08054206588011775 0.08793730165566327 0.08054206588011775 C 0.08804572882716206 0.08054206588011775 0.08927406993522097 0.0821072788228033 0.08915051298834828 0.08193683451728959 Z" fill="#cccccc" stroke="#000000" stroke-width="0.001"/>
</g><g transform="translate(0.33652518200105336,0.27497008885541746) rotate(0) scale(1,1) translate(-0.08849994995935555,-0.083180731644454)"><path d="M 0.08915051298834828 0.08193683451728959 C 0.08922931382015455 0.08208383514348279 0.08941998501813558 0.08269582471778111 0.08941998501813558 0.08258739754628232 C 0.08941998501813558 0.08269582471778111 0.0890738434001166 0.08331463016350674 0.08915051298834828 0.08323796057527506 C 0.0890738434001166 0.08331463016350674 0.08839152278785675 0.08350743260506237 0.08849994995935555 0.08350743260506237 C 0.08839152278785675 0.08350743260506237 0.08777271734213113 0.08316129098704339 0.0878493869303628 0.08323796057527506 C 0.08777271734213113 0.08316129098704339 0.0875799149005755 0.08247897037478352 0.0875799149005755 0.08258739754628232 C 0.0875799149005755 0.08247897037478352 0.08792392527501988 0.08178983389109638 0.0878493869303628 0.08193683451728959 C 0.08792392527501988 0.08178983389109638 0.08858280220795924 0.08082339003196386 0.08847437503646044 0.08082339003196386 C 0.08858280220795924 0.08082339003196386 0.08922931382015455 0.08208383514348279 0.08915051298834828 0.08193683451728959 Z" fill="#cccccc" stroke="#000000" stroke-width="0.001"/>
</g><g transform="translate(0.33398716686978014,0.2759748407400319) rotate(0) scale(1,1) translate(-0.08849994995935555,-0.083180731644454)"><path d="M 0.08915051298834828 0.08193683451728959 C 0.08920373889725944 0.08207744141275902 0.08941998501813558 0.08269582471778111 0.08941998501813558 0.08258739754628232 C 0.08941998501813558 0.08269582471778111 0.0890738434001166 0.08331463016350674 0.08915051298834828 0.08323796057527506 C 0.0890738434001166 0.08331463016350674 0.08839152278785675 0.08350743260506237 0.08849994995935555 0.08350743260506237 C 0.08839152278785675 0.08350743260506237 0.08777271734213113 0.08316129098704339 0.0878493869303628 0.08323796057527506 C 0.08777271734213113 0.08316129098704339 0.0875799149005755 0.08247897037478352 0.0875799149005755 0.08258739754628232 C 0.0875799149005755 0.08247897037478352 0.08794950019791499 0.08179622762182015 0.0878493869303628 0.08193683451728959 C 0.08794950019791499 0.08179622762182015 0.08888970128270049 0.08090011480064917 0.0887812741112017 0.08090011480064917 C 0.08888970128270049 0.08090011480064917 0.08920373889725944 0.08207744141275902 0.08915051298834828 0.08193683451728959 Z" fill="#cccccc" stroke="#000000" stroke-width="0.001"/>
</g><g transform="translate(0.3396592270976785,0.27701448306303866) rotate(0) scale(1,1) translate(-0.08849994995935555,-0.083180731644454)"><path d="M 0.08915051298834828 0.08193683451728959 C 0.08925062625590047 0.08207317892560984 0.08941998501813558 0.08269582471778111 0.08941998501813558 0.08258739754628232 C 0.08941998501813558 0.08269582471778111 0.0890738434001166 0.08331463016350674 0.08915051298834828 0.08323796057527506 C 0.0890738434001166 0.08331463016350674 0.08839152278785675 0.08350743260506237 0.08849994995935555 0.08350743260506237 C 0.08839152278785675 0.08350743260506237 0.08777271734213113 0.08316129098704339 0.0878493869303628 0.08323796057527506 C 0.08777271734213113 0.08316129098704339 0.0875799149005755 0.08247897037478352 0.0875799149005755 0.08258739754628232 C 0.0875799149005755 0.08247897037478352 0.08790261283927396 0.08180049010896934 0.0878493869303628 0.08193683451728959 C 0.08790261283927396 0.08180049010896934 0.08832705297900817 0.08095126464643937 0.08821862580750937 0.08095126464643937 C 0.08832705297900817 0.08095126464643937 0.08925062625590047 0.08207317892560984 0.08915051298834828 0.08193683451728959 Z" fill="#cccccc" stroke="#000000" stroke-width="0.001"/>
</g><g transform="translate(0.33591961315448826,0.27798891394704023) rotate(0) scale(1,1) translate(-0.08849994995935555,-0.083180731644454)"><path d="M 0.08915051298834828 0.08193683451728959 C 0.08921652635870699 0.08209449136135574 0.08941998501813558 0.08269582471778111 0.08941998501813558 0.08258739754628232 C 0.08941998501813558 0.08269582471778111 0.0890738434001166 0.08331463016350674 0.08915051298834828 0.08323796057527506 C 0.0890738434001166 0.08331463016350674 0.08839152278785675 0.08350743260506237 0.08849994995935555 0.08350743260506237 C 0.08839152278785675 0.08350743260506237 0.08777271734213113 0.08316129098704339 0.0878493869303628 0.08323796057527506 C 0.08777271734213113 0.08316129098704339 0.0875799149005755 0.08247897037478352 0.0875799149005755 0.08258739754628232 C 0.0875799149005755 0.08247897037478352 0.08793671273646743 0.08177917767322343 0.0878493869303628 0.08193683451728959 C 0.08793671273646743 0.08177917767322343 0.08873625174532987 0.08069551541748836 0.08862782457383107 0.08069551541748836 C 0.08873625174532987 0.08069551541748836 0.08921652635870699 0.08209449136135574 0.08915051298834828 0.08193683451728959 Z" fill="#cccccc" stroke="#000000" stroke-width="0.001"/>
</g><g transform="translate(0.3332292123103039,0.27878613689603854) rotate(0) scale(1,1) translate(-0.08849994995935555,-0.083180731644454)"><path d="M 0.08915051298834828 0.08193683451728959 C 0.08918455770508811 0.0821072788228033 0.08941998501813558 0.08269582471778111 0.08941998501813558 0.08258739754628232 C 0.08941998501813558 0.08269582471778111 0.0890738434001166 0.08331463016350674 0.08915051298834828 0.08323796057527506 C 0.0890738434001166 0.08331463016350674 0.08839152278785675 0.08350743260506237 0.08849994995935555 0.08350743260506237 C 0.08839152278785675 0.08350743260506237 0.08777271734213113 0.08316129098704339 0.0878493869303628 0.08323796057527506 C 0.08777271734213113 0.08316129098704339 0.0875799149005755 0.08247897037478352 0.0875799149005755 0.08258739754628232 C 0.0875799149005755 0.08247897037478352 0.08796868139008632 0.08176639021177587 0.0878493869303628 0.08193683451728959 C 0.08796868139008632 0.08176639021177587 0.08911987558875642 0.08054206588011772 0.08901144841725762 0.08054206588011772 C 0.08911987558875642 0.08054206588011772 0.08918455770508811 0.0821072788228033 0.08915051298834828 0.08193683451728959 Z" fill="#cccccc" stroke="#000000" stroke-width="0.001"/>
</g><g transform="translate(0.33697175250102934,0.27979230088006474) rotate(0) scale(1,1) translate(-0.08849994995935555,-0.083180731644454)"><path d="M 0.08915051298834828 0.08193683451728959 C 0.08922505133300536 0.08209449136135576 0.08941998501813558 0.08269582471778111 0.08941998501813558 0.08258739754628232 C 0.08941998501813558 0.08269582471778111 0.0890738434001166 0.08331463016350674 0.08915051298834828 0.08323796057527506 C 0.0890738434001166 0.08331463016350674 0.08839152278785675 0.08350743260506237 0.08849994995935555 0.08350743260506237 C 0.08839152278785675 0.08350743260506237 0.08777271734213113 0.08316129098704339 0.0878493869303628 0.08323796057527506 C 0.08777271734213113 0.08316129098704339 0.0875799149005755 0.08247897037478352 0.0875799149005755 0.08258739754628232 C 0.0875799149005755 0.08247897037478352 0.08792818776216907 0.08177917767322342 0.0878493869303628 0.08193683451728959 C 0.08792818776216907 0.08177917767322342 0.08863395205374944 0.08069551541748833 0.08852552488225064 0.08069551541748833 C 0.08863395205374944 0.08069551541748833 0.08922505133300536 0.08209449136135576 0.08915051298834828 0.08193683451728959 Z" fill="#cccccc" stroke="#000000" stroke-width="0.001"/>
</g><g transform="translate(0.33910335045720946,0.28030769510796505) rotate(0) scale(1,1) translate(-0.08849994995935555,-0.083180731644454)"><path d="M 0.08915051298834828 0.08193683451728959 C 0.08924423252517669 0.08209875384850493 0.08941998501813558 0.08269582471778111 0.08941998501813558 0.08258739754628232 C 0.08941998501813558 0.08269582471778111 0.0890738434001166 0.08331463016350674 0.08915051298834828 0.08323796057527506 C 0.0890738434001166 0.08331463016350674 0.08839152278785675 0.08350743260506237 0.08849994995935555 0.08350743260506237 C 0.08839152278785675 0.08350743260506237 0.08777271734213113 0.08316129098704339 0.0878493869303628 0.08323796057527506 C 0.08777271734213113 0.08316129098704339 0.0875799149005755 0.08247897037478352 0.0875799149005755 0.08258739754628232 C 0.0875799149005755 0.08247897037478352 0.08790900656999773 0.08177491518607424 0.0878493869303628 0.08193683451728959 C 0.08790900656999773 0.08177491518607424 0.08840377774769348 0.08064436557169813 0.08829535057619468 0.08064436557169813 C 0.08840377774769348 0.08064436557169813 0.08924423252517669 0.08209875384850493 0.08915051298834828 0.08193683451728959 Z" fill="#cccccc" stroke="#000000" stroke-width="0.001"/>
</g><g transform="translate(0.3416747031113199,0.27951657099922816) rotate(0) scale(1,1) translate(-0.08849994995935555,-0.083180731644454)"><path d="M 0.08915051298834828 0.08193683451728959 C 0.08926641216615315 0.08210482428511875 0.08941998501813558 0.08269582471778111 0.08941998501813558 0.08258739754628232 C 0.08941998501813558 0.08269582471778111 0.0890738434001166 0.08331463016350674 0.08915051298834828 0.08323796057527506 C 0.0890738434001166 0.08331463016350674 0.08839152278785675 0.08350743260506237 0.08849994995935555 0.08350743260506237 C 0.08839152278785675 0.08350743260506237 0.08777271734213113 0.08316129098704339 0.0878493869303628 0.08323796057527506 C 0.08777271734213113 0.08316129098704339 0.0875799149005755 0.08247897037478352 0.0875799149005755 0.08258739754628232 C 0.0875799149005755 0.08247897037478352 0.08788682692902126 0.08176884474946042 0.0878493869303628 0.08193683451728959 C 0.08788682692902126 0.08176884474946042 0.0881376220559759 0.08057152033233225 0.08802919488447711 0.08057152033233225 C 0.0881376220559759 0.08057152033233225 0.08926641216615315 0.08210482428511875 0.08915051298834828 0.08193683451728959 Z" fill="#cccccc" stroke="#000000" stroke-width="0.001"/>
</g><g transform="translate(0.3327305922567731,0.2822745631889441) rotate(0) scale(1,1) translate(-0.08849994995935555,-0.083180731644454)"><path d="M 0.08915051298834828 0.08193683451728959 C 0.08919467001184048 0.08210844018404805 0.08941998501813558 0.08269582471778111 0.08941998501813558 0.08258739754628232 C 0.08941998501813558 0.08269582471778111 0.0890738434001166 0.08331463016350674 0.08915051298834828 0.08323796057527506 C 0.0890738434001166 0.08331463016350674 0.08839152278785675 0.08350743260506237 0.08849994995935555 0.08350743260506237 C 0.08839152278785675 0.08350743260506237 0.08777271734213113 0.08316129098704339 0.0878493869303628 0.08323796057527506 C 0.08777271734213113 0.08316129098704339 0.0875799149005755 0.08247897037478352 0.0875799149005755 0.08258739754628232 C 0.0875799149005755 0.08247897037478352 0.08795856908333395 0.08176522885053113 0.0878493869303628 0.08193683451728959 C 0.08795856908333395 0.08176522885053113 0.0889985279077281 0.08052812954518077 0.0888901007362293 0.08052812954518077 C 0.0889985279077281 0.08052812954518077 0.08919467001184048 0.08210844018404805 0.08915051298834828 0.08193683451728959 Z" fill="#cccccc" stroke="#000000" stroke-width="0.001"/>
</g><g transform="translate(0.33510266838092984,0.2857714855951807) rotate(0) scale(1,1) translate(-0.08849994995935555,-0.083180731644454)"><path d="M 0.08915051298834828 0.08193683451728959 C 0.08919561075607457 0.08213401510694315 0.08941998501813558 0.08269582471778111 0.08941998501813558 0.08258739754628232 C 0.08941998501813558 0.08269582471778111 0.0890738434001166 0.08331463016350674 0.08915051298834828 0.08323796057527506 C 0.0890738434001166 0.08331463016350674 0.08839152278785675 0.08350743260506237 0.08849994995935555 0.08350743260506237 C 0.08839152278785675 0.08350743260506237 0.08777271734213113 0.08316129098704339 0.0878493869303628 0.08323796057527506 C 0.08777271734213113 0.08316129098704339 0.0875799149005755 0.08247897037478352 0.0875799149005755 0.08258739754628232 C 0.0875799149005755 0.08247897037478352 0.08795762833909986 0.08173965392763602 0.0878493869303628 0.08193683451728959 C 0.08795762833909986 0.08173965392763602 0.08898723897691889 0.08022123047043955 0.0888788118054201 0.08022123047043955 C 0.08898723897691889 0.08022123047043955 0.08919561075607457 0.08213401510694315 0.08915051298834828 0.08193683451728959 Z" fill="#cccccc" stroke="#000000" stroke-width="0.001"/>
</g><g transform="translate(0.33610366100893363,0.2822704634782676) rotate(0) scale(1,1) translate(-0.08849994995935555,-0.083180731644454)"><path d="M 0.08915051298834828 0.08193683451728959 C 0.08921479194824589 0.08211049788861909 0.08941998501813558 0.08269582471778111 0.08941998501813558 0.08258739754628232 C 0.08941998501813558 0.08269582471778111 0.0890738434001166 0.08331463016350674 0.08915051298834828 0.08323796057527506 C 0.0890738434001166 0.08331463016350674 0.08839152278785675 0.08350743260506237 0.08849994995935555 0.08350743260506237 C 0.08839152278785675 0.08350743260506237 0.08777271734213113 0.08316129098704339 0.0878493869303628 0.08323796057527506 C 0.08777271734213113 0.08316129098704339 0.0875799149005755 0.08247897037478352 0.0875799149005755 0.08258739754628232 C 0.0875799149005755 0.08247897037478352 0.08793844714692853 0.08176317114596009 0.0878493869303628 0.08193683451728959 C 0.08793844714692853 0.08176317114596009 0.08875706467086301 0.08050343709032826 0.08864863749936422 0.08050343709032826 C 0.08875706467086301 0.08050343709032826 0.08921479194824589 0.08211049788861909 0.08915051298834828 0.08193683451728959 Z" fill="#cccccc" stroke="#000000" stroke-width="0.001"/>
</g><g transform="translate(0.3382862834240311,0.28811826984421585) rotate(0) scale(1,1) translate(-0.08849994995935555,-0.083180731644454)"><path d="M 0.08915051298834828 0.08193683451728959 C 0.08923072493650569 0.08216370543898034 0.08941998501813558 0.08269582471778111 0.08941998501813558 0.08258739754628232 C 0.08941998501813558 0.08269582471778111 0.0890738434001166 0.08331463016350674 0.08915051298834828 0.08323796057527506 C 0.0890738434001166 0.08331463016350674 0.08839152278785675 0.08350743260506237 0.08849994995935555 0.08350743260506237 C 0.08839152278785675 0.08350743260506237 0.08777271734213113 0.08316129098704339 0.0878493869303628 0.08323796057527506 C 0.08777271734213113 0.08316129098704339 0.0875799149005755 0.08247897037478352 0.0875799149005755 0.08258739754628232 C 0.0875799149005755 0.08247897037478352 0.08792251415866874 0.08170996359559883 0.0878493869303628 0.08193683451728959 C 0.08792251415866874 0.08170996359559883 0.08856586881174548 0.0798649464859933 0.08845744164024669 0.0798649464859933 C 0.08856586881174548 0.0798649464859933 0.08923072493650569 0.08216370543898034 0.08915051298834828 0.08193683451728959 Z" fill="#cccccc" stroke="#000000" stroke-width="0.001"/>
</g><g transform="translate(0.33931440906928706,0.28377352520201427) rotate(0) scale(1,1) translate(-0.08849994995935555,-0.083180731644454)"><path d="M 0.08915051298834828 0.08193683451728959 C 0.0892524342053651 0.08210417769689887 0.08941998501813558 0.08269582471778111 0.08941998501813558 0.08258739754628232 C 0.08941998501813558 0.08269582471778111 0.0890738434001166 0.08331463016350674 0.08915051298834828 0.08323796057527506 C 0.0890738434001166 0.08331463016350674 0.08839152278785675 0.08350743260506237 0.08849994995935555 0.08350743260506237 C 0.08839152278785675 0.08350743260506237 0.08777271734213113 0.08316129098704339 0.0878493869303628 0.08323796057527506 C 0.08777271734213113 0.08316129098704339 0.0875799149005755 0.08247897037478352 0.0875799149005755 0.08258739754628232 C 0.0875799149005755 0.08247897037478352 0.08790080488980932 0.0817694913376803 0.0878493869303628 0.08193683451728959 C 0.08790080488980932 0.0817694913376803 0.08830535758543247 0.08057927939097097 0.08819693041393367 0.08057927939097097 C 0.08830535758543247 0.08057927939097097 0.0892524342053651 0.08210417769689887 0.08915051298834828 0.08193683451728959 Z" fill="#cccccc" stroke="#000000" stroke-width="0.001"/>
</g><g transform="translate(0.3414373565691705,0.283789551084675) rotate(0) scale(1,1) translate(-0.08849994995935555,-0.083180731644454)"><path d="M 0.08915051298834828 0.08193683451728959 C 0.08924191757284605 0.08210738177740827 0.08941998501813558 0.08269582471778111 0.08941998501813558 0.08258739754628232 C 0.08941998501813558 0.08269582471778111 0.0890738434001166 0.08331463016350674 0.08915051298834828 0.08323796057527506 C 0.0890738434001166 0.08331463016350674 0.08839152278785675 0.08350743260506237 0.08849994995935555 0.08350743260506237 C 0.08839152278785675 0.08350743260506237 0.08777271734213113 0.08316129098704339 0.0878493869303628 0.08323796057527506 C 0.08777271734213113 0.08316129098704339 0.0875799149005755 0.08247897037478352 0.0875799149005755 0.08258739754628232 C 0.0875799149005755 0.08247897037478352 0.08791132152232836 0.0817662872571709 0.0878493869303628 0.08193683451728959 C 0.08791132152232836 0.0817662872571709 0.08843155717566108 0.08054083042485807 0.08832313000416228 0.08054083042485807 C 0.08843155717566108 0.08054083042485807 0.08924191757284605 0.08210738177740827 0.08915051298834828 0.08193683451728959 Z" fill="#cccccc" stroke="#000000" stroke-width="0.001"/>
</g></svg>
