<?xml version="1.0" encoding="UTF-8"?>
<svg xmlns="http://www.w3.org/2000/svg" viewBox="0 0 1 1">
<g transform="translate(0.3373434528286706,0.2649004817027368) rotate(0) scale(1,1) translate(-0.01998441619478862,-0.00887311800743398)"><path d="M 0.030078515125403976 0.04272480829006169 C 0.030078515125403976 0.0531553771850309 0.016619716551250167 0.0740165149749693 0.01998441619478862 0.0740165149749693 C 0.016619716551250167 0.0740165149749693 0.009890317264173257 0.0322942393950925 0.009890317264173259 0.04272480829006171 C 0.009890317264173257 0.0322942393950925 0.023349115838327068 0.011433101605154079 0.019984416194788614 0.01143310160515408 C 0.023349115838327068 0.011433101605154079 0.030078515125403976 0.0531553771850309 0.030078515125403976 0.04272480829006169 Z" fill="#cccccc" stroke="none" stroke-width="0"/>
</g><g transform="translate(0.3373976493295041,0.27112966836886976) rotate(0) scale(1,1) translate(-0.08849994995935555,-0.083180731644454)"><path d="M 0.08915051298834828 0.08193683451728959 C 0.08923326785816428 0.0821331930408391 0.08941998501813558 0.08269582471778111 0.08941998501813558 0.08258739754628232 C 0.08941998501813558 0.08269582471778111 0.0890738434001166 0.08331463016350674 0.08915051298834828 0.08323796057527506 C 0.0890738434001166 0.08331463016350674 0.08839152278785675 0.08350743260506237 0.08849994995935555 0.08350743260506237 C 0.08839152278785675 0.08350743260506237 0.08777271734213113 0.08316129098704339 0.0878493869303628 0.08323796057527506 C 0.08777271734213113 0.08316129098704339 0.0875799149005755 0.08247897037478352 0.0875799149005755 0.08258739754628232 C 0.0875799149005755 0.08247897037478352 0.08791997123701015 0.08174047599374007 0.0878493869303628 0.08193683451728959 C 0.08791997123701015 0.08174047599374007 0.08853535375184243 0.08023109526368812 0.08842692658034364 0.08023109526368812 C 0.08853535375184243 0.08023109526368812 0.08923326785816428 0.0821331930408391 0.08915051298834828 0.08193683451728959 Z" fill="#cccccc" stroke="#000000" stroke-width="0.001"/>
</g><g transform="translate(0.33875361126300335,0.276188122736592) rotate(0) scale(1,1) translate(-0.08849994995935555,-0.083180731644454)"><path d="M 0.08915051298834828 0.08193683451728959 C 0.0892676762044972 0.08208596638705738 0.08941998501813558 0.08269582471778111 0.08941998501813558 0.08258739754628232 C 0.08941998501813558 0.08269582471778111 0.0890738434001166 0.08331463016350674 0.08915051298834828 0.08323796057527506 C 0.0890738434001166 0.08331463016350674 0.08839152278785675 0.08350743260506237 0.08849994995935555 0.08350743260506237 C 0.08839152278785675 0.08350743260506237 0.08777271734213113 0.08316129098704339 0.0878493869303628 0.08323796057527506 C 0.08777271734213113 0.08316129098704339 0.0875799149005755 0.08247897037478352 0.0875799149005755 0.08258739754628232 C 0.0875799149005755 0.08247897037478352 0.08788556289067723 0.08178770264752179 0.0878493869303628 0.08193683451728959 C 0.08788556289067723 0.08178770264752179 0.08812245359584732 0.08079781510906876 0.08801402642434852 0.08079781510906876 C 0.08812245359584732 0.08079781510906876 0.0892676762044972 0.08208596638705738 0.08915051298834828 0.08193683451728959 Z" fill="#cccccc" stroke="#000000" stroke-width="0.001"/>
</g><g transform="translate(0.3353202062610752,0.27465946032077515) rotate(0) scale(1,1) translate(-0.08849994995935555,-0.083180731644454)"><path d="M 0.08915051298834828 0.08193683451728959 C 0.08920160765368484 0.08209662260493035 0.08941998501813558 0.08269582471778111 0.08941998501813558 0.08258739754628232 C 0.08941998501813558 0.08269582471778111 0.0890738434001166 0.08331463016350674 0.08915051298834828 0.08323796057527506 C 0.0890738434001166 0.08331463016350674 0.08839152278785675 0.08350743260506237 0.08849994995935555 0.08350743260506237 C 0.08839152278785675 0.08350743260506237 0.08777271734213113 0.08316129098704339 0.0878493869303628 0.08323796057527506 C 0.08777271734213113 0.08316129098704339 0.0875799149005755 0.08247897037478352 0.0875799149005755 0.08258739754628232 C 0.0875799149005755 0.08247897037478352 0.08795163144148958 0.08177704642964882 0.0878493869303628 0.08193683451728959 C 0.08795163144148958 0.08177704642964882 0.08891527620559561 0.08066994049459322 0.08880684903409682 0.08066994049459322 C 0.08891527620559561 0.08066994049459322 0.08920160765368484 0.08209662260493035 0.08915051298834828 0.08193683451728959 Z" fill="#cccccc" stroke="#000000" stroke-width="0.001"/>
</g><g transform="translate(0.34161864449448365,0.27915595970837026) rotate(0) scale(1,1) translate(-0.08849994995935555,-0.083180731644454)"><path d="M 0.08915051298834828 0.08193683451728959 C 0.08927193869164637 0.08209236011778116 0.08941998501813558 0.08269582471778111 0.08941998501813558 0.08258739754628232 C 0.08941998501813558 0.08269582471778111 0.0890738434001166 0.08331463016350674 0.08915051298834828 0.08323796057527506 C 0.0890738434001166 0.08331463016350674 0.08839152278785675 0.08350743260506237 0.08849994995935555 0.08350743260506237 C 0.08839152278785675 0.08350743260506237 0.08777271734213113 0.08316129098704339 0.0878493869303628 0.08323796057527506 C 0.08777271734213113 0.08316129098704339 0.0875799149005755 0.08247897037478352 0.0875799149005755 0.08258739754628232 C 0.0875799149005755 0.08247897037478352 0.08788130040352804 0.08178130891679801 0.0878493869303628 0.08193683451728959 C 0.08788130040352804 0.08178130891679801 0.08807130375005717 0.08072109034038347 0.08796287657855838 0.08072109034038347 C 0.08807130375005717 0.08072109034038347 0.08927193869164637 0.08209236011778116 0.08915051298834828 0.08193683451728959 Z" fill="#cccccc" stroke="#000000" stroke-width="0.001"/>
</g><g transform="translate(0.3333329000609281,0.2785059475170936) rotate(0) scale(1,1) translate(-0.08849994995935555,-0.083180731644454)"><path d="M 0.08915051298834828 0.08193683451728959 C 0.08919308267938647 0.0820795726563336 0.08941998501813558 0.08269582471778111 0.08941998501813558 0.08258739754628232 C 0.08941998501813558 0.08269582471778111 0.0890738434001166 0.08331463016350674 0.08915051298834828 0.08323796057527506 C 0.0890738434001166 0.08331463016350674 0.08839152278785675 0.08350743260506237 0.08849994995935555 0.08350743260506237 C 0.08839152278785675 0.08350743260506237 0.08777271734213113 0.08316129098704339 0.0878493869303628 0.08323796057527506 C 0.08777271734213113 0.08316129098704339 0.0875799149005755 0.08247897037478352 0.0875799149005755 0.08258739754628232 C 0.0875799149005755 0.08247897037478352 0.08796015641578794 0.08179409637824557 0.0878493869303628 0.08193683451728959 C 0.08796015641578794 0.08179409637824557 0.089017575897176 0.08087453987775406 0.0889091487256772 0.08087453987775406 C 0.089017575897176 0.08087453987775406 0.08919308267938647 0.0820795726563336 0.08915051298834828 0.08193683451728959 Z" fill="#cccccc" stroke="#000000" stroke-width="0.001"/>
</g><g transform="translate(0.3402157277657429,0.28264429351333564) rotate(0) scale(1,1) translate(-0.08849994995935555,-0.083180731644454)"><path d="M 0.08915051298834828 0.08193683451728959 C 0.08927406993522097 0.0821072788228033 0.08941998501813558 0.08269582471778111 0.08941998501813558 0.08258739754628232 C 0.08941998501813558 0.08269582471778111 0.0890738434001166 0.08331463016350674 0.08915051298834828 0.08323796057527506 C 0.0890738434001166 0.08331463016350674 0.08839152278785675 0.08350743260506237 0.08849994995935555 0.08350743260506237 C 0.08839152278785675 0.08350743260506237 0.08777271734213113 0.08316129098704339 0.0878493869303628 0.08323796057527506 C 0.08777271734213113 0.08316129098704339 0.0875799149005755 0.08247897037478352 0.0875799149005755 0.08258739754628232 C 0.0875799149005755 0.08247897037478352 0.08787916915995345 0.08176639021177587 0.0878493869303628 0.08193683451728959 C 0.08787916915995345 0.08176639021177587 0.08804572882716206 0.08054206588011775 0.08793730165566327 0.08054206588011775 C 0.08804572882716206 0.08054206588011775 0.08927406993522097 0.0821072788228033 0.08915051298834828 0.08193683451728959 Z" fill="#cccccc" stroke="#000000" stroke-width="0.001"/>
</g><g transform="translate(0.3357190699899192,0.2817064351142206) rotate(0) scale(1,1) translate(-0.08849994995935555,-0.083180731644454)"><path d="M 0.08915051298834828 0.08193683451728959 C 0.08922931382015455 0.08208383514348279 0.08941998501813558 0.08269582471778111 0.08941998501813558 0.08258739754628232 C 0.08941998501813558 0.08269582471778111 0.0890738434001166 0.08331463016350674 0.08915051298834828 0.08323796057527506 C 0.0890738434001166 0.08331463016350674 0.08839152278785675 0.08350743260506237 0.08849994995935555 0.08350743260506237 C 0.08839152278785675 0.08350743260506237 0.08777271734213113 0.08316129098704339 0.0878493869303628 0.08323796057527506 C 0.08777271734213113 0.08316129098704339 0.0875799149005755 0.08247897037478352 0.0875799149005755 0.08258739754628232 C 0.0875799149005755 0.08247897037478352 0.08792392527501988 0.08178983389109638 0.0878493869303628 0.08193683451728959 C 0.08792392527501988 0.08178983389109638 0.08858280220795924 0.08082339003196386 0.08847437503646044 0.08082339003196386 C 0.08858280220795924 0.08082339003196386 0.08922931382015455 0.08208383514348279 0.08915051298834828 0.08193683451728959 Z" fill="#cccccc" stroke="#000000" stroke-width="0.001"/>
</g><g transform="translate(0.33172709419487356,0.28260428282144356) rotate(0) scale(1,1) translate(-0.08849994995935555,-0.083180731644454)"><path d="M 0.08915051298834828 0.08193683451728959 C 0.08920373889725944 0.08207744141275902 0.08941998501813558 0.08269582471778111 0.08941998501813558 0.08258739754628232 C 0.08941998501813558 0.08269582471778111 0.0890738434001166 0.08331463016350674 0.08915051298834828 0.08323796057527506 C 0.0890738434001166 0.08331463016350674 0.08839152278785675 0.08350743260506237 0.08849994995935555 0.08350743260506237 C 0.08839152278785675 0.08350743260506237 0.08777271734213113 0.08316129098704339 0.0878493869303628 0.08323796057527506 C 0.08777271734213113 0.08316129098704339 0.0875799149005755 0.08247897037478352 0.0875799149005755 0.08258739754628232 C 0.0875799149005755 0.08247897037478352 0.08794950019791499 0.08179622762182015 0.0878493869303628 0.08193683451728959 C 0.08794950019791499 0.08179622762182015 0.08888970128270049 0.08090011480064917 0.0887812741112017 0.08090011480064917 C 0.08888970128270049 0.08090011480064917 0.08920373889725944 0.08207744141275902 0.08915051298834828 0.08193683451728959 Z" fill="#cccccc" stroke="#000000" stroke-width="0.001"/>
</g><g transform="translate(0.34186290537024183,0.284998848486274) rotate(0) scale(1,1) translate(-0.08849994995935555,-0.083180731644454)"><path d="M 0.08915051298834828 0.08193683451728959 C 0.08925062625590047 0.08207317892560984 0.08941998501813558 0.08269582471778111 0.08941998501813558 0.08258739754628232 C 0.08941998501813558 0.08269582471778111 0.0890738434001166 0.08331463016350674 0.08915051298834828 0.08323796057527506 C 0.0890738434001166 0.08331463016350674 0.08839152278785675 0.08350743260506237 0.08849994995935555 0.08350743260506237 C 0.08839152278785675 0.08350743260506237 0.08777271734213113 0.08316129098704339 0.0878493869303628 0.08323796057527506 C 0.08777271734213113 0.08316129098704339 0.0875799149005755 0.08247897037478352 0.0875799149005755 0.08258739754628232 C 0.0875799149005755 0.08247897037478352 0.08790261283927396 0.08180049010896934 0.0878493869303628 0.08193683451728959 C 0.08790261283927396 0.08180049010896934 0.08832705297900817 0.08095126464643937 0.08821862580750937 0.08095126464643937 C 0.08832705297900817 0.08095126464643937 0.08925062625590047 0.08207317892560984 0.08915051298834828 0.08193683451728959 Z" fill="#cccccc" stroke="#000000" stroke-width="0.001"/>
</g><g transform="translate(0.3347007522043321,0.2873422612812365) rotate(0) scale(1,1) translate(-0.08849994995935555,-0.083180731644454)"><path d="M 0.08915051298834828 0.08193683451728959 C 0.08921652635870699 0.08209449136135574 0.08941998501813558 0.08269582471778111 0.08941998501813558 0.08258739754628232 C 0.08941998501813558 0.08269582471778111 0.0890738434001166 0.08331463016350674 0.08915051298834828 0.08323796057527506 C 0.0890738434001166 0.08331463016350674 0.08839152278785675 0.08350743260506237 0.08849994995935555 0.08350743260506237 C 0.08839152278785675 0.08350743260506237 0.08777271734213113 0.08316129098704339 0.0878493869303628 0.08323796057527506 C 0.08777271734213113 0.08316129098704339 0.0875799149005755 0.08247897037478352 0.0875799149005755 0.08258739754628232 C 0.0875799149005755 0.08247897037478352 0.08793671273646743 0.08177917767322343 0.0878493869303628 0.08193683451728959 C 0.08793671273646743 0.08177917767322343 0.08873625174532987 0.08069551541748836 0.08862782457383107 0.08069551541748836 C 0.08873625174532987 0.08069551541748836 0.08921652635870699 0.08209449136135574 0.08915051298834828 0.08193683451728959 Z" fill="#cccccc" stroke="#000000" stroke-width="0.001"/>
</g><g transform="translate(0.3304142521268562,0.28711506024936495) rotate(0) scale(1,1) translate(-0.08849994995935555,-0.083180731644454)"><path d="M 0.08915051298834828 0.08193683451728959 C 0.08918455770508811 0.0821072788228033 0.08941998501813558 0.08269582471778111 0.08941998501813558 0.08258739754628232 C 0.08941998501813558 0.08269582471778111 0.0890738434001166 0.08331463016350674 0.08915051298834828 0.08323796057527506 C 0.0890738434001166 0.08331463016350674 0.08839152278785675 0.08350743260506237 0.08849994995935555 0.08350743260506237 C 0.08839152278785675 0.08350743260506237 0.08777271734213113 0.08316129098704339 0.0878493869303628 0.08323796057527506 C 0.08777271734213113 0.08316129098704339 0.0875799149005755 0.08247897037478352 0.0875799149005755 0.08258739754628232 C 0.0875799149005755 0.08247897037478352 0.08796868139008632 0.08176639021177587 0.0878493869303628 0.08193683451728959 C 0.08796868139008632 0.08176639021177587 0.08911987558875642 0.08054206588011772 0.08901144841725762 0.08054206588011772 C 0.08911987558875642 0.08054206588011772 0.08918455770508811 0.0821072788228033 0.08915051298834828 0.08193683451728959 Z" fill="#cccccc" stroke="#000000" stroke-width="0.001"/>
</g><g transform="translate(0.33778729084527326,0.2899406674926658) rotate(0) scale(1,1) translate(-0.08849994995935555,-0.083180731644454)"><path d="M 0.08915051298834828 0.08193683451728959 C 0.08922505133300536 0.08209449136135576 0.08941998501813558 0.08269582471778111 0.08941998501813558 0.08258739754628232 C 0.08941998501813558 0.08269582471778111 0.0890738434001166 0.08331463016350674 0.08915051298834828 0.08323796057527506 C 0.0890738434001166 0.08331463016350674 0.08839152278785675 0.08350743260506237 0.08849994995935555 0.08350743260506237 C 0.08839152278785675 0.08350743260506237 0.08777271734213113 0.08316129098704339 0.0878493869303628 0.08323796057527506 C 0.08777271734213113 0.08316129098704339 0.0875799149005755 0.08247897037478352 0.0875799149005755 0.08258739754628232 C 0.0875799149005755 0.08247897037478352 0.08792818776216907 0.08177917767322342 0.0878493869303628 0.08193683451728959 C 0.08792818776216907 0.08177917767322342 0.08863395205374944 0.08069551541748833 0.08852552488225064 0.08069551541748833 C 0.08863395205374944 0.08069551541748833 0.08922505133300536 0.08209449136135576 0.08915051298834828 0.08193683451728959 Z" fill="#cccccc" stroke="#000000" stroke-width="0.001"/>
</g><g transform="translate(0.3410267880417018,0.29152201385952087) rotate(0) scale(1,1) translate(-0.08849994995935555,-0.083180731644454)"><path d="M 0.08915051298834828 0.08193683451728959 C 0.08924423252517669 0.08209875384850493 0.08941998501813558 0.08269582471778111 0.08941998501813558 0.08258739754628232 C 0.08941998501813558 0.08269582471778111 0.0890738434001166 0.08331463016350674 0.08915051298834828 0.08323796057527506 C 0.0890738434001166 0.08331463016350674 0.08839152278785675 0.08350743260506237 0.08849994995935555 0.08350743260506237 C 0.08839152278785675 0.08350743260506237 0.08777271734213113 0.08316129098704339 0.0878493869303628 0.08323796057527506 C 0.08777271734213113 0.08316129098704339 0.0875799149005755 0.08247897037478352 0.0875799149005755 0.08258739754628232 C 0.0875799149005755 0.08247897037478352 0.08790900656999773 0.08177491518607424 0.0878493869303628 0.08193683451728959 C 0.08790900656999773 0.08177491518607424 0.08840377774769348 0.08064436557169813 0.08829535057619468 0.08064436557169813 C 0.08840377774769348 0.08064436557169813 0.08924423252517669 0.08209875384850493 0.08915051298834828 0.08193683451728959 Z" fill="#cccccc" stroke="#000000" stroke-width="0.001"/>
</g><g transform="translate(0.34483879059050343,0.2883340500307381) rotate(0) scale(1,1) translate(-0.08849994995935555,-0.083180731644454)"><path d="M 0.08915051298834828 0.08193683451728959 C 0.08926771297399898 0.08211392994003949 0.08941998501813558 0.08269582471778111 0.08941998501813558 0.08258739754628232 C 0.08941998501813558 0.08269582471778111 0.0890738434001166 0.08331463016350674 0.08915051298834828 0.08323796057527506 C 0.0890738434001166 0.08331463016350674 0.08839152278785675 0.08350743260506237 0.08849994995935555 0.08350743260506237 C 0.08839152278785675 0.08350743260506237 0.08777271734213113 0.08316129098704339 0.0878493869303628 0.08323796057527506 C 0.08777271734213113 0.08316129098704339 0.0875799149005755 0.08247897037478352 0.0875799149005755 0.08258739754628232 C 0.0875799149005755 0.08247897037478352 0.08788552612117545 0.08175973909453968 0.0878493869303628 0.08193683451728959 C 0.08788552612117545 0.08175973909453968 0.08812201236182605 0.08046225247328335 0.08801358519032726 0.08046225247328335 C 0.08812201236182605 0.08046225247328335 0.08926771297399898 0.08211392994003949 0.08915051298834828 0.08193683451728959 Z" fill="#cccccc" stroke="#000000" stroke-width="0.001"/>
</g><g transform="translate(0.3283919322991191,0.2936292652140659) rotate(0) scale(1,1) translate(-0.08849994995935555,-0.083180731644454)"><path d="M 0.08915051298834828 0.08193683451728959 C 0.08918426354907391 0.08213575714881027 0.08941998501813558 0.08269582471778111 0.08941998501813558 0.08258739754628232 C 0.08941998501813558 0.08269582471778111 0.0890738434001166 0.08331463016350674 0.08915051298834828 0.08323796057527506 C 0.0890738434001166 0.08331463016350674 0.08839152278785675 0.08350743260506237 0.08849994995935555 0.08350743260506237 C 0.08839152278785675 0.08350743260506237 0.08777271734213113 0.08316129098704339 0.0878493869303628 0.08323796057527506 C 0.08777271734213113 0.08316129098704339 0.0875799149005755 0.08247897037478352 0.0875799149005755 0.08258739754628232 C 0.0875799149005755 0.08247897037478352 0.08796897554610052 0.0817379118857689 0.0878493869303628 0.08193683451728959 C 0.08796897554610052 0.0817379118857689 0.08912340546092684 0.08020032596803406 0.08901497828942805 0.08020032596803406 C 0.08912340546092684 0.08020032596803406 0.08918426354907391 0.08213575714881027 0.08915051298834828 0.08193683451728959 Z" fill="#cccccc" stroke="#000000" stroke-width="0.001"/>
</g><g transform="translate(0.33294316980511507,0.3007284055517023) rotate(0) scale(1,1) translate(-0.08849994995935555,-0.083180731644454)"><path d="M 0.08915051298834828 0.08193683451728959 C 0.08919300914038293 0.08216133207170538 0.08941998501813558 0.08269582471778111 0.08941998501813558 0.08258739754628232 C 0.08941998501813558 0.08269582471778111 0.0890738434001166 0.08331463016350674 0.08915051298834828 0.08323796057527506 C 0.0890738434001166 0.08331463016350674 0.08839152278785675 0.08350743260506237 0.08849994995935555 0.08350743260506237 C 0.08839152278785675 0.08350743260506237 0.08777271734213113 0.08316129098704339 0.0878493869303628 0.08323796057527506 C 0.08777271734213113 0.08316129098704339 0.0875799149005755 0.08247897037478352 0.0875799149005755 0.08258739754628232 C 0.0875799149005755 0.08247897037478352 0.0879602299547915 0.08171233696287379 0.0878493869303628 0.08193683451728959 C 0.0879602299547915 0.08171233696287379 0.08901845836521859 0.07989342689329285 0.08891003119371979 0.07989342689329285 C 0.08901845836521859 0.07989342689329285 0.08919300914038293 0.08216133207170538 0.08915051298834828 0.08193683451728959 Z" fill="#cccccc" stroke="#000000" stroke-width="0.001"/>
</g><g transform="translate(0.3346930268847851,0.2945114294857644) rotate(0) scale(1,1) translate(-0.08849994995935555,-0.083180731644454)"><path d="M 0.08915051298834828 0.08193683451728959 C 0.08921219033255426 0.08213131081415222 0.08941998501813558 0.08269582471778111 0.08941998501813558 0.08258739754628232 C 0.08941998501813558 0.08269582471778111 0.0890738434001166 0.08331463016350674 0.08915051298834828 0.08323796057527506 C 0.0890738434001166 0.08331463016350674 0.08839152278785675 0.08350743260506237 0.08849994995935555 0.08350743260506237 C 0.08839152278785675 0.08350743260506237 0.08777271734213113 0.08316129098704339 0.0878493869303628 0.08323796057527506 C 0.08777271734213113 0.08316129098704339 0.0875799149005755 0.08247897037478352 0.0875799149005755 0.08258739754628232 C 0.0875799149005755 0.08247897037478352 0.08794104876262017 0.08174235822042696 0.0878493869303628 0.08193683451728959 C 0.08794104876262017 0.08174235822042696 0.08878828405916268 0.08025368198393076 0.08867985688766389 0.08025368198393076 C 0.08878828405916268 0.08025368198393076 0.08921219033255426 0.08213131081415222 0.08915051298834828 0.08193683451728959 Z" fill="#cccccc" stroke="#000000" stroke-width="0.001"/>
</g><g transform="translate(0.33907667294830796,0.30548381014461884) rotate(0) scale(1,1) translate(-0.08849994995935555,-0.083180731644454)"><path d="M 0.08915051298834828 0.08193683451728959 C 0.08924243220711807 0.08217801432528436 0.08941998501813558 0.08269582471778111 0.08941998501813558 0.08258739754628232 C 0.08941998501813558 0.08269582471778111 0.0890738434001166 0.08331463016350674 0.08915051298834828 0.08323796057527506 C 0.0890738434001166 0.08331463016350674 0.08839152278785675 0.08350743260506237 0.08849994995935555 0.08350743260506237 C 0.08839152278785675 0.08350743260506237 0.08777271734213113 0.08316129098704339 0.0878493869303628 0.08323796057527506 C 0.08777271734213113 0.08316129098704339 0.0875799149005755 0.08247897037478352 0.0875799149005755 0.08258739754628232 C 0.0875799149005755 0.08247897037478352 0.08791080688805636 0.08169565470929481 0.0878493869303628 0.08193683451728959 C 0.08791080688805636 0.08169565470929481 0.08842538156439689 0.07969323985034502 0.08831695439289809 0.07969323985034502 C 0.08842538156439689 0.07969323985034502 0.08924243220711807 0.08217801432528436 0.08915051298834828 0.08193683451728959 Z" fill="#cccccc" stroke="#000000" stroke-width="0.001"/>
</g><g transform="translate(0.3406431017981432,0.2981368352858149) rotate(0) scale(1,1) translate(-0.08849994995935555,-0.083180731644454)"><path d="M 0.08915051298834828 0.08193683451728959 C 0.08926153986028584 0.08213149466166109 0.08941998501813558 0.08269582471778111 0.08941998501813558 0.08258739754628232 C 0.08941998501813558 0.08269582471778111 0.0890738434001166 0.08331463016350674 0.08915051298834828 0.08323796057527506 C 0.0890738434001166 0.08331463016350674 0.08839152278785675 0.08350743260506237 0.08849994995935555 0.08350743260506237 C 0.08839152278785675 0.08350743260506237 0.08777271734213113 0.08316129098704339 0.0878493869303628 0.08323796057527506 C 0.08777271734213113 0.08316129098704339 0.0875799149005755 0.08247897037478352 0.0875799149005755 0.08258739754628232 C 0.0875799149005755 0.08247897037478352 0.08789169923488857 0.08174217437291809 0.0878493869303628 0.08193683451728959 C 0.08789169923488857 0.08174217437291809 0.08819608972638357 0.08025147581382426 0.08808766255488477 0.08025147581382426 C 0.08819608972638357 0.08025147581382426 0.08926153986028584 0.08213149466166109 0.08915051298834828 0.08193683451728959 Z" fill="#cccccc" stroke="#000000" stroke-width="0.001"/>
</g><g transform="translate(0.3456355574606305,0.29659484505464384) rotate(0) scale(1,1) translate(-0.08849994995935555,-0.083180731644454)"><path d="M 0.08915051298834828 0.08193683451728959 C 0.08925123260579766 0.08212032367076327 0.08941998501813558 0.08269582471778111 0.08941998501813558 0.08258739754628232 C 0.08941998501813558 0.08269582471778111 0.0890738434001166 0.08331463016350674 0.08915051298834828 0.08323796057527506 C 0.0890738434001166 0.08331463016350674 0.08839152278785675 0.08350743260506237 0.08849994995935555 0.08350743260506237 C 0.08839152278785675 0.08350743260506237 0.08777271734213113 0.08316129098704339 0.0878493869303628 0.08323796057527506 C 0.08777271734213113 0.08316129098704339 0.0875799149005755 0.08247897037478352 0.0875799149005755 0.08258739754628232 C 0.0875799149005755 0.08247897037478352 0.08790200648937677 0.0817533453638159 0.0878493869303628 0.08193683451728959 C 0.08790200648937677 0.0817533453638159 0.0883197767802418 0.08038552770459799 0.08821134960874301 0.08038552770459799 C 0.0883197767802418 0.08038552770459799 0.08925123260579766 0.08212032367076327 0.08915051298834828 0.08193683451728959 Z" fill="#cccccc" stroke="#000000" stroke-width="0.001"/>
</g></svg>
