<?xml version="1.0" encoding="UTF-8"?>
<svg xmlns="http://www.w3.org/2000/svg" viewBox="0 0 1 1">
<g transform="translate(0.46199511253321807,0.3418326619770024) rotate(0) scale(1,1) translate(-0.06972157252014745,-0.09772443191311658)"><path d="M 0.05050388858379861 0.05995924534792577 C 0.04954357512283269 0.05840480272733418 0.03709136562250056 0.03854518538406317 0.038980127052207526 0.041305933900826645 C 0.03709136562250056 0.03854518538406317 0.026176990148431303 0.024962117980092246 0.027838751427315005 0.02683026314676412 C 0.026176990148431303 0.024962117980092246 0.018120801447739834 0.017911055984858554 0.019038991705603116 0.01888819190076413 C 0.018120801447739834 0.017911055984858554 0.01699285159546483 0.014957686411083023 0.016820468332955613 0.015104632155897219 C 0.01699285159546483 0.014957686411083023 0.022119208510282092 0.018029467097268333 0.021107590855713725 0.017124842962993783 C 0.022119208510282092 0.018029467097268333 0.030591647554996954 0.027874842408902964 0.02895988018777601 0.025960121767191813 C 0.030591647554996954 0.027874842408902964 0.042660211487645414 0.04282241119508839 0.040688799262365065 0.04010149066352758 C 0.042660211487645414 0.04282241119508839 0.05361082919353814 0.060153641269454355 0.052616826891140216 0.05861116814592152" fill="none" stroke="#000000" stroke-width="0.001"/>
<path d="M 0.052616826891140216 0.05861116814592152 C 0.05340167173837023 0.060116307856397495 0.06356776872700072 0.07988669124293811 0.062034965057900404 0.07667284467163321 C 0.06356776872700072 0.07988669124293811 0.07175842974221433 0.09888603386240921 0.07101047092034403 0.09717732700158029" fill="none" stroke="#000000" stroke-width="0.001"/>
<path d="M 0.0684326741199509 0.09827153682465291 C 0.06768933962287764 0.09657258781326422 0.058018594693725875 0.07469145773159477 0.059512660155071895 0.0778841486879887 C 0.058018594693725875 0.07469145773159477 0.04975315761952585 0.058465503402920546 0.05050388858379862 0.05995924534792579" fill="none" stroke="#000000" stroke-width="0.001"/>
</g><g transform="translate(0.46604640557488936,0.35137691027386897) rotate(0) scale(1,1) translate(-0.13549999999999998,-0.1348636140786165)"><path d="M 0.12872150315970865 0.12647699511293528 C 0.12871985415543835 0.1262880379395448 0.12883251298075138 0.12388577293809915 0.12870171510846515 0.12420950903224959 C 0.12883251298075138 0.12388577293809915 0.13061248167709033 0.12245573405809963 0.13029107762714334 0.1225921619831299 C 0.13061248167709033 0.12245573405809963 0.13288229980197946 0.12270317180417256 0.132558563707829 0.12257237393188634 C 0.13288229980197946 0.12270317180417256 0.13431068967770868 0.12429418332712105 0.1341759107569487 0.12416173645056454" fill="none" stroke="#000000" stroke-width="0.001"/>
<path d="M 0.1341759107569487 0.12416173645056454 C 0.13453320376040098 0.12500346601803985 0.13917801280528055 0.13594595039521892 0.138463426798376 0.1342624912602683 C 0.13917801280528055 0.13594595039521892 0.14310823584325555 0.14520497563744733 0.14275094283980327 0.14436324606997203" fill="none" stroke="#000000" stroke-width="0.001"/>
<path d="M 0.14275094283980327 0.14436324606997203 C 0.14276872939295954 0.1444898039717656 0.1429342926868169 0.1461269944278695 0.14296438147767834 0.14588194089149492 C 0.1429342926868169 0.1461269944278695 0.14224129292402335 0.14750106669882398 0.14238987734946582 0.1473038885064671 C 0.14224129292402335 0.14750106669882398 0.1409541013891503 0.14834454831070956 0.14118136837236864 0.14824807919977745 C 0.1409541013891503 0.14834454831070956 0.1394176200144712 0.14843142904679102 0.13966267355084577 0.1484615178376525 C 0.1394176200144712 0.14843142904679102 0.1380435477435167 0.1477384292839975 0.13824072593587358 0.14788701370943996 C 0.1380435477435167 0.1477384292839975 0.13721785268478737 0.14657779565091802 0.13729653524256322 0.14667850473234278" fill="none" stroke="#000000" stroke-width="0.001"/>
<path d="M 0.13729653524256322 0.14667850473234278 C 0.13693924223911094 0.14583677516486748 0.1322944331942314 0.13489429078768841 0.13300901920113595 0.13657774992263905 C 0.1322944331942314 0.13489429078768841 0.12836421015625638 0.12563526554545998 0.12872150315970865 0.12647699511293528" fill="none" stroke="#000000" stroke-width="0.001"/>
</g><g transform="translate(0.4630669915435749,0.3443578506794283) rotate(0) scale(1,1) translate(-0.021863400912033353,-0.02186340091203335)"><path d="M 0.01916189250253894 0.023022101194700658 C 0.01914424543500174 0.022896535784657585 0.018979980520787344 0.02127218449543817 0.018950127692092526 0.02151531627418376 C 0.018979980520787344 0.02127218449543817 0.019667545644274104 0.019908887967240014 0.01952012644687677 0.02010451984975358 C 0.019667545644274104 0.019908887967240014 0.02094464277206891 0.019072021102672698 0.020719158060860523 0.01916773368402095 C 0.02094464277206891 0.019072021102672698 0.02246907476012303 0.018985821702269354 0.02222594298137744 0.018955968873574536 C 0.02246907476012303 0.018985821702269354 0.023832371288321167 0.019673386825756103 0.0236367394058076 0.019525967628358773 C 0.023832371288321167 0.019673386825756103 0.0246515910853513 0.020824918543507823 0.024573525571540245 0.02072499924234251" fill="none" stroke="#000000" stroke-width="0.001"/>
</g><g transform="translate(0.4641388705539317,0.3468830393818543) rotate(0) scale(1,1) translate(-0.021863400912033353,-0.02186340091203335)"><path d="M 0.01916189250253894 0.023022101194700658 C 0.01914424543500174 0.022896535784657585 0.018979980520787344 0.02127218449543817 0.018950127692092526 0.02151531627418376 C 0.018979980520787344 0.02127218449543817 0.019667545644274104 0.019908887967240014 0.01952012644687677 0.02010451984975358 C 0.019667545644274104 0.019908887967240014 0.02094464277206891 0.019072021102672698 0.020719158060860523 0.01916773368402095 C 0.02094464277206891 0.019072021102672698 0.02246907476012303 0.018985821702269354 0.02222594298137744 0.018955968873574536 C 0.02246907476012303 0.018985821702269354 0.023832371288321167 0.019673386825756103 0.0236367394058076 0.019525967628358773 C 0.023832371288321167 0.019673386825756103 0.0246515910853513 0.020824918543507823 0.024573525571540245 0.02072499924234251" fill="none" stroke="#000000" stroke-width="0.001"/>
</g><g transform="translate(0.46521074956428854,0.34940822808428024) rotate(0) scale(1,1) translate(-0.021863400912033353,-0.02186340091203335)"><path d="M 0.01916189250253894 0.023022101194700658 C 0.01914424543500174 0.022896535784657585 0.018979980520787344 0.02127218449543817 0.018950127692092526 0.02151531627418376 C 0.018979980520787344 0.02127218449543817 0.019667545644274104 0.019908887967240014 0.01952012644687677 0.02010451984975358 C 0.019667545644274104 0.019908887967240014 0.02094464277206891 0.019072021102672698 0.020719158060860523 0.01916773368402095 C 0.02094464277206891 0.019072021102672698 0.02246907476012303 0.018985821702269354 0.02222594298137744 0.018955968873574536 C 0.02246907476012303 0.018985821702269354 0.023832371288321167 0.019673386825756103 0.0236367394058076 0.019525967628358773 C 0.023832371288321167 0.019673386825756103 0.0246515910853513 0.020824918543507823 0.024573525571540245 0.02072499924234251" fill="none" stroke="#000000" stroke-width="0.001"/>
</g><g transform="translate(0.46628262857464536,0.3519334167867062) rotate(0) scale(1,1) translate(-0.021863400912033353,-0.02186340091203335)"><path d="M 0.01916189250253894 0.023022101194700658 C 0.01914424543500174 0.022896535784657585 0.018979980520787344 0.02127218449543817 0.018950127692092526 0.02151531627418376 C 0.018979980520787344 0.02127218449543817 0.019667545644274104 0.019908887967240014 0.01952012644687677 0.02010451984975358 C 0.019667545644274104 0.019908887967240014 0.02094464277206891 0.019072021102672698 0.020719158060860523 0.01916773368402095 C 0.02094464277206891 0.019072021102672698 0.02246907476012303 0.018985821702269354 0.02222594298137744 0.018955968873574536 C 0.02246907476012303 0.018985821702269354 0.023832371288321167 0.019673386825756103 0.0236367394058076 0.019525967628358773 C 0.023832371288321167 0.019673386825756103 0.0246515910853513 0.020824918543507823 0.024573525571540245 0.02072499924234251" fill="none" stroke="#000000" stroke-width="0.001"/>
</g><g transform="translate(0.46735450758500224,0.3544586054891321) rotate(0) scale(1,1) translate(-0.021863400912033353,-0.02186340091203335)"><path d="M 0.01916189250253894 0.023022101194700658 C 0.01914424543500174 0.022896535784657585 0.018979980520787344 0.02127218449543817 0.018950127692092526 0.02151531627418376 C 0.018979980520787344 0.02127218449543817 0.019667545644274104 0.019908887967240014 0.01952012644687677 0.02010451984975358 C 0.019667545644274104 0.019908887967240014 0.02094464277206891 0.019072021102672698 0.020719158060860523 0.01916773368402095 C 0.02094464277206891 0.019072021102672698 0.02246907476012303 0.018985821702269354 0.02222594298137744 0.018955968873574536 C 0.02246907476012303 0.018985821702269354 0.023832371288321167 0.019673386825756103 0.0236367394058076 0.019525967628358773 C 0.023832371288321167 0.019673386825756103 0.0246515910853513 0.020824918543507823 0.024573525571540245 0.02072499924234251" fill="none" stroke="#000000" stroke-width="0.001"/>
</g><g transform="translate(0.468426386595359,0.35698379419155807) rotate(0) scale(1,1) translate(-0.021863400912033353,-0.02186340091203335)"><path d="M 0.01916189250253894 0.023022101194700658 C 0.01914424543500174 0.022896535784657585 0.018979980520787344 0.02127218449543817 0.018950127692092526 0.02151531627418376 C 0.018979980520787344 0.02127218449543817 0.019667545644274104 0.019908887967240014 0.01952012644687677 0.02010451984975358 C 0.019667545644274104 0.019908887967240014 0.02094464277206891 0.019072021102672698 0.020719158060860523 0.01916773368402095 C 0.02094464277206891 0.019072021102672698 0.02246907476012303 0.018985821702269354 0.02222594298137744 0.018955968873574536 C 0.02246907476012303 0.018985821702269354 0.023832371288321167 0.019673386825756103 0.0236367394058076 0.019525967628358773 C 0.023832371288321167 0.019673386825756103 0.0246515910853513 0.020824918543507823 0.024573525571540245 0.02072499924234251" fill="none" stroke="#000000" stroke-width="0.001"/>
</g><g transform="translate(0.4694982656057159,0.359508982893984) rotate(0) scale(1,1) translate(-0.021863400912033353,-0.02186340091203335)"><path d="M 0.01916189250253894 0.023022101194700658 C 0.01914424543500174 0.022896535784657585 0.018979980520787344 0.02127218449543817 0.018950127692092526 0.02151531627418376 C 0.018979980520787344 0.02127218449543817 0.019667545644274104 0.019908887967240014 0.01952012644687677 0.02010451984975358 C 0.019667545644274104 0.019908887967240014 0.02094464277206891 0.019072021102672698 0.020719158060860523 0.01916773368402095 C 0.02094464277206891 0.019072021102672698 0.02246907476012303 0.018985821702269354 0.02222594298137744 0.018955968873574536 C 0.02246907476012303 0.018985821702269354 0.023832371288321167 0.019673386825756103 0.0236367394058076 0.019525967628358773 C 0.023832371288321167 0.019673386825756103 0.0246515910853513 0.020824918543507823 0.024573525571540245 0.02072499924234251" fill="none" stroke="#000000" stroke-width="0.001"/>
</g><g transform="translate(0.4705701446160727,0.3620341715964099) rotate(0) scale(1,1) translate(-0.021863400912033353,-0.02186340091203335)"><path d="M 0.01916189250253894 0.023022101194700658 C 0.01914424543500174 0.022896535784657585 0.018979980520787344 0.02127218449543817 0.018950127692092526 0.02151531627418376 C 0.018979980520787344 0.02127218449543817 0.019667545644274104 0.019908887967240014 0.01952012644687677 0.02010451984975358 C 0.019667545644274104 0.019908887967240014 0.02094464277206891 0.019072021102672698 0.020719158060860523 0.01916773368402095 C 0.02094464277206891 0.019072021102672698 0.02246907476012303 0.018985821702269354 0.02222594298137744 0.018955968873574536 C 0.02246907476012303 0.018985821702269354 0.023832371288321167 0.019673386825756103 0.0236367394058076 0.019525967628358773 C 0.023832371288321167 0.019673386825756103 0.0246515910853513 0.020824918543507823 0.024573525571540245 0.02072499924234251" fill="none" stroke="#000000" stroke-width="0.001"/>
</g><g transform="translate(0.4705701446160726,0.3620341715964099) rotate(0) scale(1,1) translate(-0.0275187318942521,-0.03738575815743351)"><path d="M 0.03782269660976204 0.03668994310809172 C 0.03781558931676098 0.03660808783034919 0.03768703417775806 0.03553902606338903 0.03773740909374933 0.03570767977518138 C 0.03768703417775806 0.03553902606338903 0.03711019186218515 0.034520458244467235 0.037218197617866794 0.03466609856658354 C 0.03711019186218515 0.034520458244467235 0.03637660189287821 0.033901154021719164 0.03644134002556964 0.033959995909785656" fill="none" stroke="#000000" stroke-width="0.001"/>
<path d="M 0.03644134002556964 0.033959995909785656 C 0.03658500194517182 0.03408750224204942 0.03842817294705799 0.03599999596861421 0.038165283060795814 0.03549007189695084 C 0.03842817294705799 0.03599999596861421 0.039716548094810976 0.041076089857388635 0.039596018660715784 0.0400790847697461 C 0.039716548094810976 0.041076089857388635 0.03937435441948014 0.048703490153215095 0.03961163626993815 0.04745413294866128 C 0.03937435441948014 0.048703490153215095 0.035959896577111405 0.05614646071836902 0.036748636455219696 0.055071371224391895 C 0.035959896577111405 0.05614646071836902 0.029009086993871246 0.0607175179571588 0.030146757732638668 0.06035520687638675 C 0.029009086993871246 0.0607175179571588 0.022280197224156816 0.05879341264424128 0.02309658759001064 0.05941910419365652 C 0.022280197224156816 0.05879341264424128 0.020494127961704862 0.05173718647676008 0.0203500733423928 0.052846908283403854 C 0.020494127961704862 0.05173718647676008 0.025987486061156424 0.04501047567019749 0.024825243021755358 0.0461024425139312 C 0.025987486061156424 0.04501047567019749 0.035278164796889125 0.038920679366368796 0.0342969898152056 0.03974330615859936 C 0.035278164796889125 0.038920679366368796 0.036661482320127614 0.03580951691086187 0.036599342801957695 0.03623092100716439 C 0.036661482320127614 0.03580951691086187 0.034459662843619426 0.0347795998335543 0.03504266403324465 0.03468645700296907 C 0.034459662843619426 0.0347795998335543 0.029150050567555857 0.03757048313845533 0.029603328526454996 0.03734863497418716" fill="none" stroke="#000000" stroke-width="0.001"/>
<path d="M 0.029603328526454996 0.03734863497418716 C 0.029577205441700213 0.03728709284316499 0.02924005098582724 0.03649280672064863 0.02928985150939759 0.0366101294019211 C 0.02924005098582724 0.03649280672064863 0.028982044804795232 0.03588498224866723 0.0290057222436108 0.035940762798917524" fill="none" stroke="#000000" stroke-width="0.001"/>
<path d="M 0.0290057222436108 0.035940762798917524 C 0.029509581274241522 0.035752371473873806 0.0357736479738865 0.03364202926587598 0.03505203061117947 0.033680066898392945 C 0.0357736479738865 0.03364202926587598 0.037828455369954175 0.035932985703910715 0.037665130596095074 0.035484311208713905 C 0.037828455369954175 0.035932985703910715 0.03662944121087184 0.03963070510980427 0.037011927897488674 0.03906416084075468 C 0.03662944121087184 0.03963070510980427 0.032154290216523204 0.04295120947739435 0.03307529035669306 0.042282842437308975 C 0.032154290216523204 0.04295120947739435 0.025037420023868318 0.047960787587985235 0.025959926215450423 0.047084565321779175 C 0.025037420023868318 0.047960787587985235 0.02184975034662363 0.05369657396521484 0.022005216057707805 0.05279750963178173 C 0.02184975034662363 0.05369657396521484 0.024739920127706407 0.05836483288085143 0.024094337682440334 0.05787333732297649 C 0.024739920127706407 0.05836483288085143 0.03069940922151135 0.058381400298081566 0.02975220540090066 0.05869545632628101 C 0.03069940922151135 0.058381400298081566 0.03616226764492062 0.05312962068868963 0.035460783529768614 0.054104664984583176 C 0.03616226764492062 0.05312962068868963 0.03841698035880873 0.04584890122918285 0.038170014782724755 0.04699492477555846 C 0.03841698035880873 0.04584890122918285 0.03839542726169606 0.03949363395578696 0.03842437044277629 0.04035238242807585 C 0.03839542726169606 0.03949363395578696 0.037772557123677525 0.03638473983142637 0.03782269660976204 0.03668994310809172" fill="none" stroke="#000000" stroke-width="0.001"/>
</g><g transform="translate(0.4102407747675895,0.26007662827692013) rotate(0) scale(1,1) translate(-0.02009387860082305,-0.020093878600823047)"><path d="M 0.0210361185626528 0.019743435636769113 C 0.019946671245222456 0.020533524720500237 0.005925982819948923 0.03105232602422529 0.007962750753488703 0.029224504641542588 C 0.005925982819948923 0.03105232602422529 -0.005136243517391917 0.04400776083323912 -0.0034050966398245716 0.04167729222896155 C -0.005136243517391917 0.04400776083323912 -0.014216672575269788 0.06000840961228562 -0.012811011777319446 0.05719012789287349 C -0.014216672575269788 0.06000840961228562 -0.02089486075172112 0.07702221827599316 -0.020273026215228685 0.07549667286190703" fill="none" stroke="none" stroke-width="0"/>
<path d="M -0.020273026215228685 0.07549667286190703 C -0.01968860532484726 0.07396184847795066 -0.011929142024923291 0.05424194059527796 -0.013259975530651603 0.05707878025443057 C -0.011929142024923291 0.05424194059527796 -0.002646704561143632 0.03910557040805769 -0.004303024146488945 0.04145459695207575 C -0.002646704561143632 0.03910557040805769 0.008577800134809906 0.02704408240379068 0.006615859493492155 0.028890461726213866 C 0.008577800134809906 0.02704408240379068 0.020292297220643397 0.01849867702939613 0.01924026354932407 0.019298045082997494" fill="none" stroke="none" stroke-width="0"/>
<path d="M 0.01924026354932407 0.019298045082997494 C 0.0193150908415461 0.019316603022737976 0.020287845640432497 0.019557856239364266 0.020138191055988436 0.0195207403598833 C 0.020287845640432497 0.019557856239364266 0.02111094585487483 0.0197619935765096 0.0210361185626528 0.019743435636769113" fill="none" stroke="none" stroke-width="0"/>
</g><g transform="translate(0.412346831293729,0.2621147474957648) rotate(0) scale(1,1) translate(-0.02009387860082305,-0.020093878600823047)"><path d="M 0.020687146001838266 0.019984978183407727 C 0.019989981101512955 0.020395023772528845 0.010956016868467096 0.025815821019143384 0.012321167197934545 0.024905525252861126 C 0.010956016868467096 0.025815821019143384 0.003010733636256868 0.03204849680745784 0.0043053420482288725 0.030908527378794827 C 0.003010733636256868 0.03204849680745784 -0.004432719962800658 0.04004493213114261 -0.003214133745729507 0.03858515839681727 C -0.004432719962800658 0.04004493213114261 -0.010909655790866219 0.049245866673522355 -0.010317692556624933 0.048425812190698886" fill="none" stroke="none" stroke-width="0"/>
<path d="M -0.010317692556624933 0.048425812190698886 C -0.00974686970591364 0.04759637682011428 -0.0022915128980782557 0.03699405223383596 -0.0034678183480894194 0.038472587743683576 C -0.0022915128980782557 0.03699405223383596 0.005050300488421044 0.02952465486834217 0.0037979728435090267 0.030683386072527463 C 0.005050300488421044 0.02952465486834217 0.012882982953262248 0.023638755751655523 0.011560113390854785 0.024567813293460063 C 0.012882982953262248 0.023638755751655523 0.020348432109193897 0.019115269093990726 0.01967240759239858 0.019534695570872982" fill="none" stroke="none" stroke-width="0"/>
<path d="M 0.01967240759239858 0.019534695570872982 C 0.019714688359458568 0.019553457346395263 0.020264338331238405 0.019797360428184915 0.02017977679711843 0.019759836877140353 C 0.020264338331238405 0.019797360428184915 0.020729426768898253 0.020003739958930008 0.020687146001838266 0.019984978183407727" fill="none" stroke="none" stroke-width="0"/>
</g></svg>
