<?xml version="1.0" encoding="UTF-8"?>
<svg xmlns="http://www.w3.org/2000/svg" viewBox="0 0 1 1">
<g transform="translate(0.47009769861656064,0.3418326619770024) rotate(0) scale(1,1) translate(-0.06972157252014745,-0.09772443191311658)"><path d="M 0.08893925645649625 0.05995924534792579 C 0.08818852549222347 0.06145298729293103 0.0784364194238769 0.08107683964438261 0.07993048488522292 0.0778841486879887 C 0.0784364194238769 0.08107683964438261 0.07026713642327072 0.0999704858360416 0.07101047092034396 0.09827153682465291" fill="none" stroke="#000000" stroke-width="0.001"/>
<path d="M 0.0684326741199508 0.09717732700158029 C 0.0691806329418211 0.09546862014075136 0.07894098365149478 0.07345899810032831 0.07740817998239446 0.07667284467163321 C 0.07894098365149478 0.07345899810032831 0.08761116299638466 0.05710602843544555 0.08682631814915465 0.05861116814592152" fill="none" stroke="#000000" stroke-width="0.001"/>
<path d="M 0.08682631814915465 0.05861116814592152 C 0.08782032045155258 0.05706869502238869 0.10072575800321021 0.037380570131966766 0.09875434577792985 0.04010149066352758 C 0.10072575800321021 0.037380570131966766 0.11211503221973985 0.02404540112548066 0.11048326485251891 0.025960121767191813 C 0.11211503221973985 0.02404540112548066 0.11934717183914956 0.016220218828719234 0.1183355541845812 0.017124842962993783 C 0.11934717183914956 0.016220218828719234 0.1227950599698485 0.015251577900711414 0.12262267670733928 0.015104632155897219 C 0.1227950599698485 0.015251577900711414 0.1194859630768285 0.019865327816669703 0.12040415333469179 0.01888819190076413 C 0.1194859630768285 0.019865327816669703 0.10994263233409621 0.028698408313435998 0.11160439361297991 0.02683026314676412 C 0.10994263233409621 0.028698408313435998 0.09857425655838035 0.04406668241759012 0.10046301798808732 0.041305933900826645 C 0.09857425655838035 0.04406668241759012 0.08797894299553033 0.06151368796851737 0.08893925645649625 0.05995924534792577" fill="none" stroke="#000000" stroke-width="0.001"/>
</g><g transform="translate(0.46604640557488936,0.35137691027386897) rotate(0) scale(1,1) translate(-0.13549999999999998,-0.1348636140786165)"><path d="M 0.13682408924305123 0.12416173645056452 C 0.1369588681638112 0.12402928957400801 0.1387651723863214 0.12244157605960013 0.13844143629217096 0.12257237393188634 C 0.1387651723863214 0.12244157605960013 0.1410303264228036 0.12272858990816017 0.14070892237285662 0.1225921619831299 C 0.1410303264228036 0.12272858990816017 0.14242908276382105 0.12453324512640003 0.14229828489153482 0.12420950903224959 C 0.14242908276382105 0.12453324512640003 0.142276847836021 0.12666595228632577 0.14227849684029129 0.12647699511293528" fill="none" stroke="#000000" stroke-width="0.001"/>
<path d="M 0.14227849684029129 0.12647699511293528 C 0.141921203836839 0.12731872468041058 0.13727639479195944 0.13826120905758968 0.137990980798864 0.13657774992263905 C 0.13727639479195944 0.13826120905758968 0.13334617175398444 0.1475202342998181 0.13370346475743672 0.14667850473234278" fill="none" stroke="#000000" stroke-width="0.001"/>
<path d="M 0.13370346475743672 0.14667850473234278 C 0.13362478219966087 0.14677921381376755 0.1325620958717695 0.14803559813488243 0.13275927406412638 0.14788701370943996 C 0.1325620958717695 0.14803559813488243 0.1310922729127796 0.14849160662851396 0.1313373264491542 0.1484615178376525 C 0.1310922729127796 0.14849160662851396 0.12959136464441298 0.14815161008884534 0.12981863162763133 0.14824807919977745 C 0.12959136464441298 0.14815161008884534 0.12846153822509168 0.14710671031411024 0.12861012265053415 0.1473038885064671 C 0.12846153822509168 0.14710671031411024 0.12800552973146018 0.14563688735512034 0.12803561852232162 0.14588194089149492 C 0.12800552973146018 0.14563688735512034 0.12826684371335292 0.14423668816817845 0.12824905716019666 0.14436324606997203" fill="none" stroke="#000000" stroke-width="0.001"/>
<path d="M 0.12824905716019666 0.14436324606997203 C 0.12860635016364894 0.14352151650249673 0.13325115920852848 0.13257903212531766 0.13253657320162393 0.1342624912602683 C 0.13325115920852848 0.13257903212531766 0.1371813822465035 0.12332000688308921 0.13682408924305123 0.12416173645056452" fill="none" stroke="#000000" stroke-width="0.001"/>
</g><g transform="translate(0.4690258196062038,0.34435785067942837) rotate(0) scale(1,1) translate(-0.021863400912033353,-0.02186340091203335)"><path d="M 0.019153276252526448 0.020724999242342505 C 0.019231341766337503 0.020625079941177193 0.020285694300772667 0.019378548430961436 0.0200900624182591 0.01952596762835877 C 0.020285694300772667 0.019378548430961436 0.021743990621434856 0.018926116044879683 0.021500858842689267 0.0189559688735745 C 0.021743990621434856 0.018926116044879683 0.023233128474414548 0.019263446265369202 0.023007643763206163 0.019167733684020943 C 0.023233128474414548 0.019263446265369202 0.024354094574587242 0.020300151732267173 0.024206675377189908 0.020104519849753606 C 0.024354094574587242 0.020300151732267173 0.02480652696066899 0.02175844805292934 0.02477667413197417 0.021515316274183755 C 0.02480652696066899 0.02175844805292934 0.02454726225399055 0.023147666604743725 0.02456490932152775 0.02302210119470065" fill="none" stroke="#000000" stroke-width="0.001"/>
</g><g transform="translate(0.467953940595847,0.34688303938185433) rotate(0) scale(1,1) translate(-0.021863400912033353,-0.02186340091203335)"><path d="M 0.019153276252526448 0.020724999242342505 C 0.019231341766337503 0.020625079941177193 0.020285694300772667 0.019378548430961436 0.0200900624182591 0.01952596762835877 C 0.020285694300772667 0.019378548430961436 0.021743990621434856 0.018926116044879683 0.021500858842689267 0.0189559688735745 C 0.021743990621434856 0.018926116044879683 0.023233128474414548 0.019263446265369202 0.023007643763206163 0.019167733684020943 C 0.023233128474414548 0.019263446265369202 0.024354094574587242 0.020300151732267173 0.024206675377189908 0.020104519849753606 C 0.024354094574587242 0.020300151732267173 0.02480652696066899 0.02175844805292934 0.02477667413197417 0.021515316274183755 C 0.02480652696066899 0.02175844805292934 0.02454726225399055 0.023147666604743725 0.02456490932152775 0.02302210119470065" fill="none" stroke="#000000" stroke-width="0.001"/>
</g><g transform="translate(0.46688206158549017,0.3494082280842802) rotate(0) scale(1,1) translate(-0.021863400912033353,-0.02186340091203335)"><path d="M 0.019153276252526448 0.020724999242342505 C 0.019231341766337503 0.020625079941177193 0.020285694300772667 0.019378548430961436 0.0200900624182591 0.01952596762835877 C 0.020285694300772667 0.019378548430961436 0.021743990621434856 0.018926116044879683 0.021500858842689267 0.0189559688735745 C 0.021743990621434856 0.018926116044879683 0.023233128474414548 0.019263446265369202 0.023007643763206163 0.019167733684020943 C 0.023233128474414548 0.019263446265369202 0.024354094574587242 0.020300151732267173 0.024206675377189908 0.020104519849753606 C 0.024354094574587242 0.020300151732267173 0.02480652696066899 0.02175844805292934 0.02477667413197417 0.021515316274183755 C 0.02480652696066899 0.02175844805292934 0.02454726225399055 0.023147666604743725 0.02456490932152775 0.02302210119470065" fill="none" stroke="#000000" stroke-width="0.001"/>
</g><g transform="translate(0.46581018257513335,0.35193341678670614) rotate(0) scale(1,1) translate(-0.021863400912033353,-0.02186340091203335)"><path d="M 0.019153276252526448 0.020724999242342505 C 0.019231341766337503 0.020625079941177193 0.020285694300772667 0.019378548430961436 0.0200900624182591 0.01952596762835877 C 0.020285694300772667 0.019378548430961436 0.021743990621434856 0.018926116044879683 0.021500858842689267 0.0189559688735745 C 0.021743990621434856 0.018926116044879683 0.023233128474414548 0.019263446265369202 0.023007643763206163 0.019167733684020943 C 0.023233128474414548 0.019263446265369202 0.024354094574587242 0.020300151732267173 0.024206675377189908 0.020104519849753606 C 0.024354094574587242 0.020300151732267173 0.02480652696066899 0.02175844805292934 0.02477667413197417 0.021515316274183755 C 0.02480652696066899 0.02175844805292934 0.02454726225399055 0.023147666604743725 0.02456490932152775 0.02302210119470065" fill="none" stroke="#000000" stroke-width="0.001"/>
</g><g transform="translate(0.4647383035647765,0.3544586054891321) rotate(0) scale(1,1) translate(-0.021863400912033353,-0.02186340091203335)"><path d="M 0.019153276252526448 0.020724999242342505 C 0.019231341766337503 0.020625079941177193 0.020285694300772667 0.019378548430961436 0.0200900624182591 0.01952596762835877 C 0.020285694300772667 0.019378548430961436 0.021743990621434856 0.018926116044879683 0.021500858842689267 0.0189559688735745 C 0.021743990621434856 0.018926116044879683 0.023233128474414548 0.019263446265369202 0.023007643763206163 0.019167733684020943 C 0.023233128474414548 0.019263446265369202 0.024354094574587242 0.020300151732267173 0.024206675377189908 0.020104519849753606 C 0.024354094574587242 0.020300151732267173 0.02480652696066899 0.02175844805292934 0.02477667413197417 0.021515316274183755 C 0.02480652696066899 0.02175844805292934 0.02454726225399055 0.023147666604743725 0.02456490932152775 0.02302210119470065" fill="none" stroke="#000000" stroke-width="0.001"/>
</g><g transform="translate(0.4636664245544197,0.356983794191558) rotate(0) scale(1,1) translate(-0.021863400912033353,-0.02186340091203335)"><path d="M 0.019153276252526448 0.020724999242342505 C 0.019231341766337503 0.020625079941177193 0.020285694300772667 0.019378548430961436 0.0200900624182591 0.01952596762835877 C 0.020285694300772667 0.019378548430961436 0.021743990621434856 0.018926116044879683 0.021500858842689267 0.0189559688735745 C 0.021743990621434856 0.018926116044879683 0.023233128474414548 0.019263446265369202 0.023007643763206163 0.019167733684020943 C 0.023233128474414548 0.019263446265369202 0.024354094574587242 0.020300151732267173 0.024206675377189908 0.020104519849753606 C 0.024354094574587242 0.020300151732267173 0.02480652696066899 0.02175844805292934 0.02477667413197417 0.021515316274183755 C 0.02480652696066899 0.02175844805292934 0.02454726225399055 0.023147666604743725 0.02456490932152775 0.02302210119470065" fill="none" stroke="#000000" stroke-width="0.001"/>
</g><g transform="translate(0.46259454554406293,0.359508982893984) rotate(0) scale(1,1) translate(-0.021863400912033353,-0.02186340091203335)"><path d="M 0.019153276252526448 0.020724999242342505 C 0.019231341766337503 0.020625079941177193 0.020285694300772667 0.019378548430961436 0.0200900624182591 0.01952596762835877 C 0.020285694300772667 0.019378548430961436 0.021743990621434856 0.018926116044879683 0.021500858842689267 0.0189559688735745 C 0.021743990621434856 0.018926116044879683 0.023233128474414548 0.019263446265369202 0.023007643763206163 0.019167733684020943 C 0.023233128474414548 0.019263446265369202 0.024354094574587242 0.020300151732267173 0.024206675377189908 0.020104519849753606 C 0.024354094574587242 0.020300151732267173 0.02480652696066899 0.02175844805292934 0.02477667413197417 0.021515316274183755 C 0.02480652696066899 0.02175844805292934 0.02454726225399055 0.023147666604743725 0.02456490932152775 0.02302210119470065" fill="none" stroke="#000000" stroke-width="0.001"/>
</g><g transform="translate(0.4615226665337061,0.36203417159640994) rotate(0) scale(1,1) translate(-0.021863400912033353,-0.02186340091203335)"><path d="M 0.019153276252526448 0.020724999242342505 C 0.019231341766337503 0.020625079941177193 0.020285694300772667 0.019378548430961436 0.0200900624182591 0.01952596762835877 C 0.020285694300772667 0.019378548430961436 0.021743990621434856 0.018926116044879683 0.021500858842689267 0.0189559688735745 C 0.021743990621434856 0.018926116044879683 0.023233128474414548 0.019263446265369202 0.023007643763206163 0.019167733684020943 C 0.023233128474414548 0.019263446265369202 0.024354094574587242 0.020300151732267173 0.024206675377189908 0.020104519849753606 C 0.024354094574587242 0.020300151732267173 0.02480652696066899 0.02175844805292934 0.02477667413197417 0.021515316274183755 C 0.02480652696066899 0.02175844805292934 0.02454726225399055 0.023147666604743725 0.02456490932152775 0.02302210119470065" fill="none" stroke="#000000" stroke-width="0.001"/>
</g><g transform="translate(0.4615226665337061,0.36203417159640994) rotate(0) scale(1,1) translate(-0.0275187318942521,-0.03738575815743351)"><path d="M 0.0351769946914614 0.04431445633026832 C 0.03523093931003488 0.0442524823176899 0.03591065608465578 0.043417374784710465 0.03582433011434321 0.043570768179327236 C 0.03591065608465578 0.043417374784710465 0.0362426441132027 0.04229487248730517 0.0362129063352123 0.04247373559486707 C 0.0362426441132027 0.04229487248730517 0.03617853987647935 0.04133696716306093 0.03618118345022804 0.04142441088858448" fill="none" stroke="#000000" stroke-width="0.001"/>
<path d="M 0.03618118345022804 0.04142441088858448 C 0.036189259025603375 0.04161632596614093 0.03609390033483486 0.04427072200223627 0.03627809035473203 0.04372739181926189 C 0.03609390033483486 0.04427072200223627 0.03333744455106157 0.04872365263285511 0.03397090321146206 0.04794437308427704 C 0.03333744455106157 0.04872365263285511 0.02761304424427211 0.053775936563102755 0.02867658642992616 0.05307874640219864 C 0.02761304424427211 0.053775936563102755 0.01988713756322702 0.0564901029446726 0.021208396983613438 0.05631065501512641 C 0.01988713756322702 0.0564901029446726 0.011770556103275034 0.05466543213964515 0.012821473385289144 0.05523212155675288 C 0.011770556103275034 0.05466543213964515 0.00848036203247162 0.0484884780549352 0.00859738959944412 0.04951038200983364 C 0.00848036203247162 0.0484884780549352 0.012315478391550136 0.042302020777199384 0.011417142581619147 0.04296927409797156 C 0.012315478391550136 0.042302020777199384 0.02097027638579147 0.04158084592821189 0.01937741931861598 0.04150334216056745 C 0.02097027638579147 0.04158084592821189 0.031804756994112796 0.04403367293813953 0.03053142738772502 0.043899319309704816 C 0.031804756994112796 0.04403367293813953 0.035003673070198485 0.04286755324753521 0.03465737459526931 0.043115585701783976 C 0.035003673070198485 0.04286755324753521 0.03421502108535821 0.04056825634629168 0.03468700908687508 0.04092292985871961 C 0.03421502108535821 0.04056825634629168 0.02851906103458282 0.03868755136047624 0.02899351857706684 0.038859503552648805" fill="none" stroke="#000000" stroke-width="0.001"/>
<path d="M 0.02899351857706684 0.038859503552648805 C 0.029019641661821624 0.038797961421626635 0.029356796117694595 0.03800367529911027 0.029306995594124245 0.038120997980382744 C 0.029356796117694595 0.03800367529911027 0.0296148022987266 0.037395850827128874 0.029591124859911035 0.03745163137737917" fill="none" stroke="#000000" stroke-width="0.001"/>
<path d="M 0.029591124859911035 0.03745163137737917 C 0.0300766521312125 0.03768320962100842 0.035946091639781734 0.04072323523072041 0.035417452115528644 0.04023057030093019 C 0.035946091639781734 0.04072323523072041 0.03572550465042075 0.04379277203877988 0.035934799150948125 0.04336361053486179 C 0.03572550465042075 0.04379277203877988 0.032232682689371524 0.04549892516989501 0.032905918109200176 0.04538050834794728 C 0.032232682689371524 0.04549892516989501 0.026735410643273474 0.04458638710022705 0.02785597411300432 0.04478461239823449 C 0.026735410643273474 0.04458638710022705 0.0181880282746223 0.042946884483796716 0.01945915647243001 0.043001804771857964 C 0.0181880282746223 0.042946884483796716 0.011847707423684444 0.04463827883272918 0.012602435739311801 0.04412556894149953 C 0.011847707423684444 0.04463827883272918 0.010497323617858094 0.04996013811721487 0.010402416684901723 0.049154323466613796 C 0.010497323617858094 0.04996013811721487 0.014625214997926347 0.054258544507128685 0.013741318934788253 0.053795344748712434 C 0.014625214997926347 0.054258544507128685 0.02219784942402263 0.054540003329232235 0.021009169442558862 0.05471272056760881 C 0.02219784942402263 0.054540003329232235 0.02900141576602867 0.05110429520715143 0.028005478712353486 0.051722737888193586 C 0.02900141576602867 0.05110429520715143 0.0335580404182534 0.04667405159860914 0.032960414086661075 0.047291408395102916 C 0.0335580404182534 0.04667405159860914 0.035361709741861425 0.044066376991532104 0.0351769946914614 0.04431445633026832" fill="none" stroke="#000000" stroke-width="0.001"/>
</g></svg>
