<?xml version="1.0" encoding="UTF-8"?>
<svg xmlns="http://www.w3.org/2000/svg" viewBox="0 0 1 1">
<g transform="translate(0.3373403974394918,0.40419038501528964) rotate(0) scale(1,1) translate(-0.11919468730772295,-0.11388483716227914)"><path d="M 0.11919468730772298 0.1137839267954076 C 0.11925293452469497 0.1137839267954076 0.1196240663489455 0.11519822181998192 0.11954417060955491 0.1147699819195948 C 0.1196240663489455 0.11519822181998192 0.12019152934576877 0.11966136686777533 0.12015343618040997 0.11892280560005304 C 0.12019152934576877 0.11966136686777533 0.12004841731761101 0.12444864061893358 0.12000128859386053 0.12363271713226222 C 0.12004841731761101 0.12444864061893358 0.12073906943780935 0.12983976574681197 0.12071898086541583 0.12871388744010936 C 0.12073906943780935 0.12983976574681197 0.12030582270478822 0.13857757143637145 0.12024235146258283 0.13714325681269351 C 0.12030582270478822 0.13857757143637145 0.12147192273846814 0.14724978531135524 0.12148063577188054 0.1459256629242447 C 0.12147192273846814 0.14724978531135524 0.12007905539857125 0.1542029097624465 0.1201377950616341 0.15303272545802005 C 0.12007905539857125 0.1542029097624465 0.12077332895624292 0.16161941899353888 0.12077575981512634 0.159967874577362 C 0.12077332895624292 0.16161941899353888 0.12015545353025621 0.17510122226740338 0.12010862475503306 0.1728512584521426 C 0.12015545353025621 0.17510122226740338 0.1213315069712244 0.18921400365803762 0.12133770511780417 0.18696744036049107 C 0.1213315069712244 0.18921400365803762 0.1200472135379057 0.20207980271043852 0.1200342469960757 0.1998100180227011 C 0.1200472135379057 0.20207980271043852 0.12161562807436219 0.2153230332119603 0.12149330361976426 0.2142048566133402 C 0.12161562807436219 0.2153230332119603 0.12189921026647617 0.21346583724928306 0.12150214045125082 0.2132281372061422 C 0.12189921026647617 0.21346583724928306 0.12605209639220155 0.21770510945912705 0.12625814140246847 0.21705725713103052 C 0.12605209639220155 0.21770510945912705 0.1178267019737122 0.22100886463303762 0.11902960032804796 0.22100236514330052 C 0.1178267019737122 0.22100886463303762 0.11164084037303411 0.21648281270038272 0.1118233611504394 0.2171352510078759 C 0.11164084037303411 0.21648281270038272 0.11726854570771794 0.2129277239098589 0.1168393509991846 0.21317310545338242 C 0.11726854570771794 0.2129277239098589 0.1170432038045689 0.21345891341920015 0.11697369765283938 0.21419067248559354 C 0.1170432038045689 0.21345891341920015 0.11776007268769603 0.20167666826879405 0.11767342481993881 0.2043919966566618 C 0.11776007268769603 0.20167666826879405 0.1179790219869452 0.1790022014528558 0.118013472065926 0.18160673183118053 C 0.1179790219869452 0.1790022014528558 0.11726072437774789 0.17165959045423929 0.11726002387216916 0.17313763211676514 C 0.11726072437774789 0.17165959045423929 0.11804376767995149 0.1622798634695748 0.11802187813287074 0.16387023188087035 C 0.11804376767995149 0.1622798634695748 0.11754448629554515 0.15248910075532357 0.11752269843713822 0.15405321118121845 C 0.11754448629554515 0.15248910075532357 0.1183507331703846 0.14331102744680185 0.11828333243375377 0.14510090677013177 C 0.1183507331703846 0.14331102744680185 0.11825753636592992 0.13119761941050606 0.11833150727670805 0.1325746593012595 C 0.11825753636592992 0.13119761941050606 0.11738525514331605 0.12771722938798427 0.11739568150441629 0.12857642808109054 C 0.11738525514331605 0.12771722938798427 0.11825349099053009 0.12135666030652763 0.11820639094350513 0.12226427498398414 C 0.11825349099053009 0.12135666030652763 0.11801411649058141 0.11706052752958004 0.11796088206871591 0.11768505195161248 C 0.11801411649058141 0.11706052752958004 0.11894802110914164 0.11444488815657772 0.11884520400589105 0.1147699819195948 C 0.11894802110914164 0.11444488815657772 0.11925293452469497 0.1137839267954076 0.11919468730772298 0.1137839267954076 Z" fill="#cccccc" stroke="#000000" stroke-width="0.001"/>
</g><g transform="translate(0.32813835152310517,0.5050525127246918) rotate(0) scale(1,1) translate(-0.007632439264170959,-0.011489070732754177)"><path d="M 0.004321113334866218 0.007999929276104788 C 0.004534854255098533 0.007999929276104788 0.0059394159230129456 0.009012749766298195 0.005603558856260111 0.00867303860973915 C 0.0059394159230129456 0.009012749766298195 0.008244527675784073 0.012244740488221925 0.00835139813590023 0.012076463154813335 C 0.008244527675784073 0.012244740488221925 0.003878385807997226 0.010520932787491777 0.004321113334866218 0.010692366610642233 C 0.003878385807997226 0.010520932787491777 0.0029317973533561667 0.009850979943599278 0.0030386678134723243 0.010019257277007868 C 0.0029317973533561667 0.009850979943599278 0.003145538273588482 0.00850476127633056 0.0030386678134723243 0.00867303860973915 C 0.003145538273588482 0.00850476127633056 0.004534854255098533 0.007999929276104788 0.004321113334866218 0.007999929276104788 Z" fill="#cccccc" stroke="#000000" stroke-width="0.001"/>
</g><g transform="translate(0.34332674712404637,0.5058776570632371) rotate(0) scale(1,1) translate(-0.009274318487558978,-0.011539567016504784)"><path d="M 0.014338951511954306 0.00843489160088072 C 0.014456776194232362 0.008620417360963691 0.01422112682967625 0.01010462344162745 0.014338951511954306 0.009919097681544479 C 0.01422112682967625 0.01010462344162745 0.012436948226244554 0.01085020651189974 0.012925055324617634 0.010661200721876363 C 0.012436948226244554 0.01085020651189974 0.008363841649199294 0.012001641401742036 0.00848166633147735 0.012187167161825007 C 0.008363841649199294 0.012001641401742036 0.011881441553375987 0.008060360050774372 0.011511159137280963 0.00843489160088072 C 0.011881441553375987 0.008060360050774372 0.013160704689173746 0.00769278856054883 0.012925055324617634 0.00769278856054883 C 0.013160704689173746 0.00769278856054883 0.014456776194232362 0.008620417360963691 0.014338951511954306 0.00843489160088072 Z" fill="#cccccc" stroke="#000000" stroke-width="0.001"/>
</g><g transform="translate(0.3461231670508054,0.4981222678170665) rotate(0) scale(1,1) translate(-0.008434564811809,-0.010934425164257432)"><path d="M 0.009251038347951584 0.012088161521655106 C 0.009106852579363906 0.012201180602353149 0.007870800984964201 0.01225368910366991 0.008031499842691536 0.012310998851825385 C 0.007870800984964201 0.01225368910366991 0.007291071407300378 0.01122179190731499 0.007322652055223571 0.011400444543789412 C 0.007291071407300378 0.01122179190731499 0.00779671783620091 0.010054148133434283 0.007652532067613221 0.010167167214132328 C 0.00779671783620091 0.010054148133434283 0.009228647694786712 0.010109849131189261 0.009052881278275842 0.010044215575412883 C 0.009228647694786712 0.010109849131189261 0.009778242154883312 0.011125098712302382 0.009761729065743668 0.010954769883448864 C 0.009778242154883312 0.011125098712302382 0.009106852579363906 0.012201180602353149 0.009251038347951584 0.012088161521655106 Z" fill="#cccccc" stroke="#000000" stroke-width="0.001"/>
</g><g transform="translate(0.3339602513659132,0.50457723846353) rotate(0) scale(1,1) translate(-0.007887010811670887,-0.011755036522883896)"><path d="M 0.0062022354011980994 0.007249426760502921 C 0.0063989849556533316 0.007332941991469629 0.007296150294851444 0.008814054133905716 0.0071197279584018745 0.00837011855481774 C 0.007296150294851444 0.008814054133905716 0.008155177468983416 0.012689796196203924 0.008319303438592936 0.012576653709558638 C 0.008155177468983416 0.012689796196203924 0.004809668017028531 0.009397035302118497 0.005150216323087622 0.009727828394561187 C 0.004809668017028531 0.009397035302118497 0.004200100181038135 0.008410478882634369 0.004232723765883847 0.008607136600246364 C 0.004200100181038135 0.008410478882634369 0.004922859274548607 0.00725479329657195 0.0047587333049390855 0.007367935783217237 C 0.004922859274548607 0.00725479329657195 0.0063989849556533316 0.007332941991469629 0.0062022354011980994 0.007249426760502921 Z" fill="#cccccc" stroke="#000000" stroke-width="0.001"/>
</g><g transform="translate(0.3291323388140222,0.49732914809490036) rotate(0) scale(1,1) translate(-0.008434564811809,-0.010934425164257432)"><path d="M 0.009251038347951584 0.012088161521655106 C 0.009106852579363906 0.012201180602353149 0.007870800984964201 0.01225368910366991 0.008031499842691536 0.012310998851825385 C 0.007870800984964201 0.01225368910366991 0.007291071407300378 0.01122179190731499 0.007322652055223571 0.011400444543789412 C 0.007291071407300378 0.01122179190731499 0.00779671783620091 0.010054148133434283 0.007652532067613221 0.010167167214132328 C 0.00779671783620091 0.010054148133434283 0.009228647694786712 0.010109849131189261 0.009052881278275842 0.010044215575412883 C 0.009228647694786712 0.010109849131189261 0.009778242154883312 0.011125098712302382 0.009761729065743668 0.010954769883448864 C 0.009778242154883312 0.011125098712302382 0.009106852579363906 0.012201180602353149 0.009251038347951584 0.012088161521655106 Z" fill="#cccccc" stroke="#000000" stroke-width="0.001"/>
</g></svg>
