<?xml version="1.0" encoding="UTF-8"?>
<svg xmlns="http://www.w3.org/2000/svg" viewBox="0 0 1 1">
<g transform="translate(0.3373403974394918,0.40419038501528964) rotate(0) scale(1,1) translate(-0.11919468730772295,-0.11388483716227914)"><path d="M 0.11954417060955488 0.11457303721109206 C 0.11964698771280548 0.11482579761183784 0.12050466882724664 0.11733177304286822 0.12042849254673005 0.11683950416098583 C 0.12050466882724664 0.11733177304286822 0.12048849527978228 0.1212014694463874 0.12045828597575403 0.1204802637936808 C 0.12048849527978228 0.1212014694463874 0.12077481839519512 0.12621527402476382 0.12079100419506911 0.12549397199346507 C 0.12077481839519512 0.12621527402476382 0.12027168016330056 0.1300145904727665 0.1202640563772662 0.12913588816926574 C 0.12027168016330056 0.1300145904727665 0.12095848157405087 0.13737770079504785 0.12088248962748138 0.1360383996354742 C 0.12095848157405087 0.13737770079504785 0.12113555103856809 0.1463787264436593 0.12117595973610004 0.1452075020841495 C 0.12113555103856809 0.1463787264436593 0.12039900402491106 0.15111730029791462 0.12039758525709787 0.15009309194959158 C 0.12039900402491106 0.15111730029791462 0.12117379483984311 0.15888387430357923 0.12119298494985839 0.15749800226402605 C 0.12117379483984311 0.15888387430357923 0.12013584907859108 0.16834653386092507 0.12016730393691455 0.1667235564242298 C 0.12013584907859108 0.16834653386092507 0.1209023523836771 0.17906948714619625 0.1208155266499768 0.17697373150436907 C 0.1209023523836771 0.17906948714619625 0.12127042082184172 0.19304826864734298 0.12120921274131802 0.19187262412615608 C 0.12127042082184172 0.19304826864734298 0.1219571688339792 0.19130364135051886 0.12155002361626133 0.1910814657586119 C 0.1219571688339792 0.19130364135051886 0.12591147551691864 0.19511457389739684 0.12609495535393248 0.19453873122903975 C 0.12591147551691864 0.19511457389739684 0.11822392574393707 0.19798581845119229 0.11934826557209521 0.19799157777889698 C 0.11822392574393707 0.19798581845119229 0.11239779146537637 0.19389734222720728 0.11260287741603472 0.19446961929658346 C 0.11239779146537637 0.19389734222720728 0.11726220564760638 0.19090986571815244 0.11688723416419508 0.1911242529463827 C 0.11726220564760638 0.19090986571815244 0.11708472223822743 0.1908025468954453 0.11710253521697034 0.1918969725578203 C 0.11708472223822743 0.1908025468954453 0.11671882467904382 0.1756518518950099 0.11667347841928008 0.17799114499788288 C 0.11671882467904382 0.1756518518950099 0.11776381860887128 0.16192489259549972 0.11764669033413522 0.16382545532334442 C 0.11776381860887128 0.16192489259549972 0.1180559235882239 0.15394205234487174 0.11807901771611273 0.15518439226374653 C 0.1180559235882239 0.15394205234487174 0.11736675853273329 0.14800936853493982 0.11736956079946906 0.14891737629684698 C 0.11736675853273329 0.14800936853493982 0.11808234738514878 0.14337547496133365 0.1180453905152836 0.14428829912086055 C 0.11808234738514878 0.14337547496133365 0.1177900115212078 0.1369017019751893 0.11781304323785133 0.13796348638252431 C 0.1177900115212078 0.1369017019751893 0.11774969323735164 0.1305011310137378 0.11776900991556133 0.1315468862328405 C 0.11774969323735164 0.1305011310137378 0.11760033495948888 0.1244743026388756 0.11758124309933507 0.12541442375329215 C 0.11760033495948888 0.1244743026388756 0.11804694270875637 0.1195682157119162 0.11799811223740708 0.120265432859842 C 0.11804694270875637 0.1195682157119162 0.11823779973623355 0.11657345167412017 0.11816720875552655 0.11704781797818266 C 0.11823779973623355 0.11657345167412017 0.11893082721857408 0.11430291732557989 0.11884520400589105 0.11457303721109206 C 0.11893082721857408 0.11430291732557989 0.11925293452469493 0.11380637935203651 0.11919468730772295 0.11380637935203651 C 0.11925293452469493 0.11380637935203651 0.11964698771280548 0.11482579761183784 0.11954417060955488 0.11457303721109206 Z" fill="#cccccc" stroke="#000000" stroke-width="0.001"/>
</g><g transform="translate(0.34463231630215047,0.4831381720940613) rotate(0) scale(1,1) translate(-0.007632439264170959,-0.011489070732754177)"><path d="M 0.012226210714869755 0.00867303860973915 C 0.012333081174985914 0.008841315943147741 0.012119340254753596 0.010187534610416459 0.012226210714869755 0.010019257277007868 C 0.012119340254753596 0.010187534610416459 0.010501037666606858 0.010863800433792689 0.010943765193475853 0.010692366610642233 C 0.010501037666606858 0.010863800433792689 0.006806609932325652 0.011908185821404745 0.00691348039244181 0.012076463154813335 C 0.006806609932325652 0.011908185821404745 0.009997176738834799 0.008333327453180106 0.009661319672081963 0.00867303860973915 C 0.009997176738834799 0.008333327453180106 0.011157506113708169 0.007999929276104788 0.010943765193475853 0.007999929276104788 C 0.011157506113708169 0.007999929276104788 0.012333081174985914 0.008841315943147741 0.012226210714869755 0.00867303860973915 Z" fill="#cccccc" stroke="#000000" stroke-width="0.001"/>
</g><g transform="translate(0.33192948352007706,0.48344405095428206) rotate(0) scale(1,1) translate(-0.009274318487558978,-0.011539567016504784)"><path d="M 0.0056235816505003765 0.00769278856054883 C 0.005859231015056497 0.00769278856054883 0.007407760253932122 0.008809423150987069 0.007037477837837102 0.00843489160088072 C 0.007407760253932122 0.008809423150987069 0.009949145961362559 0.012372692921907978 0.01006697064364062 0.012187167161825007 C 0.009949145961362559 0.012372692921907978 0.005135474552127295 0.010472194931852986 0.0056235816505003765 0.010661200721876363 C 0.005135474552127295 0.010472194931852986 0.00409186078088559 0.009733571921461508 0.00420968546316365 0.009919097681544479 C 0.00409186078088559 0.009733571921461508 0.0043275101454417104 0.008249365840797749 0.00420968546316365 0.00843489160088072 C 0.0043275101454417104 0.008249365840797749 0.005859231015056497 0.00769278856054883 0.0056235816505003765 0.00769278856054883 Z" fill="#cccccc" stroke="#000000" stroke-width="0.001"/>
</g><g transform="translate(0.33061960598659573,0.4774781731226222) rotate(0) scale(1,1) translate(-0.008434564811809,-0.010934425164257432)"><path d="M 0.007107400557874396 0.010954769883448864 C 0.007123913647014043 0.010784441054595346 0.00799201476185318 0.009978582019636504 0.007816248345342305 0.010044215575412883 C 0.00799201476185318 0.009978582019636504 0.009360783324592586 0.010280186294830372 0.009216597556004904 0.010167167214132328 C 0.009360783324592586 0.010280186294830372 0.009514896920471303 0.011579097180263833 0.009546477568394496 0.011400444543789412 C 0.009514896920471303 0.011579097180263833 0.00867693092319926 0.01236830859998086 0.008837629780926589 0.012310998851825385 C 0.00867693092319926 0.01236830859998086 0.007473905507078859 0.011975142440957064 0.007618091275666542 0.012088161521655106 C 0.007473905507078859 0.011975142440957064 0.007123913647014043 0.010784441054595346 0.007107400557874396 0.010954769883448864 Z" fill="#cccccc" stroke="#000000" stroke-width="0.001"/>
</g><g transform="translate(0.33988935851897945,0.48251289712705697) rotate(0) scale(1,1) translate(-0.007887010811670887,-0.011755036522883896)"><path d="M 0.011015288318402684 0.007367935783217237 C 0.011179414288012208 0.007481078269862523 0.0115086742726122 0.00880379431785836 0.011541297857457916 0.008607136600246364 C 0.0115086742726122 0.00880379431785836 0.010283256994195005 0.010058621487003877 0.010623805300254103 0.009727828394561187 C 0.010283256994195005 0.010058621487003877 0.007290592215139217 0.012463511222913351 0.00745471818474874 0.012576653709558638 C 0.007290592215139217 0.012463511222913351 0.0088307160013894 0.007926182975729763 0.008654293664939826 0.00837011855481774 C 0.0088307160013894 0.007926182975729763 0.009768535776598872 0.007165911529536212 0.009571786222143634 0.007249426760502921 C 0.009768535776598872 0.007165911529536212 0.011179414288012208 0.007481078269862523 0.011015288318402684 0.007367935783217237 Z" fill="#cccccc" stroke="#000000" stroke-width="0.001"/>
</g><g transform="translate(0.34466818145133177,0.4764554928246697) rotate(0) scale(1,1) translate(-0.008434564811809,-0.010934425164257432)"><path d="M 0.007107400557874396 0.010954769883448864 C 0.007123913647014043 0.010784441054595346 0.00799201476185318 0.009978582019636504 0.007816248345342305 0.010044215575412883 C 0.00799201476185318 0.009978582019636504 0.009360783324592586 0.010280186294830372 0.009216597556004904 0.010167167214132328 C 0.009360783324592586 0.010280186294830372 0.009514896920471303 0.011579097180263833 0.009546477568394496 0.011400444543789412 C 0.009514896920471303 0.011579097180263833 0.00867693092319926 0.01236830859998086 0.008837629780926589 0.012310998851825385 C 0.00867693092319926 0.01236830859998086 0.007473905507078859 0.011975142440957064 0.007618091275666542 0.012088161521655106 C 0.007473905507078859 0.011975142440957064 0.007123913647014043 0.010784441054595346 0.007107400557874396 0.010954769883448864 Z" fill="#cccccc" stroke="#000000" stroke-width="0.001"/>
</g></svg>
