<?xml version="1.0" encoding="UTF-8"?>
<svg xmlns="http://www.w3.org/2000/svg" viewBox="0 0 1 1">
<g id="鰭耳3">
<g transform="translate(0.3212277245246915,0.1226636822386536) rotate(0) scale(1,1) translate(-0.034870077655601586,-0.03487007765560158)"><path d="M 0.013965138325244361 0.04423015780296386 C 0.01446823330135317 0.043998201943030536 0.02083693886925799 0.041034279149137654 0.020002278038550078 0.041446687483763976 C 0.02083693886925799 0.041034279149137654 0.024529081787563602 0.03892618324049583 0.023981068293739312 0.039281257787447996 C 0.024529081787563602 0.03892618324049583 0.027034299176208178 0.036706744203442984 0.026578439964441567 0.03718579292033797 C 0.027034299176208178 0.036706744203442984 0.02971053635589678 0.03303829154815687 0.029451378834938653 0.03353267318470821 C 0.02971053635589678 0.03303829154815687 0.029708076164355786 0.03106325828980638 0.029688330215939085 0.031253213281721905" fill="none" stroke="#000000" stroke-width="0.001"/>
<path d="M 0.029688330215939085 0.031253213281721905 C 0.030277014801536203 0.031167544650066242 0.037693972022045705 0.030186984708058577 0.03675254524310451 0.030225189701853977 C 0.037693972022045705 0.030186984708058577 0.041338193756577456 0.030842216994037365 0.04098545156323338 0.030794753356177103" fill="none" stroke="none" stroke-width="0"/>
<path d="M 0.04098545156323338 0.030794753356177103 C 0.04074107741517068 0.031065335777905927 0.03738026844583901 0.03454258182213933 0.03805296178648095 0.03404174241692297 C 0.03738026844583901 0.03454258182213933 0.031899775872209386 0.03733176224839684 0.03291313147553014 0.03680482621877345 C 0.031899775872209386 0.03733176224839684 0.024611598469730787 0.040888374946437184 0.025892694546631855 0.040364974772403694 C 0.024611598469730787 0.040888374946437184 0.01654601553426838 0.04340772689305532 0.01753997855271734 0.04308562830717531 C 0.01654601553426838 0.04340772689305532 0.013667234972954962 0.04432553526094624 0.013965138325244375 0.04423015780296386" fill="none" stroke="#000000" stroke-width="0.001"/>
</g><g transform="translate(0.317739745606258,0.11889466917980429) rotate(0) scale(1,1) translate(-0.10612783870950109,-0.09627626348585348)"><path d="M 0.08719858406386324 0.10985193345050863 C 0.08718042794959488 0.109791658421087 0.09956487824833353 0.10553189971224952 0.09799407228074654 0.10616388741803295 C 0.09956487824833353 0.10553189971224952 0.10736551033511953 0.10150199362568559 0.10604825567490711 0.10226808098110744 C 0.10736551033511953 0.10150199362568559 0.11452412659253414 0.09661123419486563 0.1138011282032955 0.09697083915297065 C 0.11452412659253414 0.09661123419486563 0.11415456788233597 0.09848004208195801 0.11472423634577074 0.0979528214838472 C 0.11415456788233597 0.09848004208195801 0.10558908241759454 0.10404201685423761 0.10696510664207819 0.1032974863303005 C 0.10558908241759454 0.10404201685423761 0.09656473543711573 0.10743339169777648 0.09821194565196698 0.10688718777109246 C 0.09656473543711573 0.10743339169777648 0.08718042794959488 0.109791658421087 0.08719858406386324 0.10985193345050863 Z" fill="#cccccc" stroke="#000000" stroke-width="0.001"/>
</g></g>
<g id="鰭耳1">
<g transform="translate(0.31900262476952534,0.11381641444374678) rotate(0) scale(1,1) translate(-0.034870077655601586,-0.03487007765560158)"><path d="M 0.0020747379648696643 0.032810684793576746 C 0.0028617163899547614 0.032716285076073125 0.013215330778872603 0.031521546460374875 0.011518479065890829 0.03167788818353327 C 0.013215330778872603 0.031521546460374875 0.024159632397080598 0.030973856013945967 0.022436958520650953 0.03093458411567593 C 0.024159632397080598 0.030973856013945967 0.033563683358944094 0.0324629093392034 0.03219056558304656 0.0321491509627737 C 0.033563683358944094 0.0324629093392034 0.03985968200824519 0.03514276593059258 0.03891437183142137 0.0346996846328323 C 0.03985968200824519 0.03514276593059258 0.043919280694391626 0.03769666336115245 0.043534287704932374 0.03746612653589705" fill="none" stroke="#000000" stroke-width="0.001"/>
<path d="M 0.043534287704932374 0.03746612653589705 C 0.04333553429200233 0.03759463885222526 0.040173929609026895 0.03924451639481485 0.04114924674977183 0.03900827433183555 C 0.040173929609026895 0.03924451639481485 0.031053918288178245 0.040408761038299705 0.03183048201599314 0.040301031291648616" fill="none" stroke="none" stroke-width="0"/>
<path d="M 0.03183048201599314 0.040301031291648616 C 0.0316179411941592 0.0400341086896637 0.028669000413048033 0.036633561246816396 0.02927999215398589 0.03709796006782963 C 0.028669000413048033 0.036633561246816396 0.02379337128080309 0.0344234266410043 0.02449858112473883 0.03472824543948984 C 0.02379337128080309 0.0344234266410043 0.01977172013754594 0.03327306224022276 0.020817474026757044 0.033440134486003165 C 0.01977172013754594 0.03327306224022276 0.01038763978238162 0.03267092434908941 0.01194953445420557 0.032723378490124945 C 0.01038763978238162 0.03267092434908941 0.0012518382574249905 0.03281796031886438 0.0020747379648696504 0.03281068479357673" fill="none" stroke="#000000" stroke-width="0.001"/>
</g><g transform="translate(0.317739745606258,0.11889466917980429) rotate(0) scale(1,1) translate(-0.10612783870950109,-0.09627626348585348)"><path d="M 0.08787862493854064 0.08702493155879586 C 0.09037206278496443 0.08685663980115695 0.10425683722505728 0.08794375871637715 0.10206703668376749 0.08754395432098726 C 0.10425683722505728 0.08794375871637715 0.11510257008794099 0.09230313321991744 0.11415623143401818 0.0918225843034745 C 0.11510257008794099 0.09230313321991744 0.11235660917923096 0.09308244897478717 0.11342310053084116 0.09331054131830258 C 0.11235660917923096 0.09308244897478717 0.09922994883494304 0.08863915183738989 0.10135833521469581 0.08908547618128951 C 0.09922994883494304 0.08863915183738989 0.08544808458314018 0.08799448079412094 0.087882463973808 0.08795464919150722 C 0.08544808458314018 0.08799448079412094 0.0721454626070763 0.0894859789432615 0.07214578252668191 0.08956345541265412 C 0.0721454626070763 0.0894859789432615 0.09037206278496443 0.08685663980115695 0.08787862493854064 0.08702493155879586 Z" fill="#cccccc" stroke="#000000" stroke-width="0.001"/>
</g></g>
<g id="鰭耳2">
<g transform="translate(0.3185288958966655,0.1188012526737346) rotate(0) scale(1,1) translate(-0.034870077655601586,-0.03487007765560158)"><path d="M 0.016830723359269523 0.03742570178491563 C 0.01722144810067862 0.03731910869013881 0.022189210525689874 0.0358748529999751 0.021519420256178694 0.03614658464759378 C 0.022189210525689874 0.0358748529999751 0.02523702538344077 0.033850030666644444 0.024868206593403712 0.03416492201349146 C 0.02523702538344077 0.033850030666644444 0.02600628283505464 0.03206597695133443 0.025945245736623355 0.032367888485429604 C 0.02600628283505464 0.03206597695133443 0.025457280307977396 0.03029283175905655 0.025600651774579136 0.030541983604349413 C 0.025457280307977396 0.03029283175905655 0.024110132834304427 0.029281073236712384 0.024224788137402482 0.029378066341915234" fill="none" stroke="#000000" stroke-width="0.001"/>
<path d="M 0.024224788137402482 0.029378066341915234 C 0.025143568927892688 0.029777804380556067 0.035656063637821214 0.035166653299216775 0.03525015762328495 0.034174922805605246 C 0.035656063637821214 0.035166653299216775 0.028582785535883774 0.04187082472022431 0.02909566031183771 0.04127883226525361" fill="none" stroke="none" stroke-width="0"/>
<path d="M 0.02909566031183771 0.04127883226525361 C 0.02913376660417571 0.041194146609406415 0.029551000803670607 0.04008073237900588 0.02955293581989373 0.04026260439508723 C 0.029551000803670607 0.04008073237900588 0.028871314754393355 0.038923635633724994 0.02907244011716022 0.039096368072277475 C 0.028871314754393355 0.038923635633724994 0.026664562649525835 0.038064830289184635 0.027139431466691354 0.03818981513245744 C 0.026664562649525835 0.038064830289184635 0.022514955302222164 0.03753287384070863 0.023374014311173984 0.03759654995300378 C 0.022514955302222164 0.03753287384070863 0.016285449113277468 0.037411464437574975 0.01683072335926951 0.03742570178491565" fill="none" stroke="#000000" stroke-width="0.001"/>
</g><g transform="translate(0.317739745606258,0.11889466917980429) rotate(0) scale(1,1) translate(-0.10749409176529023,-0.09496693764072228)"><path d="M 0.09282068087692193 0.09677202830592249 C 0.09414620979642045 0.09651112327619418 0.10401537714418563 0.09474113813558363 0.10224608181050371 0.09502711789868878 C 0.10401537714418563 0.09474113813558363 0.11506194072576914 0.09333279322756546 0.11405222488110502 0.09334027114866066 C 0.11506194072576914 0.09333279322756546 0.11339765233844018 0.09517480297030098 0.1143626719464732 0.09493738284554651 C 0.11339765233844018 0.09517480297030098 0.10067925772968296 0.0963902341276708 0.10247198958470881 0.09618931264571437 C 0.10067925772968296 0.0963902341276708 0.09150553511881407 0.09751249609649983 0.09284988968616302 0.09734844062902365 C 0.09150553511881407 0.09751249609649983 0.08633730070908466 0.09810994389517011 0.08633973477652142 0.09815797825542853 C 0.08633730070908466 0.09810994389517011 0.09414620979642045 0.09651112327619418 0.09282068087692193 0.09677202830592249 Z" fill="#cccccc" stroke="#000000" stroke-width="0.001"/>
</g></g>
</svg>
