<?xml version="1.0" encoding="UTF-8"?>
<svg xmlns="http://www.w3.org/2000/svg" viewBox="0 0 1 1">
<g id="脇">
<g transform="translate(0.33477974683282136,0.1473054698071506) rotate(0) scale(1,1) translate(-0.0562503924684768,-0.06022872118377538)"><path d="M 0.05419794385553391 0.05893542271918039 C 0.054308097335002366 0.05895310091924155 0.05570384969608789 0.05922941407563852 0.055519785609155325 0.05914756111991434 C 0.05570384969608789 0.05922941407563852 0.05652236970102196 0.06006615292174101 0.056406712898724655 0.059917658187870586 C 0.05652236970102196 0.06006615292174101 0.05694941343155614 0.06101381790456677 0.05690766723672295 0.06092949792635937" fill="none" stroke="none" stroke-width="0"/>
<path d="M 0.05690766723672295 0.06092949792635937 C 0.05663625830761927 0.062022383290396645 0.055855183922657405 0.07680236532231377 0.05365076008747879 0.07404412229480667 C 0.055855183922657405 0.07680236532231377 0.08583658602314866 0.09569377191991446 0.08336075325886635 0.09402841425644463" fill="none" stroke="none" stroke-width="0"/>
<path d="M 0.08336075325886635 0.09402841425644463 C 0.07953638679978083 0.09299587293877212 0.042300391774301074 0.08252724342379794 0.04805890934486978 0.08449726371917542 C 0.042300391774301074 0.08252724342379794 0.027601112790336058 0.07431409843365122 0.03020520694105016 0.075843611696637 C 0.027601112790336058 0.07431409843365122 0.023225372251806212 0.06916513197431823 0.02402111740485715 0.07037867988261942 C 0.023225372251806212 0.06916513197431823 0.023051777070800125 0.06358498198481603 0.02285986713409018 0.0646416311073475 C 0.023051777070800125 0.06358498198481603 0.026564218298754914 0.060022533891617054 0.025792593727473848 0.06062499576407742 C 0.026564218298754914 0.060022533891617054 0.030436467939813378 0.05891311827037525 0.02998255541906228 0.05908044464332452" fill="none" stroke="#000000" stroke-width="0.001"/>
<path d="M 0.02998255541906228 0.05908044464332452 C 0.031268511916451316 0.05912149973581486 0.04743198242410336 0.05956102059286325 0.04541403338773072 0.059573105753208594 C 0.04743198242410336 0.05956102059286325 0.054929936394517515 0.05888228246634471 0.05419794385553391 0.05893542271918039" fill="none" stroke="none" stroke-width="0"/>
</g><g transform="translate(0.31822731407979044,0.15928814971208824) rotate(0) scale(1,1) translate(-0.03935448257433991,-0.07209276069361464)"><path d="M 0.08301727611776027 0.09390977386134618 C 0.07998696289159445 0.09299621314920652 0.04168198723270844 0.08091342513658582 0.04665351740377027 0.08294704531567029 C 0.04168198723270844 0.08091342513658582 0.021417697120122245 0.06838627224538779 0.023358914065018246 0.0695063317123326" fill="none" stroke="none" stroke-width="0"/>
<path d="M 0.023358914065018246 0.0695063317123326 C 0.02390167215705553 0.07002582749194851 0.031104708666326416 0.07690266171584317 0.029872011169465647 0.07574028106772344 C 0.031104708666326416 0.07690266171584317 0.04001087537726797 0.08456872963866043 0.03815128402734747 0.08345489948976938 C 0.04001087537726797 0.08456872963866043 0.055925940042712625 0.0899774823853807 0.05218710736851156 0.08910624285441597 C 0.055925940042712625 0.0899774823853807 0.08558645684686433 0.09431006811192369 0.08301727611776027 0.09390977386134618" fill="none" stroke="#000000" stroke-width="0.001"/>
</g></g>
<g id="肩">
<g transform="translate(0.33477974683282136,0.1473054698071506) rotate(0) scale(1,1) translate(-0.05535453287641017,-0.06022872118377538)"><path d="M 0.05305714429758805 0.058948355703826345 C 0.05316619624226183 0.05896585712188689 0.054547991079736645 0.05923940714671989 0.054365767633673394 0.059158372720552944 C 0.054547991079736645 0.05923940714671989 0.05535832588462137 0.060067778604361355 0.05524382565034704 0.059920768817829644 C 0.05535832588462137 0.060067778604361355 0.05578109917785018 0.061005966937358845 0.05573977044496532 0.06092249015893352" fill="none" stroke="#000000" stroke-width="0.001"/>
<path d="M 0.05573977044496532 0.06092249015893352 C 0.054620297570000254 0.06167056836754983 0.04017512399313894 0.07115830206898059 0.04230609594538451 0.06989942866232923 C 0.04017512399313894 0.07115830206898059 0.02915660794073799 0.07653976623678492 0.03016810701801849 0.07602897103874987" fill="none" stroke="none" stroke-width="0"/>
<path d="M 0.03016810701801849 0.07602897103874987 C 0.029803778655522976 0.07593134954823944 0.02516513143359173 0.07449318479012923 0.02579616666807233 0.07485751315262475 C 0.02516513143359173 0.07449318479012923 0.022231355841755774 0.0710259954543231 0.022595684204251287 0.0716570306888037 C 0.022231355841755774 0.0710259954543231 0.021424226318126172 0.06655643361386651 0.021424226318126172 0.06728509033885754 C 0.021424226318126172 0.06655643361386651 0.022960012566746797 0.06228211475443078 0.022595684204251284 0.06291314998891138 C 0.022960012566746797 0.06228211475443078 0.02642720190255293 0.059348339162594826 0.02579616666807233 0.05971266752509034 C 0.02642720190255293 0.059348339162594826 0.030532435380514002 0.05844358814845478 0.03016810701801849 0.05854120963896521" fill="none" stroke="#000000" stroke-width="0.001"/>
<path d="M 0.03016810701801849 0.05854120963896521 C 0.031350854177722196 0.05861890951852775 0.04626849270776042 0.05950753703245415 0.04436107293446296 0.05947360819371572 C 0.04626849270776042 0.05950753703245415 0.05378181691118181 0.05890458466300223 0.05305714429758805 0.058948355703826345" fill="none" stroke="#000000" stroke-width="0.001"/>
</g><g id="虫性">
<g transform="translate(0.3176833637440875,0.15259283633198148) rotate(0) scale(1,1) translate(-0.005607832739230754,-0.005607832739230756)"><path d="M 0.008746316336569793 0.001189492495506699 C 0.00924292084609089 0.0015032741625538592 0.015218406020625568 0.005501653759894851 0.014705570450822956 0.004954872500072622 C 0.015218406020625568 0.005501653759894851 0.014916574234482644 0.00798386720614851 0.01490034317420113 0.007750867613373442" fill="none" stroke="#000000" stroke-width="0.001"/>
<path d="M 0.01490034317420113 0.007750867613373442 C 0.014383562327757613 0.008124135707690161 0.00782043590788649 0.012754909588858982 0.008698973016878941 0.012230084745174062 C 0.00782043590788649 0.012754909588858982 0.00399614160374279 0.014200322486960683 0.0043578978662917245 0.014048765737592481" fill="none" stroke="#000000" stroke-width="0.001"/>
<path d="M 0.0043578978662917245 0.014048765737592481 C 0.004302055714534837 0.014032989965248464 0.0036385612639256606 0.013791911801290573 0.00368779204520907 0.013859456469464262 C 0.0036385612639256606 0.013791911801290573 0.0037737398613642923 0.013186460823678532 0.0037671284908908135 0.013238229719508204" fill="none" stroke="#000000" stroke-width="0.001"/>
<path d="M 0.0037671284908908135 0.013238229719508204 C 0.003987300067517087 0.012810016423463312 0.006824119730879343 0.007095608731636033 0.006409187410406095 0.008099670166969492 C 0.006824119730879343 0.007095608731636033 0.008941077080416764 0.0006136443562181328 0.00874631633656979 0.001189492495506699" fill="none" stroke="#000000" stroke-width="0.001"/>
</g><g transform="translate(0.3176833637440875,0.15259283633198148) rotate(0) scale(1,1) translate(-0.016635516905246325,-0.01663551690524633)"><path d="M 0.03328492999032068 0.00970282789683401 C 0.03340708660208927 0.009725902445933444 0.03495280164089374 0.010050409269128934 0.03475080933154378 0.009979722486027211 C 0.03495280164089374 0.010050409269128934 0.03581523859107307 0.01070840881113011 0.03570883770252023 0.010551069294054678 C 0.03581523859107307 0.01070840881113011 0.03598407490631708 0.012069833391419637 0.036027619994177904 0.011867796690932396 C 0.03598407490631708 0.012069833391419637 0.03511618636935809 0.013067819117315669 0.03518629664819039 0.01297550969990157" fill="none" stroke="#000000" stroke-width="0.001"/>
<path d="M 0.03518629664819039 0.01297550969990157 C 0.03473325142649414 0.013253046571950344 0.02895283468071913 0.01685547214501608 0.0297497539878354 0.016305952164486857 C 0.02895283468071913 0.01685547214501608 0.025279390877375144 0.0198417325747327 0.025623264962795163 0.01956974946625225" fill="none" stroke="#000000" stroke-width="0.001"/>
<path d="M 0.025623264962795163 0.01956974946625225 C 0.025583664503126744 0.019584563114562206 0.025078274095144393 0.019747249851457975 0.025148059446774132 0.019747513245971716 C 0.025078274095144393 0.019747249851457975 0.024755655851276988 0.019551511689263657 0.024785840743238308 0.019566588732087355" fill="none" stroke="#000000" stroke-width="0.001"/>
<path d="M 0.024785840743238308 0.019566588732087355 C 0.024642551919146844 0.019401082137678577 0.02271729048610039 0.01719936160228483 0.02306637485414074 0.01758050959918201 C 0.02271729048610039 0.01719936160228483 0.020288576937198537 0.014581857589057747 0.020596828326754073 0.014992812769321165 C 0.020288576937198537 0.014581857589057747 0.01917623138556512 0.012234114578588128 0.0193673581794743 0.012649047436020994 C 0.01917623138556512 0.012234114578588128 0.018214635851541365 0.009793999400468927 0.018303306799843898 0.010013618480126777" fill="none" stroke="#000000" stroke-width="0.001"/>
<path d="M 0.018303306799843898 0.010013618480126777 C 0.01849142751171201 0.009950756842721158 0.021434447632776965 0.009270634356685946 0.020560755342261264 0.009259278831259352 C 0.021434447632776965 0.009270634356685946 0.029847962173370598 0.010186847207377135 0.028787614286032312 0.010149884785245913 C 0.029847962173370598 0.010186847207377135 0.033659706299011376 0.009665573156133018 0.03328492999032068 0.00970282789683401" fill="none" stroke="#000000" stroke-width="0.001"/>
</g></g>
<g transform="translate(0.3176833637440875,0.15259283633198148) rotate(0) scale(1,1) translate(-0.010565988892664996,-0.010565988892664996)"><path d="M -0.001648160846595952 0.005322940084788146 C -0.0015827796925954101 0.005441372009331892 -0.0007221118431555362 0.007020501573254548 -0.000863586998589449 0.006744123179313095 C -0.0007221118431555362 0.007020501573254548 0.00012563502004437293 0.00879742728148329 4.9541018611002014E-05 0.008639480812085583" fill="none" stroke="none" stroke-width="0"/>
<path d="M 4.9541018611002014E-05 0.008639480812085583 C 9.182249829884146E-05 0.00886988986255847 0.0006414817342407544 0.011865207518705994 0.0005569187748650754 0.011404389417760221 C 0.0006414817342407544 0.011865207518705994 0.001106578010806989 0.014399707073907735 0.0010642965311191495 0.01416929802343485" fill="none" stroke="none" stroke-width="0"/>
<path d="M 0.0010642965311191495 0.01416929802343485 C 0.0009693860931623882 0.013952979646109403 -0.00026444960027550784 0.01114084074087859 -7.462872436198503E-05 0.011573477495529486 C -0.00026444960027550784 0.01114084074087859 -0.0013084644177998863 0.008761338590298654 -0.0012135539798431246 0.008977656967624103" fill="none" stroke="none" stroke-width="0"/>
<path d="M -0.0012135539798431246 0.008977656967624103 C -0.001237019023007573 0.008805619825078957 -0.0015313517367125762 0.006608651516846021 -0.0014951344978165072 0.006913211257082351 C -0.0015313517367125762 0.006608651516846021 -0.0016609130423275724 0.005190417487096963 -0.001648160846595952 0.005322940084788146" fill="none" stroke="none" stroke-width="0"/>
</g><g transform="translate(0.3176833637440875,0.15259283633198148) rotate(0) scale(1,1) translate(-0.010565988892664996,-0.010565988892664996)"><path d="M 0.010484240807408216 0.004130609146637233 C 0.01054882568500108 0.004300761057830564 0.011381005736387664 0.006450688775489539 0.011259259338522586 0.006172432080957212 C 0.011381005736387664 0.006450688775489539 0.01200235910206137 0.007577794264364161 0.011945197581789156 0.007469689481025165" fill="none" stroke="none" stroke-width="0"/>
<path d="M 0.011945197581789156 0.007469689481025165 C 0.011987479061476996 0.0077692212466399175 0.012537138297418907 0.011663134199631702 0.012452575338043228 0.011064070668402199 C 0.012537138297418907 0.011663134199631702 0.013002234573985146 0.014957983621393962 0.012959953094297306 0.01465845185577921" fill="none" stroke="none" stroke-width="0"/>
<path d="M 0.012959953094297306 0.01465845185577921 C 0.012865042656340545 0.01437723796525613 0.011631206962902646 0.010721457388456075 0.011821027838816169 0.011283885169502239 C 0.011631206962902646 0.010721457388456075 0.01058719214537827 0.007628104592702158 0.010682102583335032 0.007909318483225241" fill="none" stroke="none" stroke-width="0"/>
<path d="M 0.010682102583335032 0.007909318483225241 C 0.010677570021331741 0.007782895824794575 0.010611223357968297 0.006077354137341577 0.010627711839295532 0.006392246582057244 C 0.010611223357968297 0.006077354137341577 0.010472284888084273 0.003942139360352232 0.010484240807408216 0.004130609146637233" fill="none" stroke="none" stroke-width="0"/>
</g><g transform="translate(0.3176833637440875,0.15259283633198148) rotate(0) scale(1,1) translate(-0.010565988892664996,-0.010565988892664996)"><path d="M 0.014971238842602402 0.004386848082701861 C 0.015031090599904977 0.00453564674922314 0.015806473207808088 0.006429335530817487 0.0156894599302333 0.006172432080957212 C 0.015806473207808088 0.006429335530817487 0.016432559693772084 0.007577794264364161 0.01637539817349987 0.007469689481025165" fill="none" stroke="none" stroke-width="0"/>
<path d="M 0.01637539817349987 0.007469689481025165 C 0.01641767965318771 0.0077692212466399175 0.01696733888912962 0.011663134199631702 0.01688277592975394 0.011064070668402199 C 0.01696733888912962 0.011663134199631702 0.017432435165695856 0.014957983621393962 0.017390153686008016 0.01465845185577921" fill="none" stroke="none" stroke-width="0"/>
<path d="M 0.017390153686008016 0.01465845185577921 C 0.017295243248051255 0.01437723796525613 0.01606140755461336 0.010721457388456075 0.01625122843052688 0.011283885169502239 C 0.01606140755461336 0.010721457388456075 0.015017392737088983 0.007628104592702158 0.015112303175045744 0.007909318483225241" fill="none" stroke="none" stroke-width="0"/>
<path d="M 0.015112303175045744 0.007909318483225241 C 0.015107770613042453 0.007782895824794575 0.015046157069969299 0.006098707382013629 0.015057912431006244 0.006392246582057244 C 0.015046157069969299 0.006098707382013629 0.01496401604356875 0.004219731541088912 0.014971238842602402 0.004386848082701861" fill="none" stroke="none" stroke-width="0"/>
</g><g transform="translate(0.3176833637440875,0.15259283633198148) rotate(0) scale(1,1) translate(-0.010565988892664996,-0.010565988892664996)"><path d="M 0.019204322153702203 0.004520991294923963 C 0.019261667869894535 0.004658611360426734 0.020006977984474712 0.006418156929798979 0.019892470748010167 0.006172432080957212 C 0.020006977984474712 0.006418156929798979 0.020635570511548948 0.007577794264364161 0.020578408991276734 0.007469689481025165" fill="none" stroke="none" stroke-width="0"/>
<path d="M 0.020578408991276734 0.007469689481025165 C 0.020620690470964573 0.0077692212466399175 0.021170349706906486 0.011663134199631702 0.021085786747530807 0.011064070668402199 C 0.021170349706906486 0.011663134199631702 0.021635445983472723 0.014957983621393962 0.021593164503784883 0.01465845185577921" fill="none" stroke="none" stroke-width="0"/>
<path d="M 0.021593164503784883 0.01465845185577921 C 0.021498254065828122 0.01437723796525613 0.020264418372390226 0.010721457388456075 0.020454239248303748 0.011283885169502239 C 0.020264418372390226 0.010721457388456075 0.019220403554865848 0.007628104592702158 0.01931531399282261 0.007909318483225241" fill="none" stroke="none" stroke-width="0"/>
<path d="M 0.01931531399282261 0.007909318483225241 C 0.019310781430819317 0.007782895824794575 0.019251673928856412 0.006109885983032138 0.01926092324878311 0.006392246582057244 C 0.019251673928856412 0.006109885983032138 0.019199605395778793 0.004365053354329523 0.019204322153702203 0.004520991294923963" fill="none" stroke="none" stroke-width="0"/>
</g><g transform="translate(0.3176833637440875,0.15259283633198148) rotate(0) scale(1,1) translate(-0.037606046155996865,-0.06556896137385457)"><path d="M 0.049977840703221116 0.05952009157448904 C 0.04980101645511702 0.05998764614453399 0.047426169085904184 0.06577236260294765 0.047855949725971965 0.06513074641502847 C 0.047426169085904184 0.06577236260294765 0.04456751663044403 0.06739354744739338 0.04482047302240772 0.06721948582951916" fill="none" stroke="none" stroke-width="0"/>
<path d="M 0.04482047302240772 0.06721948582951916 C 0.04446033337923418 0.06749991937024835 0.03979172980475713 0.07117031273523838 0.040498797304325304 0.07058468831826947 C 0.03979172980475713 0.07117031273523838 0.03598873517119498 0.07455216970938582 0.03633566302758962 0.0742469788331461" fill="none" stroke="#000000" stroke-width="0.001"/>
<path d="M 0.03633566302758962 0.0742469788331461 C 0.036158000747057197 0.07436525039503936 0.03389149472757103 0.0757860909434577 0.034203715661200514 0.07566623757586512 C 0.03389149472757103 0.0757860909434577 0.03245445317093881 0.07568680104995643 0.03258901182403587 0.0756852192442571" fill="none" stroke="none" stroke-width="0"/>
<path d="M 0.03258901182403587 0.0756852192442571 C 0.032581712853044086 0.07506383744800663 0.032395042684001965 0.06707188079885791 0.032501424172134474 0.06822863768925135 C 0.032395042684001965 0.06707188079885791 0.031044053894033977 0.06081022536809467 0.0313124339664458 0.06180413655953593 C 0.031044053894033977 0.06081022536809467 0.02911156574792152 0.055843167294657894 0.029280863303192618 0.056301703391956205" fill="none" stroke="#000000" stroke-width="0.001"/>
<path d="M 0.029280863303192618 0.056301703391956205 C 0.030476443332679723 0.05617159645377849 0.03990383971345333 0.05605745979331205 0.036454343480115246 0.055521061762889914 C 0.03990383971345333 0.05605745979331205 0.052231756907072095 0.06018659654308889 0.049977840703221116 0.05952009157448904" fill="none" stroke="#000000" stroke-width="0.001"/>
<path d="M 0.049977840703221116 0.05952009157448904 C 0.050235462720603016 0.059716870567986635 0.05367102129079076 0.06215940965843744 0.05306930491180391 0.06188143949646024 C 0.05367102129079076 0.06215940965843744 0.05754253161266829 0.06293692468669514 0.05719843725106334 0.06285573351821552" fill="none" stroke="#000000" stroke-width="0.001"/>
</g><g transform="translate(0.3176833637440875,0.15259283633198148) rotate(0) scale(1,1) translate(-0.037606046155996865,-0.06556896137385457)"><path d="M 0.049977840703221116 0.05952009157448904 C 0.04980101645511702 0.05998764614453399 0.047426169085904184 0.06577236260294765 0.047855949725971965 0.06513074641502847 C 0.047426169085904184 0.06577236260294765 0.04456751663044403 0.06739354744739338 0.04482047302240772 0.06721948582951916" fill="none" stroke="none" stroke-width="0"/>
<path d="M 0.04482047302240772 0.06721948582951916 C 0.04446033337923418 0.06749991937024835 0.03979172980475713 0.07117031273523838 0.040498797304325304 0.07058468831826947 C 0.03979172980475713 0.07117031273523838 0.03598873517119498 0.07455216970938582 0.03633566302758962 0.0742469788331461" fill="none" stroke="#000000" stroke-width="0.001"/>
<path d="M 0.03633566302758962 0.0742469788331461 C 0.036158000747057197 0.07436525039503936 0.03389149472757103 0.0757860909434577 0.034203715661200514 0.07566623757586512 C 0.03389149472757103 0.0757860909434577 0.03245445317093881 0.07568680104995643 0.03258901182403587 0.0756852192442571" fill="none" stroke="none" stroke-width="0"/>
<path d="M 0.03258901182403587 0.0756852192442571 C 0.032581712853044086 0.07506383744800663 0.032395042684001965 0.06707188079885791 0.032501424172134474 0.06822863768925135 C 0.032395042684001965 0.06707188079885791 0.031044053894033977 0.06081022536809467 0.0313124339664458 0.06180413655953593 C 0.031044053894033977 0.06081022536809467 0.02911156574792152 0.055843167294657894 0.029280863303192618 0.056301703391956205" fill="none" stroke="#000000" stroke-width="0.001"/>
<path d="M 0.029280863303192618 0.056301703391956205 C 0.030476443332679723 0.05617159645377849 0.03990383971345333 0.05605745979331205 0.036454343480115246 0.055521061762889914 C 0.03990383971345333 0.05605745979331205 0.052231756907072095 0.06018659654308889 0.049977840703221116 0.05952009157448904" fill="none" stroke="#000000" stroke-width="0.001"/>
<path d="M 0.049977840703221116 0.05952009157448904 C 0.050235462720603016 0.059716870567986635 0.05367102129079076 0.06215940965843744 0.05306930491180391 0.06188143949646024 C 0.05367102129079076 0.06215940965843744 0.05754253161266829 0.06293692468669514 0.05719843725106334 0.06285573351821552" fill="none" stroke="#000000" stroke-width="0.001"/>
</g></g>
</svg>
