<?xml version="1.0" encoding="UTF-8"?>
<svg xmlns="http://www.w3.org/2000/svg" viewBox="0 0 1 1">
<g transform="translate(0.3373434528286707,0.07847599559563229) rotate(0) scale(1,1) translate(-0.2178778082444383,-0.21061995408824444)"><path d="M 0.2456020006120999 0.23378664862188522 C 0.245122456365314 0.235580768030074 0.2389452910220962 0.2582449981683262 0.23984746965066872 0.25531608152015056 C 0.2389452910220962 0.2582449981683262 0.2329450519520436 0.2696271114436592 0.23477585706922943 0.26893364839999273 C 0.2329450519520436 0.2696271114436592 0.2150614667736401 0.2636376380441483 0.2178778082444386 0.2636376380441483 C 0.2150614667736401 0.2636376380441483 0.19914895430246188 0.2682401853563264 0.20097975941964774 0.26893364839999284 C 0.19914895430246188 0.2682401853563264 0.19500596820963584 0.252387164871975 0.1959081468382084 0.2553160815201506 C 0.19500596820963584 0.252387164871975 0.18967407162999128 0.23199252921369645 0.1901536158767772 0.23378664862188522" fill="none" stroke="#000000" stroke-width="0.001"/>
<path d="M 0.1901536158767772 0.23378664862188522 C 0.1904631439999322 0.23264302568671918 0.19502312803662308 0.2180823603714842 0.1938679533546372 0.22006317339989281 C 0.19502312803662308 0.2180823603714842 0.20601653330142475 0.20887326934581574 0.20401571206060795 0.21001689228098178 C 0.20601653330142475 0.20887326934581574 0.22018815760841043 0.20633969817790035 0.21787780824443864 0.20633969817790035 C 0.22018815760841043 0.20633969817790035 0.2337407256690861 0.21116051521614781 0.23173990442826933 0.21001689228098178 C 0.2337407256690861 0.21116051521614781 0.24304283781622593 0.22204398642830142 0.24188766313424004 0.22006317339989281 C 0.24304283781622593 0.22204398642830142 0.2459115287352549 0.23493027155705126 0.2456020006120999 0.23378664862188522" fill="none" stroke="#000000" stroke-width="0.001"/>
</g><g id="お下げ左">
<g id="編節1">
<g transform="translate(0.3213105737601799,0.13389549078914734) rotate(0) scale(1,1) translate(-0.13796833536796266,-0.11460177227368223)"><path d="M 0.14065887184510625 0.11460177227368223 C 0.1408108562807152 0.11478060703819197 0.14270689644550907 0.11713613493763485 0.14248268507241377 0.116747789447799 C 0.14270689644550907 0.11713613493763485 0.1434216352597362 0.1194714288770386 0.14334940832224985 0.11926191815171247" fill="none" stroke="#000000" stroke-width="0.001"/>
<path d="M 0.14334940832224985 0.11926191815171247 C 0.14326184340435533 0.11947756406920186 0.1420519967971106 0.12223801465142105 0.14229862930751544 0.12184966916158521 C 0.1420519967971106 0.12223801465142105 0.14023075060488152 0.12409476360208903 0.14038981819739182 0.12392206402974258" fill="none" stroke="#000000" stroke-width="0.001"/>
<path d="M 0.14038981819739182 0.12392206402974258 C 0.14036278343203218 0.12402295914763548 0.1399645058951833 0.12530756091488346 0.14006540101307619 0.12513280544445732 C 0.1399645058951833 0.12530756091488346 0.13900432131225107 0.12612002479274906 0.1391790767826772 0.12601912967485618 C 0.13900432131225107 0.12612002479274906 0.13776654513217684 0.12634354685917182 0.1379683353679626 0.12634354685917182 C 0.13776654513217684 0.12634354685917182 0.1365828384828218 0.1259182345569633 0.13675759395324794 0.12601912967485618 C 0.1365828384828218 0.1259182345569633 0.13577037460495617 0.12495804997403119 0.13587126972284905 0.12513280544445732 C 0.13577037460495617 0.12495804997403119 0.13551981777317365 0.12382116891184969 0.1355468525385333 0.12392206402974258" fill="none" stroke="#000000" stroke-width="0.001"/>
<path d="M 0.1355468525385333 0.12392206402974258 C 0.135387784946023 0.12374936445739614 0.13339140891800488 0.12146132367174936 0.1336380414284097 0.12184966916158521 C 0.13339140891800488 0.12146132367174936 0.13249969749578078 0.11904627223422304 0.1325872624136753 0.11926191815171244" fill="none" stroke="#000000" stroke-width="0.001"/>
<path d="M 0.1325872624136753 0.11926191815171244 C 0.13265948935116165 0.11905240742638633 0.13367819703660672 0.11635944395796315 0.1334539856635114 0.116747789447799 C 0.13367819703660672 0.11635944395796315 0.1354297833264279 0.1144229375091725 0.13527779889081895 0.11460177227368223" fill="none" stroke="#000000" stroke-width="0.001"/>
</g><g transform="translate(0.32131057376017985,0.13855563666717757) rotate(0) scale(1,1) translate(-0.10433725337565573,-0.10418740031181734)"><path d="M 0.10701944173009977 0.0995217617126694 C 0.10694017279817102 0.09989604478983355 0.1061089014188307 0.10260004395381073 0.1065438281385273 0.10176746017565433 C 0.1061089014188307 0.10260004395381073 0.10371139708039742 0.1046253617229477 0.10440988141192016 0.10451726438160774 C 0.10371139708039742 0.1046253617229477 0.10189116705562863 0.10158483717192755 0.10235292214939083 0.1024160442236941 C 0.10189116705562863 0.10158483717192755 0.10163935084934693 0.09953002207100842 0.10163935084934693 0.09953002207100842 C 0.10163935084934693 0.09953002207100842 0.10281467724315303 0.10324725127546065 0.10235292214939083 0.1024160442236941 C 0.10281467724315303 0.10324725127546065 0.10446057007552778 0.1052486975421745 0.10440988141192016 0.10451726438160774 C 0.10446057007552778 0.1052486975421745 0.10224275795480607 0.10752545657323248 0.10265705413103651 0.10680464318709461 C 0.10224275795480607 0.10752545657323248 0.10180194605845436 0.10918172828365838 0.10192410435453753 0.10884214469843498" fill="none" stroke="#000000" stroke-width="0.001"/>
</g></g>
<g id="編節2">
<g transform="translate(0.32131057376017985,0.14321578254520767) rotate(0) scale(1,1) translate(-0.13796833536796266,-0.11460177227368223)"><path d="M 0.14038981819739182 0.11460177227368223 C 0.1405266041894399 0.114762723561741 0.1422330403377545 0.11688269867123963 0.1420312501019687 0.11653318773038736 C 0.1422330403377545 0.11688269867123963 0.14287630527055883 0.11898446321670295 0.14281130102682113 0.11879590356390944" fill="none" stroke="#000000" stroke-width="0.001"/>
<path d="M 0.14281130102682113 0.11879590356390944 C 0.14273249260071605 0.1189899848896499 0.1416436306541958 0.1214743904136472 0.14186559991356015 0.12112487947279495 C 0.1416436306541958 0.1214743904136472 0.14000450908118964 0.12314546446924837 0.1401476699144489 0.12299003485413657" fill="none" stroke="#000000" stroke-width="0.001"/>
<path d="M 0.1401476699144489 0.12299003485413657 C 0.14012333862562523 0.12308084046024016 0.13976488884246124 0.12423698205076321 0.13985569444856483 0.12407970212737969 C 0.13976488884246124 0.12423698205076321 0.13890072271782228 0.12496819954084241 0.1390580026412058 0.1248773939347388 C 0.13890072271782228 0.12496819954084241 0.1377867241557554 0.12516936940062295 0.1379683353679626 0.12516936940062295 C 0.1377867241557554 0.12516936940062295 0.1367213881713359 0.12478658832863519 0.1368786680947194 0.1248773939347388 C 0.1367213881713359 0.12478658832863519 0.1359901706812567 0.12392242220399617 0.13608097628736032 0.12407970212737969 C 0.1359901706812567 0.12392242220399617 0.13576466953265254 0.12289922924803297 0.1357890008214762 0.12299003485413657" fill="none" stroke="#000000" stroke-width="0.001"/>
<path d="M 0.1357890008214762 0.12299003485413657 C 0.13564583998821694 0.12283460523902476 0.13384910156300078 0.12077536853194269 0.1340710708223651 0.12112487947279495 C 0.13384910156300078 0.12077536853194269 0.13304656128299908 0.11860182223816898 0.13312536970910416 0.11879590356390944" fill="none" stroke="#000000" stroke-width="0.001"/>
<path d="M 0.13312536970910416 0.11879590356390944 C 0.13319037395284186 0.11860734391111594 0.13410721086974223 0.11618367678953505 0.13390542063395647 0.11653318773038732 C 0.13410721086974223 0.11618367678953505 0.13568363853058135 0.11444082098562347 0.1355468525385333 0.11460177227368223" fill="none" stroke="#000000" stroke-width="0.001"/>
</g><g transform="translate(0.3213105737601798,0.1474099138354349) rotate(0) scale(1,1) translate(-0.10433725337565573,-0.10418740031181734)"><path d="M 0.10675122289465533 0.09998832557258422 C 0.10667988085591945 0.10032518034203194 0.10593173661451313 0.10275877958961131 0.10632317066224006 0.10200945418927057 C 0.10593173661451313 0.10275877958961131 0.10377398270992325 0.10458156558183468 0.10440261860829371 0.1044842779746287 C 0.10377398270992325 0.10458156558183468 0.10213577568763135 0.10184509348591653 0.10255135527201732 0.10259317983250642 C 0.10213577568763135 0.10184509348591653 0.1019091411019779 0.09999575989508931 0.1019091411019779 0.09999575989508931 C 0.1019091411019779 0.09999575989508931 0.10296693485640329 0.10334126617909631 0.10255135527201732 0.10259317983250642 C 0.10296693485640329 0.10334126617909631 0.10444823840554056 0.10514256781913878 0.10440261860829371 0.1044842779746287 C 0.10444823840554056 0.10514256781913878 0.10245220749689103 0.10719165094709095 0.10282507405549843 0.10654291889956687 C 0.10245220749689103 0.10719165094709095 0.10205547679017447 0.10868229548647426 0.10216541925664932 0.10837667025977321" fill="none" stroke="#000000" stroke-width="0.001"/>
</g></g>
<g id="編節3">
<g transform="translate(0.3213105737601798,0.151604045125662) rotate(0) scale(1,1) translate(-0.13796833536796266,-0.11460177227368223)"><path d="M 0.1401476699144489 0.11460177227368223 C 0.14027077730729218 0.11474662843293512 0.1418065698407752 0.11665460603148387 0.141624958628568 0.11634004618471683 C 0.1418065698407752 0.11665460603148387 0.14238550828029914 0.11854619412240089 0.1423270044609352 0.11837649043488672" fill="none" stroke="#000000" stroke-width="0.001"/>
<path d="M 0.1423270044609352 0.11837649043488672 C 0.14225607687744066 0.11855116362805314 0.14127610112557248 0.12078712859965067 0.1414758734590004 0.12047256875288363 C 0.14127610112557248 0.12078712859965067 0.139800891709867 0.12229109524969174 0.13992973645980034 0.12215120859609112" fill="none" stroke="#000000" stroke-width="0.001"/>
<path d="M 0.13992973645980034 0.12215120859609112 C 0.13990783829985903 0.12223293364158436 0.1395852334950113 0.12327346107305513 0.13966695854050457 0.12313190914200996 C 0.1395852334950113 0.12327346107305513 0.13880748398283627 0.12393155681412645 0.13894903591388144 0.1238498317686332 C 0.13880748398283627 0.12393155681412645 0.13780488527697612 0.12411260968792882 0.1379683353679626 0.12411260968792882 C 0.13780488527697612 0.12411260968792882 0.13684608289099856 0.12376810672313997 0.13698763482204374 0.1238498317686332 C 0.13684608289099856 0.12376810672313997 0.13618798714992733 0.12299035721096478 0.13626971219542056 0.12313190914200996 C 0.13618798714992733 0.12299035721096478 0.13598503611618362 0.12206948355059788 0.13600693427612492 0.12215120859609112" fill="none" stroke="#000000" stroke-width="0.001"/>
<path d="M 0.13600693427612492 0.12215120859609112 C 0.13587808952619157 0.1220113219424905 0.13426102494349687 0.1201580089061166 0.1344607972769248 0.12047256875288363 C 0.13426102494349687 0.1201580089061166 0.1335387386914952 0.11820181724172031 0.1336096662749898 0.11837649043488672" fill="none" stroke="#000000" stroke-width="0.001"/>
<path d="M 0.1336096662749898 0.11837649043488672 C 0.13366817009435375 0.11820678674737256 0.13449332331956432 0.11602548633794979 0.13431171210735712 0.11634004618471683 C 0.13449332331956432 0.11602548633794979 0.13591210821431948 0.11445691611442935 0.1357890008214762 0.11460177227368223" fill="none" stroke="#000000" stroke-width="0.001"/>
</g><g transform="translate(0.32131057376017974,0.1553787632868665) rotate(0) scale(1,1) translate(-0.10433725337565573,-0.10418740031181734)"><path d="M 0.10650982594275545 0.10040823304650746 C 0.10644561810789314 0.10071140233901044 0.1057722882906274 0.102901641661832 0.10612457893358165 0.10222724880152531 C 0.1057722882906274 0.102901641661832 0.1038303097764965 0.10454214905483297 0.10439608208502991 0.1044545902083476 C 0.1038303097764965 0.10454214905483297 0.10235592345643378 0.10207932416850657 0.10272994508238116 0.10275260188043749 C 0.10235592345643378 0.10207932416850657 0.10215195232934561 0.10041492393676214 0.10215195232934561 0.10041492393676214 C 0.10215195232934561 0.10041492393676214 0.10310396670832854 0.1034258795923684 0.10272994508238116 0.10275260188043749 C 0.10310396670832854 0.1034258795923684 0.10443713990255209 0.10504705106840669 0.10439608208502991 0.1044545902083476 C 0.10443713990255209 0.10504705106840669 0.10264071208476754 0.10689122588356362 0.10297629198751419 0.10630736704079195 C 0.10264071208476754 0.10689122588356362 0.1022836544487226 0.10823280596900858 0.10238260266854997 0.10795774326497763" fill="none" stroke="#000000" stroke-width="0.001"/>
</g></g>
<g id="編節4">
<g transform="translate(0.32131057376017974,0.1591534814480709) rotate(0) scale(1,1) translate(-0.13796833536796266,-0.11460177227368223)"><path d="M 0.13992973645980034 0.11460177227368223 C 0.14004053311335926 0.11473214281700983 0.1414227463934939 0.11644932265570374 0.14125929630250741 0.1161662187936134 C 0.1414227463934939 0.11644932265570374 0.14194379098906557 0.11815175193752903 0.141891137551638 0.11799901861876629" fill="none" stroke="#000000" stroke-width="0.001"/>
<path d="M 0.141891137551638 0.11799901861876629 C 0.14182730272649288 0.11815622449261605 0.14094532454981146 0.12016859296705384 0.14112511964989657 0.11988548910496352 C 0.14094532454981146 0.12016859296705384 0.1396176360756765 0.1215221629520908 0.13973359635061652 0.12139626496385024" fill="none" stroke="#000000" stroke-width="0.001"/>
<path d="M 0.13973359635061652 0.12139626496385024 C 0.13971388800666934 0.12146981750479416 0.13942354368230642 0.1224062921931179 0.13949709622325032 0.12227889545517724 C 0.13942354368230642 0.1224062921931179 0.138723569121349 0.12299857836008199 0.13885096585928966 0.12292502581913807 C 0.138723569121349 0.12299857836008199 0.13782123028607476 0.1231615259465042 0.1379683353679626 0.1231615259465042 C 0.13782123028607476 0.1231615259465042 0.136958308138695 0.12285147327819415 0.13708570487663566 0.12292502581913807 C 0.136958308138695 0.12285147327819415 0.1363660219717308 0.12215149871723659 0.13643957451267472 0.12227889545517724 C 0.1363660219717308 0.12215149871723659 0.13618336604136147 0.12132271242290632 0.13620307438530865 0.12139626496385024" fill="none" stroke="#000000" stroke-width="0.001"/>
<path d="M 0.13620307438530865 0.12139626496385024 C 0.13608711411036864 0.12127036697560968 0.1346317559859435 0.1196023852428732 0.13481155108602863 0.11988548910496352 C 0.1346317559859435 0.1196023852428732 0.13398169835914203 0.11784181274491652 0.13404553318428716 0.11799901861876629" fill="none" stroke="#000000" stroke-width="0.001"/>
<path d="M 0.13404553318428716 0.11799901861876629 C 0.13409818662171472 0.11784628530000354 0.13484082452440416 0.11588311493152306 0.13467737443341768 0.1161662187936134 C 0.13484082452440416 0.11588311493152306 0.13611773092968385 0.11447140173035464 0.13600693427612492 0.11460177227368223" fill="none" stroke="#000000" stroke-width="0.001"/>
</g><g transform="translate(0.3213105737601797,0.16255072779315494) rotate(0) scale(1,1) translate(-0.10433725337565573,-0.10418740031181734)"><path d="M 0.10629256868604538 0.10078614977303844 C 0.10623478163466932 0.10105900213629111 0.10562878479913024 0.1030302175268305 0.10594584637778905 0.10242326395255448 C 0.10562878479913024 0.1030302175268305 0.10388100413641245 0.10450667418053142 0.10439019921409252 0.10442787121869458 C 0.10388100413641245 0.10450667418053142 0.10255405644835593 0.10229013178283765 0.10289067591170857 0.10289608172357546 C 0.10255405644835593 0.10229013178283765 0.10237048243397663 0.10079217157426766 0.10237048243397663 0.10079217157426766 C 0.10237048243397663 0.10079217157426766 0.10322729537506121 0.10350203166431328 0.10289067591170857 0.10289608172357546 C 0.10322729537506121 0.10350203166431328 0.10442715124986249 0.10496108599274775 0.10439019921409252 0.10442787121869458 C 0.10442715124986249 0.10496108599274775 0.10281036621385636 0.10662084332638898 0.10311238812632836 0.10609537036789447 C 0.10281036621385636 0.10662084332638898 0.10248901434141588 0.10782826540328949 0.10257806773926052 0.10758070896966163" fill="none" stroke="#000000" stroke-width="0.001"/>
</g></g>
<g id="編節5">
<g transform="translate(0.3213105737601797,0.16594797413823892) rotate(0) scale(1,1) translate(-0.13796833536796266,-0.11460177227368223)"><path d="M 0.13973359635061652 0.11460177227368223 C 0.13983331333881957 0.11471910576267708 0.1410773052909409 0.11626456761750158 0.14093020020905306 0.11600977414162027 C 0.1410773052909409 0.11626456761750158 0.1415462454269553 0.11779675397114435 0.1414988573332705 0.11765929398425788" fill="none" stroke="#000000" stroke-width="0.001"/>
<path d="M 0.1414988573332705 0.11765929398425788 C 0.1414414059906399 0.11780077927072267 0.1406476256316266 0.11961191089771672 0.14080944122170322 0.11935711742183543 C 0.1406476256316266 0.11961191089771672 0.13945270600490514 0.12083012388425 0.13955707025235115 0.1207168156948335" fill="none" stroke="#000000" stroke-width="0.001"/>
<path d="M 0.13955707025235115 0.1207168156948335 C 0.13953933274279867 0.12078301298168302 0.13927802285087204 0.1216258402011743 0.13934422013772158 0.12151118313702772 C 0.13927802285087204 0.1216258402011743 0.13864804574601025 0.12215889775144197 0.13876270281015685 0.12209270046459245 C 0.13864804574601025 0.12215889775144197 0.13783594079426356 0.12230555057922199 0.1379683353679626 0.12230555057922199 C 0.13783594079426356 0.12230555057922199 0.1370593108616217 0.12202650317774293 0.13717396792576828 0.12209270046459245 C 0.1370593108616217 0.12202650317774293 0.1365262533113541 0.12139652607288114 0.13659245059820363 0.12151118313702772 C 0.1365262533113541 0.12139652607288114 0.1363618629740215 0.12065061840798398 0.13637960048357398 0.1207168156948335" fill="none" stroke="#000000" stroke-width="0.001"/>
<path d="M 0.13637960048357398 0.1207168156948335 C 0.13627523623612797 0.120603507505417 0.13496541392414543 0.11910232394595413 0.13512722951422204 0.11935711742183543 C 0.13496541392414543 0.11910232394595413 0.13438036206002418 0.11751780869779309 0.1344378134026548 0.11765929398425788" fill="none" stroke="#000000" stroke-width="0.001"/>
<path d="M 0.1344378134026548 0.11765929398425788 C 0.13448520149633958 0.11752183399737141 0.13515357560875996 0.11575498066573896 0.13500647052687215 0.11600977414162027 C 0.13515357560875996 0.11575498066573896 0.1363027913735117 0.11448443878468739 0.13620307438530865 0.11460177227368223" fill="none" stroke="#000000" stroke-width="0.001"/>
</g><g transform="translate(0.32131057376017963,0.16900549584881458) rotate(0) scale(1,1) translate(-0.10433725337565573,-0.10418740031181734)"><path d="M 0.10609703715500646 0.10112627482691638 C 0.106045028808768 0.10137184195384379 0.10549963165678276 0.10314593580532919 0.1057849870775757 0.10259967758848078 C 0.10549963165678276 0.10314593580532919 0.10392662906033673 0.10447474679365994 0.10438490463024878 0.10440382412800679 C 0.10392662906033673 0.10447474679365994 0.10273237614108599 0.10247985863573565 0.10303533365810337 0.10302521358239967 C 0.10273237614108599 0.10247985863573565 0.10256715952814453 0.10113169444802263 0.10256715952814453 0.10113169444802263 C 0.10256715952814453 0.10113169444802263 0.10333829117512075 0.1035705685290637 0.10303533365810337 0.10302521358239967 C 0.10333829117512075 0.1035705685290637 0.10441816146244173 0.10488371742465463 0.10438490463024878 0.10440382412800679 C 0.10441816146244173 0.10488371742465463 0.10296305493003625 0.10637749902493181 0.10323487465126104 0.10590457336228674 C 0.10296305493003625 0.10637749902493181 0.10267383824483994 0.10746417889414223 0.1027539863029001 0.10724137810387716" fill="none" stroke="#000000" stroke-width="0.001"/>
</g></g>
<g id="編節6">
<g transform="translate(0.32131057376017963,0.17206301755939019) rotate(0) scale(1,1) translate(-0.13796833536796266,-0.11460177227368223)"><path d="M 0.13955707025235115 0.11460177227368223 C 0.1396468155417339 0.11470737241377758 0.14076640829864304 0.11609828808311966 0.140634013724944 0.11586897395482648 C 0.14076640829864304 0.11609828808311966 0.14118845442105593 0.11747725580139809 0.14114580513673963 0.11735354181320028" fill="none" stroke="#000000" stroke-width="0.001"/>
<path d="M 0.14114580513673963 0.11735354181320028 C 0.1410940989283721 0.11748087857101859 0.1403796966052602 0.11911089703531323 0.14052533063632916 0.11888158290702006 C 0.1403796966052602 0.11911089703531323 0.13930426894121084 0.12020728872319325 0.13939819676391224 0.12010531135271839" fill="none" stroke="#000000" stroke-width="0.001"/>
<path d="M 0.13939819676391224 0.12010531135271839 C 0.13938223300531502 0.12016488891088295 0.1391470541025811 0.12092343340842512 0.13920663166074568 0.12082024205069321 C 0.1391470541025811 0.12092343340842512 0.13858007470820544 0.12140318520366601 0.13868326606593737 0.12134360764550145 C 0.13858007470820544 0.12140318520366601 0.13784918025163345 0.12153517274866801 0.1379683353679626 0.12153517274866801 C 0.13784918025163345 0.12153517274866801 0.13715021331225577 0.12128403008733689 0.1372534046699877 0.12134360764550145 C 0.13715021331225577 0.12128403008733689 0.13667046151701484 0.12071705069296129 0.13673003907517942 0.12082024205069321 C 0.13667046151701484 0.12071705069296129 0.1365225102134157 0.12004573379455383 0.1365384739720129 0.12010531135271839" fill="none" stroke="#000000" stroke-width="0.001"/>
<path d="M 0.1365384739720129 0.12010531135271839 C 0.1364445461493115 0.12000333398224353 0.13526570606852703 0.11865226877872688 0.135411340099596 0.11888158290702006 C 0.13526570606852703 0.11865226877872688 0.134739159390818 0.11722620505538196 0.13479086559918552 0.11735354181320028" fill="none" stroke="#000000" stroke-width="0.001"/>
<path d="M 0.13479086559918552 0.11735354181320028 C 0.13483351488350181 0.11722982782500246 0.1354350515846803 0.1156396598265333 0.13530265701098126 0.11586897395482648 C 0.1354350515846803 0.1156396598265333 0.1364693457729567 0.11449617213358688 0.13637960048357398 0.11460177227368223" fill="none" stroke="#000000" stroke-width="0.001"/>
</g><g transform="translate(0.3213105737601796,0.17481478709890824) rotate(0) scale(1,1) translate(-0.10433725337565573,-0.10418740031181734)"><path d="M 0.10592105877707135 0.10143238737540648 C 0.10587425126545674 0.10165339778964114 0.10538339382867001 0.10325008225597801 0.10564021370738366 0.10275844986081444 C 0.10538339382867001 0.10325008225597801 0.1039676914918686 0.10444601214547572 0.10438013950478946 0.10438218174638789 C 0.1039676914918686 0.10444601214547572 0.10289286386454288 0.10265061280334381 0.10316552562985852 0.10314143225534145 C 0.10289286386454288 0.10265061280334381 0.10274416891289567 0.10143726503440209 0.10274416891289567 0.10143726503440209 C 0.10274416891289567 0.10143726503440209 0.10343818739517416 0.10363225170733908 0.10316552562985852 0.10314143225534145 C 0.10343818739517416 0.10363225170733908 0.10441007065376312 0.10481408571337095 0.10438013950478946 0.10438218174638789 C 0.10441007065376312 0.10481408571337095 0.10310047477459822 0.10615848915362033 0.10334511252370052 0.10573285605723978 C 0.10310047477459822 0.10615848915362033 0.1028401797579215 0.10713650103590973 0.10291231301017564 0.10693598032467116" fill="none" stroke="#000000" stroke-width="0.001"/>
</g></g>
<g id="編節7">
<g transform="translate(0.3213105737601796,0.17756655663842635) rotate(0) scale(1,1) translate(-0.13796833536796266,-0.11460177227368223)"><path d="M 0.13939819676391224 0.11460177227368223 C 0.1394789675243567 0.11469681239976806 0.14048660100557492 0.11594863650217593 0.14036744588924577 0.11574225378671207 C 0.14048660100557492 0.11594863650217593 0.14086644251574676 0.1171897074486265 0.14082805815986207 0.11707836485924847" fill="none" stroke="#000000" stroke-width="0.001"/>
<path d="M 0.14082805815986207 0.11707836485924847 C 0.14078152257233129 0.11719296794128496 0.14013856048153042 0.1186599845591502 0.1402696311094925 0.11845360184368633 C 0.14013856048153042 0.1186599845591502 0.13917067558388596 0.11964673707824212 0.13925521062431723 0.11955495744481476" fill="none" stroke="#000000" stroke-width="0.001"/>
<path d="M 0.13925521062431723 0.11955495744481476 C 0.13924084324157973 0.11960857724716287 0.13902918222911914 0.12029126729495083 0.13908280203146725 0.1201983950729921 C 0.13902918222911914 0.12029126729495083 0.13851890077418122 0.12072304391066765 0.13861177299613994 0.12066942410831955 C 0.13851890077418122 0.12072304391066765 0.13786109576326638 0.12084183270116945 0.1379683353679626 0.12084183270116945 C 0.13786109576326638 0.12084183270116945 0.1372320255178265 0.12061580430597144 0.13732489773978526 0.12066942410831955 C 0.1372320255178265 0.12061580430597144 0.13680024890210957 0.12010552285103336 0.13685386870445768 0.1201983950729921 C 0.13680024890210957 0.12010552285103336 0.13666709272887048 0.11950133764246665 0.13668146011160795 0.11955495744481476" fill="none" stroke="#000000" stroke-width="0.001"/>
<path d="M 0.13668146011160795 0.11955495744481476 C 0.13659692507117668 0.11946317781138739 0.13553596899847065 0.11824721912822247 0.1356670396264327 0.11845360184368633 C 0.13553596899847065 0.11824721912822247 0.13506207698853243 0.11696376177721197 0.13510861257606321 0.11707836485924847" fill="none" stroke="#000000" stroke-width="0.001"/>
<path d="M 0.13510861257606321 0.11707836485924847 C 0.1351469969319479 0.11696702226987044 0.13568837996300848 0.11553587107124819 0.13556922484667933 0.11574225378671205 C 0.13568837996300848 0.11553587107124819 0.13661924473245737 0.11450673214759642 0.1365384739720129 0.11460177227368223" fill="none" stroke="#000000" stroke-width="0.001"/>
</g><g transform="translate(0.3213105737601795,0.1800431492239926) rotate(0) scale(1,1) translate(-0.10433725337565573,-0.10418740031181734)"><path d="M 0.10576267823692977 0.10170788866904754 C 0.1057205514764766 0.10190679804185873 0.10527877978336853 0.10334381406156194 0.10550991767421082 0.10290134490591472 C 0.10527877978336853 0.10334381406156194 0.10400464768024728 0.10442015096210991 0.10437585089187604 0.10436270360293086 C 0.10400464768024728 0.10442015096210991 0.10303730281565425 0.10280429155419113 0.10328269840443832 0.10324602906098901 C 0.10303730281565425 0.10280429155419113 0.1029034773591716 0.10171227856214361 0.1029034773591716 0.10171227856214361 C 0.1029034773591716 0.10171227856214361 0.1035280939932224 0.10368776656778689 0.10328269840443832 0.10324602906098901 C 0.1035280939932224 0.10368776656778689 0.10440278892595231 0.10475141717321562 0.10437585089187604 0.10436270360293086 C 0.10440278892595231 0.10475141717321562 0.10322415263470393 0.10596138026944006 0.103444326608896 0.10557831048269757 C 0.10322415263470393 0.10596138026944006 0.10298988711969487 0.10684159096350049 0.1030548070467236 0.10666112232338579" fill="none" stroke="#000000" stroke-width="0.001"/>
</g></g>
<g id="編節8">
<g transform="translate(0.3213105737601795,0.18251974180955888) rotate(0) scale(1,1) translate(-0.13796833536796266,-0.11460177227368223)"><path d="M 0.13925521062431723 0.11460177227368223 C 0.13932790430871725 0.11468730838715947 0.1402347744418137 0.11581395007932656 0.14012753483711746 0.11562820563540908 C 0.1402347744418137 0.11581395007932656 0.14057663180096833 0.11693091393113209 0.1405420858806721 0.11683070560069185" fill="none" stroke="#000000" stroke-width="0.001"/>
<path d="M 0.1405420858806721 0.11683070560069185 C 0.14050020385189438 0.11693384837452468 0.13992153797017365 0.11825416333060337 0.1400395015353395 0.1180684188866859 C 0.13992153797017365 0.11825416333060337 0.13905044156229357 0.11914224059778608 0.13912652309868173 0.11905963892770145" fill="none" stroke="#000000" stroke-width="0.001"/>
<path d="M 0.13912652309868173 0.11905963892770145 C 0.139113592454218 0.11910789674981476 0.13892309754300355 0.119722317792824 0.13897135536511684 0.11963873279306113 C 0.13892309754300355 0.119722317792824 0.13846384423355937 0.12011091674696914 0.13854742923332222 0.12006265892485583 C 0.13846384423355937 0.12011091674696914 0.137871819723736 0.12021782665842078 0.1379683353679626 0.12021782665842078 C 0.137871819723736 0.12021782665842078 0.13730565650284013 0.12001440110274253 0.13738924150260298 0.12006265892485583 C 0.13730565650284013 0.12001440110274253 0.13691705754869496 0.11955514779329826 0.13696531537080828 0.11963873279306113 C 0.13691705754869496 0.11955514779329826 0.1367972169927795 0.11901138110558815 0.13681014763724325 0.11905963892770145" fill="none" stroke="#000000" stroke-width="0.001"/>
<path d="M 0.13681014763724325 0.11905963892770145 C 0.13673406610085512 0.11897703725761682 0.13577920563541984 0.11788267444276843 0.13589716920058567 0.1180684188866859 C 0.13577920563541984 0.11788267444276843 0.1353527028264754 0.11672756282685902 0.13539458485525313 0.11683070560069185" fill="none" stroke="#000000" stroke-width="0.001"/>
<path d="M 0.13539458485525313 0.11683070560069185 C 0.13542913077554933 0.11673049727025162 0.1359163755035038 0.11544246119149161 0.13580913589880755 0.11562820563540908 C 0.1359163755035038 0.11544246119149161 0.13675415379600797 0.114516236160205 0.13668146011160795 0.11460177227368223" fill="none" stroke="#000000" stroke-width="0.001"/>
</g><g transform="translate(0.32131057376017946,0.1847486751365685) rotate(0) scale(1,1) translate(-0.10433725337565573,-0.10418740031181734)"><path d="M 0.10562013575080237 0.10195583983332451 C 0.10558222166639453 0.10213485826885459 0.10518462714259726 0.10342817268658748 0.10539265124435532 0.10302995044650498 C 0.10518462714259726 0.10342817268658748 0.10403790824978813 0.10439687589708063 0.10437199114025403 0.10434517327381948 C 0.10403790824978813 0.10439687589708063 0.10316729787165431 0.10294260242995376 0.10338815390155998 0.10334016618607185 C 0.10316729787165431 0.10294260242995376 0.10304685496082001 0.10195979073711098 0.10304685496082001 0.10195979073711098 C 0.10304685496082001 0.10195979073711098 0.10360900993146564 0.10373772994218994 0.10338815390155998 0.10334016618607185 C 0.10360900993146564 0.10373772994218994 0.10439623537092269 0.10469501548707577 0.10437199114025403 0.10434517327381948 C 0.10439623537092269 0.10469501548707577 0.10333546270879906 0.10578398227367783 0.10353361928557193 0.10543921946560958 C 0.10333546270879906 0.10578398227367783 0.10312462374529098 0.1065761718983322 0.10318305167961683 0.10641375012222896" fill="none" stroke="#000000" stroke-width="0.001"/>
</g></g>
<g transform="translate(0.32131057376017946,0.18697760846357808) rotate(0) scale(1,1) translate(-0.020184612282548316,-0.020184612282548316)"><path d="M 0.02018461228254831 0.018599422539472096 C 0.020435879788334454 0.018599422539472096 0.021769863246687306 0.019933731311340065 0.02169221731726518 0.01969476171262892 C 0.021769863246687306 0.019933731311340065 0.02091308375329863 0.021614749058287253 0.02111636343561383 0.021467057724005843 C 0.02091308375329863 0.021614749058287253 0.0190495814471676 0.021319366389724433 0.0192528611294828 0.021467057724005843 C 0.0190495814471676 0.021319366389724433 0.018754653177253573 0.019455792113917774 0.018677007247831445 0.01969476171262892 C 0.018754653177253573 0.019455792113917774 0.020435879788334454 0.018599422539472096 0.02018461228254831 0.018599422539472096 Z" fill="#cccccc" stroke="#000000" stroke-width="0.001"/>
</g><g transform="translate(0.32131057376017946,0.18697760846357808) rotate(0) scale(1,1) translate(-0.02639292779899103,-0.02639292779899103)"><path d="M 0.026392927798991044 0.02531353873051479 C 0.02656402113352306 0.02531353873051479 0.02747235855417783 0.02622209766399067 0.027419487806183158 0.02605937823328933 C 0.02747235855417783 0.02622209766399067 0.026888959359666446 0.02736673803773433 0.027027376774927128 0.02726617189893087 C 0.026888959359666446 0.02736673803773433 0.02562006140779431 0.027165605760127408 0.02575847882305499 0.02726617189893087 C 0.02562006140779431 0.027165605760127408 0.025419238539793613 0.02589665880258799 0.025366367791798943 0.02605937823328933 C 0.025419238539793613 0.02589665880258799 0.02656402113352306 0.02531353873051479 0.026392927798991044 0.02531353873051479 Z" fill="#cccccc" stroke="#000000" stroke-width="0.001"/>
</g><g transform="translate(0.3204760438009511,0.18718935489443791) rotate(0) scale(1,1) translate(-0.17301747436630832,-0.18476934738774106)"><path d="M 0.1715519620070864 0.18635855301437484 C 0.17163842556243572 0.18623074100517434 0.17274089455400307 0.18465122635844283 0.17258952467127844 0.1848248089039687 C 0.17274089455400307 0.18465122635844283 0.1734333069271573 0.1842297919317388 0.173368400599782 0.18427556246806417" fill="none" stroke="#000000" stroke-width="0.001"/>
<path d="M 0.173368400599782 0.18427556246806417 C 0.17333183204168182 0.1848266482224662 0.1728200223462147 0.1921584304611907 0.17292957790257968 0.1908885915208885 C 0.1728200223462147 0.1921584304611907 0.17198074692513757 0.20023238293759055 0.17205373392340234 0.1995136297516904" fill="none" stroke="#000000" stroke-width="0.001"/>
<path d="M 0.17205373392340234 0.1995136297516904 C 0.1719441216699472 0.19953128081252378 0.17055659012429006 0.19974692807434194 0.17073838688194043 0.19972544248169077 C 0.17055659012429006 0.19974692807434194 0.16979998832740278 0.19977529139532232 0.169872172831598 0.1997714568635045" fill="none" stroke="#000000" stroke-width="0.001"/>
<path d="M 0.169872172831598 0.1997714568635045 C 0.1699277243816657 0.1991324875405764 0.17067877386370103 0.19098608300093997 0.17053879143241032 0.19210382498836745 C 0.17067877386370103 0.19098608300093997 0.1716363928883094 0.18587978034987546 0.1715519620070864 0.18635855301437484" fill="none" stroke="#000000" stroke-width="0.001"/>
</g><g transform="translate(0.3221451037194078,0.18718935489443791) rotate(0) scale(1,1) translate(-0.17301747436630832,-0.18476934738774106)"><path d="M 0.17448298672553023 0.18634281830520028 C 0.17456741344646606 0.18679032680339006 0.17564792466947693 0.19282187547383733 0.17549610737676016 0.19171292028347756 C 0.17564792466947693 0.19282187547383733 0.17637218480991254 0.20031172728168778 0.17630479423813158 0.19965028058951775" fill="none" stroke="#000000" stroke-width="0.001"/>
<path d="M 0.17630479423813158 0.19965028058951775 C 0.1762326097339364 0.19964648402336152 0.1752538247147823 0.19959256875276413 0.17543858018778918 0.19960472179564281 C 0.1752538247147823 0.19959256875276413 0.17397515759323717 0.19949608759825116 0.17408772856204888 0.19950444407497359" fill="none" stroke="#000000" stroke-width="0.001"/>
<path d="M 0.17408772856204888 0.19950444407497359 C 0.17396325991658068 0.19874200985354332 0.17247567311399586 0.18908656736386803 0.1725941048164304 0.19035523341781044 C 0.17247567311399586 0.18908656736386803 0.17267258507586833 0.18377421959515272 0.17266654813283464 0.18428045142766486" fill="none" stroke="#000000" stroke-width="0.001"/>
<path d="M 0.17266654813283464 0.18428045142766486 C 0.17273145446020993 0.18432576879036325 0.17359679394406277 0.18499612368650695 0.17344542406133814 0.18482425978004566 C 0.17359679394406277 0.18499612368650695 0.17456945028087956 0.18646936484896315 0.17448298672553023 0.18634281830520028" fill="none" stroke="#000000" stroke-width="0.001"/>
</g><g transform="translate(0.32131057376017946,0.18697760846357808) rotate(0) scale(1,1) translate(-0.19551282657519264,-0.15725534279570835)"><path d="M 0.19427561416026085 0.17274541588188216 C 0.19427306084983317 0.17203981040151675 0.19428360394572933 0.1629760369562614 0.19424497443512878 0.1642781501174973 C 0.19428360394572933 0.1629760369562614 0.19478035110849576 0.1565235502661809 0.19473916828746754 0.1571200579470514" fill="none" stroke="#000000" stroke-width="0.001"/>
<path d="M 0.19473916828746754 0.1571200579470514 C 0.19480363981144463 0.15709148966240985 0.19563855443068695 0.15677600322444307 0.19551282657519264 0.1567772385313529 C 0.19563855443068695 0.15677600322444307 0.19630915888491632 0.1571325672418654 0.1962479025533991 0.15710523426413367" fill="none" stroke="#000000" stroke-width="0.001"/>
<path d="M 0.1962479025533991 0.15710523426413367 C 0.19629168162473262 0.15771269053142942 0.1968032612510356 0.16569577798454535 0.19677325140940122 0.16439470947168275 C 0.1968032612510356 0.16569577798454535 0.19659425142331233 0.17341166866405183 0.19660802065301147 0.17271805641848498" fill="none" stroke="#000000" stroke-width="0.001"/>
<path d="M 0.19660802065301147 0.17271805641848498 C 0.1965167544798599 0.17271805641848498 0.19531845936746342 0.17272033637376807 0.19551282657519264 0.17271805641848498 C 0.19531845936746342 0.17272033637376807 0.1941725131256832 0.17274769583716526 0.19427561416026085 0.17274541588188216" fill="none" stroke="#000000" stroke-width="0.001"/>
</g></g>
<g id="お下げ右">
<g id="編節1">
<g transform="translate(0.353376331897162,0.13389549078914728) rotate(0) scale(1,1) translate(-0.13796833536796266,-0.11460177227368223)"><path d="M 0.1406588718451063 0.11460177227368223 C 0.14081085628071527 0.11478060703819197 0.14270689644550916 0.11713613493763485 0.14248268507241385 0.116747789447799 C 0.14270689644550916 0.11713613493763485 0.1434216352597363 0.11947142887703856 0.14334940832224996 0.11926191815171244" fill="none" stroke="#000000" stroke-width="0.001"/>
<path d="M 0.14334940832224996 0.11926191815171244 C 0.1432618434043554 0.11947756406920185 0.14205199679711067 0.12223801465142106 0.1422986293075155 0.12184966916158521 C 0.14205199679711067 0.12223801465142106 0.14023075060488158 0.12409476360208903 0.14038981819739188 0.12392206402974258" fill="none" stroke="#000000" stroke-width="0.001"/>
<path d="M 0.14038981819739188 0.12392206402974258 C 0.14036278343203223 0.12402295914763548 0.13996450589518336 0.12530756091488346 0.14006540101307624 0.12513280544445732 C 0.13996450589518336 0.12530756091488346 0.13900432131225113 0.12612002479274906 0.13917907678267727 0.12601912967485618 C 0.13900432131225113 0.12612002479274906 0.1377665451321769 0.12634354685917182 0.13796833536796266 0.12634354685917182 C 0.1377665451321769 0.12634354685917182 0.13658283848282188 0.1259182345569633 0.13675759395324802 0.12601912967485618 C 0.13658283848282188 0.1259182345569633 0.13577037460495622 0.12495804997403119 0.1358712697228491 0.12513280544445732 C 0.13577037460495622 0.12495804997403119 0.1355198177731737 0.12382116891184969 0.13554685253853335 0.12392206402974258" fill="none" stroke="#000000" stroke-width="0.001"/>
<path d="M 0.13554685253853335 0.12392206402974258 C 0.13538778494602305 0.12374936445739614 0.13339140891800497 0.12146132367174937 0.1336380414284098 0.12184966916158521 C 0.13339140891800497 0.12146132367174937 0.1324996974957809 0.11904627223422308 0.1325872624136754 0.11926191815171247" fill="none" stroke="#000000" stroke-width="0.001"/>
<path d="M 0.1325872624136754 0.11926191815171247 C 0.13265948935116176 0.11905240742638634 0.1336781970366068 0.11635944395796315 0.1334539856635115 0.116747789447799 C 0.1336781970366068 0.11635944395796315 0.13542978332642802 0.1144229375091725 0.13527779889081906 0.11460177227368223" fill="none" stroke="#000000" stroke-width="0.001"/>
</g><g transform="translate(0.35337633189716194,0.13855563666717752) rotate(0) scale(1,1) translate(-0.10433725337565573,-0.10418740031181734)"><path d="M 0.10675040239677382 0.10884214469843498 C 0.10662824410069065 0.10850256111321158 0.10560315644404437 0.10608382980095674 0.1060174526202748 0.10680464318709461 C 0.10560315644404437 0.10608382980095674 0.10431531400299884 0.10378583122104099 0.10426462533939122 0.10451726438160774 C 0.10431531400299884 0.10378583122104099 0.10678333969568272 0.10158483717192755 0.10632158460192052 0.1024160442236941 C 0.10678333969568272 0.10158483717192755 0.10703515590196443 0.09953002207100842 0.10703515590196443 0.09953002207100842 C 0.10703515590196443 0.09953002207100842 0.10585982950815832 0.10324725127546065 0.10632158460192052 0.1024160442236941 C 0.10585982950815832 0.10324725127546065 0.10356614100786848 0.10440916704026779 0.10426462533939122 0.10451726438160774 C 0.10356614100786848 0.10440916704026779 0.1016957518930875 0.10093487639749793 0.10213067861278409 0.10176746017565433 C 0.1016957518930875 0.10093487639749793 0.10157579608928285 0.09914747863550524 0.1016550650212116 0.0995217617126694" fill="none" stroke="#000000" stroke-width="0.001"/>
</g></g>
<g id="編節2">
<g transform="translate(0.35337633189716194,0.14321578254520761) rotate(0) scale(1,1) translate(-0.13796833536796266,-0.11460177227368223)"><path d="M 0.14038981819739188 0.11460177227368223 C 0.14052660418943996 0.114762723561741 0.14223304033775455 0.11688269867123958 0.14203125010196876 0.11653318773038732 C 0.14223304033775455 0.11688269867123958 0.14287630527055892 0.11898446321670295 0.1428113010268212 0.11879590356390944" fill="none" stroke="#000000" stroke-width="0.001"/>
<path d="M 0.1428113010268212 0.11879590356390944 C 0.14273249260071613 0.1189899848896499 0.14164363065419583 0.1214743904136472 0.14186559991356018 0.12112487947279495 C 0.14164363065419583 0.1214743904136472 0.14000450908118967 0.12314546446924837 0.14014766991444894 0.12299003485413657" fill="none" stroke="#000000" stroke-width="0.001"/>
<path d="M 0.14014766991444894 0.12299003485413657 C 0.14012333862562526 0.12308084046024016 0.13976488884246127 0.12423698205076321 0.13985569444856485 0.12407970212737969 C 0.13976488884246127 0.12423698205076321 0.13890072271782233 0.12496819954084241 0.13905800264120585 0.1248773939347388 C 0.13890072271782233 0.12496819954084241 0.13778672415575546 0.12516936940062295 0.13796833536796266 0.12516936940062295 C 0.13778672415575546 0.12516936940062295 0.13672138817133592 0.12478658832863519 0.13687866809471944 0.1248773939347388 C 0.13672138817133592 0.12478658832863519 0.13599017068125688 0.12392242220399617 0.13608097628736046 0.12407970212737969 C 0.13599017068125688 0.12392242220399617 0.13576466953265262 0.12289922924803297 0.1357890008214763 0.12299003485413657" fill="none" stroke="#000000" stroke-width="0.001"/>
<path d="M 0.1357890008214763 0.12299003485413657 C 0.13564583998821703 0.12283460523902476 0.1338491015630008 0.12077536853194269 0.13407107082236516 0.12112487947279495 C 0.1338491015630008 0.12077536853194269 0.1330465612829991 0.11860182223816898 0.13312536970910419 0.11879590356390944" fill="none" stroke="#000000" stroke-width="0.001"/>
<path d="M 0.13312536970910419 0.11879590356390944 C 0.1331903739528419 0.11860734391111594 0.13410721086974237 0.11618367678953509 0.1339054206339566 0.11653318773038736 C 0.13410721086974237 0.11618367678953509 0.1356836385305814 0.11444082098562347 0.13554685253853335 0.11460177227368223" fill="none" stroke="#000000" stroke-width="0.001"/>
</g><g transform="translate(0.3533763318971619,0.14740991383543484) rotate(0) scale(1,1) translate(-0.10433725337565573,-0.10418740031181734)"><path d="M 0.10650908749466204 0.10837667025977321 C 0.10639914502818718 0.10807104503307216 0.10547656613720548 0.10589418685204278 0.10584943269581287 0.10654291889956687 C 0.10547656613720548 0.10589418685204278 0.10431750794026452 0.10382598813011862 0.10427188814301767 0.1044842779746287 C 0.10431750794026452 0.10382598813011862 0.10653873106367996 0.10184509348591653 0.10612315147929399 0.10259317983250642 C 0.10653873106367996 0.10184509348591653 0.10676536564933349 0.09999575989508931 0.10676536564933349 0.09999575989508931 C 0.10676536564933349 0.09999575989508931 0.10570757189490802 0.10334126617909631 0.10612315147929399 0.10259317983250642 C 0.10570757189490802 0.10334126617909631 0.10364325224464722 0.10438699036742272 0.10427188814301767 0.1044842779746287 C 0.10364325224464722 0.10438699036742272 0.10195990204134435 0.10126012878892983 0.1023513360890713 0.10200945418927057 C 0.10195990204134435 0.10126012878892983 0.10185194181792016 0.0996514708031365 0.10192328385665604 0.09998832557258422" fill="none" stroke="#000000" stroke-width="0.001"/>
</g></g>
<g id="編節3">
<g transform="translate(0.3533763318971619,0.15160404512566195) rotate(0) scale(1,1) translate(-0.13796833536796266,-0.11460177227368223)"><path d="M 0.14014766991444894 0.11460177227368223 C 0.1402707773072922 0.11474662843293512 0.14180656984077528 0.11665460603148387 0.14162495862856808 0.11634004618471683 C 0.14180656984077528 0.11665460603148387 0.14238550828029928 0.11854619412240089 0.14232700446093535 0.11837649043488672" fill="none" stroke="#000000" stroke-width="0.001"/>
<path d="M 0.14232700446093535 0.11837649043488672 C 0.14225607687744077 0.11855116362805314 0.1412761011255725 0.12078712859965067 0.14147587345900042 0.12047256875288363 C 0.1412761011255725 0.12078712859965067 0.1398008917098671 0.12229109524969174 0.13992973645980042 0.12215120859609112" fill="none" stroke="#000000" stroke-width="0.001"/>
<path d="M 0.13992973645980042 0.12215120859609112 C 0.13990783829985912 0.12223293364158436 0.13958523349501142 0.12327346107305513 0.13966695854050468 0.12313190914200996 C 0.13958523349501142 0.12327346107305513 0.1388074839828363 0.12393155681412645 0.13894903591388147 0.1238498317686332 C 0.1388074839828363 0.12393155681412645 0.13780488527697618 0.12411260968792882 0.13796833536796266 0.12411260968792882 C 0.13780488527697618 0.12411260968792882 0.1368460828909986 0.12376810672313997 0.13698763482204376 0.1238498317686332 C 0.1368460828909986 0.12376810672313997 0.1361879871499274 0.12299035721096478 0.1362697121954206 0.12313190914200996 C 0.1361879871499274 0.12299035721096478 0.13598503611618368 0.12206948355059788 0.13600693427612498 0.12215120859609112" fill="none" stroke="#000000" stroke-width="0.001"/>
<path d="M 0.13600693427612498 0.12215120859609112 C 0.13587808952619165 0.1220113219424905 0.134261024943497 0.1201580089061166 0.13446079727692492 0.12047256875288363 C 0.134261024943497 0.1201580089061166 0.13353873869149535 0.11820181724172031 0.13360966627498994 0.11837649043488672" fill="none" stroke="#000000" stroke-width="0.001"/>
<path d="M 0.13360966627498994 0.11837649043488672 C 0.1336681700943539 0.11820678674737256 0.1344933233195644 0.11602548633794979 0.1343117121073572 0.11634004618471683 C 0.1344933233195644 0.11602548633794979 0.13591210821431957 0.11445691611442935 0.1357890008214763 0.11460177227368223" fill="none" stroke="#000000" stroke-width="0.001"/>
</g><g transform="translate(0.35337633189716183,0.15537876328686645) rotate(0) scale(1,1) translate(-0.10433725337565573,-0.10418740031181734)"><path d="M 0.10629190408276137 0.10795774326497763 C 0.10619295586293401 0.10768268056094668 0.10536263486105055 0.10572350819802029 0.10569821476379719 0.10630736704079195 C 0.10536263486105055 0.10572350819802029 0.10431948248380365 0.10386212934828852 0.10427842466628148 0.1044545902083476 C 0.10431948248380365 0.10386212934828852 0.10631858329487756 0.10207932416850657 0.10594456166893018 0.10275260188043749 C 0.10631858329487756 0.10207932416850657 0.10652255442196577 0.10041492393676214 0.10652255442196577 0.10041492393676214 C 0.10652255442196577 0.10041492393676214 0.1055705400429828 0.1034258795923684 0.10594456166893018 0.10275260188043749 C 0.1055705400429828 0.1034258795923684 0.10371265235774807 0.10436703136186223 0.10427842466628148 0.1044545902083476 C 0.10371265235774807 0.10436703136186223 0.10219763717477544 0.10155285594121863 0.10254992781772969 0.10222724880152531 C 0.10219763717477544 0.10155285594121863 0.10210047297369368 0.10010506375400449 0.10216468080855597 0.10040823304650746" fill="none" stroke="#000000" stroke-width="0.001"/>
</g></g>
<g id="編節4">
<g transform="translate(0.35337633189716183,0.15915348144807084) rotate(0) scale(1,1) translate(-0.13796833536796266,-0.11460177227368223)"><path d="M 0.13992973645980042 0.11460177227368223 C 0.14004053311335934 0.11473214281700983 0.14142274639349403 0.11644932265570374 0.14125929630250755 0.1161662187936134 C 0.14142274639349403 0.11644932265570374 0.1419437909890656 0.11815175193752903 0.14189113755163804 0.11799901861876629" fill="none" stroke="#000000" stroke-width="0.001"/>
<path d="M 0.14189113755163804 0.11799901861876629 C 0.14182730272649294 0.11815622449261605 0.14094532454981157 0.12016859296705384 0.14112511964989669 0.11988548910496352 C 0.14094532454981157 0.12016859296705384 0.13961763607567657 0.1215221629520908 0.13973359635061658 0.12139626496385024" fill="none" stroke="#000000" stroke-width="0.001"/>
<path d="M 0.13973359635061658 0.12139626496385024 C 0.1397138880066694 0.12146981750479416 0.13942354368230656 0.1224062921931179 0.13949709622325046 0.12227889545517724 C 0.13942354368230656 0.1224062921931179 0.13872356912134906 0.12299857836008199 0.13885096585928972 0.12292502581913807 C 0.13872356912134906 0.12299857836008199 0.13782123028607482 0.1231615259465042 0.13796833536796266 0.1231615259465042 C 0.13782123028607482 0.1231615259465042 0.13695830813869508 0.12285147327819415 0.1370857048766357 0.12292502581913807 C 0.13695830813869508 0.12285147327819415 0.13636602197173103 0.12215149871723659 0.13643957451267497 0.12227889545517724 C 0.13636602197173103 0.12215149871723659 0.1361833660413615 0.12132271242290632 0.13620307438530868 0.12139626496385024" fill="none" stroke="#000000" stroke-width="0.001"/>
<path d="M 0.13620307438530868 0.12139626496385024 C 0.1360871141103687 0.12127036697560968 0.1346317559859436 0.1196023852428732 0.1348115510860287 0.11988548910496352 C 0.1346317559859436 0.1196023852428732 0.1339816983591421 0.11784181274491652 0.13404553318428722 0.11799901861876629" fill="none" stroke="#000000" stroke-width="0.001"/>
<path d="M 0.13404553318428722 0.11799901861876629 C 0.13409818662171477 0.11784628530000354 0.13484082452440424 0.11588311493152306 0.13467737443341776 0.1161662187936134 C 0.13484082452440424 0.11588311493152306 0.1361177309296839 0.11447140173035464 0.13600693427612498 0.11460177227368223" fill="none" stroke="#000000" stroke-width="0.001"/>
</g><g transform="translate(0.3533763318971618,0.16255072779315488) rotate(0) scale(1,1) translate(-0.10433725337565573,-0.10418740031181734)"><path d="M 0.10609643901205082 0.10758070896966163 C 0.1060073856142062 0.10733315253603376 0.10526009671251108 0.10556989740939997 0.10556211862498305 0.10609537036789447 C 0.10526009671251108 0.10556989740939997 0.1043212595729889 0.10389465644464141 0.10428430753721894 0.10442787121869458 C 0.1043212595729889 0.10389465644464141 0.10612045030295542 0.10229013178283765 0.10578383083960279 0.10289608172357546 C 0.10612045030295542 0.10229013178283765 0.10630402431733471 0.10079217157426766 0.10630402431733471 0.10079217157426766 C 0.10630402431733471 0.10079217157426766 0.10544721137625016 0.10350203166431328 0.10578383083960279 0.10289608172357546 C 0.10544721137625016 0.10350203166431328 0.10377511245953887 0.10434906825685775 0.10428430753721894 0.10442787121869458 C 0.10377511245953887 0.10434906825685775 0.1024115987948635 0.10181631037827846 0.10272866037352234 0.10242326395255448 C 0.1024115987948635 0.10181631037827846 0.1023241510138899 0.10051329740978578 0.10238193806526596 0.10078614977303844" fill="none" stroke="#000000" stroke-width="0.001"/>
</g></g>
<g id="編節5">
<g transform="translate(0.3533763318971618,0.16594797413823886) rotate(0) scale(1,1) translate(-0.13796833536796266,-0.11460177227368223)"><path d="M 0.13973359635061658 0.11460177227368223 C 0.13983331333881963 0.11471910576267708 0.14107730529094095 0.11626456761750158 0.1409302002090531 0.11600977414162027 C 0.14107730529094095 0.11626456761750158 0.14154624542695537 0.11779675397114435 0.14149885733327058 0.11765929398425788" fill="none" stroke="#000000" stroke-width="0.001"/>
<path d="M 0.14149885733327058 0.11765929398425788 C 0.14144140599063998 0.11780077927072267 0.14064762563162672 0.11961191089771672 0.14080944122170333 0.11935711742183543 C 0.14064762563162672 0.11961191089771672 0.13945270600490517 0.12083012388425 0.13955707025235117 0.1207168156948335" fill="none" stroke="#000000" stroke-width="0.001"/>
<path d="M 0.13955707025235117 0.1207168156948335 C 0.13953933274279873 0.12078301298168302 0.13927802285087212 0.1216258402011743 0.13934422013772166 0.12151118313702772 C 0.13927802285087212 0.1216258402011743 0.1386480457460103 0.12215889775144197 0.1387627028101569 0.12209270046459245 C 0.1386480457460103 0.12215889775144197 0.13783594079426362 0.12230555057922199 0.13796833536796266 0.12230555057922199 C 0.13783594079426362 0.12230555057922199 0.13705931086162176 0.12202650317774293 0.13717396792576836 0.12209270046459245 C 0.13705931086162176 0.12202650317774293 0.13652625331135412 0.12139652607288114 0.13659245059820366 0.12151118313702772 C 0.13652625331135412 0.12139652607288114 0.13636186297402156 0.12065061840798398 0.13637960048357403 0.1207168156948335" fill="none" stroke="#000000" stroke-width="0.001"/>
<path d="M 0.13637960048357403 0.1207168156948335 C 0.13627523623612803 0.120603507505417 0.13496541392414546 0.11910232394595413 0.13512722951422207 0.11935711742183543 C 0.13496541392414546 0.11910232394595413 0.1343803620600242 0.11751780869779309 0.13443781340265482 0.11765929398425788" fill="none" stroke="#000000" stroke-width="0.001"/>
<path d="M 0.13443781340265482 0.11765929398425788 C 0.1344852014963396 0.11752183399737141 0.13515357560876007 0.11575498066573896 0.13500647052687226 0.11600977414162027 C 0.13515357560876007 0.11575498066573896 0.13630279137351173 0.11448443878468739 0.13620307438530868 0.11460177227368223" fill="none" stroke="#000000" stroke-width="0.001"/>
</g><g transform="translate(0.3533763318971617,0.16900549584881452) rotate(0) scale(1,1) translate(-0.10433725337565573,-0.10418740031181734)"><path d="M 0.10592052044841131 0.10724137810387716 C 0.10584037239035114 0.10701857731361208 0.10516781237882551 0.10543164769964168 0.10543963210005029 0.10590457336228674 C 0.10516781237882551 0.10543164769964168 0.10432285895325556 0.10392393083135895 0.1042896021210626 0.10440382412800679 C 0.10432285895325556 0.10392393083135895 0.10594213061022542 0.10247985863573565 0.10563917309320804 0.10302521358239967 C 0.10594213061022542 0.10247985863573565 0.10610734722316686 0.10113169444802263 0.10610734722316686 0.10113169444802263 C 0.10610734722316686 0.10113169444802263 0.10533621557619066 0.1035705685290637 0.10563917309320804 0.10302521358239967 C 0.10533621557619066 0.1035705685290637 0.10383132655115054 0.10433290146235365 0.1042896021210626 0.10440382412800679 C 0.10383132655115054 0.10433290146235365 0.10260416425294272 0.10205341937163237 0.10288951967373566 0.10259967758848078 C 0.10260416425294272 0.10205341937163237 0.10252546125006651 0.10088070769998898 0.10257746959630495 0.10112627482691638" fill="none" stroke="#000000" stroke-width="0.001"/>
</g></g>
<g id="編節6">
<g transform="translate(0.3533763318971617,0.17206301755939013) rotate(0) scale(1,1) translate(-0.13796833536796266,-0.11460177227368223)"><path d="M 0.13955707025235117 0.11460177227368223 C 0.13964681554173392 0.11470737241377758 0.14076640829864315 0.11609828808311966 0.1406340137249441 0.11586897395482648 C 0.14076640829864315 0.11609828808311966 0.1411884544210561 0.11747725580139809 0.1411458051367398 0.11735354181320028" fill="none" stroke="#000000" stroke-width="0.001"/>
<path d="M 0.1411458051367398 0.11735354181320028 C 0.14109409892837224 0.11748087857101859 0.14037969660526026 0.11911089703531323 0.14052533063632922 0.11888158290702006 C 0.14037969660526026 0.11911089703531323 0.13930426894121092 0.12020728872319325 0.13939819676391232 0.12010531135271839" fill="none" stroke="#000000" stroke-width="0.001"/>
<path d="M 0.13939819676391232 0.12010531135271839 C 0.1393822330053151 0.12016488891088295 0.13914705410258119 0.12092343340842512 0.13920663166074576 0.12082024205069321 C 0.13914705410258119 0.12092343340842512 0.13858007470820563 0.12140318520366601 0.13868326606593756 0.12134360764550145 C 0.13858007470820563 0.12140318520366601 0.1378491802516335 0.12153517274866801 0.13796833536796266 0.12153517274866801 C 0.1378491802516335 0.12153517274866801 0.1371502133122559 0.12128403008733689 0.13725340466998784 0.12134360764550145 C 0.1371502133122559 0.12128403008733689 0.13667046151701498 0.12071705069296129 0.13673003907517955 0.12082024205069321 C 0.13667046151701498 0.12071705069296129 0.13652251021341574 0.12004573379455383 0.13653847397201296 0.12010531135271839" fill="none" stroke="#000000" stroke-width="0.001"/>
<path d="M 0.13653847397201296 0.12010531135271839 C 0.13644454614931156 0.12000333398224353 0.13526570606852725 0.11865226877872688 0.1354113400995962 0.11888158290702006 C 0.13526570606852725 0.11865226877872688 0.13473915939081801 0.11722620505538196 0.13479086559918557 0.11735354181320028" fill="none" stroke="#000000" stroke-width="0.001"/>
<path d="M 0.13479086559918557 0.11735354181320028 C 0.1348335148835019 0.11722982782500246 0.1354350515846804 0.1156396598265333 0.13530265701098135 0.11586897395482648 C 0.1354350515846804 0.1156396598265333 0.13646934577295675 0.11449617213358688 0.13637960048357403 0.11460177227368223" fill="none" stroke="#000000" stroke-width="0.001"/>
</g><g transform="translate(0.35337633189716167,0.1748147870989082) rotate(0) scale(1,1) translate(-0.10433725337565573,-0.10418740031181734)"><path d="M 0.10576219374113578 0.10693598032467116 C 0.10569006048888163 0.1067354596134326 0.10508475647850853 0.10530722296085923 0.10532939422761084 0.10573285605723978 C 0.10508475647850853 0.10530722296085923 0.10432429839549553 0.10395027777940483 0.10429436724652187 0.10438218174638789 C 0.10432429839549553 0.10395027777940483 0.10578164288676842 0.10265061280334381 0.10550898112145278 0.10314143225534145 C 0.10578164288676842 0.10265061280334381 0.10593033783841574 0.10143726503440209 0.10593033783841574 0.10143726503440209 C 0.10593033783841574 0.10143726503440209 0.10523631935613714 0.10363225170733908 0.10550898112145278 0.10314143225534145 C 0.10523631935613714 0.10363225170733908 0.10388191923360102 0.10431835134730005 0.10429436724652187 0.10438218174638789 C 0.10388191923360102 0.10431835134730005 0.10277747316521403 0.10226681746565086 0.10303429304392768 0.10275844986081444 C 0.10277747316521403 0.10226681746565086 0.1027066404626254 0.10121137696117183 0.10275344797424 0.10143238737540648" fill="none" stroke="#000000" stroke-width="0.001"/>
</g></g>
<g id="編節7">
<g transform="translate(0.35337633189716167,0.1775665566384263) rotate(0) scale(1,1) translate(-0.13796833536796266,-0.11460177227368223)"><path d="M 0.13939819676391232 0.11460177227368223 C 0.1394789675243568 0.11469681239976805 0.14048660100557503 0.1159486365021759 0.14036744588924588 0.11574225378671205 C 0.14048660100557503 0.1159486365021759 0.1408664425157468 0.1171897074486265 0.1408280581598621 0.11707836485924847" fill="none" stroke="#000000" stroke-width="0.001"/>
<path d="M 0.1408280581598621 0.11707836485924847 C 0.1407815225723313 0.11719296794128496 0.14013856048153053 0.1186599845591502 0.1402696311094926 0.11845360184368633 C 0.14013856048153053 0.1186599845591502 0.13917067558388607 0.11964673707824212 0.13925521062431734 0.11955495744481476" fill="none" stroke="#000000" stroke-width="0.001"/>
<path d="M 0.13925521062431734 0.11955495744481476 C 0.13924084324157984 0.11960857724716287 0.13902918222911925 0.12029126729495083 0.13908280203146736 0.1201983950729921 C 0.13902918222911925 0.12029126729495083 0.13851890077418125 0.12072304391066765 0.13861177299613997 0.12066942410831955 C 0.13851890077418125 0.12072304391066765 0.13786109576326644 0.12084183270116945 0.13796833536796266 0.12084183270116945 C 0.13786109576326644 0.12084183270116945 0.13723202551782657 0.12061580430597144 0.1373248977397853 0.12066942410831955 C 0.13723202551782657 0.12061580430597144 0.13680024890210976 0.12010552285103336 0.13685386870445787 0.1201983950729921 C 0.13680024890210976 0.12010552285103336 0.13666709272887048 0.11950133764246665 0.13668146011160798 0.11955495744481476" fill="none" stroke="#000000" stroke-width="0.001"/>
<path d="M 0.13668146011160798 0.11955495744481476 C 0.1365969250711767 0.11946317781138739 0.13553596899847073 0.11824721912822247 0.13566703962643278 0.11845360184368633 C 0.13553596899847073 0.11824721912822247 0.1350620769885325 0.11696376177721197 0.1351086125760633 0.11707836485924847" fill="none" stroke="#000000" stroke-width="0.001"/>
<path d="M 0.1351086125760633 0.11707836485924847 C 0.13514699693194798 0.11696702226987044 0.1356883799630085 0.11553587107124821 0.13556922484667935 0.11574225378671207 C 0.1356883799630085 0.11553587107124821 0.13661924473245743 0.11450673214759641 0.13653847397201296 0.11460177227368223" fill="none" stroke="#000000" stroke-width="0.001"/>
</g><g transform="translate(0.3533763318971616,0.18004314922399253) rotate(0) scale(1,1) translate(-0.10433725337565573,-0.10418740031181734)"><path d="M 0.10561969970458775 0.10666112232338579 C 0.105554779777559 0.10648065368327109 0.10501000616822322 0.10519524069595508 0.1052301801424153 0.10557831048269757 C 0.10501000616822322 0.10519524069595508 0.10432559389351158 0.1039739900326461 0.10429865585943528 0.10436270360293086 C 0.10432559389351158 0.1039739900326461 0.10563720393565718 0.10280429155419113 0.1053918083468731 0.10324602906098901 C 0.10563720393565718 0.10280429155419113 0.10577102939213974 0.10171227856214361 0.10577102939213974 0.10171227856214361 C 0.10577102939213974 0.10171227856214361 0.10514641275808903 0.10368776656778689 0.1053918083468731 0.10324602906098901 C 0.10514641275808903 0.10368776656778689 0.1039274526478065 0.10430525624375181 0.10429865585943528 0.10436270360293086 C 0.1039274526478065 0.10430525624375181 0.10293345118625818 0.1024588757502675 0.10316458907710047 0.10290134490591472 C 0.10293345118625818 0.1024588757502675 0.10286970175392844 0.10150897929623634 0.10291182851438159 0.10170788866904754" fill="none" stroke="#000000" stroke-width="0.001"/>
</g></g>
<g id="編節8">
<g transform="translate(0.3533763318971616,0.18251974180955882) rotate(0) scale(1,1) translate(-0.13796833536796266,-0.11460177227368223)"><path d="M 0.13925521062431734 0.11460177227368223 C 0.13932790430871736 0.11468730838715947 0.14023477444181376 0.11581395007932656 0.1401275348371175 0.11562820563540908 C 0.14023477444181376 0.11581395007932656 0.14057663180096838 0.11693091393113209 0.14054208588067216 0.11683070560069185" fill="none" stroke="#000000" stroke-width="0.001"/>
<path d="M 0.14054208588067216 0.11683070560069185 C 0.14050020385189443 0.11693384837452468 0.13992153797017373 0.11825416333060337 0.1400395015353396 0.1180684188866859 C 0.13992153797017373 0.11825416333060337 0.13905044156229374 0.11914224059778608 0.13912652309868187 0.11905963892770145" fill="none" stroke="#000000" stroke-width="0.001"/>
<path d="M 0.13912652309868187 0.11905963892770145 C 0.13911359245421814 0.11910789674981476 0.13892309754300375 0.119722317792824 0.13897135536511704 0.11963873279306113 C 0.13892309754300375 0.119722317792824 0.13846384423355948 0.12011091674696914 0.13854742923332233 0.12006265892485583 C 0.13846384423355948 0.12011091674696914 0.13787181972373605 0.12021782665842078 0.13796833536796266 0.12021782665842078 C 0.13787181972373605 0.12021782665842078 0.13730565650284018 0.12001440110274253 0.13738924150260304 0.12006265892485583 C 0.13730565650284018 0.12001440110274253 0.136917057548695 0.11955514779329826 0.1369653153708083 0.11963873279306113 C 0.136917057548695 0.11955514779329826 0.13679721699277964 0.11901138110558815 0.1368101476372434 0.11905963892770145" fill="none" stroke="#000000" stroke-width="0.001"/>
<path d="M 0.1368101476372434 0.11905963892770145 C 0.13673406610085526 0.11897703725761682 0.13577920563541995 0.11788267444276843 0.1358971692005858 0.1180684188866859 C 0.13577920563541995 0.11788267444276843 0.1353527028264755 0.11672756282685902 0.1353945848552532 0.11683070560069185" fill="none" stroke="#000000" stroke-width="0.001"/>
<path d="M 0.1353945848552532 0.11683070560069185 C 0.1354291307755494 0.11673049727025162 0.13591637550350397 0.11544246119149161 0.13580913589880775 0.11562820563540908 C 0.13591637550350397 0.11544246119149161 0.136754153796008 0.114516236160205 0.13668146011160798 0.11460177227368223" fill="none" stroke="#000000" stroke-width="0.001"/>
</g><g transform="translate(0.35337633189716156,0.18474867513656845) rotate(0) scale(1,1) translate(-0.10433725337565573,-0.10418740031181734)"><path d="M 0.10549145507169455 0.10641375012222896 C 0.10543302713736868 0.10625132834612573 0.1049427308889665 0.10509445665754133 0.10514088746573937 0.10543921946560958 C 0.1049427308889665 0.10509445665754133 0.104326759841726 0.10399533106056319 0.10430251561105733 0.10434517327381948 C 0.104326759841726 0.10399533106056319 0.10550720887965703 0.10294260242995376 0.10528635284975137 0.10334016618607185 C 0.10550720887965703 0.10294260242995376 0.10562765179049131 0.10195979073711098 0.10562765179049131 0.10195979073711098 C 0.10562765179049131 0.10195979073711098 0.1050654968198457 0.10373772994218994 0.10528635284975137 0.10334016618607185 C 0.1050654968198457 0.10373772994218994 0.10396843272059143 0.10429347065055833 0.10430251561105733 0.10434517327381948 C 0.10396843272059143 0.10429347065055833 0.10307383140519792 0.10263172820642248 0.10328185550695598 0.10302995044650498 C 0.10307383140519792 0.10263172820642248 0.10301645691610115 0.10177682139779444 0.10305437100050897 0.10195583983332451" fill="none" stroke="#000000" stroke-width="0.001"/>
</g></g>
<g transform="translate(0.35337633189716156,0.18697760846357803) rotate(0) scale(1,1) translate(-0.020184612282548316,-0.020184612282548316)"><path d="M 0.02169221731726521 0.01969476171262892 C 0.021769863246687338 0.019933731311340065 0.020913083753298624 0.021614749058287253 0.021116363435613822 0.021467057724005843 C 0.020913083753298624 0.021614749058287253 0.01904958144716762 0.021319366389724433 0.01925286112948282 0.021467057724005843 C 0.01904958144716762 0.021319366389724433 0.018754653177253548 0.019455792113917774 0.018677007247831424 0.01969476171262892 C 0.018754653177253548 0.019455792113917774 0.020435879788334464 0.018599422539472096 0.020184612282548316 0.018599422539472096 C 0.020435879788334464 0.018599422539472096 0.021769863246687338 0.019933731311340065 0.02169221731726521 0.01969476171262892 Z" fill="#cccccc" stroke="#000000" stroke-width="0.001"/>
</g><g transform="translate(0.35337633189716156,0.18697760846357803) rotate(0) scale(1,1) translate(-0.02639292779899103,-0.02639292779899103)"><path d="M 0.027419487806183127 0.02605937823328933 C 0.027472358554177796 0.02622209766399067 0.026888959359666405 0.02736673803773433 0.027027376774927083 0.02726617189893087 C 0.026888959359666405 0.02736673803773433 0.025620061407794315 0.027165605760127408 0.025758478823054994 0.02726617189893087 C 0.025620061407794315 0.027165605760127408 0.025419238539793613 0.02589665880258799 0.025366367791798943 0.02605937823328933 C 0.025419238539793613 0.02589665880258799 0.026564021133523043 0.02531353873051479 0.02639292779899103 0.02531353873051479 C 0.026564021133523043 0.02531353873051479 0.027472358554177796 0.02622209766399067 0.027419487806183127 0.02605937823328933 Z" fill="#cccccc" stroke="#000000" stroke-width="0.001"/>
</g><g transform="translate(0.35421086185638995,0.18718935489443786) rotate(0) scale(1,1) translate(-0.17301747436630832,-0.18476934738774106)"><path d="M 0.17448298672553025 0.18635855301437484 C 0.17456741760675326 0.18683732567887423 0.17563613973149714 0.19322156697579493 0.17549615730020643 0.19210382498836745 C 0.17563613973149714 0.19322156697579493 0.1762183274510863 0.2004104261864326 0.17616277590101861 0.1997714568635045" fill="none" stroke="#000000" stroke-width="0.001"/>
<path d="M 0.17616277590101861 0.1997714568635045 C 0.17609059139682343 0.19976762233168668 0.17511476509302587 0.1997039568890396 0.17529656185067624 0.19972544248169077 C 0.17511476509302587 0.1997039568890396 0.173871602555759 0.19949597869085703 0.1739812148092142 0.1995136297516904" fill="none" stroke="#000000" stroke-width="0.001"/>
<path d="M 0.1739812148092142 0.1995136297516904 C 0.17390822781094942 0.19879487656579026 0.17299581527367194 0.1896187525805863 0.1731053708300369 0.1908885915208885 C 0.17299581527367194 0.1896187525805863 0.17262997957473444 0.18372447671366215 0.17266654813283464 0.18427556246806417" fill="none" stroke="#000000" stroke-width="0.001"/>
<path d="M 0.17266654813283464 0.18427556246806417 C 0.17273145446020993 0.18432133300438955 0.17359679394406272 0.1849983914494946 0.1734454240613381 0.1848248089039687 C 0.17359679394406272 0.1849983914494946 0.1745694502808796 0.18648636502357535 0.17448298672553025 0.18635855301437484" fill="none" stroke="#000000" stroke-width="0.001"/>
</g><g transform="translate(0.35254180193793316,0.18718935489443786) rotate(0) scale(1,1) translate(-0.17301747436630832,-0.18476934738774106)"><path d="M 0.17155196200708636 0.18634281830520028 C 0.1716384255624357 0.1862162717614374 0.17274089455400302 0.18465239587358437 0.1725895246712784 0.18482425978004566 C 0.17274089455400302 0.18465239587358437 0.17343330692715733 0.18423513406496647 0.17336840059978204 0.18428045142766486" fill="none" stroke="#000000" stroke-width="0.001"/>
<path d="M 0.17336840059978204 0.18428045142766486 C 0.1733744375428157 0.184786683260177 0.1733224122137516 0.19162389947175285 0.17344084391618614 0.19035523341781044 C 0.1733224122137516 0.19162389947175285 0.1718227515250994 0.20026687829640386 0.17194722017056763 0.19950444407497359" fill="none" stroke="#000000" stroke-width="0.001"/>
<path d="M 0.17194722017056763 0.19950444407497359 C 0.17183464920175595 0.199512800551696 0.17041161307182048 0.1996168748385215 0.17059636854482738 0.19960472179564281 C 0.17041161307182048 0.1996168748385215 0.16965796999028987 0.199654077155674 0.16973015449448506 0.19965028058951775" fill="none" stroke="#000000" stroke-width="0.001"/>
<path d="M 0.16973015449448506 0.19965028058951775 C 0.16979754506626601 0.19898883389734773 0.1706906586485733 0.19060396509311778 0.17053884135585654 0.19171292028347756 C 0.1706906586485733 0.19060396509311778 0.17163638872802217 0.1858953098070105 0.17155196200708636 0.18634281830520028" fill="none" stroke="#000000" stroke-width="0.001"/>
</g><g transform="translate(0.35337633189716156,0.18697760846357803) rotate(0) scale(1,1) translate(-0.19551282657519264,-0.15725534279570835)"><path d="M 0.19675003899012447 0.17274541588188216 C 0.19664693795554683 0.17274313592659907 0.19531845936746342 0.17271577646320188 0.19551282657519264 0.17271805641848498 C 0.19531845936746342 0.17271577646320188 0.19432636632422218 0.17271805641848498 0.19441763249737376 0.17271805641848498" fill="none" stroke="#000000" stroke-width="0.001"/>
<path d="M 0.19441763249737376 0.17271805641848498 C 0.19440386326767461 0.17202444417291812 0.19428241158261836 0.16309364095882015 0.194252401740984 0.16439470947168275 C 0.19428241158261836 0.16309364095882015 0.19482152966831975 0.15649777799683792 0.19477775059698624 0.15710523426413367" fill="none" stroke="#000000" stroke-width="0.001"/>
<path d="M 0.19477775059698624 0.15710523426413367 C 0.19483900692850345 0.15707790128640195 0.19563855443068692 0.1567784738382627 0.19551282657519264 0.1567772385313529 C 0.19563855443068692 0.1567784738382627 0.19635095638689465 0.15714862623169293 0.19628648486291758 0.1571200579470514" fill="none" stroke="#000000" stroke-width="0.001"/>
<path d="M 0.19628648486291758 0.1571200579470514 C 0.19632766768394583 0.15771656562792188 0.19681930822585708 0.1655802632787332 0.1967806787152565 0.1642781501174973 C 0.19681930822585708 0.1655802632787332 0.1967474856796968 0.17345102136224758 0.19675003899012447 0.17274541588188216" fill="none" stroke="#000000" stroke-width="0.001"/>
</g></g>
</svg>
