<?xml version="1.0" encoding="UTF-8"?>
<svg xmlns="http://www.w3.org/2000/svg" viewBox="0 0 1 1">
<g transform="translate(0.3373434528286707,0.07847599559563229) rotate(0) scale(1,1) translate(-0.2178778082444383,-0.21061995408824444)"><path d="M 0.2456020006120999 0.23378664862188522 C 0.24529247248894492 0.23493027155705123 0.24082127081227234 0.2500879204430701 0.24188766313423996 0.2475101238438775 C 0.24082127081227234 0.2500879204430701 0.2308044715076716 0.2669420916363424 0.23280529274848838 0.2647202078121963 C 0.2308044715076716 0.2669420916363424 0.21538989416043028 0.27417272973363077 0.2178778082444386 0.27417272973363077 C 0.21538989416043028 0.27417272973363077 0.200949502499572 0.2624983239880503 0.2029503237403888 0.2647202078121964 C 0.200949502499572 0.2624983239880503 0.19280156103266954 0.24493232724468494 0.19386795335463716 0.24751012384387755 C 0.19280156103266954 0.24493232724468494 0.18984408775362221 0.23264302568671918 0.1901536158767772 0.23378664862188522" fill="none" stroke="#000000" stroke-width="0.001"/>
<path d="M 0.1901536158767772 0.23378664862188522 C 0.1904631439999322 0.23264302568671918 0.19502312803662308 0.2180823603714842 0.1938679533546372 0.22006317339989281 C 0.19502312803662308 0.2180823603714842 0.20601653330142475 0.20887326934581574 0.20401571206060795 0.21001689228098178 C 0.20601653330142475 0.20887326934581574 0.22018815760841043 0.20633969817790035 0.21787780824443864 0.20633969817790035 C 0.22018815760841043 0.20633969817790035 0.2337407256690861 0.21116051521614781 0.23173990442826933 0.21001689228098178 C 0.2337407256690861 0.21116051521614781 0.24304283781622593 0.22204398642830142 0.24188766313424004 0.22006317339989281 C 0.24304283781622593 0.22204398642830142 0.2459115287352549 0.23493027155705126 0.2456020006120999 0.23378664862188522" fill="none" stroke="#000000" stroke-width="0.001"/>
</g><g id="お下げ">
<g id="編節1">
<g transform="translate(0.33734345282867095,0.13820072278907372) rotate(0) scale(1,1) translate(-0.13796833536796266,-0.11460177227368223)"><path d="M 0.14087709006993027 0.11460177227368223 C 0.14104140133107057 0.11479511158224094 0.14309122142877786 0.11734168655393362 0.1428488252036139 0.11692184397638673 C 0.14309122142877786 0.11734168655393362 0.14386392973592155 0.11986638647323312 0.14378584477189787 0.11963988320424494" fill="none" stroke="#000000" stroke-width="0.001"/>
<path d="M 0.14378584477189787 0.11963988320424494 C 0.14369117782765947 0.11987301926531903 0.14238320559335665 0.12285735851468087 0.142649841441037 0.12243751593713396 C 0.14238320559335665 0.12285735851468087 0.14041424569629155 0.12486470065128054 0.1405862145997335 0.12467799413480772" fill="none" stroke="#000000" stroke-width="0.001"/>
<path d="M 0.1405862145997335 0.12467799413480772 C 0.14055698715698203 0.1247870724361315 0.14012640698539208 0.12617586291058924 0.14023548528671587 0.12598693375069314 C 0.14012640698539208 0.12617586291058924 0.13908834582395194 0.12705422235488473 0.13927727498384804 0.12694514405356094 C 0.13908834582395194 0.12705422235488473 0.1377501787653151 0.12729587336657855 0.13796833536796266 0.12729587336657855 C 0.1377501787653151 0.12729587336657855 0.13647046659218112 0.12683606575223716 0.13665939575207722 0.12694514405356094 C 0.13647046659218112 0.12683606575223716 0.1355921071478856 0.12579800459079704 0.1357011854492094 0.12598693375069314 C 0.1355921071478856 0.12579800459079704 0.13532122869344038 0.12456891583348394 0.13535045613619184 0.12467799413480772" fill="none" stroke="#000000" stroke-width="0.001"/>
<path d="M 0.13535045613619184 0.12467799413480772 C 0.1351784872327499 0.1244912876183349 0.13302019344720797 0.12201767335958708 0.13328682929488833 0.12243751593713396 C 0.13302019344720797 0.12201767335958708 0.1320561590197891 0.11940674714317089 0.1321508259640275 0.11963988320424497" fill="none" stroke="#000000" stroke-width="0.001"/>
<path d="M 0.1321508259640275 0.11963988320424497 C 0.13222891092805117 0.11941337993525679 0.13333024175747538 0.11650200139883984 0.1330878455323114 0.11692184397638673 C 0.13333024175747538 0.11650200139883984 0.13522389192713535 0.11440843296512353 0.13505958066599505 0.11460177227368223" fill="none" stroke="#000000" stroke-width="0.001"/>
</g><g transform="translate(0.33734345282867095,0.14323883371963647) rotate(0) scale(1,1) translate(-0.10433725337565573,-0.10418740031181734)"><path d="M 0.1069461228785802 0.1092196716584617 C 0.10681405683110795 0.10885254586082962 0.10570582857755001 0.1062376413103488 0.1061537265937467 0.10701691687266922 C 0.10570582857755001 0.1062376413103488 0.10431353459171952 0.10375326162204923 0.10425873478140005 0.10454401828453919 C 0.10431353459171952 0.10375326162204923 0.10698173158483083 0.10137375409864323 0.10648252545566354 0.10227237689772953 C 0.10698173158483083 0.10137375409864323 0.10725397155640377 0.09915228149002142 0.10725397155640377 0.09915228149002142 C 0.10725397155640377 0.09915228149002142 0.10598331932649625 0.10317099969681583 0.10648252545566354 0.10227237689772953 C 0.10598331932649625 0.10317099969681583 0.10350359929045722 0.10442715361737563 0.10425873478140005 0.10454401828453919 C 0.10350359929045722 0.10442715361737563 0.10148151069275715 0.10067107770871982 0.10195171251000659 0.10157118889474819 C 0.10148151069275715 0.10067107770871982 0.10135182577255288 0.09873871154730576 0.1014375238779034 0.09914335116836896" fill="none" stroke="#000000" stroke-width="0.001"/>
</g></g>
<g id="編節2">
<g transform="translate(0.33734345282867095,0.1482769446501992) rotate(0) scale(1,1) translate(-0.13796833536796266,-0.11460177227368223)"><path d="M 0.1405862145997335 0.11460177227368223 C 0.14073409473475978 0.11477577765138507 0.14257893282269637 0.11706769512590848 0.1423607762200488 0.11668983680611628 C 0.14257893282269637 0.11706769512590848 0.1432743702991256 0.11933992505327808 0.14320409383150431 0.1191360721111887" fill="none" stroke="#000000" stroke-width="0.001"/>
<path d="M 0.14320409383150431 0.1191360721111887 C 0.14311889358168975 0.11934589456615538 0.14194171857081725 0.12203179989058098 0.14218169083372958 0.12165394157078878 C 0.14194171857081725 0.12203179989058098 0.14016965466345865 0.12383840781352068 0.14032442667655642 0.12367037194869515" fill="none" stroke="#000000" stroke-width="0.001"/>
<path d="M 0.14032442667655642 0.12367037194869515 C 0.14029812197808011 0.12376854241988655 0.1399105998236492 0.12501845384689853 0.1400087702948406 0.12484841760299202 C 0.1399105998236492 0.12501845384689853 0.13897634477835305 0.12580897734676447 0.13914638102225954 0.12571080687557307 C 0.13897634477835305 0.12580897734676447 0.13777199442557986 0.1260264632572889 0.13796833536796266 0.1260264632572889 C 0.13777199442557986 0.1260264632572889 0.1366202534697593 0.12561263640438167 0.1367902897136658 0.12571080687557307 C 0.1366202534697593 0.12561263640438167 0.13582972996989334 0.12467838135908553 0.13592790044108474 0.12484841760299202 C 0.13582972996989334 0.12467838135908553 0.1355859393608926 0.12357220147750375 0.13561224405936892 0.12367037194869515" fill="none" stroke="#000000" stroke-width="0.001"/>
<path d="M 0.13561224405936892 0.12367037194869515 C 0.13545747204627115 0.12350233608386962 0.13351500763928342 0.12127608325099658 0.13375497990219576 0.12165394157078878 C 0.13351500763928342 0.12127608325099658 0.13264737665460644 0.11892624965622203 0.132732576904421 0.1191360721111887" fill="none" stroke="#000000" stroke-width="0.001"/>
<path d="M 0.132732576904421 0.1191360721111887 C 0.13280285337204228 0.11893221916909934 0.1337940511185241 0.11631197848632409 0.13357589451587654 0.11668983680611629 C 0.1337940511185241 0.11631197848632409 0.13549833627121813 0.1144277668959794 0.13535045613619184 0.11460177227368223" fill="none" stroke="#000000" stroke-width="0.001"/>
</g><g transform="translate(0.33734345282867095,0.15281124448770567) rotate(0) scale(1,1) translate(-0.10433725337565573,-0.10418740031181734)"><path d="M 0.10668523592828776 0.10871644452379725 C 0.10656637648556273 0.10838603130592839 0.10556897105736057 0.10603261721049564 0.1059720792719376 0.10673396521658403 C 0.10556897105736057 0.10603261721049564 0.10431590647011313 0.10379667549102603 0.10426658664082561 0.10450835648726699 C 0.10431590647011313 0.10379667549102603 0.10671728376391332 0.10165511871996066 0.10626799824766275 0.10246387923913833 C 0.10671728376391332 0.10165511871996066 0.10696229973832898 0.09965579337220103 0.10696229973832898 0.09965579337220103 C 0.10696229973832898 0.09965579337220103 0.10581871273141219 0.10327263975831599 0.10626799824766275 0.10246387923913833 C 0.10581871273141219 0.10327263975831599 0.10358696469897707 0.10440317828681978 0.10426658664082561 0.10450835648726699 C 0.10358696469897707 0.10440317828681978 0.10176708496104706 0.10102270996902957 0.10219026659657154 0.1018328100364551 C 0.10176708496104706 0.10102270996902957 0.10165036853286316 0.09928358042375693 0.10172749682767865 0.09964775608271381" fill="none" stroke="#000000" stroke-width="0.001"/>
</g></g>
<g id="編節3">
<g transform="translate(0.33734345282867095,0.1573455443252121) rotate(0) scale(1,1) translate(-0.13796833536796266,-0.11460177227368223)"><path d="M 0.14032442667655642 0.11460177227368223 C 0.14045751879808008 0.11475837711361479 0.14211787307722298 0.11682110284068586 0.14192153213484018 0.11648103035287288 C 0.14211787307722298 0.11682110284068586 0.14274376680600934 0.11886610977531849 0.14268051798515016 0.11868264212743805" fill="none" stroke="#000000" stroke-width="0.001"/>
<path d="M 0.14268051798515016 0.11868264212743805 C 0.14260383776031704 0.11887148233690806 0.14154438025053176 0.12128879712889112 0.14176035528715286 0.12094872464107814 C 0.14154438025053176 0.12128879712889112 0.1399495227339091 0.12291474425953686 0.14008881754569708 0.12276351198119388" fill="none" stroke="#000000" stroke-width="0.001"/>
<path d="M 0.14008881754569708 0.12276351198119388 C 0.14006514331706837 0.12285186540526614 0.13971637337808054 0.1239767856895769 0.1398047268021528 0.12382375307006106 C 0.13971637337808054 0.1239767856895769 0.138875543837314 0.12468825683945627 0.13902857645682987 0.124599903415384 C 0.138875543837314 0.12468825683945627 0.13779162851981813 0.12488399415892827 0.13796833536796266 0.12488399415892827 C 0.13779162851981813 0.12488399415892827 0.13675506165957962 0.12451154999131174 0.13690809427909548 0.124599903415384 C 0.13675506165957962 0.12451154999131174 0.13604359050970033 0.12367072045054522 0.1361319439337726 0.12382375307006106 C 0.13604359050970033 0.12367072045054522 0.13582417896159957 0.12267515855712162 0.13584785319022827 0.12276351198119388" fill="none" stroke="#000000" stroke-width="0.001"/>
<path d="M 0.13584785319022827 0.12276351198119388 C 0.13570855837844029 0.12261227970285091 0.13396034041215135 0.12060865215326516 0.13417631544877245 0.12094872464107814 C 0.13396034041215135 0.12060865215326516 0.1331794725259421 0.11849380191796804 0.13325615275077518 0.11868264212743805" fill="none" stroke="#000000" stroke-width="0.001"/>
<path d="M 0.13325615275077518 0.11868264212743805 C 0.13331940157163436 0.11849917447955761 0.13421147954346796 0.1161409578650599 0.13401513860108516 0.11648103035287288 C 0.13421147954346796 0.1161409578650599 0.13574533618089257 0.11444516743374968 0.13561224405936892 0.11460177227368223" fill="none" stroke="#000000" stroke-width="0.001"/>
</g><g transform="translate(0.33734345282867095,0.16142641417896791) rotate(0) scale(1,1) translate(-0.10433725337565573,-0.10418740031181734)"><path d="M 0.10645043767302456 0.1082635401025993 C 0.10634346417457204 0.1079661682065173 0.10544579928919008 0.10584809552062784 0.10580859668230941 0.10647930872610738 C 0.10544579928919008 0.10584809552062784 0.1043180411606674 0.10383574797310519 0.10427365331430863 0.10447626086972205 C 0.1043180411606674 0.10383574797310519 0.10647928072508756 0.10190834687914632 0.10607492376046206 0.10263623134640622 C 0.10647928072508756 0.10190834687914632 0.10669979510206165 0.10010895406616264 0.10669979510206165 0.10010895406616264 C 0.10669979510206165 0.10010895406616264 0.10567056679583656 0.10336411581366611 0.10607492376046206 0.10263623134640622 C 0.10567056679583656 0.10336411581366611 0.10366199356664495 0.10438160048931956 0.10427365331430863 0.10447626086972205 C 0.10366199356664495 0.10438160048931956 0.10202410180250791 0.10133917900330836 0.10240496527447995 0.10206826906399133 C 0.10202410180250791 0.10133917900330836 0.10191905701714243 0.09977396241256296 0.10198847248247636 0.10010172050562416" fill="none" stroke="#000000" stroke-width="0.001"/>
</g></g>
<g id="編節4">
<g transform="translate(0.33734345282867095,0.16550728403272374) rotate(0) scale(1,1) translate(-0.13796833536796266,-0.11460177227368223)"><path d="M 0.14008881754569708 0.11460177227368223 C 0.14020860045506836 0.11474271662962153 0.14170291930629692 0.11659916978398552 0.1415262124581524 0.11629310454495383 C 0.14170291930629692 0.11659916978398552 0.14226622366220465 0.11843967602515486 0.1422092997234314 0.11827455514206248" fill="none" stroke="#000000" stroke-width="0.001"/>
<path d="M 0.1422092997234314 0.11827455514206248 C 0.1421402875210816 0.11844451133058548 0.14118677576227487 0.12062009464337023 0.14138115329523385 0.12031402940433854 C 0.14118677576227487 0.12062009464337023 0.13975140399731442 0.1220834470609514 0.13987676932792362 0.12194733801044272" fill="none" stroke="#000000" stroke-width="0.001"/>
<path d="M 0.13987676932792362 0.12194733801044272 C 0.1398554625221578 0.12202685609210775 0.13954156957706876 0.12303928434798746 0.1396210876587338 0.1229015549904232 C 0.13954156957706876 0.12303928434798746 0.13878482299037886 0.12367960838287889 0.13892255234794312 0.12360009030121386 C 0.13878482299037886 0.12367960838287889 0.13780929920463258 0.12385577197040366 0.13796833536796266 0.12385577197040366 C 0.13780929920463258 0.12385577197040366 0.13687638903041796 0.12352057221954882 0.13701411838798222 0.12360009030121386 C 0.13687638903041796 0.12352057221954882 0.13623606499552654 0.12276382563285894 0.13631558307719158 0.1229015549904232 C 0.13623606499552654 0.12276382563285894 0.13603859460223597 0.12186781992877768 0.13605990140800178 0.12194733801044272" fill="none" stroke="#000000" stroke-width="0.001"/>
<path d="M 0.13605990140800178 0.12194733801044272 C 0.1359345360773926 0.12181122895993404 0.1343611399077325 0.12000796416530685 0.13455551744069147 0.12031402940433854 C 0.1343611399077325 0.12000796416530685 0.13365835881014415 0.11810459895353947 0.13372737101249393 0.11827455514206248" fill="none" stroke="#000000" stroke-width="0.001"/>
<path d="M 0.13372737101249393 0.11827455514206248 C 0.13378429495126717 0.1181094342589701 0.13458716512591745 0.11598703930592213 0.13441045827777293 0.11629310454495383 C 0.13458716512591745 0.11598703930592213 0.13596763609959955 0.11446082791774294 0.13584785319022827 0.11460177227368223" fill="none" stroke="#000000" stroke-width="0.001"/>
</g><g transform="translate(0.33734345282867095,0.169180066901104) rotate(0) scale(1,1) translate(-0.10433725337565573,-0.10418740031181734)"><path d="M 0.10623911924328767 0.10785592612352109 C 0.1061428430946804 0.1075882914170473 0.10533494469783665 0.1056820259997468 0.10566146235164404 0.10625011788467838 C 0.10533494469783665 0.1056820259997468 0.10431996238216623 0.1038709132069764 0.10428001332044333 0.10444737481393157 C 0.10431996238216623 0.1038709132069764 0.1062650779901444 0.10213625222241343 0.10590115672198144 0.10279134824294735 C 0.1062650779901444 0.10213625222241343 0.10646354092942105 0.10051679869072812 0.10646354092942105 0.10051679869072812 C 0.10646354092942105 0.10051679869072812 0.10553723545381849 0.10344644426348126 0.10590115672198144 0.10279134824294735 C 0.10553723545381849 0.10344644426348126 0.10372951954754601 0.10436218047156934 0.10428001332044333 0.10444737481393157 C 0.10372951954754601 0.10436218047156934 0.10225541695982271 0.10162400113415924 0.10259819408459754 0.10228018218877392 C 0.10225541695982271 0.10162400113415924 0.10216087665299375 0.1002153062024884 0.1022233505717943 0.10051028848624348" fill="none" stroke="#000000" stroke-width="0.001"/>
</g></g>
<g id="編節5">
<g transform="translate(0.33734345282867095,0.17285284976948423) rotate(0) scale(1,1) translate(-0.13796833536796266,-0.11460177227368223)"><path d="M 0.13987676932792362 0.11460177227368223 C 0.13998457394635777 0.1147286221940276 0.1413294609124635 0.11639943003295518 0.14117042474913344 0.11612397131782666 C 0.1413294609124635 0.11639943003295518 0.14183643483278044 0.1180558856500076 0.14178520328788452 0.11790727685522445" fill="none" stroke="#000000" stroke-width="0.001"/>
<path d="M 0.14178520328788452 0.11790727685522445 C 0.1417230923057697 0.11806023742489516 0.14086493172284364 0.12001826240640144 0.14103987150250674 0.11974280369127292 C 0.14086493172284364 0.12001826240640144 0.13957309713437924 0.12133527958222447 0.1396859259319275 0.12121278143676666" fill="none" stroke="#000000" stroke-width="0.001"/>
<path d="M 0.1396859259319275 0.12121278143676666 C 0.13966674980673827 0.1212843477102652 0.13938424615615813 0.12219553314055692 0.13945581242965666 0.12207157671874909 C 0.13938424615615813 0.12219553314055692 0.13870317422813722 0.12277182477195922 0.13882713064994506 0.12270025849846068 C 0.13870317422813722 0.12277182477195922 0.13782520282096558 0.1229303720007315 0.13796833536796266 0.1229303720007315 C 0.13782520282096558 0.1229303720007315 0.13698558366417246 0.12262869222496214 0.13710954008598028 0.12270025849846068 C 0.13698558366417246 0.12262869222496214 0.13640929203277014 0.12194762029694126 0.13648085830626866 0.12207157671874909 C 0.13640929203277014 0.12194762029694126 0.13623156867880862 0.12114121516326812 0.13625074480399785 0.12121278143676666" fill="none" stroke="#000000" stroke-width="0.001"/>
<path d="M 0.13625074480399785 0.12121278143676666 C 0.1361379160064496 0.12109028329130885 0.13472185945375548 0.1194673449761444 0.13489679923341857 0.11974280369127292 C 0.13472185945375548 0.1194673449761444 0.13408935646592596 0.11775431628555375 0.13415146744804077 0.11790727685522445" fill="none" stroke="#000000" stroke-width="0.001"/>
<path d="M 0.13415146744804077 0.11790727685522445 C 0.1342026989929367 0.1177586680604413 0.13492528215012195 0.11584851260269814 0.13476624598679188 0.11612397131782666 C 0.13492528215012195 0.11584851260269814 0.13616770602643594 0.11447492235333687 0.13605990140800178 0.11460177227368223" fill="none" stroke="#000000" stroke-width="0.001"/>
</g><g transform="translate(0.33734345282867095,0.17615835435102645) rotate(0) scale(1,1) translate(-0.10433725337565573,-0.10418740031181734)"><path d="M 0.10604893265652446 0.10748907354235071 C 0.10596228412277792 0.1072482023065243 0.10523517556561858 0.10553256343095387 0.10552904145404522 0.10604384612739229 C 0.10523517556561858 0.10553256343095387 0.10432169148151518 0.10390256191746049 0.10428573732596458 0.10442137736372015 C 0.10432169148151518 0.10390256191746049 0.10607229552869551 0.10234136703135382 0.10574476638734885 0.10293095344983434 C 0.10607229552869551 0.10234136703135382 0.10625091217404452 0.10088385885283704 0.10625091217404452 0.10088385885283704 C 0.10625091217404452 0.10088385885283704 0.10541723724600219 0.10352053986831486 0.10574476638734885 0.10293095344983434 C 0.10541723724600219 0.10352053986831486 0.10379029293035699 0.10434470245559413 0.10428573732596458 0.10442137736372015 C 0.10379029293035699 0.10434470245559413 0.10246360060140602 0.10188034105192505 0.10277210001370338 0.10247090400107826 C 0.10246360060140602 0.10188034105192505 0.10237851432525995 0.10061251561342129 0.10243474085218043 0.10087799966880086" fill="none" stroke="#000000" stroke-width="0.001"/>
</g></g>
<g id="編節6">
<g transform="translate(0.33734345282867095,0.17946385893256867) rotate(0) scale(1,1) translate(-0.13796833536796266,-0.11460177227368223)"><path d="M 0.1396859259319275 0.11460177227368223 C 0.13978295008851824 0.11471593720199307 0.14099334835801344 0.11621966425702789 0.14085021581101637 0.11597175141341222 C 0.14099334835801344 0.11621966425702789 0.14144962488629872 0.11771047431237507 0.1414035164958924 0.11757672639707023" fill="none" stroke="#000000" stroke-width="0.001"/>
<path d="M 0.1414035164958924 0.11757672639707023 C 0.14134761661198905 0.11771439090977387 0.14057527208735562 0.11947661339312951 0.1407327178890524 0.11922870054951384 C 0.14057527208735562 0.11947661339312951 0.13941262095773754 0.12066192885137025 0.139514166875531 0.12055168052045823" fill="none" stroke="#000000" stroke-width="0.001"/>
<path d="M 0.139514166875531 0.12055168052045823 C 0.1394969083628607 0.1206160901666069 0.1392426550773386 0.12143615705386945 0.13930706472348728 0.1213245962742424 C 0.1392426550773386 0.12143615705386945 0.13862969034211983 0.12195481952213148 0.13874125112174687 0.1218904098759828 C 0.13862969034211983 0.12195481952213148 0.1378395160756653 0.12209751202802659 0.13796833536796266 0.12209751202802659 C 0.1378395160756653 0.12209751202802659 0.13708385883455143 0.12182600022983413 0.13719541961417847 0.1218904098759828 C 0.13708385883455143 0.12182600022983413 0.13656519636628942 0.12121303549461535 0.1366296060124381 0.1213245962742424 C 0.13656519636628942 0.12121303549461535 0.13640524534772402 0.12048727087430955 0.13642250386039434 0.12055168052045823" fill="none" stroke="#000000" stroke-width="0.001"/>
<path d="M 0.13642250386039434 0.12055168052045823 C 0.1363209579426009 0.1204414321895462 0.13504650704517626 0.11898078770589818 0.13520395284687303 0.11922870054951384 C 0.13504650704517626 0.11898078770589818 0.13447725435612962 0.11743906188436659 0.13453315424003295 0.11757672639707023" fill="none" stroke="#000000" stroke-width="0.001"/>
<path d="M 0.13453315424003295 0.11757672639707023 C 0.1345792626304393 0.1174429784817654 0.13522958747190603 0.11572383856979657 0.13508645492490895 0.11597175141341223 C 0.13522958747190603 0.11572383856979657 0.1363477689605886 0.1144876073453714 0.13625074480399785 0.11460177227368223" fill="none" stroke="#000000" stroke-width="0.001"/>
</g><g transform="translate(0.33734345282867095,0.18243881305595666) rotate(0) scale(1,1) translate(-0.10433725337565573,-0.10418740031181734)"><path d="M 0.10587776472843759 0.10715890621929738 C 0.1057997810480657 0.10694212210705362 0.10514538334662228 0.10539804711904018 0.10540986264620626 0.10585820154583477 C 0.10514538334662228 0.10539804711904018 0.10432324767092925 0.10393104575689618 0.1042908889309337 0.10439797965852987 C 0.10432324767092925 0.10393104575689618 0.10589879131339153 0.10252597035940017 0.10560401508617955 0.10305659813603263 C 0.10589879131339153 0.10252597035940017 0.10605954629420564 0.10121421299873508 0.10605954629420564 0.10121421299873508 C 0.10605954629420564 0.10121421299873508 0.10530923885896756 0.10358722591266509 0.10560401508617955 0.10305659813603263 C 0.10530923885896756 0.10358722591266509 0.10384498897488688 0.10432897224121647 0.1042908889309337 0.10439797965852987 C 0.10384498897488688 0.10432897224121647 0.10265096587883098 0.10211104697791429 0.1029286153498986 0.10264255363215219 C 0.10265096587883098 0.10211104697791429 0.10257438823029953 0.1009700040832609 0.10262499210452797 0.10120893973310251" fill="none" stroke="#000000" stroke-width="0.001"/>
</g></g>
<g id="編節7">
<g transform="translate(0.33734345282867095,0.18541376717934466) rotate(0) scale(1,1) translate(-0.13796833536796266,-0.11460177227368223)"><path d="M 0.139514166875531 0.11460177227368223 C 0.13960148861646268 0.11470452070916198 0.14069084705900842 0.11605787505869332 0.14056202776671106 0.11583475349943922 C 0.14069084705900842 0.11605787505869332 0.1411014959344651 0.11739960410850578 0.1410599983830994 0.11727923098473143" fill="none" stroke="#000000" stroke-width="0.001"/>
<path d="M 0.1410599983830994 0.11727923098473143 C 0.1410096884875864 0.1174031290461647 0.14031457841541628 0.11898912928118477 0.14045627963694338 0.11876600772193067 C 0.14031457841541628 0.11898912928118477 0.1392681923987601 0.12005591319360148 0.1393595837247742 0.11995668969578065" fill="none" stroke="#000000" stroke-width="0.001"/>
<path d="M 0.1393595837247742 0.11995668969578065 C 0.13934405106337092 0.12001465837731445 0.13911522310640095 0.12075271857585074 0.13917319178793477 0.12065231387418639 C 0.13911522310640095 0.12075271857585074 0.1385635548447041 0.12121951479728658 0.13866395954636843 0.12116154611575278 C 0.1385635548447041 0.12121951479728658 0.13785239800489502 0.12134793805259214 0.13796833536796266 0.12134793805259214 C 0.13785239800489502 0.12134793805259214 0.13717230648789255 0.12110357743421897 0.1372727111895569 0.12116154611575278 C 0.13717230648789255 0.12110357743421897 0.13670551026645672 0.12055190917252204 0.13676347894799054 0.12065231387418639 C 0.13670551026645672 0.12055190917252204 0.13656155434974784 0.11989872101424684 0.13657708701115112 0.11995668969578065" fill="none" stroke="#000000" stroke-width="0.001"/>
<path d="M 0.13657708701115112 0.11995668969578065 C 0.13648569568513702 0.11985746619795981 0.13533868987745487 0.11854288616267658 0.13548039109898197 0.11876600772193067 C 0.13533868987745487 0.11854288616267658 0.13482636245731297 0.11715533292329816 0.13487667235282597 0.11727923098473143" fill="none" stroke="#000000" stroke-width="0.001"/>
<path d="M 0.13487667235282597 0.11727923098473143 C 0.13491816990419167 0.11715885786095709 0.1355034622615117 0.11561163194018514 0.13537464296921434 0.11583475349943924 C 0.1355034622615117 0.11561163194018514 0.13650982560132602 0.11449902383820248 0.13642250386039434 0.11460177227368223" fill="none" stroke="#000000" stroke-width="0.001"/>
</g><g transform="translate(0.33734345282867095,0.18809122589039384) rotate(0) scale(1,1) translate(-0.10433725337565573,-0.10418740031181734)"><path d="M 0.10572371359315942 0.10686175562854937 C 0.10565352828082472 0.10666664992752999 0.10506457034952563 0.10527698243831791 0.10530260171915122 0.10569112142243305 C 0.10506457034952563 0.10527698243831791 0.10432464824140189 0.10395668121238828 0.1042955253754059 0.10437692172385861 C 0.10432464824140189 0.10395668121238828 0.10574263751961796 0.1026921133546419 0.10547733891512716 0.10316967835361111 C 0.10574263751961796 0.1026921133546419 0.10588731700235067 0.1015115317300433 0.10588731700235067 0.1015115317300433 C 0.10588731700235067 0.1015115317300433 0.10521204031063636 0.10364724335258033 0.10547733891512716 0.10316967835361111 C 0.10521204031063636 0.10364724335258033 0.10389421541496376 0.10431481504827654 0.1042955253754059 0.10437692172385861 C 0.10389421541496376 0.10431481504827654 0.10281959462851345 0.1023186823113046 0.10306947915247432 0.1027970383001187 C 0.10281959462851345 0.1023186823113046 0.10275067474483512 0.10129174370611656 0.10279621823164073 0.10150678579097401" fill="none" stroke="#000000" stroke-width="0.001"/>
</g></g>
<g id="編節8">
<g transform="translate(0.33734345282867095,0.19076868460144308) rotate(0) scale(1,1) translate(-0.13796833536796266,-0.11460177227368223)"><path d="M 0.1393595837247742 0.11460177227368223 C 0.1394381732916127 0.11469424586561401 0.14041859588990382 0.1159122647801922 0.1403026585268362 0.11571145537686352 C 0.14041859588990382 0.1159122647801922 0.14078817987781483 0.11711982092502345 0.1407508320815857 0.11701148511362652" fill="none" stroke="#000000" stroke-width="0.001"/>
<path d="M 0.1407508320815857 0.11701148511362652 C 0.140705553175624 0.11712299336891646 0.14007995411067095 0.11855039358043452 0.14020748521004534 0.11834958417710584 C 0.14007995411067095 0.11855039358043452 0.13913820669568036 0.11951049910160953 0.13922045888909304 0.11942119795357078" fill="none" stroke="#000000" stroke-width="0.001"/>
<path d="M 0.13922045888909304 0.11942119795357078 C 0.13920647949383008 0.11947336976695122 0.13900053433255716 0.1201376239456339 0.1390527061459376 0.12004725971413599 C 0.13900053433255716 0.1201376239456339 0.13850403289702995 0.12055774054492616 0.13859439712852786 0.12050556873154572 C 0.13850403289702995 0.12055774054492616 0.13786399174120179 0.12067332147470118 0.13796833536796266 0.12067332147470118 C 0.13786399174120179 0.12067332147470118 0.13725190937589957 0.12045339691816528 0.13734227360739748 0.12050556873154572 C 0.13725190937589957 0.12045339691816528 0.1368317927766073 0.11995689548263808 0.13688396458998775 0.12004725971413599 C 0.1368317927766073 0.11995689548263808 0.13670223245156934 0.11936902614019035 0.1367162118468323 0.11942119795357078" fill="none" stroke="#000000" stroke-width="0.001"/>
<path d="M 0.1367162118468323 0.11942119795357078 C 0.13663395965341962 0.11933189680553204 0.13560165442650568 0.11814877477377715 0.13572918552588006 0.11834958417710584 C 0.13560165442650568 0.11814877477377715 0.13514055974837788 0.11689997685833659 0.13518583865433959 0.11701148511362652" fill="none" stroke="#000000" stroke-width="0.001"/>
<path d="M 0.13518583865433959 0.11701148511362652 C 0.13522318645056872 0.11690314930222961 0.1357499495721568 0.11551064597353485 0.1356340122090892 0.11571145537686353 C 0.1357499495721568 0.11551064597353485 0.1366556765779896 0.11450929868175046 0.13657708701115112 0.11460177227368223" fill="none" stroke="#000000" stroke-width="0.001"/>
</g><g transform="translate(0.33734345282867095,0.19317839744138737) rotate(0) scale(1,1) translate(-0.10433725337565573,-0.10418740031181734)"><path d="M 0.10558506757140906 0.10659432009687617 C 0.10552190079030783 0.10641872496595872 0.10499183865213865 0.10516802422566786 0.10520606688480168 0.10554074931137147 C 0.10499183865213865 0.10516802422566786 0.10432590875482727 0.10397975312233121 0.10429969817543087 0.1043579695826545 C 0.10432590875482727 0.10397975312233121 0.10560209910522175 0.10284164205035944 0.10536333036118004 0.10327145054943174 C 0.10560209910522175 0.10284164205035944 0.10573231063968118 0.10177911858822072 0.10573231063968118 0.10177911858822072 C 0.10573231063968118 0.10177911858822072 0.10512456161713832 0.10370125904850404 0.10536333036118004 0.10327145054943174 C 0.10512456161713832 0.10370125904850404 0.10393851921103295 0.10430207357463064 0.10429969817543087 0.1043579695826545 C 0.10393851921103295 0.10430207357463064 0.1029713605032277 0.1025055541113559 0.10319625657479246 0.10293607450128858 C 0.1029713605032277 0.1025055541113559 0.10290933260791721 0.10158130936668665 0.10295032174604224 0.10177484724305835" fill="none" stroke="#000000" stroke-width="0.001"/>
</g></g>
<g transform="translate(0.33734345282867095,0.19558811028133163) rotate(0) scale(1,1) translate(-0.020184612282548316,-0.020184612282548316)"><path d="M 0.021814492892120386 0.019655031969990255 C 0.02189843635998038 0.019913383399076362 0.020972167044877248 0.021730741504815434 0.02119193389686825 0.021571071540598112 C 0.020972167044877248 0.021730741504815434 0.018957523816237377 0.02141140157638079 0.01917729066822838 0.021571071540598112 C 0.018957523816237377 0.02141140157638079 0.018638675140836235 0.019396680540904147 0.018554731672976242 0.019655031969990255 C 0.018638675140836235 0.019396680540904147 0.02045625905081033 0.01847085439156484 0.020184612282548316 0.01847085439156484 C 0.02045625905081033 0.01847085439156484 0.02189843635998038 0.019913383399076362 0.021814492892120386 0.019655031969990255 Z" fill="#cccccc" stroke="#000000" stroke-width="0.001"/>
</g><g transform="translate(0.33734345282867095,0.19558811028133163) rotate(0) scale(1,1) translate(-0.02639292779899103,-0.02639292779899103)"><path d="M 0.027502747819324644 0.02603232541511103 C 0.027559906693821416 0.026208242342153215 0.02692919041676106 0.027445719736521604 0.0270788342929523 0.027336997096413098 C 0.02692919041676106 0.027445719736521604 0.025557377428838512 0.02722827445630459 0.02570702130502975 0.027336997096413098 C 0.025557377428838512 0.02722827445630459 0.025340266653154187 0.025856408488068847 0.025283107778657415 0.02603232541511103 C 0.025340266653154187 0.025856408488068847 0.026577897802379964 0.02522599397190689 0.02639292779899103 0.02522599397190689 C 0.026577897802379964 0.02522599397190689 0.027559906693821416 0.026208242342153215 0.027502747819324644 0.02603232541511103 Z" fill="#cccccc" stroke="#000000" stroke-width="0.001"/>
</g><g transform="translate(0.3363064238473449,0.19588518190454113) rotate(0) scale(1,1) translate(-0.17301747436630832,-0.18476934738774106)"><path d="M 0.17108120221763634 0.18910718688273231 C 0.17119824224198674 0.18875212024574603 0.17268337840737522 0.1844277421867197 0.172485682509841 0.18484638723889682 C 0.17268337840737522 0.1844277421867197 0.17353420886123075 0.1840198678414159 0.17345355298804693 0.18408344625660675" fill="none" stroke="#000000" stroke-width="0.001"/>
<path d="M 0.17345355298804693 0.18408344625660675 C 0.17338908439743922 0.18494240773825746 0.17265686524412388 0.19555666961253815 0.1726799299007542 0.19439098403641517 C 0.17265686524412388 0.19555666961253815 0.17321818104246034 0.19837839726455495 0.17317677710848295 0.19807167317008265" fill="none" stroke="#000000" stroke-width="0.001"/>
<path d="M 0.17317677710848295 0.19807167317008265 C 0.1731283046199949 0.1983947310310233 0.17258992565354495 0.2029594683807321 0.17259510724662647 0.20194836750137066 C 0.17258992565354495 0.2029594683807321 0.17315788888691114 0.21089292674084054 0.17311459799150464 0.21020488372241977" fill="none" stroke="#000000" stroke-width="0.001"/>
<path d="M 0.17311459799150464 0.21020488372241977 C 0.17294659640455443 0.20951990542906476 0.17092436033625308 0.2009335172270688 0.171098578948102 0.2019851442021596 C 0.17092436033625308 0.2009335172270688 0.17101775762441904 0.19721871133959418 0.17102397464931773 0.19758536002132998" fill="none" stroke="#000000" stroke-width="0.001"/>
<path d="M 0.17102397464931773 0.19758536002132998 C 0.17085682896086557 0.197221596992395 0.16902299535191834 0.19251368924589365 0.1690182263878918 0.19322020367411014 C 0.16902299535191834 0.19251368924589365 0.17125311687011505 0.18876443548345084 0.17108120221763634 0.18910718688273231" fill="none" stroke="#000000" stroke-width="0.001"/>
</g><g transform="translate(0.33838048180999714,0.19588518190454113) rotate(0) scale(1,1) translate(-0.17301747436630832,-0.18476934738774106)"><path d="M 0.17475608570755122 0.18848903508892736 C 0.17486159948548316 0.188825572465376 0.17596858708122212 0.19329449737967977 0.17602225104273456 0.19252748360631103 C 0.17596858708122212 0.19329449737967977 0.17395294042995757 0.19812367676627235 0.17411211816940195 0.19769320036935226" fill="none" stroke="#000000" stroke-width="0.001"/>
<path d="M 0.17411211816940195 0.19769320036935226 C 0.17402982003169173 0.19799507822750212 0.17303667646173712 0.2023445465829749 0.17312454051687948 0.20131573466715066 C 0.17303667646173712 0.2023445465829749 0.17305218359026142 0.21076587741691757 0.1730577495076936 0.2100389433592432" fill="none" stroke="#000000" stroke-width="0.001"/>
<path d="M 0.1730577495076936 0.2100389433592432 C 0.17293912230697228 0.20930025266393903 0.17154029700159973 0.20017375615028096 0.1716342230990379 0.2011746550155931 C 0.17154029700159973 0.20017375615028096 0.1719553374417186 0.1977659488054896 0.17193063633843547 0.19802815697549755" fill="none" stroke="#000000" stroke-width="0.001"/>
<path d="M 0.17193063633843547 0.19802815697549755 C 0.17192455286996114 0.1973588388053451 0.17191594035974234 0.18883188399990689 0.17185763471674362 0.18999633893366824 C 0.17191594035974234 0.18883188399990689 0.17269469316589317 0.18355956100675236 0.17263030405442012 0.18405469777036126" fill="none" stroke="#000000" stroke-width="0.001"/>
<path d="M 0.17263030405442012 0.18405469777036126 C 0.17270632844790068 0.1841237475810282 0.173719745247281 0.18525282360824488 0.17354259677618675 0.18488329549836438 C 0.173719745247281 0.18525282360824488 0.17485720978516492 0.18878951338814096 0.17475608570755122 0.18848903508892736" fill="none" stroke="#000000" stroke-width="0.001"/>
</g><g transform="translate(0.33734345282867095,0.19558811028133163) rotate(0) scale(1,1) translate(-0.19551282657519264,-0.15725534279570835)"><path d="M 0.19603101345690324 0.18641808138092075 C 0.19617582460462746 0.18546022416342228 0.19761791067558848 0.17342937340497003 0.197768747229594 0.17492379477093928 C 0.19761791067558848 0.17342937340497003 0.19392532710710708 0.1679484608408188 0.19422097480883685 0.1684850249892896" fill="none" stroke="#000000" stroke-width="0.001"/>
<path d="M 0.19422097480883685 0.1684850249892896 C 0.19414867578816192 0.16808988180084294 0.19338050072636487 0.16278314970755636 0.19335338656073756 0.16374330672792978 C 0.19338050072636487 0.16278314970755636 0.19464575798266695 0.15639812691288169 0.19454634479636468 0.15696314074480847" fill="none" stroke="#000000" stroke-width="0.001"/>
<path d="M 0.19454634479636468 0.15696314074480847 C 0.19462688494460034 0.15693159418060665 0.19567390687166397 0.15658607598905824 0.19551282657519264 0.15658458197438677 C 0.19567390687166397 0.15658607598905824 0.19655984850225636 0.15701410949973948 0.1964793083540207 0.1569810689208662" fill="none" stroke="#000000" stroke-width="0.001"/>
<path d="M 0.1964793083540207 0.1569810689208662 C 0.19647060600574384 0.15750620452466144 0.19645765144984273 0.16412044889971203 0.19637488017469834 0.16328269616640922 C 0.19645765144984273 0.16412044889971203 0.19756403727917446 0.1673467188500075 0.19747256365575322 0.16703410172049993" fill="none" stroke="#000000" stroke-width="0.001"/>
<path d="M 0.19747256365575322 0.16703410172049993 C 0.19761065756612195 0.16769157614136987 0.19900956139694043 0.1765391264093077 0.19912969058017793 0.17492379477093928 C 0.19900956139694043 0.1765391264093077 0.195772790363297 0.18737593859841922 0.19603101345690324 0.18641808138092075" fill="none" stroke="#000000" stroke-width="0.001"/>
</g></g>
</svg>
