<?xml version="1.0" encoding="UTF-8"?>
<svg xmlns="http://www.w3.org/2000/svg" viewBox="0 0 1 1">
<g transform="translate(0.3373434528286707,0.07847599559563229) rotate(0) scale(1,1) translate(-0.027518731894252097,-0.027518731894252104)"><path d="M 0.027518731894252094 0.03351898730977576 C 0.026652669624412335 0.03351898730977576 0.022755389410133435 0.02376857225954999 0.022322358275213554 0.024518604186490434 C 0.022755389410133435 0.02376857225954999 0.03314813664821053 0.025268636113430876 0.03271510551329065 0.024518604186490434 C 0.03314813664821053 0.025268636113430876 0.026652669624412335 0.03351898730977576 0.027518731894252094 0.03351898730977576 Z" fill="#cccccc" stroke="none" stroke-width="0"/>
</g><g id="お下げ">
<g id="編節1">
<g transform="translate(0.3373434528286707,0.10096164316357523) rotate(0) scale(1,1) translate(-0.15631943324043046,-0.13009997050031358)"><path d="M 0.13532199395169361 0.11439556251780549 C 0.13522412123437366 0.11420642274743761 0.1340285549926485 0.1117367638720388 0.13414752134385405 0.11212588527339096 C 0.1340285549926485 0.1117367638720388 0.13387330410334153 0.10952612407059543 0.1338943977372271 0.1097261057015797" fill="none" stroke="#000000" stroke-width="0.001"/>
<path d="M 0.1338943977372271 0.1097261057015797 C 0.13401583612142404 0.10955331663804257 0.13564898780043125 0.10735962499703548 0.13535165834759036 0.10765263693913427 C 0.13564898780043125 0.10735962499703548 0.13763824223996174 0.10608973951783258 0.13746235117131778 0.10620996239639426" fill="none" stroke="#000000" stroke-width="0.001"/>
<path d="M 0.13746235117131778 0.10620996239639426 C 0.13750684879640923 0.10612627453523972 0.13812120030182104 0.10507179320018283 0.13799632267241507 0.10520570806253986 C 0.13812120030182104 0.10507179320018283 0.13913598735479796 0.10454944919006745 0.1389608827241895 0.10460298404810994 C 0.13913598735479796 0.10454944919006745 0.14027599072716515 0.10460447953428134 0.1400975782397167 0.10456328976602991 C 0.14027599072716515 0.10460447953428134 0.14123574743592815 0.10522213889653317 0.14110183257357112 0.10509726126712719 C 0.14123574743592815 0.10522213889653317 0.14175809144604348 0.10623692594951008 0.141704556588001 0.10606182131890161 C 0.14175809144604348 0.10623692594951008 0.141747558726921 0.10729324146072275 0.141744250870081 0.10719851683442881" fill="none" stroke="#000000" stroke-width="0.001"/>
<path d="M 0.141744250870081 0.10719851683442881 C 0.14184963847423002 0.10738367801138039 0.14314769208079128 0.10981414900011675 0.14300890211986925 0.10942045095784778 C 0.14314769208079128 0.10981414900011675 0.14344313275791845 0.11213143020697391 0.14340973040114544 0.11192289334165652" fill="none" stroke="#000000" stroke-width="0.001"/>
<path d="M 0.14340973040114544 0.11192289334165652 C 0.14330310539168295 0.112093388800478 0.14185272444447114 0.11426642743053002 0.14213023028759553 0.11396883884751441 C 0.14185272444447114 0.11426642743053002 0.13990877944999092 0.11562104946203797 0.14007966028365282 0.11549395633784384" fill="none" stroke="#000000" stroke-width="0.001"/>
</g><g transform="translate(0.3196760836574265,0.08168617218487978) rotate(0) scale(1,1) translate(-0.10433725337565573,-0.10418740031181734)"><path d="M 0.10315380623829981 0.09957934001708402 C 0.10319249590164709 0.09990451741621097 0.10360510980309028 0.10225227716315188 0.1033859442183835 0.1015304044118457 C 0.10360510980309028 0.10225227716315188 0.10427468206397617 0.10454692523015957 0.10446879974654046 0.10391057652492112 C 0.10427468206397617 0.10454692523015957 0.1016433107508074 0.1059891526784209 0.10222123812299774 0.10534849664327638 C 0.1016433107508074 0.1059891526784209 0.1010012355133984 0.10775451273578829 0.1010012355133984 0.10775451273578829 C 0.1010012355133984 0.10775451273578829 0.10279916549518808 0.10470784060813185 0.10222123812299774 0.10534849664327638 C 0.10279916549518808 0.10470784060813185 0.10506429844410843 0.10414872641909503 0.10446879974654046 0.10391057652492112 C 0.10506429844410843 0.10414872641909503 0.10600882158869267 0.10760230149996866 0.10579423030840558 0.10677739600831987 C 0.10600882158869267 0.10760230149996866 0.1057500336149059 0.10920711171922956 0.105756347428263 0.10886000947481389" fill="none" stroke="#000000" stroke-width="0.001"/>
</g></g>
<g id="編節2">
<g transform="translate(0.3206273206089396,0.07756591227867318) rotate(0) scale(1,1) translate(-0.13796833536796266,-0.11460177227368223)"><path d="M 0.13607100636049935 0.11306534553772073 C 0.13606595236291663 0.11285244326286477 0.13607401173628414 0.11010862682481908 0.1360103583895067 0.11051051823944925 C 0.13607401173628414 0.11010862682481908 0.13690355386618874 0.10805365942238428 0.1368348465218286 0.10824264856215851" fill="none" stroke="#000000" stroke-width="0.001"/>
<path d="M 0.1368348465218286 0.10824264856215851 C 0.13701974035847236 0.10814058186433036 0.13944925848463738 0.10688483145238381 0.13905357256155387 0.10701784818822073 C 0.13944925848463738 0.10688483145238381 0.14179386968527052 0.10661549769410675 0.1415830775988308 0.10664644773211551" fill="none" stroke="#000000" stroke-width="0.001"/>
<path d="M 0.1415830775988308 0.10664644773211551 C 0.14165975814300408 0.10659073605570303 0.14267418781051971 0.10591228848377929 0.14250324412891013 0.10597790761516576 C 0.14267418781051971 0.10591228848377929 0.14381525291472952 0.10588766216152773 0.14363440177814593 0.10585901815547788 C 0.14381525291472952 0.10588766216152773 0.14481575744347291 0.10643686769296101 0.14467345776791316 0.1063216356877639 C 0.14481575744347291 0.10643686769296101 0.14540761701624944 0.10741274589945281 0.14534199788486296 0.10724180221784321 C 0.14540761701624944 0.10741274589945281 0.14543224333850094 0.10855381100366261 0.1454608873445508 0.10837295986707902 C 0.14543224333850094 0.10855381100366261 0.1449597183512409 0.1094986038559935 0.14499826981226474 0.10941201585684623" fill="none" stroke="#000000" stroke-width="0.001"/>
<path d="M 0.14499826981226474 0.10941201585684623 C 0.14501182224594653 0.10962463650518423 0.14511305674473102 0.11237815860766527 0.14516089901644627 0.11196346363690207 C 0.14511305674473102 0.11237815860766527 0.1443627678462848 0.11459042982842982 0.14442416255168183 0.11438835550600461" fill="none" stroke="#000000" stroke-width="0.001"/>
<path d="M 0.14442416255168183 0.11438835550600461 C 0.14425358833818444 0.11449485448163994 0.14199739714169182 0.11581216350559848 0.14237727198971314 0.11566634321362855 C 0.14199739714169182 0.11581216350559848 0.13965636374090204 0.11617752032597833 0.13986566437542597 0.11613819900964374" fill="none" stroke="#000000" stroke-width="0.001"/>
</g><g transform="translate(0.32328848977773217,0.07427964203907253) rotate(0) scale(1,1) translate(-0.10433725337565573,-0.10418740031181734)"><path d="M 0.1052936188103659 0.09952691407515649 C 0.1051858444600706 0.09983614201757327 0.10452750924545626 0.10212717252942136 0.10464697270859401 0.10138228172965716 C 0.10452750924545626 0.10212717252942136 0.10412340930249607 0.10448310971026246 0.10457683803153937 0.10399625887374171 C 0.10412340930249607 0.10448310971026246 0.10112611753219256 0.10462585789398732 0.10192640033433421 0.10430338674878166 C 0.10112611753219256 0.10462585789398732 0.09977514121868945 0.10593108574497562 0.09977514121868945 0.10593108574497562 C 0.09977514121868945 0.10593108574497562 0.10272668313647587 0.103980915603576 0.10192640033433421 0.10430338674878166 C 0.10272668313647587 0.103980915603576 0.10500767067327565 0.10447135602771628 0.10457683803153937 0.10399625887374171 C 0.10500767067327565 0.10447135602771628 0.104342654783495 0.10798946044291288 0.10451139618475193 0.10715396967262907 C 0.104342654783495 0.10798946044291288 0.10340655519720539 0.10931840913258051 0.10356438962399775 0.10900920349544459" fill="none" stroke="#000000" stroke-width="0.001"/>
</g></g>
<g id="編節3">
<g transform="translate(0.3259496589465247,0.07099337179947181) rotate(0) scale(1,1) translate(-0.13796833536796266,-0.11460177227368223)"><path d="M 0.13693655250238476 0.11238910677798729 C 0.13702534021383 0.112195535954187 0.13823539388915446 0.10973294307227928 0.13800200503972776 0.11006625689238385 C 0.13823539388915446 0.10973294307227928 0.13988181983348655 0.10824959794042814 0.1397372186955051 0.10838934093673243" fill="none" stroke="#000000" stroke-width="0.001"/>
<path d="M 0.1397372186955051 0.10838934093673243 C 0.13994814327045382 0.10837865611960283 0.14268226444579274 0.10831502577281937 0.14226831359488992 0.10826112313117733 C 0.14268226444579274 0.10831502577281937 0.1449076551822931 0.10910076009520862 0.144704628906339 0.10903617263643699" fill="none" stroke="#000000" stroke-width="0.001"/>
<path d="M 0.144704628906339 0.10903617263643699 C 0.1447979713143874 0.10901971385145376 0.14600714650008023 0.10885462590976829 0.14582473780291988 0.10883866721663822 C 0.14600714650008023 0.10885462590976829 0.14704352449131033 0.10933270193623977 0.1468935332722633 0.10922767695399777 C 0.14704352449131033 0.10933270193623977 0.14770201614640288 0.11026491691571946 0.14762463243148455 0.11009896700354234 C 0.14770201614640288 0.11026491691571946 0.14780617915815333 0.11140148459728356 0.1478221378512834 0.11121907590012321 C 0.14780617915815333 0.11140148459728356 0.1473281031316818 0.11243786258851364 0.1474331281139238 0.11228787136946658 C 0.1473281031316818 0.11243786258851364 0.14648923056025048 0.11307989545862299 0.1465618380643792 0.11301897052868788" fill="none" stroke="#000000" stroke-width="0.001"/>
<path d="M 0.1465618380643792 0.11301897052868788 C 0.14648081215364228 0.1132160136974292 0.14536473647665618 0.1157352412528191 0.14558952713553638 0.11538348855358374 C 0.14536473647665618 0.1157352412528191 0.1437205854096733 0.11739471245000628 0.14386435015781662 0.11724000291951224" fill="none" stroke="#000000" stroke-width="0.001"/>
<path d="M 0.14386435015781662 0.11724000291951224 C 0.14366435299219188 0.11726094875116674 0.1410590315099634 0.11745588913685498 0.14146438417031976 0.11749135289936623 C 0.1410590315099634 0.11745588913685498 0.13879476273880895 0.11675802817521143 0.13900011823354055 0.11681443776937718" fill="none" stroke="#000000" stroke-width="0.001"/>
</g><g transform="translate(0.3297821080052229,0.06920627145391195) rotate(0) scale(1,1) translate(-0.10433725337565573,-0.10418740031181734)"><path d="M 0.10723985163061928 0.10041782604181068 C 0.10700742807849362 0.10064851310987082 0.10541139863432156 0.1024190825308075 0.10584531031786532 0.1018019484501715 C 0.10541139863432156 0.1024190825308075 0.10401542112775077 0.10435943908698947 0.1046363815293567 0.10412063052562667 C 0.10401542112775077 0.10435943908698947 0.10125889644457897 0.10317381407403196 0.10211954790822969 0.10323479981834827 C 0.10125889644457897 0.10317381407403196 0.09947247274745238 0.10375471605972889 0.09947247274745238 0.10375471605972889 C 0.09947247274745238 0.10375471605972889 0.10298019937188041 0.10329578556266457 0.10211954790822969 0.10323479981834827 C 0.10298019937188041 0.10329578556266457 0.10481534245847655 0.1047365096182648 0.1046363815293567 0.10412063052562667 C 0.10481534245847655 0.1047365096182648 0.10267539466903391 0.10760703714266621 0.10319331348294883 0.10693007437417702 C 0.10267539466903391 0.10760703714266621 0.10125146117302027 0.10839112926362598 0.1015288686458672 0.10818240713656185" fill="none" stroke="#000000" stroke-width="0.001"/>
</g></g>
<g id="編節4">
<g transform="translate(0.3336145570639212,0.06741917110835201) rotate(0) scale(1,1) translate(-0.13796833536796266,-0.11460177227368223)"><path d="M 0.13801094378211617 0.11216073786167931 C 0.13817560151256192 0.11202567952859742 0.1403427202173625 0.11034276832520838 0.13998683654746527 0.11054003786469664 C 0.1403427202173625 0.11034276832520838 0.1424727737603342 0.10973129218141385 0.14228154782088276 0.10979350338782022" fill="none" stroke="#000000" stroke-width="0.001"/>
<path d="M 0.14228154782088276 0.10979350338782022 C 0.1424758094886032 0.10987636318560462 0.1449611150309483 0.11101773244384532 0.14461268783352796 0.11078782096123306 C 0.1449611150309483 0.11101773244384532 0.14661683971962683 0.11269949286399514 0.14646267418992692 0.11255244117916728" fill="none" stroke="#000000" stroke-width="0.001"/>
<path d="M 0.14646267418992692 0.11255244117916728 C 0.1465537848469959 0.11257856673967527 0.147712954095147 0.11296025419339367 0.14755600207475478 0.11286594790526316 C 0.147712954095147 0.11296025419339367 0.14843486972740347 0.11384426428818711 0.14834609843463376 0.11368411663673336 C 0.14843486972740347 0.11384426428818711 0.14861806195692986 0.11497079730360832 0.14862125758799138 0.1147877197227081 C 0.14861806195692986 0.11497079730360832 0.1482134445737651 0.1160379996279282 0.1483077508618956 0.11588104760753597 C 0.1482134445737651 0.1160379996279282 0.14732943447897162 0.11675991526018457 0.14748958213042537 0.11667114396741486 C 0.14732943447897162 0.11675991526018457 0.14629401212061938 0.11696923305021897 0.1463859790444506 0.1169463031207725" fill="none" stroke="#000000" stroke-width="0.001"/>
<path d="M 0.1463859790444506 0.1169463031207725 C 0.14622677539843623 0.11708788492629177 0.14411929655226285 0.11886289627992522 0.14447553529227802 0.1186452847870036 C 0.14411929655226285 0.11886289627992522 0.14191407907026787 0.11963367072323428 0.14211111416426866 0.11955764103583191" fill="none" stroke="#000000" stroke-width="0.001"/>
<path d="M 0.14211111416426866 0.11955764103583191 C 0.1419221758542856 0.11948879403776827 0.1394950721769337 0.11852190752988938 0.13984385444447198 0.11873147705906828 C 0.1394950721769337 0.11852190752988938 0.13776588299625392 0.1169020841545699 0.13792572695380914 0.11704280668568516" fill="none" stroke="#000000" stroke-width="0.001"/>
</g><g transform="translate(0.33784255268853425,0.06749297104649586) rotate(0) scale(1,1) translate(-0.10433725337565573,-0.10418740031181734)"><path d="M 0.10859856400166473 0.10207174472654916 C 0.10828853654221955 0.1021771971107937 0.10607786823255384 0.10306892110714014 0.10673839924499365 0.10270445903201644 C 0.10607786823255384 0.10306892110714014 0.10397257563216726 0.10420094576708683 0.10463537792702587 0.10425851717729129 C 0.10397257563216726 0.10420094576708683 0.10201477145504775 0.10192693217778284 0.10276158547584197 0.10235903057078972 C 0.10201477145504775 0.10192693217778284 0.10015449380226062 0.10166592681925003 0.10015449380226062 0.10166592681925003 C 0.10015449380226062 0.10166592681925003 0.10350839949663618 0.10279112896379661 0.10276158547584197 0.10235903057078972 C 0.10350839949663618 0.10279112896379661 0.10452624332051577 0.10489051694672327 0.10463537792702587 0.10425851717729129 C 0.10452624332051577 0.10489051694672327 0.1013445145452122 0.10653243862886644 0.10210677783678138 0.10615102918738167 C 0.1013445145452122 0.10653243862886644 0.09972096823441579 0.1066129645993363 0.10006179817761086 0.10654697382619992" fill="none" stroke="#000000" stroke-width="0.001"/>
</g></g>
<g id="編節5">
<g transform="translate(0.3420705483131473,0.06756677098463967) rotate(0) scale(1,1) translate(-0.13796833536796266,-0.11460177227368223)"><path d="M 0.1390767106114674 0.11242646337673796 C 0.1392839096756257 0.11237725494918406 0.14196944277929788 0.11181466669097931 0.14156309938136713 0.11183596224609119 C 0.14196944277929788 0.11181466669097931 0.14415197572040866 0.11219882958783746 0.14395283138663623 0.11217091671539543" fill="none" stroke="#000000" stroke-width="0.001"/>
<path d="M 0.14395283138663623 0.11217091671539543 C 0.14409110927243005 0.11233054931837738 0.1458245437464794 0.1144458914530321 0.145612166016162 0.11408650795117874 C 0.1458245437464794 0.1144458914530321 0.14657546399496865 0.11668326963650734 0.14650136415044507 0.1164835187376359" fill="none" stroke="#000000" stroke-width="0.001"/>
<path d="M 0.14650136415044507 0.1164835187376359 C 0.14657180117465268 0.11654694051910075 0.1474463348267424 0.11739814528268457 0.14734660844093644 0.11724458011521409 C 0.1474463348267424 0.11739814528268457 0.14770766377991712 0.11850915527635049 0.14769808078011676 0.11832630074728166 C 0.14770766377991712 0.11850915527635049 0.14737847629527775 0.11960198263131087 0.14746160443854062 0.11943883446404005 C 0.14737847629527775 0.11960198263131087 0.14654697789349205 0.12038380514033747 0.14670054306096253 0.1202840787545315 C 0.14654697789349205 0.12038380514033747 0.14543596789982613 0.12064513409351206 0.14561882242889496 0.12063555109371173 C 0.14543596789982613 0.12064513409351206 0.14441357756907333 0.12037936839033755 0.14450628871213653 0.12039907475213557" fill="none" stroke="#000000" stroke-width="0.001"/>
<path d="M 0.14450628871213653 0.12039907475213557 C 0.14430113204449974 0.12045653735112424 0.14162882884220176 0.12112804906925267 0.14204440870049503 0.1210886259399996 C 0.14162882884220176 0.12112804906925267 0.13930890722196074 0.12085411283343692 0.13951933041261722 0.12087215230317251" fill="none" stroke="#000000" stroke-width="0.001"/>
<path d="M 0.13951933041261722 0.12087215230317251 C 0.13937969432198075 0.12072744792758769 0.13762208313429977 0.1187944438684424 0.13784369732497972 0.11913569979615457 C 0.13762208313429977 0.1187944438684424 0.13677798202441444 0.11658052961849917 0.13685996012445792 0.1167770811706265" fill="none" stroke="#000000" stroke-width="0.001"/>
</g><g transform="translate(0.34583829384481135,0.06948653322024144) rotate(0) scale(1,1) translate(-0.10433725337565573,-0.10418740031181734)"><path d="M 0.10909473636086872 0.10415389729370678 C 0.10876985824351722 0.10411277017590073 0.10639201665754972 0.10394515319268056 0.10714546765675967 0.10390713458687055 C 0.10639201665754972 0.10394515319268056 0.1040035452542302 0.10403971068574648 0.10457403036560896 0.10438200892856689 C 0.1040035452542302 0.10403971068574648 0.1032407444609727 0.10113759594816435 0.10372255698848713 0.10185334512994808 C 0.1032407444609727 0.10113759594816435 0.10168315520052235 0.10008751383786448 0.10168315520052235 0.10008751383786448 C 0.10168315520052235 0.10008751383786448 0.10420436951600157 0.1025690943117318 0.10372255698848713 0.10185334512994808 C 0.10420436951600157 0.1025690943117318 0.10419889036733615 0.10490220509598461 0.10457403036560896 0.10438200892856689 C 0.10419889036733615 0.10490220509598461 0.10061940039641562 0.10498317643638276 0.10147171699885026 0.10497452213445435 C 0.10061940039641562 0.10498317643638276 0.09912486637635963 0.10434383684108452 0.09946013075100114 0.10443393474013735" fill="none" stroke="#000000" stroke-width="0.001"/>
</g></g>
<g id="編節6">
<g transform="translate(0.3496060393764755,0.07140629545584318) rotate(0) scale(1,1) translate(-0.13796833536796266,-0.11460177227368223)"><path d="M 0.13991812909366408 0.11313249731481492 C 0.1401259299337468 0.11317909916447044 0.14278629355838593 0.11385070841387498 0.1424117391746569 0.1136917195106811 C 0.14278629355838593 0.11385070841387498 0.1445795352420586 0.1151527512066798 0.14441278169841232 0.11504036415314144" fill="none" stroke="#000000" stroke-width="0.001"/>
<path d="M 0.14441278169841232 0.11504036415314144 C 0.14446708671166453 0.11524445802166784 0.14509778233916995 0.11790560259645402 0.14506444185743866 0.11748949057545836 C 0.14509778233916995 0.11790560259645402 0.14479190294766672 0.12024572655755855 0.14481286747918765 0.12003370840508931" fill="none" stroke="#000000" stroke-width="0.001"/>
<path d="M 0.14481286747918765 0.12003370840508931 C 0.14484837357811234 0.12012158908375391 0.14526125560953426 0.12127001717741678 0.14523894066628382 0.12108827654906448 C 0.14526125560953426 0.12127001717741678 0.1450091017917558 0.12238314541799493 0.14508064679819305 0.12221459594531688 C 0.1450091017917558 0.12238314541799493 0.14423416605960931 0.12322106584311623 0.14438040058903692 0.12311087022120118 C 0.14423416605960931 0.12322106584311623 0.14314409181670953 0.12355925835154792 0.14332583244506183 0.12353694340829746 C 0.14314409181670953 0.12355925835154792 0.1420309635761314 0.1233071045337694 0.14219951304880946 0.12337864954020665 C 0.1420309635761314 0.1233071045337694 0.14122854924993475 0.12262004948028746 0.1413032387729251 0.12267840333105047" fill="none" stroke="#000000" stroke-width="0.001"/>
<path d="M 0.1413032387729251 0.12267840333105047 C 0.14109365523607845 0.122640115609243 0.13839743366598856 0.1220722057241575 0.1387882363307651 0.12221895066936081 C 0.13839743366598856 0.1220722057241575 0.13643238766767685 0.12080900676521483 0.13661360679560672 0.12091746398861068" fill="none" stroke="#000000" stroke-width="0.001"/>
<path d="M 0.13661360679560672 0.12091746398861068 C 0.1365515369317647 0.12072619212417615 0.13581917966672366 0.11821833355239124 0.13586876842950246 0.11862220161539633 C 0.13581917966672366 0.11821833355239124 0.13603102274332446 0.11585845103397899 0.13601854164226124 0.11607104723254955" fill="none" stroke="#000000" stroke-width="0.001"/>
</g><g transform="translate(0.3521508982555223,0.07478343725303702) rotate(0) scale(1,1) translate(-0.10433725337565573,-0.10418740031181734)"><path d="M 0.10862793751460477 0.10624283127066386 C 0.10835396793875311 0.10606344926916829 0.10629025652739851 0.10487041897966803 0.10698412005949484 0.10516653926169044 C 0.10629025652739851 0.10487041897966803 0.10410206137366633 0.10390836974332256 0.1044647563220268 0.1044661095785294 C 0.10410206137366633 0.10390836974332256 0.10468866392780156 0.10096557643699476 0.104807950369332 0.10182010025044932 C 0.10468866392780156 0.10096557643699476 0.1037490376728441 0.099338966697802 0.1037490376728441 0.099338966697802 C 0.1037490376728441 0.099338966697802 0.10492723681086245 0.10267462406390389 0.104807950369332 0.10182010025044932 C 0.10492723681086245 0.10267462406390389 0.10389954373458432 0.10476920824546279 0.1044647563220268 0.1044661095785294 C 0.10389954373458432 0.10476920824546279 0.10064682396058597 0.1032728396806611 0.10141667484467717 0.10363869225204961 C 0.10064682396058597 0.1032728396806611 0.09958381371294667 0.10204304446655646 0.0998456510174796 0.10227099415019834" fill="none" stroke="#000000" stroke-width="0.001"/>
</g></g>
<g id="編節7">
<g transform="translate(0.35469575713456925,0.07816057905023086) rotate(0) scale(1,1) translate(-0.13796833536796266,-0.11460177227368223)"><path d="M 0.14036488610880168 0.11413592999981373 C 0.14053122736040805 0.11426890935740144 0.14262793223036893 0.11603877440521468 0.14236098112807788 0.11573168229086622 C 0.14262793223036893 0.11603877440521468 0.14366890918697914 0.11799514812875593 0.14356829933629442 0.11782103537199519" fill="none" stroke="#000000" stroke-width="0.001"/>
<path d="M 0.14356829933629442 0.11782103537199519 C 0.14352763949569114 0.11802827947684866 0.14292793597169942 0.12069657914251222 0.1430803812490552 0.12030796463023677 C 0.14292793597169942 0.12069657914251222 0.1416271705712727 0.12266577992672258 0.1417389560080252 0.12248440951930059" fill="none" stroke="#000000" stroke-width="0.001"/>
<path d="M 0.1417389560080252 0.12248440951930059 C 0.1417323443244592 0.12257896099937268 0.1416000024957014 0.12379215690216262 0.14165961580523334 0.12361902728016567 C 0.1416000024957014 0.12379215690216262 0.14088540484218495 0.12468209297929496 0.14102359629364175 0.12456196498326398 C 0.14088540484218495 0.12468209297929496 0.13982157708218879 0.12509550140307754 0.1400013183877517 0.1250605632325374 C 0.13982157708218879 0.12509550140307754 0.1386935710048897 0.12492160972021372 0.13886670062688664 0.12498122302974567 C 0.1386935710048897 0.12492160972021372 0.1378036349277574 0.12420701206669722 0.13792376292378838 0.12434520351815403 C 0.1378036349277574 0.12420701206669722 0.13738361482040884 0.1232377357867731 0.13742516467451496 0.12332292561226395" fill="none" stroke="#000000" stroke-width="0.001"/>
<path d="M 0.13742516467451496 0.12332292561226395 C 0.13725357647191153 0.12319663746046144 0.1350791838848091 0.1215042576952344 0.13536610624327383 0.12180746779063395 C 0.1350791838848091 0.1215042576952344 0.13386676221707702 0.11950748252387224 0.13398209637293831 0.1196844044674693" fill="none" stroke="#000000" stroke-width="0.001"/>
<path d="M 0.13398209637293831 0.1196844044674693 C 0.13401015641542316 0.11948528081709753 0.13445129090393848 0.11691018816968157 0.13431881688275638 0.11729492066300812 C 0.13445129090393848 0.11691018816968157 0.1356761986058209 0.11488200570459596 0.13557178462712363 0.11506761454755074" fill="none" stroke="#000000" stroke-width="0.001"/>
</g><g transform="translate(0.35550261962122287,0.08231152669628086) rotate(0) scale(1,1) translate(-0.10433725337565573,-0.10418740031181734)"><path d="M 0.10729265310771809 0.10791572154670838 C 0.10712504677778444 0.10763439371459953 0.10579318530414158 0.10565743365530487 0.10628701512811621 0.10622775455405524 C 0.10579318530414158 0.10565743365530487 0.10424818315483074 0.10383350791049104 0.10432967416387033 0.10449379615420622 C 0.10424818315483074 0.10383350791049104 0.10606545371448951 0.10144569244164024 0.10579806907387863 0.10226602509176416 C 0.10606545371448951 0.10144569244164024 0.10593398200753558 0.09957180025346273 0.10593398200753558 0.09957180025346273 C 0.10593398200753558 0.09957180025346273 0.10553068443326775 0.10308635774188808 0.10579806907387863 0.10226602509176416 C 0.10553068443326775 0.10308635774188808 0.10368879474516986 0.10451844654135037 0.10432967416387033 0.10449379615420622 C 0.10368879474516986 0.10451844654135037 0.1014212343817918 0.10174762088672623 0.10195279256167582 0.10241392741462911 C 0.1014212343817918 0.10174762088672623 0.10100491383838137 0.10017629524881558 0.10114032508456629 0.10049595698678894" fill="none" stroke="#000000" stroke-width="0.001"/>
</g></g>
</g>
</svg>
