<?xml version="1.0" encoding="UTF-8"?>
<svg xmlns="http://www.w3.org/2000/svg" viewBox="0 0 1 1">
<g transform="translate(0.3373434528286707,0.07847599559563229) rotate(0) scale(1,1) translate(-0.2178778082444383,-0.21061995408824444)"><path d="M 0.2456020006120999 0.23378664862188522 C 0.24529247248894492 0.23493027155705123 0.24073248845225406 0.2494909368722861 0.24188766313423996 0.2475101238438775 C 0.24073248845225406 0.2494909368722861 0.2297390831874525 0.2587673083827231 0.23173990442826928 0.25755640496278853 C 0.2297390831874525 0.2587673083827231 0.2155674588804668 0.2620409648830925 0.2178778082444386 0.2620409648830925 C 0.2155674588804668 0.2620409648830925 0.2020148908197911 0.25634550154285407 0.2040157120606079 0.25755640496278864 C 0.2020148908197911 0.25634550154285407 0.19271277867265127 0.24552931081546894 0.19386795335463716 0.24751012384387755 C 0.19271277867265127 0.24552931081546894 0.18984408775362221 0.23264302568671918 0.1901536158767772 0.23378664862188522" fill="none" stroke="#000000" stroke-width="0.001"/>
<path d="M 0.1901536158767772 0.23378664862188522 C 0.1904631439999322 0.23264302568671918 0.19502312803662308 0.2180823603714842 0.1938679533546372 0.22006317339989281 C 0.19502312803662308 0.2180823603714842 0.20601653330142475 0.20887326934581574 0.20401571206060795 0.21001689228098178 C 0.20601653330142475 0.20887326934581574 0.22018815760841043 0.20633969817790035 0.21787780824443864 0.20633969817790035 C 0.22018815760841043 0.20633969817790035 0.2337407256690861 0.21116051521614781 0.23173990442826933 0.21001689228098178 C 0.2337407256690861 0.21116051521614781 0.24304283781622593 0.22204398642830142 0.24188766313424004 0.22006317339989281 C 0.24304283781622593 0.22204398642830142 0.2459115287352549 0.23493027155705126 0.2456020006120999 0.23378664862188522" fill="none" stroke="#000000" stroke-width="0.001"/>
</g></svg>
