<?xml version="1.0" encoding="UTF-8"?>
<svg xmlns="http://www.w3.org/2000/svg" viewBox="0 0 1 1">
<g transform="translate(0.3373434528286707,0.07847599559563229) rotate(0) scale(1,1) translate(-0.2178778082444383,-0.21061995408824444)"><path d="M 0.2456020006120999 0.23378664862188522 C 0.24529247248894492 0.23493027155705123 0.24073248845225406 0.2494909368722861 0.24188766313423996 0.2475101238438775 C 0.24073248845225406 0.2494909368722861 0.2297390831874525 0.2587673083827231 0.23173990442826928 0.25755640496278853 C 0.2297390831874525 0.2587673083827231 0.2155674588804668 0.2620409648830925 0.2178778082444386 0.2620409648830925 C 0.2155674588804668 0.2620409648830925 0.2020148908197911 0.25634550154285407 0.2040157120606079 0.25755640496278864 C 0.2020148908197911 0.25634550154285407 0.19271277867265127 0.24552931081546894 0.19386795335463716 0.24751012384387755 C 0.19271277867265127 0.24552931081546894 0.18984408775362221 0.23264302568671918 0.1901536158767772 0.23378664862188522" fill="none" stroke="#000000" stroke-width="0.001"/>
<path d="M 0.1901536158767772 0.23378664862188522 C 0.1904631439999322 0.23264302568671918 0.19502312803662308 0.2180823603714842 0.1938679533546372 0.22006317339989281 C 0.19502312803662308 0.2180823603714842 0.20601653330142475 0.20887326934581574 0.20401571206060795 0.21001689228098178 C 0.20601653330142475 0.20887326934581574 0.22018815760841043 0.20633969817790035 0.21787780824443864 0.20633969817790035 C 0.22018815760841043 0.20633969817790035 0.2337407256690861 0.21116051521614781 0.23173990442826933 0.21001689228098178 C 0.2337407256690861 0.21116051521614781 0.24304283781622593 0.22204398642830142 0.24188766313424004 0.22006317339989281 C 0.24304283781622593 0.22204398642830142 0.2459115287352549 0.23493027155705126 0.2456020006120999 0.23378664862188522" fill="none" stroke="#000000" stroke-width="0.001"/>
</g><g transform="translate(0.33734345282867095,0.12428215862934613) rotate(0) scale(1,1) translate(-0.19551282657519264,-0.15725534279570835)"><path d="M 0.19551282657519264 0.2423680787601194 C 0.1955012355300026 0.24198715394918774 0.19526836089482094 0.23703513140707602 0.19537373403291217 0.23779698102893934 C 0.19526836089482094 0.23703513140707602 0.19422516682771782 0.2324640336758961 0.1942483489180979 0.23322588329775942 C 0.19422516682771782 0.2324640336758961 0.19499017581026 0.22789293594471619 0.1950955489483512 0.2286547855665795 C 0.19499017581026 0.22789293594471619 0.1929606891706233 0.22332183821353627 0.19298387126100336 0.2240836878353996 C 0.1929606891706233 0.22332183821353627 0.19471199072569925 0.21875074048235635 0.19481736386379048 0.21951259010421967 C 0.19471199072569925 0.21875074048235635 0.19169621151352864 0.21417964275117643 0.19171939360390872 0.21494149237303975 C 0.19169621151352864 0.21417964275117643 0.19443380564113844 0.2096085450199965 0.19453917877922963 0.21037039464185983 C 0.19443380564113844 0.2096085450199965 0.1904317338564341 0.2050374472888166 0.19045491594681419 0.2057992969106799 C 0.1904317338564341 0.2050374472888166 0.1941556205565776 0.20046634955763667 0.19426099369466882 0.2012281991795 C 0.1941556205565776 0.20046634955763667 0.1891672561993395 0.19589525182645676 0.18919043828971954 0.19665710144832008 C 0.1891672561993395 0.19589525182645676 0.19387743547201686 0.19132415409527684 0.19398280861010808 0.19208600371714016 C 0.19387743547201686 0.19132415409527684 0.1874212233011681 0.18713398117502858 0.187925960632625 0.18751490598596024" fill="none" stroke="#000000" stroke-width="0.001"/>
<path d="M 0.187925960632625 0.18751490598596024 C 0.187981159011742 0.1863186236670079 0.1888763682879357 0.17056224881152787 0.18858834118202883 0.17315951815853242 C 0.1888763682879357 0.17056224881152787 0.1916151146302972 0.15494668679385343 0.19138228590350734 0.15634767382190565" fill="none" stroke="#000000" stroke-width="0.001"/>
<path d="M 0.19964336724687803 0.15634767382190565 C 0.19987619597366793 0.15774866084995787 0.20272533907426352 0.17575678750553697 0.20243731196835665 0.17315951815853242 C 0.20272533907426352 0.17575678750553697 0.20315489089687733 0.18871118830491257 0.20309969251776036 0.18751490598596024" fill="none" stroke="#000000" stroke-width="0.001"/>
<path d="M 0.20309969251776036 0.18751490598596024 C 0.2025949551863034 0.1878958307968919 0.19693747140218576 0.19284785333900362 0.19704284454027698 0.1920860037171403 C 0.19693747140218576 0.19284785333900362 0.20181203277028542 0.19741895107018353 0.2018352148606655 0.19665710144832022 C 0.20181203277028542 0.19741895107018353 0.19665928631762503 0.20199004880136345 0.19676465945571625 0.20122819917950013 C 0.19665928631762503 0.20199004880136345 0.2005475551131909 0.20656114653254337 0.20057073720357096 0.20579929691068005 C 0.2005475551131909 0.20656114653254337 0.19638110123306407 0.2111322442637233 0.1964864743711553 0.21037039464185997 C 0.19638110123306407 0.2111322442637233 0.19928307745609636 0.2157033419949032 0.19930625954647643 0.2149414923730399 C 0.19928307745609636 0.2157033419949032 0.19610291614850334 0.22027443972608313 0.19620828928659456 0.2195125901042198 C 0.19610291614850334 0.22027443972608313 0.19801859979900183 0.22484553745726304 0.1980417818893819 0.22408368783539973 C 0.19801859979900183 0.22484553745726304 0.19582473106394252 0.22941663518844296 0.19593010420203374 0.22865478556657964 C 0.19582473106394252 0.22941663518844296 0.19675412214190718 0.23398773291962288 0.19677730423228726 0.23322588329775956 C 0.19675412214190718 0.23398773291962288 0.19554654597938168 0.2385588306508028 0.1956519191174729 0.23779698102893948 C 0.19554654597938168 0.2385588306508028 0.19550123553000262 0.24274900357105106 0.19551282657519264 0.2423680787601194" fill="none" stroke="#000000" stroke-width="0.001"/>
</g><g transform="translate(0.3315941297101035,0.12302840530544282) rotate(0) scale(1,1) translate(-0.17182654921449536,-0.1626271006073876)"><path d="M 0.1772357118591768 0.16248098613034803 C 0.17741103277147174 0.16452361870550788 0.17939634795264964 0.18927639233655072 0.17933956280671592 0.1869925770322662 C 0.17939634795264964 0.18927639233655072 0.17779859784402013 0.19012795251088685 0.17791713361038136 0.1898867697817622" fill="none" stroke="#000000" stroke-width="0.001"/>
<path d="M 0.17791713361038136 0.1898867697817622 C 0.17737507997318686 0.18986915169323137 0.17138139006638428 0.19023561184881618 0.1714124899640473 0.18967535271939237 C 0.17138139006638428 0.19023561184881618 0.17805488857795684 0.1971877565528027 0.17754393483842534 0.19660987933484808" fill="none" stroke="#000000" stroke-width="0.001"/>
<path d="M 0.17754393483842534 0.19660987933484808 C 0.17700558152083407 0.19690472286774519 0.1710562954492703 0.20102072248046518 0.1710836950273301 0.20014800172961342 C 0.1710562954492703 0.20102072248046518 0.1777260936412396 0.20766040556302384 0.1772151399017081 0.20708252834506918" fill="none" stroke="#000000" stroke-width="0.001"/>
<path d="M 0.1772151399017081 0.20708252834506918 C 0.1766767865841168 0.2073773718779663 0.1707275005125531 0.21149337149068625 0.17075490009061284 0.21062065073983452 C 0.1707275005125531 0.21149337149068625 0.17739729870452253 0.2181330545732448 0.176886344964991 0.21755517735529017" fill="none" stroke="#000000" stroke-width="0.001"/>
<path d="M 0.176886344964991 0.21755517735529017 C 0.17634799164739973 0.21785002088818728 0.17026811918476797 0.22193165566115255 0.1704261051538956 0.2210932997500555 C 0.17026811918476797 0.22193165566115255 0.17537088068392281 0.22815896066665475 0.17499051333545917 0.2276154482884548" fill="none" stroke="#000000" stroke-width="0.001"/>
<path d="M 0.17499051333545917 0.2276154482884548 C 0.17458274640893578 0.22794465666110664 0.17000461744358478 0.23249021677076046 0.1700973102171785 0.23156594876027664 C 0.17000461744358478 0.23249021677076046 0.17419327420526431 0.2393017240520925 0.17387820005233465 0.2387066644142605" fill="none" stroke="#000000" stroke-width="0.001"/>
<path d="M 0.17387820005233465 0.2387066644142605 C 0.1735357263213452 0.23898432552728022 0.16993699528900325 0.24289413610147154 0.1697685152804612 0.24203859777049722 C 0.16993699528900325 0.24289413610147154 0.1764109138943708 0.24955100160390709 0.1758999601548393 0.24897312438595248" fill="none" stroke="#000000" stroke-width="0.001"/>
<path d="M 0.1758999601548393 0.24897312438595248 C 0.175315705035056 0.24839710541888949 0.1685738159483942 0.2412090749520054 0.16888889871743984 0.2420608967811965 C 0.1685738159483942 0.2412090749520054 0.17238813927702945 0.23847545957353108 0.17211896692629178 0.2387512624356592" fill="none" stroke="#000000" stroke-width="0.001"/>
<path d="M 0.17211896692629178 0.2387512624356592 C 0.1717305913931103 0.2381580610487188 0.16740455054120418 0.23071229428367412 0.16745846052811406 0.2316328457923747 C 0.16740455054120418 0.23071229428367412 0.1718065126296448 0.22737729420949201 0.1714720470833732 0.22770464433125223" fill="none" stroke="#000000" stroke-width="0.001"/>
<path d="M 0.1714720470833732 0.22770464433125223 C 0.1710183783546578 0.2271629902039439 0.16603940554741234 0.22037015539423851 0.16602802233878827 0.22120479480355235 C 0.16603940554741234 0.22037015539423851 0.1720736975242015 0.2173959861374809 0.17160864558686204 0.2176889714194864" fill="none" stroke="#000000" stroke-width="0.001"/>
<path d="M 0.17160864558686204 0.2176889714194864 C 0.17102439046707874 0.21711295245242337 0.16447838096701867 0.20990773956566156 0.1645975841494625 0.21077674381473008 C 0.16447838096701867 0.20990773956566156 0.17064325933487573 0.2069679351486586 0.17017820739753625 0.2072609204306641" fill="none" stroke="#000000" stroke-width="0.001"/>
<path d="M 0.17017820739753625 0.2072609204306641 C 0.16959395227775295 0.20668490146360108 0.16304794277769294 0.19947968857683926 0.16316714596013676 0.20034869282590778 C 0.16304794277769294 0.19947968857683926 0.16921282114555 0.19653988415983634 0.16874776920821052 0.19683286944184183" fill="none" stroke="#000000" stroke-width="0.001"/>
<path d="M 0.16874776920821052 0.19683286944184183 C 0.16816351408842722 0.1962568504747788 0.16162292887234433 0.18704456522697868 0.16173670777081092 0.1899206418370855 C 0.16162292887234433 0.18704456522697868 0.16785289864792824 0.1600198924775159 0.16738242242661153 0.16231995012055972" fill="none" stroke="#000000" stroke-width="0.001"/>
</g><g transform="translate(0.3279408233169804,0.1204963061541541) rotate(0) scale(1,1) translate(-0.17172616467872354,-0.16464542498289636)"><path d="M 0.17805912532992385 0.16485806112190202 C 0.17816113525562824 0.16667975440086907 0.17905813054709657 0.1888326184050777 0.17928324443837662 0.18671838046950687 C 0.17905813054709657 0.1888326184050777 0.17503063481757863 0.19052146100535583 0.1753577586345631 0.19022891634875205" fill="none" stroke="#000000" stroke-width="0.001"/>
<path d="M 0.1753577586345631 0.19022891634875205 C 0.17561183258588528 0.19055267509261145 0.1782561464211751 0.19490816992305507 0.17840664605042933 0.19411402127506472 C 0.1782561464211751 0.19490816992305507 0.17314718950293573 0.20022909002876735 0.17355176308351217 0.19975870012463637" fill="none" stroke="#000000" stroke-width="0.001"/>
<path d="M 0.17355176308351217 0.19975870012463637 C 0.17389273852703735 0.200121301843725 0.17749825377434553 0.20497727721667441 0.17764346840581421 0.2041099207537001 C 0.17749825377434553 0.20497727721667441 0.17132299743089405 0.2106717324242139 0.17180918750588792 0.21016697768032822" fill="none" stroke="#000000" stroke-width="0.001"/>
<path d="M 0.17180918750588792 0.21016697768032822 C 0.17216648624829656 0.21052957939941686 0.17595155778332308 0.21538555477236623 0.17609677241479177 0.21451819830939192 C 0.17595155778332308 0.21538555477236623 0.16956409855438637 0.22108000997990573 0.1700666119282637 0.22057525523602006" fill="none" stroke="#000000" stroke-width="0.001"/>
<path d="M 0.1700666119282637 0.22057525523602006 C 0.17048920386620628 0.2209378569551087 0.17499250055210613 0.22579383232805805 0.17513771518357482 0.22492647586508374 C 0.17499250055210613 0.22579383232805805 0.16775622978122817 0.23148828753559758 0.16832403635063944 0.2309835327917119" fill="none" stroke="#000000" stroke-width="0.001"/>
<path d="M 0.16832403635063944 0.2309835327917119 C 0.16864868849528114 0.23143204661018732 0.172074647454871 0.23723305507639103 0.1722198620863397 0.23636569861341675 C 0.172074647454871 0.23723305507639103 0.1661115939969048 0.24181065299190224 0.1665814607730152 0.24139181034740337" fill="none" stroke="#000000" stroke-width="0.001"/>
<path d="M 0.1665814607730152 0.24139181034740337 C 0.16691397228378596 0.24175441206649198 0.17078549684623237 0.2466791171189503 0.1705715989022644 0.2457430309764666 C 0.17078549684623237 0.2466791171189503 0.16902962253382817 0.2531983284806026 0.16914823610063096 0.25262484405720753" fill="none" stroke="#000000" stroke-width="0.001"/>
<path d="M 0.16914823610063096 0.25262484405720753 C 0.16918094560410865 0.2520711467180709 0.16918798340703592 0.2450399770187151 0.16954075014236328 0.24598047598756795 C 0.16918798340703592 0.2450399770187151 0.1645295590378976 0.2409520548012574 0.16491503527670265 0.24133885643097358" fill="none" stroke="#000000" stroke-width="0.001"/>
<path d="M 0.16491503527670265 0.24133885643097358 C 0.16531546765713334 0.2409178073732901 0.1697265696819801 0.2354144984494286 0.16972022384187083 0.23628626773877204 C 0.1697265696819801 0.2354144984494286 0.16459709881769274 0.2304269047271923 0.16499118535801413 0.23087762495885228" fill="none" stroke="#000000" stroke-width="0.001"/>
<path d="M 0.16499118535801413 0.23087762495885228 C 0.16548955753174574 0.23037066380178203 0.1709779972829026 0.22392232178466578 0.1709716514427933 0.22479409107400924 C 0.1709779972829026 0.22392232178466578 0.1645753091057035 0.22005158535445743 0.1650673354393258 0.22041639348673064" fill="none" stroke="#000000" stroke-width="0.001"/>
<path d="M 0.1650673354393258 0.22041639348673064 C 0.16550041441752344 0.2199094323296604 0.17027062901780676 0.21346109031254415 0.17026428317769748 0.2143328596018876 C 0.17027062901780676 0.21346109031254415 0.16471675238254893 0.2095903538823358 0.1651434855206373 0.209955162014609" fill="none" stroke="#000000" stroke-width="0.001"/>
<path d="M 0.1651434855206373 0.209955162014609 C 0.16556024119995144 0.20944820085753876 0.17015089951251652 0.2029998588404225 0.17014455367240722 0.20387162812976595 C 0.17015089951251652 0.2029998588404225 0.16480922576274412 0.1991291224102141 0.16521963560194897 0.19949393054248732" fill="none" stroke="#000000" stroke-width="0.001"/>
<path d="M 0.16521963560194897 0.19949393054248732 C 0.16555477478684572 0.19902133422517176 0.16924765166081912 0.19295100544535734 0.16924130582070981 0.1938227747347008 C 0.16924765166081912 0.19295100544535734 0.16496699233847306 0.18863352609833778 0.1652957856832605 0.1890326990703657" fill="none" stroke="#000000" stroke-width="0.001"/>
<path d="M 0.1652957856832605 0.1890326990703657 C 0.16521277153175956 0.18879206065604648 0.16443706159957353 0.18409504557966194 0.16429961586524922 0.18614503809853486 C 0.16443706159957353 0.18409504557966194 0.1671655943809776 0.16262343473933702 0.16694513449515236 0.1644327888438907" fill="none" stroke="#000000" stroke-width="0.001"/>
</g><g transform="translate(0.32219150019841303,0.11486552260992469) rotate(0) scale(1,1) translate(-0.17220112318371358,-0.1645055777824458)"><path d="M 0.1791412368744067 0.16425918175260887 C 0.1792843456254977 0.16606535166621353 0.18084192741038646 0.1880361981383007 0.18085854188749872 0.18593322071586493 C 0.18084192741038646 0.1880361981383007 0.17878213992085637 0.189791718330669 0.17894186314905963 0.18949491082183792" fill="none" stroke="#000000" stroke-width="0.001"/>
<path d="M 0.17894186314905963 0.18949491082183792 C 0.178391196119592 0.1898027592482088 0.17224839915210938 0.19404583764259448 0.1723338587954482 0.19318909193828843 C 0.17224839915210938 0.19404583764259448 0.17838155481512227 0.2003247565514457 0.1779163474289935 0.19977585927351052" fill="none" stroke="#000000" stroke-width="0.001"/>
<path d="M 0.1779163474289935 0.19977585927351052 C 0.1773707842850048 0.20024135743305332 0.17128923394326914 0.20632468536587026 0.17136958970112906 0.20536183718802434 C 0.17128923394326914 0.20632468536587026 0.17741728572080318 0.21182738742596482 0.17695207833467438 0.2113300374076617" fill="none" stroke="#000000" stroke-width="0.001"/>
<path d="M 0.17695207833467438 0.2113300374076617 C 0.17642283848956916 0.21179553556720454 0.17052084443555182 0.21787886350002156 0.17060120019341177 0.2169160153221756 C 0.17052084443555182 0.21787886350002156 0.17643669332760045 0.22338156556011607 0.17598780924035518 0.22288421554181295" fill="none" stroke="#000000" stroke-width="0.001"/>
<path d="M 0.17598780924035518 0.22288421554181295 C 0.17545856939524995 0.2231950719224596 0.16955657534123264 0.2275773402874187 0.16963693109909259 0.22661449210957274 C 0.16955657534123264 0.2275773402874187 0.17547242423328127 0.2350903854731635 0.175023540146036 0.2344383936759642" fill="none" stroke="#000000" stroke-width="0.001"/>
<path d="M 0.175023540146036 0.2344383936759642 C 0.1744943003009308 0.23474925005661085 0.1684617198558457 0.2390284239023057 0.16867266200477352 0.23816867024372393 C 0.1684617198558457 0.2390284239023057 0.1728105320550797 0.2453043348568804 0.17249223435890232 0.2447554375789453" fill="none" stroke="#000000" stroke-width="0.001"/>
<path d="M 0.17249223435890232 0.2447554375789453 C 0.17209358090486498 0.24516938847885605 0.16743215756599253 0.25073724381535234 0.16770839291045425 0.2497228483778743 C 0.16743215756599253 0.25073724381535234 0.16929982833493712 0.2575286273662486 0.1691774102253615 0.25692818282868135" fill="none" stroke="#000000" stroke-width="0.001"/>
<path d="M 0.1691774102253615 0.25692818282868135 C 0.1689711106890851 0.2563314559046012 0.16681028828110483 0.2487604995292157 0.1667018157900447 0.24976745973971948 C 0.16681028828110483 0.2487604995292157 0.1707938521454196 0.24443442701621226 0.17047908011808305 0.2448446603026359" fill="none" stroke="#000000" stroke-width="0.001"/>
<path d="M 0.17047908011808305 0.2448446603026359 C 0.17007690099520484 0.2442994806381879 0.16569610993907063 0.23745018589765216 0.16565293064354444 0.2383025043292597 C 0.16569610993907063 0.23745018589765216 0.1714425900828018 0.23430970035618576 0.1709972316643974 0.2346168391233453" fill="none" stroke="#000000" stroke-width="0.001"/>
<path d="M 0.1709972316643974 0.2346168391233453 C 0.1704644661504513 0.23396856493963314 0.16451663840150255 0.2258821359679275 0.16460404549704424 0.2268375489187992 C 0.16451663840150255 0.2258821359679275 0.17039370493630152 0.2228447449457252 0.16994834651789711 0.22315188371288475" fill="none" stroke="#000000" stroke-width="0.001"/>
<path d="M 0.16994834651789711 0.22315188371288475 C 0.16941558100395102 0.22265825130806874 0.16346775325500232 0.21627288190422092 0.16355516035054402 0.21722829485509265 C 0.16346775325500232 0.21627288190422092 0.1693448197898013 0.2112251477563684 0.1688994613713969 0.2116869283024241" fill="none" stroke="#000000" stroke-width="0.001"/>
<path d="M 0.1688994613713969 0.2116869283024241 C 0.1683503725585673 0.2111932958976081 0.1622229885219002 0.2048079264937603 0.1623103956174419 0.20576333944463204 C 0.1622229885219002 0.2048079264937603 0.16831225794218455 0.19976019234590775 0.16785057622489666 0.20022197289196347" fill="none" stroke="#000000" stroke-width="0.001"/>
<path d="M 0.16785057622489666 0.20022197289196347 C 0.16730148741206707 0.19967679322751541 0.16117410337539995 0.192724403967715 0.16126151047094164 0.19367981691858674 C 0.16117410337539995 0.192724403967715 0.16726337279568426 0.1883467841950791 0.16680169107839637 0.18875701748150278" fill="none" stroke="#000000" stroke-width="0.001"/>
<path d="M 0.16680169107839637 0.18875701748150278 C 0.16659464534294413 0.18755817345345566 0.1642597985576303 0.17237046883916898 0.16431714225296948 0.1743708891449373 C 0.1642597985576303 0.17237046883916898 0.16626326877443914 0.16395039753456148 0.1661135667343261 0.16475197381228268" fill="none" stroke="#000000" stroke-width="0.001"/>
</g><g transform="translate(0.31644217707984557,0.10970774271469325) rotate(0) scale(1,1) translate(-0.17149933224096225,-0.16424072920864125)"><path d="M 0.1789703194064021 0.1648350535222143 C 0.17883005069950142 0.16667540270471673 0.17669616152675793 0.18904175134735518 0.17728709492359396 0.18691924371224342 C 0.17669616152675793 0.18904175134735518 0.17142845395443432 0.1905873035961649 0.17187911864436967 0.19030514514355557" fill="none" stroke="#000000" stroke-width="0.001"/>
<path d="M 0.17187911864436967 0.19030514514355557 C 0.1722729559198822 0.19065897272584584 0.1764914541552282 0.19549601917242365 0.1766051659505202 0.1945510761310388 C 0.1764914541552282 0.19549601917242365 0.17000702803006137 0.2022355770992682 0.1705145771008659 0.20164446164017363" fill="none" stroke="#000000" stroke-width="0.001"/>
<path d="M 0.1705145771008659 0.20164446164017363 C 0.1708757677786115 0.20208420132185068 0.174735153438521 0.20786628086168304 0.17484886523381296 0.2069213378202982 C 0.174735153438521 0.20786628086168304 0.16867513308432472 0.21348898149649956 0.16915003555736227 0.21298377813679176" fill="none" stroke="#000000" stroke-width="0.001"/>
<path d="M 0.16915003555736227 0.21298377813679176 C 0.16954387283287484 0.21337197055883675 0.173762371068221 0.2185354829830843 0.17387608286351297 0.21764208720133155 C 0.173762371068221 0.2185354829830843 0.16727794494305412 0.22420973087753285 0.16778549401385864 0.22370452751782505" fill="none" stroke="#000000" stroke-width="0.001"/>
<path d="M 0.16778549401385864 0.22370452751782505 C 0.16809771479495378 0.22423017929888886 0.1714184315917083 0.23100883919160767 0.1715321433870003 0.23001234889059077 C 0.1714184315917083 0.23100883919160767 0.1659950198939678 0.23613324964998092 0.16642095247035493 0.23566241113002784" fill="none" stroke="#000000" stroke-width="0.001"/>
<path d="M 0.16642095247035493 0.23566241113002784 C 0.16676581984921704 0.23610215081170488 0.17044564922140815 0.24188423035153717 0.1705593610167001 0.24093928731015238 C 0.17044564922140815 0.24188423035153717 0.16459783175269738 0.247506930986353 0.16505641092685144 0.24700172762664527" fill="none" stroke="#000000" stroke-width="0.001"/>
<path d="M 0.16505641092685144 0.24700172762664527 C 0.16528701521352915 0.2473727376288129 0.16789799497482963 0.25239879069404164 0.16782366236698387 0.25145384765265677 C 0.16789799497482963 0.25239879069404164 0.1657921305421686 0.25891497716248063 0.16594840222100055 0.2583410441232634" fill="none" stroke="#000000" stroke-width="0.001"/>
<path d="M 0.16594840222100055 0.2583410441232634 C 0.1660303320008818 0.25776105359326507 0.1667085431738286 0.25042409974033614 0.16693155957957573 0.25138115776328324 C 0.1667085431738286 0.25042409974033614 0.16296725916640684 0.24647928035494937 0.1632722053520352 0.24685634784789812" fill="none" stroke="#000000" stroke-width="0.001"/>
<path d="M 0.1632722053520352 0.24685634784789812 C 0.1636564426272386 0.24634508699740926 0.1678480806518667 0.2397641596190848 0.1678830526544761 0.2407212176420318 C 0.1678480806518667 0.2397641596190848 0.16243333204290974 0.23492585440007582 0.16285254132072255 0.23537165157253398" fill="none" stroke="#000000" stroke-width="0.001"/>
<path d="M 0.16285254132072255 0.23537165157253398 C 0.16320413199815897 0.23489475556179976 0.1670366574473502 0.22872620626053106 0.1670716294499596 0.22964889944372344 C 0.1670366574473502 0.22872620626053106 0.162046314609364 0.2238535362017671 0.1624328772894098 0.22429933337422528" fill="none" stroke="#000000" stroke-width="0.001"/>
<path d="M 0.1624328772894098 0.22429933337422528 C 0.16286608446126366 0.2236677955845949 0.1675637447512796 0.2158153691353457 0.16763136335165596 0.21672087989866073 C 0.1675637447512796 0.2158153691353457 0.16112062831266338 0.21315923124076044 0.1616214540848936 0.2134332042144451" fill="none" stroke="#000000" stroke-width="0.001"/>
<path d="M 0.1616214540848936 0.2134332042144451 C 0.16208730785451442 0.21275011916518263 0.167209373915501 0.20419321350096184 0.16721169932034344 0.2052361836232957 C 0.167209373915501 0.20419321350096184 0.16112537005232108 0.20055767767336735 0.16159354922678434 0.20091756274643877" fill="none" stroke="#000000" stroke-width="0.001"/>
<path d="M 0.16159354922678434 0.20091756274643877 C 0.1620267563986382 0.20032038979656308 0.16675706328642131 0.19279442932498347 0.1667920352890307 0.19375148734793057 C 0.16675706328642131 0.19279442932498347 0.1607057060210086 0.18907298139800233 0.16117388519547182 0.18943286647107374" fill="none" stroke="#000000" stroke-width="0.001"/>
<path d="M 0.16117388519547182 0.18943286647107374 C 0.1612144707452578 0.18909995834590335 0.16214715320756243 0.1832936606555043 0.16166091179290357 0.1854379689690291 C 0.16214715320756243 0.1832936606555043 0.16745443803625115 0.16188976652042186 0.16700878217137827 0.16370116670877627" fill="none" stroke="#000000" stroke-width="0.001"/>
</g><g transform="translate(0.3130281152203159,0.10164269012927307) rotate(0) scale(1,1) translate(-0.17343256089445602,-0.16866918493841992)"><path d="M 0.18267406310863074 0.16828563453563383 C 0.1825174776103839 0.1690508166268354 0.17983789652804344 0.17909055650171674 0.1807950371296685 0.17746781963005293 C 0.17983789652804344 0.17909055650171674 0.17086200879417052 0.18943135904143354 0.17118837588913002 0.18775847699559964 C 0.17086200879417052 0.18943135904143354 0.177352819998573 0.1983577314454313 0.1768786319901543 0.19754240418005964" fill="none" stroke="#000000" stroke-width="0.001"/>
<path d="M 0.1768786319901543 0.19754240418005964 C 0.1763322768388101 0.19799359614938516 0.17023252180167184 0.20393117348401846 0.17032237017402377 0.20295670781196584 C 0.17023252180167184 0.20393117348401846 0.17625695830092333 0.2097592659474181 0.17580045152193105 0.209235992244691" fill="none" stroke="#000000" stroke-width="0.001"/>
<path d="M 0.17580045152193105 0.209235992244691 C 0.1752023665048866 0.20971140455307563 0.16858617145208332 0.21604940100053066 0.16862343131739777 0.21494093994530653 C 0.16858617145208332 0.21604940100053066 0.17591415828988788 0.2231705736542202 0.17535333313815787 0.22253752490738068" fill="none" stroke="#000000" stroke-width="0.001"/>
<path d="M 0.17535333313815787 0.22253752490738068 C 0.17467124005243206 0.22295393153928939 0.16703805417246936 0.2285306140494209 0.1671682161094482 0.2275344044902852 C 0.16703805417246936 0.2285306140494209 0.17434332104315864 0.23507184254423605 0.17379138989441167 0.23449203961700907" fill="none" stroke="#000000" stroke-width="0.001"/>
<path d="M 0.17379138989441167 0.23449203961700907 C 0.17310892024113025 0.23493527993839222 0.1653895990560829 0.24075753931860244 0.16560175405503477 0.2398109234736068 C 0.1653895990560829 0.24075753931860244 0.17171584456131864 0.24635480528056913 0.1712455299069891 0.24585142975695665" fill="none" stroke="#000000" stroke-width="0.001"/>
<path d="M 0.1712455299069891 0.24585142975695665 C 0.17075589751412135 0.24635790138348843 0.16519043279139115 0.2528527494073776 0.16536994119257606 0.2519290892753381 C 0.16519043279139115 0.2528527494073776 0.169401553084453 0.2573525398469387 0.16909142909277017 0.2569353513414309" fill="none" stroke="#000000" stroke-width="0.001"/>
<path d="M 0.16909142909277017 0.2569353513414309 C 0.16870209152259638 0.2572699987691892 0.1641908999528495 0.2619765234421371 0.16441937825068487 0.2609511204745305 C 0.1641908999528495 0.2619765234421371 0.16651054879108404 0.2699309424925589 0.16634968951874565 0.26924018695271057" fill="none" stroke="#000000" stroke-width="0.001"/>
<path d="M 0.16634968951874565 0.26924018695271057 C 0.16608191625252802 0.2685326345932074 0.16313228597675822 0.2595530568529517 0.16313641032413395 0.2607495586386731 C 0.16313228597675822 0.2595530568529517 0.16656384626907866 0.2543932160978359 0.16630019735023677 0.2548821655240541" fill="none" stroke="#000000" stroke-width="0.001"/>
<path d="M 0.16630019735023677 0.2548821655240541 C 0.1659106790065311 0.25444229211770225 0.16171055998474643 0.24871928433676277 0.16162597722576869 0.2496036846478318 C 0.16171055998474643 0.24871928433676277 0.16778929156065303 0.24382483488650833 0.1673151904579696 0.24426936179122552" fill="none" stroke="#000000" stroke-width="0.001"/>
<path d="M 0.1673151904579696 0.24426936179122552 C 0.16678756172847348 0.24372639386560957 0.16103959109653143 0.23672675519767614 0.16098364570401594 0.23775374668383406 C 0.16103959109653143 0.23672675519767614 0.1685701092901671 0.23146144039678845 0.16798653516815548 0.23194546395733043" fill="none" stroke="#000000" stroke-width="0.001"/>
<path d="M 0.16798653516815548 0.23194546395733043 C 0.16739365906291173 0.23142632232061106 0.16082002571945306 0.2246602350389506 0.16087202190523045 0.2257157643166978 C 0.16082002571945306 0.2246602350389506 0.16790346085829327 0.2187427249833363 0.16736258093882692 0.21927911262436411" fill="none" stroke="#000000" stroke-width="0.001"/>
<path d="M 0.16736258093882692 0.21927911262436411 C 0.16687644584259725 0.2188202124039264 0.16152927444653997 0.21278655915070765 0.16152895978407106 0.21377230997911165 C 0.16152927444653997 0.21278655915070765 0.1678528066471526 0.20692325207555 0.16736635688845403 0.2074501026835163" fill="none" stroke="#000000" stroke-width="0.001"/>
<path d="M 0.16736635688845403 0.2074501026835163 C 0.16700233656855024 0.20686814151371913 0.163047204274354 0.19939637744969682 0.16299811304960846 0.20046656864595036 C 0.163047204274354 0.19939637744969682 0.16836856313004991 0.19411957830201756 0.16795545158540057 0.19460780832847394" fill="none" stroke="#000000" stroke-width="0.001"/>
<path d="M 0.16795545158540057 0.19460780832847394 C 0.1677187260919237 0.19391004805401957 0.16522913687638124 0.1847117781489229 0.16511474566367818 0.18623468503502155 C 0.16522913687638124 0.1847117781489229 0.16976944869653338 0.174870368966175 0.1693281461378374 0.17633292569529005 C 0.16976944869653338 0.174870368966175 0.17050056222054605 0.16804659416817036 0.17041037636803 0.1686840042856411" fill="none" stroke="#000000" stroke-width="0.001"/>
</g><g transform="translate(0.3430927759472383,0.12302840530544282) rotate(0) scale(1,1) translate(-0.17182654921449536,-0.1626271006073876)"><path d="M 0.17627067600237914 0.16231995012055972 C 0.17674115222369585 0.16462000776360353 0.1818026117597132 0.19279671844719234 0.1819163906581798 0.1899206418370855 C 0.1818026117597132 0.19279671844719234 0.17432107410099687 0.19740888840890486 0.17490532922078017 0.19683286944184183" fill="none" stroke="#000000" stroke-width="0.001"/>
<path d="M 0.17490532922078017 0.19683286944184183 C 0.17537038115811965 0.19712585472384733 0.18036674928641014 0.2012176970749763 0.18048595246885396 0.20034869282590778 C 0.18036674928641014 0.2012176970749763 0.17289063591167114 0.20783693939772713 0.17347489103145444 0.2072609204306641" fill="none" stroke="#000000" stroke-width="0.001"/>
<path d="M 0.17347489103145444 0.2072609204306641 C 0.17393994296879392 0.2075539057126696 0.1789363110970844 0.2116457480637986 0.17905551427952823 0.21077674381473008 C 0.1789363110970844 0.2116457480637986 0.17146019772234541 0.21826499038654942 0.17204445284212871 0.2176889714194864" fill="none" stroke="#000000" stroke-width="0.001"/>
<path d="M 0.17204445284212871 0.2176889714194864 C 0.1725095047794682 0.2179819567014919 0.1776364592988265 0.22203943421286618 0.17762507609020242 0.22120479480355235 C 0.1776364592988265 0.22203943421286618 0.17172738261690212 0.22824629845856056 0.17218105134561754 0.22770464433125223" fill="none" stroke="#000000" stroke-width="0.001"/>
<path d="M 0.17218105134561754 0.22770464433125223 C 0.17251551689188913 0.22803199445301245 0.17614072791396682 0.23255339730107527 0.1761946379008767 0.2316328457923747 C 0.17614072791396682 0.23255339730107527 0.1711457559695174 0.23934446382259958 0.1715341315026989 0.2387512624356592" fill="none" stroke="#000000" stroke-width="0.001"/>
<path d="M 0.1715341315026989 0.2387512624356592 C 0.17180330385343656 0.2390270652977873 0.17444911694250523 0.2429127186103876 0.17476419971155085 0.2420608967811965 C 0.17444911694250523 0.2429127186103876 0.16716888315436812 0.24954914335301548 0.16775313827415142 0.24897312438595248" fill="none" stroke="#000000" stroke-width="0.001"/>
<path d="M 0.16775313827415142 0.24897312438595248 C 0.16826409201368292 0.24839524716799788 0.17405306315707156 0.2411830594395229 0.1738845831485295 0.24203859777049722 C 0.17405306315707156 0.2411830594395229 0.16943242464566663 0.23842900330124078 0.16977489837665607 0.2387066644142605" fill="none" stroke="#000000" stroke-width="0.001"/>
<path d="M 0.16977489837665607 0.2387066644142605 C 0.17008997252958574 0.2381116047764285 0.17346309543821847 0.23064168074979283 0.1735557882118122 0.23156594876027664 C 0.17346309543821847 0.23064168074979283 0.1682548181670081 0.227286239915803 0.1686625850935315 0.2276154482884548" fill="none" stroke="#000000" stroke-width="0.001"/>
<path d="M 0.1686625850935315 0.2276154482884548 C 0.16904295244199513 0.22707193591025487 0.17306900730596747 0.22025494383895847 0.1732269932750951 0.2210932997500555 C 0.17306900730596747 0.22025494383895847 0.16622840014640844 0.21726033382239307 0.16676675346399972 0.21755517735529017" fill="none" stroke="#000000" stroke-width="0.001"/>
<path d="M 0.16676675346399972 0.21755517735529017 C 0.16727770720353125 0.21697730013733554 0.17287079876031816 0.20974792998898278 0.1728981983383779 0.21062065073983452 C 0.17287079876031816 0.20974792998898278 0.16589960520969135 0.20678768481217208 0.16643795852728263 0.20708252834506918" fill="none" stroke="#000000" stroke-width="0.001"/>
<path d="M 0.16643795852728263 0.20708252834506918 C 0.16694891226681413 0.20650465112711452 0.17254200382360083 0.19927528097876165 0.1725694034016606 0.20014800172961342 C 0.17254200382360083 0.19927528097876165 0.16557081027297416 0.19631503580195098 0.16610916359056543 0.19660987933484808" fill="none" stroke="#000000" stroke-width="0.001"/>
<path d="M 0.16610916359056543 0.19660987933484808 C 0.16662011733009693 0.19603200211689345 0.1722095085672804 0.18911509358996856 0.1722406084649434 0.18967535271939237 C 0.1722095085672804 0.18911509358996856 0.1651939111814149 0.189904387870293 0.16573596481860942 0.1898867697817622" fill="none" stroke="#000000" stroke-width="0.001"/>
<path d="M 0.16573596481860942 0.1898867697817622 C 0.1656174290522482 0.18964558705263754 0.16437032076820846 0.1847087617279817 0.16431353562227474 0.1869925770322662 C 0.16437032076820846 0.1847087617279817 0.16659270748210891 0.16043835355518818 0.16641738656981397 0.16248098613034803" fill="none" stroke="#000000" stroke-width="0.001"/>
</g><g transform="translate(0.3467460823403615,0.1204963061541541) rotate(0) scale(1,1) translate(-0.17172616467872354,-0.16464542498289636)"><path d="M 0.17650719486229483 0.1644327888438907 C 0.17672765474812008 0.1662421429484444 0.17929015922652228 0.18819503061740778 0.17915271349219797 0.18614503809853486 C 0.17929015922652228 0.18819503061740778 0.1780735295226857 0.18927333748468494 0.17815654367418665 0.1890326990703657" fill="none" stroke="#000000" stroke-width="0.001"/>
<path d="M 0.17815654367418665 0.1890326990703657 C 0.1778277503293992 0.18943187204239365 0.17421736937684662 0.19469454402404426 0.17421102353673731 0.1938227747347008 C 0.17421736937684662 0.19469454402404426 0.17856783294039502 0.19996652685980287 0.17823269375549827 0.19949393054248732" fill="none" stroke="#000000" stroke-width="0.001"/>
<path d="M 0.17823269375549827 0.19949393054248732 C 0.1778222839162934 0.19985873867476053 0.17331412152514927 0.2047433974191094 0.17330777568503997 0.20387162812976595 C 0.17331412152514927 0.2047433974191094 0.17872559951612402 0.21046212317167926 0.17830884383680987 0.209955162014609" fill="none" stroke="#000000" stroke-width="0.001"/>
<path d="M 0.17830884383680987 0.209955162014609 C 0.1778821106987215 0.21031997014688222 0.17319439201985898 0.21520462889123107 0.17318804617974967 0.2143328596018876 C 0.17319439201985898 0.21520462889123107 0.178818072896319 0.2209233546438009 0.17838499391812138 0.22041639348673064" fill="none" stroke="#000000" stroke-width="0.001"/>
<path d="M 0.17838499391812138 0.22041639348673064 C 0.17789296758449907 0.22078120161900386 0.1724870237547632 0.2256658603633527 0.1724806779146539 0.22479409107400924 C 0.1724870237547632 0.2256658603633527 0.17895951617316472 0.23138458611592252 0.1784611439994331 0.23087762495885228" fill="none" stroke="#000000" stroke-width="0.001"/>
<path d="M 0.1784611439994331 0.23087762495885228 C 0.17806705745911172 0.23132834519051226 0.17373845135568566 0.23715803702811547 0.17373210551557638 0.23628626773877204 C 0.17373845135568566 0.23715803702811547 0.17893772646117517 0.24175990548865706 0.1785372940807445 0.24133885643097358" fill="none" stroke="#000000" stroke-width="0.001"/>
<path d="M 0.1785372940807445 0.24133885643097358 C 0.17815181784193945 0.24172565806068977 0.1735588124797566 0.2469209749564208 0.17391157921508396 0.24598047598756795 C 0.1735588124797566 0.2469209749564208 0.17433680276029392 0.25317854139634416 0.17430409325681623 0.25262484405720753" fill="none" stroke="#000000" stroke-width="0.001"/>
<path d="M 0.17430409325681623 0.25262484405720753 C 0.17418547969001344 0.2520513596338125 0.1730946283991508 0.2448069448339829 0.17288073045518282 0.2457430309764666 C 0.1730946283991508 0.2448069448339829 0.1772033800952027 0.24102920862831476 0.17687086858443193 0.24139181034740337" fill="none" stroke="#000000" stroke-width="0.001"/>
<path d="M 0.17687086858443193 0.24139181034740337 C 0.17640100180832158 0.2409729677029045 0.17108725263963884 0.23549834215044246 0.17123246727110752 0.23636569861341675 C 0.17108725263963884 0.23549834215044246 0.17545294515144946 0.2305350189732365 0.17512829300680777 0.2309835327917119" fill="none" stroke="#000000" stroke-width="0.001"/>
<path d="M 0.17512829300680777 0.2309835327917119 C 0.1745604864373965 0.23047877804782624 0.1681693995424037 0.22405911940210943 0.1683146141738724 0.22492647586508374 C 0.1681693995424037 0.22405911940210943 0.17380830936712607 0.22021265351693142 0.1733857174291835 0.22057525523602006" fill="none" stroke="#000000" stroke-width="0.001"/>
<path d="M 0.1733857174291835 0.22057525523602006 C 0.17288320405530616 0.2200705004921344 0.1672103423111867 0.2136508418464176 0.1673555569426554 0.21451819830939192 C 0.1672103423111867 0.2136508418464176 0.172000440593968 0.20980437596123958 0.17164314185155932 0.21016697768032822" fill="none" stroke="#000000" stroke-width="0.001"/>
<path d="M 0.17164314185155932 0.21016697768032822 C 0.17115695177656545 0.20966222293644254 0.16566364632016434 0.2032425642907258 0.16580886095163302 0.2041099207537001 C 0.16566364632016434 0.2032425642907258 0.1702415417174602 0.19939609840554773 0.16990056627393504 0.19975870012463637" fill="none" stroke="#000000" stroke-width="0.001"/>
<path d="M 0.16990056627393504 0.19975870012463637 C 0.1694959926933586 0.1992883102205054 0.16489518367776365 0.19331987262707437 0.1650456833070179 0.19411402127506472 C 0.16489518367776365 0.19331987262707437 0.16834864467420627 0.18990515760489265 0.16809457072288408 0.19022891634875205" fill="none" stroke="#000000" stroke-width="0.001"/>
<path d="M 0.16809457072288408 0.19022891634875205 C 0.16776744690589962 0.18993637169214828 0.16394397102779057 0.18460414253393603 0.16416908491907062 0.18671838046950687 C 0.16394397102779057 0.18460414253393603 0.16549521395322772 0.16303636784293496 0.16539320402752333 0.16485806112190202" fill="none" stroke="#000000" stroke-width="0.001"/>
</g><g transform="translate(0.3524954054589289,0.11486552260992469) rotate(0) scale(1,1) translate(-0.17220112318371358,-0.1645055777824458)"><path d="M 0.17828867963310116 0.16475197381228268 C 0.1784383816732142 0.1655535500900039 0.1800277604191186 0.17637130945070564 0.1800851041144578 0.1743708891449373 C 0.1800277604191186 0.17637130945070564 0.17739350955357863 0.1899558615095499 0.17760055528903088 0.18875701748150278" fill="none" stroke="#000000" stroke-width="0.001"/>
<path d="M 0.17760055528903088 0.18875701748150278 C 0.17806223700631876 0.18916725076792645 0.1830533288009439 0.19463522986945847 0.1831407358964856 0.19367981691858674 C 0.1830533288009439 0.19463522986945847 0.17600258132970095 0.20076715255641153 0.17655167014253054 0.20022197289196347" fill="none" stroke="#000000" stroke-width="0.001"/>
<path d="M 0.17655167014253054 0.20022197289196347 C 0.17701335185981845 0.2006837534380192 0.1820044436544437 0.20671875239550377 0.18209185074998538 0.20576333944463204 C 0.1820044436544437 0.20671875239550377 0.17495369618320084 0.21218056070724012 0.17550278499603042 0.2116869283024241" fill="none" stroke="#000000" stroke-width="0.001"/>
<path d="M 0.17550278499603042 0.2116869283024241 C 0.17594814341443482 0.21214870884847983 0.18075967892134154 0.21818370780596438 0.18084708601688324 0.21722829485509265 C 0.18075967892134154 0.21818370780596438 0.17392113433558395 0.22364551611770075 0.17445389984953005 0.22315188371288475" fill="none" stroke="#000000" stroke-width="0.001"/>
<path d="M 0.17445389984953005 0.22315188371288475 C 0.17489925826793445 0.2234590224800443 0.1797107937748413 0.2277929618696709 0.179798200870383 0.2268375489187992 C 0.1797107937748413 0.2277929618696709 0.17287224918908373 0.23526511330705746 0.17340501470302983 0.2346168391233453" fill="none" stroke="#000000" stroke-width="0.001"/>
<path d="M 0.17340501470302983 0.2346168391233453 C 0.17385037312143423 0.23492397789050484 0.17879249501940894 0.23915482276086725 0.17874931572388275 0.2383025043292597 C 0.17879249501940894 0.23915482276086725 0.17352098712646594 0.2453898399670839 0.17392316624934415 0.2448446603026359" fill="none" stroke="#000000" stroke-width="0.001"/>
<path d="M 0.17392316624934415 0.2448446603026359 C 0.1742379382766807 0.24525489358905955 0.17780890306844266 0.25077441995022326 0.17770043057738252 0.24976745973971948 C 0.17780890306844266 0.25077441995022326 0.17501853660578934 0.2575249097527615 0.17522483614206574 0.25692818282868135" fill="none" stroke="#000000" stroke-width="0.001"/>
<path d="M 0.17522483614206574 0.25692818282868135 C 0.17534725425164135 0.2563277382911141 0.17641761811251125 0.2487084529403963 0.17669385345697297 0.2497228483778743 C 0.17641761811251125 0.2487084529403963 0.17151135855448763 0.24434148667903455 0.17191001200852496 0.2447554375789453" fill="none" stroke="#000000" stroke-width="0.001"/>
<path d="M 0.17191001200852496 0.2447554375789453 C 0.17222830970470235 0.2442065403010102 0.1755186422137259 0.23730891658514217 0.1757295843626537 0.23816867024372393 C 0.1755186422137259 0.23730891658514217 0.16884946637628603 0.23412753729531754 0.16937870622139123 0.2344383936759642" fill="none" stroke="#000000" stroke-width="0.001"/>
<path d="M 0.16937870622139123 0.2344383936759642 C 0.1698275903086365 0.2337864018787649 0.1746849595104747 0.2256516439317268 0.17476531526833464 0.22661449210957274 C 0.1746849595104747 0.2256516439317268 0.16788519728196682 0.2225733591611663 0.16841443712707205 0.22288421554181295" fill="none" stroke="#000000" stroke-width="0.001"/>
<path d="M 0.16841443712707205 0.22288421554181295 C 0.16886332121431732 0.22238686552350984 0.1737206904161555 0.21595316714432966 0.17380104617401546 0.2169160153221756 C 0.1737206904161555 0.21595316714432966 0.16692092818764764 0.21086453924811888 0.16745016803275287 0.2113300374076617" fill="none" stroke="#000000" stroke-width="0.001"/>
<path d="M 0.16745016803275287 0.2113300374076617 C 0.16791537541888163 0.2108326873893586 0.17295230090843827 0.20439898901017842 0.1730326566662982 0.20536183718802434 C 0.17295230090843827 0.20439898901017842 0.165940335794445 0.19931036111396772 0.1664858989384337 0.19977585927351052" fill="none" stroke="#000000" stroke-width="0.001"/>
<path d="M 0.1664858989384337 0.19977585927351052 C 0.1669511063245625 0.19922696199557535 0.1719829279286402 0.19233234623398238 0.17206838757197904 0.19318909193828843 C 0.1719829279286402 0.19233234623398238 0.16490971618889996 0.18918706239546704 0.1654603832183676 0.18949491082183792" fill="none" stroke="#000000" stroke-width="0.001"/>
<path d="M 0.1654603832183676 0.18949491082183792 C 0.16530065999016433 0.18919810331300685 0.1635270900028163 0.18383024329342917 0.16354370447992855 0.18593322071586493 C 0.1635270900028163 0.18383024329342917 0.16540411824411153 0.1624530118390042 0.16526100949302053 0.16425918175260887" fill="none" stroke="#000000" stroke-width="0.001"/>
</g><g transform="translate(0.3582447285774963,0.10970774271469325) rotate(0) scale(1,1) translate(-0.17149933224096225,-0.16424072920864125)"><path d="M 0.17598988231054621 0.16370116670877627 C 0.1764355381754191 0.16551256689713068 0.18182399410367983 0.1875822772825539 0.18133775268902097 0.1854379689690291 C 0.18182399410367983 0.1875822772825539 0.18186536483623866 0.18976577459624414 0.1818247792864527 0.18943286647107374" fill="none" stroke="#000000" stroke-width="0.001"/>
<path d="M 0.1818247792864527 0.18943286647107374 C 0.18135660011198945 0.18979275154414516 0.17617165719028446 0.19470854537087767 0.17620662919289384 0.19375148734793057 C 0.17617165719028446 0.19470854537087767 0.18183832242699408 0.20151473569631445 0.18140511525514022 0.20091756274643877" fill="none" stroke="#000000" stroke-width="0.001"/>
<path d="M 0.18140511525514022 0.20091756274643877 C 0.18093693608067696 0.20127744781951018 0.17578463975673864 0.20627915374562958 0.17578696516158107 0.2052361836232957 C 0.17578463975673864 0.20627915374562958 0.18184306416665177 0.21411628926370754 0.18137721039703095 0.2134332042144451" fill="none" stroke="#000000" stroke-width="0.001"/>
<path d="M 0.18137721039703095 0.2134332042144451 C 0.18087638462480074 0.21370717718812973 0.17529968252989217 0.21762639066197575 0.17536730113026852 0.21672087989866073 C 0.17529968252989217 0.21762639066197575 0.18099899436436853 0.22493087116385566 0.18056578719251468 0.22429933337422528" fill="none" stroke="#000000" stroke-width="0.001"/>
<path d="M 0.18056578719251468 0.22429933337422528 C 0.18017922451246887 0.22474513054668346 0.17589206302935553 0.23057159262691582 0.17592703503196494 0.22964889944372344 C 0.17589206302935553 0.23057159262691582 0.18049771383863833 0.2358485475832682 0.1801461231612019 0.23537165157253398" fill="none" stroke="#000000" stroke-width="0.001"/>
<path d="M 0.1801461231612019 0.23537165157253398 C 0.17972691388338913 0.23581744874499214 0.1750806398248391 0.24167827566497882 0.17511561182744848 0.2407212176420318 C 0.1750806398248391 0.24167827566497882 0.18011069640509275 0.24736760869838698 0.17972645912988935 0.24685634784789812" fill="none" stroke="#000000" stroke-width="0.001"/>
<path d="M 0.17972645912988935 0.24685634784789812 C 0.17942151294426098 0.24723341534084686 0.17584408849660166 0.25233821578623034 0.17606710490234878 0.25138115776328324 C 0.17584408849660166 0.25233821578623034 0.17713219204080527 0.2589210346532618 0.177050262260924 0.2583410441232634" fill="none" stroke="#000000" stroke-width="0.001"/>
<path d="M 0.177050262260924 0.2583410441232634 C 0.17689399058209204 0.2577671110840462 0.17524933472278642 0.2505089046112719 0.17517500211494066 0.25145384765265677 C 0.17524933472278642 0.2505089046112719 0.17817285784175074 0.24663071762447764 0.17794225355507304 0.24700172762664527" fill="none" stroke="#000000" stroke-width="0.001"/>
<path d="M 0.17794225355507304 0.24700172762664527 C 0.17748367438091897 0.24649652426693752 0.17232559166993242 0.2399943442687676 0.17243930346522438 0.24093928731015238 C 0.17232559166993242 0.2399943442687676 0.1769225793904317 0.2352226714483508 0.1765777120115696 0.23566241113002784" fill="none" stroke="#000000" stroke-width="0.001"/>
<path d="M 0.1765777120115696 0.23566241113002784 C 0.17615177943518248 0.23519157261007476 0.17135280929963223 0.22901585858957388 0.17146652109492422 0.23001234889059077 C 0.17135280929963223 0.22901585858957388 0.175525391249161 0.22317887573676123 0.17521317046806587 0.22370452751782505" fill="none" stroke="#000000" stroke-width="0.001"/>
<path d="M 0.17521317046806587 0.22370452751782505 C 0.17470562139726134 0.22319932415811725 0.16900886982311955 0.21674869141957878 0.1691225816184115 0.21764208720133155 C 0.16900886982311955 0.21674869141957878 0.1742424662000748 0.21259558571474677 0.17384862892456224 0.21298377813679176" fill="none" stroke="#000000" stroke-width="0.001"/>
<path d="M 0.17384862892456224 0.21298377813679176 C 0.17337372645152468 0.21247857477708396 0.1680360874528196 0.20597639477891336 0.16814979924811155 0.2069213378202982 C 0.1680360874528196 0.20597639477891336 0.17284527805880417 0.2012047219584966 0.17248408738105858 0.20164446164017363" fill="none" stroke="#000000" stroke-width="0.001"/>
<path d="M 0.17248408738105858 0.20164446164017363 C 0.17197653831025406 0.20105334618107906 0.16627978673611235 0.19360613308965396 0.16639349853140434 0.1945510761310388 C 0.16627978673611235 0.19360613308965396 0.17151338311306738 0.1899513175612653 0.17111954583755484 0.19030514514355557" fill="none" stroke="#000000" stroke-width="0.001"/>
<path d="M 0.17111954583755484 0.19030514514355557 C 0.1706688811476195 0.19002298669094622 0.16512063616149458 0.18479673607713165 0.1657115695583306 0.18691924371224342 C 0.16512063616149458 0.18479673607713165 0.1638880763686218 0.1629947043397119 0.16402834507552247 0.1648350535222143" fill="none" stroke="#000000" stroke-width="0.001"/>
</g><g transform="translate(0.361658790437026,0.10164269012927307) rotate(0) scale(1,1) translate(-0.17343256089445602,-0.16866918493841992)"><path d="M 0.17645474542088202 0.1686840042856411 C 0.17654493127339807 0.16932141440311183 0.17797827820977064 0.1777954824244051 0.17753697565107465 0.17633292569529005 C 0.17797827820977064 0.1777954824244051 0.18186476733793694 0.1877575919211202 0.18175037612523387 0.18623468503502155 C 0.18186476733793694 0.1877575919211202 0.17867294471003461 0.1953055686029283 0.17890967020351148 0.19460780832847394" fill="none" stroke="#000000" stroke-width="0.001"/>
<path d="M 0.17890967020351148 0.19460780832847394 C 0.17932278174816083 0.1950960383549303 0.18391609996404917 0.2015367598422039 0.18386700873930362 0.20046656864595036 C 0.18391609996404917 0.2015367598422039 0.1791347445805542 0.20803206385331346 0.179498764900458 0.2074501026835163" fill="none" stroke="#000000" stroke-width="0.001"/>
<path d="M 0.179498764900458 0.2074501026835163 C 0.17998521465915657 0.20797695329148258 0.18533647666730996 0.21475806080751564 0.18533616200484104 0.21377230997911165 C 0.18533647666730996 0.21475806080751564 0.17901640575385544 0.21973801284480182 0.1795025408500851 0.21927911262436411" fill="none" stroke="#000000" stroke-width="0.001"/>
<path d="M 0.1795025408500851 0.21927911262436411 C 0.1800434207695515 0.21981550026539193 0.18594110369790423 0.22677129359444498 0.18599309988368162 0.2257157643166978 C 0.18594110369790423 0.22677129359444498 0.17828571051551276 0.2324646055940498 0.1788785866207565 0.23194546395733043" fill="none" stroke="#000000" stroke-width="0.001"/>
<path d="M 0.1788785866207565 0.23194546395733043 C 0.17946216074276813 0.2324294875178724 0.18593742147741163 0.23878073816999199 0.18588147608489614 0.23775374668383406 C 0.18593742147741163 0.23878073816999199 0.1790223026014463 0.24481232971684147 0.17954993133094244 0.24426936179122552" fill="none" stroke="#000000" stroke-width="0.001"/>
<path d="M 0.17954993133094244 0.24426936179122552 C 0.18002403243362586 0.2447138886959427 0.18532372732212113 0.25048808495890085 0.1852391445631434 0.2496036846478318 C 0.18532372732212113 0.25048808495890085 0.18017540609496965 0.255322038930406 0.18056492443867533 0.2548821655240541" fill="none" stroke="#000000" stroke-width="0.001"/>
<path d="M 0.18056492443867533 0.2548821655240541 C 0.18082857335751723 0.25537111495027237 0.18372458711740236 0.2619460604243945 0.1837287114647781 0.2607495586386731 C 0.18372458711740236 0.2619460604243945 0.1802476590039488 0.2699477393122137 0.18051543227016642 0.26924018695271057" fill="none" stroke="#000000" stroke-width="0.001"/>
<path d="M 0.18051543227016642 0.26924018695271057 C 0.1806762915425048 0.26854943141286225 0.1822172652403918 0.2599257175069239 0.18244574353822718 0.2609511204745305 C 0.1822172652403918 0.2599257175069239 0.17738435512596806 0.2566007039136726 0.17777369269614185 0.2569353513414309" fill="none" stroke="#000000" stroke-width="0.001"/>
<path d="M 0.17777369269614185 0.2569353513414309 C 0.1780838166878247 0.25651816283592316 0.18131567219515105 0.25100542914329854 0.18149518059633596 0.2519290892753381 C 0.18131567219515105 0.25100542914329854 0.17512995948905524 0.24534495813042487 0.175619591881923 0.24585142975695665" fill="none" stroke="#000000" stroke-width="0.001"/>
<path d="M 0.175619591881923 0.24585142975695665 C 0.17608990653625253 0.24534805423334416 0.18105121273492542 0.23886430762861116 0.1812633677338773 0.2398109234736068 C 0.18105121273492542 0.23886430762861116 0.17239126224121895 0.23404879929562591 0.17307373189450037 0.23449203961700907" fill="none" stroke="#000000" stroke-width="0.001"/>
<path d="M 0.17307373189450037 0.23449203961700907 C 0.17362566304324734 0.2339122366897821 0.179566743742485 0.2265381949311495 0.17969690567946384 0.2275344044902852 C 0.179566743742485 0.2265381949311495 0.17082969556502842 0.22212111827547198 0.17151178865075423 0.22253752490738068" fill="none" stroke="#000000" stroke-width="0.001"/>
<path d="M 0.17151178865075423 0.22253752490738068 C 0.17207261380248423 0.22190447616054118 0.17820443060619984 0.2138324788900824 0.17824169047151428 0.21494093994530653 C 0.17820443060619984 0.2138324788900824 0.17046658524993658 0.20876057993630637 0.17106467026698102 0.209235992244691" fill="none" stroke="#000000" stroke-width="0.001"/>
<path d="M 0.17106467026698102 0.209235992244691 C 0.1715211770459733 0.2087127185419639 0.17645290324253637 0.20198224213991323 0.1765427516148883 0.20295670781196584 C 0.17645290324253637 0.20198224213991323 0.16944013464741356 0.1970912122107341 0.16998648979875777 0.19754240418005964" fill="none" stroke="#000000" stroke-width="0.001"/>
<path d="M 0.16998648979875777 0.19754240418005964 C 0.17046067780717647 0.19672707691468796 0.17535037880482254 0.1860855949497658 0.17567674589978205 0.18775847699559967 C 0.17535037880482254 0.1860855949497658 0.1651129440576185 0.17584508275838914 0.16607008465924356 0.17746781963005295 C 0.1651129440576185 0.17584508275838914 0.16403447318203443 0.16752045244443223 0.16419105868028128 0.16828563453563383" fill="none" stroke="#000000" stroke-width="0.001"/>
</g></svg>
