<?xml version="1.0" encoding="UTF-8"?>
<svg xmlns="http://www.w3.org/2000/svg" viewBox="0 0 1 1">
<g transform="translate(0.3373434528286707,0.07847599559563229) rotate(0) scale(1,1) translate(-0.2178778082444383,-0.21061995408824444)"><path d="M 0.2456020006120999 0.23378664862188522 C 0.24529247248894492 0.23493027155705123 0.24082127081227234 0.24972370812541383 0.24188766313423996 0.2475101238438775 C 0.24082127081227234 0.24972370812541383 0.2308044715076716 0.262207331506811 0.23280529274848838 0.26034966000032117 C 0.2308044715076716 0.262207331506811 0.21538989416043028 0.26980218192175565 0.2178778082444386 0.26980218192175565 C 0.21538989416043028 0.26980218192175565 0.200949502499572 0.2584919884938314 0.2029503237403888 0.2603496600003213 C 0.200949502499572 0.2584919884938314 0.19280156103266954 0.2452965395623412 0.19386795335463716 0.24751012384387755 C 0.19280156103266954 0.2452965395623412 0.18984408775362221 0.23264302568671918 0.1901536158767772 0.23378664862188522" fill="none" stroke="#000000" stroke-width="0.001"/>
<path d="M 0.1901536158767772 0.23378664862188522 C 0.1904631439999322 0.23264302568671918 0.19502312803662308 0.2180823603714842 0.1938679533546372 0.22006317339989281 C 0.19502312803662308 0.2180823603714842 0.20601653330142475 0.20887326934581574 0.20401571206060795 0.21001689228098178 C 0.20601653330142475 0.20887326934581574 0.22018815760841043 0.20633969817790035 0.21787780824443864 0.20633969817790035 C 0.22018815760841043 0.20633969817790035 0.2337407256690861 0.21116051521614781 0.23173990442826933 0.21001689228098178 C 0.2337407256690861 0.21116051521614781 0.24304283781622593 0.22204398642830142 0.24188766313424004 0.22006317339989281 C 0.24304283781622593 0.22204398642830142 0.2459115287352549 0.23493027155705126 0.2456020006120999 0.23378664862188522" fill="none" stroke="#000000" stroke-width="0.001"/>
</g><g id="お下げ">
<g transform="translate(0.33734345282867095,0.12379564176882465) rotate(0) scale(1,1) translate(-0.08512163657345904,-0.0749625261910107)"><path d="M 0.09005188720557471 0.09752048584487923 C 0.08984235155370979 0.09786185809875456 0.08692528659637469 0.10195832514525849 0.08753745938319572 0.10161695289138316 C 0.08692528659637469 0.10195832514525849 0.08209364097690133 0.10127558063750783 0.08270581376372237 0.10161695289138316 C 0.08209364097690133 0.10127558063750783 0.07998185028947846 0.0971791135910039 0.08019138594134338 0.09752048584487923" fill="none" stroke="#000000" stroke-width="0.001"/>
<path d="M 0.08019138594134338 0.09752048584487923 C 0.0797580372298141 0.09633877917856025 0.07439556154822781 0.08146017587789582 0.07499120140299209 0.08334000584905153 C 0.07439556154822781 0.08146017587789582 0.07288141654093705 0.07426440288617396 0.07304370768417205 0.0749625261910107" fill="none" stroke="#000000" stroke-width="0.001"/>
<path d="M 0.09719956546274605 0.0749625261910107 C 0.09703727431951105 0.07566064949584743 0.09465643188916172 0.08521983582020724 0.095252071743926 0.08334000584905153 C 0.09465643188916172 0.08521983582020724 0.08961853849404543 0.0987021925111982 0.09005188720557471 0.09752048584487923" fill="none" stroke="#000000" stroke-width="0.001"/>
</g><g transform="translate(0.33734345282867095,0.14635360142269319) rotate(0) scale(1,1) translate(-0.020184612282548316,-0.020184612282548316)"><path d="M 0.024875998926522182 0.018660288359277216 C 0.025117618626550778 0.019403917332312448 0.02245148009586505 0.024634932103891602 0.02308404868289147 0.024175344123536648 C 0.02245148009586505 0.024634932103891602 0.01665260729517875 0.023715756143181693 0.017285175882205166 0.024175344123536648 C 0.01665260729517875 0.023715756143181693 0.015734845338603046 0.017916659386241984 0.01549322563857445 0.018660288359277216 C 0.015734845338603046 0.017916659386241984 0.02096651005654396 0.015251796447113858 0.020184612282548316 0.015251796447113858 C 0.02096651005654396 0.015251796447113858 0.025117618626550778 0.019403917332312448 0.024875998926522182 0.018660288359277216 Z" fill="#cccccc" stroke="#000000" stroke-width="0.001"/>
</g><g transform="translate(0.33734345282867095,0.14635360142269319) rotate(0) scale(1,1) translate(-0.02639292779899103,-0.02639292779899103)"><path d="M 0.029587391730907443 0.025354983548605776 C 0.029751915671387442 0.025861336171692267 0.027936485816611307 0.02942324425628728 0.028367215084751006 0.029110301124927164 C 0.027936485816611307 0.02942324425628728 0.023987911245091358 0.028797357993567047 0.024418640513231057 0.029110301124927164 C 0.023987911245091358 0.028797357993567047 0.023362987807554615 0.024848630925519286 0.023198463867074616 0.025354983548605776 C 0.023362987807554615 0.024848630925519286 0.026925338454310433 0.023034069647889278 0.02639292779899103 0.023034069647889278 C 0.026925338454310433 0.023034069647889278 0.029751915671387442 0.025861336171692267 0.029587391730907443 0.025354983548605776 Z" fill="#cccccc" stroke="#000000" stroke-width="0.001"/>
</g><g transform="translate(0.34373380428401,0.1492334183155791) rotate(0) scale(1,1) translate(-0.19551282657519264,-0.15725534279570835)"><path d="M 0.19342321484518715 0.2117771156167573 C 0.1938527143518382 0.2113434716669449 0.19899325321423011 0.20575789408757908 0.19857720892499983 0.20657338821900828 C 0.19899325321423011 0.20575789408757908 0.19840229109852972 0.20160933585798996 0.1984157463159505 0.20199118603960675" fill="none" stroke="#000000" stroke-width="0.001"/>
<path d="M 0.1984157463159505 0.20199118603960675 C 0.19803791910495017 0.2016174929340307 0.19379986065844065 0.19674689845078727 0.19388181978394667 0.19750686877269405 C 0.19379986065844065 0.19674689845078727 0.19772810489537251 0.19248526496039467 0.19743223680987823 0.1928715421767254" fill="none" stroke="#000000" stroke-width="0.001"/>
<path d="M 0.19743223680987823 0.1928715421767254 C 0.19772308483720302 0.1924483713043159 0.20084045401226971 0.18703352138590493 0.20092241313777576 0.1877934917078117 C 0.20084045401226971 0.18703352138590493 0.19607592015097494 0.18341509886434673 0.19644872730380578 0.18375189831384403" fill="none" stroke="#000000" stroke-width="0.001"/>
<path d="M 0.19644872730380578 0.18375189831384403 C 0.19593354993853102 0.18340404429677684 0.19018463979500277 0.17881767978713095 0.1902665989205088 0.17957765010903773 C 0.19018463979500277 0.17881767978713095 0.19589843603750215 0.1742201381461231 0.19546521779773343 0.1746322544509627" fill="none" stroke="#000000" stroke-width="0.001"/>
<path d="M 0.19546521779773343 0.1746322544509627 C 0.19571677536023593 0.174221665291077 0.19840194942225753 0.1689452142104274 0.19848390854776357 0.16970518453233419 C 0.19840194942225753 0.1689452142104274 0.19414819160365251 0.1651632294260603 0.19448170829166106 0.16551261058808137" fill="none" stroke="#000000" stroke-width="0.001"/>
<path d="M 0.19448170829166106 0.16551261058808137 C 0.19433110558333255 0.1653040904437459 0.192488921287381 0.1624707137806844 0.1926744757917189 0.16301036885605547 C 0.192488921287381 0.1624707137806844 0.19222010244359664 0.15870561475259298 0.19225505423960604 0.15903674968362855" fill="none" stroke="#000000" stroke-width="0.001"/>
<path d="M 0.19225505423960604 0.15903674968362855 C 0.19232038508928764 0.15869380709820866 0.19333647384961083 0.15473301675043333 0.19303902443578524 0.15492143865858982 C 0.19333647384961083 0.15473301675043333 0.19605656576965727 0.15693020746301417 0.19582444720551326 0.15677568678575077" fill="none" stroke="#000000" stroke-width="0.001"/>
<path d="M 0.19582444720551326 0.15677568678575077 C 0.19597722912189167 0.15711541333885645 0.19792096226632686 0.16148939813589894 0.19765783020205413 0.1608524054230189 C 0.19792096226632686 0.16148939813589894 0.19909238212468044 0.16471686550008555 0.1989820319767861 0.1644195993403112" fill="none" stroke="#000000" stroke-width="0.001"/>
<path d="M 0.1989820319767861 0.1644195993403112 C 0.19930614136886893 0.16484607275981059 0.20279415405181758 0.17037370735381183 0.2028713446817799 0.16953728037430385 C 0.20279415405181758 0.17037370735381183 0.19765444439519333 0.17486667665441563 0.19805574441723844 0.17445672309440705" fill="none" stroke="#000000" stroke-width="0.001"/>
<path d="M 0.19805574441723844 0.17445672309440705 C 0.19780423829991184 0.17482892487941498 0.19506566083025206 0.17968677173967074 0.19503767100931904 0.1789231445145024 C 0.19506566083025206 0.17968677173967074 0.19867111820669422 0.1840116752365877 0.1983916222684346 0.1836202497964273" fill="none" stroke="#000000" stroke-width="0.001"/>
<path d="M 0.1983916222684346 0.1836202497964273 C 0.19885492516726003 0.18393021592616102 0.20397924687527272 0.18810347057840016 0.2039512570543397 0.1873398433532318 C 0.20397924687527272 0.18810347057840016 0.19829218704173832 0.1932374375938822 0.19872750011963072 0.19278377649844755" fill="none" stroke="#000000" stroke-width="0.001"/>
<path d="M 0.19872750011963072 0.19278377649844755 C 0.19850544433722714 0.1931650522708269 0.19609082055172067 0.19812271299216805 0.19606283073078767 0.1973590857669997 C 0.19609082055172067 0.19812271299216805 0.19931342357416343 0.20232965465325684 0.19906337797082682 0.20194730320046783" fill="none" stroke="#000000" stroke-width="0.001"/>
<path d="M 0.19906337797082682 0.20194730320046783 C 0.19910489722662558 0.2023272517923886 0.19909159544660854 0.2073258373382079 0.19956160904041184 0.2065066863035171 C 0.19909159544660854 0.2073258373382079 0.1929116819955851 0.21221631805952731 0.19342321484518715 0.2117771156167573" fill="none" stroke="#000000" stroke-width="0.001"/>
</g><g transform="translate(0.3404187722727318,0.1479720777849393) rotate(0) scale(1,1) translate(-0.17536354441476742,-0.1747542786641903)"><path d="M 0.1791425887987996 0.18428901362981873 C 0.17943356833254664 0.1847647715520832 0.18226498511586559 0.19071040908049713 0.1826343432037641 0.18999810869699243 C 0.18226498511586559 0.19071040908049713 0.17404995412237212 0.19307316069311553 0.17471029174401764 0.19283661823187528" fill="none" stroke="#000000" stroke-width="0.001"/>
<path d="M 0.17471029174401764 0.19283661823187528 C 0.17539183831933008 0.19330571885065806 0.1828861151475868 0.19929452381857016 0.18288885064776678 0.19846582565726853 C 0.1828861151475868 0.19929452381857016 0.17399318366636554 0.20314059371001353 0.17467746574185794 0.20278099616749468" fill="none" stroke="#000000" stroke-width="0.001"/>
<path d="M 0.17467746574185794 0.20278099616749468 C 0.17518332778678503 0.20302095959441296 0.18081136598331243 0.2062494126734445 0.18074781028098308 0.20566055729051427 C 0.18081136598331243 0.2062494126734445 0.1749978278272125 0.21019615271866907 0.17544013416981022 0.20984726076265717" fill="none" stroke="#000000" stroke-width="0.001"/>
<path d="M 0.17544013416981022 0.20984726076265717 C 0.17570691745747566 0.2101708702843002 0.17830613350634195 0.2144375103624122 0.17864153362179536 0.21373057502237372 C 0.17830613350634195 0.2144375103624122 0.17081314938125042 0.21871381066151446 0.17141533278436927 0.218330484843119" fill="none" stroke="#000000" stroke-width="0.001"/>
<path d="M 0.17141533278436927 0.218330484843119 C 0.1720583996692228 0.21850289730571126 0.17911486466581944 0.22080838931805857 0.17913213540261147 0.22039943439422607 C 0.17911486466581944 0.22080838931805857 0.17054774632121925 0.22347448639034911 0.1712080839428648 0.22323794392910887" fill="none" stroke="#000000" stroke-width="0.001"/>
<path d="M 0.1712080839428648 0.22323794392910887 C 0.17169289850957803 0.22367390294552358 0.17736849691896062 0.22939038086916033 0.17702585874342375 0.22846945212608544 C 0.17736849691896062 0.22939038086916033 0.1751775656581308 0.23477405857266778 0.1753197420493072 0.2342890888460076" fill="none" stroke="#000000" stroke-width="0.001"/>
<path d="M 0.1753197420493072 0.2342890888460076 C 0.17541739265700335 0.23380545916081275 0.17605985959916357 0.22756728396352505 0.1764915493416609 0.2284855326236693 C 0.17605985959916357 0.22756728396352505 0.16961012478914586 0.22283548594932723 0.17013946513933934 0.22327010492427662" fill="none" stroke="#000000" stroke-width="0.001"/>
<path d="M 0.17013946513933934 0.22327010492427662 C 0.17075527697750464 0.2230349025045017 0.17745742636715472 0.22004140104607575 0.17752920719732315 0.22044767588697758 C 0.17745742636715472 0.22004140104607575 0.16859050250898458 0.21822373441232756 0.16927809517731832 0.2183948068334545" fill="none" stroke="#000000" stroke-width="0.001"/>
<path d="M 0.16927809517731832 0.2183948068334545 C 0.16983575279695695 0.2180128210565244 0.17621633516147472 0.21310672225318533 0.17596998661298177 0.21381097751029315 C 0.17621633516147472 0.21310672225318533 0.17192296868808798 0.20962147426798278 0.17223427775923367 0.2099437437481605" fill="none" stroke="#000000" stroke-width="0.001"/>
<path d="M 0.17223427775923367 0.2099437437481605 C 0.1726320583183512 0.20959619183361392 0.17685503719935425 0.205186945473602 0.17700764446864403 0.20577312077360155 C 0.17685503719935425 0.205186945473602 0.16985260269934893 0.202671016762713 0.17040299052775626 0.20290964014816598" fill="none" stroke="#000000" stroke-width="0.001"/>
<path d="M 0.17040299052775626 0.20290964014816598 C 0.17104274681976844 0.20255138264711248 0.17799374996512185 0.1977845320571528 0.17808006603190235 0.19861055013552376 C 0.17799374996512185 0.1977845320571528 0.1686411253675977 0.19252966263039695 0.16936719772639036 0.1929974232077144" fill="none" stroke="#000000" stroke-width="0.001"/>
<path d="M 0.16936719772639036 0.1929974232077144 C 0.1699830095645557 0.19276222078793948 0.17703724630531234 0.18946537386984136 0.1767569397843743 0.19017499417041542 C 0.17703724630531234 0.18946537386984136 0.17239537066041957 0.1840075617200264 0.17273087597764686 0.18448197960082557" fill="none" stroke="#000000" stroke-width="0.001"/>
<path d="M 0.17273087597764686 0.18448197960082557 C 0.17294743725535416 0.183522332862699 0.17586392071189724 0.1729501382457229 0.17532961131013453 0.17296621874330678 C 0.17586392071189724 0.1729501382457229 0.179460336922855 0.1852325798703614 0.1791425887987996 0.18428901362981873" fill="none" stroke="#000000" stroke-width="0.001"/>
</g><g transform="translate(0.3309531013733319,0.14923341831557907) rotate(0) scale(1,1) translate(-0.19551282657519264,-0.15725534279570835)"><path d="M 0.19760243830519816 0.2117771156167573 C 0.1970909054555961 0.21133791317398729 0.19099403051617014 0.2056875352688263 0.19146404410997345 0.2065066863035171 C 0.19099403051617014 0.2056875352688263 0.1920037944353572 0.20156735460854705 0.19196227517955844 0.20194730320046783" fill="none" stroke="#000000" stroke-width="0.001"/>
<path d="M 0.19196227517955844 0.20194730320046783 C 0.19221232078289502 0.20156495174767883 0.19499081224053058 0.19659545854183136 0.19496282241959756 0.1973590857669997 C 0.19499081224053058 0.19659545854183136 0.19207609724835098 0.1924025007260682 0.19229815303075457 0.19278377649844755" fill="none" stroke="#000000" stroke-width="0.001"/>
<path d="M 0.19229815303075457 0.19278377649844755 C 0.19186283995286216 0.1923301154030129 0.18710238591697853 0.18657621612806347 0.18707439609604554 0.1873398433532318 C 0.18710238591697853 0.18657621612806347 0.1930973337807761 0.18331028366669358 0.19263403088195066 0.1836202497964273" fill="none" stroke="#000000" stroke-width="0.001"/>
<path d="M 0.19263403088195066 0.1836202497964273 C 0.1929135268202103 0.1832288243562669 0.19601597196199919 0.17815951728933405 0.19598798214106616 0.1789231445145024 C 0.19601597196199919 0.17815951728933405 0.1927184026158202 0.1740845213093991 0.19296990873314682 0.17445672309440705" fill="none" stroke="#000000" stroke-width="0.001"/>
<path d="M 0.19296990873314682 0.17445672309440705 C 0.1925686087111017 0.17404676953439846 0.18808463072799275 0.1687226933210978 0.1881543084686054 0.16953728037430388 C 0.18808463072799275 0.1687226933210978 0.19246539812722763 0.16427704496273637 0.19213377584579514 0.16468167845593387" fill="none" stroke="#000000" stroke-width="0.001"/>
<path d="M 0.19213377584579514 0.16468167845593387 C 0.1922591517723888 0.16429341260323496 0.19387888036114287 0.15935273562121416 0.19363828696491914 0.16002248822354703 C 0.19387888036114287 0.15935273562121416 0.19513611407011017 0.15636316047830545 0.19502089660048008 0.15664464722793942" fill="none" stroke="#000000" stroke-width="0.001"/>
<path d="M 0.19502089660048008 0.15664464722793942 C 0.1952680409433234 0.15650104651382696 0.1982709305720637 0.15512017386527774 0.19798662871460002 0.15492143865858982 C 0.1982709305720637 0.15512017386527774 0.19846967640466467 0.15937180562899503 0.19843251889004432 0.15902946970819462" fill="none" stroke="#000000" stroke-width="0.001"/>
<path d="M 0.19843251889004432 0.15902946970819462 C 0.19842448828087123 0.1593047914942365 0.1982476385630623 0.1628129264187378 0.19833615157996703 0.16233333114069692 C 0.1982476385630623 0.1628129264187378 0.19728988027945582 0.164988886536684 0.19737036268718744 0.164784613044685" fill="none" stroke="#000000" stroke-width="0.001"/>
<path d="M 0.19737036268718744 0.164784613044685 C 0.19696797784680695 0.16519466066865576 0.1923909173247437 0.17052582131619065 0.19254174460262166 0.16970518453233419 C 0.1923909173247437 0.17052582131619065 0.19581199291515433 0.1750428436108484 0.19556043535265183 0.1746322544509627" fill="none" stroke="#000000" stroke-width="0.001"/>
<path d="M 0.19556043535265183 0.1746322544509627 C 0.19599365359242055 0.1750443707558023 0.20067709510437043 0.1803376204309445 0.20075905422987644 0.17957765010903773 C 0.20067709510437043 0.1803376204309445 0.19406174848130475 0.18409975233091122 0.19457692584657948 0.18375189831384403" fill="none" stroke="#000000" stroke-width="0.001"/>
<path d="M 0.19457692584657948 0.18375189831384403 C 0.19420411869374865 0.18408869776334133 0.1900212808871034 0.18855346202971848 0.19010324001260945 0.1877934917078117 C 0.1900212808871034 0.18855346202971848 0.19388426436783188 0.19329471304913487 0.19359341634050709 0.1928715421767254" fill="none" stroke="#000000" stroke-width="0.001"/>
<path d="M 0.19359341634050709 0.1928715421767254 C 0.19388928442600137 0.1932578193930561 0.19706187424093258 0.19826683909460083 0.1971438333664386 0.19750686877269405 C 0.19706187424093258 0.19826683909460083 0.19223207962343442 0.2023648791451828 0.19260990683443474 0.20199118603960675" fill="none" stroke="#000000" stroke-width="0.001"/>
<path d="M 0.19260990683443474 0.20199118603960675 C 0.19259645161701397 0.20237303622122355 0.1928644885146157 0.20738888235043748 0.19244844422538543 0.20657338821900828 C 0.1928644885146157 0.20738888235043748 0.19803193781184922 0.2122107595665697 0.19760243830519816 0.2117771156167573" fill="none" stroke="#000000" stroke-width="0.001"/>
</g><g transform="translate(0.33426813338461014,0.14797207778493926) rotate(0) scale(1,1) translate(-0.17536354441476742,-0.1747542786641903)"><path d="M 0.17158450003073522 0.18428901362981873 C 0.17190224815479063 0.18334544738927605 0.175931786921163 0.17298229924089067 0.1753974775194003 0.17296621874330678 C 0.175931786921163 0.17298229924089067 0.17821277412959527 0.18544162633895214 0.17799621285188796 0.18448197960082557" fill="none" stroke="#000000" stroke-width="0.001"/>
<path d="M 0.17799621285188796 0.18448197960082557 C 0.17766070753466068 0.18495639748162473 0.17425045556609858 0.19088461447098948 0.17397014904516053 0.19017499417041542 C 0.17425045556609858 0.19088461447098948 0.1819757029413098 0.19323262562748933 0.18135989110314446 0.1929974232077144" fill="none" stroke="#000000" stroke-width="0.001"/>
<path d="M 0.18135989110314446 0.1929974232077144 C 0.1806338187443518 0.19346518378503186 0.17256070673085197 0.19943656821389472 0.17264702279763247 0.19861055013552376 C 0.17256070673085197 0.19943656821389472 0.18096385459379077 0.2032678976492195 0.1803240983017786 0.20290964014816598" fill="none" stroke="#000000" stroke-width="0.001"/>
<path d="M 0.1803240983017786 0.20290964014816598 C 0.17977371047337126 0.20314826353361895 0.173566837091601 0.2063592960736011 0.1737194443608908 0.20577312077360155 C 0.173566837091601 0.2063592960736011 0.17889059162941867 0.21029129566270707 0.17849281107030116 0.2099437437481605" fill="none" stroke="#000000" stroke-width="0.001"/>
<path d="M 0.17849281107030116 0.2099437437481605 C 0.17818150199915547 0.2102660132283382 0.175003450765046 0.21451523276740098 0.17475710221655305 0.21381097751029315 C 0.175003450765046 0.21451523276740098 0.18200665127185517 0.2187767926103846 0.18144899365221653 0.2183948068334545" fill="none" stroke="#000000" stroke-width="0.001"/>
<path d="M 0.18144899365221653 0.2183948068334545 C 0.1807614009838828 0.21856587925458143 0.17312610080204324 0.22085395072787942 0.17319788163221167 0.22044767588697758 C 0.17312610080204324 0.22085395072787942 0.18120343552836082 0.22350530734405155 0.18058762369019551 0.22327010492427662" fill="none" stroke="#000000" stroke-width="0.001"/>
<path d="M 0.18058762369019551 0.22327010492427662 C 0.18005828334000204 0.22370472389922602 0.1738038497453766 0.22940378128381356 0.17423553948787393 0.2284855326236693 C 0.1738038497453766 0.22940378128381356 0.17550499738792377 0.23477271853120246 0.17540734678022762 0.2342890888460076" fill="none" stroke="#000000" stroke-width="0.001"/>
<path d="M 0.17540734678022762 0.2342890888460076 C 0.17526517038905123 0.23380411911934743 0.17404386826164794 0.22754852338301054 0.17370123008611107 0.22846945212608544 C 0.17404386826164794 0.22754852338301054 0.18000381945338328 0.22280198491269415 0.17951900488667002 0.22323794392910887" fill="none" stroke="#000000" stroke-width="0.001"/>
<path d="M 0.17951900488667002 0.22323794392910887 C 0.17885866726502447 0.22300140146786862 0.17157768269013132 0.21999047947039357 0.17159495342692335 0.22039943439422607 C 0.17157768269013132 0.21999047947039357 0.1799548229300191 0.21815807238052676 0.17931175604516558 0.218330484843119" fill="none" stroke="#000000" stroke-width="0.001"/>
<path d="M 0.17931175604516558 0.218330484843119 C 0.17870957264204673 0.21794715902472356 0.17175015509228608 0.21302363968233523 0.1720855552077395 0.21373057502237372 C 0.17175015509228608 0.21302363968233523 0.17555373794739004 0.20952365124101413 0.1752869546597246 0.20984726076265717" fill="none" stroke="#000000" stroke-width="0.001"/>
<path d="M 0.1752869546597246 0.20984726076265717 C 0.17484464831712687 0.20949836880664527 0.1700428342508811 0.20507170190758406 0.16997927854855174 0.20566055729051427 C 0.1700428342508811 0.20507170190758406 0.176555485132604 0.2025410327405764 0.1760496230876769 0.20278099616749468" fill="none" stroke="#000000" stroke-width="0.001"/>
<path d="M 0.1760496230876769 0.20278099616749468 C 0.1753653410121845 0.20242139862497582 0.1678355026815881 0.1976371274959669 0.16783823818176807 0.19846582565726853 C 0.1678355026815881 0.1976371274959669 0.17669834366082965 0.1923675176130925 0.1760167970855172 0.19283661823187528" fill="none" stroke="#000000" stroke-width="0.001"/>
<path d="M 0.1760167970855172 0.19283661823187528 C 0.17535645946387168 0.19260007577063504 0.16772338753787225 0.18928580831348774 0.16809274562577076 0.18999810869699243 C 0.16772338753787225 0.18928580831348774 0.17187547956448226 0.18381325570755425 0.17158450003073522 0.18428901362981873" fill="none" stroke="#000000" stroke-width="0.001"/>
</g><g transform="translate(0.33734345282867095,0.14635360142269319) rotate(0) scale(1,1) translate(-0.19551282657519264,-0.15725534279570835)"><path d="M 0.20341999549867684 0.22220984429466176 C 0.20270696366293886 0.22172663899720785 0.19416908990243792 0.21547098483714508 0.194863613469821 0.21641138072521468 C 0.19416908990243792 0.21547098483714508 0.19510422095843463 0.2104679030472109 0.19508571269007974 0.21092509363782658" fill="none" stroke="#000000" stroke-width="0.001"/>
<path d="M 0.19508571269007974 0.21092509363782658 C 0.1953777017611904 0.21044815591000696 0.19855398871964844 0.20428745972275986 0.19858958154340783 0.2052018409039912 C 0.19855398871964844 0.20428745972275986 0.19433101691009677 0.1995150760096387 0.19465859880496686 0.19995251946305043" fill="none" stroke="#000000" stroke-width="0.001"/>
<path d="M 0.19465859880496686 0.19995251946305043 C 0.19404424229964898 0.1994458751723066 0.18725072791739297 0.19295840679289342 0.18728632074115237 0.19387278797412477 C 0.18725072791739297 0.19295840679289342 0.19481024860141244 0.18857220839778668 0.19423148491985398 0.18897994528827422" fill="none" stroke="#000000" stroke-width="0.001"/>
<path d="M 0.19423148491985398 0.18897994528827422 C 0.1945612705369442 0.1884897855642398 0.19815331950117707 0.1821836474186297 0.19818891232493646 0.18309802859986105 C 0.19815331950117707 0.1821836474186297 0.1934389925938915 0.17758314965630106 0.1938043710347411 0.178007371113498" fill="none" stroke="#000000" stroke-width="0.001"/>
<path d="M 0.1938043710347411 0.178007371113498 C 0.19323879956968976 0.17755018052288232 0.18698192063036564 0.17160670284487856 0.18701751345412504 0.1725210840261099 C 0.18698192063036564 0.17160670284487856 0.19390723579092015 0.16657760634810617 0.19337725714962822 0.16703479693872184" fill="none" stroke="#000000" stroke-width="0.001"/>
<path d="M 0.19337725714962822 0.16703479693872184 C 0.1932338607812663 0.16657760634810614 0.19164047272154075 0.16068780163713284 0.19165650072928542 0.1615485098513337 C 0.19164047272154075 0.16068780163713284 0.19331228941730944 0.15630278074472628 0.19318492105669222 0.15670629836831146" fill="none" stroke="#000000" stroke-width="0.001"/>
<path d="M 0.19318492105669222 0.15670629836831146 C 0.1933789131832339 0.1566073427977708 0.19590081082827604 0.15551883152182372 0.19551282657519264 0.15551883152182372 C 0.19590081082827604 0.15551883152182372 0.19803472422023474 0.1568052539388521 0.19784073209369304 0.15670629836831146" fill="none" stroke="#000000" stroke-width="0.001"/>
<path d="M 0.19784073209369304 0.15670629836831146 C 0.1979681004543103 0.15710981599189663 0.1993531244133553 0.16240921806553457 0.19936915242109995 0.1615485098513337 C 0.1993531244133553 0.16240921806553457 0.19750499963239526 0.16749198752933755 0.19764839600075715 0.16703479693872186" fill="none" stroke="#000000" stroke-width="0.001"/>
<path d="M 0.19764839600075715 0.16703479693872186 C 0.19724372110499422 0.16747910896159585 0.19275670442784243 0.1732809223944409 0.19279229725160182 0.17236654121320955 C 0.19275670442784243 0.1732809223944409 0.1975903641876478 0.1784774402718554 0.19722128211564427 0.17800737111349801" fill="none" stroke="#000000" stroke-width="0.001"/>
<path d="M 0.19722128211564427 0.17800737111349801 C 0.19782895378958798 0.17846456170411368 0.20447774937920957 0.18440803938211747 0.20451334220296896 0.18349365820088612 C 0.20447774937920957 0.18440803938211747 0.19615090373282826 0.18943713587888994 0.1967941682305314 0.18897994528827425" fill="none" stroke="#000000" stroke-width="0.001"/>
<path d="M 0.1967941682305314 0.18897994528827425 C 0.19633672953127926 0.18941240902882586 0.19126931101574648 0.19508389135612486 0.1913049038395059 0.1941695101748935 C 0.19126931101574648 0.19508389135612486 0.19678890022091117 0.2004344369037302 0.19636705434541846 0.19995251946305045" fill="none" stroke="#000000" stroke-width="0.001"/>
<path d="M 0.19636705434541846 0.19995251946305045 C 0.19679199485240959 0.2003899629164622 0.2014307476055526 0.20611622208522257 0.201466340429312 0.2052018409039912 C 0.2014307476055526 0.20611622208522257 0.1954794071295551 0.21140203136564623 0.19593994046030563 0.2109250936378266" fill="none" stroke="#000000" stroke-width="0.001"/>
<path d="M 0.19593994046030563 0.2109250936378266 C 0.19595844872866053 0.21138228422844227 0.19678537760042852 0.21735177661328428 0.19616203968056425 0.21641138072521468 C 0.19678537760042852 0.21735177661328428 0.20402482515018622 0.22269304959211567 0.20341999549867684 0.22220984429466176" fill="none" stroke="#000000" stroke-width="0.001"/>
</g></g>
</svg>
