<?xml version="1.0" encoding="UTF-8"?>
<svg xmlns="http://www.w3.org/2000/svg" viewBox="0 0 1 1">
<g transform="translate(0.33734345282867056,0.2752572326331468) rotate(0) scale(1,1) translate(-0.01919286476298845,-0.019735317662897982)"><path d="M 0.01919286476298845 0.026427532471739314 C 0.0189768116312539 0.026331503332147017 0.016263892828356667 0.024974826161101384 0.016600227182173816 0.02527518279663174 C 0.016263892828356667 0.024974826161101384 0.01521243883642968 0.022203768867999015 0.01515685251718264 0.02282325284537505 C 0.01521243883642968 0.022203768867999015 0.017490495233363934 0.01718790761016514 0.017267263013138297 0.017841375068119305 C 0.017490495233363934 0.01718790761016514 0.017996105972377788 0.014551058363328847 0.017835639159890275 0.014981643349925057 C 0.017996105972377788 0.014551058363328847 0.019305966896579946 0.01248208121888475 0.019192864762988433 0.012674355228964772" fill="none" stroke="#000000" stroke-width="0.001"/>
<path d="M 0.019192864762988433 0.012674355228964772 C 0.019305966896579946 0.012866629239044795 0.020710557178574094 0.01541222833652125 0.02055009036608658 0.01498164334992504 C 0.020710557178574094 0.01541222833652125 0.02134169873306421 0.018494842526073463 0.021118466512838573 0.017841375068119298 C 0.02134169873306421 0.018494842526073463 0.023284463328041252 0.023442736822751074 0.02322887700879421 0.02282325284537504 C 0.023284463328041252 0.023442736822751074 0.021449167989985907 0.02557553943216207 0.021785502343803054 0.025275182796631716 C 0.021449167989985907 0.02557553943216207 0.0189768116312539 0.026523561611331615 0.01919286476298845 0.026427532471739314" fill="none" stroke="#000000" stroke-width="0.001"/>
</g><g transform="translate(0.3373434528286707,0.27834516781562385) rotate(0) scale(1,1) translate(-0.01919286476298845,-0.0207756729228991)"><path d="M 0.01919286476298845 0.023884743351338618 C 0.019028598418214283 0.023814795871173272 0.017008164979449646 0.022698029746659288 0.017221668625698437 0.023045373589354462 C 0.017008164979449646 0.022698029746659288 0.016642224359835575 0.019163458402427645 0.016630821008002943 0.019716617238996526 C 0.016642224359835575 0.019163458402427645 0.017467288296168896 0.01599033028576248 0.017358508847690024 0.016407467550527875 C 0.017467288296168896 0.01599033028576248 0.018089037382690933 0.01445788074500302 0.0179361743897494 0.014710970061811764 C 0.018089037382690933 0.01445788074500302 0.019297588960758352 0.013258681222740536 0.019192864762988433 0.013370395748822938" fill="none" stroke="#000000" stroke-width="0.001"/>
<path d="M 0.019192864762988433 0.013370395748822938 C 0.019297588960758352 0.013482110274905338 0.020602418129169003 0.014964059378620494 0.020449555136227468 0.01471097006181175 C 0.020602418129169003 0.014964059378620494 0.021136000126765718 0.016824604815293267 0.021027220678286846 0.01640746755052787 C 0.021136000126765718 0.016824604815293267 0.02176631186980655 0.020269776075565404 0.021754908517973917 0.019716617238996523 C 0.02176631186980655 0.020269776075565404 0.02095055725402964 0.02339271743204963 0.021164060900278427 0.023045373589354455 C 0.02095055725402964 0.02339271743204963 0.019028598418214287 0.023954690831503964 0.01919286476298845 0.023884743351338618" fill="none" stroke="#000000" stroke-width="0.001"/>
</g><g transform="translate(0.3373434528286707,0.27284025929820066) rotate(0) scale(1,1) translate(-0.022933258138484177,-0.022933258138484177)"><path d="M 0.023905728821085947 0.02231591239838557 C 0.024006783079954082 0.022416785217864648 0.024109843397478844 0.02327937263064611 0.02414590924490179 0.02315358628218623 C 0.024109843397478844 0.02327937263064611 0.023326911017015242 0.02388132877138066 0.023472938652010576 0.023825348579904166 C 0.023326911017015242 0.02388132877138066 0.02224754998996244 0.02376936838842767 0.022393577624957774 0.023825348579904166 C 0.02224754998996244 0.02376936838842767 0.02168454118464362 0.023027799933726348 0.021720607032066568 0.02315358628218623 C 0.02168454118464362 0.023027799933726348 0.022061841714750542 0.022215039578906495 0.021960787455882407 0.02231591239838557 C 0.022061841714750542 0.022215039578906495 0.023095336585584467 0.0219431124484373 0.022933258138484174 0.0219431124484373 C 0.023095336585584467 0.0219431124484373 0.024006783079954082 0.022416785217864648 0.023905728821085947 0.02231591239838557 Z" fill="#cccccc" stroke="#000000" stroke-width="0.001"/>
</g><g transform="translate(0.3373434528286707,0.2754880484339874) rotate(0) scale(1,1) translate(-0.02456377814682995,-0.024563778146829942)"><path d="M 0.02470502661174586 0.024429220912080933 C 0.024740338727974837 0.024440434014976684 0.02484627507666177 0.02458620435262144 0.02484627507666177 0.02456377814682994 C 0.02484627507666177 0.02458620435262144 0.024669714495516883 0.0247095484844747 0.02470502661174586 0.02469833538157895 C 0.024669714495516883 0.0247095484844747 0.02438721756568506 0.0246871222786832 0.024422529681914038 0.02469833538157895 C 0.02438721756568506 0.0246871222786832 0.024281281216998123 0.024541351941038438 0.024281281216998123 0.02456377814682994 C 0.024281281216998123 0.024541351941038438 0.024457841798143014 0.024418007809185183 0.024422529681914038 0.024429220912080933 C 0.024457841798143014 0.024418007809185183 0.024740338727974837 0.024440434014976684 0.02470502661174586 0.024429220912080933 Z" fill="#cccccc" stroke="#000000" stroke-width="0.001"/>
</g><g transform="translate(0.3373434528286707,0.2784273467918402) rotate(0) scale(1,1) translate(-0.04481464761927567,-0.044322296567054956)"><path d="M 0.046915685148708614 0.044322296567054956 C 0.047023894532444335 0.04456248600562915 0.04582986437958254 0.04625208464516383 0.04611316022410434 0.04610363940838622 C 0.04582986437958254 0.04625208464516383 0.04323283916992519 0.045955194171608614 0.04351613501444699 0.04610363940838622 C 0.04323283916992519 0.045955194171608614 0.04282181947357845 0.04408210712848076 0.04271361008984273 0.044322296567054956 C 0.04282181947357845 0.04408210712848076 0.0451648205408478 0.043221366145495925 0.044814647619275644 0.043221366145495925 C 0.0451648205408478 0.043221366145495925 0.047023894532444335 0.04456248600562915 0.046915685148708614 0.044322296567054956 Z" fill="#cccccc" stroke="#000000" stroke-width="0.001"/>
</g></svg>
