<?xml version="1.0" encoding="UTF-8"?>
<svg xmlns="http://www.w3.org/2000/svg" viewBox="0 0 1 1">
<g transform="translate(0.33734345282867056,0.2752572326331468) rotate(0) scale(1,1) translate(-0.01919286476298845,-0.019735317662897982)"><path d="M 0.01919286476298845 0.026427532471739314 C 0.018948159560454928 0.026331503332147017 0.015860684968294875 0.02502870305517521 0.016256402332586187 0.02527518279663174 C 0.015860684968294875 0.02502870305517521 0.01452849478153871 0.022850291596884925 0.0144442563914927 0.02346977557426096 C 0.01452849478153871 0.022850291596884925 0.017549878243838097 0.017134030716091313 0.017267263013138297 0.017841375068119305 C 0.017549878243838097 0.017134030716091313 0.017996105972377788 0.014551058363328847 0.017835639159890275 0.014981643349925057 C 0.017996105972377788 0.014551058363328847 0.019305966896579946 0.01248208121888475 0.019192864762988433 0.012674355228964772" fill="none" stroke="#000000" stroke-width="0.001"/>
<path d="M 0.019192864762988433 0.012674355228964772 C 0.019305966896579946 0.012866629239044795 0.020710557178574094 0.01541222833652125 0.02055009036608658 0.01498164334992504 C 0.020710557178574094 0.01541222833652125 0.02140108174353837 0.01854871942014729 0.021118466512838573 0.017841375068119298 C 0.02140108174353837 0.01854871942014729 0.024025711524530143 0.024089259551636984 0.023941473134484133 0.02346977557426095 C 0.024025711524530143 0.024089259551636984 0.021733609829099377 0.025521662538088245 0.022129327193390683 0.025275182796631716 C 0.021733609829099377 0.025521662538088245 0.01894815956045493 0.026523561611331615 0.01919286476298845 0.026427532471739314" fill="none" stroke="#000000" stroke-width="0.001"/>
</g><g transform="translate(0.3373434528286707,0.27834516781562385) rotate(0) scale(1,1) translate(-0.01919286476298845,-0.0207756729228991)"><path d="M 0.01919286476298845 0.023884743351338618 C 0.01897588452567032 0.023786914928620534 0.016305276276667925 0.022465358481966236 0.016589101915170906 0.022710802278721604 C 0.016305276276667925 0.022465358481966236 0.015851074345329275 0.02041413989625808 0.01578695710095268 0.020939417790274223 C 0.015851074345329275 0.02041413989625808 0.017537610288423083 0.01588843023982267 0.017358508847690024 0.016407467550527875 C 0.017537610288423083 0.01588843023982267 0.018089037382690933 0.01445788074500302 0.0179361743897494 0.014710970061811764 C 0.018089037382690933 0.01445788074500302 0.019297588960758352 0.013258681222740536 0.019192864762988433 0.013370395748822938" fill="none" stroke="#000000" stroke-width="0.001"/>
<path d="M 0.019192864762988433 0.013370395748822938 C 0.019297588960758352 0.013482110274905338 0.020602418129169003 0.014964059378620494 0.020449555136227468 0.01471097006181175 C 0.020602418129169003 0.014964059378620494 0.021206322119019905 0.016926504861233073 0.021027220678286846 0.01640746755052787 C 0.021206322119019905 0.016926504861233073 0.02266288966940077 0.021464695684290363 0.02259877242502418 0.02093941779027422 C 0.02266288966940077 0.021464695684290363 0.021512801972302976 0.022956246075476965 0.021796627610805953 0.022710802278721597 C 0.021512801972302976 0.022956246075476965 0.018975884525670325 0.023982571774056702 0.01919286476298845 0.023884743351338618" fill="none" stroke="#000000" stroke-width="0.001"/>
</g><g transform="translate(0.3373434528286707,0.27284025929820066) rotate(0) scale(1,1) translate(-0.022933258138484177,-0.022933258138484177)"><path d="M 0.023905728821085947 0.02231591239838557 C 0.024006783079954082 0.022416785217864648 0.024109843397478844 0.02327937263064611 0.02414590924490179 0.02315358628218623 C 0.024109843397478844 0.02327937263064611 0.023326911017015242 0.02388132877138066 0.023472938652010576 0.023825348579904166 C 0.023326911017015242 0.02388132877138066 0.02224754998996244 0.02376936838842767 0.022393577624957774 0.023825348579904166 C 0.02224754998996244 0.02376936838842767 0.02168454118464362 0.023027799933726348 0.021720607032066568 0.02315358628218623 C 0.02168454118464362 0.023027799933726348 0.022061841714750542 0.022215039578906495 0.021960787455882407 0.02231591239838557 C 0.022061841714750542 0.022215039578906495 0.023095336585584467 0.0219431124484373 0.022933258138484174 0.0219431124484373 C 0.023095336585584467 0.0219431124484373 0.024006783079954082 0.022416785217864648 0.023905728821085947 0.02231591239838557 Z" fill="#cccccc" stroke="#000000" stroke-width="0.001"/>
</g><g transform="translate(0.3373434528286707,0.2754880484339874) rotate(0) scale(1,1) translate(-0.02456377814682995,-0.024563778146829942)"><path d="M 0.02470502661174586 0.024429220912080933 C 0.024740338727974837 0.024440434014976684 0.02484627507666177 0.02458620435262144 0.02484627507666177 0.02456377814682994 C 0.02484627507666177 0.02458620435262144 0.024669714495516883 0.0247095484844747 0.02470502661174586 0.02469833538157895 C 0.024669714495516883 0.0247095484844747 0.02438721756568506 0.0246871222786832 0.024422529681914038 0.02469833538157895 C 0.02438721756568506 0.0246871222786832 0.024281281216998123 0.024541351941038438 0.024281281216998123 0.02456377814682994 C 0.024281281216998123 0.024541351941038438 0.024457841798143014 0.024418007809185183 0.024422529681914038 0.024429220912080933 C 0.024457841798143014 0.024418007809185183 0.024740338727974837 0.024440434014976684 0.02470502661174586 0.024429220912080933 Z" fill="#cccccc" stroke="#000000" stroke-width="0.001"/>
</g><g transform="translate(0.3373434528286707,0.2784273467918402) rotate(0) scale(1,1) translate(-0.04481464761927567,-0.044322296567054956)"><path d="M 0.047884419878326756 0.044322296567054956 C 0.04804252184447802 0.04456248600562915 0.046297954892018614 0.04625208464516383 0.0467118712130908 0.04610363940838622 C 0.046297954892018614 0.04625208464516383 0.04250350770438835 0.045955194171608614 0.04291742402546053 0.04610363940838622 C 0.04250350770438835 0.045955194171608614 0.04190297732637586 0.04408210712848076 0.0417448753602246 0.044322296567054956 C 0.04190297732637586 0.04408210712848076 0.04532627632911749 0.043221366145495925 0.044814647619275644 0.043221366145495925 C 0.04532627632911749 0.043221366145495925 0.04804252184447802 0.04456248600562915 0.047884419878326756 0.044322296567054956 Z" fill="#cccccc" stroke="#000000" stroke-width="0.001"/>
</g></svg>
