<?xml version="1.0" encoding="UTF-8"?>
<svg xmlns="http://www.w3.org/2000/svg" viewBox="0 0 1 1">
<g transform="translate(0.31144082525782263,0.40241750342966676) rotate(0) scale(1,1) translate(-0.10643583892935674,-0.050828733638221976)"><path d="M 0.12872081022675874 0.04154039988695192 C 0.12907755490326933 0.04285664415118278 0.13320968862751173 0.06001324803658488 0.13300174634488574 0.05733533105772225 C 0.13320968862751173 0.06001324803658488 0.13106731522438622 0.07503707634793524 0.1312161176182708 0.07367540363330348" fill="none" stroke="#000000" stroke-width="0.001"/>
<path d="M 0.1312161176182708 0.07367540363330348 C 0.13069792399573685 0.07495178067049235 0.12428147908385179 0.09140584677826548 0.12499779414786334 0.08899192807956995 C 0.12428147908385179 0.09140584677826548 0.12242221540865449 0.10377996967915652 0.12262033685013209 0.10264242801764986" fill="none" stroke="#000000" stroke-width="0.001"/>
<path d="M 0.12262033685013209 0.10264242801764986 C 0.12269570056348042 0.10320255165247579 0.12338527019653055 0.11044679842408044 0.12352470141031201 0.10936391163556101 C 0.12338527019653055 0.11044679842408044 0.12028496791727963 0.1165051613412726 0.12094716228475459 0.11563706947988296 C 0.12028496791727963 0.1165051613412726 0.11457084592544145 0.12020170639328115 0.11557836900061255 0.11978101397223669 C 0.11457084592544145 0.12020170639328115 0.10777399859418199 0.12054594731863515 0.10885688538270141 0.1206853785324166 C 0.10777399859418199 0.12054594731863515 0.10171563567698982 0.11744564503938422 0.10258372753837947 0.11810783940685918 C 0.10171563567698982 0.11744564503938422 0.09809445433832958 0.11229164668237199 0.09843978304602573 0.11273904612271715" fill="none" stroke="#000000" stroke-width="0.001"/>
<path d="M 0.09843978304602573 0.11273904612271715 C 0.09762252926918549 0.11062707182986477 0.08763765890467498 0.08314287710861372 0.08863273772394296 0.08739535460848848 C 0.08763765890467498 0.08314287710861372 0.08632101217238212 0.05956881291719774 0.08649883721480989 0.06170931612422011" fill="none" stroke="#000000" stroke-width="0.001"/>
<path d="M 0.08649883721480989 0.06170931612422011 C 0.08699743424136319 0.06020080786010715 0.09388842835250946 0.04118441898976074 0.09248200153344954 0.04360721695486458 C 0.09388842835250946 0.04118441898976074 0.1055205349340077 0.03176834161152591 0.10337595904352899 0.03263574054297402 C 0.1055205349340077 0.03176834161152591 0.12032898315112991 0.03394048472281871 0.1182169122191941 0.033198429777487215 C 0.12032898315112991 0.03394048472281871 0.12959613506072246 0.04223556406274065 0.12872081022675874 0.04154039988695192" fill="none" stroke="none" stroke-width="0"/>
</g><g transform="translate(0.3170281989858394,0.4250104519079742) rotate(0) scale(1,1) translate(-0.03875718691907565,-0.03875718691907564)"><path d="M 0.03296353531099575 0.05467596551239491 C 0.032963049498243704 0.053933591388270086 0.03281272781160378 0.04429554265381816 0.032957705557971215 0.045767476022897 C 0.03281272781160378 0.04429554265381816 0.031079310420971146 0.036283205838494814 0.031223802354586536 0.03701276508344883" fill="none" stroke="#000000" stroke-width="0.001"/>
<path d="M 0.031223802354586536 0.03701276508344883 C 0.030889037644312715 0.0363954800637181 0.02661468939050605 0.02846135731673503 0.027206625831300704 0.029605344846680107 C 0.02661468939050605 0.02846135731673503 0.02386339333452988 0.022758212213893576 0.02412056506505071 0.023284914724107923" fill="none" stroke="#000000" stroke-width="0.001"/>
<path d="M 0.02412056506505071 0.023284914724107923 C 0.024030229051308805 0.02271407359524223 0.022924991243200642 0.015279622723920652 0.023036532900147816 0.01643482117771959 C 0.022924991243200642 0.015279622723920652 0.022760859538479384 0.00883817595358741 0.022782065181684647 0.009422533278520655" fill="none" stroke="#000000" stroke-width="0.001"/>
</g></svg>
