<?xml version="1.0" encoding="UTF-8"?>
<svg xmlns="http://www.w3.org/2000/svg" viewBox="0 0 1 1">
<g transform="translate(0.31144082525782263,0.40241750342966676) rotate(0) scale(1,1) translate(-0.10643583892935674,-0.050828733638221976)"><path d="M 0.1275801730747716 0.04201581528755373 C 0.12793780125734402 0.04314872031653665 0.132270924712448 0.05790647677501204 0.13187171126564073 0.055610675635348814 C 0.132270924712448 0.05790647677501204 0.13241231970069353 0.07072832507419279 0.1323707344364587 0.06956542896351248" fill="none" stroke="#000000" stroke-width="0.001"/>
<path d="M 0.1323707344364587 0.06956542896351248 C 0.13200364430710548 0.07105723813889273 0.12747157418308652 0.09000936995419362 0.1279656528842202 0.08746713906807543 C 0.12747157418308652 0.09000936995419362 0.1263148014510741 0.1011226213076686 0.12644179002285458 0.10007219959693066" fill="none" stroke="#000000" stroke-width="0.001"/>
<path d="M 0.12644179002285458 0.10007219959693066 C 0.12648563521042439 0.10070006881709459 0.12673581389744912 0.10880017274776296 0.12696793227369216 0.10760663023889784 C 0.12673581389744912 0.10880017274776296 0.12285857784299403 0.11531228864836439 0.12365636950793825 0.1143947097033121 C 0.12285857784299403 0.11531228864836439 0.11624473497306621 0.11901332842344627 0.11739443229436154 0.11861757757952536 C 0.11624473497306621 0.11901332842344627 0.10866645914352924 0.1189116014541199 0.10986000165239436 0.11914371983036293 C 0.10866645914352924 0.1189116014541199 0.10215434324292781 0.1150343653996648 0.1030719221879801 0.11583215706460902 C 0.10215434324292781 0.1150343653996648 0.09849714865541573 0.10904839174990094 0.09884905431176684 0.10957021985103234" fill="none" stroke="#000000" stroke-width="0.001"/>
<path d="M 0.09884905431176684 0.10957021985103234 C 0.09814366369363717 0.10757798288745 0.08944022033127211 0.08162855820354929 0.0903843668942107 0.08566337628804431 C 0.08944022033127211 0.08162855820354929 0.08728053961169491 0.05910982171617937 0.08751929555650381 0.06115240283709206" fill="none" stroke="#000000" stroke-width="0.001"/>
<path d="M 0.08751929555650381 0.06115240283709206 C 0.08799237232167705 0.05972110627530368 0.09453065680657334 0.041678054967419415 0.09319621673858264 0.04397684409563153 C 0.09453065680657334 0.041678054967419415 0.10556738398436206 0.03274393143782392 0.10353257637239224 0.03356693329854667 C 0.10556738398436206 0.03274393143782392 0.1196178744740854 0.03480489526604253 0.11761390808222046 0.03410082176695861 C 0.1196178744740854 0.03480489526604253 0.12841069515748418 0.042675398080936656 0.1275801730747716 0.04201581528755373" fill="none" stroke="none" stroke-width="0"/>
</g><g transform="translate(0.3167422140513667,0.4238540512079969) rotate(0) scale(1,1) translate(-0.03875718691907565,-0.03875718691907564)"><path d="M 0.03344873469723742 0.05399824329824401 C 0.033430628879440205 0.05328104720811012 0.03305421548181507 0.04396645841144189 0.03323146488367081 0.0453918902166373 C 0.03305421548181507 0.04396645841144189 0.03116259829091003 0.03618482592083747 0.03132174187496855 0.036893061635899" fill="none" stroke="#000000" stroke-width="0.001"/>
<path d="M 0.03132174187496855 0.036893061635899 C 0.030978511618122945 0.03628877219303695 0.02659482686945506 0.02852236096431987 0.027202978792821287 0.029641588321554425 C 0.02659482686945506 0.02852236096431987 0.02375899712805317 0.022947395434711856 0.024023918794573794 0.02346233334908436" fill="none" stroke="#000000" stroke-width="0.001"/>
<path d="M 0.024023918794573794 0.02346233334908436 C 0.023921698316076576 0.022908716298398538 0.022660362622150206 0.015700278686265362 0.02279727305260718 0.0168189287408545 C 0.022660362622150206 0.015700278686265362 0.02234630367713038 0.009473499690111402 0.022380993629090136 0.010038532694014717" fill="none" stroke="#000000" stroke-width="0.001"/>
</g><g id="鱗下">
<g transform="translate(0.3167422140513667,0.4238540512079969) rotate(0) scale(1,1) translate(-0.039380229287196866,-0.03938022928719686)"><path d="M 0.05439003759741224 0.06394329300837645 C 0.05373122243198028 0.06357070124238286 0.04495881471535956 0.058997525789773006 0.04648425561222874 0.059472191816453274 C 0.04495881471535956 0.058997525789773006 0.03521812110354486 0.058145226427526564 0.03608474683498208 0.05824730068821323" fill="none" stroke="#000000" stroke-width="0.001"/>
<path d="M 0.03608474683498208 0.05824730068821323 C 0.03578248817900109 0.05806157808992143 0.03220758558045542 0.0552101438360637 0.03245764296321023 0.05601862950871157 C 0.03220758558045542 0.0552101438360637 0.03313625951515047 0.04792270954208267 0.0330840582419243 0.04854547261643874" fill="none" stroke="#000000" stroke-width="0.001"/>
<path d="M 0.0330840582419243 0.04854547261643874 C 0.03420661454926625 0.0484222858294462 0.04845222232630479 0.04755120582418655 0.0465547339300277 0.047067231172528305 C 0.04845222232630479 0.04755120582418655 0.05662885108618455 0.054960329874988514 0.05585391899724941 0.05435316843633773" fill="none" stroke="none" stroke-width="0"/>
<path d="M 0.05585391899724941 0.05435316843633773 C 0.055784685824586386 0.05498910268035999 0.05490113080864003 0.06278355641227469 0.05502312092529313 0.0619843793646048 C 0.05490113080864003 0.06278355641227469 0.054337280653422165 0.06410653581202409 0.05439003759741224 0.06394329300837645" fill="none" stroke="#000000" stroke-width="0.001"/>
</g><g transform="translate(0.32644943500597934,0.4332311574765553) rotate(0) scale(1,1) translate(-0.039380229287196866,-0.03938022928719686)"><path d="M 0.04614669804263652 0.04497606216777945 C 0.04545859971896276 0.044604132770944625 0.0359920297622743 0.04002893475410336 0.03788951815855139 0.04051290940576162 C 0.0359920297622743 0.04002893475410336 0.022167447214708078 0.039056321093056914 0.02337683728731141 0.03916836634788035" fill="none" stroke="#000000" stroke-width="0.001"/>
<path d="M 0.02337683728731141 0.03916836634788035 C 0.023061103970807798 0.03895338455329691 0.019427158626173953 0.035684347038893616 0.019588037489268097 0.03658858481287903 C 0.019427158626173953 0.035684347038893616 0.021601145383591133 0.02762825708065343 0.021446290930181668 0.0283175130600554" fill="none" stroke="none" stroke-width="0"/>
<path d="M 0.021446290930181668 0.0283175130600554 C 0.023180371183224753 0.02819784729410646 0.0444915526565815 0.027456206784752177 0.0422552539666987 0.026881523868668086 C 0.0444915526565815 0.027456206784752177 0.04878409364561495 0.035908056735097504 0.04828187520877524 0.03521370805306447" fill="none" stroke="none" stroke-width="0"/>
<path d="M 0.04828187520877524 0.03521370805306447 C 0.04818240199318424 0.03585180820223541 0.04691026519117168 0.04368443935267526 0.047088196621683245 0.04287090984311568 C 0.04691026519117168 0.04368443935267526 0.04606823982771596 0.045151491528168095 0.04614669804263652 0.04497606216777945" fill="none" stroke="#000000" stroke-width="0.001"/>
</g><g transform="translate(0.32929173581883575,0.42252507911309256) rotate(0) scale(1,1) translate(-0.026413702869434126,-0.033629365339161665)"><path d="M 0.032473047978155735 0.040168922468492144 C 0.03177089630702825 0.03978590522227016 0.02181092923474312 0.0349980325977442 0.02404722792462593 0.035572715513828304 C 0.02181092923474312 0.0349980325977442 0.004103316680806718 0.033081061805620746 0.0056374636995620425 0.03327272747548286" fill="none" stroke="#000000" stroke-width="0.001"/>
<path d="M 0.0056374636995620425 0.03327272747548286 C 0.0052886696937875805 0.033054406052405505 0.001181114177716737 0.029765633420318478 0.0014519356302684985 0.03065287039855459 C 0.001181114177716737 0.029765633420318478 0.0024655788221636054 0.021956968181490746 0.0023876062689409047 0.022625883736649505" fill="none" stroke="none" stroke-width="0"/>
<path d="M 0.0023876062689409047 0.022625883736649505 C 0.00434436723504247 0.0225350745455015 0.028572723144869756 0.022197270027968192 0.025868737862159687 0.02153617344287343 C 0.028572723144869756 0.022197270027968192 0.035582653978070256 0.031310948534029416 0.03483542966146175 0.030559042757786647" fill="none" stroke="none" stroke-width="0"/>
<path d="M 0.03483542966146175 0.030559042757786647 C 0.034712256472282134 0.0311899271490709 0.033160486251030845 0.03893047876242316 0.03335735139130635 0.0381296554531977 C 0.033160486251030845 0.03893047876242316 0.03239935602705985 0.04033886138643335 0.032473047978155735 0.040168922468492144" fill="none" stroke="#000000" stroke-width="0.001"/>
</g><g transform="translate(0.3313784447359387,0.4121179591731372) rotate(0) scale(1,1) translate(-0.026413702869434126,-0.033629365339161665)"><path d="M 0.032748720744358625 0.04096616269774209 C 0.03177186168114924 0.04043874591422559 0.01832242670313592 0.03397606471044936 0.021026411985845983 0.034637161295544124 C 0.01832242670313592 0.03397606471044936 -0.001426228867662788 0.032899323875026636 0.0003008973518378866 0.0330330036766049" fill="none" stroke="#000000" stroke-width="0.001"/>
<path d="M 0.0003008973518378866 0.0330330036766049 C -5.251981957059049E-05 0.03282578904300348 -0.004220726131156547 0.029741969214135515 -0.003940108705063838 0.03054642807338783 C -0.004220726131156547 0.029741969214135515 -0.002993712015958845 0.022782253139926215 -0.0030665117612746137 0.02337949736557711" fill="none" stroke="none" stroke-width="0"/>
<path d="M -0.0030665117612746137 0.02337949736557711 C -0.0008295861366705306 0.0232441721152352 0.026767494473836796 0.02232951088616811 0.023776595733974386 0.021755594361474215 C 0.026767494473836796 0.02232951088616811 0.03357824623233264 0.030975737436939654 0.03282427311707431 0.030266495661903852" fill="none" stroke="none" stroke-width="0"/>
<path d="M 0.03282427311707431 0.030266495661903852 C 0.032865339416007194 0.030932321248706478 0.03331077267320927 0.039148041623188565 0.03331706870426891 0.03825640270353538 C 0.03331077267320927 0.039148041623188565 0.032701358414366104 0.041191976030592645 0.032748720744358625 0.04096616269774209" fill="none" stroke="#000000" stroke-width="0.001"/>
</g><g transform="translate(0.33112319645940247,0.4019604642831839) rotate(0) scale(1,1) translate(-0.026413702869434126,-0.033629365339161665)"><path d="M 0.03307952139361057 0.040423990551857206 C 0.03196832355471207 0.03987274854025538 0.01675424858696617 0.033235169887941465 0.019745147326828583 0.03380908641263536 C 0.01675424858696617 0.033235169887941465 -0.004690964385702304 0.033514317742438404 -0.0028112634847383897 0.03353699225553048" fill="none" stroke="#000000" stroke-width="0.001"/>
<path d="M -0.0028112634847383897 0.03353699225553048 C -0.0031915867158571597 0.03327047465277308 -0.007614520177291832 0.029698657450536646 -0.0073751422581636306 0.030338781022441686 C -0.007614520177291832 0.029698657450536646 -0.005542853202286237 0.02548190342352238 -0.0056837985142768055 0.02585550939267002" fill="none" stroke="#000000" stroke-width="0.001"/>
<path d="M -0.0056837985142768055 0.02585550939267002 C -0.003994013356327825 0.02544374606053057 0.01765704341182763 0.021280756925381294 0.014593623381110959 0.020914349406996602 C 0.01765704341182763 0.021280756925381294 0.03245087672709092 0.03103057046381048 0.03107724185432323 0.030252399613286334" fill="none" stroke="none" stroke-width="0"/>
<path d="M 0.03107724185432323 0.030252399613286334 C 0.03124894541877928 0.030860952576219795 0.03330454125606977 0.03840266774670212 0.03313768462779582 0.03755503516848788 C 0.03330454125606977 0.03840266774670212 0.03307467445742846 0.04066307016713798 0.03307952139361057 0.040423990551857206" fill="none" stroke="#000000" stroke-width="0.001"/>
</g><g transform="translate(0.3281158668481811,0.3940169181372545) rotate(0) scale(1,1) translate(-0.026413702869434126,-0.033629365339161665)"><path d="M 0.03408457146554464 0.03819594575921576 C 0.032908564545351335 0.03760373751788563 0.016909068392508306 0.03072303934486944 0.019972488423224983 0.03108944686325413 C 0.016909068392508306 0.03072303934486944 -0.004563882013578847 0.034024856261544896 -0.0026764689030554754 0.03379905553859945" fill="none" stroke="#000000" stroke-width="0.001"/>
<path d="M -0.0026764689030554754 0.03379905553859945 C -0.002514069204513953 0.03347327642059228 0.00012763595404296222 0.02907751339664039 -0.0007276725205572071 0.029889706122513425 C 0.00012763595404296222 0.02907751339664039 0.008280141568205203 0.023566329220257164 0.007587232792146556 0.02405274282812303" fill="none" stroke="#000000" stroke-width="0.001"/>
<path d="M 0.007587232792146556 0.02405274282812303 C 0.008426898407112674 0.023976441247737387 0.01926495007541437 0.023464888957313114 0.017663220171739973 0.023137123863495312 C 0.01926495007541437 0.023464888957313114 0.02757005592494757 0.028389990628140106 0.026807991636239294 0.02798592395393666" fill="none" stroke="#000000" stroke-width="0.001"/>
<path d="M 0.026807991636239294 0.02798592395393666 C 0.027301438290416816 0.02859403992157839 0.03333573313881167 0.03613415071607734 0.03272935148636956 0.035283315565637415 C 0.03333573313881167 0.03613415071607734 0.03419750646380923 0.03843866494201396 0.03408457146554464 0.03819594575921576" fill="none" stroke="#000000" stroke-width="0.001"/>
</g></g>
<g id="鱗上">
<g transform="translate(0.3167422140513667,0.4238540512079969) rotate(0) scale(1,1) translate(-0.039380229287196866,-0.03938022928719686)"><path d="M 0.02764756406386132 0.07871764562063188 C 0.027528172953159156 0.0785523688004552 0.025824372852926554 0.07584547333351888 0.02621487073543538 0.07673432377851164 C 0.025824372852926554 0.07584547333351888 0.02269048270194875 0.06732786665590276 0.022961589473755414 0.06805144028071883" fill="none" stroke="#000000" stroke-width="0.001"/>
<path d="M 0.022961589473755414 0.06805144028071883 C 0.02305092558170404 0.06694155916274495 0.024659796574799733 0.052781603652395516 0.024033622769138903 0.05473286686503241 C 0.024659796574799733 0.052781603652395516 0.03101251283939761 0.04379489963441306 0.0304756751416854 0.04463628172907609" fill="none" stroke="none" stroke-width="0"/>
<path d="M 0.0304756751416854 0.04463628172907609 C 0.030906265975546264 0.04495230793514145 0.03606698359191972 0.04927422601169132 0.03564276514801578 0.0484285962018604 C 0.03606698359191972 0.04927422601169132 0.035559924078575736 0.0553134430508127 0.03556629646853266 0.054783839447047136" fill="none" stroke="#000000" stroke-width="0.001"/>
<path d="M 0.03556629646853266 0.054783839447047136 C 0.03509085217122556 0.055807379571562524 0.029201070533791538 0.06906080478903055 0.029860964900847484 0.06706632094123183 C 0.029201070533791538 0.06906080478903055 0.027463113994112477 0.07968858934391523 0.027647564063861325 0.0787176456206319" fill="none" stroke="#000000" stroke-width="0.001"/>
</g><g transform="translate(0.3052657128112797,0.4399945750414871) rotate(0) scale(1,1) translate(-0.03275111705765091,-0.014276200295218165)"><path d="M 0.027808978484296695 0.026806887455250256 C 0.027709444985150964 0.02662713824629341 0.026323240003322833 0.023807835518471147 0.02661457649454793 0.02464989694776814 C 0.026323240003322833 0.023807835518471147 0.024121137597516152 0.01603983808334619 0.02431294058959552 0.01670215030368634" fill="none" stroke="#000000" stroke-width="0.001"/>
<path d="M 0.02431294058959552 0.01670215030368634 C 0.02439664088386192 0.0155686337476728 0.025937882112770885 0.0011250529808473132 0.02531734412079228 0.0030999516315238784 C 0.025937882112770885 0.0011250529808473132 0.03229623419105099 -0.00783801559909547 0.03175939649333878 -0.006996633504432442" fill="none" stroke="none" stroke-width="0"/>
<path d="M 0.03175939649333878 -0.006996633504432442 C 0.03223633277111206 -0.006681566216922341 0.03788488146425796 -0.0022889377696206537 0.03748263182661818 -0.003215826054311227 C 0.03788488146425796 -0.0022889377696206537 0.03651170550488263 0.004737846909034909 0.03658639214501613 0.004126025911854438" fill="none" stroke="#000000" stroke-width="0.001"/>
<path d="M 0.03658639214501613 0.004126025911854438 C 0.03608717819586779 0.005021600466920769 0.02986437361684274 0.016762992367933396 0.030595824755236027 0.014872920572650411 C 0.02986437361684274 0.016762992367933396 0.02757674129505175 0.027801384695466908 0.027808978484296695 0.026806887455250256" fill="none" stroke="#000000" stroke-width="0.001"/>
</g><g transform="translate(0.3015247807709693,0.43098096371202543) rotate(0) scale(1,1) translate(-0.03275111705765091,-0.014276200295218165)"><path d="M 0.02805387262990596 0.025715761633148006 C 0.027960220153371917 0.025569533273751277 0.026625652155166886 0.023114396312300726 0.026930042911497424 0.023961021320387268 C 0.026625652155166886 0.023114396312300726 0.024190445274143036 0.014855864887419669 0.024401183553939526 0.015556261536109485" fill="none" stroke="#000000" stroke-width="0.001"/>
<path d="M 0.024401183553939526 0.015556261536109485 C 0.02447753026784392 0.014518235710727351 0.025930528532408886 0.0012205437114787179 0.02531734412079228 0.0030999516315238784 C 0.025930528532408886 0.0012205437114787179 0.03229623419105099 -0.00783801559909547 0.03175939649333878 -0.006996633504432442" fill="none" stroke="none" stroke-width="0"/>
<path d="M 0.03175939649333878 -0.006996633504432442 C 0.032234179077285534 -0.006808287464305763 0.03793081177960381 -0.003906422867492103 0.03745678750069984 -0.004736481022912284 C 0.03793081177960381 -0.003906422867492103 0.03744692953514363 0.003605776475903226 0.037447687840186414 0.002964064360609725" fill="none" stroke="#000000" stroke-width="0.001"/>
<path d="M 0.037447687840186414 0.002964064360609725 C 0.036872271220093816 0.0038919621398604922 0.0297598704648852 0.01599481248433046 0.030542688399075237 0.014098837711618933 C 0.0297598704648852 0.01599481248433046 0.027846471315808523 0.026683838626608763 0.02805387262990596 0.025715761633148006" fill="none" stroke="#000000" stroke-width="0.001"/>
</g><g transform="translate(0.29837388790039143,0.4200481536806983) rotate(0) scale(1,1) translate(-0.03275111705765091,-0.014276200295218165)"><path d="M 0.02755207642451731 0.026489071567436726 C 0.02745872167854648 0.026346157581063706 0.02614407546365598 0.023851610187714253 0.026431819472867393 0.024774103730960485 C 0.02614407546365598 0.023851610187714253 0.023904759050739785 0.014639569491608714 0.02409914831398037 0.015419149048481927" fill="none" stroke="#000000" stroke-width="0.001"/>
<path d="M 0.02409914831398037 0.015419149048481927 C 0.024224438760019118 0.014396499945732976 0.02624098768139187 0.0012793779360849977 0.025602633666445336 0.0031473598154945284 C 0.02624098768139187 0.0012793779360849977 0.03227246006224657 -0.007841966281093023 0.03175939649333878 -0.006996633504432442" fill="none" stroke="#000000" stroke-width="0.001"/>
<path d="M 0.03175939649333878 -0.006996633504432442 C 0.032189771130355475 -0.006772637417164013 0.037322307995612744 -0.003366630753655416 0.03692389213753912 -0.004308680457211292 C 0.037322307995612744 -0.003366630753655416 0.036508428011279244 0.005026016554525516 0.03654038679022231 0.004307962938238069" fill="none" stroke="#000000" stroke-width="0.001"/>
<path d="M 0.03654038679022231 0.004307962938238069 C 0.03600955284572686 0.0051601422277041875 0.029421353592468082 0.016382540130931374 0.030170379456276833 0.014534114411831486 C 0.029421353592468082 0.016382540130931374 0.027333884505204013 0.027485317997070494 0.02755207642451731 0.026489071567436726" fill="none" stroke="#000000" stroke-width="0.001"/>
</g></g>
</svg>
