<?xml version="1.0" encoding="UTF-8"?>
<svg xmlns="http://www.w3.org/2000/svg" viewBox="0 0 1 1">
<g transform="translate(0.33734345282867056,0.2712976456560574) rotate(0) scale(1,1) translate(-0.09500000000000003,-0.09500000000000001)"><path d="M 0.06155131941364715 0.12757455318632485 C 0.06161462856402948 0.12771923359547252 0.06253619645642802 0.1298547763575975 0.06231102921823507 0.12931071809609676 C 0.06253619645642802 0.1298547763575975 0.06441518435977313 0.13450263017668687 0.06425332627196251 0.1341032523243338" fill="none" stroke="none" stroke-width="0"/>
<path d="M 0.06425332627196251 0.1341032523243338 C 0.06459162140468239 0.1351230748378157 0.06891771476059416 0.14804956667759386 0.068312867864601 0.14634112248611653 C 0.06891771476059416 0.14804956667759386 0.07177804078715379 0.15529320430005727 0.07151148902388049 0.15460458262206184" fill="none" stroke="none" stroke-width="0"/>
<path d="M 0.07151148902388049 0.15460458262206184 C 0.07139826962512268 0.15390035783037564 0.06967988336378705 0.14422740033074677 0.07015285623878675 0.14615388512182753 C 0.06967988336378705 0.14422740033074677 0.06547606104764216 0.13026450512969806 0.06583581452388405 0.13148676512909263" fill="none" stroke="none" stroke-width="0"/>
<path d="M 0.06583581452388405 0.13148676512909263 C 0.06635103355399534 0.13243473568808276 0.07288618266632638 0.1443798859967485 0.07201844288521955 0.14286241183697423 C 0.07288618266632638 0.1443798859967485 0.0766012126481614 0.15026595864716805 0.07624869189716588 0.1496964550463839" fill="none" stroke="none" stroke-width="0"/>
<path d="M 0.07624869189716588 0.1496964550463839 C 0.07610366179714884 0.14901630168325733 0.07370279790060666 0.13957292326690446 0.07450833069696133 0.14153461468886497 C 0.07370279790060666 0.13957292326690446 0.06544266293582889 0.12373626869750139 0.06658229834090985 0.12615615798285795 C 0.06544266293582889 0.12373626869750139 0.06011353111827548 0.10956753988112783 0.060832705835989674 0.1124959432645862 C 0.06011353111827548 0.10956753988112783 0.057712159719368605 0.08922526522442184 0.05795220172833946 0.09101531738135756" fill="none" stroke="none" stroke-width="0"/>
<path d="M 0.05795220172833946 0.09101531738135756 C 0.058457239803138536 0.09314209644346284 0.06470210496586463 0.11699311590152973 0.06401265862592836 0.11653666612662109 C 0.06470210496586463 0.11699311590152973 0.06640996607271188 0.09482238539306471 0.06622555780757469 0.09649271468026135" fill="none" stroke="none" stroke-width="0"/>
<path d="M 0.06622555780757469 0.09649271468026135 C 0.06622978158651203 0.09832289018996751 0.06655378649955443 0.12085751413901355 0.06627624315482276 0.11845482079673521 C 0.06655378649955443 0.12085751413901355 0.07019512031172817 0.12497882732316805 0.06955607794435464 0.12532503478760146 C 0.07019512031172817 0.12497882732316805 0.07423632721760318 0.11209174036017222 0.073944751563305 0.11430033122353424 C 0.07423632721760318 0.11209174036017222 0.07298083864865164 0.09753207886090093 0.07305498579593267 0.09882194442725734" fill="none" stroke="none" stroke-width="0"/>
<path d="M 0.07305498579593267 0.09882194442725734 C 0.07327370798995086 0.10003196782269339 0.07554251639148873 0.11580625895824799 0.07567965212415102 0.11334222517248987 C 0.07554251639148873 0.11580625895824799 0.07105349907730475 0.12964436024667683 0.07140935700398524 0.12839034985635475" fill="none" stroke="none" stroke-width="0"/>
<path d="M 0.07140935700398524 0.12839034985635475 C 0.07152391555039139 0.12875698371789976 0.073097179595294 0.13338576455896617 0.07278405956085908 0.13278995619489495 C 0.073097179595294 0.13338576455896617 0.0753653589052331 0.13576922472773545 0.07516679741720433 0.13554005022520926" fill="none" stroke="none" stroke-width="0"/>
<path d="M 0.07516679741720433 0.13554005022520926 C 0.07553133018933121 0.13627030931827389 0.08032218531816558 0.14549104979939315 0.07954119068272693 0.1443031593419846 C 0.08032218531816558 0.14549104979939315 0.08495519490577995 0.15025236707845593 0.08453873304246817 0.14979473571411198" fill="none" stroke="none" stroke-width="0"/>
<path d="M 0.08453873304246817 0.14979473571411198 C 0.08401128726516079 0.14833629941421406 0.07779956209776705 0.12941506920260487 0.07820938371477952 0.1322935001153371 C 0.07779956209776705 0.12941506920260487 0.07973849779861344 0.11383357014849073 0.07962087363831853 0.11525356476132506" fill="none" stroke="none" stroke-width="0"/>
<path d="M 0.07962087363831853 0.11525356476132506 C 0.07960992854085434 0.11600457860725896 0.07957086605897436 0.1259235670908184 0.07948953246874833 0.12426573091253189 C 0.07957086605897436 0.1259235670908184 0.08131016871017266 0.13696316929578264 0.08059687672103083 0.13514759890076325 C 0.08131016871017266 0.13696316929578264 0.08899134122934149 0.1465668816458144 0.08804903633845027 0.14605257565276472 C 0.08899134122934149 0.1465668816458144 0.09222582700116523 0.14092482874774248 0.09190453541172562 0.14131927081735957" fill="none" stroke="none" stroke-width="0"/>
<path d="M 0.09190453541172562 0.14131927081735957 C 0.091307988654106 0.13986950852182412 0.08445240278727643 0.12017372284751315 0.08474597432029006 0.12392212327093421 C 0.08445240278727643 0.12017372284751315 0.08868465224016814 0.09403982760842126 0.08838167701556213 0.09633846573630687" fill="none" stroke="none" stroke-width="0"/>
<path d="M 0.08838167701556213 0.09633846573630687 C 0.0882394465095429 0.09862705806847787 0.0870523358737681 0.12720967232318103 0.08667491094333135 0.12380157372235874 C 0.0870523358737681 0.12720967232318103 0.09343043161725893 0.13835515521482578 0.09291077618080297 0.13723564894617446" fill="none" stroke="none" stroke-width="0"/>
<path d="M 0.09291077618080297 0.13723564894617446 C 0.0929168421788456 0.1366657011845953 0.09304478765683498 0.12917103680281752 0.09298356815731451 0.13039627580722465 C 0.09304478765683498 0.12917103680281752 0.09370056367652638 0.12187748965046093 0.09364541017504854 0.12253278089328891" fill="none" stroke="none" stroke-width="0"/>
<path d="M 0.09364541017504854 0.12253278089328891 C 0.09375829266046116 0.12263448383666845 0.0952257649708253 0.12375321621384328 0.09500000000000006 0.12375321621384328 C 0.0952257649708253 0.12375321621384328 0.09646747231036411 0.12243107794990937 0.09635458982495149 0.12253278089328891" fill="none" stroke="#000000" stroke-width="0.001"/>
<path d="M 0.09635458982495149 0.12253278089328891 C 0.09640974332642933 0.12318807213611689 0.09707765134220607 0.13162151481163178 0.0970164318426856 0.13039627580722465 C 0.09707765134220607 0.13162151481163178 0.09709528981723979 0.13780559670775358 0.09708922381919716 0.13723564894617443" fill="none" stroke="none" stroke-width="0"/>
<path d="M 0.09708922381919716 0.13723564894617443 C 0.09760887925565312 0.13611614267752312 0.10370251398710553 0.12039347512153645 0.10332508905666879 0.12380157372235874 C 0.10370251398710553 0.12039347512153645 0.10147609247841878 0.09404987340413586 0.10161832298443801 0.09633846573630685" fill="none" stroke="none" stroke-width="0"/>
<path d="M 0.10161832298443801 0.09633846573630685 C 0.10192129820904403 0.09863710386419246 0.10496045414669646 0.12767052369435522 0.10525402567971008 0.12392212327093416 C 0.10496045414669646 0.12767052369435522 0.09749891783065487 0.142769033112895 0.0980954645882745 0.14131927081735954" fill="none" stroke="none" stroke-width="0"/>
<path d="M 0.0980954645882745 0.14131927081735954 C 0.09841675617771412 0.14171371288697662 0.10289326855244109 0.14553826965971497 0.10195096366154986 0.14605257565276467 C 0.10289326855244109 0.14553826965971497 0.11011641526811111 0.1333320285057438 0.10940312327896928 0.1351475989007632 C 0.11011641526811111 0.1333320285057438 0.11059180112147782 0.12260789473424533 0.1105104675312518 0.12426573091253183 C 0.11059180112147782 0.12260789473424533 0.11036818126421741 0.11450255091539113 0.1103791263616816 0.11525356476132503" fill="none" stroke="none" stroke-width="0"/>
<path d="M 0.1103791263616816 0.11525356476132503 C 0.11049675052197651 0.11667355937415938 0.11138079466820813 0.13517193102806935 0.1117906162852206 0.1322935001153371 C 0.11138079466820813 0.13517193102806935 0.10493382118022455 0.1512531720140099 0.10546126695753194 0.14979473571411198" fill="none" stroke="none" stroke-width="0"/>
<path d="M 0.10546126695753194 0.14979473571411198 C 0.1058777288208437 0.14933710434976802 0.11123980395271182 0.14311526888457604 0.11045880931727317 0.1443031593419846 C 0.11123980395271182 0.14311526888457604 0.11519773535492264 0.1348097911321446 0.11483320258279577 0.13554005022520924" fill="none" stroke="none" stroke-width="0"/>
<path d="M 0.11483320258279577 0.13554005022520924 C 0.11503176407082454 0.13531087572268305 0.11752906047357592 0.1321941478308237 0.11721594043914099 0.13278995619489492 C 0.11752906047357592 0.1321941478308237 0.11870520154242098 0.12802371599480972 0.11859064299601482 0.12839034985635472" fill="none" stroke="none" stroke-width="0"/>
<path d="M 0.11859064299601482 0.12839034985635472 C 0.11823478506933434 0.12713633946603264 0.11418321214318673 0.11087819138673174 0.11432034787584902 0.11334222517248986 C 0.11418321214318673 0.11087819138673174 0.11716373639808556 0.09761192103182129 0.11694501420406736 0.09882194442725734" fill="none" stroke="none" stroke-width="0"/>
<path d="M 0.11694501420406736 0.09882194442725734 C 0.11687086705678633 0.10011180999361374 0.11634682409099316 0.11650892208689625 0.116055248436695 0.11430033122353424 C 0.11634682409099316 0.11650892208689625 0.12108296442301886 0.12567124225203488 0.12044392205564534 0.12532503478760146 C 0.12108296442301886 0.12567124225203488 0.12400130018990888 0.11605212745445687 0.12372375684517721 0.11845482079673521 C 0.12400130018990888 0.11605212745445687 0.12377866597136258 0.0946625391705552 0.12377444219242524 0.09649271468026135" fill="none" stroke="none" stroke-width="0"/>
<path d="M 0.12377444219242524 0.09649271468026135 C 0.12395885045756243 0.09816304396745801 0.12667678771400778 0.11608021635171246 0.12598734137407153 0.11653666612662111 C 0.12667678771400778 0.11608021635171246 0.1325528363464595 0.08888853831925225 0.13204779827166044 0.09101531738135756" fill="none" stroke="none" stroke-width="0"/>
<path d="M 0.13204779827166044 0.09101531738135756 C 0.1318077562626896 0.09280536953829327 0.12844811944629606 0.11542434664804455 0.12916729416401024 0.11249594326458619 C 0.12844811944629606 0.11542434664804455 0.12227806625400918 0.12857604726821448 0.12341770165909013 0.12615615798285792 C 0.12227806625400918 0.12857604726821448 0.11468613650668406 0.14349630611082542 0.11549166930303872 0.14153461468886494 C 0.11468613650668406 0.14349630611082542 0.11360627800281717 0.15037660840951045 0.11375130810283421 0.14969645504638388" fill="none" stroke="none" stroke-width="0"/>
<path d="M 0.11375130810283421 0.14969645504638388 C 0.11410382885382973 0.14912695144559973 0.11884929689588734 0.14134493767719997 0.11798155711478053 0.14286241183697423 C 0.11884929689588734 0.14134493767719997 0.12467940450622723 0.1305387945701025 0.12416418547611595 0.13148676512909263" fill="none" stroke="none" stroke-width="0"/>
<path d="M 0.12416418547611595 0.13148676512909263 C 0.12380443199987406 0.1327090251284872 0.11937417088621363 0.1480803699129083 0.11984714376121333 0.14615388512182753 C 0.11937417088621363 0.1480803699129083 0.11837529157736182 0.15530880741374803 0.11848851097611962 0.15460458262206184" fill="none" stroke="none" stroke-width="0"/>
<path d="M 0.11848851097611962 0.15460458262206184 C 0.11875506273939292 0.1539159609440664 0.12229197903139229 0.1446326782946392 0.12168713213539913 0.14634112248611653 C 0.12229197903139229 0.1446326782946392 0.12608496886075746 0.1330834298108519 0.12574667372803758 0.1341032523243338" fill="none" stroke="none" stroke-width="0"/>
<path d="M 0.12574667372803758 0.1341032523243338 C 0.12590853181584818 0.1337038744719807 0.12791413801995796 0.12876665983459604 0.127688970781765 0.1293107180960968 C 0.12791413801995796 0.12876665983459604 0.12851198973673564 0.12742987277717718 0.12844868058635328 0.12757455318632485" fill="none" stroke="none" stroke-width="0"/>
<path d="M 0.12844868058635328 0.12757455318632485 C 0.12792960592081995 0.12971933735362623 0.12151328527512324 0.15742346805726112 0.12221978459995322 0.1533119631939413 C 0.12151328527512324 0.15742346805726112 0.11978326402909688 0.17887933224218117 0.11997068868839351 0.17691261154616272" fill="none" stroke="#000000" stroke-width="0.001"/>
<path d="M 0.11997068868839351 0.17691261154616272 C 0.11969190219387252 0.1779530569081791 0.11558480539212512 0.19120006011987123 0.11662525075414151 0.18939795589035943 C 0.11558480539212512 0.19120006011987123 0.10568324011468501 0.19957830766232054 0.10748534434419679 0.19853786230030415 C 0.10568324011468501 0.19957830766232054 0.0929191092759673 0.20188330023455614 0.09500000000000008 0.20188330023455614 C 0.0929191092759673 0.20188330023455614 0.08071255142629159 0.19749741693828776 0.08251465565580338 0.19853786230030415 C 0.08071255142629159 0.19749741693828776 0.07233430388384227 0.18759585166084763 0.07337474924585866 0.18939795589035943 C 0.07233430388384227 0.18759585166084763 0.06975052481708566 0.17587216618414633 0.07002931131160665 0.17691261154616272" fill="none" stroke="#000000" stroke-width="0.001"/>
<path d="M 0.07002931131160665 0.17691261154616272 C 0.06984188665231 0.17494589085014428 0.06707371607521687 0.14920045833062148 0.06778021540004682 0.1533119631939413 C 0.06707371607521687 0.14920045833062148 0.061032244748113834 0.1254297690190235 0.06155131941364714 0.12757455318632488" fill="none" stroke="#000000" stroke-width="0.001"/>
</g><g transform="translate(0.33734345282867056,0.3532102572022201) rotate(0) scale(1,1) translate(-0.063689388810295,-0.0517563713480067)"><path d="M 0.08866007749868843 0.0517563713480067 C 0.08887161893674826 0.053935073002135216 0.09201900335394672 0.08181720711063936 0.09119857475540646 0.07790079119754886 C 0.09201900335394672 0.08181720711063936 0.09911410784165192 0.10049107656405458 0.0985052206811715 0.0987533623050926" fill="none" stroke="#000000" stroke-width="0.001"/>
<path d="M 0.0985052206811715 0.0987533623050926 C 0.09850921903715114 0.09913788299720949 0.09837181464691593 0.1040688660187767 0.09855320095292723 0.10336761061049532 C 0.09837181464691593 0.1040688660187767 0.09581213607232425 0.10762625955472943 0.09632858500903588 0.10716842720446916 C 0.09581213607232425 0.10762625955472943 0.09168604853188965 0.10894254710281846 0.09235581371238763 0.1088615988136185 C 0.09168604853188965 0.10894254710281846 0.08773829807727686 0.10786525346996698 0.08829140284306018 0.10813980667486882 C 0.08773829807727686 0.10786525346996698 0.08542567540355013 0.10505967537535273 0.08571855652298781 0.10556696035479644 C 0.08542567540355013 0.10505967537535273 0.08469835215037635 0.10175950580210659 0.084776829409808 0.10205238692154427" fill="none" stroke="none" stroke-width="0"/>
<path d="M 0.084776829409808 0.10205238692154427 C 0.08469835215037635 0.10234526804098194 0.08354222117719053 0.10607424533424015 0.0838351022966282 0.10556696035479643 C 0.08354222117719053 0.10607424533424015 0.08075497099711212 0.10843268779430648 0.08126225597655584 0.1081398066748688 C 0.08075497099711212 0.10843268779430648 0.07716192030442831 0.1090815337880486 0.07774768254330368 0.1090815337880486 C 0.07716192030442831 0.1090815337880486 0.07372582413060778 0.10784692555543114 0.0742331091100515 0.10813980667486882 C 0.07372582413060778 0.10784692555543114 0.07136738167054145 0.10505967537535273 0.07166026278997913 0.10556696035479644 C 0.07136738167054145 0.10505967537535273 0.07064005841736767 0.10175950580210659 0.07071853567679932 0.10205238692154427" fill="none" stroke="none" stroke-width="0"/>
<path d="M 0.07071853567679932 0.10205238692154427 C 0.07064005841736767 0.10234526804098194 0.06948392744418184 0.10607424533424015 0.06977680856361952 0.10556696035479643 C 0.06948392744418184 0.10607424533424015 0.06669667726410344 0.10843268779430648 0.06720396224354716 0.1081398066748688 C 0.06669667726410344 0.10843268779430648 0.06310362657141963 0.1090815337880486 0.063689388810295 0.1090815337880486 C 0.06310362657141963 0.1090815337880486 0.05966753039759912 0.10784692555543114 0.06017481537704283 0.10813980667486882 C 0.05966753039759912 0.10784692555543114 0.05730908793753276 0.10505967537535274 0.057601969056970445 0.10556696035479646 C 0.05730908793753276 0.10505967537535274 0.05658176468435899 0.10175950580210659 0.05666024194379064 0.10205238692154427" fill="none" stroke="none" stroke-width="0"/>
<path d="M 0.05666024194379064 0.10205238692154427 C 0.05658176468435899 0.10234526804098194 0.055425633711173164 0.10607424533424015 0.05571851483061085 0.10556696035479643 C 0.055425633711173164 0.10607424533424015 0.05263838353109477 0.10843268779430648 0.05314566851053848 0.1081398066748688 C 0.05263838353109477 0.10843268779430648 0.04904533283841095 0.1090815337880486 0.04963109507728631 0.1090815337880486 C 0.04904533283841095 0.1090815337880486 0.04560923666459043 0.10784692555543114 0.04611652164403414 0.10813980667486882 C 0.04560923666459043 0.10784692555543114 0.04325079420452408 0.10505967537535273 0.043543675323961764 0.10556696035479644 C 0.04325079420452408 0.10505967537535273 0.04252347095135031 0.10175950580210659 0.04260194821078196 0.10205238692154427" fill="none" stroke="none" stroke-width="0"/>
<path d="M 0.04260194821078196 0.10205238692154427 C 0.04252347095135031 0.10234526804098194 0.04136733997816448 0.10607424533424015 0.04166022109760217 0.10556696035479643 C 0.04136733997816448 0.10607424533424015 0.03853427001174648 0.10841435987977065 0.0390873747775298 0.1081398066748688 C 0.03853427001174648 0.10841435987977065 0.034353198727704384 0.10878065052441853 0.03502296390820236 0.1088615988136185 C 0.034353198727704384 0.10878065052441853 0.030533743674842472 0.10671059485420892 0.031050192611554107 0.10716842720446917 C 0.030533743674842472 0.10671059485420892 0.028644190361651427 0.10266635520221395 0.028825576667662733 0.10336761061049533 C 0.028644190361651427 0.10266635520221395 0.02887755529539809 0.09836884161297571 0.028873556939418447 0.0987533623050926" fill="none" stroke="none" stroke-width="0"/>
<path d="M 0.028873556939418447 0.0987533623050926 C 0.029482444099898867 0.09701564804613062 0.03700063146372374 0.07398437528445834 0.03618020286518348 0.07790079119754884 C 0.03700063146372374 0.07398437528445834 0.03893024155996141 0.04957766969387819 0.03871870012190157 0.0517563713480067" fill="none" stroke="#000000" stroke-width="0.001"/>
</g><g transform="translate(0.3185034773805904,0.3283793765022277) rotate(0) scale(1,1) translate(-0.09335995585778097,-0.10433594919317074)"><path d="M 0.06539574065074695 0.06877149894702363 C 0.06643479973687283 0.06957901687363909 0.07987116547092013 0.08053986690646799 0.07786444968425749 0.07846171406640917 C 0.07987116547092013 0.08053986690646799 0.09044398679123546 0.09497996794117276 0.08947633009069869 0.09370933302772941" fill="none" stroke="#000000" stroke-width="0.001"/>
<path d="M 0.08947633009069869 0.09370933302772941 C 0.09054103618751011 0.09460857844638271 0.10348376666914746 0.10582188917102814 0.10225280325243566 0.10450027805156899 C 0.10348376666914746 0.10582188917102814 0.10441414841114084 0.10999103216204514 0.10424789109124044 0.10956866646123929" fill="none" stroke="#000000" stroke-width="0.001"/>
<path d="M 0.10424789109124044 0.10956866646123929 C 0.10430947193053895 0.10902770200528089 0.10544223013918186 0.10163172387261098 0.10498686116282258 0.10307709298973844 C 0.10544223013918186 0.10163172387261098 0.11010610694461263 0.09131983239454063 0.10971231880755186 0.09222423705570969" fill="none" stroke="#000000" stroke-width="0.001"/>
<path d="M 0.10971231880755186 0.09222423705570969 C 0.10965816257304924 0.09309589813047461 0.10904201293172064 0.10418440379453349 0.10906244399352039 0.10268416995288879 C 0.10904201293172064 0.10418440379453349 0.10969136781491515 0.11184251505091822 0.10946714606595487 0.11022704315544615 C 0.10969136781491515 0.11184251505091822 0.11194360155730113 0.12305673182714583 0.11175310498104372 0.12206983269855354" fill="none" stroke="#000000" stroke-width="0.001"/>
<path d="M 0.08696467403057045 0.11887287895506483 C 0.0867344658145775 0.11762213223583981 0.08313434058719732 0.10076972649970664 0.08420217543865502 0.10386391832436453 C 0.08313434058719732 0.10076972649970664 0.07258345291408572 0.07881820877772501 0.07415065581307806 0.08174257705917008 C 0.07258345291408572 0.07881820877772501 0.06466616438721935 0.06769057577101142 0.06539574065074695 0.06877149894702363" fill="none" stroke="#000000" stroke-width="0.001"/>
</g><g transform="translate(0.3561834282767508,0.3283793765022277) rotate(0) scale(1,1) translate(-0.09335995585778097,-0.10433594919317074)"><path d="M 0.12132417106481508 0.06877149894702363 C 0.1205945948012875 0.06985242212303583 0.11100205300349167 0.08466694534061515 0.11256925590248401 0.08174257705917008 C 0.11100205300349167 0.08466694534061515 0.10144990142544925 0.10695811014902243 0.10251773627690697 0.10386391832436453 C 0.10144990142544925 0.10695811014902243 0.09952502946899855 0.12012362567428986 0.0997552376849915 0.11887287895506483" fill="none" stroke="#000000" stroke-width="0.001"/>
<path d="M 0.07496680673451828 0.12206983269855354 C 0.07515730331077568 0.12108293356996125 0.07747698739856743 0.10861157125997409 0.07725276564960715 0.11022704315544615 C 0.07747698739856743 0.10861157125997409 0.07763703666024188 0.10118393611124409 0.07765746772204163 0.10268416995288879 C 0.07763703666024188 0.10118393611124409 0.07695343667350757 0.09135257598094476 0.0770075929080102 0.09222423705570969" fill="none" stroke="#000000" stroke-width="0.001"/>
<path d="M 0.0770075929080102 0.09222423705570969 C 0.07740138104507097 0.09312864171687875 0.08218841952909867 0.1045224621068659 0.08173305055273938 0.10307709298973844 C 0.08218841952909867 0.1045224621068659 0.08253360146362008 0.11010963091719769 0.08247202062432157 0.10956866646123929" fill="none" stroke="#000000" stroke-width="0.001"/>
<path d="M 0.08247202062432157 0.10956866646123929 C 0.08263827794422197 0.10914630076043344 0.08569807187983815 0.10317866693210984 0.08446710846312633 0.10450027805156899 C 0.08569807187983815 0.10317866693210984 0.09830828772167477 0.09281008760907611 0.09724358162486335 0.09370933302772941" fill="none" stroke="#000000" stroke-width="0.001"/>
<path d="M 0.09724358162486335 0.09370933302772941 C 0.09821123832540012 0.09243869811428605 0.11086217781796712 0.07638356122635036 0.10885546203130447 0.07846171406640917 C 0.11086217781796712 0.07638356122635036 0.12236323015094096 0.06796398102040817 0.12132417106481508 0.06877149894702363" fill="none" stroke="#000000" stroke-width="0.001"/>
</g><g transform="translate(0.3373434528286706,0.34534337441814633) rotate(0) scale(1,1) translate(-0.028648443256637898,-0.0286484432566379)"><path d="M -0.0009870532294517695 0.01253776346630333 C -0.0014485392394388427 0.01225677719095675 -0.0069397053363532656 0.008393871022685987 -0.006524885349296648 0.009165928162144385 C -0.0069397053363532656 0.008393871022685987 -0.00554000985650563 0.002543907287836888 -0.005964893074131173 0.003273077792802552 C -0.00554000985650563 0.002543907287836888 -0.001048069543095043 0.00017778246170257282 -0.00142628673779013 0.00041588210255641737" fill="none" stroke="#000000" stroke-width="0.001"/>
<path d="M -0.00142628673779013 0.00041588210255641737 C 0.0010799407617455392 0.0017216939782447721 0.03366089825570924 0.016085624610816675 0.028648443256637898 0.016085624610816675 C 0.03366089825570924 0.016085624610816675 0.061229400750601605 -0.0008899297731319374 0.058723173251065935 0.00041588210255641737" fill="none" stroke="#000000" stroke-width="0.001"/>
<path d="M 0.058723173251065935 0.00041588210255641737 C 0.05910139044576102 0.0006539817434102628 0.06368666280503252 0.004002248297768228 0.06326177958740697 0.0032730777928025624 C 0.06368666280503252 0.004002248297768228 0.06340695187551584 0.009937985301602812 0.06382177186257246 0.009165928162144411 C 0.06340695187551584 0.009937985301602812 0.05782245373274049 0.012818749741649944 0.05828393974272757 0.012537763466303364" fill="none" stroke="#000000" stroke-width="0.001"/>
<path d="M 0.05828393974272757 0.012537763466303364 C 0.05648239493878967 0.013390151814376344 0.035882524927317284 0.024384003431142557 0.036665402095472796 0.02276642364317911 C 0.035882524927317284 0.024384003431142557 0.04990808136064382 0.032713912361755165 0.048889413724861434 0.0319487209218647" fill="none" stroke="#000000" stroke-width="0.001"/>
<path d="M 0.048889413724861434 0.0319487209218647 C 0.049401074513489296 0.03219109920272531 0.05567871355467109 0.035580867270066624 0.055029343188395766 0.03485726029219197 C 0.05567871355467109 0.035580867270066624 0.05640501073499568 0.04151528910401919 0.05668185812016538 0.04063200465636047 C 0.05640501073499568 0.04151528910401919 0.05129261760354219 0.04585872941474133 0.05170717456635936 0.04545667366409665" fill="none" stroke="#000000" stroke-width="0.001"/>
<path d="M 0.05170717456635936 0.04545667366409665 C 0.04978561362388257 0.044199797227892364 0.02480532137168431 0.03037415642964523 0.028648443256637898 0.03037415642964523 C 0.02480532137168431 0.03037415642964523 0.0036681510044395066 0.04671355010030095 0.005589711946916306 0.04545667366409666" fill="none" stroke="#000000" stroke-width="0.001"/>
<path d="M 0.005589711946916306 0.04545667366409666 C 0.005175154984099147 0.04505461791345198 0.0003381810079407164 0.03974872020870171 0.0006150283931104041 0.04063200465636044 C 0.0003381810079407164 0.03974872020870171 0.0029169136911553857 0.0341336533143173 0.002267543324880053 0.034857260292191945 C 0.0029169136911553857 0.0341336533143173 0.00891913357704226 0.031706342641004116 0.008407472788414399 0.031948720921864716" fill="none" stroke="#000000" stroke-width="0.001"/>
<path d="M 0.008407472788414399 0.031948720921864716 C 0.009426140424196783 0.03118352948197425 0.019848607249647487 0.02114884385521567 0.020631484417803003 0.02276642364317912 C 0.019848607249647487 0.02114884385521567 -0.002788598033389667 0.011685375118230347 -0.0009870532294517695 0.01253776346630333" fill="none" stroke="#000000" stroke-width="0.001"/>
</g><g transform="translate(0.3373434528286706,0.35313403336277965) rotate(0) scale(1,1) translate(-0.028648443256637898,-0.0286484432566379)"><path d="M 0.002569206348878989 0.01863714786092407 C 0.0021630986600903648 0.01833325169240769 -0.0027461047462448663 0.01421833669926908 -0.0023040859165845036 0.01499039383872748 C -0.0027461047462448663 0.01421833669926908 -0.0024028062016764025 0.008666201575627426 -0.002735019607045363 0.009372462187423285 C -0.0024028062016764025 0.008666201575627426 0.0020505994940837238 0.00627716685632332 0.0016824749478430248 0.006515266497177164" fill="none" stroke="#000000" stroke-width="0.001"/>
<path d="M 0.0016824749478430248 0.006515266497177164 C 0.003929638973575931 0.008126916855472455 0.03314277130810372 0.02585507079672065 0.028648443256637898 0.02585507079672065 C 0.03314277130810372 0.02585507079672065 0.05786157559116577 0.004903616138881873 0.055614411565432856 0.006515266497177164" fill="none" stroke="#000000" stroke-width="0.001"/>
<path d="M 0.055614411565432856 0.006515266497177164 C 0.055982536111673545 0.006753366138031008 0.060364119525690124 0.010078722799219156 0.060031906120321166 0.009372462187423295 C 0.060364119525690124 0.010078722799219156 0.05915895360019995 0.0157624509781859 0.059600972429860316 0.0149903938387275 C 0.05915895360019995 0.0157624509781859 0.054321572475608176 0.01894104402944049 0.0547276801643968 0.018637147860924106" fill="none" stroke="#000000" stroke-width="0.001"/>
<path d="M 0.0547276801643968 0.018637147860924106 C 0.05314232073693145 0.019832030520675708 0.03529005152581293 0.034919733548200875 0.03570336703481261 0.03297573977794331 C 0.03529005152581293 0.034919733548200875 0.05093993797486634 0.04271418421452082 0.04976789405640067 0.04196507310401486" fill="none" stroke="#000000" stroke-width="0.001"/>
<path d="M 0.04976789405640067 0.04196507310401486 C 0.0497629823910112 0.04230576750407837 0.04943776442171506 0.04658930526391222 0.049708954071727054 0.046053405904776995 C 0.04943776442171506 0.04658930526391222 0.045953356337409046 0.04850457101741967 0.0465136182562567 0.04839586541363762 C 0.045953356337409046 0.04850457101741967 0.04269182711133006 0.04727137379487199 0.04298581104555518 0.047357873150161656" fill="none" stroke="#000000" stroke-width="0.001"/>
<path d="M 0.04298581104555518 0.047357873150161656 C 0.041791030396478746 0.04685932026034467 0.026258881958485008 0.041375238472357835 0.028648443256637898 0.041375238472357835 C 0.026258881958485008 0.041375238472357835 0.01311629481864406 0.04785642603997865 0.014311075467720508 0.04735787315016167" fill="none" stroke="#000000" stroke-width="0.001"/>
<path d="M 0.014311075467720508 0.04735787315016167 C 0.014017091533495389 0.04744437250545133 0.010223006338171442 0.04828715980985552 0.010783268257019089 0.04839586541363758 C 0.010223006338171442 0.04828715980985552 0.007316742791536772 0.04551750654564174 0.007587932441548756 0.04605340590477697 C 0.007316742791536772 0.04551750654564174 0.007524080791485826 0.041624378703951366 0.007528992456875282 0.04196507310401487" fill="none" stroke="#000000" stroke-width="0.001"/>
<path d="M 0.007528992456875282 0.04196507310401487 C 0.008701036375340941 0.04121596199350891 0.021180203969463497 0.03103174600768575 0.021593519478463188 0.03297573977794332 C 0.021180203969463497 0.03103174600768575 0.0009838469214136392 0.017442265201172466 0.002569206348878989 0.01863714786092407" fill="none" stroke="#000000" stroke-width="0.001"/>
</g><g transform="translate(0.3373434528286705,0.37935467705176223) rotate(0) scale(1,1) translate(-0.028648443256637898,-0.0286484432566379)"><path d="M 0.00265239370743643 0.014625904770842699 C 0.0022475814179740853 0.014344918495496121 -0.0025692309477403203 0.01048201232722536 -0.002205353766111709 0.011254069466683758 C -0.0025692309477403203 0.01048201232722536 -0.0012238734442438924 0.004632048592376259 -0.0017141324721069067 0.005361219097341923 C -0.0012238734442438924 0.004632048592376259 0.004127078488273744 0.0022659237662419375 0.0036777545682444624 0.0025040234070957826" fill="none" stroke="#000000" stroke-width="0.001"/>
<path d="M 0.0036777545682444624 0.0025040234070957826 C 0.005758645292277249 0.0038098352827841365 0.03281022470470347 0.018173765915356032 0.028648443256637898 0.018173765915356032 C 0.03281022470470347 0.018173765915356032 0.05570002266906412 0.0011982115314074285 0.05361913194503133 0.0025040234070957826" fill="none" stroke="#000000" stroke-width="0.001"/>
<path d="M 0.05361913194503133 0.0025040234070957826 C 0.054068455865060615 0.0027421230479496286 0.05950127801324572 0.0060903896023076 0.059011018985382704 0.0053612190973419335 C 0.05950127801324572 0.0060903896023076 0.05913836309775889 0.012026126606142183 0.059502240279387504 0.011254069466683784 C 0.05913836309775889 0.012026126606142183 0.05423968051637701 0.014906891046189313 0.054644492805839356 0.014625904770842734" fill="none" stroke="#000000" stroke-width="0.001"/>
<path d="M 0.054644492805839356 0.014625904770842734 C 0.05303488859610277 0.01547829311891571 0.0356289100005707 0.02647214473568189 0.035329242289000314 0.024854564947718445 C 0.0356289100005707 0.02647214473568189 0.06014977726599099 0.03480205366629453 0.058240505344684015 0.03403686222640406" fill="none" stroke="#000000" stroke-width="0.001"/>
<path d="M 0.058240505344684015 0.03403686222640406 C 0.05875046985831079 0.03427924050726467 0.06505646049579715 0.03766900857460603 0.06436007950820531 0.03694540159673138 C 0.06505646049579715 0.03766900857460603 0.0664599363202097 0.04360343040855863 0.066597077195786 0.0427201459608999 C 0.0664599363202097 0.04360343040855863 0.06239083165174841 0.04794687071928076 0.06271438900128977 0.04754481496863608" fill="none" stroke="#000000" stroke-width="0.001"/>
<path d="M 0.06271438900128977 0.04754481496863608 C 0.05987556018923545 0.04628793853243179 0.022970785632529227 0.03246229773418459 0.028648443256637898 0.03246229773418459 C 0.022970785632529227 0.03246229773418459 -0.008256331300068632 0.048801691404840385 -0.005417502488014283 0.04754481496863609" fill="none" stroke="#000000" stroke-width="0.001"/>
<path d="M -0.005417502488014283 0.04754481496863609 C -0.00574105983755561 0.04714275921799141 -0.009437331558086473 0.04183686151324114 -0.009300190682510208 0.04272014596089987 C -0.009437331558086473 0.04183686151324114 -0.006366812007337627 0.036221794618856704 -0.0070631929949294655 0.036945401596731355 C -0.006366812007337627 0.036221794618856704 -0.0004336543177813721 0.03379448394554347 -0.0009436188314081485 0.03403686222640408" fill="none" stroke="#000000" stroke-width="0.001"/>
<path d="M -0.0009436188314081485 0.03403686222640408 C 0.0009656530898988205 0.03327167078651361 0.022267311935845864 0.023236985159755003 0.02196764422427548 0.02485456494771845 C 0.022267311935845864 0.023236985159755003 0.0010427894976998426 0.01377351642276972 0.00265239370743643 0.014625904770842699" fill="none" stroke="#000000" stroke-width="0.001"/>
</g><g transform="translate(0.3373434528286705,0.37935467705176223) rotate(0) scale(1,1) translate(-0.028648443256637898,-0.0286484432566379)"><path d="M 0.0016125517254683697 0.026996509336122618 C 0.0012443313382907578 0.02667593476537862 -0.003144936894159308 0.022377557347736242 -0.002806092920662972 0.02314961448719464 C -0.003144936894159308 0.022377557347736242 -0.001986864861881423 0.017070256505142198 -0.0024535759564876585 0.01773182366262184 C -0.001986864861881423 0.017070256505142198 0.003231774895536812 0.01500072400867371 0.0027944402146118526 0.01521080859743895" fill="none" stroke="#000000" stroke-width="0.001"/>
<path d="M 0.0027944402146118526 0.01521080859743895 C 0.004948940468114023 0.016884488375012902 0.03295744376364224 0.03529496592832637 0.028648443256637898 0.03529496592832637 C 0.03295744376364224 0.03529496592832637 0.05665694655216615 0.013537128819864998 0.05450244629866398 0.01521080859743895" fill="none" stroke="#000000" stroke-width="0.001"/>
<path d="M 0.05450244629866398 0.01521080859743895 C 0.05493978097958894 0.015420893186204192 0.060217173564369696 0.018393390820101496 0.05975046246976346 0.017731823662621854 C 0.060217173564369696 0.018393390820101496 0.05976413546044242 0.023921671626653065 0.06010297943393876 0.023149614487194665 C 0.05976413546044242 0.023921671626653065 0.05531611440062981 0.02731708390686665 0.05568433478780742 0.026996509336122652" fill="none" stroke="#000000" stroke-width="0.001"/>
<path d="M 0.05568433478780742 0.026996509336122652 C 0.054010346409681366 0.028244780638169834 0.03590812867032802 0.04359334474865225 0.035596474250294816 0.041975764960688805 C 0.03590812867032802 0.04359334474865225 0.06140983062636511 0.04677677527760027 0.059424187828205854 0.046407466791684004" fill="none" stroke="#000000" stroke-width="0.001"/>
<path d="M 0.059424187828205854 0.046407466791684004 C 0.0599545509223777 0.04664984507254461 0.06651278118536352 0.050039613139885974 0.06578854495826801 0.049316006162011324 C 0.06651278118536352 0.050039613139885974 0.06797240572502741 0.05597403497383857 0.06811502255335193 0.055090750526179844 C 0.06797240572502741 0.05597403497383857 0.06374065305712552 0.060317475284560704 0.06407714301837371 0.05991541953391602" fill="none" stroke="#000000" stroke-width="0.001"/>
<path d="M 0.06407714301837371 0.05991541953391602 C 0.06112475137156239 0.05905442605168593 0.02274365996301526 0.04958349774715495 0.028648443256637898 0.04958349774715495 C 0.02274365996301526 0.04958349774715495 -0.00973264815190925 0.06077641301614613 -0.006780256505097932 0.059915419533916034" fill="none" stroke="#000000" stroke-width="0.001"/>
<path d="M -0.006780256505097932 0.059915419533916034 C -0.0071167464663461156 0.05951336378327135 -0.010960752868400654 0.05420746607852108 -0.010818136040076134 0.05509075052617981 C -0.010960752868400654 0.05420746607852108 -0.00776742221789665 0.048592399184136645 -0.008491658444992162 0.049316006162011296 C -0.00776742221789665 0.048592399184136645 -0.001596938220758145 0.04616508851082341 -0.0021273013149299925 0.04640746679168402" fill="none" stroke="#000000" stroke-width="0.001"/>
<path d="M -0.0021273013149299925 0.04640746679168402 C -0.0001416585167707445 0.046038158305767754 0.02201206668301418 0.04035818517272536 0.021700412262980983 0.04197576496068881 C 0.02201206668301418 0.04035818517272536 -6.143665265768137E-05 0.025748238034075437 0.0016125517254683697 0.026996509336122618" fill="none" stroke="#000000" stroke-width="0.001"/>
</g><g id="虫食">
<g id="左">
<g transform="translate(0.30748833958841176,0.32317175394593833) rotate(0) scale(1,1) translate(-0.03995859830486188,-0.03995859830486188)"><path d="M 0.038490556941749944 0.03887595185184681 C 0.03857351016682919 0.03887293446278536 0.03963101521863118 0.03890045951923783 0.03948599564270085 0.038839743183109454 C 0.03963101521863118 0.03890045951923783 0.04029285820376506 0.03966828161057717 0.04023079185291397 0.03960454788538735" fill="none" stroke="#000000" stroke-width="0.001"/>
<path d="M 0.04023079185291397 0.03960454788538735 C 0.040236410474835754 0.039663837955831414 0.040215272522012825 0.04039072393922426 0.040298215315975355 0.04031602873071613 C 0.040215272522012825 0.04039072393922426 0.03914691690947926 0.04051629552554889 0.039235478325363574 0.040500890387484834" fill="none" stroke="#000000" stroke-width="0.001"/>
<path d="M 0.039235478325363574 0.040500890387484834 C 0.0391869299449923 0.04054749697295484 0.03851521579537618 0.041101769248034235 0.038652897760908314 0.0410601694131249 C 0.03851521579537618 0.041101769248034235 0.03749416115381708 0.04099508165583614 0.037583294738977945 0.04100008840639681" fill="none" stroke="#000000" stroke-width="0.001"/>
<path d="M 0.037583294738977945 0.04100008840639681 C 0.037508261724690156 0.04094308343342342 0.036627012576755054 0.04018309375333494 0.036682898567524526 0.04031602873071613 C 0.036627012576755054 0.04018309375333494 0.03693180987326258 0.03932893867341476 0.036912662849744274 0.03940486867782256" fill="none" stroke="#000000" stroke-width="0.001"/>
<path d="M 0.036912662849744274 0.03940486867782256 C 0.036951054497801436 0.039335588307978155 0.03750485380076407 0.03852942783752509 0.03737336262643026 0.038573504239689735 C 0.03750485380076407 0.03852942783752509 0.038583656468026584 0.038901155819526564 0.038490556941749944 0.03887595185184681" fill="none" stroke="#000000" stroke-width="0.001"/>
</g><g transform="translate(0.3083831504698036,0.32508566245169945) rotate(0) scale(1,1) translate(-0.03995859830486188,-0.03995859830486188)"><path d="M 0.040060216333029766 0.040711263111095776 C 0.04012390983455483 0.04071736703431633 0.04091413308841668 0.04081242900117405 0.04082453835133047 0.040784510189742475 C 0.04091413308841668 0.04081242900117405 0.04116125441362548 0.0410681037364857 0.04113535317806433 0.04104628884827468" fill="none" stroke="#000000" stroke-width="0.001"/>
<path d="M 0.04113535317806433 0.04104628884827468 C 0.041134387630492104 0.04107669446882552 0.04109197640592983 0.041474019453581 0.04112376660719767 0.04141115629488475 C 0.04109197640592983 0.041474019453581 0.04072304610915455 0.041833104290775074 0.040753870762850176 0.041800646752629664" fill="none" stroke="#000000" stroke-width="0.001"/>
<path d="M 0.040753870762850176 0.041800646752629664 C 0.040693876091611826 0.04181823419394712 0.039909922622610706 0.04203423404898651 0.04003393470798996 0.04201169604843909 C 0.039909922622610706 0.04203423404898651 0.039201708324158285 0.04207605331842877 0.03926572573829918 0.04207110275919879" fill="none" stroke="#000000" stroke-width="0.001"/>
<path d="M 0.03926572573829918 0.04207110275919879 C 0.03925667168521015 0.04203922649390073 0.039127945224149 0.04162408556262662 0.039157077101230876 0.04168858757562205 C 0.039127945224149 0.04162408556262662 0.03889606538932383 0.04126445285555623 0.03891614321331668 0.0412970786032536" fill="none" stroke="#000000" stroke-width="0.001"/>
<path d="M 0.03891614321331668 0.0412970786032536 C 0.038949774557239726 0.04125773738830073 0.03941505876703602 0.0407761660661393 0.039319719340393265 0.040824984023819115 C 0.03941505876703602 0.0407761660661393 0.04012192441574947 0.04070178636836883 0.040060216333029766 0.040711263111095776" fill="none" stroke="#000000" stroke-width="0.001"/>
</g><g transform="translate(0.31082085022039374,0.3370617972851924) rotate(0) scale(1,1) translate(-0.03995859830486188,-0.03995859830486188)"><path d="M 0.03808545016309152 0.036408975851769144 C 0.03813771348069664 0.036479614240645594 0.0388392156057988 0.03734497377114165 0.03871260997435294 0.037256636518286555 C 0.0388392156057988 0.03734497377114165 0.0396790600542826 0.03748672175000887 0.03960471774044186 0.037469022886030226" fill="none" stroke="#000000" stroke-width="0.001"/>
<path d="M 0.03960471774044186 0.037469022886030226 C 0.03961033636236364 0.03752831295647429 0.03964137125224672 0.03828588884734126 0.03967214120350324 0.038180503731359006 C 0.03964137125224672 0.03828588884734126 0.039199089752185265 0.03877973932335538 0.039235478325363574 0.0387336442778172" fill="none" stroke="#000000" stroke-width="0.001"/>
<path d="M 0.039235478325363574 0.0387336442778172 C 0.03917158499125524 0.03878331985403462 0.03833107635053144 0.03937135102733554 0.03846875831606358 0.03932975119242621 C 0.03833107635053144 0.03937135102733554 0.037509506107554144 0.039224766555421085 0.037583294738977945 0.03923284229672917" fill="none" stroke="#000000" stroke-width="0.001"/>
<path d="M 0.037583294738977945 0.03923284229672917 C 0.03755736557664876 0.03918504429599802 0.037216258800258216 0.03852633131057415 0.03727214479102769 0.03865926628795534 C 0.037216258800258216 0.03852633131057415 0.03688270602130399 0.03755248559150488 0.036912662849744274 0.03763762256815492" fill="none" stroke="#000000" stroke-width="0.001"/>
<path d="M 0.036912662849744274 0.03763762256815492 C 0.036951054497801436 0.03756834219831052 0.03747109490254253 0.036703870903656614 0.03737336262643026 0.0368062581300221 C 0.03747109490254253 0.036703870903656614 0.038144790791146625 0.03637586899524806 0.03808545016309152 0.036408975851769144" fill="none" stroke="#000000" stroke-width="0.001"/>
</g><g transform="translate(0.3081723095888837,0.33883515509705) rotate(0) scale(1,1) translate(-0.03995859830486188,-0.03995859830486188)"><path d="M 0.039923871223803864 0.0387598775565834 C 0.03996528098605881 0.03878132643354102 0.04048188307214462 0.03906052784524348 0.0404207883708632 0.03901726408007484 C 0.04048188307214462 0.03906052784524348 0.04067669257820741 0.039300857626818064 0.04065700763918093 0.039279042738607044" fill="none" stroke="#000000" stroke-width="0.001"/>
<path d="M 0.04065700763918093 0.039279042738607044 C 0.040672600853802275 0.03930944835915788 0.040836292692449754 0.039706773343913364 0.04084412621463708 0.03964391018521712 C 0.040836292692449754 0.039706773343913364 0.040539578636124306 0.04006585818110744 0.04056300537293298 0.04003340064296203" fill="none" stroke="#000000" stroke-width="0.001"/>
<path d="M 0.04056300537293298 0.04003340064296203 C 0.040517409422791834 0.040081677991753606 0.03994026425009525 0.04062605985676612 0.04001585397123922 0.04061272882846093 C 0.03994026425009525 0.04062605985676612 0.03962593494820261 0.04015842666213794 0.039655928719205424 0.04019337298262432" fill="none" stroke="#000000" stroke-width="0.001"/>
<path d="M 0.039655928719205424 0.04019337298262432 C 0.039630388175113496 0.040170703689568495 0.03930864249977582 0.03986604642520122 0.039349442190102314 0.03992134146595441 C 0.03930864249977582 0.03986604642520122 0.039151073289052964 0.039497206745888594 0.039166332435287526 0.039529832493585965" fill="none" stroke="#000000" stroke-width="0.001"/>
<path d="M 0.039166332435287526 0.039529832493585965 C 0.039191892256669046 0.03949049127863309 0.03953617852424209 0.0389935750027346 0.03947305029186573 0.03905773791415148 C 0.03953617852424209 0.0389935750027346 0.03996143963479871 0.0387350558601194 0.039923871223803864 0.0387598775565834" fill="none" stroke="#000000" stroke-width="0.001"/>
</g><g transform="translate(0.31186008370987306,0.35927119788409356) rotate(0) scale(1,1) translate(-0.03995859830486188,-0.03995859830486188)"><path d="M 0.03722751705621985 0.037556603022429254 C 0.03732008236304764 0.03753581913988896 0.038484863770221506 0.037409203733560964 0.038338300738153266 0.03730719643194569 C 0.038484863770221506 0.037409203733560964 0.03904027116627914 0.038903481825968124 0.03898627344103869 0.038780690641812554" fill="none" stroke="#000000" stroke-width="0.001"/>
<path d="M 0.03898627344103869 0.038780690641812554 C 0.03899116164211064 0.03887081154888753 0.03898204253270417 0.03998863620457816 0.03904493185390209 0.039862141526712296 C 0.03898204253270417 0.03998863620457816 0.03816382406439366 0.04033500054699384 0.03823160158666354 0.04029862677620295" fill="none" stroke="#000000" stroke-width="0.001"/>
<path d="M 0.03823160158666354 0.04029862677620295 C 0.03818009358619106 0.04035651082518384 0.0374974306348006 0.040991677308368224 0.037613505580993765 0.04099323536397363 C 0.0374974306348006 0.040991677308368224 0.036774135286624834 0.04022048800435171 0.03683870223234552 0.04027993010893802" fill="none" stroke="#000000" stroke-width="0.001"/>
<path d="M 0.03683870223234552 0.04027993010893802 C 0.03676044423654588 0.04024511439375254 0.03583800619741117 0.03971191220482696 0.03589960628274987 0.039862141526712296 C 0.03583800619741117 0.03971191220482696 0.03611615911874198 0.038361764639614215 0.03609950120828105 0.03847717824631407" fill="none" stroke="#000000" stroke-width="0.001"/>
<path d="M 0.03609950120828105 0.03847717824631407 C 0.03613290194209078 0.03837187208415058 0.03659431133465943 0.037136789698361775 0.03650031001399786 0.037213504300352175 C 0.03659431133465943 0.037136789698361775 0.03728811764307168 0.037585194582602344 0.03722751705621985 0.037556603022429254" fill="none" stroke="#000000" stroke-width="0.001"/>
</g><g transform="translate(0.3116305338772126,0.3612639430860583) rotate(0) scale(1,1) translate(-0.03995859830486188,-0.03995859830486188)"><path d="M 0.040060216333029766 0.03956120848814334 C 0.04009833491165972 0.039599281064982776 0.04059870903937708 0.04008009811884162 0.04051763927658924 0.040018079410216574 C 0.04059870903937708 0.04008009811884162 0.04107600467064181 0.04032937912342948 0.04103305348648392 0.04030543299164387" fill="none" stroke="#000000" stroke-width="0.001"/>
<path d="M 0.04103305348648392 0.04030543299164387 C 0.0410320879389117 0.04033583861219471 0.04098967671434942 0.04073316359695019 0.04102146691561727 0.040670300438253947 C 0.04098967671434942 0.04073316359695019 0.04062074641757415 0.04109224843414427 0.04065157107126977 0.04105979089599886" fill="none" stroke="#000000" stroke-width="0.001"/>
<path d="M 0.04065157107126977 0.04105979089599886 C 0.040597970130755195 0.04108590331161468 0.03989287267401397 0.041382890422488584 0.04000835978509486 0.041373139883388706 C 0.03989287267401397 0.041382890422488584 0.03920383956773287 0.04116043548868144 0.03926572573829918 0.04117679736519738" fill="none" stroke="#000000" stroke-width="0.001"/>
<path d="M 0.03926572573829918 0.04117679736519738 C 0.03925667168521015 0.04114492109989932 0.039127945224149 0.040729780168625204 0.039157077101230876 0.040794282181620636 C 0.039127945224149 0.040729780168625204 0.03889606538932383 0.04037014746155482 0.03891614321331668 0.04040277320925219" fill="none" stroke="#000000" stroke-width="0.001"/>
<path d="M 0.03891614321331668 0.04040277320925219 C 0.038949774557239726 0.04035490702000095 0.03941505876703602 0.03975824854481155 0.039319719340393265 0.03982837893823729 C 0.03941505876703602 0.03975824854481155 0.04012192441574947 0.03953894428396884 0.040060216333029766 0.03956120848814334" fill="none" stroke="#000000" stroke-width="0.001"/>
</g><g transform="translate(0.3108985055420727,0.3718098927619051) rotate(0) scale(1,1) translate(-0.03995859830486188,-0.03995859830486188)"><path d="M 0.03856770082297894 0.037162987665472914 C 0.03862802622296709 0.03721442501586336 0.03942724777856079 0.03788179326087562 0.03929160562283677 0.037780235870158316 C 0.03942724777856079 0.03788179326087562 0.04027072344740307 0.03843179639440738 0.0401954066916672 0.038381676354080525" fill="none" stroke="#000000" stroke-width="0.001"/>
<path d="M 0.0401954066916672 0.038381676354080525 C 0.04020029489273915 0.03844096642452459 0.040205592685444776 0.039189634303698186 0.040254065104530605 0.039093157199409305 C 0.040205592685444776 0.039189634303698186 0.03956037704247947 0.03957658863939193 0.039613737662637254 0.039539401605547114" fill="none" stroke="#000000" stroke-width="0.001"/>
<path d="M 0.039613737662637254 0.039539401605547114 C 0.03953123129188957 0.039515217029729655 0.038480190091990524 0.03926900463486616 0.038623661213665055 0.03924918669573759 C 0.038480190091990524 0.03926900463486616 0.037831119451616005 0.039821219390036015 0.03789208420254286 0.039777216875089984" fill="none" stroke="#000000" stroke-width="0.001"/>
<path d="M 0.03789208420254286 0.039777216875089984 C 0.03782680548011248 0.039720211902116595 0.03706011872140894 0.03896022222202812 0.037108739533378385 0.039093157199409305 C 0.03706011872140894 0.03896022222202812 0.037325292369370495 0.03810606714210794 0.03730863445890956 0.03818199714651573" fill="none" stroke="#000000" stroke-width="0.001"/>
<path d="M 0.03730863445890956 0.03818199714651573 C 0.037342035192719295 0.03811271677667133 0.03781436546163215 0.03726571525162934 0.03770944326462637 0.03735063270838291 C 0.03781436546163215 0.03726571525162934 0.03863922228617499 0.03714735057856375 0.03856770082297894 0.037162987665472914" fill="none" stroke="#000000" stroke-width="0.001"/>
</g><g transform="translate(0.30840748565995024,0.37371799851450926) rotate(0) scale(1,1) translate(-0.03995859830486188,-0.03995859830486188)"><path d="M 0.0400592088785398 0.039782447172829194 C 0.0401146222248666 0.0397640464632964 0.04080211645572642 0.03956505283711387 0.04072416903446142 0.03956163865843565 C 0.04080211645572642 0.03956505283711387 0.041017112008658076 0.03984523220517887 0.04099457793371987 0.039823417316967855" fill="none" stroke="#000000" stroke-width="0.001"/>
<path d="M 0.04099457793371987 0.039823417316967855 C 0.04099373790733204 0.03985382293751869 0.04095684014196286 0.040251147922274175 0.040984497617065886 0.04018828476357793 C 0.04095684014196286 0.040251147922274175 0.04063587078376837 0.04061023275946825 0.04066268823248356 0.04057777522132284" fill="none" stroke="#000000" stroke-width="0.001"/>
<path d="M 0.04066268823248356 0.04057777522132284 C 0.040610492868506196 0.04061169908447586 0.0399355596939737 0.04099650863181614 0.04003634386475517 0.04098486157915909 C 0.0399355596939737 0.04099650863181614 0.03940468937630176 0.04069526304271145 0.03945327818310587 0.04071753985320742" fill="none" stroke="#000000" stroke-width="0.001"/>
<path d="M 0.03945327818310587 0.04071753985320742 C 0.03943829481341995 0.040696554535799734 0.039236289107982755 0.04040121403131979 0.03927347774687477 0.040465716044315224 C 0.039236289107982755 0.04040121403131979 0.038984809247195544 0.03989999900167448 0.039007014516401636 0.039943515697262226" fill="none" stroke="#000000" stroke-width="0.001"/>
<path d="M 0.039007014516401636 0.039943515697262226 C 0.039041011347947005 0.03991506543019973 0.03950265935845756 0.0395886901154762 0.03941497649494605 0.03960211249251229 C 0.03950265935845756 0.0395886901154762 0.04011289491050595 0.0397974750628556 0.0400592088785398 0.039782447172829194" fill="none" stroke="#000000" stroke-width="0.001"/>
</g><g transform="translate(0.3055144489123214,0.3914970723926444) rotate(0) scale(1,1) translate(-0.03995859830486188,-0.03995859830486188)"><path d="M 0.040483290609274906 0.037778196356898386 C 0.04047491269779359 0.03786412413734106 0.040372441981581755 0.03895431552586084 0.04038275567149911 0.03880932972221049 C 0.040372441981581755 0.03895431552586084 0.04035759055183057 0.039577084023910206 0.04035952633026661 0.03951802600070253" fill="none" stroke="#000000" stroke-width="0.001"/>
<path d="M 0.04035952633026661 0.03951802600070253 C 0.040311598624843875 0.039553378743431684 0.03967300128128932 0.039944190855717855 0.039784393865193786 0.03994225891345236 C 0.03967300128128932 0.039944190855717855 0.0389593504449313 0.03950778850742483 0.03902281532341303 0.039541209307888486" fill="none" stroke="#000000" stroke-width="0.001"/>
<path d="M 0.03902281532341303 0.039541209307888486 C 0.03897511166883636 0.03951335857032712 0.038352011464035406 0.03911681408281778 0.03845037146849305 0.03920700045715203 C 0.038352011464035406 0.03911681408281778 0.037791838920040385 0.03839663717910459 0.03784249526992136 0.03845897281587747" fill="none" stroke="#000000" stroke-width="0.001"/>
<path d="M 0.03784249526992136 0.03845897281587747 C 0.03785271320949808 0.03836529723801635 0.03805027464747236 0.0372184956628505 0.03796511054484198 0.037334865881544055 C 0.03805027464747236 0.0372184956628505 0.03893941066453957 0.03703983555072243 0.03886446450148591 0.037062530191554865" fill="none" stroke="#000000" stroke-width="0.001"/>
<path d="M 0.03886446450148591 0.037062530191554865 C 0.038943622529605065 0.03705975622857582 0.039949263014564876 0.03708888148291821 0.03981436083891579 0.03702924263580625 C 0.039949263014564876 0.03708888148291821 0.040539034756804836 0.0378406091669894 0.040483290609274906 0.037778196356898386" fill="none" stroke="#000000" stroke-width="0.001"/>
</g><g transform="translate(0.3043347707984079,0.39480768350839374) rotate(0) scale(1,1) translate(-0.03995859830486188,-0.03995859830486188)"><path d="M 0.03956251676781402 0.03874811813175904 C 0.03955588482454617 0.03880036079551219 0.03948875197647366 0.03947317650098779 0.039482933448599766 0.03937503009679681 C 0.03948875197647366 0.03947317650098779 0.039644789573442474 0.0399717787224886 0.039632339102300726 0.039925874982050774" fill="none" stroke="#000000" stroke-width="0.001"/>
<path d="M 0.039632339102300726 0.039925874982050774 C 0.03960577910484416 0.03994070739851954 0.03924336172470666 0.040108991378904155 0.03931361913282193 0.04010386397967601 C 0.03924336172470666 0.040108991378904155 0.03874555279425883 0.03997769875554789 0.038789250204917525 0.03998740377278851" fill="none" stroke="#000000" stroke-width="0.001"/>
<path d="M 0.038789250204917525 0.03998740377278851 C 0.0387292722387298 0.039953450383558464 0.03799986713188489 0.03948666419643184 0.03806951461066482 0.039579963102027986 C 0.03799986713188489 0.03948666419643184 0.03794381094696613 0.038808471389268656 0.03795348045955834 0.03886781690563476" fill="none" stroke="#000000" stroke-width="0.001"/>
<path d="M 0.03795348045955834 0.03886781690563476 C 0.0379625982657354 0.03884224630660504 0.03809616755811719 0.0384911086267278 0.038062894133683065 0.03856096971727805 C 0.03809616755811719 0.0384911086267278 0.038376917171024885 0.0379851933275112 0.038352761552767824 0.03802948381903173" fill="none" stroke="#000000" stroke-width="0.001"/>
<path d="M 0.038352761552767824 0.03802948381903173 C 0.038397274240438505 0.03804832621874533 0.038987726739403185 0.03831547880832223 0.038886913804816 0.038255592615594955 C 0.038987726739403185 0.03831547880832223 0.03961881701473052 0.03878916192477271 0.03956251676781402 0.03874811813175904" fill="none" stroke="#000000" stroke-width="0.001"/>
</g><g transform="translate(0.30424123066201864,0.40386767695792436) rotate(0) scale(1,1) translate(-0.03995859830486188,-0.03995859830486188)"><path d="M 0.04106680343351036 0.037320174728449645 C 0.04112246576664801 0.037357652481811124 0.04181402811898974 0.03790305619615345 0.041734751431162204 0.03776990776878737 C 0.04181402811898974 0.03790305619615345 0.04204173804213067 0.039013626530847174 0.04201812368744079 0.03891795585684257" fill="none" stroke="#000000" stroke-width="0.001"/>
<path d="M 0.04201812368744079 0.03891795585684257 C 0.041991469598558526 0.03897121410419844 0.0415973947981147 0.03963791065523355 0.04169827462085361 0.03955705482511295 C 0.0415973947981147 0.03963791065523355 0.04073334008071723 0.03991582340105455 0.04080756581457388 0.03988822581828981" fill="none" stroke="#000000" stroke-width="0.001"/>
<path d="M 0.04080756581457388 0.03988822581828981 C 0.04075492296402325 0.03985650435327621 0.04004977383229009 0.03944330281565638 0.040175851607966336 0.03950756823812661 C 0.04004977383229009 0.03944330281565638 0.039221197581333286 0.03908449679119044 0.039294632506458906 0.039117040748647074" fill="none" stroke="#000000" stroke-width="0.001"/>
<path d="M 0.039294632506458906 0.039117040748647074 C 0.039261208934878965 0.03902893635012096 0.03891660044483044 0.03791743764874349 0.03889354964749961 0.038059787966333705 C 0.03891660044483044 0.03791743764874349 0.039627716443339636 0.037354591018500374 0.039571242074428865 0.03740883693756448" fill="none" stroke="#000000" stroke-width="0.001"/>
<path d="M 0.039571242074428865 0.03740883693756448 C 0.039640513041085804 0.037370428325708076 0.040527123787568904 0.03694054507786138 0.04040249367431211 0.03694793359528762 C 0.040527123787568904 0.03694054507786138 0.041122162580110214 0.03735119482287982 0.04106680343351036 0.037320174728449645" fill="none" stroke="#000000" stroke-width="0.001"/>
</g><g transform="translate(0.3021548204205968,0.40420027970351147) rotate(0) scale(1,1) translate(-0.03995859830486188,-0.03995859830486188)"><path d="M 0.04069290609492512 0.0418445392510257 C 0.0406795609121931 0.04189745563081908 0.04046495239260324 0.042550726897149095 0.04053276390214095 0.04247953580854627 C 0.04046495239260324 0.042550726897149095 0.03982470165366689 0.04271710702306902 0.039879167980472585 0.04269883231425958" fill="none" stroke="#000000" stroke-width="0.001"/>
<path d="M 0.039879167980472585 0.04269883231425958 C 0.03985020636307555 0.042689523245512194 0.039479963192186135 0.0425392373516646 0.03953162857170817 0.04258712348929089 C 0.039479963192186135 0.0425392373516646 0.03923647966408315 0.04208562159386522 0.03925918342620815 0.04212419866274412" fill="none" stroke="#000000" stroke-width="0.001"/>
<path d="M 0.03925918342620815 0.04212419866274412 C 0.03925484371376083 0.04206663474490223 0.039227841910494714 0.041318865006615066 0.039207106876840356 0.04143343164864141 C 0.039227841910494714 0.041318865006615066 0.03953307857616211 0.04069239623424355 0.03950800383006044 0.040749398958427996" fill="none" stroke="#000000" stroke-width="0.001"/>
<path d="M 0.03950800383006044 0.040749398958427996 C 0.03953292331117357 0.04073862819312215 0.03988082319148884 0.04059683926769579 0.03980703760341803 0.0406201497747578 C 0.03988082319148884 0.04059683926769579 0.0404422969938679 0.040457133131927746 0.04039343088691022 0.0404696728736839" fill="none" stroke="#000000" stroke-width="0.001"/>
<path d="M 0.04039343088691022 0.0404696728736839 C 0.04041000800812567 0.04051507787828519 0.040617312608830176 0.04112910512701119 0.0405923563414956 0.04101453292889937 C 0.040617312608830176 0.04112910512701119 0.040701285241044244 0.04191370644453623 0.04069290609492512 0.0418445392510257" fill="none" stroke="#000000" stroke-width="0.001"/>
</g></g>
<g id="右">
<g transform="translate(0.3671985660689295,0.32317175394593833) rotate(0) scale(1,1) translate(-0.03995859830486188,-0.03995859830486188)"><path d="M 0.041426639667973886 0.03887595185184681 C 0.041519739194250525 0.03885074788416705 0.04267532515762734 0.03861758064185438 0.04254383398329353 0.038573504239689735 C 0.04267532515762734 0.03861758064185438 0.04304292540803676 0.03947414904766696 0.04300453375997959 0.03940486867782256" fill="none" stroke="#000000" stroke-width="0.001"/>
<path d="M 0.04300453375997959 0.03940486867782256 C 0.04302368078349791 0.03948079868223035 0.04317841205142989 0.04044896370809732 0.04323429804219936 0.04031602873071613 C 0.04317841205142989 0.04044896370809732 0.04225886885645814 0.0410570933793702 0.04233390187074593 0.04100008840639681" fill="none" stroke="#000000" stroke-width="0.001"/>
<path d="M 0.04233390187074593 0.04100008840639681 C 0.042244768285585065 0.04100509515695748 0.041126616883283416 0.04101856957821557 0.04126429884881555 0.0410601694131249 C 0.041126616883283416 0.04101856957821557 0.04063316990398902 0.04045428380201483 0.04068171828436029 0.040500890387484834" fill="none" stroke="#000000" stroke-width="0.001"/>
<path d="M 0.04068171828436029 0.040500890387484834 C 0.04059315686847598 0.04048548524942078 0.039536038499785986 0.040241333522208 0.03961898129374852 0.04031602873071613 C 0.039536038499785986 0.040241333522208 0.03969202337873162 0.03954525781494329 0.039686404756809845 0.03960454788538735" fill="none" stroke="#000000" stroke-width="0.001"/>
<path d="M 0.039686404756809845 0.03960454788538735 C 0.03974847110766094 0.03954081416019753 0.04057622054295335 0.03877902684698108 0.04043120096702302 0.038839743183109454 C 0.04057622054295335 0.03877902684698108 0.04150959289305312 0.03887896924090825 0.041426639667973886 0.03887595185184681" fill="none" stroke="#000000" stroke-width="0.001"/>
</g><g transform="translate(0.36630375518753777,0.32508566245169945) rotate(0) scale(1,1) translate(-0.03995859830486188,-0.03995859830486188)"><path d="M 0.03985698027669404 0.040711263111095776 C 0.039918688359413756 0.04072073985382272 0.04069281669597336 0.04087380198149893 0.040597477269330606 0.040824984023819115 C 0.04069281669597336 0.04087380198149893 0.04103468474033018 0.041336419818206474 0.04100105339640714 0.0412970786032536" fill="none" stroke="#000000" stroke-width="0.001"/>
<path d="M 0.04100105339640714 0.0412970786032536 C 0.04098097557241429 0.04132970435095097 0.040730987631411135 0.04175308958861748 0.04076011950849301 0.04168858757562205 C 0.040730987631411135 0.04175308958861748 0.04064241681833559 0.042102979024496855 0.04065147087142462 0.04207110275919879" fill="none" stroke="#000000" stroke-width="0.001"/>
<path d="M 0.04065147087142462 0.04207110275919879 C 0.04058745345728373 0.042066152199968815 0.03975924981635461 0.04198915804789166 0.03988326190173386 0.04201169604843909 C 0.03975924981635461 0.04198915804789166 0.0391033311756353 0.04178305931131221 0.03916332584687365 0.041800646752629664" fill="none" stroke="#000000" stroke-width="0.001"/>
<path d="M 0.03916332584687365 0.041800646752629664 C 0.039132501193178036 0.041768189214484254 0.03876163980125838 0.041348293136188506 0.03879343000252622 0.04141115629488475 C 0.03876163980125838 0.041348293136188506 0.03878087788408736 0.04101588322772384 0.03878184343165958 0.04104628884827468" fill="none" stroke="#000000" stroke-width="0.001"/>
<path d="M 0.03878184343165958 0.04104628884827468 C 0.03880774466722073 0.04102447396006366 0.03918225299547957 0.0407565913783109 0.039092658258393365 0.040784510189742475 C 0.03918225299547957 0.0407565913783109 0.0399206737782191 0.04070515918787522 0.03985698027669404 0.040711263111095776" fill="none" stroke="#000000" stroke-width="0.001"/>
</g><g transform="translate(0.36386605543694756,0.3370617972851924) rotate(0) scale(1,1) translate(-0.03995859830486188,-0.03995859830486188)"><path d="M 0.041831746446632345 0.036408975851769144 C 0.041891087074687444 0.036442082708290226 0.0426415662594058 0.03690864535638758 0.04254383398329353 0.0368062581300221 C 0.0426415662594058 0.03690864535638758 0.04304292540803676 0.037706902937999325 0.04300453375997959 0.03763762256815492" fill="none" stroke="#000000" stroke-width="0.001"/>
<path d="M 0.04300453375997959 0.03763762256815492 C 0.042974576931539304 0.03772275954480496 0.042589165827926684 0.03879220126533653 0.042645051818696156 0.03865926628795534 C 0.042589165827926684 0.03879220126533653 0.04230797270841674 0.039280640297460326 0.04233390187074593 0.03923284229672917" fill="none" stroke="#000000" stroke-width="0.001"/>
<path d="M 0.04233390187074593 0.03923284229672917 C 0.04226011323932213 0.03924091803803726 0.04131075632812816 0.03928815135751688 0.041448438293660295 0.03932975119242621 C 0.04131075632812816 0.03928815135751688 0.04061782495025196 0.03868396870159978 0.04068171828436029 0.0387336442778172" fill="none" stroke="#000000" stroke-width="0.001"/>
<path d="M 0.04068171828436029 0.0387336442778172 C 0.04064532971118198 0.03868754923227902 0.04021428545496406 0.038075118615376755 0.04024505540622059 0.038180503731359006 C 0.04021428545496406 0.038075118615376755 0.040318097491203804 0.03740973281558616 0.04031247886928202 0.037469022886030226" fill="none" stroke="#000000" stroke-width="0.001"/>
<path d="M 0.04031247886928202 0.037469022886030226 C 0.04038682118312276 0.037451324022051584 0.04133119226681683 0.03716829926543146 0.041204586635370966 0.037256636518286555 C 0.04133119226681683 0.03716829926543146 0.04188400976423746 0.036338337462892695 0.041831746446632345 0.036408975851769144" fill="none" stroke="#000000" stroke-width="0.001"/>
</g><g transform="translate(0.3665145960684577,0.33883515509705) rotate(0) scale(1,1) translate(-0.03995859830486188,-0.03995859830486188)"><path d="M 0.039993325385919994 0.0387598775565834 C 0.04003089379691484 0.03878469925304741 0.040507274550234465 0.03912190082556836 0.04044414631785811 0.03905773791415148 C 0.040507274550234465 0.03912190082556836 0.04077642399581779 0.03956917370853884 0.040750864174436276 0.039529832493585965" fill="none" stroke="#000000" stroke-width="0.001"/>
<path d="M 0.040750864174436276 0.039529832493585965 C 0.04073560502820171 0.039562458241283335 0.040526954729295045 0.03997663650670761 0.040567754419621536 0.03992134146595441 C 0.040526954729295045 0.03997663650670761 0.040235727346426456 0.040216042275680146 0.040261267890518385 0.04019337298262432" fill="none" stroke="#000000" stroke-width="0.001"/>
<path d="M 0.040261267890518385 0.04019337298262432 C 0.04023127411951557 0.0402283193031107 0.03982575291734061 0.04059939780015574 0.03990134263848458 0.04061272882846093 C 0.03982575291734061 0.04059939780015574 0.03930859528664968 0.03998512329417045 0.03935419123679083 0.04003340064296203" fill="none" stroke="#000000" stroke-width="0.001"/>
<path d="M 0.03935419123679083 0.04003340064296203 C 0.03933076449998216 0.04000094310481662 0.03906523687289944 0.03958104702652087 0.03907307039508677 0.03964391018521712 C 0.03906523687289944 0.03958104702652087 0.039275782185164226 0.03924863711805621 0.039260188970542884 0.039279042738607044" fill="none" stroke="#000000" stroke-width="0.001"/>
<path d="M 0.039260188970542884 0.039279042738607044 C 0.039279873909569364 0.03925722785039602 0.03955750294014208 0.0389740003149062 0.03949640823886065 0.03901726408007484 C 0.03955750294014208 0.0389740003149062 0.04003473514817494 0.038738428679625785 0.039993325385919994 0.0387598775565834" fill="none" stroke="#000000" stroke-width="0.001"/>
</g><g transform="translate(0.36282682194746796,0.35927119788409356) rotate(0) scale(1,1) translate(-0.03995859830486188,-0.03995859830486188)"><path d="M 0.042689679553504 0.037556603022429254 C 0.04275028014035583 0.037528011462256164 0.04351088791638752 0.037290218902342576 0.043416886595725956 0.037213504300352175 C 0.04351088791638752 0.037290218902342576 0.04385109613525249 0.03858248440847756 0.04381769540144276 0.03847717824631407" fill="none" stroke="#000000" stroke-width="0.001"/>
<path d="M 0.04381769540144276 0.03847717824631407 C 0.04383435331190369 0.03859259185301392 0.04395599024163524 0.04001237084859763 0.04401759032697394 0.039862141526712296 C 0.04395599024163524 0.04001237084859763 0.04300023638157868 0.04031474582412349 0.04307849437737832 0.04027993010893802" fill="none" stroke="#000000" stroke-width="0.001"/>
<path d="M 0.04307849437737832 0.04027993010893802 C 0.043013927431657634 0.04033937221352432 0.04218761608253694 0.04099479341957904 0.042303691028730106 0.04099323536397363 C 0.04218761608253694 0.04099479341957904 0.04163408702258787 0.04024074272722206 0.04168559502306035 0.04029862677620295" fill="none" stroke="#000000" stroke-width="0.001"/>
<path d="M 0.04168559502306035 0.04029862677620295 C 0.041617817500790466 0.040262253005412064 0.0408093754346238 0.03973564684884643 0.04087226475582173 0.039862141526712296 C 0.0408093754346238 0.03973564684884643 0.04093581136975714 0.03869056973473758 0.040930923168685185 0.038780690641812554" fill="none" stroke="#000000" stroke-width="0.001"/>
<path d="M 0.040930923168685185 0.038780690641812554 C 0.040984920893925636 0.038657899457656984 0.04172545890363883 0.03720518913033041 0.0415788958715706 0.03730719643194569 C 0.04172545890363883 0.03720518913033041 0.04278224486033178 0.03757738690496955 0.042689679553504 0.037556603022429254" fill="none" stroke="#000000" stroke-width="0.001"/>
</g><g transform="translate(0.36305637178012856,0.3612639430860583) rotate(0) scale(1,1) translate(-0.03995859830486188,-0.03995859830486188)"><path d="M 0.03985698027669404 0.03956120848814334 C 0.039918688359413756 0.039583472692317836 0.04069281669597336 0.03989850933166303 0.040597477269330606 0.03982837893823729 C 0.04069281669597336 0.03989850933166303 0.04103468474033018 0.04045063939850343 0.04100105339640714 0.04040277320925219" fill="none" stroke="#000000" stroke-width="0.001"/>
<path d="M 0.04100105339640714 0.04040277320925219 C 0.04098097557241429 0.04043539895694956 0.040730987631411135 0.04085878419461607 0.04076011950849301 0.040794282181620636 C 0.040730987631411135 0.04085878419461607 0.04064241681833559 0.04120867363049544 0.04065147087142462 0.04117679736519738" fill="none" stroke="#000000" stroke-width="0.001"/>
<path d="M 0.04065147087142462 0.04117679736519738 C 0.04058958470085832 0.04119315924171332 0.039793349713548094 0.04136338934428883 0.03990883682462898 0.041373139883388706 C 0.039793349713548094 0.04136338934428883 0.03921202459793945 0.041033678480383036 0.03926562553845403 0.04105979089599886" fill="none" stroke="#000000" stroke-width="0.001"/>
<path d="M 0.03926562553845403 0.04105979089599886 C 0.03923480088475841 0.04102733335785345 0.038863939492838756 0.0406074372795577 0.038895729694106596 0.040670300438253947 C 0.038863939492838756 0.0406074372795577 0.038883177575667734 0.040275027371093036 0.038884143123239956 0.04030543299164387" fill="none" stroke="#000000" stroke-width="0.001"/>
<path d="M 0.038884143123239956 0.04030543299164387 C 0.038927094307397846 0.040281486859858266 0.03948062709592245 0.03995606070159153 0.039399557333134605 0.040018079410216574 C 0.03948062709592245 0.03995606070159153 0.039895098855323996 0.0395231359113039 0.03985698027669404 0.03956120848814334" fill="none" stroke="#000000" stroke-width="0.001"/>
</g><g transform="translate(0.3637884001152683,0.3718098927619051) rotate(0) scale(1,1) translate(-0.03995859830486188,-0.03995859830486188)"><path d="M 0.041349495786744905 0.037162987665472914 C 0.04142101724994095 0.03717862475238208 0.0423126755421032 0.03743555016513648 0.04220775334509742 0.03735063270838291 C 0.0423126755421032 0.03743555016513648 0.042641962884624025 0.038251277516360135 0.04260856215081429 0.03818199714651573" fill="none" stroke="#000000" stroke-width="0.001"/>
<path d="M 0.04260856215081429 0.03818199714651573 C 0.04262522006127522 0.03825792715092353 0.042759836264376044 0.03922609217679049 0.04280845707634549 0.039093157199409305 C 0.042759836264376044 0.03922609217679049 0.041959833684750626 0.03983422184806337 0.042025112407181 0.039777216875089984" fill="none" stroke="#000000" stroke-width="0.001"/>
<path d="M 0.042025112407181 0.039777216875089984 C 0.04196414765625415 0.03973321436014395 0.04115006427438421 0.03922936875660902 0.04129353539605875 0.03924918669573759 C 0.04115006427438421 0.03922936875660902 0.040220952576338856 0.039563586181364574 0.04030345894708654 0.039539401605547114" fill="none" stroke="#000000" stroke-width="0.001"/>
<path d="M 0.04030345894708654 0.039539401605547114 C 0.04025009832692877 0.0395022145717023 0.03961465908610743 0.038996680095120424 0.03966313150519326 0.039093157199409305 C 0.03961465908610743 0.038996680095120424 0.039726678119128556 0.03832238628363646 0.03972178991805661 0.038381676354080525" fill="none" stroke="#000000" stroke-width="0.001"/>
<path d="M 0.03972178991805661 0.038381676354080525 C 0.03979710667379248 0.03833155631375367 0.040761233142611056 0.037678678479441015 0.040625590986887034 0.037780235870158316 C 0.040761233142611056 0.037678678479441015 0.04140982118673306 0.03711155031508247 0.041349495786744905 0.037162987665472914" fill="none" stroke="#000000" stroke-width="0.001"/>
</g><g transform="translate(0.3662794199973909,0.37371799851450926) rotate(0) scale(1,1) translate(-0.03995859830486188,-0.03995859830486188)"><path d="M 0.039857987731184014 0.039782447172829194 C 0.03991167376315016 0.039767419282802786 0.04058990297828934 0.03961553486954838 0.040502220114777825 0.03960211249251229 C 0.04058990297828934 0.03961553486954838 0.040944178924867555 0.03997196596432472 0.040910182093322194 0.039943515697262226" fill="none" stroke="#000000" stroke-width="0.001"/>
<path d="M 0.040910182093322194 0.039943515697262226 C 0.0408879768241161 0.039987032392849974 0.0406065302239571 0.040530218057310656 0.040643718862849114 0.040465716044315224 C 0.0406065302239571 0.040530218057310656 0.0404489350569321 0.0407385251706151 0.04046391842661803 0.04071753985320742" fill="none" stroke="#000000" stroke-width="0.001"/>
<path d="M 0.04046391842661803 0.04071753985320742 C 0.040415329619813915 0.04073981666370339 0.03978006857418717 0.040973214526502044 0.03988085274496865 0.04098486157915909 C 0.03978006857418717 0.040973214526502044 0.03920231301326291 0.04054385135816982 0.039254508377240274 0.04057777522132284" fill="none" stroke="#000000" stroke-width="0.001"/>
<path d="M 0.039254508377240274 0.04057777522132284 C 0.039227690928525086 0.04054531768317743 0.038905041517554986 0.04012542160488168 0.038932698992658006 0.04018828476357793 C 0.038905041517554986 0.04012542160488168 0.0389217786496162 0.03979301169641702 0.03892261867600403 0.039823417316967855" fill="none" stroke="#000000" stroke-width="0.001"/>
<path d="M 0.03892261867600403 0.039823417316967855 C 0.03894515275094223 0.03980160242875684 0.039270974996527416 0.03955822447975743 0.03919302757526242 0.03956163865843565 C 0.039270974996527416 0.03955822447975743 0.03991340107751081 0.03980084788236199 0.039857987731184014 0.039782447172829194" fill="none" stroke="#000000" stroke-width="0.001"/>
</g><g transform="translate(0.36917245674501953,0.3914970723926444) rotate(0) scale(1,1) translate(-0.03995859830486188,-0.03995859830486188)"><path d="M 0.03943390600044894 0.037778196356898386 C 0.039489650147978866 0.03771578354680737 0.040237737946457165 0.036969603788694294 0.04010283577080809 0.03702924263580625 C 0.040237737946457165 0.036969603788694294 0.04113189013635705 0.037065304154533914 0.0410527321082379 0.037062530191554865" fill="none" stroke="#000000" stroke-width="0.001"/>
<path d="M 0.0410527321082379 0.037062530191554865 C 0.041127678271291566 0.0370852248323873 0.04203725016751226 0.03745123610023761 0.04195208606488188 0.037334865881544055 C 0.04203725016751226 0.03745123610023761 0.04208491927937923 0.03855264839373859 0.04207470133980251 0.03845897281587747" fill="none" stroke="#000000" stroke-width="0.001"/>
<path d="M 0.04207470133980251 0.03845897281587747 C 0.04202404498992154 0.03852130845265035 0.04136846513677315 0.03929718683148628 0.04146682514123079 0.03920700045715203 C 0.04136846513677315 0.03929718683148628 0.040846677631734184 0.039569060045449855 0.040894381286310844 0.039541209307888486" fill="none" stroke="#000000" stroke-width="0.001"/>
<path d="M 0.040894381286310844 0.039541209307888486 C 0.040830916407829106 0.03957463010835214 0.04002141016062555 0.03994032697118686 0.040132802744530016 0.03994225891345236 C 0.04002141016062555 0.03994032697118686 0.039509742574034494 0.03948267325797338 0.039557670279457224 0.03951802600070253" fill="none" stroke="#000000" stroke-width="0.001"/>
<path d="M 0.039557670279457224 0.03951802600070253 C 0.039555734501021185 0.03945896797749486 0.03952412724830742 0.03866434391856014 0.03953444093822478 0.03880932972221049 C 0.03952412724830742 0.03866434391856014 0.03942552808896762 0.03769226857645571 0.03943390600044894 0.037778196356898386" fill="none" stroke="#000000" stroke-width="0.001"/>
</g><g transform="translate(0.3703521348589331,0.39480768350839374) rotate(0) scale(1,1) translate(-0.03995859830486188,-0.03995859830486188)"><path d="M 0.04035467984190988 0.03874811813175904 C 0.040410980088826376 0.038707074338745366 0.04113109573949502 0.03819570642286768 0.041030282804907836 0.038255592615594955 C 0.04113109573949502 0.03819570642286768 0.04160894774462675 0.03801064141931813 0.04156443505695606 0.03802948381903173" fill="none" stroke="#000000" stroke-width="0.001"/>
<path d="M 0.04156443505695606 0.03802948381903173 C 0.04158859067521312 0.038073774310552255 0.04188757590047495 0.0386308308078283 0.04185430247604083 0.03856096971727805 C 0.04188757590047495 0.0386308308078283 0.04197283395634253 0.038893387504664485 0.041963716150165475 0.03886781690563476" fill="none" stroke="#000000" stroke-width="0.001"/>
<path d="M 0.041963716150165475 0.03886781690563476 C 0.04195404663757327 0.038927162422000866 0.04177803452027904 0.03967326200762413 0.04184768199905897 0.039579963102027986 C 0.04177803452027904 0.03967326200762413 0.0410679684386186 0.04002135716201856 0.041127946404806326 0.03998740377278851" fill="none" stroke="#000000" stroke-width="0.001"/>
<path d="M 0.041127946404806326 0.03998740377278851 C 0.04108424899414762 0.039997108790029136 0.04053332006878665 0.040098736580447866 0.04060357747690191 0.04010386397967601 C 0.04053332006878665 0.040098736580447866 0.0402582975099666 0.039911042565582006 0.040284857507423166 0.039925874982050774" fill="none" stroke="#000000" stroke-width="0.001"/>
<path d="M 0.040284857507423166 0.039925874982050774 C 0.04029730797856491 0.039879971241612945 0.04044008168899798 0.03927688369260583 0.040434263161124084 0.03937503009679681 C 0.04044008168899798 0.03927688369260583 0.04034804789864203 0.03869587546800589 0.04035467984190988 0.03874811813175904" fill="none" stroke="#000000" stroke-width="0.001"/>
</g><g transform="translate(0.3704456749953224,0.40386767695792436) rotate(0) scale(1,1) translate(-0.03995859830486188,-0.03995859830486188)"><path d="M 0.03885039317621343 0.03732017472844961 C 0.038905752322813285 0.03728915463401944 0.03963933304866851 0.036955322112713775 0.03951470293541172 0.03694793359528754 C 0.03963933304866851 0.036955322112713775 0.040415225501951854 0.037447245549420846 0.04034595453529492 0.03740883693756444" fill="none" stroke="#000000" stroke-width="0.001"/>
<path d="M 0.04034595453529492 0.03740883693756444 C 0.0404024289042057 0.037463082856628534 0.04104669775955507 0.03820213828392381 0.04102364696222424 0.038059787966333594 C 0.04104669775955507 0.03820213828392381 0.040589140531684956 0.03920514514717313 0.0406225641032649 0.03911704074864701" fill="none" stroke="#000000" stroke-width="0.001"/>
<path d="M 0.0406225641032649 0.03911704074864701 C 0.040549129178139284 0.039149584706103635 0.03961526722608124 0.03957183366059676 0.03974134500175749 0.03950756823812653 C 0.03961526722608124 0.03957183366059676 0.039056987944599296 0.039919947283303364 0.039109630795149924 0.03988822581828976" fill="none" stroke="#000000" stroke-width="0.001"/>
<path d="M 0.039109630795149924 0.03988822581828976 C 0.039035405061293285 0.03986062823552502 0.0381180421661313 0.03947619899499227 0.03821892198887021 0.039557054825112875 C 0.0381180421661313 0.03947619899499227 0.03787241883340078 0.03886469760948663 0.03789907292228304 0.0389179558568425" fill="none" stroke="#000000" stroke-width="0.001"/>
<path d="M 0.03789907292228304 0.0389179558568425 C 0.03792268727697292 0.038822285182837896 0.03826172186638915 0.03763675934142123 0.03818244517856162 0.0377699077687873 C 0.03826172186638915 0.03763675934142123 0.038906055509351084 0.03728269697508814 0.03885039317621343 0.03732017472844961" fill="none" stroke="#000000" stroke-width="0.001"/>
</g><g transform="translate(0.37253208523674425,0.4042002797035114) rotate(0) scale(1,1) translate(-0.03995859830486188,-0.03995859830486188)"><path d="M 0.03922429051479873 0.041844539251025596 C 0.03923266966091786 0.041775372057515074 0.03934979653556278 0.0408999607307875 0.03932484026822821 0.04101453292889932 C 0.03934979653556278 0.0408999607307875 0.03954034284402907 0.04042426786908252 0.03952376572281362 0.04046967287368381" fill="none" stroke="#000000" stroke-width="0.001"/>
<path d="M 0.03952376572281362 0.04046967287368381 C 0.0395726318297713 0.040482212615439966 0.04018394459437663 0.04064346028181971 0.040110159006305816 0.040620149774757704 C 0.04018394459437663 0.04064346028181971 0.04043411226077648 0.04076016972373381 0.04040919277966335 0.040749398958427954" fill="none" stroke="#000000" stroke-width="0.001"/>
<path d="M 0.04040919277966335 0.040749398958427954 C 0.04043426752576503 0.0408064016826124 0.04073082476653784 0.04154799829066766 0.04071008973288348 0.04143343164864132 C 0.04073082476653784 0.04154799829066766 0.04065367347106835 0.042181762580585945 0.04065801318351567 0.04212419866274405" fill="none" stroke="#000000" stroke-width="0.001"/>
<path d="M 0.04065801318351567 0.04212419866274405 C 0.04063530942139067 0.04216277573162295 0.0403339026584936 0.042635009626917124 0.04038556803801563 0.042587123489290835 C 0.0403339026584936 0.042635009626917124 0.04000906701185423 0.042708141383006874 0.04003802862925126 0.042698832314259486" fill="none" stroke="#000000" stroke-width="0.001"/>
<path d="M 0.04003802862925126 0.042698832314259486 C 0.03998356230244556 0.042680557605450045 0.03931662119804515 0.042408344719943376 0.039384432707582864 0.0424795358085462 C 0.03931662119804515 0.042408344719943376 0.039210945332066725 0.04179162287123221 0.03922429051479873 0.041844539251025596" fill="none" stroke="#000000" stroke-width="0.001"/>
</g></g>
</g>
<g id="脚輪">
<g transform="translate(0.3373434528286707,0.354158497463057) rotate(0) scale(1,1) translate(-0.011152769902399133,-0.011152769902399133)"><path d="M -0.020376621106719194 0.0035725831568482664 C -0.017749171855959332 0.0035725831568482664 0.01640766840391886 0.0035725831568482664 0.01115276990239914 0.0035725831568482664 C 0.01640766840391886 0.0035725831568482664 0.0453096101622773 0.0035725831568482664 0.04268216091151744 0.0035725831568482664" fill="none" stroke="#000000" stroke-width="0.001"/>
<path d="M 0.04268216091151744 0.0035725831568482664 C 0.04268216091151744 0.0042042653856441715 0.042682160911517476 0.012416134359990944 0.042682160911517476 0.011152769902399133 C 0.042682160911517476 0.012416134359990944 0.04268216091151744 0.0193646388767459 0.04268216091151744 0.018732956647949998" fill="none" stroke="#000000" stroke-width="0.001"/>
<path d="M 0.04268216091151744 0.018732956647949998 C 0.04005471166075758 0.018732956647949998 0.005897871400879413 0.018732956647949998 0.011152769902399133 0.018732956647949998 C 0.005897871400879413 0.018732956647949998 -0.023004070357479055 0.018732956647949998 -0.020376621106719194 0.018732956647949998" fill="none" stroke="#000000" stroke-width="0.001"/>
<path d="M -0.020376621106719194 0.018732956647949998 C -0.020376621106719194 0.018101274419154094 -0.020376621106719194 0.009889405444807327 -0.020376621106719194 0.011152769902399138 C -0.020376621106719194 0.009889405444807327 -0.020376621106719194 0.0029409009280523604 -0.020376621106719194 0.0035725831568482664" fill="none" stroke="#000000" stroke-width="0.001"/>
</g><g transform="translate(0.32924552240658506,0.354158497463057) rotate(0) scale(1,1) translate(-0.00775832499658671,-0.0077583249965867095)"><path d="M 0.01778801536380548 0.017784016284711702 C 0.016181189130585385 0.0176058073225948 -0.003100725668055737 0.014152769153404956 -0.0014938994348356431 0.015645508739308887 C -0.003100725668055737 0.014152769153404956 0.00011292679838444597 -0.0016215983320394015 -0.0014938994348356472 -0.00012885874613547104 C 0.00011292679838444597 -0.0016215983320394015 0.01939484159702557 -0.0024455752536551812 0.017788015363805476 -0.0022673662915382803" fill="none" stroke="#000000" stroke-width="0.001"/>
<path d="M 0.017788015363805476 -0.0022673662915382803 C 0.017788015363805476 -0.0021268430956038068 0.017788015363805476 -0.0003843554660163313 0.017788015363805476 -0.0005810879403245952 C 0.017788015363805476 -0.0003843554660163313 0.017788015363805476 0.00014963267853467728 0.017788015363805476 9.34234001608871E-05" fill="none" stroke="#000000" stroke-width="0.001"/>
<path d="M 0.017788015363805476 9.34234001608871E-05 C 0.01643633273491088 0.00022883666169774407 0.0002161411881757508 0.002860452876470619 0.001567823817070345 0.0017183825386031708 C 0.0002161411881757508 0.002860452876470619 0.0029195064459649396 0.014940337792437714 0.001567823817070345 0.013798267454570266 C 0.0029195064459649396 0.014940337792437714 0.019139697992700076 0.015558639854549404 0.01778801536380548 0.015423226593012547" fill="none" stroke="#000000" stroke-width="0.001"/>
<path d="M 0.01778801536380548 0.015423226593012547 C 0.01778801536380548 0.015479435871386336 0.01778801536380548 0.016294470407806284 0.01778801536380548 0.01609773793349802 C 0.01778801536380548 0.016294470407806284 0.01778801536380548 0.017924539480646175 0.01778801536380548 0.017784016284711702" fill="none" stroke="#000000" stroke-width="0.001"/>
</g><g transform="translate(0.3211203609757883,0.35415849746305705) rotate(0) scale(1,1) translate(-0.0022536622055164745,-0.002253662205516475)"><path d="M 0.004305763499457965 0.003720466724257685 C 0.003975856157225732 0.0036994546186696065 1.696805043893072E-05 0.0032448661429986194 0.00034687539267116426 0.0034683214572007424 C 1.696805043893072E-05 0.0032448661429986194 0.0006767827349033965 0.0008155476396300836 0.00034687539267116307 0.0010390029538322066 C 0.0006767827349033965 0.0008155476396300836 0.004635670841690199 0.0007658455811871882 0.004305763499457965 0.0007868576867752666" fill="none" stroke="#000000" stroke-width="0.001"/>
<path d="M 0.004305763499457965 0.0007868576867752666 C 0.0043717449679044115 0.0009090913966703672 0.005097541120815322 0.0024981296253066753 0.005097541120815322 0.0022536622055164737 C 0.005097541120815322 0.0024981296253066753 0.004239782031011519 0.003842700434152786 0.004305763499457965 0.003720466724257685" fill="none" stroke="#000000" stroke-width="0.001"/>
</g><g transform="translate(0.35466102320525866,0.354158497463057) rotate(0) scale(1,1) translate(-0.006469483550722008,-0.0064694835507220095)"><path d="M 0.008045289603892378 -0.002492555238945108 C 0.008570558288282501 0.0004947910242772647 0.007520020919502254 0.0184188686036115 0.008045289603892378 0.015431522340389126 C 0.007520020919502254 0.0184188686036115 0.004368408813161513 0.012444176077166759 0.004893677497551636 0.015431522340389131 C 0.004368408813161513 0.012444176077166759 0.005418946181941759 -0.0054799015021674835 0.004893677497551636 -0.0024925552389451103 C 0.005418946181941759 -0.0054799015021674835 0.008570558288282501 0.0004947910242772647 0.008045289603892378 -0.002492555238945108 Z" fill="#cccccc" stroke="#000000" stroke-width="0.001"/>
</g><g transform="translate(0.30904483871416494,0.354158497463057) rotate(0) scale(1,1) translate(-0.009906215631991292,-0.007758324996586713)"><path d="M 0.009906215631991292 0.01778401628471169 C 0.008942119892059236 0.017390487206418476 -0.002627028987125439 0.011784247875465483 -0.0016629332471933826 0.013061667345193097 C -0.002627028987125439 0.011784247875465483 -0.0006988375072613297 0.0011775631782526947 -0.0016629332471933857 0.00245498264798031 C -0.0006988375072613297 0.0011775631782526947 0.010870311371923345 -0.0026608953698315043 0.009906215631991289 -0.0022673662915382877" fill="none" stroke="#000000" stroke-width="0.001"/>
<path d="M 0.009906215631991289 -0.0022673662915382877 C 0.009906215631991289 -0.0021268430956038137 0.009906215631991289 -0.00038435546601633833 0.009906215631991289 -0.0005810879403246024 C 0.009906215631991289 -0.00038435546601633833 0.009906215631991292 0.00014963267853467037 0.009906215631991292 9.342340016088016E-05" fill="none" stroke="#000000" stroke-width="0.001"/>
<path d="M 0.009906215631991292 9.342340016088016E-05 C 0.009123077209826596 0.0004106489962538049 -0.00027458385614975895 0.004860388556587356 0.0005085545660149372 0.003900130553275977 C -0.00027458385614975895 0.004860388556587356 0.0012916929881796333 0.012576777443208818 0.0005085545660149372 0.011616519439897437 C 0.0012916929881796333 0.012576777443208818 0.010689354054155989 0.015740452189105466 0.009906215631991292 0.01542322659301254" fill="none" stroke="#000000" stroke-width="0.001"/>
<path d="M 0.009906215631991292 0.01542322659301254 C 0.009906215631991292 0.01547943587138633 0.009906215631991292 0.016294470407806273 0.009906215631991292 0.016097737933498012 C 0.009906215631991292 0.016294470407806273 0.009906215631991292 0.017924539480646165 0.009906215631991292 0.01778401628471169" fill="none" stroke="#000000" stroke-width="0.001"/>
</g><g transform="translate(0.36564206694317647,0.354158497463057) rotate(0) scale(1,1) translate(-0.005610434361182026,-0.007758324996586713)"><path d="M 0.005610434361182026 0.01778401628471169 C 0.005610434361182026 0.017643493088777218 0.005610434361182026 0.01590100545918975 0.005610434361182026 0.016097737933498012 C 0.005610434361182026 0.01590100545918975 0.005610434361182026 0.015367017314638751 0.005610434361182026 0.01542322659301254" fill="none" stroke="#000000" stroke-width="0.001"/>
<path d="M 0.005610434361182026 0.01542322659301254 C 0.006393572783346738 0.015106000996919614 0.01579123384932328 0.010656261436586056 0.015008095427158568 0.011616519439897437 C 0.01579123384932328 0.010656261436586056 0.014224957004993856 0.0029398725499645974 0.015008095427158568 0.003900130553275977 C 0.014224957004993856 0.0029398725499645974 0.004827295939017314 -0.00022380219593204457 0.005610434361182026 9.342340016088016E-05" fill="none" stroke="#000000" stroke-width="0.001"/>
<path d="M 0.005610434361182026 9.342340016088016E-05 C 0.005610434361182026 3.721412178708995E-05 0.005610434361182026 -0.0007778204146328664 0.005610434361182026 -0.0005810879403246024 C 0.005610434361182026 -0.0007778204146328664 0.005610434361182026 -0.0024078894874727617 0.005610434361182026 -0.0022673662915382877" fill="none" stroke="#000000" stroke-width="0.001"/>
<path d="M 0.005610434361182026 -0.0022673662915382877 C 0.0065745301011140905 -0.0018738372132450713 0.018143678980298866 0.0037324021177079256 0.0171795832403668 0.00245498264798031 C 0.018143678980298866 0.0037324021177079256 0.016215487500434736 0.014339086814920712 0.0171795832403668 0.013061667345193097 C 0.016215487500434736 0.014339086814920712 0.004646338621249962 0.018177545363004907 0.005610434361182026 0.01778401628471169" fill="none" stroke="#000000" stroke-width="0.001"/>
</g></g>
</svg>
