<?xml version="1.0" encoding="UTF-8"?>
<svg xmlns="http://www.w3.org/2000/svg" viewBox="0 0 1 1">
<g id="胴2">
<g transform="translate(0.33734345282867056,0.295808172647904) rotate(0) scale(1,1) translate(-0.0402294982899809,-0.04022949828998091)"><path d="M 0.024235086749278517 0.05622390983068304 C 0.022808918386899222 0.05489104220229119 0.006575043516945804 0.03689786584867865 0.007121066400726989 0.0402294982899809 C 0.006575043516945804 0.03689786584867865 0.018562957622502405 0.014245555722145567 0.017682812143904297 0.01624432053505598" fill="none" stroke="#000000" stroke-width="0.001"/>
<path d="M 0.017682812143904297 0.01624432053505598 C 0.019561702656077345 0.01682805770861711 0.04398727931432695 0.023249166617789536 0.04022949828998086 0.023249166617789536 C 0.04398727931432695 0.023249166617789536 0.06465507494823038 0.015660583361494847 0.06277618443605734 0.01624432053505598" fill="none" stroke="none" stroke-width="0"/>
<path d="M 0.06277618443605734 0.01624432053505598 C 0.06365632991465547 0.018243085347966388 0.07279190729545368 0.043561130731283156 0.07333793017923484 0.0402294982899809 C 0.07279190729545368 0.043561130731283156 0.054797741468304025 0.057556777459074886 0.056223909830683316 0.05622390983068304" fill="none" stroke="#000000" stroke-width="0.001"/>
<path d="M 0.056223909830683316 0.05622390983068304 C 0.05489104220229145 0.05643122094489167 0.03756376303319717 0.0587116432011866 0.0402294982899809 0.0587116432011866 C 0.03756376303319717 0.0587116432011866 0.022902219120886653 0.05601659871647441 0.024235086749278517 0.05622390983068304" fill="none" stroke="#000000" stroke-width="0.001"/>
</g><g transform="translate(0.3050490507023785,0.2894329155089062) rotate(0) scale(1,1) translate(-0.05155166661458933,-0.07747081160188365)"><path d="M 0.058978283022528985 0.06637624614374282 C 0.059178912036892614 0.06776558335839193 0.060119372604059466 0.08559371800709141 0.06138583119489256 0.08304829271953218 C 0.060119372604059466 0.08559371800709141 0.04231369232733514 0.09807743766736376 0.04378077993253186 0.09692134959445364" fill="none" stroke="#000000" stroke-width="0.001"/>
<path d="M 0.04378077993253186 0.09692134959445364 C 0.04378005837815196 0.09599414171138697 0.0438008104694828 0.08421292927445272 0.043772121279972986 0.0857948549976536 C 0.0438008104694828 0.08421292927445272 0.04415446095053939 0.07728352307590873 0.04412505020664967 0.07793824091604296" fill="none" stroke="#000000" stroke-width="0.001"/>
</g><g transform="translate(0.3696378549549625,0.2894329155089062) rotate(0) scale(1,1) translate(-0.05155166661458933,-0.07747081160188365)"><path d="M 0.05897828302252894 0.07793824091604296 C 0.05900769376641867 0.07859295875617718 0.059359901138715476 0.08737678072085449 0.05933121194920565 0.0857948549976536 C 0.059359901138715476 0.08737678072085449 0.05932183174226691 0.09784855747752032 0.05932255329664682 0.09692134959445364" fill="none" stroke="#000000" stroke-width="0.001"/>
<path d="M 0.05932255329664682 0.09692134959445364 C 0.057855465691450086 0.09576526152154352 0.04045104344345294 0.08050286743197295 0.041717502034286036 0.08304829271953218 C 0.04045104344345294 0.08050286743197295 0.04432567922101333 0.06498690892909371 0.044125050206649696 0.06637624614374282" fill="none" stroke="#000000" stroke-width="0.001"/>
</g><g transform="translate(0.3373434528286705,0.28990034482306554) rotate(0) scale(1,1) translate(-0.08384606874088135,-0.07793824091604294)"><path d="M 0.058978283022528985 0.06670614860538804 C 0.058359398321867345 0.06718644418981375 0.050313897213266054 0.07340570331105116 0.05155166661458933 0.07246969561849659 C 0.050313897213266054 0.07340570331105116 0.04350616550598803 0.07839395302417182 0.04412505020664967 0.07793824091604296" fill="none" stroke="#000000" stroke-width="0.001"/>
<path d="M 0.04412505020664967 0.07793824091604296 C 0.044568517491599215 0.07628319847711663 0.05110170006497051 0.05521111405602406 0.04944665762604419 0.058077731648927156 C 0.05110170006497051 0.05521111405602406 0.06685217706666859 0.0418837873622795 0.0639855594737655 0.043538829801205825 C 0.06685217706666859 0.0418837873622795 0.08715615361873397 0.03821722238181124 0.08384606874088132 0.038217222381811244 C 0.08715615361873397 0.03821722238181124 0.10657319560090027 0.04519387224013203 0.10370657800799717 0.043538829801205714 C 0.10657319560090027 0.04519387224013203 0.11990052229464482 0.06094434924183015 0.1182454798557185 0.058077731648927045 C 0.11990052229464482 0.06094434924183015 0.1240105545600626 0.07959328335496928 0.12356708727511305 0.07793824091604296" fill="none" stroke="#000000" stroke-width="0.001"/>
<path d="M 0.12356708727511305 0.07793824091604296 C 0.12294820257445141 0.07748252880791409 0.11490270146585005 0.07153368792594202 0.11614047086717333 0.07246969561849659 C 0.11490270146585005 0.07153368792594202 0.10809496975857198 0.06622585302096233 0.10871385445923362 0.06670614860538804" fill="none" stroke="#000000" stroke-width="0.001"/>
<path d="M 0.10871385445923362 0.06670614860538804 C 0.10834396995223598 0.06642276405546668 0.10353547136126667 0.06276625677829281 0.10427524037526195 0.06330553400633177 C 0.10353547136126667 0.06276625677829281 0.09946674178429264 0.059978929190803 0.09983662629129028 0.060234821868920596" fill="none" stroke="#000000" stroke-width="0.001"/>
<path d="M 0.09983662629129028 0.060234821868920596 C 0.0985040798287562 0.06078739813556805 0.08118097581581321 0.06686573706869 0.08384606874088135 0.06686573706869 C 0.08118097581581321 0.06686573706869 0.06652296472793845 0.05968224560227314 0.06785551119047252 0.060234821868920596" fill="none" stroke="none" stroke-width="0"/>
<path d="M 0.06785551119047252 0.060234821868920596 C 0.06748562668347487 0.060490714547038194 0.06267712809250546 0.06384481123437072 0.06341689710650075 0.06330553400633177 C 0.06267712809250546 0.06384481123437072 0.05860839851553134 0.0669895331553094 0.058978283022528985 0.06670614860538804" fill="none" stroke="#000000" stroke-width="0.001"/>
</g></g>
<g id="胴1">
<g transform="translate(0.33734345282867056,0.2712976456560574) rotate(0) scale(1,1) translate(-0.08384606874088137,-0.07793824091604294)"><path d="M 0.06118744869195203 0.0599102932223502 C 0.06042342430116086 0.060792824383839865 0.0525281723074301 0.07231255856565505 0.05201915600245793 0.07050066716022618 C 0.0525281723074301 0.07231255856565505 0.06856868504738149 0.08258235033143581 0.06729564435161814 0.0816529900874966" fill="none" stroke="none" stroke-width="0"/>
<path d="M 0.06729564435161814 0.0816529900874966 C 0.06867484638405674 0.0816529900874966 0.08660447280575856 0.0816529900874966 0.08384606874088135 0.0816529900874966 C 0.08660447280575856 0.0816529900874966 0.10177569516258315 0.0816529900874966 0.10039649313014455 0.0816529900874966" fill="none" stroke="none" stroke-width="0"/>
<path d="M 0.10039649313014455 0.0816529900874966 C 0.1016695338259079 0.0807236298435574 0.116181997784277 0.06868877575479732 0.11567298147930481 0.07050066716022618 C 0.116181997784277 0.06868877575479732 0.10574066439901963 0.05902776206086053 0.1065046887898108 0.0599102932223502" fill="none" stroke="none" stroke-width="0"/>
<path d="M 0.1065046887898108 0.0599102932223502 C 0.10461647045240002 0.06019037217129655 0.08006963206605983 0.06327124060970646 0.0838460687408814 0.06327124060970646 C 0.08006963206605983 0.06327124060970646 0.05929923035454125 0.05963021427340384 0.06118744869195203 0.0599102932223502" fill="none" stroke="none" stroke-width="0"/>
</g><g transform="translate(0.3373434528286706,0.27720547348089586) rotate(0) scale(1,1) translate(-0.0402294982899809,-0.04022949828998091)"><path d="M 0.024235086749278517 0.05622390983068304 C 0.022808918386899222 0.05529722188047336 0.006575043516945804 0.04332959770624967 0.007121066400726989 0.045103654428166884 C 0.006575043516945804 0.04332959770624967 0.018562957622502405 0.0340878603959689 0.017682812143904297 0.03493522916767644" fill="none" stroke="#000000" stroke-width="0.001"/>
<path d="M 0.017682812143904297 0.03493522916767644 C 0.018622257399990818 0.03493522916767644 0.030835045729115603 0.03516429102030399 0.02895615521694256 0.03493522916767644 C 0.030835045729115603 0.03516429102030399 0.041168943546067344 0.03791303325183455 0.04022949828998082 0.037683971399207004" fill="none" stroke="#000000" stroke-width="0.001"/>
<path d="M 0.04022949828998082 0.037683971399207004 C 0.041168943546067344 0.03745490954657946 0.05338173187519212 0.03470616731504889 0.05150284136301908 0.03493522916767644 C 0.05338173187519212 0.03470616731504889 0.06371562969214387 0.03493522916767644 0.06277618443605734 0.03493522916767644" fill="none" stroke="#000000" stroke-width="0.001"/>
<path d="M 0.06277618443605734 0.03493522916767644 C 0.06365632991465547 0.03578259793938398 0.07279190729545368 0.0468777111500841 0.07333793017923484 0.045103654428166884 C 0.07279190729545368 0.0468777111500841 0.054797741468304025 0.057150597780892716 0.056223909830683316 0.05622390983068304" fill="none" stroke="#000000" stroke-width="0.001"/>
<path d="M 0.056223909830683316 0.05622390983068304 C 0.05489104220229145 0.05639964129691827 0.03756376303319717 0.05833268742550579 0.0402294982899809 0.05833268742550579 C 0.03756376303319717 0.05833268742550579 0.022902219120886653 0.05604817836444781 0.024235086749278517 0.05622390983068304" fill="none" stroke="#000000" stroke-width="0.001"/>
</g><g transform="translate(0.3630581704407646,0.25679982260832324) rotate(0) scale(1,1) translate(-0.05663312775062244,-0.08353230035424879)"><path d="M 0.06690110369474611 0.08614148627707752 C 0.06643447709186769 0.08699915432357491 0.058246361281262204 0.09799837018131766 0.06130158446020506 0.09643350283504626 C 0.058246361281262204 0.09799837018131766 0.02768159032441523 0.1043079216316783 0.030238425547431853 0.10491989443233429 C 0.02768159032441523 0.1043079216316783 0.03224729444734285 0.08700970293994599 0.0306195617840056 0.08908982922717434 C 0.03224729444734285 0.08700970293994599 0.05136718881776837 0.07919742479879575 0.049771217507478926 0.0799583789855941" fill="none" stroke="#000000" stroke-width="0.001"/>
<path d="M 0.049771217507478926 0.0799583789855941 C 0.05024910511269277 0.07961632975391371 0.05651406440503226 0.07553966595346225 0.05550586877004504 0.07585378820542943 C 0.05651406440503226 0.07553966595346225 0.06272452257943874 0.07654851279957943 0.061869565127325554 0.07618891196198785 C 0.06272452257943874 0.07654851279957943 0.06618465307602157 0.0809983794494526 0.06576535819540319 0.08016899825652846 C 0.06618465307602157 0.0809983794494526 0.06699574915302468 0.08663919361212327 0.06690110369474611 0.08614148627707752" fill="none" stroke="#000000" stroke-width="0.001"/>
</g><g transform="translate(0.3116287352165765,0.25679982260832324) rotate(0) scale(1,1) translate(-0.05663312775062244,-0.08353230035424879)"><path d="M 0.046365151806498764 0.08614148627707752 C 0.04645979726477734 0.08564377894203176 0.04792019218646011 0.07933961706360432 0.04750089730584173 0.08016899825652846 C 0.04792019218646011 0.07933961706360432 0.05225164782603257 0.07582931112439627 0.05139669037391939 0.07618891196198785 C 0.05225164782603257 0.07582931112439627 0.05876858236618705 0.07616791045739661 0.05776038673119984 0.07585378820542943 C 0.05876858236618705 0.07616791045739661 0.06397292559897981 0.0803004282172745 0.06349503799376596 0.0799583789855941" fill="none" stroke="#000000" stroke-width="0.001"/>
<path d="M 0.06349503799376596 0.0799583789855941 C 0.06509100930405541 0.08071933317239245 0.08427442638057661 0.0911699555144027 0.08264669371723934 0.08908982922717434 C 0.08427442638057661 0.0911699555144027 0.08047099473079648 0.10553186723299028 0.08302782995381311 0.10491989443233429 C 0.08047099473079648 0.10553186723299028 0.04890944786209697 0.09486863548877486 0.051964671041039835 0.09643350283504626 C 0.04890944786209697 0.09486863548877486 0.04589852520362034 0.08528381823058012 0.046365151806498764 0.08614148627707752" fill="none" stroke="#000000" stroke-width="0.001"/>
</g><g transform="translate(0.3373434528286706,0.25326969796236465) rotate(0) scale(1,1) translate(-0.0402294982899809,-0.04022949828998091)"><path d="M 0.024235086749278517 0.04659384055924565 C 0.022808918386899222 0.0453156997904112 0.006575043516945804 0.02998432805078935 0.007121066400726989 0.03125615133323234 C 0.006575043516945804 0.02998432805078935 0.018562957622502405 0.03133827865632121 0.017682812143904297 0.031331961169929756" fill="none" stroke="#000000" stroke-width="0.001"/>
<path d="M 0.017682812143904297 0.031331961169929756 C 0.019561702656077342 0.031775960140379866 0.04398727931432691 0.03665994881533104 0.04022949828998082 0.03665994881533104 C 0.04398727931432691 0.03665994881533104 0.06465507494823039 0.03088796219947965 0.06277618443605734 0.031331961169929756" fill="none" stroke="none" stroke-width="0"/>
<path d="M 0.06277618443605734 0.031331961169929756 C 0.06365632991465547 0.0313256436835383 0.07279190729545368 0.03252797461567533 0.07333793017923484 0.03125615133323234 C 0.07279190729545368 0.03252797461567533 0.054797741468304025 0.04787198132808009 0.056223909830683316 0.04659384055924565" fill="none" stroke="#000000" stroke-width="0.001"/>
<path d="M 0.056223909830683316 0.04659384055924565 C 0.05489104220229145 0.04678449945161054 0.03756376303319717 0.0488817472676244 0.0402294982899809 0.0488817472676244 C 0.03756376303319717 0.0488817472676244 0.022902219120886653 0.046403181666880754 0.024235086749278517 0.04659384055924565" fill="none" stroke="#000000" stroke-width="0.001"/>
</g><g transform="translate(0.30504905070237853,0.2708302163418981) rotate(0) scale(1,1) translate(-0.05155166661458933,-0.07747081160188365)"><path d="M 0.04412505020664967 0.0779335666229013 C 0.04474393490731131 0.07745663433854393 0.0527894360159126 0.07125651464189804 0.05155166661458933 0.0722103792106128 C 0.0527894360159126 0.07125651464189804 0.059597167723190625 0.06601025951396693 0.058978283022528985 0.0664871917983243" fill="none" stroke="#000000" stroke-width="0.001"/>
<path d="M 0.058978283022528985 0.0664871917983243 C 0.059178912036892614 0.06786263564082691 0.060119372604059466 0.08551248894303935 0.06138583119489256 0.08299251790835571 C 0.060119372604059466 0.08551248894303935 0.04231369232733514 0.09787137140670894 0.04378077993253186 0.09672684421452793" fill="none" stroke="#000000" stroke-width="0.001"/>
<path d="M 0.04378077993253186 0.09672684421452793 C 0.04378005837815196 0.09580890841029192 0.0438008104694828 0.08414550809772703 0.043772121279972986 0.08571161456369591 C 0.0438008104694828 0.08414550809772703 0.04415446095053939 0.07728539596116842 0.04412505020664967 0.0779335666229013" fill="none" stroke="#000000" stroke-width="0.001"/>
</g><g transform="translate(0.36963785495496254,0.2708302163418981) rotate(0) scale(1,1) translate(-0.05155166661458933,-0.07747081160188365)"><path d="M 0.044125050206649696 0.0664871917983243 C 0.04474393490731133 0.06696412408268167 0.05278943601591259 0.07316424377932755 0.05155166661458932 0.0722103792106128 C 0.05278943601591259 0.07316424377932755 0.059597167723190576 0.07841049890725867 0.05897828302252894 0.0779335666229013" fill="none" stroke="#000000" stroke-width="0.001"/>
<path d="M 0.05897828302252894 0.0779335666229013 C 0.05900769376641867 0.07858173728463418 0.059359901138715476 0.0872777210296648 0.05933121194920565 0.08571161456369591 C 0.059359901138715476 0.0872777210296648 0.05932183174226691 0.09764478001876394 0.05932255329664682 0.09672684421452793" fill="none" stroke="#000000" stroke-width="0.001"/>
<path d="M 0.05932255329664682 0.09672684421452793 C 0.057855465691450086 0.09558231702234692 0.04045104344345294 0.08047254687367207 0.041717502034286036 0.08299251790835571 C 0.04045104344345294 0.08047254687367207 0.04432567922101333 0.06511174795582168 0.044125050206649696 0.0664871917983243" fill="none" stroke="#000000" stroke-width="0.001"/>
</g><g transform="translate(0.30504905070237853,0.25225764694992303) rotate(0) scale(1,1) translate(-0.05155166661458933,-0.07747081160188365)"><path d="M 0.04378077993253186 0.09672684421452793 C 0.04392673367702167 0.09553587680714931 0.045947072468968696 0.08034590566679192 0.045532224866409524 0.08243523532598444 C 0.045947072468968696 0.08034590566679192 0.04952794716141122 0.0698181784003776 0.048758951163241915 0.07165488830421775 C 0.04952794716141122 0.0698181784003776 0.05526027898454112 0.059456368827876464 0.05476017684444118 0.060394716479902716" fill="none" stroke="#000000" stroke-width="0.001"/>
<path d="M 0.05476017684444118 0.060394716479902716 C 0.05486285497410808 0.06099777937713472 0.05637033092870034 0.06853461808755199 0.055992314400444027 0.06763147124668678 C 0.05637033092870034 0.06853461808755199 0.05957171358210637 0.07153256251391833 0.05929637518351696 0.07123247857028514" fill="none" stroke="#000000" stroke-width="0.001"/>
<path d="M 0.05929637518351696 0.07123247857028514 C 0.05956242933711004 0.07215717699978749 0.06119605875571858 0.08445339019466692 0.062489025026634004 0.08232885972431336 C 0.06119605875571858 0.08445339019466692 0.04222175950802335 0.09792667625537914 0.04378077993253186 0.09672684421452793" fill="none" stroke="#000000" stroke-width="0.001"/>
</g><g transform="translate(0.36963785495496254,0.25225764694992303) rotate(0) scale(1,1) translate(-0.05155166661458933,-0.07747081160188365)"><path d="M 0.05932255329664682 0.09672684421452793 C 0.057763532872138305 0.09552701217367672 0.03932134193162921 0.0802043292539598 0.040614308202544636 0.08232885972431336 C 0.03932134193162921 0.0802043292539598 0.0440730121992548 0.07030778014078279 0.04380695804566171 0.07123247857028514" fill="none" stroke="#000000" stroke-width="0.001"/>
<path d="M 0.04380695804566171 0.07123247857028514 C 0.04408229644425112 0.07093239462665195 0.047489035356990957 0.06672832440582158 0.04711101882873464 0.06763147124668678 C 0.047489035356990957 0.06672832440582158 0.048445834514404366 0.05979165358267071 0.04834315638473746 0.060394716479902716" fill="none" stroke="#000000" stroke-width="0.001"/>
<path d="M 0.04834315638473746 0.060394716479902716 C 0.0488432585248374 0.06133306413192897 0.05511337806410604 0.07349159820805791 0.05434438206593673 0.07165488830421776 C 0.05511337806410604 0.07349159820805791 0.05798595596532831 0.08452456498517696 0.05757110836276914 0.08243523532598446 C 0.05798595596532831 0.08452456498517696 0.059468507041136626 0.09791781162190655 0.05932255329664682 0.09672684421452793" fill="none" stroke="#000000" stroke-width="0.001"/>
</g></g>
<g id="輪1">
<g transform="translate(0.33734345282867056,0.2987184133228051) rotate(0) scale(1,1) translate(-0.011152769902399133,-0.011152769902399133)"><path d="M -0.03339206719741292 0.0036379467709381757 C -0.029679997439095246 0.0036379467709381757 0.01857690941903449 0.0036379467709381757 0.011152769902399152 0.0036379467709381757 C 0.01857690941903449 0.0036379467709381757 0.059409676760528815 0.0036379467709381757 0.05569760700221115 0.0036379467709381757" fill="none" stroke="#000000" stroke-width="0.001"/>
<path d="M 0.05569760700221115 0.0036379467709381757 C 0.05569760700221116 0.0042641820318932554 0.055697607002211234 0.012405240424309292 0.055697607002211234 0.011152769902399133 C 0.055697607002211234 0.012405240424309292 0.055697607002211144 0.01929382829481517 0.05569760700221115 0.01866759303386009" fill="none" stroke="#000000" stroke-width="0.001"/>
<path d="M 0.05569760700221115 0.01866759303386009 C 0.05198553724389348 0.01866759303386009 0.0037286303857637917 0.01866759303386009 0.011152769902399131 0.01866759303386009 C 0.0037286303857637917 0.01866759303386009 -0.03710413695573059 0.01866759303386009 -0.03339206719741292 0.01866759303386009" fill="none" stroke="#000000" stroke-width="0.001"/>
<path d="M -0.03339206719741292 0.01866759303386009 C -0.03339206719741292 0.018041357772905012 -0.03339206719741292 0.009900299380488987 -0.03339206719741292 0.011152769902399147 C -0.03339206719741292 0.009900299380488987 -0.03339206719741292 0.0030117115099830946 -0.03339206719741292 0.0036379467709381757" fill="none" stroke="#000000" stroke-width="0.001"/>
</g><g transform="translate(0.32590266758187986,0.2987184133228052) rotate(0) scale(1,1) translate(-0.00775832499658671,-0.0077583249965867095)"><path d="M 0.020279529995760513 0.01769756519342082 C 0.018273545770169892 0.017520892919279846 -0.00579826493691755 0.014097630145064427 -0.003792280711326929 0.01557749790372914 C -0.00579826493691755 0.014097630145064427 -0.0017862964857363155 -0.0015407156692204332 -0.003792280711326935 -6.084791055572126E-05 C -0.0017862964857363155 -0.0015407156692204332 0.022285514221351128 -0.002357587474388377 0.020279529995760506 -0.0021809152002474036" fill="none" stroke="#000000" stroke-width="0.001"/>
<path d="M 0.020279529995760506 -0.0021809152002474036 C 0.020279529995760506 -0.002041603729598607 0.020279529995760506 -0.0003141414935535329 0.020279529995760506 -0.0005091775524618484 C 0.020279529995760506 -0.0003141414935535329 0.020279529995760506 0.0002152420949119012 0.020279529995760506 0.00015951750665238202" fill="none" stroke="#000000" stroke-width="0.001"/>
<path d="M 0.020279529995760506 0.00015951750665238202 C 0.01859207059566493 0.0002937631056412225 -0.0016574422054820017 0.0029026870105186833 3.0017194613575927E-05 0.0017704646945184681 C -0.0016574422054820017 0.0029026870105186833 0.001717476594709154 0.014878407614655182 3.0017194613575927E-05 0.013746185298654966 C 0.001717476594709154 0.014878407614655182 0.02196698939585609 0.015491378085509896 0.020279529995760513 0.015357132486521055" fill="none" stroke="#000000" stroke-width="0.001"/>
<path d="M 0.020279529995760513 0.015357132486521055 C 0.020279529995760513 0.015412857074780573 0.020279529995760513 0.016220863604543584 0.020279529995760513 0.01602582754563527 C 0.020279529995760513 0.016220863604543584 0.020279529995760513 0.017836876664069617 0.020279529995760513 0.01769756519342082" fill="none" stroke="#000000" stroke-width="0.001"/>
</g><g transform="translate(0.31575910300496085,0.2987184133228052) rotate(0) scale(1,1) translate(-0.0022536622055164745,-0.002253662205516475)"><path d="M 0.004815534012097118 0.003707818533952268 C 0.0044036730959990805 0.0036869876148186895 -0.0005386578971773694 0.003236319035410272 -0.0001267969810793319 0.0034578475043493258 C -0.0005386578971773694 0.003236319035410272 0.0002850639350187046 0.000827948437744568 -0.00012679698107933288 0.0010494769066836216 C 0.0002850639350187046 0.000827948437744568 0.005227394928195156 0.0007786749579471054 0.004815534012097118 0.0007995058770806835" fill="none" stroke="#000000" stroke-width="0.001"/>
<path d="M 0.004815534012097118 0.0007995058770806835 C 0.004897906195316725 0.0009206855711169994 0.005804000210732406 0.0024960215935891056 0.005804000210732406 0.0022536622055164737 C 0.005804000210732406 0.0024960215935891056 0.004733161828877511 0.0038289982279885843 0.004815534012097118 0.003707818533952268" fill="none" stroke="#000000" stroke-width="0.001"/>
</g><g transform="translate(0.3618097785869619,0.2987184133228051) rotate(0) scale(1,1) translate(-0.006469483550722008,-0.0064694835507220095)"><path d="M 0.008476086915974223 -0.0024152759759704357 C 0.009144954704391627 0.0005463105329270457 0.007807219127556818 0.018315829586311935 0.008476086915974223 0.015354243077414452 C 0.007807219127556818 0.018315829586311935 0.003794012397052392 0.012392656568516973 0.0044628801854697964 0.015354243077414455 C 0.003794012397052392 0.012392656568516973 0.005131747973887201 -0.00537686248486792 0.0044628801854697964 -0.0024152759759704374 C 0.005131747973887201 -0.00537686248486792 0.009144954704391627 0.0005463105329270457 0.008476086915974223 -0.0024152759759704357 Z" fill="#cccccc" stroke="#000000" stroke-width="0.001"/>
</g><g transform="translate(0.29736306895393777,0.2987184133228052) rotate(0) scale(1,1) translate(-0.009906215631991292,-0.007758324996586713)"><path d="M 0.009906215631991292 0.01769756519342082 C 0.00870262509663692 0.017307429498914857 -0.005740461327615543 0.011749532521049552 -0.004536870792261171 0.013015936859349276 C -0.005740461327615543 0.011749532521049552 -0.0033332802569068032 0.001234308795524412 -0.004536870792261174 0.0025007131338241357 C -0.0033332802569068032 0.001234308795524412 0.011109806167345656 -0.0025710508947533704 0.009906215631991285 -0.0021809152002474083" fill="none" stroke="#000000" stroke-width="0.001"/>
<path d="M 0.009906215631991285 -0.0021809152002474083 C 0.009906215631991285 -0.002041603729598612 0.009906215631991285 -0.0003141414935535372 0.009906215631991285 -0.0005091775524618527 C 0.009906215631991285 -0.0003141414935535372 0.009906215631991292 0.00021524209491189687 0.009906215631991292 0.00015951750665237768" fill="none" stroke="#000000" stroke-width="0.001"/>
<path d="M 0.009906215631991292 0.00015951750665237768 C 0.008928534729826729 0.00047400768050064236 -0.0028036360961480314 0.004885377333972344 -0.0018259551939834682 0.0039333995928315536 C -0.0028036360961480314 0.004885377333972344 -0.0008482742918189048 0.012535228141482654 -0.0018259551939834682 0.011583250400341864 C -0.0008482742918189048 0.012535228141482654 0.010883896534155856 0.015671622660369314 0.009906215631991292 0.01535713248652105" fill="none" stroke="#000000" stroke-width="0.001"/>
<path d="M 0.009906215631991292 0.01535713248652105 C 0.009906215631991292 0.015412857074780567 0.009906215631991292 0.01622086360454358 0.009906215631991292 0.016025827545635266 C 0.009906215631991292 0.01622086360454358 0.009906215631991292 0.017836876664069617 0.009906215631991292 0.01769756519342082" fill="none" stroke="#000000" stroke-width="0.001"/>
</g><g transform="translate(0.37732383670340314,0.2987184133228051) rotate(0) scale(1,1) translate(-0.005610434361182026,-0.007758324996586713)"><path d="M 0.005610434361182026 0.01769756519342082 C 0.005610434361182026 0.017558253722772022 0.005610434361182026 0.01583079148672695 0.005610434361182026 0.016025827545635266 C 0.005610434361182026 0.01583079148672695 0.005610434361182026 0.015301407898261532 0.005610434361182026 0.01535713248652105" fill="none" stroke="#000000" stroke-width="0.001"/>
<path d="M 0.005610434361182026 0.01535713248652105 C 0.00658811526334661 0.015042642312672784 0.01832028608932161 0.010631272659201073 0.017342605187157027 0.011583250400341864 C 0.01832028608932161 0.010631272659201073 0.016364924284992442 0.002981421851690763 0.017342605187157027 0.0039333995928315536 C 0.016364924284992442 0.002981421851690763 0.004632753459017443 -0.000154972667195887 0.005610434361182026 0.00015951750665237768" fill="none" stroke="#000000" stroke-width="0.001"/>
<path d="M 0.005610434361182026 0.00015951750665237768 C 0.005610434361182026 0.00010379291839285849 0.005610434361182026 -0.0007042136113701682 0.005610434361182026 -0.0005091775524618527 C 0.005610434361182026 -0.0007042136113701682 0.005610434361182026 -0.002320226670896205 0.005610434361182026 -0.0021809152002474083" fill="none" stroke="#000000" stroke-width="0.001"/>
<path d="M 0.005610434361182026 -0.0021809152002474083 C 0.0068140248965364095 -0.0017907795057414463 0.021257111320789005 0.0037671174721238595 0.020053520785434622 0.0025007131338241357 C 0.021257111320789005 0.0037671174721238595 0.01884993025008024 0.014282341197649 0.020053520785434622 0.013015936859349276 C 0.01884993025008024 0.014282341197649 0.004406843825827643 0.018087700887926782 0.005610434361182026 0.01769756519342082" fill="none" stroke="#000000" stroke-width="0.001"/>
</g></g>
</svg>
