<?xml version="1.0" encoding="UTF-8"?>
<svg xmlns="http://www.w3.org/2000/svg" viewBox="0 0 1 1">
<g transform="translate(0.3257456317518053,0.1130072566562324) rotate(0) scale(1,1) translate(-0.14152185117886698,-0.14116273906070584)"><path d="M 0.13189398025221225 0.14152128608500533 C 0.1320638377702695 0.1409422222775161 0.13467478295918703 0.1336900036301274 0.13393227046889927 0.13457252039513456 C 0.13467478295918703 0.1336900036301274 0.14197577779397735 0.13082619305892967 0.1408041301356654 0.13093108490491925 C 0.14197577779397735 0.13082619305892967 0.14885431011859765 0.13394357602344725 0.14799204236864294 0.13331381824325977 C 0.14885431011859765 0.13394357602344725 0.15141461819899502 0.13891937493582826 0.15115134313512177 0.13848817826716914" fill="none" stroke="none" stroke-width="0"/>
<path d="M 0.15115134313512177 0.13848817826716914 C 0.15123459274369164 0.1392156041124309 0.1511371980440146 0.14355687716256207 0.15165084078654104 0.14285273333873974 C 0.1511371980440146 0.14355687716256207 0.14747259432886692 0.14268975918866372 0.14806948667996322 0.14271304121010314" fill="none" stroke="none" stroke-width="0"/>
<path d="M 0.14806948667996322 0.14271304121010314 C 0.1478773093795488 0.14246936156070045 0.14521518865145364 0.13942165565068373 0.14576335907499013 0.13978888541727086 C 0.14521518865145364 0.13942165565068373 0.14072483093238336 0.13823834066323623 0.1414914415975253 0.13830628401105763 C 0.14072483093238336 0.13823834066323623 0.13590818930868584 0.13915738771569613 0.1365640310932869 0.13897356524341406 C 0.13590818930868584 0.13915738771569613 0.13337611593973128 0.1406403693813615 0.13362134018231248 0.14051215367844247" fill="none" stroke="#000000" stroke-width="0.001"/>
<path d="M 0.13362134018231248 0.14051215367844247 C 0.1337382318655292 0.14071087887110406 0.13527141730522463 0.14324901058540607 0.13502404038091298 0.14289685599038165 C 0.13527141730522463 0.14324901058540607 0.13672034851514703 0.1448914382210982 0.1365898632740521 0.1447380088187354" fill="none" stroke="#000000" stroke-width="0.001"/>
<path d="M 0.1365898632740521 0.1447380088187354 C 0.13689422455297454 0.1448457130261537 0.14093541382892769 0.1460730058360448 0.14024219862112136 0.1460304593077551 C 0.14093541382892769 0.1460730058360448 0.14552477288680649 0.14498768571373816 0.14490844576772802 0.14524856715821166 C 0.14552477288680649 0.14498768571373816 0.14790154412608272 0.1426885881450639 0.14763812405006313 0.14289988197407297 C 0.14790154412608272 0.1426885881450639 0.14810543356578823 0.142697471146439 0.14806948667996322 0.14271304121010314" fill="none" stroke="none" stroke-width="0"/>
<path d="M 0.14806948667996322 0.14271304121010314 C 0.14866634540053988 0.1427363998404976 0.1519009827669745 0.14348075756430206 0.15165063900342324 0.14285319299246987 C 0.1519009827669745 0.14348075756430206 0.14922503430424533 0.14708263458253393 0.14957154926127075 0.1464784286410962" fill="none" stroke="none" stroke-width="0"/>
<path d="M 0.14957154926127075 0.1464784286410962 C 0.14932041645698632 0.14681606825337767 0.14575634405730478 0.15095336070947737 0.14655795560985743 0.15053010398847386 C 0.14575634405730478 0.15095336070947737 0.1389324419060575 0.15139561909381702 0.13995221063063903 0.15155750929313846 C 0.1389324419060575 0.15139561909381702 0.13364921171667676 0.1477510696626053 0.134320730914879 0.1485874215966164 C 0.13364921171667676 0.1477510696626053 0.13169175103032335 0.14093244145903774 0.13189398025221225 0.14152128608500533" fill="none" stroke="none" stroke-width="0"/>
<path d="M 0.13189398025221225 0.14152128608500533 C 0.13189398025221225 0.14152128608500533 0.13189398025221225 0.14152128608500533 0.13189398025221225 0.14152128608500533 C 0.13189398025221225 0.14152128608500533 0.13189398025221225 0.14152128608500533 0.13189398025221225 0.14152128608500533 C 0.13189398025221225 0.14152128608500533 0.13189398025221225 0.14152128608500533 0.13189398025221225 0.14152128608500533 C 0.13189398025221225 0.14152128608500533 0.13189398025221225 0.14152128608500533 0.13189398025221225 0.14152128608500533" fill="none" stroke="#000000" stroke-width="0.001"/>
</g><g transform="translate(0.32588449103078504,0.10825672161350267) rotate(0) scale(1,1) translate(-0.014991016181195468,-0.014142268789137224)"><path d="M 0.020746847081869232 0.018395806383560788 C 0.020543025482504938 0.018210599689669385 0.017808846200993923 0.01589885458420076 0.01830098788949771 0.016173326056863946 C 0.017808846200993923 0.01589885458420076 0.014241415837360768 0.015029918489144851 0.014841146819823781 0.015102148711602564 C 0.014241415837360768 0.015029918489144851 0.01052392217550405 0.01541978106519804 0.01110421609994154 0.01530656338737139 C 0.01052392217550405 0.01541978106519804 0.007608736695459934 0.016556943967034946 0.007877619726573904 0.016460760845522365" fill="none" stroke="none" stroke-width="0"/>
<path d="M 0.007877619726573904 0.016460760845522365 C 0.0081434838937923 0.016321269117274075 0.011670145472373095 0.014627755147575004 0.011067989733194651 0.014786860106542885 C 0.011670145472373095 0.014627755147575004 0.015727521264043517 0.01463549030087556 0.015103488596715231 0.014551501337907785 C 0.015727521264043517 0.01463549030087556 0.019026661614896943 0.016115086415960597 0.01855638174113411 0.01579472766215618 C 0.019026661614896943 0.016115086415960597 0.020929385860263827 0.01861256294367784 0.020746847081869232 0.018395806383560788" fill="none" stroke="#000000" stroke-width="0.001"/>
</g><g id="睫毛">
<g transform="translate(0.31942861325807537,0.11533268737507915) rotate(0) scale(1,1) translate(-0.008417252494995203,-0.005828091228850773)"><path d="M 0.006357228983867859 0.007195612556459623 C 0.0064645109774039 0.007098813372269452 0.007798887221376105 0.005895889957838 0.0076446129063003476 0.006034022346177576 C 0.007798887221376105 0.005895889957838 0.008255513086316661 0.005496690692235304 0.008208520764776945 0.00553802389638471" fill="none" stroke="#000000" stroke-width="0.001"/>
<path d="M 0.008208520764776945 0.00553802389638471 C 0.008239997759766896 0.005540031650554675 0.008630920564758239 0.0055940606868506906 0.008586244704656349 0.005562116946424297 C 0.008630920564758239 0.0055940606868506906 0.008741080968732471 0.005976020246997138 0.008744631085999618 0.005921348781501435 C 0.008741080968732471 0.005976020246997138 0.008526894315071492 0.006242910011612017 0.008543643297450578 0.006218174532372741" fill="none" stroke="#000000" stroke-width="0.001"/>
<path d="M 0.008543643297450578 0.006218174532372741 C 0.008486849768527045 0.006240614929489452 0.007679919757569631 0.006568912466447177 0.00786212095036819 0.0064874592977732706 C 0.007679919757569631 0.006568912466447177 0.006231821319992831 0.007254625328016819 0.006357228983867859 0.007195612556459623" fill="none" stroke="#000000" stroke-width="0.001"/>
</g><g transform="translate(0.320280698894987,0.116368074321959) rotate(0) scale(1,1) translate(-0.008417252494995203,-0.005828091228850773)"><path d="M 0.007106143950875672 0.00754239960356469 C 0.007167250604832228 0.007432078530208786 0.007927596070255581 0.006060780153725533 0.007839423798354343 0.0062185467232938356 C 0.007927596070255581 0.006060780153725533 0.008191276831635208 0.005601755272532665 0.008164211213690526 0.0056492007687450625" fill="none" stroke="#000000" stroke-width="0.001"/>
<path d="M 0.008164211213690526 0.0056492007687450625 C 0.00819066722437088 0.00564184661305475 0.008527391159627726 0.0055744458559202105 0.008481683341854762 0.005560950900461308 C 0.008527391159627726 0.0055744458559202105 0.008725115223241535 0.005857128752765377 0.008712705026966108 0.005811140234251889 C 0.008725115223241535 0.005857128752765377 0.008623764086342705 0.00613795252998743 0.00863060569715989 0.006112813122623158" fill="none" stroke="#000000" stroke-width="0.001"/>
<path d="M 0.00863060569715989 0.006112813122623158 C 0.008590179827645497 0.0061475215516881895 0.008018456784130166 0.006648446478148661 0.008145495262987183 0.006529314271403533 C 0.008018456784130166 0.006648446478148661 0.0070195313415330465 0.007626823381244787 0.007106143950875672 0.00754239960356469" fill="none" stroke="#000000" stroke-width="0.001"/>
</g><g transform="translate(0.3210173225827544,0.11061186385157179) rotate(0) scale(1,1) translate(-0.008380251738491874,-0.0057170889593407765)"><path d="M 0.004485078107757478 0.005503198035997229 C 0.0047403961458298465 0.005493574274352037 0.007861179989684853 0.005375364325467158 0.0075488945646259 0.005387712896254932 C 0.007861179989684853 0.005375364325467158 0.008289470595451499 0.005352290377401366 0.008232503208464914 0.005355015186543948" fill="none" stroke="#000000" stroke-width="0.001"/>
<path d="M 0.008232503208464914 0.005355015186543948 C 0.008261354516575167 0.0053671182218625844 0.008608738158586324 0.005546089689751502 0.008578718905787942 0.005500251610367586 C 0.008608738158586324 0.005546089689751502 0.008566631910476139 0.005956266380451537 0.008592734242045501 0.005905072139150945 C 0.008566631910476139 0.005956266380451537 0.0082382206506981 0.006132041703209997 0.008265490926955592 0.006114582505974685" fill="none" stroke="#000000" stroke-width="0.001"/>
<path d="M 0.008265490926955592 0.006114582505974685 C 0.0082009104365999 0.006106204340494007 0.00717549064108744 0.0059630958143750855 0.007490525042687283 0.00601404452020654 C 0.00717549064108744 0.0059630958143750855 0.0042346241965133275 0.005460627495646453 0.004485078107757478 0.005503198035997229" fill="none" stroke="#000000" stroke-width="0.001"/>
</g><g transform="translate(0.3178848733581543,0.11232264596667627) rotate(0) scale(1,1) translate(-0.008355584567489648,-0.005692421788338555)"><path d="M 0.004486774825777467 0.006710804809765195 C 0.004732074566102863 0.006624186197698598 0.007735781596158244 0.005559045324026158 0.007430371709682216 0.005671381464966029 C 0.007735781596158244 0.005559045324026158 0.008211803609640444 0.005337053589613469 0.00815169346348981 0.005362771118486743" fill="none" stroke="#000000" stroke-width="0.001"/>
<path d="M 0.00815169346348981 0.005362771118486743 C 0.008182719589874335 0.0053685384699386236 0.008568259860263506 0.005466748715054341 0.008524006980104101 0.005431979335909308 C 0.008568259860263506 0.005466748715054341 0.00867311630235992 0.005838923121313477 0.00868272802540268 0.005780003668227135 C 0.00867311630235992 0.005838923121313477 0.00838582782677333 0.006168930198338601 0.008408666303590972 0.006139012772945412" fill="none" stroke="#000000" stroke-width="0.001"/>
<path d="M 0.008408666303590972 0.006139012772945412 C 0.008339188016162968 0.006153568485156288 0.007248102564637124 0.006361330655877575 0.007574926854454916 0.0063136813194759256 C 0.007248102564637124 0.006361330655877575 0.00422942882338768 0.006743898433955967 0.004486774825777467 0.006710804809765195" fill="none" stroke="#000000" stroke-width="0.001"/>
</g></g>
</svg>
