<?xml version="1.0" encoding="UTF-8"?>
<svg xmlns="http://www.w3.org/2000/svg" viewBox="0 0 1 1">
<g transform="translate(0.3257456317518053,0.1130072566562324) rotate(0) scale(1,1) translate(-0.14152185117886698,-0.14116273906070584)"><path d="M 0.13189398025221225 0.14152128608500533 C 0.1320638377702695 0.1409422222775161 0.13467478295918703 0.1336900036301274 0.13393227046889927 0.13457252039513456 C 0.13467478295918703 0.1336900036301274 0.14197577779397735 0.13082619305892967 0.1408041301356654 0.13093108490491925 C 0.14197577779397735 0.13082619305892967 0.14885431011859765 0.13394357602344725 0.14799204236864294 0.13331381824325977 C 0.14885431011859765 0.13394357602344725 0.15141461819899502 0.13891937493582826 0.15115134313512177 0.13848817826716914" fill="none" stroke="none" stroke-width="0"/>
<path d="M 0.15115134313512177 0.13848817826716914 C 0.15123459274369164 0.1392156041124309 0.15111135740005965 0.14364093931469316 0.15165084078654104 0.14285273333873974 C 0.15111135740005965 0.14364093931469316 0.14729170982118214 0.1432781942535813 0.14791444281623342 0.14321741412288963" fill="none" stroke="none" stroke-width="0"/>
<path d="M 0.14791444281623342 0.14321741412288963 C 0.14773363782516166 0.14300942200322933 0.1452326230221329 0.14040118829080786 0.1457447829233724 0.140721508686966 C 0.1452326230221329 0.14040118829080786 0.14103368288292256 0.13929881474693676 0.1417685240013597 0.139373569368992 C 0.14103368288292256 0.13929881474693676 0.1362522795509971 0.13998600355403673 0.1369266895021268 0.1398244532223029 C 0.1362522795509971 0.13998600355403673 0.13340468084494306 0.14143615002708898 0.13367560458780334 0.14131217334979773" fill="none" stroke="#000000" stroke-width="0.001"/>
<path d="M 0.13367560458780334 0.14131217334979773 C 0.13380017396436317 0.14144725181747053 0.13542347040450506 0.14317357862083085 0.13517043710652113 0.14293311496187117 C 0.13542347040450506 0.14317357862083085 0.13684046808503475 0.14430312244860102 0.13671200416361062 0.1441977372573141" fill="none" stroke="#000000" stroke-width="0.001"/>
<path d="M 0.13671200416361062 0.1441977372573141 C 0.1370104542519783 0.144273267037758 0.14097377079783202 0.14514801825795895 0.14029340522402273 0.14510409462264084 C 0.14097377079783202 0.14514801825795895 0.14546340186580145 0.14456190266783414 0.14487639104932232 0.14472482088113128 C 0.14546340186580145 0.14456190266783414 0.14759070600234817 0.14302345883322168 0.14733753502177224 0.14314907606307514 C 0.14759070600234817 0.14302345883322168 0.14796251846577185 0.1432231089612075 0.14791444281623342 0.14321741412288963" fill="none" stroke="none" stroke-width="0"/>
<path d="M 0.14791444281623342 0.14321741412288963 C 0.14853714218076505 0.143156710601153 0.15192682341092945 0.14339669541217098 0.15165063900342324 0.14285319299246987 C 0.15192682341092945 0.14339669541217098 0.14922503430424533 0.14708263458253393 0.14957154926127075 0.1464784286410962" fill="none" stroke="none" stroke-width="0"/>
<path d="M 0.14957154926127075 0.1464784286410962 C 0.14932041645698632 0.14681606825337767 0.14575634405730478 0.15095336070947737 0.14655795560985743 0.15053010398847386 C 0.14575634405730478 0.15095336070947737 0.1389324419060575 0.15139561909381702 0.13995221063063903 0.15155750929313846 C 0.1389324419060575 0.15139561909381702 0.13364921171667676 0.1477510696626053 0.134320730914879 0.1485874215966164 C 0.13364921171667676 0.1477510696626053 0.13169175103032335 0.14093244145903774 0.13189398025221225 0.14152128608500533" fill="none" stroke="none" stroke-width="0"/>
<path d="M 0.13189398025221225 0.14152128608500533 C 0.13189398025221225 0.14152128608500533 0.13189398025221225 0.14152128608500533 0.13189398025221225 0.14152128608500533 C 0.13189398025221225 0.14152128608500533 0.13189398025221225 0.14152128608500533 0.13189398025221225 0.14152128608500533 C 0.13189398025221225 0.14152128608500533 0.13189398025221225 0.14152128608500533 0.13189398025221225 0.14152128608500533 C 0.13189398025221225 0.14152128608500533 0.13189398025221225 0.14152128608500533 0.13189398025221225 0.14152128608500533" fill="none" stroke="#000000" stroke-width="0.001"/>
</g><g transform="translate(0.32588449103078504,0.10825672161350267) rotate(0) scale(1,1) translate(-0.014991016181195468,-0.014142268789137224)"><path d="M 0.020746847081869232 0.018395806383560788 C 0.020543025482504938 0.018210599689669385 0.017808846200993923 0.01589885458420076 0.01830098788949771 0.016173326056863946 C 0.017808846200993923 0.01589885458420076 0.014241415837360768 0.015029918489144851 0.014841146819823781 0.015102148711602564 C 0.014241415837360768 0.015029918489144851 0.010523922175504052 0.015419781065198038 0.011104216099941541 0.015306563387371389 C 0.010523922175504052 0.015419781065198038 0.007608736695459934 0.016556943967034946 0.007877619726573904 0.016460760845522365" fill="none" stroke="none" stroke-width="0"/>
<path d="M 0.007877619726573904 0.016460760845522365 C 0.0081434838937923 0.016321269117274075 0.011670145472373095 0.014627755147575004 0.011067989733194651 0.014786860106542885 C 0.011670145472373095 0.014627755147575004 0.015727521264043517 0.01463549030087556 0.015103488596715231 0.014551501337907785 C 0.015727521264043517 0.01463549030087556 0.019026661614896943 0.016115086415960597 0.01855638174113411 0.01579472766215618 C 0.019026661614896943 0.016115086415960597 0.020929385860263827 0.01861256294367784 0.020746847081869232 0.018395806383560788" fill="none" stroke="#000000" stroke-width="0.001"/>
</g><g id="睫毛">
<g transform="translate(0.31954408142357343,0.11524769234902693) rotate(0) scale(1,1) translate(-0.008417252494995203,-0.005828091228850773)"><path d="M 0.006329689870802169 0.0071489724876736905 C 0.006438957863931406 0.007054626563192913 0.007798012998490928 0.00588221584182838 0.007640905788353006 0.006016821393904359 C 0.007798012998490928 0.00588221584182838 0.008262815609465918 0.005493446235166741 0.008214976392457232 0.0055337058627619425" fill="none" stroke="#000000" stroke-width="0.001"/>
<path d="M 0.008214976392457232 0.0055337058627619425 C 0.008246380133221688 0.005536404484903662 0.008635765580543967 0.005598985952159035 0.008591821281630696 0.0055660893284625815 C 0.008635765580543967 0.005598985952159035 0.008737581918751215 0.005983006667634039 0.008742307979416499 0.005928465347119375 C 0.008737581918751215 0.005983006667634039 0.008517841934833185 0.006244928493598479 0.008535108553647286 0.006220585174638548" fill="none" stroke="#000000" stroke-width="0.001"/>
<path d="M 0.008535108553647286 0.006220585174638548 C 0.00847788499100888 0.006241754253382102 0.007664640911749341 0.006551979728980788 0.007848425801986435 0.0064746141195611935 C 0.007664640911749341 0.006551979728980788 0.006203128543203481 0.007205169018349732 0.006329689870802169 0.0071489724876736905" fill="none" stroke="#000000" stroke-width="0.001"/>
</g><g transform="translate(0.32038845752429695,0.11596922400951276) rotate(0) scale(1,1) translate(-0.008417252494995203,-0.005828091228850773)"><path d="M 0.007031207539026672 0.0074713508634932325 C 0.007097243455308445 0.0073644808858460324 0.00791885637502426 0.006036117716880731 0.007823638534407958 0.006188911131726835 C 0.00791885637502426 0.006036117716880731 0.008203003550756816 0.005591906448141078 0.008173821626422289 0.005637829885339982" fill="none" stroke="#000000" stroke-width="0.001"/>
<path d="M 0.008173821626422289 0.005637829885339982 C 0.008200503420912037 0.005631784267580844 0.008538863730408295 0.00558091783219743 0.008494003160299274 0.005565282472230322 C 0.008538863730408295 0.00558091783219743 0.008722329843244517 0.005871829462816272 0.00871214846773054 0.005825454204945279 C 0.008722329843244517 0.005871829462816272 0.008608182266361715 0.0061464798468269756 0.008616179666467008 0.00612178556668223" fill="none" stroke="#000000" stroke-width="0.001"/>
<path d="M 0.008616179666467008 0.00612178556668223 C 0.008574300367804709 0.006154386689122692 0.007981547071899384 0.006625462810702018 0.008113628082519413 0.006512999035967768 C 0.007981547071899384 0.006625462810702018 0.006941005827068943 0.007551213515787021 0.007031207539026672 0.0074713508634932325" fill="none" stroke="#000000" stroke-width="0.001"/>
</g><g transform="translate(0.32122875570700415,0.11151791698718058) rotate(0) scale(1,1) translate(-0.00838482235110165,-0.0057170889593407765)"><path d="M 0.004537394266234703 0.005234144387988275 C 0.004790896192741942 0.005242385340744455 0.007889520879974556 0.005342543590650028 0.0075794173843215795 0.0053330358210624375 C 0.007889520879974556 0.005342543590650028 0.008315237783216162 0.005349504439870775 0.008258636214070424 0.0053482376230393645" fill="none" stroke="#000000" stroke-width="0.001"/>
<path d="M 0.008258636214070424 0.0053482376230393645 C 0.008286382437452623 0.0053622316522286455 0.008618192338687752 0.005563649632215544 0.008591590894656807 0.005516165973310734 C 0.008618192338687752 0.005563649632215544 0.008548511517173637 0.005966923113632199 0.008577853542441762 0.005918041529897084 C 0.008548511517173637 0.005966923113632199 0.00821128934552244 0.006118136932151691 0.008239486591439311 0.006102744978132106" fill="none" stroke="#000000" stroke-width="0.001"/>
<path d="M 0.008239486591439311 0.006102744978132106 C 0.008176103096258056 0.006089952801228105 0.007170376955497191 0.005876855472772104 0.007478884649264242 0.00594923885528409 C 0.007170376955497191 0.005876855472772104 0.004292270067648908 0.00517455318238029 0.004537394266234703 0.005234144387988275" fill="none" stroke="#000000" stroke-width="0.001"/>
</g><g transform="translate(0.31797792061956975,0.11310494215259292) rotate(0) scale(1,1) translate(-0.008355584567489648,-0.005692421788338555)"><path d="M 0.004458898161857801 0.00636130664983895 C 0.004707831820321104 0.006297180198482931 0.0077564165851322685 0.005507524629095088 0.007446102063417436 0.005591789233566726 C 0.0077564165851322685 0.005507524629095088 0.008244053285687319 0.005329993243063682 0.00818267242243579 0.0053501313961793005" fill="none" stroke="#000000" stroke-width="0.001"/>
<path d="M 0.00818267242243579 0.0053501313961793005 C 0.00821274256651134 0.0053584914810858066 0.00858415661025599 0.005488519646420303 0.008543514151342392 0.00545045241505737 C 0.00858415661025599 0.005488519646420303 0.008655927589964972 0.005864139153925124 0.008670381929398964 0.0058069381725345025 C 0.008655927589964972 0.005864139153925124 0.008345035423862442 0.006164358026679023 0.008370062078134483 0.006136864191744829" fill="none" stroke="#000000" stroke-width="0.001"/>
<path d="M 0.008370062078134483 0.006136864191744829 C 0.008300399163236043 0.006145199698776003 0.007208176772996819 0.006255593814293427 0.007534107099353209 0.006236890276118917 C 0.007208176772996819 0.006255593814293427 0.0042026307503998505 0.006371674680982286 0.004458898161857801 0.00636130664983895" fill="none" stroke="#000000" stroke-width="0.001"/>
</g></g>
</svg>
