<?xml version="1.0" encoding="UTF-8"?>
<svg xmlns="http://www.w3.org/2000/svg" viewBox="0 0 1 1">
<g id="植性">
<g transform="translate(0.3373434528286707,0.14029796073566542) rotate(0) scale(1,1) translate(-0.005607832739230754,-0.005607832739230756)"><path d="M 0.005607832739230755 -0.016887348938471065 C 0.006511702550134282 -0.016071581735497685 0.017452385780786773 -0.005484285483548832 0.01645427047007308 -0.007098142502790497 C 0.017452385780786773 -0.005484285483548832 0.01732912119178225 0.003899445894583598 0.017585216467795057 0.0024789352924289134 C 0.01732912119178225 0.003899445894583598 0.013030786382096406 0.010570405508952113 0.013381127157919379 0.009947984723065713" fill="none" stroke="#000000" stroke-width="0.001"/>
<path d="M 0.013381127157919379 0.009947984723065713 C 0.01273335262302866 0.009771210856014761 0.004312283669449324 0.00782669831845429 0.005607832739230761 0.00782669831845429 C 0.004312283669449324 0.00782669831845429 -0.0028132362143485756 0.010124758590116665 -0.002165461679457857 0.009947984723065713" fill="none" stroke="#000000" stroke-width="0.001"/>
<path d="M -0.002165461679457857 0.009947984723065713 C -0.002515802455280833 0.009325563937179314 -0.006625646265346379 0.001058424690274233 -0.006369550989333571 0.002478935292428917 C -0.006625646265346379 0.001058424690274233 -0.004240489680897871 -0.008711999522032159 -0.0052386049916115646 -0.007098142502790494 C -0.004240489680897871 -0.008711999522032159 0.006511702550134278 -0.017703116141444444 0.005607832739230751 -0.016887348938471065" fill="none" stroke="#000000" stroke-width="0.001"/>
</g><g transform="translate(0.32674028254072546,0.13518806941532685) rotate(0) scale(1,1) translate(-0.005607832739230754,-0.005607832739230756)"><path d="M 0.001314951733866789 0.004274966602162994 C 0.0015127445106586361 0.004252514694821034 0.004059289550652383 0.00403418980101276 0.003688465055368955 0.004005543714059472 C 0.004059289550652383 0.00403418980101276 0.005937877395759508 0.004669817639897707 0.005764845677267927 0.004618719645602458" fill="none" stroke="#000000" stroke-width="0.001"/>
<path d="M 0.005764845677267927 0.004618719645602458 C 0.005814973065471353 0.00470761088862233 0.006329121180784609 0.005844465068105948 0.006366374335709049 0.0056854145618409225 C 0.006329121180784609 0.005844465068105948 0.005230427275046769 0.006597484984027919 0.005317807818174637 0.0065273257207827656" fill="none" stroke="#000000" stroke-width="0.001"/>
<path d="M 0.005317807818174637 0.0065273257207827656 C 0.005176866237577176 0.006422577986331618 0.003292937510646117 0.005082656314150679 0.0036265088510051046 0.005270352907368993 C 0.003292937510646117 0.005082656314150679 0.0011223219741052603 0.004192017743395829 0.0013149517338667868 0.0042749666021629955" fill="none" stroke="#000000" stroke-width="0.001"/>
</g><g transform="translate(0.3279998980313145,0.1402781403366587) rotate(0) scale(1,1) translate(-0.005607832739230754,-0.005607832739230756)"><path d="M 0.001314951733866789 0.004274966602162994 C 0.0015127445106586361 0.004252514694821034 0.004059289550652383 0.00403418980101276 0.003688465055368955 0.004005543714059472 C 0.004059289550652383 0.00403418980101276 0.005937877395759508 0.004669817639897707 0.005764845677267927 0.004618719645602458" fill="none" stroke="#000000" stroke-width="0.001"/>
<path d="M 0.005764845677267927 0.004618719645602458 C 0.005807389411085928 0.004716363595851838 0.006238117328159503 0.005949497554860046 0.006275370483083943 0.00579044704859502 C 0.006238117328159503 0.005949497554860046 0.005238010929432195 0.006588732276798411 0.005317807818174637 0.0065273257207827656" fill="none" stroke="#000000" stroke-width="0.001"/>
<path d="M 0.005317807818174637 0.0065273257207827656 C 0.005176866237577176 0.006422577986331618 0.003292937510646117 0.005082656314150679 0.0036265088510051046 0.005270352907368993 C 0.003292937510646117 0.005082656314150679 0.0011223219741052603 0.004192017743395829 0.0013149517338667868 0.0042749666021629955" fill="none" stroke="#000000" stroke-width="0.001"/>
</g><g transform="translate(0.34794662311661584,0.13518806941532685) rotate(0) scale(1,1) translate(-0.005607832739230754,-0.005607832739230756)"><path d="M 0.009900713744594641 0.004274966602162962 C 0.009708083984833115 0.004357915460930128 0.0072555852870973365 0.0054580495005872726 0.007589156627456321 0.005270352907368958 C 0.0072555852870973365 0.0054580495005872726 0.005756916079689365 0.0066320734552338945 0.005897857660286824 0.006527325720782746" fill="none" stroke="#000000" stroke-width="0.001"/>
<path d="M 0.005897857660286824 0.006527325720782746 C 0.005810477117158952 0.006457166457537591 0.004812037987827929 0.005526364055575859 0.004849291142752369 0.005685414561840884 C 0.004812037987827929 0.005526364055575859 0.005500947189396969 0.004529828402582569 0.005450819801193539 0.00461871964560244" fill="none" stroke="#000000" stroke-width="0.001"/>
<path d="M 0.005450819801193539 0.00461871964560244 C 0.005623851519685118 0.0045676216513071905 0.007898024918375914 0.0039768976271061535 0.007527200423092488 0.004005543714059444 C 0.007898024918375914 0.0039768976271061535 0.010098506521386491 0.004297418509504921 0.009900713744594645 0.004274966602162961" fill="none" stroke="#000000" stroke-width="0.001"/>
</g><g transform="translate(0.34668700762602683,0.1402781403366587) rotate(0) scale(1,1) translate(-0.005607832739230754,-0.005607832739230756)"><path d="M 0.009900713744594641 0.004274966602162962 C 0.009708083984833115 0.004357915460930128 0.0072555852870973365 0.0054580495005872726 0.007589156627456321 0.005270352907368958 C 0.0072555852870973365 0.0054580495005872726 0.005756916079689365 0.0066320734552338945 0.005897857660286824 0.006527325720782746" fill="none" stroke="#000000" stroke-width="0.001"/>
<path d="M 0.005897857660286824 0.006527325720782746 C 0.005818060771544378 0.006465919164767099 0.004903041840453036 0.0056313965423299564 0.004940294995377476 0.005790447048594982 C 0.004903041840453036 0.0056313965423299564 0.005493363535011544 0.004521075695353061 0.005450819801193539 0.00461871964560244" fill="none" stroke="#000000" stroke-width="0.001"/>
<path d="M 0.005450819801193539 0.00461871964560244 C 0.005623851519685118 0.0045676216513071905 0.007898024918375914 0.0039768976271061535 0.007527200423092488 0.004005543714059444 C 0.007898024918375914 0.0039768976271061535 0.010098506521386491 0.004297418509504921 0.009900713744594645 0.004274966602162961" fill="none" stroke="#000000" stroke-width="0.001"/>
</g></g>
<g transform="translate(0.3373434528286707,0.14472922449489684) rotate(0) scale(1,1) translate(-0.5,-0.5117992870876407)"><path d="M 0.4917714262970716 0.4887225994119858 C 0.4918632946170116 0.4884190433041556 0.49321670337397344 0.4845541515163135 0.49287384613635143 0.48507992611802325 C 0.49321670337397344 0.4845541515163135 0.49647955930383997 0.4821097480836381 0.4958857131485359 0.48241330419146833 C 0.49647955930383997 0.4821097480836381 0.500685714475244 0.4814372528240605 0.5 0.4814372528240605 C 0.500685714475244 0.4814372528240605 0.5047081330067681 0.48271686029929856 0.5041142868514641 0.48241330419146833 C 0.5047081330067681 0.48271686029929856 0.5074690111012706 0.485605700719733 0.5071261538636486 0.48507992611802325 C 0.5074690111012706 0.485605700719733 0.5083204420228684 0.48902615551981604 0.5082285737029284 0.4887225994119858" fill="none" stroke="#000000" stroke-width="0.001"/>
<path d="M 0.5082285737029284 0.4887225994119858 C 0.5081541620213321 0.49008642556911947 0.5073097784309128 0.5070115706038943 0.5073356335237734 0.5050885132975897 C 0.5073097784309128 0.5070115706038943 0.5079668691773374 0.5123585182368116 0.5079183125886017 0.5117992870876407" fill="none" stroke="#000000" stroke-width="0.001"/>
<path d="M 0.49208168741139857 0.5117992870876407 C 0.4921302440001342 0.5112400559384698 0.492638511383366 0.5031654559912851 0.4926643664762266 0.5050885132975897 C 0.492638511383366 0.5031654559912851 0.4916970146154753 0.48735877325485216 0.4917714262970716 0.4887225994119858" fill="none" stroke="#000000" stroke-width="0.001"/>
</g><g id="虫性">
<g transform="translate(0.3373434528286707,0.1392728086047507) rotate(0) scale(1,1) translate(-0.01186904625374068,0.0008174492228904934)"><path d="M 0.004529272391151996 -0.0008174492228904934 C 0.005140920213034386 -0.0008174492228904934 0.013092341897505461 -0.0008174492228904934 0.01186904625374068 -0.0008174492228904934 C 0.013092341897505461 -0.0008174492228904934 0.01982046793821176 -0.0008174492228904934 0.019208820116329368 -0.0008174492228904934" fill="none" stroke="#000000" stroke-width="0.001"/>
<path d="M 0.019208820116329368 -0.0008174492228904934 C 0.019225333311366853 -0.0005756311358099535 0.01945519108801594 0.002539075164716017 0.019406978456779182 0.002084367822075986 C 0.01945519108801594 0.002539075164716017 0.019819071127369695 0.00485192814434937 0.019787371691170424 0.004639038888789879" fill="none" stroke="#000000" stroke-width="0.001"/>
<path d="M 0.019787371691170424 0.004639038888789879 C 0.01912751123805128 0.00464765106603694 0.010549325347502385 0.004742385015754611 0.011869046253740675 0.004742385015754611 C 0.010549325347502385 0.004742385015754611 0.0032908603631917883 0.004630426711542819 0.003950720816310933 0.004639038888789879" fill="none" stroke="#000000" stroke-width="0.001"/>
<path d="M 0.003950720816310933 0.004639038888789879 C 0.003982420252510205 0.004426149633230388 0.004379326681938944 0.001629660479435955 0.004331114050702189 0.002084367822075986 C 0.004379326681938944 0.001629660479435955 0.00454578558618948 -0.0010592673099710335 0.004529272391151996 -0.0008174492228904934" fill="none" stroke="#000000" stroke-width="0.001"/>
</g><g transform="translate(0.3373434528286707,0.13556625244565396) rotate(0) scale(1,1) translate(-0.01186904625374068,0.0008174492228904934)"><path d="M 0.004434397634210883 -0.0008174492228904934 C 0.005053951685838366 -0.0008174492228904934 0.01310815435699565 -0.0008174492228904934 0.01186904625374068 -0.0008174492228904934 C 0.01310815435699565 -0.0008174492228904934 0.01992324892489801 -0.0008174492228904934 0.01930369487327052 -0.0008174492228904934" fill="none" stroke="#000000" stroke-width="0.001"/>
<path d="M 0.01930369487327052 -0.0008174492228904934 C 0.019295177648248184 -0.0005611412628216818 0.01920145248166486 0.0027215658178223376 0.01920148817300246 0.0022582462979352457 C 0.01920145248166486 0.0027215658178223376 0.01931174811090411 0.0049493965755728914 0.019303266577219366 0.004742385015754611" fill="none" stroke="#000000" stroke-width="0.001"/>
<path d="M 0.019303266577219366 0.004742385015754611 C 0.018683748216929474 0.004742385015754611 0.010630009533160893 0.004742385015754611 0.011869046253740675 0.004742385015754611 C 0.010630009533160893 0.004742385015754611 0.0038153075699720834 0.004742385015754611 0.004434825930261975 0.004742385015754611" fill="none" stroke="#000000" stroke-width="0.001"/>
<path d="M 0.004434825930261975 0.004742385015754611 C 0.004443307463946719 0.004535373455936331 0.004536568643141314 0.001794926778048153 0.004536604334478905 0.0022582462979352453 C 0.004536568643141314 0.001794926778048153 0.004425880409188548 -0.001073757182959305 0.004434397634210883 -0.0008174492228904934" fill="none" stroke="#000000" stroke-width="0.001"/>
</g><g transform="translate(0.3373434528286707,0.13185969628655722) rotate(0) scale(1,1) translate(-0.011869046253740682,0.0008174492228904934)"><path d="M 0.004260127102606229 -0.0008174492228904934 C 0.0048942036985341 -0.0008174492228904934 0.013137199445596421 -0.0008174492228904934 0.01186904625374068 -0.0008174492228904934 C 0.013137199445596421 -0.0008174492228904934 0.020112042000802993 -0.0008174492228904934 0.019477965404875123 -0.0008174492228904934" fill="none" stroke="#000000" stroke-width="0.001"/>
<path d="M 0.019477965404875123 -0.0008174492228904934 C 0.019464240386909856 -0.0005347931868257085 0.019291481406263744 0.003037742729774018 0.01931326518929192 0.002574423209886926 C 0.019291481406263744 0.003037742729774018 0.019208501243474122 0.004923048499576918 0.01921656000853703 0.004742385015754611" fill="none" stroke="#000000" stroke-width="0.001"/>
<path d="M 0.01921656000853703 0.004742385015754611 C 0.018604267195637333 0.004742385015754611 0.010644460627941287 0.004742385015754611 0.011869046253740675 0.004742385015754611 C 0.010644460627941287 0.004742385015754611 0.003909239686044675 0.004742385015754611 0.004521532498944368 0.004742385015754611" fill="none" stroke="#000000" stroke-width="0.001"/>
<path d="M 0.004521532498944368 0.004742385015754611 C 0.004513473733881458 0.004561721531932304 0.004403043535161278 0.0021111036899998338 0.004424827318189456 0.0025744232098869257 C 0.004403043535161278 0.0021111036899998338 0.00424640208464096 -0.0011001052589552783 0.004260127102606229 -0.0008174492228904934" fill="none" stroke="#000000" stroke-width="0.001"/>
</g><g transform="translate(0.3373434528286707,0.14029796073566542) rotate(0) scale(1,1) translate(-0.011869046253740675,-0.011869046253740675)"><path d="M 0.004045884399118473 -0.0002757743544642387 C 0.004697814553670324 -0.0002757743544642387 0.013172906562844384 -0.0002757743544642387 0.01186904625374068 -0.0002757743544642387 C 0.013172906562844384 -0.0002757743544642387 0.020344138262914768 -0.0002757743544642387 0.019692208108362915 -0.0002757743544642387" fill="none" stroke="#000000" stroke-width="0.001"/>
<path d="M 0.019692208108362915 -0.0002757743544642387 C 0.019677401373936972 -1.4366766783303279E-05 0.019487746952850892 0.003324436217594078 0.019514527295251598 0.002861116697706986 C 0.019487746952850892 0.003324436217594078 0.019358870391579682 0.005485971816387022 0.019370843999554445 0.0052840598841808655" fill="none" stroke="#000000" stroke-width="0.001"/>
<path d="M 0.019370843999554445 0.0052840598841808655 C 0.018745694187403298 0.0052840598841808655 0.010618746629438382 0.0052840598841808655 0.011869046253740675 0.0052840598841808655 C 0.010618746629438382 0.0052840598841808655 0.0037420986957757774 0.0052840598841808655 0.004367248507926923 0.0052840598841808655" fill="none" stroke="#000000" stroke-width="0.001"/>
<path d="M 0.004367248507926923 0.0052840598841808655 C 0.0043552748999521615 0.005082147951974709 0.004196784869829075 0.002397797177819894 0.004223565212229779 0.002861116697706986 C 0.004196784869829075 0.002397797177819894 0.004031077664692531 -0.000537181942145174 0.004045884399118473 -0.0002757743544642387" fill="none" stroke="#000000" stroke-width="0.001"/>
</g></g>
<g id="鱗">
<g transform="translate(0.3373434528286707,0.14029796073566542) rotate(0) scale(1,1) translate(-0.015058466988291021,-0.015058466988291016)"><path d="M 0.015058466988291011 0.006166407722884363 C 0.015577254404057335 0.006081894243999459 0.02192456001352415 0.005152453078590644 0.021283915977486904 0.0051522459762655135 C 0.02192456001352415 0.005152453078590644 0.022868052041008863 0.006253613531995967 0.02274619542073794 0.006168892950785932" fill="none" stroke="#000000" stroke-width="0.001"/>
<path d="M 0.02274619542073794 0.006168892950785932 C 0.022636289954531045 0.006307703936371517 0.021192133979287313 0.00815532450973556 0.02142732982625519 0.007834624777812951 C 0.021192133979287313 0.00815532450973556 0.019798554876362433 0.010199178480194263 0.019923845257123415 0.01001728973385724" fill="none" stroke="#000000" stroke-width="0.001"/>
<path d="M 0.019923845257123415 0.01001728973385724 C 0.01951839706805405 0.010069598443341128 0.014247570610152277 0.010644994247663917 0.015058466988291011 0.010644994247663917 C 0.014247570610152277 0.010644994247663917 0.009787640530389245 0.00996498102437335 0.010193088719458612 0.01001728973385724" fill="none" stroke="#000000" stroke-width="0.001"/>
<path d="M 0.010193088719458612 0.01001728973385724 C 0.010067798338697632 0.009835400987520216 0.008454408303358965 0.007513925045890342 0.008689604150326841 0.007834624777812951 C 0.008454408303358965 0.007513925045890342 0.0072608330896371965 0.006030081965200347 0.007370738555844092 0.006168892950785932" fill="none" stroke="#000000" stroke-width="0.001"/>
<path d="M 0.007370738555844092 0.006168892950785932 C 0.007492595176115013 0.006084172369575897 0.009473662035132379 0.005152038873940383 0.008833017999095135 0.0051522459762655135 C 0.009473662035132379 0.005152038873940383 0.015577254404057335 0.0062509212017692675 0.015058466988291011 0.006166407722884363" fill="none" stroke="#000000" stroke-width="0.001"/>
</g><g transform="translate(0.3373434528286707,0.13525678348123163) rotate(0) scale(1,1) translate(-0.015058466988291021,-0.015058466988291016)"><path d="M 0.015058466988291011 0.01446507808331168 C 0.015503262348883664 0.014392618339352735 0.020945283495800274 0.013595738720160355 0.02039601131540284 0.013595561155804346 C 0.020945283495800274 0.013595738720160355 0.02175420997286498 0.014539846163898742 0.0216497331530602 0.014467208855583788" fill="none" stroke="#000000" stroke-width="0.001"/>
<path d="M 0.0216497331530602 0.014467208855583788 C 0.021555502953971063 0.01458622192435023 0.020317319724696466 0.016170325613438227 0.02051897076399055 0.01589536568078108 C 0.020317319724696466 0.016170325613438227 0.019122499841326253 0.017922674911360258 0.019229920681531197 0.01776672804746955" fill="none" stroke="#000000" stroke-width="0.001"/>
<path d="M 0.019229920681531197 0.01776672804746955 C 0.018882299540427847 0.0178115762272633 0.014363224706084313 0.018304906204994552 0.015058466988291011 0.018304906204994552 C 0.014363224706084313 0.018304906204994552 0.010539392153947488 0.017721879867675802 0.010887013295050835 0.01776672804746955" fill="none" stroke="#000000" stroke-width="0.001"/>
<path d="M 0.010887013295050835 0.01776672804746955 C 0.01077959245484589 0.017610781183578846 0.009396312173297401 0.015620405748123931 0.009597963212591484 0.01589536568078108 C 0.009396312173297401 0.015620405748123931 0.008372970624432697 0.014348195786817347 0.008467200823521835 0.014467208855583788" fill="none" stroke="#000000" stroke-width="0.001"/>
<path d="M 0.008467200823521835 0.014467208855583788 C 0.008571677643326616 0.014394571547268835 0.010270194841576633 0.013595383591448337 0.009720922661179202 0.013595561155804346 C 0.010270194841576633 0.013595383591448337 0.015503262348883662 0.014537537827270625 0.015058466988291011 0.01446507808331168" fill="none" stroke="#000000" stroke-width="0.001"/>
</g><g transform="translate(0.3373434528286707,0.13796504454041017) rotate(0) scale(1,1) translate(-0.015058466988291021,-0.015058466988291016)"><path d="M 0.015058466988291011 0.01454971017588436 C 0.015439823410579137 0.01448758500290756 0.020105676291416765 0.013804360339402492 0.019634744055748516 0.013804208100162758 C 0.020105676291416765 0.013804360339402492 0.020799229629690115 0.014613814458977692 0.020709653816309993 0.014551537046761159" fill="none" stroke="#000000" stroke-width="0.001"/>
<path d="M 0.020709653816309993 0.014551537046761159 C 0.020628863199365945 0.014653575876594787 0.019567275853166637 0.016011746777026607 0.019740166412981403 0.015776003004764685 C 0.019567275853166637 0.016011746777026607 0.0185428671556621 0.017514167256332508 0.018634967098532816 0.017380462313904214" fill="none" stroke="#000000" stroke-width="0.001"/>
<path d="M 0.018634967098532816 0.017380462313904214 C 0.018336925422679333 0.01741891402205488 0.014462383636584045 0.01784188281171221 0.015058466988291011 0.01784188281171221 C 0.014462383636584045 0.01784188281171221 0.011183925202195735 0.01734201060575355 0.011481966878049218 0.017380462313904214" fill="none" stroke="#000000" stroke-width="0.001"/>
<path d="M 0.011481966878049218 0.017380462313904214 C 0.011389866935178503 0.01724675737147592 0.010203877003785868 0.015540259232502764 0.010376767563600632 0.015776003004764685 C 0.010203877003785868 0.015540259232502764 0.009326489543327994 0.014449498216927531 0.009407280160272043 0.014551537046761159" fill="none" stroke="#000000" stroke-width="0.001"/>
<path d="M 0.009407280160272043 0.014551537046761159 C 0.009496855973652166 0.014489259634544626 0.010953122156501773 0.013804055860923025 0.010482189920833525 0.013804208100162758 C 0.010953122156501773 0.013804055860923025 0.015439823410579135 0.014611835348861159 0.015058466988291011 0.01454971017588436" fill="none" stroke="#000000" stroke-width="0.001"/>
</g><g transform="translate(0.3373434528286707,0.14029796073566542) rotate(0) scale(1,1) translate(-0.015058466988291021,-0.015058466988291016)"><path d="M 0.015058466988291011 0.01462227161625386 C 0.015385432450850292 0.014569007046072877 0.019385818064558455 0.01398322730020022 0.01898205253900239 0.013983096774082054 C 0.019385818064558455 0.01398322730020022 0.01998045335796057 0.014677233025971006 0.019903653294963786 0.014623837929671856" fill="none" stroke="#000000" stroke-width="0.001"/>
<path d="M 0.019903653294963786 0.014623837929671856 C 0.019834385439761383 0.014711323471400462 0.018924206988813752 0.015875785247158197 0.019072439032534937 0.01567366443041513 C 0.018924206988813752 0.015875785247158197 0.018045904581790798 0.017163923005603092 0.01812486877030958 0.017049287730588635" fill="none" stroke="#000000" stroke-width="0.001"/>
<path d="M 0.01812486877030958 0.017049287730588635 C 0.0178693352884747 0.017082255263864313 0.014547400024621251 0.017444898129896764 0.015058466988291011 0.017444898129896764 C 0.014547400024621251 0.017444898129896764 0.011736531724437577 0.017016320197312956 0.011992065206272457 0.017049287730588635" fill="none" stroke="#000000" stroke-width="0.001"/>
<path d="M 0.011992065206272457 0.017049287730588635 C 0.011913101017753678 0.016934652455574177 0.010896262900325917 0.015471543613672065 0.011044494944047101 0.01567366443041513 C 0.010896262900325917 0.015471543613672065 0.010144012826415846 0.01453635238794325 0.010213280681618251 0.014623837929671856" fill="none" stroke="#000000" stroke-width="0.001"/>
<path d="M 0.010213280681618251 0.014623837929671856 C 0.010290080744615035 0.014570442833372705 0.011538646963135715 0.013982966247963888 0.011134881437579652 0.013983096774082054 C 0.011538646963135715 0.013982966247963888 0.01538543245085029 0.014675536186434843 0.015058466988291011 0.01462227161625386" fill="none" stroke="#000000" stroke-width="0.001"/>
</g><g transform="translate(0.3373434528286707,0.14228878147796303) rotate(0) scale(1,1) translate(-0.015058466988291021,-0.015058466988291016)"><path d="M 0.015058466988291011 0.01468448398119066 C 0.015338799001752775 0.014638816270331739 0.018768629617305813 0.014136583360714172 0.01842245114983218 0.01413647145088361 C 0.018768629617305813 0.014136583360714172 0.01927845505198645 0.014731606519846898 0.019212608597974582 0.014685826899157414" fill="none" stroke="#000000" stroke-width="0.001"/>
<path d="M 0.019212608597974582 0.014685826899157414 C 0.01915322007062042 0.014760834815496978 0.0183728558212392 0.015759215230487265 0.01849994626972465 0.015585921895232181 C 0.0183728558212392 0.015759215230487265 0.017619821295017893 0.016863632341133954 0.017687523216149182 0.016765346922218434" fill="none" stroke="#000000" stroke-width="0.001"/>
<path d="M 0.017687523216149182 0.016765346922218434 C 0.017468435197161 0.016793612461060668 0.014620290950314651 0.017104533388325245 0.015058466988291011 0.017104533388325245 C 0.014620290950314651 0.017104533388325245 0.012210322741444676 0.0167370813833762 0.012429410760432856 0.016765346922218434" fill="none" stroke="#000000" stroke-width="0.001"/>
<path d="M 0.012429410760432856 0.016765346922218434 C 0.012361708839301567 0.016667061503302914 0.01148989725837194 0.015412628559977095 0.01161698770685739 0.015585921895232181 C 0.01148989725837194 0.015412628559977095 0.010844936851253296 0.01461081898281785 0.010904325378607457 0.014685826899157414" fill="none" stroke="#000000" stroke-width="0.001"/>
<path d="M 0.010904325378607457 0.014685826899157414 C 0.010970171832619325 0.01464004727846793 0.012040661294223492 0.014136359541053047 0.011694482826749862 0.01413647145088361 C 0.012040661294223492 0.014136359541053047 0.015338799001752773 0.014730151692049581 0.015058466988291011 0.01468448398119066" fill="none" stroke="#000000" stroke-width="0.001"/>
</g><g transform="translate(0.3373434528286707,0.14399566141189044) rotate(0) scale(1,1) translate(-0.015058466988291021,-0.015058466988291016)"><path d="M 0.015058466988291011 0.01473782330757835 C 0.015298816648332792 0.014698668953980682 0.018239467672342576 0.01426806701309732 0.017942662908792373 0.014267971064406342 C 0.018239467672342576 0.01426806701309732 0.01867657925440189 0.014778224994158743 0.018620124150893466 0.014738974691870096" fill="none" stroke="#000000" stroke-width="0.001"/>
<path d="M 0.018620124150893466 0.014738974691870096 C 0.01856920591225319 0.01480328460414173 0.017900141113939963 0.015659271012444027 0.018009105287210177 0.015510693639129698 C 0.017900141113939963 0.015659271012444027 0.017254508137020973 0.016606170632684734 0.01731255407165091 0.01652190317164204" fill="none" stroke="#000000" stroke-width="0.001"/>
<path d="M 0.01731255407165091 0.01652190317164204 C 0.01712471348137092 0.0165461373380069 0.014682785807731028 0.016812713168020365 0.015058466988291011 0.016812713168020365 C 0.014682785807731028 0.016812713168020365 0.012616539314651136 0.016497669005277178 0.012804379904931126 0.01652190317164204" fill="none" stroke="#000000" stroke-width="0.001"/>
<path d="M 0.012804379904931126 0.01652190317164204 C 0.012746333970301187 0.016437635710599342 0.01199886451610165 0.01536211626581537 0.012107828689371863 0.015510693639129698 C 0.01199886451610165 0.01536211626581537 0.0114458915870483 0.014674664779598463 0.011496809825688575 0.014738974691870096" fill="none" stroke="#000000" stroke-width="0.001"/>
<path d="M 0.011496809825688575 0.014738974691870096 C 0.011553264929197 0.01469972438958145 0.012471075831339874 0.014267875115715364 0.01217427106778967 0.014267971064406342 C 0.012471075831339874 0.014267875115715364 0.01529881664833279 0.014776977661176019 0.015058466988291011 0.01473782330757835" fill="none" stroke="#000000" stroke-width="0.001"/>
</g></g>
<g id="淫タトゥ">
<g id="ハート">
<g transform="translate(0.3373434528286707,0.14029796073566542) rotate(0) scale(1,1) translate(0.0014957944219115837,-0.008105469171541388)"><path d="M -0.0014957944219115926 0.014003296268374951 C -0.0014957944219115926 0.014060056929183882 -0.0014957944219115924 0.014757466836101045 -0.0014957944219115924 0.014684424198082125 C -0.0014957944219115924 0.014757466836101045 -0.0014957944219115922 0.01489608990181197 -0.0014957944219115922 0.014879807924601982" fill="none" stroke="none" stroke-width="0"/>
<path d="M -0.0014957944219115922 0.014879807924601982 C -0.001582222368808961 0.014800768758597389 -0.002697838857204149 0.01379023340157753 -0.002532929784680017 0.013931337932546865 C -0.002697838857204149 0.01379023340157753 -0.003616043715911151 0.013045576723328138 -0.0034747032922011747 0.013186553552969974 C -0.003616043715911151 0.013045576723328138 -0.004305982001533207 0.012070283135885066 -0.00422901486919973 0.012239615976844845 C -0.004305982001533207 0.012070283135885066 -0.004375656842695046 0.010987300572338984 -0.004398308880202893 0.011154559461452633 C -0.004375656842695046 0.010987300572338984 -0.0038479250002202586 0.010119251904708663 -0.003957190419105561 0.01023250930748105 C -0.0038479250002202586 0.010119251904708663 -0.0029416524100105514 0.009767805901055292 -0.003087123853579261 0.009795470628183998 C -0.0029416524100105514 0.009767805901055292 -0.002078922310308743 0.00996423378853267 -0.002211533096281049 0.009900532581936568 C -0.002078922310308743 0.00996423378853267 -0.0014361495323808042 0.010614831151120588 -0.0014957944219115922 0.010559885107337201" fill="none" stroke="none" stroke-width="0"/>
<path d="M -0.0014957944219115922 0.010559885107337201 C -0.0014957944219115922 0.01057732819951686 -0.0014957944219115924 0.01081962701418656 -0.0014957944219115924 0.01076920221349311 C -0.0014957944219115924 0.01081962701418656 -0.0014957944219115926 0.011197964424172379 -0.0014957944219115926 0.011164982715658588" fill="none" stroke="none" stroke-width="0"/>
<path d="M -0.0014957944219115926 0.011164982715658588 C -0.001562937637112398 0.011118148657612768 -0.0024192491209081286 0.010546720184623371 -0.002301513004321256 0.010602974019108742 C -0.0024192491209081286 0.010546720184623371 -0.0030073175695245744 0.010504715242544134 -0.0029086278209540647 0.010489936701834136 C -0.0030073175695245744 0.010504715242544134 -0.003556170947378955 0.010851978684806207 -0.0034857899871673717 0.01078031650762871 C -0.003556170947378955 0.010851978684806207 -0.003765295783785617 0.011461349353366098 -0.003753199343493061 0.011349882827964104 C -0.003765295783785617 0.011461349353366098 -0.0035746746804021868 0.01223871177956573 -0.0036309472706780414 0.012117914812452644 C -0.0035746746804021868 0.01223871177956573 -0.002974244931174429 0.012903109943185657 -0.003077928260182804 0.012799446433321137 C -0.002974244931174429 0.012903109943185657 -0.00225490283605494 0.013462197750414701 -0.002386747322577541 0.013361876930826884 C -0.00225490283605494 0.013462197750414701 -0.001421548346856097 0.01405674787983729 -0.0014957944219115926 0.014003296268374951" fill="none" stroke="none" stroke-width="0"/>
</g><g transform="translate(0.3373434528286707,0.14029796073566542) rotate(0) scale(1,1) translate(0.0014957944219115837,-0.008105469171541388)"><path d="M -0.0014957944219115926 0.014003296268374951 C -0.0014215483468560965 0.013949844656912612 -0.0004729970347230404 0.013261556111239067 -0.0006048415212456397 0.013361876930826884 C -0.0004729970347230404 0.013261556111239067 0.00019002274536797332 0.012695782923456616 8.633941635959859E-05 0.012799446433321137 C 0.00019002274536797332 0.012695782923456616 0.0006956310171307135 0.011997117845339557 0.0006393584268548572 0.012117914812452644 C 0.0006956310171307135 0.011997117845339557 0.0007495140593773178 0.01123841630256211 0.0007616104996698742 0.011349882827964104 C 0.0007495140593773178 0.01123841630256211 0.00042382018313259697 0.010708654330451213 0.0004942011433441806 0.01078031650762871 C 0.00042382018313259697 0.010708654330451213 -0.00018165077143964125 0.010475158161124138 -8.296102286912961E-05 0.010489936701834136 C -0.00018165077143964125 0.010475158161124138 -0.0008078119560888309 0.010659227853594112 -0.000690075839501959 0.010602974019108742 C -0.0008078119560888309 0.010659227853594112 -0.0015629376371123955 0.011211816773704409 -0.0014957944219115926 0.011164982715658588" fill="none" stroke="none" stroke-width="0"/>
<path d="M -0.0014957944219115926 0.011164982715658588 C -0.0014957944219115926 0.011132001007144798 -0.0014957944219115924 0.010718777412799661 -0.0014957944219115924 0.01076920221349311 C -0.0014957944219115924 0.010718777412799661 -0.0014957944219115922 0.010542442015157543 -0.0014957944219115922 0.010559885107337201" fill="none" stroke="none" stroke-width="0"/>
<path d="M -0.0014957944219115922 0.010559885107337201 C -0.0014361495323808016 0.010504939063553815 -0.0006474449615698032 0.009836831375340468 -0.0007800557475421062 0.009900532581936568 C -0.0006474449615698032 0.009836831375340468 0.00024100645332474638 0.009823135355312705 9.553500975604337E-05 0.009795470628183998 C 0.00024100645332474638 0.009823135355312705 0.0010748669941676348 0.010345766710253437 0.00096560157528233 0.01023250930748105 C 0.0010748669941676348 0.010345766710253437 0.001429372073887552 0.011321818350566282 0.0014067200363796998 0.011154559461452633 C 0.001429372073887552 0.011321818350566282 0.0011604588930430775 0.012408948817804624 0.0012374260253765561 0.012239615976844845 C 0.0011604588930430775 0.012408948817804624 0.00034177402466797826 0.01332753038261181 0.0004831144483779573 0.013186553552969974 C 0.00034177402466797826 0.01332753038261181 -0.0006235681316673214 0.014072442463516199 -0.00045865905914319223 0.013931337932546865 C -0.0006235681316673214 0.014072442463516199 -0.001582222368808959 0.014958847090606575 -0.0014957944219115922 0.014879807924601982" fill="none" stroke="none" stroke-width="0"/>
<path d="M -0.0014957944219115922 0.014879807924601982 C -0.0014957944219115922 0.014863525947391994 -0.0014957944219115924 0.014611381560063206 -0.0014957944219115924 0.014684424198082125 C -0.0014957944219115924 0.014611381560063206 -0.0014957944219115926 0.01394653560756602 -0.0014957944219115926 0.014003296268374951" fill="none" stroke="none" stroke-width="0"/>
</g></g>
<g transform="translate(0.3373434528286707,0.14029796073566542) rotate(0) scale(1,1) translate(-0.016032243425911998,-0.016032243425912)"><path d="M 0.008253548296563242 0.01948195548803172 C 0.00827983522552578 0.019289780547574648 0.00860574274469366 0.016793949091223198 0.008568991444113693 0.017175856202546858 C 0.00860574274469366 0.016793949091223198 0.008705028275140286 0.014709337981281243 0.008694563903522856 0.01489907015214783" fill="none" stroke="#000000" stroke-width="0.001"/>
<path d="M 0.008694563903522856 0.01489907015214783 C 0.008770135045462119 0.01506305079339721 0.009813640235474166 0.017210871540236334 0.009601417606794 0.016866837847140395 C 0.009813640235474166 0.017210871540236334 0.0115661725165742 0.019443870098227192 0.011241235447684851 0.01902747446929911 C 0.0115661725165742 0.019443870098227192 0.013688948015614629 0.022099927971358912 0.013500662433466185 0.02186358539427739" fill="none" stroke="none" stroke-width="0"/>
<path d="M 0.013500662433466185 0.02186358539427739 C 0.013230079237785585 0.021686760103635943 0.009879526849839842 0.019494323375319388 0.010253664085298986 0.019741681906580044 C 0.009879526849839842 0.019494323375319388 0.008844339292228479 0.018873639150937146 0.009011015607956457 0.018895283019149507 C 0.008844339292228479 0.018873639150937146 0.008190426020613812 0.019530844860438577 0.008253548296563246 0.019481955488031725" fill="none" stroke="none" stroke-width="0"/>
</g><g transform="translate(0.3373434528286707,0.14029796073566542) rotate(0) scale(1,1) translate(-0.016032243425911998,-0.016032243425912)"><path d="M 0.02381093855526084 0.019481955488031725 C 0.023747816279311405 0.019433066115624873 0.022886794928139637 0.01891692688736187 0.023053471243867613 0.018895283019149507 C 0.022886794928139637 0.01891692688736187 0.021436685531065966 0.0199890404378407 0.02181082276652511 0.019741681906580044 C 0.021436685531065966 0.0199890404378407 0.018293241222677264 0.022040410684918837 0.01856382441835787 0.02186358539427739" fill="none" stroke="none" stroke-width="0"/>
<path d="M 0.01856382441835787 0.02186358539427739 C 0.018752110000506313 0.021627242817195868 0.021148188473028535 0.018611078840371026 0.02082325140413919 0.01902747446929911 C 0.021148188473028535 0.018611078840371026 0.02267529187371021 0.016522804154044456 0.02246306924503004 0.016866837847140395 C 0.02267529187371021 0.016522804154044456 0.02344549409024048 0.014735089510898448 0.023369922948301213 0.01489907015214783" fill="none" stroke="none" stroke-width="0"/>
<path d="M 0.023369922948301213 0.01489907015214783 C 0.02338038731991865 0.015088802323014416 0.0235322467082904 0.017557763313870517 0.02349549540771043 0.017175856202546858 C 0.0235322467082904 0.017557763313870517 0.023837225484223377 0.019674130428488795 0.02381093855526084 0.01948195548803172" fill="none" stroke="#000000" stroke-width="0.001"/>
</g></g>
<g id="悪タトゥ">
<g id="文字">
<g id="文字a">
<g transform="translate(0.3373434528286707,0.14029796073566542) rotate(0) scale(1,1) translate(-0.004200262811358902,-0.01602013802246163)"><path d="M -0.002947298638336362 0.011775445912153334 C -0.002862737773591732 0.011808129913731277 -0.0017693461271262798 0.012223155065843646 -0.0019325682614007988 0.01216765393108865 C -0.0017693461271262798 0.012223155065843646 -0.0008313104879823563 0.012483196725148658 -0.0009886330270421338 0.012441459529213304 C -0.0008313104879823563 0.012483196725148658 3.396347684641971E-05 0.012687420345071214 -4.4697792683469024E-05 0.012668500282312914" fill="none" stroke="#000000" stroke-width="0.001"/>
<path d="M -4.4697792683469024E-05 0.012668500282312914 C -4.4697792683469065E-05 0.01277665952791651 -4.469779268346963E-05 0.014182729720763275 -4.469779268346951E-05 0.01396641122955608 C -4.469779268346963E-05 0.014182729720763275 -4.469779268347055E-05 0.01548064066800644 -4.4697792683470433E-05 0.015264322176799246 C -4.469779268347055E-05 0.01548064066800644 -4.469779268347096E-05 0.01667039236964601 -4.469779268347092E-05 0.016562233124042414" fill="none" stroke="#000000" stroke-width="0.001"/>
<path d="M -4.469779268347092E-05 0.016562233124042414 C -0.00012335906221335962 0.016543313061284114 -0.0011459555661019127 0.016293455175007444 -0.0009886330270421353 0.0163351923709428 C -0.0011459555661019127 0.016293455175007444 -0.00209223442387775 0.01600588563806315 -0.0019325682614007988 0.016061386772818147 C -0.00209223442387775 0.01600588563806315 -0.002985631869712609 0.015636494752304872 -0.002904626976765547 0.015669178753882816" fill="none" stroke="#000000" stroke-width="0.001"/>
<path d="M -0.002904626976765547 0.015669178753882816 C -0.0029022833533483734 0.01556101950827922 -0.0028753324168912194 0.014154949315432465 -0.0028765034957594633 0.014371267806639658 C -0.0028753324168912194 0.014154949315432465 -0.0028964736255613637 0.012857038368189308 -0.002890574030346622 0.013073356859396501 C -0.0028964736255613637 0.012857038368189308 -0.002952025689002175 0.011667286666549738 -0.002947298638336363 0.011775445912153334" fill="none" stroke="#000000" stroke-width="0.001"/>
</g><g transform="translate(0.3316825893730903,0.1383701426112552) rotate(0) scale(1,1) translate(-0.008075279144492289,-0.008075279144492289)"><path d="M 0.00804287215669479 0.006733974230442759 C 0.008027839391891948 0.006883240989069733 0.007971812198366322 0.008803482686912395 0.00786247897906067 0.008525175333966451 C 0.007971812198366322 0.008803482686912395 0.009479236772471106 0.010202703060113049 0.00935487078836261 0.01007366246579408" fill="none" stroke="#000000" stroke-width="0.001"/>
<path d="M 0.00935487078836261 0.01007366246579408 C 0.00927385405213246 0.00995704163564116 0.008169557064964207 0.00860717531111431 0.008382669953600794 0.008674212503959031 C 0.008169557064964207 0.00860717531111431 0.006665419972317121 0.009318799788965623 0.006797516124723557 0.009269216151657423" fill="none" stroke="#000000" stroke-width="0.001"/>
<path d="M 0.006797516124723557 0.009269216151657423 C 0.006856752304110656 0.009115635036062497 0.007612129946699679 0.00721497260441709 0.007508350277368743 0.007426242764518312 C 0.007612129946699679 0.00721497260441709 0.008087415646638625 0.006676285185936463 0.008042872156694789 0.006733974230442759" fill="none" stroke="#000000" stroke-width="0.001"/>
</g><g transform="translate(0.3316825893730903,0.1383701426112552) rotate(0) scale(1,1) translate(-0.044814647619275665,-0.04481464761927565)"><path d="M 0.04597671965288264 0.044593825016440165 C 0.045997114562078695 0.044706106319853466 0.04582609393325228 0.04536611360469924 0.04584966520367844 0.04535353598563966 C 0.04582609393325228 0.04536611360469924 0.04564883944106983 0.04468349017212305 0.04569386440776874 0.04474475644515511 C 0.04564883944106983 0.04468349017212305 0.045272559494406554 0.04457339164650064 0.045309365603291483 0.044618340709254946 C 0.045272559494406554 0.04457339164650064 0.045276821158652454 0.044154352661722206 0.04525219110114959 0.044205367692103446 C 0.045276821158652454 0.044154352661722206 0.04566530367263689 0.04403853178837476 0.0456049262933258 0.04400616034468003 C 0.04566530367263689 0.04403853178837476 0.045997114562078695 0.044706106319853466 0.04597671965288264 0.044593825016440165 Z" fill="#cccccc" stroke="#000000" stroke-width="0.001"/>
</g></g>
<g id="文字b">
<g transform="translate(0.33309849222462834,0.1383701426112552) rotate(0) scale(1,1) translate(-0.004200262811358902,-0.01602013802246163)"><path d="M 0.004200262811358902 0.014596318406723147 C 0.00427892408088879 0.014607452893633872 0.005301520584777345 0.01475171301904721 0.005144198045717568 0.014729932249651845 C 0.005301520584777345 0.01475171301904721 0.006245455819136009 0.014876042412890356 0.006088133280076231 0.014857687639467522 C 0.006245455819136009 0.014876042412890356 0.007110729783964785 0.014957898021664046 0.007032068514434896 0.014950189530725851" fill="none" stroke="#000000" stroke-width="0.001"/>
<path d="M 0.007032068514434896 0.014950189530725851 C 0.007032068514434896 0.015058348776329448 0.0070320685144348955 0.01646441896917621 0.0070320685144348955 0.016248100477969016 C 0.0070320685144348955 0.01646441896917621 0.007032068514434895 0.01776232991641937 0.007032068514434895 0.017546011425212178 C 0.007032068514434895 0.01776232991641937 0.007032068514434895 0.018952081618058936 0.007032068514434895 0.01884392237245534" fill="none" stroke="#000000" stroke-width="0.001"/>
<path d="M 0.007032068514434895 0.01884392237245534 C 0.006953407244905006 0.018836213881517145 0.005930810741016453 0.01873306570777418 0.00608813328007623 0.018751420481197014 C 0.005930810741016453 0.01873306570777418 0.004986875506657789 0.01860188432198598 0.005144198045717566 0.018623665091381345 C 0.004986875506657789 0.01860188432198598 0.004121601541829013 0.018478916761541914 0.004200262811358902 0.01849005124845264" fill="none" stroke="#000000" stroke-width="0.001"/>
<path d="M 0.004200262811358902 0.01849005124845264 C 0.004200262811358902 0.018381892002849044 0.004200262811358902 0.01697582181000229 0.004200262811358902 0.017192140301209483 C 0.004200262811358902 0.01697582181000229 0.004200262811358902 0.015677910862759124 0.004200262811358902 0.015894229353966317 C 0.004200262811358902 0.015677910862759124 0.004200262811358902 0.014488159161119549 0.004200262811358902 0.014596318406723147" fill="none" stroke="#000000" stroke-width="0.001"/>
</g><g transform="translate(0.33451439507616637,0.1383701426112552) rotate(0) scale(1,1) translate(-0.008075279144492289,-0.008075279144492289)"><path d="M 0.006888693545051495 0.007007134038376759 C 0.006938389705174437 0.0071367029372632375 0.0076804934844563145 0.00869549606910312 0.007485047466526798 0.008561960825014503 C 0.0076804934844563145 0.00869549606910312 0.009379795618012266 0.008613523312642287 0.009234045760205692 0.00860955696744015" fill="none" stroke="#000000" stroke-width="0.001"/>
<path d="M 0.009234045760205692 0.00860955696744015 C 0.009175724027218677 0.008527885398831292 0.008332242745492338 0.007752838215584968 0.008534184964361518 0.007629498144133853 C 0.008332242745492338 0.007752838215584968 0.006667118647893359 0.010294649464913512 0.006810739133775525 0.010089637824853538" fill="none" stroke="#000000" stroke-width="0.001"/>
<path d="M 0.006810739133775525 0.010089637824853538 C 0.0068365859809728135 0.009991861856770114 0.007127397501082648 0.008659450892312714 0.007120901300142984 0.008916326207852446 C 0.007127397501082648 0.008659450892312714 0.00686934289879387 0.006848034690920452 0.006888693545051494 0.007007134038376759" fill="none" stroke="#000000" stroke-width="0.001"/>
</g><g transform="translate(0.33451439507616637,0.1383701426112552) rotate(0) scale(1,1) translate(-0.044814647619275665,-0.04481464761927565)"><path d="M 0.04501050873883806 0.046883908220560155 C 0.04494070581703465 0.04685147734064038 0.044772428471609116 0.04644565514436118 0.04476927542628624 0.046500790297527045 C 0.044772428471609116 0.04644565514436118 0.04510894397727781 0.04621823295998795 0.04504834528271258 0.046222286382569755 C 0.04510894397727781 0.04621823295998795 0.04557397477044242 0.04643770681020093 0.04549645976106902 0.04645214922654539 C 0.04557397477044242 0.04643770681020093 0.04598772962243156 0.04608546168893775 0.045978525395193384 0.046048977386436166 C 0.04598772962243156 0.04608546168893775 0.045526242433230855 0.04695953842607471 0.04560691048792713 0.04688996085656438 C 0.045526242433230855 0.04695953842607471 0.04494070581703465 0.04685147734064038 0.04501050873883806 0.046883908220560155 Z" fill="#cccccc" stroke="#000000" stroke-width="0.001"/>
</g></g>
<g id="文字c">
<g transform="translate(0.33593029792770435,0.1383701426112552) rotate(0) scale(1,1) translate(-0.004200262811358902,-0.01602013802246163)"><path d="M 0.004200262811358902 0.014950189530725851 C 0.00427892408088879 0.01495339626295614 0.005301520584777345 0.014991877049719606 0.005144198045717568 0.014988670317489317 C 0.005301520584777345 0.014991877049719606 0.006245455819136009 0.014985463585259028 0.006088133280076231 0.014988670317489317 C 0.006245455819136009 0.014985463585259028 0.007110729783964785 0.014946982798495562 0.007032068514434896 0.014950189530725851" fill="none" stroke="#000000" stroke-width="0.001"/>
<path d="M 0.007032068514434896 0.014950189530725851 C 0.007032068514434896 0.015058348776329448 0.0070320685144348955 0.01646441896917621 0.0070320685144348955 0.016248100477969016 C 0.0070320685144348955 0.01646441896917621 0.007032068514434895 0.01776232991641937 0.007032068514434895 0.017546011425212178 C 0.007032068514434895 0.01776232991641937 0.007032068514434895 0.018952081618058936 0.007032068514434895 0.01884392237245534" fill="none" stroke="#000000" stroke-width="0.001"/>
<path d="M 0.007032068514434895 0.01884392237245534 C 0.006953407244905006 0.01884712910468563 0.005930810741016453 0.018885609891449093 0.00608813328007623 0.018882403159218804 C 0.005930810741016453 0.018885609891449093 0.004986875506657789 0.018879196426988515 0.005144198045717566 0.018882403159218804 C 0.004986875506657789 0.018879196426988515 0.004121601541829013 0.01884071564022505 0.004200262811358902 0.01884392237245534" fill="none" stroke="#000000" stroke-width="0.001"/>
<path d="M 0.004200262811358902 0.01884392237245534 C 0.004200262811358902 0.018735763126851743 0.004200262811358902 0.01732969293400499 0.004200262811358902 0.01754601142521218 C 0.004200262811358902 0.01732969293400499 0.004200262811358902 0.016031781986761823 0.004200262811358902 0.016248100477969016 C 0.004200262811358902 0.016031781986761823 0.004200262811358902 0.014842030285122255 0.004200262811358902 0.014950189530725851" fill="none" stroke="#000000" stroke-width="0.001"/>
</g><g transform="translate(0.3373462007792424,0.1383701426112552) rotate(0) scale(1,1) translate(-0.008075279144492289,-0.008075279144492289)"><path d="M 0.007198591459628137 0.007438172552898723 C 0.007216936311335943 0.007614261981539172 0.007530766643119371 0.0097628431982185 0.007418729680121819 0.009551245696584101 C 0.007530766643119371 0.0097628431982185 0.008698258822503026 0.00988296043149595 0.008543035015598754 0.009977342572511514 C 0.008698258822503026 0.00988296043149595 0.00934294705858761 0.008288769790387819 0.009281415362973082 0.008418660004397335" fill="none" stroke="#000000" stroke-width="0.001"/>
<path d="M 0.009281415362973082 0.008418660004397335 C 0.00925533556656654 0.008582681935212031 0.008793100990600468 0.01053841870458601 0.008968457806094591 0.010386923174173683 C 0.008793100990600468 0.01053841870458601 0.007027856557956018 0.01022407996894289 0.007177133577043601 0.010236606369345258" fill="none" stroke="#000000" stroke-width="0.001"/>
<path d="M 0.007177133577043601 0.010236606369345258 C 0.007151090891444247 0.010139869709877498 0.006866409506733399 0.008842563637694922 0.006864621349851354 0.009075766455732133 C 0.006866409506733399 0.008842563637694922 0.007226422302109535 0.007301706394329272 0.007198591459628137 0.007438172552898723" fill="none" stroke="#000000" stroke-width="0.001"/>
</g><g transform="translate(0.3373462007792424,0.1383701426112552) rotate(0) scale(1,1) translate(-0.044814647619275665,-0.04481464761927565)"><path d="M 0.04520374975229266 0.04489440252200314 C 0.04522293932235523 0.04500668382541644 0.04506202601269246 0.0458430613829281 0.045084204221036435 0.045816916819817304 C 0.04506202601269246 0.0458430613829281 0.044895247260997986 0.045146871006300715 0.04493761125216499 0.045208137279332775 C 0.044895247260997986 0.045146871006300715 0.04454120545918251 0.045036772480678285 0.04457583632703234 0.04508172154343259 C 0.04454120545918251 0.045036772480678285 0.04454521525907147 0.04461773349589985 0.04452204083796703 0.04466874852628109 C 0.04454521525907147 0.04461773349589985 0.04491073845647943 0.04448834567850117 0.04485392938028563 0.044469541178857666 C 0.04491073845647943 0.04448834567850117 0.04522293932235523 0.04500668382541644 0.04520374975229266 0.04489440252200314 Z" fill="#cccccc" stroke="#000000" stroke-width="0.001"/>
</g></g>
<g id="文字d">
<g transform="translate(0.33876210363078035,0.1383701426112552) rotate(0) scale(1,1) translate(-0.004200262811358902,-0.01602013802246163)"><path d="M 0.004200262811358902 0.014950189530725851 C 0.00427892408088879 0.014942481039787656 0.005301520584777345 0.014839332866044688 0.005144198045717568 0.014857687639467522 C 0.005301520584777345 0.014839332866044688 0.006245455819136009 0.014708151480256481 0.006088133280076231 0.014729932249651845 C 0.006245455819136009 0.014708151480256481 0.007110729783964785 0.014585183919812422 0.007032068514434896 0.014596318406723147" fill="none" stroke="#000000" stroke-width="0.001"/>
<path d="M 0.007032068514434896 0.014596318406723147 C 0.007032068514434896 0.014704477652326745 0.0070320685144348955 0.01611054784517351 0.0070320685144348955 0.015894229353966317 C 0.0070320685144348955 0.01611054784517351 0.007032068514434895 0.017408458792416672 0.007032068514434895 0.01719214030120948 C 0.007032068514434895 0.017408458792416672 0.007032068514434895 0.018598210494056237 0.007032068514434895 0.01849005124845264" fill="none" stroke="#000000" stroke-width="0.001"/>
<path d="M 0.007032068514434895 0.01849005124845264 C 0.006953407244905006 0.018501185735363367 0.005930810741016453 0.01864544586077671 0.00608813328007623 0.018623665091381345 C 0.005930810741016453 0.01864544586077671 0.004986875506657789 0.01876977525461985 0.005144198045717566 0.018751420481197014 C 0.004986875506657789 0.01876977525461985 0.004121601541829013 0.018851630863393535 0.004200262811358902 0.01884392237245534" fill="none" stroke="#000000" stroke-width="0.001"/>
<path d="M 0.004200262811358902 0.01884392237245534 C 0.004200262811358902 0.018735763126851743 0.004200262811358902 0.01732969293400499 0.004200262811358902 0.01754601142521218 C 0.004200262811358902 0.01732969293400499 0.004200262811358902 0.016031781986761823 0.004200262811358902 0.016248100477969016 C 0.004200262811358902 0.016031781986761823 0.004200262811358902 0.014842030285122255 0.004200262811358902 0.014950189530725851" fill="none" stroke="#000000" stroke-width="0.001"/>
</g><g transform="translate(0.3401780064823184,0.1383701426112552) rotate(0) scale(1,1) translate(-0.008075279144492289,-0.008075279144492289)"><path d="M 0.006921277131306161 0.007351241073857745 C 0.007067749789519859 0.007369201235304617 0.008869028109092604 0.0076429470827286536 0.008678949029870535 0.0075667630112202025 C 0.008869028109092604 0.0076429470827286536 0.009245832502979372 0.00832367384202074 0.009202226081971 0.00826544993195916" fill="none" stroke="#000000" stroke-width="0.001"/>
<path d="M 0.009202226081971 0.00826544993195916 C 0.009054395716660536 0.00824533102027466 0.007231864803464192 0.008204714235776442 0.007428261698245432 0.008024022991745162 C 0.007231864803464192 0.008204714235776442 0.006796896815125348 0.010634555016050307 0.006845463344596124 0.010433744860334528" fill="none" stroke="#000000" stroke-width="0.001"/>
<path d="M 0.006845463344596124 0.010433744860334528 C 0.006891150326810144 0.010350905710549021 0.007400024946723528 0.009182799747368724 0.007393707131164358 0.009439675062908456 C 0.007400024946723528 0.009182799747368724 0.0068819079646513116 0.007177204908103519 0.006921277131306161 0.007351241073857745" fill="none" stroke="#000000" stroke-width="0.001"/>
</g><g transform="translate(0.3401780064823184,0.1383701426112552) rotate(0) scale(1,1) translate(-0.044814647619275665,-0.04481464761927565)"><path d="M 0.04512185135130879 0.0468423825850193 C 0.0450511889941486 0.046848724840991555 0.044804610513706475 0.04645936174589542 0.04481358333041096 0.04651695266576152 C 0.044804610513706475 0.04645936174589542 0.04506858127777126 0.04612347748748177 0.045014177550855 0.04615129154662606 C 0.04506858127777126 0.04612347748748177 0.04553510467335065 0.046127840707524057 0.04546642805340602 0.046183183956030105 C 0.04553510467335065 0.046127840707524057 0.04585455562043454 0.045508644367725476 0.045838296990190604 0.04548717256455345 C 0.04585455562043454 0.045508644367725476 0.0456018278130931 0.046553779762466566 0.04566153161633325 0.046440845594094414 C 0.0456018278130931 0.046553779762466566 0.0450511889941486 0.046848724840991555 0.04512185135130879 0.0468423825850193 Z" fill="#cccccc" stroke="#000000" stroke-width="0.001"/>
</g></g>
<g id="文字e">
<g transform="translate(0.34159390933385636,0.1383701426112552) rotate(0) scale(1,1) translate(-0.004200262811358902,-0.01602013802246163)"><path d="M 0.004200262811358902 0.014596318406723147 C 0.00427892408088879 0.014577398343964846 0.005301520584777345 0.014327540457688184 0.005144198045717568 0.014369277653623539 C 0.005301520584777345 0.014327540457688184 0.00625135541435075 0.014039970920743888 0.006088133280076231 0.014095472055498886 C 0.00625135541435075 0.014039970920743888 0.007187424521756427 0.013670580034985615 0.007102863657011797 0.01370326403656356" fill="none" stroke="#000000" stroke-width="0.001"/>
<path d="M 0.007102863657011797 0.01370326403656356 C 0.007098136606345984 0.013811423282167156 0.007040239453807313 0.01521749347501392 0.0070461390490220545 0.015001174983806724 C 0.007040239453807313 0.01521749347501392 0.0070332395933031385 0.016515404422257088 0.007032068514434895 0.016299085931049895 C 0.0070332395933031385 0.016515404422257088 0.007062535618858152 0.017705156123896653 0.007060191995440978 0.017596996878293057" fill="none" stroke="#000000" stroke-width="0.001"/>
<path d="M 0.007060191995440978 0.017596996878293057 C 0.006979187102493916 0.017629680879870997 0.005928467117599279 0.018044706031983365 0.00608813328007623 0.017989204897228366 C 0.005928467117599279 0.018044706031983365 0.004986875506657789 0.01830474769128838 0.005144198045717566 0.018263010495353026 C 0.004986875506657789 0.01830474769128838 0.004121601541829013 0.01850897131121094 0.004200262811358902 0.01849005124845264" fill="none" stroke="#000000" stroke-width="0.001"/>
<path d="M 0.004200262811358902 0.01849005124845264 C 0.004200262811358902 0.018381892002849044 0.004200262811358902 0.01697582181000229 0.004200262811358902 0.017192140301209483 C 0.004200262811358902 0.01697582181000229 0.004200262811358902 0.015677910862759124 0.004200262811358902 0.015894229353966317 C 0.004200262811358902 0.015677910862759124 0.004200262811358902 0.014488159161119549 0.004200262811358902 0.014596318406723147" fill="none" stroke="#000000" stroke-width="0.001"/>
</g><g transform="translate(0.3430098121853944,0.1383701426112552) rotate(0) scale(1,1) translate(-0.008075279144492289,-0.008075279144492289)"><path d="M 0.007028395051121834 0.006941895212434444 C 0.007100622120101344 0.007072448622311744 0.008069989724389277 0.00859937082071946 0.00789511987887595 0.008508536130962039 C 0.008069989724389277 0.00859937082071946 0.009229475973815578 0.007992192769403626 0.00912683319728176 0.008031911489523504" fill="none" stroke="#000000" stroke-width="0.001"/>
<path d="M 0.00912683319728176 0.008031911489523504 C 0.009019878436093242 0.008036382301620869 0.007671528456370076 0.008250337884041933 0.007843376063019544 0.008085561234691887 C 0.007671528456370076 0.008250337884041933 0.006999769072027202 0.010169537118976746 0.007064661917488151 0.010009231281724065" fill="none" stroke="#000000" stroke-width="0.001"/>
<path d="M 0.007064661917488151 0.010009231281724065 C 0.007072827466719863 0.009871227720553823 0.007159626269404834 0.008097577208573695 0.007162648508268693 0.008353188547681164 C 0.007159626269404834 0.008097577208573695 0.007017207263026262 0.006824287434497218 0.007028395051121834 0.006941895212434444" fill="none" stroke="#000000" stroke-width="0.001"/>
</g><g transform="translate(0.3430098121853944,0.1383701426112552) rotate(0) scale(1,1) translate(-0.044814647619275665,-0.04481464761927565)"><path d="M 0.04465888210609444 0.043584634545739166 C 0.044789827131100274 0.04353092053780785 0.04589205330012105 0.043475174076576396 0.04587299498803372 0.04344640736863402 C 0.04589205330012105 0.043475174076576396 0.04479516964891807 0.04400601068213962 0.044887581851142375 0.04392983504104767 C 0.04479516964891807 0.04400601068213962 0.0447264141495996 0.044408700696246264 0.044764048561342015 0.04436051506173741 C 0.0447264141495996 0.044408700696246264 0.044397436087451905 0.044485601021993275 0.04443596891023343 0.044508062655153904 C 0.044397436087451905 0.044485601021993275 0.044320230787618785 0.044014023121358624 0.0443016546879637 0.04409097546380985 C 0.044320230787618785 0.044014023121358624 0.044789827131100274 0.04353092053780785 0.04465888210609444 0.043584634545739166 Z" fill="#cccccc" stroke="#000000" stroke-width="0.001"/>
</g><g transform="translate(0.3430098121853944,0.1383701426112552) rotate(0) scale(1,1) translate(-0.044814647619275665,-0.04481464761927565)"><path d="M 0.0443016546879637 0.04613033187879477 C 0.04428307858830862 0.04607187991459521 0.044474501733014954 0.0456722826760384 0.04443596891023343 0.0457132446874507 C 0.044474501733014954 0.0456722826760384 0.04480168297308443 0.045668472998104385 0.044764048561342015 0.045638787741847195 C 0.04480168297308443 0.045668472998104385 0.04497999405336668 0.04608767555177369 0.044887581851142375 0.04606946776253696 C 0.04497999405336668 0.04608767555177369 0.04585393667594639 0.0458860479206303 0.04587299498803372 0.04585728121268793 C 0.04585393667594639 0.0458860479206303 0.04452793708108861 0.046437422480021015 0.04465888210609444 0.046414668257845446 C 0.04452793708108861 0.046437422480021015 0.04428307858830862 0.04607187991459521 0.0443016546879637 0.04613033187879477 Z" fill="#cccccc" stroke="#000000" stroke-width="0.001"/>
</g></g>
</g>
<g transform="translate(0.3373434528286707,0.14029796073566542) rotate(0) scale(1,1) translate(-0.0064004102468552225,-0.006400410246855223)"><path d="M -0.0010265485309686742 0.0071396227423216035 C -0.0007252517238585075 0.007220062615889834 0.003207926385838649 0.008211037677937232 0.002589013154353324 0.00810490122514037 C 0.003207926385838649 0.008211037677937232 0.007035643095605538 0.008413260175883955 0.006400410246855222 0.008413260175883955 C 0.007035643095605538 0.008413260175883955 0.010830720570842447 0.007998764772343507 0.01021180733935712 0.00810490122514037 C 0.010830720570842447 0.007998764772343507 0.01412866583178931 0.007059182868753373 0.013827369024679141 0.0071396227423216035" fill="none" stroke="none" stroke-width="0"/>
<path d="M 0.013827369024679141 0.0071396227423216035 C 0.013829271631667455 0.007159421583811551 0.013853890093368766 0.007418503631586902 0.013850200308538905 0.0073772088402009744 C 0.013853890093368766 0.007418503631586902 0.01387343362047903 0.007656656188848712 0.013871646442637482 0.007635160238952733" fill="none" stroke="#000000" stroke-width="0.001"/>
<path d="M 0.013871646442637482 0.007635160238952733 C 0.013566659850697452 0.007716681924303799 0.009589204323041937 0.00872063872774522 0.010211807339357126 0.008613420463165522 C 0.009589204323041937 0.00872063872774522 0.005765177398104909 0.008921779413909108 0.006400410246855226 0.008921779413909108 C 0.005765177398104909 0.008921779413909108 0.0019664101380381374 0.008506202198585824 0.0025890131543533272 0.008613420463165522 C 0.0019664101380381374 0.008506202198585824 -0.0013758125408670839 0.007553638553601667 -0.0010708259489270522 0.007635160238952733" fill="none" stroke="none" stroke-width="0"/>
<path d="M -0.0010708259489270522 0.007635160238952733 C -0.001069038771085503 0.007613664289056753 -0.0010456900299985964 0.007335914048815047 -0.0010493798148284612 0.0073772088402009744 C -0.0010456900299985964 0.007335914048815047 -0.0010246459239803586 0.007119823900831656 -0.0010265485309686742 0.0071396227423216035" fill="none" stroke="#000000" stroke-width="0.001"/>
</g></g>
<g id="ヴィオラ">
<g id="左">
<g transform="translate(0.3373434528286707,0.14029796073566542) rotate(0) scale(1,1) translate(-0.005607832739230754,-0.005607832739230756)"><path d="M -0.007492807838368464 -0.011337164278572022 C -0.007035154289893094 -0.010190828460866408 -0.0010938344412816615 0.004334460341640416 -0.0020009652566640285 0.002418865533895344 C -0.0010938344412816615 0.004334460341640416 0.0038422392131269366 0.012419232404408303 0.0033927619462199394 0.011649973414368844" fill="none" stroke="#000000" stroke-width="0.001"/>
<path d="M 0.0033927619462199394 0.011649973414368844 C 0.0028168755271009913 0.01156024299945378 -0.004609265152254464 0.010558253366235575 -0.003517875083207439 0.010573208435388086 C -0.004609265152254464 0.010558253366235575 -0.010219422532272428 0.011545287930301277 -0.009703918882344353 0.011470512584538723" fill="none" stroke="#000000" stroke-width="0.001"/>
<path d="M -0.009703918882344353 0.011470512584538723 C -0.00916970821545084 0.011021215929855199 -0.003109131625957537 0.004178312989743867 -0.003293390879622194 0.006078952728336429 C -0.003109131625957537 0.004178312989743867 -0.007842759251597326 -0.01278850736248106 -0.007492807838368469 -0.011337164278572022" fill="none" stroke="#000000" stroke-width="0.001"/>
</g><g transform="translate(0.32821774500623246,0.14526333643182274) rotate(0) scale(1,1) translate(-0.011152769902399133,-0.011152769902399133)"><path d="M 0.005000535099838494 0.011113795468371821 C 0.005513221333385214 0.011042495010589902 0.012240694526672322 0.010348156074536562 0.011152769902399133 0.010258189974988782 C 0.012240694526672322 0.010348156074536562 0.01863086898184324 0.01235465522027489 0.01805563059111677 0.01219338866294519" fill="none" stroke="#000000" stroke-width="0.001"/>
<path d="M 0.01805563059111677 0.01219338866294519 C 0.018098363622509585 0.012231195655449474 0.018614643234725812 0.012741829962555452 0.01856842696783053 0.012647072572996602 C 0.018614643234725812 0.012741829962555452 0.01857590203685832 0.013430160766098752 0.01861022579386014 0.013330477337651374 C 0.01857590203685832 0.013430160766098752 0.018061784494249885 0.013889489981260415 0.018156541883808733 0.013843273714365134 C 0.018061784494249885 0.013889489981260415 0.0174161867220994 0.01388855577589721 0.017473137119153964 0.013885072540394743" fill="none" stroke="#000000" stroke-width="0.001"/>
<path d="M 0.017473137119153964 0.013885072540394743 C 0.016946439851091063 0.013731928981179305 0.01011338640078951 0.011965506728375968 0.011152769902399133 0.012047349829809486 C 0.01011338640078951 0.011965506728375968 0.004487848866291774 0.012974255780974447 0.005000535099838494 0.012902955323192527" fill="none" stroke="#000000" stroke-width="0.001"/>
<path d="M 0.005000535099838494 0.012902955323192527 C 0.004947821472089725 0.012881120623657101 0.00429342323956907 0.012566390601483207 0.004367971566853266 0.012640938928767402 C 0.00429342323956907 0.012566390601483207 0.004105955172428144 0.011902948140284636 0.004105955172428144 0.012008375395782174 C 0.004105955172428144 0.011902948140284636 0.004442519894137462 0.011301263535512751 0.004367971566853266 0.011375811862796946 C 0.004442519894137462 0.011301263535512751 0.005053248727587263 0.011091960768836395 0.005000535099838494 0.011113795468371821" fill="none" stroke="#000000" stroke-width="0.001"/>
</g><g transform="translate(0.32973465483277586,0.13710899353033) rotate(0) scale(1,1) translate(-0.011152769902399133,-0.011152769902399133)"><path d="M 0.006438934656817298 -0.003032552591864814 C 0.006900376357697647 -0.0018795707360562267 0.012944248050834162 0.012783434662857689 0.011976235067381493 0.010803229677838234 C 0.012944248050834162 0.012783434662857689 0.018561661740821658 0.0215571303575795 0.018055090458249337 0.020729907228368635" fill="none" stroke="#000000" stroke-width="0.001"/>
<path d="M 0.018055090458249337 0.020729907228368635 C 0.01805558836661034 0.020786961875344165 0.01802157161354626 0.02151231344120358 0.01806106535858138 0.021414562992074976 C 0.01802157161354626 0.02151231344120358 0.017484119217456223 0.021944106328425972 0.017581165517827877 0.021902912617911892 C 0.017484119217456223 0.021944106328425972 0.016798759304992923 0.02186939377320882 0.01689650975412153 0.021908887518243943 C 0.016798759304992923 0.02186939377320882 0.01636746432613154 0.02138899602409431 0.016408160128284617 0.021428987677490435" fill="none" stroke="#000000" stroke-width="0.001"/>
<path d="M 0.016408160128284617 0.021428987677490435 C 0.015901588845712297 0.02060176454827957 0.0093612917539641 0.009522105141940579 0.01032930473741677 0.011502310126960033 C 0.0093612917539641 0.009522105141940579 0.0043305626259722285 -0.0034864539985516004 0.004792004326852578 -0.0023334721427430132" fill="none" stroke="#000000" stroke-width="0.001"/>
<path d="M 0.004792004326852578 -0.0023334721427430132 C 0.004791506418491574 -0.002390526789718542 0.004825523171555652 -0.0031158783555779632 0.0047860294265205305 -0.003018127906449358 C 0.004825523171555652 -0.0031158783555779632 0.005362975567645691 -0.0035476712428003537 0.005265929267274036 -0.0035064775322862732 C 0.005362975567645691 -0.0035476712428003537 0.0060483354801089875 -0.0034729586875832 0.005950585030980382 -0.0035124524326183215 C 0.0060483354801089875 -0.0034729586875832 0.006479630458970374 -0.0029925609384686886 0.006438934656817298 -0.003032552591864814" fill="none" stroke="#000000" stroke-width="0.001"/>
</g></g>
<g id="右">
<g transform="translate(0.3373434528286707,0.14029796073566542) rotate(0) scale(1,1) translate(-0.005607832739230754,-0.005607832739230756)"><path d="M 0.0187084733168299 -0.011337164278572022 C 0.018358521903601044 -0.009885821194662983 0.014693315611748303 0.007979592466928991 0.014509056358083638 0.006078952728336429 C 0.014693315611748303 0.007979592466928991 0.021453795027699396 0.011919809239222248 0.020919584360805876 0.011470512584538723" fill="none" stroke="#000000" stroke-width="0.001"/>
<path d="M 0.020919584360805876 0.011470512584538723 C 0.020404080710877792 0.01139573723877617 0.013642150492621833 0.010588163504540596 0.014733540561668867 0.010573208435388086 C 0.013642150492621833 0.010588163504540596 0.007247017113122515 0.011739703829283908 0.007822903532241465 0.011649973414368844" fill="none" stroke="#000000" stroke-width="0.001"/>
<path d="M 0.007822903532241465 0.011649973414368844 C 0.008272380799148457 0.010880714424329386 0.014123761550507727 0.0005032707261502717 0.013216630735125356 0.002418865533895344 C 0.014123761550507727 0.0005032707261502717 0.019166126865305277 -0.012483500096277635 0.0187084733168299 -0.011337164278572022" fill="none" stroke="#000000" stroke-width="0.001"/>
</g><g transform="translate(0.3464691606511088,0.14526333643182274) rotate(0) scale(1,1) translate(-0.011152769902399133,-0.011152769902399133)"><path d="M 0.01730500470495977 0.011113795468371821 C 0.017357718332708532 0.011135630167907248 0.01801211656522909 0.011450360190081142 0.0179375682379449 0.011375811862796946 C 0.01801211656522909 0.011450360190081142 0.018199584632370036 0.012113802651279712 0.018199584632370036 0.012008375395782174 C 0.018199584632370036 0.012113802651279712 0.01786301991066071 0.012715487256051598 0.0179375682379449 0.012640938928767402 C 0.01786301991066071 0.012715487256051598 0.017252291077211008 0.012924790022727953 0.01730500470495977 0.012902955323192527" fill="none" stroke="#000000" stroke-width="0.001"/>
<path d="M 0.01730500470495977 0.012902955323192527 C 0.016792318471413048 0.012831654865410607 0.010113386400789478 0.012129192931243003 0.011152769902399107 0.012047349829809486 C 0.010113386400789478 0.012129192931243003 0.004305705417581314 0.01403821609961018 0.0048324026856442215 0.013885072540394743" fill="none" stroke="#000000" stroke-width="0.001"/>
<path d="M 0.0048324026856442215 0.013885072540394743 C 0.004775452288589656 0.013881589304892276 0.00405424053143059 0.013797057447469854 0.004148997920989439 0.013843273714365134 C 0.00405424053143059 0.013797057447469854 0.0036609902539362174 0.013230793909203996 0.0036953140109380334 0.013330477337651374 C 0.0036609902539362174 0.013230793909203996 0.0037833291038629293 0.012552315183437752 0.0037371128369676487 0.012647072572996602 C 0.0037833291038629293 0.012552315183437752 0.0042926422450742146 0.012155581670440905 0.004249909213681402 0.01219338866294519" fill="none" stroke="#000000" stroke-width="0.001"/>
<path d="M 0.004249909213681402 0.01219338866294519 C 0.004825147604407877 0.01203212210561549 0.012240694526672305 0.010168223875441001 0.011152769902399107 0.010258189974988782 C 0.012240694526672305 0.010168223875441001 0.017817690938506492 0.011185095926153741 0.01730500470495977 0.011113795468371821" fill="none" stroke="#000000" stroke-width="0.001"/>
</g><g transform="translate(0.34495225082456527,0.13710899353033) rotate(0) scale(1,1) translate(-0.011152769902399133,-0.011152769902399133)"><path d="M 0.015866605147980883 -0.003032552591864814 C 0.015907300950133967 -0.0030725442452609396 0.01645270522294649 -0.003551946177653443 0.016354954773817876 -0.0035124524326183215 C 0.01645270522294649 -0.003551946177653443 0.01713665683789588 -0.003465283821772193 0.01703961053752423 -0.0035064775322862732 C 0.01713665683789588 -0.003465283821772193 0.01755900412331282 -0.002920377457320753 0.017519510378277703 -0.003018127906449358 C 0.01755900412331282 -0.002920377457320753 0.01751303756958465 -0.0022764174957674846 0.017513535477945652 -0.0023334721427430132" fill="none" stroke="#000000" stroke-width="0.001"/>
<path d="M 0.017513535477945652 -0.0023334721427430132 C 0.017052093777065302 -0.001180490286934426 0.011008222083928765 0.013482515111979487 0.011976235067381436 0.011502310126960033 C 0.011008222083928765 0.013482515111979487 0.005390808393941284 0.0222562108067013 0.005897379676513603 0.021428987677490435" fill="none" stroke="#000000" stroke-width="0.001"/>
<path d="M 0.005897379676513603 0.021428987677490435 C 0.00585668387436053 0.02146897933088656 0.005311279601548119 0.021948381263279065 0.005409030050676722 0.021908887518243943 C 0.005311279601548119 0.021948381263279065 0.004627327986598706 0.021861718907397812 0.0047243742869703675 0.021902912617911892 C 0.004627327986598706 0.021861718907397812 0.004204980701181656 0.021316812542946373 0.004244474446216784 0.021414562992074976 C 0.004204980701181656 0.021316812542946373 0.004250947254909839 0.020672852581393106 0.004250449346548835 0.020729907228368635" fill="none" stroke="#000000" stroke-width="0.001"/>
<path d="M 0.004250449346548835 0.020729907228368635 C 0.004757020629121154 0.01990268409915777 0.011297317720869338 0.00882302469281878 0.010329304737416667 0.010803229677838234 C 0.011297317720869338 0.00882302469281878 0.016328046848861234 -0.004185534447673401 0.015866605147980883 -0.003032552591864814" fill="none" stroke="#000000" stroke-width="0.001"/>
</g></g>
</g>
<g id="首輪">
<g transform="translate(0.3373434528286707,0.14029796073566542) rotate(0) scale(1,1) translate(-0.011152769902399133,-0.011152769902399133)"><path d="M 0.0010768497093596636 0.008202559503492655 C 0.0019165097254462864 0.008202559503492655 0.012832089934572383 0.008202559503492655 0.011152769902399138 0.008202559503492655 C 0.012832089934572383 0.008202559503492655 0.022068350111525217 0.008202559503492655 0.021228690095438596 0.008202559503492655" fill="none" stroke="#000000" stroke-width="0.001"/>
<path d="M 0.021228690095438596 0.008202559503492655 C 0.021228690095438596 0.008448410370068195 0.02122869009543861 0.011644471635550213 0.02122869009543861 0.011152769902399133 C 0.02122869009543861 0.011644471635550213 0.021228690095438596 0.01434883116788115 0.021228690095438596 0.01410298030130561" fill="none" stroke="#000000" stroke-width="0.001"/>
<path d="M 0.021228690095438596 0.01410298030130561 C 0.020389030079351975 0.01410298030130561 0.009473449870225888 0.01410298030130561 0.011152769902399133 0.01410298030130561 C 0.009473449870225888 0.01410298030130561 0.00023718969327304125 0.01410298030130561 0.0010768497093596636 0.01410298030130561" fill="none" stroke="#000000" stroke-width="0.001"/>
<path d="M 0.0010768497093596636 0.01410298030130561 C 0.0010768497093596636 0.01385712943473007 0.0010768497093596636 0.010661068169248056 0.0010768497093596636 0.011152769902399136 C 0.0010768497093596636 0.010661068169248056 0.0010768497093596636 0.007956708636917116 0.0010768497093596636 0.008202559503492655" fill="none" stroke="#000000" stroke-width="0.001"/>
</g><g transform="translate(0.3347555785294772,0.14029796073566542) rotate(0) scale(1,1) translate(-0.00775832499658671,-0.0077583249965867095)"><path d="M 0.011893014469740532 0.011660326317571704 C 0.011230608426439633 0.011590967349136764 0.003281735906828843 0.010247044111289867 0.003944141950129742 0.010828018696352425 C 0.003281735906828843 0.010247044111289867 0.004606547993430639 0.004107656711758434 0.0039441419501297405 0.004688631296820993 C 0.004606547993430639 0.004107656711758434 0.012555420513041426 0.0037869647071667755 0.011893014469740528 0.0038563236756017152" fill="none" stroke="#000000" stroke-width="0.001"/>
<path d="M 0.011893014469740528 0.0038563236756017152 C 0.011893014469740528 0.003911015335299518 0.011893014469740528 0.004589191915552262 0.011893014469740528 0.004512623591975339 C 0.011893014469740528 0.004589191915552262 0.011893014469740528 0.004797020222403912 0.011893014469740528 0.0047751435585247914" fill="none" stroke="#000000" stroke-width="0.001"/>
<path d="M 0.011893014469740528 0.0047751435585247914 C 0.011335790095695856 0.004827846430597219 0.004649097607159787 0.005852072057665148 0.0052063219812044596 0.005407578023393922 C 0.004649097607159787 0.005852072057665148 0.005763546355249132 0.01055356600405073 0.0052063219812044596 0.010109071969779504 C 0.005763546355249132 0.01055356600405073 0.012450238843785204 0.010794209306721063 0.011893014469740532 0.010741506434648634" fill="none" stroke="#000000" stroke-width="0.001"/>
<path d="M 0.011893014469740532 0.010741506434648634 C 0.011893014469740532 0.010763383098527755 0.011893014469740532 0.011080594724775005 0.011893014469740532 0.011004026401198082 C 0.011893014469740532 0.011080594724775005 0.011893014469740532 0.011715017977269506 0.011893014469740532 0.011660326317571704" fill="none" stroke="#000000" stroke-width="0.001"/>
</g><g transform="translate(0.33140602154361115,0.14029796073566542) rotate(0) scale(1,1) translate(-0.0022536622055164745,-0.002253662205516475)"><path d="M 0.003099630655912222 0.0028245428565628694 C 0.0029636280112541073 0.002816364940307013 0.0013315962753567305 0.002639439002574046 0.0014675989200148452 0.0027264078614925883 C 0.0013315962753567305 0.002639439002574046 0.0016036015646729595 0.0016939476906218187 0.0014675989200148448 0.001780916549540361 C 0.0016036015646729595 0.0016939476906218187 0.0032356333005703363 0.0016746036382142243 0.0030996306559122216 0.001682781554470081" fill="none" stroke="#000000" stroke-width="0.001"/>
<path d="M 0.0030996306559122216 0.001682781554470081 C 0.0031268311848438443 0.0017303549420572804 0.003426037003091696 0.0023488089806908735 0.003426037003091696 0.0022536622055164745 C 0.003426037003091696 0.0023488089806908735 0.0030724301269805993 0.002872116244150069 0.003099630655912222 0.0028245428565628694" fill="none" stroke="#000000" stroke-width="0.001"/>
</g><g transform="translate(0.342877668729047,0.14029796073566542) rotate(0) scale(1,1) translate(-0.006469483550722008,-0.0064694835507220095)"><path d="M 0.007132094043214607 0.0029814560231419193 C 0.007352964207378807 0.0041441318656686155 0.0069112238790504064 0.011120186920828794 0.007132094043214607 0.009957511078302098 C 0.0069112238790504064 0.011120186920828794 0.005586002894065209 0.008794835235775404 0.005806873058229408 0.0099575110783021 C 0.005586002894065209 0.008794835235775404 0.006027743222393607 0.0018187801806152217 0.005806873058229408 0.0029814560231419185 C 0.006027743222393607 0.0018187801806152217 0.007352964207378807 0.0041441318656686155 0.007132094043214607 0.0029814560231419193 Z" fill="#cccccc" stroke="#000000" stroke-width="0.001"/>
</g><g transform="translate(0.32829999945816574,0.14029796073566542) rotate(0) scale(1,1) translate(-0.009906215631991292,-0.007758324996586713)"><path d="M 0.009906215631991292 0.011660326317571704 C 0.009508772006010753 0.01150716471113316 0.0047394484942442795 0.009325215093250223 0.005136892120224819 0.009822387040309178 C 0.0047394484942442795 0.009325215093250223 0.0055343357462053575 0.005197091005805287 0.0051368921202248185 0.005694262952864242 C 0.0055343357462053575 0.005197091005805287 0.01030365925797183 0.003703162069163171 0.00990621563199129 0.0038563236756017152" fill="none" stroke="#000000" stroke-width="0.001"/>
<path d="M 0.00990621563199129 0.0038563236756017152 C 0.00990621563199129 0.003911015335299518 0.00990621563199129 0.004589191915552262 0.00990621563199129 0.004512623591975339 C 0.00990621563199129 0.004589191915552262 0.009906215631991292 0.004797020222403912 0.009906215631991292 0.0047751435585247914" fill="none" stroke="#000000" stroke-width="0.001"/>
<path d="M 0.009906215631991292 0.0047751435585247914 C 0.009583370751282919 0.0048986078324019435 0.0057092321827824435 0.006630447477517121 0.006032077063490816 0.00625671484505062 C 0.0057092321827824435 0.006630447477517121 0.006354921944199189 0.009633667780589304 0.006032077063490816 0.009259935148122803 C 0.006354921944199189 0.009633667780589304 0.010229060512699666 0.010864970708525786 0.009906215631991292 0.010741506434648634" fill="none" stroke="#000000" stroke-width="0.001"/>
<path d="M 0.009906215631991292 0.010741506434648634 C 0.009906215631991292 0.010763383098527755 0.009906215631991292 0.011080594724775005 0.009906215631991292 0.011004026401198082 C 0.009906215631991292 0.011080594724775005 0.009906215631991292 0.011715017977269506 0.009906215631991292 0.011660326317571704" fill="none" stroke="#000000" stroke-width="0.001"/>
</g><g transform="translate(0.34638690619917567,0.14029796073566542) rotate(0) scale(1,1) translate(-0.005610434361182026,-0.007758324996586713)"><path d="M 0.005610434361182026 0.011660326317571704 C 0.005610434361182026 0.011605634657873901 0.005610434361182026 0.010927458077621159 0.005610434361182026 0.011004026401198082 C 0.005610434361182026 0.010927458077621159 0.005610434361182026 0.010719629770769514 0.005610434361182026 0.010741506434648634" fill="none" stroke="#000000" stroke-width="0.001"/>
<path d="M 0.005610434361182026 0.010741506434648634 C 0.005933279241890406 0.010618042160771482 0.009807417810390961 0.008886202515656302 0.009484572929682581 0.009259935148122803 C 0.009807417810390961 0.008886202515656302 0.0091617280489742 0.005882982212584119 0.009484572929682581 0.00625671484505062 C 0.0091617280489742 0.005882982212584119 0.005287589480473647 0.004651679284647639 0.005610434361182026 0.0047751435585247914" fill="none" stroke="#000000" stroke-width="0.001"/>
<path d="M 0.005610434361182026 0.0047751435585247914 C 0.005610434361182026 0.004753266894645671 0.005610434361182026 0.004436055268398416 0.005610434361182026 0.004512623591975339 C 0.005610434361182026 0.004436055268398416 0.005610434361182026 0.0038016320159039133 0.005610434361182026 0.0038563236756017152" fill="none" stroke="#000000" stroke-width="0.001"/>
<path d="M 0.005610434361182026 0.0038563236756017152 C 0.006007877987162569 0.004009485282040259 0.010777201498929082 0.006191434899923197 0.01037975787294854 0.005694262952864242 C 0.010777201498929082 0.006191434899923197 0.009982314246967997 0.010319558987368133 0.01037975787294854 0.009822387040309178 C 0.009982314246967997 0.010319558987368133 0.005212990735201484 0.011813487924010248 0.005610434361182026 0.011660326317571704" fill="none" stroke="#000000" stroke-width="0.001"/>
</g></g>
</svg>
