<?xml version="1.0" encoding="UTF-8"?>
<svg xmlns="http://www.w3.org/2000/svg" viewBox="0 0 1 1">
<g transform="translate(0.3257456317518053,0.1130072566562324) rotate(0) scale(1,1) translate(-0.010565988892664996,-0.010565988892664996)"><path d="M 0.01436805553792012 -0.0006758488739191982 C 0.014298303325112177 -0.0003232869191661732 0.013352961572647759 0.004356424682790606 0.013531028984224813 0.0035548945831171026 C 0.013352961572647759 0.004356424682790606 0.012122931400226366 0.009391480467083328 0.012231246598995478 0.008942512322162848" fill="none" stroke="none" stroke-width="0"/>
<path d="M 0.010162261518361894 0.008207879665718138 C 0.010357662186222477 0.007774768357013195 0.012857552367652084 0.0022702332496223766 0.012507069532688897 0.0030105439612588213 C 0.012857552367652084 0.0022702332496223766 0.014523137705022721 -0.0009830482768507 0.01436805553792012 -0.0006758488739191982" fill="none" stroke="none" stroke-width="0"/>
</g><g transform="translate(0.3257456317518053,0.1130072566562324) rotate(0) scale(1,1) translate(-0.010565988892664996,-0.010565988892664996)"><path d="M 0.009813981372985588 0.016349347312956654 C 0.009657962561236652 0.016745307886221257 0.0076819466852968326 0.02167826130199741 0.007941755631998348 0.02110087419213187 C 0.0076819466852968326 0.02167826130199741 0.0065924838776148294 0.023459419167944057 0.0066962740125674075 0.02327799263134312" fill="none" stroke="none" stroke-width="0"/>
<path d="M 0.0066962740125674075 0.02327799263134312 C 0.006721727229563995 0.02305152486161807 0.00711034064130732 0.0199359125809299 0.007001712616526457 0.02056037939464249 C 0.00711034064130732 0.0199359125809299 0.008082985117722041 0.015386391822804558 0.007999810309937766 0.015784390866792092" fill="none" stroke="none" stroke-width="0"/>
</g></svg>
