<?xml version="1.0" encoding="UTF-8"?>
<svg xmlns="http://www.w3.org/2000/svg" viewBox="0 0 1 1">
<g id="風切羽">
<g transform="translate(0.29624228966720256,0.15938861295143714) rotate(0) scale(1,1) translate(-0.09271217261687124,-0.09271217261687122)"><path d="M 0.04579327791889978 0.10010065497302917 C 0.045090646215454326 0.099484948110016 0.03780125358074745 0.09150709806722578 0.0373616974775543 0.09271217261687122 C 0.03780125358074745 0.09150709806722578 0.052210138963856206 0.08505039269065166 0.0510679511572176 0.08563976037728394" fill="none" stroke="#000000" stroke-width="0.001"/>
<path d="M 0.0510679511572176 0.08563976037728394 C 0.05328676497156961 0.08567877840499981 0.08072204365377274 0.08662042840835797 0.07769371692944174 0.08610797670987441 C 0.08072204365377274 0.08662042840835797 0.0882173847591685 0.09226261442985438 0.08740787184918952 0.0917891807590867" fill="none" stroke="none" stroke-width="0"/>
<path d="M 0.08740787184918952 0.0917891807590867 C 0.0879371718772606 0.09185577458160796 0.09375015052402798 0.0927582594212012 0.09375947218604257 0.09258830662934185 C 0.09375015052402798 0.0927582594212012 0.08675739021492872 0.09393197323073693 0.0872960119050144 0.09382861426139885" fill="none" stroke="none" stroke-width="0"/>
<path d="M 0.0872960119050144 0.09382861426139885 C 0.08678653638089709 0.0942729285701652 0.0796956989619879 0.09986150314420196 0.08118230561560658 0.09916038596659502 C 0.0796956989619879 0.09986150314420196 0.06847960093208899 0.10249882326152272 0.06945673206159034 0.10224202039268213" fill="none" stroke="#000000" stroke-width="0.001"/>
<path d="M 0.06945673206159034 0.10224202039268213 C 0.06833699278801292 0.10226224646633755 0.054047906266770425 0.1023062861582428 0.05601986077866131 0.10248473327654722 C 0.054047906266770425 0.1023062861582428 0.04494106268058632 0.09990198178106934 0.04579327791889978 0.10010065497302917" fill="none" stroke="#000000" stroke-width="0.001"/>
</g><g transform="translate(0.2872185548004975,0.1616374287771543) rotate(0) scale(1,1) translate(-0.09271217261687124,-0.09271217261687122)"><path d="M 0.043323862408480185 0.10048952246545845 C 0.04258425008906392 0.09984140997807618 0.034911205210425206 0.09144367309092864 0.034448514575485034 0.0927121726168712 C 0.034911205210425206 0.09144367309092864 0.050078452982118646 0.08464714111558742 0.048876150027762216 0.08526752815414772" fill="none" stroke="#000000" stroke-width="0.001"/>
<path d="M 0.048876150027762216 0.08526752815414772 C 0.051211743516553804 0.08530859976226969 0.0800909842346623 0.08629981029212043 0.07690327189326125 0.08576038745161141 C 0.0800909842346623 0.08629981029212043 0.08798081697718411 0.09223895347264298 0.08712869812457466 0.09174060224025593" fill="none" stroke="none" stroke-width="0"/>
<path d="M 0.08712869812457466 0.09174060224025593 C 0.08768585604886002 0.09181070100080463 0.09380478094019414 0.09276068504248175 0.09381459321599897 0.09258178736684033 C 0.09380478094019414 0.09276068504248175 0.08644398061482648 0.0939961732630456 0.08701095081491668 0.09388737434795288" fill="none" stroke="none" stroke-width="0"/>
<path d="M 0.08701095081491668 0.09388737434795288 C 0.08647466078953002 0.09435507362033851 0.07901062140120453 0.10023778369827199 0.08057547051027683 0.09949976561658047 C 0.07901062140120453 0.10023778369827199 0.06720420242236351 0.10301391013755695 0.06823276150604915 0.10274359132825107" fill="none" stroke="none" stroke-width="0"/>
<path d="M 0.06823276150604915 0.10274359132825107 C 0.06705408858649398 0.10276488193209889 0.052012944879923015 0.1028112395025255 0.05408868647138709 0.10299907857442489 C 0.052012944879923015 0.1028112395025255 0.042426793736571274 0.10028039278971124 0.043323862408480185 0.10048952246545845" fill="none" stroke="none" stroke-width="0"/>
</g><g transform="translate(0.2789974749877641,0.16334704422566748) rotate(0) scale(1,1) translate(-0.09271217261687124,-0.09271217261687122)"><path d="M 0.040724477660670194 0.10089885666801568 C 0.03994593837707412 0.10021663299708697 0.03186904903113853 0.09137690995798432 0.0313820062575173 0.09271217261687123 C 0.03186904903113853 0.09137690995798432 0.04783457300134225 0.08422266577341465 0.04656899094412495 0.08487570476137285" fill="none" stroke="#000000" stroke-width="0.001"/>
<path d="M 0.04656899094412495 0.08487570476137285 C 0.049027510406010825 0.08491893803308019 0.07942671116191447 0.08596231753818619 0.07607122448675548 0.08539450402186091 C 0.07942671116191447 0.08596231753818619 0.08773179825930585 0.09221404720189413 0.08683483104603275 0.0916894669572762" fill="none" stroke="none" stroke-width="0"/>
<path d="M 0.08683483104603275 0.0916894669572762 C 0.08742131307159628 0.09176325512627483 0.09386228664142168 0.09276323832804015 0.09387261535279519 0.09257492498525971 C 0.09386228664142168 0.09276323832804015 0.08611407577261362 0.09406375224442325 0.08671088650955067 0.09394922707064143" fill="none" stroke="none" stroke-width="0"/>
<path d="M 0.08671088650955067 0.09394922707064143 C 0.0861463706933542 0.09444154209420526 0.07828948712669577 0.10063386849202992 0.07993669671519292 0.09985700735340727 C 0.07828948712669577 0.10063386849202992 0.06586167767528425 0.10355610684917205 0.06694437144758492 0.10327156073411321" fill="none" stroke="none" stroke-width="0"/>
<path d="M 0.06694437144758492 0.10327156073411321 C 0.06570366311121104 0.10329397189605828 0.049870880262188874 0.10334276933861256 0.05205587141109844 0.10354049467745402 C 0.049870880262188874 0.10334276933861256 0.039780194848134505 0.10067872016722915 0.040724477660670194 0.10089885666801568" fill="none" stroke="none" stroke-width="0"/>
</g></g>
<g transform="translate(0.27931205491440386,0.15742721623585235) rotate(0) scale(1,1) translate(-0.10684956644307177,-0.10684956644307173)"><path d="M 0.09861004575750033 0.08998618694882819 C 0.10010417581320366 0.09132471313515696 0.11652092308111581 0.108838768139593 0.11653960642594026 0.10604850118477335 C 0.11652092308111581 0.108838768139593 0.09687303221907907 0.12492113117515495 0.09838584561960685 0.12346939040666406" fill="none" stroke="none" stroke-width="0"/>
<path d="M 0.09838584561960685 0.12346939040666406 C 0.09677615835860763 0.12381584002573864 0.07785667847777318 0.12717501265961392 0.07906959848761623 0.12762678583555898 C 0.07785667847777318 0.12717501265961392 0.0842275727526464 0.1172498895003038 0.08383080550149023 0.11804811229532343" fill="none" stroke="none" stroke-width="0"/>
<path d="M 0.08383080550149023 0.11804811229532343 C 0.0827648145981225 0.1176177783257947 0.07065253624520328 0.11195089250662442 0.07103891466107752 0.11288410466097873 C 0.07065253624520328 0.11195089250662442 0.07987387699849278 0.10634668825824614 0.0791942645109993 0.10684956644307173" fill="none" stroke="none" stroke-width="0"/>
<path d="M 0.0791942645109993 0.10684956644307173 C 0.07841623735470696 0.10602202377079224 0.07038211146380163 0.09603767874373097 0.06985793863549124 0.09691905437571789 C 0.07038211146380163 0.09603767874373097 0.08678653843532684 0.09621922589952116 0.0854843384507241 0.0962730588592286" fill="none" stroke="none" stroke-width="0"/>
<path d="M 0.0854843384507241 0.0962730588592286 C 0.0848620784877989 0.09509009145945763 0.0791110278378531 0.08155354406944364 0.07801721889562176 0.082077450061977 C 0.0791110278378531 0.08155354406944364 0.10032611466265688 0.09064524835606579 0.09861004575750033 0.08998618694882819" fill="none" stroke="none" stroke-width="0"/>
</g><g transform="translate(0.3096532596274547,0.15436183896223277) rotate(0) scale(1,1) translate(-0.10030823607636913,-0.06682368514423945)"><path d="M 0.09574567588049233 0.07426326055823633 C 0.09531949398353787 0.07426110340709778 0.0889766943348198 0.07455705084068248 0.09063149311703882 0.07423737474457374 C 0.0889766943348198 0.07455705084068248 0.07346655835301111 0.07857327033046445 0.07588809049386426 0.07809937371154124 C 0.07346655835301111 0.07857327033046445 0.059884458273871795 0.08010925610817796 0.061573107426801055 0.07992413417165224 C 0.059884458273871795 0.08010925610817796 0.05512856676137248 0.0803538955146996 0.05562430065871314 0.0803208369498498" fill="none" stroke="none" stroke-width="0"/>
<path d="M 0.05562430065871314 0.0803208369498498 C 0.05523229998779397 0.08011229208924313 0.050293081827750725 0.07723314827938939 0.050920292607683104 0.07781829862256971 C 0.050293081827750725 0.07723314827938939 0.047847166002165896 0.0724786723794924 0.048097771299524625 0.07329903283168594 C 0.047847166002165896 0.0724786723794924 0.04810617871163953 0.06713821755570828 0.04791302903937838 0.06797397319624733 C 0.04810617871163953 0.06713821755570828 0.05100071770983877 0.06264275436528495 0.05041556736665845 0.06326996514521732 C 0.05100071770983877 0.06264275436528495 0.05564308744295353 0.060194191953357526 0.054934833157542245 0.060447443837058835 C 0.05564308744295353 0.060194191953357526 0.05924626759443151 0.06021290076611353 0.058914618791593876 0.06023094254080163" fill="none" stroke="none" stroke-width="0"/>
<path d="M 0.058914618791593876 0.06023094254080163 C 0.059571767683232996 0.0602524733504261 0.06848312629171291 0.06048032928950042 0.06680040549126329 0.06048931225629531 C 0.06848312629171291 0.06048032928950042 0.08109356369012341 0.06003120151304418 0.0791072683969894 0.06012314693926303 C 0.08109356369012341 0.06003120151304418 0.09242815672859708 0.059215254486891335 0.0906359490088714 0.059385967141669126 C 0.09242815672859708 0.059215254486891335 0.10144524536909984 0.057965314076951255 0.10061376103369765 0.05807459508192955" fill="none" stroke="#000000" stroke-width="0.001"/>
<path d="M 0.10061376103369765 0.05807459508192955 C 0.10097150008732564 0.058322642942332956 0.10540798683059024 0.061710165941550044 0.10490662967723344 0.061051169406770356 C 0.10540798683059024 0.061710165941550044 0.10664830488684113 0.06681038323603128 0.10663004687397937 0.06598255349928583 C 0.10664830488684113 0.06681038323603128 0.10465391076359512 0.07166558636388792 0.10512572583157456 0.07098512624771562 C 0.10465391076359512 0.07166558636388792 0.10018659522896912 0.07442125275256359 0.10096826605822598 0.07414807489335352 C 0.10018659522896912 0.07442125275256359 0.09531046003234786 0.07427285936364322 0.09574567588049233 0.07426326055823633" fill="none" stroke="none" stroke-width="0"/>
</g><g transform="translate(0.27931205491440386,0.15742721623585235) rotate(0) scale(1,1) translate(-0.14167454657644588,-0.14167454657644588)"><path d="M 0.11770435740060697 0.14797169483991143 C 0.11759448278156705 0.1472953931079914 0.11665262161921074 0.1385638858667046 0.11638586197212787 0.13985607405687098 C 0.11665262161921074 0.1385638858667046 0.12211783888751823 0.13150874405269525 0.1209054731656014 0.13246543655791487 C 0.12211783888751823 0.13150874405269525 0.13176998209092397 0.12803495794726205 0.13093425063512992 0.12837576399423534" fill="none" stroke="none" stroke-width="0"/>
<path d="M 0.13093425063512992 0.12837576399423534 C 0.13180202455267334 0.1284554898145871 0.14315261267589358 0.12941046865473665 0.14134753764565103 0.12933247383845642 C 0.14315261267589358 0.12941046865473665 0.1535324521107396 0.12930997078552672 0.15259515099804047 0.12931170178959825" fill="none" stroke="#000000" stroke-width="0.001"/>
<path d="M 0.15259515099804047 0.12931170178959825 C 0.1538466142028797 0.12920732503346322 0.16825174977256327 0.12860067737994485 0.16761270945611115 0.12805918071597802 C 0.16825174977256327 0.12860067737994485 0.1596512119070789 0.13645553517730213 0.160263634795466 0.13580966175720027" fill="none" stroke="#000000" stroke-width="0.001"/>
<path d="M 0.160263634795466 0.13580966175720027 C 0.16067677312064316 0.13661950859661237 0.16408964553630792 0.1461322157774011 0.16522129469759206 0.14552782383014537 C 0.16408964553630792 0.1461322157774011 0.145139057373595 0.1428569102321126 0.1466838448600563 0.14306236512426898" fill="none" stroke="none" stroke-width="0"/>
<path d="M 0.1466838448600563 0.14306236512426898 C 0.14687952269188115 0.14392467132227924 0.14755689565241115 0.1537383596011868 0.14903197884195432 0.15341003950039192 C 0.14755689565241115 0.1537383596011868 0.1273120855641704 0.14646822023659217 0.12898284658553838 0.14700220633380753" fill="none" stroke="none" stroke-width="0"/>
<path d="M 0.12898284658553838 0.14700220633380753 C 0.1288916317407363 0.14765751313034814 0.12694839434916927 0.15494667860113676 0.12788826844791354 0.15486588789229477 C 0.12694839434916927 0.15494667860113676 0.11685569814666476 0.1473971787522128 0.11770435740060697 0.14797169483991143" fill="none" stroke="none" stroke-width="0"/>
</g><g id="鱗">
<g transform="translate(0.27931205491440386,0.15742721623585235) rotate(0) scale(1,1) translate(-0.026885188193751956,-0.026885188193751953)"><path d="M 0.04060483019816285 0.019342936102691378 C 0.04048173385939048 0.019253501377531502 0.03890700609780582 0.01786328851245691 0.03912767413289448 0.018269719400772853 C 0.03890700609780582 0.01786328851245691 0.0378592420807826 0.014148769279744018 0.0379568137770989 0.014465765442900083" fill="none" stroke="#000000" stroke-width="0.001"/>
<path d="M 0.0379568137770989 0.014465765442900083 C 0.03812746851993137 0.014399259244594528 0.04034500326135626 0.013619666510328775 0.04000467069108861 0.013667691063233426 C 0.04034500326135626 0.013619666510328775 0.04221048244774592 0.013907952453445172 0.04204080462031074 0.013889470808044268" fill="none" stroke="#000000" stroke-width="0.001"/>
<path d="M 0.04204080462031074 0.013889470808044268 C 0.042014774112728956 0.014180835746167087 0.04160877399415031 0.017840305506738693 0.0417284385293293 0.0173858500655181 C 0.04160877399415031 0.017840305506738693 0.040511196170565644 0.01950602660578915 0.04060483019816285 0.019342936102691378" fill="none" stroke="#000000" stroke-width="0.001"/>
</g><g transform="translate(0.27931205491440386,0.15742721623585235) rotate(0) scale(1,1) translate(-0.026885188193751956,-0.026885188193751953)"><path d="M 0.034228326782773814 0.022259488272304336 C 0.0340498479266766 0.02213451603185402 0.03172962279741279 0.020509876905999917 0.03208658050960722 0.020759821386900548 C 0.03172962279741279 0.020509876905999917 0.029766355380343418 0.019135182261046445 0.029944834236440634 0.019260154501496762" fill="none" stroke="#000000" stroke-width="0.001"/>
<path d="M 0.029944834236440634 0.019260154501496762 C 0.030008536900406273 0.01905179247626034 0.030836671531959573 0.016343086148186883 0.030709266204028297 0.016759810198659724 C 0.030836671531959573 0.016343086148186883 0.03153740083558158 0.014051103870586244 0.031473698171615945 0.014259465895822665" fill="none" stroke="#000000" stroke-width="0.001"/>
<path d="M 0.031473698171615945 0.014259465895822665 C 0.031691547439217836 0.014231111396732811 0.03452358791804245 0.013911606760523297 0.03408788938283867 0.013919211906744408 C 0.03452358791804245 0.013911606760523297 0.03691992986166326 0.014188953494038072 0.03670208059406137 0.014168204141169328" fill="none" stroke="#000000" stroke-width="0.001"/>
<path d="M 0.03670208059406137 0.014168204141169328 C 0.03677301618189797 0.01437421604697872 0.03769517882377381 0.017052370822500815 0.0375533076481006 0.01664034701088203 C 0.03769517882377381 0.017052370822500815 0.038475470289976436 0.019318501786404103 0.038404534702139836 0.01911248988059471" fill="none" stroke="#000000" stroke-width="0.001"/>
<path d="M 0.038404534702139836 0.01911248988059471 C 0.03823052603883292 0.019243614813582614 0.03596841341584298 0.02094823894242532 0.036316430742456815 0.02068598907644952 C 0.03596841341584298 0.02094823894242532 0.034054318119466895 0.022390613205292238 0.034228326782773814 0.022259488272304336" fill="none" stroke="#000000" stroke-width="0.001"/>
</g><g transform="translate(0.27931205491440386,0.15742721623585235) rotate(0) scale(1,1) translate(-0.026885188193751956,-0.026885188193751953)"><path d="M 0.02791481864128759 0.022469549223505126 C 0.02772694616118526 0.02233799949671532 0.025284603919854935 0.020627853048447845 0.0256603488800596 0.020890952502027455 C 0.025284603919854935 0.020627853048447845 0.023218006638729277 0.01918080605375998 0.02340587911883161 0.019312355780549788" fill="none" stroke="#000000" stroke-width="0.001"/>
<path d="M 0.02340587911883161 0.019312355780549788 C 0.023472934554584914 0.019093027332932503 0.024344655219377856 0.016241757513907808 0.02421054434787125 0.016680414409142377 C 0.024344655219377856 0.016241757513907808 0.025082265012664185 0.013829144590117665 0.025015209576910884 0.01404847303773495" fill="none" stroke="#000000" stroke-width="0.001"/>
<path d="M 0.025015209576910884 0.01404847303773495 C 0.025244096105248182 0.01401992214259547 0.0282204779540151 0.013697856878986342 0.027761847916958484 0.013705862296061196 C 0.0282204779540151 0.013697856878986342 0.030748513530309586 0.013972953510901324 0.030518770021590272 0.0139524080328367" fill="none" stroke="#000000" stroke-width="0.001"/>
<path d="M 0.030518770021590272 0.0139524080328367 C 0.030593439061418277 0.014169262670530796 0.031564136579182334 0.01698837296055405 0.031414798499526324 0.01655466368516586 C 0.031564136579182334 0.01698837296055405 0.03238549601729036 0.01937377397518909 0.03231082697746236 0.019156919337494995" fill="none" stroke="#000000" stroke-width="0.001"/>
<path d="M 0.03231082697746236 0.019156919337494995 C 0.032127659963455076 0.01929494558274542 0.029746488781360388 0.021089286771000904 0.030112822809374953 0.02081323428050006 C 0.029746488781360388 0.021089286771000904 0.02773165162728031 0.02260757546875555 0.02791481864128759 0.022469549223505126" fill="none" stroke="#000000" stroke-width="0.001"/>
</g><g transform="translate(0.27931205491440386,0.15742721623585235) rotate(0) scale(1,1) translate(-0.026885188193751956,-0.026885188193751953)"><path d="M 0.020569659793752044 0.022463133847788756 C 0.02038204043888848 0.022311202689901895 0.017942988825662178 0.0203360976373727 0.0183182275353893 0.02063995995314642 C 0.017942988825662178 0.0203360976373727 0.015879175922163025 0.0186648549006173 0.016066795277026584 0.018816786058504155" fill="none" stroke="#000000" stroke-width="0.001"/>
<path d="M 0.016066795277026584 0.018816786058504155 C 0.016153312825636645 0.018591400138715974 0.017278040957567426 0.01566138318146963 0.017105005860347307 0.01611215502104599 C 0.017278040957567426 0.01566138318146963 0.01822973399227809 0.01318213806379961 0.01814321644366803 0.013407523983587792" fill="none" stroke="#000000" stroke-width="0.001"/>
<path d="M 0.01814321644366803 0.013407523983587792 C 0.018389338266319392 0.013395343958351614 0.02157885859654015 0.013286633678497866 0.021096678315484358 0.01326136368075366 C 0.02157885859654015 0.013286633678497866 0.024165438274741984 0.01374821397949866 0.02392937981633755 0.013710763956518275" fill="none" stroke="#000000" stroke-width="0.001"/>
<path d="M 0.02392937981633755 0.013710763956518275 C 0.02399186416892622 0.013943958735057233 0.024804160752578894 0.016975490856063688 0.024679192047401554 0.01650910129898577 C 0.024804160752578894 0.016975490856063688 0.025491488631054278 0.019540633419992258 0.025429004278465606 0.019307438641453296" fill="none" stroke="#000000" stroke-width="0.001"/>
<path d="M 0.025429004278465606 0.019307438641453296 C 0.02522653159160254 0.019438925941717273 0.02259438666238269 0.021148260845148984 0.02299933203610882 0.020885286244621028 C 0.02259438666238269 0.021148260845148984 0.02036718710688898 0.022594621148052732 0.020569659793752044 0.022463133847788756" fill="none" stroke="#000000" stroke-width="0.001"/>
</g></g>
</svg>
