<?xml version="1.0" encoding="UTF-8"?>
<svg xmlns="http://www.w3.org/2000/svg" viewBox="0 0 1 1">
<g transform="translate(0.3259798238023767,0.12265017031995629) rotate(0) scale(1,1) translate(-0.06594584488451323,-0.0659458448845132)"><path d="M 0.06054157117616714 0.06481359794663899 C 0.06083065770348506 0.06444459470320073 0.06385327913041121 0.06258248546374688 0.06330821477611505 0.0628158184093144 C 0.06385327913041121 0.06258248546374688 0.06765668917345861 0.062006298565193727 0.067082343427721 0.062013602599828736 C 0.06765668917345861 0.062006298565193727 0.07061454454938351 0.06294768914691298 0.0702003637249664 0.06272816999369431 C 0.07061454454938351 0.06294768914691298 0.0721483262263842 0.06501032592417728 0.07205251332072646 0.06464783243845286 C 0.0721483262263842 0.06501032592417728 0.07106103206554142 0.0674470950658257 0.07135011859285934 0.06707809182238744 C 0.07106103206554142 0.0674470950658257 0.06803841063861524 0.06930920430527952 0.0685834749929114 0.06907587135971201 C 0.06803841063861524 0.06930920430527952 0.06421650021731617 0.06988662456238282 0.06480934634130545 0.06987808716919769 C 0.06421650021731617 0.06988662456238282 0.06105514068062301 0.06895880092471476 0.06146932150504013 0.06917832007793344 C 0.06105514068062301 0.06895880092471476 0.059761863920893915 0.066880130486299 0.059839176448299995 0.06724385733057353 C 0.059761863920893915 0.066880130486299 0.06083065770348506 0.06444459470320073 0.06054157117616714 0.06481359794663899 Z" fill="#cccccc" stroke="none" stroke-width="0"/>
</g><g id="黒目">
<g transform="translate(0.32615337899342656,0.12261209401155951) rotate(0) scale(1,1) translate(-0.039154863170012,-0.03915486317001201)"><path d="M 0.04203148368414284 0.03721455813350712 C 0.04222156413171057 0.03749636398594847 0.04261071772602378 0.03961567074342518 0.042622580737717825 0.039275958535856345 C 0.04261071772602378 0.03961567074342518 0.041679852340116674 0.04155896467013142 0.041889127543814304 0.041291104624333136 C 0.041679852340116674 0.04155896467013142 0.03978452691245499 0.04258397353619666 0.040111278293346264 0.04249027908543577 C 0.03978452691245499 0.04258397353619666 0.03764869133666352 0.04229917879355395 0.037968110973118946 0.042415438033463856 C 0.03764869133666352 0.04229917879355395 0.03608816220831346 0.04081336235407555 0.036278242655881185 0.0410951682065169 C 0.03608816220831346 0.04081336235407555 0.03569900861400023 0.03869405559659883 0.03568714560230619 0.03903376780416767 C 0.03569900861400023 0.03869405559659883 0.03662987399990733 0.0367507616698926 0.0364205987962097 0.03701862171569088 C 0.03662987399990733 0.0367507616698926 0.038525199427569046 0.03572575280382736 0.03819844804667777 0.03581944725458825 C 0.038525199427569046 0.03572575280382736 0.04066103500336049 0.03601054754647006 0.040341615366905066 0.035894288306560156 C 0.04066103500336049 0.03601054754647006 0.04222156413171057 0.03749636398594847 0.04203148368414284 0.03721455813350712 Z" fill="#cccccc" stroke="#000000" stroke-width="0.001"/>
</g><g transform="translate(0.32615337899342656,0.12261209401155951) rotate(0) scale(1,1) translate(-0.039154863170012,-0.03915486317001201)"><path d="M 0.039931550708827326 0.03863098081015569 C 0.039982872429670614 0.038707068390314854 0.04008794390013518 0.03927928121483357 0.040091146913292575 0.03918755891878998 C 0.04008794390013518 0.03927928121483357 0.03983661024594027 0.03980397057504425 0.03989311455093863 0.039731648362678715 C 0.03983661024594027 0.03980397057504425 0.0393248723804716 0.04008072296888187 0.03941309525331225 0.04005542546717643 C 0.0393248723804716 0.04008072296888187 0.03874819677500791 0.04000382838836833 0.03883444007685088 0.04003521838314401 C 0.03874819677500791 0.04000382838836833 0.03832685391035339 0.039602657949709165 0.03837817563119668 0.03967874552986833 C 0.03832685391035339 0.039602657949709165 0.03822178243988882 0.039030445125190445 0.03821857942673143 0.03912216742123403 C 0.03822178243988882 0.039030445125190445 0.03847311609408374 0.03850575576497976 0.038416611789085384 0.0385780779773453 C 0.03847311609408374 0.03850575576497976 0.0389848539595524 0.03822900337114215 0.03889663108671176 0.03825430087284759 C 0.0389848539595524 0.03822900337114215 0.039561529565016094 0.038305897951655676 0.03947528626317313 0.038274507956880005 C 0.039561529565016094 0.038305897951655676 0.039982872429670614 0.038707068390314854 0.039931550708827326 0.03863098081015569 Z" fill="#cccccc" stroke="#000000" stroke-width="0.001"/>
</g><g transform="translate(0.32615337899342656,0.12261209401155951) rotate(0) scale(1,1) translate(-0.095,-0.07703415104052588)"><path d="M 0.095 0.07654134085520042 C 0.09503057593895055 0.07652512940859152 0.09543052200187989 0.07633843178020573 0.09536691126740654 0.07634680349589351 C 0.09543052200187989 0.07633843178020573 0.09581144972964084 0.07648061090631929 0.09576332881368013 0.07644088026694701 C 0.09581144972964084 0.07648061090631929 0.09594417962749133 0.07689301208585854 0.09594436225893505 0.07682357116836092 C 0.09594417962749133 0.07689301208585854 0.09571141529102854 0.07734125423583468 0.09576113723635549 0.07727417127691844 C 0.09571141529102854 0.07734125423583468 0.09528427081198207 0.07768433143308148 0.0953476989150117 0.07762856667535584 C 0.09528427081198207 0.07768433143308148 0.09497102509041569 0.07796958017748196 0.095 0.0779433483696261" fill="none" stroke="none" stroke-width="0"/>
<path d="M 0.095 0.0779433483696261 C 0.09497102509041569 0.07791711656177025 0.0945888729819587 0.07757280191763019 0.09465230108498832 0.07762856667535584 C 0.0945888729819587 0.07757280191763019 0.09418914081831758 0.07720708831800219 0.09423886276364453 0.07727417127691844 C 0.09418914081831758 0.07720708831800219 0.09405545510962124 0.07675413025086329 0.09405563774106496 0.07682357116836092 C 0.09405545510962124 0.07675413025086329 0.0942847921022806 0.07640114962757473 0.0942366711863199 0.07644088026694701 C 0.0942847921022806 0.07640114962757473 0.09469669946706682 0.07635517521158129 0.09463308873259349 0.07634680349589351 C 0.09469669946706682 0.07635517521158129 0.09503057593895055 0.07655755230180933 0.095 0.07654134085520042" fill="none" stroke="none" stroke-width="0"/>
</g><g transform="translate(0.3250128963080202,0.12092125889691141) rotate(0) scale(1,1) translate(-0.039154863170012,-0.03915486317001201)"><path d="M 0.039931550708827326 0.03863098081015569 C 0.039982872429670614 0.038707068390314854 0.04008794390013518 0.03927928121483357 0.040091146913292575 0.03918755891878998 C 0.04008794390013518 0.03927928121483357 0.03983661024594027 0.03980397057504425 0.03989311455093863 0.039731648362678715 C 0.03983661024594027 0.03980397057504425 0.0393248723804716 0.04008072296888187 0.03941309525331225 0.04005542546717643 C 0.0393248723804716 0.04008072296888187 0.03874819677500791 0.04000382838836833 0.03883444007685088 0.04003521838314401 C 0.03874819677500791 0.04000382838836833 0.03832685391035339 0.039602657949709165 0.03837817563119668 0.03967874552986833 C 0.03832685391035339 0.039602657949709165 0.03822178243988882 0.039030445125190445 0.03821857942673143 0.03912216742123403 C 0.03822178243988882 0.039030445125190445 0.03847311609408374 0.03850575576497976 0.038416611789085384 0.0385780779773453 C 0.03847311609408374 0.03850575576497976 0.0389848539595524 0.03822900337114215 0.03889663108671176 0.03825430087284759 C 0.0389848539595524 0.03822900337114215 0.039561529565016094 0.038305897951655676 0.03947528626317313 0.038274507956880005 C 0.039561529565016094 0.038305897951655676 0.039982872429670614 0.038707068390314854 0.039931550708827326 0.03863098081015569 Z" fill="#cccccc" stroke="none" stroke-width="0"/>
</g><g transform="translate(0.32729386167883295,0.12430292912620759) rotate(0) scale(1,1) translate(-0.039154863170012,-0.03915486317001201)"><path d="M 0.039931550708827326 0.03863098081015569 C 0.039982872429670614 0.038707068390314854 0.04008794390013518 0.03927928121483357 0.040091146913292575 0.03918755891878998 C 0.04008794390013518 0.03927928121483357 0.03983661024594027 0.03980397057504425 0.03989311455093863 0.039731648362678715 C 0.03983661024594027 0.03980397057504425 0.0393248723804716 0.04008072296888187 0.03941309525331225 0.04005542546717643 C 0.0393248723804716 0.04008072296888187 0.03874819677500791 0.04000382838836833 0.03883444007685088 0.04003521838314401 C 0.03874819677500791 0.04000382838836833 0.03832685391035339 0.039602657949709165 0.03837817563119668 0.03967874552986833 C 0.03832685391035339 0.039602657949709165 0.03822178243988882 0.039030445125190445 0.03821857942673143 0.03912216742123403 C 0.03822178243988882 0.039030445125190445 0.03847311609408374 0.03850575576497976 0.038416611789085384 0.0385780779773453 C 0.03847311609408374 0.03850575576497976 0.0389848539595524 0.03822900337114215 0.03889663108671176 0.03825430087284759 C 0.0389848539595524 0.03822900337114215 0.039561529565016094 0.038305897951655676 0.03947528626317313 0.038274507956880005 C 0.039561529565016094 0.038305897951655676 0.039982872429670614 0.038707068390314854 0.039931550708827326 0.03863098081015569 Z" fill="#cccccc" stroke="none" stroke-width="0"/>
</g></g>
</svg>
