<?xml version="1.0" encoding="UTF-8"?>
<svg xmlns="http://www.w3.org/2000/svg" viewBox="0 0 1 1">
<g transform="translate(0.4074703674373913,0.12481277642376949) rotate(0) scale(1,1) translate(-0.03174710983899897,-0.026737473081403652)"><path d="M 0.03242598440721639 0.026737473081403652 C 0.032419117770119306 0.027025522984940844 0.032343855616563694 0.030764104863056307 0.03234358476205134 0.030194071923849947 C 0.032343855616563694 0.030764104863056307 0.03243637215297405 0.03385985138754913 0.03242923466136461 0.03357786835187996" fill="none" stroke="#000000" stroke-width="0.001"/>
<path d="M 0.03242923466136461 0.03357786835187996 C 0.03242831090318018 0.03364885045124485 0.03239829268548422 0.03457289445179035 0.03241814956315146 0.03442965354425866 C 0.03239829268548422 0.03457289445179035 0.032135032152345006 0.0353969265961399 0.032190952129357714 0.03529675924226024 C 0.032135032152345006 0.0353969265961399 0.03167313612393919 0.03563166179081455 0.03174710983899898 0.03563166179081455 C 0.03167313612393919 0.03563166179081455 0.031247347571627525 0.03519659188838058 0.03130326754864023 0.03529675924226024 C 0.031247347571627525 0.03519659188838058 0.03105621323717924 0.03428641263672697 0.03107607011484648 0.034429653544258663 C 0.03105621323717924 0.03428641263672697 0.031064061258448912 0.033506886252515064 0.03106498501663334 0.03357786835187996" fill="none" stroke="#000000" stroke-width="0.001"/>
<path d="M 0.03106498501663334 0.03357786835187996 C 0.03107212250824278 0.03329588531621079 0.03115090577045896 0.029624038984643587 0.03115063491594661 0.030194071923849947 C 0.03115090577045896 0.029624038984643587 0.03106136863368446 0.02644942317786646 0.03106823527078155 0.026737473081403652" fill="none" stroke="#000000" stroke-width="0.001"/>
</g></svg>
