<?xml version="1.0" encoding="UTF-8"?>
<svg xmlns="http://www.w3.org/2000/svg" viewBox="0 0 1 1">
<g transform="translate(0.33734039743949185,0.4071172026683852) rotate(0) scale(1,1) translate(-0.01919286476298845,-0.019735317662897982)"><path d="M 0.01919286476298845 0.028100586173949643 C 0.018948183979597112 0.027980549749459273 0.015875795754345428 0.026284703285652234 0.01625669536229237 0.026660149080065178 C 0.015875795754345428 0.026284703285652234 0.014623541863915242 0.02283153788714723 0.014622069467625131 0.023595236640994315 C 0.014623541863915242 0.02283153788714723 0.016420331178986294 0.016731165835099218 0.0162743641177737 0.01749576403390014 C 0.016420331178986294 0.016731165835099218 0.016616882589277494 0.01387117080426505 0.016373674202176267 0.014420058255383273 C 0.016616882589277494 0.01387117080426505 0.019427797309722772 0.010616535984239651 0.019192864762988426 0.01090911462048147" fill="none" stroke="#000000" stroke-width="0.001"/>
<path d="M 0.019192864762988426 0.01090911462048147 C 0.01928096134061302 0.011173507624808662 0.020450607210092932 0.014620061905653053 0.020250023694483543 0.01408183067240779 C 0.020450607210092932 0.014620061905653053 0.02189266998062345 0.018160673250140168 0.021599866950301104 0.017367889419424624 C 0.02189266998062345 0.018160673250140168 0.02380775732613366 0.024369591612714344 0.02376366005835171 0.0235952366409943 C 0.02380775732613366 0.024369591612714344 0.02174813455573755 0.027035594874478094 0.02212903416368449 0.02666014908006515 C 0.02174813455573755 0.027035594874478094 0.018948183979597116 0.028220622598440017 0.01919286476298845 0.028100586173949643" fill="none" stroke="#000000" stroke-width="0.001"/>
</g><g transform="translate(0.33734039743949185,0.4109771216464815) rotate(0) scale(1,1) translate(-0.01919286476298845,-0.0207756729228991)"><path d="M 0.01919286476298845 0.024662010958448496 C 0.01902276268237479 0.02458576563700842 0.01693915222861984 0.023260139019327473 0.017151639795624528 0.023747067101167592 C 0.01693915222861984 0.023260139019327473 0.016622037298368933 0.018116236401889373 0.016643013958932192 0.018818873976367084 C 0.016622037298368933 0.018116236401889373 0.016891538503206637 0.014772466134132798 0.016899919868865416 0.015315416207435071 C 0.016891538503206637 0.014772466134132798 0.016595548744410774 0.011886271433334584 0.01654243757102684 0.01230347309673982 C 0.016595548744410774 0.011886271433334584 0.017620155314343123 0.010142789842391612 0.01753725394947264 0.010308996246572244" fill="none" stroke="#000000" stroke-width="0.001"/>
<path d="M 0.01753725394947264 0.010308996246572244 C 0.017697907804913714 0.010436961781067334 0.019794146523735467 0.012261784323918562 0.019465100214765566 0.011844582660513327 C 0.019794146523735467 0.012261784323918562 0.021675610936468033 0.015896607150422872 0.021485809657111443 0.01531541620743506 C 0.021675610936468033 0.015896607150422872 0.0217217389064814 0.01952151155084479 0.02174271556704466 0.01881887397636708 C 0.0217217389064814 0.01952151155084479 0.02102160216334764 0.0242339951830077 0.021234089730352325 0.02374706710116758 C 0.02102160216334764 0.0242339951830077 0.019022762682374794 0.02473825627988857 0.01919286476298845 0.024662010958448496" fill="none" stroke="#000000" stroke-width="0.001"/>
</g><g transform="translate(0.3360825565151738,0.40274462044313936) rotate(0) scale(1,1) translate(-0.022933258138484177,-0.022933258138484177)"><path d="M 0.02414884649173639 0.022161575963360918 C 0.02427516431532156 0.022287666987709766 0.024403989712227507 0.023365901253686594 0.02444907202150619 0.02320866831811174 C 0.024403989712227507 0.023365901253686594 0.023425324236648008 0.02411834642960478 0.023607858780392177 0.02404837119025916 C 0.023425324236648008 0.02411834642960478 0.022076122952832004 0.023978395950913542 0.022258657496576174 0.02404837119025916 C 0.022076122952832004 0.023978395950913542 0.02137236194618348 0.023051435382536886 0.021417444255462166 0.02320866831811174 C 0.02137236194618348 0.023051435382536886 0.02184398760881713 0.02203548493901207 0.021717669785231965 0.022161575963360918 C 0.02184398760881713 0.02203548493901207 0.02313585619735954 0.02169557602592558 0.022933258138484174 0.02169557602592558 C 0.02313585619735954 0.02169557602592558 0.02427516431532156 0.022287666987709766 0.02414884649173639 0.022161575963360918 Z" fill="#cccccc" stroke="#000000" stroke-width="0.001"/>
</g><g transform="translate(0.3373403974394919,0.40740572241943596) rotate(0) scale(1,1) translate(-0.02456377814682995,-0.024563778146829942)"><path d="M 0.02474033872797484 0.024395581603393682 C 0.024784478873261063 0.02440959798201337 0.02491689930911973 0.024591810904069315 0.02491689930911973 0.02456377814682994 C 0.02491689930911973 0.024591810904069315 0.02469619858268862 0.024745991068885892 0.02474033872797484 0.024731974690266202 C 0.02469619858268862 0.024745991068885892 0.02434307742039884 0.024717958311646512 0.02438721756568506 0.024731974690266202 C 0.02434307742039884 0.024717958311646512 0.02421065698454017 0.024535745389590562 0.02421065698454017 0.02456377814682994 C 0.02421065698454017 0.024535745389590562 0.024431357710971283 0.024381565224773992 0.02438721756568506 0.024395581603393682 C 0.024431357710971283 0.024381565224773992 0.024784478873261063 0.02440959798201337 0.02474033872797484 0.024395581603393682 Z" fill="#cccccc" stroke="#000000" stroke-width="0.001"/>
</g><g transform="translate(0.33734039743949185,0.4109771216464815) rotate(0) scale(1,1) translate(-0.04481464761927567,-0.044322296567054956)"><path d="M 0.047194078569935856 0.044322296567054956 C 0.04731662600338515 0.04462253336527269 0.04596438347466283 0.04673453166469105 0.046285216820667135 0.04654897511871904 C 0.04596438347466283 0.04673453166469105 0.043023245071879886 0.046363418572747034 0.04334407841788419 0.04654897511871904 C 0.043023245071879886 0.046363418572747034 0.04255776410206477 0.04402205976883722 0.04243521666861549 0.044322296567054956 C 0.04255776410206477 0.04402205976883722 0.045211219444385664 0.04294613354010617 0.04481464761927564 0.04294613354010617 C 0.045211219444385664 0.04294613354010617 0.04731662600338515 0.04462253336527269 0.047194078569935856 0.044322296567054956 Z" fill="#cccccc" stroke="#000000" stroke-width="0.001"/>
</g></svg>
