<?xml version="1.0" encoding="UTF-8"?>
<svg xmlns="http://www.w3.org/2000/svg" viewBox="0 0 1 1">
<g transform="translate(0.33734039743949185,0.4071172026683852) rotate(0) scale(1,1) translate(-0.01919286476298845,-0.019735317662897982)"><path d="M 0.01919286476298845 0.028100586173949643 C 0.018882462843518587 0.027980549749459273 0.014966084974153002 0.026352049403244517 0.01546804172935011 0.026660149080065178 C 0.014966084974153002 0.026352049403244517 0.01327920210448362 0.023629035080381656 0.01316938370062315 0.024403390052101702 C 0.01327920210448362 0.023629035080381656 0.017146441663883474 0.016483708979389645 0.01678586257567576 0.017367889419424635 C 0.017146441663883474 0.016483708979389645 0.01769691627472512 0.013254993538436559 0.017496332759115732 0.013793224771681822 C 0.01769691627472512 0.013254993538436559 0.01933424242997782 0.01066877210788144 0.019192864762988426 0.01090911462048147" fill="none" stroke="#000000" stroke-width="0.001"/>
<path d="M 0.019192864762988426 0.01090911462048147 C 0.01933424242997782 0.011149457133081497 0.021089980282470503 0.014331456004927065 0.020889396766861114 0.013793224771681802 C 0.021089980282470503 0.014331456004927065 0.021960446038508816 0.018252069859459614 0.021599866950301104 0.017367889419424624 C 0.021960446038508816 0.018252069859459614 0.025326164229214132 0.02517774502382173 0.02521634582535366 0.024403390052101688 C 0.025326164229214132 0.02517774502382173 0.022415731041429646 0.02696824875688581 0.022917687796626746 0.02666014908006515 C 0.022415731041429646 0.02696824875688581 0.01888246284351859 0.028220622598440017 0.01919286476298845 0.028100586173949643" fill="none" stroke="#000000" stroke-width="0.001"/>
</g><g transform="translate(0.33734039743949185,0.4109771216464815) rotate(0) scale(1,1) translate(-0.01919286476298845,-0.0207756729228991)"><path d="M 0.01919286476298845 0.024662010958448496 C 0.018917631210725306 0.02453972543005089 0.015530037003246901 0.022887779871733023 0.015890062135830732 0.02319458461767723 C 0.015530037003246901 0.022887779871733023 0.01495671798306871 0.020323756639597824 0.014872563171982486 0.020980354007118004 C 0.01495671798306871 0.020323756639597824 0.017129039754236845 0.014666619569053565 0.016899919868865416 0.015315416207435071 C 0.017129039754236845 0.014666619569053565 0.01781308053761655 0.012878432700529 0.017622001796439635 0.013194794346539931 C 0.01781308053761655 0.012878432700529 0.019323770010200827 0.011379433297700896 0.019192864762988426 0.011519076455303898" fill="none" stroke="#000000" stroke-width="0.001"/>
<path d="M 0.019192864762988426 0.011519076455303898 C 0.019323770010200827 0.0116587196129069 0.02095480647071414 0.013511155992550844 0.02076372772953722 0.013194794346539914 C 0.02095480647071414 0.013511155992550844 0.021714929542482872 0.015964212845816568 0.021485809657111443 0.01531541620743506 C 0.021714929542482872 0.015964212845816568 0.023597321165080582 0.02163695137463818 0.02351316635399436 0.020980354007118 C 0.023597321165080582 0.02163695137463818 0.02213564225756229 0.02350138936362143 0.022495667390146117 0.023194584617677223 C 0.02213564225756229 0.02350138936362143 0.018917631210725313 0.024784296486846102 0.01919286476298845 0.024662010958448496" fill="none" stroke="#000000" stroke-width="0.001"/>
</g><g transform="translate(0.33734039743949185,0.4040959859997025) rotate(0) scale(1,1) translate(-0.022933258138484177,-0.022933258138484177)"><path d="M 0.02414884649173639 0.022161575963360918 C 0.02427516431532156 0.022287666987709766 0.024403989712227507 0.023365901253686594 0.02444907202150619 0.02320866831811174 C 0.024403989712227507 0.023365901253686594 0.023425324236648008 0.02411834642960478 0.023607858780392177 0.02404837119025916 C 0.023425324236648008 0.02411834642960478 0.022076122952832004 0.023978395950913542 0.022258657496576174 0.02404837119025916 C 0.022076122952832004 0.023978395950913542 0.02137236194618348 0.023051435382536886 0.021417444255462166 0.02320866831811174 C 0.02137236194618348 0.023051435382536886 0.02184398760881713 0.02203548493901207 0.021717669785231965 0.022161575963360918 C 0.02184398760881713 0.02203548493901207 0.02313585619735954 0.02169557602592558 0.022933258138484174 0.02169557602592558 C 0.02313585619735954 0.02169557602592558 0.02427516431532156 0.022287666987709766 0.02414884649173639 0.022161575963360918 Z" fill="#cccccc" stroke="#000000" stroke-width="0.001"/>
</g><g transform="translate(0.3373403974394919,0.4074057224194359) rotate(0) scale(1,1) translate(-0.02456377814682995,-0.024563778146829942)"><path d="M 0.02474033872797484 0.024395581603393682 C 0.024784478873261063 0.02440959798201337 0.02491689930911973 0.024591810904069315 0.02491689930911973 0.02456377814682994 C 0.02491689930911973 0.024591810904069315 0.02469619858268862 0.024745991068885892 0.02474033872797484 0.024731974690266202 C 0.02469619858268862 0.024745991068885892 0.02434307742039884 0.024717958311646512 0.02438721756568506 0.024731974690266202 C 0.02434307742039884 0.024717958311646512 0.02421065698454017 0.024535745389590562 0.02421065698454017 0.02456377814682994 C 0.02421065698454017 0.024535745389590562 0.024431357710971283 0.024381565224773992 0.02438721756568506 0.024395581603393682 C 0.024431357710971283 0.024381565224773992 0.024784478873261063 0.02440959798201337 0.02474033872797484 0.024395581603393682 Z" fill="#cccccc" stroke="#000000" stroke-width="0.001"/>
</g><g transform="translate(0.33734039743949185,0.4109771216464815) rotate(0) scale(1,1) translate(-0.04481464761927567,-0.044322296567054956)"><path d="M 0.04870857055871239 0.044322296567054956 C 0.04890911861922446 0.04462253336527269 0.046696182706622014 0.04673453166469105 0.047221224345420476 0.04654897511871904 C 0.046696182706622014 0.04673453166469105 0.04188302925433239 0.046363418572747034 0.04240807089313085 0.04654897511871904 C 0.04188302925433239 0.046363418572747034 0.04112127274035103 0.04402205976883722 0.04092072467983897 0.044322296567054956 C 0.04112127274035103 0.04402205976883722 0.04546363477584842 0.04294613354010617 0.04481464761927564 0.04294613354010617 C 0.04546363477584842 0.04294613354010617 0.04890911861922446 0.04462253336527269 0.04870857055871239 0.044322296567054956 Z" fill="#cccccc" stroke="#000000" stroke-width="0.001"/>
</g></svg>
