<?xml version="1.0" encoding="UTF-8"?>
<svg xmlns="http://www.w3.org/2000/svg" viewBox="0 0 1 1">
<g id="ハート1">
<g transform="translate(0.3373434528286707,0.11344159583471114) rotate(0) scale(1,1) translate(-0.09700342545889178,-0.082272254854096)"><path d="M 0.06182351001252887 0.07511971244780319 C 0.061922676864092446 0.07503953712638982 0.0632353998166856 0.07408917284761707 0.06301351223129179 0.0741576085908428 C 0.0632353998166856 0.07408917284761707 0.06468232036606439 0.07442541367751082 0.06448616103725474 0.07429848352909439 C 0.06468232036606439 0.07442541367751082 0.06540943972136853 0.07595026478136152 0.06536742417700764 0.07568077037183997 C 0.06540943972136853 0.07595026478136152 0.06485410473559869 0.07782076719968958 0.06499034756958547 0.07753241644335296 C 0.06485410473559869 0.07782076719968958 0.06354039465301102 0.07939316993568195 0.06373251016916631 0.07914097944787947 C 0.06354039465301102 0.07939316993568195 0.062597665642935 0.08067684586774132 0.06268496137572202 0.08055870229698271" fill="none" stroke="#000000" stroke-width="0.001"/>
<path d="M 0.06268496137572202 0.08055870229698271 C 0.06256542982906961 0.08047331694912196 0.06098993895582149 0.07935359767525668 0.06125058281589306 0.07953407812265378 C 0.06098993895582149 0.07935359767525668 0.059338555135752716 0.0781608004134886 0.05955723505486324 0.07839293692821746 C 0.059338555135752716 0.0781608004134886 0.05858310459138568 0.0764791520143914 0.05862642378656677 0.07674843994590741 C 0.05858310459138568 0.0764791520143914 0.05918473974762749 0.07498014743905221 0.05903740471269019 0.07516148175002532 C 0.05918473974762749 0.07498014743905221 0.06062661964746748 0.07456894743904478 0.06039444420581426 0.07457242821422996 C 0.06062661964746748 0.07456894743904478 0.06194259882975509 0.07516531946726762 0.06182351001252887 0.07511971244780319" fill="none" stroke="#000000" stroke-width="0.001"/>
</g><g transform="translate(0.30251454575647385,0.10850523308247313) rotate(0) scale(1,1) translate(-0.095,-0.08112494156492593)"><path d="M 0.0947020960179441 0.07924404984699282 C 0.09478341283622624 0.07917830608343386 0.09585984565735263 0.07839900737484018 0.09567789783732969 0.07845512468428528 C 0.09585984565735263 0.07839900737484018 0.09704632050784325 0.07867472485535305 0.09688546985821933 0.07857064213365159 C 0.09704632050784325 0.07867472485535305 0.09764255837919263 0.07992510276051062 0.09760810563281669 0.07970411734470295 C 0.09764255837919263 0.07992510276051062 0.09718718369086135 0.08145891474353965 0.09729890281473051 0.08122246712334362 C 0.09718718369086135 0.08145891474353965 0.09610994142313946 0.08274828498705339 0.0962674761463868 0.08254148878705535 C 0.09610994142313946 0.08274828498705339 0.09533690363487711 0.08380089925134208 0.09540848613576247 0.08370402152332003" fill="none" stroke="none" stroke-width="0"/>
<path d="M 0.09540848613576247 0.08370402152332003 C 0.0953104702675075 0.08363400553807422 0.09401856775144406 0.08271583573350468 0.09423229571670275 0.0828638297003703 C 0.09401856775144406 0.08271583573350468 0.09266443301898764 0.08173774197885485 0.09284375055265827 0.08192809392093252 C 0.09266443301898764 0.08173774197885485 0.09204496357260666 0.08035879029159514 0.09208048531265516 0.08057960639543826 C 0.09204496357260666 0.08035879029159514 0.09253830440072496 0.07912960653981697 0.09241748967207637 0.07927830067481494 C 0.09253830440072496 0.07912960653981697 0.09372064591859379 0.0787924225398109 0.09353026205643815 0.07879527677546275 C 0.09372064591859379 0.0787924225398109 0.0947997488480696 0.07928144760295366 0.0947020960179441 0.07924404984699282" fill="none" stroke="none" stroke-width="0"/>
</g><g transform="translate(0.3003199194410205,0.1070677331029977) rotate(0) scale(1,1) translate(-0.0898704396271021,-0.08987043962710213)"><path d="M 0.09026741661206132 0.08932404768216108 C 0.09033180952030358 0.08937083186850102 0.09054995344126043 0.08984340137317996 0.09053750219459528 0.08976478729568828 C 0.09054995344126043 0.08984340137317996 0.09037004738570321 0.0903318095203036 0.09041683157204315 0.09026741661206135 C 0.09037004738570321 0.0903318095203036 0.08989747788102427 0.09054995344126046 0.08997609195851596 0.0905375021945953 C 0.08989747788102427 0.09054995344126046 0.08940906973390063 0.09037004738570324 0.08947346264214288 0.09041683157204318 C 0.08940906973390063 0.09037004738570324 0.08919092581294377 0.0898974778810243 0.08920337705960893 0.08997609195851598 C 0.08919092581294377 0.0898974778810243 0.08937083186850099 0.08940906973390066 0.08932404768216105 0.08947346264214291 C 0.08937083186850099 0.08940906973390066 0.08984340137317993 0.0891909258129438 0.08976478729568825 0.08920337705960896 C 0.08984340137317993 0.0891909258129438 0.09033180952030358 0.08937083186850102 0.09026741661206132 0.08932404768216108 Z" fill="#cccccc" stroke="none" stroke-width="0"/>
</g><g transform="translate(0.3009070742028591,0.10748326112337644) rotate(0) scale(1,1) translate(-0.0898704396271021,-0.08987043962710213)"><path d="M 0.09006495834973212 0.08960270757408102 C 0.09009651087477082 0.08962563182538759 0.09020340139603968 0.08985719088268027 0.09019730028517375 0.08981866998470935 C 0.09020340139603968 0.08985719088268027 0.09011524742881664 0.09009651087477084 0.09013817168012321 0.09006495834973215 C 0.09011524742881664 0.09009651087477084 0.08988368837152397 0.0902034013960397 0.08992220926949489 0.09019730028517378 C 0.08988368837152397 0.0902034013960397 0.08964436837943339 0.09011524742881667 0.08967592090447209 0.09013817168012324 C 0.08964436837943339 0.09011524742881667 0.08953747785816453 0.089883688371524 0.08954357896903045 0.08992220926949492 C 0.08953747785816453 0.089883688371524 0.08962563182538756 0.08964436837943342 0.089602707574081 0.08967592090447211 C 0.08962563182538756 0.08964436837943342 0.08985719088268024 0.08953747785816456 0.08981866998470932 0.08954357896903048 C 0.08985719088268024 0.08953747785816456 0.09009651087477082 0.08962563182538759 0.09006495834973212 0.08960270757408102 Z" fill="#cccccc" stroke="none" stroke-width="0"/>
</g></g>
</svg>
