<?xml version="1.0" encoding="UTF-8"?>
<svg xmlns="http://www.w3.org/2000/svg" viewBox="0 0 1 1">
<g id="ハート3">
<g transform="translate(0.3373434528286707,0.11344159583471114) rotate(0) scale(1,1) translate(-0.09700342545889178,-0.082272254854096)"><path d="M 0.03367148465836025 0.0415571326342858 C 0.034068152064614554 0.04123643134863234 0.03931904387498718 0.03743497423354133 0.03843149353341189 0.03770871720644427 C 0.03931904387498718 0.03743497423354133 0.04510672607250235 0.03877993755311628 0.04432208875726374 0.038272216959450565 C 0.04510672607250235 0.03877993755311628 0.048015203493718815 0.044879341968519046 0.047847141316275245 0.04380136433043286 C 0.048015203493718815 0.044879341968519046 0.04579386355063946 0.05236135164183134 0.04633883488658657 0.05120794861648484 C 0.04579386355063946 0.05236135164183134 0.0405390232202888 0.058650962585800784 0.041307485284909955 0.057642200634590864 C 0.0405390232202888 0.058650962585800784 0.036768107179984647 0.06378566631403826 0.037117290111132746 0.06331309203100384" fill="none" stroke="#000000" stroke-width="0.001"/>
<path d="M 0.037117290111132746 0.06331309203100384 C 0.0366391639245231 0.06297155063956086 0.030337200431530705 0.0584926735440998 0.03137977587181696 0.05921459533368821 C 0.030337200431530705 0.0584926735440998 0.023731665151255618 0.053721484497027454 0.024606384827697714 0.054650030555942905 C 0.023731665151255618 0.053721484497027454 0.02070986297378745 0.04699489090063872 0.0208831397545118 0.04807204262670277 C 0.02070986297378745 0.04699489090063872 0.023116403598754682 0.04099887259928184 0.022527063459005518 0.041724209843174334 C 0.023116403598754682 0.04099887259928184 0.028883923198114655 0.039354072599252145 0.02795522143150176 0.03936799569999286 C 0.028883923198114655 0.039354072599252145 0.034147839927265125 0.04173956071214355 0.03367148465836025 0.0415571326342858" fill="none" stroke="#000000" stroke-width="0.001"/>
</g><g transform="translate(0.2754155455248035,0.08159119223112024) rotate(0) scale(1,1) translate(-0.095,-0.08112494156492593)"><path d="M 0.09380838407177643 0.07360137469319347 C 0.09413365134490495 0.07333839963895764 0.09843938262941052 0.07022120480458295 0.09771159134931877 0.07044567404236336 C 0.09843938262941052 0.07022120480458295 0.103185282031373 0.0713240747266344 0.10254187943287733 0.07090774383982852 C 0.103185282031373 0.0713240747266344 0.10557023351677047 0.07632558634726469 0.10543242253126675 0.07544164468403401 C 0.10557023351677047 0.07632558634726469 0.10374873476344541 0.08246083427938078 0.10419561125892204 0.08151504379859664 C 0.10374873476344541 0.08246083427938078 0.09943976569255782 0.08761831525343576 0.10006990458554717 0.08679113045344362 C 0.09943976569255782 0.08761831525343576 0.09634761453950846 0.09182877231059051 0.0966339445430499 0.0914412613985023" fill="none" stroke="none" stroke-width="0"/>
<path d="M 0.0966339445430499 0.0914412613985023 C 0.09624188107002998 0.09116119745751906 0.09107427100577624 0.08748851823924095 0.09192918286681097 0.08808049410670345 C 0.09107427100577624 0.08748851823924095 0.08565773207595057 0.08357614322064157 0.0863750022106331 0.08433755098895225 C 0.08565773207595057 0.08357614322064157 0.08317985429042661 0.07806033647160276 0.08332194125062058 0.07894360088697529 C 0.08317985429042661 0.07806033647160276 0.08515321760289979 0.07314360146449017 0.08466995868830546 0.073738378004482 C 0.08515321760289979 0.07314360146449017 0.08988258367437509 0.07179486546446583 0.08912104822575251 0.07180628240707321 C 0.08988258367437509 0.07179486546446583 0.09419899539227843 0.07375096571703682 0.09380838407177643 0.07360137469319347" fill="none" stroke="none" stroke-width="0"/>
</g><g transform="translate(0.26663704026299007,0.07584119231321855) rotate(0) scale(1,1) translate(-0.0898704396271021,-0.08987043962710213)"><path d="M 0.091458347566939 0.08768487184733798 C 0.09171591919990801 0.08787200859269775 0.09258849488373538 0.08976228661141346 0.09253868989707478 0.0894478303014467 C 0.09258849488373538 0.08976228661141346 0.09186887066150648 0.09171591919990804 0.09205600740686626 0.09145834756693903 C 0.09186887066150648 0.09171591919990804 0.08997859264279078 0.09258849488373541 0.09029304895275753 0.09253868989707481 C 0.08997859264279078 0.09258849488373541 0.08802496005429619 0.09186887066150651 0.0882825316872652 0.09205600740686629 C 0.08802496005429619 0.09186887066150651 0.08715238437046882 0.0899785926427908 0.08720218935712942 0.09029304895275755 C 0.08715238437046882 0.0899785926427908 0.08787200859269773 0.08802496005429622 0.08768487184733795 0.08828253168726523 C 0.08787200859269773 0.08802496005429622 0.08976228661141343 0.08715238437046885 0.08944783030144668 0.08720218935712945 C 0.08976228661141343 0.08715238437046885 0.09171591919990801 0.08787200859269775 0.091458347566939 0.08768487184733798 Z" fill="#cccccc" stroke="none" stroke-width="0"/>
</g><g transform="translate(0.2689856593103447,0.0775033043947335) rotate(0) scale(1,1) translate(-0.0898704396271021,-0.08987043962710213)"><path d="M 0.09064851451762221 0.0887995114150177 C 0.09077472461777703 0.08889120842024398 0.09120228670285238 0.08981744464941468 0.09117788225938869 0.08966336105753098 C 0.09120228670285238 0.08981744464941468 0.09084967083396026 0.09077472461777705 0.09094136783918653 0.09064851451762224 C 0.09084967083396026 0.09077472461777705 0.08992343460478955 0.09120228670285241 0.09007751819667326 0.09117788225938872 C 0.08992343460478955 0.09120228670285241 0.08896615463642718 0.09084967083396028 0.089092364736582 0.09094136783918656 C 0.08896615463642718 0.09084967083396028 0.08853859255135182 0.08992343460478958 0.08856299699481551 0.09007751819667328 C 0.08853859255135182 0.08992343460478958 0.08889120842024395 0.08896615463642721 0.08879951141501767 0.08909236473658202 C 0.08889120842024395 0.08896615463642721 0.08981744464941466 0.08853859255135185 0.08966336105753095 0.08856299699481554 C 0.08981744464941466 0.08853859255135185 0.09077472461777703 0.08889120842024398 0.09064851451762221 0.0887995114150177 Z" fill="#cccccc" stroke="none" stroke-width="0"/>
</g></g>
</svg>
