<?xml version="1.0" encoding="UTF-8"?>
<svg xmlns="http://www.w3.org/2000/svg" viewBox="0 0 1 1">
<g transform="translate(0.3373434528286706,0.2649004817027368) rotate(0) scale(1,1) translate(-0.01998441619478862,-0.00887311800743398)"><path d="M 0.030078515125403976 0.04272480829006169 C 0.030078515125403976 0.0531553771850309 0.016619716551250167 0.0740165149749693 0.01998441619478862 0.0740165149749693 C 0.016619716551250167 0.0740165149749693 0.009890317264173257 0.0322942393950925 0.009890317264173259 0.04272480829006171 C 0.009890317264173257 0.0322942393950925 0.023349115838327068 0.011433101605154079 0.019984416194788614 0.01143310160515408 C 0.023349115838327068 0.011433101605154079 0.030078515125403976 0.0531553771850309 0.030078515125403976 0.04272480829006169 Z" fill="#cccccc" stroke="none" stroke-width="0"/>
</g><g transform="translate(0.33736276803663073,0.2705295285435001) rotate(0) scale(1,1) translate(-0.08849994995935555,-0.083180731644454)"><path d="M 0.08915051298834828 0.08193683451728959 C 0.089230323383685 0.08213330613921933 0.08941998501813558 0.08269582471778111 0.08941998501813558 0.08258739754628232 C 0.08941998501813558 0.08269582471778111 0.0890738434001166 0.08331463016350674 0.08915051298834828 0.08323796057527506 C 0.0890738434001166 0.08331463016350674 0.08839152278785675 0.08350743260506237 0.08849994995935555 0.08350743260506237 C 0.08839152278785675 0.08350743260506237 0.08777271734213113 0.08316129098704339 0.0878493869303628 0.08323796057527506 C 0.08777271734213113 0.08316129098704339 0.0875799149005755 0.08247897037478352 0.0875799149005755 0.08258739754628232 C 0.0875799149005755 0.08247897037478352 0.08792291571148941 0.08174036289535984 0.0878493869303628 0.08193683451728959 C 0.08792291571148941 0.08174036289535984 0.08857068744559371 0.08022973808312533 0.08846226027409491 0.08022973808312533 C 0.08857068744559371 0.08022973808312533 0.089230323383685 0.08213330613921933 0.08915051298834828 0.08193683451728959 Z" fill="#cccccc" stroke="#000000" stroke-width="0.001"/>
</g><g transform="translate(0.33858620876121026,0.2747545498871462) rotate(0) scale(1,1) translate(-0.08849994995935555,-0.083180731644454)"><path d="M 0.08915051298834828 0.08193683451728959 C 0.0892676762044972 0.08208596638705738 0.08941998501813558 0.08269582471778111 0.08941998501813558 0.08258739754628232 C 0.08941998501813558 0.08269582471778111 0.0890738434001166 0.08331463016350674 0.08915051298834828 0.08323796057527506 C 0.0890738434001166 0.08331463016350674 0.08839152278785675 0.08350743260506237 0.08849994995935555 0.08350743260506237 C 0.08839152278785675 0.08350743260506237 0.08777271734213113 0.08316129098704339 0.0878493869303628 0.08323796057527506 C 0.08777271734213113 0.08316129098704339 0.0875799149005755 0.08247897037478352 0.0875799149005755 0.08258739754628232 C 0.0875799149005755 0.08247897037478352 0.08788556289067723 0.08178770264752179 0.0878493869303628 0.08193683451728959 C 0.08788556289067723 0.08178770264752179 0.08812245359584732 0.08079781510906876 0.08801402642434852 0.08079781510906876 C 0.08812245359584732 0.08079781510906876 0.0892676762044972 0.08208596638705738 0.08915051298834828 0.08193683451728959 Z" fill="#cccccc" stroke="#000000" stroke-width="0.001"/>
</g><g transform="translate(0.33558434987948627,0.27354297951367973) rotate(0) scale(1,1) translate(-0.08849994995935555,-0.083180731644454)"><path d="M 0.08915051298834828 0.08193683451728959 C 0.08920160765368484 0.08209662260493035 0.08941998501813558 0.08269582471778111 0.08941998501813558 0.08258739754628232 C 0.08941998501813558 0.08269582471778111 0.0890738434001166 0.08331463016350674 0.08915051298834828 0.08323796057527506 C 0.0890738434001166 0.08331463016350674 0.08839152278785675 0.08350743260506237 0.08849994995935555 0.08350743260506237 C 0.08839152278785675 0.08350743260506237 0.08777271734213113 0.08316129098704339 0.0878493869303628 0.08323796057527506 C 0.08777271734213113 0.08316129098704339 0.0875799149005755 0.08247897037478352 0.0875799149005755 0.08258739754628232 C 0.0875799149005755 0.08247897037478352 0.08795163144148958 0.08177704642964882 0.0878493869303628 0.08193683451728959 C 0.08795163144148958 0.08177704642964882 0.08891527620559561 0.08066994049459322 0.08880684903409682 0.08066994049459322 C 0.08891527620559561 0.08066994049459322 0.08920160765368484 0.08209662260493035 0.08915051298834828 0.08193683451728959 Z" fill="#cccccc" stroke="#000000" stroke-width="0.001"/>
</g><g transform="translate(0.3410649305425698,0.2774416102147555) rotate(0) scale(1,1) translate(-0.08849994995935555,-0.083180731644454)"><path d="M 0.08915051298834828 0.08193683451728959 C 0.08927193869164637 0.08209236011778116 0.08941998501813558 0.08269582471778111 0.08941998501813558 0.08258739754628232 C 0.08941998501813558 0.08269582471778111 0.0890738434001166 0.08331463016350674 0.08915051298834828 0.08323796057527506 C 0.0890738434001166 0.08331463016350674 0.08839152278785675 0.08350743260506237 0.08849994995935555 0.08350743260506237 C 0.08839152278785675 0.08350743260506237 0.08777271734213113 0.08316129098704339 0.0878493869303628 0.08323796057527506 C 0.08777271734213113 0.08316129098704339 0.0875799149005755 0.08247897037478352 0.0875799149005755 0.08258739754628232 C 0.0875799149005755 0.08247897037478352 0.08788130040352804 0.08178130891679801 0.0878493869303628 0.08193683451728959 C 0.08788130040352804 0.08178130891679801 0.08807130375005717 0.08072109034038347 0.08796287657855838 0.08072109034038347 C 0.08807130375005717 0.08072109034038347 0.08927193869164637 0.08209236011778116 0.08915051298834828 0.08193683451728959 Z" fill="#cccccc" stroke="#000000" stroke-width="0.001"/>
</g><g transform="translate(0.33385327831069156,0.2768465232115855) rotate(0) scale(1,1) translate(-0.08849994995935555,-0.083180731644454)"><path d="M 0.08915051298834828 0.08193683451728959 C 0.08919308267938647 0.0820795726563336 0.08941998501813558 0.08269582471778111 0.08941998501813558 0.08258739754628232 C 0.08941998501813558 0.08269582471778111 0.0890738434001166 0.08331463016350674 0.08915051298834828 0.08323796057527506 C 0.0890738434001166 0.08331463016350674 0.08839152278785675 0.08350743260506237 0.08849994995935555 0.08350743260506237 C 0.08839152278785675 0.08350743260506237 0.08777271734213113 0.08316129098704339 0.0878493869303628 0.08323796057527506 C 0.08777271734213113 0.08316129098704339 0.0875799149005755 0.08247897037478352 0.0875799149005755 0.08258739754628232 C 0.0875799149005755 0.08247897037478352 0.08796015641578794 0.08179409637824557 0.0878493869303628 0.08193683451728959 C 0.08796015641578794 0.08179409637824557 0.089017575897176 0.08087453987775406 0.0889091487256772 0.08087453987775406 C 0.089017575897176 0.08087453987775406 0.08919308267938647 0.0820795726563336 0.08915051298834828 0.08193683451728959 Z" fill="#cccccc" stroke="#000000" stroke-width="0.001"/>
</g><g transform="translate(0.34007867596215446,0.2805514950751666) rotate(0) scale(1,1) translate(-0.08849994995935555,-0.083180731644454)"><path d="M 0.08915051298834828 0.08193683451728959 C 0.08927406993522097 0.0821072788228033 0.08941998501813558 0.08269582471778111 0.08941998501813558 0.08258739754628232 C 0.08941998501813558 0.08269582471778111 0.0890738434001166 0.08331463016350674 0.08915051298834828 0.08323796057527506 C 0.0890738434001166 0.08331463016350674 0.08839152278785675 0.08350743260506237 0.08849994995935555 0.08350743260506237 C 0.08839152278785675 0.08350743260506237 0.08777271734213113 0.08316129098704339 0.0878493869303628 0.08323796057527506 C 0.08777271734213113 0.08316129098704339 0.0875799149005755 0.08247897037478352 0.0875799149005755 0.08258739754628232 C 0.0875799149005755 0.08247897037478352 0.08787916915995345 0.08176639021177587 0.0878493869303628 0.08193683451728959 C 0.08787916915995345 0.08176639021177587 0.08804572882716206 0.08054206588011775 0.08793730165566327 0.08054206588011775 C 0.08804572882716206 0.08054206588011775 0.08927406993522097 0.0821072788228033 0.08915051298834828 0.08193683451728959 Z" fill="#cccccc" stroke="#000000" stroke-width="0.001"/>
</g><g transform="translate(0.3359877739936306,0.27946098636128625) rotate(0) scale(1,1) translate(-0.08849994995935555,-0.083180731644454)"><path d="M 0.08915051298834828 0.08193683451728959 C 0.08922931382015455 0.08208383514348279 0.08941998501813558 0.08269582471778111 0.08941998501813558 0.08258739754628232 C 0.08941998501813558 0.08269582471778111 0.0890738434001166 0.08331463016350674 0.08915051298834828 0.08323796057527506 C 0.0890738434001166 0.08331463016350674 0.08839152278785675 0.08350743260506237 0.08849994995935555 0.08350743260506237 C 0.08839152278785675 0.08350743260506237 0.08777271734213113 0.08316129098704339 0.0878493869303628 0.08323796057527506 C 0.08777271734213113 0.08316129098704339 0.0875799149005755 0.08247897037478352 0.0875799149005755 0.08258739754628232 C 0.0875799149005755 0.08247897037478352 0.08792392527501988 0.08178983389109638 0.0878493869303628 0.08193683451728959 C 0.08792392527501988 0.08178983389109638 0.08858280220795924 0.08082339003196386 0.08847437503646044 0.08082339003196386 C 0.08858280220795924 0.08082339003196386 0.08922931382015455 0.08208383514348279 0.08915051298834828 0.08193683451728959 Z" fill="#cccccc" stroke="#000000" stroke-width="0.001"/>
</g><g transform="translate(0.33248045175317575,0.28039446879430635) rotate(0) scale(1,1) translate(-0.08849994995935555,-0.083180731644454)"><path d="M 0.08915051298834828 0.08193683451728959 C 0.08920373889725944 0.08207744141275902 0.08941998501813558 0.08269582471778111 0.08941998501813558 0.08258739754628232 C 0.08941998501813558 0.08269582471778111 0.0890738434001166 0.08331463016350674 0.08915051298834828 0.08323796057527506 C 0.0890738434001166 0.08331463016350674 0.08839152278785675 0.08350743260506237 0.08849994995935555 0.08350743260506237 C 0.08839152278785675 0.08350743260506237 0.08777271734213113 0.08316129098704339 0.0878493869303628 0.08323796057527506 C 0.08777271734213113 0.08316129098704339 0.0875799149005755 0.08247897037478352 0.0875799149005755 0.08258739754628232 C 0.0875799149005755 0.08247897037478352 0.08794950019791499 0.08179622762182015 0.0878493869303628 0.08193683451728959 C 0.08794950019791499 0.08179622762182015 0.08888970128270049 0.08090011480064917 0.0887812741112017 0.08090011480064917 C 0.08888970128270049 0.08090011480064917 0.08920373889725944 0.08207744141275902 0.08915051298834828 0.08193683451728959 Z" fill="#cccccc" stroke="#000000" stroke-width="0.001"/>
</g><g transform="translate(0.34112834594605407,0.28233739334519553) rotate(0) scale(1,1) translate(-0.08849994995935555,-0.083180731644454)"><path d="M 0.08915051298834828 0.08193683451728959 C 0.08925062625590047 0.08207317892560984 0.08941998501813558 0.08269582471778111 0.08941998501813558 0.08258739754628232 C 0.08941998501813558 0.08269582471778111 0.0890738434001166 0.08331463016350674 0.08915051298834828 0.08323796057527506 C 0.0890738434001166 0.08331463016350674 0.08839152278785675 0.08350743260506237 0.08849994995935555 0.08350743260506237 C 0.08839152278785675 0.08350743260506237 0.08777271734213113 0.08316129098704339 0.0878493869303628 0.08323796057527506 C 0.08777271734213113 0.08316129098704339 0.0875799149005755 0.08247897037478352 0.0875799149005755 0.08258739754628232 C 0.0875799149005755 0.08247897037478352 0.08790261283927396 0.08180049010896934 0.0878493869303628 0.08193683451728959 C 0.08790261283927396 0.08180049010896934 0.08832705297900817 0.08095126464643937 0.08821862580750937 0.08095126464643937 C 0.08832705297900817 0.08095126464643937 0.08925062625590047 0.08207317892560984 0.08915051298834828 0.08193683451728959 Z" fill="#cccccc" stroke="#000000" stroke-width="0.001"/>
</g><g transform="translate(0.3351070391877175,0.2842244788365044) rotate(0) scale(1,1) translate(-0.08849994995935555,-0.083180731644454)"><path d="M 0.08915051298834828 0.08193683451728959 C 0.08921652635870699 0.08209449136135574 0.08941998501813558 0.08269582471778111 0.08941998501813558 0.08258739754628232 C 0.08941998501813558 0.08269582471778111 0.0890738434001166 0.08331463016350674 0.08915051298834828 0.08323796057527506 C 0.0890738434001166 0.08331463016350674 0.08839152278785675 0.08350743260506237 0.08849994995935555 0.08350743260506237 C 0.08839152278785675 0.08350743260506237 0.08777271734213113 0.08316129098704339 0.0878493869303628 0.08323796057527506 C 0.08777271734213113 0.08316129098704339 0.0875799149005755 0.08247897037478352 0.0875799149005755 0.08258739754628232 C 0.0875799149005755 0.08247897037478352 0.08793671273646743 0.08177917767322343 0.0878493869303628 0.08193683451728959 C 0.08793671273646743 0.08177917767322343 0.08873625174532987 0.08069551541748836 0.08862782457383107 0.08069551541748836 C 0.08873625174532987 0.08069551541748836 0.08921652635870699 0.08209449136135574 0.08915051298834828 0.08193683451728959 Z" fill="#cccccc" stroke="#000000" stroke-width="0.001"/>
</g><g transform="translate(0.3313525721880054,0.2843387524649228) rotate(0) scale(1,1) translate(-0.08849994995935555,-0.083180731644454)"><path d="M 0.08915051298834828 0.08193683451728959 C 0.08918455770508811 0.0821072788228033 0.08941998501813558 0.08269582471778111 0.08941998501813558 0.08258739754628232 C 0.08941998501813558 0.08269582471778111 0.0890738434001166 0.08331463016350674 0.08915051298834828 0.08323796057527506 C 0.0890738434001166 0.08331463016350674 0.08839152278785675 0.08350743260506237 0.08849994995935555 0.08350743260506237 C 0.08839152278785675 0.08350743260506237 0.08777271734213113 0.08316129098704339 0.0878493869303628 0.08323796057527506 C 0.08777271734213113 0.08316129098704339 0.0875799149005755 0.08247897037478352 0.0875799149005755 0.08258739754628232 C 0.0875799149005755 0.08247897037478352 0.08796868139008632 0.08176639021177587 0.0878493869303628 0.08193683451728959 C 0.08796868139008632 0.08176639021177587 0.08911987558875642 0.08054206588011772 0.08901144841725762 0.08054206588011772 C 0.08911987558875642 0.08054206588011772 0.08918455770508811 0.0821072788228033 0.08915051298834828 0.08193683451728959 Z" fill="#cccccc" stroke="#000000" stroke-width="0.001"/>
</g><g transform="translate(0.3375154447305253,0.28655787862179877) rotate(0) scale(1,1) translate(-0.08849994995935555,-0.083180731644454)"><path d="M 0.08915051298834828 0.08193683451728959 C 0.08922505133300536 0.08209449136135576 0.08941998501813558 0.08269582471778111 0.08941998501813558 0.08258739754628232 C 0.08941998501813558 0.08269582471778111 0.0890738434001166 0.08331463016350674 0.08915051298834828 0.08323796057527506 C 0.0890738434001166 0.08331463016350674 0.08839152278785675 0.08350743260506237 0.08849994995935555 0.08350743260506237 C 0.08839152278785675 0.08350743260506237 0.08777271734213113 0.08316129098704339 0.0878493869303628 0.08323796057527506 C 0.08777271734213113 0.08316129098704339 0.0875799149005755 0.08247897037478352 0.0875799149005755 0.08258739754628232 C 0.0875799149005755 0.08247897037478352 0.08792818776216907 0.08177917767322342 0.0878493869303628 0.08193683451728959 C 0.08792818776216907 0.08177917767322342 0.08863395205374944 0.08069551541748833 0.08852552488225064 0.08069551541748833 C 0.08863395205374944 0.08069551541748833 0.08922505133300536 0.08209449136135576 0.08915051298834828 0.08193683451728959 Z" fill="#cccccc" stroke="#000000" stroke-width="0.001"/>
</g><g transform="translate(0.34038564218020434,0.28778390760900224) rotate(0) scale(1,1) translate(-0.08849994995935555,-0.083180731644454)"><path d="M 0.08915051298834828 0.08193683451728959 C 0.08924423252517669 0.08209875384850493 0.08941998501813558 0.08269582471778111 0.08941998501813558 0.08258739754628232 C 0.08941998501813558 0.08269582471778111 0.0890738434001166 0.08331463016350674 0.08915051298834828 0.08323796057527506 C 0.0890738434001166 0.08331463016350674 0.08839152278785675 0.08350743260506237 0.08849994995935555 0.08350743260506237 C 0.08839152278785675 0.08350743260506237 0.08777271734213113 0.08316129098704339 0.0878493869303628 0.08323796057527506 C 0.08777271734213113 0.08316129098704339 0.0875799149005755 0.08247897037478352 0.0875799149005755 0.08258739754628232 C 0.0875799149005755 0.08247897037478352 0.08790900656999773 0.08177491518607424 0.0878493869303628 0.08193683451728959 C 0.08790900656999773 0.08177491518607424 0.08840377774769348 0.08064436557169813 0.08829535057619468 0.08064436557169813 C 0.08840377774769348 0.08064436557169813 0.08924423252517669 0.08209875384850493 0.08915051298834828 0.08193683451728959 Z" fill="#cccccc" stroke="#000000" stroke-width="0.001"/>
</g><g transform="translate(0.3437840947641089,0.28539489035356813) rotate(0) scale(1,1) translate(-0.08849994995935555,-0.083180731644454)"><path d="M 0.08915051298834828 0.08193683451728959 C 0.0892672793713837 0.08211089472173258 0.08941998501813558 0.08269582471778111 0.08941998501813558 0.08258739754628232 C 0.08941998501813558 0.08269582471778111 0.0890738434001166 0.08331463016350674 0.08915051298834828 0.08323796057527506 C 0.0890738434001166 0.08331463016350674 0.08839152278785675 0.08350743260506237 0.08849994995935555 0.08350743260506237 C 0.08839152278785675 0.08350743260506237 0.08777271734213113 0.08316129098704339 0.0878493869303628 0.08323796057527506 C 0.08777271734213113 0.08316129098704339 0.0875799149005755 0.08247897037478352 0.0875799149005755 0.08258739754628232 C 0.0875799149005755 0.08247897037478352 0.08788595972379072 0.08176277431284659 0.0878493869303628 0.08193683451728959 C 0.08788595972379072 0.08176277431284659 0.08812721559320934 0.08049867509296632 0.08801878842171054 0.08049867509296632 C 0.08812721559320934 0.08049867509296632 0.0892672793713837 0.08211089472173258 0.08915051298834828 0.08193683451728959 Z" fill="#cccccc" stroke="#000000" stroke-width="0.001"/>
</g><g transform="translate(0.3298381522850038,0.2898443645390253) rotate(0) scale(1,1) translate(-0.08849994995935555,-0.083180731644454)"><path d="M 0.08915051298834828 0.08193683451728959 C 0.0891877323699961 0.08212665149388954 0.08941998501813558 0.08269582471778111 0.08941998501813558 0.08258739754628232 C 0.08941998501813558 0.08269582471778111 0.0890738434001166 0.08331463016350674 0.08915051298834828 0.08323796057527506 C 0.0890738434001166 0.08331463016350674 0.08839152278785675 0.08350743260506237 0.08849994995935555 0.08350743260506237 C 0.08839152278785675 0.08350743260506237 0.08777271734213113 0.08316129098704339 0.0878493869303628 0.08323796057527506 C 0.08777271734213113 0.08316129098704339 0.0875799149005755 0.08247897037478352 0.0875799149005755 0.08258739754628232 C 0.0875799149005755 0.08247897037478352 0.08796550672517833 0.08174701754068964 0.0878493869303628 0.08193683451728959 C 0.08796550672517833 0.08174701754068964 0.08908177960986059 0.08030959382708297 0.0889733524383618 0.08030959382708297 C 0.08908177960986059 0.08030959382708297 0.0891877323699961 0.08212665149388954 0.08915051298834828 0.08193683451728959 Z" fill="#cccccc" stroke="#000000" stroke-width="0.001"/>
</g><g transform="translate(0.33366300266371995,0.29574276556619505) rotate(0) scale(1,1) translate(-0.08849994995935555,-0.083180731644454)"><path d="M 0.08915051298834828 0.08193683451728959 C 0.08919387634561347 0.08215222641678463 0.08941998501813558 0.08269582471778111 0.08941998501813558 0.08258739754628232 C 0.08941998501813558 0.08269582471778111 0.0890738434001166 0.08331463016350674 0.08915051298834828 0.08323796057527506 C 0.0890738434001166 0.08331463016350674 0.08839152278785675 0.08350743260506237 0.08849994995935555 0.08350743260506237 C 0.08839152278785675 0.08350743260506237 0.08777271734213113 0.08316129098704339 0.0878493869303628 0.08323796057527506 C 0.08777271734213113 0.08316129098704339 0.0875799149005755 0.08247897037478352 0.0875799149005755 0.08258739754628232 C 0.0875799149005755 0.08247897037478352 0.08795936274956094 0.08172144261779454 0.0878493869303628 0.08193683451728959 C 0.08795936274956094 0.08172144261779454 0.08900805190245202 0.08000269475234176 0.08889962473095323 0.08000269475234176 C 0.08900805190245202 0.08000269475234176 0.08919387634561347 0.08215222641678463 0.08915051298834828 0.08193683451728959 Z" fill="#cccccc" stroke="#000000" stroke-width="0.001"/>
</g><g transform="translate(0.3351632382595013,0.2904311074832655) rotate(0) scale(1,1) translate(-0.08849994995935555,-0.083180731644454)"><path d="M 0.08915051298834828 0.08193683451728959 C 0.0892130575377848 0.08212437317230784 0.08941998501813558 0.08269582471778111 0.08941998501813558 0.08258739754628232 C 0.08941998501813558 0.08269582471778111 0.0890738434001166 0.08331463016350674 0.08915051298834828 0.08323796057527506 C 0.0890738434001166 0.08331463016350674 0.08839152278785675 0.08350743260506237 0.08849994995935555 0.08350743260506237 C 0.08839152278785675 0.08350743260506237 0.08777271734213113 0.08316129098704339 0.0878493869303628 0.08323796057527506 C 0.08777271734213113 0.08316129098704339 0.0875799149005755 0.08247897037478352 0.0875799149005755 0.08258739754628232 C 0.0875799149005755 0.08247897037478352 0.08794018155738963 0.08174929586227134 0.0878493869303628 0.08193683451728959 C 0.08794018155738963 0.08174929586227134 0.08877787759639613 0.08033693368606326 0.08866945042489734 0.08033693368606326 C 0.08877787759639613 0.08033693368606326 0.0892130575377848 0.08212437317230784 0.08915051298834828 0.08193683451728959 Z" fill="#cccccc" stroke="#000000" stroke-width="0.001"/>
</g><g transform="translate(0.338813209773549,0.2996952967111512) rotate(0) scale(1,1) translate(-0.08849994995935555,-0.083180731644454)"><path d="M 0.08915051298834828 0.08193683451728959 C 0.08923852978358061 0.08217324469651635 0.08941998501813558 0.08269582471778111 0.08941998501813558 0.08258739754628232 C 0.08941998501813558 0.08269582471778111 0.0890738434001166 0.08331463016350674 0.08915051298834828 0.08323796057527506 C 0.0890738434001166 0.08331463016350674 0.08839152278785675 0.08350743260506237 0.08849994995935555 0.08350743260506237 C 0.08839152278785675 0.08350743260506237 0.08777271734213113 0.08316129098704339 0.0878493869303628 0.08323796057527506 C 0.08777271734213113 0.08316129098704339 0.0875799149005755 0.08247897037478352 0.0875799149005755 0.08258739754628232 C 0.0875799149005755 0.08247897037478352 0.08791470931159381 0.08170042433806282 0.0878493869303628 0.08193683451728959 C 0.08791470931159381 0.08170042433806282 0.08847221064684642 0.0797504753955611 0.08836378347534762 0.0797504753955611 C 0.08847221064684642 0.0797504753955611 0.08923852978358061 0.08217324469651635 0.08915051298834828 0.08193683451728959 Z" fill="#cccccc" stroke="#000000" stroke-width="0.001"/>
</g><g transform="translate(0.3402002042218578,0.29334906525788135) rotate(0) scale(1,1) translate(-0.08849994995935555,-0.083180731644454)"><path d="M 0.08915051298834828 0.08193683451728959 C 0.08925850464197893 0.08212238900674035 0.08941998501813558 0.08269582471778111 0.08941998501813558 0.08258739754628232 C 0.08941998501813558 0.08269582471778111 0.0890738434001166 0.08331463016350674 0.08915051298834828 0.08323796057527506 C 0.0890738434001166 0.08331463016350674 0.08839152278785675 0.08350743260506237 0.08849994995935555 0.08350743260506237 C 0.08839152278785675 0.08350743260506237 0.08777271734213113 0.08316129098704339 0.0878493869303628 0.08323796057527506 C 0.08777271734213113 0.08316129098704339 0.0875799149005755 0.08247897037478352 0.0875799149005755 0.08258739754628232 C 0.0875799149005755 0.08247897037478352 0.08789473445319548 0.08175128002783882 0.0878493869303628 0.08193683451728959 C 0.08789473445319548 0.08175128002783882 0.08823251234606654 0.08036074367287316 0.08812408517456774 0.08036074367287316 C 0.08823251234606654 0.08036074367287316 0.08925850464197893 0.08212238900674035 0.08915051298834828 0.08193683451728959 Z" fill="#cccccc" stroke="#000000" stroke-width="0.001"/>
</g><g transform="translate(0.34423615716347716,0.2923264137313209) rotate(0) scale(1,1) translate(-0.08849994995935555,-0.083180731644454)"><path d="M 0.08915051298834828 0.08193683451728959 C 0.08924812759481379 0.08211600970631161 0.08941998501813558 0.08269582471778111 0.08941998501813558 0.08258739754628232 C 0.08941998501813558 0.08269582471778111 0.0890738434001166 0.08331463016350674 0.08915051298834828 0.08323796057527506 C 0.0890738434001166 0.08331463016350674 0.08839152278785675 0.08350743260506237 0.08849994995935555 0.08350743260506237 C 0.08839152278785675 0.08350743260506237 0.08777271734213113 0.08316129098704339 0.0878493869303628 0.08323796057527506 C 0.08777271734213113 0.08316129098704339 0.0875799149005755 0.08247897037478352 0.0875799149005755 0.08258739754628232 C 0.0875799149005755 0.08247897037478352 0.08790511150036064 0.08175765932826756 0.0878493869303628 0.08193683451728959 C 0.08790511150036064 0.08175765932826756 0.08835703691204823 0.08043729527801802 0.08824860974054943 0.08043729527801802 C 0.08835703691204823 0.08043729527801802 0.08924812759481379 0.08211600970631161 0.08915051298834828 0.08193683451728959 Z" fill="#cccccc" stroke="#000000" stroke-width="0.001"/>
</g></svg>
