<?xml version="1.0" encoding="UTF-8"?>
<svg xmlns="http://www.w3.org/2000/svg" viewBox="0 0 1 1">
<g transform="translate(0.3373434528286706,0.2649004817027368) rotate(0) scale(1,1) translate(-0.01998441619478862,-0.00887311800743398)"><path d="M 0.030078515125403976 0.04272480829006169 C 0.030078515125403976 0.0531553771850309 0.016619716551250167 0.0740165149749693 0.01998441619478862 0.0740165149749693 C 0.016619716551250167 0.0740165149749693 0.009890317264173257 0.0322942393950925 0.009890317264173259 0.04272480829006171 C 0.009890317264173257 0.0322942393950925 0.023349115838327068 0.011433101605154079 0.019984416194788614 0.01143310160515408 C 0.023349115838327068 0.011433101605154079 0.030078515125403976 0.0531553771850309 0.030078515125403976 0.04272480829006169 Z" fill="#cccccc" stroke="none" stroke-width="0"/>
</g><g transform="translate(0.3374325306223775,0.2717298081942394) rotate(0) scale(1,1) translate(-0.08849994995935555,-0.083180731644454)"><path d="M 0.08915051298834828 0.08193683451728959 C 0.08923621233264355 0.08213307994245887 0.08941998501813558 0.08269582471778111 0.08941998501813558 0.08258739754628232 C 0.08941998501813558 0.08269582471778111 0.0890738434001166 0.08331463016350674 0.08915051298834828 0.08323796057527506 C 0.0890738434001166 0.08331463016350674 0.08839152278785675 0.08350743260506237 0.08849994995935555 0.08350743260506237 C 0.08839152278785675 0.08350743260506237 0.08777271734213113 0.08316129098704339 0.0878493869303628 0.08323796057527506 C 0.08777271734213113 0.08316129098704339 0.0875799149005755 0.08247897037478352 0.0875799149005755 0.08258739754628232 C 0.0875799149005755 0.08247897037478352 0.08791702676253088 0.0817405890921203 0.0878493869303628 0.08193683451728959 C 0.08791702676253088 0.0817405890921203 0.08850002005809116 0.0802324524442509 0.08839159288659236 0.0802324524442509 C 0.08850002005809116 0.0802324524442509 0.08923621233264355 0.08213307994245887 0.08915051298834828 0.08193683451728959 Z" fill="#cccccc" stroke="#000000" stroke-width="0.001"/>
</g><g transform="translate(0.3389210137647965,0.2776216955860378) rotate(0) scale(1,1) translate(-0.08849994995935555,-0.083180731644454)"><path d="M 0.08915051298834828 0.08193683451728959 C 0.0892676762044972 0.08208596638705738 0.08941998501813558 0.08269582471778111 0.08941998501813558 0.08258739754628232 C 0.08941998501813558 0.08269582471778111 0.0890738434001166 0.08331463016350674 0.08915051298834828 0.08323796057527506 C 0.0890738434001166 0.08331463016350674 0.08839152278785675 0.08350743260506237 0.08849994995935555 0.08350743260506237 C 0.08839152278785675 0.08350743260506237 0.08777271734213113 0.08316129098704339 0.0878493869303628 0.08323796057527506 C 0.08777271734213113 0.08316129098704339 0.0875799149005755 0.08247897037478352 0.0875799149005755 0.08258739754628232 C 0.0875799149005755 0.08247897037478352 0.08788556289067723 0.08178770264752179 0.0878493869303628 0.08193683451728959 C 0.08788556289067723 0.08178770264752179 0.08812245359584732 0.08079781510906876 0.08801402642434852 0.08079781510906876 C 0.08812245359584732 0.08079781510906876 0.0892676762044972 0.08208596638705738 0.08915051298834828 0.08193683451728959 Z" fill="#cccccc" stroke="#000000" stroke-width="0.001"/>
</g><g transform="translate(0.3350560626426642,0.2757759411278706) rotate(0) scale(1,1) translate(-0.08849994995935555,-0.083180731644454)"><path d="M 0.08915051298834828 0.08193683451728959 C 0.08920160765368484 0.08209662260493035 0.08941998501813558 0.08269582471778111 0.08941998501813558 0.08258739754628232 C 0.08941998501813558 0.08269582471778111 0.0890738434001166 0.08331463016350674 0.08915051298834828 0.08323796057527506 C 0.0890738434001166 0.08331463016350674 0.08839152278785675 0.08350743260506237 0.08849994995935555 0.08350743260506237 C 0.08839152278785675 0.08350743260506237 0.08777271734213113 0.08316129098704339 0.0878493869303628 0.08323796057527506 C 0.08777271734213113 0.08316129098704339 0.0875799149005755 0.08247897037478352 0.0875799149005755 0.08258739754628232 C 0.0875799149005755 0.08247897037478352 0.08795163144148958 0.08177704642964882 0.0878493869303628 0.08193683451728959 C 0.08795163144148958 0.08177704642964882 0.08891527620559561 0.08066994049459322 0.08880684903409682 0.08066994049459322 C 0.08891527620559561 0.08066994049459322 0.08920160765368484 0.08209662260493035 0.08915051298834828 0.08193683451728959 Z" fill="#cccccc" stroke="#000000" stroke-width="0.001"/>
</g><g transform="translate(0.3421723584463975,0.28087030920198497) rotate(0) scale(1,1) translate(-0.08849994995935555,-0.083180731644454)"><path d="M 0.08915051298834828 0.08193683451728959 C 0.08927193869164637 0.08209236011778116 0.08941998501813558 0.08269582471778111 0.08941998501813558 0.08258739754628232 C 0.08941998501813558 0.08269582471778111 0.0890738434001166 0.08331463016350674 0.08915051298834828 0.08323796057527506 C 0.0890738434001166 0.08331463016350674 0.08839152278785675 0.08350743260506237 0.08849994995935555 0.08350743260506237 C 0.08839152278785675 0.08350743260506237 0.08777271734213113 0.08316129098704339 0.0878493869303628 0.08323796057527506 C 0.08777271734213113 0.08316129098704339 0.0875799149005755 0.08247897037478352 0.0875799149005755 0.08258739754628232 C 0.0875799149005755 0.08247897037478352 0.08788130040352804 0.08178130891679801 0.0878493869303628 0.08193683451728959 C 0.08788130040352804 0.08178130891679801 0.08807130375005717 0.08072109034038347 0.08796287657855838 0.08072109034038347 C 0.08807130375005717 0.08072109034038347 0.08927193869164637 0.08209236011778116 0.08915051298834828 0.08193683451728959 Z" fill="#cccccc" stroke="#000000" stroke-width="0.001"/>
</g><g transform="translate(0.33281252181116466,0.2801653718226018) rotate(0) scale(1,1) translate(-0.08849994995935555,-0.083180731644454)"><path d="M 0.08915051298834828 0.08193683451728959 C 0.08919308267938647 0.0820795726563336 0.08941998501813558 0.08269582471778111 0.08941998501813558 0.08258739754628232 C 0.08941998501813558 0.08269582471778111 0.0890738434001166 0.08331463016350674 0.08915051298834828 0.08323796057527506 C 0.0890738434001166 0.08331463016350674 0.08839152278785675 0.08350743260506237 0.08849994995935555 0.08350743260506237 C 0.08839152278785675 0.08350743260506237 0.08777271734213113 0.08316129098704339 0.0878493869303628 0.08323796057527506 C 0.08777271734213113 0.08316129098704339 0.0875799149005755 0.08247897037478352 0.0875799149005755 0.08258739754628232 C 0.0875799149005755 0.08247897037478352 0.08796015641578794 0.08179409637824557 0.0878493869303628 0.08193683451728959 C 0.08796015641578794 0.08179409637824557 0.089017575897176 0.08087453987775406 0.0889091487256772 0.08087453987775406 C 0.089017575897176 0.08087453987775406 0.08919308267938647 0.0820795726563336 0.08915051298834828 0.08193683451728959 Z" fill="#cccccc" stroke="#000000" stroke-width="0.001"/>
</g><g transform="translate(0.3403527795693313,0.2847370919515047) rotate(0) scale(1,1) translate(-0.08849994995935555,-0.083180731644454)"><path d="M 0.08915051298834828 0.08193683451728959 C 0.08927406993522097 0.0821072788228033 0.08941998501813558 0.08269582471778111 0.08941998501813558 0.08258739754628232 C 0.08941998501813558 0.08269582471778111 0.0890738434001166 0.08331463016350674 0.08915051298834828 0.08323796057527506 C 0.0890738434001166 0.08331463016350674 0.08839152278785675 0.08350743260506237 0.08849994995935555 0.08350743260506237 C 0.08839152278785675 0.08350743260506237 0.08777271734213113 0.08316129098704339 0.0878493869303628 0.08323796057527506 C 0.08777271734213113 0.08316129098704339 0.0875799149005755 0.08247897037478352 0.0875799149005755 0.08258739754628232 C 0.0875799149005755 0.08247897037478352 0.08787916915995345 0.08176639021177587 0.0878493869303628 0.08193683451728959 C 0.08787916915995345 0.08176639021177587 0.08804572882716206 0.08054206588011775 0.08793730165566327 0.08054206588011775 C 0.08804572882716206 0.08054206588011775 0.08927406993522097 0.0821072788228033 0.08915051298834828 0.08193683451728959 Z" fill="#cccccc" stroke="#000000" stroke-width="0.001"/>
</g><g transform="translate(0.3354503659862078,0.283951883867155) rotate(0) scale(1,1) translate(-0.08849994995935555,-0.083180731644454)"><path d="M 0.08915051298834828 0.08193683451728959 C 0.08922931382015455 0.08208383514348279 0.08941998501813558 0.08269582471778111 0.08941998501813558 0.08258739754628232 C 0.08941998501813558 0.08269582471778111 0.0890738434001166 0.08331463016350674 0.08915051298834828 0.08323796057527506 C 0.0890738434001166 0.08331463016350674 0.08839152278785675 0.08350743260506237 0.08849994995935555 0.08350743260506237 C 0.08839152278785675 0.08350743260506237 0.08777271734213113 0.08316129098704339 0.0878493869303628 0.08323796057527506 C 0.08777271734213113 0.08316129098704339 0.0875799149005755 0.08247897037478352 0.0875799149005755 0.08258739754628232 C 0.0875799149005755 0.08247897037478352 0.08792392527501988 0.08178983389109638 0.0878493869303628 0.08193683451728959 C 0.08792392527501988 0.08178983389109638 0.08858280220795924 0.08082339003196386 0.08847437503646044 0.08082339003196386 C 0.08858280220795924 0.08082339003196386 0.08922931382015455 0.08208383514348279 0.08915051298834828 0.08193683451728959 Z" fill="#cccccc" stroke="#000000" stroke-width="0.001"/>
</g><g transform="translate(0.33097373663657137,0.2848140968485808) rotate(0) scale(1,1) translate(-0.08849994995935555,-0.083180731644454)"><path d="M 0.08915051298834828 0.08193683451728959 C 0.08920373889725944 0.08207744141275902 0.08941998501813558 0.08269582471778111 0.08941998501813558 0.08258739754628232 C 0.08941998501813558 0.08269582471778111 0.0890738434001166 0.08331463016350674 0.08915051298834828 0.08323796057527506 C 0.0890738434001166 0.08331463016350674 0.08839152278785675 0.08350743260506237 0.08849994995935555 0.08350743260506237 C 0.08839152278785675 0.08350743260506237 0.08777271734213113 0.08316129098704339 0.0878493869303628 0.08323796057527506 C 0.08777271734213113 0.08316129098704339 0.0875799149005755 0.08247897037478352 0.0875799149005755 0.08258739754628232 C 0.0875799149005755 0.08247897037478352 0.08794950019791499 0.08179622762182015 0.0878493869303628 0.08193683451728959 C 0.08794950019791499 0.08179622762182015 0.08888970128270049 0.08090011480064917 0.0887812741112017 0.08090011480064917 C 0.08888970128270049 0.08090011480064917 0.08920373889725944 0.08207744141275902 0.08915051298834828 0.08193683451728959 Z" fill="#cccccc" stroke="#000000" stroke-width="0.001"/>
</g><g transform="translate(0.3425974647944296,0.28766030362735245) rotate(0) scale(1,1) translate(-0.08849994995935555,-0.083180731644454)"><path d="M 0.08915051298834828 0.08193683451728959 C 0.08925062625590047 0.08207317892560984 0.08941998501813558 0.08269582471778111 0.08941998501813558 0.08258739754628232 C 0.08941998501813558 0.08269582471778111 0.0890738434001166 0.08331463016350674 0.08915051298834828 0.08323796057527506 C 0.0890738434001166 0.08331463016350674 0.08839152278785675 0.08350743260506237 0.08849994995935555 0.08350743260506237 C 0.08839152278785675 0.08350743260506237 0.08777271734213113 0.08316129098704339 0.0878493869303628 0.08323796057527506 C 0.08777271734213113 0.08316129098704339 0.0875799149005755 0.08247897037478352 0.0875799149005755 0.08258739754628232 C 0.0875799149005755 0.08247897037478352 0.08790261283927396 0.08180049010896934 0.0878493869303628 0.08193683451728959 C 0.08790261283927396 0.08180049010896934 0.08832705297900817 0.08095126464643937 0.08821862580750937 0.08095126464643937 C 0.08832705297900817 0.08095126464643937 0.08925062625590047 0.08207317892560984 0.08915051298834828 0.08193683451728959 Z" fill="#cccccc" stroke="#000000" stroke-width="0.001"/>
</g><g transform="translate(0.3342944652209467,0.2904600437259686) rotate(0) scale(1,1) translate(-0.08849994995935555,-0.083180731644454)"><path d="M 0.08915051298834828 0.08193683451728959 C 0.08921652635870699 0.08209449136135574 0.08941998501813558 0.08269582471778111 0.08941998501813558 0.08258739754628232 C 0.08941998501813558 0.08269582471778111 0.0890738434001166 0.08331463016350674 0.08915051298834828 0.08323796057527506 C 0.0890738434001166 0.08331463016350674 0.08839152278785675 0.08350743260506237 0.08849994995935555 0.08350743260506237 C 0.08839152278785675 0.08350743260506237 0.08777271734213113 0.08316129098704339 0.0878493869303628 0.08323796057527506 C 0.08777271734213113 0.08316129098704339 0.0875799149005755 0.08247897037478352 0.0875799149005755 0.08258739754628232 C 0.0875799149005755 0.08247897037478352 0.08793671273646743 0.08177917767322343 0.0878493869303628 0.08193683451728959 C 0.08793671273646743 0.08177917767322343 0.08873625174532987 0.08069551541748836 0.08862782457383107 0.08069551541748836 C 0.08873625174532987 0.08069551541748836 0.08921652635870699 0.08209449136135574 0.08915051298834828 0.08193683451728959 Z" fill="#cccccc" stroke="#000000" stroke-width="0.001"/>
</g><g transform="translate(0.32947593206570697,0.28989136803380705) rotate(0) scale(1,1) translate(-0.08849994995935555,-0.083180731644454)"><path d="M 0.08915051298834828 0.08193683451728959 C 0.08918455770508811 0.0821072788228033 0.08941998501813558 0.08269582471778111 0.08941998501813558 0.08258739754628232 C 0.08941998501813558 0.08269582471778111 0.0890738434001166 0.08331463016350674 0.08915051298834828 0.08323796057527506 C 0.0890738434001166 0.08331463016350674 0.08839152278785675 0.08350743260506237 0.08849994995935555 0.08350743260506237 C 0.08839152278785675 0.08350743260506237 0.08777271734213113 0.08316129098704339 0.0878493869303628 0.08323796057527506 C 0.08777271734213113 0.08316129098704339 0.0875799149005755 0.08247897037478352 0.0875799149005755 0.08258739754628232 C 0.0875799149005755 0.08247897037478352 0.08796868139008632 0.08176639021177587 0.0878493869303628 0.08193683451728959 C 0.08796868139008632 0.08176639021177587 0.08911987558875642 0.08054206588011772 0.08901144841725762 0.08054206588011772 C 0.08911987558875642 0.08054206588011772 0.08918455770508811 0.0821072788228033 0.08915051298834828 0.08193683451728959 Z" fill="#cccccc" stroke="#000000" stroke-width="0.001"/>
</g><g transform="translate(0.33805913696002127,0.2933234563635328) rotate(0) scale(1,1) translate(-0.08849994995935555,-0.083180731644454)"><path d="M 0.08915051298834828 0.08193683451728959 C 0.08922505133300536 0.08209449136135576 0.08941998501813558 0.08269582471778111 0.08941998501813558 0.08258739754628232 C 0.08941998501813558 0.08269582471778111 0.0890738434001166 0.08331463016350674 0.08915051298834828 0.08323796057527506 C 0.0890738434001166 0.08331463016350674 0.08839152278785675 0.08350743260506237 0.08849994995935555 0.08350743260506237 C 0.08839152278785675 0.08350743260506237 0.08777271734213113 0.08316129098704339 0.0878493869303628 0.08323796057527506 C 0.08777271734213113 0.08316129098704339 0.0875799149005755 0.08247897037478352 0.0875799149005755 0.08258739754628232 C 0.0875799149005755 0.08247897037478352 0.08792818776216907 0.08177917767322342 0.0878493869303628 0.08193683451728959 C 0.08792818776216907 0.08177917767322342 0.08863395205374944 0.08069551541748833 0.08852552488225064 0.08069551541748833 C 0.08863395205374944 0.08069551541748833 0.08922505133300536 0.08209449136135576 0.08915051298834828 0.08193683451728959 Z" fill="#cccccc" stroke="#000000" stroke-width="0.001"/>
</g><g transform="translate(0.3416679339031993,0.2952601201100395) rotate(0) scale(1,1) translate(-0.08849994995935555,-0.083180731644454)"><path d="M 0.08915051298834828 0.08193683451728959 C 0.08924423252517669 0.08209875384850493 0.08941998501813558 0.08269582471778111 0.08941998501813558 0.08258739754628232 C 0.08941998501813558 0.08269582471778111 0.0890738434001166 0.08331463016350674 0.08915051298834828 0.08323796057527506 C 0.0890738434001166 0.08331463016350674 0.08839152278785675 0.08350743260506237 0.08849994995935555 0.08350743260506237 C 0.08839152278785675 0.08350743260506237 0.08777271734213113 0.08316129098704339 0.0878493869303628 0.08323796057527506 C 0.08777271734213113 0.08316129098704339 0.0875799149005755 0.08247897037478352 0.0875799149005755 0.08258739754628232 C 0.0875799149005755 0.08247897037478352 0.08790900656999773 0.08177491518607424 0.0878493869303628 0.08193683451728959 C 0.08790900656999773 0.08177491518607424 0.08840377774769348 0.08064436557169813 0.08829535057619468 0.08064436557169813 C 0.08840377774769348 0.08064436557169813 0.08924423252517669 0.08209875384850493 0.08915051298834828 0.08193683451728959 Z" fill="#cccccc" stroke="#000000" stroke-width="0.001"/>
</g><g transform="translate(0.345893486416898,0.29127320970790804) rotate(0) scale(1,1) translate(-0.08849994995935555,-0.083180731644454)"><path d="M 0.08915051298834828 0.08193683451728959 C 0.08926814657661425 0.08211696515834642 0.08941998501813558 0.08269582471778111 0.08941998501813558 0.08258739754628232 C 0.08941998501813558 0.08269582471778111 0.0890738434001166 0.08331463016350674 0.08915051298834828 0.08323796057527506 C 0.0890738434001166 0.08331463016350674 0.08839152278785675 0.08350743260506237 0.08849994995935555 0.08350743260506237 C 0.08839152278785675 0.08350743260506237 0.08777271734213113 0.08316129098704339 0.0878493869303628 0.08323796057527506 C 0.08777271734213113 0.08316129098704339 0.0875799149005755 0.08247897037478352 0.0875799149005755 0.08258739754628232 C 0.0875799149005755 0.08247897037478352 0.08788509251856018 0.08175670387623275 0.0878493869303628 0.08193683451728959 C 0.08788509251856018 0.08175670387623275 0.08811680913044277 0.08042582985360039 0.08800838195894398 0.08042582985360039 C 0.08811680913044277 0.08042582985360039 0.08926814657661425 0.08211696515834642 0.08915051298834828 0.08193683451728959 Z" fill="#cccccc" stroke="#000000" stroke-width="0.001"/>
</g><g transform="translate(0.3269457123132345,0.2974141658891065) rotate(0) scale(1,1) translate(-0.08849994995935555,-0.083180731644454)"><path d="M 0.08915051298834828 0.08193683451728959 C 0.08918079472815171 0.08214486280373101 0.08941998501813558 0.08269582471778111 0.08941998501813558 0.08258739754628232 C 0.08941998501813558 0.08269582471778111 0.0890738434001166 0.08331463016350674 0.08915051298834828 0.08323796057527506 C 0.0890738434001166 0.08331463016350674 0.08839152278785675 0.08350743260506237 0.08849994995935555 0.08350743260506237 C 0.08839152278785675 0.08350743260506237 0.08777271734213113 0.08316129098704339 0.0878493869303628 0.08323796057527506 C 0.08777271734213113 0.08316129098704339 0.0875799149005755 0.08247897037478352 0.0875799149005755 0.08258739754628232 C 0.0875799149005755 0.08247897037478352 0.0879724443670227 0.08172880623084816 0.0878493869303628 0.08193683451728959 C 0.0879724443670227 0.08172880623084816 0.08916503131199309 0.08009105810898516 0.0890566041404943 0.08009105810898516 C 0.08916503131199309 0.08009105810898516 0.08918079472815171 0.08214486280373101 0.08915051298834828 0.08193683451728959 Z" fill="#cccccc" stroke="#000000" stroke-width="0.001"/>
</g><g transform="translate(0.33222333694651013,0.3057140455372095) rotate(0) scale(1,1) translate(-0.08849994995935555,-0.083180731644454)"><path d="M 0.08915051298834828 0.08193683451728959 C 0.08919214193515237 0.08217043772662612 0.08941998501813558 0.08269582471778111 0.08941998501813558 0.08258739754628232 C 0.08941998501813558 0.08269582471778111 0.0890738434001166 0.08331463016350674 0.08915051298834828 0.08323796057527506 C 0.0890738434001166 0.08331463016350674 0.08839152278785675 0.08350743260506237 0.08849994995935555 0.08350743260506237 C 0.08839152278785675 0.08350743260506237 0.08777271734213113 0.08316129098704339 0.0878493869303628 0.08323796057527506 C 0.08777271734213113 0.08316129098704339 0.0875799149005755 0.08247897037478352 0.0875799149005755 0.08258739754628232 C 0.0875799149005755 0.08247897037478352 0.08796109716002204 0.08170323130795305 0.0878493869303628 0.08193683451728959 C 0.08796109716002204 0.08170323130795305 0.08902886482798515 0.07978415903424395 0.08892043765648636 0.07978415903424395 C 0.08902886482798515 0.07978415903424395 0.08919214193515237 0.08217043772662612 0.08915051298834828 0.08193683451728959 Z" fill="#cccccc" stroke="#000000" stroke-width="0.001"/>
</g><g transform="translate(0.33422281551006894,0.2985917514882634) rotate(0) scale(1,1) translate(-0.08849994995935555,-0.083180731644454)"><path d="M 0.08915051298834828 0.08193683451728959 C 0.0892113231273237 0.08213824845599658 0.08941998501813558 0.08269582471778111 0.08941998501813558 0.08258739754628232 C 0.08941998501813558 0.08269582471778111 0.0890738434001166 0.08331463016350674 0.08915051298834828 0.08323796057527506 C 0.0890738434001166 0.08331463016350674 0.08839152278785675 0.08350743260506237 0.08849994995935555 0.08350743260506237 C 0.08839152278785675 0.08350743260506237 0.08777271734213113 0.08316129098704339 0.0878493869303628 0.08323796057527506 C 0.08777271734213113 0.08316129098704339 0.0875799149005755 0.08247897037478352 0.0875799149005755 0.08258739754628232 C 0.0875799149005755 0.08247897037478352 0.08794191596785071 0.08173542057858259 0.0878493869303628 0.08193683451728959 C 0.08794191596785071 0.08173542057858259 0.08879869052192925 0.08017043028179827 0.08869026335043045 0.08017043028179827 C 0.08879869052192925 0.08017043028179827 0.0892113231273237 0.08213824845599658 0.08915051298834828 0.08193683451728959 Z" fill="#cccccc" stroke="#000000" stroke-width="0.001"/>
</g><g transform="translate(0.3393401361230669,0.3112723235780865) rotate(0) scale(1,1) translate(-0.08849994995935555,-0.083180731644454)"><path d="M 0.08915051298834828 0.08193683451728959 C 0.08924633463065554 0.08218278395405237 0.08941998501813558 0.08269582471778111 0.08941998501813558 0.08258739754628232 C 0.08941998501813558 0.08269582471778111 0.0890738434001166 0.08331463016350674 0.08915051298834828 0.08323796057527506 C 0.0890738434001166 0.08331463016350674 0.08839152278785675 0.08350743260506237 0.08849994995935555 0.08350743260506237 C 0.08839152278785675 0.08350743260506237 0.08777271734213113 0.08316129098704339 0.0878493869303628 0.08323796057527506 C 0.08777271734213113 0.08316129098704339 0.0875799149005755 0.08247897037478352 0.0875799149005755 0.08258739754628232 C 0.0875799149005755 0.08247897037478352 0.08790690446451889 0.0816908850805268 0.0878493869303628 0.08193683451728959 C 0.08790690446451889 0.0816908850805268 0.08837855248194736 0.07963600430512892 0.08827012531044856 0.07963600430512892 C 0.08837855248194736 0.07963600430512892 0.08924633463065554 0.08218278395405237 0.08915051298834828 0.08193683451728959 Z" fill="#cccccc" stroke="#000000" stroke-width="0.001"/>
</g><g transform="translate(0.34108599937442863,0.30292460531374843) rotate(0) scale(1,1) translate(-0.08849994995935555,-0.083180731644454)"><path d="M 0.08915051298834828 0.08193683451728959 C 0.08926457507859276 0.08214060031658184 0.08941998501813558 0.08269582471778111 0.08941998501813558 0.08258739754628232 C 0.08941998501813558 0.08269582471778111 0.0890738434001166 0.08331463016350674 0.08915051298834828 0.08323796057527506 C 0.0890738434001166 0.08331463016350674 0.08839152278785675 0.08350743260506237 0.08849994995935555 0.08350743260506237 C 0.08839152278785675 0.08350743260506237 0.08777271734213113 0.08316129098704339 0.0878493869303628 0.08323796057527506 C 0.08777271734213113 0.08316129098704339 0.0875799149005755 0.08247897037478352 0.0875799149005755 0.08258739754628232 C 0.0875799149005755 0.08247897037478352 0.08788866401658166 0.08173306871799733 0.0878493869303628 0.08193683451728959 C 0.08788866401658166 0.08173306871799733 0.0881596671067006 0.08014220795477536 0.08805123993520181 0.08014220795477536 C 0.0881596671067006 0.08014220795477536 0.08926457507859276 0.08214060031658184 0.08915051298834828 0.08193683451728959 Z" fill="#cccccc" stroke="#000000" stroke-width="0.001"/>
</g><g transform="translate(0.34703495775778387,0.3008632763779668) rotate(0) scale(1,1) translate(-0.08849994995935555,-0.083180731644454)"><path d="M 0.08915051298834828 0.08193683451728959 C 0.08925433761678153 0.08212463763521495 0.08941998501813558 0.08269582471778111 0.08941998501813558 0.08258739754628232 C 0.08941998501813558 0.08269582471778111 0.0890738434001166 0.08331463016350674 0.08915051298834828 0.08323796057527506 C 0.0890738434001166 0.08331463016350674 0.08839152278785675 0.08350743260506237 0.08849994995935555 0.08350743260506237 C 0.08839152278785675 0.08350743260506237 0.08777271734213113 0.08316129098704339 0.0878493869303628 0.08323796057527506 C 0.08777271734213113 0.08316129098704339 0.0875799149005755 0.08247897037478352 0.0875799149005755 0.08258739754628232 C 0.0875799149005755 0.08247897037478352 0.0878989014783929 0.08174903139936422 0.0878493869303628 0.08193683451728959 C 0.0878989014783929 0.08174903139936422 0.08828251664843538 0.08033376013117796 0.08817408947693658 0.08033376013117796 C 0.08828251664843538 0.08033376013117796 0.08925433761678153 0.08212463763521495 0.08915051298834828 0.08193683451728959 Z" fill="#cccccc" stroke="#000000" stroke-width="0.001"/>
</g></svg>
