<?xml version="1.0" encoding="UTF-8"?>
<svg xmlns="http://www.w3.org/2000/svg" viewBox="0 0 1 1">
<g transform="translate(0.4285093654377815,0.17558092828914248) rotate(0) scale(1,1) translate(-0.133501349118799,-0.14511974897634428)"><path d="M 0.13487831928917263 0.11688808487589283 C 0.13512601620526785 0.11703154492505052 0.13625876649451324 0.11842051674944348 0.1360529019214269 0.11817730165137627 C 0.13625876649451324 0.11842051674944348 0.13741661722600443 0.12019401491963456 0.13734869416620846 0.11980666605269932 C 0.13741661722600443 0.12019401491963456 0.13671330644347474 0.12326682948778256 0.13686797863897868 0.1228254880545992 C 0.13671330644347474 0.12326682948778256 0.1353414223719188 0.1256773981356842 0.1354926278201613 0.12510276325089964 C 0.1353414223719188 0.1256773981356842 0.13496185720058101 0.13044032842220651 0.13505351326006848 0.12972110667201395 C 0.13496185720058101 0.13044032842220651 0.13426340809453918 0.13470887579566543 0.13439275510631163 0.13373342425321041 C 0.13426340809453918 0.13470887579566543 0.1333374475510417 0.14140887740438393 0.133501349118799 0.1414265251814742 C 0.1333374475510417 0.14140887740438393 0.1323463821388861 0.1325218044666074 0.13242593629322444 0.13352165092812737 C 0.1323463821388861 0.1325218044666074 0.1324663268103573 0.12869345278708139 0.1325466992667389 0.12942836764323462 C 0.1324663268103573 0.12869345278708139 0.1312675722379349 0.1241056063843827 0.13146146681664525 0.12470267265428855 C 0.1312675722379349 0.1241056063843827 0.1301205683983731 0.12184724166822192 0.13021996432221475 0.12226357240436433 C 0.1301205683983731 0.12184724166822192 0.13034439859289337 0.11936012513031648 0.1302687157305457 0.11970670382057949 C 0.13034439859289337 0.11936012513031648 0.13126737272824474 0.11787386282862022 0.13112815867038696 0.11810462812120812 C 0.13126737272824474 0.11787386282862022 0.1321019827796638 0.11680011638788106 0.13193928442483904 0.11693752030952473 C 0.1321019827796638 0.11680011638788106 0.133325458500312 0.1164516614420147 0.1330805389282842 0.11645578106148402 C 0.133325458500312 0.1164516614420147 0.13512601620526785 0.11703154492505052 0.13487831928917263 0.11688808487589283 Z" fill="#cccccc" stroke="none" stroke-width="0"/>
</g></svg>
