<?xml version="1.0" encoding="UTF-8"?>
<svg xmlns="http://www.w3.org/2000/svg" viewBox="0 0 1 1">
<g transform="translate(0.23261808553746072,0.1555528368646576) rotate(0) scale(1,1) translate(-0.040399395005754866,-0.040399395005754866)"><path d="M 0.046061421928392986 0.04054192526502982 C 0.046543879583641465 0.04130893355020797 0.045682796119060086 0.047628079738756476 0.04616139316740276 0.0469032822192948 C 0.045682796119060086 0.047628079738756476 0.03948387066855883 0.049217063649077575 0.040318257348280866 0.04923949549856992 C 0.03948387066855883 0.049217063649077575 0.03580539704268381 0.0459330974541264 0.036148753010738326 0.046634100025386586 C 0.03580539704268381 0.0459330974541264 0.036549914756100234 0.04008288820776192 0.03619798573162668 0.040827464643447726 C 0.036549914756100234 0.04008288820776192 0.04119385432081819 0.03767538784895546 0.040371901304421004 0.03769918279715695 C 0.04119385432081819 0.03767538784895546 0.046543879583641465 0.04130893355020797 0.046061421928392986 0.04054192526502982 Z" fill="#cccccc" stroke="#000000" stroke-width="0.001"/>
</g><g transform="translate(0.24449514784177878,0.16346814546052277) rotate(0) scale(1,1) translate(-0.007009790924038447,-0.007009790924038445)"><path d="M 0.009207018542048112 0.007731212175837731 C 0.009136287839116184 0.007466868445832545 0.008063935840004224 0.004049403659707028 0.008358250106864987 0.004559087415775502 C 0.008063935840004224 0.004049403659707028 0.005451663775790128 0.0013696670769527421 0.0056752473397189635 0.0016150071030160314" fill="none" stroke="#000000" stroke-width="0.001"/>
<path d="M 0.0056752473397189635 0.0016150071030160314 C 0.005689700688169831 0.001849172390130644 0.005787298506595353 0.004858462525782803 0.005848687521129369 0.004424990548391383 C 0.005787298506595353 0.004858462525782803 0.004862736802325888 0.007015977521989878 0.004938579165310771 0.00681667083171307" fill="none" stroke="#000000" stroke-width="0.001"/>
</g><g transform="translate(0.2515093937472135,0.16457684782016188) rotate(0) scale(1,1) translate(-0.007009790924038447,-0.007009790924038445)"><path d="M 0.009207018542048112 0.007731212175837731 C 0.009136287839116184 0.007466868445832545 0.008063935840004224 0.004049403659707028 0.008358250106864987 0.004559087415775502 C 0.008063935840004224 0.004049403659707028 0.005451663775790128 0.0013696670769527421 0.0056752473397189635 0.0016150071030160314" fill="none" stroke="#000000" stroke-width="0.001"/>
<path d="M 0.0056752473397189635 0.0016150071030160314 C 0.005689700688169831 0.001849172390130644 0.005787298506595353 0.004858462525782803 0.005848687521129369 0.004424990548391383 C 0.005787298506595353 0.004858462525782803 0.004862736802325888 0.007015977521989878 0.004938579165310771 0.00681667083171307" fill="none" stroke="#000000" stroke-width="0.001"/>
</g><g transform="translate(0.2581213690464311,0.1663041077954267) rotate(0) scale(1,1) translate(-0.007009790924038447,-0.007009790924038445)"><path d="M 0.009207018542048112 0.007731212175837731 C 0.009136287839116184 0.007466868445832545 0.008063935840004224 0.004049403659707028 0.008358250106864987 0.004559087415775502 C 0.008063935840004224 0.004049403659707028 0.005451663775790128 0.0013696670769527421 0.0056752473397189635 0.0016150071030160314" fill="none" stroke="#000000" stroke-width="0.001"/>
<path d="M 0.0056752473397189635 0.0016150071030160314 C 0.005689700688169831 0.001849172390130644 0.005787298506595353 0.004858462525782803 0.005848687521129369 0.004424990548391383 C 0.005787298506595353 0.004858462525782803 0.004862736802325888 0.007015977521989878 0.004938579165310771 0.00681667083171307" fill="none" stroke="#000000" stroke-width="0.001"/>
</g><g transform="translate(0.26453902020646486,0.16828793501269895) rotate(0) scale(1,1) translate(-0.007009790924038447,-0.007009790924038445)"><path d="M 0.009207018542048112 0.007731212175837731 C 0.009136287839116184 0.007466868445832545 0.008063935840004224 0.004049403659707028 0.008358250106864987 0.004559087415775502 C 0.008063935840004224 0.004049403659707028 0.005451663775790128 0.0013696670769527421 0.0056752473397189635 0.0016150071030160314" fill="none" stroke="#000000" stroke-width="0.001"/>
<path d="M 0.0056752473397189635 0.0016150071030160314 C 0.005689700688169831 0.001849172390130644 0.005787298506595353 0.004858462525782803 0.005848687521129369 0.004424990548391383 C 0.005787298506595353 0.004858462525782803 0.004862736802325888 0.007015977521989878 0.004938579165310771 0.00681667083171307" fill="none" stroke="#000000" stroke-width="0.001"/>
</g><g transform="translate(0.2326485323139162,0.15627966748064848) rotate(0) scale(1,1) translate(-0.08857823780460237,-0.08857823780460235)"><path d="M 0.09328080510283746 0.09261954063044726 C 0.09370775531126026 0.09281258925698031 0.09969096285291736 0.09522853954836655 0.09840420760391112 0.09493612414884378 C 0.09969096285291736 0.09522853954836655 0.1095816731314956 0.09622789219771022 0.10872186809091218 0.09612852542472049" fill="none" stroke="#000000" stroke-width="0.001"/>
<path d="M 0.10872186809091218 0.09612852542472049 C 0.11065761758429835 0.09654542771423787 0.13658581014987284 0.10139299296817206 0.13195086201154624 0.10113135289892908 C 0.13658581014987284 0.10139299296817206 0.16704044439577173 0.09911294403536185 0.1643412457508313 0.09926820625563625" fill="none" stroke="#000000" stroke-width="0.001"/>
<path d="M 0.1643412457508313 0.09926820625563625 C 0.16085740154574232 0.09979454000863047 0.11495163568640376 0.10551037249551852 0.12253511528976353 0.10558421129156696 C 0.11495163568640376 0.10551037249551852 0.06923985511224322 0.09778196815401222 0.07333949051051401 0.09838214070305489" fill="none" stroke="none" stroke-width="0"/>
<path d="M 0.07333949051051401 0.09838214070305489 C 0.0739770217768851 0.09810834486176491 0.08196403645302053 0.09420419836663128 0.08098986570696706 0.0950965906075752 C 0.08196403645302053 0.09420419836663128 0.08536617894283804 0.08705483741207398 0.08502953946315567 0.08767343381172792" fill="none" stroke="#000000" stroke-width="0.001"/>
<path d="M 0.08502953946315567 0.08767343381172792 C 0.08530728079324323 0.0875292524328246 0.08893006740969879 0.0860551077428507 0.08836243542420655 0.08594325726488809 C 0.08893006740969879 0.0860551077428507 0.09225098742894847 0.08957199649440917 0.09184112328906256 0.08901563954727923 C 0.09225098742894847 0.08957199649440917 0.0934007785873187 0.09291986572071127 0.09328080510283746 0.09261954063044726" fill="none" stroke="#000000" stroke-width="0.001"/>
</g><g transform="translate(0.23181259019615857,0.16572303517622938) rotate(0) scale(1,1) translate(-0.07876542813682669,-0.10545669067204094)"><path d="M 0.08665733518928098 0.10473234916595554 C 0.08705598941132583 0.10505222669647313 0.09236467535114244 0.10878878597349961 0.0914411858538192 0.10857087953216649 C 0.09236467535114244 0.10878878597349961 0.09826404443243819 0.10724525537276855 0.0977392091571598 0.10734722646195301" fill="none" stroke="#000000" stroke-width="0.001"/>
<path d="M 0.0977392091571598 0.10734722646195301 C 0.09862818663127292 0.10764909651902314 0.11097224301165272 0.11129019438006225 0.10840693884651716 0.11096966714679463 C 0.11097224301165272 0.11129019438006225 0.13243597908497792 0.11083802195122289 0.12852285913878658 0.11119355326116462 C 0.13243597908497792 0.11083802195122289 0.15760117145598213 0.1063291029413547 0.15536437820081322 0.10670329142749392" fill="none" stroke="#000000" stroke-width="0.001"/>
<path d="M 0.15536437820081322 0.10670329142749392 C 0.15344102270394394 0.10726590361385582 0.1289719674174453 0.11423971728162342 0.1322841122383817 0.11345463766383676 C 0.1289719674174453 0.11423971728162342 0.11422985102550916 0.11634671427235864 0.11561864034957628 0.11612424684093388" fill="none" stroke="#000000" stroke-width="0.001"/>
<path d="M 0.11561864034957628 0.11612424684093388 C 0.11427184494372204 0.11613704886577021 0.09686490730244476 0.11620176191473022 0.09945709547932546 0.11627787113896983 C 0.09686490730244476 0.11620176191473022 0.08326698945598135 0.11512202490098268 0.08451238222700783 0.11521093615005862" fill="none" stroke="#000000" stroke-width="0.001"/>
<path d="M 0.08451238222700783 0.11521093615005862 C 0.0838915157411032 0.11503984949950223 0.07526177294501936 0.11284439892061408 0.07706198439615237 0.11315789634338203 C 0.07526177294501936 0.11284439892061408 0.06173049984818324 0.1113065563046318 0.06290984481341164 0.11144896707684336" fill="none" stroke="#000000" stroke-width="0.001"/>
<path d="M 0.06436262296049595 0.10581722587491256 C 0.06495256894522596 0.10557597145787434 0.07233061170268307 0.10222841772293075 0.07144197477725599 0.10292217287045395 C 0.07233061170268307 0.10222841772293075 0.07532495700631808 0.09703966337414907 0.075026266065621 0.09749216410463406" fill="none" stroke="#000000" stroke-width="0.001"/>
<path d="M 0.075026266065621 0.09749216410463406 C 0.07546048522862492 0.09818684197562638 0.08120615178197296 0.10643164731165203 0.08023689602166796 0.1058282985565419 C 0.08120615178197296 0.10643164731165203 0.08719237178658207 0.10464102005007335 0.08665733518928098 0.10473234916595554" fill="none" stroke="#000000" stroke-width="0.001"/>
</g><g transform="translate(0.23181259019615857,0.16572303517622938) rotate(0) scale(1,1) translate(-0.07876542813682669,-0.10545669067204094)"><path d="M 0.07272176520873397 0.10154907149733987 C 0.07298399080248807 0.10207663436745554 0.07643221419885816 0.10865143429446736 0.07586847233378327 0.10787982593872793 C 0.07643221419885816 0.10865143429446736 0.07997247846303868 0.1113421186176669 0.07948666758963273 0.11080837176621297 C 0.07997247846303868 0.1113421186176669 0.08188249741673978 0.11457448952200511 0.08169820281465462 0.11428478815617495" fill="none" stroke="#000000" stroke-width="0.001"/>
<path d="M 0.08169820281465462 0.11428478815617495 C 0.08114201102862374 0.11416871152517845 0.07345820488218058 0.11265555016093927 0.07502390138228415 0.1128918685842169 C 0.07345820488218058 0.11265555016093927 0.061900340099338924 0.11132872528456224 0.06290984481341164 0.11144896707684336" fill="none" stroke="#000000" stroke-width="0.001"/>
<path d="M 0.06290984481341164 0.11144896707684336 C 0.06222231399807173 0.11109114707775355 0.05478053987492313 0.10668581532093818 0.05465947502933277 0.10715512708776576 C 0.05478053987492313 0.10668581532093818 0.06517121862142622 0.10570573410717479 0.06436262296049595 0.10581722587491256" fill="none" stroke="#000000" stroke-width="0.001"/>
<path d="M 0.06436262296049595 0.10581722587491256 C 0.06480097701140519 0.10565526520723577 0.0703194667587599 0.10351801833132673 0.06962287157140673 0.10387369786279113 C 0.0703194667587599 0.10351801833132673 0.0729800063451779 0.10135535263355226 0.07272176520873397 0.10154907149733987" fill="none" stroke="#000000" stroke-width="0.001"/>
</g><g transform="translate(0.23346999404526608,0.1600184453234095) rotate(0) scale(1,1) translate(-0.039041985683631465,-0.039041985683631486)"><path d="M 0.0402747215820068 0.0396460262738354 C 0.04012944226314792 0.03971721314007625 0.038836529700568924 0.039896228078521716 0.03904198568363148 0.039896228078521716 C 0.038836529700568924 0.039896228078521716 0.03766397046639725 0.03957483940759454 0.037809249785256134 0.03964602627383539 C 0.03766397046639725 0.03957483940759454 0.03729863385732488 0.03894131225193084 0.03729863385732488 0.03904198568363149 C 0.03729863385732488 0.03894131225193084 0.037954529104115 0.03836675822718672 0.03780924978525612 0.03843794509342757 C 0.037954529104115 0.03836675822718672 0.03924744166669402 0.03818774328874126 0.039041985683631465 0.03818774328874126 C 0.03924744166669402 0.03818774328874126 0.04042000090086568 0.03850913195966842 0.040274721582006796 0.03843794509342757 C 0.04042000090086568 0.03850913195966842 0.04078533750993804 0.03914265911533213 0.04078533750993804 0.03904198568363148 C 0.04078533750993804 0.03914265911533213 0.04012944226314792 0.03971721314007625 0.0402747215820068 0.0396460262738354 Z" fill="#cccccc" stroke="#000000" stroke-width="0.001"/>
</g><g transform="translate(0.2357005976755166,0.16296155614413738) rotate(0) scale(1,1) translate(-0.039041985683631465,-0.039041985683631486)"><path d="M 0.040263991868473736 0.039667448483456054 C 0.04011749229423616 0.03973608903387272 0.038821652407038706 0.039892512271945985 0.03902707709815989 0.03989609797326736 C 0.038821652407038706 0.039892512271945985 0.037654880765027175 0.03955070856974352 0.03779889557501949 0.0396244200675995 C 0.037654880765027175 0.03955070856974352 0.03730065637189962 0.03891090190034622 0.03729889937825214 0.0390115599989956 C 0.03730065637189962 0.03891090190034622 0.037966479073026776 0.03834788233339026 0.0378199794987892 0.038416522883806925 C 0.037966479073026776 0.03834788233339026 0.039262318960224224 0.038191459095316994 0.03905689426910304 0.03818787339399562 C 0.039262318960224224 0.038191459095316994 0.04042909060223576 0.038533262797519445 0.04028507579224345 0.03845955129966347 C 0.04042909060223576 0.038533262797519445 0.040783314995363314 0.039173069466916746 0.04078507198901079 0.03907241136826736 C 0.040783314995363314 0.039173069466916746 0.04011749229423616 0.03973608903387272 0.040263991868473736 0.039667448483456054 Z" fill="#cccccc" stroke="#000000" stroke-width="0.001"/>
</g><g id="輪">
<g transform="translate(0.25664657415306674,0.16465003438436177) rotate(0) scale(1,1) translate(-0.011152769902399133,-0.011152769902399133)"><path d="M 0.00712732711407283 0.026120254990168533 C 0.00712732711407283 0.02487296456618775 0.007127327114072828 0.008658189054437557 0.007127327114072829 0.011152769902399124 C 0.007127327114072828 0.008658189054437557 0.007127327114072823 -0.005062005609351049 0.007127327114072823 -0.0038147151853702667" fill="none" stroke="#000000" stroke-width="0.001"/>
<path d="M 0.007127327114072823 -0.0038147151853702667 C 0.007462780679766682 -0.003814715185370269 0.011823677033786843 -0.003814715185370295 0.011152769902399126 -0.003814715185370295 C 0.011823677033786843 -0.003814715185370295 0.015513666256419293 -0.0038147151853702645 0.015178212690725433 -0.0038147151853702667" fill="none" stroke="#000000" stroke-width="0.001"/>
<path d="M 0.015178212690725433 -0.0038147151853702667 C 0.015178212690725433 -0.002567424761389483 0.015178212690725433 0.0136473507503607 0.015178212690725433 0.011152769902399133 C 0.015178212690725433 0.0136473507503607 0.015178212690725433 0.027367545414149316 0.015178212690725433 0.026120254990168533" fill="none" stroke="#000000" stroke-width="0.001"/>
<path d="M 0.015178212690725433 0.026120254990168533 C 0.014842759125031576 0.026120254990168533 0.010481862771011425 0.026120254990168533 0.011152769902399141 0.026120254990168533 C 0.010481862771011425 0.026120254990168533 0.006791873548378971 0.026120254990168533 0.00712732711407283 0.026120254990168533" fill="none" stroke="#000000" stroke-width="0.001"/>
</g><g transform="translate(0.25664657415306674,0.1684942460533822) rotate(0) scale(1,1) translate(-0.00775832499658671,-0.0077583249965867095)"><path d="M 0.013082448009447353 0.0016163645754692152 C 0.012987810501764622 0.0026003494011929834 0.011154081589460543 0.014408167309878206 0.011946797917254587 0.013424182484154437 C 0.011154081589460543 0.014408167309878206 0.002777135748124775 0.01244019765843067 0.003569852075918818 0.013424182484154437 C 0.002777135748124775 0.01244019765843067 0.002339564476043336 0.0006323797497454508 0.0024342019837260654 0.0016163645754692188" fill="none" stroke="#000000" stroke-width="0.001"/>
<path d="M 0.0024342019837260654 0.0016163645754692188 C 0.002508826541755458 0.0016163645754692188 0.0034341710613199255 0.0016163645754692188 0.003329696680078776 0.0016163645754692188 C 0.0034341710613199255 0.0016163645754692188 0.00371774438183162 0.0016163645754692188 0.0036878945586198628 0.0016163645754692188" fill="none" stroke="#000000" stroke-width="0.001"/>
<path d="M 0.0036878945586198628 0.0016163645754692188 C 0.0037598054963572775 0.002444105104301195 0.0051573199467258996 0.012376991450284912 0.004550825811468839 0.011549250921452935 C 0.0051573199467258996 0.012376991450284912 0.011572318316961651 0.010721510392620958 0.010965824181704591 0.011549250921452935 C 0.011572318316961651 0.010721510392620958 0.011900666372290982 0.0007886240466372386 0.011828755434553567 0.0016163645754692152" fill="none" stroke="#000000" stroke-width="0.001"/>
<path d="M 0.011828755434553567 0.0016163645754692152 C 0.011858605257765324 0.0016163645754692152 0.0122914276943358 0.0016163645754692152 0.012186953313094651 0.0016163645754692152 C 0.0122914276943358 0.0016163645754692152 0.013157072567476745 0.0016163645754692152 0.013082448009447353 0.0016163645754692152" fill="none" stroke="#000000" stroke-width="0.001"/>
</g><g transform="translate(0.25664657415306674,0.1734699151015766) rotate(0) scale(1,1) translate(-0.0022536622055164745,-0.002253662205516475)"><path d="M 0.0030326057685252416 0.0009970007866647469 C 0.003021447332493738 0.0011990287421088318 0.0027800390450105745 0.003623364207437852 0.002898704536147199 0.003421336251993767 C 0.0027800390450105745 0.003623364207437852 0.001489954383749124 0.003219308296549683 0.0016086198748857486 0.003421336251993768 C 0.001489954383749124 0.003219308296549683 0.0014635602064762008 0.0007949728312206622 0.0014747186425077045 0.0009970007866647473" fill="none" stroke="#000000" stroke-width="0.001"/>
<path d="M 0.0014747186425077045 0.0009970007866647473 C 0.0015396306060917685 0.0009565951955759305 0.0023834861326846014 0.0005121336935989458 0.0022536622055164732 0.0005121336935989458 C 0.0023834861326846014 0.0005121336935989458 0.0030975177321093056 0.0010374063777535635 0.0030326057685252416 0.0009970007866647469" fill="none" stroke="#000000" stroke-width="0.001"/>
</g><g transform="translate(0.25664657415306674,0.1564291183415173) rotate(0) scale(1,1) translate(-0.006469483550722008,-0.0064694835507220095)"><path d="M 0.001710211038637692 0.005485195021696769 C 0.0032966352093324646 0.005157098845355023 0.012815180233501098 0.005813291198038516 0.011228756062806326 0.005485195021696769 C 0.012815180233501098 0.005813291198038516 0.009642331892111554 0.007781868256088995 0.011228756062806326 0.007453772079747248 C 0.009642331892111554 0.007781868256088995 0.00012378686794291705 0.007125675903405501 0.0017102110386376893 0.007453772079747248 C 0.00012378686794291705 0.007125675903405501 0.0032966352093324646 0.005157098845355023 0.001710211038637692 0.005485195021696769 Z" fill="#cccccc" stroke="#000000" stroke-width="0.001"/>
</g><g transform="translate(0.25664657415306674,0.17808382016985036) rotate(0) scale(1,1) translate(-0.009906215631991292,-0.007758324996586713)"><path d="M 0.015230338644851935 0.007758324996586713 C 0.015021355826434973 0.008348715892020974 0.012044173806788568 0.015433406637232118 0.012722544823848379 0.014843015741797857 C 0.012044173806788568 0.015433406637232118 0.006411515423074389 0.014252624846363596 0.007089886440134201 0.014843015741797857 C 0.006411515423074389 0.014252624846363596 0.004373109800713681 0.007167934101152459 0.004582092619130645 0.00775832499658672" fill="none" stroke="#000000" stroke-width="0.001"/>
<path d="M 0.004582092619130645 0.00775832499658672 C 0.004656717177160037 0.00775832499658672 0.005582061696724502 0.007758324996586719 0.005477587315483352 0.00775832499658672 C 0.005582061696724502 0.007758324996586719 0.005865635017236199 0.007758324996586712 0.005835785194024441 0.007758324996586713" fill="none" stroke="#000000" stroke-width="0.001"/>
<path d="M 0.005835785194024441 0.007758324996586713 C 0.006004247203065878 0.00823790163525475 0.00836727236647473 0.013992821299271195 0.007857329302521691 0.013513244660603158 C 0.00836727236647473 0.013992821299271195 0.012465045025413929 0.01303366802193512 0.011955101961460891 0.013513244660603158 C 0.012465045025413929 0.01303366802193512 0.014145108078999588 0.007278748357918675 0.01397664606995815 0.007758324996586713" fill="none" stroke="#000000" stroke-width="0.001"/>
<path d="M 0.01397664606995815 0.007758324996586713 C 0.014006495893169905 0.007758324996586713 0.014439318329740372 0.007758324996586713 0.014334843948499223 0.007758324996586713 C 0.014439318329740372 0.007758324996586713 0.015304963202881328 0.007758324996586713 0.015230338644851935 0.007758324996586713" fill="none" stroke="#000000" stroke-width="0.001"/>
</g><g transform="translate(0.25664657415306674,0.15121624859887317) rotate(0) scale(1,1) translate(-0.005610434361182026,-0.007758324996586713)"><path d="M 0.01093455737404267 0.007758324996586713 C 0.010859932816013277 0.007758324996586713 0.009934588296448804 0.007758324996586713 0.010039062677689954 0.007758324996586713 C 0.009934588296448804 0.007758324996586713 0.009651014975937124 0.007758324996586713 0.00968086479914888 0.007758324996586713" fill="none" stroke="#000000" stroke-width="0.001"/>
<path d="M 0.00968086479914888 0.007758324996586713 C 0.009512402790107441 0.007278748357918667 0.007149377626698583 0.0015238286939021144 0.007659320690651621 0.0020034053325701604 C 0.007149377626698583 0.0015238286939021144 0.003051604967759389 0.0024829819712382066 0.0035615480317124264 0.0020034053325701604 C 0.003051604967759389 0.0024829819712382066 0.0013715419141737345 0.008237901635254759 0.0015400039232151724 0.007758324996586713" fill="none" stroke="#000000" stroke-width="0.001"/>
<path d="M 0.0015400039232151724 0.007758324996586713 C 0.0015101541000034152 0.007758324996586713 0.0010773316634329368 0.007758324996586713 0.0011818060446740864 0.007758324996586713 C 0.0010773316634329368 0.007758324996586713 0.00021168679029198606 0.007758324996586713 0.0002863113483213784 0.007758324996586713" fill="none" stroke="#000000" stroke-width="0.001"/>
<path d="M 0.0002863113483213784 0.007758324996586713 C 0.0004952941667383411 0.0071679341011524475 0.0034724761863847414 8.324335594126007E-05 0.0027941051693249307 0.0006736342513755256 C 0.0034724761863847414 8.324335594126007E-05 0.00910513457009892 0.001264025146809791 0.008426763553039108 0.0006736342513755256 C 0.00910513457009892 0.001264025146809791 0.011143540192459632 0.00834871589202098 0.01093455737404267 0.007758324996586713" fill="none" stroke="#000000" stroke-width="0.001"/>
</g></g>
</svg>
