<?xml version="1.0" encoding="UTF-8"?>
<svg xmlns="http://www.w3.org/2000/svg" viewBox="0 0 1 1">
<g transform="translate(0.33734345282867056,0.2712976456560574) rotate(0) scale(1,1) translate(-0.056195880486968455,-0.026240772795101397)"><path d="M 0.06369679840499827 0.03431138601270867 C 0.06368112643226846 0.034450478617762806 0.06344683269947438 0.03625170779944902 0.0635087347322405 0.0359804972733583 C 0.06344683269947438 0.03625170779944902 0.06283327397267578 0.03781654853961575 0.06295397401180476 0.037565912325797306 C 0.06283327397267578 0.03781654853961575 0.061886888621162296 0.0392056257943993 0.06206033426269273 0.038988131839179666 C 0.061886888621162296 0.0392056257943993 0.060655132358219885 0.040349285429963314 0.060872626313439517 0.04017583978843288 C 0.060655132358219885 0.040349285429963314 0.05919977058623871 0.04119017957667389 0.05945040680005716 0.04106947953754491 C 0.05919977058623871 0.04119017957667389 0.05759378122152743 0.041686142290746776 0.05786499174761815 0.04162424025798065 C 0.05759378122152743 0.041686142290746776 0.055917695276860246 0.041812303930738426 0.05619588048696852 0.041812303930738426 C 0.055917695276860246 0.041812303930738426 0.05425555870022816 0.041562338225214525 0.05452676922631888 0.04162424025798065 C 0.05425555870022816 0.041562338225214525 0.05269071796006143 0.04094877949841593 0.05294135417387988 0.04106947953754491 C 0.05269071796006143 0.04094877949841593 0.05130164070527789 0.04000239414690245 0.05151913466049752 0.040175839788432886 C 0.05130164070527789 0.04000239414690245 0.050157981069713864 0.03877063788396004 0.0503314267112443 0.03898813183917967 C 0.050157981069713864 0.03877063788396004 0.04931708692300329 0.037315276111978865 0.04943778696213227 0.03756591232579731 C 0.04931708692300329 0.037315276111978865 0.0488211242089304 0.03570928674726759 0.04888302624169653 0.03598049727335831 C 0.0488211242089304 0.03570928674726759 0.048679290596208936 0.03417229340765453 0.04869496256893875 0.03431138601270867" fill="none" stroke="#000000" stroke-width="0.001"/>
<path d="M 0.04869496256893875 0.03431138601270867 C 0.048773096902845134 0.03397511046197503 0.0497888432436281 0.02960352830243776 0.04963257457581534 0.030276079403905032 C 0.0497888432436281 0.02960352830243776 0.050648320916598315 0.02590449724436776 0.05057018658269193 0.026240772795101397" fill="none" stroke="#000000" stroke-width="0.001"/>
<path d="M 0.05057018658269193 0.026240772795101397 C 0.0507074972156655 0.025909275602718586 0.052686722003731076 0.021793998661151268 0.0522179141783747 0.022262806486507643 C 0.052686722003731076 0.021793998661151268 0.05685887487173408 0.020615078890824874 0.056195880486968455 0.020615078890824874 C 0.05685887487173408 0.020615078890824874 0.060642654620918585 0.022731614311864018 0.06017384679556221 0.022262806486507643 C 0.060642654620918585 0.022731614311864018 0.061958885024218535 0.026572269987484208 0.06182157439124497 0.026240772795101397" fill="none" stroke="#000000" stroke-width="0.001"/>
<path d="M 0.06182157439124497 0.026240772795101397 C 0.06189970872515136 0.026577048345835033 0.06291545506593439 0.030948630505372304 0.06275918639812161 0.030276079403905032 C 0.06291545506593439 0.030948630505372304 0.06377493273890465 0.0346476615634423 0.06369679840499827 0.03431138601270867" fill="none" stroke="#000000" stroke-width="0.001"/>
</g><g transform="translate(0.3373434528286706,0.2793682588736647) rotate(0) scale(1,1) translate(-0.05619588048696845,-0.02307582545092335)"><path d="M 0.06619710437767487 0.03383664307439971 C 0.06617620841403511 0.03402209988113856 0.06586381677030967 0.03642373879005351 0.06594635281399784 0.036062124755265886 C 0.06586381677030967 0.03642373879005351 0.06504573846791155 0.03851019311027583 0.06520667185341686 0.03817601149185123 C 0.06504573846791155 0.03851019311027583 0.06378389133256024 0.04036229611665388 0.06401515218793416 0.04007230417636104 C 0.06378389133256024 0.04036229611665388 0.06214154964863703 0.041887175630739244 0.06243154158892987 0.04165591477536533 C 0.06214154964863703 0.041887175630739244 0.06020106728599546 0.043008367826353346 0.06053524890442006 0.042847434440848035 C 0.06020106728599546 0.043008367826353346 0.05805974813304709 0.0436696514451172 0.058421362167834716 0.043587115401429025 C 0.05805974813304709 0.0436696514451172 0.05582496687349083 0.04383786696510606 0.05619588048696853 0.04383786696510606 C 0.05582496687349083 0.04383786696510606 0.05360878477131472 0.043504579357740866 0.05397039880610235 0.04358711540142903 C 0.05360878477131472 0.043504579357740866 0.051522330451092405 0.04268650105534273 0.051856512069517004 0.04284743444084804 C 0.051522330451092405 0.04268650105534273 0.04967022744471435 0.04142465391999142 0.04996021938500719 0.04165591477536534 C 0.04967022744471435 0.04142465391999142 0.04814534793062899 0.03978231223606821 0.0483766087860029 0.04007230417636105 C 0.04814534793062899 0.03978231223606821 0.04702415573501489 0.03784182987342664 0.0471850891205202 0.038176011491851236 C 0.04702415573501489 0.03784182987342664 0.04636287211625104 0.035700510720478265 0.04644540815993921 0.03606212475526589 C 0.04636287211625104 0.035700510720478265 0.04617376063262243 0.03365118626766086 0.04619465659626218 0.03383664307439971" fill="none" stroke="#000000" stroke-width="0.001"/>
<path d="M 0.04619465659626218 0.03383664307439971 C 0.04629883570813736 0.03338827567342153 0.047653164162514666 0.027559499460705166 0.04744480593876431 0.02845623426266153 C 0.047653164162514666 0.027559499460705166 0.048799134393141604 0.022627458049945166 0.048694955281266425 0.02307582545092335" fill="none" stroke="#000000" stroke-width="0.001"/>
<path d="M 0.048694955281266425 0.02307582545092335 C 0.04887803612523118 0.02263382919441293 0.05151700250931862 0.017146793272323182 0.05089192540884345 0.01777187037279835 C 0.05151700250931862 0.017146793272323182 0.05707987299998928 0.015574900245221327 0.05619588048696845 0.015574900245221327 C 0.05707987299998928 0.015574900245221327 0.06212491266556862 0.018396947473273518 0.06149983556509345 0.01777187037279835 C 0.06212491266556862 0.018396947473273518 0.06387988653663522 0.023517821707433766 0.06369680569267047 0.02307582545092335" fill="none" stroke="none" stroke-width="0"/>
<path d="M 0.06369680569267047 0.02307582545092335 C 0.06380098480454566 0.02352419285190153 0.06515531325892304 0.02935296906461789 0.06494695503517267 0.02845623426266153 C 0.06515531325892304 0.02935296906461789 0.06630128348955006 0.03428501047537789 0.06619710437767487 0.03383664307439971" fill="none" stroke="#000000" stroke-width="0.001"/>
</g><g transform="translate(0.33734345282867073,0.29012907649714104) rotate(0) scale(1,1) translate(-0.056195880486968455,-0.01885589565868595)"><path d="M 0.06953084567457701 0.033203652489987794 C 0.069502984389724 0.033450928232306255 0.06908646219809007 0.03665311344419287 0.06919651025634097 0.03617096139780937 C 0.06908646219809007 0.03665311344419287 0.0679956911282259 0.03943505253782262 0.06821026897556631 0.038989477046589824 C 0.0679956911282259 0.03943505253782262 0.06631322828109082 0.04190452321299336 0.06662157608825604 0.0415178672926029 C 0.06631322828109082 0.04190452321299336 0.0641234393691932 0.04393769589844051 0.06451009528958365 0.043629348091275284 C 0.0641234393691932 0.04393769589844051 0.06153612955233778 0.04543261882592596 0.061981705043570576 0.045218040978585554 C 0.06153612955233778 0.04543261882592596 0.05868103734840662 0.0463143303176111 0.05916318939479012 0.046204282259360206 C 0.05868103734840662 0.0463143303176111 0.05570132900233162 0.04653861767759625 0.05619588048696855 0.04653861767759625 C 0.05570132900233162 0.04653861767759625 0.05274641953276348 0.04609423420110931 0.05322857157914698 0.0462042822593602 C 0.05274641953276348 0.04609423420110931 0.049964480439133735 0.04500346313124513 0.05041005593036653 0.04521804097858555 C 0.049964480439133735 0.04500346313124513 0.047495009763962995 0.04332100028411005 0.04788166568435345 0.04362934809127528 C 0.047495009763962995 0.04332100028411005 0.045461837078515845 0.041131211372212435 0.04577018488568107 0.04151786729260289 C 0.045461837078515845 0.041131211372212435 0.04396691415103039 0.03854390155535702 0.0441814919983708 0.03898947704658982 C 0.04396691415103039 0.03854390155535702 0.043085202659345255 0.03568880935142586 0.04319525071759615 0.03617096139780936 C 0.043085202659345255 0.03568880935142586 0.042833054014507085 0.03295637674766933 0.04286091529936009 0.033203652489987794" fill="none" stroke="#000000" stroke-width="0.001"/>
<path d="M 0.04286091529936009 0.033203652489987794 C 0.04299982078186033 0.032605829288683545 0.0448055920543634 0.024834127671728337 0.04452778108936293 0.026029774074336823 C 0.0448055920543634 0.024834127671728337 0.046333552361865996 0.018258072457381713 0.04619464687936576 0.01885589565868595" fill="none" stroke="#000000" stroke-width="0.001"/>
<path d="M 0.04619464687936576 0.01885589565868595 C 0.04643875467131876 0.01826656731667206 0.04995737651676868 0.010950519420552396 0.04912394038280179 0.011783955554519287 C 0.04995737651676868 0.010950519420552396 0.057374537170996234 0.008854662051083253 0.056195880486968455 0.008854662051083253 C 0.057374537170996234 0.008854662051083253 0.064101256725102 0.012617391688486175 0.06326782059113512 0.011783955554519283 C 0.064101256725102 0.012617391688486175 0.06644122188652415 0.01944522400069984 0.06619711409457116 0.01885589565868595" fill="none" stroke="none" stroke-width="0"/>
<path d="M 0.06619711409457116 0.01885589565868595 C 0.0663360195770714 0.01945371885999019 0.06814179084957457 0.02722542047694531 0.06786397988457409 0.026029774074336823 C 0.06814179084957457 0.02722542047694531 0.06966975115707726 0.03380147569129204 0.06953084567457701 0.033203652489987794" fill="none" stroke="#000000" stroke-width="0.001"/>
</g><g transform="translate(0.33734345282867084,0.3044768333284429) rotate(0) scale(1,1) translate(-0.05619588048696846,-0.013229322602369309)"><path d="M 0.07397583407044653 0.032359665044105194 C 0.07393868569064252 0.032689366033863146 0.07338332276846395 0.03695894631637863 0.07353005351279847 0.036316076921200625 C 0.07338332276846395 0.03695894631637863 0.07192896134197838 0.04066819844121829 0.07221506513843226 0.04007409778624123 C 0.07192896134197838 0.04066819844121829 0.06968567754579827 0.0439608260081126 0.07009680795535189 0.04344528478092533 C 0.06968567754579827 0.0439608260081126 0.06676595899660144 0.046671722922042136 0.06728150022378872 0.046260592512488506 C 0.06676595899660144 0.046671722922042136 0.06331621257412756 0.048664953492022746 0.06391031322910462 0.04837884969556887 C 0.06331621257412756 0.048664953492022746 0.05950942296888601 0.04984056881426959 0.06015229236406402 0.04969383806993507 C 0.05950942296888601 0.04984056881426959 0.055536478507452684 0.05013961862758313 0.05619588048696859 0.05013961862758313 C 0.055536478507452684 0.05013961862758313 0.05159659921469515 0.049547107325600546 0.052239468609873156 0.04969383806993507 C 0.05159659921469515 0.049547107325600546 0.047887347089855495 0.04809274589911499 0.048481447744832554 0.04837884969556887 C 0.047887347089855495 0.04809274589911499 0.04459471952296118 0.045849462102934876 0.04511026075014845 0.046260592512488506 C 0.04459471952296118 0.045849462102934876 0.041883822609031646 0.04292974355373806 0.042294953018585275 0.04344528478092533 C 0.041883822609031646 0.04292974355373806 0.039890592039051036 0.03947999713126417 0.040176695835504914 0.04007409778624123 C 0.039890592039051036 0.03947999713126417 0.03871497671680419 0.03567320752602262 0.03886170746113871 0.036316076921200625 C 0.03871497671680419 0.03567320752602262 0.03837877852368664 0.03202996405434724 0.038415926903490646 0.032359665044105194" fill="none" stroke="#000000" stroke-width="0.001"/>
<path d="M 0.038415926903490646 0.032359665044105194 C 0.03860113421349096 0.0315625674423662 0.04100882924349505 0.021200298619759216 0.04063841462349442 0.022794493823237207 C 0.04100882924349505 0.021200298619759216 0.04304610965349851 0.012432225000630317 0.042860902343498194 0.013229322602369309" fill="none" stroke="#000000" stroke-width="0.001"/>
<path d="M 0.042860902343498194 0.013229322602369309 C 0.04318637939943553 0.012443551479684123 0.04787787519336876 0.002688820951524563 0.04676662701474624 0.0038000691301470855 C 0.04787787519336876 0.002688820951524563 0.057767422732338834 -0.00010565554110095897 0.05619588048696846 -0.00010565554110095882 C 0.057767422732338834 -0.00010565554110095897 0.06673638213781322 0.004911317308769606 0.06562513395919069 0.0038000691301470838 C 0.06673638213781322 0.004911317308769606 0.06985633568637607 0.014015093725054495 0.06953085863043873 0.013229322602369309" fill="none" stroke="none" stroke-width="0"/>
<path d="M 0.06953085863043873 0.013229322602369309 C 0.06971606594043905 0.014026420204108301 0.07212376097044328 0.024388689026715198 0.07175334635044263 0.022794493823237207 C 0.07212376097044328 0.024388689026715198 0.07416104138044685 0.03315676264584419 0.07397583407044653 0.032359665044105194" fill="none" stroke="#000000" stroke-width="0.001"/>
</g><g transform="translate(0.337343452828671,0.3236071757701788) rotate(0) scale(1,1) translate(-0.0561958804869685,-0.035735621827330186)"><path d="M 0.03841592735265721 0.035735621827330186 C 0.038849896327978944 0.03468792804145931 0.04510521781771058 0.02168163363568706 0.04362355505651798 0.023163296396879668 C 0.04510521781771058 0.02168163363568706 0.05829126805871025 0.017955668693018904 0.0561958804869685 0.017955668693018904 C 0.05829126805871025 0.017955668693018904 0.07024986867861162 0.024644959158072275 0.06876820591741901 0.023163296396879668 C 0.07024986867861162 0.024644959158072275 0.07440980259660152 0.03678331561320106 0.07397583362127978 0.035735621827330186" fill="none" stroke="none" stroke-width="0"/>
<path d="M 0.07397583362127978 0.035735621827330186 C 0.074056877428159 0.036121298762851105 0.07507078591616423 0.04108300978663631 0.0749483593038304 0.040363745053581215 C 0.07507078591616423 0.04108300978663631 0.07548633577474036 0.04470038642152547 0.07544495296928574 0.044366798623991295" fill="none" stroke="#000000" stroke-width="0.001"/>
<path d="M 0.07544495296928574 0.044366798623991295 C 0.07546425721049306 0.04461927945687042 0.07570061987241299 0.04794089913992244 0.07567660386377346 0.04739656861854083 C 0.07570061987241299 0.04794089913992244 0.07565152917679797 0.05141667021213552 0.07573314507296 0.05089876488057058 C 0.07565152917679797 0.05141667021213552 0.07442309567498168 0.05399009433814641 0.07469721310982912 0.053611432597320145 C 0.07442309567498168 0.05399009433814641 0.07201701232217947 0.05563357774005882 0.0724437358547907 0.05544270577048576 C 0.07201701232217947 0.05563357774005882 0.0691115413140737 0.055853834440411934 0.0695765307184942 0.055901896232196914 C 0.0691115413140737 0.055853834440411934 0.06663780735868219 0.05477963660547178 0.06686386300174466 0.05486596426906602" fill="none" stroke="#000000" stroke-width="0.001"/>
<path d="M 0.06686386300174466 0.05486596426906602 C 0.06705948371315265 0.05500572304264598 0.06950646536884436 0.05690167332963153 0.06921131153864063 0.056543069552025566 C 0.06950646536884436 0.05690167332963153 0.0704820177903671 0.0596273464967393 0.07040570896418938 0.059169209600337606 C 0.0704820177903671 0.0596273464967393 0.06996403438657534 0.0624756249126296 0.0701270174527733 0.062040712308845905 C 0.06996403438657534 0.0624756249126296 0.0680913083922078 0.06468331467594561 0.06844991216981376 0.06438816084574188 C 0.0680913083922078 0.06468331467594561 0.06536563522510001 0.06565886709746835 0.06582377212150171 0.06558255827129063 C 0.06536563522510001 0.06565886709746835 0.06271297752061773 0.06528064246725655 0.06295226941299342 0.06530386675987455" fill="none" stroke="#000000" stroke-width="0.001"/>
<path d="M 0.06295226941299342 0.06530386675987455 C 0.06287683737314013 0.06558538296512559 0.0617655687295029 0.0691696615935358 0.06204708493475394 0.06868206122288702 C 0.0617655687295029 0.0691696615935358 0.05908647457933217 0.07143658741291103 0.05957407494998096 0.07115507120766 C 0.05908647457933217 0.07143658741291103 0.05563284807646642 0.07206025568589948 0.0561958804869685 0.07206025568589948 C 0.05563284807646642 0.07206025568589948 0.05233008565330725 0.07087355500240897 0.052817686023956034 0.07115507120766 C 0.05233008565330725 0.07087355500240897 0.05006315983393201 0.06819446085223824 0.05034467603918305 0.06868206122288702 C 0.05006315983393201 0.06819446085223824 0.04936405952109027 0.06502235055462352 0.04943949156094356 0.06530386675987455" fill="none" stroke="#000000" stroke-width="0.001"/>
<path d="M 0.04943949156094356 0.06530386675987455 C 0.04920019966856787 0.06532709105249256 0.046109851956033565 0.06550624944511292 0.04656798885243526 0.06558255827129064 C 0.046109851956033565 0.06550624944511292 0.04358324502651724 0.06409300701553819 0.043941848804123204 0.0643881608457419 C 0.04358324502651724 0.06409300701553819 0.04210176045496567 0.06160579970506226 0.04226474352116364 0.06204071230884595 C 0.04210176045496567 0.06160579970506226 0.04206236083592527 0.058711072703935954 0.041986052009747546 0.05916920960033765 C 0.04206236083592527 0.058711072703935954 0.043475603265500005 0.05618446577441962 0.04318044943529628 0.05654306955202559 C 0.043475603265500005 0.05618446577441962 0.04572351868360024 0.054726205495486055 0.04552789797219224 0.05486596426906602" fill="none" stroke="#000000" stroke-width="0.001"/>
<path d="M 0.04552789797219224 0.05486596426906602 C 0.045301842329129774 0.05495229193266027 0.042350240851022146 0.05594995802398197 0.042815230255442656 0.05590189623219698 C 0.042350240851022146 0.05594995802398197 0.03952130158653486 0.05525183380091283 0.03994802511914611 0.055442705770485885 C 0.03952130158653486 0.05525183380091283 0.03742043042926017 0.053232770856494034 0.03769454786410762 0.0536114325973203 C 0.03742043042926017 0.053232770856494034 0.03657700000481462 0.050380859549005765 0.03665861590097666 0.05089876488057071 C 0.03657700000481462 0.050380859549005765 0.03673917311880267 0.046852238097159285 0.03671515711016315 0.047396568618540906 C 0.03673917311880267 0.046852238097159285 0.036966112245858246 0.04411431779111216 0.03694680800465093 0.044366798623991295" fill="none" stroke="#000000" stroke-width="0.001"/>
<path d="M 0.03694680800465093 0.044366798623991295 C 0.03698819081010556 0.04403321082645712 0.03756582828244039 0.03964448032052612 0.037443401670106534 0.040363745053581215 C 0.03756582828244039 0.03964448032052612 0.03849697115953644 0.035349944891809267 0.03841592735265721 0.035735621827330186" fill="none" stroke="#000000" stroke-width="0.001"/>
</g><g id="中央">
<g transform="translate(0.337343452828671,0.3531754207027231) rotate(0) scale(1,1) translate(-0.056195880486968545,-0.035735621827330186)"><path d="M 0.04947505803241388 0.035735621827330186 C 0.049639098309229565 0.035339593566266314 0.05200360989208168 0.03042321415668421 0.05144354135420212 0.030983282694563765 C 0.05200360989208168 0.03042321415668421 0.05698793700909628 0.02901479937277552 0.056195880486968545 0.02901479937277552 C 0.05698793700909628 0.02901479937277552 0.06150828815761453 0.03154335123244332 0.06094821961973497 0.030983282694563765 C 0.06150828815761453 0.03154335123244332 0.0630807432183389 0.03613165008839406 0.06291670294152321 0.035735621827330186" fill="none" stroke="none" stroke-width="0"/>
<path d="M 0.06291670294152321 0.035735621827330186 C 0.06284669457834309 0.03652026477904201 0.06193658585700149 0.04672062315129567 0.062076602583361735 0.04515133724787203 C 0.06193658585700149 0.04672062315129567 0.061166493862020145 0.05535169562012572 0.061236502225200266 0.0545670526684139" fill="none" stroke="#000000" stroke-width="0.001"/>
<path d="M 0.061236502225200266 0.0545670526684139 C 0.06118022595336235 0.054777078574173556 0.06035116105738563 0.05745113907721117 0.06056118696314529 0.05708736353752977 C 0.06035116105738563 0.05745113907721117 0.05835241581640299 0.05914238505035033 0.05871619135608439 0.05893235914459067 C 0.05835241581640299 0.05914238505035033 0.0557758286754492 0.059607674406645654 0.05619588048696852 0.059607674406645654 C 0.0557758286754492 0.059607674406645654 0.053311794078171236 0.05872233323883102 0.053675569617852636 0.058932359144590676 C 0.053311794078171236 0.05872233323883102 0.05162054810503208 0.05672358799784838 0.05183057401079174 0.05708736353752978 C 0.05162054810503208 0.05672358799784838 0.051098982476898834 0.05435702676265424 0.05115525874873675 0.0545670526684139" fill="none" stroke="#000000" stroke-width="0.001"/>
<path d="M 0.05115525874873675 0.0545670526684139 C 0.05108525038555663 0.053782409716702076 0.05017514166421508 0.04358205134444838 0.050315158390575314 0.04515133724787203 C 0.05017514166421508 0.04358205134444838 0.04940504966923376 0.03495097887561836 0.04947505803241388 0.035735621827330186" fill="none" stroke="#000000" stroke-width="0.001"/>
</g><g transform="translate(0.33734345282867095,0.3720068515438068) rotate(0) scale(1,1) translate(-0.05619588048696845,-0.03573561482763549)"><path d="M 0.051155263646052496 0.03573561922021734 C 0.05127829385366426 0.03543859802441944 0.053051677540803345 0.03175131346723286 0.05263162613739368 0.032171364870642524 C 0.053051677540803345 0.03175131346723286 0.0567899228785643 0.03069500237930134 0.0561958804869685 0.03069500237930134 C 0.0567899228785643 0.03069500237930134 0.06018018623995298 0.03259141627405219 0.05976013483654331 0.032171364870642524 C 0.06018018623995298 0.03259141627405219 0.061359527535496255 0.03603264041601524 0.06123649732788449 0.03573561922021734" fill="none" stroke="none" stroke-width="0"/>
<path d="M 0.06123649732788449 0.03573561922021734 C 0.0611839910554994 0.03632410143400121 0.0605014095144932 0.04397437021319147 0.06060642205926338 0.042797405785623736 C 0.0605014095144932 0.04397437021319147 0.059923840518257186 0.05044767456481399 0.05997634679064228 0.049859192351030125" fill="none" stroke="#000000" stroke-width="0.001"/>
<path d="M 0.05997634679064228 0.049859192351030125 C 0.05993413958676384 0.050016711780349866 0.059312340914781304 0.05202225715762808 0.059469860344101046 0.051749425502867034 C 0.059312340914781304 0.05202225715762808 0.057813281984044326 0.05329069163748245 0.05808611363880537 0.05313317220816271 C 0.057813281984044326 0.05329069163748245 0.05588084162832898 0.05363965865470395 0.05619588048696846 0.05363965865470395 C 0.05588084162832898 0.05363965865470395 0.054032815680370494 0.052975652778842974 0.054305647335131546 0.053133172208162716 C 0.054032815680370494 0.052975652778842974 0.05276438120051613 0.05147659384810599 0.05292190062983587 0.05174942550286704 C 0.05276438120051613 0.05147659384810599 0.0523732069794162 0.049701672921710384 0.05241541418329464 0.049859192351030125" fill="none" stroke="#000000" stroke-width="0.001"/>
<path d="M 0.05241541418329464 0.049859192351030125 C 0.05236290791090955 0.04927071013724626 0.051680326369903384 0.041620441358056 0.051785338914673566 0.042797405785623736 C 0.051680326369903384 0.041620441358056 0.05110275737366741 0.035147137006433474 0.051155263646052496 0.03573561922021734" fill="none" stroke="#000000" stroke-width="0.001"/>
</g><g transform="translate(0.33734345282867073,0.38609766289940556) rotate(0) scale(1,1) translate(-0.05619588048696845,-0.03573561482763549)"><path d="M 0.05241541785628148 0.03573561812207188 C 0.05250769051199031 0.03551285222522345 0.05383772827734462 0.03274738880733351 0.05352268972478737 0.03306242735989076 C 0.05383772827734462 0.03274738880733351 0.05664141228066533 0.031955155491384876 0.05619588048696848 0.031955155491384876 C 0.05664141228066533 0.031955155491384876 0.059184109801706845 0.033377465912448015 0.0588690712491496 0.03306242735989076 C 0.059184109801706845 0.033377465912448015 0.0600686157733643 0.035958384018920306 0.05997634311765548 0.03573561812207188" fill="none" stroke="none" stroke-width="0"/>
<path d="M 0.05997634311765548 0.03573561812207188 C 0.059936963413366656 0.036176979782409774 0.059425027257612006 0.041914681366802466 0.05950378666618965 0.041031958046126665 C 0.059425027257612006 0.041914681366802466 0.05899185051043499 0.046769659630519364 0.05903123021472381 0.04632829797018147" fill="none" stroke="#000000" stroke-width="0.001"/>
<path d="M 0.05903123021472381 0.04632829797018147 C 0.05899957481181498 0.04644643754217127 0.058533225807828076 0.047950596575129935 0.05865136537981788 0.047745972834059146 C 0.058533225807828076 0.047950596575129935 0.05740893160977534 0.04890192243502071 0.05761355535084613 0.0487837828630309 C 0.05740893160977534 0.04890192243502071 0.055959601342988836 0.049163647697936824 0.05619588048696845 0.049163647697936824 C 0.055959601342988836 0.049163647697936824 0.05457358188201998 0.048665643291041095 0.05477820562309077 0.0487837828630309 C 0.05457358188201998 0.048665643291041095 0.05362225602212921 0.04754134909298836 0.053740395594119014 0.047745972834059146 C 0.05362225602212921 0.04754134909298836 0.053328875356304255 0.04621015839819166 0.053360530759213085 0.04632829797018147" fill="none" stroke="#000000" stroke-width="0.001"/>
<path d="M 0.053360530759213085 0.04632829797018147 C 0.05332115105492427 0.04588693630984357 0.05280921489916965 0.040149234725450865 0.05288797430774728 0.041031958046126665 C 0.05280921489916965 0.040149234725450865 0.05237603815199267 0.03529425646173398 0.05241541785628148 0.03573561812207188" fill="none" stroke="#000000" stroke-width="0.001"/>
</g><g transform="translate(0.33734345282867073,0.3966903460419515) rotate(0) scale(1,1) translate(-0.05619588048696845,-0.03573561482763549)"><path d="M 0.05336053351395323 0.03573561729846277 C 0.05342973800573485 0.035568542875826455 0.05442726632975058 0.033494445312409006 0.054190987415332646 0.03373072422682694 C 0.05442726632975058 0.033494445312409006 0.05653002933224111 0.032900270325447525 0.056195880486968476 0.032900270325447525 C 0.05653002933224111 0.032900270325447525 0.05843705247302224 0.03396700314124488 0.058200773558604306 0.03373072422682694 C 0.05843705247302224 0.03396700314124488 0.05910043195176534 0.03590269172109909 0.05903122745998372 0.03573561729846277" fill="none" stroke="none" stroke-width="0"/>
<path d="M 0.05903122745998372 0.03573561729846277 C 0.05900169268176711 0.036066638543716195 0.05861774056495112 0.04036991473201073 0.05867681012138435 0.03970787224150388 C 0.05861774056495112 0.04036991473201073 0.05829285800456836 0.0440111484297984 0.058322392782784976 0.043680127184544976" fill="none" stroke="#000000" stroke-width="0.001"/>
<path d="M 0.058322392782784976 0.043680127184544976 C 0.058298651230603356 0.04376873186353733 0.057948889477613175 0.044896851138256325 0.05803749415660553 0.044743383332453236 C 0.057948889477613175 0.044896851138256325 0.05710566882907363 0.045610345533174404 0.057259136634876716 0.04552174085418205 C 0.05710566882907363 0.045610345533174404 0.056018671128983746 0.0458066394803615 0.056195880486968455 0.0458066394803615 C 0.056018671128983746 0.0458066394803615 0.054979156533257106 0.045433136175189695 0.055132624339060195 0.04552174085418205 C 0.054979156533257106 0.045433136175189695 0.05426566213833903 0.04458991552665015 0.05435426681733138 0.044743383332453236 C 0.05426566213833903 0.04458991552665015 0.054045626638970314 0.04359152250555262 0.054069368191151934 0.043680127184544976" fill="none" stroke="#000000" stroke-width="0.001"/>
<path d="M 0.054069368191151934 0.043680127184544976 C 0.05403983341293532 0.04334910593929155 0.053655881296119354 0.039045829750997026 0.05371495085255258 0.03970787224150388 C 0.053655881296119354 0.039045829750997026 0.053330998735736615 0.03540459605320935 0.05336053351395323 0.03573561729846277" fill="none" stroke="#000000" stroke-width="0.001"/>
</g><g transform="translate(0.33734345282867073,0.40463485839886104) rotate(0) scale(1,1) translate(-0.05619588048696845,-0.03573561482763549)"><path d="M 0.054069370257207025 0.03573561668075596 C 0.054121273626043236 0.03561031086377872 0.05486941986905504 0.03405473769121563 0.054692210683241586 0.03423194687702908 C 0.05486941986905504 0.03405473769121563 0.05644649212092295 0.03360910645099452 0.05619588048696847 0.03360910645099452 C 0.05644649212092295 0.03360910645099452 0.057876759476508804 0.03440915606284253 0.05769955029069535 0.03423194687702908 C 0.057876759476508804 0.03440915606284253 0.05837429408556612 0.035860922497733205 0.058322390716729906 0.03573561668075596" fill="none" stroke="none" stroke-width="0"/>
<path d="M 0.058322390716729906 0.03573561668075596 C 0.05830023963306744 0.03598388261469603 0.058012275545455454 0.039211339755916924 0.058056577712780374 0.03871480788803679 C 0.058012275545455454 0.039211339755916924 0.05776861362516838 0.041942265029257665 0.05779076470883084 0.041693999095317597" fill="none" stroke="#000000" stroke-width="0.001"/>
<path d="M 0.05779076470883084 0.041693999095317597 C 0.05777295854469463 0.04176045260456186 0.05751063722995199 0.04260654206060111 0.05757709073919626 0.042491441206248794 C 0.05751063722995199 0.04260654206060111 0.05687822174354733 0.04314166285678967 0.056993322597899645 0.043075209347545405 C 0.05687822174354733 0.04314166285678967 0.05606297346847992 0.04328888331717999 0.05619588048696845 0.04328888331717999 C 0.05606297346847992 0.04328888331717999 0.05528333752168493 0.04300875583830114 0.05539843837603725 0.043075209347545405 C 0.05528333752168493 0.04300875583830114 0.054748216725496374 0.042376340351896476 0.05481467023474064 0.042491441206248794 C 0.054748216725496374 0.042376340351896476 0.05458319010096984 0.04162754558607333 0.054600996265106054 0.041693999095317597" fill="none" stroke="#000000" stroke-width="0.001"/>
<path d="M 0.054600996265106054 0.041693999095317597 C 0.0545788451814436 0.04144573316137753 0.05429088109383162 0.03821827602015665 0.05433518326115654 0.03871480788803679 C 0.05429088109383162 0.03821827602015665 0.05404721917354457 0.035487350746815895 0.054069370257207025 0.03573561668075596" fill="none" stroke="#000000" stroke-width="0.001"/>
</g><g transform="translate(0.33734345282867073,0.4105932426665432) rotate(0) scale(1,1) translate(-0.05619588048696845,-0.03573561482763549)"><path d="M 0.054600997814647376 0.03573561621747583 C 0.054639925341274535 0.0356416368547429 0.055201035023533386 0.03447495697532058 0.0550681281341733 0.03460786386468067 C 0.055201035023533386 0.03447495697532058 0.05638383921243431 0.03414073354515475 0.056195880486968455 0.03414073354515475 C 0.05638383921243431 0.03414073354515475 0.0574565397291237 0.03474077075404076 0.05732363283976361 0.03460786386468067 C 0.0574565397291237 0.03474077075404076 0.057829690685916695 0.035829595580208755 0.057790763159289535 0.03573561621747583" fill="none" stroke="none" stroke-width="0"/>
<path d="M 0.057790763159289535 0.03573561621747583 C 0.05777414984654269 0.03592181566793088 0.0575581767808337 0.03834240852384656 0.05759140340632739 0.03797000962293645 C 0.0575581767808337 0.03834240852384656 0.05737543034061839 0.04039060247885213 0.05739204365336524 0.040204403028397076" fill="none" stroke="#000000" stroke-width="0.001"/>
<path d="M 0.05739204365336524 0.040204403028397076 C 0.05737868903026308 0.04025424316033028 0.0571819480442061 0.040888810252359714 0.0572317881761393 0.040802484611595476 C 0.0571819480442061 0.040888810252359714 0.0567076364294026 0.04129015084950114 0.05679396207016684 0.04124031071756794 C 0.0567076364294026 0.04129015084950114 0.05609620022310204 0.041400566194793875 0.05619588048696844 0.041400566194793875 C 0.05609620022310204 0.041400566194793875 0.0555114732630058 0.041190470585634735 0.05559779890377004 0.04124031071756794 C 0.0555114732630058 0.041190470585634735 0.055110132665864384 0.04071615897083124 0.05515997279779758 0.040802484611595476 C 0.055110132665864384 0.04071615897083124 0.05498636269746949 0.04015456289646387 0.05499971732057165 0.040204403028397076" fill="none" stroke="#000000" stroke-width="0.001"/>
<path d="M 0.05499971732057165 0.040204403028397076 C 0.0549831040078248 0.04001820357794202 0.05476713094211583 0.037597610722026345 0.054800357567609516 0.03797000962293645 C 0.05476713094211583 0.037597610722026345 0.05458438450190053 0.035549416767020774 0.054600997814647376 0.03573561621747583" fill="none" stroke="#000000" stroke-width="0.001"/>
</g><g transform="translate(0.33734345282867073,0.41506203086730475) rotate(0) scale(1,1) translate(-0.05619588048696845,-0.03573561482763549)"><path d="M 0.054999718482727646 0.03573561587001575 C 0.05502891412769802 0.035665131347966054 0.05544974638939216 0.03479012143839932 0.05535006622237209 0.034889801605419386 C 0.05544974638939216 0.03479012143839932 0.05633684953106785 0.03453945386577495 0.056195880486968455 0.03453945386577495 C 0.05633684953106785 0.03453945386577495 0.05714137491858489 0.034989481772439456 0.05704169475156482 0.034889801605419386 C 0.05714137491858489 0.034989481772439456 0.057421238136179636 0.03580610039206545 0.057392042491209265 0.03573561587001575" fill="none" stroke="none" stroke-width="0"/>
<path d="M 0.057392042491209265 0.03573561587001575 C 0.05737958250664913 0.03587526545785704 0.057217602707367386 0.037690710099793794 0.057242522676487655 0.03741141092411122 C 0.057217602707367386 0.037690710099793794 0.05708054287720591 0.039226855566047956 0.057093002861766044 0.03908720597820667" fill="none" stroke="#000000" stroke-width="0.001"/>
<path d="M 0.057093002861766044 0.03908720597820667 C 0.05707724450585194 0.039244095980429806 0.056868436621376056 0.0413292873358123 0.05690390259079679 0.04096988600488435 C 0.056868436621376056 0.0413292873358123 0.05660840938673149 0.043900109394489066 0.056667411228717185 0.04340002194934212 C 0.05660840938673149 0.043900109394489066 0.056117292030010334 0.0469709353466477 0.056195880486968455 0.0469709353466477 C 0.056117292030010334 0.0469709353466477 0.055665347903234026 0.04289993450419518 0.05572434974521972 0.04340002194934212 C 0.055665347903234026 0.04289993450419518 0.055452392413719374 0.04061048467395639 0.05548785838314011 0.04096988600488435 C 0.055452392413719374 0.04061048467395639 0.05528299975625675 0.03893031597598353 0.05529875811217085 0.03908720597820667" fill="none" stroke="#000000" stroke-width="0.001"/>
<path d="M 0.05529875811217085 0.03908720597820667 C 0.05528629812761072 0.03894755639036538 0.05512431832832898 0.03713211174842864 0.05514923829744925 0.03741141092411122 C 0.05512431832832898 0.03713211174842864 0.05498725849816751 0.035595966282174464 0.054999718482727646 0.03573561587001575" fill="none" stroke="#000000" stroke-width="0.001"/>
</g></g>
<g id="左2">
<g transform="translate(0.3286312671082704,0.34795646945731884) rotate(0) scale(1,1) translate(-0.056195880486968545,-0.035735621827330186)"><path d="M 0.05064853496892342 0.035735621827330186 C 0.05078393329264431 0.03540874135788064 0.05273559364674447 0.03135077740076525 0.05227331485357404 0.03181305619393568 C 0.05273559364674447 0.03135077740076525 0.05684964142586763 0.030188276309285063 0.056195880486968545 0.030188276309285063 C 0.05684964142586763 0.030188276309285063 0.06058072491353348 0.03227533498710611 0.06011844612036305 0.03181305619393568 C 0.06058072491353348 0.03227533498710611 0.061878624328734554 0.03606250229677973 0.06174322600501367 0.035735621827330186" fill="none" stroke="none" stroke-width="0"/>
<path d="M 0.06174322600501367 0.035735621827330186 C 0.061685441324293565 0.03638326362874312 0.06093424047493224 0.04480260704711124 0.06104980983637244 0.04350732344428537 C 0.06093424047493224 0.04480260704711124 0.06029860898701114 0.051926666862653494 0.06035639366773124 0.05127902506124056" fill="none" stroke="#000000" stroke-width="0.001"/>
<path d="M 0.06035639366773124 0.05127902506124056 C 0.060309943411611056 0.05145237977710567 0.05962563587842392 0.05365954082723197 0.05979899059428903 0.053359281651621925 C 0.05962563587842392 0.05365954082723197 0.05797587790173983 0.05505548988442619 0.058276137077349875 0.05488213516856108 C 0.05797587790173983 0.05505548988442619 0.05584917105523828 0.05543953824200329 0.05619588048696851 0.05543953824200329 C 0.05584917105523828 0.05543953824200329 0.0538153647209771 0.05470878045269597 0.054115623896587146 0.05488213516856108 C 0.0538153647209771 0.05470878045269597 0.05241941566378288 0.05305902247601188 0.05259277037964799 0.053359281651621925 C 0.05241941566378288 0.05305902247601188 0.0519889170500856 0.05110567034537545 0.05203536730620578 0.05127902506124056" fill="none" stroke="#000000" stroke-width="0.001"/>
<path d="M 0.05203536730620578 0.05127902506124056 C 0.051977582625485685 0.05063138325982763 0.051226381776124416 0.042212039841459506 0.05134195113756461 0.04350732344428537 C 0.051226381776124416 0.042212039841459506 0.050590750288203326 0.03508798002591725 0.05064853496892342 0.035735621827330186" fill="none" stroke="#000000" stroke-width="0.001"/>
</g><g transform="translate(0.32863126710827034,0.3634998726912292) rotate(0) scale(1,1) translate(-0.05619588048696845,-0.03573561482763549)"><path d="M 0.05203537134843465 0.03573561845325861 C 0.052136920091225315 0.03549045810117145 0.053600665356800435 0.03244698513333491 0.053253956261922614 0.03279369422821273 C 0.053600665356800435 0.03244698513333491 0.0566862011911428 0.03157510931472477 0.05619588048696849 0.03157510931472477 C 0.0566862011911428 0.03157510931472477 0.05948451380689219 0.03314040332309055 0.059137804712014366 0.03279369422821273 C 0.05948451380689219 0.03314040332309055 0.06045793836829299 0.03598077880534577 0.06035638962550233 0.03573561845325861" fill="none" stroke="none" stroke-width="0"/>
<path d="M 0.06035638962550233 0.03573561845325861 C 0.06031305111496225 0.036221349804318306 0.05974965047794126 0.04253585736809439 0.05983632749902141 0.041564394665974995 C 0.05974965047794126 0.04253585736809439 0.05927292686200043 0.04787890222975107 0.059316265372540505 0.047393170878691375" fill="none" stroke="#000000" stroke-width="0.001"/>
<path d="M 0.059316265372540505 0.047393170878691375 C 0.05928142768045037 0.04752318691559021 0.058768197030560014 0.049178557703184925 0.05889821306745885 0.04895336332147739 C 0.058768197030560014 0.049178557703184925 0.057530878548046956 0.050225519496080596 0.05775607292975449 0.05009550345918176 C 0.057530878548046956 0.050225519496080596 0.0559358484131708 0.05051355576426342 0.05619588048696847 0.05051355576426342 C 0.0559358484131708 0.05051355576426342 0.05441049366247491 0.049965487422282934 0.054635688044182444 0.05009550345918177 C 0.05441049366247491 0.049965487422282934 0.05336353186957924 0.04872816893976987 0.053493547906478076 0.0489533633214774 C 0.05336353186957924 0.04872816893976987 0.05304065790930628 0.04726315484179254 0.05307549560139642 0.047393170878691375" fill="none" stroke="#000000" stroke-width="0.001"/>
<path d="M 0.05307549560139642 0.047393170878691375 C 0.05303215709085635 0.04690743952763168 0.05246875645383539 0.0405929319638556 0.052555433474915536 0.041564394665974995 C 0.05246875645383539 0.0405929319638556 0.05199203283789458 0.03524988710219891 0.05203537134843465 0.03573561845325861" fill="none" stroke="#000000" stroke-width="0.001"/>
</g><g transform="translate(0.32863126710827034,0.3751574287422851) rotate(0) scale(1,1) translate(-0.05619588048696845,-0.03573561482763549)"><path d="M 0.0530754986330681 0.035735617546852824 C 0.05315166019016109 0.035551747282787455 0.05424946913934243 0.033269142556910054 0.053989437318184064 0.03352917437806842 C 0.05424946913934243 0.033269142556910054 0.0565636210150992 0.032615235692952445 0.05619588048696847 0.032615235692952445 C 0.0565636210150992 0.032615235692952445 0.058662355476911246 0.033789206199226776 0.05840232365575288 0.03352917437806841 C 0.058662355476911246 0.033789206199226776 0.05939242389796185 0.035919487810918194 0.059316262340868856 0.035735617546852824" fill="none" stroke="none" stroke-width="0"/>
<path d="M 0.059316262340868856 0.035735617546852824 C 0.0592837584579638 0.0360999160601476 0.05886120798019805 0.04083579673297966 0.05892621574600817 0.04010719970639011 C 0.05886120798019805 0.04083579673297966 0.058503665268242425 0.04484308037922217 0.05853616915114748 0.044478781865927394" fill="none" stroke="#000000" stroke-width="0.001"/>
<path d="M 0.05853616915114748 0.044478781865927394 C 0.05851004088207988 0.04457629389360152 0.05812511789466211 0.045817821984297555 0.05822262992233624 0.04564892619801691 C 0.05812511789466211 0.045817821984297555 0.05719712903277732 0.04660304332896931 0.05736602481905797 0.04650553130129518 C 0.05719712903277732 0.04660304332896931 0.0560008564316202 0.04681907053010642 0.056195880486968455 0.04681907053010642 C 0.0560008564316202 0.04681907053010642 0.054856840368598295 0.04640801927362105 0.05502573615487894 0.04650553130129518 C 0.054856840368598295 0.04640801927362105 0.05407161902392654 0.04548003041173626 0.05416913105160067 0.04564892619801691 C 0.05407161902392654 0.04548003041173626 0.05382946355372182 0.044381269838253266 0.05385559182278942 0.044478781865927394" fill="none" stroke="#000000" stroke-width="0.001"/>
<path d="M 0.05385559182278942 0.044478781865927394 C 0.05382308793988436 0.04411448335263262 0.053400537462118654 0.03937860267980056 0.05346554522792876 0.04010719970639011 C 0.053400537462118654 0.03937860267980056 0.05304299475016304 0.03537131903355805 0.0530754986330681 0.035735617546852824" fill="none" stroke="#000000" stroke-width="0.001"/>
</g><g transform="translate(0.32863126710827034,0.383900595780577) rotate(0) scale(1,1) translate(-0.05619588048696845,-0.03573561482763549)"><path d="M 0.0538555940965432 0.035735616867048486 C 0.05391271526436295 0.03559771416899946 0.05473607197624895 0.0338857606245914 0.05454104811038017 0.034080784490460175 C 0.05473607197624895 0.0338857606245914 0.05647168588306654 0.03339533047662319 0.05619588048696848 0.03339533047662319 C 0.05647168588306654 0.03339533047662319 0.05804573672942557 0.03427580835632895 0.057850712863556794 0.034080784490460175 C 0.05804573672942557 0.03427580835632895 0.05859328804521351 0.03587351956509751 0.05853616687739376 0.035735616867048486" fill="none" stroke="none" stroke-width="0"/>
<path d="M 0.05853616687739376 0.035735616867048486 C 0.05851178896521497 0.036008840752019565 0.058194876106890656 0.03956075125664362 0.05824363193124824 0.03901430348670146 C 0.058194876106890656 0.03956075125664362 0.05792671907292394 0.042566213991325506 0.05795109698510273 0.04229299010635443" fill="none" stroke="#000000" stroke-width="0.001"/>
<path d="M 0.05795109698510273 0.04229299010635443 C 0.057931500783302024 0.04236612412711002 0.057642808542738705 0.04329727019513205 0.0577159425634943 0.043170598355421565 C 0.057642808542738705 0.04329727019513205 0.05694681689632511 0.043886186203635866 0.05707348873603559 0.04381305218288027 C 0.05694681689632511 0.043886186203635866 0.05604961244545727 0.0440482066044887 0.056195880486968455 0.0440482066044887 C 0.05604961244545727 0.0440482066044887 0.055191600398190835 0.04373991816212468 0.05531827223790132 0.04381305218288027 C 0.055191600398190835 0.04373991816212468 0.05460268438968702 0.04304392651571108 0.05467581841044261 0.043170598355421565 C 0.05460268438968702 0.04304392651571108 0.05442106778703348 0.042219856085598834 0.05444066398883418 0.04229299010635443" fill="none" stroke="#000000" stroke-width="0.001"/>
<path d="M 0.05444066398883418 0.04229299010635443 C 0.05441628607665539 0.04201976622138335 0.05409937321833111 0.03846785571675929 0.05414812904268869 0.03901430348670146 C 0.05409937321833111 0.03846785571675929 0.05383121618436441 0.03546239298207741 0.0538555940965432 0.035735616867048486" fill="none" stroke="#000000" stroke-width="0.001"/>
</g><g transform="translate(0.32863126710827034,0.3904579710592959) rotate(0) scale(1,1) translate(-0.05619588048696845,-0.03573561482763549)"><path d="M 0.0544406656941495 0.035735616357195236 C 0.054483506570014315 0.03563218933365847 0.055101024103928815 0.034348224175352424 0.054954756204527236 0.034494492074754 C 0.055101024103928815 0.034348224175352424 0.05640273453404201 0.03398040156437627 0.05619588048696847 0.03398040156437627 C 0.05640273453404201 0.03398040156437627 0.05758327266881128 0.03464075997415558 0.0574370047694097 0.034494492074754 C 0.05758327266881128 0.03464075997415558 0.057993936155652244 0.035839043380732 0.05795109527978743 0.035735616357195236" fill="none" stroke="none" stroke-width="0"/>
<path d="M 0.05795109527978743 0.035735616357195236 C 0.05793281184565333 0.035940534270923544 0.057695127201910106 0.038604467149391586 0.057731694070178294 0.038194631321934965 C 0.057695127201910106 0.038604467149391586 0.057494009426435067 0.04085856420040299 0.057512292860569164 0.040653646286674686" fill="none" stroke="#000000" stroke-width="0.001"/>
<path d="M 0.057512292860569164 0.040653646286674686 C 0.05749759570921864 0.04070849680224138 0.057281076528796146 0.04140685635325791 0.05733592704436284 0.04131185247347504 C 0.057281076528796146 0.04140685635325791 0.05675908279398594 0.04184854335963577 0.05685408667376881 0.04179369284406907 C 0.05675908279398594 0.04184854335963577 0.056086179455835064 0.041970058660275394 0.056195880486968455 0.041970058660275394 C 0.056086179455835064 0.041970058660275394 0.05544267042038523 0.041738842328502376 0.0555376743001681 0.04179369284406907 C 0.05544267042038523 0.041738842328502376 0.05500098341400737 0.04121684859369217 0.05505583392957407 0.04131185247347504 C 0.05500098341400737 0.04121684859369217 0.05486477096201722 0.04059879577110799 0.054879468113367746 0.040653646286674686" fill="none" stroke="#000000" stroke-width="0.001"/>
<path d="M 0.054879468113367746 0.040653646286674686 C 0.054861184679233656 0.04044872837294638 0.05462350003549044 0.03778479549447834 0.05466006690375863 0.038194631321934965 C 0.05462350003549044 0.03778479549447834 0.0544223822600154 0.03553069844346693 0.0544406656941495 0.035735616357195236" fill="none" stroke="#000000" stroke-width="0.001"/>
</g><g transform="translate(0.32863126710827034,0.3953760025183351) rotate(0) scale(1,1) translate(-0.05619588048696845,-0.03573561482763549)"><path d="M 0.05487946939235423 0.03573561597480529 C 0.05491160004925284 0.03565804570715271 0.05537473819968872 0.034695071838423186 0.055265037275137534 0.03480477276297437 C 0.05537473819968872 0.034695071838423186 0.05635102102227361 0.03441920488019107 0.056195880486968455 0.03441920488019107 C 0.05635102102227361 0.03441920488019107 0.05723642462335056 0.03491447368752555 0.05712672369879938 0.03480477276297437 C 0.05723642462335056 0.03491447368752555 0.05754442223848129 0.03581318624245787 0.05751229158158268 0.03573561597480529" fill="none" stroke="none" stroke-width="0"/>
<path d="M 0.05751229158158268 0.03573561597480529 C 0.057498579005982105 0.035889304410101526 0.057320315523174695 0.037887254068952554 0.057347740674375834 0.03757987719836009 C 0.057320315523174695 0.037887254068952554 0.0571694771915684 0.039577826857211125 0.057183189767168977 0.03942413842191489" fill="none" stroke="#000000" stroke-width="0.001"/>
<path d="M 0.057183189767168977 0.03942413842191489 C 0.057172166903656084 0.03946527630858991 0.05700977751833921 0.0399890459718523 0.05705091540501423 0.03991779306201515 C 0.05700977751833921 0.0399890459718523 0.05661828221723156 0.040320311226635694 0.05668953512706871 0.04027917333996067 C 0.05661828221723156 0.040320311226635694 0.056113604713618405 0.04041144770211541 0.05619588048696845 0.04041144770211541 C 0.056113604713618405 0.04041144770211541 0.05563097293703104 0.04023803545328565 0.05570222584686819 0.04027917333996067 C 0.05563097293703104 0.04023803545328565 0.055299707682247644 0.039846540152178 0.055340845568922666 0.03991779306201515 C 0.055299707682247644 0.039846540152178 0.05519754834325503 0.03938300053523987 0.05520857120676792 0.03942413842191489" fill="none" stroke="#000000" stroke-width="0.001"/>
<path d="M 0.05520857120676792 0.03942413842191489 C 0.055194858631167354 0.039270449986618654 0.055016595148359944 0.037272500327767626 0.05504402029956108 0.03757987719836009 C 0.055016595148359944 0.037272500327767626 0.05486575681675366 0.035581927539509055 0.05487946939235423 0.03573561597480529" fill="none" stroke="#000000" stroke-width="0.001"/>
</g><g transform="translate(0.32863126710827034,0.3990645261126145) rotate(0) scale(1,1) translate(-0.05619588048696845,-0.03573561482763549)"><path d="M 0.05520857216600779 0.035735615688012846 C 0.055232670158681746 0.035677437987273415 0.055580023771508655 0.03495520758572627 0.055497748078095266 0.03503748327913966 C 0.055580023771508655 0.03495520758572627 0.05631223588844732 0.034748307367052186 0.056195880486968455 0.034748307367052186 C 0.05631223588844732 0.034748307367052186 0.056976288589255034 0.035119758972553046 0.056894012895841645 0.03503748327913966 C 0.056976288589255034 0.035119758972553046 0.05720728680060309 0.03579379338875228 0.05718318880792913 0.035735615688012846" fill="none" stroke="none" stroke-width="0"/>
<path d="M 0.05718318880792913 0.035735615688012846 C 0.0571729043762287 0.03585088201448502 0.057039206764123135 0.03734934425862329 0.05705977562752399 0.03711881160567894 C 0.057039206764123135 0.03734934425862329 0.056926078015418415 0.03861727384981721 0.056936362447118846 0.03850200752334504" fill="none" stroke="#000000" stroke-width="0.001"/>
<path d="M 0.056936362447118846 0.03850200752334504 C 0.056923355550173874 0.03863150403311652 0.056751006185209646 0.04035261435819412 0.05678027968377915 0.0400559656406028 C 0.056751006185209646 0.04035261435819412 0.05653638053121731 0.042474562724086055 0.05658508046428487 0.04206179213444096 C 0.05653638053121731 0.042474562724086055 0.056131013824082386 0.04500921271634398 0.056195880486968455 0.04500921271634398 C 0.056131013824082386 0.04500921271634398 0.05575798057658448 0.04164902154479586 0.05580668050965204 0.04206179213444096 C 0.05575798057658448 0.04164902154479586 0.05558220779158826 0.039759316923011476 0.05561148129015776 0.0400559656406028 C 0.05558220779158826 0.039759316923011476 0.05544239162987308 0.03837251101357356 0.05545539852681805 0.03850200752334504" fill="none" stroke="#000000" stroke-width="0.001"/>
<path d="M 0.05545539852681805 0.03850200752334504 C 0.055445114095117626 0.03838674119687287 0.05531141648301207 0.03688827895273459 0.055331985346412926 0.03711881160567894 C 0.05531141648301207 0.03688827895273459 0.055198287734307364 0.035620349361540675 0.05520857216600779 0.035735615688012846" fill="none" stroke="#000000" stroke-width="0.001"/>
</g></g>
<g id="左1">
<g transform="translate(0.3233860610957253,0.33819357732199945) rotate(0) scale(1,1) translate(-0.056195880486968545,-0.035735621827330186)"><path d="M 0.05064853496892342 0.035735621827330186 C 0.05078393329264431 0.03540874135788064 0.05273559364674447 0.03135077740076525 0.05227331485357404 0.03181305619393568 C 0.05273559364674447 0.03135077740076525 0.05684964142586763 0.030188276309285063 0.056195880486968545 0.030188276309285063 C 0.05684964142586763 0.030188276309285063 0.06058072491353348 0.03227533498710611 0.06011844612036305 0.03181305619393568 C 0.06058072491353348 0.03227533498710611 0.061878624328734554 0.03606250229677973 0.06174322600501367 0.035735621827330186" fill="none" stroke="none" stroke-width="0"/>
<path d="M 0.06174322600501367 0.035735621827330186 C 0.061685441324293565 0.036253735268460534 0.06093424047493224 0.042989210003155025 0.06104980983637244 0.041952983120894335 C 0.06093424047493224 0.042989210003155025 0.06029860898701114 0.04868845785558883 0.06035639366773124 0.048170344414458485" fill="none" stroke="#000000" stroke-width="0.001"/>
<path d="M 0.06035639366773124 0.048170344414458485 C 0.060309943411611056 0.048343699130323596 0.05962563587842392 0.050550860180449894 0.05979899059428903 0.05025060100483985 C 0.05962563587842392 0.050550860180449894 0.05797587790173983 0.051946809237644116 0.058276137077349875 0.051773454521779005 C 0.05797587790173983 0.051946809237644116 0.05584917105523828 0.052330857595221214 0.05619588048696851 0.052330857595221214 C 0.05584917105523828 0.052330857595221214 0.0538153647209771 0.051600099805913895 0.054115623896587146 0.051773454521779005 C 0.0538153647209771 0.051600099805913895 0.05241941566378288 0.049950341829229805 0.05259277037964799 0.05025060100483985 C 0.05241941566378288 0.049950341829229805 0.0519889170500856 0.047996989698593374 0.05203536730620578 0.048170344414458485" fill="none" stroke="#000000" stroke-width="0.001"/>
<path d="M 0.05203536730620578 0.048170344414458485 C 0.051977582625485685 0.04765223097332814 0.051226381776124416 0.040916756238633646 0.05134195113756461 0.041952983120894335 C 0.051226381776124416 0.040916756238633646 0.050590750288203326 0.03521750838619984 0.05064853496892342 0.035735621827330186" fill="none" stroke="#000000" stroke-width="0.001"/>
</g><g transform="translate(0.32338606109572526,0.35062829990912775) rotate(0) scale(1,1) translate(-0.05619588048696845,-0.03573561482763549)"><path d="M 0.05203537134843465 0.03573561772813398 C 0.052136920091225315 0.03549045737604682 0.053600665356800435 0.03244698440821028 0.053253956261922614 0.032793693503088105 C 0.053600665356800435 0.03244698440821028 0.0566862011911428 0.031575108589600144 0.05619588048696849 0.031575108589600144 C 0.0566862011911428 0.031575108589600144 0.05948451380689219 0.033140402597965926 0.059137804712014366 0.032793693503088105 C 0.05948451380689219 0.033140402597965926 0.06045793836829299 0.03598077808022114 0.06035638962550233 0.03573561772813398" fill="none" stroke="none" stroke-width="0"/>
<path d="M 0.06035638962550233 0.03573561772813398 C 0.06031305111496225 0.03612420280898174 0.05974965047794126 0.04117580886000261 0.05983632749902141 0.04039863869830709 C 0.05974965047794126 0.04117580886000261 0.05927292686200043 0.045450244749327955 0.059316265372540505 0.0450616596684802" fill="none" stroke="#000000" stroke-width="0.001"/>
<path d="M 0.059316265372540505 0.0450616596684802 C 0.05928142768045037 0.045191675705379034 0.058768197030560014 0.04684704649297375 0.05889821306745885 0.04662185211126622 C 0.058768197030560014 0.04684704649297375 0.057530878548046956 0.04789400828586942 0.05775607292975449 0.047763992248970585 C 0.057530878548046956 0.04789400828586942 0.0559358484131708 0.04818204455405224 0.05619588048696847 0.04818204455405224 C 0.0559358484131708 0.04818204455405224 0.05441049366247491 0.04763397621207176 0.054635688044182444 0.04776399224897059 C 0.05441049366247491 0.04763397621207176 0.05336353186957924 0.04639665772955869 0.053493547906478076 0.046621852111266224 C 0.05336353186957924 0.04639665772955869 0.05304065790930628 0.044931643631581364 0.05307549560139642 0.0450616596684802" fill="none" stroke="#000000" stroke-width="0.001"/>
<path d="M 0.05307549560139642 0.0450616596684802 C 0.05303215709085635 0.04467307458763244 0.05246875645383539 0.039621468536611575 0.052555433474915536 0.04039863869830709 C 0.05246875645383539 0.039621468536611575 0.05199203283789458 0.035347032647286225 0.05203537134843465 0.03573561772813398" fill="none" stroke="#000000" stroke-width="0.001"/>
</g><g transform="translate(0.32338606109572526,0.35995434474997245) rotate(0) scale(1,1) translate(-0.05619588048696845,-0.03573561482763549)"><path d="M 0.0530754986330681 0.035735617003009354 C 0.05315166019016109 0.035551746738943985 0.05424946913934243 0.033269142013066584 0.053989437318184064 0.03352917383422495 C 0.05424946913934243 0.033269142013066584 0.0565636210150992 0.032615235149108975 0.05619588048696847 0.032615235149108975 C 0.0565636210150992 0.032615235149108975 0.058662355476911246 0.033789205655383306 0.05840232365575288 0.03352917383422494 C 0.058662355476911246 0.033789205655383306 0.05939242389796185 0.03591948726707472 0.059316262340868856 0.035735617003009354" fill="none" stroke="none" stroke-width="0"/>
<path d="M 0.059316262340868856 0.035735617003009354 C 0.0592837584579638 0.036027055813645174 0.05886120798019805 0.039815760351910826 0.05892621574600817 0.039232882730639185 C 0.05886120798019805 0.039815760351910826 0.058503665268242425 0.043021587268904836 0.05853616915114748 0.042730148458269016" fill="none" stroke="#000000" stroke-width="0.001"/>
<path d="M 0.05853616915114748 0.042730148458269016 C 0.05851004088207988 0.04282766048594314 0.05812511789466211 0.044069188576639176 0.05822262992233624 0.04390029279035853 C 0.05812511789466211 0.044069188576639176 0.05719712903277732 0.04485440992131093 0.05736602481905797 0.0447568978936368 C 0.05719712903277732 0.04485440992131093 0.0560008564316202 0.04507043712244804 0.056195880486968455 0.04507043712244804 C 0.0560008564316202 0.04507043712244804 0.054856840368598295 0.04465938586596267 0.05502573615487894 0.0447568978936368 C 0.054856840368598295 0.04465938586596267 0.05407161902392654 0.04373139700407788 0.05416913105160067 0.04390029279035853 C 0.05407161902392654 0.04373139700407788 0.05382946355372182 0.04263263643059489 0.05385559182278942 0.042730148458269016" fill="none" stroke="#000000" stroke-width="0.001"/>
<path d="M 0.05385559182278942 0.042730148458269016 C 0.05382308793988436 0.042438709647633195 0.053400537462118654 0.038650005109367544 0.05346554522792876 0.039232882730639185 C 0.053400537462118654 0.038650005109367544 0.05304299475016304 0.035444178192373534 0.0530754986330681 0.035735617003009354" fill="none" stroke="#000000" stroke-width="0.001"/>
</g><g transform="translate(0.32338606109572526,0.36694887838060597) rotate(0) scale(1,1) translate(-0.05619588048696845,-0.03573561482763549)"><path d="M 0.0538555940965432 0.035735616459165884 C 0.05391271526436295 0.03559771376111686 0.05473607197624895 0.0338857602167088 0.05454104811038017 0.03408078408257757 C 0.05473607197624895 0.0338857602167088 0.05647168588306654 0.03339533006874059 0.05619588048696848 0.03339533006874059 C 0.05647168588306654 0.03339533006874059 0.05804573672942557 0.03427580794844635 0.057850712863556794 0.03408078408257757 C 0.05804573672942557 0.03427580794844635 0.05859328804521351 0.03587351915721491 0.05853616687739376 0.035735616459165884" fill="none" stroke="none" stroke-width="0"/>
<path d="M 0.05853616687739376 0.035735616459165884 C 0.05851178896521497 0.03595419556714275 0.058194876106890656 0.03879572397084199 0.05824363193124824 0.03835856575488826 C 0.058194876106890656 0.03879572397084199 0.05792671907292394 0.041200094158587504 0.05795109698510273 0.04098151505061064" fill="none" stroke="#000000" stroke-width="0.001"/>
<path d="M 0.05795109698510273 0.04098151505061064 C 0.057931500783302024 0.04105464907136623 0.057642808542738705 0.04198579513938826 0.0577159425634943 0.041859123299677774 C 0.057642808542738705 0.04198579513938826 0.05694681689632511 0.042574711147892075 0.05707348873603559 0.04250157712713648 C 0.05694681689632511 0.042574711147892075 0.05604961244545727 0.04273673154874491 0.056195880486968455 0.04273673154874491 C 0.05604961244545727 0.04273673154874491 0.055191600398190835 0.042428443106380886 0.05531827223790132 0.04250157712713648 C 0.055191600398190835 0.042428443106380886 0.05460268438968702 0.04173245145996729 0.05467581841044261 0.041859123299677774 C 0.05460268438968702 0.04173245145996729 0.05442106778703348 0.04090838102985504 0.05444066398883418 0.04098151505061064" fill="none" stroke="#000000" stroke-width="0.001"/>
<path d="M 0.05444066398883418 0.04098151505061064 C 0.05441628607665539 0.04076293594263377 0.05409937321833111 0.03792140753893453 0.05414812904268869 0.03835856575488826 C 0.05409937321833111 0.03792140753893453 0.05383121618436441 0.03551703735118902 0.0538555940965432 0.035735616459165884" fill="none" stroke="#000000" stroke-width="0.001"/>
</g><g transform="translate(0.32338606109572526,0.37219477860358113) rotate(0) scale(1,1) translate(-0.05619588048696845,-0.03573561482763549)"><path d="M 0.0544406656941495 0.03573561605128329 C 0.054483506570014315 0.03563218902774652 0.055101024103928815 0.034348223869440475 0.054954756204527236 0.034494491768842055 C 0.055101024103928815 0.034348223869440475 0.05640273453404201 0.03398040125846432 0.05619588048696847 0.03398040125846432 C 0.05640273453404201 0.03398040125846432 0.05758327266881128 0.034640759668243634 0.0574370047694097 0.034494491768842055 C 0.05758327266881128 0.034640759668243634 0.057993936155652244 0.035839043074820054 0.05795109527978743 0.03573561605128329" fill="none" stroke="none" stroke-width="0"/>
<path d="M 0.05795109527978743 0.03573561605128329 C 0.05793281184565333 0.035899550382265936 0.057695127201910106 0.03803069668504037 0.057731694070178294 0.03770282802307507 C 0.057695127201910106 0.03803069668504037 0.057494009426435067 0.039833974325849494 0.057512292860569164 0.039670039994866846" fill="none" stroke="#000000" stroke-width="0.001"/>
<path d="M 0.057512292860569164 0.039670039994866846 C 0.05749759570921864 0.03972489051043354 0.057281076528796146 0.04042325006145007 0.05733592704436284 0.0403282461816672 C 0.057281076528796146 0.04042325006145007 0.05675908279398594 0.04086493706782793 0.05685408667376881 0.04081008655226123 C 0.05675908279398594 0.04086493706782793 0.056086179455835064 0.040986452368467555 0.056195880486968455 0.040986452368467555 C 0.056086179455835064 0.040986452368467555 0.05544267042038523 0.04075523603669454 0.0555376743001681 0.04081008655226123 C 0.05544267042038523 0.04075523603669454 0.05500098341400737 0.04023324230188433 0.05505583392957407 0.0403282461816672 C 0.05500098341400737 0.04023324230188433 0.05486477096201722 0.03961518947930015 0.054879468113367746 0.039670039994866846" fill="none" stroke="#000000" stroke-width="0.001"/>
<path d="M 0.054879468113367746 0.039670039994866846 C 0.054861184679233656 0.0395061056638842 0.05462350003549044 0.03737495936110977 0.05466006690375863 0.03770282802307507 C 0.05462350003549044 0.03737495936110977 0.0544223822600154 0.03557168172030064 0.0544406656941495 0.03573561605128329" fill="none" stroke="#000000" stroke-width="0.001"/>
</g><g transform="translate(0.32338606109572526,0.3761292037708125) rotate(0) scale(1,1) translate(-0.05619588048696845,-0.03573561482763549)"><path d="M 0.05487946939235423 0.03573561574537133 C 0.05491160004925284 0.03565804547771875 0.05537473819968872 0.03469507160898923 0.055265037275137534 0.03480477253354041 C 0.05537473819968872 0.03469507160898923 0.05635102102227361 0.03441920465075711 0.056195880486968455 0.03441920465075711 C 0.05635102102227361 0.03441920465075711 0.05723642462335056 0.034914473458091594 0.05712672369879938 0.03480477253354041 C 0.05723642462335056 0.034914473458091594 0.05754442223848129 0.03581318601302391 0.05751229158158268 0.03573561574537133" fill="none" stroke="none" stroke-width="0"/>
<path d="M 0.05751229158158268 0.03573561574537133 C 0.057498579005982105 0.035858566493608315 0.057320315523174695 0.03745692622068914 0.057347740674375834 0.03721102472421517 C 0.057320315523174695 0.03745692622068914 0.0571694771915684 0.03880938445129599 0.057183189767168977 0.038686433703059006" fill="none" stroke="#000000" stroke-width="0.001"/>
<path d="M 0.057183189767168977 0.038686433703059006 C 0.057172166903656084 0.03872757158973403 0.05700977751833921 0.03925134125299642 0.05705091540501423 0.03918008834315927 C 0.05700977751833921 0.03925134125299642 0.05661828221723156 0.03958260650777981 0.05668953512706871 0.03954146862110479 C 0.05661828221723156 0.03958260650777981 0.056113604713618405 0.03967374298325953 0.05619588048696845 0.03967374298325953 C 0.056113604713618405 0.03967374298325953 0.05563097293703104 0.03950033073442977 0.05570222584686819 0.03954146862110479 C 0.05563097293703104 0.03950033073442977 0.055299707682247644 0.039108835433322116 0.055340845568922666 0.03918008834315927 C 0.055299707682247644 0.039108835433322116 0.05519754834325503 0.038645295816383984 0.05520857120676792 0.038686433703059006" fill="none" stroke="#000000" stroke-width="0.001"/>
<path d="M 0.05520857120676792 0.038686433703059006 C 0.055194858631167354 0.03856348295482202 0.055016595148359944 0.036965123227741196 0.05504402029956108 0.03721102472421517 C 0.055016595148359944 0.036965123227741196 0.05486575681675366 0.03561266499713435 0.05487946939235423 0.03573561574537133" fill="none" stroke="#000000" stroke-width="0.001"/>
</g><g transform="translate(0.32338606109572526,0.379080022646236) rotate(0) scale(1,1) translate(-0.05619588048696845,-0.03573561482763549)"><path d="M 0.05520857216600779 0.035735615515937375 C 0.055232670158681746 0.03567743781519794 0.055580023771508655 0.034955207413650796 0.055497748078095266 0.035037483107064185 C 0.055580023771508655 0.034955207413650796 0.05631223588844732 0.034748307194976714 0.056195880486968455 0.034748307194976714 C 0.05631223588844732 0.034748307194976714 0.056976288589255034 0.035119758800477574 0.056894012895841645 0.035037483107064185 C 0.056976288589255034 0.035119758800477574 0.05720728680060309 0.035793793216676806 0.05718318880792913 0.035735615515937375" fill="none" stroke="none" stroke-width="0"/>
<path d="M 0.05718318880792913 0.035735615515937375 C 0.0571729043762287 0.03582782857711511 0.057039206764123135 0.03702659837242573 0.05705977562752399 0.03684217225007025 C 0.057039206764123135 0.03702659837242573 0.056926078015418415 0.03804094204538087 0.056936362447118846 0.03794872898420313" fill="none" stroke="#000000" stroke-width="0.001"/>
<path d="M 0.056936362447118846 0.03794872898420313 C 0.056923355550173874 0.038052326192020314 0.056751006185209646 0.039429214452082396 0.05678027968377915 0.03919189547800934 C 0.056751006185209646 0.039429214452082396 0.05653638053121731 0.041126773144795944 0.05658508046428487 0.04079655667307987 C 0.05653638053121731 0.041126773144795944 0.056131013824082386 0.04315449313860228 0.056195880486968455 0.04315449313860228 C 0.056131013824082386 0.04315449313860228 0.05575798057658448 0.04046634020136379 0.05580668050965204 0.04079655667307987 C 0.05575798057658448 0.04046634020136379 0.05558220779158826 0.03895457650393628 0.05561148129015776 0.03919189547800934 C 0.05558220779158826 0.03895457650393628 0.05544239162987308 0.037845131776385946 0.05545539852681805 0.03794872898420313" fill="none" stroke="#000000" stroke-width="0.001"/>
<path d="M 0.05545539852681805 0.03794872898420313 C 0.055445114095117626 0.03785651592302539 0.05531141648301207 0.03665774612771477 0.055331985346412926 0.03684217225007025 C 0.05531141648301207 0.03665774612771477 0.055198287734307364 0.03564340245475964 0.05520857216600779 0.035735615515937375" fill="none" stroke="#000000" stroke-width="0.001"/>
</g></g>
<g id="右2">
<g transform="translate(0.34605563854907156,0.34795646945731884) rotate(0) scale(1,1) translate(-0.056195880486968545,-0.035735621827330186)"><path d="M 0.05064853496892342 0.035735621827330186 C 0.05078393329264431 0.03540874135788064 0.05273559364674447 0.03135077740076525 0.05227331485357404 0.03181305619393568 C 0.05273559364674447 0.03135077740076525 0.05684964142586763 0.030188276309285063 0.056195880486968545 0.030188276309285063 C 0.05684964142586763 0.030188276309285063 0.06058072491353348 0.03227533498710611 0.06011844612036305 0.03181305619393568 C 0.06058072491353348 0.03227533498710611 0.061878624328734554 0.03606250229677973 0.06174322600501367 0.035735621827330186" fill="none" stroke="none" stroke-width="0"/>
<path d="M 0.06174322600501367 0.035735621827330186 C 0.061685441324293565 0.03638326362874312 0.06093424047493224 0.04480260704711124 0.06104980983637244 0.04350732344428537 C 0.06093424047493224 0.04480260704711124 0.06029860898701114 0.051926666862653494 0.06035639366773124 0.05127902506124056" fill="none" stroke="#000000" stroke-width="0.001"/>
<path d="M 0.06035639366773124 0.05127902506124056 C 0.060309943411611056 0.05145237977710567 0.05962563587842392 0.05365954082723197 0.05979899059428903 0.053359281651621925 C 0.05962563587842392 0.05365954082723197 0.05797587790173983 0.05505548988442619 0.058276137077349875 0.05488213516856108 C 0.05797587790173983 0.05505548988442619 0.05584917105523828 0.05543953824200329 0.05619588048696851 0.05543953824200329 C 0.05584917105523828 0.05543953824200329 0.0538153647209771 0.05470878045269597 0.054115623896587146 0.05488213516856108 C 0.0538153647209771 0.05470878045269597 0.05241941566378288 0.05305902247601188 0.05259277037964799 0.053359281651621925 C 0.05241941566378288 0.05305902247601188 0.0519889170500856 0.05110567034537545 0.05203536730620578 0.05127902506124056" fill="none" stroke="#000000" stroke-width="0.001"/>
<path d="M 0.05203536730620578 0.05127902506124056 C 0.051977582625485685 0.05063138325982763 0.051226381776124416 0.042212039841459506 0.05134195113756461 0.04350732344428537 C 0.051226381776124416 0.042212039841459506 0.050590750288203326 0.03508798002591725 0.05064853496892342 0.035735621827330186" fill="none" stroke="#000000" stroke-width="0.001"/>
</g><g transform="translate(0.3460556385490715,0.3634998726912292) rotate(0) scale(1,1) translate(-0.05619588048696845,-0.03573561482763549)"><path d="M 0.05203537134843465 0.03573561845325861 C 0.052136920091225315 0.03549045810117145 0.053600665356800435 0.03244698513333491 0.053253956261922614 0.03279369422821273 C 0.053600665356800435 0.03244698513333491 0.0566862011911428 0.03157510931472477 0.05619588048696849 0.03157510931472477 C 0.0566862011911428 0.03157510931472477 0.05948451380689219 0.03314040332309055 0.059137804712014366 0.03279369422821273 C 0.05948451380689219 0.03314040332309055 0.06045793836829299 0.03598077880534577 0.06035638962550233 0.03573561845325861" fill="none" stroke="none" stroke-width="0"/>
<path d="M 0.06035638962550233 0.03573561845325861 C 0.06031305111496225 0.036221349804318306 0.05974965047794126 0.04253585736809439 0.05983632749902141 0.041564394665974995 C 0.05974965047794126 0.04253585736809439 0.05927292686200043 0.04787890222975107 0.059316265372540505 0.047393170878691375" fill="none" stroke="#000000" stroke-width="0.001"/>
<path d="M 0.059316265372540505 0.047393170878691375 C 0.05928142768045037 0.04752318691559021 0.058768197030560014 0.049178557703184925 0.05889821306745885 0.04895336332147739 C 0.058768197030560014 0.049178557703184925 0.057530878548046956 0.050225519496080596 0.05775607292975449 0.05009550345918176 C 0.057530878548046956 0.050225519496080596 0.0559358484131708 0.05051355576426342 0.05619588048696847 0.05051355576426342 C 0.0559358484131708 0.05051355576426342 0.05441049366247491 0.049965487422282934 0.054635688044182444 0.05009550345918177 C 0.05441049366247491 0.049965487422282934 0.05336353186957924 0.04872816893976987 0.053493547906478076 0.0489533633214774 C 0.05336353186957924 0.04872816893976987 0.05304065790930628 0.04726315484179254 0.05307549560139642 0.047393170878691375" fill="none" stroke="#000000" stroke-width="0.001"/>
<path d="M 0.05307549560139642 0.047393170878691375 C 0.05303215709085635 0.04690743952763168 0.05246875645383539 0.0405929319638556 0.052555433474915536 0.041564394665974995 C 0.05246875645383539 0.0405929319638556 0.05199203283789458 0.03524988710219891 0.05203537134843465 0.03573561845325861" fill="none" stroke="#000000" stroke-width="0.001"/>
</g><g transform="translate(0.3460556385490715,0.3751574287422851) rotate(0) scale(1,1) translate(-0.05619588048696845,-0.03573561482763549)"><path d="M 0.0530754986330681 0.035735617546852824 C 0.05315166019016109 0.035551747282787455 0.05424946913934243 0.033269142556910054 0.053989437318184064 0.03352917437806842 C 0.05424946913934243 0.033269142556910054 0.0565636210150992 0.032615235692952445 0.05619588048696847 0.032615235692952445 C 0.0565636210150992 0.032615235692952445 0.058662355476911246 0.033789206199226776 0.05840232365575288 0.03352917437806841 C 0.058662355476911246 0.033789206199226776 0.05939242389796185 0.035919487810918194 0.059316262340868856 0.035735617546852824" fill="none" stroke="none" stroke-width="0"/>
<path d="M 0.059316262340868856 0.035735617546852824 C 0.0592837584579638 0.0360999160601476 0.05886120798019805 0.04083579673297966 0.05892621574600817 0.04010719970639011 C 0.05886120798019805 0.04083579673297966 0.058503665268242425 0.04484308037922217 0.05853616915114748 0.044478781865927394" fill="none" stroke="#000000" stroke-width="0.001"/>
<path d="M 0.05853616915114748 0.044478781865927394 C 0.05851004088207988 0.04457629389360152 0.05812511789466211 0.045817821984297555 0.05822262992233624 0.04564892619801691 C 0.05812511789466211 0.045817821984297555 0.05719712903277732 0.04660304332896931 0.05736602481905797 0.04650553130129518 C 0.05719712903277732 0.04660304332896931 0.0560008564316202 0.04681907053010642 0.056195880486968455 0.04681907053010642 C 0.0560008564316202 0.04681907053010642 0.054856840368598295 0.04640801927362105 0.05502573615487894 0.04650553130129518 C 0.054856840368598295 0.04640801927362105 0.05407161902392654 0.04548003041173626 0.05416913105160067 0.04564892619801691 C 0.05407161902392654 0.04548003041173626 0.05382946355372182 0.044381269838253266 0.05385559182278942 0.044478781865927394" fill="none" stroke="#000000" stroke-width="0.001"/>
<path d="M 0.05385559182278942 0.044478781865927394 C 0.05382308793988436 0.04411448335263262 0.053400537462118654 0.03937860267980056 0.05346554522792876 0.04010719970639011 C 0.053400537462118654 0.03937860267980056 0.05304299475016304 0.03537131903355805 0.0530754986330681 0.035735617546852824" fill="none" stroke="#000000" stroke-width="0.001"/>
</g><g transform="translate(0.3460556385490715,0.383900595780577) rotate(0) scale(1,1) translate(-0.05619588048696845,-0.03573561482763549)"><path d="M 0.0538555940965432 0.035735616867048486 C 0.05391271526436295 0.03559771416899946 0.05473607197624895 0.0338857606245914 0.05454104811038017 0.034080784490460175 C 0.05473607197624895 0.0338857606245914 0.05647168588306654 0.03339533047662319 0.05619588048696848 0.03339533047662319 C 0.05647168588306654 0.03339533047662319 0.05804573672942557 0.03427580835632895 0.057850712863556794 0.034080784490460175 C 0.05804573672942557 0.03427580835632895 0.05859328804521351 0.03587351956509751 0.05853616687739376 0.035735616867048486" fill="none" stroke="none" stroke-width="0"/>
<path d="M 0.05853616687739376 0.035735616867048486 C 0.05851178896521497 0.036008840752019565 0.058194876106890656 0.03956075125664362 0.05824363193124824 0.03901430348670146 C 0.058194876106890656 0.03956075125664362 0.05792671907292394 0.042566213991325506 0.05795109698510273 0.04229299010635443" fill="none" stroke="#000000" stroke-width="0.001"/>
<path d="M 0.05795109698510273 0.04229299010635443 C 0.057931500783302024 0.04236612412711002 0.057642808542738705 0.04329727019513205 0.0577159425634943 0.043170598355421565 C 0.057642808542738705 0.04329727019513205 0.05694681689632511 0.043886186203635866 0.05707348873603559 0.04381305218288027 C 0.05694681689632511 0.043886186203635866 0.05604961244545727 0.0440482066044887 0.056195880486968455 0.0440482066044887 C 0.05604961244545727 0.0440482066044887 0.055191600398190835 0.04373991816212468 0.05531827223790132 0.04381305218288027 C 0.055191600398190835 0.04373991816212468 0.05460268438968702 0.04304392651571108 0.05467581841044261 0.043170598355421565 C 0.05460268438968702 0.04304392651571108 0.05442106778703348 0.042219856085598834 0.05444066398883418 0.04229299010635443" fill="none" stroke="#000000" stroke-width="0.001"/>
<path d="M 0.05444066398883418 0.04229299010635443 C 0.05441628607665539 0.04201976622138335 0.05409937321833111 0.03846785571675929 0.05414812904268869 0.03901430348670146 C 0.05409937321833111 0.03846785571675929 0.05383121618436441 0.03546239298207741 0.0538555940965432 0.035735616867048486" fill="none" stroke="#000000" stroke-width="0.001"/>
</g><g transform="translate(0.3460556385490715,0.3904579710592959) rotate(0) scale(1,1) translate(-0.05619588048696845,-0.03573561482763549)"><path d="M 0.0544406656941495 0.035735616357195236 C 0.054483506570014315 0.03563218933365847 0.055101024103928815 0.034348224175352424 0.054954756204527236 0.034494492074754 C 0.055101024103928815 0.034348224175352424 0.05640273453404201 0.03398040156437627 0.05619588048696847 0.03398040156437627 C 0.05640273453404201 0.03398040156437627 0.05758327266881128 0.03464075997415558 0.0574370047694097 0.034494492074754 C 0.05758327266881128 0.03464075997415558 0.057993936155652244 0.035839043380732 0.05795109527978743 0.035735616357195236" fill="none" stroke="none" stroke-width="0"/>
<path d="M 0.05795109527978743 0.035735616357195236 C 0.05793281184565333 0.035940534270923544 0.057695127201910106 0.038604467149391586 0.057731694070178294 0.038194631321934965 C 0.057695127201910106 0.038604467149391586 0.057494009426435067 0.04085856420040299 0.057512292860569164 0.040653646286674686" fill="none" stroke="#000000" stroke-width="0.001"/>
<path d="M 0.057512292860569164 0.040653646286674686 C 0.05749759570921864 0.04070849680224138 0.057281076528796146 0.04140685635325791 0.05733592704436284 0.04131185247347504 C 0.057281076528796146 0.04140685635325791 0.05675908279398594 0.04184854335963577 0.05685408667376881 0.04179369284406907 C 0.05675908279398594 0.04184854335963577 0.056086179455835064 0.041970058660275394 0.056195880486968455 0.041970058660275394 C 0.056086179455835064 0.041970058660275394 0.05544267042038523 0.041738842328502376 0.0555376743001681 0.04179369284406907 C 0.05544267042038523 0.041738842328502376 0.05500098341400737 0.04121684859369217 0.05505583392957407 0.04131185247347504 C 0.05500098341400737 0.04121684859369217 0.05486477096201722 0.04059879577110799 0.054879468113367746 0.040653646286674686" fill="none" stroke="#000000" stroke-width="0.001"/>
<path d="M 0.054879468113367746 0.040653646286674686 C 0.054861184679233656 0.04044872837294638 0.05462350003549044 0.03778479549447834 0.05466006690375863 0.038194631321934965 C 0.05462350003549044 0.03778479549447834 0.0544223822600154 0.03553069844346693 0.0544406656941495 0.035735616357195236" fill="none" stroke="#000000" stroke-width="0.001"/>
</g><g transform="translate(0.3460556385490715,0.3953760025183351) rotate(0) scale(1,1) translate(-0.05619588048696845,-0.03573561482763549)"><path d="M 0.05487946939235423 0.03573561597480529 C 0.05491160004925284 0.03565804570715271 0.05537473819968872 0.034695071838423186 0.055265037275137534 0.03480477276297437 C 0.05537473819968872 0.034695071838423186 0.05635102102227361 0.03441920488019107 0.056195880486968455 0.03441920488019107 C 0.05635102102227361 0.03441920488019107 0.05723642462335056 0.03491447368752555 0.05712672369879938 0.03480477276297437 C 0.05723642462335056 0.03491447368752555 0.05754442223848129 0.03581318624245787 0.05751229158158268 0.03573561597480529" fill="none" stroke="none" stroke-width="0"/>
<path d="M 0.05751229158158268 0.03573561597480529 C 0.057498579005982105 0.035889304410101526 0.057320315523174695 0.037887254068952554 0.057347740674375834 0.03757987719836009 C 0.057320315523174695 0.037887254068952554 0.0571694771915684 0.039577826857211125 0.057183189767168977 0.03942413842191489" fill="none" stroke="#000000" stroke-width="0.001"/>
<path d="M 0.057183189767168977 0.03942413842191489 C 0.057172166903656084 0.03946527630858991 0.05700977751833921 0.0399890459718523 0.05705091540501423 0.03991779306201515 C 0.05700977751833921 0.0399890459718523 0.05661828221723156 0.040320311226635694 0.05668953512706871 0.04027917333996067 C 0.05661828221723156 0.040320311226635694 0.056113604713618405 0.04041144770211541 0.05619588048696845 0.04041144770211541 C 0.056113604713618405 0.04041144770211541 0.05563097293703104 0.04023803545328565 0.05570222584686819 0.04027917333996067 C 0.05563097293703104 0.04023803545328565 0.055299707682247644 0.039846540152178 0.055340845568922666 0.03991779306201515 C 0.055299707682247644 0.039846540152178 0.05519754834325503 0.03938300053523987 0.05520857120676792 0.03942413842191489" fill="none" stroke="#000000" stroke-width="0.001"/>
<path d="M 0.05520857120676792 0.03942413842191489 C 0.055194858631167354 0.039270449986618654 0.055016595148359944 0.037272500327767626 0.05504402029956108 0.03757987719836009 C 0.055016595148359944 0.037272500327767626 0.05486575681675366 0.035581927539509055 0.05487946939235423 0.03573561597480529" fill="none" stroke="#000000" stroke-width="0.001"/>
</g><g transform="translate(0.3460556385490715,0.3990645261126145) rotate(0) scale(1,1) translate(-0.05619588048696845,-0.03573561482763549)"><path d="M 0.05520857216600779 0.035735615688012846 C 0.055232670158681746 0.035677437987273415 0.055580023771508655 0.03495520758572627 0.055497748078095266 0.03503748327913966 C 0.055580023771508655 0.03495520758572627 0.05631223588844732 0.034748307367052186 0.056195880486968455 0.034748307367052186 C 0.05631223588844732 0.034748307367052186 0.056976288589255034 0.035119758972553046 0.056894012895841645 0.03503748327913966 C 0.056976288589255034 0.035119758972553046 0.05720728680060309 0.03579379338875228 0.05718318880792913 0.035735615688012846" fill="none" stroke="none" stroke-width="0"/>
<path d="M 0.05718318880792913 0.035735615688012846 C 0.0571729043762287 0.03585088201448502 0.057039206764123135 0.03734934425862329 0.05705977562752399 0.03711881160567894 C 0.057039206764123135 0.03734934425862329 0.056926078015418415 0.03861727384981721 0.056936362447118846 0.03850200752334504" fill="none" stroke="#000000" stroke-width="0.001"/>
<path d="M 0.056936362447118846 0.03850200752334504 C 0.056923355550173874 0.03863150403311652 0.056751006185209646 0.04035261435819412 0.05678027968377915 0.0400559656406028 C 0.056751006185209646 0.04035261435819412 0.05653638053121731 0.042474562724086055 0.05658508046428487 0.04206179213444096 C 0.05653638053121731 0.042474562724086055 0.056131013824082386 0.04500921271634398 0.056195880486968455 0.04500921271634398 C 0.056131013824082386 0.04500921271634398 0.05575798057658448 0.04164902154479586 0.05580668050965204 0.04206179213444096 C 0.05575798057658448 0.04164902154479586 0.05558220779158826 0.039759316923011476 0.05561148129015776 0.0400559656406028 C 0.05558220779158826 0.039759316923011476 0.05544239162987308 0.03837251101357356 0.05545539852681805 0.03850200752334504" fill="none" stroke="#000000" stroke-width="0.001"/>
<path d="M 0.05545539852681805 0.03850200752334504 C 0.055445114095117626 0.03838674119687287 0.05531141648301207 0.03688827895273459 0.055331985346412926 0.03711881160567894 C 0.05531141648301207 0.03688827895273459 0.055198287734307364 0.035620349361540675 0.05520857216600779 0.035735615688012846" fill="none" stroke="#000000" stroke-width="0.001"/>
</g></g>
<g id="右1">
<g transform="translate(0.3513008445616165,0.33819357732199945) rotate(0) scale(1,1) translate(-0.056195880486968545,-0.035735621827330186)"><path d="M 0.05064853496892342 0.035735621827330186 C 0.05078393329264431 0.03540874135788064 0.05273559364674447 0.03135077740076525 0.05227331485357404 0.03181305619393568 C 0.05273559364674447 0.03135077740076525 0.05684964142586763 0.030188276309285063 0.056195880486968545 0.030188276309285063 C 0.05684964142586763 0.030188276309285063 0.06058072491353348 0.03227533498710611 0.06011844612036305 0.03181305619393568 C 0.06058072491353348 0.03227533498710611 0.061878624328734554 0.03606250229677973 0.06174322600501367 0.035735621827330186" fill="none" stroke="none" stroke-width="0"/>
<path d="M 0.06174322600501367 0.035735621827330186 C 0.061685441324293565 0.036253735268460534 0.06093424047493224 0.042989210003155025 0.06104980983637244 0.041952983120894335 C 0.06093424047493224 0.042989210003155025 0.06029860898701114 0.04868845785558883 0.06035639366773124 0.048170344414458485" fill="none" stroke="#000000" stroke-width="0.001"/>
<path d="M 0.06035639366773124 0.048170344414458485 C 0.060309943411611056 0.048343699130323596 0.05962563587842392 0.050550860180449894 0.05979899059428903 0.05025060100483985 C 0.05962563587842392 0.050550860180449894 0.05797587790173983 0.051946809237644116 0.058276137077349875 0.051773454521779005 C 0.05797587790173983 0.051946809237644116 0.05584917105523828 0.052330857595221214 0.05619588048696851 0.052330857595221214 C 0.05584917105523828 0.052330857595221214 0.0538153647209771 0.051600099805913895 0.054115623896587146 0.051773454521779005 C 0.0538153647209771 0.051600099805913895 0.05241941566378288 0.049950341829229805 0.05259277037964799 0.05025060100483985 C 0.05241941566378288 0.049950341829229805 0.0519889170500856 0.047996989698593374 0.05203536730620578 0.048170344414458485" fill="none" stroke="#000000" stroke-width="0.001"/>
<path d="M 0.05203536730620578 0.048170344414458485 C 0.051977582625485685 0.04765223097332814 0.051226381776124416 0.040916756238633646 0.05134195113756461 0.041952983120894335 C 0.051226381776124416 0.040916756238633646 0.050590750288203326 0.03521750838619984 0.05064853496892342 0.035735621827330186" fill="none" stroke="#000000" stroke-width="0.001"/>
</g><g transform="translate(0.3513008445616164,0.35062829990912775) rotate(0) scale(1,1) translate(-0.05619588048696845,-0.03573561482763549)"><path d="M 0.05203537134843465 0.03573561772813398 C 0.052136920091225315 0.03549045737604682 0.053600665356800435 0.03244698440821028 0.053253956261922614 0.032793693503088105 C 0.053600665356800435 0.03244698440821028 0.0566862011911428 0.031575108589600144 0.05619588048696849 0.031575108589600144 C 0.0566862011911428 0.031575108589600144 0.05948451380689219 0.033140402597965926 0.059137804712014366 0.032793693503088105 C 0.05948451380689219 0.033140402597965926 0.06045793836829299 0.03598077808022114 0.06035638962550233 0.03573561772813398" fill="none" stroke="none" stroke-width="0"/>
<path d="M 0.06035638962550233 0.03573561772813398 C 0.06031305111496225 0.03612420280898174 0.05974965047794126 0.04117580886000261 0.05983632749902141 0.04039863869830709 C 0.05974965047794126 0.04117580886000261 0.05927292686200043 0.045450244749327955 0.059316265372540505 0.0450616596684802" fill="none" stroke="#000000" stroke-width="0.001"/>
<path d="M 0.059316265372540505 0.0450616596684802 C 0.05928142768045037 0.045191675705379034 0.058768197030560014 0.04684704649297375 0.05889821306745885 0.04662185211126622 C 0.058768197030560014 0.04684704649297375 0.057530878548046956 0.04789400828586942 0.05775607292975449 0.047763992248970585 C 0.057530878548046956 0.04789400828586942 0.0559358484131708 0.04818204455405224 0.05619588048696847 0.04818204455405224 C 0.0559358484131708 0.04818204455405224 0.05441049366247491 0.04763397621207176 0.054635688044182444 0.04776399224897059 C 0.05441049366247491 0.04763397621207176 0.05336353186957924 0.04639665772955869 0.053493547906478076 0.046621852111266224 C 0.05336353186957924 0.04639665772955869 0.05304065790930628 0.044931643631581364 0.05307549560139642 0.0450616596684802" fill="none" stroke="#000000" stroke-width="0.001"/>
<path d="M 0.05307549560139642 0.0450616596684802 C 0.05303215709085635 0.04467307458763244 0.05246875645383539 0.039621468536611575 0.052555433474915536 0.04039863869830709 C 0.05246875645383539 0.039621468536611575 0.05199203283789458 0.035347032647286225 0.05203537134843465 0.03573561772813398" fill="none" stroke="#000000" stroke-width="0.001"/>
</g><g transform="translate(0.3513008445616164,0.35995434474997245) rotate(0) scale(1,1) translate(-0.05619588048696845,-0.03573561482763549)"><path d="M 0.0530754986330681 0.035735617003009354 C 0.05315166019016109 0.035551746738943985 0.05424946913934243 0.033269142013066584 0.053989437318184064 0.03352917383422495 C 0.05424946913934243 0.033269142013066584 0.0565636210150992 0.032615235149108975 0.05619588048696847 0.032615235149108975 C 0.0565636210150992 0.032615235149108975 0.058662355476911246 0.033789205655383306 0.05840232365575288 0.03352917383422494 C 0.058662355476911246 0.033789205655383306 0.05939242389796185 0.03591948726707472 0.059316262340868856 0.035735617003009354" fill="none" stroke="none" stroke-width="0"/>
<path d="M 0.059316262340868856 0.035735617003009354 C 0.0592837584579638 0.036027055813645174 0.05886120798019805 0.039815760351910826 0.05892621574600817 0.039232882730639185 C 0.05886120798019805 0.039815760351910826 0.058503665268242425 0.043021587268904836 0.05853616915114748 0.042730148458269016" fill="none" stroke="#000000" stroke-width="0.001"/>
<path d="M 0.05853616915114748 0.042730148458269016 C 0.05851004088207988 0.04282766048594314 0.05812511789466211 0.044069188576639176 0.05822262992233624 0.04390029279035853 C 0.05812511789466211 0.044069188576639176 0.05719712903277732 0.04485440992131093 0.05736602481905797 0.0447568978936368 C 0.05719712903277732 0.04485440992131093 0.0560008564316202 0.04507043712244804 0.056195880486968455 0.04507043712244804 C 0.0560008564316202 0.04507043712244804 0.054856840368598295 0.04465938586596267 0.05502573615487894 0.0447568978936368 C 0.054856840368598295 0.04465938586596267 0.05407161902392654 0.04373139700407788 0.05416913105160067 0.04390029279035853 C 0.05407161902392654 0.04373139700407788 0.05382946355372182 0.04263263643059489 0.05385559182278942 0.042730148458269016" fill="none" stroke="#000000" stroke-width="0.001"/>
<path d="M 0.05385559182278942 0.042730148458269016 C 0.05382308793988436 0.042438709647633195 0.053400537462118654 0.038650005109367544 0.05346554522792876 0.039232882730639185 C 0.053400537462118654 0.038650005109367544 0.05304299475016304 0.035444178192373534 0.0530754986330681 0.035735617003009354" fill="none" stroke="#000000" stroke-width="0.001"/>
</g><g transform="translate(0.3513008445616164,0.36694887838060597) rotate(0) scale(1,1) translate(-0.05619588048696845,-0.03573561482763549)"><path d="M 0.0538555940965432 0.035735616459165884 C 0.05391271526436295 0.03559771376111686 0.05473607197624895 0.0338857602167088 0.05454104811038017 0.03408078408257757 C 0.05473607197624895 0.0338857602167088 0.05647168588306654 0.03339533006874059 0.05619588048696848 0.03339533006874059 C 0.05647168588306654 0.03339533006874059 0.05804573672942557 0.03427580794844635 0.057850712863556794 0.03408078408257757 C 0.05804573672942557 0.03427580794844635 0.05859328804521351 0.03587351915721491 0.05853616687739376 0.035735616459165884" fill="none" stroke="none" stroke-width="0"/>
<path d="M 0.05853616687739376 0.035735616459165884 C 0.05851178896521497 0.03595419556714275 0.058194876106890656 0.03879572397084199 0.05824363193124824 0.03835856575488826 C 0.058194876106890656 0.03879572397084199 0.05792671907292394 0.041200094158587504 0.05795109698510273 0.04098151505061064" fill="none" stroke="#000000" stroke-width="0.001"/>
<path d="M 0.05795109698510273 0.04098151505061064 C 0.057931500783302024 0.04105464907136623 0.057642808542738705 0.04198579513938826 0.0577159425634943 0.041859123299677774 C 0.057642808542738705 0.04198579513938826 0.05694681689632511 0.042574711147892075 0.05707348873603559 0.04250157712713648 C 0.05694681689632511 0.042574711147892075 0.05604961244545727 0.04273673154874491 0.056195880486968455 0.04273673154874491 C 0.05604961244545727 0.04273673154874491 0.055191600398190835 0.042428443106380886 0.05531827223790132 0.04250157712713648 C 0.055191600398190835 0.042428443106380886 0.05460268438968702 0.04173245145996729 0.05467581841044261 0.041859123299677774 C 0.05460268438968702 0.04173245145996729 0.05442106778703348 0.04090838102985504 0.05444066398883418 0.04098151505061064" fill="none" stroke="#000000" stroke-width="0.001"/>
<path d="M 0.05444066398883418 0.04098151505061064 C 0.05441628607665539 0.04076293594263377 0.05409937321833111 0.03792140753893453 0.05414812904268869 0.03835856575488826 C 0.05409937321833111 0.03792140753893453 0.05383121618436441 0.03551703735118902 0.0538555940965432 0.035735616459165884" fill="none" stroke="#000000" stroke-width="0.001"/>
</g><g transform="translate(0.3513008445616164,0.37219477860358113) rotate(0) scale(1,1) translate(-0.05619588048696845,-0.03573561482763549)"><path d="M 0.0544406656941495 0.03573561605128329 C 0.054483506570014315 0.03563218902774652 0.055101024103928815 0.034348223869440475 0.054954756204527236 0.034494491768842055 C 0.055101024103928815 0.034348223869440475 0.05640273453404201 0.03398040125846432 0.05619588048696847 0.03398040125846432 C 0.05640273453404201 0.03398040125846432 0.05758327266881128 0.034640759668243634 0.0574370047694097 0.034494491768842055 C 0.05758327266881128 0.034640759668243634 0.057993936155652244 0.035839043074820054 0.05795109527978743 0.03573561605128329" fill="none" stroke="none" stroke-width="0"/>
<path d="M 0.05795109527978743 0.03573561605128329 C 0.05793281184565333 0.035899550382265936 0.057695127201910106 0.03803069668504037 0.057731694070178294 0.03770282802307507 C 0.057695127201910106 0.03803069668504037 0.057494009426435067 0.039833974325849494 0.057512292860569164 0.039670039994866846" fill="none" stroke="#000000" stroke-width="0.001"/>
<path d="M 0.057512292860569164 0.039670039994866846 C 0.05749759570921864 0.03972489051043354 0.057281076528796146 0.04042325006145007 0.05733592704436284 0.0403282461816672 C 0.057281076528796146 0.04042325006145007 0.05675908279398594 0.04086493706782793 0.05685408667376881 0.04081008655226123 C 0.05675908279398594 0.04086493706782793 0.056086179455835064 0.040986452368467555 0.056195880486968455 0.040986452368467555 C 0.056086179455835064 0.040986452368467555 0.05544267042038523 0.04075523603669454 0.0555376743001681 0.04081008655226123 C 0.05544267042038523 0.04075523603669454 0.05500098341400737 0.04023324230188433 0.05505583392957407 0.0403282461816672 C 0.05500098341400737 0.04023324230188433 0.05486477096201722 0.03961518947930015 0.054879468113367746 0.039670039994866846" fill="none" stroke="#000000" stroke-width="0.001"/>
<path d="M 0.054879468113367746 0.039670039994866846 C 0.054861184679233656 0.0395061056638842 0.05462350003549044 0.03737495936110977 0.05466006690375863 0.03770282802307507 C 0.05462350003549044 0.03737495936110977 0.0544223822600154 0.03557168172030064 0.0544406656941495 0.03573561605128329" fill="none" stroke="#000000" stroke-width="0.001"/>
</g><g transform="translate(0.3513008445616164,0.3761292037708125) rotate(0) scale(1,1) translate(-0.05619588048696845,-0.03573561482763549)"><path d="M 0.05487946939235423 0.03573561574537133 C 0.05491160004925284 0.03565804547771875 0.05537473819968872 0.03469507160898923 0.055265037275137534 0.03480477253354041 C 0.05537473819968872 0.03469507160898923 0.05635102102227361 0.03441920465075711 0.056195880486968455 0.03441920465075711 C 0.05635102102227361 0.03441920465075711 0.05723642462335056 0.034914473458091594 0.05712672369879938 0.03480477253354041 C 0.05723642462335056 0.034914473458091594 0.05754442223848129 0.03581318601302391 0.05751229158158268 0.03573561574537133" fill="none" stroke="none" stroke-width="0"/>
<path d="M 0.05751229158158268 0.03573561574537133 C 0.057498579005982105 0.035858566493608315 0.057320315523174695 0.03745692622068914 0.057347740674375834 0.03721102472421517 C 0.057320315523174695 0.03745692622068914 0.0571694771915684 0.03880938445129599 0.057183189767168977 0.038686433703059006" fill="none" stroke="#000000" stroke-width="0.001"/>
<path d="M 0.057183189767168977 0.038686433703059006 C 0.057172166903656084 0.03872757158973403 0.05700977751833921 0.03925134125299642 0.05705091540501423 0.03918008834315927 C 0.05700977751833921 0.03925134125299642 0.05661828221723156 0.03958260650777981 0.05668953512706871 0.03954146862110479 C 0.05661828221723156 0.03958260650777981 0.056113604713618405 0.03967374298325953 0.05619588048696845 0.03967374298325953 C 0.056113604713618405 0.03967374298325953 0.05563097293703104 0.03950033073442977 0.05570222584686819 0.03954146862110479 C 0.05563097293703104 0.03950033073442977 0.055299707682247644 0.039108835433322116 0.055340845568922666 0.03918008834315927 C 0.055299707682247644 0.039108835433322116 0.05519754834325503 0.038645295816383984 0.05520857120676792 0.038686433703059006" fill="none" stroke="#000000" stroke-width="0.001"/>
<path d="M 0.05520857120676792 0.038686433703059006 C 0.055194858631167354 0.03856348295482202 0.055016595148359944 0.036965123227741196 0.05504402029956108 0.03721102472421517 C 0.055016595148359944 0.036965123227741196 0.05486575681675366 0.03561266499713435 0.05487946939235423 0.03573561574537133" fill="none" stroke="#000000" stroke-width="0.001"/>
</g><g transform="translate(0.3513008445616164,0.379080022646236) rotate(0) scale(1,1) translate(-0.05619588048696845,-0.03573561482763549)"><path d="M 0.05520857216600779 0.035735615515937375 C 0.055232670158681746 0.03567743781519794 0.055580023771508655 0.034955207413650796 0.055497748078095266 0.035037483107064185 C 0.055580023771508655 0.034955207413650796 0.05631223588844732 0.034748307194976714 0.056195880486968455 0.034748307194976714 C 0.05631223588844732 0.034748307194976714 0.056976288589255034 0.035119758800477574 0.056894012895841645 0.035037483107064185 C 0.056976288589255034 0.035119758800477574 0.05720728680060309 0.035793793216676806 0.05718318880792913 0.035735615515937375" fill="none" stroke="none" stroke-width="0"/>
<path d="M 0.05718318880792913 0.035735615515937375 C 0.0571729043762287 0.03582782857711511 0.057039206764123135 0.03702659837242573 0.05705977562752399 0.03684217225007025 C 0.057039206764123135 0.03702659837242573 0.056926078015418415 0.03804094204538087 0.056936362447118846 0.03794872898420313" fill="none" stroke="#000000" stroke-width="0.001"/>
<path d="M 0.056936362447118846 0.03794872898420313 C 0.056923355550173874 0.038052326192020314 0.056751006185209646 0.039429214452082396 0.05678027968377915 0.03919189547800934 C 0.056751006185209646 0.039429214452082396 0.05653638053121731 0.041126773144795944 0.05658508046428487 0.04079655667307987 C 0.05653638053121731 0.041126773144795944 0.056131013824082386 0.04315449313860228 0.056195880486968455 0.04315449313860228 C 0.056131013824082386 0.04315449313860228 0.05575798057658448 0.04046634020136379 0.05580668050965204 0.04079655667307987 C 0.05575798057658448 0.04046634020136379 0.05558220779158826 0.03895457650393628 0.05561148129015776 0.03919189547800934 C 0.05558220779158826 0.03895457650393628 0.05544239162987308 0.037845131776385946 0.05545539852681805 0.03794872898420313" fill="none" stroke="#000000" stroke-width="0.001"/>
<path d="M 0.05545539852681805 0.03794872898420313 C 0.055445114095117626 0.03785651592302539 0.05531141648301207 0.03665774612771477 0.055331985346412926 0.03684217225007025 C 0.05531141648301207 0.03665774612771477 0.055198287734307364 0.03564340245475964 0.05520857216600779 0.035735615515937375" fill="none" stroke="#000000" stroke-width="0.001"/>
</g></g>
</svg>
