<?xml version="1.0" encoding="UTF-8"?>
<svg xmlns="http://www.w3.org/2000/svg" viewBox="0 0 1 1">
<g transform="translate(0.2196617175186727,0.42439729251110114) rotate(0) scale(1,1) translate(-0.1250520382004283,-0.09500000000000001)"><path d="M 0.10982930434083357 0.10579193607878049 C 0.10937964033755104 0.10567144897223558 0.10365449540142313 0.10389642679695917 0.10443333630144327 0.1043460908002417 C 0.10365449540142313 0.10389642679695917 0.10003354953730924 0.09961712713937002 0.10048321354059177 0.10039596803939017 C 0.10003354953730924 0.09961712713937002 0.09903736826205299 0.09410067199343483 0.09903736826205299 0.09499999999999988 C 0.09903736826205299 0.09410067199343483 0.10093287754387431 0.08882519106058943 0.10048321354059178 0.08960403196060958 C 0.10093287754387431 0.08882519106058943 0.10521217720146345 0.08520424519647554 0.1044333363014433 0.08565390919975807 C 0.10521217720146345 0.08520424519647554 0.11027896834411613 0.08408757681467441 0.1098293043408336 0.08420806392121931" fill="none" stroke="#000000" stroke-width="0.001"/>
<path d="M 0.1098293043408336 0.08420806392121931 C 0.11058172649923521 0.08430699000194147 0.12012693139661917 0.08553007609087 0.11885837024165295 0.08539517688988524 C 0.12012693139661917 0.08553007609087 0.1255681771969929 0.08586282745329911 0.1250520382004283 0.08582685433303651" fill="none" stroke="#000000" stroke-width="0.001"/>
<path d="M 0.1250520382004283 0.08582685433303651 C 0.12543425260321844 0.08592926837359967 0.13030062579892715 0.0874380372225846 0.12963861103391003 0.08705582281979446 C 0.13030062579892715 0.0874380372225846 0.13337842978342396 0.09107544193153536 0.1329962153806338 0.09041342716651823 C 0.13337842978342396 0.09107544193153536 0.13422518386739177 0.09576442880558027 0.13422518386739177 0.09499999999999997 C 0.13422518386739177 0.09576442880558027 0.13261400097784365 0.10024858759849883 0.1329962153806338 0.09958657283348171 C 0.13261400097784365 0.10024858759849883 0.1289765962688929 0.10332639158299563 0.12963861103391003 0.10294417718020549 C 0.1289765962688929 0.10332639158299563 0.12466982379763815 0.10427555970752658 0.1250520382004283 0.10417314566696342" fill="none" stroke="#000000" stroke-width="0.001"/>
<path d="M 0.1250520382004283 0.10417314566696342 C 0.12453589920386368 0.10420911878722602 0.11758980908668673 0.10473972231109932 0.11885837024165295 0.10460482311011457 C 0.11758980908668673 0.10473972231109932 0.10907688218243199 0.10589086215950265 0.1098293043408336 0.10579193607878049" fill="none" stroke="#000000" stroke-width="0.001"/>
</g><g transform="translate(0.204438983659078,0.42439729251110114) rotate(0) scale(1,1) translate(-0.1303553390593274,-0.09500000000000001)"><path d="M 0.12727963727687497 0.10525233927484151 C 0.12685245647375656 0.10513787652362386 0.12141356878443506 0.10345160545711127 0.1221534676394542 0.10387878626022967 C 0.12141356878443506 0.10345160545711127 0.11797367021352687 0.0993862707824016 0.11840085101664527 0.10012616963742074 C 0.11797367021352687 0.0993862707824016 0.11702729800203343 0.09414563839376318 0.11702729800203343 0.09499999999999997 C 0.11702729800203343 0.09414563839376318 0.11882803181976365 0.08913393150756006 0.11840085101664526 0.0898738303625792 C 0.11882803181976365 0.08913393150756006 0.12289336649447333 0.08569403293665186 0.12215346763945419 0.08612121373977026 C 0.12289336649447333 0.08569403293665186 0.12770681807999337 0.08463319797394075 0.12727963727687497 0.08474766072515841" fill="none" stroke="#000000" stroke-width="0.001"/>
<path d="M 0.12727963727687497 0.08474766072515841 C 0.12740779151781048 0.08474766072515841 0.12907379664997223 0.08474766072515841 0.1288174881681012 0.08474766072515841 C 0.12907379664997223 0.08474766072515841 0.1304834933002629 0.08474766072515841 0.1303553390593274 0.08474766072515841" fill="none" stroke="#000000" stroke-width="0.001"/>
<path d="M 0.1303553390593274 0.08474766072515841 C 0.1307825198624458 0.08486212347637606 0.13622140755176732 0.08654839454288865 0.13548150869674816 0.08612121373977025 C 0.13622140755176732 0.08654839454288865 0.1396613061226755 0.09061372921759832 0.1392341253195571 0.08987383036257918 C 0.1396613061226755 0.09061372921759832 0.14060767833416893 0.09585436160623674 0.14060767833416893 0.09499999999999995 C 0.14060767833416893 0.09585436160623674 0.13880694451643869 0.10086606849243986 0.1392341253195571 0.10012616963742071 C 0.13880694451643869 0.10086606849243986 0.134741609841729 0.10430596706334805 0.13548150869674816 0.10387878626022964 C 0.134741609841729 0.10430596706334805 0.129928158256209 0.10536680202605916 0.1303553390593274 0.10525233927484151" fill="none" stroke="#000000" stroke-width="0.001"/>
<path d="M 0.1303553390593274 0.10525233927484151 C 0.13022718481839188 0.10525233927484151 0.12856117968623018 0.10525233927484151 0.1288174881681012 0.10525233927484151 C 0.12856117968623018 0.10525233927484151 0.12715148303593946 0.10525233927484151 0.12727963727687497 0.10525233927484151" fill="none" stroke="#000000" stroke-width="0.001"/>
</g><g transform="translate(0.20136328187662558,0.4243972925111011) rotate(0) scale(1,1) translate(-0.11937456409164851,-0.09500000000000001)"><path d="M 0.04655156220588218 0.10514417103369517 C 0.046127941242789766 0.10503066213873766 0.04073437761754593 0.10335844333111267 0.041468110648773246 0.10378206429420508 C 0.04073437761754593 0.10335844333111267 0.037323144868061986 0.09932698644535891 0.0377467658311544 0.10006071947658622 C 0.037323144868061986 0.09932698644535891 0.03638465909166433 0.09413002599329247 0.03638465909166433 0.09497726791947729 C 0.03638465909166433 0.09413002599329247 0.038170386794246815 0.08916008333114105 0.037746765831154404 0.08989381636236836 C 0.038170386794246815 0.08916008333114105 0.042201843680000586 0.08574885058165709 0.04146811064877327 0.0861724715447495 C 0.042201843680000586 0.08574885058165709 0.04697518316897461 0.08469685591030193 0.0465515622058822 0.08481036480525944" fill="none" stroke="#000000" stroke-width="0.001"/>
<path d="M 0.0465515622058822 0.08481036480525944 C 0.04996980968529828 0.08442938086328258 0.09363911544935569 0.08028281393788994 0.08757053195887517 0.08023855750153715 C 0.09363911544935569 0.08028281393788994 0.12202490010271295 0.08576668241982266 0.11937456409164851 0.08534144204149301" fill="none" stroke="#000000" stroke-width="0.001"/>
<path d="M 0.11937456409164851 0.08534144204149301 C 0.11977700400658631 0.08544927549170264 0.12490088945056793 0.08703788335894636 0.12420384307090199 0.08663544344400857 C 0.12490088945056793 0.08703788335894636 0.1281415605625777 0.09086776740041243 0.1277391206476399 0.09017072102074648 C 0.1281415605625777 0.09086776740041243 0.12903312205015546 0.09580487982987554 0.12903312205015546 0.09499999999999996 C 0.12903312205015546 0.09580487982987554 0.1273366807327021 0.10052632535891938 0.1277391206476399 0.09982927897925344 C 0.1273366807327021 0.10052632535891938 0.12350679669123606 0.10376699647092914 0.124203843070902 0.10336455655599135 C 0.12350679669123606 0.10376699647092914 0.11897212417671071 0.10476639140871656 0.11937456409164851 0.10465855795850693" fill="none" stroke="#000000" stroke-width="0.001"/>
<path d="M 0.11937456409164851 0.10465855795850693 C 0.11731669657157114 0.10483433791957886 0.08861157036023953 0.10680838524763578 0.09468015385072007 0.10676791749137009 C 0.08861157036023953 0.10680838524763578 0.04254084623547904 0.10500885882888893 0.0465515622058822 0.10514417103369517" fill="none" stroke="#000000" stroke-width="0.001"/>
</g><g transform="translate(0.16421528617207604,0.4235286787970393) rotate(0) scale(1,1) translate(-0.047062468445168426,-0.047062468445168426)"><path d="M 0.03450464174137965 0.059042832956980346 C 0.0345123339766906 0.05848981853353201 0.0340054760669113 0.05091817765873801 0.03459694856511111 0.05240665987560035 C 0.0340054760669113 0.05091817765873801 0.02730910960978036 0.039703733971844395 0.02740697176298188 0.041181046354632274 C 0.02730910960978036 0.039703733971844395 0.03392390530700211 0.034137066692771965 0.03342260272669286 0.034678911282145834" fill="none" stroke="none" stroke-width="0"/>
<path d="M 0.03342260272669286 0.034678911282145834 C 0.03415911147510944 0.034594638224754067 0.043832211183096575 0.0335377914277652 0.0422607077076918 0.033667634593444615 C 0.043832211183096575 0.0335377914277652 0.05367127854519536 0.033111287523540436 0.05228064443155013 0.033120793293992895 C 0.05367127854519536 0.033111287523540436 0.059503956458091596 0.03358962968585025 0.05894831707143456 0.03355356534801507" fill="none" stroke="#000000" stroke-width="0.001"/>
<path d="M 0.05894831707143456 0.03355356534801507 C 0.05839961882175673 0.03423023621893825 0.05242177860557136 0.04323419018555852 0.052363938075300646 0.041673615799093205 C 0.05242177860557136 0.04323419018555852 0.06024227504314817 0.05378254671163732 0.05964240343468312 0.05228045798559881 C 0.06024227504314817 0.05378254671163732 0.059555730205397756 0.06031686572205161 0.059562397376881245 0.05969868051155524" fill="none" stroke="none" stroke-width="0"/>
<path d="M 0.059562397376881245 0.05969868051155524 C 0.059115541995020615 0.059696751174558464 0.05301437809936375 0.059655116926251625 0.05420013279455373 0.05967552846759395 C 0.05301437809936375 0.059655116926251625 0.043692050113503564 0.05940101738956291 0.045333341034601404 0.059453742015447376 C 0.043692050113503564 0.05940101738956291 0.03360225013361117 0.05900859053544143 0.03450464174137965 0.059042832956980346" fill="none" stroke="#000000" stroke-width="0.001"/>
</g><g transform="translate(0.12854027999085926,0.4243745604305784) rotate(0) scale(1,1) translate(-0.13110578190651795,-0.09496060052712481)"><path d="M 0.10852352911003633 0.08542189166561373 C 0.10956760712051215 0.08540737671052176 0.12293431963545302 0.08530487495238857 0.12105246523574623 0.08524771220451001 C 0.12293431963545302 0.08530487495238857 0.13194355829574891 0.08617952234312709 0.13110578190651795 0.08610784464015654" fill="none" stroke="#000000" stroke-width="0.001"/>
<path d="M 0.13110578190651795 0.08610784464015654 C 0.13147464673514161 0.0862066816731025 0.13617105247430347 0.08766275386413172 0.13553215985000208 0.08729388903550804 C 0.13617105247430347 0.08766275386413172 0.13914135822675838 0.09117311520794205 0.13877249339813472 0.09053422258364066 C 0.13914135822675838 0.09117311520794205 0.13995853779348622 0.09569833018437215 0.13995853779348622 0.0949606005271248 C 0.13995853779348622 0.09569833018437215 0.13840362856951105 0.10002587109491032 0.13877249339813472 0.09938697847060893 C 0.13840362856951105 0.10002587109491032 0.1348932672257007 0.10299617684736524 0.13553215985000208 0.10262731201874156 C 0.1348932672257007 0.10299617684736524 0.13073691707789428 0.10391219344703902 0.13110578190651795 0.10381335641409306" fill="none" stroke="#000000" stroke-width="0.001"/>
<path d="M 0.13110578190651795 0.10381335641409306 C 0.13024314669223294 0.10408130585125938 0.11875711344935544 0.10731071874962425 0.12075415933509775 0.10702874966008892 C 0.11875711344935544 0.10731071874962425 0.10600682060615278 0.10721100514088608 0.10714123127761009 0.10719698548851707" fill="none" stroke="#000000" stroke-width="0.001"/>
<path d="M 0.10714123127761009 0.10719698548851707 C 0.10669529985604748 0.10704663305857154 0.10103311107284994 0.10488922916459043 0.10179005421885873 0.10539275632917079 C 0.10103311107284994 0.10488922916459043 0.09765414511413076 0.10034012062452605 0.09805791352550469 0.10115465951355258 C 0.09765414511413076 0.10034012062452605 0.0970024290253893 0.09471099408489797 0.09694483328237154 0.09561828966085227 C 0.0970024290253893 0.09471099408489797 0.09925258960629818 0.08951016945609212 0.09874906244171781 0.09026711260210091 C 0.09925258960629818 0.08951016945609212 0.10380169814636256 0.08613120349737294 0.10298715925733602 0.08653497190874687 C 0.10380169814636256 0.08613120349737294 0.108984893264428 0.08532913497868597 0.10852352911003632 0.08542189166561373" fill="none" stroke="#000000" stroke-width="0.001"/>
</g><g transform="translate(0.10526687827816453,0.425723398480519) rotate(0) scale(1,1) translate(-0.1303553390593274,-0.09500000000000001)"><path d="M 0.07462462313452539 0.10343904667458287 C 0.07426987359533008 0.10334399182204017 0.0697531844383337 0.10194363890487519 0.07036762866418163 0.1022983884440705 C 0.0697531844383337 0.10194363890487519 0.06689654288515491 0.09856760797839118 0.06725129242435023 0.0991820522042391 C 0.06689654288515491 0.09856760797839118 0.06611063419383786 0.09421555865550471 0.06611063419383786 0.09492505773389534 C 0.06611063419383786 0.09421555865550471 0.06760604196354554 0.09005361903770365 0.06725129242435023 0.09066806326355158 C 0.06760604196354554 0.09005361903770365 0.07098207289002956 0.08719697748452486 0.07036762866418163 0.08755172702372017 C 0.07098207289002956 0.08719697748452486 0.07497937267372072 0.08631601394066511 0.0746246231345254 0.08641106879320781" fill="none" stroke="#000000" stroke-width="0.001"/>
<path d="M 0.0746246231345254 0.08641106879320781 C 0.07553296819236761 0.08628308152756077 0.0895357967812864 0.0846799992362743 0.08552476382863194 0.08487522160544336 C 0.0895357967812864 0.0846799992362743 0.1266513870115186 0.08409116740201507 0.12275701856637884 0.08406840036317899 C 0.1266513870115186 0.08409116740201507 0.13304886572063648 0.08523842821383439 0.13225718517030896 0.08514842607147628" fill="none" stroke="#000000" stroke-width="0.001"/>
<path d="M 0.13225718517030896 0.08514842607147628 C 0.1327983558847083 0.0855673576164639 0.13915520265400932 0.09136145237611282 0.1387512337431013 0.0901756046113277 C 0.13915520265400932 0.09136145237611282 0.13640515421089058 0.10053074130031309 0.13710481210120506 0.09937859924889764 C 0.13640515421089058 0.10053074130031309 0.12979288297250424 0.10438653505993101 0.1303553390593274 0.10400130922831305" fill="none" stroke="#000000" stroke-width="0.001"/>
<path d="M 0.1303553390593274 0.10400130922831305 C 0.12942564624294647 0.10412420156185624 0.11547912151198383 0.10555937188859256 0.11919902526275629 0.10547601723083143 C 0.11547912151198383 0.10555937188859256 0.08200196053937205 0.10483181757509251 0.08571649405005795 0.10500156512144655 C 0.08200196053937205 0.10483181757509251 0.07370030055823103 0.10330883680401097 0.0746246231345254 0.10343904667458294" fill="none" stroke="#000000" stroke-width="0.001"/>
</g><g transform="translate(0.07880254874521823,0.42581681852095443) rotate(0) scale(1,1) translate(-0.047062468445168426,-0.047062468445168426)"><path d="M 0.040173944459775165 0.05730181709743965 C 0.040118277416531394 0.0567680978874263 0.03897761445662182 0.049673053067896225 0.03950593994084989 0.05089718657727945 C 0.03897761445662182 0.049673053067896225 0.03380638965433535 0.04141069246968894 0.033834038649038355 0.04261221498484091 C 0.03380638965433535 0.04141069246968894 0.0396191614506951 0.035967808179673634 0.03917415200441381 0.03647891639545573" fill="none" stroke="none" stroke-width="0"/>
<path d="M 0.03917415200441381 0.03647891639545573 C 0.039464811756831676 0.03647094447128396 0.04336261178986865 0.036365077768371536 0.042662069033428146 0.036383253305394464 C 0.04336261178986865 0.036365077768371536 0.04848917784003009 0.036241959914345576 0.04758066508169986 0.03626080995118056 C 0.04848917784003009 0.036241959914345576 0.054062851887698465 0.036148406439390796 0.05356422213339088 0.036157052863374624" fill="none" stroke="#000000" stroke-width="0.001"/>
<path d="M 0.05356422213339088 0.036157052863374624 C 0.05310699766504919 0.036709798727978867 0.04809725688979335 0.043995443607170295 0.04807752851329058 0.04279000323862556 C 0.04809725688979335 0.043995443607170295 0.05433766646913354 0.05184708164761533 0.05380096265142411 0.05062233728591151 C 0.05433766646913354 0.05184708164761533 0.05457772529866869 0.05805898543683471 0.05451797432580372 0.057486935579071384" fill="none" stroke="none" stroke-width="0"/>
<path d="M 0.05451797432580372 0.057486935579071384 C 0.05401578633396802 0.05748370919087762 0.04766934673760454 0.05744037692023451 0.048491718423775365 0.0574482189207462 C 0.04766934673760454 0.05744037692023451 0.043956366261420486 0.05738063142098889 0.044649514091753835 0.057392831572931104 C 0.043956366261420486 0.05738063142098889 0.03980098032377694 0.057294232557815364 0.040173944459775165 0.05730181709743965" fill="none" stroke="#000000" stroke-width="0.001"/>
</g><g id="輪">
<g transform="translate(0.06813312087448677,0.4256617918439639) rotate(0) scale(1,1) translate(-0.011152769902399133,-0.011152769902399133)"><path d="M 0.006857764625325457 0.025123082765999026 C 0.006857764625325457 0.0239588900273657 0.0068577646253254534 0.008824384425132482 0.0068577646253254534 0.01115276990239913 C 0.0068577646253254534 0.008824384425132482 0.006857764625325452 -0.003981735699834068 0.006857764625325452 -0.002817542961200745" fill="none" stroke="#000000" stroke-width="0.001"/>
<path d="M 0.006857764625325452 -0.002817542961200745 C 0.007215681731748258 -0.002817542961200747 0.011868604115244742 -0.0028175429612007706 0.01115276990239913 -0.0028175429612007706 C 0.011868604115244742 -0.0028175429612007706 0.015805692285895623 -0.002817542961200743 0.015447775179472817 -0.002817542961200745" fill="none" stroke="#000000" stroke-width="0.001"/>
<path d="M 0.015447775179472817 -0.002817542961200745 C 0.015447775179472817 -0.0016533502225674218 0.015447775179472817 0.01348115537966578 0.015447775179472817 0.011152769902399133 C 0.015447775179472817 0.01348115537966578 0.015447775179472817 0.026287275504632352 0.015447775179472817 0.025123082765999026" fill="none" stroke="#000000" stroke-width="0.001"/>
<path d="M 0.015447775179472817 0.025123082765999026 C 0.015089858073050012 0.025123082765999026 0.010436935689553532 0.025123082765999026 0.011152769902399145 0.025123082765999026 C 0.010436935689553532 0.025123082765999026 0.00649984751890265 0.025123082765999026 0.006857764625325457 0.025123082765999026" fill="none" stroke="#000000" stroke-width="0.001"/>
</g><g transform="translate(0.06813312087448677,0.4292498922773495) rotate(0) scale(1,1) translate(-0.00775832499658671,-0.0077583249965867095)"><path d="M 0.013438976204036505 0.0020255577230135265 C 0.013338001325922432 0.002943986957302779 0.011381477343540064 0.01396513776877381 0.012227277666667622 0.013046708534484556 C 0.011381477343540064 0.01396513776877381 0.0024435720033782363 0.012128279300195308 0.003289372326505795 0.01304670853448456 C 0.0024435720033782363 0.012128279300195308 0.0019766989110228408 0.0011071284887242774 0.002077673789136914 0.00202555772301353" fill="none" stroke="#000000" stroke-width="0.001"/>
<path d="M 0.002077673789136914 0.00202555772301353 C 0.002157295556825431 0.00202555772301353 0.0031446054761630395 0.00202555772301353 0.003033135001399116 0.00202555772301353 C 0.0031446054761630395 0.00202555772301353 0.003447168193379406 0.00202555772301353 0.003415319486303999 0.00202555772301353" fill="none" stroke="#000000" stroke-width="0.001"/>
<path d="M 0.003415319486303999 0.00202555772301353 C 0.00349204591698566 0.0027981520559862494 0.004983144475516062 0.012069284051658882 0.004336036654483938 0.011296689718686163 C 0.004983144475516062 0.012069284051658882 0.011827721159721617 0.010524095385713443 0.011180613338689492 0.011296689718686163 C 0.011827721159721617 0.010524095385713443 0.012178056937551097 0.0012529633900408067 0.012101330506869436 0.0020255577230135265" fill="none" stroke="#000000" stroke-width="0.001"/>
<path d="M 0.012101330506869436 0.0020255577230135265 C 0.012133179213944842 0.0020255577230135265 0.012594985466538235 0.0020255577230135265 0.012483514991774313 0.0020255577230135265 C 0.012594985466538235 0.0020255577230135265 0.01351859797172502 0.0020255577230135265 0.013438976204036505 0.0020255577230135265" fill="none" stroke="#000000" stroke-width="0.001"/>
</g><g transform="translate(0.06813312087448677,0.43389406949893283) rotate(0) scale(1,1) translate(-0.0022536622055164745,-0.002253662205516475)"><path d="M 0.0030847674750702505 0.0010807227917120994 C 0.00307286181793902 0.0012692911268864292 0.002815287701701086 0.003532111148978388 0.002941899589495485 0.0033435428138040577 C 0.002815287701701086 0.003532111148978388 0.0014388129337430645 0.0031549744786297292 0.0015654248215374634 0.003343542813804059 C 0.0014388129337430645 0.0031549744786297292 0.0014106512788314672 0.00089215445653777 0.0014225569359626977 0.0010807227917120998" fill="none" stroke="#000000" stroke-width="0.001"/>
<path d="M 0.0014225569359626977 0.0010807227917120998 C 0.0014918157084255123 0.001043009124677234 0.002392179750442103 0.0006281587872937102 0.0022536622055164737 0.0006281587872937102 C 0.002392179750442103 0.0006281587872937102 0.003154026247533065 0.001118436458746965 0.0030847674750702505 0.0010807227917120994" fill="none" stroke="#000000" stroke-width="0.001"/>
</g><g transform="translate(0.06813312087448677,0.41798857430137404) rotate(0) scale(1,1) translate(-0.006469483550722008,-0.0064694835507220095)"><path d="M 0.0013915078771606815 0.005550770846623743 C 0.0030841664350144578 0.005244533278590988 0.013240117782137111 0.005857008414656499 0.011547459224283336 0.005550770846623743 C 0.013240117782137111 0.005857008414656499 0.00985480066642956 0.007694433822853032 0.011547459224283336 0.0073881962548202765 C 0.00985480066642956 0.007694433822853032 -0.00030115068069309827 0.007081958686787521 0.0013915078771606776 0.0073881962548202765 C -0.00030115068069309827 0.007081958686787521 0.0030841664350144578 0.005244533278590988 0.0013915078771606815 0.005550770846623743 Z" fill="#cccccc" stroke="#000000" stroke-width="0.001"/>
</g><g transform="translate(0.06813312087448677,0.4382005843842828) rotate(0) scale(1,1) translate(-0.009906215631991292,-0.007758324996586713)"><path d="M 0.015586866839441084 0.007758324996586713 C 0.015363889553433801 0.008309382537160265 0.012187341492119341 0.014922073024042887 0.012911139407353691 0.014371015483469335 C 0.012187341492119341 0.014922073024042887 0.006177493941394529 0.013819957942895783 0.006901291856628879 0.014371015483469335 C 0.006177493941394529 0.013819957942895783 0.004002587138534205 0.007207267456013163 0.004225564424541488 0.007758324996586715" fill="none" stroke="#000000" stroke-width="0.001"/>
<path d="M 0.004225564424541488 0.007758324996586715 C 0.004305186192230005 0.007758324996586715 0.0052924961115676135 0.007758324996586715 0.00518102563680369 0.007758324996586715 C 0.0052924961115676135 0.007758324996586715 0.00559505882878398 0.007758324996586713 0.005563210121708573 0.007758324996586713" fill="none" stroke="#000000" stroke-width="0.001"/>
<path d="M 0.005563210121708573 0.007758324996586713 C 0.005742953135301432 0.008205951010240858 0.008264217522943804 0.013577463174090594 0.007720126284822876 0.013129837160436449 C 0.008264217522943804 0.013577463174090594 0.012636396217280629 0.012682211146782304 0.012092304979159701 0.013129837160436449 C 0.012636396217280629 0.012682211146782304 0.014428964155866869 0.007310698982932568 0.01424922114227401 0.007758324996586713" fill="none" stroke="#000000" stroke-width="0.001"/>
<path d="M 0.01424922114227401 0.007758324996586713 C 0.014281069849349416 0.007758324996586713 0.014742876101942807 0.007758324996586713 0.014631405627178884 0.007758324996586713 C 0.014742876101942807 0.007758324996586713 0.0156664886071296 0.007758324996586713 0.015586866839441084 0.007758324996586713" fill="none" stroke="#000000" stroke-width="0.001"/>
</g><g transform="translate(0.06813312087448677,0.4131229993036451) rotate(0) scale(1,1) translate(-0.005610434361182026,-0.007758324996586713)"><path d="M 0.011291085568631818 0.007758324996586713 C 0.011211463800943301 0.007758324996586713 0.010224153881605696 0.007758324996586713 0.01033562435636962 0.007758324996586713 C 0.010224153881605696 0.007758324996586713 0.00992159116438934 0.007758324996586713 0.009953439871464746 0.007758324996586713" fill="none" stroke="#000000" stroke-width="0.001"/>
<path d="M 0.009953439871464746 0.007758324996586713 C 0.009773696857871886 0.007310698982932559 0.007252432470229507 0.00193918681908272 0.007796523708350434 0.0023868128327368733 C 0.007252432470229507 0.00193918681908272 0.002880253775892685 0.0028344388463910266 0.003424345014013612 0.0023868128327368733 C 0.002880253775892685 0.0028344388463910266 0.0010876858373064504 0.008205951010240867 0.001267428850899309 0.007758324996586713" fill="none" stroke="#000000" stroke-width="0.001"/>
<path d="M 0.001267428850899309 0.007758324996586713 C 0.0012355801438239022 0.007758324996586713 0.0007737738912305042 0.007758324996586713 0.0008852443659944276 0.007758324996586713 C 0.0007737738912305042 0.007758324996586713 -0.00014983861395628887 0.007758324996586713 -7.021684626777223E-05 0.007758324996586713" fill="none" stroke="#000000" stroke-width="0.001"/>
<path d="M -7.021684626777223E-05 0.007758324996586713 C 0.00015276043973950996 0.007207267456013157 0.0033293085010539644 0.0005945769691304858 0.0026055105858196143 0.0011456345097040418 C 0.0033293085010539644 0.0005945769691304858 0.009339156051778779 0.0016966920502775977 0.008615358136544429 0.0011456345097040418 C 0.009339156051778779 0.0016966920502775977 0.011514062854639101 0.008309382537160268 0.011291085568631818 0.007758324996586713" fill="none" stroke="#000000" stroke-width="0.001"/>
</g></g>
<g transform="translate(0.049536162353362535,0.42564845621441433) rotate(0) scale(1,1) translate(-0.24550767837555654,-0.095)"><path d="M 0.1933818306410054 0.08800247156860878 C 0.19594519467470667 0.08787099376067628 0.2284860196899668 0.08636527809935644 0.22414219904542088 0.08642473787341878 C 0.2284860196899668 0.08636527809935644 0.24728813498640118 0.08736097231373086 0.24550767837555654 0.08728895427986069" fill="none" stroke="#000000" stroke-width="0.001"/>
<path d="M 0.24550767837555654 0.08728895427986069 C 0.245828971947229 0.08737504463292364 0.2499196980259082 0.08864333208828856 0.2493632012356262 0.08832203851661609 C 0.2499196980259082 0.08864333208828856 0.2525069334306129 0.09170097393021234 0.25218563985894044 0.09114447713993035 C 0.2525069334306129 0.09170097393021234 0.25321872409569585 0.09564258714334493 0.25321872409569585 0.09499999999999999 C 0.25321872409569585 0.09564258714334493 0.25186434628726795 0.09941201965035164 0.25218563985894044 0.09885552286006964 C 0.25186434628726795 0.09941201965035164 0.2488067044453442 0.10199925505505637 0.2493632012356262 0.1016779614833839 C 0.2488067044453442 0.10199925505505637 0.24518638480388408 0.10279713607320223 0.24550767837555654 0.10271104572013928" fill="none" stroke="#000000" stroke-width="0.001"/>
<path d="M 0.24550767837555654 0.10271104572013928 C 0.24370041614572183 0.10279832241461584 0.21947671097299415 0.10369904744999586 0.2238205316175401 0.10375836605385798 C 0.21947671097299415 0.10369904744999586 0.19084527222629416 0.10185262717545526 0.1933818306410054 0.10199922247379394" fill="none" stroke="#000000" stroke-width="0.001"/>
<path d="M 0.1933818306410054 0.10199922247379394 C 0.19309023166381403 0.10192108876334177 0.18937757867077856 0.10077001897117659 0.1898826429147091 0.10106161794836795 C 0.18937757867077856 0.10077001897117659 0.18702946073664745 0.09799497050356709 0.1873210597138388 0.09850003474749765 C 0.18702946073664745 0.09799497050356709 0.18638345518841282 0.09441764906681864 0.18638345518841282 0.09500084702120136 C 0.18638345518841282 0.09441764906681864 0.18761265869103017 0.09099659505097452 0.1873210597138388 0.09150165929490507 C 0.18761265869103017 0.09099659505097452 0.19038770715863965 0.08864847711684341 0.1898826429147091 0.08894007609403477 C 0.19038770715863965 0.08864847711684341 0.19367342961819675 0.08792433785815662 0.1933818306410054 0.08800247156860878" fill="none" stroke="#000000" stroke-width="0.001"/>
</g><g transform="translate(-0.0025896853811886137,0.4256493032356157) rotate(0) scale(1,1) translate(-0.24550767837555654,-0.095)"><path d="M 0.2111030625441344 0.0894980424450058 C 0.21210349075946167 0.08957979103804947 0.22519843319682942 0.0904465098254373 0.22310820112806162 0.09047902556153 C 0.22519843319682942 0.0904465098254373 0.23805247047330574 0.08898463655488635 0.23618584736934783 0.08910785361189338 C 0.23805247047330574 0.08898463655488635 0.24628449762607393 0.08899146814957498 0.24550767837555654 0.08900042087744563" fill="none" stroke="#000000" stroke-width="0.001"/>
<path d="M 0.24550767837555654 0.08900042087744563 C 0.24575016136509312 0.08906740347664625 0.24883746710784393 0.09005419453129293 0.2484174742499954 0.08980421206785316 C 0.24883746710784393 0.09005419453129293 0.25079007565927547 0.0924331927664017 0.2505475926697389 0.09200021043872281 C 0.25079007565927547 0.0924331927664017 0.25132727012443423 0.09549996492687952 0.25132727012443423 0.09499999999999999 C 0.25132727012443423 0.09549996492687952 0.25030510968020236 0.09843277188895609 0.2505475926697389 0.09799978956127718 C 0.25030510968020236 0.09843277188895609 0.2479974813921469 0.10044577039558661 0.2484174742499954 0.10019578793214684 C 0.2479974813921469 0.10044577039558661 0.24526519538601996 0.10106656172175499 0.24550767837555654 0.10099957912255436" fill="none" stroke="#000000" stroke-width="0.001"/>
<path d="M 0.24550767837555654 0.10099957912255436 C 0.24383128732357737 0.10086456426616153 0.2223271559557267 0.0987682159923927 0.22539098575180655 0.09937940084584032 C 0.2223271559557267 0.0987682159923927 0.2073542820784976 0.09318919088412819 0.2087417208225983 0.09366536088118298" fill="none" stroke="#000000" stroke-width="0.001"/>
<path d="M 0.2087417208225983 0.09366536088118298 C 0.20666983558931099 0.09216001172921856 0.19670396637646384 0.08393871289670032 0.19631040942287448 0.08463326596939652 C 0.19670396637646384 0.08393871289670032 0.21356850473101108 0.09030883852427402 0.2111030625441344 0.0894980424450058" fill="none" stroke="#000000" stroke-width="0.001"/>
</g><g transform="translate(-0.0025896853811886167,0.4256493032356157) rotate(0) scale(1,1) translate(-0.24550767837555654,-0.095)"><path d="M 0.20545771609256372 0.0889600609003574 C 0.20717058916992143 0.08899610190819829 0.22934968987777238 0.08934646924519182 0.22601219302085632 0.0893925529944482 C 0.22934968987777238 0.08934646924519182 0.2471323021551149 0.08832493115218362 0.24550767837555654 0.0884070559092809" fill="none" stroke="#000000" stroke-width="0.001"/>
<path d="M 0.24550767837555654 0.0884070559092809 C 0.2457823843793365 0.08848066316114972 0.24927995517660717 0.08956504893548672 0.24880415042091608 0.08929034293170676 C 0.24927995517660717 0.08956504893548672 0.2514920414476297 0.09217933271033155 0.2512173354438498 0.09170352795464044 C 0.2514920414476297 0.09217933271033155 0.2521006224662756 0.09554941200755991 0.2521006224662756 0.09499999999999999 C 0.2521006224662756 0.09554941200755991 0.25094262944006984 0.09877227680105063 0.2512173354438498 0.09829647204535953 C 0.25094262944006984 0.09877227680105063 0.248328345665225 0.10098436307207319 0.24880415042091608 0.10070965706829323 C 0.248328345665225 0.10098436307207319 0.24523297237177658 0.1016665513425879 0.24550767837555654 0.10159294409071908" fill="none" stroke="#000000" stroke-width="0.001"/>
<path d="M 0.24550767837555654 0.10159294409071908 C 0.24360851552070306 0.10144457611666101 0.2193802272603987 0.09941549268717337 0.22271772411731477 0.09981252840202233 C 0.2193802272603987 0.09941549268717337 0.20401938209050113 0.09657984777174067 0.20545771609256372 0.09682851551253156" fill="none" stroke="#000000" stroke-width="0.001"/>
<path d="M 0.20545771609256372 0.09682851551253156 C 0.2052937899548101 0.09678459163630213 0.20320667404024237 0.09613750286002469 0.2034906024395202 0.09630142899777831 C 0.20320667404024237 0.09613750286002469 0.20188664916347626 0.09457747346021021 0.20205057530122988 0.09486140185948803 C 0.20188664916347626 0.09457747346021021 0.20152348878647663 0.09256643593093723 0.20152348878647663 0.09289428820644449 C 0.20152348878647663 0.09256643593093723 0.2022145014389835 0.09064324615412313 0.20205057530122988 0.09092717455340095 C 0.2022145014389835 0.09064324615412313 0.20377453083879798 0.08932322127735703 0.20349060243952016 0.08948714741511066 C 0.20377453083879798 0.08932322127735703 0.20562164223031734 0.08891613702412796 0.20545771609256372 0.0889600609003574" fill="none" stroke="#000000" stroke-width="0.001"/>
</g><g id="爪">
<g transform="translate(-0.04396028242787088,0.4220784124067344) rotate(0) scale(1,1) translate(-0.03475681418595591,-0.024098133550857843)"><path d="M 0.03524852789706863 0.022747161232739396 C 0.03536158885202064 0.022915807177728308 0.0365233070713073 0.0249960746256261 0.03660525935649275 0.024770912572606357 C 0.0365233070713073 0.0249960746256261 0.03407008723470574 0.025505621977007113 0.0342651004748432 0.025449105868976286" fill="none" stroke="#000000" stroke-width="0.001"/>
<path d="M 0.0342651004748432 0.025449105868976286 C 0.03388134600190028 0.025245683102194213 0.028913181961246447 0.02246612069444205 0.029660046799528172 0.023008032667591414 C 0.028913181961246447 0.02246612069444205 0.024939612050123697 0.01860767298481665 0.0253027224154625 0.01894616219118394" fill="none" stroke="#000000" stroke-width="0.001"/>
<path d="M 0.0253027224154625 0.01894616219118394 C 0.025722362694976224 0.01915136371816498 0.03116722289309435 0.021725330435086055 0.030338405769627173 0.021408580514956435 C 0.03116722289309435 0.021725330435086055 0.03565770474102208 0.022858709625887975 0.03524852789706863 0.022747161232739396" fill="none" stroke="#000000" stroke-width="0.001"/>
</g><g transform="translate(-0.04396028242787088,0.4250087704773862) rotate(0) scale(1,1) translate(-0.0347568141859559,-0.024127175091117472)"><path d="M 0.034265100474843185 0.025478147409235912 C 0.03387995090228333 0.02530058463048231 0.028896440765843186 0.02280548209104332 0.02964330560412491 0.023347394064192683 C 0.028896440765843186 0.02280548209104332 0.024941007149740634 0.018610854537047805 0.0253027224154625 0.018975203731443565" fill="none" stroke="#000000" stroke-width="0.001"/>
<path d="M 0.0253027224154625 0.018975203731443565 C 0.025706808923394033 0.019201111911300986 0.030980577634108074 0.022002851809862237 0.030151760510640894 0.021686101889732613 C 0.030980577634108074 0.022002851809862237 0.03567325851260429 0.022867044513271245 0.03524852789706864 0.022776202772999042" fill="none" stroke="#000000" stroke-width="0.001"/>
<path d="M 0.03524852789706864 0.022776202772999042 C 0.035361588852020655 0.022944848717987954 0.0365233070713073 0.02502511616588573 0.03660525935649275 0.02479995411286599 C 0.0365233070713073 0.02502511616588573 0.03407008723470572 0.02553466351726674 0.034265100474843185 0.025478147409235912" fill="none" stroke="#000000" stroke-width="0.001"/>
</g></g>
</svg>
