<?xml version="1.0" encoding="UTF-8"?>
<svg xmlns="http://www.w3.org/2000/svg" viewBox="0 0 1 1">
<g transform="translate(0.3253358894007324,0.10604815195191086) rotate(0) scale(1,1) translate(-0.016111961352526034,-0.013156925849981177)"><path d="M 0.02360691720038177 0.015101589430899473 C 0.023365888066574494 0.01508073731167001 0.020182092772793557 0.01474980550278535 0.020714567594694477 0.01485136400014592 C 0.020182092772793557 0.01474980550278535 0.016439737771449924 0.013656997588446792 0.017217219337570745 0.013882887462572612 C 0.016439737771449924 0.013656997588446792 0.010460808046868286 0.01195592924569765 0.011384788801244652 0.012140685510636066 C 0.010460808046868286 0.01195592924569765 0.0056915054087051595 0.011626239514367922 0.0061294502850543515 0.011665812283311625" fill="none" stroke="#000000" stroke-width="0.001"/>
<path d="M 0.0061294502850543515 0.011665812283311625 C 0.006600865973171941 0.011675195505348342 0.012728164076658027 0.011896211564250208 0.01178643854246542 0.01177841094775223 C 0.012728164076658027 0.011896211564250208 0.01820009767116265 0.013294736352634243 0.01743015669536564 0.013079419681287346 C 0.01820009767116265 0.013294736352634243 0.021540460294114248 0.01453072514971601 0.02102573025202957 0.014362211003915 C 0.021540460294114248 0.01453072514971601 0.02382201611274445 0.015163204299814846 0.02360691720038177 0.015101589430899473" fill="none" stroke="#000000" stroke-width="0.001"/>
</g><g transform="translate(0.3300940769715684,0.10749801360396014) rotate(0) scale(1,1) translate(-0.005642377175266961,-0.003445100776715946)"><path d="M 0.010412316283716248 0.003089423241821993 C 0.010421478046199742 0.0031915386797479973 0.010493821238769364 0.0044985888570409326 0.010522257433518162 0.004314808496934046 C 0.010493821238769364 0.0044985888570409326 0.010033483989498371 0.005376452485285514 0.010071081946730663 0.005294787563104632" fill="none" stroke="#000000" stroke-width="0.001"/>
</g></svg>
