<?xml version="1.0" encoding="UTF-8"?>
<svg xmlns="http://www.w3.org/2000/svg" viewBox="0 0 1 1">
<g transform="translate(0.21966171751867267,0.42439729251110114) rotate(0) scale(1,1) translate(-0.011628401968068889,0.004161837954568095)"><path d="M 0.010547043301748698 -0.004161837954568094 C 0.010573436853454559 -0.004248496706431077 0.010953879144412391 -0.005324296959106848 0.010863765922219042 -0.005201742976923892 C 0.010953879144412391 -0.005324296959106848 0.01175584130904387 -0.005632485740763562 0.011628401968068894 -0.005632485740763562 C 0.01175584130904387 -0.005632485740763562 0.012483151236112095 -0.005079188994740939 0.012393038013918745 -0.005201742976923895 C 0.012483151236112095 -0.005079188994740939 0.012736154186094948 -0.004075179202705113 0.012709760634389087 -0.004161837954568096" fill="none" stroke="#000000" stroke-width="0.001"/>
<path d="M 0.012709760634389087 -0.004161837954568096 C 0.012772508962930307 -0.0036918794215769425 0.014244795037469027 0.0035033190663954204 0.013462740576883726 0.0014776644413257468 C 0.014244795037469027 0.0035033190663954204 0.022676553936263277 0.023859583868492098 0.022094414161412702 0.020146017546267984 C 0.022676553936263277 0.023859583868492098 0.019997718914978223 0.050682679017638656 0.020448417875090635 0.04604046030801511 C 0.019997718914978223 0.050682679017638656 0.016372494037144844 0.07833699054122842 0.01668602664006375 0.07585264206175048" fill="none" stroke="#000000" stroke-width="0.001"/>
<path d="M 0.01668602664006375 0.07585264206175048 C 0.015670737616844194 0.07346494538020702 0.0031845318088750355 0.042704404056260206 0.004502558361429054 0.047200281883228966 C 0.0031845318088750355 0.042704404056260206 0.0013106667592342823 0.018091890017966766 0.0008697080094155317 0.02190210813812537 C 0.0013106667592342823 0.018091890017966766 0.010600507966948492 -0.0006943310663987006 0.009794063359254061 0.0014776644413257546 C 0.010600507966948492 -0.0006943310663987006 0.010609791630289918 -0.004631796487559248 0.010547043301748698 -0.004161837954568094" fill="none" stroke="#000000" stroke-width="0.001"/>
</g><g transform="translate(0.2196617175186727,0.44870514801193717) rotate(0) scale(1,1) translate(-0.030470409749388385,-0.030470409749388392)"><path d="M 0.030470409749388392 0.009257914270467245 C 0.03046093120543167 0.011699915372076836 0.030631805874919784 0.04413790329275355 0.030356667221907715 0.03856192748978235 C 0.030631805874919784 0.04413790329275355 0.034056690782502015 0.07930359860748325 0.033772073585533226 0.07616962390612164" fill="none" stroke="#000000" stroke-width="0.001"/>
<path d="M 0.033772073585533226 0.07616962390612164 C 0.033329732380352355 0.07303564920476004 0.028188840470350682 0.03298595168681115 0.02846397912336275 0.03856192748978235 C 0.028188840470350682 0.03298595168681115 0.030637612301557187 0.006815913168857653 0.030470409749388385 0.009257914270467245" fill="none" stroke="#000000" stroke-width="0.001"/>
</g></svg>
