<?xml version="1.0" encoding="UTF-8"?>
<svg xmlns="http://www.w3.org/2000/svg" viewBox="0 0 1 1">
<g transform="translate(0.21966171751867267,0.4243972925111011) rotate(0) scale(1,1) translate(-0.011628401968068889,0.004161837954568095)"><path d="M 0.010547043301748698 -0.004161837954568094 C 0.010573436853454559 -0.004248496706431077 0.010953879144412391 -0.005324296959106848 0.010863765922219042 -0.005201742976923892 C 0.010953879144412391 -0.005324296959106848 0.01175584130904387 -0.005632485740763562 0.011628401968068894 -0.005632485740763562 C 0.01175584130904387 -0.005632485740763562 0.012483151236112095 -0.005079188994740939 0.012393038013918745 -0.005201742976923895 C 0.012483151236112095 -0.005079188994740939 0.012736154186094948 -0.004075179202705113 0.012709760634389087 -0.004161837954568096" fill="none" stroke="#000000" stroke-width="0.001"/>
<path d="M 0.012709760634389087 -0.004161837954568096 C 0.012767574845028452 -0.0037054134463290023 0.014157622909071289 0.0032007926729302697 0.01340353116206147 0.00131525614430103 C 0.014157622909071289 0.0032007926729302697 0.022463231893877857 0.021201698444611786 0.021758861598506908 0.018464600388982778 C 0.022463231893877857 0.021201698444611786 0.021864067465513365 0.035468418847088 0.02185597470651287 0.034160432811849134" fill="none" stroke="#000000" stroke-width="0.001"/>
<path d="M 0.02185597470651287 0.034160432811849134 C 0.021588750607262838 0.03427774647951741 0.018208336964624674 0.035985478170095425 0.01864928551551249 0.0355681968238684 C 0.018208336964624674 0.035985478170095425 0.016449808734879483 0.03986554113413137 0.01656459209585909 0.03916780896657343 C 0.016449808734879483 0.03986554113413137 0.017595202061587857 0.04451715058795671 0.0172718851837572 0.0439409828345637 C 0.017595202061587857 0.04451715058795671 0.02070877041699942 0.04626022527168338 0.020444394629826942 0.04608182200728956" fill="none" stroke="#000000" stroke-width="0.001"/>
<path d="M 0.020444394629826942 0.04608182200728956 C 0.020293238913872025 0.04735429761095224 0.018317328705887682 0.06383243092244681 0.01863052603836795 0.06135152925124173 C 0.018317328705887682 0.06383243092244681 0.016523985023538402 0.07706106812929288 0.01668602664006375 0.07585264206175048" fill="none" stroke="#000000" stroke-width="0.001"/>
<path d="M 0.01668602664006375 0.07585264206175048 C 0.016101221638698694 0.07457421441810563 0.00884062285822997 0.05865700085835659 0.009668366623683065 0.06051151033801242 C 0.00884062285822997 0.05865700085835659 0.006510162690538593 0.05302244646986945 0.00675310145462663 0.053598528305880445" fill="none" stroke="#000000" stroke-width="0.001"/>
<path d="M 0.00675310145462663 0.053598528305880445 C 0.007115248389192914 0.05303302825432471 0.008872919809752104 0.04927823632927693 0.008925983062024336 0.05020552799654601 C 0.008872919809752104 0.04927823632927693 0.006062499430712279 0.04710958801094495 0.006434721940993241 0.04803477830226592 C 0.006062499430712279 0.04710958801094495 0.00621358327301662 0.04396018146726729 0.006692648000338563 0.04465438624862019 C 0.00621358327301662 0.04396018146726729 0.0030382811731820844 0.04373874350840321 0.0035603335770615814 0.0438695496141485" fill="none" stroke="#000000" stroke-width="0.001"/>
<path d="M 0.0035603335770615814 0.0438695496141485 C 0.0034741285654051714 0.04295751444701265 0.0024801720906298384 0.03164149639333661 0.0025258734371846597 0.032925127608518394 C 0.0024801720906298384 0.03164149639333661 0.0030524210835053147 0.028094378983921194 0.003011917418403726 0.02846597503196713" fill="none" stroke="none" stroke-width="0"/>
<path d="M 0.003011917418403726 0.02846597503196713 C 0.003265782735275369 0.028348233293546885 0.006340985949325313 0.026591640290072688 0.006058301220863441 0.027053074170924184 C 0.006340985949325313 0.026591640290072688 0.006432953571536427 0.02258507631931791 0.006404134159946197 0.022928768461749162" fill="none" stroke="#000000" stroke-width="0.001"/>
<path d="M 0.006404134159946197 0.022928768461749162 C 0.006130665369102393 0.023065089538656013 0.002839823941358685 0.025026055265482884 0.0031225086698205575 0.024564621384631388 C 0.002839823941358685 0.025026055265482884 0.0030027014807856565 0.028791087835911777 0.003011917418403726 0.02846597503196713" fill="none" stroke="#000000" stroke-width="0.001"/>
<path d="M 0.003011917418403726 0.02846597503196713 C 0.0029714137533021373 0.02883757108001307 0.002571574783739481 0.034208758823700176 0.0025258734371846597 0.032925127608518394 C 0.002571574783739481 0.034208758823700176 0.0036465385887179914 0.04478158478128434 0.0035603335770615814 0.0438695496141485" fill="none" stroke="none" stroke-width="0"/>
<path d="M 0.0035603335770615814 0.0438695496141485 C 0.0033304576557469236 0.042671047247081866 0.0006612880727748412 0.027299395677133798 0.0008018225212856856 0.02948752120934891 C 0.0006612880727748412 0.027299395677133798 0.002630168278161551 0.015263364584856273 0.0018739201949314482 0.01761204322756718 C 0.002630168278161551 0.015263364584856273 0.010599559778948359 -0.0005111126016932649 0.00987679952004692 0.001303377496818008 C 0.010599559778948359 -0.0005111126016932649 0.010602896950223846 -0.004617272575516936 0.010547043301748698 -0.004161837954568094" fill="none" stroke="#000000" stroke-width="0.001"/>
</g><g transform="translate(0.2196617175186727,0.44870514801193717) rotate(0) scale(1,1) translate(-0.030470409749388385,-0.030470409749388392)"><path d="M 0.030470409749388392 0.009257914270467245 C 0.03046093120543167 0.011699915372076836 0.030631805874919784 0.04413790329275355 0.030356667221907715 0.03856192748978235 C 0.030631805874919784 0.04413790329275355 0.034056690782502015 0.07930359860748325 0.033772073585533226 0.07616962390612164" fill="none" stroke="#000000" stroke-width="0.001"/>
<path d="M 0.033772073585533226 0.07616962390612164 C 0.033329732380352355 0.07303564920476004 0.028188840470350682 0.03298595168681115 0.02846397912336275 0.03856192748978235 C 0.028188840470350682 0.03298595168681115 0.030637612301557187 0.006815913168857653 0.030470409749388385 0.009257914270467245" fill="none" stroke="#000000" stroke-width="0.001"/>
</g></svg>
