<?xml version="1.0" encoding="UTF-8"?>
<svg xmlns="http://www.w3.org/2000/svg" viewBox="0 0 1 1">
<g transform="translate(0.3257456317518053,0.1130072566562324) rotate(0) scale(1,1) translate(-0.14152185117886698,-0.14116273906070584)"><path d="M 0.1317977015429457 0.14152128608500533 C 0.13196925763618353 0.1409422222775161 0.13460631227699027 0.1336900036301274 0.13385637466179962 0.13457252039513456 C 0.13460631227699027 0.1336900036301274 0.14198031706012848 0.13082619305892967 0.1407969529252334 0.13093108490491925 C 0.14198031706012848 0.13082619305892967 0.14892763470799497 0.13394357602344725 0.14805674428054072 0.13331381824325977 C 0.14892763470799497 0.13394357602344725 0.1515135458691963 0.13891937493582826 0.15124763805468433 0.13848817826716914" fill="none" stroke="none" stroke-width="0"/>
<path d="M 0.15124763805468433 0.13848817826716914 C 0.1513317201593399 0.1392156041124309 0.15119844356400186 0.14380077378460046 0.15175213068261778 0.14285273333873974 C 0.15119844356400186 0.14380077378460046 0.1472877461197174 0.14439703554293237 0.1479255153429889 0.14417642094233343" fill="none" stroke="none" stroke-width="0"/>
<path d="M 0.1479255153429889 0.14417642094233343 C 0.14776536205082808 0.14403804172064422 0.14546182178286068 0.1423800253420457 0.14600367583705914 0.142515870282063 C 0.14546182178286068 0.1423800253420457 0.14068865873379488 0.1425197701947533 0.14142326669260724 0.14254628166212566 C 0.14068865873379488 0.1425197701947533 0.13656144619977717 0.14212313922564593 0.13718838033131084 0.1421977326735947 C 0.13656144619977717 0.14212313922564593 0.1336260301794441 0.14160561258783583 0.13390005711420308 0.14165116028674035" fill="none" stroke="#000000" stroke-width="0.001"/>
<path d="M 0.13390005711420308 0.14165116028674035 C 0.1340041588171371 0.1417669473246675 0.1353867985598467 0.14327279387924907 0.13514927754941136 0.14304060474186592 C 0.1353867985598467 0.14327279387924907 0.13688372854692837 0.14455383203479424 0.13675030923942708 0.14443742993533823" fill="none" stroke="#000000" stroke-width="0.001"/>
<path d="M 0.13675030923942708 0.14443742993533823 C 0.13706047153560463 0.14457211553477164 0.14115608989102088 0.14611892722231193 0.14047225679355785 0.1460536571285391 C 0.14115608989102088 0.14611892722231193 0.14553583486030142 0.1450386935279882 0.14495630640898335 0.14522067106061215 C 0.14553583486030142 0.1450386935279882 0.14767403228720827 0.14378290589386192 0.14742659820937448 0.14386992673705182 C 0.14767403228720827 0.14378290589386192 0.1479670917707901 0.1442019621261069 0.1479255153429889 0.14417642094233343" fill="none" stroke="none" stroke-width="0"/>
<path d="M 0.1479255153429889 0.14417642094233343 C 0.14856325059943554 0.1439558829506895 0.1520396820315198 0.14323686094226368 0.1517519268816688 0.14285319299246987 C 0.1520396820315198 0.14323686094226368 0.14930206613549912 0.14708263458253393 0.1496520462420948 0.1464784286410962" fill="none" stroke="none" stroke-width="0"/>
<path d="M 0.1496520462420948 0.1464784286410962 C 0.14939840210976751 0.14681606825337767 0.14579868898608916 0.15095336070947737 0.14660831665416735 0.15053010398847386 C 0.14579868898608916 0.15095336070947737 0.13890654781332942 0.15139561909381702 0.13993651422515677 0.15155750929313846 C 0.13890654781332942 0.15139561909381702 0.1335704853220549 0.1477510696626053 0.13424871971223915 0.1485874215966164 C 0.1335704853220549 0.1477510696626053 0.13159345002883793 0.14093244145903774 0.1317977015429457 0.14152128608500533" fill="none" stroke="none" stroke-width="0"/>
<path d="M 0.1317977015429457 0.14152128608500533 C 0.1317977015429457 0.14152128608500533 0.1317977015429457 0.14152128608500533 0.1317977015429457 0.14152128608500533 C 0.1317977015429457 0.14152128608500533 0.1317977015429457 0.14152128608500533 0.1317977015429457 0.14152128608500533 C 0.1317977015429457 0.14152128608500533 0.1317977015429457 0.14152128608500533 0.1317977015429457 0.14152128608500533 C 0.1317977015429457 0.14152128608500533 0.1317977015429457 0.14152128608500533 0.1317977015429457 0.14152128608500533" fill="none" stroke="#000000" stroke-width="0.001"/>
</g><g transform="translate(0.32588449103078504,0.10825672161350267) rotate(0) scale(1,1) translate(-0.014991016181195468,-0.014142268789137224)"><path d="M 0.02113215678326686 0.018311609242841552 C 0.020914236415704567 0.018210879658769673 0.017998817319649495 0.016926618339897233 0.01851711237251935 0.017102854233979004 C 0.017998817319649495 0.016926618339897233 0.014297716461264246 0.01613830676016449 0.014912616148828566 0.01619677851386031 C 0.014297716461264246 0.01613830676016449 0.010381053474533915 0.016490718527518336 0.011138316121747502 0.01640119318962914 C 0.010381053474533915 0.016490718527518336 0.005382726737308696 0.017343573350105772 0.005825464382265527 0.017271082568530646" fill="none" stroke="none" stroke-width="0"/>
<path d="M 0.005825464382265527 0.017271082568530646 C 0.006265152974687828 0.01715528318021981 0.011881070571435094 0.015746077289770205 0.011101727491333143 0.01588148990880063 C 0.011881070571435094 0.015746077289770205 0.01581244003512884 0.015702603165609525 0.015177581343488932 0.015646131140165533 C 0.01581244003512884 0.015702603165609525 0.019216246410993548 0.016781277389351548 0.018720031791012053 0.016559154214128548 C 0.019216246410993548 0.016781277389351548 0.021333167199288093 0.01845764716190097 0.02113215678326686 0.018311609242841552" fill="none" stroke="#000000" stroke-width="0.001"/>
</g><g id="睫毛">
<g transform="translate(0.31993195847869926,0.11539226035797318) rotate(0) scale(1,1) translate(-0.008417252494995203,-0.005828091228850773)"><path d="M 0.006132187107476214 0.006812903892534562 C 0.006255627846294527 0.006736439411597757 0.0077908017712280345 0.005786422712420046 0.007613475973295975 0.005895330121292898 C 0.0077908017712280345 0.005786422712420046 0.00831398174177468 0.005473572058124293 0.008260096682660933 0.005506014986060339" fill="none" stroke="#000000" stroke-width="0.001"/>
<path d="M 0.008260096682660933 0.005506014986060339 C 0.008291037991168907 0.0055135088042789285 0.008670259380719981 0.005635211554787432 0.008631392384756622 0.005595940804683413 C 0.008670259380719981 0.005635211554787432 0.008713484772133212 0.006030449752939333 0.008726500634221233 0.005977263987308565 C 0.008713484772133212 0.006030449752939333 0.008454260490156958 0.006255578825997972 0.008475202039700364 0.006234169992252633" fill="none" stroke="#000000" stroke-width="0.001"/>
<path d="M 0.008475202039700364 0.006234169992252633 C 0.008414852466365828 0.006246300365414195 0.00755575591533392 0.0064279622952148775 0.007751007159685932 0.006379734470191383 C 0.00755575591533392 0.0064279622952148775 0.005997285436458737 0.0068490013443964935 0.006132187107476214 0.006812903892534562" fill="none" stroke="#000000" stroke-width="0.001"/>
</g><g transform="translate(0.32086834279955584,0.11621400657488312) rotate(0) scale(1,1) translate(-0.008417252494995203,-0.005828091228850773)"><path d="M 0.006567822536124584 0.006953244807587993 C 0.00666491339406537 0.006872420343895106 0.007872499641543348 0.005868051031735161 0.0077329128314140155 0.005983351243273346 C 0.007872499641543348 0.005868051031735161 0.008285360209865113 0.005535166521284477 0.008242864257676567 0.0055696422691297745" fill="none" stroke="#000000" stroke-width="0.001"/>
<path d="M 0.008242864257676567 0.0055696422691297745 C 0.008270428488074803 0.005572351675659639 0.008611874681039317 0.00563128169351115 0.008573635022455407 0.00560215514748815 C 0.008611874681039317 0.00563128169351115 0.00869696568343272 0.005966558251293004 0.008701740160683483 0.005919160821405769 C 0.00869696568343272 0.005966558251293004 0.008500891390009802 0.006191904596529072 0.008516341295446239 0.006170924306134971" fill="none" stroke="#000000" stroke-width="0.001"/>
<path d="M 0.008516341295446239 0.006170924306134971 C 0.00846581673917655 0.00618868291879006 0.007747670056933182 0.0064492210331171165 0.007910046620209986 0.006384027657996031 C 0.007747670056933182 0.0064492210331171165 0.006455970529117467 0.007000679570053989 0.006567822536124584 0.006953244807587993" fill="none" stroke="#000000" stroke-width="0.001"/>
</g><g transform="translate(0.3209108707198365,0.11404423093949626) rotate(0) scale(1,1) translate(-0.008380251738491874,-0.0057170889593407765)"><path d="M 0.004669532271856673 0.005871871356781186 C 0.0049106238866923075 0.0058395408382178335 0.007857464233057273 0.005443819033456088 0.007562631649884281 0.005483905134020956 C 0.007857464233057273 0.005443819033456088 0.00826126423826994 0.0053830825680012545 0.008207523269932581 0.00539083815000277" fill="none" stroke="#000000" stroke-width="0.001"/>
<path d="M 0.008207523269932581 0.00539083815000277 C 0.008235958593247033 0.005399561456104161 0.00858133691156563 0.00553578819287213 0.008548747149705995 0.005495517823219468 C 0.00858133691156563 0.00553578819287213 0.008578488474202712 0.0059245003518031995 0.0085986004122482 0.005874082585834716 C 0.008578488474202712 0.0059245003518031995 0.008283137516569464 0.006119401717258483 0.008307403893160136 0.00610053101484127" fill="none" stroke="#000000" stroke-width="0.001"/>
<path d="M 0.008307403893160136 0.00610053101484127 C 0.008245445069404757 0.006098563434084949 0.007260742039653642 0.006057865074260412 0.007563898008095597 0.006076920045765419 C 0.007260742039653642 0.006057865074260412 0.004428335127170096 0.0058547839660325 0.004669532271856673 0.005871871356781186" fill="none" stroke="#000000" stroke-width="0.001"/>
</g><g transform="translate(0.3181113789740523,0.11336076951241503) rotate(0) scale(1,1) translate(-0.008355584567489648,-0.005692421788338555)"><path d="M 0.004368634888072958 0.0053860486677928185 C 0.00462853297807008 0.005384829609901914 0.007812445518075186 0.005365696407917399 0.007487411968038421 0.00537141997310197 C 0.007812445518075186 0.005365696407917399 0.008334172948553785 0.005312861378284298 0.008269037488514142 0.005317365885577965" fill="none" stroke="#000000" stroke-width="0.001"/>
<path d="M 0.008269037488514142 0.005317365885577965 C 0.008296519069694185 0.005332869807796853 0.008629457009277933 0.005550379337583905 0.008598816462674663 0.005503412952204623 C 0.008629457009277933 0.005550379337583905 0.008608640716051816 0.0059329996688065895 0.00863672404775339 0.005880962510129344 C 0.008608640716051816 0.0059329996688065895 0.00823057418513097 0.006148433551848423 0.008261816482255772 0.006127858856331571" fill="none" stroke="#000000" stroke-width="0.001"/>
<path d="M 0.008261816482255772 0.006127858856331571 C 0.008191419965181067 0.006118861572238833 0.007092626477844073 0.005958073931507164 0.007417058277359307 0.006019891447218727 C 0.007092626477844073 0.005958073931507164 0.004114599605632429 0.0053332284361739925 0.004368634888072958 0.0053860486677928185" fill="none" stroke="#000000" stroke-width="0.001"/>
</g></g>
</svg>
