<?xml version="1.0" encoding="UTF-8"?>
<svg xmlns="http://www.w3.org/2000/svg" viewBox="0 0 1 1">
<g transform="translate(0.3257456317518053,0.1130072566562324) rotate(0) scale(1,1) translate(-0.14152185117886698,-0.14116273906070584)"><path d="M 0.1317977015429457 0.14152128608500533 C 0.13196925763618353 0.1409422222775161 0.13460631227699027 0.1336900036301274 0.13385637466179962 0.13457252039513456 C 0.13460631227699027 0.1336900036301274 0.14198031706012848 0.13082619305892967 0.1407969529252334 0.13093108490491925 C 0.14198031706012848 0.13082619305892967 0.14892763470799497 0.13394357602344725 0.14805674428054072 0.13331381824325977 C 0.14892763470799497 0.13394357602344725 0.1515135458691963 0.13891937493582826 0.15124763805468433 0.13848817826716914" fill="none" stroke="none" stroke-width="0"/>
<path d="M 0.15124763805468433 0.13848817826716914 C 0.1513317201593399 0.1392156041124309 0.1511642712654127 0.14390397265051658 0.15175213068261778 0.14285273333873974 C 0.1511642712654127 0.14390397265051658 0.14704854002959322 0.1451194276043453 0.14772048155145387 0.1447956141378302" fill="none" stroke="none" stroke-width="0"/>
<path d="M 0.14772048155145387 0.1447956141378302 C 0.14762945752769466 0.14478720531396813 0.1461109040850871 0.14477787620141072 0.14662819326634344 0.1446947082514854 C 0.1461109040850871 0.14477787620141072 0.14073181566654547 0.14579429608591332 0.14151301137637773 0.1457936295369342 C 0.14073181566654547 0.14579429608591332 0.13665729354014144 0.144408239993294 0.1372538447483562 0.144702706839235 C 0.13665729354014144 0.144408239993294 0.13411277622192097 0.14205647076450922 0.1343543968778006 0.14226002738564197" fill="none" stroke="#000000" stroke-width="0.001"/>
<path d="M 0.1343543968778006 0.14226002738564197 C 0.13441469356994104 0.1423156789917509 0.13529377951813848 0.14311712807361385 0.13507795718348603 0.14292784665894903 C 0.13529377951813848 0.14311712807361385 0.13709979053614185 0.14466503417017554 0.13694426489362987 0.14453140436161965" fill="none" stroke="#000000" stroke-width="0.001"/>
<path d="M 0.13694426489362987 0.14453140436161965 C 0.13722516138698965 0.14463058613518193 0.14093863026697243 0.1457866864925585 0.14031502281394728 0.14572158564436702 C 0.14093863026697243 0.1457866864925585 0.14499490872130633 0.14522235663310765 0.14442755432993168 0.1453126145399175 C 0.14499490872130633 0.14522235663310765 0.14739768611223653 0.14459540739580815 0.14712327551044302 0.14463849076264876 C 0.14739768611223653 0.14459540739580815 0.1477702487215381 0.14480870775242866 0.14772048155145387 0.1447956141378302" fill="none" stroke="none" stroke-width="0"/>
<path d="M 0.14772048155145387 0.1447956141378302 C 0.1483923891064897 0.14447187728027017 0.15207385433010895 0.14313366207634753 0.1517519268816688 0.14285319299246987 C 0.15207385433010895 0.14313366207634753 0.14930206613549912 0.14708263458253393 0.1496520462420948 0.1464784286410962" fill="none" stroke="none" stroke-width="0"/>
<path d="M 0.1496520462420948 0.1464784286410962 C 0.14939840210976751 0.14681606825337767 0.14579868898608916 0.15095336070947737 0.14660831665416735 0.15053010398847386 C 0.14579868898608916 0.15095336070947737 0.13890654781332942 0.15139561909381702 0.13993651422515677 0.15155750929313846 C 0.13890654781332942 0.15139561909381702 0.1335704853220549 0.1477510696626053 0.13424871971223915 0.1485874215966164 C 0.1335704853220549 0.1477510696626053 0.13159345002883793 0.14093244145903774 0.1317977015429457 0.14152128608500533" fill="none" stroke="none" stroke-width="0"/>
<path d="M 0.1317977015429457 0.14152128608500533 C 0.1317977015429457 0.14152128608500533 0.1317977015429457 0.14152128608500533 0.1317977015429457 0.14152128608500533 C 0.1317977015429457 0.14152128608500533 0.1317977015429457 0.14152128608500533 0.1317977015429457 0.14152128608500533 C 0.1317977015429457 0.14152128608500533 0.1317977015429457 0.14152128608500533 0.1317977015429457 0.14152128608500533 C 0.1317977015429457 0.14152128608500533 0.1317977015429457 0.14152128608500533 0.1317977015429457 0.14152128608500533" fill="none" stroke="#000000" stroke-width="0.001"/>
</g><g transform="translate(0.32588449103078504,0.10825672161350267) rotate(0) scale(1,1) translate(-0.014991016181195468,-0.014142268789137224)"><path d="M 0.02113215678326686 0.018311609242841552 C 0.020914236415704567 0.018210879658769673 0.017998817319649495 0.016926618339897233 0.01851711237251935 0.017102854233979004 C 0.017998817319649495 0.016926618339897233 0.014297716461264246 0.01613830676016449 0.014912616148828566 0.01619677851386031 C 0.014297716461264246 0.01613830676016449 0.010381053474533915 0.016490718527518336 0.011138316121747502 0.01640119318962914 C 0.010381053474533915 0.016490718527518336 0.005382726737308696 0.017343573350105772 0.005825464382265527 0.017271082568530646" fill="none" stroke="none" stroke-width="0"/>
<path d="M 0.005825464382265527 0.017271082568530646 C 0.006265152974687828 0.01715528318021981 0.011881070571435094 0.015746077289770205 0.011101727491333143 0.01588148990880063 C 0.011881070571435094 0.015746077289770205 0.01581244003512884 0.015702603165609525 0.015177581343488932 0.015646131140165533 C 0.01581244003512884 0.015702603165609525 0.019216246410993548 0.016781277389351548 0.018720031791012053 0.016559154214128548 C 0.019216246410993548 0.016781277389351548 0.021333167199288093 0.01845764716190097 0.02113215678326686 0.018311609242841552" fill="none" stroke="#000000" stroke-width="0.001"/>
</g><g id="睫毛">
<g transform="translate(0.3199109771049016,0.11520355958938178) rotate(0) scale(1,1) translate(-0.008417252494995203,-0.005828091228850773)"><path d="M 0.00609780013049676 0.006733099670441231 C 0.0062239108008083225 0.0066609462661982605 0.00779225672237571 0.005764544383264519 0.00761112817423551 0.005867258819525584 C 0.00779225672237571 0.005764544383264519 0.008326360586007798 0.005469965403290356 0.00827134270817916 0.00550052643530845" fill="none" stroke="#000000" stroke-width="0.001"/>
<path d="M 0.00827134270817916 0.00550052643530845 C 0.0083020223529575 0.005509100855889456 0.008676994213806926 0.005644047633531527 0.008639498445519237 0.00560341948228052 C 0.008676994213806926 0.005644047633531527 0.008706418963410362 0.006040795446574649 0.00872129192763143 0.00598806425032053 C 0.008706418963410362 0.006040795446574649 0.008439333787135987 0.006256871302914059 0.008461022874866405 0.006236193837329942" fill="none" stroke="#000000" stroke-width="0.001"/>
<path d="M 0.008461022874866405 0.006236193837329942 C 0.008400249741927043 0.006246216546185733 0.007534810050896574 0.006397875163025378 0.007731745279594044 0.006356466343599437 C 0.007534810050896574 0.006397875163025378 0.005961638034738653 0.006764485781011381 0.00609780013049676 0.006733099670441231" fill="none" stroke="#000000" stroke-width="0.001"/>
</g><g transform="translate(0.32081410702292557,0.11605816763628538) rotate(0) scale(1,1) translate(-0.008417252494995203,-0.005828091228850773)"><path d="M 0.006528535236481563 0.00688865483130551 C 0.006628448264643015 0.006811221194165184 0.007871104354020591 0.005849025940400664 0.007727491574418995 0.0059594511856216024 C 0.007871104354020591 0.005849025940400664 0.008295588343140852 0.005530560280573638 0.00825188859170071 0.00556355188865425" fill="none" stroke="#000000" stroke-width="0.001"/>
<path d="M 0.00825188859170071 0.00556355188865425 C 0.008279358216999514 0.005567223955586109 0.008618746734182647 0.005638078729711596 0.008581524095286357 0.0056076166918365596 C 0.008618746734182647 0.005638078729711596 0.008692130791997306 0.005976327027947898 0.00869856025845619 0.0059290963431546904 C 0.008692130791997306 0.005976327027947898 0.008488188017723367 0.006194825623205088 0.008504370497779738 0.006174384909355058" fill="none" stroke="#000000" stroke-width="0.001"/>
<path d="M 0.008504370497779738 0.006174384909355058 C 0.00845322585910547 0.006190378989173696 0.007725981895247015 0.0064258363606745856 0.00789063483368853 0.006366313867178714 C 0.007725981895247015 0.0064258363606745856 0.006415026936714315 0.006932183244982743 0.006528535236481563 0.00688865483130551" fill="none" stroke="#000000" stroke-width="0.001"/>
</g><g transform="translate(0.3209958624656477,0.11636373193767571) rotate(0) scale(1,1) translate(-0.008380251738491874,-0.0057170889593407765)"><path d="M 0.004724338112358986 0.007186037453977637 C 0.004953982034995496 0.007068323378563884 0.007760703953983024 0.005628966313345462 0.007480065183997114 0.005773468549012599 C 0.007760703953983024 0.005628966313345462 0.00814299819953931 0.005425222465718613 0.008092003352189911 0.005452010625971997" fill="none" stroke="#000000" stroke-width="0.001"/>
<path d="M 0.008092003352189911 0.005452010625971997 C 0.008123527451300265 0.005450663448923511 0.008517141363141896 0.005464573076914567 0.008470292541514159 0.005435844501390167 C 0.008517141363141896 0.005464573076914567 0.008651929355605485 0.0058542940212970825 0.008654189211722759 0.005796753532264798 C 0.008651929355605485 0.0058542940212970825 0.008425589689472216 0.006153795106236974 0.008443174268106873 0.006126330369777576" fill="none" stroke="#000000" stroke-width="0.001"/>
<path d="M 0.008443174268106873 0.006126330369777576 C 0.008380518757138416 0.006146305753541643 0.007381405123506404 0.006454343898629715 0.007691308136485394 0.006366034974946377 C 0.007381405123506404 0.006454343898629715 0.004477090610348452 0.007254370993896909 0.004724338112358986 0.007186037453977637" fill="none" stroke="#000000" stroke-width="0.001"/>
</g><g transform="translate(0.31849711642091527,0.11391591067180085) rotate(0) scale(1,1) translate(-0.008355584567489648,-0.005692421788338555)"><path d="M 0.004325581259774492 0.005946433942181911 C 0.0045853080394908175 0.005908684936790504 0.0077665318522181104 0.005442037257366516 0.007442302616370395 0.0054934458774850295 C 0.0077665318522181104 0.005442037257366516 0.008280834546078466 0.005315870886032648 0.008216332089947076 0.005329530500759754" fill="none" stroke="#000000" stroke-width="0.001"/>
<path d="M 0.008216332089947076 0.005329530500759754 C 0.008245992387403506 0.005341171752353595 0.008609496240962161 0.0055118852266019 0.008572255659424233 0.005469225519885846 C 0.008609496240962161 0.0055118852266019 0.008642448351082108 0.005897431389633174 0.008663219068402214 0.005841446981352404 C 0.008642448351082108 0.005897431389633174 0.008294656050181369 0.006166004372413634 0.008323007051582973 0.006141038419255077" fill="none" stroke="#000000" stroke-width="0.001"/>
<path d="M 0.008323007051582973 0.006141038419255077 C 0.008251346175140402 0.0061419357098896335 0.007129957718288074 0.006135588867113651 0.007463076534272114 0.006151805906869748 C 0.007129957718288074 0.006135588867113651 0.0040641233202330235 0.005929319611791257 0.004325581259774492 0.005946433942181911" fill="none" stroke="#000000" stroke-width="0.001"/>
</g></g>
</svg>
