<?xml version="1.0" encoding="UTF-8"?>
<svg xmlns="http://www.w3.org/2000/svg" viewBox="0 0 1 1">
<g transform="translate(0.3257456317518053,0.1130072566562324) rotate(0) scale(1,1) translate(-0.14152185117886698,-0.14116273906070584)"><path d="M 0.1317977015429457 0.14152128608500533 C 0.13196925763618353 0.1409422222775161 0.13460631227699027 0.1336900036301274 0.13385637466179962 0.13457252039513456 C 0.13460631227699027 0.1336900036301274 0.14198031706012848 0.13082619305892967 0.1407969529252334 0.13093108490491925 C 0.14198031706012848 0.13082619305892967 0.14892763470799497 0.13394357602344725 0.14805674428054072 0.13331381824325977 C 0.14892763470799497 0.13394357602344725 0.1515135458691963 0.13891937493582826 0.15124763805468433 0.13848817826716914" fill="none" stroke="none" stroke-width="0"/>
<path d="M 0.15124763805468433 0.13848817826716914 C 0.1513317201593399 0.1392156041124309 0.15114254875887267 0.1438955520854458 0.15175213068261778 0.14285273333873974 C 0.15114254875887267 0.1438955520854458 0.14689648248381296 0.14506048364884983 0.14759014651221364 0.14474509074740552" fill="none" stroke="none" stroke-width="0"/>
<path d="M 0.14759014651221364 0.14474509074740552 C 0.14740345062802182 0.144573351340136 0.14492317630867993 0.1424229032295953 0.14534979590191174 0.1426842178601712 C 0.14492317630867993 0.1424229032295953 0.14186739969466233 0.14152139713035636 0.14247071139343193 0.14160931518049485 C 0.14186739969466233 0.14152139713035636 0.13737034656087305 0.14171674801471 0.13811005551667663 0.14162920125850936 C 0.13737034656087305 0.14171674801471 0.13321788295771497 0.14274576583793522 0.13359420392378896 0.14265987625490245" fill="none" stroke="#000000" stroke-width="0.001"/>
<path d="M 0.13359420392378896 0.14265987625490245 C 0.13375332041860105 0.1426758531960326 0.13579253936710958 0.14287541643238574 0.13550360186153396 0.14285159954846438 C 0.13579253936710958 0.14287541643238574 0.13719127500146008 0.14295351880474988 0.13706145399069652 0.1429456788619587" fill="none" stroke="#000000" stroke-width="0.001"/>
<path d="M 0.13706145399069652 0.1429456788619587 C 0.13737378358137828 0.14296875320176156 0.14143814877920644 0.14327559497726017 0.1408094090788776 0.1432225709395932 C 0.14143814877920644 0.14327559497726017 0.1451262931680481 0.1436719577084119 0.1446063303946426 0.14358196731396233 C 0.1451262931680481 0.1436719577084119 0.14729761370287447 0.14439938262577512 0.14704896235974355 0.1443024556729882 C 0.14729761370287447 0.14439938262577512 0.14763524519158613 0.14478197700360695 0.14759014651221364 0.14474509074740552" fill="none" stroke="none" stroke-width="0"/>
<path d="M 0.14759014651221364 0.14474509074740552 C 0.1482837765737895 0.14442977445491625 0.15209557683664898 0.1431420826414183 0.1517519268816688 0.14285319299246987 C 0.15209557683664898 0.1431420826414183 0.14930206613549912 0.14708263458253393 0.1496520462420948 0.1464784286410962" fill="none" stroke="none" stroke-width="0"/>
<path d="M 0.1496520462420948 0.1464784286410962 C 0.14939840210976751 0.14681606825337767 0.14579868898608916 0.15095336070947737 0.14660831665416735 0.15053010398847386 C 0.14579868898608916 0.15095336070947737 0.13890654781332942 0.15139561909381702 0.13993651422515677 0.15155750929313846 C 0.13890654781332942 0.15139561909381702 0.1335704853220549 0.1477510696626053 0.13424871971223915 0.1485874215966164 C 0.1335704853220549 0.1477510696626053 0.13159345002883793 0.14093244145903774 0.1317977015429457 0.14152128608500533" fill="none" stroke="none" stroke-width="0"/>
<path d="M 0.1317977015429457 0.14152128608500533 C 0.1317977015429457 0.14152128608500533 0.1317977015429457 0.14152128608500533 0.1317977015429457 0.14152128608500533 C 0.1317977015429457 0.14152128608500533 0.1317977015429457 0.14152128608500533 0.1317977015429457 0.14152128608500533 C 0.1317977015429457 0.14152128608500533 0.1317977015429457 0.14152128608500533 0.1317977015429457 0.14152128608500533 C 0.1317977015429457 0.14152128608500533 0.1317977015429457 0.14152128608500533 0.1317977015429457 0.14152128608500533" fill="none" stroke="#000000" stroke-width="0.001"/>
</g><g transform="translate(0.32588449103078504,0.10825672161350267) rotate(0) scale(1,1) translate(-0.014991016181195468,-0.014142268789137224)"><path d="M 0.02113215678326686 0.018311609242841552 C 0.020914236415704567 0.018210879658769673 0.017998817319649495 0.016926618339897233 0.01851711237251935 0.017102854233979004 C 0.017998817319649495 0.016926618339897233 0.014297716461264246 0.01613830676016449 0.014912616148828566 0.01619677851386031 C 0.014297716461264246 0.01613830676016449 0.010381053474533915 0.016490718527518336 0.011138316121747502 0.01640119318962914 C 0.010381053474533915 0.016490718527518336 0.005382726737308696 0.017343573350105772 0.005825464382265527 0.017271082568530646" fill="none" stroke="none" stroke-width="0"/>
<path d="M 0.005825464382265527 0.017271082568530646 C 0.006265152974687828 0.01715528318021981 0.011881070571435094 0.015746077289770205 0.011101727491333143 0.01588148990880063 C 0.011881070571435094 0.015746077289770205 0.01581244003512884 0.015702603165609525 0.015177581343488932 0.015646131140165533 C 0.01581244003512884 0.015702603165609525 0.019216246410993548 0.016781277389351548 0.018720031791012053 0.016559154214128548 C 0.019216246410993548 0.016781277389351548 0.021333167199288093 0.01845764716190097 0.02113215678326686 0.018311609242841552" fill="none" stroke="#000000" stroke-width="0.001"/>
</g><g id="睫毛">
<g transform="translate(0.31936654367505823,0.11514237565719723) rotate(0) scale(1,1) translate(-0.008417252494995203,-0.005828091228850773)"><path d="M 0.006195465532339413 0.006951138262226731 C 0.006314067103626542 0.006867238162872867 0.00778911574857755 0.005824746921018254 0.007618684387784964 0.005944337069980362 C 0.00778911574857755 0.005824746921018254 0.008292471651355894 0.0054803664250732 0.008240641861850438 0.0055160564746814435" fill="none" stroke="#000000" stroke-width="0.001"/>
<path d="M 0.008240641861850438 0.0055160564746814435 C 0.008271998424800206 0.005521649952768446 0.008658132725218632 0.00562002091319418 0.008616920617247665 0.005583178211725467 C 0.008658132725218632 0.00562002091319418 0.008725437370877857 0.006012076825671576 0.00873518715750205 0.0059581688923059945 C 0.008725437370877857 0.006012076825671576 0.008480317846111965 0.0062527321220963205 0.008499923177757355 0.006230073412112449" fill="none" stroke="#000000" stroke-width="0.001"/>
<path d="M 0.008499923177757355 0.006230073412112449 C 0.008440397180997665 0.00624587364216767 0.007593573079522909 0.006479764910284617 0.007785611216641071 0.006419676172775093 C 0.007593573079522909 0.006479764910284617 0.006062953391980941 0.006995426769681034 0.006195465532339413 0.006951138262226731" fill="none" stroke="#000000" stroke-width="0.001"/>
</g><g transform="translate(0.32055073019312,0.1150954963148946) rotate(0) scale(1,1) translate(-0.008417252494995203,-0.005828091228850773)"><path d="M 0.00663907482761487 0.007064675753428536 C 0.006731096362879038 0.006978031245356048 0.007875686931077434 0.005901272775612251 0.0077433332507848875 0.006024941656558682 C 0.007875686931077434 0.005901272775612251 0.008267651136153797 0.005543624809197412 0.00822731899112542 0.005580649182071355" fill="none" stroke="#000000" stroke-width="0.001"/>
<path d="M 0.00822731899112542 0.005580649182071355 C 0.008255010905710144 0.005581671098164434 0.008599588056443352 0.005619662900691208 0.0085596219661421 0.0055929121751882955 C 0.008599588056443352 0.005619662900691208 0.008705038861757169 0.005949281991567828 0.008706912074740435 0.005901657888106307 C 0.008705038861757169 0.005949281991567828 0.008522996021643112 0.006186296710778234 0.008537143410342906 0.006164401416726547" fill="none" stroke="#000000" stroke-width="0.001"/>
<path d="M 0.008537143410342906 0.006164401416726547 C 0.00848777269668331 0.006185222003890496 0.007786522464533738 0.006489271324085761 0.00794469484642774 0.006414248462693929 C 0.007786522464533738 0.006489271324085761 0.006530273159380464 0.00711887802765642 0.00663907482761487 0.007064675753428536" fill="none" stroke="#000000" stroke-width="0.001"/>
</g><g transform="translate(0.32141226979641857,0.11364748653385598) rotate(0) scale(1,1) translate(-0.008380251738491874,-0.0057170889593407765)"><path d="M 0.004586103427499517 0.004656806019138815 C 0.00483991585882917 0.004703224036454709 0.007942421457906863 0.005270033412156377 0.007631852603455356 0.00521382222692954 C 0.007942421457906863 0.005270033412156377 0.008369686104039471 0.005341133409771807 0.008312929680917616 0.005331340241860863" fill="none" stroke="#000000" stroke-width="0.001"/>
<path d="M 0.008312929680917616 0.005331340241860863 C 0.008338756519259702 0.005349461941946743 0.008642530096400732 0.005600109287552029 0.008622851741022643 0.005548800642891416 C 0.008642530096400732 0.005600109287552029 0.008512256388554566 0.0059913130333368895 0.008549069945454684 0.005947043977788224 C 0.008512256388554566 0.0059913130333368895 0.008150423984285107 0.00609111142044934 0.008181089058221229 0.006080029309475408" fill="none" stroke="#000000" stroke-width="0.001"/>
<path d="M 0.008181089058221229 0.006080029309475408 C 0.0081192291241956 0.006057733362108856 0.0071391877140202014 0.005693876000215408 0.007438769849913677 0.005812477941076791 C 0.0071391877140202014 0.005693876000215408 0.004348381225631671 0.004560500025643984 0.004586103427499517 0.004656806019138815" fill="none" stroke="#000000" stroke-width="0.001"/>
</g><g transform="translate(0.3178958275711327,0.11443858156535427) rotate(0) scale(1,1) translate(-0.008355584567489648,-0.005692421788338555)"><path d="M 0.004359948425574004 0.005138442505216895 C 0.0046217172782584 0.005153217787147049 0.007828806313129225 0.005329996140089773 0.007501174657786757 0.005315745888378734 C 0.007828806313129225 0.005329996140089773 0.00835739109234169 0.005308920495530255 0.008291528289683619 0.005309445525749369" fill="none" stroke="#000000" stroke-width="0.001"/>
<path d="M 0.008291528289683619 0.005309445525749369 C 0.008318245314095724 0.005326748698853291 0.008640093540950185 0.005566261130838394 0.008612132582628869 0.005517083602996441 C 0.008640093540950185 0.005566261130838394 0.008595578966691818 0.005950243378167814 0.00862705978953943 0.005899575859852805 C 0.008595578966691818 0.005950243378167814 0.008201637951700709 0.006143886986353531 0.008234362708457534 0.0061250938227765525" fill="none" stroke="#000000" stroke-width="0.001"/>
<path d="M 0.008234362708457534 0.0061250938227765525 C 0.008164033681022923 0.006111699833321673 0.007067546522335247 0.0058821450061880285 0.007390414379242208 0.005964365949318 C 0.007067546522335247 0.0058821450061880285 0.0041074095961016535 0.005069615551541803 0.004359948425574004 0.005138442505216895" fill="none" stroke="#000000" stroke-width="0.001"/>
</g></g>
</svg>
