<?xml version="1.0" encoding="UTF-8"?>
<svg xmlns="http://www.w3.org/2000/svg" viewBox="0 0 1 1">
<g id="櫛状板1">
<g transform="translate(0.32730199068532456,0.3015323647517103) rotate(0) scale(1,1) translate(-0.13903507479839222,-0.08257849087715632)"><path d="M 0.14010556167800917 0.10291860195784062 C 0.14003299922022497 0.10266814927575119 0.13907475721751383 0.09842294435915996 0.13923481218459868 0.09991316977276744 C 0.13907475721751383 0.09842294435915996 0.13813864077671598 0.08352134055530078 0.13818490207299086 0.08503589699455084 C 0.13813864077671598 0.08352134055530078 0.13872090784232577 0.08146370879403467 0.1386796766293 0.08173849250176668" fill="none" stroke="#000000" stroke-width="0.001"/>
<path d="M 0.1386796766293 0.08173849250176668 C 0.13879381905795934 0.0816816556543018 0.14039994869602887 0.08099548674964735 0.14004938577321216 0.08105645033218811 C 0.14039994869602887 0.08099548674964735 0.14323890867080444 0.08105562148688214 0.14288643170310056 0.08100692951127754 C 0.14323890867080444 0.08105562148688214 0.14439516585920525 0.08169357275012373 0.14427910938565874 0.08164075403944325" fill="none" stroke="#000000" stroke-width="0.001"/>
<path d="M 0.14427910938565874 0.08164075403944325 C 0.144342115586595 0.08190778285037159 0.14520765619910742 0.08634104386302936 0.14503518379689379 0.08484509977058328 C 0.14520765619910742 0.08634104386302936 0.1464045957653453 0.10109006345920742 0.14634877821222247 0.09959208314879625 C 0.1464045957653453 0.10109006345920742 0.14565134578621333 0.10308992852441062 0.14570499443436788 0.10282086349551721" fill="none" stroke="#000000" stroke-width="0.001"/>
<path d="M 0.14570499443436788 0.10282086349551721 C 0.14559085200570854 0.10287770034298209 0.14398472236763898 0.10356386924763658 0.1443352852904557 0.10350290566509582 C 0.14398472236763898 0.10356386924763658 0.14114576239286342 0.10350373451040173 0.1414982393605673 0.10355242648600634 C 0.14114576239286342 0.10350373451040173 0.13998950520446266 0.10286578324716014 0.14010556167800917 0.10291860195784062" fill="none" stroke="#000000" stroke-width="0.001"/>
</g><g transform="translate(0.33306310118692295,0.31082170390020525) rotate(0) scale(1,1) translate(-0.09302983305593387,-0.07784794651101833)"><path d="M 0.09392116663919543 0.08880128501776366 C 0.09391236486051507 0.08806728527047905 0.09364307289281751 0.0784973439579023 0.09381554529503115 0.07999328805034839 C 0.09364307289281751 0.0784973439579023 0.09172818890568486 0.06981070783522512 0.0918514978126317 0.07084995590841062 C 0.09172818890568486 0.06981070783522512 0.09237620012825547 0.06724500744409852 0.09233583841166902 0.06752231117212253" fill="none" stroke="#000000" stroke-width="0.001"/>
<path d="M 0.09233583841166902 0.06752231117212253 C 0.09255681539997673 0.06764590926939677 0.09552626579539242 0.06958883196970256 0.09498756227136158 0.06900548833941353 C 0.09552626579539242 0.06958883196970256 0.09915836664966045 0.07513047491452335 0.09880028070003902 0.07452243473559086 C 0.09915836664966045 0.07513047491452335 0.09932495308071701 0.07645026513252103 0.0992845936668187 0.07630197048660332" fill="none" stroke="#000000" stroke-width="0.001"/>
<path d="M 0.0992845936668187 0.07630197048660332 C 0.09921807892827512 0.07667766586704329 0.0983565650401899 0.08155407404556254 0.09848641680429578 0.08081031505188299 C 0.0983565650401899 0.08155407404556254 0.0976067914305736 0.08589859586254095 0.0977263724975482 0.08522707841075797 C 0.0976067914305736 0.08589859586254095 0.09699519995918836 0.08917197831182212 0.09705144400060066 0.08886852447327873" fill="none" stroke="#000000" stroke-width="0.001"/>
<path d="M 0.09705144400060066 0.08886852447327873 C 0.09703534948676297 0.08889777072721611 0.09672636927857353 0.08925074787465179 0.09685830983454834 0.08921947952052724 C 0.09672636927857353 0.08925074787465179 0.09522339539595696 0.08920889518087642 0.09546815732890304 0.08924374472277338 C 0.09522339539595696 0.08920889518087642 0.09379225074838647 0.08876441337567952 0.09392116663919543 0.08880128501776366" fill="none" stroke="#000000" stroke-width="0.001"/>
</g><g transform="translate(0.33095418370708585,0.3206148828835091) rotate(0) scale(1,1) translate(-0.13247665940288703,-0.095)"><path d="M 0.12923728157033312 0.10377956571932787 C 0.12921326776520944 0.10357679115280807 0.12892721215089895 0.10076939812029556 0.12894911590884897 0.10134627092109029 C 0.12892721215089895 0.10076939812029556 0.129031409560071 0.0963383205616603 0.12897443647493267 0.09685709210979111 C 0.129031409560071 0.0963383205616603 0.12968765596847373 0.09497633902966479 0.12963279293050903 0.09512101234352066" fill="none" stroke="#000000" stroke-width="0.001"/>
<path d="M 0.12963279293050903 0.09512101234352066 C 0.12975210884098418 0.0950964795585639 0.13146510004939227 0.09486140824770714 0.13106458385621078 0.09482661892403962 C 0.13146510004939227 0.09486140824770714 0.13480716920720412 0.0956683318258146 0.13443898724868691 0.0955384842275308 C 0.13480716920720412 0.0956683318258146 0.13556974903422817 0.09645531559310479 0.1354827673584173 0.09638479010344525" fill="none" stroke="#000000" stroke-width="0.001"/>
<path d="M 0.1354827673584173 0.09638479010344525 C 0.1354621353218219 0.09668711211588485 0.13522722937061568 0.10057659081624169 0.13523518291927267 0.10001265425272048 C 0.13522722937061568 0.10057659081624169 0.13534993015983113 0.10355773114408993 0.1353873247745336 0.10315202886569984 C 0.13534993015983113 0.10355773114408993 0.13473637444020195 0.1050251693207101 0.13478644754284286 0.10488108159340162" fill="none" stroke="#000000" stroke-width="0.001"/>
<path d="M 0.13478644754284286 0.10488108159340162 C 0.134622093278196 0.10489595185458654 0.132438030770432 0.10504838782741151 0.13281419636708033 0.10505952472762065 C 0.132438030770432 0.10504838782741151 0.12997438415000082 0.1046407755402009 0.1302724603830631 0.10474743879089198 C 0.12997438415000082 0.1046407755402009 0.12915101666927228 0.10369890963003085 0.12923728157033312 0.10377956571932787" fill="none" stroke="#000000" stroke-width="0.001"/>
</g><g transform="translate(0.33400856534918627,0.32340327013682474) rotate(0) scale(1,1) translate(-0.09500000000000003,-0.0879837329636765)"><path d="M 0.09470414187428526 0.09020799996308132 C 0.09468006574367634 0.09013715085185779 0.09441279892768531 0.0890529175156499 0.09441522830697817 0.08935781062839898 C 0.09441279892768531 0.0890529175156499 0.09476493436272768 0.0862717798867687 0.09467498932277091 0.08654928261009233 C 0.09476493436272768 0.0862717798867687 0.0955628670751 0.08598431922671743 0.0954945687864593 0.0860277779485155" fill="none" stroke="#000000" stroke-width="0.001"/>
<path d="M 0.0954945687864593 0.0860277779485155 C 0.0955545298428967 0.08603637438401554 0.09637711028610253 0.08616266525822625 0.09621410146370794 0.08613093517451603 C 0.09637711028610253 0.08616266525822625 0.09757549748644655 0.08644617465615584 0.09745067465519436 0.08640853895303802 C 0.09757549748644655 0.08644617465615584 0.09773375050402919 0.0865970656668376 0.0977119754387342 0.08658256361192994" fill="none" stroke="#000000" stroke-width="0.001"/>
<path d="M 0.0977119754387342 0.08658256361192994 C 0.09773186447551134 0.08663199404439761 0.09792772125371457 0.08745388140446457 0.09795064388005992 0.08717572880154197 C 0.09792772125371457 0.08745388140446457 0.09736183013602152 0.09020845210282602 0.09743690392258997 0.08992039484700126 C 0.09736183013602152 0.09020845210282602 0.09701749631779272 0.0906917509568089 0.09704975844123866 0.09063241587143908" fill="none" stroke="#000000" stroke-width="0.001"/>
<path d="M 0.09704975844123866 0.09063241587143908 C 0.09702454435809024 0.09062306256234266 0.09661928224724366 0.09049271528661919 0.09674718944345775 0.09052017616228204 C 0.09661928224724366 0.09049271528661919 0.09534461812257175 0.09027687068021817 0.09551487208666946 0.0903028853634849 C 0.09534461812257175 0.09027687068021817 0.09463658102325324 0.09020009284638102 0.09470414187428526 0.09020799996308132" fill="none" stroke="#000000" stroke-width="0.001"/>
</g><g transform="translate(0.33323037024250024,0.32772278646189057) rotate(0) scale(1,1) translate(-0.09500000000000003,-0.0879837329636765)"><path d="M 0.09502551285529375 0.09018029880755506 C 0.09499443794120167 0.09012393245634369 0.0946480364629902 0.08920104680230992 0.09465261388618883 0.08950390259301867 C 0.0946480364629902 0.08920104680230992 0.09503972736814217 0.08624474440613313 0.09497058377691031 0.08654602931905006 C 0.09503972736814217 0.08624474440613313 0.09552498308130968 0.08583368816459595 0.09548233698097126 0.0858884836380155" fill="none" stroke="#000000" stroke-width="0.001"/>
<path d="M 0.09548233698097126 0.0858884836380155 C 0.09554989783200328 0.0858963907547158 0.09646332115745315 0.08600938372168582 0.09629306719335545 0.08598336903841909 C 0.09646332115745315 0.08600938372168582 0.09765329174635784 0.08622812071287905 0.09752538455014374 0.0862006598372162 C 0.09765329174635784 0.08622812071287905 0.09785316763107307 0.08632225285546968 0.09782795354792466 0.08631289954637326" fill="none" stroke="#000000" stroke-width="0.001"/>
<path d="M 0.09782795354792466 0.08631289954637326 C 0.09783762955563208 0.08637383606893399 0.09791147817163572 0.08734476242548762 0.09794406564041361 0.08704413781710196 C 0.09791147817163572 0.08734476242548762 0.09735954176307421 0.09021098552691706 0.09743690392258997 0.08992039484700126 C 0.09735954176307421 0.09021098552691706 0.09698062104319395 0.09058212857018236 0.09701571972622441 0.0905312259760915" fill="none" stroke="#000000" stroke-width="0.001"/>
<path d="M 0.09701571972622441 0.0905312259760915 C 0.09699355361840119 0.09053301646984427 0.09662486721145672 0.09053639482831093 0.09674972643234564 0.0905527119011246 C 0.09662486721145672 0.09053639482831093 0.09537372461080304 0.09030438667786336 0.09551740907555736 0.09033542110232749 C 0.09537372461080304 0.09030438667786336 0.0949845215036051 0.09016737194965738 0.09502551285529375 0.09018029880755508" fill="none" stroke="#000000" stroke-width="0.001"/>
</g><g transform="translate(0.331745115325102,0.3292958267866192) rotate(0) scale(1,1) translate(-0.13247665940288703,-0.095)"><path d="M 0.12893578337720363 0.10565176874256973 C 0.12889877107992428 0.10533627645057204 0.12844170663535284 0.10115008681077875 0.12849163580985157 0.10186586123859749 C 0.12844170663535284 0.10115008681077875 0.12839803342883555 0.09651313091779758 0.12833663328321882 0.09706247560874486 C 0.12839803342883555 0.09651313091779758 0.12930275458008858 0.09512466239210386 0.12922843755725244 0.09527372494723009" fill="none" stroke="#000000" stroke-width="0.001"/>
<path d="M 0.12922843755725244 0.09527372494723009 C 0.12936013151733305 0.09525071199565899 0.13120883375337455 0.09501946290146548 0.1308087650782198 0.09499756952837678 C 0.13120883375337455 0.09501946290146548 0.13443666242589897 0.09561181123462764 0.13402926165910928 0.09553644542429454 C 0.13443666242589897 0.09561181123462764 0.13583660033141176 0.09593241873804725 0.1356975742796962 0.09590195925237396" fill="none" stroke="#000000" stroke-width="0.001"/>
<path d="M 0.1356975742796962 0.09590195925237396 C 0.1357265860601732 0.09603714755324436 0.13590574161988792 0.09861567090775962 0.1360457156454202 0.09752421886281869 C 0.13590574161988792 0.09861567090775962 0.1337964939576067 0.11012358913356698 0.1340178859733089 0.1089993837916651 C 0.1337964939576067 0.11012358913356698 0.13333660524730095 0.11118262456347261 0.13338901145699386 0.11101468296564126" fill="none" stroke="#000000" stroke-width="0.001"/>
<path d="M 0.13338901145699386 0.11101468296564126 C 0.1332663238037897 0.11098172251591645 0.13163316538179173 0.11039760175340176 0.13191675961854385 0.11061915756894344 C 0.13163316538179173 0.11039760175340176 0.12973746592919017 0.10794206411027646 0.12998588061596852 0.10835601317914094 C 0.12973746592919017 0.10794206411027646 0.12884827527397322 0.10542641503952213 0.12893578337720363 0.10565176874256973" fill="none" stroke="#000000" stroke-width="0.001"/>
</g></g>
<g transform="translate(0.3390686270500283,0.31067785861404296) rotate(0) scale(1,1) translate(-0.08683541815417418,-0.05817999253876105)"><path d="M 0.08969910597452671 0.05656926381704944 C 0.08991170708203858 0.05661708316382009 0.0926149932087717 0.05728480045239871 0.09225031926466908 0.057143095978297254 C 0.0926149932087717 0.05728480045239871 0.09419987156382303 0.05841332052475742 0.09407519330375824 0.05826971750626693 C 0.09419987156382303 0.05841332052475742 0.09371906380892057 0.05891605009134281 0.09374645838544655 0.05886633220018313" fill="none" stroke="#000000" stroke-width="0.001"/>
<path d="M 0.09374645838544655 0.05886633220018313 C 0.09356599116541399 0.058877091493778774 0.09107979971752185 0.059000607188296604 0.09158085174505581 0.0589954437233309 C 0.09107979971752185 0.059000607188296604 0.08731184443974778 0.05890701856299897 0.08773383405503901 0.05892829377977165 C 0.08731184443974778 0.05890701856299897 0.0864155715537712 0.05872446173391605 0.08651697636156104 0.05874014112205879" fill="none" stroke="#000000" stroke-width="0.001"/>
<path d="M 0.08651697636156104 0.05874014112205879 C 0.0864917829420711 0.05868281074767569 0.08629426577583502 0.05791213948363714 0.08621465532768173 0.05805217662946158 C 0.08629426577583502 0.05791213948363714 0.08776267262663755 0.05693611930446452 0.08747230173940046 0.057059695372165535 C 0.08776267262663755 0.05693611930446452 0.08988467299412056 0.05652839452078976 0.08969910597452671 0.05656926381704944" fill="none" stroke="#000000" stroke-width="0.001"/>
</g><g transform="translate(0.33857403938359487,0.3134828046548944) rotate(0) scale(1,1) translate(-0.08683541815417418,-0.05817999253876105)"><path d="M 0.08969910597452671 0.05656926381704944 C 0.08991170708203858 0.05661708316382009 0.0926149932087717 0.05728480045239871 0.09225031926466908 0.057143095978297254 C 0.0926149932087717 0.05728480045239871 0.09419987156382303 0.05841332052475742 0.09407519330375824 0.05826971750626693 C 0.09419987156382303 0.05841332052475742 0.09371906380892057 0.05891605009134281 0.09374645838544655 0.05886633220018313" fill="none" stroke="#000000" stroke-width="0.001"/>
<path d="M 0.09374645838544655 0.05886633220018313 C 0.09356599116541399 0.058877091493778774 0.09107979971752185 0.059000607188296604 0.09158085174505581 0.0589954437233309 C 0.09107979971752185 0.059000607188296604 0.08731184443974778 0.05890701856299897 0.08773383405503901 0.05892829377977165 C 0.08731184443974778 0.05890701856299897 0.0864155715537712 0.05872446173391605 0.08651697636156104 0.05874014112205879" fill="none" stroke="#000000" stroke-width="0.001"/>
<path d="M 0.08651697636156104 0.05874014112205879 C 0.0864917829420711 0.05868281074767569 0.08629426577583502 0.05791213948363714 0.08621465532768173 0.05805217662946158 C 0.08629426577583502 0.05791213948363714 0.08776267262663755 0.05693611930446452 0.08747230173940046 0.057059695372165535 C 0.08776267262663755 0.05693611930446452 0.08988467299412056 0.05652839452078976 0.08969910597452671 0.05656926381704944" fill="none" stroke="#000000" stroke-width="0.001"/>
</g><g transform="translate(0.33807945171716136,0.3162877506957459) rotate(0) scale(1,1) translate(-0.08683541815417418,-0.05817999253876105)"><path d="M 0.08969910597452671 0.05656926381704944 C 0.08991170708203858 0.05661708316382009 0.0926149932087717 0.05728480045239871 0.09225031926466908 0.057143095978297254 C 0.0926149932087717 0.05728480045239871 0.09419987156382303 0.05841332052475742 0.09407519330375824 0.05826971750626693 C 0.09419987156382303 0.05841332052475742 0.09371906380892057 0.05891605009134281 0.09374645838544655 0.05886633220018313" fill="none" stroke="#000000" stroke-width="0.001"/>
<path d="M 0.09374645838544655 0.05886633220018313 C 0.09356599116541399 0.058877091493778774 0.09107979971752185 0.059000607188296604 0.09158085174505581 0.0589954437233309 C 0.09107979971752185 0.059000607188296604 0.08731184443974778 0.05890701856299897 0.08773383405503901 0.05892829377977165 C 0.08731184443974778 0.05890701856299897 0.0864155715537712 0.05872446173391605 0.08651697636156104 0.05874014112205879" fill="none" stroke="#000000" stroke-width="0.001"/>
<path d="M 0.08651697636156104 0.05874014112205879 C 0.0864917829420711 0.05868281074767569 0.08629426577583502 0.05791213948363714 0.08621465532768173 0.05805217662946158 C 0.08629426577583502 0.05791213948363714 0.08776267262663755 0.05693611930446452 0.08747230173940046 0.057059695372165535 C 0.08776267262663755 0.05693611930446452 0.08988467299412056 0.05652839452078976 0.08969910597452671 0.05656926381704944" fill="none" stroke="#000000" stroke-width="0.001"/>
</g><g transform="translate(0.3375848640507278,0.31909269673659735) rotate(0) scale(1,1) translate(-0.08683541815417418,-0.05817999253876105)"><path d="M 0.08969910597452671 0.05656926381704944 C 0.08991170708203858 0.05661708316382009 0.0926149932087717 0.05728480045239871 0.09225031926466908 0.057143095978297254 C 0.0926149932087717 0.05728480045239871 0.09419987156382303 0.05841332052475742 0.09407519330375824 0.05826971750626693 C 0.09419987156382303 0.05841332052475742 0.09371906380892057 0.05891605009134281 0.09374645838544655 0.05886633220018313" fill="none" stroke="#000000" stroke-width="0.001"/>
<path d="M 0.09374645838544655 0.05886633220018313 C 0.09356599116541399 0.058877091493778774 0.09107979971752185 0.059000607188296604 0.09158085174505581 0.0589954437233309 C 0.09107979971752185 0.059000607188296604 0.08731184443974778 0.05890701856299897 0.08773383405503901 0.05892829377977165 C 0.08731184443974778 0.05890701856299897 0.0864155715537712 0.05872446173391605 0.08651697636156104 0.05874014112205879" fill="none" stroke="#000000" stroke-width="0.001"/>
<path d="M 0.08651697636156104 0.05874014112205879 C 0.0864917829420711 0.05868281074767569 0.08629426577583502 0.05791213948363714 0.08621465532768173 0.05805217662946158 C 0.08629426577583502 0.05791213948363714 0.08776267262663755 0.05693611930446452 0.08747230173940046 0.057059695372165535 C 0.08776267262663755 0.05693611930446452 0.08988467299412056 0.05652839452078976 0.08969910597452671 0.05656926381704944" fill="none" stroke="#000000" stroke-width="0.001"/>
</g><g transform="translate(0.33709027638429434,0.32189764277744887) rotate(0) scale(1,1) translate(-0.08683541815417418,-0.05817999253876105)"><path d="M 0.08969910597452671 0.05656926381704944 C 0.08991170708203858 0.05661708316382009 0.0926149932087717 0.05728480045239871 0.09225031926466908 0.057143095978297254 C 0.0926149932087717 0.05728480045239871 0.09419987156382303 0.05841332052475742 0.09407519330375824 0.05826971750626693 C 0.09419987156382303 0.05841332052475742 0.09371906380892057 0.05891605009134281 0.09374645838544655 0.05886633220018313" fill="none" stroke="#000000" stroke-width="0.001"/>
<path d="M 0.09374645838544655 0.05886633220018313 C 0.09356599116541399 0.058877091493778774 0.09107979971752185 0.059000607188296604 0.09158085174505581 0.0589954437233309 C 0.09107979971752185 0.059000607188296604 0.08731184443974778 0.05890701856299897 0.08773383405503901 0.05892829377977165 C 0.08731184443974778 0.05890701856299897 0.0864155715537712 0.05872446173391605 0.08651697636156104 0.05874014112205879" fill="none" stroke="#000000" stroke-width="0.001"/>
<path d="M 0.08651697636156104 0.05874014112205879 C 0.0864917829420711 0.05868281074767569 0.08629426577583502 0.05791213948363714 0.08621465532768173 0.05805217662946158 C 0.08629426577583502 0.05791213948363714 0.08776267262663755 0.05693611930446452 0.08747230173940046 0.057059695372165535 C 0.08776267262663755 0.05693611930446452 0.08988467299412056 0.05652839452078976 0.08969910597452671 0.05656926381704944" fill="none" stroke="#000000" stroke-width="0.001"/>
</g><g transform="translate(0.33659568871786083,0.32470258881830033) rotate(0) scale(1,1) translate(-0.08683541815417418,-0.05817999253876105)"><path d="M 0.08969910597452671 0.05656926381704944 C 0.08991170708203858 0.05661708316382009 0.0926149932087717 0.05728480045239871 0.09225031926466908 0.057143095978297254 C 0.0926149932087717 0.05728480045239871 0.09419987156382303 0.05841332052475742 0.09407519330375824 0.05826971750626693 C 0.09419987156382303 0.05841332052475742 0.09371906380892057 0.05891605009134281 0.09374645838544655 0.05886633220018313" fill="none" stroke="#000000" stroke-width="0.001"/>
<path d="M 0.09374645838544655 0.05886633220018313 C 0.09356599116541399 0.058877091493778774 0.09107979971752185 0.059000607188296604 0.09158085174505581 0.0589954437233309 C 0.09107979971752185 0.059000607188296604 0.08731184443974778 0.05890701856299897 0.08773383405503901 0.05892829377977165 C 0.08731184443974778 0.05890701856299897 0.0864155715537712 0.05872446173391605 0.08651697636156104 0.05874014112205879" fill="none" stroke="#000000" stroke-width="0.001"/>
<path d="M 0.08651697636156104 0.05874014112205879 C 0.0864917829420711 0.05868281074767569 0.08629426577583502 0.05791213948363714 0.08621465532768173 0.05805217662946158 C 0.08629426577583502 0.05791213948363714 0.08776267262663755 0.05693611930446452 0.08747230173940046 0.057059695372165535 C 0.08776267262663755 0.05693611930446452 0.08988467299412056 0.05652839452078976 0.08969910597452671 0.05656926381704944" fill="none" stroke="#000000" stroke-width="0.001"/>
</g><g transform="translate(0.3361011010514273,0.32750753485915185) rotate(0) scale(1,1) translate(-0.08683541815417418,-0.05817999253876105)"><path d="M 0.08969910597452671 0.05656926381704944 C 0.08991170708203858 0.05661708316382009 0.0926149932087717 0.05728480045239871 0.09225031926466908 0.057143095978297254 C 0.0926149932087717 0.05728480045239871 0.09419987156382303 0.05841332052475742 0.09407519330375824 0.05826971750626693 C 0.09419987156382303 0.05841332052475742 0.09371906380892057 0.05891605009134281 0.09374645838544655 0.05886633220018313" fill="none" stroke="#000000" stroke-width="0.001"/>
<path d="M 0.09374645838544655 0.05886633220018313 C 0.09356599116541399 0.058877091493778774 0.09107979971752185 0.059000607188296604 0.09158085174505581 0.0589954437233309 C 0.09107979971752185 0.059000607188296604 0.08731184443974778 0.05890701856299897 0.08773383405503901 0.05892829377977165 C 0.08731184443974778 0.05890701856299897 0.0864155715537712 0.05872446173391605 0.08651697636156104 0.05874014112205879" fill="none" stroke="#000000" stroke-width="0.001"/>
<path d="M 0.08651697636156104 0.05874014112205879 C 0.0864917829420711 0.05868281074767569 0.08629426577583502 0.05791213948363714 0.08621465532768173 0.05805217662946158 C 0.08629426577583502 0.05791213948363714 0.08776267262663755 0.05693611930446452 0.08747230173940046 0.057059695372165535 C 0.08776267262663755 0.05693611930446452 0.08988467299412056 0.05652839452078976 0.08969910597452671 0.05656926381704944" fill="none" stroke="#000000" stroke-width="0.001"/>
</g><g transform="translate(0.3356065133849938,0.3303124809000033) rotate(0) scale(1,1) translate(-0.08683541815417418,-0.05817999253876105)"><path d="M 0.08969910597452671 0.05656926381704944 C 0.08991170708203858 0.05661708316382009 0.0926149932087717 0.05728480045239871 0.09225031926466908 0.057143095978297254 C 0.0926149932087717 0.05728480045239871 0.09419987156382303 0.05841332052475742 0.09407519330375824 0.05826971750626693 C 0.09419987156382303 0.05841332052475742 0.09371906380892057 0.05891605009134281 0.09374645838544655 0.05886633220018313" fill="none" stroke="#000000" stroke-width="0.001"/>
<path d="M 0.09374645838544655 0.05886633220018313 C 0.09356599116541399 0.058877091493778774 0.09107979971752185 0.059000607188296604 0.09158085174505581 0.0589954437233309 C 0.09107979971752185 0.059000607188296604 0.08731184443974778 0.05890701856299897 0.08773383405503901 0.05892829377977165 C 0.08731184443974778 0.05890701856299897 0.0864155715537712 0.05872446173391605 0.08651697636156104 0.05874014112205879" fill="none" stroke="#000000" stroke-width="0.001"/>
<path d="M 0.08651697636156104 0.05874014112205879 C 0.0864917829420711 0.05868281074767569 0.08629426577583502 0.05791213948363714 0.08621465532768173 0.05805217662946158 C 0.08629426577583502 0.05791213948363714 0.08776267262663755 0.05693611930446452 0.08747230173940046 0.057059695372165535 C 0.08776267262663755 0.05693611930446452 0.08988467299412056 0.05652839452078976 0.08969910597452671 0.05656926381704944" fill="none" stroke="#000000" stroke-width="0.001"/>
</g><g transform="translate(0.3351119257185603,0.3331174269408548) rotate(0) scale(1,1) translate(-0.08683541815417418,-0.05817999253876105)"><path d="M 0.08969910597452671 0.05656926381704944 C 0.08991170708203858 0.05661708316382009 0.0926149932087717 0.05728480045239871 0.09225031926466908 0.057143095978297254 C 0.0926149932087717 0.05728480045239871 0.09419987156382303 0.05841332052475742 0.09407519330375824 0.05826971750626693 C 0.09419987156382303 0.05841332052475742 0.09371906380892057 0.05891605009134281 0.09374645838544655 0.05886633220018313" fill="none" stroke="#000000" stroke-width="0.001"/>
<path d="M 0.09374645838544655 0.05886633220018313 C 0.09356599116541399 0.058877091493778774 0.09107979971752185 0.059000607188296604 0.09158085174505581 0.0589954437233309 C 0.09107979971752185 0.059000607188296604 0.08731184443974778 0.05890701856299897 0.08773383405503901 0.05892829377977165 C 0.08731184443974778 0.05890701856299897 0.0864155715537712 0.05872446173391605 0.08651697636156104 0.05874014112205879" fill="none" stroke="#000000" stroke-width="0.001"/>
<path d="M 0.08651697636156104 0.05874014112205879 C 0.0864917829420711 0.05868281074767569 0.08629426577583502 0.05791213948363714 0.08621465532768173 0.05805217662946158 C 0.08629426577583502 0.05791213948363714 0.08776267262663755 0.05693611930446452 0.08747230173940046 0.057059695372165535 C 0.08776267262663755 0.05693611930446452 0.08988467299412056 0.05652839452078976 0.08969910597452671 0.05656926381704944" fill="none" stroke="#000000" stroke-width="0.001"/>
</g><g transform="translate(0.3346173380521268,0.33592237298170624) rotate(0) scale(1,1) translate(-0.08683541815417418,-0.05817999253876105)"><path d="M 0.08969910597452671 0.05656926381704944 C 0.08991170708203858 0.05661708316382009 0.0926149932087717 0.05728480045239871 0.09225031926466908 0.057143095978297254 C 0.0926149932087717 0.05728480045239871 0.09419987156382303 0.05841332052475742 0.09407519330375824 0.05826971750626693 C 0.09419987156382303 0.05841332052475742 0.09371906380892057 0.05891605009134281 0.09374645838544655 0.05886633220018313" fill="none" stroke="#000000" stroke-width="0.001"/>
<path d="M 0.09374645838544655 0.05886633220018313 C 0.09356599116541399 0.058877091493778774 0.09107979971752185 0.059000607188296604 0.09158085174505581 0.0589954437233309 C 0.09107979971752185 0.059000607188296604 0.08731184443974778 0.05890701856299897 0.08773383405503901 0.05892829377977165 C 0.08731184443974778 0.05890701856299897 0.0864155715537712 0.05872446173391605 0.08651697636156104 0.05874014112205879" fill="none" stroke="#000000" stroke-width="0.001"/>
<path d="M 0.08651697636156104 0.05874014112205879 C 0.0864917829420711 0.05868281074767569 0.08629426577583502 0.05791213948363714 0.08621465532768173 0.05805217662946158 C 0.08629426577583502 0.05791213948363714 0.08776267262663755 0.05693611930446452 0.08747230173940046 0.057059695372165535 C 0.08776267262663755 0.05693611930446452 0.08988467299412056 0.05652839452078976 0.08969910597452671 0.05656926381704944" fill="none" stroke="#000000" stroke-width="0.001"/>
</g><g transform="translate(0.3341227503856933,0.3387273190225577) rotate(0) scale(1,1) translate(-0.08683541815417418,-0.05817999253876105)"><path d="M 0.08969910597452671 0.05656926381704944 C 0.08991170708203858 0.05661708316382009 0.0926149932087717 0.05728480045239871 0.09225031926466908 0.057143095978297254 C 0.0926149932087717 0.05728480045239871 0.09419987156382303 0.05841332052475742 0.09407519330375824 0.05826971750626693 C 0.09419987156382303 0.05841332052475742 0.09371906380892057 0.05891605009134281 0.09374645838544655 0.05886633220018313" fill="none" stroke="#000000" stroke-width="0.001"/>
<path d="M 0.09374645838544655 0.05886633220018313 C 0.09356599116541399 0.058877091493778774 0.09107979971752185 0.059000607188296604 0.09158085174505581 0.0589954437233309 C 0.09107979971752185 0.059000607188296604 0.08731184443974778 0.05890701856299897 0.08773383405503901 0.05892829377977165 C 0.08731184443974778 0.05890701856299897 0.0864155715537712 0.05872446173391605 0.08651697636156104 0.05874014112205879" fill="none" stroke="#000000" stroke-width="0.001"/>
<path d="M 0.08651697636156104 0.05874014112205879 C 0.0864917829420711 0.05868281074767569 0.08629426577583502 0.05791213948363714 0.08621465532768173 0.05805217662946158 C 0.08629426577583502 0.05791213948363714 0.08776267262663755 0.05693611930446452 0.08747230173940046 0.057059695372165535 C 0.08776267262663755 0.05693611930446452 0.08988467299412056 0.05652839452078976 0.08969910597452671 0.05656926381704944" fill="none" stroke="#000000" stroke-width="0.001"/>
</g><g transform="translate(0.33362816271925977,0.34153226506340917) rotate(0) scale(1,1) translate(-0.08683541815417418,-0.05817999253876105)"><path d="M 0.08969910597452671 0.05656926381704944 C 0.08991170708203858 0.05661708316382009 0.0926149932087717 0.05728480045239871 0.09225031926466908 0.057143095978297254 C 0.0926149932087717 0.05728480045239871 0.09419987156382303 0.05841332052475742 0.09407519330375824 0.05826971750626693 C 0.09419987156382303 0.05841332052475742 0.09371906380892057 0.05891605009134281 0.09374645838544655 0.05886633220018313" fill="none" stroke="#000000" stroke-width="0.001"/>
<path d="M 0.09374645838544655 0.05886633220018313 C 0.09356599116541399 0.058877091493778774 0.09107979971752185 0.059000607188296604 0.09158085174505581 0.0589954437233309 C 0.09107979971752185 0.059000607188296604 0.08731184443974778 0.05890701856299897 0.08773383405503901 0.05892829377977165 C 0.08731184443974778 0.05890701856299897 0.0864155715537712 0.05872446173391605 0.08651697636156104 0.05874014112205879" fill="none" stroke="#000000" stroke-width="0.001"/>
<path d="M 0.08651697636156104 0.05874014112205879 C 0.0864917829420711 0.05868281074767569 0.08629426577583502 0.05791213948363714 0.08621465532768173 0.05805217662946158 C 0.08629426577583502 0.05791213948363714 0.08776267262663755 0.05693611930446452 0.08747230173940046 0.057059695372165535 C 0.08776267262663755 0.05693611930446452 0.08988467299412056 0.05652839452078976 0.08969910597452671 0.05656926381704944" fill="none" stroke="#000000" stroke-width="0.001"/>
</g><g transform="translate(0.33316923892339545,0.3441349512434847) rotate(0) scale(1,1) translate(-0.08683541815417418,-0.05817999253876105)"><path d="M 0.08969910597452671 0.05656926381704944 C 0.08991170708203858 0.05661708316382009 0.0926149932087717 0.05728480045239871 0.09225031926466908 0.057143095978297254 C 0.0926149932087717 0.05728480045239871 0.09419987156382303 0.05841332052475742 0.09407519330375824 0.05826971750626693 C 0.09419987156382303 0.05841332052475742 0.09371906380892057 0.05891605009134281 0.09374645838544655 0.05886633220018313" fill="none" stroke="#000000" stroke-width="0.001"/>
<path d="M 0.09374645838544655 0.05886633220018313 C 0.09356599116541399 0.058877091493778774 0.09107979971752185 0.059000607188296604 0.09158085174505581 0.0589954437233309 C 0.09107979971752185 0.059000607188296604 0.08731184443974778 0.05890701856299897 0.08773383405503901 0.05892829377977165 C 0.08731184443974778 0.05890701856299897 0.0864155715537712 0.05872446173391605 0.08651697636156104 0.05874014112205879" fill="none" stroke="#000000" stroke-width="0.001"/>
<path d="M 0.08651697636156104 0.05874014112205879 C 0.0864917829420711 0.05868281074767569 0.08629426577583502 0.05791213948363714 0.08621465532768173 0.05805217662946158 C 0.08629426577583502 0.05791213948363714 0.08776267262663755 0.05693611930446452 0.08747230173940046 0.057059695372165535 C 0.08776267262663755 0.05693611930446452 0.08988467299412056 0.05652839452078976 0.08969910597452671 0.05656926381704944" fill="none" stroke="#000000" stroke-width="0.001"/>
</g><g transform="translate(0.3349412192019433,0.32579276095070614) rotate(0) scale(1,1) translate(-0.09500000000000003,-0.09500000000000001)"><path d="M 0.09341790050441712 0.11213814216594245 C 0.09338491262007591 0.11201181904561455 0.09306643365658653 0.11038907854989659 0.09302204589232264 0.11062226472200765 C 0.09306643365658653 0.11038907854989659 0.09402792932418878 0.10923304504882657 0.09395055367558369 0.10933990810060973" fill="none" stroke="#000000" stroke-width="0.001"/>
<path d="M 0.09395055367558369 0.10933990810060973 C 0.09391439366584806 0.1092130256489886 0.0935591858848381 0.1075838088717722 0.09351663355875614 0.10781731868115615 C 0.0935591858848381 0.1075838088717722 0.09453989392438472 0.10643116303023939 0.09446118158856714 0.10653779038800222" fill="none" stroke="#000000" stroke-width="0.001"/>
<path d="M 0.09446118158856714 0.10653779038800222 C 0.09442368489161902 0.10641067224236075 0.09405200174769829 0.10477855041414626 0.09401122122518965 0.1050123726403047 C 0.09405200174769829 0.10477855041414626 0.09502882507812754 0.1036252195935838 0.09495054785867078 0.10373192367410079" fill="none" stroke="#000000" stroke-width="0.001"/>
<path d="M 0.09495054785867078 0.10373192367410079 C 0.09491348627808348 0.10360488225121349 0.09454215712434139 0.1019728228410184 0.09450580889162315 0.10220742659945321 C 0.09454215712434139 0.1019728228410184 0.09546013646459527 0.10080911623733553 0.09538672665128972 0.10091667857288304" fill="none" stroke="#000000" stroke-width="0.001"/>
<path d="M 0.09538672665128972 0.10091667857288304 C 0.09535453247685363 0.10079049540502627 0.0950422949245185 0.0991688554384925 0.09500039655805666 0.09940248055860178 C 0.0950422949245185 0.0991688554384925 0.09596359958972986 0.09800573517931922 0.09588950704883192 0.09811317713157172" fill="none" stroke="#000000" stroke-width="0.001"/>
<path d="M 0.09588950704883192 0.09811317713157172 C 0.09585663014680344 0.09798687358041994 0.09551395068612761 0.09635970243127609 0.09549498422449015 0.0965975345177503 C 0.09551395068612761 0.09635970243127609 0.09616894795214745 0.09514766355855876 0.09611710458848151 0.09525919209388119" fill="none" stroke="#000000" stroke-width="0.001"/>
<path d="M 0.09611710458848151 0.09525919209388119 C 0.09610647686368502 0.09513697512579933 0.09605637986380927 0.09356351904530624 0.09598957189092366 0.09379258847689882 C 0.09605637986380927 0.09356351904530624 0.0969962359607909 0.09240350645125947 0.09691880026310881 0.09251035891477019" fill="none" stroke="#000000" stroke-width="0.001"/>
<path d="M 0.09691880026310881 0.09251035891477019 C 0.09688258020429617 0.09238346587487661 0.09652396234456811 0.09075364780877593 0.09648415955735715 0.09098764243604734 C 0.09652396234456811 0.09075364780877593 0.09747245655566394 0.08959532180013528 0.09739643370964035 0.08970242338751314" fill="none" stroke="#000000" stroke-width="0.001"/>
<path d="M 0.09739643370964035 0.08970242338751314 C 0.09736162650248621 0.08957577947148669 0.09702137060015327 0.08794919911389337 0.09697874722379066 0.08818269639519587 C 0.09702137060015327 0.08794919911389337 0.09798534480950846 0.0867936026466072 0.09790791422599171 0.08690045601188325" fill="none" stroke="#000000" stroke-width="0.001"/>
<path d="M 0.09790791422599171 0.08690045601188325 C 0.09787169928134441 0.08677356387375501 0.09751337606483321 0.08514379776120311 0.0974733348902242 0.08537775035434439 C 0.09751337606483321 0.08514379776120311 0.09846466444055611 0.08398596443917478 0.09838840832129982 0.08409302489418782" fill="none" stroke="#000000" stroke-width="0.001"/>
<path d="M 0.09838840832129982 0.08409302489418782 C 0.09835336784091298 0.08396633984579659 0.09800876600564896 0.08233899318297117 0.09796792255665768 0.08257280431349293 C 0.09800876600564896 0.08233899318297117 0.09895441363857344 0.08118016524579623 0.0988785297091953 0.08128729132792674" fill="none" stroke="#000000" stroke-width="0.001"/>
<path d="M 0.0988785297091953 0.08128729132792674 C 0.09884386141868663 0.08116067190665296 0.0985040196330877 0.079534164569013 0.0984625102230912 0.07976785827264143 C 0.0985040196330877 0.079534164569013 0.09945282032965852 0.07837589260203082 0.09937664262915334 0.07848296688438548" fill="none" stroke="#000000" stroke-width="0.001"/>
<path d="M 0.09937664262915334 0.07848296688438548 C 0.09941128119948048 0.07860958106518938 0.09975079606308244 0.0802360307576607 0.09979230547307895 0.08000233705403226 C 0.09975079606308244 0.0802360307576607 0.09880238172887167 0.08139437085075128 0.0988785297091953 0.08128729132792674" fill="none" stroke="#000000" stroke-width="0.001"/>
<path d="M 0.0988785297091953 0.08128729132792674 C 0.09891346205064949 0.0814139573085065 0.09925687435765417 0.08304109422540551 0.09929771780664545 0.08280728309488375 C 0.09925687435765417 0.08304109422540551 0.09831263253085434 0.08420017004412983 0.09838840832129982 0.08409302489418782" fill="none" stroke="#000000" stroke-width="0.001"/>
<path d="M 0.09838840832129982 0.08409302489418782 C 0.09842296847287582 0.0842196252476501 0.09876308896560293 0.0858461817288765 0.09880313014021194 0.08561222913573521 C 0.09876308896560293 0.0858461817288765 0.0978333128998067 0.08700780825156225 0.09790791422599171 0.08690045601188325" fill="none" stroke="#000000" stroke-width="0.001"/>
<path d="M 0.09790791422599171 0.08690045601188325 C 0.09794129991330727 0.08702684927560853 0.09826591909741583 0.08865067245788918 0.09830854247377845 0.08841717517658669 C 0.09826591909741583 0.08865067245788918 0.09732042464596218 0.08980952740509034 0.09739643370964035 0.08970242338751314" fill="none" stroke="#000000" stroke-width="0.001"/>
<path d="M 0.09739643370964035 0.08970242338751314 C 0.09743122713444907 0.08982906487334022 0.09777415202013398 0.09145611584470956 0.09781395480734495 0.09122212121743814 C 0.09777415202013398 0.09145611584470956 0.09684420405108914 0.09261771205621452 0.09691880026310881 0.09251035891477019" fill="none" stroke="#000000" stroke-width="0.001"/>
<path d="M 0.09691880026310881 0.09251035891477019 C 0.09695218083625903 0.09263675127673014 0.09725255916802583 0.0942561366898822 0.09731936714091144 0.09402706725828962 C 0.09725255916802583 0.0942561366898822 0.09601691604244568 0.09536186916351382 0.09611710458848151 0.09525919209388119" fill="none" stroke="#000000" stroke-width="0.001"/>
<path d="M 0.09611710458848151 0.09525919209388119 C 0.09617607749564788 0.09539026052765284 0.0968058130128405 0.0970698453856153 0.09682477947447796 0.0968320132991411 C 0.0968058130128405 0.0970698453856153 0.09581156768002809 0.09821994078427428 0.09588950704883192 0.09811317713157172" fill="none" stroke="#000000" stroke-width="0.001"/>
<path d="M 0.09588950704883192 0.09811317713157172 C 0.0959262307787663 0.09824015898227346 0.09628829344158259 0.09987058446010187 0.09633019180804443 0.0996369593399926 C 0.09628829344158259 0.09987058446010187 0.0953081045548935 0.10102332184229058 0.09538672665128972 0.10091667857288304" fill="none" stroke="#000000" stroke-width="0.001"/>
<path d="M 0.09538672665128972 0.10091667857288304 C 0.09542413310881649 0.10104378080687978 0.09579925590889268 0.10267650913927884 0.09583560414161092 0.10244190538084402 C 0.09579925590889268 0.10267650913927884 0.09487679316842577 0.10383942519853885 0.09495054785867078 0.10373192367410079" fill="none" stroke="#000000" stroke-width="0.001"/>
<path d="M 0.09495054785867078 0.10373192367410079 C 0.09498308691004634 0.10385816765306702 0.09530023595266877 0.10548067364785393 0.09534101647517741 0.10524685142169549 C 0.09530023595266877 0.10548067364785393 0.09438786201468295 0.10664536863519444 0.09446118158856714 0.10653779038800222" fill="none" stroke="#000000" stroke-width="0.001"/>
<path d="M 0.09446118158856714 0.10653779038800222 C 0.09449328552358187 0.10666395764421428 0.09480387648266195 0.10828530727193093 0.0948464288087439 0.10805179746254698 C 0.09480387648266195 0.10828530727193093 0.09387589741448701 0.10944725065378162 0.09395055367558369 0.10933990810060973" fill="none" stroke="#000000" stroke-width="0.001"/>
<path d="M 0.09395055367558369 0.10933990810060973 C 0.09398399429781092 0.10946631105084212 0.09430745337804654 0.11108992967550953 0.09435184114231042 0.11085674350339847 C 0.09430745337804654 0.11108992967550953 0.09334007211792601 0.11224492538782112 0.09341790050441712 0.11213814216594245" fill="none" stroke="#000000" stroke-width="0.001"/>
<path d="M 0.09341790050441712 0.11213814216594245 C 0.09345748524125286 0.11224824945907008 0.0938344463191834 0.11365773023644166 0.09389291734644603 0.113459429683474 C 0.0938344463191834 0.11365773023644166 0.09260543190643324 0.11449820890310503 0.09271624817726555 0.11451774880155426 C 0.09260543190643324 0.11449820890310503 0.09262159312372091 0.11302665034911555 0.09256312209645828 0.1132249509020832 C 0.09262159312372091 0.11302665034911555 0.09348913203841369 0.11204757477126405 0.09341790050441712 0.11213814216594245" fill="none" stroke="#000000" stroke-width="0.001"/>
</g></svg>
