<?xml version="1.0" encoding="UTF-8"?>
<svg xmlns="http://www.w3.org/2000/svg" viewBox="0 0 1 1">
<g transform="translate(0.3257456317518053,0.1130072566562324) rotate(0) scale(1,1) translate(-0.06598325895842165,-0.06598325895842165)"><path d="M 0.07225249357760209 0.06395806119101938 C 0.07281230498998327 0.06461876577724276 0.07279034408124599 0.06958120467438665 0.07311639864828831 0.06890370805321513 C 0.07279034408124599 0.06958120467438665 0.0673734439659124 0.07227214052704257 0.06833983877309427 0.07208802064507759 C 0.0673734439659124 0.07227214052704257 0.060640640915453854 0.0706652437530727 0.06151966096210581 0.07111314663679501 C 0.060640640915453854 0.0706652437530727 0.05766187295101892 0.06597054039799694 0.05779159821327081 0.06671318604040988 C 0.05766187295101892 0.06597054039799694 0.060680213105620086 0.061723237842683396 0.05996295781508314 0.062201398927839685 C 0.060680213105620086 0.061723237842683396 0.06742278967992413 0.06112164154046607 0.06639866169971421 0.06097525301853443 C 0.06742278967992413 0.06112164154046607 0.07281230498998327 0.06461876577724276 0.07225249357760209 0.06395806119101938 Z" fill="#cccccc" stroke="#000000" stroke-width="0.001"/>
</g><g transform="translate(0.3218575027498762,0.1108682172272829) rotate(0) scale(1,1) translate(-0.01843233998853915,-0.018432339988539152)"><path d="M 0.019976125816828186 0.017712460834256823 C 0.02008003142270541 0.017935287125140274 0.019686646112349514 0.019610756196425713 0.019827666537947028 0.019409358156698694 C 0.019686646112349514 0.019610756196425713 0.018038954678183255 0.020107809059824597 0.018283880709657998 0.02012923731098103 C 0.018038954678183255 0.020107809059824597 0.01678464855437289 0.018929392851938037 0.01688855416025012 0.01915221914282149 C 0.01678464855437289 0.018929392851938037 0.01717803386472879 0.017253923780652602 0.017037013439131277 0.017455321820379618 C 0.01717803386472879 0.017253923780652602 0.018825725298895053 0.016756870917253718 0.01858079926742031 0.016735442666097285 C 0.018825725298895053 0.016756870917253718 0.02008003142270541 0.017935287125140274 0.019976125816828186 0.017712460834256823 Z" fill="#cccccc" stroke="none" stroke-width="0"/>
</g><g transform="translate(0.33178069108902186,0.11711749073214227) rotate(0) scale(1,1) translate(-0.005607832739230754,-0.005607832739230756)"><path d="M 0.0036332467420611284 -0.0022085217917617484 C 0.0037231079977213593 -0.0021528140715144483 0.004898622236078136 -0.0013975727164722645 0.0047115818099839005 -0.0015400291487941502 C 0.004898622236078136 -0.0013975727164722645 0.006040037522696714 -0.00029679371945024846 0.005877731855191952 -0.0004990446038991199 C 0.006040037522696714 -0.00029679371945024846 0.00675451102365603 0.0011423054809394774 0.006659249820041047 0.0008869814645923064 C 0.00675451102365603 0.0011423054809394774 0.007030674403483338 0.0028494805423438666 0.007020866298571745 0.002564843592266933 C 0.007030674403483338 0.0028494805423438666 0.006665866957422665 0.004563941630887058 0.006776947078980155 0.004302624865515513 C 0.006665866957422665 0.004563941630887058 0.005461642698765965 0.005911905615017252 0.005687904839881863 0.005700644776725474 C 0.005461642698765965 0.005911905615017252 0.003835775337673513 0.006971761790818575 0.004061801385589377 0.006837754925016842 C 0.003835775337673513 0.006971761790818575 0.0028850748381666746 0.007347974853123716 0.0029755922648914976 0.007308727166346264" fill="none" stroke="#000000" stroke-width="0.001"/>
<path d="M 0.0029755922648914976 0.007308727166346264 C 0.0032690077005345626 0.007068140497431296 0.006768533477265647 0.003849716385972744 0.0064965774926082805 0.004421687139366648 C 0.006768533477265647 0.003849716385972744 0.006000453184900976 -0.000107439285307949 0.006239064080779905 0.00044507812561941744 C 0.006000453184900976 -0.000107439285307949 0.0034160952971678932 -0.002429655118210179 0.003633246742061125 -0.0022085217917617484" fill="none" stroke="#000000" stroke-width="0.001"/>
</g></svg>
