<?xml version="1.0" encoding="UTF-8"?>
<svg xmlns="http://www.w3.org/2000/svg" viewBox="0 0 1 1">
<g transform="translate(0.3257456317518053,0.1130072566562324) rotate(0) scale(1,1) translate(-0.06598325895842165,-0.06598325895842165)"><path d="M 0.07225249357760209 0.06395806119101938 C 0.07281230498998327 0.06461876577724276 0.07279034408124599 0.06958120467438665 0.07311639864828831 0.06890370805321513 C 0.07279034408124599 0.06958120467438665 0.0673734439659124 0.07227214052704257 0.06833983877309427 0.07208802064507759 C 0.0673734439659124 0.07227214052704257 0.060640640915453854 0.0706652437530727 0.06151966096210581 0.07111314663679501 C 0.060640640915453854 0.0706652437530727 0.05766187295101892 0.06597054039799694 0.05779159821327081 0.06671318604040988 C 0.05766187295101892 0.06597054039799694 0.060680213105620086 0.061723237842683396 0.05996295781508314 0.062201398927839685 C 0.060680213105620086 0.061723237842683396 0.06742278967992413 0.06112164154046607 0.06639866169971421 0.06097525301853443 C 0.06742278967992413 0.06112164154046607 0.07281230498998327 0.06461876577724276 0.07225249357760209 0.06395806119101938 Z" fill="#cccccc" stroke="#000000" stroke-width="0.001"/>
</g><g transform="translate(0.3218575027498762,0.1108682172272829) rotate(0) scale(1,1) translate(-0.01843233998853915,-0.018432339988539152)"><path d="M 0.019976125816828186 0.017712460834256823 C 0.02008003142270541 0.017935287125140274 0.019686646112349514 0.019610756196425713 0.019827666537947028 0.019409358156698694 C 0.019686646112349514 0.019610756196425713 0.018038954678183255 0.020107809059824597 0.018283880709657998 0.02012923731098103 C 0.018038954678183255 0.020107809059824597 0.01678464855437289 0.018929392851938037 0.01688855416025012 0.01915221914282149 C 0.01678464855437289 0.018929392851938037 0.01717803386472879 0.017253923780652602 0.017037013439131277 0.017455321820379618 C 0.01717803386472879 0.017253923780652602 0.018825725298895053 0.016756870917253718 0.01858079926742031 0.016735442666097285 C 0.018825725298895053 0.016756870917253718 0.02008003142270541 0.017935287125140274 0.019976125816828186 0.017712460834256823 Z" fill="#cccccc" stroke="none" stroke-width="0"/>
</g><g transform="translate(0.33178069108902186,0.11711749073214227) rotate(0) scale(1,1) translate(-0.005607832739230754,-0.005607832739230756)"><path d="M 0.000866070719990794 -0.0033308719479547048 C 0.0010088838399534626 -0.0032813836219946655 0.0029066119082319618 -0.0025831610764737827 0.002579828159542818 -0.0027370120364342346 C 0.0029066119082319618 -0.0025831610764737827 0.005100320055979746 -0.00124301700127148 0.0047874757042605225 -0.0014846604284292817 C 0.005100320055979746 -0.00124301700127148 0.006521053327182581 0.0005090680359997031 0.006333960380173505 0.00016270908945938638 C 0.006521053327182581 0.0005090680359997031 0.007044147181618427 0.003061724981233923 0.00703259106836943 0.00267164693005452 C 0.007044147181618427 0.003061724981233923 0.006248392997872623 0.00517779809219626 0.00647263373916146 0.004843645703612225 C 0.006248392997872623 0.00517779809219626 0.003961893617329055 0.006912751093718321 0.004341702172903396 0.006681475593062942 C 0.003961893617329055 0.006912751093718321 0.001543237874446191 0.007705610400648698 0.0019149310722693686 0.0076189517114767825 C 0.001543237874446191 0.007705610400648698 -0.0002880784737450758 0.007729915542430023 -0.00011861620097473392 0.007721379863125928" fill="none" stroke="#000000" stroke-width="0.001"/>
<path d="M -0.00011861620097473392 0.007721379863125928 C 0.00010724683350758538 0.007436168939988709 0.002822122994579674 0.003674314090928706 0.0025917402128130974 0.004298848785479306 C 0.002822122994579674 0.003674314090928706 0.0025021713891556596 -0.00040884653260076935 0.0026459771802241853 0.0002269635285187316 C 0.0025021713891556596 -0.00040884653260076935 0.0007177451816380088 -0.0036273582376608244 0.0008660707199907916 -0.0033308719479547048" fill="none" stroke="#000000" stroke-width="0.001"/>
</g></svg>
