<?xml version="1.0" encoding="UTF-8"?>
<svg xmlns="http://www.w3.org/2000/svg" viewBox="0 0 1 1">
<g transform="translate(0.33734345282867056,0.2712976456560574) rotate(0) scale(1,1) translate(-0.264144294921875,-0.2452938262242776)"><path d="M 0.252672828712396 0.2452938262242776 C 0.25295282160094634 0.24461786359537133 0.2569886988924566 0.23622631915994596 0.25603274337500004 0.23718227467740255 C 0.2569886988924566 0.23622631915994596 0.26549622017968755 0.2338223600147985 0.264144294921875 0.2338223600147985 C 0.26549622017968755 0.2338223600147985 0.27321180198620665 0.23813823019485914 0.27225584646875006 0.23718227467740255 C 0.27321180198620665 0.23813823019485914 0.27589575401990446 0.24596978885318385 0.2756157611313541 0.2452938262242776" fill="none" stroke="#000000" stroke-width="0.001"/>
<path d="M 0.2756157611313541 0.2452938262242776 C 0.27545066187775624 0.24597255464167178 0.27330437158098414 0.2547960240677961 0.2736345700881799 0.2534385672330077 C 0.27330437158098414 0.2547960240677961 0.2714882797914077 0.26226203665913206 0.2716533790450056 0.26158330824173787" fill="none" stroke="#000000" stroke-width="0.001"/>
<path d="M 0.2716533790450056 0.26158330824173787 C 0.27156954350222684 0.2618961867468683 0.27033447402653 0.2658797717707852 0.27064735253166045 0.2653378503033031 C 0.27033447402653 0.2658797717707852 0.2673569155159582 0.26839924435665374 0.2678988369834403 0.2680863658515233 C 0.2673569155159582 0.26839924435665374 0.26351853791161417 0.26909239236486837 0.264144294921875 0.26909239236486837 C 0.26351853791161417 0.26909239236486837 0.2598478313928277 0.26777348734639284 0.2603897528603098 0.2680863658515233 C 0.2598478313928277 0.26777348734639284 0.2573283588069592 0.264795928835821 0.25764123731208965 0.2653378503033031 C 0.2573283588069592 0.264795928835821 0.2565513752559658 0.2612704297366074 0.2566352107987445 0.26158330824173787" fill="none" stroke="#000000" stroke-width="0.001"/>
<path d="M 0.2566352107987445 0.26158330824173787 C 0.25647011154514665 0.2609045798243437 0.2543238212483745 0.25208111039821934 0.2546540197555702 0.2534385672330077 C 0.2543238212483745 0.25208111039821934 0.2525077294587981 0.2446150978068834 0.252672828712396 0.2452938262242776" fill="none" stroke="#000000" stroke-width="0.001"/>
</g><g transform="translate(0.33734345282867056,0.2875871276735177) rotate(0) scale(1,1) translate(-0.264144294921875,-0.2452938262242776)"><path d="M 0.2566878418857136 0.2452938262242776 C 0.25686983726327134 0.24485445051548851 0.25949315750275315 0.239399946632462 0.25887178641640635 0.2400213177188088 C 0.25949315750275315 0.239399946632462 0.2650230463394531 0.23783737318811615 0.264144294921875 0.23783737318811615 C 0.2650230463394531 0.23783737318811615 0.27003817451369055 0.2406426888051556 0.26941680342734375 0.2400213177188088 C 0.27003817451369055 0.2406426888051556 0.2717827433355941 0.24573320193306666 0.2716007479580364 0.2452938262242776" fill="none" stroke="none" stroke-width="0"/>
<path d="M 0.2716007479580364 0.2452938262242776 C 0.2714934334431978 0.2457349996955838 0.2700983447502959 0.2514702548225646 0.27031297377997315 0.25058790787995217 C 0.2700983447502959 0.2514702548225646 0.26891788508707126 0.256323163006933 0.26902519960190985 0.25588198953562674" fill="none" stroke="#000000" stroke-width="0.001"/>
<path d="M 0.26902519960190985 0.25588198953562674 C 0.26897070649910365 0.25608536056396153 0.2681679113399007 0.2586746908295075 0.2683712823682355 0.2583224418756441 C 0.2681679113399007 0.2586746908295075 0.26623249830802903 0.260312348010322 0.2665847472618924 0.2601089769819872 C 0.26623249830802903 0.260312348010322 0.26373755286520545 0.26076289421566157 0.264144294921875 0.26076289421566157 C 0.26373755286520545 0.26076289421566157 0.26135159362799426 0.2599056059536524 0.26170384258185764 0.2601089769819872 C 0.26135159362799426 0.2599056059536524 0.2597139364471797 0.25797019292178075 0.2599173074755145 0.2583224418756441 C 0.2597139364471797 0.25797019292178075 0.25920889713903406 0.25567861850729195 0.25926339024184025 0.25588198953562674" fill="none" stroke="#000000" stroke-width="0.001"/>
<path d="M 0.25926339024184025 0.25588198953562674 C 0.25915607572700167 0.2554408160643205 0.2577609870340997 0.24970556093733973 0.25797561606377695 0.25058790787995217 C 0.2577609870340997 0.24970556093733973 0.256580527370875 0.24485265275297138 0.2566878418857136 0.2452938262242776" fill="none" stroke="#000000" stroke-width="0.001"/>
</g><g transform="translate(0.33734345282867056,0.29817529098486684) rotate(0) scale(1,1) translate(-0.264144294921875,-0.2452938262242776)"><path d="M 0.25929760044837 0.2452938262242776 C 0.2594158974437826 0.2450082320135647 0.2611210555994458 0.24146280448959748 0.2607171643933204 0.2418666956957229 C 0.2611210555994458 0.24146280448959748 0.2647154833433008 0.24044713175077265 0.264144294921875 0.24044713175077265 C 0.2647154833433008 0.24044713175077265 0.26797531665655505 0.2422705869018483 0.26757142545042967 0.2418666956957229 C 0.26797531665655505 0.2422705869018483 0.26910928639079246 0.24557942043499048 0.2689909893953799 0.2452938262242776" fill="none" stroke="none" stroke-width="0"/>
<path d="M 0.2689909893953799 0.2452938262242776 C 0.26892123496073483 0.24558058898062662 0.2680144273103486 0.24930850481316413 0.2681539361796388 0.24873497930046606 C 0.2680144273103486 0.24930850481316413 0.2672471285292526 0.2524628951330036 0.26731688296389766 0.25217613237665454" fill="none" stroke="#000000" stroke-width="0.001"/>
<path d="M 0.26731688296389766 0.25217613237665454 C 0.2672814624470736 0.25230832354507216 0.2667596455935917 0.253991388217677 0.26689183676200934 0.25376242639766583 C 0.2667596455935917 0.253991388217677 0.2655016271228751 0.25505586538520647 0.2657305889428863 0.25492367421678885 C 0.2655016271228751 0.25505586538520647 0.2638799125850398 0.2553487204186772 0.264144294921875 0.2553487204186772 C 0.2638799125850398 0.2553487204186772 0.2623290390808525 0.25479148304837124 0.2625580009008637 0.25492367421678885 C 0.2623290390808525 0.25479148304837124 0.26126456191332315 0.25353346457765463 0.26139675308174076 0.25376242639766583 C 0.26126456191332315 0.25353346457765463 0.2609362863630284 0.2520439412082369 0.26097170687985244 0.25217613237665454" fill="none" stroke="#000000" stroke-width="0.001"/>
<path d="M 0.26097170687985244 0.25217613237665454 C 0.26090195244520736 0.2518893696203055 0.2599951447948211 0.248161453787768 0.2601346536641113 0.24873497930046606 C 0.2599951447948211 0.248161453787768 0.2592278460137249 0.24500706346792855 0.25929760044837 0.2452938262242776" fill="none" stroke="#000000" stroke-width="0.001"/>
</g><g transform="translate(0.33734345282867056,0.3050575971372438) rotate(0) scale(1,1) translate(-0.264144294921875,-0.2452938262242776)"><path d="M 0.2609939435140968 0.2452938262242776 C 0.26107083656111496 0.2451081899873142 0.26217918936229606 0.24280366209673548 0.26191666007831454 0.243066191380717 C 0.26217918936229606 0.24280366209673548 0.2645155673958018 0.24214347481649934 0.264144294921875 0.24214347481649934 C 0.2645155673958018 0.24214347481649934 0.26663445904941707 0.24332872066469852 0.26637192976543556 0.243066191380717 C 0.26663445904941707 0.24332872066469852 0.2673715393766713 0.24547946246124097 0.26729464632965316 0.2452938262242776" fill="none" stroke="none" stroke-width="0"/>
<path d="M 0.26729464632965316 0.2452938262242776 C 0.26724930594713386 0.24548022201590447 0.26665988097438287 0.24790336730705387 0.26675056173942147 0.2475305757238001 C 0.26665988097438287 0.24790336730705387 0.2661611367666705 0.2499537210149495 0.2662064771491898 0.24976732522332262" fill="none" stroke="#000000" stroke-width="0.001"/>
<path d="M 0.2662064771491898 0.24976732522332262 C 0.2661834538132542 0.24985324948279405 0.2658442728584909 0.2509472415199872 0.26593019711796234 0.2507984163369799 C 0.2658442728584909 0.2509472415199872 0.2650265608525251 0.25163915167888135 0.26517538603553237 0.2515532274194099 C 0.2650265608525251 0.25163915167888135 0.26397244640293216 0.2518295074506373 0.264144294921875 0.2518295074506373 C 0.26397244640293216 0.2518295074506373 0.26296437862521044 0.2514673031599384 0.26311320380821773 0.2515532274194099 C 0.26296437862521044 0.2514673031599384 0.2622724684663163 0.2506495911539726 0.26235839272578776 0.2507984163369799 C 0.2622724684663163 0.2506495911539726 0.26205908935862465 0.2496814009638512 0.2620821126945603 0.24976732522332262" fill="none" stroke="#000000" stroke-width="0.001"/>
<path d="M 0.2620821126945603 0.24976732522332262 C 0.262036772312041 0.24958092943169574 0.26144734733929004 0.24715778414054634 0.26153802810432863 0.2475305757238001 C 0.26144734733929004 0.24715778414054634 0.26094860313157753 0.2451074304326507 0.2609939435140968 0.2452938262242776" fill="none" stroke="#000000" stroke-width="0.001"/>
</g><g transform="translate(0.33734345282867056,0.3095310961362888) rotate(0) scale(1,1) translate(-0.264144294921875,-0.2452938262242776)"><path d="M 0.26209656650681923 0.2452938262242776 C 0.26214654698738105 0.24517316267025138 0.2628669763081487 0.24367521954137517 0.2626963322735607 0.24384586357596316 C 0.2628669763081487 0.24367521954137517 0.26438562202992744 0.24324609780922174 0.264144294921875 0.24324609780922174 C 0.26438562202992744 0.24324609780922174 0.2657629016047774 0.24401650761055116 0.2655922575701894 0.24384586357596316 C 0.2657629016047774 0.24401650761055116 0.26624200381749263 0.2454144897783038 0.26619202333693087 0.2452938262242776" fill="none" stroke="none" stroke-width="0"/>
<path d="M 0.26619202333693087 0.2452938262242776 C 0.2661625520882933 0.24541498348883506 0.2657794258560051 0.2469900279280821 0.26583836835328023 0.24674771339896717 C 0.2657794258560051 0.2469900279280821 0.2654552421209921 0.24832275783821428 0.26548471336962964 0.2482016005736568" fill="none" stroke="#000000" stroke-width="0.001"/>
<path d="M 0.26548471336962964 0.2482016005736568 C 0.2654697482012715 0.24825745134231325 0.2652492805806754 0.24896854616648884 0.2653051313493318 0.2488718097975341 C 0.2652492805806754 0.24896854616648884 0.2647177677767976 0.24941828776977 0.26481450414575236 0.24936243700111355 C 0.2647177677767976 0.24941828776977 0.2640325933845622 0.24954201902141135 0.2641442949218751 0.24954201902141135 C 0.2640325933845622 0.24954201902141135 0.26337734932904305 0.2493065862324571 0.2634740856979978 0.24936243700111355 C 0.26337734932904305 0.2493065862324571 0.2629276077257619 0.24877507342857935 0.26298345849441834 0.24887180979753407 C 0.2629276077257619 0.24877507342857935 0.2627889113057623 0.24814574980500037 0.26280387647412046 0.2482016005736568" fill="none" stroke="#000000" stroke-width="0.001"/>
<path d="M 0.26280387647412046 0.2482016005736568 C 0.2627744052254829 0.24808044330909934 0.26239127899319475 0.24650539886985223 0.26245022149046987 0.24674771339896717 C 0.26239127899319475 0.24650539886985223 0.26206709525818167 0.24517266895972012 0.26209656650681923 0.2452938262242776" fill="none" stroke="#000000" stroke-width="0.001"/>
</g><g transform="translate(0.3373434528286706,0.31243887048566804) rotate(0) scale(1,1) translate(-0.264144294921875,-0.2452938262242776)"><path d="M 0.26281327145208877 0.2452938262242776 C 0.26284575876445393 0.24521539491416056 0.2633140378229529 0.24424173188039103 0.2632031192004707 0.24435265050287322 C 0.2633140378229529 0.24424173188039103 0.2643011575421091 0.24396280275449128 0.264144294921875 0.24396280275449128 C 0.2643011575421091 0.24396280275449128 0.26519638926576156 0.2444635691253554 0.26508547064327936 0.24435265050287322 C 0.26519638926576156 0.2444635691253554 0.2655078057040265 0.24537225753439462 0.26547531839166133 0.2452938262242776" fill="none" stroke="none" stroke-width="0"/>
<path d="M 0.26547531839166133 0.2452938262242776 C 0.2654561620800469 0.24537257844623994 0.26520713002905955 0.24639635733175053 0.2652454426522884 0.24623885288782582 C 0.26520713002905955 0.24639635733175053 0.2649964106013011 0.24726263177333643 0.2650155669129155 0.24718387955137408" fill="none" stroke="#000000" stroke-width="0.001"/>
<path d="M 0.2650155669129155 0.24718387955137408 C 0.26499355315951867 0.24722870629868918 0.26467879587290016 0.24779440651840864 0.2647514018721535 0.24772180051915527 C 0.26467879587290016 0.24779440651840864 0.26404311043016193 0.24805515154241453 0.264144294921875 0.24805515154241453 C 0.26404311043016193 0.24805515154241453 0.2634645819723432 0.24764919451990186 0.26353718797159653 0.24772180051915524 C 0.2634645819723432 0.24764919451990186 0.2632510091774377 0.24713905280405898 0.26327302293083454 0.24718387955137408" fill="none" stroke="#000000" stroke-width="0.001"/>
<path d="M 0.26327302293083454 0.24718387955137408 C 0.2632538666192201 0.24710512732941173 0.26300483456823287 0.24608134844390112 0.26304314719146166 0.24623885288782582 C 0.26300483456823287 0.24608134844390112 0.26279411514047435 0.24521507400231524 0.26281327145208877 0.2452938262242776" fill="none" stroke="#000000" stroke-width="0.001"/>
</g></svg>
