<?xml version="1.0" encoding="UTF-8"?>
<svg xmlns="http://www.w3.org/2000/svg" viewBox="0 0 1 1">
<g transform="translate(0.33734345282867056,0.2712976456560574) rotate(0) scale(1,1) translate(-0.264144294921875,-0.2452938262242776)"><path d="M 0.2567433489802756 0.2452938262242776 C 0.2569239895535339 0.24485772130240258 0.2595277813545083 0.2394438216666443 0.258911035859375 0.2400605671617776 C 0.2595277813545083 0.2394438216666443 0.265016504765625 0.2378928802826782 0.264144294921875 0.2378928802826782 C 0.265016504765625 0.2378928802826782 0.2699942994795083 0.2406773126569109 0.269377553984375 0.2400605671617776 C 0.2699942994795083 0.2406773126569109 0.2717258814367327 0.2457299311461526 0.2715452408634744 0.2452938262242776" fill="none" stroke="#000000" stroke-width="0.001"/>
<path d="M 0.2715452408634744 0.2452938262242776 C 0.2715268926849942 0.2459105717194109 0.2712883663647515 0.2539282631561436 0.2713250627217119 0.25269477216587705 C 0.2712883663647515 0.2539282631561436 0.271086536401469 0.26071246360260963 0.27110488457994925 0.26009571810747634" fill="none" stroke="#000000" stroke-width="0.001"/>
<path d="M 0.27110488457994925 0.26009571810747634 C 0.27102717273087734 0.2603857426765628 0.2698823178220001 0.26407835022561454 0.27017234239108656 0.26357601293651356 C 0.2698823178220001 0.26407835022561454 0.26712225246181115 0.26641379014577443 0.26762458975091213 0.266123765576688 C 0.26712225246181115 0.26641379014577443 0.2635642457837022 0.26705630776555067 0.264144294921875 0.26705630776555067 C 0.2635642457837022 0.26705630776555067 0.2601616628037369 0.26583374100760154 0.2606640000928379 0.266123765576688 C 0.2601616628037369 0.26583374100760154 0.25782622288357704 0.2630736756474126 0.2581162474526635 0.26357601293651356 C 0.25782622288357704 0.2630736756474126 0.2571059934147289 0.2598056935383899 0.2571837052638008 0.26009571810747634" fill="none" stroke="#000000" stroke-width="0.001"/>
<path d="M 0.2571837052638008 0.26009571810747634 C 0.25716535708532057 0.25947897261234304 0.2569268307650777 0.2514612811756105 0.2569635271220381 0.25269477216587705 C 0.2569268307650777 0.2514612811756105 0.2567250008017954 0.2446770807291443 0.2567433489802756 0.2452938262242776" fill="none" stroke="#000000" stroke-width="0.001"/>
</g><g transform="translate(0.33734345282867056,0.28609953753925615) rotate(0) scale(1,1) translate(-0.264144294921875,-0.2452938262242776)"><path d="M 0.25718740573677157 0.2452938262242776 C 0.2573572078756344 0.2448838875977151 0.2598047721685503 0.23979482194010232 0.25922503140312503 0.2403745627055276 C 0.2598047721685503 0.23979482194010232 0.264964172175 0.23833693703917416 0.264144294921875 0.23833693703917416 C 0.264964172175 0.23833693703917416 0.2696432992060503 0.24095430347095287 0.269063558440625 0.2403745627055276 C 0.2696432992060503 0.24095430347095287 0.2712709862458413 0.24570376485084008 0.2711011841069785 0.2452938262242776" fill="none" stroke="none" stroke-width="0"/>
<path d="M 0.2711011841069785 0.2452938262242776 C 0.27108393681920706 0.2458735669897029 0.2708597220781789 0.25341019694023165 0.27089421665372165 0.2522507154093811 C 0.2708597220781789 0.25341019694023165 0.2706700019126934 0.2597873453599097 0.27068724920046483 0.25920760459448444" fill="none" stroke="#000000" stroke-width="0.001"/>
<path d="M 0.27068724920046483 0.25920760459448444 C 0.2706142000623373 0.2594802276894257 0.2695380364479926 0.2629512787855343 0.2698106595429339 0.26247908173377943 C 0.2695380364479926 0.2629512787855343 0.26694357500941507 0.2651465923104846 0.26741577206116995 0.26487396921554335 C 0.26694357500941507 0.2651465923104846 0.2635990487319925 0.2657505588730743 0.264144294921875 0.2657505588730743 C 0.2635990487319925 0.2657505588730743 0.26040062073082526 0.2646013461206021 0.26087281778258015 0.26487396921554335 C 0.26040062073082526 0.2646013461206021 0.258205307205875 0.26200688468202454 0.2584779303008162 0.26247908173377943 C 0.258205307205875 0.26200688468202454 0.25752829150515766 0.2589349814995432 0.2576013406432852 0.25920760459448444" fill="none" stroke="#000000" stroke-width="0.001"/>
<path d="M 0.2576013406432852 0.25920760459448444 C 0.2575840933555138 0.25862786382905917 0.2573598786144856 0.25109123387853055 0.2573943731900284 0.2522507154093811 C 0.2573598786144856 0.25109123387853055 0.25717015844900015 0.2447140854588523 0.25718740573677157 0.2452938262242776" fill="none" stroke="#000000" stroke-width="0.001"/>
</g><g transform="translate(0.33734345282867056,0.300013315909463) rotate(0) scale(1,1) translate(-0.264144294921875,-0.2452938262242776)"><path d="M 0.25760481908787775 0.2452938262242776 C 0.25776443309840874 0.24490848391530884 0.2600651435337497 0.24012476219715284 0.25952018721424996 0.24066971851665261 C 0.2600651435337497 0.24012476219715284 0.26491497953981247 0.23875435039028037 0.26414429492187497 0.23875435039028037 C 0.26491497953981247 0.23875435039028037 0.26931335894899977 0.24121467483615236 0.26876840262949997 0.2406697185166526 C 0.26931335894899977 0.24121467483615236 0.27084338476640324 0.24567916853324634 0.27068377075587224 0.2452938262242776" fill="none" stroke="none" stroke-width="0"/>
<path d="M 0.27068377075587224 0.2452938262242776 C 0.27066755830536715 0.24583878254377736 0.2704567964488006 0.2529232146972744 0.27048922134981085 0.25183330205827487 C 0.2704567964488006 0.2529232146972744 0.27027845949324425 0.2589177342117718 0.2702946719437494 0.25837277789227203" fill="none" stroke="#000000" stroke-width="0.001"/>
<path d="M 0.2702946719437494 0.25837277789227203 C 0.2702260057539095 0.25862904360151684 0.26921441195642565 0.26189183163185903 0.2694706776656704 0.2614479664032094 C 0.26921441195642565 0.26189183163185903 0.2667756182041626 0.26395542634531216 0.26721948343281227 0.2636991606360674 C 0.2667756182041626 0.26395542634531216 0.26363176350338546 0.2645231549141465 0.264144294921875 0.2645231549141465 C 0.26363176350338546 0.2645231549141465 0.2606252411822883 0.26344289492682266 0.2610691064109379 0.2636991606360674 C 0.2606252411822883 0.26344289492682266 0.258561646468835 0.26100410117455974 0.25881791217807976 0.2614479664032094 C 0.258561646468835 0.26100410117455974 0.2579252517101607 0.2581165121830272 0.2579939179000006 0.25837277789227203" fill="none" stroke="#000000" stroke-width="0.001"/>
<path d="M 0.2579939179000006 0.25837277789227203 C 0.2579777054494955 0.2578278215727723 0.25776694359292895 0.2507433894192753 0.2577993684939392 0.25183330205827487 C 0.25776694359292895 0.2507433894192753 0.2575886066373726 0.24474886990477782 0.25760481908787775 0.2452938262242776" fill="none" stroke="#000000" stroke-width="0.001"/>
</g><g transform="translate(0.33734345282867056,0.31309226757745745) rotate(0) scale(1,1) translate(-0.264144294921875,-0.2452938262242776)"><path d="M 0.25799718763791757 0.2452938262242776 C 0.2581472248078167 0.24493160445384696 0.2603098926170373 0.24043490603878032 0.2597976336767075 0.2409471649791101 C 0.2603098926170373 0.24043490603878032 0.26486873846273623 0.23914671894032022 0.26414429492187497 0.23914671894032022 C 0.26486873846273623 0.23914671894032022 0.26900321510737224 0.2414594239194399 0.26849095616704244 0.24094716497911012 C 0.26900321510737224 0.2414594239194399 0.27044143937573156 0.24565604799470822 0.2702914022058324 0.2452938262242776" fill="none" stroke="none" stroke-width="0"/>
<path d="M 0.2702914022058324 0.2452938262242776 C 0.2702761625023576 0.2458060851646074 0.2700780463571851 0.2524654513888946 0.2701085257641347 0.25144093350823504 C 0.2700780463571851 0.2524654513888946 0.2699104096189621 0.2581002997325222 0.26992564932243696 0.2575880407921924" fill="none" stroke="#000000" stroke-width="0.001"/>
<path d="M 0.26992564932243696 0.2575880407921924 C 0.2698611031039874 0.25782893055888245 0.2689102049343526 0.2608959513074041 0.26915109470104265 0.26047871799247346 C 0.2689102049343526 0.2608959513074041 0.26661773880722534 0.2628357303380501 0.267034972122156 0.26259484057136 C 0.26661773880722534 0.2628357303380501 0.2636625153884949 0.26336939519275443 0.264144294921875 0.26336939519275443 C 0.2636625153884949 0.26336939519275443 0.26083638440666357 0.26235395080466994 0.26125361772159417 0.26259484057136 C 0.26083638440666357 0.26235395080466994 0.25889660537601744 0.2600614846775428 0.2591374951427075 0.26047871799247346 C 0.25889660537601744 0.2600614846775428 0.25829839430286355 0.2573471510255023 0.2583629405213131 0.2575880407921924" fill="none" stroke="#000000" stroke-width="0.001"/>
<path d="M 0.2583629405213131 0.2575880407921924 C 0.25834770081783826 0.2570757818518626 0.25814958467266574 0.2504164156275755 0.25818006407961536 0.25144093350823504 C 0.25814958467266574 0.2504164156275755 0.25798194793444273 0.2447815672839478 0.25799718763791757 0.2452938262242776" fill="none" stroke="#000000" stroke-width="0.001"/>
</g><g transform="translate(0.33734345282867056,0.32538648214537225) rotate(0) scale(1,1) translate(-0.264144294921875,-0.2452938262242776)"><path d="M 0.258366014074955 0.2452938262242776 C 0.2585070490146602 0.2449533377600728 0.26053995675532754 0.24072644124991016 0.26005843335141754 0.24120796465382016 C 0.26053995675532754 0.24072644124991016 0.26482527185028454 0.23951554537735767 0.26414429492187497 0.23951554537735767 C 0.26482527185028454 0.23951554537735767 0.2687116798962424 0.24168948805773016 0.2682301564923324 0.24120796465382016 C 0.2687116798962424 0.24168948805773016 0.27006361070850016 0.24563431468848237 0.26992257576879497 0.2452938262242776" fill="none" stroke="none" stroke-width="0"/>
<path d="M 0.26992257576879497 0.2452938262242776 C 0.26990825044752864 0.2457753496281876 0.2697220212710665 0.2520351538790176 0.26975067191359914 0.2510721070711976 C 0.2697220212710665 0.2520351538790176 0.2695644427371369 0.2573319113220275 0.26957876805840325 0.2568503879181175" fill="none" stroke="#000000" stroke-width="0.001"/>
<path d="M 0.26957876805840325 0.2568503879181175 C 0.2695180946130607 0.2570768242988062 0.26862425033360393 0.25995982380241656 0.26885068671429263 0.25956762448638176 C 0.26862425033360393 0.25995982380241656 0.26646933217410435 0.2617832160912238 0.26686153149013914 0.2615567797105351 C 0.26646933217410435 0.2617832160912238 0.2636914221604977 0.2622848610546458 0.264144294921875 0.2622848610546458 C 0.2636914221604977 0.2622848610546458 0.26103485903757623 0.2613303433298464 0.261427058353611 0.2615567797105351 C 0.26103485903757623 0.2613303433298464 0.2592114667487688 0.259175425170347 0.2594379031294575 0.25956762448638176 C 0.2592114667487688 0.259175425170347 0.2586491483400043 0.2566239515374288 0.25870982178534685 0.2568503879181175" fill="none" stroke="#000000" stroke-width="0.001"/>
<path d="M 0.25870982178534685 0.2568503879181175 C 0.2586954964640805 0.2563688645142075 0.25850926728761825 0.2501090602633776 0.2585379179301509 0.2510721070711976 C 0.25850926728761825 0.2501090602633776 0.2583516887536887 0.2448123028203676 0.258366014074955 0.2452938262242776" fill="none" stroke="#000000" stroke-width="0.001"/>
</g><g transform="translate(0.33734345282867056,0.33694304383921214) rotate(0) scale(1,1) translate(-0.264144294921875,-0.2452938262242776)"><path d="M 0.25871271092577025 0.2452938262242776 C 0.25884528376909316 0.2449737670679251 0.26075621704532037 0.24100048434837218 0.260303585045645 0.2414531163480476 C 0.26075621704532037 0.24100048434837218 0.26478441323458 0.23986224222817282 0.264144294921875 0.23986224222817282 C 0.26478441323458 0.23986224222817282 0.26843763679778043 0.241905748347723 0.26798500479810505 0.2414531163480476 C 0.26843763679778043 0.241905748347723 0.2697084517613027 0.2456138853806301 0.2695758789179798 0.2452938262242776" fill="none" stroke="none" stroke-width="0"/>
<path d="M 0.2695758789179798 0.2452938262242776 C 0.26956241311598944 0.245746458223953 0.26938735769011496 0.25163067421973323 0.26941428929409567 0.2507254102203824 C 0.26938735769011496 0.25163067421973323 0.26923923386822124 0.25660962621616246 0.2692526996702116 0.2561569942164871" fill="none" stroke="#000000" stroke-width="0.001"/>
<path d="M 0.2590358901735385 0.2561569942164871 C 0.25902242437154815 0.2557043622168117 0.2588473689456737 0.24982014622103163 0.2588743005496544 0.2507254102203824 C 0.2588473689456737 0.24982014622103163 0.2586992451237799 0.24484119422460218 0.25871271092577025 0.2452938262242776" fill="none" stroke="#000000" stroke-width="0.001"/>
</g><g transform="translate(0.33734345282867056,0.34780621183142163) rotate(0) scale(1,1) translate(-0.264144294921875,-0.2452938262242776)"><path d="M 0.2590386059655365 0.2452938262242776 C 0.25916322443826006 0.24499297061730624 0.2609595017179137 0.2412580848609265 0.2605340276382188 0.24168355894062138 C 0.2609595017179137 0.2412580848609265 0.2647460061358177 0.2401881372679391 0.264144294921875 0.2401881372679391 C 0.2647460061358177 0.2401881372679391 0.26818003628522613 0.24210903302031625 0.26775456220553123 0.24168355894062138 C 0.26818003628522613 0.24210903302031625 0.2693746023509371 0.24559468183124894 0.26924998387821353 0.2452938262242776" fill="none" stroke="none" stroke-width="0"/>
<path d="M 0.26924998387821353 0.2452938262242776 C 0.2692373260243426 0.24571930030397246 0.26907277392402057 0.2512504633400059 0.2690980896317624 0.25039951518061615 C 0.26907277392402057 0.2512504633400059 0.26893353753144045 0.2559306782166494 0.2689461953853114 0.25550520413695454" fill="none" stroke="#000000" stroke-width="0.001"/>
<path d="M 0.2689461953853114 0.25550520413695454 C 0.2688925843290067 0.2557052833229311 0.26810278352367867 0.2582527016843212 0.2683028627096552 0.2579061543686728 C 0.26810278352367867 0.2582527016843212 0.26619869783794486 0.25986385111071125 0.26654524515359324 0.2596637719247347 C 0.26619869783794486 0.25986385111071125 0.263744136549922 0.26030710460039097 0.264144294921875 0.26030710460039097 C 0.263744136549922 0.26030710460039097 0.26139679737450866 0.2594636927387582 0.261743344690157 0.2596637719247347 C 0.26139679737450866 0.2594636927387582 0.2597856479481184 0.25755960705302444 0.25998572713409496 0.2579061543686728 C 0.2597856479481184 0.25755960705302444 0.259288783402134 0.255305124950978 0.2593423944584387 0.25550520413695454" fill="none" stroke="#000000" stroke-width="0.001"/>
<path d="M 0.2593423944584387 0.25550520413695454 C 0.25932973660456776 0.2550797300572597 0.2591651845042458 0.2495485670212264 0.25919050021198764 0.25039951518061615 C 0.2591651845042458 0.2495485670212264 0.25902594811166557 0.24486835214458272 0.2590386059655365 0.2452938262242776" fill="none" stroke="#000000" stroke-width="0.001"/>
</g><g transform="translate(0.3373434528286705,0.3580182748331809) rotate(0) scale(1,1) translate(-0.264144294921875,-0.2452938262242776)"><path d="M 0.2593449473029169 0.2452938262242776 C 0.25946208866727705 0.2450110219537245 0.26115058931015145 0.24150022934272758 0.26075064367523826 0.24190017497764077 C 0.26115058931015145 0.24150022934272758 0.26470990346298123 0.24049447860531944 0.2641442949218751 0.24049447860531944 C 0.26470990346298123 0.24049447860531944 0.2679378918034251 0.24230012061255396 0.2675379461685119 0.24190017497764077 C 0.2679378918034251 0.24230012061255396 0.2690607839051933 0.24557663049483067 0.2689436425408332 0.2452938262242776" fill="none" stroke="none" stroke-width="0"/>
<path d="M 0.2689436425408332 0.2452938262242776 C 0.26893174415819454 0.24569377185919078 0.2687770651838919 0.25089306511306225 0.2688008619491692 0.25009317384323587 C 0.2687770651838919 0.25089306511306225 0.2686461829748666 0.2552924670971071 0.26865808135750524 0.25489252146219393" fill="none" stroke="#000000" stroke-width="0.001"/>
<path d="M 0.26865808135750524 0.25489252146219393 C 0.2686076869645788 0.2550805958970119 0.26786527420757045 0.2574751691567186 0.2680533486423884 0.2571494146800091 C 0.26786527420757045 0.2574751691567186 0.2660754336629807 0.25898964961752524 0.26640118813969016 0.2588015751827073 C 0.2660754336629807 0.25898964961752524 0.2637681460522392 0.25940630789782415 0.264144294921875 0.25940630789782415 C 0.2637681460522392 0.25940630789782415 0.2615616472273506 0.25861350074788936 0.26188740170406005 0.2588015751827073 C 0.2615616472273506 0.25861350074788936 0.2600471667665438 0.25682366020329966 0.26023524120136177 0.2571494146800091 C 0.2600471667665438 0.25682366020329966 0.25958011409331844 0.254704447027376 0.25963050848624486 0.25489252146219393" fill="none" stroke="#000000" stroke-width="0.001"/>
<path d="M 0.25963050848624486 0.25489252146219393 C 0.2596186101036062 0.25449257582728074 0.25946393112930355 0.24929328257340952 0.25948772789458086 0.25009317384323587 C 0.25946393112930355 0.24929328257340952 0.25933304892027825 0.2448938805893644 0.2593449473029169 0.2452938262242776" fill="none" stroke="#000000" stroke-width="0.001"/>
</g><g transform="translate(0.3373434528286705,0.3676169700710972) rotate(0) scale(1,1) translate(-0.264144294921875,-0.2452938262242776)"><path d="M 0.2596329081600544 0.2452938262242776 C 0.2597430210425529 0.2450279902099577 0.2613302116468549 0.2417278451556206 0.26095426275003647 0.24210379405243898 C 0.2613302116468549 0.2417278451556206 0.2646759669505149 0.24078243946245692 0.2641442949218751 0.24078243946245692 C 0.2646759669505149 0.24078243946245692 0.2677102759905321 0.24247974294925737 0.2673343270937137 0.24210379405243898 C 0.2677102759905321 0.24247974294925737 0.2687657945661942 0.2455596622385975 0.2686556816836957 0.2452938262242776" fill="none" stroke="none" stroke-width="0"/>
<path d="M 0.2686556816836957 0.2452938262242776 C 0.26864449720401534 0.245669775121096 0.2684990989681708 0.25055711077973514 0.2685214679275315 0.24980521298609837 C 0.2684990989681708 0.25055711077973514 0.2683760696916871 0.2546925486447373 0.26838725417136744 0.2543165997479189" fill="none" stroke="#000000" stroke-width="0.001"/>
<path d="M 0.26838725417136744 0.2543165997479189 C 0.26833988344201665 0.2544933897166478 0.26764201545042876 0.25674428858077214 0.2678188054191576 0.2564380793726653 C 0.26764201545042876 0.25674428858077214 0.26595956533851434 0.2581679002139303 0.2662657745466212 0.2579911102452015 C 0.26595956533851434 0.2581679002139303 0.2637907149844173 0.25855955899741134 0.264144294921875 0.25855955899741134 C 0.2637907149844173 0.25855955899741134 0.2617166060890221 0.25781432027647266 0.26202281529712895 0.2579911102452015 C 0.2617166060890221 0.25781432027647266 0.26029299445586374 0.2561318701645584 0.26046978442459257 0.2564380793726653 C 0.26029299445586374 0.2561318701645584 0.2598539649430318 0.25413980977919004 0.25990133567238266 0.2543165997479189" fill="none" stroke="#000000" stroke-width="0.001"/>
<path d="M 0.25990133567238266 0.2543165997479189 C 0.2598901511927023 0.25394065085110057 0.25974475295685784 0.2490533151924616 0.25976712191621854 0.24980521298609837 C 0.25974475295685784 0.2490533151924616 0.25962172368037406 0.24491787732745918 0.2596329081600544 0.2452938262242776" fill="none" stroke="#000000" stroke-width="0.001"/>
</g><g id="輪">
<g transform="translate(0.33734345282867056,0.3628176224521392) rotate(0) scale(1,1) translate(-0.011152769902399133,-0.011152769902399133)"><path d="M 0.0028041503138807157 0.008202559503492655 C 0.0034998686129239175 0.008202559503492655 0.012544206500485539 0.008202559503492655 0.011152769902399136 0.008202559503492655 C 0.012544206500485539 0.008202559503492655 0.02019710778996075 0.008202559503492655 0.019501389490917547 0.008202559503492655" fill="none" stroke="#000000" stroke-width="0.001"/>
<path d="M 0.019501389490917547 0.008202559503492655 C 0.019501389490917547 0.008448410370068195 0.019501389490917558 0.011644471635550213 0.019501389490917558 0.011152769902399133 C 0.019501389490917558 0.011644471635550213 0.019501389490917547 0.01434883116788115 0.019501389490917547 0.01410298030130561" fill="none" stroke="#000000" stroke-width="0.001"/>
<path d="M 0.019501389490917547 0.01410298030130561 C 0.018805671191874346 0.01410298030130561 0.00976133330431273 0.01410298030130561 0.011152769902399133 0.01410298030130561 C 0.00976133330431273 0.01410298030130561 0.0021084320148375144 0.01410298030130561 0.0028041503138807157 0.01410298030130561" fill="none" stroke="#000000" stroke-width="0.001"/>
<path d="M 0.0028041503138807157 0.01410298030130561 C 0.0028041503138807157 0.01385712943473007 0.0028041503138807157 0.010661068169248056 0.0028041503138807157 0.011152769902399136 C 0.0028041503138807157 0.010661068169248056 0.0028041503138807157 0.007956708636917116 0.0028041503138807157 0.008202559503492655" fill="none" stroke="#000000" stroke-width="0.001"/>
</g><g transform="translate(0.3351992141236245,0.3628176224521392) rotate(0) scale(1,1) translate(-0.00775832499658671,-0.0077583249965867095)"><path d="M 0.011184210560057018 0.011660326317571704 C 0.010635359838464845 0.011590967349136764 0.004049151179358763 0.010247044111289867 0.004598001900950936 0.010828018696352425 C 0.004049151179358763 0.010247044111289867 0.005146852622543108 0.004107656711758434 0.0045980019009509345 0.004688631296820993 C 0.005146852622543108 0.004107656711758434 0.01173306128164919 0.0037869647071667755 0.011184210560057016 0.0038563236756017152" fill="none" stroke="#000000" stroke-width="0.001"/>
<path d="M 0.011184210560057016 0.0038563236756017152 C 0.011184210560057016 0.003911015335299518 0.011184210560057016 0.004589191915552262 0.011184210560057016 0.004512623591975339 C 0.011184210560057016 0.004589191915552262 0.011184210560057016 0.004797020222403912 0.011184210560057016 0.0047751435585247914" fill="none" stroke="#000000" stroke-width="0.001"/>
<path d="M 0.011184210560057016 0.0047751435585247914 C 0.010722510364420002 0.004827846430597219 0.005182108016775831 0.005852072057665148 0.005643808212412845 0.005407578023393922 C 0.005182108016775831 0.005852072057665148 0.0061055084080498595 0.01055356600405073 0.005643808212412845 0.010109071969779504 C 0.0061055084080498595 0.01055356600405073 0.011645910755694032 0.010794209306721063 0.011184210560057018 0.010741506434648634" fill="none" stroke="#000000" stroke-width="0.001"/>
<path d="M 0.011184210560057018 0.010741506434648634 C 0.011184210560057018 0.010763383098527755 0.011184210560057018 0.011080594724775005 0.011184210560057018 0.011004026401198082 C 0.011184210560057018 0.011080594724775005 0.011184210560057018 0.011715017977269506 0.011184210560057018 0.011660326317571704" fill="none" stroke="#000000" stroke-width="0.001"/>
</g><g transform="translate(0.3324238669067641,0.3628176224521392) rotate(0) scale(1,1) translate(-0.0022536622055164745,-0.002253662205516475)"><path d="M 0.0029546074929872367 0.0028245428565628694 C 0.00284191958741337 0.002816364940307013 0.0014896647205269722 0.002639439002574046 0.0016023526261008387 0.0027264078614925883 C 0.0014896647205269722 0.002639439002574046 0.0017150405316747048 0.0016939476906218187 0.0016023526261008383 0.001780916549540361 C 0.0017150405316747048 0.0016939476906218187 0.003067295398561103 0.0016746036382142243 0.0029546074929872363 0.001682781554470081" fill="none" stroke="#000000" stroke-width="0.001"/>
<path d="M 0.0029546074929872363 0.001682781554470081 C 0.0029771450741020093 0.0017303549420572804 0.003225058466364515 0.0023488089806908735 0.003225058466364515 0.0022536622055164745 C 0.003225058466364515 0.0023488089806908735 0.0029320699118724636 0.002872116244150069 0.0029546074929872367 0.0028245428565628694" fill="none" stroke="#000000" stroke-width="0.001"/>
</g><g transform="translate(0.3419289460032681,0.3628176224521392) rotate(0) scale(1,1) translate(-0.006469483550722008,-0.0064694835507220095)"><path d="M 0.007018503673073019 0.0029814560231419193 C 0.007201510380523356 0.0041441318656686155 0.006835496965622682 0.011120186920828794 0.007018503673073019 0.009957511078302098 C 0.006835496965622682 0.011120186920828794 0.005737456720920659 0.008794835235775404 0.005920463428370997 0.0099575110783021 C 0.005737456720920659 0.008794835235775404 0.006103470135821334 0.0018187801806152217 0.005920463428370997 0.0029814560231419185 C 0.006103470135821334 0.0018187801806152217 0.007201510380523356 0.0041441318656686155 0.007018503673073019 0.0029814560231419193 Z" fill="#cccccc" stroke="#000000" stroke-width="0.001"/>
</g><g transform="translate(0.3298503057502522,0.3628176224521392) rotate(0) scale(1,1) translate(-0.009906215631991292,-0.007758324996586713)"><path d="M 0.009906215631991292 0.011660326317571704 C 0.009576905199035987 0.01150716471113316 0.005625180003572339 0.009325215093250223 0.005954490436527643 0.009822387040309178 C 0.005625180003572339 0.009325215093250223 0.006283800869482946 0.005197091005805287 0.005954490436527642 0.005694262952864242 C 0.006283800869482946 0.005197091005805287 0.010235526064946595 0.003703162069163171 0.00990621563199129 0.0038563236756017152" fill="none" stroke="#000000" stroke-width="0.001"/>
<path d="M 0.00990621563199129 0.0038563236756017152 C 0.00990621563199129 0.003911015335299518 0.00990621563199129 0.004589191915552262 0.00990621563199129 0.004512623591975339 C 0.00990621563199129 0.004589191915552262 0.009906215631991292 0.004797020222403912 0.009906215631991292 0.0047751435585247914" fill="none" stroke="#000000" stroke-width="0.001"/>
<path d="M 0.009906215631991292 0.0047751435585247914 C 0.009638715587975783 0.0048986078324019435 0.006428715059789673 0.006630447477517121 0.0066962151038051825 0.00625671484505062 C 0.006428715059789673 0.006630447477517121 0.006963715147820692 0.009633667780589304 0.0066962151038051825 0.009259935148122803 C 0.006963715147820692 0.009633667780589304 0.0101737156760068 0.010864970708525786 0.009906215631991292 0.010741506434648634" fill="none" stroke="#000000" stroke-width="0.001"/>
<path d="M 0.009906215631991292 0.010741506434648634 C 0.009906215631991292 0.010763383098527755 0.009906215631991292 0.011080594724775005 0.009906215631991292 0.011004026401198082 C 0.009906215631991292 0.011080594724775005 0.009906215631991292 0.011715017977269506 0.009906215631991292 0.011660326317571704" fill="none" stroke="#000000" stroke-width="0.001"/>
</g><g transform="translate(0.344836599907089,0.3628176224521392) rotate(0) scale(1,1) translate(-0.005610434361182026,-0.007758324996586713)"><path d="M 0.005610434361182026 0.011660326317571704 C 0.005610434361182026 0.011605634657873901 0.005610434361182026 0.010927458077621159 0.005610434361182026 0.011004026401198082 C 0.005610434361182026 0.010927458077621159 0.005610434361182026 0.010719629770769514 0.005610434361182026 0.010741506434648634" fill="none" stroke="#000000" stroke-width="0.001"/>
<path d="M 0.005610434361182026 0.010741506434648634 C 0.005877934405197541 0.010618042160771482 0.009087934933383715 0.008886202515656302 0.008820434889368201 0.009259935148122803 C 0.009087934933383715 0.008886202515656302 0.008552934845352687 0.005882982212584119 0.008820434889368201 0.00625671484505062 C 0.008552934845352687 0.005882982212584119 0.0053429343171665115 0.004651679284647639 0.005610434361182026 0.0047751435585247914" fill="none" stroke="#000000" stroke-width="0.001"/>
<path d="M 0.005610434361182026 0.0047751435585247914 C 0.005610434361182026 0.004753266894645671 0.005610434361182026 0.004436055268398416 0.005610434361182026 0.004512623591975339 C 0.005610434361182026 0.004436055268398416 0.005610434361182026 0.0038016320159039133 0.005610434361182026 0.0038563236756017152" fill="none" stroke="#000000" stroke-width="0.001"/>
<path d="M 0.005610434361182026 0.0038563236756017152 C 0.005939744794137333 0.004009485282040259 0.009891469989601016 0.006191434899923197 0.00956215955664571 0.005694262952864242 C 0.009891469989601016 0.006191434899923197 0.009232849123690403 0.010319558987368133 0.00956215955664571 0.009822387040309178 C 0.009232849123690403 0.010319558987368133 0.005281123928226719 0.011813487924010248 0.005610434361182026 0.011660326317571704" fill="none" stroke="#000000" stroke-width="0.001"/>
</g></g>
<g transform="translate(0.3373434528286705,0.37663974359473856) rotate(0) scale(1,1) translate(-0.264144294921875,-0.2452938262242776)"><path d="M 0.2599035913657637 0.2452938262242776 C 0.26000709747531225 0.2450439403708169 0.2614990566433561 0.24194180401974003 0.26114566468034683 0.24229519598274932 C 0.2614990566433561 0.24194180401974003 0.26464406662879647 0.24105312266816623 0.2641442949218751 0.24105312266816623 C 0.26464406662879647 0.24105312266816623 0.2674963171264126 0.24264858794575864 0.2671429251634033 0.24229519598274935 C 0.2674963171264126 0.24264858794575864 0.26848850458753515 0.24554371207773829 0.2683849984779865 0.2452938262242776" fill="none" stroke="none" stroke-width="0"/>
<path d="M 0.2683849984779865 0.2452938262242776 C 0.268374485067087 0.24564721818728688 0.2682378107253931 0.25024131370640773 0.26825883754719215 0.24953452978038915 C 0.2682378107253931 0.25024131370640773 0.26812216320549837 0.25412862529950975 0.2681326766163979 0.2537752333365005" fill="none" stroke="#000000" stroke-width="0.001"/>
<path d="M 0.2681326766163979 0.2537752333365005 C 0.2680881481308081 0.2539414159071056 0.2674321522187155 0.2560572608393825 0.26759833478932066 0.25576942418376203 C 0.2674321522187155 0.2560572608393825 0.26585064911351597 0.25739545577455114 0.26613848576913646 0.25722927320394606 C 0.26585064911351597 0.25739545577455114 0.2638119297806648 0.2577636150310233 0.264144294921875 0.2577636150310233 C 0.2638119297806648 0.2577636150310233 0.2618622674189932 0.257063090633341 0.2621501040746137 0.25722927320394606 C 0.2618622674189932 0.257063090633341 0.26052407248382436 0.25548158752814154 0.2606902550544295 0.25576942418376203 C 0.26052407248382436 0.25548158752814154 0.26011138474176243 0.25360905076589535 0.2601559132273522 0.2537752333365005" fill="none" stroke="#000000" stroke-width="0.001"/>
<path d="M 0.2601559132273522 0.2537752333365005 C 0.2601453998164527 0.2534218413734912 0.26000872547475884 0.24882774585437056 0.2600297522965579 0.24953452978038915 C 0.26000872547475884 0.24882774585437056 0.25989307795486416 0.2449404342612683 0.2599035913657637 0.2452938262242776" fill="none" stroke="#000000" stroke-width="0.001"/>
</g><g transform="translate(0.3373434528286705,0.38512115070696146) rotate(0) scale(1,1) translate(-0.264144294921875,-0.2452938262242776)"><path d="M 0.2601580335791303 0.2452938262242776 C 0.260255329322106 0.24505893352202454 0.2616577709400672 0.24214292535201223 0.26132558249483845 0.24247511379724096 C 0.2616577709400672 0.24214292535201223 0.2646140803263812 0.2413075648815328 0.2641442949218751 0.2413075648815328 C 0.2646140803263812 0.2413075648815328 0.26729519579414046 0.24280730224246969 0.2669630073489117 0.24247511379724096 C 0.26729519579414046 0.24280730224246969 0.2682278520075955 0.24552871892653064 0.26813055626461985 0.2452938262242776" fill="none" stroke="none" stroke-width="0"/>
<path d="M 0.26813055626461985 0.2452938262242776 C 0.2681206736583743 0.24562601466950634 0.2679921997771819 0.24994446445747992 0.26801196498967306 0.24928008756702247 C 0.2679921997771819 0.24994446445747992 0.2678834911084809 0.2535985373549958 0.2678933737147265 0.2532663489097671" fill="none" stroke="#000000" stroke-width="0.001"/>
<path d="M 0.2678933737147265 0.2532663489097671 C 0.2678515169382721 0.25342256052613593 0.26723488078090507 0.25541145476247623 0.2673910923972739 0.25514088830619297 C 0.26723488078090507 0.25541145476247623 0.26574826786201755 0.2566693580015348 0.2660188343183008 0.256513146385166 C 0.26574826786201755 0.2566693580015348 0.2638318716891374 0.2570154277026186 0.264144294921875 0.2570154277026186 C 0.2638318716891374 0.2570154277026186 0.2619991890691661 0.2563569347687972 0.26226975552544934 0.256513146385166 C 0.2619991890691661 0.2563569347687972 0.2607412858301074 0.2548703218499097 0.2608974974464762 0.25514088830619297 C 0.2607412858301074 0.2548703218499097 0.2603533593525692 0.2531101372933983 0.2603952161290236 0.2532663489097671" fill="none" stroke="#000000" stroke-width="0.001"/>
<path d="M 0.2603952161290236 0.2532663489097671 C 0.26038533352277804 0.2529341604645384 0.2602568596415859 0.24861571067656502 0.260276624854077 0.24928008756702247 C 0.2602568596415859 0.24861571067656502 0.26014815097288474 0.24496163777904884 0.2601580335791303 0.2452938262242776" fill="none" stroke="#000000" stroke-width="0.001"/>
</g><g transform="translate(0.33734345282867084,0.39307635768040117) rotate(0) scale(1,1) translate(-0.264144294921875,-0.2452938262242776)"><path d="M 0.26039720925969506 0.2452938262242776 C 0.2604886672580922 0.24507302708415973 0.2618069623789757 0.2423319794043482 0.2614947052404607 0.2426442365428632 C 0.2618069623789757 0.2423319794043482 0.2645858932021108 0.24154674056209757 0.2641442949218751 0.24154674056209757 C 0.2645858932021108 0.24154674056209757 0.26710614174180447 0.24295649368137823 0.26679388460328946 0.2426442365428632 C 0.26710614174180447 0.24295649368137823 0.26798283858245225 0.24551462536439544 0.2678913805840551 0.2452938262242776" fill="none" stroke="none" stroke-width="0"/>
<path d="M 0.2678913805840551 0.2452938262242776 C 0.26788209093418425 0.2456060833627926 0.26776132548586357 0.2496654261634878 0.2677799047856052 0.24904091188645777 C 0.26776132548586357 0.2496654261634878 0.26765913933728464 0.2531002546871528 0.2676684289871554 0.2527879975486378" fill="none" stroke="#000000" stroke-width="0.001"/>
<path d="M 0.2676684289871554 0.2527879975486378 C 0.2676290836172883 0.2529348364680245 0.26704944562936334 0.25480439705018426 0.26719628454875 0.25455006458127805 C 0.26704944562936334 0.25480439705018426 0.265652029485609 0.2559868260948993 0.2659063619545153 0.25583998717551265 C 0.265652029485609 0.2559868260948993 0.26385061708310165 0.2563121316139181 0.264144294921875 0.2563121316139181 C 0.26385061708310165 0.2563121316139181 0.26212789542032866 0.255693148256126 0.2623822278892349 0.25583998717551265 C 0.26212789542032866 0.255693148256126 0.2609454663756135 0.25429573211237183 0.26109230529500016 0.25455006458127805 C 0.2609454663756135 0.25429573211237183 0.26058081548672757 0.2526411586292511 0.2606201608565947 0.2527879975486378" fill="none" stroke="#000000" stroke-width="0.001"/>
<path d="M 0.2606201608565947 0.2527879975486378 C 0.2606108712067239 0.2524757404101228 0.2604901057584032 0.24841639760942774 0.26050868505814484 0.24904091188645777 C 0.2604901057584032 0.24841639760942774 0.26038791960982427 0.24498156908576257 0.26039720925969506 0.2452938262242776" fill="none" stroke="#000000" stroke-width="0.001"/>
</g><g transform="translate(0.33734345282867084,0.40057052900476137) rotate(0) scale(1,1) translate(-0.264144294921875,-0.2452938262242776)"><path d="M 0.2606220343994259 0.2452938262242776 C 0.2607080049179192 0.2450862750325668 0.26194720233154967 0.242509690213544 0.2616536806213456 0.2428032119237481 C 0.26194720233154967 0.242509690213544 0.26455939730529665 0.2417715657018284 0.2641442949218751 0.2417715657018284 C 0.26455939730529665 0.2417715657018284 0.26692843093260865 0.2430967336339522 0.26663490922240457 0.2428032119237481 C 0.26692843093260865 0.2430967336339522 0.26775252596281757 0.24550137741598838 0.2676665554443243 0.2452938262242776" fill="none" stroke="none" stroke-width="0"/>
<path d="M 0.2676665554443243 0.2452938262242776 C 0.2676578231734457 0.2455873479344817 0.2675443036520243 0.24940313016713517 0.26756176819378147 0.24881608674672695 C 0.2675443036520243 0.24940313016713517 0.26744824867236006 0.2526318689793803 0.2674569809432386 0.2523383472691762" fill="none" stroke="#000000" stroke-width="0.001"/>
<path d="M 0.2674569809432386 0.2523383472691762 C 0.2674199962955635 0.25247637585339966 0.26687513658691403 0.25423376280062987 0.2670131651711375 0.253994690279858 C 0.26687513658691403 0.25423376280062987 0.265561565411785 0.25534524610266196 0.26580063793255687 0.2552072175184385 C 0.265561565411785 0.25534524610266196 0.26386823775342805 0.25565103329053973 0.264144294921875 0.25565103329053973 C 0.26386823775342805 0.25565103329053973 0.26224887939042146 0.25506918893421504 0.26248795191119334 0.2552072175184385 C 0.26224887939042146 0.25506918893421504 0.2611373960883892 0.2537556177590861 0.26127542467261267 0.253994690279858 C 0.2611373960883892 0.2537556177590861 0.26079462425283645 0.25220031868495274 0.26083160890051155 0.2523383472691762" fill="none" stroke="#000000" stroke-width="0.001"/>
<path d="M 0.26083160890051155 0.2523383472691762 C 0.260822876629633 0.2520448255589721 0.2607093571082114 0.24822904332631873 0.2607268216499686 0.24881608674672695 C 0.2607093571082114 0.24822904332631873 0.26061330212854733 0.24500030451407348 0.2606220343994259 0.2452938262242776" fill="none" stroke="#000000" stroke-width="0.001"/>
</g><g transform="translate(0.33734345282867084,0.40761505004966) rotate(0) scale(1,1) translate(-0.264144294921875,-0.2452938262242776)"><path d="M 0.2608333700307728 0.2452938262242776 C 0.2609141823181565 0.24509872810406944 0.26207902788696913 0.24267673837418796 0.2618031174793773 0.24295264878177983 C 0.26207902788696913 0.24267673837418796 0.2645344911622914 0.2419829013331753 0.2641442949218751 0.2419829013331753 C 0.2645344911622914 0.2419829013331753 0.2667613827719647 0.2432285591893717 0.26648547236437287 0.24295264878177983 C 0.2667613827719647 0.2432285591893717 0.26753603210036103 0.24548892434448574 0.2674552198129773 0.2452938262242776" fill="none" stroke="none" stroke-width="0"/>
<path d="M 0.2674552198129773 0.2452938262242776 C 0.2674470114783515 0.24556973663186946 0.26734030312821533 0.24915657193056379 0.26735671979746706 0.24860475111538005 C 0.26734030312821533 0.24915657193056379 0.26725001144733096 0.25219158641407413 0.2672582197819568 0.2519156760064823" fill="none" stroke="#000000" stroke-width="0.001"/>
<path d="M 0.2672582197819568 0.2519156760064823 C 0.2672234542131422 0.25204542287565235 0.26671128608701167 0.25369736660604875 0.2668410329561817 0.2534726384365232 C 0.26671128608701167 0.25369736660604875 0.26547652918239034 0.25474216090995894 0.2657012573519159 0.2546124140407889 C 0.26547652918239034 0.25474216090995894 0.26388480118353486 0.255029600866564 0.264144294921875 0.255029600866564 C 0.26388480118353486 0.255029600866564 0.2623626043223087 0.2544826671716188 0.26258733249183425 0.2546124140407889 C 0.2623626043223087 0.2544826671716188 0.2613178100183983 0.2532479102669976 0.2614475568875684 0.2534726384365232 C 0.2613178100183983 0.2532479102669976 0.26099560449297876 0.25178592913731224 0.26103037006179336 0.2519156760064823" fill="none" stroke="#000000" stroke-width="0.001"/>
<path d="M 0.26103037006179336 0.2519156760064823 C 0.2610221617271675 0.25163976559889045 0.26091545337703126 0.24805293030019632 0.260931870046283 0.24860475111538005 C 0.26091545337703126 0.24805293030019632 0.26082516169614695 0.24501791581668572 0.2608333700307728 0.2452938262242776" fill="none" stroke="#000000" stroke-width="0.001"/>
</g><g transform="translate(0.33734345282867084,0.4142368998318647) rotate(0) scale(1,1) translate(-0.264144294921875,-0.2452938262242776)"><path d="M 0.26103202552423893 0.2452938262242776 C 0.2611079890743796 0.24511043399128193 0.2622029439090635 0.24283376364519335 0.26194358812592716 0.2430931194283297 C 0.2622029439090635 0.24283376364519335 0.2645110793878664 0.24218155682664141 0.2641442949218751 0.24218155682664141 C 0.2645110793878664 0.24218155682664141 0.26660435750095934 0.24335247521146602 0.266345001717823 0.24309311942832967 C 0.26660435750095934 0.24335247521146602 0.26733252786965184 0.24547721845727324 0.26725656431951117 0.2452938262242776" fill="none" stroke="none" stroke-width="0"/>
<path d="M 0.26725656431951117 0.2452938262242776 C 0.2672488484849629 0.24555318200741394 0.26714854263583493 0.2489248071881866 0.26716397430493155 0.2484060956219139 C 0.26714854263583493 0.2489248071881866 0.2670636684558036 0.25177772080268634 0.2670713842903519 0.25151836501955" fill="none" stroke="#000000" stroke-width="0.001"/>
<path d="M 0.2670713842903519 0.25151836501955 C 0.26703870465566615 0.25164032707656986 0.26655726661710344 0.2531931541831425 0.2666792286741233 0.2529819097037885 C 0.26655726661710344 0.2531931541831425 0.26539659512675945 0.2541752608288181 0.26560783960611345 0.2540532987717982 C 0.26539659512675945 0.2541752608288181 0.2639003708078353 0.25444545438802685 0.264144294921875 0.25444545438802685 C 0.2639003708078353 0.25444545438802685 0.2624695057582827 0.25393133671477836 0.2626807502376367 0.2540532987717982 C 0.2624695057582827 0.25393133671477836 0.26148739911260693 0.2527706652244345 0.2616093611696268 0.2529819097037885 C 0.26148739911260693 0.2527706652244345 0.26118452591871255 0.25139640296253013 0.2612172055533983 0.25151836501955" fill="none" stroke="#000000" stroke-width="0.001"/>
<path d="M 0.2612172055533983 0.25151836501955 C 0.26120948971884994 0.25125900923641364 0.2611091838697219 0.2478873840556412 0.2611246155388185 0.2484060956219139 C 0.2611091838697219 0.2478873840556412 0.26102430968969065 0.24503447044114124 0.26103202552423893 0.2452938262242776" fill="none" stroke="#000000" stroke-width="0.001"/>
</g><g transform="translate(0.33734345282867084,0.4204614386271371) rotate(0) scale(1,1) translate(-0.264144294921875,-0.2452938262242776)"><path d="M 0.26121876168809705 0.2452938262242776 C 0.2612901674252293 0.24512143752526167 0.26231942496983224 0.24298136739993836 0.26207563053368405 0.24322516183608653 C 0.26231942496983224 0.24298136739993836 0.2644890723199069 0.24236829299049956 0.2641442949218751 0.24236829299049956 C 0.2644890723199069 0.24236829299049956 0.26645675374621425 0.2434689562722347 0.2662129593100661 0.24322516183608653 C 0.26645675374621425 0.2434689562722347 0.2671412338927853 0.2454662149232935 0.26706982815565306 0.2452938262242776" fill="none" stroke="none" stroke-width="0"/>
<path d="M 0.26706982815565306 0.2452938262242776 C 0.26706257527117766 0.24553762066042578 0.2669682877729973 0.24870694833035206 0.26698279354194815 0.24821935945805573 C 0.2669682877729973 0.24870694833035206 0.26688850604376785 0.2513886871279818 0.26689575892824324 0.25114489269183365" fill="none" stroke="#000000" stroke-width="0.001"/>
<path d="M 0.26689575892824324 0.25114489269183365 C 0.2668650400716387 0.25125953702543236 0.2664124883153898 0.25271919450561064 0.2665271326489884 0.25252062469501785 C 0.2664124883153898 0.25271919450561064 0.26532145711446636 0.2536423747525457 0.26552002692505916 0.253527730418947 C 0.26532145711446636 0.2536423747525457 0.2639150062546777 0.25389635669820193 0.264144294921875 0.25389635669820193 C 0.2639150062546777 0.25389635669820193 0.2625699931080982 0.2534130860853483 0.262768562918691 0.253527730418947 C 0.2625699931080982 0.2534130860853483 0.261646812861163 0.25232205488442505 0.2617614571947617 0.25252062469501785 C 0.261646812861163 0.25232205488442505 0.2613621120589023 0.25103024835823495 0.26139283091550686 0.25114489269183365" fill="none" stroke="#000000" stroke-width="0.001"/>
<path d="M 0.26139283091550686 0.25114489269183365 C 0.26138557803103146 0.2509010982556855 0.26129129053285105 0.2477317705857594 0.2613057963018019 0.24821935945805573 C 0.26129129053285105 0.2477317705857594 0.26121150880362165 0.2450500317881294 0.26121876168809705 0.2452938262242776" fill="none" stroke="#000000" stroke-width="0.001"/>
</g><g transform="translate(0.33734345282867084,0.42631250509469315) rotate(0) scale(1,1) translate(-0.264144294921875,-0.2452938262242776)"><path d="M 0.26139429368212375 0.2452938262242776 C 0.26146141507502807 0.24513178084720263 0.2624289171669548 0.24312011492939872 0.2621997503969755 0.243349281699378 C 0.2624289171669548 0.24312011492939872 0.264468385676025 0.24254382498452626 0.2641442949218751 0.24254382498452626 C 0.264468385676025 0.24254382498452626 0.26631800621675394 0.24357844846935728 0.26608883944677464 0.243349281699378 C 0.26631800621675394 0.24357844846935728 0.26696141755453073 0.24545587160135254 0.2668942961616264 0.2452938262242776" fill="none" stroke="none" stroke-width="0"/>
<path d="M 0.2668942961616264 0.2452938262242776 C 0.26688747845021954 0.24552299299425687 0.26679884820193 0.2485021610039876 0.2668124836247438 0.24804382746402903 C 0.26679884820193 0.2485021610039876 0.26672385337645427 0.25102299547375956 0.26673067108786114 0.2507938287037803" fill="none" stroke="#000000" stroke-width="0.001"/>
<path d="M 0.26673067108786114 0.2507938287037803 C 0.2667017953626528 0.2509015943773631 0.2662763967117789 0.2522736724087306 0.2663841623853616 0.2520870167867734 C 0.2662763967117789 0.2522736724087306 0.26525082738291095 0.2531414618408495 0.26543748300486814 0.2530336961672668 C 0.26525082738291095 0.2531414618408495 0.2639287635747095 0.2533802048697665 0.264144294921875 0.2533802048697665 C 0.2639287635747095 0.2533802048697665 0.26266445121692483 0.25292593049368406 0.262851106838882 0.2530336961672668 C 0.26266445121692483 0.25292593049368406 0.26179666178480576 0.25190036116481623 0.2619044274583885 0.2520870167867734 C 0.26179666178480576 0.25190036116481623 0.2615290430306807 0.2506860630301975 0.26155791875588896 0.2507938287037803" fill="none" stroke="#000000" stroke-width="0.001"/>
<path d="M 0.26155791875588896 0.2507938287037803 C 0.2615511010444821 0.25056466193380106 0.26146247079619256 0.24758549392407048 0.2614761062190063 0.24804382746402903 C 0.26146247079619256 0.24758549392407048 0.2613874759707169 0.2450646594542983 0.26139429368212375 0.2452938262242776" fill="none" stroke="#000000" stroke-width="0.001"/>
</g><g transform="translate(0.33734345282867084,0.43181250757419587) rotate(0) scale(1,1) translate(-0.264144294921875,-0.2452938262242776)"><path d="M 0.2615592937565088 0.2452938262242776 C 0.26162238786583886 0.2451415035698271 0.26253183983225 0.24325053760709148 0.2623164230684695 0.24346595437087198 C 0.26253183983225 0.24325053760709148 0.26444894023077603 0.24270882505891134 0.2641442949218751 0.24270882505891134 C 0.26444894023077603 0.24270882505891134 0.2661875835390612 0.2436813711346525 0.2659721667752807 0.24346595437087198 C 0.2661875835390612 0.2436813711346525 0.26679239019657136 0.24544614887872807 0.26672929608724133 0.2452938262242776" fill="none" stroke="none" stroke-width="0"/>
<path d="M 0.26672929608724133 0.2452938262242776 C 0.26672288743851885 0.24550924298805812 0.2666395750051267 0.248309660917205 0.26665239230257165 0.24787882738964395 C 0.2666395750051267 0.248309660917205 0.2665690798691795 0.2506792453187906 0.26657548851790197 0.2504638285550101" fill="none" stroke="#000000" stroke-width="0.001"/>
<path d="M 0.26657548851790197 0.2504638285550101 C 0.2665483453362062 0.2505651282881779 0.2661484706043846 0.2518548816376635 0.2662497703375524 0.25167942535302373 C 0.2661484706043846 0.2518548816376635 0.2651844354352488 0.25267060370385525 0.26535989171988855 0.25256930397068744 C 0.2651844354352488 0.25267060370385525 0.26394169545553947 0.25289502215103715 0.264144294921875 0.25289502215103715 C 0.26394169545553947 0.25289502215103715 0.26275324183922183 0.25246800423751964 0.2629286981238616 0.25256930397068744 C 0.26275324183922183 0.25246800423751964 0.26193751977302987 0.25150396906838396 0.2620388195061977 0.25167942535302373 C 0.26193751977302987 0.25150396906838396 0.2616859581441523 0.2503625288218423 0.2617131013258481 0.2504638285550101" fill="none" stroke="#000000" stroke-width="0.001"/>
<path d="M 0.2617131013258481 0.2504638285550101 C 0.2617066926771256 0.2502484117912296 0.2616233802437335 0.2474479938620829 0.26163619754117845 0.24787882738964395 C 0.2616233802437335 0.2474479938620829 0.26155288510778635 0.24507840946049705 0.2615592937565088 0.2452938262242776" fill="none" stroke="#000000" stroke-width="0.001"/>
</g><g id="先端">
<g transform="translate(0.33734345282867084,0.4418248168079298) rotate(0) scale(1,1) translate(-0.264144294921875,-0.2452938262242776)"><path d="M 0.2662801594267693 0.2452938262242776 C 0.2669230032936051 0.24496033309112558 0.27438924155151184 0.2419172727748842 0.2739942858287987 0.24129190862645356 C 0.27438924155151184 0.2419172727748842 0.2707717399552043 0.253757053287028 0.27101962809932695 0.2527981960054454" fill="none" stroke="#000000" stroke-width="0.001"/>
<path d="M 0.27101962809932695 0.2527981960054454 C 0.270846720097951 0.2533877274473644 0.2685883231225829 0.26113516292078975 0.2689447320828159 0.2598725733084732 C 0.2685883231225829 0.26113516292078975 0.2663426841464529 0.2693935852280116 0.2667427205765313 0.2679492713532441 C 0.2663426841464529 0.2693935852280116 0.2637112239794323 0.27720433980568326 0.264144294921875 0.27720433980568326 C 0.2637112239794323 0.27720433980568326 0.26114583283714027 0.2665049574784766 0.2615458692672187 0.2679492713532441 C 0.26114583283714027 0.2665049574784766 0.2589874488007013 0.2586099836961566 0.25934385776093427 0.2598725733084732 C 0.2589874488007013 0.2586099836961566 0.2570960537430471 0.2522086645635264 0.25726896174442304 0.2527981960054454" fill="none" stroke="#000000" stroke-width="0.001"/>
<path d="M 0.25726896174442304 0.2527981960054454 C 0.2570210736003004 0.25183933872386277 0.2546892597376646 0.2406665444780229 0.25429430401495146 0.24129190862645356 C 0.2546892597376646 0.2406665444780229 0.2626512742838166 0.2456273193574296 0.26200843041698085 0.2452938262242776" fill="none" stroke="#000000" stroke-width="0.001"/>
</g><g transform="translate(0.33734345282867084,0.4369825099049284) rotate(0) scale(1,1) translate(-0.264144294921875,-0.2452938262242776)"><path d="M 0.2617231414703745 0.2452938262242776 C 0.2617822364226788 0.24515115838895682 0.2626340436856509 0.24338004941280328 0.26243228089802584 0.24358181220042832 C 0.2626340436856509 0.24338004941280328 0.2644296305925166 0.24287267277277705 0.2641442949218751 0.24287267277277705 C 0.2644296305925166 0.24287267277277705 0.2660580717333494 0.2437835749880534 0.2658563089457243 0.24358181220042835 C 0.2660580717333494 0.2437835749880534 0.2666245433256799 0.24543649405959836 0.26656544837337565 0.2452938262242776" fill="none" stroke="none" stroke-width="0"/>
<path d="M 0.26656544837337565 0.2452938262242776 C 0.2665594459304438 0.24549558901190266 0.26648141417232996 0.2481185052510285 0.2664934190581936 0.24771497967577838 C 0.26648141417232996 0.2481185052510285 0.2664153873000795 0.2503378959149041 0.2664213897430114 0.250136133127279" fill="none" stroke="#000000" stroke-width="0.001"/>
<path d="M 0.2664213897430114 0.250136133127279 C 0.2663959670047442 0.2502965951828356 0.26602143793292443 0.25267572567522967 0.2661163168838051 0.2520616777939579 C 0.26602143793292443 0.25267572567522967 0.265118507168949 0.2587538492957169 0.2652828423324432 0.2575047077025403 C 0.265118507168949 0.2587538492957169 0.2639545370201137 0.2670513769120767 0.264144294921875 0.2670513769120767 C 0.2639545370201137 0.2670513769120767 0.2628414123478127 0.25625556610936373 0.2630057475113069 0.2575047077025403 C 0.2628414123478127 0.25625556610936373 0.2620773940090643 0.2514476299126861 0.262172272959945 0.2520616777939579 C 0.2620773940090643 0.2514476299126861 0.2618417773624714 0.24997567107172242 0.2618672001007386 0.250136133127279" fill="none" stroke="#000000" stroke-width="0.001"/>
<path d="M 0.2618672001007386 0.250136133127279 C 0.26186119765780674 0.24993437033965396 0.26178316589969286 0.24731145410052827 0.26179517078555653 0.24771497967577838 C 0.26178316589969286 0.24731145410052827 0.26171713902744265 0.24509206343665252 0.2617231414703745 0.2452938262242776" fill="none" stroke="#000000" stroke-width="0.001"/>
</g></g>
</svg>
