<?xml version="1.0" encoding="UTF-8"?>
<svg xmlns="http://www.w3.org/2000/svg" viewBox="0 0 1 1">
<g transform="translate(0.3373434528286707,0.1307709240821216) rotate(0) scale(1,1) translate(-0.011646590846931882,-0.010300455920682537)"><path d="M 0.014743086671791838 0.010300455920682537 C 0.014729758995084209 0.01047725804595398 0.014557995522723289 0.012775685674482748 0.014583154551300275 0.01242208142393986 C 0.014557995522723289 0.012775685674482748 0.014429346976998639 0.014720509052468637 0.014441178328867996 0.014543706927197192" fill="none" stroke="#000000" stroke-width="0.001"/>
<path d="M 0.014441178328867996 0.014543706927197192 C 0.014372968685297992 0.014706749151545052 0.0133897803158666 0.016730790144283733 0.013622662606027944 0.016500213619371512 C 0.0133897803158666 0.016730790144283733 0.011317245553749206 0.01731062522614383 0.011646590846931882 0.01731062522614383 C 0.011317245553749206 0.01731062522614383 0.009437636797674488 0.01626963709445929 0.00967051908783583 0.016500213619371512 C 0.009437636797674488 0.01626963709445929 0.008783793721425773 0.014380664702849332 0.008852003364995777 0.014543706927197192" fill="none" stroke="#000000" stroke-width="0.001"/>
<path d="M 0.008852003364995777 0.014543706927197192 C 0.00884017201312642 0.014366904801925748 0.00868486811398651 0.012068477173396977 0.008710027142563496 0.012422081423939864 C 0.00868486811398651 0.012068477173396977 0.008536767345364304 0.010123653795411093 0.008550095022071933 0.010300455920682537" fill="none" stroke="#000000" stroke-width="0.001"/>
</g><g transform="translate(0.3373434528286707,0.13501417508863625) rotate(0) scale(1,1) translate(-0.011646590846931882,-0.010300455920682537)"><path d="M 0.014433437089305846 0.010300455920682537 C 0.014421442180268978 0.010459577833426836 0.014266855055144148 0.012528162699102728 0.014289498180863437 0.012209918873614129 C 0.014266855055144148 0.012528162699102728 0.014151071363991961 0.014278503739290028 0.014161719580674382 0.014119381826545728" fill="none" stroke="#000000" stroke-width="0.001"/>
<path d="M 0.014161719580674382 0.014119381826545728 C 0.014100330901461379 0.014266119828458802 0.013215461368973131 0.01608775672192361 0.01342505543011834 0.015880237849502613 C 0.013215461368973131 0.01608775672192361 0.011350180083067474 0.016609608295597704 0.011646590846931882 0.016609608295597704 C 0.011350180083067474 0.016609608295597704 0.009658532202600227 0.015672718977081616 0.009868126263745435 0.015880237849502613 C 0.009658532202600227 0.015672718977081616 0.009070073433976386 0.013972643824632654 0.00913146211318939 0.014119381826545728" fill="none" stroke="#000000" stroke-width="0.001"/>
<path d="M 0.00913146211318939 0.014119381826545728 C 0.009120813896506968 0.013960259913801428 0.008981040387281045 0.011891675048125534 0.009003683513000333 0.012209918873614133 C 0.008981040387281045 0.011891675048125534 0.00884774969552106 0.010141334007938237 0.008859744604557927 0.010300455920682537" fill="none" stroke="#000000" stroke-width="0.001"/>
</g><g transform="translate(0.3373434528286707,0.13883310099449944) rotate(0) scale(1,1) translate(-0.011646590846931882,-0.010300455920682537)"><path d="M 0.014154752465068449 0.010300455920682537 C 0.014143957046935269 0.010443665642152407 0.014004828634322921 0.012305392021260709 0.014025207447470281 0.012018972578320969 C 0.014004828634322921 0.012305392021260709 0.013900623312285955 0.01388069895742928 0.013910206707300133 0.01373748923595941" fill="none" stroke="#000000" stroke-width="0.001"/>
<path d="M 0.013910206707300133 0.01373748923595941 C 0.01385495689600843 0.013869553437681176 0.013058574316769007 0.015509026641799505 0.013247208971799694 0.015322259656620606 C 0.013058574316769007 0.015509026641799505 0.011379821159453914 0.01597869305810619 0.011646590846931882 0.01597869305810619 C 0.011379821159453914 0.01597869305810619 0.009857338067033393 0.015135492671441708 0.01004597272206408 0.015322259656620606 C 0.009857338067033393 0.015135492671441708 0.009327725175271938 0.013605425034237645 0.00938297498656364 0.01373748923595941" fill="none" stroke="#000000" stroke-width="0.001"/>
<path d="M 0.00938297498656364 0.01373748923595941 C 0.00937339159154946 0.01359427951448954 0.009247595433246129 0.011732553135381232 0.009267974246393489 0.012018972578320972 C 0.009247595433246129 0.011732553135381232 0.009127633810662143 0.010157246199212667 0.009138429228795323 0.010300455920682537" fill="none" stroke="#000000" stroke-width="0.001"/>
</g><g transform="translate(0.3373434528286707,0.14228878147796303) rotate(0) scale(1,1) translate(-0.011646590846931882,-0.010300455920682537)"><path d="M 0.013903936303254793 0.010300455920682537 C 0.01389422042693493 0.01042934467000542 0.01376900485558382 0.012104898411202894 0.013787345787416444 0.011847120912557128 C 0.01376900485558382 0.012104898411202894 0.01367522006575055 0.01352267465375461 0.01368384512126331 0.013393785904431726" fill="none" stroke="#000000" stroke-width="0.001"/>
<path d="M 0.01368384512126331 0.013393785904431726 C 0.013634120291100777 0.013512643685981315 0.012917375969785294 0.01498816956968781 0.013087147159312912 0.014820079283026802 C 0.012917375969785294 0.01498816956968781 0.01140649812820171 0.015410869344363823 0.011646590846931882 0.015410869344363823 C 0.01140649812820171 0.015410869344363823 0.010036263345023241 0.014651988996365793 0.01020603453455086 0.014820079283026802 C 0.010036263345023241 0.014651988996365793 0.009559611742437931 0.013274928122882137 0.009609336572600465 0.013393785904431726" fill="none" stroke="#000000" stroke-width="0.001"/>
<path d="M 0.009609336572600465 0.013393785904431726 C 0.009600711517087704 0.013264897155108844 0.009487494974614706 0.011589343413911365 0.00950583590644733 0.011847120912557131 C 0.009487494974614706 0.011589343413911365 0.009379529514289118 0.010171567171359655 0.00938924539060898 0.010300455920682537" fill="none" stroke="#000000" stroke-width="0.001"/>
</g><g transform="translate(0.3373434528286707,0.1453821114617122) rotate(0) scale(1,1) translate(-0.011646590846931882,-0.010300455920682537)"><path d="M 0.0136782017576225 0.010300455920682537 C 0.013669457468934625 0.01041645579507313 0.013556763454718625 0.011924454162150856 0.013573270293367986 0.011692454413369666 C 0.013556763454718625 0.011924454162150856 0.013472357143868682 0.013200452780447403 0.013480119693830167 0.013084452906056808" fill="none" stroke="#000000" stroke-width="0.001"/>
<path d="M 0.013480119693830167 0.013084452906056808 C 0.01342456317434103 0.01317772067291598 0.01266064738938566 0.014336812204366308 0.012813441459960518 0.014203666108366885 C 0.01266064738938566 0.014336812204366308 0.011452115744760443 0.014682206058049874 0.011646590846931882 0.014682206058049874 C 0.011452115744760443 0.014682206058049874 0.0103269461633284 0.014070520012367463 0.010479740233903256 0.014203666108366885 C 0.0103269461633284 0.014070520012367463 0.00975750548054447 0.012991185139197635 0.009813062000033608 0.013084452906056808" fill="none" stroke="#000000" stroke-width="0.001"/>
<path d="M 0.009813062000033608 0.013084452906056808 C 0.009805299450072122 0.012968453031666213 0.009703404561846426 0.011460454664588483 0.009719911400495787 0.011692454413369673 C 0.009703404561846426 0.011460454664588483 0.009606235647553394 0.010184456046291942 0.009614979936241271 0.010300455920682537" fill="none" stroke="#000000" stroke-width="0.001"/>
</g><g id="舌股左">
<g transform="translate(0.33824396978927557,0.1481964706756522) rotate(0) scale(1,1) translate(-0.011646590846931882,-0.010300455920682537)"><path d="M 0.012549735462516037 0.010300455920682537 C 0.012545848223476312 0.010398679323611116 0.01249575054403771 0.011675583561682653 0.012503088594039332 0.011479136755825493 C 0.01249575054403771 0.011675583561682653 0.012458228051534688 0.012756040993897039 0.012461678862496583 0.012657817590968458" fill="none" stroke="#000000" stroke-width="0.001"/>
<path d="M 0.012461678862496583 0.012657817590968458 C 0.012441784383121999 0.012748396604495046 0.012155021108704513 0.013872863822683199 0.012222945110001571 0.01374476575328752 C 0.012155021108704513 0.013872863822683199 0.011550531803086935 0.01419499442371659 0.011646590846931882 0.01419499442371659 C 0.011550531803086935 0.01419499442371659 0.011002312582565144 0.013616667683891841 0.011070236583862202 0.01374476575328752 C 0.011002312582565144 0.013616667683891841 0.010811608351992604 0.01256723857744187 0.010831502831367188 0.012657817590968458" fill="none" stroke="#000000" stroke-width="0.001"/>
<path d="M 0.010831502831367188 0.012657817590968458 C 0.010828052020405293 0.012559594188039877 0.010782755049822816 0.011282689949968335 0.010790093099824438 0.011479136755825495 C 0.010782755049822816 0.011282689949968335 0.010739558992308003 0.010202232517753958 0.01074344623134773 0.010300455920682537" fill="none" stroke="#000000" stroke-width="0.001"/>
</g><g transform="translate(0.33824396978927557,0.1505538323459381) rotate(0) scale(1,1) translate(-0.011646590846931882,-0.010300455920682537)"><path d="M 0.012459421000957621 0.010300455920682537 C 0.012455922485821868 0.010388856983318259 0.012410834574327128 0.011538070797582643 0.012417438819328587 0.011361268672311199 C 0.012410834574327128 0.011538070797582643 0.012377064331074408 0.012510482486575589 0.012380170060940113 0.012422081423939866" fill="none" stroke="#000000" stroke-width="0.001"/>
<path d="M 0.012380170060940113 0.012422081423939866 C 0.012362265029502988 0.012503602536113795 0.012104178082527247 0.013515623032483135 0.0121653096836946 0.013400334770027025 C 0.012104178082527247 0.013515623032483135 0.01156013770747143 0.013805540573413185 0.011646590846931882 0.013805540573413185 C 0.01156013770747143 0.013805540573413185 0.011066740409001819 0.013285046507570914 0.011127872010169172 0.013400334770027025 C 0.011066740409001819 0.013285046507570914 0.010895106601486529 0.012340560311765936 0.010913011632923655 0.012422081423939866" fill="none" stroke="#000000" stroke-width="0.001"/>
<path d="M 0.010913011632923655 0.012422081423939866 C 0.010909905903057949 0.012333680361304144 0.010869138629533724 0.011184466547039756 0.010875742874535183 0.0113612686723112 C 0.010869138629533724 0.011184466547039756 0.010830262177770396 0.010212054858046816 0.010833760692906149 0.010300455920682537" fill="none" stroke="#000000" stroke-width="0.001"/>
</g><g transform="translate(0.33824396978927557,0.15267545784919542) rotate(0) scale(1,1) translate(-0.011646590846931882,-0.010300455920682537)"><path d="M 0.012378137985555046 0.010300455920682537 C 0.012374989321932869 0.010380016877054686 0.012334410201587605 0.011414309309892632 0.012340354022088917 0.011255187397148331 C 0.012334410201587605 0.011414309309892632 0.012304016982660156 0.012289479829986285 0.012306812139539292 0.012209918873614134" fill="none" stroke="#000000" stroke-width="0.001"/>
<path d="M 0.012306812139539292 0.012209918873614134 C 0.012290697611245878 0.012283287874570671 0.01205841935896771 0.013194106321303073 0.012113437800018329 0.013090346885092575 C 0.01205841935896771 0.013194106321303073 0.011568783021417475 0.013455032108140122 0.011646590846931882 0.013455032108140122 C 0.011568783021417475 0.013455032108140122 0.011124725452794823 0.012986587448882076 0.01117974389384544 0.013090346885092575 C 0.011124725452794823 0.012986587448882076 0.010970255026031066 0.012136549872657597 0.01098636955432448 0.012209918873614134" fill="none" stroke="#000000" stroke-width="0.001"/>
<path d="M 0.01098636955432448 0.012209918873614134 C 0.010983574397445343 0.012130357917241985 0.010946883851273537 0.011096065484404036 0.010952827671774851 0.011255187397148337 C 0.010946883851273537 0.011096065484404036 0.010911895044686542 0.010220894964310388 0.01091504370830872 0.010300455920682537" fill="none" stroke="#000000" stroke-width="0.001"/>
</g><g transform="translate(0.33824396978927557,0.15458492080212702) rotate(0) scale(1,1) translate(-0.011646590846931882,-0.010300455920682537)"><path d="M 0.012304983271692733 0.010300455920682537 C 0.012302149474432773 0.010372060781417471 0.012265628266122033 0.011302923970971622 0.012270977704573215 0.011159714249501752 C 0.012265628266122033 0.011302923970971622 0.01223827436908733 0.01209057743905591 0.012240790010278552 0.012018972578320974" fill="none" stroke="#000000" stroke-width="0.001"/>
<path d="M 0.012240790010278552 0.012018972578320974 C 0.01222628693481448 0.012085004679181856 0.01201723650776413 0.012904741281241021 0.012066753104709687 0.012811357788651572 C 0.01201723650776413 0.012904741281241021 0.011576563803968916 0.013139574489394365 0.011646590846931882 0.013139574489394365 C 0.011576563803968916 0.013139574489394365 0.011176911992208532 0.012717974296062123 0.011226428589154087 0.012811357788651572 C 0.011176911992208532 0.012717974296062123 0.01103788860812115 0.011952940477460091 0.011052391683585221 0.012018972578320974" fill="none" stroke="#000000" stroke-width="0.001"/>
<path d="M 0.011052391683585221 0.012018972578320974 C 0.011049876042394 0.01194736771758604 0.011016854550839374 0.011016504528031885 0.011022203989290555 0.011159714249501755 C 0.011016854550839374 0.011016504528031885 0.010985364624911075 0.010228851059947603 0.010988198422171035 0.010300455920682537" fill="none" stroke="#000000" stroke-width="0.001"/>
</g><g transform="translate(0.33824396978927557,0.15630343745976544) rotate(0) scale(1,1) translate(-0.011646590846931882,-0.010300455920682537)"><path d="M 0.012239144029216649 0.010300455920682537 C 0.012236593611682684 0.010364900295343978 0.012203724524203019 0.011202677165942712 0.012208539018809082 0.01107378841661983 C 0.012203724524203019 0.011202677165942712 0.012179106016871784 0.011911565287218574 0.012181370093943884 0.011847120912557133" fill="none" stroke="#000000" stroke-width="0.001"/>
<path d="M 0.012181370093943884 0.011847120912557133 C 0.01216831732602622 0.011906549803331928 0.011980171941680903 0.012644312745185174 0.012024736878931902 0.01256026760185467 C 0.011980171941680903 0.012644312745185174 0.011583566508265213 0.01285566263252318 0.011646590846931882 0.01285566263252318 C 0.011583566508265213 0.01285566263252318 0.011223879877680868 0.012476222458524167 0.011268444814931868 0.01256026760185467 C 0.011223879877680868 0.012476222458524167 0.01109875883200222 0.011787692021782339 0.011111811599919886 0.011847120912557133" fill="none" stroke="#000000" stroke-width="0.001"/>
<path d="M 0.011111811599919886 0.011847120912557133 C 0.011109547522847787 0.011782676537895692 0.011079828180448628 0.010944899667296951 0.011084642675054691 0.011073788416619833 C 0.011079828180448628 0.010944899667296951 0.011051487247113159 0.010236011546021096 0.011054037664647123 0.010300455920682537" fill="none" stroke="#000000" stroke-width="0.001"/>
</g><g transform="translate(0.33824396978927557,0.15785010245164002) rotate(0) scale(1,1) translate(-0.011646590846931882,-0.010300455920682537)"><path d="M 0.012179888710988173 0.010300455920682537 C 0.012177593335207605 0.010358455857877834 0.012148011156475905 0.011112455041416698 0.012152344201621363 0.010996455167026103 C 0.012148011156475905 0.011112455041416698 0.012125854499877792 0.01175045435056497 0.012127892169242682 0.011692454413369673" fill="none" stroke="#000000" stroke-width="0.001"/>
<path d="M 0.012127892169242682 0.011692454413369673 C 0.012116144678116784 0.01174594041506699 0.011946813832206004 0.01240992706273491 0.011986922275731905 0.012334286433737457 C 0.011946813832206004 0.01240992706273491 0.01158986894213188 0.01260014196133912 0.011646590846931882 0.01260014196133912 C 0.01158986894213188 0.01260014196133912 0.01126615097460597 0.012258645804740004 0.01130625941813187 0.012334286433737457 C 0.01126615097460597 0.012258645804740004 0.011153542033495186 0.011638968411672357 0.011165289524621085 0.011692454413369673" fill="none" stroke="#000000" stroke-width="0.001"/>
<path d="M 0.011165289524621085 0.011692454413369673 C 0.011163251855256195 0.011634454476174377 0.011136504447096953 0.01088045529263551 0.01114083749224241 0.010996455167026105 C 0.011136504447096953 0.01088045529263551 0.01111099760709503 0.01024245598348724 0.011113292982875597 0.010300455920682537" fill="none" stroke="#000000" stroke-width="0.001"/>
</g></g>
<g id="舌股右">
<g transform="translate(0.33644293586806584,0.1481964706756522) rotate(0) scale(1,1) translate(-0.011646590846931882,-0.010300455920682537)"><path d="M 0.012549735462516037 0.010300455920682537 C 0.012545848223476312 0.010398679323611116 0.01249575054403771 0.011675583561682653 0.012503088594039332 0.011479136755825493 C 0.01249575054403771 0.011675583561682653 0.012458228051534688 0.012756040993897039 0.012461678862496583 0.012657817590968458" fill="none" stroke="#000000" stroke-width="0.001"/>
<path d="M 0.012461678862496583 0.012657817590968458 C 0.012441784383121999 0.012748396604495046 0.012155021108704513 0.013872863822683199 0.012222945110001571 0.01374476575328752 C 0.012155021108704513 0.013872863822683199 0.011550531803086935 0.01419499442371659 0.011646590846931882 0.01419499442371659 C 0.011550531803086935 0.01419499442371659 0.011002312582565144 0.013616667683891841 0.011070236583862202 0.01374476575328752 C 0.011002312582565144 0.013616667683891841 0.010811608351992604 0.01256723857744187 0.010831502831367188 0.012657817590968458" fill="none" stroke="#000000" stroke-width="0.001"/>
<path d="M 0.010831502831367188 0.012657817590968458 C 0.010828052020405293 0.012559594188039877 0.010782755049822816 0.011282689949968335 0.010790093099824438 0.011479136755825495 C 0.010782755049822816 0.011282689949968335 0.010739558992308003 0.010202232517753958 0.01074344623134773 0.010300455920682537" fill="none" stroke="#000000" stroke-width="0.001"/>
</g><g transform="translate(0.33644293586806584,0.1505538323459381) rotate(0) scale(1,1) translate(-0.011646590846931882,-0.010300455920682537)"><path d="M 0.012459421000957621 0.010300455920682537 C 0.012455922485821868 0.010388856983318259 0.012410834574327128 0.011538070797582643 0.012417438819328587 0.011361268672311199 C 0.012410834574327128 0.011538070797582643 0.012377064331074408 0.012510482486575589 0.012380170060940113 0.012422081423939866" fill="none" stroke="#000000" stroke-width="0.001"/>
<path d="M 0.012380170060940113 0.012422081423939866 C 0.012362265029502988 0.012503602536113795 0.012104178082527247 0.013515623032483135 0.0121653096836946 0.013400334770027025 C 0.012104178082527247 0.013515623032483135 0.01156013770747143 0.013805540573413185 0.011646590846931882 0.013805540573413185 C 0.01156013770747143 0.013805540573413185 0.011066740409001819 0.013285046507570914 0.011127872010169172 0.013400334770027025 C 0.011066740409001819 0.013285046507570914 0.010895106601486529 0.012340560311765936 0.010913011632923655 0.012422081423939866" fill="none" stroke="#000000" stroke-width="0.001"/>
<path d="M 0.010913011632923655 0.012422081423939866 C 0.010909905903057949 0.012333680361304144 0.010869138629533724 0.011184466547039756 0.010875742874535183 0.0113612686723112 C 0.010869138629533724 0.011184466547039756 0.010830262177770396 0.010212054858046816 0.010833760692906149 0.010300455920682537" fill="none" stroke="#000000" stroke-width="0.001"/>
</g><g transform="translate(0.33644293586806584,0.15267545784919542) rotate(0) scale(1,1) translate(-0.011646590846931882,-0.010300455920682537)"><path d="M 0.012378137985555046 0.010300455920682537 C 0.012374989321932869 0.010380016877054686 0.012334410201587605 0.011414309309892632 0.012340354022088917 0.011255187397148331 C 0.012334410201587605 0.011414309309892632 0.012304016982660156 0.012289479829986285 0.012306812139539292 0.012209918873614134" fill="none" stroke="#000000" stroke-width="0.001"/>
<path d="M 0.012306812139539292 0.012209918873614134 C 0.012290697611245878 0.012283287874570671 0.01205841935896771 0.013194106321303073 0.012113437800018329 0.013090346885092575 C 0.01205841935896771 0.013194106321303073 0.011568783021417475 0.013455032108140122 0.011646590846931882 0.013455032108140122 C 0.011568783021417475 0.013455032108140122 0.011124725452794823 0.012986587448882076 0.01117974389384544 0.013090346885092575 C 0.011124725452794823 0.012986587448882076 0.010970255026031066 0.012136549872657597 0.01098636955432448 0.012209918873614134" fill="none" stroke="#000000" stroke-width="0.001"/>
<path d="M 0.01098636955432448 0.012209918873614134 C 0.010983574397445343 0.012130357917241985 0.010946883851273537 0.011096065484404036 0.010952827671774851 0.011255187397148337 C 0.010946883851273537 0.011096065484404036 0.010911895044686542 0.010220894964310388 0.01091504370830872 0.010300455920682537" fill="none" stroke="#000000" stroke-width="0.001"/>
</g><g transform="translate(0.33644293586806584,0.15458492080212702) rotate(0) scale(1,1) translate(-0.011646590846931882,-0.010300455920682537)"><path d="M 0.012304983271692733 0.010300455920682537 C 0.012302149474432773 0.010372060781417471 0.012265628266122033 0.011302923970971622 0.012270977704573215 0.011159714249501752 C 0.012265628266122033 0.011302923970971622 0.01223827436908733 0.01209057743905591 0.012240790010278552 0.012018972578320974" fill="none" stroke="#000000" stroke-width="0.001"/>
<path d="M 0.012240790010278552 0.012018972578320974 C 0.01222628693481448 0.012085004679181856 0.01201723650776413 0.012904741281241021 0.012066753104709687 0.012811357788651572 C 0.01201723650776413 0.012904741281241021 0.011576563803968916 0.013139574489394365 0.011646590846931882 0.013139574489394365 C 0.011576563803968916 0.013139574489394365 0.011176911992208532 0.012717974296062123 0.011226428589154087 0.012811357788651572 C 0.011176911992208532 0.012717974296062123 0.01103788860812115 0.011952940477460091 0.011052391683585221 0.012018972578320974" fill="none" stroke="#000000" stroke-width="0.001"/>
<path d="M 0.011052391683585221 0.012018972578320974 C 0.011049876042394 0.01194736771758604 0.011016854550839374 0.011016504528031885 0.011022203989290555 0.011159714249501755 C 0.011016854550839374 0.011016504528031885 0.010985364624911075 0.010228851059947603 0.010988198422171035 0.010300455920682537" fill="none" stroke="#000000" stroke-width="0.001"/>
</g><g transform="translate(0.33644293586806584,0.15630343745976544) rotate(0) scale(1,1) translate(-0.011646590846931882,-0.010300455920682537)"><path d="M 0.012239144029216649 0.010300455920682537 C 0.012236593611682684 0.010364900295343978 0.012203724524203019 0.011202677165942712 0.012208539018809082 0.01107378841661983 C 0.012203724524203019 0.011202677165942712 0.012179106016871784 0.011911565287218574 0.012181370093943884 0.011847120912557133" fill="none" stroke="#000000" stroke-width="0.001"/>
<path d="M 0.012181370093943884 0.011847120912557133 C 0.01216831732602622 0.011906549803331928 0.011980171941680903 0.012644312745185174 0.012024736878931902 0.01256026760185467 C 0.011980171941680903 0.012644312745185174 0.011583566508265213 0.01285566263252318 0.011646590846931882 0.01285566263252318 C 0.011583566508265213 0.01285566263252318 0.011223879877680868 0.012476222458524167 0.011268444814931868 0.01256026760185467 C 0.011223879877680868 0.012476222458524167 0.01109875883200222 0.011787692021782339 0.011111811599919886 0.011847120912557133" fill="none" stroke="#000000" stroke-width="0.001"/>
<path d="M 0.011111811599919886 0.011847120912557133 C 0.011109547522847787 0.011782676537895692 0.011079828180448628 0.010944899667296951 0.011084642675054691 0.011073788416619833 C 0.011079828180448628 0.010944899667296951 0.011051487247113159 0.010236011546021096 0.011054037664647123 0.010300455920682537" fill="none" stroke="#000000" stroke-width="0.001"/>
</g><g transform="translate(0.33644293586806584,0.15785010245164002) rotate(0) scale(1,1) translate(-0.011646590846931882,-0.010300455920682537)"><path d="M 0.012179888710988173 0.010300455920682537 C 0.012177593335207605 0.010358455857877834 0.012148011156475905 0.011112455041416698 0.012152344201621363 0.010996455167026103 C 0.012148011156475905 0.011112455041416698 0.012125854499877792 0.01175045435056497 0.012127892169242682 0.011692454413369673" fill="none" stroke="#000000" stroke-width="0.001"/>
<path d="M 0.012127892169242682 0.011692454413369673 C 0.012116144678116784 0.01174594041506699 0.011946813832206004 0.01240992706273491 0.011986922275731905 0.012334286433737457 C 0.011946813832206004 0.01240992706273491 0.01158986894213188 0.01260014196133912 0.011646590846931882 0.01260014196133912 C 0.01158986894213188 0.01260014196133912 0.01126615097460597 0.012258645804740004 0.01130625941813187 0.012334286433737457 C 0.01126615097460597 0.012258645804740004 0.011153542033495186 0.011638968411672357 0.011165289524621085 0.011692454413369673" fill="none" stroke="#000000" stroke-width="0.001"/>
<path d="M 0.011165289524621085 0.011692454413369673 C 0.011163251855256195 0.011634454476174377 0.011136504447096953 0.01088045529263551 0.01114083749224241 0.010996455167026105 C 0.011136504447096953 0.01088045529263551 0.01111099760709503 0.01024245598348724 0.011113292982875597 0.010300455920682537" fill="none" stroke="#000000" stroke-width="0.001"/>
</g></g>
</svg>
