<?xml version="1.0" encoding="UTF-8"?>
<svg xmlns="http://www.w3.org/2000/svg" viewBox="0 0 1 1">
<g transform="translate(0.3373434528286707,0.1307709240821216) rotate(0) scale(1,1) translate(-0.027518731894252125,-0.027405612998594557)"><path d="M 0.024996566682087377 0.02660938078239155 C 0.02520674711643444 0.026598179021837164 0.027939092762946243 0.02647495965573891 0.027518731894252118 0.02647495965573891 C 0.027939092762946243 0.02647495965573891 0.030251077540763928 0.026620582542945935 0.030040897106416865 0.02660938078239155" fill="none" stroke="#000000" stroke-width="0.001"/>
<path d="M 0.030040897106416865 0.02660938078239155 C 0.03011514358639762 0.02671829907041059 0.030894322796157343 0.028121946424709807 0.0309318548661859 0.02791640023862007 C 0.030894322796157343 0.028121946424709807 0.02947873371606488 0.029172562913539105 0.02959051226607419 0.02907593501546841" fill="none" stroke="#000000" stroke-width="0.001"/>
<path d="M 0.02959051226607419 0.02907593501546841 C 0.029417863901755683 0.02904165680023033 0.02717343516561511 0.028664596432611447 0.027518731894252118 0.028664596432611447 C 0.02717343516561511 0.028664596432611447 0.02527430315811159 0.029110213230706488 0.025446951522430095 0.02907593501546841" fill="none" stroke="#000000" stroke-width="0.001"/>
<path d="M 0.025446951522430095 0.02907593501546841 C 0.025335172972420782 0.028979307117397712 0.024068076852289802 0.02771085405253033 0.02410560892231836 0.02791640023862007 C 0.024068076852289802 0.02771085405253033 0.025070813162068127 0.026500462494372507 0.024996566682087377 0.02660938078239155" fill="none" stroke="#000000" stroke-width="0.001"/>
</g><g transform="translate(0.3373434528286707,0.13125609474008948) rotate(0) scale(1,1) translate(-0.0008213704858716138,-0.0037671464545736867)"><path d="M 0.004068625850095053 0.0034931405013516586 C 0.0037980212364097676 0.00349368744605479 0.0002801612585010579 0.0034997038377892337 0.0008213704858716326 0.0034997038377892337 C 0.0002801612585010579 0.0034997038377892337 -0.0026964894920371344 0.003492593556648527 -0.0024258848783518445 0.0034931405013516586" fill="none" stroke="#000000" stroke-width="0.001"/>
</g><g transform="translate(0.3373434528286707,0.12940013285559526) rotate(0) scale(1,1) translate(-0.0033804933082747304,-0.0022898310763958206)"><path d="M 0.0033804933082747088 0.002558255443279752 C 0.003459268792669098 0.0025020345362355085 0.004520645501863325 0.0019081583555296342 0.004325799121007379 0.0018836045587488275 C 0.004520645501863325 0.0019081583555296342 0.005834720775007613 0.0029336757084744845 0.005718649878546056 0.002852901004649434" fill="none" stroke="#000000" stroke-width="0.001"/>
<path d="M 0.005718649878546056 0.002852901004649434 C 0.005523803497690111 0.002842652819436691 0.0029908005465628324 0.002729922782096516 0.0033804933082747174 0.002729922782096516 C 0.0029908005465628324 0.002729922782096516 0.0008474903571474956 0.0028631491898621765 0.0010423367380034358 0.0028529010046494333" fill="none" stroke="#000000" stroke-width="0.001"/>
<path d="M 0.0010423367380034358 0.0028529010046494333 C 0.0011584076344649892 0.002772126300824383 0.0026300338763980175 0.0018590507619680207 0.002435187495542078 0.0018836045587488275 C 0.0026300338763980175 0.0018590507619680207 0.0034592687926690946 0.0026144763503239956 0.0033804933082747088 0.002558255443279752" fill="none" stroke="#000000" stroke-width="0.001"/>
</g><g transform="translate(0.3343952237956599,0.1302086807978025) rotate(0) scale(1,1) translate(-0.0037490495184488836,-0.0037490495184488836)"><path d="M 0.00387998411852938 0.003827923042201058 C 0.004004770356519736 0.003784040820381469 0.004136689313021648 0.004369729416936022 0.004175949553827146 0.00409344318759175 C 0.004136689313021648 0.004369729416936022 0.0035196364357060407 0.005529522640086283 0.003644422673696397 0.005485640418266694 C 0.0035196364357060407 0.005529522640086283 0.003466492366690507 0.004080450289165011 0.0034272321258850096 0.004356736518509283 C 0.003466492366690507 0.004080450289165011 0.004004770356519736 0.003784040820381469 0.00387998411852938 0.003827923042201058 Z" fill="#cccccc" stroke="#000000" stroke-width="0.001"/>
</g><g transform="translate(0.3402916818616814,0.1302086807978025) rotate(0) scale(1,1) translate(-0.0037490495184488836,-0.0037490495184488836)"><path d="M 0.0040708669110128635 0.004356736518509283 C 0.00411012715181837 0.004633022747853556 0.003728890125211039 0.005441758196447105 0.0038536763632014094 0.005485640418266694 C 0.003728890125211039 0.005441758196447105 0.003282889242265134 0.0038171569582474774 0.0033221494830706407 0.00409344318759175 C 0.003282889242265134 0.0038171569582474774 0.0037429011563587383 0.0038718052640206472 0.003618114918368368 0.003827923042201058 C 0.0037429011563587383 0.0038718052640206472 0.00411012715181837 0.004633022747853556 0.0040708669110128635 0.004356736518509283 Z" fill="#cccccc" stroke="#000000" stroke-width="0.001"/>
</g><g id="口紅下">
<g transform="translate(0.3373434528286707,0.13125609474008948) rotate(0) scale(1,1) translate(-0.0026050034412749006,-0.0026050034412749006)"><path d="M 0.0005332230730408832 0.003790154804825106 C 0.0007058714370603847 0.0037558800313940753 0.002950300169313904 0.0033788575236527387 0.0026050034412749006 0.0033788575236527387 C 0.002950300169313904 0.0033788575236527387 0.004849432173528428 0.0038244295782561347 0.0046767838095089255 0.003790154804825104" fill="none" stroke="#000000" stroke-width="0.001"/>
<path d="M 0.0046767838095089255 0.003790154804825104 C 0.004504135445489423 0.003839977941221059 0.002259706713235897 0.004388032441576563 0.0026050034412749006 0.004388032441576563 C 0.002259706713235897 0.004388032441576563 0.00036057470902138176 0.003740331668429151 0.0005332230730408832 0.003790154804825106" fill="none" stroke="#000000" stroke-width="0.001"/>
</g><g transform="translate(0.3362893077936316,0.13250396356037208) rotate(0) scale(1,1) translate(-0.0021726936277315367,-0.0021726936277315367)"><path d="M 0.0024348118917337062 0.002087526241014855 C 0.0024483117247524945 0.0021290744548513943 0.0022993486022713596 0.0024213429492116463 0.0023346916239569953 0.002395664740888816 C 0.0022993486022713596 0.0024213429492116463 0.001975352609820442 0.002369986532565986 0.0020106956315060777 0.002395664740888816 C 0.001975352609820442 0.002369986532565986 0.0019240751967481552 0.0020459780271783155 0.001910575363729367 0.002087526241014855 C 0.0019240751967481552 0.0020459780271783155 0.0022163800050652317 0.0018970861748503422 0.0021726936277315367 0.0018970861748503422 C 0.0022163800050652317 0.0018970861748503422 0.0024483117247524945 0.0021290744548513943 0.0024348118917337062 0.002087526241014855 Z" fill="#cccccc" stroke="none" stroke-width="0"/>
</g></g>
</svg>
