<?xml version="1.0" encoding="UTF-8"?>
<svg xmlns="http://www.w3.org/2000/svg" viewBox="0 0 1 1">
<g transform="translate(0.3373434528286707,0.1307709240821216) rotate(0) scale(1,1) translate(-0.02751873189425214,-0.028151624720737036)"><path d="M 0.0222475906682967 0.026925366513138194 C 0.022686852437126318 0.026925366513138194 0.028397255431911364 0.026925366513138194 0.02751873189425212 0.026925366513138194 C 0.028397255431911364 0.026925366513138194 0.03322913488903722 0.026925366513138194 0.0327898731202076 0.026925366513138194" fill="none" stroke="#000000" stroke-width="0.001"/>
<path d="M 0.0327898731202076 0.026925366513138194 C 0.03332142665373909 0.026819995747512433 0.039128844439389215 0.02581856648119237 0.03916851552258552 0.02566091732562906 C 0.039128844439389215 0.02581856648119237 0.031742595505124156 0.029080176301086946 0.03231382012185195 0.028817156379897877" fill="none" stroke="#000000" stroke-width="0.001"/>
<path d="M 0.03231382012185195 0.028817156379897877 C 0.03191422943621863 0.028871619202140604 0.026719550522985483 0.0294707102468106 0.027518731894252118 0.0294707102468106 C 0.026719550522985483 0.0294707102468106 0.022324052981019013 0.02876269355765515 0.02272364366665233 0.028817156379897877" fill="none" stroke="#000000" stroke-width="0.001"/>
<path d="M 0.02272364366665233 0.028817156379897877 C 0.022152419049924533 0.028554136458708808 0.01582927718272248 0.02550326817006575 0.01586894826591878 0.025660917325629057 C 0.01582927718272248 0.02550326817006575 0.022779144201828194 0.027030737278763955 0.0222475906682967 0.026925366513138194" fill="none" stroke="#000000" stroke-width="0.001"/>
</g><g transform="translate(0.3373434528286707,0.13157202029645432) rotate(0) scale(1,1) translate(-0.02751873189425215,-0.029185049457501937)"><path d="M 0.02224759066829673 0.028008569428610956 C 0.022394011257906604 0.027938492081406956 0.024297478922834934 0.027202162306510267 0.024004637743615186 0.027167641262162954 C 0.024297478922834934 0.027202162306510267 0.025908105408543575 0.028527420352330038 0.0257616848189337 0.028422821960778725" fill="none" stroke="#000000" stroke-width="0.001"/>
<path d="M 0.0257616848189337 0.028422821960778725 C 0.02590810540854357 0.028318223569227412 0.0278115730734719 0.027167641262162954 0.027518731894252153 0.027167641262162954 C 0.0278115730734719 0.027167641262162954 0.02942219955918054 0.028527420352330038 0.029275778969570666 0.028422821960778725" fill="none" stroke="#000000" stroke-width="0.001"/>
<path d="M 0.029275778969570666 0.028422821960778725 C 0.029422199559180538 0.028318223569227412 0.031325667224108865 0.02713312021781564 0.03103282604488912 0.027167641262162954 C 0.031325667224108865 0.02713312021781564 0.03293629370981751 0.028078646775814956 0.03278987312020763 0.028008569428610956" fill="none" stroke="#000000" stroke-width="0.001"/>
<path d="M 0.03278987312020763 0.028008569428610956 C 0.032863062442039334 0.027921863130719766 0.03381452362585146 0.026910909992304107 0.03366814498218806 0.026968093853916675 C 0.03381452362585146 0.026910909992304107 0.03461960616600017 0.02735188552553874 0.03454641684416847 0.02732236308926012" fill="none" stroke="#000000" stroke-width="0.001"/>
<path d="M 0.03454641684416847 0.02732236308926012 C 0.03461960616600017 0.027259582751607118 0.03557106734981229 0.026533073723743576 0.035424688706148885 0.0265689990374241 C 0.03557106734981229 0.026533073723743576 0.03637614988996101 0.026918114349066272 0.03630296056812931 0.026891259325093796" fill="none" stroke="#000000" stroke-width="0.001"/>
<path d="M 0.03630296056812931 0.026891259325093796 C 0.03637614988996101 0.02683114639974694 0.03732761107377312 0.026113319140378455 0.03718123243010972 0.026169904220931534 C 0.03732761107377312 0.026113319140378455 0.03813269361392184 0.026215766203250633 0.03805950429209014 0.026212238358456857" fill="none" stroke="#000000" stroke-width="0.001"/>
<path d="M 0.03805950429209014 0.026212238358456857 C 0.03813076872194322 0.02618383860245793 0.03900710686593898 0.02584605519920693 0.03891467745032718 0.025871441286469746 C 0.03900710686593898 0.02584605519920693 0.039189822265190466 0.02591061898003918 0.03916865727943175 0.02590760531130307" fill="none" stroke="#000000" stroke-width="0.001"/>
<path d="M 0.03916865727943175 0.02590760531130307 C 0.039141764738495094 0.025930124295199326 0.03877219171977695 0.026204035232632827 0.03884594678819187 0.026177833118058127 C 0.03877219171977695 0.026204035232632827 0.03823673393097442 0.0262257138168779 0.03828359645845268 0.026222030686199455" fill="none" stroke="#000000" stroke-width="0.001"/>
<path d="M 0.03828359645845268 0.026222030686199455 C 0.03823384832231434 0.026263016615522543 0.037587122552515936 0.026743201259833174 0.037686618824792614 0.026713861838076485 C 0.037587122552515936 0.026743201259833174 0.0370398930549942 0.02656245723971331 0.03708964119113254 0.02657410374727971" fill="none" stroke="#000000" stroke-width="0.001"/>
<path d="M 0.03708964119113254 0.02657410374727971 C 0.0370398930549942 0.0266288363917383 0.036393167285195795 0.027272987132885628 0.03649266355747247 0.02723089548078283 C 0.036393167285195795 0.027272987132885628 0.03584593778767406 0.027066562580157452 0.0358956859238124 0.02707920357251325" fill="none" stroke="#000000" stroke-width="0.001"/>
<path d="M 0.0358956859238124 0.02707920357251325 C 0.03584593778767406 0.027134930701761244 0.03519921201787565 0.027776693273775126 0.03529870829015233 0.027747929123489175 C 0.03519921201787565 0.027776693273775126 0.03465198252035392 0.02739741039698262 0.034701730656492256 0.027424373375944663" fill="none" stroke="#000000" stroke-width="0.001"/>
<path d="M 0.034701730656492256 0.027424373375944663 C 0.03465198252035392 0.0274944224917989 0.03400525675055551 0.02829532845918945 0.03410475302283219 0.02826496276619552 C 0.03400525675055551 0.02829532845918945 0.03345802725303378 0.027749078269011466 0.03350777538917212 0.027788761691871777" fill="none" stroke="#000000" stroke-width="0.001"/>
<path d="M 0.03350777538917212 0.027788761691871777 C 0.03345802725303378 0.027871531251624285 0.03278596283040533 0.028814301947735755 0.03291079775551205 0.028781996408901864 C 0.03278596283040533 0.028814301947735755 0.03193466949892311 0.028125964136959856 0.03200975628789149 0.028176428157878474" fill="none" stroke="#000000" stroke-width="0.001"/>
<path d="M 0.03200975628789149 0.028176428157878474 C 0.031935197269313195 0.028266612000701744 0.03094059137496539 0.029269125904345633 0.03111504806495201 0.029258634271757723 C 0.03094059137496539 0.029269125904345633 0.029816378336643707 0.028222635538698058 0.029916276008052037 0.028302327748933417" fill="none" stroke="#000000" stroke-width="0.001"/>
<path d="M 0.029916276008052037 0.028302327748933417 C 0.02981637833664371 0.028410583428889365 0.02851770860833546 0.0296013959084048 0.028717503951152117 0.0296013959084048 C 0.02851770860833546 0.0296013959084048 0.027418834222843816 0.02819407206897747 0.027518731894252146 0.028302327748933417" fill="none" stroke="#000000" stroke-width="0.001"/>
<path d="M 0.027518731894252146 0.028302327748933417 C 0.02741883422284382 0.028410583428889365 0.026120164494535573 0.0296013959084048 0.02631995983735223 0.0296013959084048 C 0.026120164494535573 0.0296013959084048 0.02502129010904392 0.02819407206897747 0.02512118778045225 0.028302327748933417" fill="none" stroke="#000000" stroke-width="0.001"/>
<path d="M 0.02512118778045225 0.028302327748933417 C 0.025021290109043925 0.028382019959168777 0.02374795903356572 0.029248142639169812 0.023922415723552335 0.029258634271757723 C 0.02374795903356572 0.029248142639169812 0.022953148482034585 0.028086244315055204 0.023027707500612875 0.028176428157878474" fill="none" stroke="#000000" stroke-width="0.001"/>
<path d="M 0.023027707500612875 0.028176428157878474 C 0.022952620711644493 0.02822689217879709 0.022001831107885568 0.028749690870067974 0.02212666603299229 0.028781996408901864 C 0.022001831107885568 0.028749690870067974 0.02147994026319388 0.02770599213211927 0.02152968839933222 0.027788761691871777" fill="none" stroke="#000000" stroke-width="0.001"/>
<path d="M 0.02152968839933222 0.027788761691871777 C 0.02147994026319388 0.02782844511473209 0.020833214493395473 0.028234597073201594 0.02093271076567215 0.02826496276619552 C 0.020833214493395473 0.028234597073201594 0.02028598499587374 0.027354324260090424 0.02033573313201208 0.027424373375944663" fill="none" stroke="#000000" stroke-width="0.001"/>
<path d="M 0.02033573313201208 0.027424373375944663 C 0.02028598499587374 0.027451336354906705 0.019639259226075328 0.027719164973203224 0.019738755498352006 0.027747929123489175 C 0.019639259226075328 0.027719164973203224 0.019092029728553596 0.02702347644326526 0.019141777864691935 0.02707920357251325" fill="none" stroke="#000000" stroke-width="0.001"/>
<path d="M 0.019141777864691935 0.02707920357251325 C 0.019092029728553596 0.02709184456486905 0.018445303958755186 0.027188803828680035 0.018544800231031864 0.02723089548078283 C 0.018445303958755186 0.027188803828680035 0.017898074461233458 0.026519371102821116 0.017947822597371797 0.02657410374727971" fill="none" stroke="#000000" stroke-width="0.001"/>
<path d="M 0.017947822597371797 0.02657410374727971 C 0.017898074461233458 0.026585750254846108 0.017251348691435044 0.026684522416319797 0.017350844963711722 0.026713861838076485 C 0.017251348691435044 0.026684522416319797 0.01670411919391331 0.026181044756876368 0.016753867330051648 0.026222030686199455" fill="none" stroke="#000000" stroke-width="0.001"/>
<path d="M 0.016753867330051648 0.026222030686199455 C 0.01670700480257338 0.02621834755552101 0.016117761931897522 0.026151631003483427 0.01619151700031244 0.026177833118058127 C 0.016117761931897522 0.026151631003483427 0.01584191396813597 0.025885086327406815 0.01586880650907262 0.02590760531130307" fill="none" stroke="#000000" stroke-width="0.001"/>
<path d="M 0.01586880650907262 0.02590760531130307 C 0.01588997149483133 0.02590459164256696 0.016215215753788977 0.025896827373732563 0.016122786338177177 0.025871441286469746 C 0.016215215753788977 0.025896827373732563 0.01704922392626731 0.026240638114455782 0.016977959496414223 0.026212238358456857" fill="none" stroke="#000000" stroke-width="0.001"/>
<path d="M 0.016977959496414223 0.026212238358456857 C 0.017051148818245924 0.02620871051366308 0.018002610002058043 0.026226489301484614 0.01785623135839464 0.026169904220931534 C 0.018002610002058043 0.026226489301484614 0.01880769254220676 0.026951372250440652 0.018734503220375058 0.026891259325093796" fill="none" stroke="#000000" stroke-width="0.001"/>
<path d="M 0.018734503220375058 0.026891259325093796 C 0.01880769254220676 0.02686440430112132 0.01975915372601888 0.026604924351104627 0.019612775082355476 0.0265689990374241 C 0.01975915372601888 0.026604924351104627 0.020564236266167598 0.02738514342691312 0.020491046944335897 0.02732236308926012" fill="none" stroke="#000000" stroke-width="0.001"/>
<path d="M 0.020491046944335897 0.02732236308926012 C 0.020564236266167598 0.027292840652981498 0.021515697449979714 0.027025277715529244 0.02136931880631631 0.026968093853916675 C 0.021515697449979714 0.027025277715529244 0.022320779990128433 0.028095275726502146 0.02224759066829673 0.028008569428610956" fill="none" stroke="#000000" stroke-width="0.001"/>
</g><g transform="translate(0.3373434528286707,0.12910555928776077) rotate(0) scale(1,1) translate(-0.003380493308274758,-0.0022857485737099613)"><path d="M 0.003380493308274741 0.002405001858946533 C 0.0034781574729883884 0.002364315732316661 0.004785087026332973 0.0019434227755533557 0.00455246328483851 0.0019167683393880664 C 0.004785087026332973 0.0019434227755533557 0.006306937782989107 0.0027921956557251664 0.006171978206208292 0.002724855092930005" fill="none" stroke="#000000" stroke-width="0.001"/>
<path d="M 0.006171978206208292 0.002724855092930005 C 0.005939354464713829 0.0027249476376310414 0.0029152458252858253 0.0027259656293424435 0.003380493308274745 0.0027259656293424435 C 0.0029152458252858253 0.0027259656293424435 0.0003563846688467965 0.0027247625482289682 0.000589008410341254 0.002724855092930005" fill="none" stroke="#000000" stroke-width="0.001"/>
<path d="M 0.000589008410341254 0.002724855092930005 C 0.0007239679871220662 0.0026575145301348433 0.002441147073205457 0.001890113903222777 0.002208523331711 0.0019167683393880664 C 0.002441147073205457 0.001890113903222777 0.003478157472988386 0.0024456879855764054 0.003380493308274741 0.002405001858946533" fill="none" stroke="#000000" stroke-width="0.001"/>
</g><g id="口紅下">
<g transform="translate(0.3373434528286707,0.13157202029645432) rotate(0) scale(1,1) translate(-0.0026050034412749006,-0.0026050034412749006)"><path d="M 0.0002987943421140302 0.0028999348546789026 C 0.0004909784337107694 0.002918480373693633 0.002989371624468379 0.0031224810828556705 0.0026050034412749006 0.0031224810828556705 C 0.002989371624468379 0.0031224810828556705 0.005103396632032512 0.00288138933566417 0.004911212540435772 0.002899934854678901" fill="none" stroke="#000000" stroke-width="0.001"/>
<path d="M 0.004911212540435772 0.002899934854678901 C 0.004719028448839033 0.003002578283520616 0.002220635258081422 0.004131656000779481 0.0026050034412749006 0.004131656000779481 C 0.002220635258081422 0.004131656000779481 0.000106610250517291 0.002797291425837188 0.0002987943421140302 0.0028999348546789026" fill="none" stroke="#000000" stroke-width="0.001"/>
</g><g transform="translate(0.3362893077936316,0.13233196968800706) rotate(0) scale(1,1) translate(-0.0021726936277315367,-0.0021726936277315367)"><path d="M 0.0024348118917337062 0.002087526241014855 C 0.0024483117247524945 0.0021290744548513943 0.0022993486022713596 0.0024213429492116463 0.0023346916239569953 0.002395664740888816 C 0.0022993486022713596 0.0024213429492116463 0.001975352609820442 0.002369986532565986 0.0020106956315060777 0.002395664740888816 C 0.001975352609820442 0.002369986532565986 0.0019240751967481552 0.0020459780271783155 0.001910575363729367 0.002087526241014855 C 0.0019240751967481552 0.0020459780271783155 0.0022163800050652317 0.0018970861748503422 0.0021726936277315367 0.0018970861748503422 C 0.0022163800050652317 0.0018970861748503422 0.0024483117247524945 0.0021290744548513943 0.0024348118917337062 0.002087526241014855 Z" fill="#cccccc" stroke="none" stroke-width="0"/>
</g></g>
</svg>
