<?xml version="1.0" encoding="UTF-8"?>
<svg xmlns="http://www.w3.org/2000/svg" viewBox="0 0 1 1">
<g transform="translate(0.3373434528286707,0.1307709240821216) rotate(0) scale(1,1) translate(-0.027518731894252125,-0.026807332037762407)"><path d="M 0.024356047158678874 0.025571335616066754 C 0.024619604219976644 0.025561000304969286 0.02804584601684767 0.025447311882897165 0.027518731894252125 0.025447311882897165 C 0.02804584601684767 0.025447311882897165 0.03094497369112315 0.02558167092716422 0.03068141662982538 0.025571335616066754" fill="none" stroke="#000000" stroke-width="0.001"/>
<path d="M 0.03068141662982538 0.025571335616066754 C 0.031180417578115995 0.025636229083126023 0.03663013002511131 0.02653269723046766 0.03666942800931278 0.02635005722077797 C 0.03663013002511131 0.02653269723046766 0.0296715418869157 0.027880762274973457 0.030209840819407783 0.027763015732343035" fill="none" stroke="#000000" stroke-width="0.001"/>
<path d="M 0.030209840819407783 0.027763015732343035 C 0.029985581742311477 0.02782131101287872 0.027070213740059506 0.02846255909877126 0.027518731894252118 0.02846255909877126 C 0.027070213740059506 0.02846255909877126 0.02460336389200015 0.02770472045180735 0.024827622969096456 0.027763015732343035" fill="none" stroke="#000000" stroke-width="0.001"/>
<path d="M 0.024827622969096456 0.027763015732343035 C 0.024289324036604373 0.027645269189712614 0.018328737794990013 0.026167417211088277 0.018368035779191477 0.02635005722077797 C 0.018328737794990013 0.026167417211088277 0.02485504810696949 0.025506442149007484 0.024356047158678874 0.025571335616066754" fill="none" stroke="#000000" stroke-width="0.001"/>
</g><g transform="translate(0.3373434528286707,0.13185969628655722) rotate(0) scale(1,1) translate(-0.02751873189425216,-0.031041175061536933)"><path d="M 0.022589284562846496 0.02941754758291892 C 0.022707230661243888 0.029361571760390493 0.024269004431622453 0.02876512499271386 0.024004637743615186 0.02874583771257779 C 0.024269004431622453 0.02876512499271386 0.02590810540854357 0.02972425804721623 0.025761684818933695 0.029648994944551737" fill="none" stroke="#000000" stroke-width="0.001"/>
<path d="M 0.025761684818933695 0.029648994944551737 C 0.025908105408543568 0.02955914460448395 0.0278115730734719 0.02857079086373833 0.027518731894252153 0.02857079086373833 C 0.0278115730734719 0.02857079086373833 0.029422199559180538 0.029738845284619522 0.029275778969570662 0.029648994944551737" fill="none" stroke="#000000" stroke-width="0.001"/>
<path d="M 0.029275778969570662 0.029648994944551737 C 0.029422199559180535 0.029573731841887243 0.03129719273289638 0.028726550432441725 0.031032826044889116 0.02874583771257779 C 0.03129719273289638 0.028726550432441725 0.03256612532405519 0.029473523405447347 0.0324481792256578 0.02941754758291892" fill="none" stroke="#000000" stroke-width="0.001"/>
<path d="M 0.0324481792256578 0.02941754758291892 C 0.03253335780694739 0.029379223503422366 0.03362497715254198 0.028966674543097874 0.033470322201132885 0.02895765862896028 C 0.03362497715254198 0.028966674543097874 0.034373515012686436 0.029573078546204196 0.03430403864256693 0.029525738552570048" fill="none" stroke="#000000" stroke-width="0.001"/>
<path d="M 0.03430403864256693 0.029525738552570048 C 0.034346646978593035 0.02949142437786359 0.03489905668950013 0.02911633495493586 0.03481533867488017 0.02911396845609254 C 0.03489905668950013 0.02911633495493586 0.035349764496600364 0.029590817212239662 0.035308654818006505 0.029554136538689883" fill="none" stroke="#000000" stroke-width="0.001"/>
<path d="M 0.035308654818006505 0.029554136538689883 C 0.035348265839168135 0.02952780315447477 0.03589767823521075 0.029231208575719515 0.03578398707194606 0.029238135928108557 C 0.03589767823521075 0.029231208575719515 0.036747028919285794 0.029490414341847446 0.03667294877718274 0.029471008310021377" fill="none" stroke="#000000" stroke-width="0.001"/>
<path d="M 0.03667294877718274 0.029471008310021377 C 0.03662484286373865 0.02949031852589032 0.036021936428058295 0.02969343960851993 0.03609567781585364 0.02970273090044867 C 0.036021936428058295 0.02969343960851993 0.03576241664928729 0.029330911299078805 0.035788052123638545 0.029359512806876487" fill="none" stroke="#000000" stroke-width="0.001"/>
<path d="M 0.035788052123638545 0.029359512806876487 C 0.03574727347084802 0.02940643034367086 0.03520818150122347 0.029934897428851776 0.03529870829015233 0.02992252324840898 C 0.03520818150122347 0.029934897428851776 0.03465198252035392 0.029473459615838426 0.034701730656492256 0.029508002972190008" fill="none" stroke="#000000" stroke-width="0.001"/>
<path d="M 0.034701730656492256 0.029508002972190008 C 0.03465951720703015 0.029562415865995 0.034095672990670275 0.030167821482377784 0.03419516926294695 0.03016095769784991 C 0.034095672990670275 0.030167821482377784 0.033450492566357536 0.0295428192772474 0.03350777538917211 0.029590368386524516" fill="none" stroke="#000000" stroke-width="0.001"/>
<path d="M 0.03350777538917211 0.029590368386524516 C 0.03345802725303377 0.02965963333223765 0.03278432564945512 0.03043556778884623 0.03291079775551205 0.030421547735082117 C 0.03278432564945512 0.03043556778884623 0.03191338614657039 0.029703364139744885 0.03199011011648898 0.029758609031693903" fill="none" stroke="#000000" stroke-width="0.001"/>
<path d="M 0.03199011011648898 0.029758609031693903 C 0.0319171882788609 0.02983733252038703 0.0309458944489755 0.030725086321188227 0.03111504806495201 0.03070329089601142 C 0.0309458944489755 0.030725086321188227 0.029864034946422466 0.02996322607029928 0.029960266724770892 0.030020154133815598" fill="none" stroke="#000000" stroke-width="0.001"/>
<path d="M 0.029960266724770892 0.030020154133815598 C 0.029856703160302662 0.03010781712352371 0.028514042715275554 0.03108793583279736 0.028717503951152117 0.03107211001031295 C 0.028514042715275554 0.03108793583279736 0.027418834222843812 0.030138226836404842 0.027518731894252142 0.030210064003628544" fill="none" stroke="#000000" stroke-width="0.001"/>
<path d="M 0.027518731894252142 0.030210064003628544 C 0.027418834222843816 0.030281901170852246 0.026116498601475666 0.031056284187828537 0.026319959837352223 0.03107211001031295 C 0.026116498601475666 0.031056284187828537 0.024973633499265218 0.029932491144107485 0.025077197063733448 0.030020154133815598" fill="none" stroke="#000000" stroke-width="0.001"/>
<path d="M 0.025077197063733448 0.030020154133815598 C 0.024980965285385022 0.030077082197331916 0.023753262107575824 0.03068149547083461 0.02392241572355233 0.03070329089601142 C 0.023753262107575824 0.03068149547083461 0.022974431834387278 0.029679885543000776 0.02304735367201536 0.029758609031693903" fill="none" stroke="#000000" stroke-width="0.001"/>
<path d="M 0.02304735367201536 0.029758609031693903 C 0.02297062970209677 0.02981385392364292 0.022000193926935356 0.030407527681318002 0.022126666032992286 0.030421547735082117 C 0.022000193926935356 0.030407527681318002 0.02147994026319388 0.029521103440811384 0.02152968839933222 0.029590368386524516" fill="none" stroke="#000000" stroke-width="0.001"/>
<path d="M 0.02152968839933222 0.029590368386524516 C 0.02147240557651765 0.029637917495801632 0.020742798253280702 0.030154093913322032 0.02084229452555738 0.03016095769784991 C 0.020742798253280702 0.030154093913322032 0.020293519682549964 0.029453590078385015 0.020335733132012073 0.029508002972190008" fill="none" stroke="#000000" stroke-width="0.001"/>
<path d="M 0.020335733132012073 0.029508002972190008 C 0.020285984995873734 0.02954254632854159 0.01964822870942315 0.029910149067966185 0.019738755498352006 0.02992252324840898 C 0.01964822870942315 0.029910149067966185 0.01920863301207526 0.029312595270082113 0.019249411664865778 0.029359512806876487" fill="none" stroke="#000000" stroke-width="0.001"/>
<path d="M 0.019249411664865778 0.029359512806876487 C 0.019223776190514522 0.02938811431467417 0.018868044584855345 0.02971202219237741 0.018941785972650692 0.02970273090044867 C 0.018868044584855345 0.02971202219237741 0.01831640909787751 0.029451698094152434 0.0183645150113216 0.029471008310021377" fill="none" stroke="#000000" stroke-width="0.001"/>
<path d="M 0.0183645150113216 0.029471008310021377 C 0.018438595153424657 0.029451602278195307 0.01936716787982296 0.0292450632804976 0.019253476716558277 0.029238135928108557 C 0.01936716787982296 0.0292450632804976 0.01976841999165941 0.029580469922904994 0.019728808970497783 0.029554136538689883" fill="none" stroke="#000000" stroke-width="0.001"/>
<path d="M 0.019728808970497783 0.029554136538689883 C 0.01976991864909165 0.029517455865140103 0.020305843128244145 0.029111601957249218 0.02022212511362418 0.02911396845609254 C 0.020305843128244145 0.029111601957249218 0.020776033481963455 0.029560052727276506 0.020733425145937356 0.029525738552570048" fill="none" stroke="#000000" stroke-width="0.001"/>
<path d="M 0.020733425145937356 0.029525738552570048 C 0.020802901516056866 0.0294783985589359 0.02172179653878057 0.028948642714822687 0.021567141587371476 0.02895765862896028 C 0.02172179653878057 0.028948642714822687 0.02267446314413608 0.029455871662415475 0.022589284562846496 0.02941754758291892" fill="none" stroke="#000000" stroke-width="0.001"/>
</g><g transform="translate(0.3373434528286707,0.12828342901811046) rotate(0) scale(1,1) translate(-0.003380493308274758,-0.0022857485737099613)"><path d="M 0.0033804933082747296 0.0027827754653317067 C 0.003478157472988378 0.002738154196968656 0.004773281601133439 0.00230809467448812 0.004552463284838512 0.002247320244975097 C 0.004773281601133439 0.00230809467448812 0.006153467255395135 0.0036174643173640542 0.006030313103813856 0.0035120686194879806" fill="none" stroke="#000000" stroke-width="0.001"/>
<path d="M 0.006030313103813856 0.0035120686194879806 C 0.00580949478751893 0.003503797975243659 0.002938856675684899 0.0034128208885561245 0.003380493308274746 0.0034128208885561245 C 0.002938856675684899 0.0034128208885561245 0.0005098551964407736 0.003520339263732302 0.0007306735127356945 0.0035120686194879806" fill="none" stroke="#000000" stroke-width="0.001"/>
<path d="M 0.0007306735127356945 0.0035120686194879806 C 0.0008538276643169702 0.003406672921611907 0.0024293416480059217 0.0021865458154620744 0.002208523331711002 0.002247320244975097 C 0.0024293416480059217 0.0021865458154620744 0.0034781574729883737 0.0028273967336947575 0.0033804933082747296 0.0027827754653317067" fill="none" stroke="#000000" stroke-width="0.001"/>
</g><g id="口紅下">
<g transform="translate(0.3373434528286707,0.13185969628655722) rotate(0) scale(1,1) translate(-0.0026050034412749006,-0.0026050034412749006)"><path d="M 0.00015025479643325046 0.0025246895745965553 C 0.00035481718350338794 0.00257688929888564 0.0030141282154151766 0.0031510862660655697 0.0026050034412749006 0.0031510862660655697 C 0.0030141282154151766 0.0031510862660655697 0.005264314473186701 0.002472489850307469 0.0050597520861165625 0.0025246895745965536" fill="none" stroke="#000000" stroke-width="0.001"/>
<path d="M 0.0050597520861165625 0.0025246895745965536 C 0.004855189699046424 0.002660987208712623 0.0021958786671346245 0.004160261183989389 0.0026050034412749006 0.004160261183989389 C 0.0021958786671346245 0.004160261183989389 -5.430759063688705E-05 0.0023883919404804857 0.00015025479643325046 0.0025246895745965553" fill="none" stroke="#000000" stroke-width="0.001"/>
</g><g transform="translate(0.3362893077936316,0.13254138215936592) rotate(0) scale(1,1) translate(-0.0021726936277315367,-0.0021726936277315367)"><path d="M 0.0024348118917337062 0.002087526241014855 C 0.0024483117247524945 0.0021290744548513943 0.0022993486022713596 0.0024213429492116463 0.0023346916239569953 0.002395664740888816 C 0.0022993486022713596 0.0024213429492116463 0.001975352609820442 0.002369986532565986 0.0020106956315060777 0.002395664740888816 C 0.001975352609820442 0.002369986532565986 0.0019240751967481552 0.0020459780271783155 0.001910575363729367 0.002087526241014855 C 0.0019240751967481552 0.0020459780271783155 0.0022163800050652317 0.0018970861748503422 0.0021726936277315367 0.0018970861748503422 C 0.0022163800050652317 0.0018970861748503422 0.0024483117247524945 0.0021290744548513943 0.0024348118917337062 0.002087526241014855 Z" fill="#cccccc" stroke="none" stroke-width="0"/>
</g></g>
</svg>
