<?xml version="1.0" encoding="UTF-8"?>
<svg xmlns="http://www.w3.org/2000/svg" viewBox="0 0 1 1">
<g transform="translate(0.3373434528286707,0.1307709240821216) rotate(0) scale(1,1) translate(-0.0273887684688786,-0.026518726137036416)"><path d="M 0.023624382962362498 0.02596406525019844 C 0.023938081754572172 0.02599009741179503 0.02801616605329795 0.026276451189357525 0.027388768468878603 0.026276451189357525 C 0.02801616605329795 0.026276451189357525 0.031466852767604345 0.02593803308860185 0.03115315397539467 0.02596406525019844" fill="none" stroke="#000000" stroke-width="0.001"/>
<path d="M 0.03115315397539467 0.02596406525019844 C 0.031529799001887 0.025901343941388592 0.03564456318923798 0.025211409544480277 0.035672894293302615 0.025211409544480277 C 0.03564456318923798 0.025211409544480277 0.030408204596062017 0.026026786559008287 0.030813180726618986 0.02596406525019844" fill="none" stroke="#000000" stroke-width="0.001"/>
<path d="M 0.030813180726618986 0.02596406525019844 C 0.030527813038473954 0.02599009741179503 0.02681803309258854 0.026276451189357525 0.027388768468878603 0.026276451189357525 C 0.02681803309258854 0.026276451189357525 0.023678988522993192 0.02593803308860185 0.023964356211138224 0.02596406525019844" fill="none" stroke="#000000" stroke-width="0.001"/>
<path d="M 0.023964356211138224 0.02596406525019844 C 0.023559380080581258 0.025901343941388592 0.01907631154038998 0.02521140954448027 0.019104642644454627 0.02521140954448027 C 0.01907631154038998 0.02521140954448027 0.024001027988854822 0.026026786559008287 0.023624382962362498 0.02596406525019844" fill="none" stroke="#000000" stroke-width="0.001"/>
</g><g transform="translate(0.3373434528286707,0.12948538259857895) rotate(0) scale(1,1) translate(-0.0033790231582796824,-0.0022857485737099613)"><path d="M 0.003379023158279654 0.0026411103629372665 C 0.0034766873229933022 0.0025964890945742156 0.004758806765723914 0.002149043793645171 0.004550993134843437 0.002105655142580658 C 0.004758806765723914 0.002149043793645171 0.0059829361950122055 0.0032497840951389856 0.005872786728845377 0.003161774175711422" fill="none" stroke="#000000" stroke-width="0.001"/>
<path d="M 0.005872786728845377 0.003161774175711422 C 0.005664973097964902 0.0031779210477498555 0.0029633958965187297 0.003355536640172627 0.0033790231582796772 0.003355536640172627 C 0.0029633958965187297 0.003355536640172627 0.0006774459568335354 0.0031456273036729898 0.0008852595877140079 0.0031617741757114233" fill="none" stroke="#000000" stroke-width="0.001"/>
<path d="M 0.0008852595877140079 0.0031617741757114233 C 0.0009954090538808345 0.0030737642562838597 0.002414866812596398 0.0020622664915161447 0.0022070531817159275 0.002105655142580658 C 0.002414866812596398 0.0020622664915161447 0.0034766873229932975 0.0026857316313003174 0.003379023158279654 0.0026411103629372665" fill="none" stroke="#000000" stroke-width="0.001"/>
</g><g id="口紅下">
<g transform="translate(0.3373434528286707,0.13051945943744583) rotate(0) scale(1,1) translate(-0.0026050034412749006,-0.0026050034412749006)"><path d="M 0.00011123987070922598 0.0024159873983991068 C 0.0003190535015896984 0.0024321342704375403 0.003020630703035843 0.0026097498628603107 0.0026050034412748954 0.0026097498628603107 C 0.003020630703035843 0.0026097498628603107 0.005306580642721069 0.002399840526360673 0.005098767011840594 0.0024159873983991063" fill="none" stroke="#000000" stroke-width="0.001"/>
<path d="M 0.005098767011840594 0.0024159873983991063 C 0.004890953380960119 0.002519861689949532 0.002189376179513953 0.0036624788970042155 0.0026050034412749006 0.0036624788970042155 C 0.002189376179513953 0.0036624788970042155 -9.657376017124691E-05 0.002312113106848681 0.00011123987070922598 0.0024159873983991068" fill="none" stroke="#000000" stroke-width="0.001"/>
</g><g transform="translate(0.3362893077936316,0.130832576051916) rotate(0) scale(1,1) translate(-0.0021726936277315367,-0.0021726936277315367)"><path d="M 0.0024348118917337062 0.002087526241014855 C 0.0024483117247524945 0.0021290744548513943 0.0022993486022713596 0.0024213429492116463 0.0023346916239569953 0.002395664740888816 C 0.0022993486022713596 0.0024213429492116463 0.001975352609820442 0.002369986532565986 0.0020106956315060777 0.002395664740888816 C 0.001975352609820442 0.002369986532565986 0.0019240751967481552 0.0020459780271783155 0.001910575363729367 0.002087526241014855 C 0.0019240751967481552 0.0020459780271783155 0.0022163800050652317 0.0018970861748503422 0.0021726936277315367 0.0018970861748503422 C 0.0022163800050652317 0.0018970861748503422 0.0024483117247524945 0.0021290744548513943 0.0024348118917337062 0.002087526241014855 Z" fill="#cccccc" stroke="none" stroke-width="0"/>
</g></g>
</svg>
