<?xml version="1.0" encoding="UTF-8"?>
<svg xmlns="http://www.w3.org/2000/svg" viewBox="0 0 1 1">
<g transform="translate(0.3373434528286707,0.1307709240821216) rotate(0) scale(1,1) translate(-0.0273887684688786,-0.026909631729342822)"><path d="M 0.0236243829623625 0.025914884644857233 C 0.023938081754572176 0.02595698236903915 0.028016166053297945 0.02642005733504022 0.027388768468878597 0.02642005733504022 C 0.028016166053297945 0.02642005733504022 0.03146685276760434 0.025872786920675316 0.031153153975394667 0.025914884644857233" fill="none" stroke="#000000" stroke-width="0.001"/>
<path d="M 0.031153153975394667 0.025914884644857233 C 0.031529799001886995 0.025959267086616215 0.03564456318923796 0.026447473945965045 0.0356728942933026 0.026447473945965045 C 0.03564456318923796 0.026447473945965045 0.030408204596062017 0.02587050220309825 0.030813180726618986 0.025914884644857233" fill="none" stroke="#000000" stroke-width="0.001"/>
<path d="M 0.030813180726618986 0.025914884644857233 C 0.030527813038473954 0.02595698236903915 0.026818033092588532 0.02642005733504022 0.027388768468878597 0.02642005733504022 C 0.026818033092588532 0.02642005733504022 0.023678988522993192 0.025872786920675316 0.023964356211138224 0.025914884644857233" fill="none" stroke="#000000" stroke-width="0.001"/>
<path d="M 0.023964356211138224 0.025914884644857233 C 0.023559380080581258 0.025959267086616215 0.01907631154038998 0.026447473945965045 0.019104642644454623 0.026447473945965045 C 0.01907631154038998 0.026447473945965045 0.024001027988854826 0.02587050220309825 0.0236243829623625 0.025914884644857233" fill="none" stroke="#000000" stroke-width="0.001"/>
</g><g transform="translate(0.3373434528286707,0.12910555928776077) rotate(0) scale(1,1) translate(-0.0033788050491567064,-0.0022857485737099613)"><path d="M 0.003378805049156684 0.0028645729826644816 C 0.003476469213870332 0.0028199517143014307 0.004753298793907057 0.002352407717081997 0.00455077502572046 0.002329117762307872 C 0.004753298793907057 0.002352407717081997 0.005913949870868795 0.0032119636630911575 0.005809090267395846 0.0031440524399539817" fill="none" stroke="#000000" stroke-width="0.001"/>
<path d="M 0.005809090267395846 0.0031440524399539817 C 0.005606566499209251 0.0031684886428634818 0.002973757512783512 0.003437286874867984 0.0033788050491567 0.003437286874867984 C 0.002973757512783512 0.003437286874867984 0.0007459960627309958 0.0031196162370444825 0.0009485198309175884 0.0031440524399539826" fill="none" stroke="#000000" stroke-width="0.001"/>
<path d="M 0.0009485198309175884 0.0031440524399539826 C 0.0010533794343905352 0.003076141216816807 0.002409358840779541 0.002305827807533747 0.0022068350725929498 0.002329117762307872 C 0.002409358840779541 0.002305827807533747 0.0034764692138703284 0.0029091942510275325 0.003378805049156684 0.0028645729826644816" fill="none" stroke="#000000" stroke-width="0.001"/>
</g><g id="口紅下">
<g transform="translate(0.3373434528286707,0.130281349687819) rotate(0) scale(1,1) translate(-0.0026050034412749006,-0.0026050034412749006)"><path d="M 0.00017471822303578247 0.002310181398490063 C 0.00037724199122237507 0.002334617601399564 0.003010050977648082 0.0026034158334040727 0.002605003441274894 0.0026034158334040727 C 0.003010050977648082 0.0026034158334040727 0.005237812427700635 0.0022857451955805613 0.0050352886595140395 0.0023101813984900623" fill="none" stroke="#000000" stroke-width="0.001"/>
<path d="M 0.0050352886595140395 0.0023101813984900623 C 0.004832764891327445 0.0024209327265559163 0.0021999559049017126 0.00363919733528031 0.0026050034412749006 0.00363919733528031 C 0.0021999559049017126 0.00363919733528031 -2.7805545150810692E-05 0.002199430070424209 0.00017471822303578247 0.002310181398490063" fill="none" stroke="#000000" stroke-width="0.001"/>
</g><g transform="translate(0.3362893077936316,0.13053293807854294) rotate(0) scale(1,1) translate(-0.0021726936277315367,-0.0021726936277315367)"><path d="M 0.0024348118917337062 0.002087526241014855 C 0.0024483117247524945 0.0021290744548513943 0.0022993486022713596 0.0024213429492116463 0.0023346916239569953 0.002395664740888816 C 0.0022993486022713596 0.0024213429492116463 0.001975352609820442 0.002369986532565986 0.0020106956315060777 0.002395664740888816 C 0.001975352609820442 0.002369986532565986 0.0019240751967481552 0.0020459780271783155 0.001910575363729367 0.002087526241014855 C 0.0019240751967481552 0.0020459780271783155 0.0022163800050652317 0.0018970861748503422 0.0021726936277315367 0.0018970861748503422 C 0.0022163800050652317 0.0018970861748503422 0.0024483117247524945 0.0021290744548513943 0.0024348118917337062 0.002087526241014855 Z" fill="#cccccc" stroke="none" stroke-width="0"/>
</g></g>
</svg>
