<?xml version="1.0" encoding="UTF-8"?>
<svg xmlns="http://www.w3.org/2000/svg" viewBox="0 0 1 1">
<g transform="translate(0.3373434528286707,0.1307709240821216) rotate(0) scale(1,1) translate(-0.027518731894252135,-0.027799720885845668)"><path d="M 0.022247590668296697 0.026092296402121778 C 0.022686852437126315 0.026092296402121778 0.028397255431911364 0.026092296402121778 0.02751873189425212 0.026092296402121778 C 0.028397255431911364 0.026092296402121778 0.03322913488903722 0.026092296402121778 0.0327898731202076 0.026092296402121778" fill="none" stroke="#000000" stroke-width="0.001"/>
<path d="M 0.0327898731202076 0.026092296402121778 C 0.03332142665373909 0.0259301875319283 0.03912884443938921 0.02438952712220512 0.03916851552258551 0.024146989959800032 C 0.03912884443938921 0.02438952712220512 0.031742595505124156 0.029407388383581385 0.03231382012185195 0.02900274235098282" fill="none" stroke="#000000" stroke-width="0.001"/>
<path d="M 0.03231382012185195 0.02900274235098282 C 0.03191422943621863 0.029086531308279324 0.026719550522985483 0.030008209838540866 0.027518731894252118 0.030008209838540866 C 0.026719550522985483 0.030008209838540866 0.022324052981019013 0.028918953393686317 0.02272364366665233 0.02900274235098282" fill="none" stroke="#000000" stroke-width="0.001"/>
<path d="M 0.02272364366665233 0.02900274235098282 C 0.022152419049924533 0.028598096318384256 0.01582927718272248 0.023904452797394945 0.01586894826591878 0.024146989959800032 C 0.01582927718272248 0.023904452797394945 0.02277914420182819 0.026254405272315255 0.022247590668296697 0.026092296402121778" fill="none" stroke="#000000" stroke-width="0.001"/>
</g><g transform="translate(0.3373434528286707,0.13218281123798412) rotate(0) scale(1,1) translate(-0.027518731894252187,-0.029185049457501937)"><path d="M 0.022247590668296735 0.02795388430049856 C 0.022394011257906608 0.027860914128344034 0.024297478922834938 0.02693231106706376 0.02400463774361519 0.026838242234644268 C 0.024297478922834938 0.02693231106706376 0.02590810540854358 0.0292697492941065 0.025761684818933706 0.029082710289532483" fill="none" stroke="#000000" stroke-width="0.001"/>
<path d="M 0.025761684818933706 0.029082710289532483 C 0.025908105408543578 0.028917932981812833 0.02781157307347191 0.027105382596896675 0.027518731894252163 0.027105382596896675 C 0.02781157307347191 0.027105382596896675 0.029422199559180545 0.029247487597252132 0.02927577896957067 0.029082710289532483" fill="none" stroke="#000000" stroke-width="0.001"/>
<path d="M 0.02927577896957067 0.029082710289532483 C 0.02942219955918054 0.028895671284958464 0.03132566722410887 0.026744173402224774 0.031032826044889123 0.026838242234644268 C 0.03132566722410887 0.026744173402224774 0.03293629370981751 0.028046854472653083 0.03278987312020763 0.02795388430049856" fill="none" stroke="#000000" stroke-width="0.001"/>
<path d="M 0.03278987312020763 0.02795388430049856 C 0.032863062442039334 0.027787097450769023 0.03381452362585146 0.02585890150781891 0.03366814498218806 0.025952442103744144 C 0.03381452362585146 0.02585890150781891 0.034619606166000176 0.026904643403200004 0.034546416844168475 0.026831397149395707" fill="none" stroke="#000000" stroke-width="0.001"/>
<path d="M 0.034546416844168475 0.026831397149395707 C 0.034619606166000176 0.026692143762240734 0.03557106734981229 0.02506983910349529 0.035424688706148885 0.025160356503536024 C 0.03557106734981229 0.02506983910349529 0.03637614988996102 0.02579392433602111 0.03630296056812932 0.02574518834890687" fill="none" stroke="#000000" stroke-width="0.001"/>
<path d="M 0.03630296056812932 0.02574518834890687 C 0.03637614988996102 0.0256452863596782 0.03732761107377314 0.024461165649485715 0.037181232430109734 0.024546364478162844 C 0.03732761107377314 0.024461165649485715 0.038132693613921846 0.024737505565332857 0.038059504292090145 0.024722802404781318" fill="none" stroke="#000000" stroke-width="0.001"/>
<path d="M 0.038059504292090145 0.024722802404781318 C 0.03813076872194323 0.024669834765452626 0.03900710686593898 0.024038859506948486 0.03891467745032718 0.024087190732837008 C 0.03900710686593898 0.024038859506948486 0.03918982226519047 0.02414746410755922 0.03916865727943176 0.02414282769411905" fill="none" stroke="#000000" stroke-width="0.001"/>
<path d="M 0.015868806509072624 0.02414282769411905 C 0.01588997149483134 0.02413819128067888 0.01621521575378898 0.02413552195872553 0.01612278633817718 0.024087190732837008 C 0.01621521575378898 0.02413552195872553 0.017049223926267315 0.02477577004411001 0.016977959496414226 0.024722802404781318" fill="none" stroke="#000000" stroke-width="0.001"/>
<path d="M 0.016977959496414226 0.024722802404781318 C 0.017051148818245928 0.02470809924422978 0.018002610002058047 0.024631563306839972 0.017856231358394644 0.024546364478162844 C 0.018002610002058047 0.024631563306839972 0.018807692542206763 0.02584509033813554 0.01873450322037506 0.02574518834890687" fill="none" stroke="#000000" stroke-width="0.001"/>
<path d="M 0.01873450322037506 0.02574518834890687 C 0.018807692542206763 0.025696452361792632 0.019759153726018882 0.02525087390357676 0.01961277508235548 0.025160356503536024 C 0.019759153726018882 0.02525087390357676 0.0205642362661676 0.02697065053655068 0.0204910469443359 0.026831397149395707" fill="none" stroke="#000000" stroke-width="0.001"/>
<path d="M 0.0204910469443359 0.026831397149395707 C 0.0205642362661676 0.02675815089559141 0.021515697449979717 0.02604598269966938 0.021369318806316314 0.025952442103744144 C 0.021515697449979717 0.02604598269966938 0.022320779990128436 0.028120671150228094 0.022247590668296735 0.02795388430049856" fill="none" stroke="#000000" stroke-width="0.001"/>
</g><g transform="translate(0.3373434528286707,0.12800604472644217) rotate(0) scale(1,1) translate(-0.0033804933082747265,-0.0022857485737099613)"><path d="M 0.003380493308274751 0.002759164614932635 C 0.003478157472988395 0.0027125757757029945 0.004794924880665886 0.00224876861775186 0.004552463284838482 0.002200098544176949 C 0.004794924880665886 0.00224876861775186 0.006434829889317354 0.003438464410636122 0.006290032458203594 0.00334320549783157" fill="none" stroke="#000000" stroke-width="0.001"/>
<path d="M 0.006290032458203594 0.00334320549783157 C 0.006047570862376187 0.0033432295022589034 0.002895570116619905 0.0033434935509595687 0.0033804933082747174 0.0033434935509595687 C 0.002895570116619905 0.0033434935509595687 0.00022849256251843432 0.0033431814934042365 0.0004709541583458407 0.00334320549783157" fill="none" stroke="#000000" stroke-width="0.001"/>
<path d="M 0.0004709541583458407 0.00334320549783157 C 0.0006157515894596017 0.003247946585027018 0.0024509849275383823 0.0021514284706020377 0.002208523331710973 0.002200098544176949 C 0.0024509849275383823 0.0021514284706020377 0.003478157472988399 0.0028057534541622753 0.003380493308274751 0.002759164614932635" fill="none" stroke="#000000" stroke-width="0.001"/>
</g><g id="口紅下">
<g transform="translate(0.3373434528286707,0.13218281123798412) rotate(0) scale(1,1) translate(-0.0026050034412749006,-0.0026050034412749006)"><path d="M -0.0006127331281818416 0.0028237014226277567 C -0.0003445884140604464 0.0028718601293372015 0.0031412928695176917 0.003401605903141097 0.0026050034412749006 0.003401605903141097 C 0.0031412928695176917 0.003401605903141097 0.006090884724853049 0.0027755427159183096 0.005822740010731652 0.002823701422627755" fill="none" stroke="#000000" stroke-width="0.001"/>
<path d="M 0.005822740010731652 0.002823701422627755 C 0.005554595296610256 0.002955958039164185 0.0020687140130321094 0.00441078082106492 0.0026050034412749006 0.00441078082106492 C 0.0020687140130321094 0.00441078082106492 -0.0008808778423032369 0.0026914448060913264 -0.0006127331281818416 0.0028237014226277567" fill="none" stroke="#000000" stroke-width="0.001"/>
</g><g transform="translate(0.3362893077936316,0.13325154400446834) rotate(0) scale(1,1) translate(-0.0021726936277315367,-0.0021726936277315367)"><path d="M 0.0024348118917337062 0.002087526241014855 C 0.0024483117247524945 0.0021290744548513943 0.0022993486022713596 0.0024213429492116463 0.0023346916239569953 0.002395664740888816 C 0.0022993486022713596 0.0024213429492116463 0.001975352609820442 0.002369986532565986 0.0020106956315060777 0.002395664740888816 C 0.001975352609820442 0.002369986532565986 0.0019240751967481552 0.0020459780271783155 0.001910575363729367 0.002087526241014855 C 0.0019240751967481552 0.0020459780271783155 0.0022163800050652317 0.0018970861748503422 0.0021726936277315367 0.0018970861748503422 C 0.0022163800050652317 0.0018970861748503422 0.0024483117247524945 0.0021290744548513943 0.0024348118917337062 0.002087526241014855 Z" fill="#cccccc" stroke="none" stroke-width="0"/>
</g></g>
</svg>
