<?xml version="1.0" encoding="UTF-8"?>
<svg xmlns="http://www.w3.org/2000/svg" viewBox="0 0 1 1">
<g transform="translate(0.3373434528286707,0.1307709240821216) rotate(0) scale(1,1) translate(-0.019192864762988454,-0.007177757148175707)"><path d="M 0.019192864762988444 0.006934657002141492 C 0.02022603425131836 0.008152005333173704 0.03365723759960725 0.023977533636592458 0.03159089862294742 0.021542836974528034 C 0.03365723759960725 0.023977533636592458 0.0450221019712363 0.0373683652779468 0.04398893248290639 0.03615101694691458" fill="none" stroke="none" stroke-width="0"/>
<path d="M 0.04398893248290639 0.03615101694691458 C 0.04192259350624656 0.03615101694691458 0.015060186809668797 0.03615101694691458 0.019192864762988454 0.03615101694691458 C 0.015060186809668797 0.03615101694691458 -0.007669541933589324 0.036151016946914596 -0.0056032029569294955 0.036151016946914596" fill="none" stroke="none" stroke-width="0"/>
<path d="M -0.0056032029569294955 0.036151016946914596 C -0.004570033468599582 0.03493366861588238 0.008861169879689292 0.019108140312463617 0.006794830903029465 0.02154283697452804 C 0.008861169879689292 0.019108140312463617 0.020226034251318335 0.0057173086711092835 0.019192864762988423 0.006934657002141496" fill="none" stroke="none" stroke-width="0"/>
</g><g transform="translate(0.3373434528286706,0.13922405234384627) rotate(0) scale(1,1) translate(-0.015438241254617997,-0.015492310634907715)"><path d="M 0.015979343809571837 0.015125835548856204 C 0.016024435689151323 0.015266717097548866 0.01593425192999235 0.01582874838682024 0.015979343809571837 0.01575064696037979 C 0.01593425192999235 0.01582874838682024 0.015348057495459026 0.016063052666141584 0.015438241254617999 0.016063052666141584 C 0.015348057495459026 0.016063052666141584 0.014852046820084673 0.01567254553393934 0.014897138699664159 0.01575064696037979 C 0.014852046820084673 0.01567254553393934 0.014942230579243643 0.014984954000163543 0.014897138699664157 0.015125835548856204 C 0.014942230579243643 0.014984954000163543 0.015528425013776971 0.014060068376067847 0.015438241254617997 0.014060068376067847 C 0.015528425013776971 0.014060068376067847 0.016024435689151323 0.015266717097548866 0.015979343809571837 0.015125835548856204 Z" fill="#cccccc" stroke="none" stroke-width="0"/>
</g><g transform="translate(0.3343872966301867,0.13882019639236481) rotate(0) scale(1,1) translate(-0.015417114664640682,-0.015488012381597853)"><path d="M 0.016058395416627316 0.015362095898143574 C 0.016044855904127527 0.015509396848470861 0.015742238196215824 0.0159915117760497 0.01581426214870973 0.015937237834943503 C 0.015742238196215824 0.0159915117760497 0.01511109339869199 0.01597814558943034 0.01519410798670041 0.01601338319141793 C 0.01511109339869199 0.01597814558943034 0.014807096457094169 0.015424875067998632 0.01481808709260868 0.01551438661109242 C 0.014807096457094169 0.015424875067998632 0.015158774461034474 0.014827181325952793 0.015062220360526265 0.014939244674292489 C 0.015158774461034474 0.014827181325952793 0.01605975088671563 0.014204864033003655 0.015976736298707207 0.014169626431016064 C 0.01605975088671563 0.014204864033003655 0.016044855904127527 0.015509396848470861 0.016058395416627316 0.015362095898143574 Z" fill="#cccccc" stroke="none" stroke-width="0"/>
</g><g transform="translate(0.3314311404317027,0.13787498256787456) rotate(0) scale(1,1) translate(-0.015398697413198856,-0.015475116483305181)"><path d="M 0.01603575137903798 0.015620918432135368 C 0.015963469724837104 0.01574997753035025 0.015490920885152002 0.01606732572185029 0.015578793240406306 0.016047038790142788 C 0.015490920885152002 0.01606732572185029 0.014919777940135633 0.015798405386538573 0.014981283115986324 0.01586436161262542 C 0.014919777940135633 0.015798405386538573 0.014867098309601628 0.015169320919306277 0.014840731130198015 0.015255564077100627 C 0.014867098309601628 0.015169320919306277 0.015431476098881253 0.01476634084696517 0.015297689268829687 0.014829443719093206 C 0.015431476098881253 0.01476634084696517 0.016507678266667488 0.014564285837651028 0.016446173090816796 0.014498329611564182 C 0.016507678266667488 0.014564285837651028 0.015963469724837104 0.01574997753035025 0.01603575137903798 0.015620918432135368 Z" fill="#cccccc" stroke="none" stroke-width="0"/>
</g><g transform="translate(0.3402996090271546,0.13882019639236481) rotate(0) scale(1,1) translate(-0.015459367844595307,-0.01548801238159785)"><path d="M 0.014899746210528808 0.014169626431016064 C 0.014982760798537229 0.014134388829028474 0.015910816249217946 0.015051308022632185 0.015814262148709735 0.014939244674292489 C 0.015910816249217946 0.015051308022632185 0.01604740478111284 0.015603898154186207 0.016058395416627347 0.01551438661109242 C 0.01604740478111284 0.015603898154186207 0.015599359934527204 0.016048620793405518 0.015682374522535625 0.01601338319141793 C 0.015599359934527204 0.016048620793405518 0.014990196408032378 0.015882963893837306 0.01506222036052629 0.015937237834943503 C 0.014990196408032378 0.015882963893837306 0.014804547580108888 0.015214794947816287 0.014818087092608678 0.015362095898143574 C 0.014804547580108888 0.015214794947816287 0.014982760798537229 0.014134388829028474 0.014899746210528808 0.014169626431016064 Z" fill="#cccccc" stroke="none" stroke-width="0"/>
</g><g transform="translate(0.34325576522563855,0.13787498256787456) rotate(0) scale(1,1) translate(-0.015477785096037127,-0.015475116483305181)"><path d="M 0.014430309418419274 0.014498329611564182 C 0.014491814594269967 0.014432373385477336 0.015712580070457904 0.014892546591221243 0.015578793240406341 0.014829443719093206 C 0.015712580070457904 0.014892546591221243 0.016062118558441623 0.015341807234894977 0.01603575137903801 0.015255564077100627 C 0.016062118558441623 0.015341807234894977 0.015833694217398987 0.015930317838712266 0.01589519939324968 0.01586436161262542 C 0.015833694217398987 0.015930317838712266 0.015209816913575378 0.016026751858435283 0.015297689268829684 0.016047038790142788 C 0.015209816913575378 0.016026751858435283 0.014768449475997147 0.015491859333920485 0.014840731130198015 0.015620918432135368 C 0.014768449475997147 0.015491859333920485 0.014491814594269967 0.014432373385477336 0.014430309418419274 0.014498329611564182 Z" fill="#cccccc" stroke="none" stroke-width="0"/>
</g></svg>
