<?xml version="1.0" encoding="UTF-8"?>
<svg xmlns="http://www.w3.org/2000/svg" viewBox="0 0 1 1">
<g transform="translate(0.5097530339487796,0.2063051460935063) rotate(0) scale(1,1) translate(-0.08102318639656232,-0.09448405401382116)"><path d="M 0.07765848675302389 0.09642548114062188 C 0.07757436926193542 0.09543279030761832 0.07664625146817437 0.08297480462232891 0.07664907685996233 0.08451319114457921 C 0.07664625146817437 0.08297480462232891 0.07827230820836789 0.07741914718437144 0.0776245820515684 0.0779648428736182 C 0.07827230820836789 0.07741914718437144 0.08506951689835578 0.07851053856286495 0.08442179074155629 0.0779648428736182 C 0.08506951689835578 0.07851053856286495 0.08539447054137438 0.08605157766682951 0.08539729593316234 0.08451319114457921 C 0.08539447054137438 0.08605157766682951 0.08430376854901234 0.09741817197362544 0.08438788604010079 0.09642548114062188" fill="none" stroke="#000000" stroke-width="0.001"/>
</g><g transform="translate(0.5101655063052317,0.20678949072824254) rotate(0) scale(1,1) translate(-0.09196405892265934,-0.09196405892265941)"><path d="M 0.08702899020542178 0.08845538157907465 C 0.08706155089232485 0.08836868424458087 0.08752207668470041 0.08734889888991304 0.0874197184482587 0.08741501356514939 C 0.08752207668470041 0.08734889888991304 0.08832708659226086 0.087682588135496 0.08825728904272223 0.08766200547623856" fill="none" stroke="#000000" stroke-width="0.001"/>
<path d="M 0.08825728904272223 0.08766200547623856 C 0.08841773601712843 0.08782853436438036 0.09048129697521923 0.0899425057682554 0.0901826527355967 0.0896603521339401 C 0.09048129697521923 0.0899425057682554 0.09197921718340897 0.09116347383419562 0.09184101991819264 0.09104784908802212" fill="none" stroke="#000000" stroke-width="0.001"/>
<path d="M 0.09184101991819264 0.09104784908802212 C 0.09199472018417688 0.09089634527853395 0.0939360527976377 0.08890229942066624 0.09368542311000347 0.0892298033741641 C 0.0939360527976377 0.08890229942066624 0.09494550559145346 0.08694180150203816 0.09484857616980345 0.08711780164604785" fill="none" stroke="#000000" stroke-width="0.001"/>
<path d="M 0.09484857616980345 0.08711780164604785 C 0.09494105577729899 0.0871032053553587 0.09608343512853064 0.08701574119633546 0.09595833145974979 0.08694264615777819 C 0.09608343512853064 0.08701574119633546 0.09638244425645898 0.08808263343798144 0.09634982019517366 0.08799494210873503" fill="none" stroke="#000000" stroke-width="0.001"/>
<path d="M 0.09634982019517366 0.08799494210873503 C 0.09614665643090173 0.08825617208063802 0.09364503137921062 0.09147111149706112 0.09391185502391042 0.09112970177157097 C 0.09364503137921062 0.09147111149706112 0.09308427657834827 0.09217203856820406 0.09314793645877613 0.0920918588146169" fill="none" stroke="#000000" stroke-width="0.001"/>
<path d="M 0.09314793645877613 0.0920918588146169 C 0.0931261886222644 0.0921563366514841 0.09278073298258434 0.09322590457304426 0.09288696242063546 0.09286559285702317 C 0.09278073298258434 0.09322590457304426 0.09178870160062333 0.09671143328602384 0.09187318320216273 0.09641559940686995" fill="none" stroke="#000000" stroke-width="0.001"/>
<path d="M 0.09187318320216273 0.09641559940686995 C 0.0917984389873905 0.09649964189175507 0.09082674699150832 0.09744634735435101 0.09097625262489599 0.09742410922549148 C 0.09082674699150832 0.09744634735435101 0.0900043541828953 0.09662065259715868 0.09007911560151075 0.09668245695318428" fill="none" stroke="#000000" stroke-width="0.001"/>
<path d="M 0.09007911560151075 0.09668245695318428 C 0.09018116080854077 0.09648679642401824 0.09142435058167438 0.09398857378255791 0.09130365808587106 0.09433453060319176 C 0.09142435058167438 0.09398857378255791 0.09154607283992387 0.09238067881411025 0.09152742555115058 0.09253097510557805" fill="none" stroke="#000000" stroke-width="0.001"/>
<path d="M 0.09152742555115058 0.09253097510557805 C 0.09137758450934197 0.09241560108358426 0.08935446343730323 0.09080685404777743 0.0897293330494473 0.0911464868416527 C 0.08935446343730323 0.09080685404777743 0.08680396163508632 0.08823112280719314 0.08702899020542178 0.08845538157907465" fill="none" stroke="#000000" stroke-width="0.001"/>
</g><g transform="translate(0.5098856143490679,0.195079658323787) rotate(0) scale(1,1) translate(-0.09196405892265934,-0.09196405892265941)"><path d="M 0.09493856618944978 0.08646816847540739 C 0.09500447535723872 0.08649357027866561 0.09580509961236826 0.08687066053400327 0.09572947620291695 0.086772990114506 C 0.09580509961236826 0.08687066053400327 0.09585576134452785 0.08771248212561379 0.09584604710286547 0.08764021350937473" fill="none" stroke="#000000" stroke-width="0.001"/>
<path d="M 0.09584604710286547 0.08764021350937473 C 0.09571027276752064 0.08781481817021505 0.09396373496566168 0.09008736381541783 0.09421675507872761 0.08973546943945851 C 0.09396373496566168 0.09008736381541783 0.09269255996835332 0.09204023573600559 0.09280980574607442 0.09186294602088659" fill="none" stroke="#000000" stroke-width="0.001"/>
<path d="M 0.09280980574607442 0.09186294602088659 C 0.09293474127905345 0.09207966288080628 0.09458609919447111 0.09482254767897666 0.0943090321418228 0.094463548339923 C 0.09458609919447111 0.09482254767897666 0.09628674189752348 0.0963132205686644 0.0961346103778542 0.09617093808953045" fill="none" stroke="#000000" stroke-width="0.001"/>
<path d="M 0.0961346103778542 0.09617093808953045 C 0.09614303171061801 0.09630118974069588 0.09614184194185921 0.09789042873997837 0.09623566637101996 0.09773395790351558 C 0.09614184194185921 0.09789042873997837 0.0949064714660005 0.09807480731238137 0.09500871722792507 0.098048588127084" fill="none" stroke="#000000" stroke-width="0.001"/>
<path d="M 0.09500871722792507 0.098048588127084 C 0.09480446660573826 0.0977640988660918 0.09228582455149606 0.09425925168829127 0.09255770976168325 0.0946347169951776 C 0.09228582455149606 0.09425925168829127 0.0916784601176784 0.09345202839855399 0.09174609470567877 0.09354300444444812" fill="none" stroke="#000000" stroke-width="0.001"/>
<path d="M 0.09174609470567877 0.09354300444444812 C 0.09168918166467122 0.09350933769424018 0.09074378835620898 0.09297139051109922 0.09106313821358812 0.09313900344195292 C 0.09074378835620898 0.09297139051109922 0.08765145960075757 0.09139770309355796 0.08791389641712916 0.09153164927420374" fill="none" stroke="#000000" stroke-width="0.001"/>
<path d="M 0.08791389641712916 0.09153164927420374 C 0.087843690607115 0.0914255370581087 0.08706396812942074 0.09005622893577037 0.08707142669695933 0.09025830268106336 C 0.08706396812942074 0.09005622893577037 0.08788714084914162 0.08901080280148982 0.08782439360666607 0.08910676433068779" fill="none" stroke="#000000" stroke-width="0.001"/>
<path d="M 0.08782439360666607 0.08910676433068779 C 0.08799400876247282 0.08925727972975699 0.09016480009462331 0.09109895909212734 0.08985977547634708 0.09091294911951822 C 0.09016480009462331 0.09109895909212734 0.09162009848845042 0.09137437857553705 0.09148468902598093 0.09133888400199715" fill="none" stroke="#000000" stroke-width="0.001"/>
<path d="M 0.09148468902598093 0.09133888400199715 C 0.09159909048975115 0.09114568320538831 0.09314532968817935 0.08861458148214195 0.0928575065912236 0.0890204744426911 C 0.09314532968817935 0.08861458148214195 0.09511198782263529 0.08625547631146709 0.09493856618944978 0.08646816847540739" fill="none" stroke="#000000" stroke-width="0.001"/>
</g><g id="ユニット">
<g transform="translate(0.5097530339487796,0.21240670353037858) rotate(0) scale(1,1) translate(-0.015096514070287396,-0.015096514070287394)"><path d="M 0.01963528837722331 0.011008981811404472 C 0.01963528837722331 0.011349609499644716 0.01963528837722331 0.01633222578297031 0.01963528837722331 0.015096514070287394 C 0.01963528837722331 0.01633222578297031 0.01963528837722331 0.02673260638804211 0.01963528837722331 0.02583752236359944" fill="none" stroke="#000000" stroke-width="0.001"/>
<path d="M 0.01963528837722331 0.02583752236359944 C 0.01952450702587112 0.026078382511814012 0.01792768096875239 0.029068471830414562 0.01830591216099705 0.02872784414217432 C 0.01792768096875239 0.029068471830414562 0.014561614388502453 0.02992505462248236 0.015096514070287396 0.02992505462248236 C 0.014561614388502453 0.02992505462248236 0.01150888478733308 0.028387216453934078 0.011887115979577739 0.02872784414217432 C 0.01150888478733308 0.028387216453934078 0.010446958411999292 0.025596662215384876 0.01055773976335148 0.025837522363599447" fill="none" stroke="#000000" stroke-width="0.001"/>
<path d="M 0.01055773976335148 0.025837522363599447 C 0.01055773976335148 0.024942438339156776 0.010557739763351481 0.01386080235760448 0.010557739763351481 0.015096514070287394 C 0.010557739763351481 0.01386080235760448 0.01055773976335148 0.010668354123164232 0.01055773976335148 0.011008981811404476" fill="none" stroke="#000000" stroke-width="0.001"/>
<path d="M 0.01055773976335148 0.011008981811404476 C 0.010668521114703667 0.010768121663189903 0.012265347171822392 0.0077780323445893525 0.011887115979577733 0.008118660032829596 C 0.012265347171822392 0.0077780323445893525 0.015631413752072335 0.006921449552521554 0.01509651407028739 0.006921449552521554 C 0.015631413752072335 0.006921449552521554 0.01868414335324171 0.008459287721069837 0.01830591216099705 0.008118660032829593 C 0.01868414335324171 0.008459287721069837 0.019746069728575497 0.011249841959619046 0.01963528837722331 0.011008981811404472" fill="none" stroke="#000000" stroke-width="0.001"/>
</g><g transform="translate(0.5097530339487796,0.2214849598695595) rotate(0) scale(1,1) translate(-0.015096514070287394,-0.025837522363599444)"><path d="M 0.01055773976335148 0.025837522363599486 C 0.010668521114703667 0.025596662215384914 0.012265347171822398 0.0226065728967844 0.011887115979577739 0.02294720058502464 C 0.012265347171822398 0.0226065728967844 0.01563141375207234 0.021749990104716566 0.015096514070287396 0.021749990104716566 C 0.01563141375207234 0.021749990104716566 0.01868414335324171 0.023287828273264883 0.01830591216099705 0.02294720058502464 C 0.01868414335324171 0.023287828273264883 0.019746069728575497 0.026078382511814057 0.01963528837722331 0.025837522363599486" fill="none" stroke="#000000" stroke-width="0.001"/>
</g><g transform="translate(0.5097530339487796,0.22314771182369061) rotate(0) scale(1,1) translate(-0.015096514070287394,-0.025837522363599444)"><path d="M 0.01055773976335148 0.025837522363599486 C 0.010668521114703667 0.025596662215384914 0.012265347171822398 0.0226065728967844 0.011887115979577739 0.02294720058502464 C 0.012265347171822398 0.0226065728967844 0.01563141375207234 0.021749990104716566 0.015096514070287396 0.021749990104716566 C 0.01563141375207234 0.021749990104716566 0.01868414335324171 0.023287828273264883 0.01830591216099705 0.02294720058502464 C 0.01868414335324171 0.023287828273264883 0.019746069728575497 0.026078382511814057 0.01963528837722331 0.025837522363599486" fill="none" stroke="#000000" stroke-width="0.001"/>
</g><g transform="translate(0.5112549851839616,0.20933269191410353) rotate(0) scale(1,1) translate(-0.02637903879901621,-0.02637903879901622)"><path d="M 0.027442367311398805 0.025765125796155128 C 0.02753097802076402 0.0259186040468704 0.02735375660203359 0.02714643005259259 0.027442367311398805 0.026992951801877316 C 0.02735375660203359 0.02714643005259259 0.026201817380285777 0.027606864804738413 0.02637903879901621 0.027606864804738413 C 0.026201817380285777 0.027606864804738413 0.025227099577268403 0.026839473551162042 0.025315710286633618 0.026992951801877316 C 0.025227099577268403 0.026839473551162042 0.025404320995998833 0.025611647545439854 0.025315710286633618 0.025765125796155128 C 0.025404320995998833 0.025611647545439854 0.026556260217746645 0.025151212793294034 0.02637903879901621 0.025151212793294034 C 0.026556260217746645 0.025151212793294034 0.02753097802076402 0.0259186040468704 0.027442367311398805 0.025765125796155128 Z" fill="#cccccc" stroke="#000000" stroke-width="0.001"/>
</g><g transform="translate(0.5112549851839616,0.21336074227008214) rotate(0) scale(1,1) translate(-0.02637903879901621,-0.02637903879901622)"><path d="M 0.027442367311398805 0.025765125796155128 C 0.02753097802076402 0.0259186040468704 0.02735375660203359 0.02714643005259259 0.027442367311398805 0.026992951801877316 C 0.02735375660203359 0.02714643005259259 0.026201817380285777 0.027606864804738413 0.02637903879901621 0.027606864804738413 C 0.026201817380285777 0.027606864804738413 0.025227099577268403 0.026839473551162042 0.025315710286633618 0.026992951801877316 C 0.025227099577268403 0.026839473551162042 0.025404320995998833 0.025611647545439854 0.025315710286633618 0.025765125796155128 C 0.025404320995998833 0.025611647545439854 0.026556260217746645 0.025151212793294034 0.02637903879901621 0.025151212793294034 C 0.026556260217746645 0.025151212793294034 0.02753097802076402 0.0259186040468704 0.027442367311398805 0.025765125796155128 Z" fill="#cccccc" stroke="#000000" stroke-width="0.001"/>
</g><g transform="translate(0.5076299353542716,0.20903464994665932) rotate(0) scale(1,1) translate(-0.010730129621974588,-0.01073012962197459)"><path d="M 0.011384977632547637 0.010099072010076876 C 0.011384977632547637 0.010151660144401685 0.011384977632547637 0.010835305890624208 0.011384977632547637 0.01073012962197459 C 0.011384977632547637 0.010835305890624208 0.011384977632547637 0.011413775368197111 0.011384977632547637 0.011361187233872302" fill="none" stroke="#000000" stroke-width="0.001"/>
<path d="M 0.011384977632547637 0.011361187233872302 C 0.011330406964999883 0.011361187233872302 0.010620988286879079 0.011361187233872302 0.010730129621974588 0.011361187233872302 C 0.010620988286879079 0.011361187233872302 0.010020710943853785 0.011361187233872303 0.010075281611401539 0.011361187233872303" fill="none" stroke="#000000" stroke-width="0.001"/>
<path d="M 0.010075281611401539 0.011361187233872303 C 0.010075281611401539 0.011308599099547494 0.010075281611401539 0.010624953353324971 0.010075281611401539 0.01073012962197459 C 0.010075281611401539 0.010624953353324971 0.010075281611401539 0.010046483875752067 0.010075281611401539 0.010099072010076876" fill="none" stroke="#000000" stroke-width="0.001"/>
<path d="M 0.010075281611401539 0.010099072010076876 C 0.010129852278949292 0.010099072010076876 0.010839270957070097 0.010099072010076876 0.010730129621974588 0.010099072010076876 C 0.010839270957070097 0.010099072010076876 0.01143954830009539 0.010099072010076876 0.011384977632547637 0.010099072010076876" fill="none" stroke="#000000" stroke-width="0.001"/>
</g><g transform="translate(0.5076299353542716,0.20966570755855704) rotate(0) scale(1,1) translate(-0.010730129621974588,-0.008817833828345154)"><path d="M 0.011384977632547637 0.008817833828345154 C 0.011384977632547637 0.008870421962669963 0.011384977632547637 0.009554067708892486 0.011384977632547637 0.009448891440242867 C 0.011384977632547637 0.009554067708892486 0.011384977632547637 0.01013253718646539 0.011384977632547637 0.010079949052140581" fill="none" stroke="#000000" stroke-width="0.001"/>
<path d="M 0.011384977632547637 0.010079949052140581 C 0.011330406964999883 0.010079949052140581 0.010620988286879079 0.010079949052140581 0.010730129621974588 0.010079949052140581 C 0.010620988286879079 0.010079949052140581 0.010020710943853785 0.010079949052140581 0.010075281611401539 0.010079949052140581" fill="none" stroke="#000000" stroke-width="0.001"/>
<path d="M 0.010075281611401539 0.010079949052140581 C 0.010075281611401539 0.010027360917815772 0.010075281611401539 0.009343715171593249 0.010075281611401539 0.009448891440242867 C 0.010075281611401539 0.009343715171593249 0.010075281611401539 0.008765245694020344 0.010075281611401539 0.008817833828345154" fill="none" stroke="#000000" stroke-width="0.001"/>
<path d="M 0.010075281611401539 0.008817833828345154 C 0.010129852278949292 0.008817833828345154 0.010839270957070097 0.008817833828345154 0.010730129621974588 0.008817833828345154 C 0.010839270957070097 0.008817833828345154 0.01143954830009539 0.008817833828345154 0.011384977632547637 0.008817833828345154" fill="none" stroke="#000000" stroke-width="0.001"/>
</g><g transform="translate(0.5076299353542716,0.21092782278235248) rotate(0) scale(1,1) translate(-0.010730129621974588,-0.008817833828345154)"><path d="M 0.011384977632547637 0.008817833828345154 C 0.011384977632547637 0.008870421962669963 0.011384977632547637 0.009554067708892486 0.011384977632547637 0.009448891440242867 C 0.011384977632547637 0.009554067708892486 0.011384977632547637 0.01013253718646539 0.011384977632547637 0.010079949052140581" fill="none" stroke="#000000" stroke-width="0.001"/>
<path d="M 0.011384977632547637 0.010079949052140581 C 0.011330406964999883 0.010079949052140581 0.010620988286879079 0.010079949052140581 0.010730129621974588 0.010079949052140581 C 0.010620988286879079 0.010079949052140581 0.010020710943853785 0.010079949052140581 0.010075281611401539 0.010079949052140581" fill="none" stroke="#000000" stroke-width="0.001"/>
<path d="M 0.010075281611401539 0.010079949052140581 C 0.010075281611401539 0.010027360917815772 0.010075281611401539 0.009343715171593249 0.010075281611401539 0.009448891440242867 C 0.010075281611401539 0.009343715171593249 0.010075281611401539 0.008765245694020344 0.010075281611401539 0.008817833828345154" fill="none" stroke="#000000" stroke-width="0.001"/>
<path d="M 0.010075281611401539 0.008817833828345154 C 0.010129852278949292 0.008817833828345154 0.010839270957070097 0.008817833828345154 0.010730129621974588 0.008817833828345154 C 0.010839270957070097 0.008817833828345154 0.01143954830009539 0.008817833828345154 0.011384977632547637 0.008817833828345154" fill="none" stroke="#000000" stroke-width="0.001"/>
</g><g transform="translate(0.5076299353542716,0.2121899380061479) rotate(0) scale(1,1) translate(-0.010730129621974588,-0.008817833828345154)"><path d="M 0.011384977632547637 0.008817833828345154 C 0.011384977632547637 0.008870421962669963 0.011384977632547637 0.009554067708892486 0.011384977632547637 0.009448891440242867 C 0.011384977632547637 0.009554067708892486 0.011384977632547637 0.01013253718646539 0.011384977632547637 0.010079949052140581" fill="none" stroke="#000000" stroke-width="0.001"/>
<path d="M 0.011384977632547637 0.010079949052140581 C 0.011330406964999883 0.010079949052140581 0.010620988286879079 0.010079949052140581 0.010730129621974588 0.010079949052140581 C 0.010620988286879079 0.010079949052140581 0.010020710943853785 0.010079949052140581 0.010075281611401539 0.010079949052140581" fill="none" stroke="#000000" stroke-width="0.001"/>
<path d="M 0.010075281611401539 0.010079949052140581 C 0.010075281611401539 0.010027360917815772 0.010075281611401539 0.009343715171593249 0.010075281611401539 0.009448891440242867 C 0.010075281611401539 0.009343715171593249 0.010075281611401539 0.008765245694020344 0.010075281611401539 0.008817833828345154" fill="none" stroke="#000000" stroke-width="0.001"/>
<path d="M 0.010075281611401539 0.008817833828345154 C 0.010129852278949292 0.008817833828345154 0.010839270957070097 0.008817833828345154 0.010730129621974588 0.008817833828345154 C 0.010839270957070097 0.008817833828345154 0.01143954830009539 0.008817833828345154 0.011384977632547637 0.008817833828345154" fill="none" stroke="#000000" stroke-width="0.001"/>
</g><g transform="translate(0.5076299353542716,0.21345205322994334) rotate(0) scale(1,1) translate(-0.010730129621974588,-0.008817833828345154)"><path d="M 0.011384977632547637 0.008817833828345154 C 0.011384977632547637 0.008870421962669963 0.011384977632547637 0.009554067708892486 0.011384977632547637 0.009448891440242867 C 0.011384977632547637 0.009554067708892486 0.011384977632547637 0.01013253718646539 0.011384977632547637 0.010079949052140581" fill="none" stroke="#000000" stroke-width="0.001"/>
<path d="M 0.011384977632547637 0.010079949052140581 C 0.011330406964999883 0.010079949052140581 0.010620988286879079 0.010079949052140581 0.010730129621974588 0.010079949052140581 C 0.010620988286879079 0.010079949052140581 0.010020710943853785 0.010079949052140581 0.010075281611401539 0.010079949052140581" fill="none" stroke="#000000" stroke-width="0.001"/>
<path d="M 0.010075281611401539 0.010079949052140581 C 0.010075281611401539 0.010027360917815772 0.010075281611401539 0.009343715171593249 0.010075281611401539 0.009448891440242867 C 0.010075281611401539 0.009343715171593249 0.010075281611401539 0.008765245694020344 0.010075281611401539 0.008817833828345154" fill="none" stroke="#000000" stroke-width="0.001"/>
<path d="M 0.010075281611401539 0.008817833828345154 C 0.010129852278949292 0.008817833828345154 0.010839270957070097 0.008817833828345154 0.010730129621974588 0.008817833828345154 C 0.010839270957070097 0.008817833828345154 0.01143954830009539 0.008817833828345154 0.011384977632547637 0.008817833828345154" fill="none" stroke="#000000" stroke-width="0.001"/>
</g></g>
</svg>
