<?xml version="1.0" encoding="UTF-8"?>
<svg xmlns="http://www.w3.org/2000/svg" viewBox="0 0 1 1">
<g id="淫タトゥ">
<g id="ハート">
<g transform="translate(0.3259798238023767,0.12265017031995629) rotate(0) scale(1,1) translate(0.0014957944219115837,-0.008105469171541388)"><path d="M -0.006692032606576962 0.009301319383209161 C -0.006712121233583377 0.00935966099227877 -0.006958215357858797 0.010074370224931607 -0.006933096130653949 0.010001418692044475 C -0.006958215357858797 0.010074370224931607 -0.006998493933233558 0.01019134770167227 -0.0069934633330351265 0.010176737777854748" fill="none" stroke="none" stroke-width="0"/>
<path d="M -0.0069934633330351265 0.010176737777854748 C -0.007046595164908605 0.010079112003033956 -0.007735422596174132 0.008827662940915876 -0.007631045315516874 0.009005228480005243 C -0.007735422596174132 0.008827662940915876 -0.008329259135589788 0.007875782301116309 -0.008245990700922221 0.008045951308782358 C -0.008329259135589788 0.007875782301116309 -0.008647011310923675 0.006787476595962298 -0.008630266531527668 0.0069632003880126525 C -0.008647011310923675 0.006787476595962298 -0.008374924688975658 0.005794182058676801 -0.008446928053674307 0.00593726580417811 C -0.008374924688975658 0.005794182058676801 -0.0076331887401709705 0.005178328292074201 -0.007766226155143876 0.005246195441996945 C -0.0076331887401709705 0.005178328292074201 -0.006711399104733907 0.005142982199902202 -0.006850479073999433 0.00512286000510519 C -0.006711399104733907 0.005142982199902202 -0.005997955601393284 0.005585793695671355 -0.006097266523957567 0.005487661779561094 C -0.005997955601393284 0.005585793695671355 -0.0056222047931672415 0.00636817476666726 -0.005658748003228036 0.006300442998428324" fill="none" stroke="none" stroke-width="0"/>
<path d="M -0.005658748003228036 0.006300442998428324 C -0.0056641373501021015 0.006316094798243552 -0.005740102295471353 0.006536713018906976 -0.0057234201657168195 0.006488264596211067 C -0.005740102295471353 0.006536713018906976 -0.005870226343162899 0.006914620693659914 -0.005858933560282432 0.006881824070779233" fill="none" stroke="none" stroke-width="0"/>
<path d="M -0.005858933560282432 0.006881824070779233 C -0.0059063809685061 0.006820829974875641 -0.006516112455343245 0.006066021039390177 -0.006428302458966452 0.006149894919936128 C -0.006516112455343245 0.006066021039390177 -0.007001118504043308 0.0058589680212310456 -0.006912653516803946 0.0058753375042278335 C -0.007001118504043308 0.0058589680212310456 -0.00757091214644893 0.005993890762490148 -0.007489882305838791 0.005953461123974667 C -0.00757091214644893 0.005993890762490148 -0.007928040654412966 0.006451961285777389 -0.007885011604125618 0.006360493166413611 C -0.007928040654412966 0.006451961285777389 -0.007993718045703042 0.007170567939975091 -0.008006230909286965 0.0070510785563400015 C -0.007993718045703042 0.007170567939975091 -0.007676900516375515 0.007913165843542442 -0.0077348572411185534 0.007794365770034687 C -0.007676900516375515 0.007913165843542442 -0.007223848159492036 0.008602258906197596 -0.007310750212370502 0.008476679438433056 C -0.007223848159492036 0.008602258906197596 -0.006640472806094167 0.00937003937860717 -0.006692032606576962 0.009301319383209161" fill="none" stroke="none" stroke-width="0"/>
</g><g transform="translate(0.3259798238023767,0.12265017031995629) rotate(0) scale(1,1) translate(0.0014957944219115837,-0.008105469171541388)"><path d="M -0.006692032606576921 0.009301319383209161 C -0.006609094675591551 0.00927891067068046 -0.005550983242179224 0.008986959107918078 -0.0056967774347524815 0.009032414832864759 C -0.005550983242179224 0.008986959107918078 -0.00482369114483192 0.008697916671055954 -0.00494250229569784 0.008755850683848992 C -0.00482369114483192 0.008697916671055954 -0.004187618343084359 0.008250751448156648 -0.004271043624361438 0.00833720667934831 C -0.004187618343084359 0.008250751448156648 -0.00391899287740404 0.007619818719296424 -0.003941398920372891 0.007718387909549035 C -0.00391899287740404 0.007619818719296424 -0.004041132523603722 0.007072630455186906 -0.0040021711087352176 0.00715437639631698 C -0.004041132523603722 0.007072630455186906 -0.004488725320109368 0.006695871460062156 -0.0044089358987949466 0.006737436615988156 C -0.004488725320109368 0.006695871460062156 -0.005080477302965558 0.006667626813104236 -0.004959644164508271 0.006655594525204979 C -0.005080477302965558 0.006667626813104236 -0.005933874343263567 0.006900676532910421 -0.005858933560282391 0.006881824070779233" fill="none" stroke="none" stroke-width="0"/>
<path d="M -0.005858933560282391 0.006881824070779233 C -0.005847640777401927 0.006849027447898552 -0.00570673803596229 0.006439816173515158 -0.0057234201657168195 0.006488264596211067 C -0.00570673803596229 0.006439816173515158 -0.00565335865635397 0.006284791198613096 -0.005658748003228036 0.006300442998428324" fill="none" stroke="none" stroke-width="0"/>
<path d="M -0.005658748003228036 0.006300442998428324 C -0.005588251720368419 0.00626956788331441 -0.0046741184937324045 0.0059137545209963045 -0.004812792608912639 0.005929941617061345 C -0.0046741184937324045 0.0059137545209963045 -0.00387267364953718 0.006175967518827878 -0.00399465862106522 0.006106197845647835 C -0.00387267364953718 0.006175967518827878 -0.0032859212265930523 0.006902563750353362 -0.00334897295057616 0.006767177695221869 C -0.0032859212265930523 0.006902563750353362 -0.0032693896574399767 0.007887911735085896 -0.0032380379332679265 0.007730830507225754 C -0.0032693896574399767 0.007887911735085896 -0.003846575075935132 0.00878031555175686 -0.0037251936406407643 0.008652152429543578 C -0.003846575075935132 0.00878031555175686 -0.004864998081068767 0.009351617814421068 -0.00469461515680034 0.00926878797378513 C -0.004864998081068767 0.009351617814421068 -0.005961359413214783 0.009721773000847308 -0.005769788731861884 0.009646110517174839 C -0.005961359413214783 0.009721773000847308 -0.0070954362164662305 0.01022095671624474 -0.0069934633330351265 0.010176737777854748" fill="none" stroke="none" stroke-width="0"/>
<path d="M -0.0069934633330351265 0.010176737777854748 C -0.006988432732836695 0.010162127854037225 -0.006907976903449099 0.009928467159157343 -0.006933096130653949 0.010001418692044475 C -0.006907976903449099 0.009928467159157343 -0.0066719439795705025 0.009242977774139552 -0.006692032606576921 0.009301319383209161" fill="none" stroke="none" stroke-width="0"/>
</g></g>
</g>
<g id="悪タトゥ">
</g>
<g id="隈取">
<g transform="translate(0.3259798238023767,0.12265017031995629) rotate(0) scale(1,1) translate(-0.0060848879548944836,-0.0060848879548944836)"><path d="M -0.0017413791325258787 0.0033096876536642937 C -0.0014379176267398472 0.0034104212002586576 0.0026253192021661624 0.004570109529164238 0.0019001589369064984 0.004518490212796662 C 0.0026253192021661624 0.004570109529164238 0.007625649354242832 0.0039716940384269695 0.006960544050590087 0.0039291194500752 C 0.007625649354242832 0.0039716940384269695 0.010124829124918558 0.005121074091596448 0.009881422580739445 0.00502938527301789" fill="none" stroke="none" stroke-width="0"/>
<path d="M 0.009881422580739445 0.00502938527301789 C 0.009665458175049912 0.005011940711353046 0.006663008988173149 0.004924917975513391 0.007289849712465041 0.004820050533039761 C 0.006663008988173149 0.004924917975513391 0.0016910305156167486 0.00639548469766643 0.002359333889236735 0.006287794582701458 C 0.0016910305156167486 0.00639548469766643 -0.0009872178259924206 0.00609771002344592 -0.0007297907709747932 0.006112331912619423" fill="none" stroke="none" stroke-width="0"/>
<path d="M -0.0007297907709747932 0.006112331912619423 C -0.0007713834480035319 0.006000666762898174 -0.0013132019254489139 0.004538796427718174 -0.0012289028953196566 0.004772350115964434 C -0.0013132019254489139 0.004538796427718174 -0.0017840854856264006 0.0031877991151392855 -0.0017413791325258817 0.003309687653664297" fill="none" stroke="#000000" stroke-width="0.001"/>
</g><g transform="translate(0.3259798238023767,0.12265017031995629) rotate(0) scale(1,1) translate(-0.0060848879548944836,-0.0060848879548944836)"><path d="M -5.073129062232933E-05 0.007800198543451711 C 0.00014852260428416594 0.007813163774124646 0.002825182610247053 0.007872387423525001 0.002340315448255614 0.007955781311526923 C 0.002825182610247053 0.007872387423525001 0.006235864920548817 0.006730858242296537 0.005767674653274938 0.006799471887428648 C 0.006235864920548817 0.006730858242296537 0.008141175655731088 0.007160163043484342 0.007958598655542153 0.007132417569941596" fill="none" stroke="none" stroke-width="0"/>
<path d="M 0.007958598655542153 0.007132417569941596 C 0.007806039540100046 0.0071521826696511765 0.005722580250574545 0.00752885190603428 0.006127889270236874 0.007369598766456563 C 0.005722580250574545 0.00752885190603428 0.002643798822932617 0.009218905318838368 0.0030948904195942047 0.009043455244874208 C 0.002643798822932617 0.009218905318838368 0.0005164484178564575 0.009510961688122498 0.0007147901102978227 0.009474999654026477" fill="none" stroke="none" stroke-width="0"/>
<path d="M 0.0007147901102978227 0.009474999654026477 C 0.0006825795192444843 0.009407665590264392 0.00026446956758108264 0.008527424129666896 0.00032826301765776205 0.00866699088888146 C 0.00026446956758108264 0.008527424129666896 -8.23141496456712E-05 0.007727965847999236 -5.0731290622330196E-05 0.0078001985434517146" fill="none" stroke="#000000" stroke-width="0.001"/>
</g></g>
<g id="猟豹">
<g transform="translate(0.3259798238023767,0.12265017031995629) rotate(0) scale(1,1) translate(-0.01602013802246163,-0.01602013802246163)"><path d="M 0.015134782760271942 0.012628759952032442 C 0.015237192247886475 0.012620368696552505 0.016408650884305317 0.012641152482675206 0.01636369661164633 0.01252806488627319 C 0.016408650884305317 0.012641152482675206 0.015606693107596475 0.014526815637820887 0.015674234032179775 0.013985811108856628 C 0.015606693107596475 0.014526815637820887 0.015566620661546994 0.01975632767510235 0.015553205516646736 0.019020119233844297 C 0.015566620661546994 0.01975632767510235 0.015954862161175004 0.023420437596428787 0.015835215770982874 0.022820312403953248 C 0.015954862161175004 0.023420437596428787 0.017085107734616387 0.026505063971850543 0.01698896219895227 0.02622162154355075" fill="none" stroke="none" stroke-width="0"/>
<path d="M 0.01698896219895227 0.02622162154355075 C 0.01683223655275466 0.02594277438756272 0.014913341244789841 0.022263686294591994 0.01510825444458092 0.022875455671694384 C 0.014913341244789841 0.022263686294591994 0.014600464570684455 0.01814405575537828 0.014650003801459316 0.018880389018322095 C 0.014600464570684455 0.01814405575537828 0.014459510081382743 0.01350661877818175 0.014513783675282584 0.014039456516368624 C 0.014459510081382743 0.01350661877818175 0.014050470598410343 0.012368778113051584 0.013998720674661229 0.0124863361600796 C 0.014050470598410343 0.012368778113051584 0.015229454600739501 0.012640628601361847 0.015134782760271942 0.012628759952032442" fill="none" stroke="none" stroke-width="0"/>
</g></g>
<g id="牛柄">
<g transform="translate(0.3259798238023767,0.12265017031995629) rotate(0) scale(1,1) translate(-0.10001063180809754,-0.10001063180809758)"><path d="M 0.09876056482673236 0.09690599146480695 C 0.09926839373047606 0.0970004565977005 0.10107827109107649 0.09857642991589725 0.10116929440907343 0.09831292434707282 C 0.10107827109107649 0.09857642991589725 0.09724845735931302 0.10032330444659963 0.09766828501076907 0.10006805829070003 C 0.09724845735931302 0.10032330444659963 0.09588302767318636 0.10160267357874898 0.09613136259160075 0.10137587821786809 C 0.09588302767318636 0.10160267357874898 0.09443372919893364 0.10264769759274743 0.09468826598979635 0.10278960262127086 C 0.09443372919893364 0.10264769759274743 0.09285283556637303 0.09905374518096739 0.0930769211012483 0.09967301787558698 C 0.09285283556637303 0.09905374518096739 0.09216577510986813 0.09515052402556613 0.09199923957129308 0.09535833028583586 C 0.09216577510986813 0.09515052402556613 0.0956387913354356 0.09730831451726456 0.095075347564149 0.0971793427523503 C 0.0956387913354356 0.09730831451726456 0.09926839373047606 0.0970004565977005 0.09876056482673236 0.09690599146480695 Z" fill="#cccccc" stroke="none" stroke-width="0"/>
</g></g>
<g id="獣性">
<g transform="translate(0.3259798238023767,0.12265017031995629) rotate(0) scale(1,1) translate(-0.011628401968068896,-0.011628401968068892)"><path d="M 0.005066720352299731 0.012304646577367294 C 0.005242552524006141 0.012175753764549236 0.007900943492693314 0.010455090935988598 0.007176706412776641 0.010757932823550602 C 0.007900943492693314 0.010455090935988598 0.014305970219510078 0.008496594851879298 0.013757565311299813 0.008670543926623244" fill="none" stroke="none" stroke-width="0"/>
<path d="M 0.013757565311299813 0.008670543926623244 C 0.013309902895770054 0.009097830402530123 0.007816059162705651 0.014428890099904576 0.008385616324942705 0.013797981637505796 C 0.007816059162705651 0.014428890099904576 0.0068009846177478845 0.016445067461900508 0.0069228793644551785 0.01624144547540861" fill="none" stroke="none" stroke-width="0"/>
<path d="M 0.0069228793644551785 0.01624144547540861 C 0.006855146849037516 0.01611449108387294 0.005955409261763604 0.01438992620214384 0.006110089179443225 0.014717992776980616 C 0.005955409261763604 0.01438992620214384 0.004979772950037766 0.012103534394066183 0.005066720352299724 0.012304646577367294" fill="none" stroke="none" stroke-width="0"/>
</g></g>
<g id="紋柄">
<g transform="translate(0.3259798238023767,0.12265017031995629) rotate(0) scale(1,1) translate(-0.011409164915427155,-0.011409164915427157)"><path d="M 0.006971688420108231 0.008887891427130083 C 0.007003398185779844 0.009026088180719358 0.005748853209189882 0.01002726598393023 0.005872188009111244 0.010067188021335702 C 0.005748853209189882 0.01002726598393023 0.00558329585530164 0.008310552262080613 0.005491670821051891 0.008408826978264415 C 0.00558329585530164 0.008310552262080613 0.007003398185779844 0.009026088180719358 0.006971688420108231 0.008887891427130083 Z" fill="#cccccc" stroke="none" stroke-width="0"/>
</g><g transform="translate(0.3259798238023767,0.12265017031995629) rotate(0) scale(1,1) translate(-0.011409164915427155,-0.011409164915427157)"><path d="M 0.010068182765163523 0.00968639308602071 C 0.010156396943937343 0.009763091357712372 0.009786674330439438 0.011201625612435186 0.00988975729813251 0.011155867668887914 C 0.009786674330439438 0.011201625612435186 0.008846055941765914 0.010113032193349037 0.008831187152846663 0.010235488408587972 C 0.008846055941765914 0.010113032193349037 0.010156396943937343 0.009763091357712372 0.010068182765163523 0.00968639308602071 Z" fill="#cccccc" stroke="none" stroke-width="0"/>
</g><g transform="translate(0.3259798238023767,0.12265017031995629) rotate(0) scale(1,1) translate(-0.011409164915427155,-0.011409164915427157)"><path d="M 0.007770343422881439 0.011972089201156878 C 0.007801594506472159 0.012042583961561416 0.007231359485754545 0.0127417779151952 0.0073016669426942005 0.012747643177565672 C 0.007231359485754545 0.0127417779151952 0.0069657103129545025 0.011837076554677145 0.006926653939605566 0.01190170605271121 C 0.0069657103129545025 0.011837076554677145 0.007801594506472159 0.012042583961561416 0.007770343422881439 0.011972089201156878 Z" fill="#cccccc" stroke="none" stroke-width="0"/>
</g></g>
<g id="鱗">
<g transform="translate(0.3259798238023767,0.12265017031995629) rotate(0) scale(1,1) translate(-0.03909308711336233,-0.03909308711336233)"><path d="M 0.03974776237977646 0.03700468103311687 C 0.03989941365421536 0.03734992245763774 0.03959611110533756 0.038708794815386076 0.03974776237977646 0.0383635533908652 C 0.03959611110533756 0.038708794815386076 0.038462563270124345 0.03911609025064805 0.038837854733143065 0.03907612958024212 C 0.038462563270124345 0.03911609025064805 0.0372723734130843 0.03825631195810332 0.03749601360166412 0.038603317413300794 C 0.0372723734130843 0.03825631195810332 0.03771965379024393 0.036608894754130476 0.03749601360166411 0.03699409684905728 C 0.03771965379024393 0.036608894754130476 0.03921314619616179 0.03629386887441656 0.038837854733143065 0.036292104843739965 C 0.03921314619616179 0.03629386887441656 0.03989941365421536 0.03734992245763774 0.03974776237977646 0.03700468103311687 Z" fill="#cccccc" stroke="#000000" stroke-width="0.001"/>
</g><g transform="translate(0.3259798238023767,0.12265017031995629) rotate(0) scale(1,1) translate(-0.03909308711336233,-0.03909308711336233)"><path d="M 0.03749601360166411 0.03699409684905728 C 0.03774623184865075 0.037403641086470284 0.03724579535467748 0.039051058290443134 0.03749601360166412 0.038603317413300794 C 0.03724579535467748 0.039051058290443134 0.03551502683518226 0.03958842978434948 0.035994704119744265 0.03968054211191133 C 0.03551502683518226 0.03958842978434948 0.03438849085671673 0.03748620655013492 0.034617949894292094 0.03805064344792975 C 0.03438849085671673 0.03748620655013492 0.03484740893186745 0.03597648881529118 0.03461794989429209 0.03629392072514235 C 0.03484740893186745 0.03597648881529118 0.03647438140430627 0.036262748009475244 0.035994704119744265 0.03614605198882276 C 0.03647438140430627 0.036262748009475244 0.03774623184865075 0.037403641086470284 0.03749601360166411 0.03699409684905728 Z" fill="#cccccc" stroke="#000000" stroke-width="0.001"/>
</g><g transform="translate(0.3259798238023767,0.12265017031995629) rotate(0) scale(1,1) translate(-0.03909308711336233,-0.03909308711336233)"><path d="M 0.03461794989429209 0.03629392072514235 C 0.03482552111906184 0.03682407560695341 0.034410378669522346 0.03833379334179715 0.034617949894292094 0.03805064344792975 C 0.034410378669522346 0.03833379334179715 0.03300860980086373 0.03786074709037896 0.033372522545673584 0.037992820088346736 C 0.03300860980086373 0.03786074709037896 0.03227813190539287 0.036860123576279824 0.03243447342543298 0.03725820546012311 C 0.03227813190539287 0.036860123576279824 0.03259081494547307 0.035206246901443736 0.03243447342543297 0.03560432878528702 C 0.03259081494547307 0.035206246901443736 0.03373643529048344 0.03498464614703929 0.033372522545673584 0.0348697141570634 C 0.03373643529048344 0.03498464614703929 0.03482552111906184 0.03682407560695341 0.03461794989429209 0.03629392072514235 Z" fill="#cccccc" stroke="#000000" stroke-width="0.001"/>
</g></g>
<g id="百足">
<g id="眼1">
<g transform="translate(0.3206328863424114,0.12050134674648079) rotate(0) scale(1,1) translate(-0.050113393533528776,-0.04401563434658206)"><path d="M 0.050933660433556835 0.043136005789123036 C 0.0510373256532076 0.04323267517035515 0.051320347943612 0.04411531727086074 0.051315401138826086 0.04397365931607015 C 0.051320347943612 0.04411531727086074 0.0508963527097557 0.04493956646626088 0.05099302209098781 0.044835901246610105 C 0.0508963527097557 0.04493956646626088 0.050013710609250105 0.0452225887566653 0.050155368564040695 0.045217641951879384 C 0.050013710609250105 0.0452225887566653 0.049189461413849965 0.04479859352280896 0.04929312663350074 0.044895262904041076 C 0.049189461413849965 0.04479859352280896 0.048906439123445535 0.04391595142230339 0.04891138592823145 0.04405760937709398 C 0.048906439123445535 0.04391595142230339 0.049330434357301875 0.04309170222690324 0.04923376497606976 0.043195367446554014 C 0.049330434357301875 0.04309170222690324 0.050213076457807454 0.04280867993649883 0.050071418503016864 0.04281362674128475 C 0.050213076457807454 0.04280867993649883 0.0510373256532076 0.04323267517035515 0.050933660433556835 0.043136005789123036 Z" fill="#cccccc" stroke="none" stroke-width="0"/>
</g><g transform="translate(0.3259798238023767,0.12265017031995629) rotate(0) scale(1,1) translate(-0.05572767786649241,-0.04627189909873134)"><path d="M 0.05116194697798234 0.043285334041961526 C 0.05126067575860212 0.04337740011932545 0.0515302207970825 0.04421801164361648 0.05152550955442925 0.04408309930572068 C 0.0515302207970825 0.04421801164361648 0.05112641581245744 0.0450030108773309 0.051218481889821366 0.044904282096711115 C 0.05112641581245744 0.0450030108773309 0.050285804288166404 0.0452725559158113 0.050420716626062206 0.04526784467315805 C 0.050285804288166404 0.0452725559158113 0.049500805054451986 0.04486875093118622 0.04959953383507177 0.04496081700855014 C 0.049500805054451986 0.04486875093118622 0.049231260015971584 0.04402813940689519 0.04923597125862483 0.044163051744790995 C 0.049231260015971584 0.04402813940689519 0.04963506500059667 0.043243140173180775 0.049542998923232745 0.04334186895380055 C 0.04963506500059667 0.043243140173180775 0.05047567652488769 0.042973595134700386 0.05034076418699189 0.042978306377353635 C 0.05047567652488769 0.042973595134700386 0.05126067575860212 0.04337740011932545 0.05116194697798234 0.043285334041961526 Z" fill="#cccccc" stroke="#000000" stroke-width="0.001"/>
</g><g transform="translate(0.32060984134984316,0.11984142450239427) rotate(0) scale(1,1) translate(-0.05572767786649241,-0.05572767786649241)"><path d="M 0.0560390955753088 0.05539372325981014 C 0.05607845250314105 0.055430424188757745 0.05618590308199375 0.05576552289947608 0.05618402500717159 0.05571174187318453 C 0.05618590308199375 0.05576552289947608 0.05602493154422707 0.05607845250314105 0.05606163247317468 0.0560390955753088 C 0.05602493154422707 0.05607845250314105 0.055689832833508736 0.05618590308199375 0.05574361385980029 0.05618402500717159 C 0.055689832833508736 0.05618590308199375 0.05537690322984377 0.05602493154422707 0.05541626015767602 0.05606163247317468 C 0.05537690322984377 0.05602493154422707 0.0552694526509911 0.05568983283350873 0.05527133072581326 0.055743613859800284 C 0.0552694526509911 0.05568983283350873 0.055430424188757745 0.05537690322984377 0.05539372325981014 0.05541626015767602 C 0.055430424188757745 0.05537690322984377 0.05576552289947609 0.0552694526509911 0.055711741873184534 0.05527133072581326 C 0.05576552289947609 0.0552694526509911 0.05607845250314105 0.055430424188757745 0.0560390955753088 0.05539372325981014 Z" fill="#cccccc" stroke="none" stroke-width="0"/>
</g></g>
<g id="眼2">
<g transform="translate(0.3219903294826395,0.1241090735663277) rotate(0) scale(1,1) translate(-0.05153870883076835,-0.04780374750742131)"><path d="M 0.05235897573079641 0.04692411894996228 C 0.05246264095044718 0.0470207883311944 0.05274566324085158 0.047903430431699985 0.05274071643606566 0.047761772476909395 C 0.05274566324085158 0.047903430431699985 0.05232166800699527 0.04872767962710012 0.05241833738822738 0.048624014407449345 C 0.05232166800699527 0.04872767962710012 0.051439025906489674 0.04901070191750455 0.051580683861280265 0.04900575511271863 C 0.051439025906489674 0.04901070191750455 0.05061477671108955 0.04858670668364821 0.050718441930740314 0.048683376064880324 C 0.05061477671108955 0.04858670668364821 0.05033175442068512 0.047704064583142636 0.050336701225471035 0.047845722537933226 C 0.05033175442068512 0.047704064583142636 0.050755749654541445 0.046879815387742496 0.05065908027330933 0.04698348060739327 C 0.050755749654541445 0.046879815387742496 0.05163839175504703 0.04659679309733807 0.05149673380025644 0.04660173990212399 C 0.05163839175504703 0.04659679309733807 0.05246264095044718 0.0470207883311944 0.05235897573079641 0.04692411894996228 Z" fill="#cccccc" stroke="none" stroke-width="0"/>
</g><g transform="translate(0.3259798238023767,0.12265017031995629) rotate(0) scale(1,1) translate(-0.05572767786649241,-0.04627189909873134)"><path d="M 0.05251939011821051 0.04689306086180843 C 0.05261811889883029 0.04698512693917235 0.05288766393731067 0.04782573846346338 0.05288295269465742 0.04769082612556758 C 0.05288766393731067 0.04782573846346338 0.052483858952685605 0.048610737697177796 0.05257592503004953 0.04851200891655801 C 0.052483858952685605 0.048610737697177796 0.05164324742839457 0.0488802827356582 0.05177815976629037 0.04887557149300495 C 0.05164324742839457 0.0488802827356582 0.050858248194680156 0.048476477751033115 0.05095697697529994 0.04856854382839704 C 0.050858248194680156 0.048476477751033115 0.05058870315619976 0.0476358662267421 0.05059341439885301 0.0477707785646379 C 0.05058870315619976 0.0476358662267421 0.05099250814082483 0.04685086699302768 0.05090044206346091 0.04694959577364746 C 0.05099250814082483 0.04685086699302768 0.05183311966511586 0.04658132195454728 0.05169820732722006 0.04658603319720053 C 0.05183311966511586 0.04658132195454728 0.05261811889883029 0.04698512693917235 0.05251939011821051 0.04689306086180843 Z" fill="#cccccc" stroke="#000000" stroke-width="0.001"/>
</g><g transform="translate(0.32196728449007134,0.12344915132224119) rotate(0) scale(1,1) translate(-0.05572767786649241,-0.05572767786649241)"><path d="M 0.0560390955753088 0.05539372325981014 C 0.05607845250314105 0.055430424188757745 0.05618590308199375 0.05576552289947608 0.05618402500717159 0.05571174187318453 C 0.05618590308199375 0.05576552289947608 0.05602493154422707 0.05607845250314105 0.05606163247317468 0.0560390955753088 C 0.05602493154422707 0.05607845250314105 0.055689832833508736 0.05618590308199375 0.05574361385980029 0.05618402500717159 C 0.055689832833508736 0.05618590308199375 0.05537690322984377 0.05602493154422707 0.05541626015767602 0.05606163247317468 C 0.05537690322984377 0.05602493154422707 0.0552694526509911 0.05568983283350873 0.05527133072581326 0.055743613859800284 C 0.0552694526509911 0.05568983283350873 0.055430424188757745 0.05537690322984377 0.05539372325981014 0.05541626015767602 C 0.055430424188757745 0.05537690322984377 0.05576552289947609 0.0552694526509911 0.055711741873184534 0.05527133072581326 C 0.05576552289947609 0.0552694526509911 0.05607845250314105 0.055430424188757745 0.0560390955753088 0.05539372325981014 Z" fill="#cccccc" stroke="none" stroke-width="0"/>
</g></g>
<g id="眼3">
<g transform="translate(0.32487382005946286,0.12129893370637843) rotate(0) scale(1,1) translate(-0.054566373936432815,-0.04485310065447458)"><path d="M 0.05538664083646087 0.043973472097015555 C 0.05549030605611164 0.04407014147824767 0.055773328346516056 0.044952783578753264 0.05576838154173014 0.04481112562396267 C 0.055773328346516056 0.044952783578753264 0.05534933311265973 0.04577703277415339 0.055446002493891845 0.045673367554502624 C 0.05534933311265973 0.04577703277415339 0.05446669101215414 0.04606005506455781 0.054608348966944734 0.046055108259771896 C 0.05446669101215414 0.04606005506455781 0.053642441816754 0.04563605983070148 0.05374610703640477 0.045732729211933595 C 0.053642441816754 0.04563605983070148 0.05335941952634957 0.04475341773019591 0.05336436633113549 0.0448950756849865 C 0.05335941952634957 0.04475341773019591 0.05378341476020591 0.043929168534795754 0.05368674537897379 0.044032833754446526 C 0.05378341476020591 0.043929168534795754 0.05466605686071149 0.04364614624439135 0.0545243989059209 0.04365109304917727 C 0.05466605686071149 0.04364614624439135 0.05549030605611164 0.04407014147824767 0.05538664083646087 0.043973472097015555 Z" fill="#cccccc" stroke="none" stroke-width="0"/>
</g><g transform="translate(0.3259798238023767,0.12265017031995629) rotate(0) scale(1,1) translate(-0.05572767786649241,-0.04627189909873134)"><path d="M 0.0554028806950338 0.04408292100185916 C 0.055501609475653586 0.044174987079223085 0.055771154514133975 0.04501559860351412 0.055766443271480726 0.04488068626561832 C 0.055771154514133975 0.04501559860351412 0.055367349529508905 0.045800597837228535 0.05545941560687283 0.04570186905660875 C 0.055367349529508905 0.045800597837228535 0.05452673800521787 0.04607014287570893 0.054661650343113675 0.04606543163305568 C 0.05452673800521787 0.04607014287570893 0.05374173877150345 0.045666337891083854 0.05384046755212323 0.045758403968447776 C 0.05374173877150345 0.045666337891083854 0.05347219373302305 0.04482572636679283 0.0534769049756763 0.04496063870468863 C 0.05347219373302305 0.04482572636679283 0.05387599871764813 0.04404072713307841 0.05378393264028421 0.04413945591369819 C 0.05387599871764813 0.04404072713307841 0.05471661024193916 0.04377118209459802 0.05458169790404336 0.04377589333725127 C 0.05471661024193916 0.04377118209459802 0.055501609475653586 0.044174987079223085 0.0554028806950338 0.04408292100185916 Z" fill="#cccccc" stroke="#000000" stroke-width="0.001"/>
</g><g transform="translate(0.32485077506689464,0.12063901146229192) rotate(0) scale(1,1) translate(-0.05572767786649241,-0.05572767786649241)"><path d="M 0.0560390955753088 0.05539372325981014 C 0.05607845250314105 0.055430424188757745 0.05618590308199375 0.05576552289947608 0.05618402500717159 0.05571174187318453 C 0.05618590308199375 0.05576552289947608 0.05602493154422707 0.05607845250314105 0.05606163247317468 0.0560390955753088 C 0.05602493154422707 0.05607845250314105 0.055689832833508736 0.05618590308199375 0.05574361385980029 0.05618402500717159 C 0.055689832833508736 0.05618590308199375 0.05537690322984377 0.05602493154422707 0.05541626015767602 0.05606163247317468 C 0.05537690322984377 0.05602493154422707 0.0552694526509911 0.05568983283350873 0.05527133072581326 0.055743613859800284 C 0.0552694526509911 0.05568983283350873 0.055430424188757745 0.05537690322984377 0.05539372325981014 0.05541626015767602 C 0.055430424188757745 0.05537690322984377 0.05576552289947609 0.0552694526509911 0.055711741873184534 0.05527133072581326 C 0.05576552289947609 0.0552694526509911 0.05607845250314105 0.055430424188757745 0.0560390955753088 0.05539372325981014 Z" fill="#cccccc" stroke="none" stroke-width="0"/>
</g></g>
</g>
<g id="蜘蛛">
<g id="眼">
<g transform="translate(0.32073887726369116,0.12111115723235066) rotate(0) scale(1,1) translate(-0.05048673132780685,-0.04473288601112572)"><path d="M 0.05133719713734275 0.04388242020158983 C 0.05143742549419111 0.043982648558438184 0.05168947160998711 0.04487463031271503 0.05168947160998711 0.04473288601112572 C 0.05168947160998711 0.04487463031271503 0.05123696878049439 0.04568358017750995 0.05133719713734275 0.045583351820661595 C 0.05123696878049439 0.04568358017750995 0.050344987026217536 0.045935626293305984 0.05048673132780685 0.045935626293305984 C 0.050344987026217536 0.045935626293305984 0.04953603716142261 0.04548312346381324 0.04963626551827097 0.045583351820661595 C 0.04953603716142261 0.04548312346381324 0.04928399104562658 0.0445911417095364 0.04928399104562658 0.04473288601112572 C 0.04928399104562658 0.0445911417095364 0.049736493875119324 0.04378219184474147 0.04963626551827097 0.04388242020158983 C 0.049736493875119324 0.04378219184474147 0.050628475629396166 0.04353014572894545 0.05048673132780685 0.04353014572894545 C 0.050628475629396166 0.04353014572894545 0.05143742549419111 0.043982648558438184 0.05133719713734275 0.04388242020158983 Z" fill="#cccccc" stroke="none" stroke-width="0"/>
</g><g transform="translate(0.3259798238023767,0.12265017031995629) rotate(0) scale(1,1) translate(-0.05572767786649241,-0.04627189909873134)"><path d="M 0.051296698765460086 0.04392291857347249 C 0.0513921543434109 0.0440183741514233 0.051632198263216626 0.044867880584067925 0.051632198263216626 0.04473288601112572 C 0.051632198263216626 0.044867880584067925 0.05120124318750927 0.04563830902672975 0.051296698765460086 0.04554285344877894 C 0.05120124318750927 0.04563830902672975 0.050351736754864644 0.0458783529465355 0.05048673132780685 0.0458783529465355 C 0.050351736754864644 0.0458783529465355 0.04958130831220282 0.045447397870828125 0.04967676389015363 0.04554285344877894 C 0.04958130831220282 0.045447397870828125 0.04934126439239707 0.04459789143818351 0.04934126439239707 0.04473288601112572 C 0.04934126439239707 0.04459789143818351 0.049772219468104444 0.04382746299552168 0.04967676389015363 0.04392291857347249 C 0.049772219468104444 0.04382746299552168 0.05062172590074906 0.04358741907571594 0.05048673132780685 0.04358741907571594 C 0.05062172590074906 0.04358741907571594 0.0513921543434109 0.0440183741514233 0.051296698765460086 0.04392291857347249 Z" fill="#cccccc" stroke="#000000" stroke-width="0.001"/>
</g><g transform="translate(0.32073887726369116,0.1204508327364226) rotate(0) scale(1,1) translate(-0.05572767786649241,-0.05572767786649241)"><path d="M 0.0560505607157495 0.05540479501723532 C 0.05608861282445592 0.05544284712594174 0.05618430317096947 0.05578149167470192 0.05618430317096947 0.05572767786649241 C 0.05618430317096947 0.05578149167470192 0.05601250860704308 0.05608861282445592 0.0560505607157495 0.0560505607157495 C 0.05601250860704308 0.05608861282445592 0.055673864058282896 0.05618430317096947 0.05572767786649241 0.05618430317096947 C 0.055673864058282896 0.05618430317096947 0.055366742908528895 0.05601250860704308 0.05540479501723532 0.0560505607157495 C 0.055366742908528895 0.05601250860704308 0.05527105256201537 0.055673864058282896 0.05527105256201537 0.05572767786649241 C 0.05527105256201537 0.055673864058282896 0.05544284712594174 0.055366742908528895 0.05540479501723532 0.05540479501723532 C 0.05544284712594174 0.055366742908528895 0.05578149167470192 0.05527105256201537 0.05572767786649241 0.05527105256201537 C 0.05578149167470192 0.05527105256201537 0.05608861282445592 0.05544284712594174 0.0560505607157495 0.05540479501723532 Z" fill="#cccccc" stroke="none" stroke-width="0"/>
</g></g>
</g>
<g id="傷">
<g transform="translate(0.3259798238023767,0.12265017031995629) rotate(0) scale(1,1) translate(-0.05065453058920214,-0.05065453058920213)"><path d="M 0.04665717400975083 0.049514746448514155 C 0.04678512512084309 0.049699443040516364 0.04844560165154889 0.05208083098591619 0.048192587342857945 0.05173110555254067 C 0.04844560165154889 0.05208083098591619 0.049818408911640834 0.0538764804903937 0.04969334571404215 0.05371145164902039" fill="none" stroke="none" stroke-width="0"/>
<path d="M 0.04969334571404215 0.05371145164902039 C 0.04979838016518877 0.05364814668614643 0.05123783442672371 0.05277960659797986 0.05095375912780158 0.05295179209453285 C 0.05123783442672371 0.05277960659797986 0.05328129014888314 0.051536345156705465 0.053102249301107636 0.051645225690384496" fill="none" stroke="none" stroke-width="0"/>
<path d="M 0.053102249301107636 0.051645225690384496 C 0.05296976710796763 0.05180073643943153 0.05129125751616213 0.05377249164881945 0.051512462983427584 0.05351135467894895 C 0.05129125751616213 0.05377249164881945 0.05035906041979673 0.05488449554965397 0.05044778369392218 0.054778869328830505" fill="none" stroke="none" stroke-width="0"/>
<path d="M 0.05044778369392218 0.054778869328830505 C 0.050576644960789334 0.05494317222153784 0.052355810003346194 0.05714883376551435 0.05199411889632802 0.05675050404131852 C 0.052355810003346194 0.05714883376551435 0.055020906818291304 0.05979285285066894 0.05478807697814028 0.059558826019180444" fill="none" stroke="none" stroke-width="0"/>
<path d="M 0.05478807697814028 0.059558826019180444 C 0.05450529265302308 0.05936557698031699 0.05095446323756351 0.056897750627619474 0.051394665076733785 0.05723983755281903 C 0.05095446323756351 0.056897750627619474 0.04934823739404391 0.055304945030449686 0.049505654908096976 0.055453782916785786" fill="none" stroke="none" stroke-width="0"/>
<path d="M 0.049505654908096976 0.055453782916785786 C 0.04943390015824451 0.0554958110582273 0.04848694067660288 0.05606026442375269 0.04864459790986736 0.05595812061408393 C 0.04848694067660288 0.05606026442375269 0.04752786562551116 0.05673962430103814 0.04761376810892318 0.0566795086328109" fill="none" stroke="none" stroke-width="0"/>
<path d="M 0.04761376810892318 0.0566795086328109 C 0.0476628834998149 0.056590136226616114 0.04830184576991506 0.055422653161518495 0.04820315279962383 0.05560703975847353 C 0.04830184576991506 0.055422653161518495 0.04884766133181738 0.054371855278590224 0.04879808375241788 0.054466869469350476" fill="none" stroke="none" stroke-width="0"/>
<path d="M 0.04879808375241788 0.054466869469350476 C 0.04868981772240445 0.05425663560057199 0.047320482247034515 0.0515313861256056 0.04749889139225677 0.05194406304400863 C 0.047320482247034515 0.0515313861256056 0.046587030894542 0.04931230339888962 0.04665717400975083 0.049514746448514155" fill="none" stroke="none" stroke-width="0"/>
</g><g transform="translate(0.3259798238023767,0.12265017031995629) rotate(0) scale(1,1) translate(-0.010565988892664996,-0.010565988892664996)"><path d="M 0.013438078135786739 0.013198942206314429 C 0.013142856060255864 0.013143487345312971 0.009304969078354484 0.012422574152294022 0.009895413229416235 0.012533483874296937 C 0.009304969078354484 0.012422574152294022 0.006057526247514862 0.011812570681277987 0.006352748323045736 0.011868025542279444" fill="none" stroke="none" stroke-width="0"/>
<path d="M 0.006352748323045736 0.011868025542279444 C 0.006178529695058893 0.01179827797243444 0.004041858151757467 0.010911095963883129 0.00426212478720361 0.011031054704139379 C 0.004041858151757467 0.010911095963883129 0.003663500690232709 0.010378309488793187 0.003709548697692009 0.010428520659204433" fill="none" stroke="none" stroke-width="0"/>
<path d="M 0.003709548697692009 0.010428520659204433 C 0.0037724060223819594 0.010421814249280292 0.004729562105959923 0.010371927682821828 0.004463836593971413 0.01034804374011475 C 0.004729562105959923 0.010371927682821828 0.007101123028852678 0.010745718324320586 0.006898254841554119 0.010715127971689367" fill="none" stroke="none" stroke-width="0"/>
<path d="M 0.006898254841554119 0.010715127971689367 C 0.007170747478813811 0.010818620231465412 0.010713151763189812 0.012164019608553988 0.010168166488670428 0.0119570350890019 C 0.010713151763189812 0.012164019608553988 0.01371057077304643 0.013302434466090474 0.013438078135786739 0.013198942206314429" fill="none" stroke="none" stroke-width="0"/>
</g><g transform="translate(0.3259798238023767,0.12265017031995629) rotate(0) scale(1,1) translate(-0.010565988892664996,-0.010565988892664996)"><path d="M 0.013455291912318323 0.009997269515267356 C 0.013160069836787447 0.009941814654265899 0.009322182854886065 0.00922090146124695 0.009912627005947815 0.009331811183249866 C 0.009322182854886065 0.00922090146124695 0.006074740024046436 0.008610897990230914 0.0063699620995773115 0.008666352851232371" fill="none" stroke="none" stroke-width="0"/>
<path d="M 0.0063699620995773115 0.008666352851232371 C 0.0060974694623176185 0.008562860591456327 0.002778549747221735 0.007272222333992672 0.003100050452460995 0.007424445733919829 C 0.002778549747221735 0.007272222333992672 0.0024629455687266238 0.0067909409119553685 0.0025119536367061907 0.006839672052106481" fill="none" stroke="none" stroke-width="0"/>
<path d="M 0.0025119536367061907 0.006839672052106481 C 0.002583691142956941 0.006840365793483008 0.0037397632934968185 0.0069041455510027855 0.0033728037117151935 0.006847996948624802 C 0.0037397632934968185 0.0069041455510027855 0.007210690693616566 0.00756891014164374 0.006915468618085691 0.007513455280642283" fill="none" stroke="none" stroke-width="0"/>
<path d="M 0.006915468618085691 0.007513455280642283 C 0.007187961255345384 0.007616947540418329 0.010730365539721395 0.008962346917506917 0.010185380265202009 0.008755362397954828 C 0.010730365539721395 0.008962346917506917 0.013727784549578015 0.0101007617750434 0.013455291912318323 0.009997269515267356" fill="none" stroke="none" stroke-width="0"/>
</g><g transform="translate(0.3259798238023767,0.12265017031995629) rotate(0) scale(1,1) translate(-0.010565988892664996,-0.010565988892664996)"><path d="M 0.013377094037369757 0.01617630288501826 C 0.013081871961838881 0.016120848024016803 0.009243984979937503 0.015399934830997856 0.009834429130999252 0.015510844553000771 C 0.009243984979937503 0.015399934830997856 0.005996542149097886 0.014789931359981825 0.00629176422462876 0.014845386220983282" fill="none" stroke="none" stroke-width="0"/>
<path d="M 0.00629176422462876 0.014845386220983282 C 0.006236836035608659 0.014812935413693636 0.005537569880948678 0.014368874465026223 0.005632625956387547 0.014455976533507517 C 0.005537569880948678 0.014368874465026223 0.005110963432943562 0.013745510138016111 0.00515109131936233 0.013800161399207757" fill="none" stroke="none" stroke-width="0"/>
<path d="M 0.00515109131936233 0.013800161399207757 C 0.005216908704572547 0.013786054837982953 0.006081414893866171 0.01362190993544222 0.005940899941884937 0.013630882664510098 C 0.006081414893866171 0.01362190993544222 0.006911968309908155 0.013697622482550135 0.006837270743137138 0.013692488650393209" fill="none" stroke="none" stroke-width="0"/>
<path d="M 0.006837270743137138 0.013692488650393209 C 0.00710976338039683 0.013795980910169254 0.010652167664772831 0.01514138028725783 0.010107182390253447 0.014934395767705742 C 0.010652167664772831 0.01514138028725783 0.01364958667462945 0.016279795144794305 0.013377094037369757 0.01617630288501826" fill="none" stroke="none" stroke-width="0"/>
</g></g>
<g id="髭">
<g transform="translate(0.3259798238023767,0.12265017031995629) rotate(0) scale(1,1) translate(-0.05872130147605169,-0.058721301476051674)"><path d="M 0.06371363187590429 0.059326853643944584 C 0.06373184577996449 0.05936344428404669 0.06391482098742089 0.059823978917705356 0.06393219872462669 0.059765941325169845 C 0.06391482098742089 0.059823978917705356 0.06346950738816878 0.060044751706804095 0.06350509902943477 0.06002330475437069" fill="none" stroke="none" stroke-width="0"/>
<path d="M 0.06350509902943477 0.06002330475437069 C 0.06300545414277463 0.05992899550346248 0.05641349158564726 0.05875728614772475 0.05750936038951308 0.05889159374347215 C 0.05641349158564726 0.05875728614772475 0.049758449465839315 0.05837161526056264 0.05035467338304499 0.058411613605401834" fill="none" stroke="none" stroke-width="0"/>
<path d="M 0.05035467338304499 0.058411613605401834 C 0.05096210746361486 0.05841286495115602 0.05875712889095506 0.05850289975766389 0.05764388234988345 0.058426629754451995 C 0.05875712889095506 0.05850289975766389 0.06421944433640604 0.059401872301402286 0.0637136318759043 0.05932685364394457" fill="none" stroke="none" stroke-width="0"/>
</g><g transform="translate(0.3259798238023767,0.12265017031995629) rotate(0) scale(1,1) translate(-0.05872130147605169,-0.058721301476051674)"><path d="M 0.06225605332762787 0.06115672921033514 C 0.062286232994004605 0.061183312482380924 0.06262248879117065 0.06153509610640253 0.06261820932414872 0.061475728474884576 C 0.06262248879117065 0.06153509610640253 0.06228150673253632 0.06190192514802277 0.062307406931891116 0.0618691407885506" fill="none" stroke="none" stroke-width="0"/>
<path d="M 0.062307406931891116 0.0618691407885506 C 0.06179064692181173 0.06188402323306945 0.05500302704499558 0.06214288870310908 0.05610628681093845 0.06204773012277672 C 0.05500302704499558 0.06214288870310908 0.04848178998471326 0.06309131988835241 0.04906828974057673 0.0630110437525389" fill="none" stroke="none" stroke-width="0"/>
<path d="M 0.04906828974057673 0.0630110437525389 C 0.04965155562452643 0.06289121525161517 0.05716646064689404 0.061418575529603836 0.05606748034797311 0.06157310174145415 C 0.05716646064689404 0.061418575529603836 0.06277176774259909 0.06112203149940855 0.062256053327627854 0.06115672921033513" fill="none" stroke="none" stroke-width="0"/>
</g><g transform="translate(0.3259798238023767,0.12265017031995629) rotate(0) scale(1,1) translate(-0.05872130147605169,-0.058721301476051674)"><path d="M 0.06358181461317876 0.06300154634562666 C 0.06361836658678915 0.0630195945769957 0.06404539809498645 0.06327458569582559 0.06402043829650358 0.0632181251220551 C 0.06404539809498645 0.06327458569582559 0.06386974001984567 0.06371748557327392 0.0638813321949732 0.06367907323087248" fill="none" stroke="none" stroke-width="0"/>
<path d="M 0.0638813321949732 0.06367907323087248 C 0.06341173280877366 0.06378963809758237 0.0572380089679532 0.06531243973872246 0.05824613956057872 0.06500585163139122 C 0.0572380089679532 0.06531243973872246 0.05124523387704093 0.06755415375946869 0.05178376508346691 0.06735813051884734" fill="none" stroke="none" stroke-width="0"/>
<path d="M 0.05178376508346691 0.06735813051884734 C 0.05230529703560783 0.0671245643718911 0.059025319303300613 0.06419228807427069 0.05804214850915796 0.06455533675537241 C 0.059025319303300613 0.06419228807427069 0.06404345345518049 0.06287206381148118 0.06358181461317876 0.06300154634562666" fill="none" stroke="none" stroke-width="0"/>
</g></g>
</svg>
