<?xml version="1.0" encoding="UTF-8"?>
<svg xmlns="http://www.w3.org/2000/svg" viewBox="0 0 1 1">
<g transform="translate(0.317739745606258,0.11889466917980429) rotate(0) scale(1,1) translate(-0.061780495912221296,-0.0594468243068542)"><path d="M 0.06729130855520322 0.06483909608730401 C 0.06712352530089744 0.06489079182463127 0.06473369760469255 0.06537842334214404 0.06527790950353382 0.06545944493523108 C 0.06473369760469255 0.06537842334214404 0.060384337124572536 0.06373411963984525 0.06076076576910802 0.06386683697025955" fill="none" stroke="#000000" stroke-width="0.001"/>
<path d="M 0.06076076576910802 0.06386683697025955 C 0.05878484042055285 0.06424531530624429 0.04743673094041655 0.06607035829297102 0.04890521367777699 0.06613770698616803 C 0.04743673094041655 0.06607035829297102 0.05245731195614011 0.0630169177818957 0.05194986934494538 0.06346274481107747" fill="none" stroke="#000000" stroke-width="0.001"/>
<path d="M 0.05194986934494538 0.06346274481107747 C 0.04992284903981935 0.06347567690204839 0.038804813486277484 0.0630642405915225 0.03978774751418918 0.06354033735690298 C 0.038804813486277484 0.0630642405915225 0.0470963514546895 0.060117135362443244 0.04605226517747517 0.06060616421879463" fill="none" stroke="#000000" stroke-width="0.001"/>
<path d="M 0.04605226517747517 0.06060616421879463 C 0.0456918874625584 0.060504107617327024 0.041223883688412816 0.05923865475010949 0.04172773259847399 0.059381485001183315 C 0.041223883688412816 0.05923865475010949 0.03986260706159663 0.05885142755630252 0.040006078256741046 0.05889220120590874" fill="none" stroke="#000000" stroke-width="0.001"/>
<path d="M 0.040006078256741046 0.05889220120590874 C 0.040041360440881205 0.058720278283936174 0.04049744267696814 0.056493272700205 0.04042946446642295 0.05682912614223798 C 0.04049744267696814 0.056493272700205 0.04085451280968848 0.05469802938145265 0.040821816783283435 0.05486195990151306" fill="none" stroke="#000000" stroke-width="0.001"/>
<path d="M 0.040821816783283435 0.05486195990151306 C 0.04113622045960444 0.05481980888045034 0.04557592512085192 0.05423088309596529 0.04459466089913551 0.05435614764876047 C 0.04557592512085192 0.05423088309596529 0.05326384798927579 0.05327567173623843 0.05259698744388038 0.053358785267970894" fill="none" stroke="#000000" stroke-width="0.001"/>
<path d="M 0.05259698744388038 0.053358785267970894 C 0.0531597970372507 0.053323363001708195 0.06013108586088728 0.05292173079782772 0.05935070256432415 0.05293371807281852 C 0.06013108586088728 0.05292173079782772 0.062179160705830745 0.053238372959353214 0.06196158700263793 0.05321493796808131" fill="none" stroke="#000000" stroke-width="0.001"/>
<path d="M 0.06196158700263793 0.05321493796808131 C 0.062121083758303636 0.053257421539285435 0.06417571817171941 0.053905294373839216 0.06387554807062644 0.053724740822530793 C 0.06417571817171941 0.053905294373839216 0.06570430156118079 0.05551965056388668 0.06556362821575352 0.055381580583782376" fill="none" stroke="#000000" stroke-width="0.001"/>
<path d="M 0.06556362821575352 0.055381580583782376 C 0.06568565293327691 0.05554575324245334 0.0672468024144505 0.05770846601843175 0.0670279248260342 0.05735165248783396 C 0.0672468024144505 0.05770846601843175 0.06828701214764195 0.05985598382288267 0.06819015927674904 0.05966334295095585" fill="none" stroke="#000000" stroke-width="0.001"/>
<path d="M 0.06819015927674904 0.05966334295095585 C 0.068231945807081 0.05992167049902716 0.06861669341393715 0.063194586289174 0.06869159764073264 0.06276327352781165 C 0.06861669341393715 0.063194586289174 0.06717461779807578 0.06501208130059503 0.06729130855520322 0.06483909608730401" fill="none" stroke="#000000" stroke-width="0.001"/>
</g><g transform="translate(0.31663519336444385,0.11729360605564765) rotate(0) scale(1,1) translate(-0.00820718783944048,-0.005607832739230756)"><path d="M 0.004733161354272874 0.002780681777826777 C 0.005136737684835887 0.0028675228517315446 0.010161131106507735 0.004122064382737248 0.00957607732102904 0.0038227746646839903 C 0.010161131106507735 0.004122064382737248 0.011935284234932893 0.0065846070386143644 0.011753806780017213 0.006372158394465874" fill="none" stroke="#000000" stroke-width="0.001"/>
<path d="M -0.010096018389195771 0.00425459235016648 C -0.009550282514280932 0.004187432268275242 -0.0023114229115953223 0.0033258454864433214 -0.003547187890217709 0.00344867136747163 C -0.0023114229115953223 0.0033258454864433214 0.005423190457980415 0.002725015978689709 0.004733161354272868 0.0027806817778267797" fill="none" stroke="#000000" stroke-width="0.001"/>
</g><g transform="translate(0.31663519336444385,0.11729360605564765) rotate(0) scale(1,1) translate(-0.00820718783944048,-0.005607832739230756)"><path d="M 0.007211558337539075 0.009216627850096663 C 0.007443558258790214 0.00913214624203329 0.010426877812557644 0.008277282190379787 0.009995557392552748 0.008202848553336178 C 0.010426877812557644 0.008277282190379787 0.012586723876351593 0.010268746739726966 0.012387403377597835 0.010109831494619982" fill="none" stroke="#000000" stroke-width="0.001"/>
<path d="M -0.00585012122856206 0.004154266562400211 C -0.005419985463527382 0.0044732825974842525 0.0003999812490291634 0.008404322424050086 -0.0006884920481459306 0.007982458983408715 C 0.0003999812490291634 0.008404322424050086 0.007869895869679485 0.009319475255653993 0.007211558337539068 0.009216627850096665" fill="none" stroke="#000000" stroke-width="0.001"/>
</g></svg>
