<?xml version="1.0" encoding="UTF-8"?>
<svg xmlns="http://www.w3.org/2000/svg" viewBox="0 0 1 1">
<g id="淫タトゥ">
<g id="ハート">
<g transform="translate(0.3373434528286706,0.23715836376383104) rotate(0) scale(1,1) translate(0.001427499956110473,-0.008042065181432531)"><path d="M -0.001427499956110473 0.009244195555478665 C -0.001427499956110473 0.009296677784355663 -0.001427499956110473 0.009983203070680409 -0.001427499956110473 0.009873982302002642 C -0.001427499956110473 0.009983203070680409 -0.001427499956110473 0.010611583319412641 -0.001427499956110473 0.010554844779611872" fill="none" stroke="none" stroke-width="0"/>
<path d="M -0.001427499956110473 0.010554844779611872 C -0.001575937329633557 0.010406356983251711 -0.003496007417811292 0.008511398503172682 -0.003208748438387481 0.008772991223289946 C -0.003496007417811292 0.008511398503172682 -0.0051246181982330385 0.0071775610143642275 -0.0048746077091962065 0.007415732138204709 C -0.0051246181982330385 0.0071775610143642275 -0.006345017880545783 0.0056465633627729855 -0.0062088743068294625 0.005914937737204159 C -0.006345017880545783 0.0056465633627729855 -0.006468262460229363 0.003930152261629373 -0.0065083305937920465 0.0041952396450306295 C -0.006468262460229363 0.003930152261629373 -0.005534782196379568 0.002554388311584762 -0.0057280567040772605 0.00273388913638908 C -0.005534782196379568 0.002554388311584762 -0.003931718843860322 0.0019973841247878667 -0.004189036501419741 0.0020412297473788167 C -0.003931718843860322 0.0019973841247878667 -0.0024101167679217873 0.0023087012391986455 -0.002640244813364226 0.0022077416652976794 C -0.0024101167679217873 0.0023087012391986455 -0.0013264378846726602 0.0033398282149314728 -0.001427499956110473 0.0032527446341904117" fill="none" stroke="none" stroke-width="0"/>
<path d="M -0.001427499956110473 0.0032527446341904117 C -0.001427499956110473 0.003280390062716431 -0.001427499956110473 0.003661579930431038 -0.001427499956110473 0.003584489776502642 C -0.001427499956110473 0.003661579930431038 -0.001427499956110473 0.004227271206733543 -0.001427499956110473 0.004177826481331166" fill="none" stroke="none" stroke-width="0"/>
<path d="M -0.001427499956110473 0.004177826481331166 C -0.0015408929930353613 0.004101743853278327 -0.002993338147407447 0.0031734497488742374 -0.0027882163992091332 0.0032648349446970965 C -0.002993338147407447 0.0031734497488742374 -0.0040678928242269315 0.0031052120919650506 -0.0038889609344902377 0.0030812041314568573 C -0.0040678928242269315 0.0031052120919650506 -0.005063005016834116 0.0036693467498698853 -0.004935399076049455 0.003552930470795415 C -0.005063005016834116 0.0036693467498698853 -0.005442163974184041 0.004659278518690619 -0.005420232223906172 0.004478199480350505 C -0.005442163974184041 0.004659278518690619 -0.005096553667681724 0.005922115411383864 -0.005198580079383883 0.005725878930876788 C -0.005096553667681724 0.005922115411383864 -0.00400792965921449 0.007016178152510169 -0.004195915283480267 0.006833037246435417 C -0.00400792965921449 0.007016178152510169 -0.0027120513109137384 0.008124499662860746 -0.0029427525881945546 0.007923569803773808 C -0.0027120513109137384 0.008124499662860746 -0.0013012289034367995 0.00935424770145407 -0.001427499956110473 0.009244195555478665" fill="none" stroke="none" stroke-width="0"/>
</g><g transform="translate(0.3373434528286706,0.23715836376383104) rotate(0) scale(1,1) translate(0.001427499956110473,-0.008042065181432531)"><path d="M -0.0014274999561105783 0.009244195555478665 C -0.0013012289034369056 0.00913414340950326 0.00031845395325430514 0.00772263994468687 8.77526759734959E-05 0.007923569803773808 C 0.00031845395325430514 0.00772263994468687 0.0015289009955249029 0.006649896340360666 0.0013409153712591326 0.006833037246435417 C 0.0015289009955249029 0.006649896340360666 0.0024456065788648895 0.005529642450369712 0.00234358016716274 0.005725878930876788 C 0.0024456065788648895 0.005529642450369712 0.002543300561407058 0.00429712044201039 0.0025652323116849285 0.004478199480350505 C 0.002543300561407058 0.00429712044201039 0.0019527932230436473 0.0034365141917209446 0.002080399163828295 0.003552930470795415 C 0.0019527932230436473 0.0034365141917209446 0.0008550291325324736 0.003057196170948664 0.0010339610222691586 0.0030812041314568573 C 0.0008550291325324736 0.003057196170948664 -0.00027190526121023684 0.0033562201405199555 -6.678351301192542E-05 0.0032648349446970965 C -0.00027190526121023684 0.0033562201405199555 -0.001540892993035466 0.004253909109384005 -0.0014274999561105783 0.004177826481331166" fill="none" stroke="none" stroke-width="0"/>
<path d="M -0.0014274999561105783 0.004177826481331166 C -0.0014274999561105783 0.004128381755928789 -0.0014274999561105783 0.0035073996225742456 -0.0014274999561105783 0.003584489776502642 C -0.0014274999561105783 0.0035073996225742456 -0.0014274999561105783 0.0032250992056643926 -0.0014274999561105783 0.0032527446341904117" fill="none" stroke="none" stroke-width="0"/>
<path d="M -0.0014274999561105783 0.0032527446341904117 C -0.0013264378846727747 0.0031656610534493506 1.5372946585490155E-05 0.0021067820913967133 -0.00021475509885693356 0.0022077416652976794 C 1.5372946585490155E-05 0.0021067820913967133 0.0015913542467579183 0.0020850753699697667 0.0013340365891985062 0.0020412297473788167 C 0.0015913542467579183 0.0020850753699697667 0.0030663312995537115 0.0029133899611933976 0.00287305679185601 0.00273388913638908 C 0.0030663312995537115 0.0029133899611933976 0.003693398815133605 0.004460327028431886 0.003653330681570921 0.0041952396450306295 C 0.003693398815133605 0.004460327028431886 0.0032177308208918842 0.006183312111635333 0.003353874394608214 0.005914937737204159 C 0.0032177308208918842 0.006183312111635333 0.0017695973079381495 0.007653903262045191 0.002019607796974965 0.007415732138204709 C 0.0017695973079381495 0.007653903262045191 6.648954674263557E-05 0.00903458394340721 0.0003537485261664308 0.008772991223289946 C 6.648954674263557E-05 0.00903458394340721 -0.0015759373296336625 0.010703332575972033 -0.0014274999561105783 0.010554844779611872" fill="none" stroke="none" stroke-width="0"/>
<path d="M -0.0014274999561105783 0.010554844779611872 C -0.0014274999561105783 0.010498106239811103 -0.0014274999561105783 0.009764761533324874 -0.0014274999561105783 0.009873982302002642 C -0.0014274999561105783 0.009764761533324874 -0.0014274999561105783 0.009191713326601667 -0.0014274999561105783 0.009244195555478665" fill="none" stroke="none" stroke-width="0"/>
</g><g transform="translate(0.3373434528286706,0.23715836376383104) rotate(0) scale(1,1) translate(0.001436065550653578,-0.008105469171541388)"><path d="M -0.001436065550653578 0.012124984739532971 C -0.001436065550653578 0.012206421442175985 -0.001436065550653578 0.013259883536970721 -0.001436065550653578 0.013102225171249145 C -0.001436065550653578 0.013259883536970721 -0.001436065550653578 0.014093106791270446 -0.001436065550653578 0.014016885128191884" fill="none" stroke="none" stroke-width="0"/>
<path d="M -0.001436065550653578 0.014016885128191884 C -0.001726932318597709 0.01372429944005599 -0.005467212424548591 0.010012629916308163 -0.004926466765983151 0.010505856870561173 C -0.005467212424548591 0.010012629916308163 -0.008375032333705151 0.007672401250888576 -0.007925013453438854 0.008098161677155775 C -0.008375032333705151 0.007672401250888576 -0.010571751761868097 0.004913657881378673 -0.01032669332917872 0.005396731755354784 C -0.010571751761868097 0.004913657881378673 -0.010793592005298535 0.0018241178993201844 -0.010865714645711365 0.002301275189442444 C -0.010793592005298535 0.0018241178993201844 -0.009113327530368915 -0.0006522572107601037 -0.00946122164422476 -0.00032915572611233283 C -0.009113327530368915 -0.0006522572107601037 -0.006239997886134411 -0.0016512256757582047 -0.006690985279441221 -0.0015759426263308048 C -0.006239997886134411 -0.0016512256757582047 -0.0036114629471440673 -0.0010495106083597424 -0.0040493729245430375 -0.0012325523192411305 C -0.0036114629471440673 -0.0010495106083597424 -0.0012182899361627897 0.0007749837562031007 -0.001436065550653578 0.0006205579042458521" fill="none" stroke="none" stroke-width="0"/>
<path d="M -0.001436065550653578 0.0006205579042458521 C -0.001436065550653578 0.0006598013474979668 -0.001436065550653578 0.0012268324272463622 -0.001436065550653578 0.0010914792232712281 C -0.001436065550653578 0.0012268324272463622 -0.001436065550653578 0.0023409061126704804 -0.001436065550653578 0.002244796351947461" fill="none" stroke="none" stroke-width="0"/>
<path d="M -0.001436065550653578 0.002244796351947461 C -0.0016617466504936197 0.002103261590586429 -0.004538975863451043 0.0003766418218539016 -0.004144238748734079 0.0005463792156150797 C -0.004538975863451043 0.0003766418218539016 -0.006502682400041877 0.00025219429802992427 -0.0061729109272571515 0.0002079476268133241 C -0.006502682400041877 0.00025219429802992427 -0.008336674171016923 0.0012918944725485298 -0.008101496422150793 0.0010773392702142816 C -0.008336674171016923 0.0012918944725485298 -0.009035464129412835 0.003116338722485133 -0.008995043913650722 0.0027826100548243035 C -0.009035464129412835 0.003116338722485133 -0.008398504334529057 0.005454611956954721 -0.008586539011296135 0.005082083282144238 C -0.008398504334529057 0.005454611956954721 -0.006392170286923949 0.007585050421827899 -0.006738627792445776 0.007252954152550103 C -0.006392170286923949 0.007585050421827899 -0.0039871687582181915 0.009473241062393034 -0.004429048945034208 0.009067238513477795 C -0.0039871687582181915 0.009473241062393034 -0.0011866502677885253 0.01237979692503757 -0.001436065550653578 0.012124984739532971" fill="none" stroke="none" stroke-width="0"/>
</g><g transform="translate(0.3373434528286706,0.23715836376383104) rotate(0) scale(1,1) translate(0.001436065550653578,-0.008105469171541388)"><path d="M -0.0014360655506535647 0.012124984739532971 C -0.0011866502677885065 0.011870172554028374 0.0019987980305431474 0.008661235964562556 0.0015569178437271347 0.009067238513477795 C 0.0019987980305431474 0.008661235964562556 0.004212954196660419 0.006920857883272306 0.003866496691138588 0.007252954152550103 C 0.004212954196660419 0.006920857883272306 0.005902442586756207 0.004709554607333755 0.0057144079099891165 0.005082083282144238 C 0.005902442586756207 0.004709554607333755 0.006082492596581557 0.002448881387163474 0.006122912812343673 0.0027826100548243035 C 0.006082492596581557 0.002448881387163474 0.004994187571977597 0.0008627840678800333 0.005229365320843726 0.0010773392702142816 C 0.004994187571977597 0.0008627840678800333 0.002971008353165383 0.00016370095559672395 0.0033007798259501175 0.0002079476268133241 C 0.002971008353165383 0.00016370095559672395 0.0008773705327099386 0.0007161166093762577 0.0012721076474269122 0.0005463792156150797 C 0.0008773705327099386 0.0007161166093762577 -0.0016617466504936045 0.002386331113308493 -0.0014360655506535647 0.002244796351947461" fill="none" stroke="none" stroke-width="0"/>
<path d="M -0.0014360655506535647 0.002244796351947461 C -0.0014360655506535647 0.0021486865912244417 -0.0014360655506535647 0.0009561260192960941 -0.0014360655506535647 0.0010914792232712281 C -0.0014360655506535647 0.0009561260192960941 -0.0014360655506535647 0.0005813144609937374 -0.0014360655506535647 0.0006205579042458521" fill="none" stroke="none" stroke-width="0"/>
<path d="M -0.0014360655506535647 0.0006205579042458521 C -0.001218289936162779 0.00046613205228860353 0.001615151800634836 -0.0014155940301225187 0.001177241823235864 -0.0012325523192411305 C 0.001615151800634836 -0.0014155940301225187 0.004269841571440909 -0.001500659576903405 0.0038188541781341012 -0.0015759426263308048 C 0.004269841571440909 -0.001500659576903405 0.006936984656773411 -6.05424146456207E-06 0.006589090542917564 -0.00032915572611233283 C 0.006936984656773411 -6.05424146456207E-06 0.008065706184817112 0.002778432479564704 0.00799358354440427 0.002301275189442444 C 0.008065706184817112 0.002778432479564704 0.007209503795182278 0.005879805629330895 0.007454562227871664 0.005396731755354784 C 0.007209503795182278 0.005879805629330895 0.004602863471865337 0.008523922103422975 0.005052882352131638 0.008098161677155775 C 0.004602863471865337 0.008523922103422975 0.0015135900061106211 0.010999083824814182 0.0020543356646760547 0.010505856870561173 C 0.0015135900061106211 0.010999083824814182 -0.0017269323185976997 0.014309470816327777 -0.0014360655506535647 0.014016885128191884" fill="none" stroke="none" stroke-width="0"/>
<path d="M -0.0014360655506535647 0.014016885128191884 C -0.0014360655506535647 0.013940663465113322 -0.0014360655506535647 0.01294456680552757 -0.0014360655506535647 0.013102225171249145 C -0.0014360655506535647 0.01294456680552757 -0.0014360655506535647 0.012043548036889958 -0.0014360655506535647 0.012124984739532971" fill="none" stroke="none" stroke-width="0"/>
</g></g>
<g transform="translate(0.3373434528286706,0.23715836376383104) rotate(0) scale(1,1) translate(-0.014321047318078182,-0.013714177965114286)"><path d="M 0.0014440973085872505 -0.006126039704072271 C 0.0016849320926703272 -0.005903307068233607 0.004671031777728009 -0.0030408786272152345 0.004334114717584171 -0.0034532480740083094 C 0.004671031777728009 -0.0030408786272152345 0.005563382345638574 -0.0007505892560023279 0.0054871020303133055 -0.0011776063425553709 C 0.005563382345638574 -0.0007505892560023279 0.005055687454350916 0.0022639733466755245 0.005249478501487385 0.001670956964628207 C 0.005055687454350916 0.0022639733466755245 0.002942124138273179 0.006547956144199489 0.0031616094646756848 0.005938590242012437 C 0.002942124138273179 0.006547956144199489 0.002657781714702259 0.00947295756406424 0.002615654584657315 0.008983347790872832 C 0.002657781714702259 0.00947295756406424 0.003952234808699047 0.012269613615917172 0.0036671350252150126 0.011813907520309348 C 0.003952234808699047 0.012269613615917172 0.006489200915833617 0.01489482075390485 0.006036851986465729 0.014451820938166725 C 0.006489200915833617 0.01489482075390485 0.009550400483609464 0.01760780446235878 0.00909532217762967 0.017129905309166832 C 0.009550400483609464 0.01760780446235878 0.011794390115396475 0.020717454439394253 0.011497791658223254 0.020186610776470097 C 0.011794390115396475 0.020717454439394253 0.012756607159065307 0.024138649637385327 0.012654503663708329 0.023500029264256685 C 0.012756607159065307 0.024138649637385327 0.012658227991089167 0.028582009523680427 0.012723033602506989 0.027850055254013784 C 0.012658227991089167 0.028582009523680427 0.011713057224343635 0.03290864735041312 0.01187683632669447 0.032283480500256395 C 0.011713057224343635 0.03290864735041312 0.010529458884203587 0.03588098857340514 0.010757684374296958 0.03535205745589446 C 0.010529458884203587 0.03588098857340514 0.008834566423484933 0.03917066191588665 0.009138130445574016 0.03863065391038454 C 0.008834566423484933 0.03917066191588665 0.006946314914532443 0.042098945156214325 0.0071149161092279485 0.04183215352191973" fill="none" stroke="none" stroke-width="0"/>
<path d="M 0.0071149161092279485 0.04183215352191973 C 0.007092526691872208 0.041728253480933106 0.0067908422568244515 0.0402926901484661 0.006846243100959063 0.040585353030080255 C 0.0067908422568244515 0.0402926901484661 0.006417094552833738 0.038131436101922295 0.006450105979612609 0.03832019894254983" fill="none" stroke="none" stroke-width="0"/>
<path d="M 0.006450105979612609 0.03832019894254983 C 0.006647415248298111 0.037976122906704796 0.009141829679013039 0.0335385258733627 0.008817817203838629 0.03419128651240939 C 0.009141829679013039 0.0335385258733627 0.010531005417390906 0.029831341896545138 0.010338255681705542 0.03048707127398958 C 0.010531005417390906 0.029831341896545138 0.01119049343123896 0.025644601759567166 0.011130814032062989 0.026322533983076078 C 0.01119049343123896 0.025644601759567166 0.010922542650824336 0.021748022537471837 0.011054408471817209 0.022351884591882646 C 0.010922542650824336 0.021748022537471837 0.009198831264432926 0.01858121888004178 0.00954842418014851 0.019076189330146345 C 0.009198831264432926 0.01858121888004178 0.006635199258487013 0.01619024334566798 0.006859293483230205 0.016412239190627856" fill="none" stroke="none" stroke-width="0"/>
<path d="M 0.006859293483230205 0.016412239190627856 C 0.00669136668755953 0.01632982857995623 0.004326604495651029 0.015264855008708045 0.004844171935182105 0.015423311862568363 C 0.004326604495651029 0.015264855008708045 8.387634760506689E-05 0.014301220238467215 0.0006484842088572989 0.014510756944304062 C 8.387634760506689E-05 0.014301220238467215 -0.0022357736926885067 0.01257405144793205 -0.0019311223998446795 0.012908871392526208 C -0.0022357736926885067 0.01257405144793205 -0.0030888930482857826 0.010074515527642287 -0.003007331305268629 0.010492917609174167 C -0.0030888930482857826 0.010074515527642287 -0.002846853307003009 0.007466831004084053 -0.002909863316050518 0.007888046414143635 C -0.002846853307003009 0.007466831004084053 -0.0021963235200858533 0.005234189877985473 -0.00225121119669852 0.005438332688459177" fill="none" stroke="none" stroke-width="0"/>
<path d="M -0.00225121119669852 0.005438332688459177 C -0.002212656139360992 0.005714139076953374 -0.0016444865765769313 0.009245512803137703 -0.001788550508648182 0.008748009350389536 C -0.0016444865765769313 0.009245512803137703 -0.0002465985527123639 0.011771795175667668 -0.0005224440118435116 0.011408374121437189 C -0.0002465985527123639 0.011771795175667668 0.0019327410738639171 0.013342215709134785 0.0015215950009255905 0.013109062001155289 C 0.0019327410738639171 0.013342215709134785 0.00465211835195731 0.014297648335194126 0.004411308863416409 0.014206218617191138" fill="none" stroke="none" stroke-width="0"/>
<path d="M 0.004411308863416409 0.014206218617191138 C 0.00424981272934016 0.014026594856356373 0.0022156280346315228 0.011633136945252451 0.002473355254501425 0.01205073348717396 C 0.0022156280346315228 0.011633136945252451 0.0012600391777161692 0.008664935591165527 0.0013185822249775813 0.009195060114133034 C 0.0012600391777161692 0.008664935591165527 0.001928521548742138 0.005005397987306635 0.0017708386873644805 0.005689239211563869 C 0.001928521548742138 0.005005397987306635 0.0033132915154616407 0.00028242067237892654 0.0032107765615094703 0.0009889654230462253 C 0.0033132915154616407 0.00028242067237892654 0.0028537948637136733 -0.003382214890370257 0.003001018134790526 -0.0027892977964437157 C 0.0028537948637136733 -0.003382214890370257 0.0013143539064036321 -0.006404101529707981 0.0014440973085872394 -0.006126039704072268" fill="none" stroke="none" stroke-width="0"/>
</g><g transform="translate(0.3373434528286706,0.23715836376383104) rotate(0) scale(1,1) translate(-0.014321047318078182,-0.013714177965114286)"><path d="M 0.027197997327569112 -0.006126039704072268 C 0.027068253925385505 -0.005847977878436555 0.025493853230288965 -0.0021963807025171746 0.025641076501365823 -0.0027892977964437157 C 0.025493853230288965 -0.0021963807025171746 0.02553383302859899 0.001695510173713524 0.025431318074646825 0.0009889654230462253 C 0.02553383302859899 0.001695510173713524 0.02702893881016946 0.006373080435821104 0.026871255948791806 0.005689239211563869 C 0.02702893881016946 0.006373080435821104 0.027264969363917285 0.009725184637100542 0.027323512411178696 0.009195060114133034 C 0.027264969363917285 0.009725184637100542 0.025911012161784968 0.012468330029095469 0.02616873938165487 0.01205073348717396 C 0.025911012161784968 0.012468330029095469 0.0240692896386636 0.014385842378025903 0.02423078577273985 0.014206218617191138" fill="none" stroke="none" stroke-width="0"/>
<path d="M 0.02423078577273985 0.014206218617191138 C 0.02447159526128075 0.01411478889918815 0.02753164570816899 0.012875908293175793 0.027120499635230666 0.013109062001155289 C 0.02753164570816899 0.012875908293175793 0.029440384107130874 0.01104495306720671 0.029164538647999727 0.011408374121437189 C 0.029440384107130874 0.01104495306720671 0.03057470907687569 0.00825050589764137 0.030430645144804425 0.008748009350389536 C 0.03057470907687569 0.00825050589764137 0.030931860890192415 0.0051625262999649806 0.030893305832854878 0.005438332688459177" fill="none" stroke="none" stroke-width="0"/>
<path d="M 0.030893305832854878 0.005438332688459177 C 0.030948193509467536 0.005642475498932882 0.03161496796125427 0.008309261824203218 0.03155195795220678 0.007888046414143635 C 0.03161496796125427 0.008309261824203218 0.03156786419840768 0.010911319690706047 0.031649425941424836 0.010492917609174167 C 0.03156786419840768 0.010911319690706047 0.03026856574315709 0.013243691337120366 0.03057321703600091 0.012908871392526208 C 0.03026856574315709 0.013243691337120366 0.027429002566046756 0.014720293650140909 0.027993610427298976 0.014510756944304062 C 0.027429002566046756 0.014720293650140909 0.023280355261443175 0.01558176871642868 0.02379792270097425 0.015423311862568363 C 0.023280355261443175 0.01558176871642868 0.021614874357255398 0.016494649801299482 0.02178280115292608 0.016412239190627856" fill="none" stroke="none" stroke-width="0"/>
<path d="M 0.02178280115292608 0.016412239190627856 C 0.021558706928182885 0.01663423503558773 0.01874407754029216 0.01957115978025091 0.01909367045600774 0.019076189330146345 C 0.01874407754029216 0.01957115978025091 0.01745582034334628 0.022955746646293455 0.017587686164339145 0.022351884591882646 C 0.01745582034334628 0.022955746646293455 0.017570960003269315 0.02700046620658499 0.01751128060409335 0.026322533983076078 C 0.017570960003269315 0.02700046620658499 0.018496588690136113 0.03114280065143402 0.018303838954450757 0.03048707127398958 C 0.018496588690136113 0.03114280065143402 0.02014828990749204 0.03484404715145607 0.019824277432317627 0.03419128651240939 C 0.02014828990749204 0.03484404715145607 0.02238929792522921 0.038664274978394864 0.022191988656543704 0.03832019894254983" fill="none" stroke="none" stroke-width="0"/>
<path d="M 0.022191988656543704 0.03832019894254983 C 0.022158977229764832 0.038508961783177365 0.021740450691062636 0.04087801591169441 0.021795851535197253 0.040585353030080255 C 0.021740450691062636 0.04087801591169441 0.02150478910957257 0.04193605356290635 0.021527178526928314 0.04183215352191973" fill="none" stroke="none" stroke-width="0"/>
<path d="M 0.021527178526928314 0.04183215352191973 C 0.021358577332232814 0.04156536188762513 0.019200400168493236 0.03809064590488243 0.019503964190582312 0.03863065391038454 C 0.019200400168493236 0.03809064590488243 0.017656184771766014 0.03482312633838378 0.017884410261859385 0.03535205745589446 C 0.017656184771766014 0.03482312633838378 0.016601479207111008 0.03165831365009967 0.01676525830946185 0.032283480500256395 C 0.016601479207111008 0.03165831365009967 0.01585425542223144 0.02711810098434714 0.015919061033649262 0.027850055254013784 C 0.01585425542223144 0.02711810098434714 0.016089694467804932 0.022861408891128043 0.01598759097244795 0.023500029264256685 C 0.016089694467804932 0.022861408891128043 0.017440901435106237 0.01965576711354594 0.017144302977933012 0.020186610776470097 C 0.017440901435106237 0.01965576711354594 0.020001850764506446 0.016652006155974883 0.01954677245852665 0.017129905309166832 C 0.020001850764506446 0.016652006155974883 0.02305759157905844 0.014008821122428601 0.02260524264969055 0.014451820938166725 C 0.02305759157905844 0.014008821122428601 0.025260059394425355 0.011358201424701524 0.024974959610941316 0.011813907520309348 C 0.025260059394425355 0.011358201424701524 0.02606856718154395 0.008493738017681423 0.02602644005149901 0.008983347790872832 C 0.02606856718154395 0.008493738017681423 0.025260999845078097 0.0053292243398253844 0.025480485171480605 0.005938590242012437 C 0.025260999845078097 0.0053292243398253844 0.02319882508753245 0.0010779405825808897 0.02339261613466892 0.001670956964628207 C 0.02319882508753245 0.0010779405825808897 0.02323127292116824 -0.0016046234291084138 0.023154992605842972 -0.0011776063425553709 C 0.02323127292116824 -0.0016046234291084138 0.02464489697871598 -0.0038656175208013842 0.024307979918572142 -0.0034532480740083094 C 0.02464489697871598 -0.0038656175208013842 0.027438832111652073 -0.006348772339910934 0.027197997327569 -0.006126039704072271" fill="none" stroke="none" stroke-width="0"/>
</g><g transform="translate(0.3373434528286706,0.23715836376383104) rotate(0) scale(1,1) translate(-0.014357830744681672,-0.013443040996989642)"><path d="M -0.007071647933862559 0.011803270458520965 C -0.006928775662478868 0.011952516276281716 -0.005016119477922829 0.013852479524810375 -0.005357180677258267 0.013594220271649984 C -0.005016119477922829 0.013852479524810375 -0.002451222038138377 0.015056505690548748 -0.002978913541837306 0.014902381496445646 C -0.002451222038138377 0.015056505690548748 0.0016040720324898257 0.015550893553642222 0.0009751173671288839 0.015443710600887207 C 0.0016040720324898257 0.015550893553642222 0.00507521862648321 0.016356940355648268 0.004568542442493996 0.016188576929505816 C 0.00507521862648321 0.016356940355648268 0.007408667845541127 0.01772782818399947 0.0070552315749994494 0.017464071714596657 C 0.007408667845541127 0.01772782818399947 0.009057052361986796 0.01974018269661242 0.00880977768899413 0.019353654562339576 C 0.009057052361986796 0.01974018269661242 0.010128034443170229 0.02263071035502357 0.010022527650911437 0.022102409325870785 C 0.010128034443170229 0.02263071035502357 0.010016950961039764 0.026315384658968502 0.010075859196099633 0.025693266912173027 C 0.010016950961039764 0.026315384658968502 0.009131833700252707 0.030192584394707598 0.009315628830193006 0.029567822287416466 C 0.009131833700252707 0.030192584394707598 0.007598041016966973 0.03374137101778342 0.007870317636816046 0.03319041219966659 C 0.007598041016966973 0.03374137101778342 0.005896475371603134 0.03642840443024776 0.006048309392004127 0.036179328104818435" fill="none" stroke="none" stroke-width="0"/>
<path d="M 0.006048309392004127 0.036179328104818435 C 0.006035786516300225 0.03613759487220258 0.005871100015167751 0.0355959723528452 0.005898034883557307 0.035678529313428235 C 0.005871100015167751 0.0355959723528452 0.005710678978643809 0.03514782084985486 0.0057250909713294626 0.035188644577822045" fill="none" stroke="none" stroke-width="0"/>
<path d="M 0.0057250909713294626 0.035188644577822045 C 0.0058578184728502875 0.03494936413308842 0.007560817183804394 0.03179850426280389 0.007317820989579362 0.032317279241018515 C 0.007560817183804394 0.03179850426280389 0.008803849005637791 0.02839353752007513 0.008641045302029837 0.02896334483924649 C 0.008803849005637791 0.02839353752007513 0.009318099440420882 0.02491491202979756 0.009271465432874817 0.025479591410962173 C 0.009318099440420882 0.02491491202979756 0.009105941388409288 0.02171286886364619 0.00920065339258262 0.02218719226527116 C 0.009105941388409288 0.02171286886364619 0.007915953756455655 0.019448413405375353 0.008134921382794827 0.019787710591462532 C 0.007915953756455655 0.019448413405375353 0.0062495382044491215 0.017893012041123736 0.006573041876512557 0.018115626032225 C 0.0062495382044491215 0.017893012041123736 0.003803275563310349 0.017017794641166612 0.004252877318033605 0.01711634269824738 C 0.003803275563310349 0.017017794641166612 0.0005210747202097145 0.016903158492018965 0.0011778208198334847 0.0169330493472558 C 0.0005210747202097145 0.016903158492018965 -0.004256220590066322 0.016569469203415003 -0.0036280758774516375 0.016757652435405362 C -0.004256220590066322 0.016569469203415003 -0.006646880069576971 0.01426198539863113 -0.006359915731542727 0.014674850563371497 C -0.006646880069576971 0.01426198539863113 -0.007130958950722545 0.011563972116450088 -0.007071647933862559 0.011803270458520965" fill="none" stroke="none" stroke-width="0"/>
</g><g transform="translate(0.3373434528286706,0.23715836376383104) rotate(0) scale(1,1) translate(-0.014357830744681672,-0.013443040996989642)"><path d="M 0.035787309423225944 0.011803270458520965 C 0.03572799840636596 0.012042568800591843 0.034788612882871904 0.015087715728111864 0.03507557722090615 0.014674850563371497 C 0.034788612882871904 0.015087715728111864 0.03171559265420026 0.01694583566739572 0.03234373736681495 0.016757652435405362 C 0.03171559265420026 0.01694583566739572 0.026881094569906033 0.016962940202492633 0.0275378406695298 0.0169330493472558 C 0.026881094569906033 0.016962940202492633 0.024013182416606493 0.017214890755328147 0.024462784171329743 0.01711634269824738 C 0.024013182416606493 0.017214890755328147 0.021819115940787365 0.018338240023326263 0.0221426196128508 0.018115626032225 C 0.021819115940787365 0.018338240023326263 0.020361772480229346 0.02012700777754971 0.020580740106568518 0.019787710591462532 C 0.020361772480229346 0.02012700777754971 0.019420296092607415 0.022661515666896132 0.01951500809678075 0.02218719226527116 C 0.019420296092607415 0.022661515666896132 0.01949083006403457 0.026044270792126786 0.019444196056488505 0.025479591410962173 C 0.01949083006403457 0.026044270792126786 0.020237419890941483 0.029533152158417852 0.020074616187333527 0.02896334483924649 C 0.020237419890941483 0.029533152158417852 0.021640836694009024 0.03283605421923314 0.021397840499783993 0.032317279241018515 C 0.021640836694009024 0.03283605421923314 0.023123298019554706 0.03542792502255567 0.02299057051803388 0.035188644577822045" fill="none" stroke="none" stroke-width="0"/>
<path d="M 0.02299057051803388 0.035188644577822045 C 0.022976158525348223 0.03522946830578923 0.022790691737416435 0.03576108627401127 0.022817626605805996 0.035678529313428235 C 0.022790691737416435 0.03576108627401127 0.022654829221655248 0.03622106133743429 0.02266735209735915 0.036179328104818435" fill="none" stroke="none" stroke-width="0"/>
<path d="M 0.02266735209735915 0.036179328104818435 C 0.022515518076958164 0.03593025177938911 0.02057306723269826 0.03263945338154976 0.020845343852547327 0.03319041219966659 C 0.02057306723269826 0.03263945338154976 0.019216237529230035 0.028943060180125334 0.01940003265917034 0.029567822287416466 C 0.019216237529230035 0.028943060180125334 0.018580894058203807 0.025071149165377553 0.018639802293263674 0.025693266912173027 C 0.018580894058203807 0.025071149165377553 0.01879864063071074 0.021574108296718 0.018693133838451947 0.022102409325870785 C 0.01879864063071074 0.021574108296718 0.020153158473361837 0.018967126428066732 0.019905883800369173 0.019353654562339576 C 0.020153158473361837 0.018967126428066732 0.022013866184905573 0.017200315245193845 0.0216604299143639 0.017464071714596657 C 0.022013866184905573 0.017200315245193845 0.024653795230858495 0.016020213503363363 0.02414711904686928 0.016188576929505816 C 0.024653795230858495 0.016020213503363363 0.028369498787595416 0.015336527648132193 0.02774054412223448 0.015443710600887207 C 0.028369498787595416 0.015336527648132193 0.03222226653489948 0.014748257302342544 0.031694575031200545 0.014902381496445646 C 0.03222226653489948 0.014748257302342544 0.0344139033659571 0.013335961018489594 0.03407284216662165 0.013594220271649984 C 0.0344139033659571 0.013335961018489594 0.03593018169460963 0.011654024640760215 0.035787309423225944 0.011803270458520965" fill="none" stroke="none" stroke-width="0"/>
</g></g>
<g id="植タトゥ">
<g transform="translate(0.3323442786894815,0.24154723311837334) rotate(0) scale(1,1) translate(-0.017861643923213048,-0.01786164392321305)"><path d="M 0.02836982331091531 -0.0003857373170448557 C 0.028567149106559997 8.880722431836308E-05 0.03071460786326935 0.006218405538993764 0.030737732858651556 0.00530879717931377 C 0.03071460786326935 0.006218405538993764 0.027194480470718846 0.011388431209945872 0.02809232336632883 0.010529562999115078 C 0.027194480470718846 0.011388431209945872 0.019313730620767317 0.016477594044832917 0.019963618111331738 0.015615215709283294 C 0.019313730620767317 0.016477594044832917 0.020321178093574466 0.02131667696874616 0.020293673479555796 0.020878103025710554" fill="none" stroke="none" stroke-width="0"/>
<path d="M 0.020293673479555796 0.020878103025710554 C 0.020157721291701302 0.020405125763515965 0.01921195138756812 0.014204539982475953 0.018662247225301853 0.015202375879375497 C 0.01921195138756812 0.014204539982475953 0.027749216065917136 0.008004851096175542 0.02689012342675101 0.00890407226291603 C 0.027749216065917136 0.008004851096175542 0.0290946672189757 0.003637571080159572 0.02897135889529534 0.004411721878489646 C 0.0290946672189757 0.003637571080159572 0.028319695345550306 -0.0007855255833393974 0.02836982331091531 -0.0003857373170448557" fill="none" stroke="none" stroke-width="0"/>
</g><g transform="translate(0.3423426269678596,0.24154723311837334) rotate(0) scale(1,1) translate(-0.017861643923213048,-0.01786164392321305)"><path d="M 0.00735346453551089 -0.0003857373170448557 C 0.007303336570145887 1.4050949249686114E-05 0.006875237274811217 0.005185872676819719 0.006751928951130859 0.004411721878489646 C 0.006875237274811217 0.005185872676819719 0.009692257058841311 0.009803293429656518 0.008833164419675188 0.00890407226291603 C 0.009692257058841311 0.009803293429656518 0.017610744783390614 0.01620021177627504 0.017061040621124346 0.015202375879375497 C 0.017610744783390614 0.01620021177627504 0.015293662179015908 0.021351080287905142 0.015429614366870403 0.020878103025710554" fill="none" stroke="none" stroke-width="0"/>
<path d="M 0.015429614366870403 0.020878103025710554 C 0.015457118980889075 0.020439529082674948 0.015109782244530042 0.01475283737373367 0.01575966973509446 0.015615215709283294 C 0.015109782244530042 0.01475283737373367 0.006733121584487385 0.009670694788284284 0.007630964480097369 0.010529562999115078 C 0.006733121584487385 0.009670694788284284 0.004962429992392443 0.004399188819633776 0.00498555498777465 0.00530879717931377 C 0.004962429992392443 0.004399188819633776 0.007550790331155576 -0.0008602818584080745 0.00735346453551089 -0.0003857373170448557" fill="none" stroke="none" stroke-width="0"/>
</g></g>
<g transform="translate(0.3373434528286706,0.23715836376383104) rotate(0) scale(1,1) translate(-0.05000000000000001,-0.05000000000000001)"><path d="M 0.05 0.07054315217831994 C 0.04992361215082804 0.0703188079180775 0.04883387854070388 0.06732776703609326 0.04908334580993642 0.06785102105541059 C 0.04883387854070388 0.06732776703609326 0.04686690855353856 0.06377943732185648 0.047006392769209565 0.06426410394651202 C 0.04686690855353856 0.06377943732185648 0.04756370674630194 0.06183022808188324 0.04740953522188439 0.06203502155954409 C 0.04756370674630194 0.06183022808188324 0.049072323127063146 0.06191018643153348 0.048856451062220176 0.06180658221458181 C 0.049072323127063146 0.06191018643153348 0.050095295744814985 0.06340091299199606 0.05 0.0632782721629642" fill="none" stroke="none" stroke-width="0"/>
<path d="M 0.05 0.0632782721629642 C 0.050095295744814985 0.06315563133393233 0.05135942100262281 0.06170297799763011 0.05114354893777984 0.06180658221458178 C 0.05135942100262281 0.06170297799763011 0.052744636302533184 0.06223981503720494 0.05259046477811563 0.06203502155954409 C 0.052744636302533184 0.06223981503720494 0.05285412301511945 0.06474877057116757 0.052993607230790454 0.06426410394651202 C 0.05285412301511945 0.06474877057116757 0.05066718692083106 0.06837427507472794 0.050916654190063595 0.06785102105541062 C 0.05066718692083106 0.06837427507472794 0.04992361215082804 0.07076749643856238 0.05 0.07054315217831994" fill="none" stroke="none" stroke-width="0"/>
</g><g transform="translate(0.3373434528286706,0.23715836376383104) rotate(0) scale(1,1) translate(-0.05000000000000001,-0.05000000000000001)"><path d="M 0.05 0.07107618177786774 C 0.04991643737129149 0.07113295818295931 0.04877947871007955 0.07169609071657343 0.04899724845549789 0.07175749863896659 C 0.04877947871007955 0.07169609071657343 0.04725255593827014 0.07022110238166511 0.04738676305497996 0.07033928670914984" fill="none" stroke="none" stroke-width="0"/>
<path d="M 0.04738676305497996 0.07033928670914984 C 0.047491949497906326 0.07028875430666431 0.04853992404698214 0.06953901321969724 0.048649000370096285 0.06973289787932359 C 0.04853992404698214 0.06953901321969724 0.04586358441156966 0.06786931853649295 0.04607784717761017 0.06801267079363377" fill="none" stroke="none" stroke-width="0"/>
<path d="M 0.04607784717761017 0.06801267079363377 C 0.046217054408656026 0.06794357442021719 0.047621355181019745 0.06696744344384696 0.04774833395016047 0.0671835143126348 C 0.047621355181019745 0.06696744344384696 0.04428791594773493 0.06527284587280836 0.04455410194792151 0.06541982036817963" fill="none" stroke="none" stroke-width="0"/>
<path d="M 0.04455410194792151 0.06541982036817963 C 0.04474523241311344 0.0653543462329935 0.046773117353018895 0.0643890819713146 0.04684766753022465 0.06463413074594605 C 0.046773117353018895 0.0643890819713146 0.0433938191790547 0.06229966043315694 0.04365949982145239 0.06247923507260226" fill="none" stroke="none" stroke-width="0"/>
<path d="M 0.04365949982145239 0.06247923507260226 C 0.04385012492885543 0.06244636108149018 0.045898025855978186 0.061853281797990066 0.04594700111028884 0.06208474717925732 C 0.045898025855978186 0.061853281797990066 0.04283219640801081 0.059503059107240075 0.0430717967697245 0.059701650497395245" fill="none" stroke="none" stroke-width="0"/>
<path d="M 0.0430717967697245 0.059701650497395245 C 0.04364914703891413 0.059866050079476714 0.05115470053837927 0.061674445482372886 0.05000000000000002 0.061674445482372886 C 0.05115470053837927 0.061674445482372886 0.057505553499465144 0.059537250915313776 0.05692820323027552 0.059701650497395245" fill="none" stroke="none" stroke-width="0"/>
<path d="M 0.05692820323027552 0.059701650497395245 C 0.056688602868561824 0.05990024188755042 0.05400402363540053 0.062316212560524616 0.054052998889711185 0.06208474717925736 C 0.05400402363540053 0.062316212560524616 0.056531125285950674 0.06251210906371436 0.05634050017854764 0.062479235072602286" fill="none" stroke="none" stroke-width="0"/>
<path d="M 0.05634050017854764 0.062479235072602286 C 0.05607481953614995 0.0626588097120476 0.05307778229256961 0.06487917952057749 0.05315233246977537 0.06463413074594605 C 0.05307778229256961 0.06487917952057749 0.05563702851727045 0.06548529450336578 0.055445898052078516 0.06541982036817964" fill="none" stroke="none" stroke-width="0"/>
<path d="M 0.055445898052078516 0.06541982036817964 C 0.055179712051891934 0.06556679486355091 0.052124687280698835 0.06739958518142268 0.05225166604983956 0.06718351431263483 C 0.052124687280698835 0.06739958518142268 0.05406136005343572 0.06808176716705037 0.05392215282238986 0.0680126707936338" fill="none" stroke="none" stroke-width="0"/>
<path d="M 0.05392215282238986 0.0680126707936338 C 0.05370789005634935 0.06815602305077462 0.05124192330678959 0.06992678253894992 0.051350999629903735 0.06973289787932359 C 0.05124192330678959 0.06992678253894992 0.052718423387946425 0.07038981911163536 0.05261323694502006 0.07033928670914984" fill="none" stroke="none" stroke-width="0"/>
<path d="M 0.05261323694502006 0.07033928670914984 C 0.052479029828310236 0.07045747103663456 0.0507849817990838 0.07181890656135978 0.05100275154450214 0.07175749863896662 C 0.0507849817990838 0.07181890656135978 0.0499164373712915 0.07101940537277618 0.05000000000000001 0.07107618177786774" fill="none" stroke="none" stroke-width="0"/>
</g><g id="獣性">
<g transform="translate(0.3373434528286706,0.23715836376383104) rotate(0) scale(1,1) translate(-0.028511229159074496,-0.0285112291590745)"><path d="M 0.02851122915907442 0.03731995399963463 C 0.028728652178515276 0.03704599652152199 0.03173659778515126 0.033379538363717536 0.031120305392364708 0.03403246426228296 C 0.03173659778515126 0.033379538363717536 0.03630560724585875 0.029105874796396786 0.03590673787251305 0.02948484321684957" fill="none" stroke="#000000" stroke-width="0.001"/>
<path d="M 0.03590673787251305 0.02948484321684957 C 0.03581983201900505 0.029789644957239313 0.0353921860334316 0.03293742070615198 0.034863867630417086 0.03314246410152648 C 0.0353921860334316 0.03293742070615198 0.04286178296520965 0.026514477336591347 0.04224655870868715 0.02702432247235559" fill="none" stroke="#000000" stroke-width="0.001"/>
<path d="M 0.04224655870868715 0.02702432247235559 C 0.04216233051462598 0.027321887643823112 0.04176688797014803 0.03049258071387493 0.041235820379953145 0.030595104529965875 C 0.04176688797014803 0.03049258071387493 0.04923466557528178 0.025393947691705804 0.04861936979102573 0.02579403667926427" fill="none" stroke="#000000" stroke-width="0.001"/>
<path d="M 0.04861936979102573 0.02579403667926427 C 0.04851758163230065 0.02606984149445626 0.04805665861014115 0.02913865930300762 0.04739791188632487 0.029103694461568165 C 0.04805665861014115 0.02913865930300762 0.057284865359362405 0.02597277480278519 0.05652433047682106 0.026213614776537726" fill="none" stroke="#000000" stroke-width="0.001"/>
<path d="M 0.05652433047682106 0.026213614776537726 C 0.055720142593935144 0.02722131713120176 0.045371523775501216 0.04008529990083109 0.046874075882190065 0.038306043032506135 C 0.045371523775501216 0.04008529990083109 0.03754465101982433 0.04917560209722491 0.0384937051965549 0.047564697196437175 C 0.03754465101982433 0.04917560209722491 0.035234735808495586 0.05847625222908577 0.035485425761423224 0.05763690184195896" fill="none" stroke="none" stroke-width="0"/>
<path d="M 0.035485425761423224 0.05763690184195896 C 0.03527566124451656 0.057829876309783194 0.03238706850834755 0.060314851132426205 0.032968251558543285 0.0599525954558498 C 0.03238706850834755 0.060314851132426205 0.027768392092496295 0.06198396996087583 0.028511229159074433 0.06198396996087583 C 0.027768392092496295 0.06198396996087583 0.023473023709409912 0.059590339779273395 0.02405420675960564 0.0599525954558498 C 0.023473023709409912 0.059590339779273395 0.021327268039819044 0.05744392737413472 0.021537032556725705 0.05763690184195896" fill="none" stroke="none" stroke-width="0"/>
<path d="M 0.021537032556725705 0.05763690184195896 C 0.02128634260379806 0.056797551454832146 0.01757969894486339 0.04595379229564944 0.018528753121593963 0.047564697196437175 C 0.01757969894486339 0.04595379229564944 0.00864583032927 0.03652678616418118 0.010148382435958845 0.038306043032506135 C 0.00864583032927 0.03652678616418118 -0.00030606004155809446 0.025205912421873693 0.0004981278413278239 0.026213614776537726" fill="none" stroke="none" stroke-width="0"/>
<path d="M 0.0004981278413278239 0.026213614776537726 C 0.001258662723869174 0.026454454750290263 0.010283293155640302 0.02906872962012871 0.009624546431824024 0.029103694461568165 C 0.010283293155640302 0.02906872962012871 0.008301300368398094 0.025518231864072278 0.008403088527123166 0.02579403667926427" fill="none" stroke="#000000" stroke-width="0.001"/>
<path d="M 0.008403088527123166 0.02579403667926427 C 0.009018384311379213 0.026194125666822735 0.01631770552839061 0.03069762834605682 0.01578663793819573 0.030595104529965875 C 0.01631770552839061 0.03069762834605682 0.014691671415400573 0.026726757300888065 0.014775899609461738 0.02702432247235559" fill="none" stroke="#000000" stroke-width="0.001"/>
<path d="M 0.014775899609461738 0.02702432247235559 C 0.015391123865984244 0.02753416760811983 0.022686909090746315 0.03334750749690098 0.022158590687731808 0.03314246410152648 C 0.022686909090746315 0.03334750749690098 0.021028814592127843 0.029180041476459827 0.021115720445635842 0.02948484321684957" fill="none" stroke="#000000" stroke-width="0.001"/>
<path d="M 0.021115720445635842 0.02948484321684957 C 0.021514589818981536 0.029863811637302354 0.02651844531857073 0.03468539016084838 0.025902152925784183 0.03403246426228296 C 0.02651844531857073 0.03468539016084838 0.028728652178515272 0.037593911477747266 0.02851122915907442 0.03731995399963463" fill="none" stroke="#000000" stroke-width="0.001"/>
</g></g>
<g id="鱗">
<g transform="translate(0.3373434528286706,0.23715836376383104) rotate(0) scale(1,1) translate(-0.015058466988291021,-0.015058466988291016)"><path d="M 0.015058466988291 0.021603071143491165 C 0.015886498031570283 0.021444815199927157 0.02601736459867024 0.019704387630742382 0.02499483950764238 0.019703999820723076 C 0.02601736459867024 0.019704387630742382 0.027523262128373905 0.021766368617306138 0.027328768080625326 0.021607724863722824" fill="none" stroke="#000000" stroke-width="0.001"/>
<path d="M 0.027328768080625326 0.021607724863722824 C 0.027153349142000988 0.021867655750378353 0.024848347242383394 0.025327422654355922 0.025223740817133262 0.02472689550358918 C 0.024848347242383394 0.025327422654355922 0.02262407054750141 0.02915464693703495 0.022824045183626934 0.028814050672923735" fill="none" stroke="#000000" stroke-width="0.001"/>
<path d="M 0.022824045183626934 0.028814050672923735 C 0.02217691366734894 0.02891200148840563 0.013764203955735013 0.029989460458706495 0.015058466988291 0.029989460458706495 C 0.013764203955735013 0.029989460458706495 0.0066457572766770966 0.028716099857441838 0.00729288879295509 0.028814050672923735" fill="none" stroke="#000000" stroke-width="0.001"/>
<path d="M 0.00729288879295509 0.028814050672923735 C 0.007092914156829562 0.02847345440881252 0.004517799584698896 0.024126368352822437 0.004893193159448762 0.02472689550358918 C 0.004517799584698896 0.024126368352822437 0.0026127469573323657 0.021347793977067295 0.002788165895956704 0.021607724863722824" fill="none" stroke="#000000" stroke-width="0.001"/>
<path d="M 0.002788165895956704 0.021607724863722824 C 0.002982659943705283 0.02144908111013951 0.006144619559967514 0.01970361201070377 0.005122094468939656 0.019703999820723076 C 0.006144619559967514 0.01970361201070377 0.01588649803157028 0.021761327087055173 0.015058466988291 0.021603071143491165" fill="none" stroke="#000000" stroke-width="0.001"/>
</g><g transform="translate(0.3373434528286706,0.25091394744846374) rotate(0) scale(1,1) translate(-0.015058466988291021,-0.015058466988291016)"><path d="M 0.015058466988291 0.013947314988669668 C 0.015768400104022574 0.013811630299056478 0.024454351826989906 0.012319431211926682 0.023577664377069894 0.01231909871331138 C 0.024454351826989906 0.012319431211926682 0.02574547072151958 0.014087322160281782 0.02557871638733114 0.01395130497205329" fill="none" stroke="#000000" stroke-width="0.001"/>
<path d="M 0.02557871638733114 0.01395130497205329 C 0.025428316574828098 0.014174163215999576 0.023452065571143467 0.017140480865297354 0.023773918637294632 0.016625603899408717 C 0.023452065571143467 0.017140480865297354 0.02154502633986902 0.020421847284659282 0.021716479593517145 0.02012982856271693" fill="none" stroke="#000000" stroke-width="0.001"/>
<path d="M 0.021716479593517145 0.02012982856271693 C 0.021161645209748302 0.02021380914314072 0.013948798220753312 0.021137595527802422 0.015058466988291 0.021137595527802422 C 0.013948798220753312 0.021137595527802422 0.007845619999296038 0.02004584798229314 0.008400454383064882 0.02012982856271693" fill="none" stroke="#000000" stroke-width="0.001"/>
<path d="M 0.008400454383064882 0.02012982856271693 C 0.008229001129416758 0.01983780984077458 0.0060211622731362255 0.01611072693352008 0.006343015339287392 0.016625603899408717 C 0.0060211622731362255 0.01611072693352008 0.004387817776747846 0.013728446728107004 0.004538217589250888 0.01395130497205329" fill="none" stroke="#000000" stroke-width="0.001"/>
<path d="M 0.004538217589250888 0.01395130497205329 C 0.004704971923439326 0.013815287783824797 0.0074159570494321545 0.012318766214696077 0.006539269599512145 0.01231909871331138 C 0.0074159570494321545 0.012318766214696077 0.01576840010402257 0.014082999678282858 0.015058466988291 0.013947314988669668" fill="none" stroke="#000000" stroke-width="0.001"/>
</g><g transform="translate(0.3373434528286706,0.25598530902288963) rotate(0) scale(1,1) translate(-0.015058466988291021,-0.015058466988291016)"><path d="M 0.015058466988291 0.014105793042615663 C 0.01566714589339136 0.013989460381858554 0.023114263751870482 0.012710086189530654 0.02236261384949531 0.012709801113530358 C 0.023114263751870482 0.012710086189530654 0.02422123681406785 0.014225831691376601 0.02407826581679304 0.014109213954619199" fill="none" stroke="#000000" stroke-width="0.001"/>
<path d="M 0.02407826581679304 0.014109213954619199 C 0.023949316777548246 0.014300287041522645 0.022254928573264138 0.016843533636089324 0.022530877345855495 0.016402090997460553 C 0.022254928573264138 0.016843533636089324 0.020619880812350208 0.01965689516988977 0.020766880545696767 0.019406525618164444" fill="none" stroke="#000000" stroke-width="0.001"/>
<path d="M 0.020766880545696767 0.019406525618164444 C 0.020291179415912953 0.019344917282892768 0.014107064728723376 0.018667225594904323 0.015058466988291 0.018667225594904323 C 0.014107064728723376 0.018667225594904323 0.008874352301101448 0.01946813395343612 0.00935005343088526 0.019406525618164444" fill="none" stroke="#000000" stroke-width="0.001"/>
<path d="M 0.00935005343088526 0.019406525618164444 C 0.0092030536975387 0.01915615606643912 0.007310107858135182 0.01596064835883178 0.007586056630726538 0.016402090997460553 C 0.007310107858135182 0.01596064835883178 0.005909719120544197 0.013918140867715752 0.0060386681597889924 0.014109213954619199" fill="none" stroke="#000000" stroke-width="0.001"/>
<path d="M 0.0060386681597889924 0.014109213954619199 C 0.006181639157063805 0.013992596217861796 0.008505970029461903 0.012709516037530063 0.0077543201270867355 0.012709801113530358 C 0.008505970029461903 0.012709516037530063 0.015667145893391354 0.014222125703372772 0.015058466988291 0.014105793042615663" fill="none" stroke="#000000" stroke-width="0.001"/>
</g><g transform="translate(0.3373434528286706,0.26033336765276305) rotate(0) scale(1,1) translate(-0.015058466988291021,-0.015058466988291016)"><path d="M 0.015058466988291 0.014241668164117616 C 0.015580333064551422 0.01414192744910099 0.021965305738464953 0.013045024000953856 0.02132085990341604 0.013044779583918103 C 0.021965305738464953 0.013045024000953856 0.022914396767666427 0.014344586300599023 0.022791817008877936 0.014244601168546644" fill="none" stroke="#000000" stroke-width="0.001"/>
<path d="M 0.022791817008877936 0.014244601168546644 C 0.02268125932635543 0.014408422456430488 0.02122853323970735 0.016588938505447105 0.02146512481860786 0.016210456623152764 C 0.02122853323970735 0.016588938505447105 0.01982668416569377 0.019001044350489223 0.019952718062071776 0.018786383756078724" fill="none" stroke="#000000" stroke-width="0.001"/>
<path d="M 0.019952718062071776 0.018786383756078724 C 0.019764045153719708 0.018967828801728884 0.017280788905698556 0.02117488727065837 0.017688643161846953 0.02096372430388064 C 0.017280788905698556 0.02117488727065837 0.01462010429269836 0.0213203393574115 0.015058466988291016 0.0213203393574115 C 0.01462010429269836 0.0213203393574115 0.012020436558586683 0.020752561337102907 0.01242829081473508 0.02096372430388064 C 0.012020436558586683 0.020752561337102907 0.009975543006158192 0.018604938710428565 0.01016421591451026 0.018786383756078724" fill="none" stroke="#000000" stroke-width="0.001"/>
<path d="M 0.01016421591451026 0.018786383756078724 C 0.010038182018132252 0.018571723161668226 0.008415217579073661 0.015831974740858422 0.008651809157974175 0.016210456623152764 C 0.008415217579073661 0.015831974740858422 0.007214559285181591 0.014080779880662801 0.007325116967704097 0.014244601168546644" fill="none" stroke="#000000" stroke-width="0.001"/>
<path d="M 0.007325116967704097 0.014244601168546644 C 0.0074476967264925885 0.014144616036494266 0.009440519908214906 0.01304453516688235 0.008796074073165997 0.013044779583918103 C 0.009440519908214906 0.01304453516688235 0.015580333064551418 0.014341408879134243 0.015058466988291 0.014241668164117616" fill="none" stroke="#000000" stroke-width="0.001"/>
</g></g>
<g id="虫性">
<g id="腹板2">
<g transform="translate(0.3373434528286705,0.22439964763461606) rotate(0) scale(1,1) translate(-0.03764899741035618,-0.03764899741035618)"><path d="M 0.02883976798464411 0.034644436302589114 C 0.029573870436786786 0.03443824726406088 0.03911720231464154 0.032170167840250334 0.03764899741035619 0.032170167840250334 C 0.03911720231464154 0.032170167840250334 0.04719232928821101 0.034850625341117346 0.04645822683606833 0.034644436302589114" fill="none" stroke="#000000" stroke-width="0.001"/>
<path d="M 0.04645822683606833 0.034644436302589114 C 0.04633071334712363 0.035156928237860464 0.044608809237652154 0.041877231760876064 0.04492806496873197 0.0407943395258453 C 0.044608809237652154 0.041877231760876064 0.0424354158209754 0.04820954342271774 0.04262715806311052 0.047639143122958326" fill="none" stroke="#000000" stroke-width="0.001"/>
<path d="M 0.04262715806311052 0.047639143122958326 C 0.04221231134204766 0.04784112502631349 0.03681930396823047 0.050062925963220276 0.03764899741035619 0.050062925963220276 C 0.03681930396823047 0.050062925963220276 0.03225599003653908 0.04743716121960316 0.032670836757601934 0.047639143122958326" fill="none" stroke="#000000" stroke-width="0.001"/>
<path d="M 0.032670836757601934 0.047639143122958326 C 0.032479094515466815 0.04706874282319891 0.03005067412090065 0.03971144729081453 0.03036992985198047 0.0407943395258453 C 0.03005067412090065 0.03971144729081453 0.028712254495699415 0.034131944367317764 0.02883976798464411 0.034644436302589114" fill="none" stroke="#000000" stroke-width="0.001"/>
</g><g transform="translate(0.3373434528286705,0.22786719712599518) rotate(0) scale(1,1) translate(-0.011152769902399133,-0.011152769902399133)"><path d="M 0.010133122315786119 0.002276707077658753 C 0.01021809294800387 0.0022708474336764423 0.011322711166834634 0.002206391349871028 0.011152769902399133 0.002206391349871028 C 0.011322711166834634 0.002206391349871028 0.012257388121229888 0.0022825667216410613 0.012172417489012138 0.002276707077658751" fill="none" stroke="#000000" stroke-width="0.001"/>
<path d="M 0.012172417489012138 0.002276707077658751 C 0.012131996680953291 0.0023137298730949553 0.011640777950030162 0.0028398097135417444 0.011687367792305984 0.0027209806228932 C 0.011640777950030162 0.0028398097135417444 0.011607170347485311 0.003784462460653619 0.011613339381702286 0.003702656165441279" fill="none" stroke="#000000" stroke-width="0.001"/>
<path d="M 0.011613339381702286 0.003702656165441279 C 0.011613339381702286 0.0043234989768544336 0.011613339381702286 0.012378662790614553 0.011613339381702286 0.01115276990239913 C 0.011613339381702286 0.012378662790614553 0.011613339381702286 0.01901842090082864 0.011613339381702286 0.01841337082402637" fill="none" stroke="#000000" stroke-width="0.001"/>
<path d="M 0.011613339381702286 0.01841337082402637 C 0.011628549418310322 0.018490367507199762 0.011895391399474512 0.019440367955666487 0.01179585982099871 0.019337331022107055 C 0.011895391399474512 0.019440367955666487 0.012892039865279675 0.019675854277125607 0.01280771832341191 0.019649814026739564" fill="none" stroke="#000000" stroke-width="0.001"/>
<path d="M 0.01280771832341191 0.019649814026739564 C 0.012673301471422798 0.01970766943900993 0.01091889136270712 0.020344078973983944 0.011194716099542583 0.020344078973983944 C 0.01091889136270712 0.020344078973983944 0.009356413596539999 0.019591958614469197 0.009497821481386351 0.019649814026739564" fill="none" stroke="#000000" stroke-width="0.001"/>
<path d="M 0.009497821481386351 0.019649814026739564 C 0.009582143023254117 0.01962377377635352 0.01060921156227535 0.019234294088547623 0.010509679983799548 0.019337331022107055 C 0.01060921156227535 0.019234294088547623 0.010707410459704006 0.018336374140852995 0.01069220042309597 0.018413370824026384" fill="none" stroke="#000000" stroke-width="0.001"/>
<path d="M 0.01069220042309597 0.018413370824026384 C 0.01069220042309597 0.01780832074722411 0.01069220042309597 0.009926877014183712 0.01069220042309597 0.011152769902399136 C 0.01069220042309597 0.009926877014183712 0.01069220042309597 0.0030818133540281337 0.01069220042309597 0.0037026561654412878" fill="none" stroke="#000000" stroke-width="0.001"/>
<path d="M 0.01069220042309597 0.0037026561654412878 C 0.010686031388878995 0.0036208498702289477 0.010571582170216457 0.0026021515322446624 0.010618172012492278 0.002720980622893207 C 0.010571582170216457 0.0026021515322446624 0.010092701507727272 0.0022396842822225483 0.010133122315786119 0.002276707077658753" fill="none" stroke="#000000" stroke-width="0.001"/>
</g></g>
<g id="腹板1">
<g transform="translate(0.3373434528286706,0.23715836376383104) rotate(0) scale(1,1) translate(-0.5000000158677831,-0.5162142508926452)"><path d="M 0.5000000158677831 0.5040318561593837 C 0.5008979041908314 0.5044386928205367 0.5086762209037895 0.507084745230348 0.5071831224521689 0.5072865494486068 C 0.5086762209037895 0.507084745230348 0.51254001360932 0.5018087815339012 0.5119448034807477 0.5024174224133129" fill="none" stroke="#000000" stroke-width="0.001"/>
<path d="M 0.5119448034807477 0.5024174224133129 C 0.5118241100906331 0.5017648136226354 0.5095010838316265 0.49362278127283954 0.5104964827993735 0.4945861169251826 C 0.5095010838316265 0.49362278127283954 0.49912531029015056 0.49054666772353006 0.5000000158677831 0.4908573945851956" fill="none" stroke="#000000" stroke-width="0.001"/>
<path d="M 0.5000000158677831 0.4908573945851956 C 0.49912531029015056 0.4911681214468612 0.4885081499684456 0.4955494525775257 0.48950354893619263 0.4945861169251826 C 0.4885081499684456 0.4955494525775257 0.48793453486470395 0.5030700312039904 0.48805522825481845 0.5024174224133129" fill="none" stroke="#000000" stroke-width="0.001"/>
<path d="M 0.48805522825481845 0.5024174224133129 C 0.4886504383833908 0.5030260632927246 0.4943100077350177 0.5074883536668657 0.4928169092833971 0.5072865494486068 C 0.4943100077350177 0.5074883536668657 0.5008979041908314 0.5036250194982308 0.5000000158677831 0.5040318561593837" fill="none" stroke="#000000" stroke-width="0.001"/>
</g><g transform="translate(0.3373434528286706,0.21838873824347566) rotate(0) scale(1,1) translate(-0.011152769902399133,-0.011152769902399133)"><path d="M 0.010133122315786119 0.004864502173448705 C 0.010303063580221622 0.004814674985643374 0.011492652431270137 0.004565539046616721 0.011152769902399133 0.004565539046616721 C 0.011492652431270137 0.004565539046616721 0.012342358753447639 0.004914329361254033 0.012172417489012138 0.004864502173448703" fill="none" stroke="#000000" stroke-width="0.001"/>
<path d="M 0.012172417489012138 0.004864502173448703 C 0.012131996680953291 0.004901306912114655 0.011640777950030162 0.005424770071318417 0.011687367792305984 0.005306159037440125 C 0.011640777950030162 0.005424770071318417 0.011607170347485311 0.006369640875200545 0.011613339381702286 0.006287834579988205" fill="none" stroke="#000000" stroke-width="0.001"/>
<path d="M 0.011613339381702286 0.006287834579988205 C 0.011613339381702286 0.006693245856855782 0.011613339381702286 0.011967323047020705 0.011613339381702286 0.01115276990239913 C 0.011613339381702286 0.011967323047020705 0.011613339381702286 0.016471614183201113 0.011613339381702286 0.016062472315447114" fill="none" stroke="#000000" stroke-width="0.001"/>
<path d="M 0.011613339381702286 0.016062472315447114 C 0.011625426226556065 0.016159100489647263 0.011857913098423432 0.01743367775639381 0.01175838151994763 0.017222010405848902 C 0.011857913098423432 0.01743367775639381 0.012895163057033933 0.018717519698330784 0.01280771832341191 0.018602480521986025" fill="none" stroke="#000000" stroke-width="0.001"/>
<path d="M 0.01280771832341191 0.018602480521986025 C 0.012531893586576446 0.01845873373546447 0.010601120428728206 0.01773999980285669 0.011152769902399133 0.01773999980285669 C 0.010601120428728206 0.01773999980285669 0.009221996744550888 0.01874622730850758 0.009497821481386351 0.018602480521986025" fill="none" stroke="#000000" stroke-width="0.001"/>
<path d="M 0.009497821481386351 0.018602480521986025 C 0.009585266215008374 0.018487441345641266 0.01064668986332643 0.017010343055303995 0.010547158284850628 0.017222010405848902 C 0.01064668986332643 0.017010343055303995 0.010704287267949749 0.01596584414124698 0.01069220042309597 0.016062472315447128" fill="none" stroke="#000000" stroke-width="0.001"/>
<path d="M 0.01069220042309597 0.016062472315447128 C 0.01069220042309597 0.01565333044769313 0.01069220042309597 0.01033821675777756 0.01069220042309597 0.011152769902399136 C 0.01069220042309597 0.01033821675777756 0.01069220042309597 0.005882423303120637 0.01069220042309597 0.006287834579988214" fill="none" stroke="#000000" stroke-width="0.001"/>
<path d="M 0.01069220042309597 0.006287834579988214 C 0.010686031388878995 0.006206028284775874 0.010571582170216457 0.005187548003561839 0.010618172012492278 0.005306159037440132 C 0.010571582170216457 0.005187548003561839 0.010092701507727272 0.004827697434782752 0.010133122315786119 0.004864502173448705" fill="none" stroke="#000000" stroke-width="0.001"/>
</g></g>
</g>
</svg>
