<?xml version="1.0" encoding="UTF-8"?>
<svg xmlns="http://www.w3.org/2000/svg" viewBox="0 0 1 1">
<g id="淫タトゥ">
<g id="ハート">
<g transform="translate(0.3373434528286706,0.23816207078525886) rotate(0) scale(1,1) translate(0.001427499956110473,-0.008042065181432531)"><path d="M -0.001427499956110473 0.006558085708844001 C -0.001427499956110473 0.006607522094080816 -0.001427499956110473 0.0072542043950385 -0.001427499956110473 0.007151322331685783 C -0.001427499956110473 0.0072542043950385 -0.001427499956110473 0.007846116147192517 -0.001427499956110473 0.007792670469076614" fill="none" stroke="none" stroke-width="0"/>
<path d="M -0.001427499956110473 0.007792670469076614 C -0.001575937329633557 0.0076528002680409275 -0.003496007417811292 0.005867817056895063 -0.003208748438387481 0.006114228056648378 C -0.003496007417811292 0.005867817056895063 -0.0051246181982330385 0.00461138977949067 -0.0048746077091962065 0.004835738472036839 C -0.0051246181982330385 0.00461138977949067 -0.006345017880545783 0.0031692446701792765 -0.0062088743068294625 0.003422043746094355 C -0.006345017880545783 0.0031692446701792765 -0.006468262460229363 0.0015524467132984646 -0.0065083305937920465 0.0018021495610558982 C -0.006468262460229363 0.0015524467132984646 -0.005534782196379568 0.0002565262067832282 -0.0057280567040772605 0.0004256095730051525 C -0.005534782196379568 0.0002565262067832282 -0.003931718843860322 -0.0002681518441727764 -0.004189036501419741 -0.00022685083360719395 C -0.003931718843860322 -0.0002681518441727764 -0.0024101167679217873 2.509775913380579E-05 -0.002640244813364226 -7.000255378183663E-05 C -0.0024101167679217873 2.509775913380579E-05 -0.0013264378846726602 0.000996382544310711 -0.001427499956110473 0.000914352921380515" fill="none" stroke="none" stroke-width="0"/>
<path d="M -0.001427499956110473 0.000914352921380515 C -0.001427499956110473 0.000940393927715292 -0.001427499956110473 0.0012994611691786054 -0.001427499956110473 0.0012268449973978394 C -0.001427499956110473 0.0012994611691786054 -0.001427499956110473 0.0018323221481956961 -0.001427499956110473 0.001785746982749707" fill="none" stroke="none" stroke-width="0"/>
<path d="M -0.001427499956110473 0.001785746982749707 C -0.0015408929930353613 0.0017140798643606489 -0.002993338147407447 0.0008396599713728686 -0.0027882163992091332 0.0009257415620810083 C -0.002993338147407447 0.0008396599713728686 -0.0040678928242269315 0.0007753825356235888 -0.0038889609344902377 0.0007527678942520318 C -0.0040678928242269315 0.0007753825356235888 -0.005063005016834116 0.001306777235703591 -0.004935399076049455 0.0011971172585396926 C -0.005063005016834116 0.001306777235703591 -0.005442163974184041 0.0022392576072266883 -0.005420232223906172 0.002068687620218813 C -0.005442163974184041 0.0022392576072266883 -0.005096553667681724 0.0034288048588261306 -0.005198580079383883 0.003243957102634197 C -0.005096553667681724 0.0034288048588261306 -0.00400792965921449 0.004459372887297785 -0.004195915283480267 0.0042868606945220145 C -0.00400792965921449 0.004459372887297785 -0.0027120513109137384 0.005503372167136943 -0.0029427525881945546 0.0053141034159434435 C -0.0027120513109137384 0.005503372167136943 -0.0013012289034367995 0.006661750899919047 -0.001427499956110473 0.006558085708844001" fill="none" stroke="none" stroke-width="0"/>
</g><g transform="translate(0.3373434528286706,0.23816207078525886) rotate(0) scale(1,1) translate(0.001427499956110473,-0.008042065181432531)"><path d="M -0.0014274999561105783 0.006558085708844001 C -0.0013012289034369056 0.006454420517768954 0.00031845395325430514 0.005124834664749944 8.77526759734959E-05 0.0053141034159434435 C 0.00031845395325430514 0.005124834664749944 0.0015289009955249029 0.004114348501746244 0.0013409153712591326 0.0042868606945220145 C 0.0015289009955249029 0.004114348501746244 0.0024456065788648895 0.0030591093464422637 0.00234358016716274 0.003243957102634197 C 0.0024456065788648895 0.0030591093464422637 0.002543300561407058 0.0018981176332109376 0.0025652323116849285 0.002068687620218813 C 0.002543300561407058 0.0018981176332109376 0.0019527932230436473 0.0010874572813757942 0.002080399163828295 0.0011971172585396926 C 0.0019527932230436473 0.0010874572813757942 0.0008550291325324736 0.0007301532528804748 0.0010339610222691586 0.0007527678942520318 C 0.0008550291325324736 0.0007301532528804748 -0.00027190526121023684 0.0010118231527891479 -6.678351301192542E-05 0.0009257415620810083 C -0.00027190526121023684 0.0010118231527891479 -0.001540892993035466 0.0018574141011387653 -0.0014274999561105783 0.001785746982749707" fill="none" stroke="none" stroke-width="0"/>
<path d="M -0.0014274999561105783 0.001785746982749707 C -0.0014274999561105783 0.001739171817303718 -0.0014274999561105783 0.0011542288256170734 -0.0014274999561105783 0.0012268449973978394 C -0.0014274999561105783 0.0011542288256170734 -0.0014274999561105783 0.0008883119150457379 -0.0014274999561105783 0.000914352921380515" fill="none" stroke="none" stroke-width="0"/>
<path d="M -0.0014274999561105783 0.000914352921380515 C -0.0013264378846727747 0.000832323298450319 1.5372946585490155E-05 -0.00016510286669747906 -0.00021475509885693356 -7.000255378183663E-05 C 1.5372946585490155E-05 -0.00016510286669747906 0.0015913542467579183 -0.0001855498230416115 0.0013340365891985062 -0.00022685083360719395 C 0.0015913542467579183 -0.0001855498230416115 0.0030663312995537115 0.0005946929392270768 0.00287305679185601 0.0004256095730051525 C 0.0030663312995537115 0.0005946929392270768 0.003693398815133605 0.002051852408813332 0.003653330681570921 0.0018021495610558982 C 0.003693398815133605 0.002051852408813332 0.0032177308208918842 0.003674842822009434 0.003353874394608214 0.003422043746094355 C 0.0032177308208918842 0.003674842822009434 0.0017695973079381495 0.005060087164583008 0.002019607796974965 0.004835738472036839 C 0.0017695973079381495 0.005060087164583008 6.648954674263557E-05 0.006360639056401693 0.0003537485261664308 0.006114228056648378 C 6.648954674263557E-05 0.006360639056401693 -0.0015759373296336625 0.0079325406701123 -0.0014274999561105783 0.007792670469076614" fill="none" stroke="none" stroke-width="0"/>
<path d="M -0.0014274999561105783 0.007792670469076614 C -0.0014274999561105783 0.007739224790960711 -0.0014274999561105783 0.007048440268333065 -0.0014274999561105783 0.007151322331685783 C -0.0014274999561105783 0.007048440268333065 -0.0014274999561105783 0.006508649323607185 -0.0014274999561105783 0.006558085708844001" fill="none" stroke="none" stroke-width="0"/>
</g><g transform="translate(0.3373434528286706,0.23816207078525886) rotate(0) scale(1,1) translate(0.001436065550653578,-0.008105469171541388)"><path d="M -0.001436065550653578 0.009445865416717035 C -0.001436065550653578 0.009522575882153089 -0.001436065550653578 0.010514899551803486 -0.001436065550653578 0.01036639100194968 C -0.001436065550653578 0.010514899551803486 -0.001436065550653578 0.01129976609938046 -0.001436065550653578 0.011227968014962708" fill="none" stroke="none" stroke-width="0"/>
<path d="M -0.001436065550653578 0.011227968014962708 C -0.001726932318597709 0.010952362746227559 -0.005467212424548591 0.007456102614482954 -0.004926466765983151 0.007920704790140922 C -0.005467212424548591 0.007456102614482954 -0.008375032333705151 0.005251690791252902 -0.007925013453438854 0.0056527419070670935 C -0.008375032333705151 0.005251690791252902 -0.010571751761868097 0.002653053063723482 -0.01032669332917872 0.0031080914003706224 C -0.010571751761868097 0.002653053063723482 -0.010793592005298535 -0.00025718325866196703 -0.010865714645711365 0.00019228186730141155 C -0.010793592005298535 -0.00025718325866196703 -0.009113327530368915 -0.002589840170389383 -0.00946122164422476 -0.0022854901111899204 C -0.009113327530368915 -0.002589840170389383 -0.006239997886134411 -0.0035308327869724163 -0.006690985279441221 -0.0034599188430921423 C -0.006239997886134411 -0.0035308327869724163 -0.0036114629471440673 -0.0029640386833069 -0.0040493729245430375 -0.003136457437753208 C -0.0036114629471440673 -0.0029640386833069 -0.0012182899361627897 -0.00124543015240172 -0.001436065550653578 -0.0013908937897364499" fill="none" stroke="none" stroke-width="0"/>
<path d="M -0.001436065550653578 -0.0013908937897364499 C -0.001436065550653578 -0.0013539278677445026 -0.001436065550653578 -0.0008198048417315055 -0.001436065550653578 -0.0009473027258330827 C -0.001436065550653578 -0.0008198048417315055 -0.001436065550653578 0.0002296127815921061 -0.001436065550653578 0.0001390808194824762" fill="none" stroke="none" stroke-width="0"/>
<path d="M -0.001436065550653578 0.0001390808194824762 C -0.0016617466504936197 5.760129093290039E-06 -0.004538975863451043 -0.0016206540280610103 -0.004144238748734079 -0.0014607674651877579 C -0.004538975863451043 -0.0016206540280610103 -0.006502682400041877 -0.0017378791509487749 -0.0061729109272571515 -0.0017795579349965545 C -0.006502682400041877 -0.0017378791509487749 -0.008336674171016923 -0.0007585187187013382 -0.008101496422150793 -0.0009606220566144025 C -0.008336674171016923 -0.0007585187187013382 -0.009035464129412835 0.0009600426060157304 -0.008995043913650722 0.0006456821199602169 C -0.009035464129412835 0.0009600426060157304 -0.008398504334529057 0.0031626124831277062 -0.008586539011296135 0.0028117037760517598 C -0.008398504334529057 0.0031626124831277062 -0.006392170286923949 0.0051694094299502115 -0.006738627792445776 0.0048565866048715725 C -0.006392170286923949 0.0051694094299502115 -0.0039871687582181915 0.006948017577982546 -0.004429048945034208 0.0065655776769954245 C -0.0039871687582181915 0.006948017577982546 -0.0011866502677885253 0.00968588939502717 -0.001436065550653578 0.009445865416717035" fill="none" stroke="none" stroke-width="0"/>
</g><g transform="translate(0.3373434528286706,0.23816207078525886) rotate(0) scale(1,1) translate(0.001436065550653578,-0.008105469171541388)"><path d="M -0.0014360655506535647 0.009445865416717035 C -0.0011866502677885065 0.0092058414384069 0.0019987980305431474 0.006183137776008303 0.0015569178437271347 0.0065655776769954245 C 0.0019987980305431474 0.006183137776008303 0.004212954196660419 0.0045437637797929335 0.003866496691138588 0.0048565866048715725 C 0.004212954196660419 0.0045437637797929335 0.005902442586756207 0.0024607950689758133 0.0057144079099891165 0.0028117037760517598 C 0.005902442586756207 0.0024607950689758133 0.006082492596581557 0.00033132163390470334 0.006122912812343673 0.0006456821199602169 C 0.006082492596581557 0.00033132163390470334 0.004994187571977597 -0.0011627253945274668 0.005229365320843726 -0.0009606220566144025 C 0.004994187571977597 -0.0011627253945274668 0.002971008353165383 -0.0018212367190443342 0.0033007798259501175 -0.0017795579349965545 C 0.002971008353165383 -0.0018212367190443342 0.0008773705327099386 -0.0013008809023145054 0.0012721076474269122 -0.0014607674651877579 C 0.0008773705327099386 -0.0013008809023145054 -0.0016617466504936045 0.0002724015098716624 -0.0014360655506535647 0.0001390808194824762" fill="none" stroke="none" stroke-width="0"/>
<path d="M -0.0014360655506535647 0.0001390808194824762 C -0.0014360655506535647 4.85488573728463E-05 -0.0014360655506535647 -0.00107480060993466 -0.0014360655506535647 -0.0009473027258330827 C -0.0014360655506535647 -0.00107480060993466 -0.0014360655506535647 -0.0014278597117283972 -0.0014360655506535647 -0.0013908937897364499" fill="none" stroke="none" stroke-width="0"/>
<path d="M -0.0014360655506535647 -0.0013908937897364499 C -0.001218289936162779 -0.0015363574270711798 0.001615151800634836 -0.0033088761921995155 0.001177241823235864 -0.003136457437753208 C 0.001615151800634836 -0.0033088761921995155 0.004269841571440909 -0.0033890048992118683 0.0038188541781341012 -0.0034599188430921423 C 0.004269841571440909 -0.0033890048992118683 0.006936984656773411 -0.0019811400519904577 0.006589090542917564 -0.0022854901111899204 C 0.006936984656773411 -0.0019811400519904577 0.008065706184817112 0.0006417469932647902 0.00799358354440427 0.00019228186730141155 C 0.008065706184817112 0.0006417469932647902 0.007209503795182278 0.0035631297370177627 0.007454562227871664 0.0031080914003706224 C 0.007209503795182278 0.0035631297370177627 0.004602863471865337 0.006053793022881285 0.005052882352131638 0.0056527419070670935 C 0.004602863471865337 0.006053793022881285 0.0015135900061106211 0.00838530696579889 0.0020543356646760547 0.007920704790140922 C 0.0015135900061106211 0.00838530696579889 -0.0017269323185976997 0.011503573283697856 -0.0014360655506535647 0.011227968014962708" fill="none" stroke="none" stroke-width="0"/>
<path d="M -0.0014360655506535647 0.011227968014962708 C -0.0014360655506535647 0.011156169930544956 -0.0014360655506535647 0.010217882452095876 -0.0014360655506535647 0.01036639100194968 C -0.0014360655506535647 0.010217882452095876 -0.0014360655506535647 0.009369154951280982 -0.0014360655506535647 0.009445865416717035" fill="none" stroke="none" stroke-width="0"/>
</g></g>
<g transform="translate(0.3373434528286706,0.23816207078525886) rotate(0) scale(1,1) translate(-0.014321047318078182,-0.013714177965114286)"><path d="M 0.0014440973085872505 -0.007378268704867471 C 0.0016849320926703272 -0.007165775252222527 0.004671031777728009 -0.004434934753295082 0.004334114717584171 -0.004828347273128135 C 0.004671031777728009 -0.004434934753295082 0.005563382345638574 -0.002249931670057785 0.0054871020303133055 -0.0026573184668708377 C 0.005563382345638574 -0.002249931670057785 0.005055687454350916 0.0006358428612778502 0.005249478501487385 6.029428862849861E-05 C 0.005055687454350916 0.0006358428612778502 0.002942124138273179 0.004837349653752911 0.0031616094646756848 0.004249264404921382 C 0.002942124138273179 0.004837349653752911 0.002657781714702259 0.007578512194889821 0.002615654584657315 0.007117317274606842 C 0.002657781714702259 0.007578512194889821 0.003952234808699047 0.010212862315162002 0.0036671350252150126 0.009783603448317132 C 0.003952234808699047 0.010212862315162002 0.006489200915833617 0.01268571368174861 0.006036851986465729 0.012268423676745289 C 0.006489200915833617 0.01268571368174861 0.009550400483609464 0.015241247442836914 0.00909532217762967 0.014791083508356999 C 0.009550400483609464 0.015241247442836914 0.011782401870289396 0.018170426662276577 0.011497791658223254 0.017670390890504272 C 0.011782401870289396 0.018170426662276577 0.012594765850119734 0.021363001483023898 0.012510644722423376 0.02079151276962467 C 0.012594765850119734 0.021363001483023898 0.01244396932918842 0.025129155531344635 0.012507245190579558 0.024528255451295014 C 0.01244396932918842 0.025129155531344635 0.011575774880664382 0.02857432207247207 0.011751334385729735 0.028002313730220104 C 0.011575774880664382 0.02857432207247207 0.010163779319905695 0.03189334784821615 0.010400531129795313 0.03139235555831859 C 0.010163779319905695 0.03189334784821615 0.008605921570967798 0.034500655229304886 0.008910312667054332 0.03401422120899085 C 0.008605921570967798 0.034500655229304886 0.006567631752565463 0.037497509018178395 0.0067478379767569145 0.03722956380208704" fill="none" stroke="none" stroke-width="0"/>
<path d="M 0.0067478379767569145 0.03722956380208704 C 0.006733704799841883 0.03718098617504602 0.006514655335223422 0.036379937418554165 0.0065782398537765335 0.036646632277594744 C 0.006514655335223422 0.036379937418554165 0.005935372412481502 0.03381110826160056 0.005984823754119581 0.034029225493600115" fill="none" stroke="none" stroke-width="0"/>
<path d="M 0.005984823754119581 0.034029225493600115 C 0.0061756478076045885 0.03375676467872705 0.008620077889147624 0.03015551844721942 0.008274712395939673 0.030759695715123346 C 0.008620077889147624 0.03015551844721942 0.010355390688577602 0.02613647913427035 0.010129209672614983 0.026779098278753015 C 0.010355390688577602 0.02613647913427035 0.011053996242317543 0.022459174582553205 0.010988884587491103 0.023048265981331358 C 0.011053996242317543 0.022459174582553205 0.010790511163253707 0.019174680457135593 0.010910549530532256 0.0197100014934152 C 0.010790511163253707 0.019174680457135593 0.009210819509540006 0.01615816905949367 0.00954842418014851 0.016624413545976095 C 0.009210819509540006 0.01615816905949367 0.006635199258487013 0.013905955498096922 0.006859293483230205 0.01411506765562609" fill="none" stroke="none" stroke-width="0"/>
<path d="M 0.006859293483230205 0.01411506765562609 C 0.00669136668755953 0.014037439803609515 0.004326604495651029 0.013039275584855618 0.004844171935182105 0.01318353343142719 C 0.004326604495651029 0.013039275584855618 8.387634760506689E-05 0.012200853393339232 0.0006484842088572989 0.012383973496767241 C 8.387634760506689E-05 0.012200853393339232 -0.0022357736926885067 0.010693912426846617 -0.0019311223998446795 0.010986092190291081 C -0.0022357736926885067 0.010693912426846617 -0.0030888930482857826 0.008512698835175938 -0.003007331305268629 0.008877816335433684 C -0.0030888930482857826 0.008512698835175938 -0.002846853307003009 0.006237109643036979 -0.002909863316050518 0.006604682187198133 C -0.002846853307003009 0.006237109643036979 -0.0021963235200858533 0.0042888011070249836 -0.00225121119669852 0.004466945805499841" fill="none" stroke="none" stroke-width="0"/>
<path d="M -0.00225121119669852 0.004466945805499841 C -0.002212656139360992 0.004707627541005128 -0.0016444865765769313 0.007789271739952681 -0.001788550508648182 0.007355126631563283 C -0.0016444865765769313 0.007789271739952681 -0.0002465985527123639 0.009993825554375 -0.0005224440118435116 0.009676687106172619 C -0.0002465985527123639 0.009993825554375 0.0019327410738639171 0.011357487006302293 0.0015215950009255905 0.011160788009991866 C 0.0019327410738639171 0.011357487006302293 0.00465211835195731 0.012110098982889905 0.004411308863416409 0.012037075061897749" fill="none" stroke="none" stroke-width="0"/>
<path d="M 0.004411308863416409 0.012037075061897749 C 0.00424981272934016 0.011867875894325716 0.0022156280346315228 0.009613324022705498 0.002473355254501425 0.010006685051033349 C 0.0022156280346315228 0.009613324022705498 0.0012600391777161692 0.006817384354346837 0.0013185822249775813 0.007316742721963551 C 0.0012600391777161692 0.006817384354346837 0.001928521548742138 0.003355460612813927 0.0017708386873644805 0.004014384639632776 C 0.001928521548742138 0.003355460612813927 0.0033132915154616407 -0.0012744542597045061 0.0032107765615094703 -0.0005903455998626322 C 0.0033132915154616407 -0.0012744542597045061 0.0028537948637136733 -0.004760579537220114 0.003001018134790526 -0.004194919278469711 C 0.0028537948637136733 -0.004760579537220114 0.0013143539064036321 -0.007643547823733948 0.0014440973085872394 -0.0073782687048674685" fill="none" stroke="none" stroke-width="0"/>
</g><g transform="translate(0.3373434528286706,0.23816207078525886) rotate(0) scale(1,1) translate(-0.014321047318078182,-0.013714177965114286)"><path d="M 0.027197997327569112 -0.0073782687048674685 C 0.027068253925385505 -0.007112989586000989 0.025493853230288965 -0.003629259019719308 0.025641076501365823 -0.004194919278469711 C 0.025493853230288965 -0.003629259019719308 0.02553383302859899 9.37630599792418E-05 0.025431318074646825 -0.0005903455998626322 C 0.02553383302859899 9.37630599792418E-05 0.02702893881016946 0.004673308666451624 0.026871255948791806 0.004014384639632776 C 0.02702893881016946 0.004673308666451624 0.027264969363917285 0.007816101089580266 0.027323512411178696 0.007316742721963551 C 0.027264969363917285 0.007816101089580266 0.025911012161784968 0.0104000460793612 0.02616873938165487 0.010006685051033349 C 0.025911012161784968 0.0104000460793612 0.0240692896386636 0.012206274229469781 0.02423078577273985 0.012037075061897749" fill="none" stroke="none" stroke-width="0"/>
<path d="M 0.02423078577273985 0.012037075061897749 C 0.02447159526128075 0.011964051140905593 0.02753164570816899 0.01096408901368144 0.027120499635230666 0.011160788009991866 C 0.02753164570816899 0.01096408901368144 0.029440384107130874 0.009359548657970238 0.029164538647999727 0.009676687106172619 C 0.029440384107130874 0.009359548657970238 0.03057470907687569 0.006920981523173884 0.030430645144804425 0.007355126631563283 C 0.03057470907687569 0.006920981523173884 0.030931860890192415 0.004226264069994555 0.030893305832854878 0.004466945805499841" fill="none" stroke="none" stroke-width="0"/>
<path d="M 0.030893305832854878 0.004466945805499841 C 0.030948193509467536 0.004645090503974699 0.03161496796125427 0.006972254731359286 0.03155195795220678 0.006604682187198133 C 0.03161496796125427 0.006972254731359286 0.03156786419840768 0.009242933835691431 0.031649425941424836 0.008877816335433684 C 0.03156786419840768 0.009242933835691431 0.03026856574315709 0.011278271953735545 0.03057321703600091 0.010986092190291081 C 0.03026856574315709 0.011278271953735545 0.027429002566046756 0.01256709360019525 0.027993610427298976 0.012383973496767241 C 0.027429002566046756 0.01256709360019525 0.023280355261443175 0.013327791277998761 0.02379792270097425 0.01318353343142719 C 0.023280355261443175 0.013327791277998761 0.021614874357255398 0.014192695507642666 0.02178280115292608 0.01411506765562609" fill="none" stroke="none" stroke-width="0"/>
<path d="M 0.02178280115292608 0.01411506765562609 C 0.021558706928182885 0.014324179813155258 0.018756065785399234 0.01709065803245852 0.01909367045600774 0.016624413545976095 C 0.018756065785399234 0.01709065803245852 0.017611506738345478 0.020245322529694805 0.017731545105624025 0.0197100014934152 C 0.017611506738345478 0.020245322529694805 0.017718321703491614 0.02363735738010951 0.017653210048665175 0.023048265981331358 C 0.017718321703491614 0.02363735738010951 0.01873906597950393 0.02742171742323568 0.01851288496354131 0.026779098278753015 C 0.01873906597950393 0.02742171742323568 0.020712747733424564 0.03136387298302727 0.020367382240216614 0.030759695715123346 C 0.020712747733424564 0.03136387298302727 0.02284809493552174 0.03430168630847318 0.02265727088203673 0.034029225493600115" fill="none" stroke="none" stroke-width="0"/>
<path d="M 0.02265727088203673 0.034029225493600115 C 0.022607819540398654 0.03424734272559967 0.02200027026382671 0.036913327136635324 0.02206385478237982 0.036646632277594744 C 0.02200027026382671 0.036913327136635324 0.02188012348248433 0.03727814142912807 0.02189425665939937 0.03722956380208704" fill="none" stroke="none" stroke-width="0"/>
<path d="M 0.02189425665939937 0.03722956380208704 C 0.02171405043520792 0.03696161858599569 0.019427390873015437 0.033527787188676814 0.01973178196910197 0.03401422120899085 C 0.019427390873015437 0.033527787188676814 0.018004811696471352 0.030891363268421027 0.01824156350636097 0.03139235555831859 C 0.018004811696471352 0.030891363268421027 0.01671520074536122 0.02743030538796814 0.016890760250426573 0.028002313730220104 C 0.01671520074536122 0.02743030538796814 0.016071573584185612 0.023927355371245393 0.01613484944557675 0.024528255451295014 C 0.016071573584185612 0.023927355371245393 0.0162155710414293 0.020220024056225444 0.016131449913732943 0.02079151276962467 C 0.0162155710414293 0.020220024056225444 0.017428913189999156 0.017170355118731967 0.017144302977933012 0.017670390890504272 C 0.017428913189999156 0.017170355118731967 0.020001850764506446 0.014340919573877084 0.01954677245852665 0.014791083508356999 C 0.020001850764506446 0.014340919573877084 0.02305759157905844 0.011851133671741967 0.02260524264969055 0.012268423676745289 C 0.02305759157905844 0.011851133671741967 0.025260059394425355 0.009354344581472262 0.024974959610941316 0.009783603448317132 C 0.025260059394425355 0.009354344581472262 0.02606856718154395 0.006656122354323863 0.02602644005149901 0.007117317274606842 C 0.02606856718154395 0.006656122354323863 0.025260999845078097 0.0036611791560898534 0.025480485171480605 0.004249264404921382 C 0.025260999845078097 0.0036611791560898534 0.02319882508753245 -0.000515254284020853 0.02339261613466892 6.029428862849861E-05 C 0.02319882508753245 -0.000515254284020853 0.02323127292116824 -0.0030647052636838903 0.023154992605842972 -0.0026573184668708377 C 0.02323127292116824 -0.0030647052636838903 0.02464489697871598 -0.0052217597929611875 0.024307979918572142 -0.004828347273128135 C 0.02464489697871598 -0.0052217597929611875 0.027438832111652073 -0.0075907621575124155 0.027197997327569 -0.007378268704867471" fill="none" stroke="none" stroke-width="0"/>
</g><g transform="translate(0.3373434528286706,0.23816207078525886) rotate(0) scale(1,1) translate(-0.014357830744681672,-0.013443040996989642)"><path d="M -0.007071647933862559 0.01007573524607825 C -0.006928775662478868 0.010189828879727345 -0.005016119477922829 0.011661639246325947 -0.005357180677258267 0.011444858849867373 C -0.005016119477922829 0.011661639246325947 -0.002451222038138377 0.012822279489990766 -0.002978913541837306 0.012677100003581146 C -0.002451222038138377 0.012822279489990766 0.0016040720324898257 0.013287975200315424 0.0009751173671288839 0.013187012686782799 C 0.0016040720324898257 0.013287975200315424 0.00507521862648321 0.014047242500419334 0.004568542442493996 0.013888650165972648 C 0.00507521862648321 0.014047242500419334 0.007408667845541127 0.015338569874446583 0.0070552315749994494 0.01509012070014304 C 0.007408667845541127 0.015338569874446583 0.009045064116879716 0.017234135955523963 0.00880977768899413 0.016870040257615168 C 0.009045064116879716 0.017234135955523963 0.009972348048170952 0.01992649178111632 0.009878668709626484 0.01945926907504858 C 0.009972348048170952 0.01992649178111632 0.009867629864183117 0.023019679003269688 0.009933929751527747 0.02247671273042804 C 0.009867629864183117 0.023019679003269688 0.008881995746123915 0.026551048326419805 0.009083070061490919 0.025974864349148346 C 0.008881995746123915 0.026551048326419805 0.007235703385632682 0.02991147113433909 0.007521037967123699 0.029390920457685557 C 0.007235703385632682 0.02991147113433909 0.005503889843304961 0.032457351803266185 0.00565905508359871 0.03222147246899075" fill="none" stroke="none" stroke-width="0"/>
<path d="M 0.00565905508359871 0.03222147246899075 C 0.005647378958945109 0.03217680981492903 0.00549537726131362 0.03159782703033052 0.005518941587755494 0.03168552062025011 C 0.00549537726131362 0.03159782703033052 0.0053643949645079516 0.031126118454097757 0.005376283166296224 0.03116914938995563" fill="none" stroke="none" stroke-width="0"/>
<path d="M 0.005376283166296224 0.03116914938995563 C 0.0055041561393318296 0.030980979994574998 0.007165859819725131 0.02843080987801278 0.006910758842723493 0.02891111664538804 C 0.007165859819725131 0.02843080987801278 0.008622392985780835 0.0248463400503535 0.008437494890315882 0.025405468181452524 C 0.008622392985780835 0.0248463400503535 0.009181144285051413 0.021712717688412195 0.009129535988302932 0.02220157907219977 C 0.009181144285051413 0.021712717688412195 0.00897390990083866 0.019128908781238955 0.009056794451297668 0.01953913157600161 C 0.00897390990083866 0.019128908781238955 0.007927942001562735 0.01695929970351047 0.008134921382794827 0.017278905535047948 C 0.007927942001562735 0.01695929970351047 0.0062495382044491215 0.015494167168434173 0.006573041876512557 0.01570386159755188 C 0.0062495382044491215 0.015494167168434173 0.003803275563310349 0.014669743635438846 0.004252877318033605 0.014762572385635461 C 0.003803275563310349 0.014669743635438846 0.0005210747202097145 0.014561760477089947 0.0011778208198334847 0.0145899165951925 C 0.0005210747202097145 0.014561760477089947 -0.004256220590066322 0.014247437084699607 -0.0036280758774516375 0.014424698968404811 C -0.004256220590066322 0.014247437084699607 -0.006646880069576971 0.012100360347202837 -0.006359915731542727 0.01246277399073005 C -0.006646880069576971 0.012100360347202837 -0.007130958950722545 0.0098768153506906 -0.007071647933862559 0.01007573524607825" fill="none" stroke="none" stroke-width="0"/>
</g><g transform="translate(0.3373434528286706,0.23816207078525886) rotate(0) scale(1,1) translate(-0.014357830744681672,-0.013443040996989642)"><path d="M 0.035787309423225944 0.01007573524607825 C 0.03572799840636596 0.0102746551414659 0.034788612882871904 0.012825187634257263 0.03507557722090615 0.01246277399073005 C 0.034788612882871904 0.012825187634257263 0.03171559265420026 0.014601960852110015 0.03234373736681495 0.014424698968404811 C 0.03171559265420026 0.014601960852110015 0.026881094569906033 0.014618072713295054 0.0275378406695298 0.0145899165951925 C 0.026881094569906033 0.014618072713295054 0.024013182416606493 0.014855401135832075 0.024462784171329743 0.014762572385635461 C 0.024013182416606493 0.014855401135832075 0.021819115940787365 0.015913556026669586 0.0221426196128508 0.01570386159755188 C 0.021819115940787365 0.015913556026669586 0.02037376072533642 0.017598511366585426 0.020580740106568518 0.017278905535047948 C 0.02037376072533642 0.017598511366585426 0.019575982487606624 0.019949354370764262 0.01965886703806563 0.01953913157600161 C 0.019575982487606624 0.019949354370764262 0.019637733797808934 0.022690440455987344 0.01958612550106045 0.02220157907219977 C 0.019637733797808934 0.022690440455987344 0.020463064694512412 0.025964596312551547 0.020278166599047465 0.025405468181452524 C 0.020463064694512412 0.025964596312551547 0.02206000362364145 0.0293914234127633 0.021804902646639812 0.02891111664538804 C 0.02206000362364145 0.0293914234127633 0.023467251296102703 0.03135731878533626 0.023339378323067095 0.03116914938995563" fill="none" stroke="none" stroke-width="0"/>
<path d="M 0.023339378323067095 0.03116914938995563 C 0.023327490121278827 0.031212180325813504 0.023173155575166 0.0317732142101697 0.023196719901607876 0.03168552062025011 C 0.023173155575166 0.0317732142101697 0.02304493028111096 0.03226613512305247 0.023056606405764568 0.03222147246899075" fill="none" stroke="none" stroke-width="0"/>
<path d="M 0.023056606405764568 0.03222147246899075 C 0.022901441165470826 0.031985593134715315 0.020909288940748654 0.028870369781032024 0.021194623522239664 0.029390920457685557 C 0.020909288940748654 0.028870369781032024 0.01943151711250543 0.025398680371876887 0.019632591427872437 0.025974864349148346 C 0.01943151711250543 0.025398680371876887 0.01871543185049098 0.021933746457586393 0.018781731737835615 0.02247671273042804 C 0.01871543185049098 0.021933746457586393 0.01893067211828129 0.01899204636898084 0.018836992779736828 0.01945926907504858 C 0.01893067211828129 0.01899204636898084 0.020141170228254762 0.016505944559706373 0.019905883800369173 0.016870040257615168 C 0.020141170228254762 0.016505944559706373 0.022013866184905573 0.014841671525839496 0.0216604299143639 0.01509012070014304 C 0.022013866184905573 0.014841671525839496 0.024653795230858495 0.013730057831525961 0.02414711904686928 0.013888650165972648 C 0.024653795230858495 0.013730057831525961 0.028369498787595416 0.013086050173250173 0.02774054412223448 0.013187012686782799 C 0.028369498787595416 0.013086050173250173 0.03222226653489948 0.012531920517171526 0.031694575031200545 0.012677100003581146 C 0.03222226653489948 0.012531920517171526 0.0344139033659571 0.011228078453408799 0.03407284216662165 0.011444858849867373 C 0.0344139033659571 0.011228078453408799 0.03593018169460963 0.009961641612429156 0.035787309423225944 0.01007573524607825" fill="none" stroke="none" stroke-width="0"/>
</g></g>
<g id="植タトゥ">
<g transform="translate(0.3323442786894815,0.24015564134731113) rotate(0) scale(1,1) translate(-0.017861643923213048,-0.01786164392321305)"><path d="M 0.02836982331091531 0.0005344755786180818 C 0.028567149106559997 0.0009866083125753043 0.03071460786326935 0.006791634527927345 0.030737732858651556 0.005960068386104753 C 0.03071460786326935 0.006791634527927345 0.027194480470718846 0.011290923925802021 0.02809232336632883 0.010513269280489181 C 0.027194480470718846 0.011290923925802021 0.019313730620767317 0.016144651218914258 0.019963618111331738 0.015291924129858848 C 0.019313730620767317 0.016144651218914258 0.020321178093574466 0.021200500200762057 0.020293673479555796 0.02074599434915412" fill="none" stroke="none" stroke-width="0"/>
<path d="M 0.020293673479555796 0.02074599434915412 C 0.020157721291701302 0.020262012135872278 0.01921195138756812 0.013954449700626427 0.018662247225301853 0.014938207789772036 C 0.01921195138756812 0.013954449700626427 0.027749216065917136 0.008120894477886921 0.02689012342675101 0.008940897279406805 C 0.027749216065917136 0.008120894477886921 0.0290946672189757 0.004397639029801028 0.02897135889529534 0.005098174171533422 C 0.0290946672189757 0.004397639029801028 0.028319695345550306 0.00015416736254180347 0.02836982331091531 0.0005344755786180818" fill="none" stroke="none" stroke-width="0"/>
</g><g transform="translate(0.3423426269678596,0.24015564134731113) rotate(0) scale(1,1) translate(-0.017861643923213048,-0.01786164392321305)"><path d="M 0.00735346453551089 0.0005344755786180818 C 0.007303336570145887 0.0009147837946943602 0.006875237274811217 0.005798709313265815 0.006751928951130859 0.005098174171533422 C 0.006875237274811217 0.005798709313265815 0.009692257058841311 0.009760900080926688 0.008833164419675188 0.008940897279406805 C 0.009692257058841311 0.009760900080926688 0.017610744783390614 0.015921965878917647 0.017061040621124346 0.014938207789772036 C 0.017610744783390614 0.015921965878917647 0.015293662179015908 0.02122997656243596 0.015429614366870403 0.02074599434915412" fill="none" stroke="none" stroke-width="0"/>
<path d="M 0.015429614366870403 0.02074599434915412 C 0.015457118980889075 0.02029148849754618 0.015109782244530042 0.014439197040803436 0.01575966973509446 0.015291924129858848 C 0.015109782244530042 0.014439197040803436 0.006733121584487385 0.00973561463517634 0.007630964480097369 0.010513269280489181 C 0.006733121584487385 0.00973561463517634 0.004962429992392443 0.005128502244282161 0.00498555498777465 0.005960068386104753 C 0.004962429992392443 0.005128502244282161 0.007550790331155576 8.234284466085922E-05 0.00735346453551089 0.0005344755786180818" fill="none" stroke="none" stroke-width="0"/>
</g></g>
<g transform="translate(0.3373434528286706,0.2381620707852589) rotate(0) scale(1,1) translate(-0.05000000000000001,-0.05000000000000001)"><path d="M 0.05 0.06515922909817279 C 0.04992361215082804 0.06497740323495042 0.04883387854070388 0.06255323339119145 0.04908334580993642 0.06297731873950446 C 0.04883387854070388 0.06255323339119145 0.04686690855353856 0.05967739376600373 0.047006392769209565 0.06007020491841666 C 0.04686690855353856 0.05967739376600373 0.04756370674630194 0.05809760450695999 0.04740953522188439 0.05826358491054933 C 0.04756370674630194 0.05809760450695999 0.049072323127063146 0.05816240891038569 0.048856451062220176 0.058078440075344594 C 0.049072323127063146 0.05816240891038569 0.050095295744814985 0.05937060850235063 0.05 0.05927121093104248" fill="none" stroke="none" stroke-width="0"/>
<path d="M 0.05 0.05927121093104248 C 0.050095295744814985 0.059171813359734315 0.05135942100262281 0.05799447124030347 0.05114354893777984 0.058078440075344566 C 0.05135942100262281 0.05799447124030347 0.052744636302533184 0.05842956531413864 0.05259046477811563 0.0582635849105493 C 0.052744636302533184 0.05842956531413864 0.05285412301511945 0.06046301607082959 0.052993607230790454 0.06007020491841666 C 0.05285412301511945 0.06046301607082959 0.05066718692083106 0.0634014040878175 0.050916654190063595 0.06297731873950449 C 0.05066718692083106 0.0634014040878175 0.04992361215082804 0.06534105496139514 0.05 0.06515922909817279" fill="none" stroke="none" stroke-width="0"/>
</g><g transform="translate(0.3373434528286706,0.23816207078525886) rotate(0) scale(1,1) translate(-0.05000000000000001,-0.05000000000000001)"><path d="M 0.05 0.0656386684970906 C 0.04991643737129149 0.0656836383518269 0.04877947871007955 0.06612966849750215 0.04899724845549789 0.06617830675392619 C 0.04877947871007955 0.06612966849750215 0.04725255593827014 0.0649614013088419 0.04738676305497996 0.06505500942000222" fill="none" stroke="none" stroke-width="0"/>
<path d="M 0.04738676305497996 0.06505500942000222 C 0.047491949497906326 0.0650149851388667 0.04853992404698214 0.06442115134970078 0.048649000370096285 0.06457471804637577 C 0.04853992404698214 0.06442115134970078 0.04586358441156966 0.06309866664436296 0.04607784717761017 0.06321220905990241" fill="none" stroke="none" stroke-width="0"/>
<path d="M 0.04607784717761017 0.06321220905990241 C 0.046217054408656026 0.06315748115188609 0.047621355181019745 0.062384334839783825 0.04774833395016047 0.06255547416370658 C 0.047621355181019745 0.062384334839783825 0.04428791594773493 0.06104212575692299 0.04455410194792151 0.06115853717282942" fill="none" stroke="none" stroke-width="0"/>
<path d="M 0.04455410194792151 0.06115853717282942 C 0.04474523241311344 0.061106678265180084 0.046773117353018895 0.06034213895417873 0.04684766753022465 0.06053623028103734 C 0.046773117353018895 0.06034213895417873 0.0433938191790547 0.058687208831316846 0.04365949982145239 0.05882944125052612" fill="none" stroke="none" stroke-width="0"/>
<path d="M 0.04365949982145239 0.05882944125052612 C 0.04385012492885543 0.05880340334617962 0.045898025855978186 0.058333653822885675 0.04594700111028884 0.058516986398368095 C 0.045898025855978186 0.058333653822885675 0.04283219640801081 0.056472155673601164 0.0430717967697245 0.056629450344737084" fill="none" stroke="none" stroke-width="0"/>
<path d="M 0.0430717967697245 0.056629450344737084 C 0.04364914703891413 0.0567366442092687 0.05115470053837927 0.057915776719116525 0.05000000000000002 0.057915776719116525 C 0.05115470053837927 0.057915776719116525 0.057505553499465144 0.056522256480205466 0.05692820323027552 0.056629450344737084" fill="none" stroke="none" stroke-width="0"/>
<path d="M 0.05692820323027552 0.056629450344737084 C 0.056688602868561824 0.056786745015873004 0.05400402363540053 0.05870031897385054 0.054052998889711185 0.05851698639836812 C 0.05400402363540053 0.05870031897385054 0.056531125285950674 0.05885547915487264 0.05634050017854764 0.05882944125052614" fill="none" stroke="none" stroke-width="0"/>
<path d="M 0.05634050017854764 0.05882944125052614 C 0.05607481953614995 0.05897167366973541 0.05307778229256961 0.06073032160789597 0.05315233246977537 0.06053623028103736 C 0.05307778229256961 0.06073032160789597 0.05563702851727045 0.06121039608047876 0.055445898052078516 0.06115853717282942" fill="none" stroke="none" stroke-width="0"/>
<path d="M 0.055445898052078516 0.06115853717282942 C 0.055179712051891934 0.061274948588735854 0.052124687280698835 0.06272661348762935 0.05225166604983956 0.0625554741637066 C 0.052124687280698835 0.06272661348762935 0.05406136005343572 0.06326693696791873 0.05392215282238986 0.06321220905990241" fill="none" stroke="none" stroke-width="0"/>
<path d="M 0.05392215282238986 0.06321220905990241 C 0.05370789005634935 0.06332575147544185 0.05124192330678959 0.06472828474305076 0.051350999629903735 0.06457471804637577 C 0.05124192330678959 0.06472828474305076 0.052718423387946425 0.06509503370113776 0.05261323694502006 0.06505500942000222" fill="none" stroke="none" stroke-width="0"/>
<path d="M 0.05261323694502006 0.06505500942000222 C 0.052479029828310236 0.06514861753116256 0.0507849817990838 0.06622694501035029 0.05100275154450214 0.06617830675392625 C 0.0507849817990838 0.06622694501035029 0.0499164373712915 0.0655936986423543 0.05000000000000001 0.0656386684970906" fill="none" stroke="none" stroke-width="0"/>
</g><g id="獣性">
<g transform="translate(0.3373434528286706,0.23816207078525886) rotate(0) scale(1,1) translate(-0.028511229159074496,-0.0285112291590745)"><path d="M 0.02851122915907442 0.034730371389383584 C 0.028728652178515276 0.034446075664970974 0.03173659778515126 0.03065686253497225 0.031120305392364708 0.03131882269643224 C 0.03173659778515126 0.03065686253497225 0.03630560724585875 0.02640918501481633 0.03590673787251305 0.026786849451863708" fill="none" stroke="#000000" stroke-width="0.001"/>
<path d="M 0.03590673787251305 0.026786849451863708 C 0.03581983201900505 0.02708530115599533 0.0353921860334316 0.03019485434941115 0.034863867630417086 0.03036826990144318 C 0.0353921860334316 0.03019485434941115 0.04286178296520965 0.024233995571315683 0.04224655870868715 0.024705862827479337" fill="none" stroke="#000000" stroke-width="0.001"/>
<path d="M 0.04224655870868715 0.024705862827479337 C 0.04216233051462598 0.02498407711865217 0.04176688797014803 0.027989669635586252 0.041235820379953145 0.02804443432155331 C 0.04176688797014803 0.027989669635586252 0.04923466557528178 0.023715707618734764 0.04861936979102573 0.02404868659587465" fill="none" stroke="#000000" stroke-width="0.001"/>
<path d="M 0.04861936979102573 0.02404868659587465 C 0.04851758163230065 0.024298078668162477 0.048057274878270655 0.027155390943226124 0.04739791188632487 0.02704139146332858 C 0.048057274878270655 0.027155390943226124 0.05729287684504602 0.025281287762254894 0.05653172569437516 0.02541668035464518" fill="none" stroke="#000000" stroke-width="0.001"/>
<path d="M 0.05653172569437516 0.02541668035464518 C 0.05575055349476639 0.026238129393273718 0.045677574352982885 0.03677263050568358 0.04715765929906994 0.035274068818187634 C 0.045677574352982885 0.03677263050568358 0.037863190951941086 0.04479039428747554 0.038770706341330494 0.04339942060459649 C 0.037863190951941086 0.04479039428747554 0.036058871983485896 0.0526796140467479 0.03626747462639702 0.05196575301273625" fill="none" stroke="none" stroke-width="0"/>
<path d="M 0.03626747462639702 0.05196575301273625 C 0.03603570911252246 0.052253305910480385 0.03283993467095883 0.05581601798102853 0.03348628845990238 0.055416387785665856 C 0.03283993467095883 0.05581601798102853 0.027682052608936445 0.05676131535708832 0.028511229159074433 0.05676131535708832 C 0.027682052608936445 0.05676131535708832 0.022889816069302998 0.05501675759030318 0.023536169858246542 0.055416387785665856 C 0.022889816069302998 0.05501675759030318 0.020523218177877348 0.05167820011499212 0.0207549836917519 0.05196575301273625" fill="none" stroke="none" stroke-width="0"/>
<path d="M 0.0207549836917519 0.05196575301273625 C 0.020546381048840774 0.05125189197872461 0.017344236587428955 0.04200844692171744 0.01825175197681837 0.04339942060459649 C 0.017344236587428955 0.04200844692171744 0.008384714072991873 0.03377550713069169 0.009864799019078921 0.035274068818187634 C 0.008384714072991873 0.03377550713069169 -0.0002904395758349767 0.024595231316016635 0.0004907326237737847 0.025416680354645175" fill="none" stroke="none" stroke-width="0"/>
<path d="M 0.0004907326237737847 0.025416680354645175 C 0.0012518837744446378 0.02555207294703546 0.010283909423769805 0.026927391983431033 0.009624546431824024 0.02704139146332858 C 0.010283909423769805 0.026927391983431033 0.008301300368398094 0.023799294523586825 0.008403088527123166 0.02404868659587465" fill="none" stroke="#000000" stroke-width="0.001"/>
<path d="M 0.008403088527123166 0.02404868659587465 C 0.009018384311379213 0.02438166557301454 0.01631770552839061 0.028099199007520365 0.01578663793819573 0.02804443432155331 C 0.01631770552839061 0.028099199007520365 0.014691671415400573 0.024427648536306506 0.014775899609461738 0.024705862827479337" fill="none" stroke="#000000" stroke-width="0.001"/>
<path d="M 0.014775899609461738 0.024705862827479337 C 0.015391123865984244 0.02517773008364299 0.022686909090746315 0.03054168545347521 0.022158590687731808 0.03036826990144318 C 0.022686909090746315 0.03054168545347521 0.021028814592127843 0.026488397747732085 0.021115720445635842 0.026786849451863708" fill="none" stroke="#000000" stroke-width="0.001"/>
<path d="M 0.021115720445635842 0.026786849451863708 C 0.021514589818981536 0.027164513888911085 0.02651844531857073 0.03198078285789223 0.025902152925784183 0.03131882269643224 C 0.02651844531857073 0.03198078285789223 0.028728652178515272 0.035014667113796194 0.02851122915907442 0.034730371389383584" fill="none" stroke="#000000" stroke-width="0.001"/>
</g></g>
<g id="鱗">
<g transform="translate(0.3373434528286706,0.23816207078525886) rotate(0) scale(1,1) translate(-0.015058466988291021,-0.015058466988291016)"><path d="M 0.015058466988291 0.01808600334473779 C 0.015886498031570283 0.017994336295366672 0.02601736459867024 0.01702836584600999 0.02499483950764238 0.01698599875228438 C 0.02601736459867024 0.01702836584600999 0.027523262128373905 0.018728442612541866 0.027328768080625326 0.018594408469445135" fill="none" stroke="#000000" stroke-width="0.001"/>
<path d="M 0.027328768080625326 0.018594408469445135 C 0.027153349142000988 0.018814017580237832 0.024848347242383394 0.021737088182229945 0.025223740817133262 0.02122971779895752 C 0.024848347242383394 0.021737088182229945 0.02262407054750141 0.024970614341193943 0.022824045183626934 0.02468285306871422" fill="none" stroke="#000000" stroke-width="0.001"/>
<path d="M 0.022824045183626934 0.02468285306871422 C 0.02217691366734894 0.024765609265048463 0.013764203955735013 0.025675927424725156 0.015058466988291 0.025675927424725156 C 0.013764203955735013 0.025675927424725156 0.0066457572766770966 0.024600096872379976 0.00729288879295509 0.02468285306871422" fill="none" stroke="#000000" stroke-width="0.001"/>
<path d="M 0.00729288879295509 0.02468285306871422 C 0.007092914156829562 0.024395091796234496 0.004517799584698896 0.020722347415685096 0.004893193159448762 0.02122971779895752 C 0.004517799584698896 0.020722347415685096 0.0026127469573323657 0.01837479935865244 0.002788165895956704 0.018594408469445135" fill="none" stroke="#000000" stroke-width="0.001"/>
<path d="M 0.002788165895956704 0.018594408469445135 C 0.002982659943705283 0.018460374326348405 0.006144619559967514 0.016943631658558767 0.005122094468939656 0.01698599875228438 C 0.006144619559967514 0.016943631658558767 0.01588649803157028 0.01817767039410891 0.015058466988291 0.01808600334473779" fill="none" stroke="#000000" stroke-width="0.001"/>
</g><g transform="translate(0.3373434528286706,0.24778645686568207) rotate(0) scale(1,1) translate(-0.015058466988291021,-0.015058466988291016)"><path d="M 0.015058466988291 0.013615209117313275 C 0.015768400104022574 0.013542611956378247 0.024454351826989906 0.012786363548595478 0.023577664377069894 0.012744043186092947 C 0.024454351826989906 0.012786363548595478 0.02574547072151958 0.014237970990781213 0.02557871638733114 0.014123053467343653" fill="none" stroke="#000000" stroke-width="0.001"/>
<path d="M 0.02557871638733114 0.014123053467343653 C 0.025428316574828098 0.014311340828709544 0.023452065571143467 0.01681750848609254 0.023773918637294632 0.016382501803734347 C 0.023452065571143467 0.01681750848609254 0.02154502633986902 0.019589852976634282 0.021716479593517145 0.01934313365564198" fill="none" stroke="#000000" stroke-width="0.001"/>
<path d="M 0.021716479593517145 0.01934313365564198 C 0.021161645209748302 0.019414086749474053 0.013948798220753312 0.020194570781626855 0.015058466988291 0.020194570781626855 C 0.013948798220753312 0.020194570781626855 0.007845619999296038 0.019272180561809907 0.008400454383064882 0.01934313365564198" fill="none" stroke="#000000" stroke-width="0.001"/>
<path d="M 0.008400454383064882 0.01934313365564198 C 0.008229001129416758 0.01909641433464968 0.0060211622731362255 0.015947495121376155 0.006343015339287392 0.016382501803734347 C 0.0060211622731362255 0.015947495121376155 0.004387817776747846 0.013934766105977762 0.004538217589250888 0.014123053467343653" fill="none" stroke="#000000" stroke-width="0.001"/>
<path d="M 0.004538217589250888 0.014123053467343653 C 0.004704971923439326 0.014008135943906094 0.0074159570494321545 0.012701722823590415 0.006539269599512145 0.012744043186092947 C 0.0074159570494321545 0.012701722823590415 0.01576840010402257 0.013687806278248303 0.015058466988291 0.013615209117313275" fill="none" stroke="#000000" stroke-width="0.001"/>
</g><g transform="translate(0.3373434528286706,0.252071123533033) rotate(0) scale(1,1) translate(-0.015058466988291021,-0.015058466988291016)"><path d="M 0.015058466988291 0.013749103264927062 C 0.01566714589339136 0.013692856149589927 0.023114263751870482 0.013116418177201598 0.02236261384949531 0.013074137880881456 C 0.023114263751870482 0.013116418177201598 0.02422123681406785 0.014354994232426052 0.02407826581679304 0.014256466820768775" fill="none" stroke="#000000" stroke-width="0.001"/>
<path d="M 0.02407826581679304 0.014256466820768775 C 0.023949316777548246 0.014417899697219856 0.022254928573264138 0.016566625192468598 0.022530877345855495 0.01619366133818174 C 0.022254928573264138 0.016566625192468598 0.020619880812350208 0.01894356405004684 0.020766880545696767 0.018732033072211066" fill="none" stroke="#000000" stroke-width="0.001"/>
<path d="M 0.020766880545696767 0.018732033072211066 C 0.020291179415912953 0.01865599094875477 0.014107064728723376 0.01781952759073551 0.015058466988291 0.01781952759073551 C 0.014107064728723376 0.01781952759073551 0.008874352301101448 0.01880807519566736 0.00935005343088526 0.018732033072211066" fill="none" stroke="#000000" stroke-width="0.001"/>
<path d="M 0.00935005343088526 0.018732033072211066 C 0.0092030536975387 0.01852050209437529 0.007310107858135182 0.015820697483894884 0.007586056630726538 0.01619366133818174 C 0.007310107858135182 0.015820697483894884 0.005909719120544197 0.014095033944317693 0.0060386681597889924 0.014256466820768775" fill="none" stroke="#000000" stroke-width="0.001"/>
<path d="M 0.0060386681597889924 0.014256466820768775 C 0.006181639157063805 0.014157939409111498 0.008505970029461903 0.013031857584561313 0.0077543201270867355 0.013074137880881456 C 0.008505970029461903 0.013031857584561313 0.015667145893391354 0.013805350380264196 0.015058466988291 0.013749103264927062" fill="none" stroke="#000000" stroke-width="0.001"/>
</g><g transform="translate(0.3373434528286706,0.25574468961695307) rotate(0) scale(1,1) translate(-0.015058466988291021,-0.015058466988291016)"><path d="M 0.015058466988291 0.013863900759737435 C 0.015580333064551422 0.013821671764744794 0.021965305738464953 0.013399398764402765 0.02132085990341604 0.013357152819825748 C 0.021965305738464953 0.013399398764402765 0.022914396767666427 0.014455327034231294 0.022791817008877936 0.014370852094661636" fill="none" stroke="#000000" stroke-width="0.001"/>
<path d="M 0.022791817008877936 0.014370852094661636 C 0.02268125932635543 0.014509260607108882 0.02122853323970735 0.01635152412859777 0.02146512481860786 0.016031754244028577 C 0.02122853323970735 0.01635152412859777 0.01982668416569377 0.0183894520816139 0.019952718062071776 0.01820809070949195" fill="none" stroke="#000000" stroke-width="0.001"/>
<path d="M 0.019952718062071776 0.01820809070949195 C 0.019764045153719708 0.018396358979936387 0.017280788905698556 0.02068689291478776 0.017688643161846953 0.020467309954825173 C 0.017280788905698556 0.02068689291478776 0.01462010429269836 0.020843086229043014 0.015058466988291016 0.020843086229043014 C 0.01462010429269836 0.020843086229043014 0.012020436558586685 0.020247726994862585 0.012428290814735081 0.020467309954825173 C 0.012020436558586685 0.020247726994862585 0.009975543006158192 0.018019822439047515 0.01016421591451026 0.01820809070949195" fill="none" stroke="#000000" stroke-width="0.001"/>
<path d="M 0.01016421591451026 0.01820809070949195 C 0.010038182018132252 0.018026729337370002 0.008415217579073661 0.015711984359459384 0.008651809157974175 0.016031754244028577 C 0.008415217579073661 0.015711984359459384 0.007214559285181591 0.01423244358221439 0.007325116967704097 0.014370852094661636" fill="none" stroke="#000000" stroke-width="0.001"/>
<path d="M 0.007325116967704097 0.014370852094661636 C 0.0074476967264925885 0.014286377155091979 0.009440519908214906 0.01331490687524873 0.008796074073165997 0.013357152819825748 C 0.009440519908214906 0.01331490687524873 0.015580333064551418 0.013906129754730075 0.015058466988291 0.013863900759737435" fill="none" stroke="#000000" stroke-width="0.001"/>
</g></g>
<g id="虫性">
<g id="腹板2">
<g transform="translate(0.3373434528286705,0.2233366838308004) rotate(0) scale(1,1) translate(-0.03764899741035618,-0.03764899741035618)"><path d="M 0.02883976798464411 0.03510658765853278 C 0.029573870436786786 0.03490039862000455 0.03911720231464154 0.032632319196194 0.03764899741035619 0.032632319196194 C 0.03911720231464154 0.032632319196194 0.04719232928821101 0.03531277669706101 0.04645822683606833 0.03510658765853278" fill="none" stroke="#000000" stroke-width="0.001"/>
<path d="M 0.04645822683606833 0.03510658765853278 C 0.04633071334712363 0.03561907959380413 0.044608809237652154 0.04233938311681973 0.04492806496873197 0.04125649088178896 C 0.044608809237652154 0.04233938311681973 0.0424354158209754 0.04867169477866141 0.04262715806311052 0.04810129447890199" fill="none" stroke="#000000" stroke-width="0.001"/>
<path d="M 0.04262715806311052 0.04810129447890199 C 0.04221231134204766 0.048303276382257156 0.03681930396823047 0.05052507731916394 0.03764899741035619 0.05052507731916394 C 0.03681930396823047 0.05052507731916394 0.03225599003653908 0.047899312575546825 0.032670836757601934 0.04810129447890199" fill="none" stroke="#000000" stroke-width="0.001"/>
<path d="M 0.032670836757601934 0.04810129447890199 C 0.032479094515466815 0.04753089417914257 0.03005067412090065 0.040173598646758193 0.03036992985198047 0.04125649088178896 C 0.03005067412090065 0.040173598646758193 0.028712254495699415 0.03459409572326143 0.02883976798464411 0.03510658765853278" fill="none" stroke="#000000" stroke-width="0.001"/>
</g><g transform="translate(0.3373434528286705,0.22726638467812318) rotate(0) scale(1,1) translate(-0.011152769902399133,-0.011152769902399133)"><path d="M 0.010133122315786119 0.002276707077658753 C 0.01021809294800387 0.0022708474336764423 0.011322711166834634 0.002206391349871028 0.011152769902399133 0.002206391349871028 C 0.011322711166834634 0.002206391349871028 0.012257388121229888 0.0022825667216410613 0.012172417489012138 0.002276707077658751" fill="none" stroke="#000000" stroke-width="0.001"/>
<path d="M 0.012172417489012138 0.002276707077658751 C 0.012131996680953291 0.0023137298730949553 0.011640777950030162 0.0028398097135417444 0.011687367792305984 0.0027209806228932 C 0.011640777950030162 0.0028398097135417444 0.011607170347485311 0.003784462460653619 0.011613339381702286 0.003702656165441279" fill="none" stroke="#000000" stroke-width="0.001"/>
<path d="M 0.011613339381702286 0.003702656165441279 C 0.011613339381702286 0.0043234989768544336 0.011613339381702286 0.012378662790614553 0.011613339381702286 0.01115276990239913 C 0.011613339381702286 0.012378662790614553 0.011613339381702286 0.01901842090082864 0.011613339381702286 0.01841337082402637" fill="none" stroke="#000000" stroke-width="0.001"/>
<path d="M 0.011613339381702286 0.01841337082402637 C 0.011628549418310322 0.018490367507199762 0.011895391399474512 0.019440367955666487 0.01179585982099871 0.019337331022107055 C 0.011895391399474512 0.019440367955666487 0.012892039865279675 0.019675854277125607 0.01280771832341191 0.019649814026739564" fill="none" stroke="#000000" stroke-width="0.001"/>
<path d="M 0.01280771832341191 0.019649814026739564 C 0.012673301471422798 0.01970766943900993 0.01091889136270712 0.020344078973983944 0.011194716099542583 0.020344078973983944 C 0.01091889136270712 0.020344078973983944 0.009356413596539999 0.019591958614469197 0.009497821481386351 0.019649814026739564" fill="none" stroke="#000000" stroke-width="0.001"/>
<path d="M 0.009497821481386351 0.019649814026739564 C 0.009582143023254117 0.01962377377635352 0.01060921156227535 0.019234294088547623 0.010509679983799548 0.019337331022107055 C 0.01060921156227535 0.019234294088547623 0.010707410459704006 0.018336374140852995 0.01069220042309597 0.018413370824026384" fill="none" stroke="#000000" stroke-width="0.001"/>
<path d="M 0.01069220042309597 0.018413370824026384 C 0.01069220042309597 0.01780832074722411 0.01069220042309597 0.009926877014183712 0.01069220042309597 0.011152769902399136 C 0.01069220042309597 0.009926877014183712 0.01069220042309597 0.0030818133540281337 0.01069220042309597 0.0037026561654412878" fill="none" stroke="#000000" stroke-width="0.001"/>
<path d="M 0.01069220042309597 0.0037026561654412878 C 0.010686031388878995 0.0036208498702289477 0.010571582170216457 0.0026021515322446624 0.010618172012492278 0.002720980622893207 C 0.010571582170216457 0.0026021515322446624 0.010092701507727272 0.0022396842822225483 0.010133122315786119 0.002276707077658753" fill="none" stroke="#000000" stroke-width="0.001"/>
</g></g>
<g id="腹板1">
<g transform="translate(0.3373434528286706,0.23816207078525886) rotate(0) scale(1,1) translate(-0.5000000158677831,-0.5162142508926452)"><path d="M 0.5000000158677831 0.5031992074022252 C 0.5008979041908314 0.5036060440633783 0.5086762209037895 0.506252096473191 0.5071831224521689 0.5064539006914499 C 0.5086762209037895 0.506252096473191 0.51254001360932 0.5009761327767425 0.5119448034807477 0.5015847736561544" fill="none" stroke="#000000" stroke-width="0.001"/>
<path d="M 0.5119448034807477 0.5015847736561544 C 0.5118241100906331 0.5009321648654768 0.5095010838316265 0.4927901325156792 0.5104964827993735 0.49375346816802246 C 0.5095010838316265 0.4927901325156792 0.49912531029015056 0.4897140189663699 0.5000000158677831 0.49002474582803546" fill="none" stroke="#000000" stroke-width="0.001"/>
<path d="M 0.5000000158677831 0.49002474582803546 C 0.49912531029015056 0.490335472689701 0.4885081499684456 0.4947168038203657 0.48950354893619263 0.49375346816802246 C 0.4885081499684456 0.4947168038203657 0.48793453486470395 0.502237382446832 0.48805522825481845 0.5015847736561544" fill="none" stroke="#000000" stroke-width="0.001"/>
<path d="M 0.48805522825481845 0.5015847736561544 C 0.4886504383833908 0.5021934145355663 0.4943100077350177 0.5066557049097088 0.4928169092833971 0.5064539006914499 C 0.4943100077350177 0.5066557049097088 0.5008979041908314 0.5027923707410722 0.5000000158677831 0.5031992074022252" fill="none" stroke="#000000" stroke-width="0.001"/>
</g><g transform="translate(0.3373434528286706,0.21855979650774338) rotate(0) scale(1,1) translate(-0.011152769902399133,-0.011152769902399133)"><path d="M 0.010133122315786119 0.004864502173448705 C 0.010303063580221622 0.004814674985643374 0.011492652431270137 0.004565539046616721 0.011152769902399133 0.004565539046616721 C 0.011492652431270137 0.004565539046616721 0.012342358753447639 0.004914329361254033 0.012172417489012138 0.004864502173448703" fill="none" stroke="#000000" stroke-width="0.001"/>
<path d="M 0.012172417489012138 0.004864502173448703 C 0.012131996680953291 0.004901306912114655 0.011640777950030162 0.005424770071318417 0.011687367792305984 0.005306159037440125 C 0.011640777950030162 0.005424770071318417 0.011607170347485311 0.006369640875200545 0.011613339381702286 0.006287834579988205" fill="none" stroke="#000000" stroke-width="0.001"/>
<path d="M 0.011613339381702286 0.006287834579988205 C 0.011613339381702286 0.006693245856855782 0.011613339381702286 0.011967323047020705 0.011613339381702286 0.01115276990239913 C 0.011613339381702286 0.011967323047020705 0.011613339381702286 0.016471614183201113 0.011613339381702286 0.016062472315447114" fill="none" stroke="#000000" stroke-width="0.001"/>
<path d="M 0.011613339381702286 0.016062472315447114 C 0.011625426226556065 0.016159100489647263 0.011857913098423432 0.01743367775639381 0.01175838151994763 0.017222010405848902 C 0.011857913098423432 0.01743367775639381 0.012895163057033933 0.018717519698330784 0.01280771832341191 0.018602480521986025" fill="none" stroke="#000000" stroke-width="0.001"/>
<path d="M 0.01280771832341191 0.018602480521986025 C 0.012531893586576446 0.01845873373546447 0.010601120428728206 0.01773999980285669 0.011152769902399133 0.01773999980285669 C 0.010601120428728206 0.01773999980285669 0.009221996744550888 0.01874622730850758 0.009497821481386351 0.018602480521986025" fill="none" stroke="#000000" stroke-width="0.001"/>
<path d="M 0.009497821481386351 0.018602480521986025 C 0.009585266215008374 0.018487441345641266 0.01064668986332643 0.017010343055303995 0.010547158284850628 0.017222010405848902 C 0.01064668986332643 0.017010343055303995 0.010704287267949749 0.01596584414124698 0.01069220042309597 0.016062472315447128" fill="none" stroke="#000000" stroke-width="0.001"/>
<path d="M 0.01069220042309597 0.016062472315447128 C 0.01069220042309597 0.01565333044769313 0.01069220042309597 0.01033821675777756 0.01069220042309597 0.011152769902399136 C 0.01069220042309597 0.01033821675777756 0.01069220042309597 0.005882423303120637 0.01069220042309597 0.006287834579988214" fill="none" stroke="#000000" stroke-width="0.001"/>
<path d="M 0.01069220042309597 0.006287834579988214 C 0.010686031388878995 0.006206028284775874 0.010571582170216457 0.005187548003561839 0.010618172012492278 0.005306159037440132 C 0.010571582170216457 0.005187548003561839 0.010092701507727272 0.004827697434782752 0.010133122315786119 0.004864502173448705" fill="none" stroke="#000000" stroke-width="0.001"/>
</g></g>
</g>
</svg>
