<?xml version="1.0" encoding="UTF-8"?>
<svg xmlns="http://www.w3.org/2000/svg" viewBox="0 0 1 1">
<g transform="translate(0.33522487505969484,0.25537420757193086) rotate(0) scale(1,1) translate(-0.018432339988539145,-0.01776796487153932)"><path d="M 0.020251246620687308 0.01729664322922053 C 0.02001222775137244 0.017767801766365422 0.017098349821253883 0.023980192826200893 0.017383020188908905 0.022950545674959275 C 0.017098349821253883 0.023980192826200893 0.01678955071048689 0.03021089765821668 0.016835202208827043 0.029652409044119955" fill="none" stroke="#000000" stroke-width="0.001"/>
<path d="M 0.016835202208827043 0.029652409044119955 C 0.016705549520464 0.02961523173398063 0.01502006457174443 0.029131926702169367 0.015279369948470517 0.02920628132244802 C 0.01502006457174443 0.029131926702169367 0.01359388499975095 0.02872297629063677 0.013723537688113992 0.028760153600776096" fill="none" stroke="#000000" stroke-width="0.001"/>
<path d="M 0.013723537688113992 0.028760153600776096 C 0.013785496264954284 0.0282160573738638 0.01475171097785252 0.02120135172658695 0.014467040610197499 0.02223099887782857 C 0.01475171097785252 0.02120135172658695 0.017362293890788985 0.015918836861547343 0.017139582099974255 0.01640438778587667" fill="none" stroke="#000000" stroke-width="0.001"/>
</g><g transform="translate(0.3394620305976466,0.25537420757193086) rotate(0) scale(1,1) translate(-0.018432339988539145,-0.01776796487153932)"><path d="M 0.019725097877103966 0.01640438778587667 C 0.019947809667918693 0.016889938710205995 0.022682309734535704 0.023260646029070187 0.022397639366880683 0.02223099887782857 C 0.022682309734535704 0.023260646029070187 0.023203100865804543 0.02930424982768839 0.023141142288964245 0.028760153600776096" fill="none" stroke="#000000" stroke-width="0.001"/>
<path d="M 0.023141142288964245 0.028760153600776096 C 0.023011489600601204 0.028797330910915422 0.02132600465188165 0.029280635942726674 0.021585310028607734 0.02920628132244802 C 0.02132600465188165 0.029280635942726674 0.019899825079888172 0.029689586354259282 0.020029477768251217 0.029652409044119955" fill="none" stroke="#000000" stroke-width="0.001"/>
<path d="M 0.020029477768251217 0.029652409044119955 C 0.019983826269911055 0.02909392043002323 0.019196989420514277 0.021920898523717657 0.0194816597881693 0.022950545674959275 C 0.019196989420514277 0.021920898523717657 0.016374414487076078 0.016825484692075635 0.01661343335639094 0.01729664322922053" fill="none" stroke="#000000" stroke-width="0.001"/>
</g><g transform="translate(0.33734345282867073,0.23965019150517888) rotate(0) scale(1,1) translate(-0.013432873520353284,-0.0039368765802043765)"><path d="M 0.04353281097774966 -0.007128967361787181 C 0.0429371287966629 -0.006594514810513161 0.03468241725141839 0.0007212354300634355 0.03638462480470854 -0.000715536746498938 C 0.03468241725141839 0.0007212354300634355 0.021458496619026976 0.011789562903275286 0.023106320338267927 0.0101122987569613 C 0.021458496619026976 0.011789562903275286 0.016069441826779572 0.020186577530294535 0.016610740173817137 0.019411633009268903" fill="none" stroke="#000000" stroke-width="0.001"/>
<path d="M 0.016610740173817137 0.019411633009268903 C 0.01634591795269515 0.019473947918690768 0.012903229078109304 0.02015941192233129 0.013432873520353283 0.02015941192233129 C 0.012903229078109304 0.02015941192233129 0.009990184645767406 0.019349318099847038 0.010255006866889396 0.019411633009268903" fill="none" stroke="#000000" stroke-width="0.001"/>
<path d="M 0.010255006866889396 0.019411633009268903 C 0.009713708519851831 0.01863668848824327 0.0021116029831976793 0.008435034610647313 0.003759426702438626 0.0101122987569613 C 0.0021116029831976793 0.008435034610647313 -0.011221085317292108 -0.0021523089230613113 -0.009518877764001964 -0.000715536746498938 C -0.011221085317292108 -0.0021523089230613113 -0.017262746118129856 -0.007663419913061201 -0.016667063937043095 -0.007128967361787181" fill="none" stroke="#000000" stroke-width="0.001"/>
<path d="M -0.016667063937043095 -0.007128967361787181 C -0.016516077455247077 -0.007412092099556052 -0.014474225494383418 -0.01108184059255247 -0.014855226155490873 -0.010526464215013633 C -0.014474225494383418 -0.01108184059255247 -0.011865041824442207 -0.014065735532023178 -0.012095056003753643 -0.013793483892253213" fill="none" stroke="#000000" stroke-width="0.001"/>
<path d="M -0.012095056003753643 -0.013793483892253213 C -0.010749350602283913 -0.01277783741716212 0.006962358333097888 -0.00059007971606899 0.004053408813883124 -0.001605726191160084 C 0.006962358333097888 -0.00059007971606899 0.025721287746038282 -0.002621372666251178 0.02281233822682352 -0.001605726191160084 C 0.025721287746038282 -0.002621372666251178 0.04030650844593 -0.014809130367344306 0.03896080304446027 -0.013793483892253213" fill="none" stroke="#000000" stroke-width="0.001"/>
<path d="M 0.03896080304446027 -0.013793483892253213 C 0.039190817223771705 -0.013521232252483247 0.042101973857304895 -0.009971087837474796 0.04172097319619745 -0.010526464215013633 C 0.042101973857304895 -0.009971087837474796 0.043683797459545676 -0.00684584262401831 0.04353281097774966 -0.007128967361787181" fill="none" stroke="#000000" stroke-width="0.001"/>
</g><g transform="translate(0.31355049992002176,0.22894434160817712) rotate(0) scale(1,1) translate(-0.00775832499658671,-0.0077583249965867095)"><path d="M 0.007432617727484476 0.014395138879583392 C 0.007000164743286479 0.01390943886578473 0.0022568606521358365 0.007549359621043782 0.002243181917108514 0.008566738713999449 C 0.0022568606521358365 0.007549359621043782 0.00859631007889734 0.001996452814320882 0.0075967625478123475 0.002186589764115382 C 0.00859631007889734 0.001996452814320882 0.014791168101988085 0.006626637445827954 0.014237752290128414 0.0062850953164654486" fill="none" stroke="#000000" stroke-width="0.001"/>
<path d="M 0.014237752290128414 0.0062850953164654486 C 0.014190060852699072 0.00634193175835784 0.013598687028575238 0.007046703637823493 0.013665455040976309 0.006967132619174145 C 0.013598687028575238 0.007046703637823493 0.013417459566343829 0.007262682117014583 0.013436536141315559 0.007239947540257627" fill="none" stroke="#000000" stroke-width="0.001"/>
<path d="M 0.013436536141315559 0.007239947540257627 C 0.012975916263675969 0.006946773905377906 0.007106833616598028 0.003835845888741302 0.007909097609640484 0.0037218639217009835 C 0.007106833616598028 0.003835845888741302 0.0038364295803608116 0.009417599705915635 0.003809368224806084 0.008607731144741448 C 0.0038364295803608116 0.009417599705915635 0.00860253934725481 0.013842999615045369 0.008233833876297215 0.013440286655791221" fill="none" stroke="#000000" stroke-width="0.001"/>
<path d="M 0.008233833876297215 0.013440286655791221 C 0.008214757301325485 0.013463021232548177 0.007938146964235403 0.013792672595524046 0.008004914976636465 0.013713101576874697 C 0.007938146964235403 0.013792672595524046 0.007384926290055144 0.014451975321475784 0.007432617727484476 0.014395138879583392" fill="none" stroke="#000000" stroke-width="0.001"/>
</g><g transform="translate(0.311057902104544,0.2268528037005364) rotate(0) scale(1,1) translate(-0.0022536622055164745,-0.002253662205516475)"><path d="M 0.0023853847726341003 0.003375171972979679 C 0.0022913085795185067 0.003281750275143846 0.001231100410980377 0.0020788091013897478 0.0012564704552469764 0.002254111598949683 C 0.001231100410980377 0.0020788091013897478 0.002257988962108552 0.0012660856593067276 0.0020809442414349076 0.0012715420022604575 C 0.002257988962108552 0.0012660856593067276 0.0034893456751553566 0.002265059940275297 0.0033810071033307065 0.002188635483504925" fill="none" stroke="#000000" stroke-width="0.001"/>
<path d="M 0.0033810071033307065 0.002188635483504925 C 0.0033597643160457047 0.0022550591193603244 0.003043125128352634 0.0030845971545592813 0.0031260936559106846 0.0029857191137697184 C 0.003043125128352634 0.0030845971545592813 0.002323659032361052 0.0034076263779138426 0.0023853847726341003 0.003375171972979679" fill="none" stroke="#000000" stroke-width="0.001"/>
</g><g transform="translate(0.31927100860494895,0.23376751559742948) rotate(0) scale(1,1) translate(-0.006469483550722008,-0.0064694835507220095)"><path d="M 0.009831251587256576 0.003077829158825733 C 0.009053372053813109 0.004466630989685029 0.003015255604880086 0.011766440507265406 0.004135844950391622 0.01063588904329996 C 0.003015255604880086 0.011766440507265406 0.003885595047630828 0.00847233611175912 0.0031077155141873603 0.009861137942618416 C 0.003885595047630828 0.00847233611175912 0.009923711496563964 0.0011725265941787372 0.008803122151052428 0.0023030780581441844 C 0.009923711496563964 0.0011725265941787372 0.009053372053813109 0.004466630989685029 0.009831251587256576 0.003077829158825733 Z" fill="#cccccc" stroke="#000000" stroke-width="0.001"/>
</g><g transform="translate(0.3252244492096958,0.23570348727530094) rotate(0) scale(1,1) translate(-0.029189151001757105,-0.02918915100175711)"><path d="M 0.029189151001757122 0.027971237135911747 C 0.029364941726331025 0.027971237135911747 0.03033179071148749 0.028732433302065097 0.03024389534920054 0.028580194068834427 C 0.03033179071148749 0.028732433302065097 0.03015599998691359 0.02995034716791046 0.03024389534920054 0.02979810793467979 C 0.03015599998691359 0.02995034716791046 0.02901336027718322 0.030407064867602474 0.029189151001757122 0.030407064867602474 C 0.02901336027718322 0.030407064867602474 0.02804651129202675 0.02964586870144912 0.0281344066543137 0.02979810793467979 C 0.02804651129202675 0.02964586870144912 0.028222302016600653 0.028427954835603758 0.0281344066543137 0.028580194068834427 C 0.028222302016600653 0.028427954835603758 0.029364941726331025 0.027971237135911747 0.029189151001757122 0.027971237135911747 Z" fill="#cccccc" stroke="#000000" stroke-width="0.001"/>
</g><g transform="translate(0.3232424168358924,0.23884318537411156) rotate(0) scale(1,1) translate(-0.029189151001757105,-0.02918915100175711)"><path d="M 0.029189151001757122 0.027971237135911747 C 0.029364941726331025 0.027971237135911747 0.03033179071148749 0.028732433302065097 0.03024389534920054 0.028580194068834427 C 0.03033179071148749 0.028732433302065097 0.03015599998691359 0.02995034716791046 0.03024389534920054 0.02979810793467979 C 0.03015599998691359 0.02995034716791046 0.02901336027718322 0.030407064867602474 0.029189151001757122 0.030407064867602474 C 0.02901336027718322 0.030407064867602474 0.02804651129202675 0.02964586870144912 0.0281344066543137 0.02979810793467979 C 0.02804651129202675 0.02964586870144912 0.028222302016600653 0.028427954835603758 0.0281344066543137 0.028580194068834427 C 0.028222302016600653 0.028427954835603758 0.029364941726331025 0.027971237135911747 0.029189151001757122 0.027971237135911747 Z" fill="#cccccc" stroke="#000000" stroke-width="0.001"/>
</g><g transform="translate(0.33576525189796097,0.25338830849374416) rotate(0) scale(1,1) translate(-0.029189151001757105,-0.02918915100175711)"><path d="M 0.029189151001757122 0.027971237135911747 C 0.029364941726331025 0.027971237135911747 0.03033179071148749 0.028732433302065097 0.03024389534920054 0.028580194068834427 C 0.03033179071148749 0.028732433302065097 0.03015599998691359 0.02995034716791046 0.03024389534920054 0.02979810793467979 C 0.03015599998691359 0.02995034716791046 0.02901336027718322 0.030407064867602474 0.029189151001757122 0.030407064867602474 C 0.02901336027718322 0.030407064867602474 0.02804651129202675 0.02964586870144912 0.0281344066543137 0.02979810793467979 C 0.02804651129202675 0.02964586870144912 0.028222302016600653 0.028427954835603758 0.0281344066543137 0.028580194068834427 C 0.028222302016600653 0.028427954835603758 0.029364941726331025 0.027971237135911747 0.029189151001757122 0.027971237135911747 Z" fill="#cccccc" stroke="#000000" stroke-width="0.001"/>
</g><g transform="translate(0.36113640573731975,0.22894434160817712) rotate(0) scale(1,1) translate(-0.00775832499658671,-0.0077583249965867095)"><path d="M 0.008084032265688934 0.014395138879583392 C 0.0080363408282596 0.014338302437691 0.0074449670041358525 0.01363353055822535 0.0075117350165369206 0.013713101576874697 C 0.0074449670041358525 0.01363353055822535 0.0072637395419043824 0.013417552079034265 0.0072828161168761165 0.013440286655791221" fill="none" stroke="#000000" stroke-width="0.001"/>
<path d="M 0.0072828161168761165 0.013440286655791221 C 0.0076515215878337145 0.013037573696537073 0.01173434312392202 0.007797862583567262 0.01170728176836729 0.008607731144741448 C 0.01173434312392202 0.007797862583567262 0.006805288390490419 0.003607881954660665 0.007607552383532876 0.0037218639217009835 C 0.006805288390490419 0.003607881954660665 0.0016194939742182274 0.007533121175137348 0.002080113851857816 0.007239947540257627" fill="none" stroke="#000000" stroke-width="0.001"/>
<path d="M 0.002080113851857816 0.007239947540257627 C 0.0020610372768860817 0.0072172129635006705 0.0017844269397959394 0.006887561600524797 0.0018511949521970079 0.006967132619174145 C 0.0017844269397959394 0.006887561600524797 0.001231206265615659 0.006228258874573057 0.0012788977030449935 0.0062850953164654486" fill="none" stroke="#000000" stroke-width="0.001"/>
<path d="M 0.0012788977030449935 0.0062850953164654486 C 0.0018323135149046588 0.005943553187102943 0.008919434976445963 0.002376726713909882 0.007919887445360978 0.002186589764115382 C 0.008919434976445963 0.002376726713909882 0.013287146811092141 0.009584117806955117 0.01327346807606481 0.008566738713999449 C 0.013287146811092141 0.009584117806955117 0.007651579281490945 0.014880838893382054 0.008084032265688934 0.014395138879583392" fill="none" stroke="#000000" stroke-width="0.001"/>
</g><g transform="translate(0.3636290035527976,0.2268528037005364) rotate(0) scale(1,1) translate(-0.0022536622055164745,-0.002253662205516475)"><path d="M 0.00212193963839886 0.003375171972979679 C 0.0020602138981258102 0.003342717568045516 0.001298262227564206 0.0028868410729801556 0.0013812307551222603 0.0029857191137697184 C 0.001298262227564206 0.0028868410729801556 0.001105074520417205 0.0021222118476495254 0.0011263173077022091 0.002188635483504925" fill="none" stroke="#000000" stroke-width="0.001"/>
<path d="M 0.0011263173077022091 0.002188635483504925 C 0.0012346558795268672 0.0021122110267345526 0.0026034248902717587 0.0012769983452141874 0.0024263801695981056 0.0012715420022604575 C 0.0026034248902717587 0.0012769983452141874 0.0032254839115194397 0.002429414096509618 0.0032508539557860434 0.002254111598949683 C 0.0032254839115194397 0.002429414096509618 0.002027863445283261 0.0034685936708155124 0.00212193963839886 0.003375171972979679" fill="none" stroke="#000000" stroke-width="0.001"/>
</g><g transform="translate(0.35541589705239257,0.23376751559742948) rotate(0) scale(1,1) translate(-0.006469483550722008,-0.0064694835507220095)"><path d="M 0.004135844950391505 0.002303078058144182 C 0.005256434295903033 0.0034336295221096286 0.010609131120699989 0.011249939773477706 0.009831251587256513 0.00986113794261841 C 0.010609131120699989 0.011249939773477706 0.0076825328055408265 0.00950533757933451 0.008803122151052355 0.010635889043299956 C 0.0076825328055408265 0.00950533757933451 0.0023298359807438686 0.0016890273279664345 0.003107715514187344 0.00307782915882573 C 0.0023298359807438686 0.0016890273279664345 0.005256434295903033 0.0034336295221096286 0.004135844950391505 0.002303078058144182 Z" fill="#cccccc" stroke="#000000" stroke-width="0.001"/>
</g><g transform="translate(0.34946245644764573,0.23570348727530094) rotate(0) scale(1,1) translate(-0.029189151001757105,-0.02918915100175711)"><path d="M 0.030243895349200505 0.028580194068834427 C 0.030331790711487457 0.028732433302065097 0.030155999986913554 0.02995034716791046 0.030243895349200505 0.02979810793467979 C 0.030155999986913554 0.02995034716791046 0.029013360277183205 0.030407064867602474 0.029189151001757105 0.030407064867602474 C 0.029013360277183205 0.030407064867602474 0.02804651129202676 0.02964586870144912 0.028134406654313708 0.02979810793467979 C 0.02804651129202676 0.02964586870144912 0.028222302016600656 0.028427954835603758 0.028134406654313708 0.028580194068834427 C 0.028222302016600656 0.028427954835603758 0.029364941726331004 0.027971237135911747 0.029189151001757105 0.027971237135911747 C 0.029364941726331004 0.027971237135911747 0.030331790711487457 0.028732433302065097 0.030243895349200505 0.028580194068834427 Z" fill="#cccccc" stroke="#000000" stroke-width="0.001"/>
</g><g transform="translate(0.3514444888214491,0.23884318537411156) rotate(0) scale(1,1) translate(-0.029189151001757105,-0.02918915100175711)"><path d="M 0.030243895349200505 0.028580194068834427 C 0.030331790711487457 0.028732433302065097 0.030155999986913554 0.02995034716791046 0.030243895349200505 0.02979810793467979 C 0.030155999986913554 0.02995034716791046 0.029013360277183205 0.030407064867602474 0.029189151001757105 0.030407064867602474 C 0.029013360277183205 0.030407064867602474 0.02804651129202676 0.02964586870144912 0.028134406654313708 0.02979810793467979 C 0.02804651129202676 0.02964586870144912 0.028222302016600656 0.028427954835603758 0.028134406654313708 0.028580194068834427 C 0.028222302016600656 0.028427954835603758 0.029364941726331004 0.027971237135911747 0.029189151001757105 0.027971237135911747 C 0.029364941726331004 0.027971237135911747 0.030331790711487457 0.028732433302065097 0.030243895349200505 0.028580194068834427 Z" fill="#cccccc" stroke="#000000" stroke-width="0.001"/>
</g><g transform="translate(0.3389216537593805,0.25338830849374416) rotate(0) scale(1,1) translate(-0.029189151001757105,-0.02918915100175711)"><path d="M 0.030243895349200505 0.028580194068834427 C 0.030331790711487457 0.028732433302065097 0.030155999986913554 0.02995034716791046 0.030243895349200505 0.02979810793467979 C 0.030155999986913554 0.02995034716791046 0.029013360277183205 0.030407064867602474 0.029189151001757105 0.030407064867602474 C 0.029013360277183205 0.030407064867602474 0.02804651129202676 0.02964586870144912 0.028134406654313708 0.02979810793467979 C 0.02804651129202676 0.02964586870144912 0.028222302016600656 0.028427954835603758 0.028134406654313708 0.028580194068834427 C 0.028222302016600656 0.028427954835603758 0.029364941726331004 0.027971237135911747 0.029189151001757105 0.027971237135911747 C 0.029364941726331004 0.027971237135911747 0.030331790711487457 0.028732433302065097 0.030243895349200505 0.028580194068834427 Z" fill="#cccccc" stroke="#000000" stroke-width="0.001"/>
</g><g transform="translate(0.33734345282867073,0.27532111180148655) rotate(0) scale(1,1) translate(-0.007606109943618106,-0.016121803466892737)"><path d="M 0.014226909884716607 0.01811404503953991 C 0.014164770311696094 0.01817618461256042 0.01335695586242943 0.018859719915786062 0.013481235008470455 0.018859719915786062 C 0.01335695586242943 0.018859719915786062 0.01267342055920379 0.018051905466519396 0.012735560132224303 0.01811404503953991" fill="none" stroke="none" stroke-width="0"/>
<path d="M 0.012735560132224303 0.01811404503953991 C 0.01269013503229486 0.01806579471781126 0.011983569344280461 0.01743680562247321 0.012190458933070993 0.017535041178796132 C 0.011983569344280461 0.01743680562247321 0.009870855984283514 0.016869836145635475 0.01025288506673792 0.016935218363664857 C 0.009870855984283514 0.016869836145635475 0.007164980756431474 0.016750454562443562 0.007606109943618109 0.016750454562443562 C 0.007164980756431474 0.016750454562443562 0.004577305738043896 0.01700060058169424 0.004959334820498303 0.016935218363664857 C 0.004577305738043896 0.01700060058169424 0.002814871365374698 0.017633276735119052 0.00302176095416523 0.017535041178796132 C 0.002814871365374698 0.017633276735119052 0.0024312346550824787 0.018162295361268555 0.002476659755011921 0.01811404503953991" fill="none" stroke="#000000" stroke-width="0.001"/>
<path d="M 0.002476659755011921 0.01811404503953991 C 0.002414520181991408 0.01817618461256042 0.0016067057327247404 0.018859719915786062 0.0017309848787657662 0.018859719915786062 C 0.0016067057327247404 0.018859719915786062 0.0009231704294990985 0.018051905466519396 0.0009853100025196113 0.01811404503953991" fill="none" stroke="none" stroke-width="0"/>
<path d="M 0.0009853100025196113 0.01811404503953991 C 0.0010592282524140018 0.01800974232878665 0.002148195665464733 0.016681012180120428 0.001872329001252296 0.016862412510500812 C 0.002148195665464733 0.016681012180120428 0.00477352505159934 0.015829243110784406 0.004295709973068856 0.0159372410749753 C 0.00477352505159934 0.015829243110784406 0.008157843272042978 0.015566436940210064 0.007606109943618104 0.015566436940210064 C 0.008157843272042978 0.015566436940210064 0.011394324992697834 0.016045239039166197 0.01091650991416735 0.0159372410749753 C 0.011394324992697834 0.016045239039166197 0.013615757550196356 0.017043812840881196 0.013339890885983918 0.016862412510500812 C 0.013615757550196356 0.017043812840881196 0.014300828134610997 0.018218347750293167 0.014226909884716607 0.01811404503953991" fill="none" stroke="#000000" stroke-width="0.001"/>
</g><g transform="translate(0.33734345282867073,0.2773133533741337) rotate(0) scale(1,1) translate(-0.007606109943618107,-0.001029294317343837)"><path d="M 0.014226909884716607 0.0010292943173438964 C 0.014152991634822216 0.0011335970280971432 0.01306402422177148 0.002462327176763232 0.013339890885983918 0.0022809268463828587 C 0.01306402422177148 0.002462327176763232 0.010438694835636867 0.0033140962460993014 0.01091650991416735 0.0032060982819083726 C 0.010438694835636867 0.0033140962460993014 0.007054376615193229 0.0035769024166740016 0.007606109943618104 0.0035769024166740016 C 0.007054376615193229 0.0035769024166740016 0.0038178948945383714 0.003098100317717444 0.0042957099730688555 0.0032060982819083726 C 0.0038178948945383714 0.003098100317717444 0.001596462337039859 0.0020995265160024855 0.001872329001252296 0.0022809268463828587 C 0.001596462337039859 0.0020995265160024855 0.0009113917526252209 0.0009249916065906496 0.0009853100025196113 0.0010292943173438964" fill="none" stroke="#000000" stroke-width="0.001"/>
<path d="M 0.002476659755011919 0.0010292943173438964 C 0.0025220848549413616 0.0010775446390725591 0.003228650542955764 0.001706533734410948 0.003021760954165232 0.0016082981780878496 C 0.003228650542955764 0.001706533734410948 0.005341363902952708 0.00227350321125047 0.004959334820498301 0.0022081209932210757 C 0.005341363902952708 0.00227350321125047 0.008047239130804745 0.00239288479444058 0.0076061099436181105 0.00239288479444058 C 0.008047239130804745 0.00239288479444058 0.010634914149192327 0.0021427387751916816 0.01025288506673792 0.0022081209932210757 C 0.010634914149192327 0.0021427387751916816 0.012397348521861525 0.0015100626217647512 0.012190458933070993 0.0016082981780878496 C 0.012397348521861525 0.0015100626217647512 0.012780985232153739 0.0009810439956152337 0.012735560132224297 0.0010292943173438964" fill="none" stroke="#000000" stroke-width="0.001"/>
</g><g transform="translate(0.33734345282867073,0.26649832226982) rotate(0) scale(1,1) translate(-0.007606109943618106,-0.016121803466892737)"><path d="M 0.014226909884716607 0.019993967277777597 C 0.014171607814097487 0.020049269348396716 0.013452680896048928 0.020657592125207035 0.013563285037287168 0.020657592125207035 C 0.013452680896048928 0.020657592125207035 0.012844358119238609 0.01993866520715848 0.012899660189857729 0.019993967277777597" fill="none" stroke="none" stroke-width="0"/>
<path d="M 0.012899660189857729 0.019993967277777597 C 0.012840560085125501 0.019864092960517207 0.011969894339477675 0.01820546421227058 0.012190458933070993 0.018435475470652916 C 0.011969894339477675 0.01820546421227058 0.009870855984283514 0.017104499784329902 0.01025288506673792 0.017233832177189566 C 0.009870855984283514 0.017104499784329902 0.007164980756431474 0.016883486756336955 0.007606109943618109 0.016883486756336955 C 0.007164980756431474 0.016883486756336955 0.004577305738043896 0.01736316457004923 0.004959334820498303 0.017233832177189566 C 0.004577305738043896 0.01736316457004923 0.0028011963605719123 0.01866548672903525 0.00302176095416523 0.018435475470652916 C 0.0028011963605719123 0.01866548672903525 0.0022534595926462647 0.020123841595037988 0.0023125596973784927 0.019993967277777597" fill="none" stroke="#000000" stroke-width="0.001"/>
<path d="M 0.0023125596973784927 0.019993967277777597 C 0.0022572576267593726 0.020049269348396716 0.001538330708710812 0.020657592125207038 0.001648934849949052 0.020657592125207038 C 0.001538330708710812 0.020657592125207038 0.0009300079319004913 0.01993866520715848 0.0009853100025196113 0.019993967277777597" fill="none" stroke="none" stroke-width="0"/>
<path d="M 0.0009853100025196113 0.019993967277777597 C 0.0010592282524140018 0.019814653946039512 0.002148195665464733 0.01753162749587577 0.001872329001252296 0.017842207296920584 C 0.002148195665464733 0.01753162749587577 0.00477352505159934 0.016087696333501718 0.004295709973068856 0.016267009665239803 C 0.00477352505159934 0.016087696333501718 0.008157843272042978 0.015690447316063574 0.007606109943618104 0.015690447316063574 C 0.008157843272042978 0.015690447316063574 0.011394324992697834 0.01644632299697789 0.01091650991416735 0.016267009665239803 C 0.011394324992697834 0.01644632299697789 0.013615757550196356 0.0181527870979654 0.013339890885983918 0.017842207296920584 C 0.013615757550196356 0.0181527870979654 0.014300828134610997 0.020173280609515683 0.014226909884716607 0.019993967277777597" fill="none" stroke="#000000" stroke-width="0.001"/>
</g><g transform="translate(0.33734345282867073,0.27037048608070485) rotate(0) scale(1,1) translate(-0.007606109943618107,-0.001029294317343837)"><path d="M 0.014226909884716607 0.001029294317343887 C 0.014152991634822216 0.0012086076490819715 0.01306402422177148 0.0034916340992457158 0.013339890885983918 0.0031810542982008997 C 0.01306402422177148 0.0034916340992457158 0.010438694835636867 0.004935565261619775 0.01091650991416735 0.004756251929881681 C 0.010438694835636867 0.004935565261619775 0.007054376615193229 0.005332814279058023 0.007606109943618104 0.005332814279058023 C 0.007054376615193229 0.005332814279058023 0.0038178948945383714 0.004576938598143587 0.0042957099730688555 0.004756251929881681 C 0.0038178948945383714 0.004576938598143587 0.001596462337039859 0.0028704744971560837 0.001872329001252296 0.0031810542982008997 C 0.001596462337039859 0.0028704744971560837 0.0009113917526252209 0.0008499809856058028 0.0009853100025196113 0.001029294317343887" fill="none" stroke="#000000" stroke-width="0.001"/>
<path d="M 0.0023125596973784905 0.001029294317343887 C 0.002371659802110719 0.0011591686346042772 0.00324232554775855 0.002817797382850904 0.003021760954165232 0.002587786124468568 C 0.00324232554775855 0.002817797382850904 0.005341363902952708 0.003918761810791599 0.004959334820498301 0.0037894294179319178 C 0.005341363902952708 0.003918761810791599 0.008047239130804745 0.004139774838784751 0.0076061099436181105 0.004139774838784751 C 0.008047239130804745 0.004139774838784751 0.010634914149192327 0.003660097025072236 0.01025288506673792 0.0037894294179319178 C 0.010634914149192327 0.003660097025072236 0.01241102352666431 0.0023577748660862322 0.012190458933070993 0.002587786124468568 C 0.01241102352666431 0.0023577748660862322 0.012958760294589953 0.000899420000083497 0.012899660189857725 0.001029294317343887" fill="none" stroke="#000000" stroke-width="0.001"/>
</g><g transform="translate(0.3333960783486697,0.2677277613708736) rotate(0) scale(1,1) translate(-0.018432339988539145,-0.01776796487153932)"><path d="M 0.0177156972947575 0.01947434704456945 C 0.017636317391603658 0.01936781776263473 0.016574112088113633 0.017942318817029537 0.016763138456911426 0.018195995661352826 C 0.016574112088113633 0.017942318817029537 0.015337734403540046 0.016283077350301392 0.015447380869183997 0.016430224912689965" fill="none" stroke="#000000" stroke-width="0.001"/>
<path d="M 0.015447380869183997 0.016430224912689965 C 0.015553910151118717 0.016350845009536118 0.016938790816270078 0.015318906268536107 0.01672573225240064 0.0154776660748438 C 0.016938790816270078 0.015318906268536107 0.018110612917551994 0.014445727333843791 0.018004083635617275 0.014525107236997637" fill="none" stroke="#000000" stroke-width="0.001"/>
<path d="M 0.018004083635617275 0.014525107236997637 C 0.018113730101261216 0.01467225479938621 0.019508867592142383 0.016544554829983796 0.01931984122334459 0.016290877985660507 C 0.019508867592142383 0.016544554829983796 0.020351779964344622 0.01767575865081184 0.020272400061190774 0.017569229368877122" fill="none" stroke="#000000" stroke-width="0.001"/>
<path d="M 0.020272400061190774 0.017569229368877122 C 0.020165870779256054 0.01764860927203097 0.018780990114104695 0.018680548013030984 0.018994048677974135 0.01852178820672329 C 0.018780990114104695 0.018680548013030984 0.01760916801282278 0.019553726947723296 0.0177156972947575 0.01947434704456945" fill="none" stroke="#000000" stroke-width="0.001"/>
</g><g transform="translate(0.34129082730867183,0.2677277613708736) rotate(0) scale(1,1) translate(-0.018432339988539145,-0.01776796487153932)"><path d="M 0.019148982682320664 0.019474347044569434 C 0.019042453400385947 0.019394967141415587 0.017657572735234613 0.018363028400415586 0.01787063129910405 0.018521788206723278 C 0.017657572735234613 0.018363028400415586 0.016485750633952717 0.017489849465723267 0.016592279915887433 0.017569229368877115" fill="none" stroke="#000000" stroke-width="0.001"/>
<path d="M 0.016592279915887433 0.017569229368877115 C 0.01667165981904128 0.017462700086942395 0.017733865122531386 0.01603720114133721 0.017544838753733593 0.0162908779856605 C 0.017733865122531386 0.01603720114133721 0.01897024280710491 0.014377959674609062 0.01886059634146096 0.014525107236997634" fill="none" stroke="#000000" stroke-width="0.001"/>
<path d="M 0.01886059634146096 0.014525107236997634 C 0.01896712562339568 0.01460448714015148 0.020352006288547015 0.015636425881151484 0.02013894772467758 0.01547766607484379 C 0.020352006288547015 0.015636425881151484 0.021523828389828917 0.016509604815843803 0.021417299107894198 0.016430224912689955" fill="none" stroke="#000000" stroke-width="0.001"/>
<path d="M 0.021417299107894198 0.016430224912689955 C 0.02130765264225025 0.01657737247507853 0.019912515151369027 0.01844967250567611 0.020101541520166823 0.01819599566135282 C 0.019912515151369027 0.01844967250567611 0.019069602779166816 0.019580876326504154 0.019148982682320664 0.019474347044569434" fill="none" stroke="#000000" stroke-width="0.001"/>
</g><g transform="translate(0.332719240286787,0.2668194323120854) rotate(0) scale(1,1) translate(-0.05264458246194619,-0.05264458246194618)"><path d="M 0.05346670765983772 0.052054010459623025 C 0.053551949385967 0.05217267401070059 0.05350695063099584 0.05319443104307915 0.053567095417667646 0.053061277767249976 C 0.05350695063099584 0.05319443104307915 0.05259958370697504 0.053666339494324734 0.05274497021977612 0.05365184976957312 C 0.05259958370697504 0.053666339494324734 0.051737215537925395 0.05311649091319176 0.051822457264054676 0.053235154464269324 C 0.051737215537925395 0.05311649091319176 0.05178221429289655 0.052094733880813204 0.051722069506224745 0.05222788715664238 C 0.05178221429289655 0.052094733880813204 0.05268958121691735 0.05162282542956763 0.05254419470411627 0.05163731515431924 C 0.05268958121691735 0.05162282542956763 0.053551949385967 0.05217267401070059 0.05346670765983772 0.052054010459623025 Z" fill="#cccccc" stroke="#000000" stroke-width="0.001"/>
</g><g transform="translate(0.3419676653705544,0.2668194323120854) rotate(0) scale(1,1) translate(-0.05264458246194619,-0.05264458246194618)"><path d="M 0.053567095417667646 0.05222788715664238 C 0.05362724020433945 0.052361040432471556 0.05338146593370844 0.053353818015346895 0.05346670765983772 0.05323515446426933 C 0.05338146593370844 0.053353818015346895 0.052398808191315184 0.05363736004482151 0.05254419470411627 0.05365184976957312 C 0.052398808191315184 0.05363736004482151 0.05166192471955294 0.0529281244914208 0.051722069506224745 0.053061277767249976 C 0.05166192471955294 0.0529281244914208 0.05190769899018396 0.05193534690854547 0.051822457264054676 0.05205401045962303 C 0.05190769899018396 0.05193534690854547 0.05289035673257719 0.05165180487907085 0.05274497021977611 0.05163731515431924 C 0.05289035673257719 0.05165180487907085 0.05362724020433945 0.052361040432471556 0.053567095417667646 0.05222788715664238 Z" fill="#cccccc" stroke="#000000" stroke-width="0.001"/>
</g><g transform="translate(0.33734345282867073,0.27915387907207534) rotate(0) scale(1,1) translate(-0.018432339988539145,-0.017725908331667376)"><path d="M 0.016813808565794983 0.015636630817576817 C 0.016948686184356996 0.015636630817576817 0.01870209522566317 0.015636630817576817 0.018432339988539145 0.015636630817576817 C 0.01870209522566317 0.015636630817576817 0.02018574902984532 0.015636630817576817 0.020050871411283307 0.015636630817576817" fill="none" stroke="#000000" stroke-width="0.001"/>
<path d="M 0.020050871411283307 0.015636630817576817 C 0.020050871411283307 0.015858980844651534 0.020050871411283307 0.01867836026555786 0.020050871411283307 0.01830483114247343 C 0.020050871411283307 0.01867836026555786 0.020050871411283307 0.02027015939059966 0.020050871411283307 0.02011898029458995" fill="none" stroke="#000000" stroke-width="0.001"/>
<path d="M 0.020050871411283307 0.02011898029458995 C 0.019915993792721295 0.020108177115485928 0.01816258475141512 0.01998934214534167 0.018432339988539145 0.01998934214534167 C 0.01816258475141512 0.01998934214534167 0.01667893094723297 0.020129783473693975 0.016813808565794983 0.02011898029458995" fill="none" stroke="#000000" stroke-width="0.001"/>
<path d="M 0.016813808565794983 0.02011898029458995 C 0.016813808565794983 0.019967801198580243 0.016813808565794983 0.017931302019389 0.016813808565794983 0.01830483114247343 C 0.016813808565794983 0.017931302019389 0.016813808565794983 0.0154142807905021 0.016813808565794983 0.015636630817576817" fill="none" stroke="#000000" stroke-width="0.001"/>
</g><g transform="translate(0.33734345282867073,0.2739870029623303) rotate(0) scale(1,1) translate(-0.018432339988539145,-0.017583825426694587)"><path d="M 0.016813808565794983 0.016813469159970253 C 0.016948686184356996 0.016813469159970253 0.01870209522566317 0.01681346915997025 0.018432339988539145 0.01681346915997025 C 0.01870209522566317 0.01681346915997025 0.02018574902984532 0.01681346915997025 0.020050871411283307 0.01681346915997025" fill="none" stroke="#000000" stroke-width="0.001"/>
<path d="M 0.020050871411283307 0.01681346915997025 C 0.020050871411283307 0.016948346778532263 0.020050871411283307 0.01868691928179662 0.020050871411283307 0.018432000582714415 C 0.020050871411283307 0.01868691928179662 0.020050871411283307 0.019992534629476914 0.020050871411283307 0.019872493548956722" fill="none" stroke="#000000" stroke-width="0.001"/>
<path d="M 0.020050871411283307 0.019872493548956722 C 0.019915993792721295 0.019872493548956722 0.01816258475141512 0.019872493548956722 0.018432339988539145 0.019872493548956722 C 0.01816258475141512 0.019872493548956722 0.01667893094723297 0.019872493548956722 0.016813808565794983 0.019872493548956722" fill="none" stroke="#000000" stroke-width="0.001"/>
<path d="M 0.016813808565794983 0.019872493548956722 C 0.016813808565794983 0.01975245246843653 0.016813808565794983 0.01817708188363221 0.016813808565794983 0.018432000582714415 C 0.016813808565794983 0.01817708188363221 0.016813808565794983 0.01667859154140824 0.016813808565794983 0.016813469159970253" fill="none" stroke="#000000" stroke-width="0.001"/>
</g><g transform="translate(0.33734345282867073,0.28034240897138885) rotate(0) scale(1,1) translate(-0.03552174005267797,-0.03552174005267798)"><path d="M 0.036390887400059684 0.03528714740497658 C 0.036463316345674825 0.035345795566901934 0.03631845845444454 0.035814980862304766 0.036390887400059684 0.03575633270037941 C 0.03631845845444454 0.035814980862304766 0.03537688216144769 0.035990925348080814 0.03552174005267797 0.035990925348080814 C 0.03537688216144769 0.035990925348080814 0.03458016375968112 0.03569768453845405 0.03465259270529626 0.03575633270037941 C 0.03458016375968112 0.03569768453845405 0.034725021650911396 0.03522849924305122 0.034652592705296255 0.03528714740497658 C 0.034725021650911396 0.03522849924305122 0.03566659794390825 0.03505255475727515 0.03552174005267797 0.03505255475727515 C 0.03566659794390825 0.03505255475727515 0.036463316345674825 0.035345795566901934 0.036390887400059684 0.03528714740497658 Z" fill="#cccccc" stroke="#000000" stroke-width="0.001"/>
</g><g transform="translate(0.33734345282867073,0.27532111180148655) rotate(0) scale(1,1) translate(-0.03552174005267797,-0.03552174005267798)"><path d="M 0.036390887400059684 0.035245748702441036 C 0.036463316345674825 0.035314746540000275 0.03631845845444454 0.03586672924047419 0.036390887400059684 0.03579773140291495 C 0.03631845845444454 0.03586672924047419 0.03537688216144769 0.0360737227531519 0.03552174005267797 0.0360737227531519 C 0.03537688216144769 0.0360737227531519 0.03458016375968112 0.03572873356535571 0.03465259270529626 0.03579773140291495 C 0.03458016375968112 0.03572873356535571 0.034725021650911396 0.0351767508648818 0.034652592705296255 0.035245748702441036 C 0.034725021650911396 0.0351767508648818 0.03566659794390825 0.03496975735220407 0.03552174005267797 0.03496975735220407 C 0.03566659794390825 0.03496975735220407 0.036463316345674825 0.035314746540000275 0.036390887400059684 0.035245748702441036 Z" fill="#cccccc" stroke="#000000" stroke-width="0.001"/>
</g></svg>
