<?xml version="1.0" encoding="UTF-8"?>
<svg xmlns="http://www.w3.org/2000/svg" viewBox="0 0 1 1">
<g transform="translate(0.3373434528286707,0.12059170033316863) rotate(0) scale(1,1) translate(-0.011152769902399133,-0.009666553365607608)"><path d="M 0.0031289756559725536 0.004698576733748025 C 0.003797625176508102 0.004548525937252238 0.012490068943470234 0.0028979671757985775 0.011152769902399134 0.0028979671757985775 C 0.012490068943470234 0.0028979671757985775 0.019845213669361296 0.004848627530243811 0.019176564148825744 0.004698576733748024" fill="none" stroke="none" stroke-width="0"/>
<path d="M 0.019176564148825744 0.004698576733748024 C 0.019534170253385386 0.004686886001209226 0.024151033231215036 0.004543358364068339 0.023467837403541435 0.004558287943282453 C 0.024151033231215036 0.004543358364068339 0.02808713020090082 0.004433242140091295 0.02737491408090894 0.004519421783178648 C 0.02808713020090082 0.004433242140091295 0.03212873804455044 0.004254727602578837 0.03201443084344398 0.00352413222623422 C 0.03212873804455044 0.004254727602578837 0.028242118267828607 0.014482281719000444 0.028746600494186418 0.013286566299314052 C 0.028242118267828607 0.014482281719000444 0.02536611961747146 0.01834927382042499 0.025960644127150222 0.01787271726247092 C 0.02536611961747146 0.01834927382042499 0.020863900208761985 0.01891606633956901 0.02161230637804124 0.01900524499476293 C 0.020863900208761985 0.01891606633956901 0.016593725405612315 0.016619017433925624 0.016979770095799155 0.016802573400143878" fill="none" stroke="none" stroke-width="0"/>
<path d="M 0.016979770095799155 0.016802573400143878 C 0.016494186746349154 0.016772004444255414 0.010181603203499132 0.0164357459294823 0.011152769902399134 0.0164357459294823 C 0.010181603203499132 0.0164357459294823 0.004840186359549109 0.01683314235603234 0.005325769708999111 0.016802573400143878" fill="none" stroke="none" stroke-width="0"/>
<path d="M 0.005325769708999111 0.016802573400143878 C 0.004939725018812272 0.01698612936636213 -5.517274252221508E-05 0.01909442364995684 0.0006932334267570397 0.019005244994762922 C -5.517274252221508E-05 0.01909442364995684 -0.004249628832030711 0.017396160704516828 -0.003655104322351946 0.017872717262470902 C -0.004249628832030711 0.017396160704516828 -0.00694554291574595 0.012090850879627637 -0.006441060689388139 0.013286566299314028 C -0.00694554291574595 0.012090850879627637 -0.009594583837539226 0.002793536849889583 -0.009708891038645686 0.003524132226234199 C -0.009594583837539226 0.002793536849889583 -0.004357158156118725 0.004605601426265987 -0.0050693742761106055 0.004519421783178632 C -0.004357158156118725 0.004605601426265987 -0.00047910177106952323 0.004573217522496566 -0.0011622975987431198 0.00455828794328245 C -0.00047910177106952323 0.004573217522496566 0.003486581760532193 0.004710267466286823 0.0031289756559725536 0.004698576733748025" fill="none" stroke="none" stroke-width="0"/>
</g><g transform="translate(0.33734345282867073,0.11958929521577018) rotate(0) scale(1,1) translate(-0.011152769902399133,-0.009666553365607608)"><path d="M 0.0031289756559725536 0.0072962790971311895 C 0.003797625176508102 0.007177930840011373 0.012490068943470234 0.005876100011693391 0.011152769902399134 0.005876100011693391 C 0.012490068943470234 0.005876100011693391 0.019845213669361296 0.007414627354251004 0.019176564148825744 0.007296279097131188" fill="none" stroke="none" stroke-width="0"/>
<path d="M 0.019176564148825744 0.007296279097131188 C 0.019534170253385386 0.007287058367533399 0.0241646882347323 0.0071738550650462555 0.023467837403541435 0.007185630341957713 C 0.0241646882347323 0.0071738550650462555 0.028218111669558454 0.007095836140477646 0.027538774123116113 0.007154975774193694 C 0.028218111669558454 0.007095836140477646 0.03176542237933613 0.006978847338526949 0.031619887960849524 0.006475954737365145 C 0.03176542237933613 0.006978847338526949 0.028904509035632454 0.014050597582673583 0.029285187144955416 0.013189686988135338 C 0.028904509035632454 0.014050597582673583 0.02645821907837869 0.017182752172882208 0.027051750648973985 0.01680688187182408 C 0.02645821907837869 0.017182752172882208 0.02134903360343941 0.017629793497258836 0.022162808297811875 0.017700130600832864 C 0.02134903360343941 0.017629793497258836 0.016880091484728795 0.015818062131277656 0.017286454316504416 0.01596283662893575" fill="none" stroke="none" stroke-width="0"/>
<path d="M 0.017286454316504416 0.01596283662893575 C 0.01677531394866231 0.015938726242747468 0.010130489166714919 0.015673511994676398 0.011152769902399133 0.015673511994676398 C 0.010130489166714919 0.015673511994676398 0.004507945120451738 0.01598694701512403 0.005019085488293846 0.01596283662893575" fill="none" stroke="none" stroke-width="0"/>
<path d="M 0.005019085488293846 0.01596283662893575 C 0.004612722656518226 0.01610761112659384 -0.0006710431873860616 0.017770467704406885 0.00014273150698640164 0.017700130600832857 C -0.0006710431873860616 0.017770467704406885 -0.005339742414771008 0.01643101157076594 -0.004746210844175713 0.016806881871824067 C -0.005339742414771008 0.01643101157076594 -0.007360325449480097 0.012328776393597076 -0.006979647340157139 0.013189686988135321 C -0.007360325449480097 0.012328776393597076 -0.009168813737564598 0.005973062136203325 -0.009314348156051212 0.006475954737365128 C -0.009168813737564598 0.005973062136203325 -0.004553896771875433 0.0072141154079097295 -0.005233234318317775 0.0071549757741936814 C -0.004553896771875433 0.0072141154079097295 -0.00046544676755225917 0.007197405618869169 -0.0011622975987431198 0.00718563034195771 C -0.00046544676755225917 0.007197405618869169 0.003486581760532193 0.0073054998267289796 0.0031289756559725536 0.0072962790971311895" fill="none" stroke="none" stroke-width="0"/>
</g><g transform="translate(0.3542549467427406,0.11929633275332846) rotate(0) scale(1,1) translate(-0.0201197352990563,-0.020138742253710932)"><path d="M 0.021792503219905644 0.01792894297996448 C 0.022300980689149676 0.018270218572360865 0.023529864173724258 0.02115038472949228 0.023540893494096386 0.020702526460567836 C 0.023529864173724258 0.02115038472949228 0.02113607609174207 0.02359533385259529 0.021660151375440122 0.023303242207057793 C 0.02113607609174207 0.02359533385259529 0.016521865036181565 0.024172847904668372 0.017251990089719744 0.02420762620701781 C 0.016521865036181565 0.024172847904668372 0.012390173263737926 0.022544626986468155 0.012898650732981961 0.022885902578864543 C 0.012390173263737926 0.022544626986468155 0.011161289779163452 0.01966446082933673 0.011150260458791325 0.020112319098261174 C 0.011161289779163452 0.01966446082933673 0.013555077861145539 0.017219511706233724 0.013031002577447484 0.01751160335177122 C 0.013555077861145539 0.017219511706233724 0.01816928891670616 0.016641997654160655 0.017439163863167982 0.016607219351811215 C 0.01816928891670616 0.016641997654160655 0.022300980689149676 0.018270218572360865 0.021792503219905644 0.01792894297996448 Z" fill="#cccccc" stroke="none" stroke-width="0"/>
</g><g transform="translate(0.32043195891460086,0.11929633275332846) rotate(0) scale(1,1) translate(-0.020999475196776744,-0.020138742253710932)"><path d="M 0.023680046632665156 0.01660721935181121 C 0.024410171686203335 0.016572441049461772 0.028612283202083654 0.017803694997308713 0.0280882079183856 0.017511603351771217 C 0.028612283202083654 0.017803694997308713 0.029979979357413915 0.02056017736718561 0.029968950037041787 0.020112319098261167 C 0.029979979357413915 0.02056017736718561 0.02771208229360709 0.023227178171260927 0.028220559762851122 0.02288590257886454 C 0.02771208229360709 0.023227178171260927 0.02313709535257522 0.02424240450936725 0.023867220406113398 0.024207626207017812 C 0.02313709535257522 0.02424240450936725 0.018934983836694903 0.023011150561520297 0.019459059120392957 0.023303242207057793 C 0.018934983836694903 0.023011150561520297 0.017567287681364636 0.020254668191643396 0.017578317001736763 0.02070252646056784 C 0.017567287681364636 0.020254668191643396 0.01983518474517147 0.017587667387568097 0.019326707275927436 0.01792894297996448 C 0.01983518474517147 0.017587667387568097 0.024410171686203335 0.016572441049461772 0.023680046632665156 0.01660721935181121 Z" fill="#cccccc" stroke="none" stroke-width="0"/>
</g><g transform="translate(0.32043195891460086,0.11929633275332846) rotate(0) scale(1,1) translate(-0.013668621667194241,-0.017426607810147654)"><path d="M 0.02194718241378518 0.01625324453667422 C 0.0217085765400497 0.016517548037337005 0.018878003976592082 0.01933511684166114 0.01908391192895943 0.019424886544627637 C 0.018878003976592082 0.01933511684166114 0.019181635167469478 0.015260500448620682 0.019476286985377022 0.015176008101076267 C 0.019181635167469478 0.015260500448620682 0.015272639597381517 0.020386159549993697 0.015548090114068918 0.02043879471516061 C 0.015272639597381517 0.020386159549993697 0.015936542171094154 0.014491439365358369 0.016170880785128215 0.014544386119073296 C 0.015936542171094154 0.014491439365358369 0.012471532638025425 0.019926946136389533 0.012736026745660186 0.019803433670581478 C 0.012471532638025425 0.019926946136389533 0.012825159650703523 0.015909327123247944 0.012996951493511077 0.01602653570876996 C 0.012825159650703523 0.015909327123247944 0.01048098906017442 0.01859446355561289 0.010674524631969547 0.018396930644317282" fill="none" stroke="#000000" stroke-width="0.001"/>
</g><g transform="translate(0.3542549467427406,0.11929633275332846) rotate(0) scale(1,1) translate(-0.02068535626873047,-0.016988208619861278)"><path d="M 0.024147194686954337 0.015596070795513632 C 0.023900336988495703 0.015851112992821582 0.02098197096003189 0.018559007936288424 0.02118490230545074 0.01865657716320903 C 0.02098197096003189 0.018559007936288424 0.021414861132290665 0.014498442335443331 0.021712018541928134 0.014425240072466362 C 0.021414861132290665 0.014498442335443331 0.01734540193091041 0.01947189456863169 0.017619013389801107 0.01953500431893267 C 0.01734540193091041 0.01947189456863169 0.018196166461790113 0.013606070046494414 0.01842868103523978 0.013667923068854622 C 0.018196166461790113 0.013606070046494414 0.014560580935309037 0.018906117086635532 0.014828838508405108 0.018792768050610163 C 0.014560580935309037 0.018906117086635532 0.014978109948398079 0.01495113078448082 0.015209590158086917 0.01502811150115906 C 0.014978109948398079 0.01495113078448082 0.011787866478310063 0.018105740112913958 0.012051075992139051 0.017868999450471275" fill="none" stroke="#000000" stroke-width="0.001"/>
</g><g transform="translate(0.32043195891460086,0.11929633275332846) rotate(0) scale(1,1) translate(-0.02277422825433085,-0.022286544738380005)"><path d="M 0.02426566806915915 0.01940585607706498 C 0.024799835878904244 0.01941508769469039 0.027833654628355974 0.02030352514548486 0.027459204491118806 0.020111880305190958 C 0.027833654628355974 0.02030352514548486 0.028754454368773358 0.021967389275268832 0.02875906971600518 0.02170559416059178 C 0.028754454368773358 0.021967389275268832 0.027022843100449445 0.023432011042760974 0.02740382032433692 0.02325342168131557 C 0.027022843100449445 0.023432011042760974 0.02365317521961038 0.023839434880311212 0.024187343029355473 0.023848666497936623 C 0.02365317521961038 0.023839434880311212 0.020619356470158647 0.022950997429516742 0.020993806607395818 0.023142642269810644 C 0.020619356470158647 0.022950997429516742 0.019698556729741256 0.021287133299732756 0.019693941382509433 0.021548928414409807 C 0.019698556729741256 0.021287133299732756 0.021430167998065183 0.019822511532240635 0.021049190774177707 0.020001100893686036 C 0.021430167998065183 0.019822511532240635 0.024799835878904244 0.01941508769469039 0.02426566806915915 0.01940585607706498 Z" fill="#cccccc" stroke="none" stroke-width="0"/>
</g><g transform="translate(0.3542549467427406,0.11929633275332846) rotate(0) scale(1,1) translate(-0.02277422825433085,-0.022286544738380005)"><path d="M 0.024499265734484 0.020001100893686036 C 0.024880242958371473 0.020179690255131437 0.02585913047338405 0.021810723529086862 0.02585451512615223 0.02154892841440981 C 0.02585913047338405 0.021810723529086862 0.024180199764028718 0.023334287110104546 0.024554649901265886 0.023142642269810644 C 0.024180199764028718 0.023334287110104546 0.020826945669561135 0.023857898115562035 0.021361113479306228 0.023848666497936623 C 0.020826945669561135 0.023857898115562035 0.017763658960437315 0.023074832319870165 0.018144636184324787 0.02325342168131557 C 0.017763658960437315 0.023074832319870165 0.01678477144542473 0.02144379904591473 0.01678938679265655 0.02170559416059178 C 0.01678477144542473 0.02144379904591473 0.01846370215478007 0.019920235464897056 0.0180892520175429 0.020111880305190958 C 0.01846370215478007 0.019920235464897056 0.02181695624924764 0.019396624459439567 0.021282788439502546 0.01940585607706498 C 0.02181695624924764 0.019396624459439567 0.024880242958371473 0.020179690255131437 0.024499265734484 0.020001100893686036 Z" fill="#cccccc" stroke="none" stroke-width="0"/>
</g><g transform="translate(0.32043195891460086,0.11929633275332846) rotate(0) scale(1,1) translate(-0.023021757613663735,-0.023392982734470734)"><path d="M 0.02730715936880377 0.02308357267256218 C 0.027161853897079456 0.022980739024269028 0.025443601617076095 0.02189062447586668 0.025563493708112006 0.021849568893044347 C 0.025443601617076095 0.02189062447586668 0.025723904640319917 0.023530421037119893 0.025868454276372854 0.02357623966643017 C 0.025723904640319917 0.023530421037119893 0.023708041815549603 0.021333850655724615 0.023828898075476754 0.021299745341321022 C 0.023708041815549603 0.021333850655724615 0.02427569365067418 0.02402117552534712 0.02441817915724702 0.023985503439273297 C 0.02427569365067418 0.02402117552534712 0.02196039965950532 0.021701197020171085 0.022119071996602655 0.021727810374206877 C 0.02196039965950532 0.021701197020171085 0.022409838559305114 0.023716005918385793 0.022514111112078995 0.023666143190843793 C 0.022409838559305114 0.023716005918385793 0.020730608884252523 0.022214498097533134 0.020867801363316098 0.022326163104710875" fill="none" stroke="#000000" stroke-width="0.001"/>
</g><g transform="translate(0.3542549467427406,0.11929633275332846) rotate(0) scale(1,1) translate(-0.023021757613663735,-0.023392982734470734)"><path d="M 0.025175713864011413 0.022326163104710868 C 0.025038521384947835 0.022437828111888613 0.023425131562474593 0.023616280463301793 0.023529404115248474 0.023666143190843793 C 0.023425131562474593 0.023616280463301793 0.0237657708936275 0.02175442372824267 0.02392444323072483 0.021727810374206877 C 0.0237657708936275 0.02175442372824267 0.02148285056350766 0.023949831353199474 0.021625336070080495 0.023985503439273297 C 0.02148285056350766 0.023949831353199474 0.02209376089192364 0.02126564002691741 0.02221461715185079 0.021299745341321008 C 0.02209376089192364 0.02126564002691741 0.020030511314901737 0.023622058295740433 0.020175060950954678 0.023576239666430156 C 0.020030511314901737 0.023622058295740433 0.020360129428179587 0.02180851331022201 0.020480021519215495 0.021849568893044343 C 0.020360129428179587 0.02180851331022201 0.018591050386799472 0.023186406320855314 0.018736355858523783 0.023083572672562162" fill="none" stroke="#000000" stroke-width="0.001"/>
</g></svg>
