<?xml version="1.0" encoding="UTF-8"?>
<svg xmlns="http://www.w3.org/2000/svg" viewBox="0 0 1 1">
<g transform="translate(0.33734039743949185,0.4071172026683852) rotate(0) scale(1,1) translate(-0.01919286476298845,-0.019735317662897982)"><path d="M 0.01919286476298845 0.028100586173949643 C 0.018910105532681833 0.027980549749459273 0.015359576889875359 0.026284703285652234 0.015799753999309045 0.026660149080065178 C 0.015359576889875359 0.026284703285652234 0.01399291516448144 0.02282088166927427 0.013910739449784215 0.023595236640994315 C 0.01399291516448144 0.02282088166927427 0.01708466201812005 0.016551055096981928 0.01678586257567576 0.017367889419424635 C 0.01708466201812005 0.016551055096981928 0.01769691627472512 0.013254993538436559 0.017496332759115732 0.013793224771681822 C 0.01769691627472512 0.013254993538436559 0.01933424242997782 0.01066877210788144 0.019192864762988426 0.01090911462048147" fill="none" stroke="#000000" stroke-width="0.001"/>
<path d="M 0.019192864762988426 0.01090911462048147 C 0.01933424242997782 0.011149457133081497 0.021089980282470503 0.014331456004927065 0.020889396766861114 0.013793224771681802 C 0.021089980282470503 0.014331456004927065 0.021898666392745396 0.01818472374186733 0.021599866950301104 0.017367889419424624 C 0.021898666392745396 0.01818472374186733 0.024557165790889846 0.024369591612714344 0.02447499007619262 0.0235952366409943 C 0.024557165790889846 0.024369591612714344 0.022145798417234127 0.027035594874478094 0.022585975526667808 0.02666014908006515 C 0.022145798417234127 0.027035594874478094 0.018910105532681836 0.028220622598440017 0.01919286476298845 0.028100586173949643" fill="none" stroke="#000000" stroke-width="0.001"/>
</g><g transform="translate(0.33734039743949185,0.4109771216464815) rotate(0) scale(1,1) translate(-0.01919286476298845,-0.0207756729228991)"><path d="M 0.01919286476298845 0.024662010958448496 C 0.018969916406843715 0.024568982093858507 0.016223408936037496 0.023137858919235265 0.016517484489251638 0.023545664583368656 C 0.016223408936037496 0.023137858919235265 0.01569582773938657 0.019082488957519985 0.015663958124418752 0.019768342988847783 C 0.01569582773938657 0.019082488957519985 0.01706309017486716 0.01476762048724275 0.016899919868865416 0.015315416207435071 C 0.01706309017486716 0.01476762048724275 0.01781308053761655 0.012878432700529 0.017622001796439635 0.013194794346539931 C 0.01781308053761655 0.012878432700529 0.019323770010200827 0.011379433297700896 0.019192864762988426 0.011519076455303898" fill="none" stroke="#000000" stroke-width="0.001"/>
<path d="M 0.019192864762988426 0.011519076455303898 C 0.019323770010200827 0.0116587196129069 0.02095480647071414 0.013511155992550844 0.02076372772953722 0.013194794346539914 C 0.02095480647071414 0.013511155992550844 0.02164897996311318 0.015863211927627383 0.021485809657111443 0.01531541620743506 C 0.02164897996311318 0.015863211927627383 0.022753641016525907 0.020454197020175577 0.022721771401558094 0.01976834298884778 C 0.022753641016525907 0.020454197020175577 0.02157416948351108 0.023953470247502044 0.021868245036725215 0.02354566458336865 C 0.02157416948351108 0.023953470247502044 0.018969916406843722 0.024755039823038484 0.01919286476298845 0.024662010958448496" fill="none" stroke="#000000" stroke-width="0.001"/>
</g><g transform="translate(0.33734039743949185,0.4040959859997025) rotate(0) scale(1,1) translate(-0.022933258138484177,-0.022933258138484177)"><path d="M 0.02414884649173639 0.022161575963360918 C 0.02427516431532156 0.022287666987709766 0.024403989712227507 0.023365901253686594 0.02444907202150619 0.02320866831811174 C 0.024403989712227507 0.023365901253686594 0.023425324236648008 0.02411834642960478 0.023607858780392177 0.02404837119025916 C 0.023425324236648008 0.02411834642960478 0.022076122952832004 0.023978395950913542 0.022258657496576174 0.02404837119025916 C 0.022076122952832004 0.023978395950913542 0.02137236194618348 0.023051435382536886 0.021417444255462166 0.02320866831811174 C 0.02137236194618348 0.023051435382536886 0.02184398760881713 0.02203548493901207 0.021717669785231965 0.022161575963360918 C 0.02184398760881713 0.02203548493901207 0.02313585619735954 0.02169557602592558 0.022933258138484174 0.02169557602592558 C 0.02313585619735954 0.02169557602592558 0.02427516431532156 0.022287666987709766 0.02414884649173639 0.022161575963360918 Z" fill="#cccccc" stroke="#000000" stroke-width="0.001"/>
</g><g transform="translate(0.33734039743949185,0.4074057224194359) rotate(0) scale(1,1) translate(-0.02456377814682995,-0.024563778146829942)"><path d="M 0.02474033872797484 0.024395581603393682 C 0.024784478873261063 0.02440959798201337 0.02491689930911973 0.024591810904069315 0.02491689930911973 0.02456377814682994 C 0.02491689930911973 0.024591810904069315 0.02469619858268862 0.024745991068885892 0.02474033872797484 0.024731974690266202 C 0.02469619858268862 0.024745991068885892 0.02434307742039884 0.024717958311646512 0.02438721756568506 0.024731974690266202 C 0.02434307742039884 0.024717958311646512 0.02421065698454017 0.024535745389590562 0.02421065698454017 0.02456377814682994 C 0.02421065698454017 0.024535745389590562 0.024431357710971283 0.024381565224773992 0.02438721756568506 0.024395581603393682 C 0.024431357710971283 0.024381565224773992 0.024784478873261063 0.02440959798201337 0.02474033872797484 0.024395581603393682 Z" fill="#cccccc" stroke="#000000" stroke-width="0.001"/>
</g><g transform="translate(0.33734039743949185,0.4109771216464815) rotate(0) scale(1,1) translate(-0.04481464761927567,-0.044322296567054956)"><path d="M 0.047564377511632346 0.044322296567054956 C 0.047705996389412184 0.04462253336527269 0.046143311117157464 0.04673453166469105 0.046514074152633686 0.04654897511871904 C 0.046143311117157464 0.04673453166469105 0.04274445805044142 0.046363418572747034 0.04311522108591764 0.04654897511871904 C 0.04274445805044142 0.046363418572747034 0.04220653660469883 0.04402205976883722 0.042064917726919 0.044322296567054956 C 0.04220653660469883 0.04402205976883722 0.04527293593466841 0.04294613354010617 0.04481464761927564 0.04294613354010617 C 0.04527293593466841 0.04294613354010617 0.047705996389412184 0.04462253336527269 0.047564377511632346 0.044322296567054956 Z" fill="#cccccc" stroke="#000000" stroke-width="0.001"/>
</g></svg>
