<?xml version="1.0" encoding="UTF-8"?>
<svg xmlns="http://www.w3.org/2000/svg" viewBox="0 0 1 1">
<g transform="translate(0.33734345282867056,0.24714232115791968) rotate(0) scale(1,1) translate(-0.27752773677932585,-0.2775277367793259)"><path d="M 0.2985218853520478 0.28431946123605467 C 0.3014915247978655 0.2857685164536332 0.31491292251019815 0.3002245581941375 0.31316341012913795 0.2976634997657509 C 0.31491292251019815 0.3002245581941375 0.3196622906827659 0.31786706407985815 0.3195160339247699 0.31505216237669376 C 0.3196622906827659 0.31786706407985815 0.3133669203210172 0.3337394566627943 0.31491849122509025 0.3314423202037239 C 0.3133669203210172 0.3337394566627943 0.29778128687207944 0.34396678468975195 0.30089718307589314 0.3426177998855391 C 0.29778128687207944 0.34396678468975195 0.2736328290632313 0.3476301378542781 0.27752773677932585 0.3476301378542781 C 0.2736328290632313 0.3476301378542781 0.25104239427894476 0.3412688150813262 0.25415829048275845 0.3426177998855391 C 0.25104239427894476 0.3412688150813262 0.23858541142948828 0.32914518374465346 0.24013698233356134 0.3314423202037239 C 0.23858541142948828 0.32914518374465346 0.2356856963918778 0.31223726067352936 0.23553943963388177 0.31505216237669376 C 0.2356856963918778 0.31223726067352936 0.24364157581057386 0.2951024413373643 0.2418920634295137 0.2976634997657509 C 0.24364157581057386 0.2951024413373643 0.25950322765242145 0.28287040601847613 0.25653358820660377 0.28431946123605467 C 0.25950322765242145 0.28287040601847613 0.2810267615414461 0.28027483715480805 0.2775277367793258 0.28027483715480805 C 0.2810267615414461 0.28027483715480805 0.3014915247978655 0.2857685164536332 0.2985218853520478 0.28431946123605467 Z" fill="#cccccc" stroke="none" stroke-width="0"/>
</g><g transform="translate(0.3373434528286706,0.2681716236730291) rotate(0) scale(1,1) translate(-0.27752773677932585,-0.29720090264730137)"><path d="M 0.2957926460375939 0.28695857573720374 C 0.2983762323554553 0.2882192537764971 0.3100528483651847 0.3007960100907359 0.30853077259366235 0.29856788925803956 C 0.3100528483651847 0.3007960100907359 0.3141763201820545 0.3162551373120903 0.3140575552958622 0.3136960257295598 C 0.3141763201820545 0.3162551373120903 0.30843387545644724 0.33150534908110235 0.3099559512279696 0.329277228248406 C 0.30843387545644724 0.33150534908110235 0.29309029483354027 0.34165639825726535 0.2957926460375939 0.34043347572191585 C 0.29309029483354027 0.34165639825726535 0.27448358523628114 0.34395229867260035 0.27752773677932585 0.34395229867260035 C 0.27448358523628114 0.34395229867260035 0.256560476317004 0.33921055318656634 0.25926282752105767 0.34043347572191585 C 0.256560476317004 0.33921055318656634 0.24357744655915983 0.32704910741570964 0.2450995223306822 0.329277228248406 C 0.24357744655915983 0.32704910741570964 0.24111668314898174 0.31113691414702926 0.2409979182627895 0.3136960257295598 C 0.24111668314898174 0.31113691414702926 0.24804677673651163 0.2963397684253432 0.24652470096498927 0.29856788925803956 C 0.24804677673651163 0.2963397684253432 0.26184641383891905 0.2856978976979104 0.25926282752105767 0.28695857573720374 C 0.26184641383891905 0.2856978976979104 0.28057188832237046 0.28343975278651923 0.2775277367793258 0.28343975278651923 C 0.28057188832237046 0.28343975278651923 0.2983762323554553 0.2882192537764971 0.2957926460375939 0.28695857573720374 Z" fill="#cccccc" stroke="none" stroke-width="0"/>
</g><g transform="translate(0.33734345282867056,0.2681716236730291) rotate(0) scale(1,1) translate(-0.347449015945068,-0.3373339341359697)"><path d="M 0.35635545742524705 0.352846662454229 C 0.3576901194220953 0.35544816039735855 0.3642628169072914 0.3691104387997804 0.3634649599072469 0.3672410088197376 C 0.3642628169072914 0.3691104387997804 0.3661221867931274 0.3767639664561729 0.36592974142578105 0.3752798222147427 C 0.3661221867931274 0.3767639664561729 0.36544333557378106 0.3865958768902137 0.3657743043154035 0.3850507397168995 C 0.36544333557378106 0.3865958768902137 0.3611020044418538 0.395027798520408 0.36195811652631216 0.39382146829451253 C 0.3611020044418538 0.395027798520408 0.3542918675867993 0.4001718198126954 0.355500959301903 0.399526702427645 C 0.3542918675867993 0.4001718198126954 0.34610702538559557 0.40156287691511755 0.34744901594506805 0.40156287691511755 C 0.34610702538559557 0.40156287691511755 0.33818798087312923 0.3988815850425946 0.33939707258823293 0.399526702427645 C 0.33818798087312923 0.3988815850425946 0.33208380327936554 0.3926151380686171 0.3329399153638239 0.39382146829451253 C 0.33208380327936554 0.3926151380686171 0.32879275883311015 0.38350560254358534 0.32912372757473257 0.3850507397168995 C 0.32879275883311015 0.38350560254358534 0.32916073583170136 0.37379567797331253 0.328968290464355 0.3752798222147427 C 0.32916073583170136 0.37379567797331253 0.33223092898293355 0.3653715788396948 0.33143307198288907 0.3672410088197376 C 0.33223092898293355 0.3653715788396948 0.3398772364617371 0.3502451645110995 0.3385425744648889 0.352846662454229 C 0.3398772364617371 0.3502451645110995 0.34893342285843115 0.33602303350218343 0.347449015945068 0.33602303350218343 C 0.34893342285843115 0.33602303350218343 0.3576901194220953 0.35544816039735855 0.35635545742524705 0.352846662454229 Z" fill="#cccccc" stroke="none" stroke-width="0"/>
</g><g transform="translate(0.33734345282867056,0.26817162367302916) rotate(0) scale(1,1) translate(-0.347449015945068,-0.3224774077288565)"><path d="M 0.3655939088459304 0.3492449495661643 C 0.36890581221074803 0.35373829768441933 0.3899435151833725 0.38281391634322914 0.38719185632287934 0.37846555716371827 C 0.3899435151833725 0.38281391634322914 0.39947608873880824 0.4050190813456068 0.3986138151718483 0.4014252597202945 C 0.39947608873880824 0.4050190813456068 0.396622835855019 0.4246173890999045 0.3975391391263989 0.4215914166674655 C 0.396622835855019 0.4246173890999045 0.3853016824822285 0.4400134750249034 0.38761817591528996 0.43773692890956223 C 0.3853016824822285 0.4400134750249034 0.36639378793214267 0.4501733578313402 0.36974121792966114 0.4489099700515597 C 0.36639378793214267 0.4501733578313402 0.34373364894763586 0.45289758226692833 0.34744901594506805 0.45289758226692833 C 0.34373364894763586 0.45289758226692833 0.32180938396295633 0.4476465822717792 0.3251568139604748 0.44890997005155975 C 0.32180938396295633 0.4476465822717792 0.30496336254178474 0.43546038279422106 0.3072798559748462 0.43773692890956223 C 0.30496336254178474 0.43546038279422106 0.2964425894923574 0.41856544423502656 0.2973588927637373 0.4215914166674655 C 0.2964425894923574 0.41856544423502656 0.29714649028524776 0.3978314380949822 0.2962842167182878 0.4014252597202945 C 0.29714649028524776 0.3978314380949822 0.31045783442774977 0.3741171979842074 0.3077061755672566 0.37846555716371827 C 0.31045783442774977 0.3741171979842074 0.3326160264090231 0.3447516014479093 0.3293041230442055 0.3492449495661643 C 0.3326160264090231 0.3447516014479093 0.3504731647618784 0.3245453797446583 0.347449015945068 0.3245453797446583 C 0.3504731647618784 0.3245453797446583 0.36890581221074803 0.35373829768441933 0.3655939088459304 0.3492449495661643 Z" fill="#cccccc" stroke="none" stroke-width="0"/>
</g><g transform="translate(0.33734345282867056,0.26817162367302916) rotate(0) scale(1,1) translate(-0.347449015945068,-0.3224774077288565)"><path d="M 0.36717535366418 0.35749251110729335 C 0.37013141567270325 0.3625872439212557 0.38468888518587285 0.3893432358966229 0.38292176004734685 0.38568217351220613 C 0.38468888518587285 0.3893432358966229 0.38880709091308446 0.4043317845505127 0.38838085532649225 0.4014252597202945 C 0.38880709091308446 0.4043317845505127 0.3873035444693494 0.42358644390726335 0.3880365870864533 0.4205604714748244 C 0.3873035444693494 0.42358644390726335 0.377688193125103 0.4400993871242902 0.37958434392124557 0.43773692890956223 C 0.377688193125103 0.4400993871242902 0.3626048335347277 0.4501733578313402 0.3652827775327425 0.4489099700515597 C 0.3626048335347277 0.4501733578313402 0.3444767223471223 0.45289758226692833 0.34744901594506805 0.45289758226692833 C 0.3444767223471223 0.45289758226692833 0.3269373103593787 0.4476465822717792 0.3296152543573935 0.44890997005155975 C 0.3269373103593787 0.4476465822717792 0.31341753717274806 0.43537447069483426 0.3153136879688906 0.43773692890956223 C 0.31341753717274806 0.43537447069483426 0.306128402186579 0.41753449904238543 0.3068614448036829 0.4205604714748244 C 0.306128402186579 0.41753449904238543 0.306943412150236 0.39851873489007633 0.30651717656364386 0.4014252597202945 C 0.306943412150236 0.39851873489007633 0.31374339698131515 0.38202111112778936 0.31197627184278914 0.38568217351220613 C 0.31374339698131515 0.38202111112778936 0.3306787402344791 0.352397778293331 0.32772267822595585 0.35749251110729335 C 0.3306787402344791 0.352397778293331 0.35073673889825335 0.3245453797446583 0.347449015945068 0.3245453797446583 C 0.35073673889825335 0.3245453797446583 0.37013141567270325 0.3625872439212557 0.36717535366418 0.35749251110729335 Z" fill="#cccccc" stroke="none" stroke-width="0"/>
</g><g transform="translate(0.3373434528286705,0.23902245434828684) rotate(0) scale(1,1) translate(-0.23436197091844638,-0.2574904013129663)"><path d="M 0.2533791667063888 0.1732612300136314 C 0.25608002911052613 0.17502847259713517 0.2676196384924364 0.19280077053757086 0.2667723197680943 0.1896958490908316 C 0.2676196384924364 0.19280077053757086 0.26304318419671513 0.21414974317520044 0.2635469913984942 0.2105202873745027 C 0.26304318419671513 0.21414974317520044 0.261247127558128 0.23926214714215782 0.2607266333467458 0.23324931869920426 C 0.261247127558128 0.23926214714215782 0.269595424001458 0.28846973271607745 0.2697929219350809 0.2826742286899454 C 0.269595424001458 0.28846973271607745 0.25540407889188416 0.304889721669058 0.25835665814327036 0.30279536701278914 C 0.25540407889188416 0.304889721669058 0.23036285638097573 0.30780648456517123 0.23436197091844638 0.30780648456517123 C 0.23036285638097573 0.30780648456517123 0.20741470444223645 0.30070101235652036 0.21036728369362265 0.30279536701278914 C 0.20741470444223645 0.30070101235652036 0.19873352196818886 0.27687872466381347 0.19893101990181183 0.2826742286899455 C 0.19873352196818886 0.27687872466381347 0.2085178027015291 0.22723649025625076 0.2079973084901469 0.23324931869920432 C 0.2085178027015291 0.22723649025625076 0.20467314323661928 0.20689083157380497 0.20517695043839831 0.2105202873745027 C 0.20467314323661928 0.20689083157380497 0.2027989407931406 0.18659092764409232 0.20195162206879846 0.1896958490908316 C 0.2027989407931406 0.18659092764409232 0.21804563753464112 0.17149398743012761 0.2153447751305038 0.1732612300136314 C 0.21804563753464112 0.17149398743012761 0.2375315035497701 0.16848893808878643 0.23436197091844635 0.16848893808878643 C 0.2375315035497701 0.16848893808878643 0.25608002911052613 0.17502847259713517 0.2533791667063888 0.1732612300136314 Z" fill="#cccccc" stroke="none" stroke-width="0"/>
</g><g id="湯気">
<g id="湯気左1">
<g transform="translate(0.3296280425098704,0.33968829645955884) rotate(0) scale(1,1) translate(-0.34309470195499997,-0.3430947019550001)"><path d="M 0.3479810782401191 0.33967322444563053 C 0.34832712522421627 0.33994977083360683 0.3489498399275167 0.34300908519348944 0.34903716670504775 0.34257480365596854 C 0.3489498399275167 0.34300908519348944 0.34672307463969043 0.34533512577789416 0.34693315690974696 0.3448846028958816 C 0.34672307463969043 0.34533512577789416 0.34623963307639316 0.3483271252242164 0.34651617946436947 0.3479810782401192 C 0.34623963307639316 0.3483271252242164 0.34318031871651067 0.3489498399275169 0.34361460025403157 0.34903716670504786 C 0.34318031871651067 0.3489498399275169 0.34085427813210584 0.3467230746396906 0.3413048010141184 0.34693315690974713 C 0.34085427813210584 0.3467230746396906 0.33786227868578367 0.3462396330763933 0.33820832566988085 0.34651617946436963 C 0.33786227868578367 0.3462396330763933 0.3372395639824832 0.3431803187165108 0.33715223720495224 0.34361460025403173 C 0.3372395639824832 0.3431803187165108 0.3394663292703095 0.34085427813210595 0.339256247000253 0.34130480101411853 C 0.3394663292703095 0.34085427813210595 0.3399497708336067 0.33786227868578383 0.3396732244456304 0.338208325669881 C 0.3399497708336067 0.33786227868578383 0.34300908519348927 0.33723956398248334 0.3425748036559684 0.33715223720495235 C 0.34300908519348927 0.33723956398248334 0.34533512577789405 0.3394663292703096 0.34488460289588146 0.3392562470002531 C 0.34533512577789405 0.3394663292703096 0.34832712522421627 0.33994977083360683 0.3479810782401191 0.33967322444563053 Z" fill="#cccccc" stroke="none" stroke-width="0"/>
</g><g transform="translate(0.3373434528286706,0.3487465819976097) rotate(0) scale(1,1) translate(-0.34431444163765135,-0.3325224543213954)"><path d="M 0.3424735710740404 0.3245000086414288 C 0.34252271541685403 0.32494024863674376 0.340799779276648 0.32754383635584655 0.34116861205334453 0.32729850229229274 C 0.340799779276648 0.32754383635584655 0.33758045937096737 0.3276140345912614 0.3380475777536822 0.3274440174040747 C 0.33758045937096737 0.3276140345912614 0.33512295146545173 0.3293878528813474 0.3355631914607667 0.3293387085385338 C 0.33512295146545173 0.3293878528813474 0.33251936374634894 0.32766491674114134 0.33276469780990275 0.32803374951783787 C 0.33251936374634894 0.32766491674114134 0.3324491655109342 0.32444559683546087 0.3326191826981209 0.32491271521817566 C 0.3324491655109342 0.32444559683546087 0.3306753472208481 0.3219880889299452 0.33072449156366174 0.32242832892526013 C 0.3306753472208481 0.3219880889299452 0.33239828336105415 0.31938450121084244 0.3320294505843576 0.31962983527439626 C 0.33239828336105415 0.31938450121084244 0.33561760326673473 0.31931430297542757 0.33515048488401994 0.3194843201626143 C 0.33561760326673473 0.31931430297542757 0.33807511117225036 0.3175404846853416 0.3376348711769354 0.3175896290281552 C 0.33807511117225036 0.3175404846853416 0.3406786988913531 0.3192634208255476 0.3404333648277993 0.31889458804885107 C 0.3406786988913531 0.3192634208255476 0.34074889712676804 0.322482740731228 0.3405788799395813 0.3220156223485132 C 0.34074889712676804 0.322482740731228 0.34252271541685403 0.32494024863674376 0.3424735710740404 0.3245000086414288 Z" fill="#cccccc" stroke="none" stroke-width="0"/>
</g></g>
<g id="湯気左2">
<g transform="translate(0.3256416769722731,0.3348670253135858) rotate(0) scale(1,1) translate(-0.34309470195499997,-0.3430947019550001)"><path d="M 0.3479810782401191 0.33967322444563053 C 0.34832712522421627 0.33994977083360683 0.3489498399275167 0.34300908519348944 0.34903716670504775 0.34257480365596854 C 0.3489498399275167 0.34300908519348944 0.34672307463969043 0.34533512577789416 0.34693315690974696 0.3448846028958816 C 0.34672307463969043 0.34533512577789416 0.34623963307639316 0.3483271252242164 0.34651617946436947 0.3479810782401192 C 0.34623963307639316 0.3483271252242164 0.34318031871651067 0.3489498399275169 0.34361460025403157 0.34903716670504786 C 0.34318031871651067 0.3489498399275169 0.34085427813210584 0.3467230746396906 0.3413048010141184 0.34693315690974713 C 0.34085427813210584 0.3467230746396906 0.33786227868578367 0.3462396330763933 0.33820832566988085 0.34651617946436963 C 0.33786227868578367 0.3462396330763933 0.3372395639824832 0.3431803187165108 0.33715223720495224 0.34361460025403173 C 0.3372395639824832 0.3431803187165108 0.3394663292703095 0.34085427813210595 0.339256247000253 0.34130480101411853 C 0.3394663292703095 0.34085427813210595 0.3399497708336067 0.33786227868578383 0.3396732244456304 0.338208325669881 C 0.3399497708336067 0.33786227868578383 0.34300908519348927 0.33723956398248334 0.3425748036559684 0.33715223720495235 C 0.34300908519348927 0.33723956398248334 0.34533512577789405 0.3394663292703096 0.34488460289588146 0.3392562470002531 C 0.34533512577789405 0.3394663292703096 0.34832712522421627 0.33994977083360683 0.3479810782401191 0.33967322444563053 Z" fill="#cccccc" stroke="none" stroke-width="0"/>
</g><g transform="translate(0.3373434528286706,0.3487465819976097) rotate(0) scale(1,1) translate(-0.34431444163765135,-0.3325224543213954)"><path d="M 0.33848720553644307 0.31967873749545583 C 0.3385363498792567 0.3201189774907708 0.3368134137390506 0.3227225652098736 0.33718224651574713 0.32247723114631976 C 0.3368134137390506 0.3227225652098736 0.3335940938333702 0.3227927634452884 0.334061212216085 0.32262274625810167 C 0.3335940938333702 0.3227927634452884 0.3311365859278545 0.3245665817353744 0.33157682592316945 0.3245174373925608 C 0.3311365859278545 0.3245665817353744 0.32853299820875165 0.32284364559516837 0.32877833227230546 0.3232124783718649 C 0.32853299820875165 0.32284364559516837 0.3284627999733369 0.3196243256894879 0.3286328171605236 0.3200914440722027 C 0.3284627999733369 0.3196243256894879 0.32668898168325083 0.31716681778397215 0.32673812602606445 0.3176070577792871 C 0.32668898168325083 0.31716681778397215 0.3284119178234569 0.3145632300648694 0.3280430850467604 0.31480856412842323 C 0.3284119178234569 0.3145632300648694 0.3316312377291374 0.3144930318294546 0.3311641193464226 0.3146630490166413 C 0.3316312377291374 0.3144930318294546 0.33408874563465313 0.31271921353936855 0.3336485056393382 0.31276835788218216 C 0.33408874563465313 0.31271921353936855 0.3366923333537558 0.3144421496795746 0.336446999290202 0.3140733169028781 C 0.3366923333537558 0.3144421496795746 0.3367625315891707 0.317661469585255 0.33659251440198396 0.3171943512025402 C 0.3367625315891707 0.317661469585255 0.3385363498792567 0.3201189774907708 0.33848720553644307 0.31967873749545583 Z" fill="#cccccc" stroke="none" stroke-width="0"/>
</g></g>
<g id="湯気左3">
<g transform="translate(0.32947167433412766,0.33370300223110744) rotate(0) scale(1,1) translate(-0.3278168823905379,-0.3319600198995444)"><path d="M 0.3327032586756571 0.32853854239017477 C 0.33304930565975427 0.3288150887781511 0.33367202036305466 0.33187440313803374 0.3337593471405857 0.3314401216005128 C 0.33367202036305466 0.33187440313803374 0.3314452550752284 0.33420044372243846 0.3316553373452849 0.3337499208404259 C 0.3314452550752284 0.33420044372243846 0.33096181351193116 0.3371924431687607 0.33123835989990746 0.3368463961846635 C 0.33096181351193116 0.3371924431687607 0.3279024991520486 0.337815157872061 0.3283367806895695 0.33790248464959205 C 0.3279024991520486 0.337815157872061 0.3255764585676438 0.3355883925842348 0.32602698144965636 0.3357984748542913 C 0.3255764585676438 0.3355883925842348 0.3225844591213216 0.3351049510209376 0.3229305061054188 0.33538149740891393 C 0.3225844591213216 0.3351049510209376 0.3219617444180212 0.33204563666105497 0.3218744176404902 0.3324799181985759 C 0.3219617444180212 0.33204563666105497 0.3241885097058475 0.32971959607665025 0.32397842743579097 0.3301701189586628 C 0.3241885097058475 0.32971959607665025 0.32467195126914467 0.3267275966303281 0.32439540488116836 0.32707364361442526 C 0.32467195126914467 0.3267275966303281 0.32773126562902727 0.3261048819270276 0.32729698409150637 0.3260175551494966 C 0.32773126562902727 0.3261048819270276 0.330057306213432 0.32833164721485386 0.3296067833314194 0.32812156494479733 C 0.330057306213432 0.32833164721485386 0.33304930565975427 0.3288150887781511 0.3327032586756571 0.32853854239017477 Z" fill="#cccccc" stroke="none" stroke-width="0"/>
</g><g transform="translate(0.3373434528286706,0.3487465819976097) rotate(0) scale(1,1) translate(-0.34431444163765135,-0.3325224543213954)"><path d="M 0.34231720289829776 0.3185147144129775 C 0.34236634724111137 0.31895495440829247 0.3406434111009053 0.32155854212739515 0.3410122438776018 0.32131320806384134 C 0.3406434111009053 0.32155854212739515 0.33742409119522476 0.32162874036281014 0.33789120957793956 0.32145872317562335 C 0.33742409119522476 0.32162874036281014 0.3349665832897091 0.32340255865289613 0.335406823285024 0.3233534143100825 C 0.3349665832897091 0.32340255865289613 0.33236299557060633 0.32167962251268994 0.33260832963416015 0.32204845528938647 C 0.33236299557060633 0.32167962251268994 0.33229279733519157 0.31846030260700964 0.3324628145223783 0.31892742098972443 C 0.33229279733519157 0.31846030260700964 0.33051897904510547 0.3160027947014938 0.3305681233879191 0.31644303469680873 C 0.33051897904510547 0.3160027947014938 0.33224191518531154 0.3133992069823911 0.331873082408615 0.3136445410459449 C 0.33224191518531154 0.3133992069823911 0.33546123509099207 0.3133290087469762 0.3349941167082773 0.313499025934163 C 0.33546123509099207 0.3133290087469762 0.3379187429965077 0.3115551904568902 0.33747850300119275 0.3116043347997038 C 0.3379187429965077 0.3115551904568902 0.34052233071561044 0.3132781265970963 0.34027699665205663 0.3129092938203998 C 0.34052233071561044 0.3132781265970963 0.34059252895102543 0.31649744650277667 0.34042251176383864 0.3160303281200619 C 0.34059252895102543 0.31649744650277667 0.34236634724111137 0.31895495440829247 0.34231720289829776 0.3185147144129775 Z" fill="#cccccc" stroke="none" stroke-width="0"/>
</g></g>
<g id="湯気右1">
<g transform="translate(0.3450588631474709,0.33968829645955884) rotate(0) scale(1,1) translate(-0.34309470195499997,-0.3430947019550001)"><path d="M 0.3413048010141185 0.3392562470002531 C 0.34175532389613106 0.33904616473019655 0.3440488817915525 0.33706491042742137 0.3436146002540316 0.33715223720495235 C 0.3440488817915525 0.33706491042742137 0.3467927258523458 0.3385543726539782 0.3465161794643695 0.338208325669881 C 0.3467927258523458 0.3385543726539782 0.3471432391798035 0.3417553238961311 0.34693315690974696 0.34130480101411853 C 0.3471432391798035 0.3417553238961311 0.34912449348257873 0.3440488817915527 0.3490371667050477 0.34361460025403173 C 0.34912449348257873 0.3440488817915527 0.34763503125602196 0.34679272585234594 0.34798107824011915 0.34651617946436963 C 0.34763503125602196 0.34679272585234594 0.3444340800138689 0.34714323917980366 0.34488460289588146 0.34693315690974713 C 0.3444340800138689 0.34714323917980366 0.3421405221184475 0.34912449348257885 0.3425748036559684 0.34903716670504786 C 0.3421405221184475 0.34912449348257885 0.33939667805765417 0.347635031256022 0.3396732244456305 0.3479810782401192 C 0.33939667805765417 0.347635031256022 0.3390461647301965 0.344434080013869 0.33925624700025303 0.3448846028958816 C 0.3390461647301965 0.344434080013869 0.33706491042742115 0.34214052211844764 0.3371522372049522 0.34257480365596854 C 0.33706491042742115 0.34214052211844764 0.33855437265397803 0.3393966780576542 0.33820832566988085 0.33967322444563053 C 0.33855437265397803 0.3393966780576542 0.34175532389613106 0.33904616473019655 0.3413048010141185 0.3392562470002531 Z" fill="#cccccc" stroke="none" stroke-width="0"/>
</g><g transform="translate(0.3373434528286706,0.3487465819976097) rotate(0) scale(1,1) translate(-0.34431444163765135,-0.3325224543213954)"><path d="M 0.3480500033357214 0.3220156223485132 C 0.3482200205229081 0.3215485039657984 0.34844085251105733 0.31852575527215454 0.3481955184475035 0.31889458804885107 C 0.34844085251105733 0.31852575527215454 0.35143425209368234 0.3176387733709688 0.3509940120983674 0.3175896290281552 C 0.35143425209368234 0.3176387733709688 0.3539455167739977 0.31965433734980103 0.3534783983912829 0.3194843201626143 C 0.3539455167739977 0.31965433734980103 0.35696826546764165 0.31987516933795007 0.35659943269094513 0.31962983527439626 C 0.35696826546764165 0.31987516933795007 0.35785524736882734 0.3228685689205751 0.35790439171164096 0.32242832892526013 C 0.35785524736882734 0.3228685689205751 0.35583968338999517 0.32537983360089046 0.3560097005771819 0.32491271521817566 C 0.35583968338999517 0.32537983360089046 0.3556188514018462 0.3284025822945344 0.3558641854654 0.32803374951783787 C 0.3556188514018462 0.3284025822945344 0.3526254518192211 0.3292895641957202 0.35306569181453606 0.3293387085385338 C 0.3526254518192211 0.3292895641957202 0.3501141871389057 0.32727400021688796 0.3505813055216205 0.3274440174040747 C 0.3501141871389057 0.32727400021688796 0.3470914384452618 0.3270531682287389 0.34746027122195833 0.32729850229229274 C 0.3470914384452618 0.3270531682287389 0.346204456544076 0.32405976864611385 0.3461553122012624 0.3245000086414288 C 0.346204456544076 0.32405976864611385 0.3482200205229081 0.3215485039657984 0.3480500033357214 0.3220156223485132 Z" fill="#cccccc" stroke="none" stroke-width="0"/>
</g></g>
<g id="湯気右2">
<g transform="translate(0.3490452286850682,0.3348670253135858) rotate(0) scale(1,1) translate(-0.34309470195499997,-0.3430947019550001)"><path d="M 0.3413048010141185 0.3392562470002531 C 0.34175532389613106 0.33904616473019655 0.3440488817915525 0.33706491042742137 0.3436146002540316 0.33715223720495235 C 0.3440488817915525 0.33706491042742137 0.3467927258523458 0.3385543726539782 0.3465161794643695 0.338208325669881 C 0.3467927258523458 0.3385543726539782 0.3471432391798035 0.3417553238961311 0.34693315690974696 0.34130480101411853 C 0.3471432391798035 0.3417553238961311 0.34912449348257873 0.3440488817915527 0.3490371667050477 0.34361460025403173 C 0.34912449348257873 0.3440488817915527 0.34763503125602196 0.34679272585234594 0.34798107824011915 0.34651617946436963 C 0.34763503125602196 0.34679272585234594 0.3444340800138689 0.34714323917980366 0.34488460289588146 0.34693315690974713 C 0.3444340800138689 0.34714323917980366 0.3421405221184475 0.34912449348257885 0.3425748036559684 0.34903716670504786 C 0.3421405221184475 0.34912449348257885 0.33939667805765417 0.347635031256022 0.3396732244456305 0.3479810782401192 C 0.33939667805765417 0.347635031256022 0.3390461647301965 0.344434080013869 0.33925624700025303 0.3448846028958816 C 0.3390461647301965 0.344434080013869 0.33706491042742115 0.34214052211844764 0.3371522372049522 0.34257480365596854 C 0.33706491042742115 0.34214052211844764 0.33855437265397803 0.3393966780576542 0.33820832566988085 0.33967322444563053 C 0.33855437265397803 0.3393966780576542 0.34175532389613106 0.33904616473019655 0.3413048010141185 0.3392562470002531 Z" fill="#cccccc" stroke="none" stroke-width="0"/>
</g><g transform="translate(0.3373434528286706,0.3487465819976097) rotate(0) scale(1,1) translate(-0.34431444163765135,-0.3325224543213954)"><path d="M 0.3520363688733188 0.3171943512025402 C 0.3522063860605056 0.3167272328198254 0.3524272180486546 0.31370448412618157 0.3521818839851008 0.3140733169028781 C 0.3524272180486546 0.31370448412618157 0.35542061763127963 0.31281750222499577 0.3549803776359647 0.31276835788218216 C 0.35542061763127963 0.31281750222499577 0.357931882311595 0.31483306620382806 0.3574647639288802 0.3146630490166413 C 0.357931882311595 0.31483306620382806 0.360954631005239 0.31505389819197704 0.3605857982285425 0.31480856412842323 C 0.360954631005239 0.31505389819197704 0.3618416129064247 0.31804729777460206 0.3618907572492383 0.3176070577792871 C 0.3618416129064247 0.31804729777460206 0.3598260489275924 0.3205585624549175 0.35999606611477913 0.3200914440722027 C 0.3598260489275924 0.3205585624549175 0.3596052169394434 0.3235813111485614 0.35985055100299723 0.3232124783718649 C 0.3596052169394434 0.3235813111485614 0.3566118173568184 0.32446829304974717 0.35705205735213336 0.3245174373925608 C 0.3566118173568184 0.32446829304974717 0.3541005526765031 0.32245272907091493 0.3545676710592179 0.32262274625810167 C 0.3541005526765031 0.32245272907091493 0.3510778039828591 0.32223189708276595 0.3514466367595556 0.32247723114631976 C 0.3510778039828591 0.32223189708276595 0.3501908220816733 0.3192384975001409 0.3501416777388597 0.31967873749545583 C 0.3501908220816733 0.3192384975001409 0.3522063860605056 0.3167272328198254 0.3520363688733188 0.3171943512025402 Z" fill="#cccccc" stroke="none" stroke-width="0"/>
</g></g>
<g id="湯気右3">
<g transform="translate(0.34521523132321363,0.33370300223110744) rotate(0) scale(1,1) translate(-0.3278168823905379,-0.3319600198995444)"><path d="M 0.3260269814496564 0.32812156494479733 C 0.326477504331669 0.3279114826747408 0.32877106222709035 0.3259302283719656 0.32833678068956945 0.3260175551494966 C 0.32877106222709035 0.3259302283719656 0.33151490628788377 0.32741969059852244 0.33123835989990746 0.32707364361442526 C 0.33151490628788377 0.32741969059852244 0.33186541961534144 0.3306206418406753 0.3316553373452849 0.3301701189586628 C 0.33186541961534144 0.3306206418406753 0.3338466739181167 0.33291419973609687 0.33375934714058564 0.3324799181985759 C 0.3338466739181167 0.33291419973609687 0.3323572116915599 0.33565804379689024 0.3327032586756571 0.33538149740891393 C 0.3323572116915599 0.33565804379689024 0.3291562604494068 0.3360085571243479 0.3296067833314194 0.3357984748542914 C 0.3291562604494068 0.3360085571243479 0.3268627025539854 0.33798981142712303 0.3272969840915063 0.33790248464959205 C 0.3268627025539854 0.33798981142712303 0.3241188584931921 0.3365003492005663 0.3243954048811684 0.3368463961846635 C 0.3241188584931921 0.3365003492005663 0.32376834516573444 0.3332993979584133 0.32397842743579097 0.3337499208404259 C 0.32376834516573444 0.3332993979584133 0.3217870908629591 0.33100584006299183 0.32187441764049013 0.3314401216005128 C 0.3217870908629591 0.33100584006299183 0.32327655308951597 0.32826199600219846 0.3229305061054188 0.32853854239017477 C 0.32327655308951597 0.32826199600219846 0.326477504331669 0.3279114826747408 0.3260269814496564 0.32812156494479733 Z" fill="#cccccc" stroke="none" stroke-width="0"/>
</g><g transform="translate(0.3373434528286706,0.3487465819976097) rotate(0) scale(1,1) translate(-0.34431444163765135,-0.3325224543213954)"><path d="M 0.3482063715114642 0.3160303281200619 C 0.34837638869865095 0.3155632097373471 0.3485972206867999 0.31254046104370325 0.34835188662324607 0.3129092938203998 C 0.3485972206867999 0.31254046104370325 0.35159062026942495 0.3116534791425174 0.35115038027411 0.3116043347997038 C 0.35159062026942495 0.3116534791425174 0.35410188494974026 0.3136690431213498 0.35363476656702547 0.313499025934163 C 0.35410188494974026 0.3136690431213498 0.3571246336433842 0.31388987510949873 0.3567558008666877 0.3136445410459449 C 0.3571246336433842 0.31388987510949873 0.3580116155445701 0.3168832746921237 0.35806075988738373 0.31644303469680873 C 0.3580116155445701 0.3168832746921237 0.3559960515657377 0.3193945393724392 0.35616606875292445 0.31892742098972443 C 0.3559960515657377 0.3193945393724392 0.35577521957758884 0.322417288066083 0.35602055364114266 0.32204845528938647 C 0.35577521957758884 0.322417288066083 0.35278181999496383 0.3233042699672689 0.3532220599902788 0.3233534143100825 C 0.35278181999496383 0.3233042699672689 0.35027055531464835 0.32128870598843656 0.3507376736973632 0.32145872317562335 C 0.35027055531464835 0.32128870598843656 0.34724780662100435 0.3210678740002875 0.3476166393977009 0.32131320806384134 C 0.34724780662100435 0.3210678740002875 0.3463608247198186 0.31807447441766257 0.346311680377005 0.3185147144129775 C 0.3463608247198186 0.31807447441766257 0.34837638869865095 0.3155632097373471 0.3482063715114642 0.3160303281200619 Z" fill="#cccccc" stroke="none" stroke-width="0"/>
</g></g>
</g>
</svg>
