<?xml version="1.0" encoding="UTF-8"?>
<svg xmlns="http://www.w3.org/2000/svg" viewBox="0 0 1 1">
<g transform="translate(0.4568674369506132,0.1849951984048581) rotate(0) scale(1,1) translate(-0.09500000000000003,-0.09500000000000001)"><path d="M 0.10280581884501479 0.11046484661455093 C 0.10276627785066662 0.11059664668803391 0.10227698615837187 0.11230614551713412 0.10233132691283688 0.11204644749634679 C 0.10227698615837187 0.11230614551713412 0.10213893003131792 0.11370912081130333 0.10215372979143476 0.11358122286399898" fill="none" stroke="#000000" stroke-width="0.001"/>
<path d="M 0.10215372979143476 0.11358122286399898 C 0.10216466988197288 0.11370487822927733 0.10226408737417284 0.11533456882058211 0.10228501087789225 0.11506508724733916 C 0.10226408737417284 0.11533456882058211 0.1017784411012387 0.11710145172927819 0.10190264774680168 0.11681500174291444 C 0.1017784411012387 0.11710145172927819 0.1005848167274174 0.11875214063636003 0.10079453113113643 0.11850248708370406 C 0.1005848167274174 0.11875214063636003 0.0992687035497598 0.1199198741490428 0.0993860749021734 0.11981084437478598" fill="none" stroke="none" stroke-width="0"/>
<path d="M 0.0993860749021734 0.11981084437478598 C 0.0988707826016163 0.11984414388366509 0.09219801336504131 0.1200628593092763 0.09320256729548826 0.12021043848133525 C 0.09219801336504131 0.1200628593092763 0.08684216610692011 0.1178590156291406 0.08733142773680996 0.11803989431007865" fill="none" stroke="none" stroke-width="0"/>
<path d="M 0.08733142773680996 0.11803989431007865 C 0.08725050605368939 0.11764417024691175 0.08630121575265237 0.11253102004057768 0.08636036753936317 0.11329120555207586 C 0.08630121575265237 0.11253102004057768 0.08664337619269005 0.10855320672376918 0.0866216062962803 0.10891766817210047" fill="none" stroke="#000000" stroke-width="0.001"/>
<path d="M 0.0866216062962803 0.10891766817210047 C 0.08666875677716772 0.10882362263472878 0.08734990305932279 0.10766948101313462 0.0871874120669293 0.10778912172364011 C 0.08734990305932279 0.10766948101313462 0.08881031336517495 0.10750695770215662 0.0885714982050021 0.1074819796460346 C 0.08881031336517495 0.10750695770215662 0.09026991229318812 0.10812638691942983 0.09005319398900347 0.10808885839710437 C 0.09026991229318812 0.10812638691942983 0.0912653615107358 0.10791927720700979 0.09117211785521794 0.10793232191394014" fill="none" stroke="#000000" stroke-width="0.001"/>
<path d="M 0.09117211785521794 0.10793232191394014 C 0.09121832688820164 0.10789940467054768 0.09186178198956993 0.10748953356000696 0.09172662625102243 0.10753731499323053 C 0.09186178198956993 0.10748953356000696 0.09298378151765775 0.10737085360804077 0.09279398671778794 0.10735894471525712 C 0.09298378151765775 0.10737085360804077 0.09416118825295702 0.10775281670836094 0.0940041638494603 0.10768022170663442 C 0.09416118825295702 0.10775281670836094 0.09473445586893944 0.108275906655087 0.09467827955974874 0.10823008473597527" fill="none" stroke="none" stroke-width="0"/>
<path d="M 0.09467827955974874 0.10823008473597527 C 0.0946993032449045 0.10825231921298736 0.09497186766322004 0.10849544847527012 0.09493056378161784 0.10849689846012034 C 0.09497186766322004 0.10849544847527012 0.09519420633542161 0.10818900045591036 0.09517392613897517 0.10821268491777267" fill="none" stroke="#000000" stroke-width="0.001"/>
<path d="M 0.09517392613897517 0.10821268491777267 C 0.09523014722378025 0.10817823679794585 0.09599610188871135 0.10775465262896845 0.0958485791566361 0.10779930747985075 C 0.09599610188871135 0.10775465262896845 0.09712351054612066 0.10768868288073104 0.09694419892387832 0.10767682670718509 C 0.09712351054612066 0.10768868288073104 0.0981360792647081 0.10800378726070622 0.0980003186235442 0.10794158156240209 C 0.0981360792647081 0.10800378726070622 0.09862107728403682 0.10846343788053733 0.09857332661784508 0.10842329508683463" fill="none" stroke="none" stroke-width="0"/>
<path d="M 0.09857332661784508 0.10842329508683463 C 0.09865627948056299 0.10846724129975129 0.09980450723723798 0.10897441424059082 0.0995687609704599 0.10895064964183453 C 0.09980450723723798 0.10897441424059082 0.10166111375878487 0.10873991874785374 0.10140228181918211 0.10870847027191002 C 0.10166111375878487 0.10873991874785374 0.10279170566451232 0.10947439604837919 0.10267474424569292 0.10932803135315912 C 0.10279170566451232 0.10947439604837919 0.10281674172829161 0.11055958121966691 0.10280581884501479 0.11046484661455093" fill="none" stroke="#000000" stroke-width="0.001"/>
</g><g transform="translate(0.4498586306239552,0.1989621972222435) rotate(0) scale(1,1) translate(-0.03292128146110527,0.04070976691710671)"><path d="M 0.03172338180212863 -0.03949466503957691 C 0.03161201397635286 -0.039609680930797725 0.030185983974875614 -0.041092692608349836 0.030386967892819448 -0.04087485573422673 C 0.030185983974875614 -0.041092692608349836 0.02914513580407118 -0.04234029133583622 0.02931157478680263 -0.0421087075290542 C 0.02914513580407118 -0.04234029133583622 0.02826651140261116 -0.04388820975187748 0.02838970010004207 -0.04365386141561104 C 0.02826651140261116 -0.04388820975187748 0.02775367860707609 -0.04512864684015388 0.027833310417631728 -0.044920887564251485 C 0.02775367860707609 -0.04512864684015388 0.027396008988074788 -0.046323211504758814 0.027434118373374446 -0.046146972726439785 C 0.027396008988074788 -0.046323211504758814 0.027404685391767512 -0.047175164200603144 0.027375997794035815 -0.04703575290407982 C 0.027404685391767512 -0.047175164200603144 0.027879761999699968 -0.04791012084567094 0.02777836954615483 -0.04781990828471967 C 0.027879761999699968 -0.04791012084567094 0.028725735870351814 -0.048124155594913065 0.02859270723657746 -0.048118303635495026 C 0.028725735870351814 -0.048124155594913065 0.02949383239289158 -0.04780809190892923 0.029374713151447046 -0.047890131797736143 C 0.02949383239289158 -0.04780809190892923 0.030125483678941044 -0.046968895236996724 0.030022138133911875 -0.047133824969812055 C 0.030125483678941044 -0.046968895236996724 0.03074107604551755 -0.045680308016250774 0.030614859691797072 -0.045910975003952165 C 0.03074107604551755 -0.045680308016250774 0.03170317336128908 -0.04413423731061332 0.031536734378557627 -0.044365821117395336 C 0.03170317336128908 -0.04413423731061332 0.032827331379701556 -0.042928556629004716 0.032612127484574545 -0.04313196932256794 C 0.032827331379701556 -0.042928556629004716 0.03424476892304068 -0.041824277083975785 0.03411918112008175 -0.04192486879463672" fill="none" stroke="#000000" stroke-width="0.001"/>
</g><g transform="translate(0.4548170386851164,0.19849538725501076) rotate(0) scale(1,1) translate(-0.03292428902679828,0.04070976691710671)"><path d="M 0.03108316013724565 -0.040669596038247054 C 0.031085974319262112 -0.04070835110400688 0.031125370019008378 -0.041202797098286975 0.03111693032144317 -0.041134656827364995 C 0.031125370019008378 -0.041202797098286975 0.03119987616932354 -0.04154024444780538 0.031184436508028136 -0.041487279289310834 C 0.03119987616932354 -0.04154024444780538 0.03132949594067581 -0.041814563258155434 0.03130220625698802 -0.04177023872929952 C 0.03132949594067581 -0.041814563258155434 0.031555029888264294 -0.042054773020070046 0.031511912712281605 -0.04201917363558181 C 0.031555029888264294 -0.042054773020070046 0.03188045764399169 -0.0422229617143475 0.03181961236878025 -0.042197431343158356 C 0.03188045764399169 -0.0422229617143475 0.03232503716099436 -0.04234035557448242 0.03224205601481884 -0.04232553808985155 C 0.03232503716099436 -0.04234035557448242 0.032918260221095216 -0.042375982917381816 0.032815386122886474 -0.04237524115872881 C 0.032918260221095216 -0.042375982917381816 0.033578610755459745 -0.04232350285831156 0.03347654519332377 -0.04233443919368764 C 0.033578610755459745 -0.04232350285831156 0.03412457312278576 -0.042221126550896076 0.03404017286851819 -0.04224400513421589 C 0.03412457312278576 -0.042221126550896076 0.03454032320254211 -0.042019901724149315 0.034489348244534576 -0.042059896193849894 C 0.03454032320254211 -0.042019901724149315 0.034668077462947686 -0.0417036549795284 0.03465187236460861 -0.04176407149780893 C 0.034668077462947686 -0.0417036549795284 0.03468643949342558 -0.04127077094655394 0.03468380942460355 -0.0413348979744835 C 0.03468643949342558 -0.04127077094655394 0.03468101513835697 -0.04092186547851147 0.03468343319047293 -0.04099454716265418 C 0.03468101513835697 -0.04092186547851147 0.0346524060999403 -0.04041839864828066 0.03465479279921204 -0.04046271776477093" fill="none" stroke="#000000" stroke-width="0.001"/>
</g><g transform="translate(0.4587730487621908,0.1990525049146109) rotate(0) scale(1,1) translate(-0.03293544000987633,0.04070976691710671)"><path d="M 0.031247186125726543 -0.04087383215369816 C 0.03124499394319661 -0.04089756411491496 0.03121651242323386 -0.04121444563186061 0.031220879935367346 -0.04115861568829977 C 0.03121651242323386 -0.04121444563186061 0.031189813675932543 -0.04160870026438425 0.031194775980124687 -0.04154379147642829 C 0.031189813675932543 -0.04160870026438425 0.031159478257804282 -0.04200107984344616 0.0311613322850616 -0.04193752114377129 C 0.031159478257804282 -0.04200107984344616 0.031190317573707518 -0.042361209207274104 0.031172527653036863 -0.04230649587252666 C 0.031190317573707518 -0.042361209207274104 0.031440593303200995 -0.04263311316071541 0.03137481133310945 -0.04259408116074059 C 0.031440593303200995 -0.04263311316071541 0.03206831519796981 -0.04279271065554048 0.03196191129413541 -0.04277487987222451 C 0.03206831519796981 -0.04279271065554048 0.032764605144461084 -0.04280453343374359 0.03265165817912214 -0.04280805056053227 C 0.032764605144461084 -0.04280453343374359 0.03341951738754149 -0.04271074950184009 0.03331727487820277 -0.04273267435076036 C 0.03341951738754149 -0.04271074950184009 0.03395942817936542 -0.04250325220819817 0.03387856829118678 -0.04254495237348901 C 0.03395942817936542 -0.04250325220819817 0.03433869683865064 -0.042174760129661516 0.03428759353634644 -0.04223227236727038 C 0.03433869683865064 -0.042174760129661516 0.03451705261660985 -0.04179169804777896 0.03449180791883718 -0.041854805522182625 C 0.03451705261660985 -0.04179169804777896 0.03460208685006799 -0.04141770207556157 0.034590529909618556 -0.041474982674426404 C 0.03460208685006799 -0.04141770207556157 0.034635517250134626 -0.04111592235015077 0.03463049120423039 -0.04116743833580463 C 0.034635517250134626 -0.04111592235015077 0.03465253839848934 -0.040830903555811385 0.03465084246046942 -0.040856790846580095" fill="none" stroke="#000000" stroke-width="0.001"/>
</g><g transform="translate(0.46314962666440257,0.20011621109065514) rotate(0) scale(1,1) translate(-0.03295231879265402,0.04070976691710671)"><path d="M 0.03166607310003036 -0.04190153866632615 C 0.03175740297687442 -0.04201747784355603 0.032967165083654895 -0.04353652053658258 0.03276203162215901 -0.04329280879308473 C 0.032967165083654895 -0.04353652053658258 0.03436884415456687 -0.04511300165605613 0.034127674637981026 -0.0448260795883003 C 0.03436884415456687 -0.04511300165605613 0.0358338642587191 -0.04697489835930401 0.03565606582118913 -0.0467358736061547 C 0.0358338642587191 -0.04697489835930401 0.03638790243478247 -0.04785687607810589 0.0362612558883407 -0.04769437662609206 C 0.03638790243478247 -0.04785687607810589 0.037329308538789546 -0.048795285615047645 0.03717582437849037 -0.04868586703032068 C 0.037329308538789546 -0.048795285615047645 0.03824805955799316 -0.049008896109255365 0.03810306581193081 -0.04900739964281564 C 0.03824805955799316 -0.049008896109255365 0.03901855816857092 -0.048608807044174335 0.03891574933123852 -0.04870382462759734 C 0.03901855816857092 -0.048608807044174335 0.03934681330883484 -0.04771090490165791 0.03933677185991963 -0.047867188641739514 C 0.03934681330883484 -0.04771090490165791 0.038974252117856704 -0.04664938755512994 0.039036246718221035 -0.046828419746618104 C 0.038974252117856704 -0.04664938755512994 0.038515994090106996 -0.045558310638420745 0.03859283665554765 -0.045718802343881586 C 0.038515994090106996 -0.045558310638420745 0.037978146302941294 -0.04468257425058997 0.03811413593293321 -0.044902519281088 C 0.037978146302941294 -0.04468257425058997 0.03675111221002432 -0.042796754395189276 0.03696096109564469 -0.043079461977905145 C 0.03675111221002432 -0.042796754395189276 0.03536908292129157 -0.04121323938766282 0.035595949305488796 -0.04151002828849762 C 0.03536908292129157 -0.04121323938766282 0.034125449083593676 -0.03935199240783664 0.034238564485277914 -0.03951799516788749" fill="none" stroke="#000000" stroke-width="0.001"/>
</g><g transform="translate(0.4594392702602661,0.20724411410771146) rotate(0) scale(1,1) translate(-0.032929014394115344,0.04070976691710671)"><path d="M 0.030057219510254016 -0.04299505532727494 C 0.030275653670755884 -0.043242112372464225 0.03314887455699362 -0.04629879974962869 0.032678429436276434 -0.045959739869546365 C 0.03314887455699362 -0.04629879974962869 0.03616088733192741 -0.04715498646727312 0.03570256095886025 -0.04706377388826281 C 0.03616088733192741 -0.04715498646727312 0.03860737117877115 -0.047138119030967 0.03817834591308241 -0.047054290817670145 C 0.03860737117877115 -0.047138119030967 0.04122195800257725 -0.048335314449997176 0.04085086414712513 -0.04806971244782503 C 0.04122195800257725 -0.048335314449997176 0.04291090540516195 -0.05045670093593962 0.04263147217850781 -0.05024151484373596 C 0.04291090540516195 -0.05045670093593962 0.044403486667971906 -0.050607971763394356 0.04420406286697487 -0.050651945554268954 C 0.044403486667971906 -0.050607971763394356 0.04503679916238702 -0.0495330721468271 0.04502455779047224 -0.04971382935324079 C 0.04503679916238702 -0.0495330721468271 0.04424171909498965 -0.048273128916934825 0.04435095932995224 -0.04848285907730465 C 0.04424171909498965 -0.048273128916934825 0.043592382593511336 -0.04697224651594651 0.04371367497092113 -0.047197067428802884 C 0.043592382593511336 -0.04697224651594651 0.04256570084767117 -0.04547562237725452 0.04289545080103473 -0.045785008123028194 C 0.04256570084767117 -0.04547562237725452 0.03933283865954461 -0.043066806945047414 0.0397566755305583 -0.04348443847951879 C 0.03933283865954461 -0.043066806945047414 0.03752795657480612 -0.04042939008907225 0.037809408348870456 -0.04077342970937161 C 0.03752795657480612 -0.04042939008907225 0.036127887909124405 -0.03913441926107266 0.0363792542417863 -0.039355963035926485 C 0.036127887909124405 -0.03913441926107266 0.034660825533189527 -0.03801148285905896 0.03479301235692774 -0.038114904411125694" fill="none" stroke="#000000" stroke-width="0.001"/>
</g></svg>
