<?xml version="1.0" encoding="UTF-8"?>
<svg xmlns="http://www.w3.org/2000/svg" viewBox="0 0 1 1">
<g id="後翅">
<g id="後翅根">
<g transform="translate(0.31851072682902976,0.1753688810739807) rotate(0) scale(1,1) translate(-0.4918365194169868,-0.3639645425508803)"><path d="M 0.35052178209019175 0.42406918686778383 C 0.35123494413596223 0.4223594966356055 0.36159471767688534 0.3980971750093386 0.3590797266394375 0.4035529040816443 C 0.36159471767688534 0.3980971750093386 0.38250350353124357 0.3548543991599884 0.38070167453956616 0.35860043800011576" fill="none" stroke="none" stroke-width="0"/>
<path d="M 0.38070167453956616 0.35860043800011576 C 0.3839128631535604 0.35844033379643364 0.42550276459450675 0.3566462424903158 0.41923593790749664 0.3566791875559302 C 0.42550276459450675 0.3566462424903158 0.45895923285670315 0.3583322563508105 0.45590359478368725 0.3582050972127428" fill="none" stroke="#000000" stroke-width="0.001"/>
<path d="M 0.45590359478368725 0.3582050972127428 C 0.4573312815488312 0.35791506319475674 0.4756598079494649 0.3542914212117753 0.4730358359654141 0.3547246889969103 C 0.4756598079494649 0.3542914212117753 0.4885875438112035 0.3528626500239739 0.48739125859229665 0.35300588379112285" fill="none" stroke="#000000" stroke-width="0.001"/>
<path d="M 0.48739125859229665 0.35300588379112285 C 0.4884046062168788 0.35365269375109176 0.5002702952038339 0.36261605812493974 0.4995514300872824 0.36076760331075 C 0.5002702952038339 0.36261605812493974 0.4957231574828839 0.3763889864156208 0.4960176399909146 0.3751873415614" fill="none" stroke="#000000" stroke-width="0.001"/>
<path d="M 0.4960176399909146 0.3751873415614 C 0.49470073756460964 0.3764309894926707 0.4775054416853197 0.39351764982974446 0.4802148108752551 0.3901111167366481 C 0.4775054416853197 0.39351764982974446 0.46211274294806004 0.4182286238403822 0.4635052097116904 0.41606573867855645" fill="none" stroke="#000000" stroke-width="0.001"/>
<path d="M 0.4635052097116904 0.41606573867855645 C 0.46081669611731213 0.416937509411829 0.42616809852070536 0.4277259338215598 0.43124304657915136 0.4265269874778271 C 0.42616809852070536 0.4277259338215598 0.4002193985462705 0.4307802704138097 0.40260583301033825 0.4304530948033495" fill="none" stroke="#000000" stroke-width="0.001"/>
<path d="M 0.40260583301033825 0.4304530948033495 C 0.40033469271583727 0.42987111907814674 0.3710118118996477 0.4229373937729528 0.3753521494763266 0.4234693861009166 C 0.3710118118996477 0.4229373937729528 0.34845258480801383 0.42411917026502277 0.35052178209019175 0.42406918686778383" fill="none" stroke="#000000" stroke-width="0.001"/>
</g><g transform="translate(0.271917967629002,0.17224119481286665) rotate(0) scale(1,1) translate(-0.2954838192183152,-0.3460598392791986)"><path d="M 0.25426762088604166 0.3559017816970707 C 0.2523836744384388 0.3549257832362114 0.23283818473588153 0.34297095898589064 0.23166026351480692 0.34418980016675904 C 0.23283818473588153 0.34297095898589064 0.27462111744884016 0.3411554777953662 0.26840267553893704 0.3412756875266496 C 0.27462111744884016 0.3411554777953662 0.3116836143679787 0.3423964459219434 0.3062815664336444 0.3427472833913584 C 0.3116836143679787 0.3423964459219434 0.33547272444405724 0.33659216743552917 0.33322725075094856 0.3370656378936699" fill="none" stroke="#000000" stroke-width="0.001"/>
<path d="M 0.33322725075094856 0.3370656378936699 C 0.3337696322814877 0.33702381851689567 0.34057611349651545 0.3366435294277297 0.3397358291174183 0.33656380537237923 C 0.34057611349651545 0.3366435294277297 0.3436085661486728 0.33814386998999973 0.3433106633001148 0.33802232655787506" fill="none" stroke="#000000" stroke-width="0.001"/>
<path d="M 0.3433106633001148 0.33802232655787506 C 0.3431524467746538 0.3383128152112954 0.3408246910207354 0.34190092275502976 0.3414120649945827 0.34150819039891933 C 0.3408246910207354 0.34190092275502976 0.33583301816556144 0.34283735853389036 0.33626217561394767 0.3427351148312003" fill="none" stroke="#000000" stroke-width="0.001"/>
<path d="M 0.33626217561394767 0.3427351148312003 C 0.33379639534524264 0.3433164784431574 0.30121806734455103 0.3500471684260539 0.3066728123894872 0.3497114781746856 C 0.30121806734455103 0.3500471684260539 0.2652235937160237 0.34654598299864336 0.27080523507471377 0.3467633978476197 C 0.2652235937160237 0.34654598299864336 0.23831498156948405 0.3478640319744236 0.23969311608520671 0.34710249998696935 C 0.23831498156948405 0.3478640319744236 0.2554821629527779 0.3566350551729125 0.25426762088604166 0.3559017816970707" fill="none" stroke="#000000" stroke-width="0.001"/>
</g><g transform="translate(0.2608920487129687,0.19580615523443812) rotate(0) scale(1,1) translate(-0.2954838192183152,-0.3460598392791986)"><path d="M 0.2652071789190012 0.3354253557977365 C 0.2635270844053589 0.3363853082581201 0.2444480850928597 0.34792576251562707 0.24504604475529332 0.34694478532233924 C 0.2444480850928597 0.34792576251562707 0.2621933602747017 0.34663802442642533 0.2580316629697978 0.34719708211719014 C 0.2621933602747017 0.34663802442642533 0.29993627306636805 0.33881905683922053 0.29498641241414025 0.34023609303316177 C 0.29993627306636805 0.33881905683922053 0.3221707478419071 0.32801697129823804 0.3174299907965312 0.33019264778989504 C 0.3221707478419071 0.32801697129823804 0.3547459558054939 0.3127892524118929 0.3518754969586506 0.3141279751332777" fill="none" stroke="#000000" stroke-width="0.001"/>
<path d="M 0.3518754969586506 0.3141279751332777 C 0.35222383842170035 0.31423379189622147 0.356588742402203 0.3158306472861027 0.3560555945152472 0.3153977762886029 C 0.356588742402203 0.3158306472861027 0.35845807802602647 0.3196494813378316 0.35827327160212036 0.3193224271032756" fill="none" stroke="#000000" stroke-width="0.001"/>
<path d="M 0.35827327160212036 0.3193224271032756 C 0.3580699561726555 0.31962447924319226 0.3551094249903115 0.3234020476310827 0.35583348644854246 0.3229470527822758 C 0.3551094249903115 0.3234020476310827 0.34906378807458316 0.3249353079978485 0.3495845341033493 0.32478236528895826" fill="none" stroke="#000000" stroke-width="0.001"/>
<path d="M 0.3495845341033493 0.32478236528895826 C 0.34703831963898 0.3257498541265981 0.3147043312080129 0.3380788424721064 0.3190299605309184 0.3363922313406367 C 0.3147043312080129 0.3380788424721064 0.2924137836235162 0.34630445281452266 0.29767698222848316 0.3450216988665942 C 0.2924137836235162 0.34630445281452266 0.250731864663234 0.35211304227304585 0.2558715772713149 0.35178527871577875 C 0.250731864663234 0.35211304227304585 0.2367783977354866 0.3475915346439627 0.23600043093151274 0.34895486155379957 C 0.2367783977354866 0.3475915346439627 0.2676410745846252 0.3342978969847313 0.2652071789190012 0.3354253557977365" fill="none" stroke="#000000" stroke-width="0.001"/>
</g><g transform="translate(0.26312863970967143,0.20764360204643884) rotate(0) scale(1,1) translate(-0.2954838192183152,-0.3460598392791986)"><path d="M 0.20955116901087842 0.37388976262364393 C 0.21208078087088425 0.3723301421088138 0.24687830909398373 0.3524475078089518 0.23990651133094842 0.3551743164456824 C 0.24687830909398373 0.3524475078089518 0.2994307740838049 0.3392518453815317 0.2932127421673022 0.341168058982876 C 0.2994307740838049 0.3392518453815317 0.3186164264167544 0.3299172535943624 0.314522894328981 0.33217975322955046 C 0.3186164264167544 0.3299172535943624 0.3446528132948836 0.312504589204875 0.3423351272205834 0.31401806336061927" fill="none" stroke="#000000" stroke-width="0.001"/>
<path d="M 0.3423351272205834 0.31401806336061927 C 0.34268727302615315 0.31389326687836 0.34718991211145056 0.31254262872982924 0.3465608768874205 0.312520505573508 C 0.34718991211145056 0.31254262872982924 0.35016043932740426 0.3144304608750542 0.349883549908944 0.31428354123647373" fill="none" stroke="#000000" stroke-width="0.001"/>
<path d="M 0.349883549908944 0.31428354123647373 C 0.3498001761243963 0.3145323149818862 0.3484309207641081 0.3177872042048776 0.34888306449437184 0.31726882618142344 C 0.3484309207641081 0.3177872042048776 0.34408905520006294 0.3207736817959658 0.344457825145779 0.3205040775179241" fill="none" stroke="#000000" stroke-width="0.001"/>
<path d="M 0.344457825145779 0.3205040775179241 C 0.3419768984081024 0.3219235638731781 0.31047529330753604 0.3396246522682751 0.3146867042936597 0.33753791378097237 C 0.31047529330753604 0.3396246522682751 0.2876934338631355 0.34722527356366145 0.2939208933122953 0.3455449393655568 C 0.2876934338631355 0.34722527356366145 0.2329263805452908 0.36006399276306894 0.2399571909037422 0.3577019241582283 C 0.2329263805452908 0.36006399276306894 0.20701733385313978 0.37523874916242855 0.20955116901087842 0.37388976262364393" fill="none" stroke="#000000" stroke-width="0.001"/>
</g><g transform="translate(0.2687879485013447,0.21317905619704802) rotate(0) scale(1,1) translate(-0.2954838192183152,-0.3460598392791986)"><path d="M 0.26001161725869704 0.3718526535139747 C 0.2612094343158747 0.3710925120616414 0.2766801030646255 0.36141031300962084 0.274385421944829 0.36273095608597505 C 0.2766801030646255 0.36141031300962084 0.288266698378854 0.355115672767814 0.2875477906962549 0.3560049365977239 C 0.288266698378854 0.355115672767814 0.2810783331127369 0.351664788594067 0.28301231413601763 0.3520597901270558 C 0.2810783331127369 0.351664788594067 0.2609291877258487 0.3514736852195618 0.26434001841688615 0.3512649182018584 C 0.2609291877258487 0.3514736852195618 0.2388529567257867 0.3552340175888969 0.24208234584356828 0.3545649943394964 C 0.2388529567257867 0.3552340175888969 0.22421276593350248 0.3596872140992616 0.22558734900350755 0.35929319719466424" fill="none" stroke="#000000" stroke-width="0.001"/>
<path d="M 0.22558734900350755 0.35929319719466424 C 0.22695208686979346 0.3587818427820213 0.24526741520991865 0.35230803571149527 0.24196420339893832 0.3531569442429487 C 0.24526741520991865 0.35230803571149527 0.26931363363853306 0.3487791908453194 0.2652258907352716 0.34910629481722316 C 0.26931363363853306 0.3487791908453194 0.2931663871966432 0.3492421467270099 0.29101711823807613 0.3492316965801032" fill="none" stroke="#000000" stroke-width="0.001"/>
<path d="M 0.29101711823807613 0.3492316965801032 C 0.291156618745636 0.34967287831920446 0.29409797489095146 0.35431367185510315 0.292691124328794 0.35452587744931796 C 0.29409797489095146 0.35431367185510315 0.3101528044448923 0.3448735636609633 0.3078993249839658 0.34668522944952546 C 0.3101528044448923 0.3448735636609633 0.322266416364022 0.3299953358616574 0.3197328778599117 0.33278588798657194 C 0.322266416364022 0.3299953358616574 0.3398491961310701 0.3115663302808831 0.3383017870332887 0.3131986039505515" fill="none" stroke="#000000" stroke-width="0.001"/>
<path d="M 0.3383017870332887 0.3131986039505515 C 0.33859234507005914 0.3132000911188002 0.3422186590823224 0.3133219985689674 0.3417884834745335 0.31321644996953585 C 0.3422186590823224 0.3133219985689674 0.3436035118977744 0.31456924857491325 0.34346389432675584 0.3144651871437304" fill="none" stroke="#000000" stroke-width="0.001"/>
<path d="M 0.34346389432675584 0.3144651871437304 C 0.3433661411119235 0.3146144513909779 0.34196338856598707 0.31650556931313834 0.34229085574876744 0.3162563581107002 C 0.34196338856598707 0.31650556931313834 0.33930457416544324 0.3175556685281787 0.33953428813339126 0.317455721572988" fill="none" stroke="#000000" stroke-width="0.001"/>
<path d="M 0.33953428813339126 0.317455721572988 C 0.3381433529276159 0.31901337659135753 0.32036150557443344 0.33884660415059736 0.32284306566408644 0.33614758179342197 C 0.32036150557443344 0.33884660415059736 0.3058529533676457 0.35216463285128335 0.3097555670575549 0.34984398985909293 C 0.3058529533676457 0.35216463285128335 0.27186637223527094 0.36582935300428027 0.2760117013851758 0.3639952976997068 C 0.27186637223527094 0.36582935300428027 0.2586782769148238 0.37250743316516366 0.26001161725869704 0.3718526535139747" fill="none" stroke="#000000" stroke-width="0.001"/>
</g></g>
<g id="後翅先">
<g transform="translate(0.21034169603027997,0.18221585694935497) rotate(0) scale(1,1) translate(-0.3882069694344444,-0.36037003741761087)"><path d="M 0.38524077298640125 0.3481548528762571 C 0.3853059507156383 0.3483755386270739 0.3868984346773225 0.35196171917788927 0.3860229057372455 0.35080308188605885 C 0.3868984346773225 0.35196171917788927 0.39559746592039025 0.36378473505512854 0.3957471202673249 0.3620585003782218 C 0.39559746592039025 0.36378473505512854 0.38271959823184043 0.37274132895115614 0.3842270535740298 0.3715178980089399 C 0.38271959823184043 0.37274132895115614 0.37711020637663795 0.37717481949113923 0.3776576561610527 0.3767396716848162" fill="none" stroke="none" stroke-width="0"/>
<path d="M 0.3776576561610527 0.3767396716848162 C 0.3765532036923439 0.3781050349321138 0.3625211937653261 0.39619803350024724 0.36440422653654725 0.39312403065238694 C 0.3625211937653261 0.39619803350024724 0.35428268260388657 0.41533634545970277 0.35506126290639894 0.41362770585914" fill="none" stroke="#000000" stroke-width="0.001"/>
<path d="M 0.35506126290639894 0.41362770585914 C 0.3528239207672922 0.4122326253588582 0.3233206946302633 0.39516105495672094 0.3282131572371181 0.396886739855758 C 0.3233206946302633 0.39516105495672094 0.2936965911563939 0.39258888267193986 0.2963517116241419 0.39291948707069513" fill="none" stroke="#000000" stroke-width="0.001"/>
<path d="M 0.2963517116241419 0.39291948707069513 C 0.29447514947922093 0.39098540677528876 0.26900063666392215 0.36653142021401797 0.2738329658850898 0.36971052352581846 C 0.26900063666392215 0.36653142021401797 0.23540799389388295 0.3535252243126952 0.23836376097012962 0.3547702473290893" fill="none" stroke="#000000" stroke-width="0.001"/>
<path d="M 0.23836376097012962 0.3547702473290893 C 0.24172663551460147 0.35388894268269877 0.2852835760489612 0.34288476336705126 0.2787182555037917 0.34419459157240273 C 0.2852835760489612 0.34288476336705126 0.32035005351286155 0.3386237853059109 0.31714760751216386 0.3390523088648718" fill="none" stroke="#000000" stroke-width="0.001"/>
<path d="M 0.31714760751216386 0.3390523088648718 C 0.3215417149404031 0.33955678318038357 0.3755513271072214 0.3458645459852952 0.36987689665103496 0.3451060006510131 C 0.3755513271072214 0.3458645459852952 0.3865210960143484 0.3484089238950274 0.38524077298640125 0.3481548528762571" fill="none" stroke="#000000" stroke-width="0.001"/>
</g><g transform="translate(0.13813793558978782,0.16528230582635994) rotate(0) scale(1,1) translate(-0.31132179748292177,-0.34549092242382184)"><path d="M 0.38015546453122684 0.35000021805540976 C 0.3800905022760194 0.35012735231193 0.37952483904589235 0.3518672731062232 0.37937591746873806 0.35152582913365266 C 0.37952483904589235 0.3518672731062232 0.3821564072894403 0.3543118554423063 0.3819425234570786 0.354097545726256" fill="none" stroke="#000000" stroke-width="0.001"/>
<path d="M 0.3819425234570786 0.354097545726256 C 0.3797023916260903 0.3538763766009933 0.3492907878638366 0.3508067421954198 0.35506094148521955 0.35144351622310327 C 0.3492907878638366 0.3508067421954198 0.30418236461316583 0.34645957883667516 0.3127006800004835 0.34645625739405445 C 0.30418236461316583 0.34645957883667516 0.24785286324048472 0.3519022998795932 0.2528411568374077 0.3514833735345518" fill="none" stroke="#000000" stroke-width="0.001"/>
<path d="M 0.2528411568374077 0.3514833735345518 C 0.2546074641003538 0.351018117346158 0.2789964332991366 0.34502952517550345 0.27403684399276074 0.3459002992738266 C 0.2789964332991366 0.34502952517550345 0.31554951055734765 0.34062856644474476 0.31235622851391787 0.34103408435467414" fill="none" stroke="#000000" stroke-width="0.001"/>
<path d="M 0.31235622851391787 0.34103408435467414 C 0.3167411719848892 0.34151869068217716 0.3706254865003496 0.34759653809310487 0.36497555016557387 0.34684936028471025 C 0.3706254865003496 0.34759653809310487 0.3814204573950313 0.3502627895363014 0.38015546453122684 0.35000021805540976" fill="none" stroke="#000000" stroke-width="0.001"/>
</g><g transform="translate(0.13773946636698362,0.1774957389104188) rotate(0) scale(1,1) translate(-0.31132179748292177,-0.34549092242382184)"><path d="M 0.371941457938855 0.3431199198991942 C 0.3726915077543986 0.3432289542581386 0.3810197769305009 0.344954734539043 0.38094205572537765 0.344428332206527 C 0.3810197769305009 0.344954734539043 0.37268553961276757 0.3503528059190796 0.3728741124003336 0.34943674788938583 C 0.37268553961276757 0.3503528059190796 0.3784252498649253 0.35594174541391344 0.37867918227458525 0.3554210285628523 C 0.3784252498649253 0.35594174541391344 0.3690892352519001 0.35570737689705856 0.36982692348441437 0.3556853501021196" fill="none" stroke="#000000" stroke-width="0.001"/>
<path d="M 0.36982692348441437 0.3556853501021196 C 0.3689618158581683 0.35538420495894685 0.355159753937898 0.3511580014974951 0.3594456319694611 0.3520716083840464 C 0.355159753937898 0.3511580014974951 0.31158550859317724 0.34396335272524386 0.318396387105657 0.3447220674635045 C 0.31158550859317724 0.34396335272524386 0.2706887924510577 0.34295779676748006 0.27771508981970383 0.3429670315249191 C 0.2706887924510577 0.34295779676748006 0.2304446294204197 0.34474826861167934 0.2340808186819031 0.34461125037423623" fill="none" stroke="#000000" stroke-width="0.001"/>
<path d="M 0.2340808186819031 0.34461125037423623 C 0.23838055966282273 0.34415737196060037 0.29314222708481785 0.33879220442983066 0.2856777104529386 0.33916470941060567 C 0.29314222708481785 0.33879220442983066 0.32681979391541355 0.340222564037797 0.3236550182644539 0.34014119060493614" fill="none" stroke="#000000" stroke-width="0.001"/>
<path d="M 0.3236550182644539 0.34014119060493614 C 0.3266989276804415 0.3406536648673743 0.3642058012291717 0.34653910919538244 0.36018193125630493 0.34629088175419426 C 0.3642058012291717 0.34653910919538244 0.3729214184957342 0.34285567307794423 0.371941457938855 0.3431199198991942" fill="none" stroke="#000000" stroke-width="0.001"/>
</g><g transform="translate(0.15660198010867943,0.18538197416014002) rotate(0) scale(1,1) translate(-0.3144452978829634,-0.3577620031232947)"><path d="M 0.37567038695303057 0.3579044793000166 C 0.3741037700870004 0.3585093193264959 0.35041102377963435 0.36540625365156953 0.3568709845606684 0.3651625596177677 C 0.35041102377963435 0.36540625365156953 0.28986149294118396 0.36093428466356575 0.29815085758062165 0.3608288077056383 C 0.28986149294118396 0.36093428466356575 0.2540025881629824 0.3668949060635021 0.25739860888741617 0.3664282831128972" fill="none" stroke="#000000" stroke-width="0.001"/>
<path d="M 0.25739860888741617 0.3664282831128972 C 0.25953876007480653 0.36592098192204137 0.2871413806331282 0.3596964362577394 0.28308042313610043 0.36034066882262705 C 0.2871413806331282 0.3596964362577394 0.30805090516138706 0.3585605609602138 0.30613009885174963 0.35869749233424564" fill="none" stroke="#000000" stroke-width="0.001"/>
<path d="M 0.30613009885174963 0.35869749233424564 C 0.3104043728302273 0.35907013186460146 0.3632164106019219 0.36310308227899674 0.3574213865934818 0.36316916669851584 C 0.3632164106019219 0.36310308227899674 0.37719113698299295 0.3574657553501417 0.37567038695303057 0.3579044793000166" fill="none" stroke="#000000" stroke-width="0.001"/>
</g><g transform="translate(0.16183312979622583,0.1961165861856033) rotate(0) scale(1,1) translate(-0.3144452978829634,-0.3577620031232947)"><path d="M 0.35592904903973316 0.3571599189142563 C 0.3556006297894253 0.3573507220148775 0.3515574893786088 0.35984364299037264 0.35198801803603874 0.3594495561217108 C 0.3515574893786088 0.35984364299037264 0.3506605957434522 0.36209224510623883 0.3507627051505742 0.3618889613381982" fill="none" stroke="#000000" stroke-width="0.001"/>
<path d="M 0.3507627051505742 0.3618889613381982 C 0.3496099909957244 0.36188088539711943 0.33342767619664876 0.36207389023644215 0.336930135292376 0.361792050045253 C 0.33342767619664876 0.36207389023644215 0.30324723525304237 0.36648926642370777 0.3087331960018475 0.365271043632468 C 0.30324723525304237 0.36648926642370777 0.26796239049878656 0.3773390301991022 0.27109860630671434 0.37641072354013033" fill="none" stroke="#000000" stroke-width="0.001"/>
<path d="M 0.27109860630671434 0.37641072354013033 C 0.2732186543009968 0.37555296567529417 0.3002399565307007 0.364799027966286 0.29653918223810355 0.36611762916209645 C 0.3002399565307007 0.364799027966286 0.31708862411619454 0.3601266658594306 0.31550789781787986 0.3605875091904049" fill="none" stroke="#000000" stroke-width="0.001"/>
<path d="M 0.31550789781787986 0.3605875091904049 C 0.3170808039730238 0.36035933641322515 0.3377512009480948 0.3575638033412355 0.334382771679607 0.3578494358642479 C 0.3377512009480948 0.3575638033412355 0.357724572153077 0.35710245916842365 0.35592904903973316 0.3571599189142563" fill="none" stroke="#000000" stroke-width="0.001"/>
</g></g>
</g>
</svg>
