<?xml version="1.0" encoding="UTF-8"?>
<svg xmlns="http://www.w3.org/2000/svg" viewBox="0 0 1 1">
<g id="後翅">
<g transform="translate(0.3157498166043196,0.19866756810018163) rotate(0) scale(1,1) translate(-0.23427949999999992,-0.23427950000000008)"><path d="M 0.14305447336762142 0.2818097099757158 C 0.14406470085492898 0.2802853015894678 0.15822896709472767 0.26028856278474183 0.15517720321531214 0.2635168093407395 C 0.15822896709472767 0.26028856278474183 0.18171717631271567 0.2413669131339942 0.1796756399206077 0.24307075130374384" fill="none" stroke="#000000" stroke-width="0.001"/>
<path d="M 0.1796756399206077 0.24307075130374384 C 0.18255844022994858 0.24201855227228808 0.21936792382314577 0.22927425253055736 0.21426924363269811 0.2304443629262749 C 0.21936792382314577 0.22927425253055736 0.24307568208708644 0.22891151519087166 0.24085980220597963 0.22902942655513345" fill="none" stroke="#000000" stroke-width="0.001"/>
<path d="M 0.24085980220597963 0.22902942655513345 C 0.24092429544286167 0.23010543231021371 0.2411050348650027 0.24547431725224333 0.24163372104856415 0.2419414956160965 C 0.2411050348650027 0.24547431725224333 0.23392238858279876 0.273880102069962 0.23451556800324225 0.27142328618889544" fill="none" stroke="#000000" stroke-width="0.001"/>
<path d="M 0.23451556800324225 0.27142328618889544 C 0.23443031992602897 0.2757542023157247 0.232748075157855 0.3300930386283847 0.23349259107668305 0.323394279710846 C 0.232748075157855 0.3300930386283847 0.224922109135691 0.35417623599006876 0.22558137697730576 0.3518083931993593" fill="none" stroke="#000000" stroke-width="0.001"/>
<path d="M 0.22558137697730576 0.3518083931993593 C 0.22510520766907113 0.35200990221258777 0.2186172496732102 0.3544473952498964 0.21986734527849028 0.35422650135810085 C 0.2186172496732102 0.3544473952498964 0.20980630341689915 0.3544785047794729 0.21058022971394463 0.35445911990090584" fill="none" stroke="#000000" stroke-width="0.001"/>
<path d="M 0.21058022971394463 0.35445911990090584 C 0.21009442258553873 0.3546465264373674 0.20364942826160895 0.3561102290725778 0.20475054417307376 0.35670799833844413 C 0.20364942826160895 0.3561102290725778 0.19675152999330794 0.34650071290818196 0.19736683877636685 0.3472858887105098" fill="none" stroke="none" stroke-width="0"/>
<path d="M 0.19736683877636685 0.3472858887105098 C 0.19745106775291002 0.3466286510203178 0.1980570792067767 0.33877035954071577 0.19837758649488504 0.33939903642820596 C 0.1980570792067767 0.33877035954071577 0.19311601505441534 0.33977032686332914 0.19352075131906685 0.33974176606062734" fill="none" stroke="#000000" stroke-width="0.001"/>
<path d="M 0.19352075131906685 0.33974176606062734 C 0.19346588388429964 0.3402206276833969 0.19318284938996869 0.3461167824213525 0.19286234210186035 0.34548810553386233 C 0.19318284938996869 0.3461167824213525 0.1977422134992424 0.34743570397523044 0.19736683877636685 0.3472858887105098" fill="none" stroke="#000000" stroke-width="0.001"/>
<path d="M 0.19736683877636685 0.3472858887105098 C 0.19798214755942575 0.34807106451283765 0.20585166008453856 0.3573057676043105 0.20475054417307376 0.35670799833844413 C 0.20585166008453856 0.3573057676043105 0.21106603684235054 0.3542717133644443 0.21058022971394463 0.35445911990090584" fill="none" stroke="none" stroke-width="0"/>
<path d="M 0.21058022971394463 0.35445911990090584 C 0.2105096467251549 0.35487872038528784 0.20956582893485795 0.360373702634228 0.209733233848468 0.3594943257134897 C 0.20956582893485795 0.360373702634228 0.20847454882580352 0.36547141938612193 0.20857137075062387 0.3650116429497656" fill="none" stroke="#000000" stroke-width="0.001"/>
<path d="M 0.20857137075062387 0.3650116429497656 C 0.2090711294764105 0.36547954938439686 0.21217223457030365 0.36880520991904564 0.2115699231053435 0.36781908155755294 C 0.21217223457030365 0.36880520991904564 0.21228779227955835 0.3714466350455831 0.2121852395403848 0.37092841311872166" fill="none" stroke="#000000" stroke-width="0.001"/>
<path d="M 0.2121852395403848 0.37092841311872166 C 0.21182612885541427 0.3713203679437181 0.2067196665896179 0.3768493911862768 0.20787591132073846 0.3756318710186791 C 0.2067196665896179 0.3768493911862768 0.19751316872078822 0.3863642204724952 0.19831030276693823 0.38553865512989394" fill="none" stroke="#000000" stroke-width="0.001"/>
<path d="M 0.19831030276693823 0.38553865512989394 C 0.19797557015336686 0.38658137931155107 0.1938651345980377 0.3997018825629939 0.19429351140408196 0.3980513453097796 C 0.1938651345980377 0.3997018825629939 0.19307613690193426 0.40595291524002247 0.19316978109440716 0.4053451021684653" fill="none" stroke="#000000" stroke-width="0.001"/>
<path d="M 0.19316978109440716 0.4053451021684653 C 0.19277412260206242 0.4056763106462301 0.18779405074884636 0.41071725226285655 0.18842187918627015 0.4093196039016431 C 0.18779405074884636 0.41071725226285655 0.1854036699002428 0.423183322386475 0.1856358398453218 0.42211688250302637" fill="none" stroke="#000000" stroke-width="0.001"/>
<path d="M 0.1856358398453218 0.42211688250302637 C 0.18480451859053093 0.4231989337286674 0.1791580209074644 0.4294834239231442 0.1806479123165765 0.4286091898568727 C 0.1791580209074644 0.4294834239231442 0.17603792123632797 0.4271544697412858 0.1766964913906492 0.42736228690065536" fill="none" stroke="#000000" stroke-width="0.001"/>
<path d="M 0.1766964913906492 0.42736228690065536 C 0.17687683476644017 0.42546106662083777 0.17898221274654125 0.401357948022695 0.17886061190014102 0.4045476435428441 C 0.17898221274654125 0.401357948022695 0.17809695901806122 0.3877974654185345 0.17815570154745197 0.389085940658866" fill="none" stroke="#000000" stroke-width="0.001"/>
<path d="M 0.17815570154745197 0.389085940658866 C 0.17728850687986888 0.38815963757065863 0.17235979976606186 0.3815729002327799 0.1729525335419534 0.38352812212962184 C 0.17235979976606186 0.3815729002327799 0.17487375978379435 0.3763256904691796 0.1745992988921028 0.37735460927781417" fill="none" stroke="#000000" stroke-width="0.001"/>
<path d="M 0.1745992988921028 0.37735460927781417 C 0.17408183545242398 0.3759530966347923 0.16718336222737631 0.3582899341341833 0.168389737615957 0.36053645756155184 C 0.16718336222737631 0.3582899341341833 0.15943388228023286 0.3495513173650453 0.16012279422913472 0.350396328149392" fill="none" stroke="none" stroke-width="0"/>
<path d="M 0.16012279422913472 0.350396328149392 C 0.16051685162133902 0.3505574019484583 0.16520264187585623 0.3520021826647027 0.16485148293558632 0.35232921373818793 C 0.16520264187585623 0.3520021826647027 0.16429380306043934 0.34598385039501733 0.16433670151237373 0.3464719552675689" fill="none" stroke="#000000" stroke-width="0.001"/>
<path d="M 0.16433670151237373 0.3464719552675689 C 0.164148114910259 0.34662810853644804 0.16172250334672697 0.34867282556760404 0.16207366228699688 0.3483457944941188 C 0.16172250334672697 0.34867282556760404 0.15996022189097955 0.3505672059539981 0.16012279422913472 0.350396328149392" fill="none" stroke="#000000" stroke-width="0.001"/>
<path d="M 0.16012279422913472 0.350396328149392 C 0.16081170617803658 0.35124133893373866 0.16959611300453767 0.36278298098892037 0.168389737615957 0.36053645756155184 C 0.16959611300453767 0.36278298098892037 0.1751167623317816 0.378756121920836 0.1745992988921028 0.37735460927781417" fill="none" stroke="none" stroke-width="0"/>
<path d="M 0.1745992988921028 0.37735460927781417 C 0.17329663186557684 0.376504101544758 0.16460671460742532 0.36959540924990075 0.16678329673294703 0.372251562879477 C 0.16460671460742532 0.36959540924990075 0.1606658910399767 0.3596120416038364 0.16153980613897245 0.3614176875003565" fill="none" stroke="#000000" stroke-width="0.001"/>
<path d="M 0.16153980613897245 0.3614176875003565 C 0.16102127238372513 0.36122783106088724 0.15463147377396075 0.3587262883614614 0.1553174010760046 0.35913941022672513 C 0.15463147377396075 0.3587262883614614 0.15314128496764953 0.35623695969139746 0.15330867851444607 0.3564602251171919" fill="none" stroke="#000000" stroke-width="0.001"/>
<path d="M 0.15330867851444607 0.3564602251171919 C 0.1533696981735917 0.35608255998132454 0.15383851122933767 0.35116587523848986 0.1540409144241935 0.3519282434867841 C 0.15383851122933767 0.35116587523848986 0.1506164173221748 0.34692710302523405 0.15087984017617623 0.347311806137661" fill="none" stroke="#000000" stroke-width="0.001"/>
<path d="M 0.15087984017617623 0.347311806137661 C 0.15072034321851194 0.34692094122006495 0.14828723764040347 0.34198391915052795 0.1489658766842047 0.3426214271265086 C 0.14828723764040347 0.34198391915052795 0.1422170295644247 0.33941506736750826 0.14273617165056163 0.3396617104258929" fill="none" stroke="#000000" stroke-width="0.001"/>
<path d="M 0.14273617165056163 0.3396617104258929 C 0.14300245878527798 0.3390638920554745 0.14632516745602042 0.33129101284404333 0.1459316172671578 0.3324878899808723 C 0.14632516745602042 0.33129101284404333 0.14758603697105938 0.3247001260175348 0.1474587739169131 0.32529918478394537" fill="none" stroke="#000000" stroke-width="0.001"/>
<path d="M 0.1474587739169131 0.32529918478394537 C 0.14718606277687807 0.32518270103291497 0.14343011007285364 0.3237103482214168 0.14418624023649274 0.32390137977158034 C 0.14343011007285364 0.3237103482214168 0.13790179292963975 0.32293225838284995 0.13838521195324383 0.3230068061819831" fill="none" stroke="#000000" stroke-width="0.001"/>
<path d="M 0.13838521195324383 0.3230068061819831 C 0.13834731666011046 0.32211287715674386 0.13804081436588794 0.3099459203644469 0.13793046843564338 0.31227965787911255 C 0.13804081436588794 0.3099459203644469 0.14013636352717673 0.2924627936807124 0.13970936311617857 0.29500195600599544 C 0.14013636352717673 0.2924627936807124 0.14333323255524166 0.2807103561398592 0.14305447336762142 0.2818097099757158" fill="none" stroke="#000000" stroke-width="0.001"/>
</g><g id="水青">
<g transform="translate(0.27386708879918514,0.2623727541627052) rotate(0) scale(1,1) translate(-0.18494525049983018,-0.2924056167283241)"><path d="M 0.20884335405367588 0.34892079703580403 C 0.20854966832262617 0.3489195545542283 0.20484290445496614 0.3489024909374371 0.20531912528107948 0.34890588725689486 C 0.20484290445496614 0.3489024909374371 0.20294616904525214 0.34887788736442876 0.20312870414031578 0.34888004120231075" fill="none" stroke="none" stroke-width="0"/>
<path d="M 0.20312870414031578 0.34888004120231075 C 0.20305558378727492 0.34931162932969273 0.20208385604538204 0.3549384771372337 0.20225125990382556 0.3540590987308947 C 0.20208385604538204 0.3549384771372337 0.20102557433359078 0.3598803723573355 0.20111985783899344 0.3594325820783785" fill="none" stroke="none" stroke-width="0"/>
<path d="M 0.20111985783899344 0.3594325820783785 C 0.20161960809352464 0.35990033139634686 0.20472066952385748 0.3632252054784637 0.20411835936618053 0.3622390779861886 C 0.20472066952385748 0.3632252054784637 0.20483627868820098 0.36586772520633615 0.2047337187850552 0.36534934703202937" fill="none" stroke="none" stroke-width="0"/>
<path d="M 0.2047337187850552 0.36534934703202937 C 0.20436812973111373 0.36574982995933564 0.1990859384452968 0.3714786901209198 0.20034665013775763 0.3701551421597046 C 0.1990859384452968 0.3714786901209198 0.18871005583700579 0.3821549876005209 0.18960517847552516 0.381231922566612" fill="none" stroke="none" stroke-width="0"/>
<path d="M 0.18960517847552516 0.381231922566612 C 0.18886408424464973 0.37994930981206404 0.17917302430628654 0.3632325050631937 0.18071204770501995 0.3658405695120367 C 0.17917302430628654 0.3632325050631937 0.1703389685228662 0.3486096974862013 0.17113689769072418 0.34993514918049634" fill="none" stroke="none" stroke-width="0"/>
<path d="M 0.17113689769072418 0.34993514918049634 C 0.17049195463612737 0.3484151860872413 0.16224126056516147 0.3282721892122463 0.16339758103556248 0.3316955920614361 C 0.16224126056516147 0.3282721892122463 0.1567496746301077 0.30695087523428405 0.1572610520459119 0.3088543149902188" fill="none" stroke="none" stroke-width="0"/>
<path d="M 0.1572610520459119 0.3088543149902188 C 0.1572355865854505 0.3072034598845047 0.1572528828129526 0.28595697144931415 0.15695546652037518 0.2890440537216492 C 0.1572528828129526 0.28595697144931415 0.16115292930987987 0.27037310055557706 0.16083004755684105 0.271809327722198" fill="none" stroke="none" stroke-width="0"/>
<path d="M 0.16083004755684105 0.271809327722198 C 0.16157850909413735 0.27055012105414894 0.1718717182998354 0.25416052540033696 0.1698115860043967 0.2566988477056091 C 0.1718717182998354 0.25416052540033696 0.18686330586024802 0.24007034442170982 0.18555163510210562 0.24134946005893285" fill="none" stroke="none" stroke-width="0"/>
<path d="M 0.18555163510210562 0.24134946005893285 C 0.1884355830139265 0.23991682616322232 0.2241470638280258 0.22266626140723986 0.22015901004395588 0.22415785331040644 C 0.2241470638280258 0.22266626140723986 0.23451238638319344 0.2233913992134777 0.2334082805109444 0.22345035722093376" fill="none" stroke="none" stroke-width="0"/>
<path d="M 0.2334082805109444 0.22345035722093376 C 0.23347277374782643 0.22452636297601403 0.23365351316996746 0.23989524791804367 0.2341821993535289 0.23636242628189685 C 0.23365351316996746 0.23989524791804367 0.22647086688776352 0.2683010327357622 0.227064046308207 0.26584421685469567" fill="none" stroke="none" stroke-width="0"/>
<path d="M 0.227064046308207 0.26584421685469567 C 0.22698095679716668 0.270168533564579 0.22532245445196583 0.32443479370656536 0.22606697217572294 0.3177360173732956 C 0.22532245445196583 0.32443479370656536 0.21746840541040482 0.3486039924773191 0.2181298336231216 0.34622953285393265" fill="none" stroke="none" stroke-width="0"/>
<path d="M 0.2181298336231216 0.34622953285393265 C 0.2167724810993518 0.3460156400306849 0.19949039362606802 0.34328592618515785 0.20184160333788384 0.3436628189749597 C 0.19949039362606802 0.34328592618515785 0.18892145989328565 0.3415438194097561 0.18991531708133166 0.3417068193763102" fill="none" stroke="none" stroke-width="0"/>
<path d="M 0.18991531708133166 0.3417068193763102 C 0.18999954605787484 0.3410495816861182 0.19060555751174155 0.3331912902065161 0.1909260647998499 0.3338199670940063 C 0.19060555751174155 0.3331912902065161 0.18566449335938012 0.3341912575291296 0.18606922962403163 0.3341626967264278" fill="none" stroke="none" stroke-width="0"/>
<path d="M 0.18606922962403163 0.3341626967264278 C 0.18601436218926443 0.3346415583491974 0.18573132769493347 0.34053771308715297 0.18541082040682513 0.3399090361996628 C 0.18573132769493347 0.34053771308715297 0.1902906918042072 0.34185663464103083 0.18991531708133166 0.3417068193763102" fill="none" stroke="none" stroke-width="0"/>
<path d="M 0.18991531708133166 0.3417068193763102 C 0.19090917426937767 0.3418698193428643 0.20419281304969966 0.34403971176476156 0.20184160333788384 0.3436628189749597 C 0.20419281304969966 0.34403971176476156 0.21948718614689142 0.3464434256771804 0.2181298336231216 0.34622953285393265" fill="none" stroke="none" stroke-width="0"/>
<path d="M 0.2181298336231216 0.34622953285393265 C 0.21774196780843869 0.3464134627748829 0.21270157054947272 0.3486609639204913 0.21347544384692654 0.3484366919053353 C 0.21270157054947272 0.3486609639204913 0.20845734657090498 0.34896113913000976 0.20884335405367588 0.34892079703580403" fill="none" stroke="none" stroke-width="0"/>
</g><g transform="translate(0.27386708879918514,0.2623727541627052) rotate(0) scale(1,1) translate(0.016517376982711156,-0.0467922250168432)"><path d="M -0.01501800316663436 0.04226467460242359 C -0.014397927489074721 0.0429347652011952 -0.0068291758218911565 0.05185093535153337 -0.007577095035918696 0.05030576178768286 C -0.0068291758218911565 0.05185093535153337 -0.005915129061835986 0.06168184033370861 -0.006042972598303886 0.060806757368629706" fill="none" stroke="none" stroke-width="0"/>
<path d="M -0.006042972598303886 0.060806757368629706 C -0.006817080236253716 0.061077858418563266 -0.016854691196127532 0.06406496558376426 -0.015332264253701837 0.06405996996783243 C -0.016854691196127532 0.06406496558376426 -0.02506041521188808 0.06060059932580992 -0.024312095907412214 0.06086670475981165" fill="none" stroke="none" stroke-width="0"/>
<path d="M -0.024312095907412214 0.06086670475981165 C -0.024197118755376945 0.05999020668247078 -0.02215786235459082 0.048798558651938856 -0.022932370082988974 0.050348727831721195 C -0.02215786235459082 0.048798558651938856 -0.014358472590271487 0.04159100349998213 -0.01501800316663437 0.04226467460242359" fill="none" stroke="none" stroke-width="0"/>
</g><g transform="translate(0.27386708879918514,0.2623727541627052) rotate(0) scale(1,1) translate(0.016517376982711156,-0.0467922250168432)"><path d="M -0.015199747248954343 0.046147783928428374 C -0.01471084225650772 0.04657641650754967 -0.008569743200847194 0.052513604161857214 -0.009332887339594857 0.05129137487788393 C -0.008569743200847194 0.052513604161857214 -0.005767778437681344 0.0616081320409597 -0.0060420175839823835 0.060814535336107714" fill="none" stroke="none" stroke-width="0"/>
<path d="M -0.0060420175839823835 0.060814535336107714 C -0.0068234403448369715 0.06109310069211236 -0.016944144875871085 0.06416326530778042 -0.015419090714237445 0.06415731960816347 C -0.016944144875871085 0.06416326530778042 -0.025086298924365126 0.06061326407512354 -0.024342667523586072 0.06088588373151123" fill="none" stroke="none" stroke-width="0"/>
<path d="M -0.024342667523586072 0.06088588373151123 C -0.024083386036907378 0.060077314444470016 -0.020469379660555773 0.049954877303426425 -0.021231289683441748 0.05118305228701666 C -0.020469379660555773 0.049954877303426425 -0.01469711871274707 0.04572817823187935 -0.015199747248954353 0.046147783928428374" fill="none" stroke="none" stroke-width="0"/>
</g></g>
<g id="揚羽">
<g transform="translate(0.27386708879918514,0.2623727541627052) rotate(0) scale(1,1) translate(-0.2608515499999999,-0.2608515500000001)"><path d="M 0.28932146674848325 0.21872907137208675 C 0.28864419063999447 0.22074370056867984 0.28028952117016565 0.24688931502405242 0.2811941534466179 0.24290462173120397 C 0.28028952117016565 0.24688931502405242 0.27823852326309245 0.2685154549825234 0.27846587943105594 0.26654539088626805" fill="none" stroke="none" stroke-width="0"/>
<path d="M 0.27846587943105594 0.26654539088626805 C 0.27793399109956235 0.26749070133215047 0.27129825606717867 0.2796846544584496 0.27208321945313285 0.27788911623685675 C 0.27129825606717867 0.2796846544584496 0.2687932437451449 0.28894207732109295 0.2690463187996055 0.2880918495453825" fill="none" stroke="none" stroke-width="0"/>
<path d="M 0.2690463187996055 0.2880918495453825 C 0.26838684459208206 0.28847025575052954 0.260047664057488 0.2934500630613523 0.26113262830932416 0.2926327240071469 C 0.260047664057488 0.2934500630613523 0.2556012577332589 0.29833885104490565 0.2560267477775716 0.29789991819584727" fill="none" stroke="none" stroke-width="0"/>
<path d="M 0.2560267477775716 0.29789991819584727 C 0.255783164710253 0.29737718478879505 0.25248992914507734 0.29069938554570635 0.25310375096974796 0.2916271173112209 C 0.25248992914507734 0.29069938554570635 0.24829064712417198 0.28636213865121035 0.248660885881524 0.2867671370096727" fill="none" stroke="none" stroke-width="0"/>
<path d="M 0.248660885881524 0.2867671370096727 C 0.24887256215239126 0.2858470634539546 0.2514131344037677 0.27366672379434304 0.2512010011319311 0.2757262543410552 C 0.2514131344037677 0.27366672379434304 0.25120694214453243 0.2609133134581328 0.2512064851435631 0.26205277044912684" fill="none" stroke="none" stroke-width="0"/>
<path d="M 0.2512064851435631 0.26205277044912684 C 0.25177390023980756 0.26112368415270004 0.2591880946896461 0.24863693357417732 0.25801546629849703 0.2509037348920055 C 0.2591880946896461 0.24863693357417732 0.26588323913225664 0.23351343961378704 0.26527802583735205 0.23485115463518846" fill="none" stroke="none" stroke-width="0"/>
<path d="M 0.26527802583735205 0.23485115463518846 C 0.26621504142311947 0.2343051334683704 0.27852583294248884 0.22695539369477982 0.27652221286656126 0.22829890063337163 C 0.27852583294248884 0.22695539369477982 0.2903880712386434 0.217931585600313 0.28932146674848325 0.21872907137208675" fill="none" stroke="none" stroke-width="0"/>
</g><g transform="translate(0.27386708879918514,0.2623727541627052) rotate(0) scale(1,1) translate(-0.09500000000000003,-0.09500000000000001)"><path d="M 0.1261972834171203 0.04700095388430079 C 0.12341503674348175 0.04736872888196852 0.08767994541687418 0.052944780244541405 0.09281032333345762 0.05141425385631351 C 0.08767994541687418 0.052944780244541405 0.0610250718017779 0.06750334400849403 0.0646327484181191 0.06536727054303551 C 0.0610250718017779 0.06750334400849403 0.048258658563966945 0.07802045751671405 0.04951820393736327 0.0770471354418157" fill="none" stroke="none" stroke-width="0"/>
<path d="M 0.04951820393736327 0.0770471354418157 C 0.05045589288181247 0.07573746593956165 0.06369021399782597 0.05840280644545716 0.06077047127075373 0.06133110141476714 C 0.06369021399782597 0.05840280644545716 0.08653717044485323 0.04028897034303995 0.0845551166622302 0.04190759581009589" fill="none" stroke="none" stroke-width="0"/>
<path d="M 0.0845551166622302 0.04190759581009589 C 0.08727140884706638 0.04090179019436914 0.1217119079375127 0.02870133719864248 0.11715062288026436 0.02983792842137485 C 0.1217119079375127 0.02870133719864248 0.1411355302216225 0.028137715530301827 0.13929053734921035 0.028268501137307445" fill="none" stroke="none" stroke-width="0"/>
<path d="M 0.13929053734921035 0.028268501137307445 C 0.13882887121496418 0.029142146112520216 0.13265943924391532 0.04031327856877681 0.13375054373825615 0.0387522408398607 C 0.13265943924391532 0.04031327856877681 0.12556784505702565 0.04768834663800413 0.1261972834171203 0.04700095388430079" fill="none" stroke="none" stroke-width="0"/>
</g><g transform="translate(0.27386708879918514,0.2623727541627052) rotate(0) scale(1,1) translate(-0.09500000000000003,-0.09500000000000001)"><path d="M 0.043808709816044615 0.10637958996070737 C 0.04396148473922568 0.10515608965718551 0.0460311390711445 0.08961400780478862 0.04564200889421744 0.09169758631844503 C 0.0460311390711445 0.08961400780478862 0.04871462719291529 0.08051656958669587 0.0484782719391693 0.08137664779683042" fill="none" stroke="none" stroke-width="0"/>
<path d="M 0.0484782719391693 0.08137664779683042 C 0.04986075717923817 0.0802836216424816 0.06866604176649284 0.06601984730125049 0.06506809481999573 0.06826033394464451 C 0.06866604176649284 0.06601984730125049 0.09643017578072333 0.05294575287376785 0.09165363529713465 0.05449080807610219 C 0.09643017578072333 0.05294575287376785 0.12494765940022022 0.049322076803343246 0.12238658062305979 0.0497196715166324" fill="none" stroke="none" stroke-width="0"/>
<path d="M 0.12238658062305979 0.0497196715166324 C 0.12186611085000057 0.05014294171673238 0.11475985775289807 0.05582624133312238 0.11614094334634911 0.054798913917832204 C 0.11475985775289807 0.05582624133312238 0.10332664239732026 0.06352475924122619 0.1058135535016472 0.06204760050011456 C 0.10332664239732026 0.06352475924122619 0.08311606606945346 0.07430807913784342 0.08629801009442573 0.07252481881117175 C 0.08311606606945346 0.07430807913784342 0.06484579732229123 0.08530165190549555 0.06763022520197999 0.08344672442017464 C 0.06484579732229123 0.08530165190549555 0.0508997492559994 0.09669502076340025 0.05288487553816069 0.09478394863502253 C 0.0508997492559994 0.09669502076340025 0.04305236267253494 0.10734589340451445 0.043808709816044615 0.10637958996070737" fill="none" stroke="none" stroke-width="0"/>
</g><g transform="translate(0.27386708879918514,0.2623727541627052) rotate(0) scale(1,1) translate(-0.09500000000000003,-0.09500000000000001)"><path d="M 0.04342865655864796 0.11102901080972723 C 0.04422269550882026 0.1100090348124373 0.054619395237019884 0.09700063990093909 0.052957123960715606 0.09878929884224821 C 0.054619395237019884 0.09700063990093909 0.06575138541862117 0.08784989757013142 0.06337591187429932 0.08956510351401775 C 0.06575138541862117 0.08784989757013142 0.08417093400608332 0.07660493205041956 0.08146280649257791 0.07820682751561223 C 0.08417093400608332 0.07660493205041956 0.0970743283316798 0.06968698546638025 0.09587344203636426 0.07034235793170579" fill="none" stroke="none" stroke-width="0"/>
<path d="M 0.09587344203636426 0.07034235793170579 C 0.09535936439891611 0.07147220691783446 0.0886836906727123 0.08588934070219717 0.08970451038698637 0.08390054576524981 C 0.0886836906727123 0.08588934070219717 0.08311686338824939 0.09506684312589278 0.08362360546507532 0.09420789717507409" fill="none" stroke="none" stroke-width="0"/>
<path d="M 0.08362360546507532 0.09420789717507409 C 0.08297545595125444 0.09475013946074584 0.07400380727234393 0.10218129393640289 0.07584581129922487 0.10071480460313512 C 0.07400380727234393 0.10218129393640289 0.05954685401517766 0.11357416635199116 0.06151955714250402 0.11180576917428744 C 0.05954685401517766 0.11357416635199116 0.05117161531854455 0.12307332433974519 0.05217337377130859 0.12193557073557965 C 0.05117161531854455 0.12307332433974519 0.04927554587083782 0.12575241589833172 0.04949845570933557 0.12545881242427387" fill="none" stroke="none" stroke-width="0"/>
<path d="M 0.04949845570933557 0.12545881242427387 C 0.04950993104830382 0.12539552871214196 0.04968317536182464 0.1244374418700811 0.049636159776954555 0.12469940787869106 C 0.04968317536182464 0.1244374418700811 0.0500981829736785 0.12211653802447626 0.050062642727776656 0.12231522032095432" fill="none" stroke="none" stroke-width="0"/>
<path d="M 0.050062642727776656 0.12231522032095432 C 0.04982978690157398 0.12221000783495023 0.046761430043839494 0.1208950005808605 0.04726837281334455 0.12105267048890518 C 0.046761430043839494 0.1208950005808605 0.043705242550413595 0.12037072400237757 0.043979329493715975 0.12042318142441816" fill="none" stroke="none" stroke-width="0"/>
<path d="M 0.043979329493715975 0.12042318142441816 C 0.04393791001739818 0.12013316622500828 0.04343640636664674 0.11616015148027534 0.043482295777902406 0.11694299903149959 C 0.04343640636664674 0.11616015148027534 0.04342418662371009 0.11053617845791286 0.04342865655864796 0.11102901080972723" fill="none" stroke="none" stroke-width="0"/>
</g><g transform="translate(0.27386708879918514,0.2623727541627052) rotate(0) scale(1,1) translate(-0.09500000000000003,-0.09500000000000001)"><path d="M 0.04754006417534807 0.1327161154983493 C 0.048127826049920094 0.13193411251559417 0.055943933627074435 0.12172169068431019 0.054593206670212384 0.1233320797052879 C 0.055943933627074435 0.12172169068431019 0.06558213247698381 0.11174333415519122 0.06374878765769265 0.11339144724661679 C 0.06558213247698381 0.11174333415519122 0.07819300097012517 0.10229194807627671 0.07659334450170631 0.10355472260818115 C 0.07819300097012517 0.10229194807627671 0.08347394201013669 0.09779510538506216 0.08294466527871897 0.09823815286376361" fill="none" stroke="none" stroke-width="0"/>
<path d="M 0.08294466527871897 0.09823815286376361 C 0.08294258977244179 0.09915142787799547 0.08270007872810725 0.11097198103323525 0.0829197592033929 0.10919745303454587 C 0.08270007872810725 0.11097198103323525 0.08009089460628267 0.12039374183249366 0.08030849957529115 0.11953248884803613" fill="none" stroke="none" stroke-width="0"/>
<path d="M 0.08030849957529115 0.11953248884803613 C 0.07980163293261835 0.1199866474936102 0.07312164336800442 0.12606589485208988 0.0742260998632175 0.12498239259492486 C 0.07312164336800442 0.12606589485208988 0.06594141433440265 0.1339030701864401 0.0670550216327341 0.13253451593401652 C 0.06594141433440265 0.1339030701864401 0.05999769330302622 0.14278277656050095 0.06086281228324018 0.1414050436240077 C 0.05999769330302622 0.14278277656050095 0.056324492335743805 0.14970583346759653 0.0566735938701666 0.14906731117193583" fill="none" stroke="none" stroke-width="0"/>
<path d="M 0.0566735938701666 0.14906731117193583 C 0.056617192583171605 0.14894600259520135 0.055730880707546136 0.14721659488283115 0.05599677842622664 0.14761160825112213 C 0.055730880707546136 0.14721659488283115 0.05327332481431502 0.14405344596088768 0.05348282124600053 0.14432715075244418" fill="none" stroke="none" stroke-width="0"/>
<path d="M 0.05348282124600053 0.14432715075244418 C 0.05336499749103907 0.14398464266289784 0.051714460858922194 0.13971054687604578 0.052068936186462966 0.1402170536778883 C 0.051714460858922194 0.13971054687604578 0.048992465742931986 0.13808507041803783 0.049229117315511293 0.13824906913033402" fill="none" stroke="none" stroke-width="0"/>
<path d="M 0.049229117315511293 0.13824906913033402 C 0.0491854832918195 0.1381104887506122 0.048564754602862845 0.13612502510433988 0.04870550903120978 0.13658610457367193 C 0.048564754602862845 0.13612502510433988 0.047442943770692914 0.1323936164087391 0.047540064175348055 0.1327161154983493" fill="none" stroke="none" stroke-width="0"/>
</g><g transform="translate(0.27386708879918514,0.2623727541627052) rotate(0) scale(1,1) translate(-0.09500000000000003,-0.09500000000000001)"><path d="M 0.08109008475674229 0.19035318862148776 C 0.0801757999161718 0.18769967511922278 0.06858832810969034 0.15493256438308964 0.07011866666989643 0.15851102659430794 C 0.06858832810969034 0.15493256438308964 0.06210996831463368 0.1464866933779149 0.06272602203426927 0.14741164208686822" fill="none" stroke="none" stroke-width="0"/>
<path d="M 0.06272602203426927 0.14741164208686822 C 0.06312007942647357 0.14757271588593454 0.06780586968099075 0.1490174966021789 0.06745471074072085 0.14934452767566414 C 0.06780586968099075 0.1490174966021789 0.06689703086557383 0.14299916433249366 0.06693992931750822 0.14348726920504523" fill="none" stroke="none" stroke-width="0"/>
<path d="M 0.06693992931750822 0.14348726920504523 C 0.06675134271539349 0.1436434224739244 0.0643257311518615 0.14568813950508028 0.06467689009213141 0.14536110843159503 C 0.0643257311518615 0.14568813950508028 0.06256344969611409 0.1475825198914743 0.06272602203426927 0.14741164208686822" fill="none" stroke="none" stroke-width="0"/>
<path d="M 0.06272602203426927 0.14741164208686822 C 0.06334207575390487 0.14833659079582154 0.07164900523010251 0.16208948880552623 0.07011866666989643 0.15851102659430794 C 0.07164900523010251 0.16208948880552623 0.08200436959731278 0.19300670212375273 0.08109008475674229 0.19035318862148776" fill="none" stroke="none" stroke-width="0"/>
<path d="M 0.08109008475674229 0.19035318862148776 C 0.08103484429342228 0.18964454058526112 0.08044140162162712 0.18511286789550777 0.08075864197682225 0.18610130040412787 C 0.08044140162162712 0.18511286789550777 0.07892464273369633 0.18414280909737363 0.07918664262557146 0.1844225935697671" fill="none" stroke="none" stroke-width="0"/>
<path d="M 0.07918664262557146 0.1844225935697671 C 0.07906531687889627 0.1841355750466112 0.0774812680011636 0.18045596514705453 0.07773073366546916 0.1809783712918966 C 0.0774812680011636 0.18045596514705453 0.0760649147362743 0.17791833220997627 0.07619305465390468 0.17815371983166245" fill="none" stroke="none" stroke-width="0"/>
<path d="M 0.07619305465390468 0.17815371983166245 C 0.07622881789100695 0.17801865404063963 0.07670627396226494 0.1762176263789531 0.076622213499132 0.17653293033938847 C 0.07670627396226494 0.1762176263789531 0.07725007743753066 0.17418983413702574 0.0772017802115 0.17437007230643825" fill="none" stroke="none" stroke-width="0"/>
<path d="M 0.0772017802115 0.17437007230643825 C 0.0768769758073905 0.17415871630314106 0.07265275495248474 0.17140862799893739 0.07330412736218614 0.17183380026687198 C 0.07265275495248474 0.17140862799893739 0.06905874328949138 0.16905418882658568 0.06938531129508328 0.16926800509122308" fill="none" stroke="none" stroke-width="0"/>
<path d="M 0.06938531129508328 0.16926800509122308 C 0.06923833649295148 0.168965820767413 0.06718478319090919 0.1647400501385447 0.06762161366950173 0.16564179320550226 C 0.06718478319090919 0.1647400501385447 0.06385348987551212 0.15784752954458492 0.06414334555197286 0.1584470882877324" fill="none" stroke="none" stroke-width="0"/>
<path d="M 0.06414334555197286 0.1584470882877324 C 0.06343428782590925 0.15820931834711568 0.0587713976932949 0.15619859707119874 0.059888999195591174 0.15702046864403207 C 0.0587713976932949 0.15619859707119874 0.05702919276196251 0.15293175721851576 0.05743773653819518 0.15351585885073238" fill="none" stroke="none" stroke-width="0"/>
<path d="M 0.05743773653819518 0.15351585885073238 C 0.057884714314761505 0.1526717730385111 0.06380143180546989 0.14171724155900475 0.06280146985699109 0.14338682910407688 C 0.06380143180546989 0.14171724155900475 0.07054160607503498 0.1320825134720979 0.06943727991994082 0.13348080830986683 C 0.07054160607503498 0.1320825134720979 0.07702043450479938 0.12567114071356533 0.07605338371812101 0.12660729105084984 C 0.07702043450479938 0.12567114071356533 0.08145759816357806 0.12188364703008629 0.08104188936008136 0.12224700426245272" fill="none" stroke="none" stroke-width="0"/>
<path d="M 0.08104188936008136 0.12224700426245272 C 0.0813918872916589 0.12259629212668827 0.08586045894481295 0.12748912423866107 0.08524186453901186 0.1264384586332793 C 0.08586045894481295 0.12748912423866107 0.08873361870391805 0.13555636926818027 0.08846502222969449 0.13485499152703403" fill="none" stroke="none" stroke-width="0"/>
<path d="M 0.08846502222969449 0.13485499152703403 C 0.08836028835520296 0.13715684532258515 0.08712143308609452 0.16880949322771074 0.0872082157357961 0.1624772370736473 C 0.08712143308609452 0.16880949322771074 0.08745478669679278 0.21563457232194644 0.08742363043327551 0.21084206537579514 C 0.08745478669679278 0.21563457232194644 0.08759529593673056 0.2207494250151017 0.08758209089800324 0.21998732042746272" fill="none" stroke="none" stroke-width="0"/>
<path d="M 0.08758209089800324 0.21998732042746272 C 0.08747339998963541 0.22013476189218745 0.0859169021999669 0.22222638512371357 0.08627779999758922 0.22175661800415958 C 0.0859169021999669 0.22222638512371357 0.08299911043728077 0.22594685151693977 0.08325131732653526 0.22562452586211051" fill="none" stroke="none" stroke-width="0"/>
<path d="M 0.08325131732653526 0.22562452586211051 C 0.0832138189079871 0.22561272163577287 0.0827264394238157 0.22545924363791905 0.0828013363039573 0.22548287514605886 C 0.0827264394238157 0.22545924363791905 0.08231515630324256 0.22532912048263065 0.082352554764836 0.2253409477644328" fill="none" stroke="none" stroke-width="0"/>
<path d="M 0.082352554764836 0.2253409477644328 C 0.08237216231471485 0.22498501210980212 0.08269061674285591 0.21972979418810917 0.08258784536338219 0.22106971990886465 C 0.08269061674285591 0.21972979418810917 0.0836489154843012 0.20771168365838494 0.08358581131852068 0.2092618391153671 C 0.0836489154843012 0.20771168365838494 0.08322407118620491 0.20126348846849298 0.0833450953527484 0.20246785442507859 C 0.08322407118620491 0.20126348846849298 0.0819456037703317 0.19379989215270735 0.08213352131999888 0.19480944763633992 C 0.0819456037703317 0.19379989215270735 0.08100313170980424 0.1899818337035834 0.08109008475674229 0.19035318862148776" fill="none" stroke="none" stroke-width="0"/>
</g><g transform="translate(0.27386708879918514,0.2623727541627052) rotate(0) scale(1,1) translate(-0.09500000000000003,-0.09500000000000001)"><path d="M 0.12036593250364332 0.15145024996231088 C 0.12005780766420665 0.15145553400226397 0.11606997992975762 0.1515156713201254 0.11666843443040326 0.15151365844174813 C 0.11606997992975762 0.1515156713201254 0.11289414883468672 0.1514711333412621 0.11318447849589569 0.15147440450283794" fill="none" stroke="none" stroke-width="0"/>
<path d="M 0.11318447849589569 0.15147440450283794 C 0.11311710927918997 0.15189949337752146 0.11220854839928575 0.15745487395236116 0.11237604789542702 0.15657547099904007 C 0.11220854839928575 0.15745487395236116 0.11107435426276493 0.1624815540213285 0.11117448454220048 0.16202723994269091" fill="none" stroke="none" stroke-width="0"/>
<path d="M 0.11117448454220048 0.16202723994269091 C 0.11126099052949578 0.1621067094586851 0.11241502343583218 0.1631704043959557 0.11221255638974414 0.16298087413462126 C 0.11241502343583218 0.1631704043959557 0.11372005015404968 0.16441166382404443 0.11360408909525695 0.16430160307870417" fill="none" stroke="none" stroke-width="0"/>
<path d="M 0.11360408909525695 0.16430160307870417 C 0.11331852111841167 0.16463804842680843 0.10906950698006436 0.16954468997504418 0.11017727337311366 0.16833894725595516 C 0.10906950698006436 0.16954468997504418 0.09911455043927964 0.18040329141760847 0.10031089237866538 0.17877051570777258 C 0.09911455043927964 0.18040329141760847 0.09527733454378416 0.18949248676996333 0.09582117010048477 0.18793225577398598 C 0.09527733454378416 0.18949248676996333 0.09357181761818381 0.19881085257888328 0.09378486569825811 0.19749328765950067 C 0.09357181761818381 0.19881085257888328 0.09322123709303776 0.2042638470688339 0.09326459313959316 0.20374303480657752" fill="none" stroke="none" stroke-width="0"/>
<path d="M 0.09326459313959316 0.20374303480657752 C 0.09308356827163282 0.20394718058943928 0.09079552060661249 0.2068060902032214 0.0910922947240691 0.20619278420091852 C 0.09079552060661249 0.2068060902032214 0.08958755448061759 0.21151186705365346 0.08970330373011386 0.2111027068342123" fill="none" stroke="none" stroke-width="0"/>
<path d="M 0.08970330373011386 0.2111027068342123 C 0.08967396250020761 0.20940779958469147 0.0893517456048148 0.1864470901885716 0.08935120897123883 0.1907638198399621 C 0.0893517456048148 0.1864470901885716 0.08984748807404155 0.15464970836236636 0.08970974333302563 0.15930195101752642 C 0.08984748807404155 0.15464970836236636 0.09111201274096367 0.13290648772475097 0.09100414586342997 0.1349369079780414" fill="none" stroke="none" stroke-width="0"/>
<path d="M 0.09100414586342997 0.1349369079780414 C 0.09113888222530647 0.13500149808456444 0.09304763497767882 0.13586367025798968 0.09262098220594786 0.13571198925631783 C 0.09304763497767882 0.13586367025798968 0.09641589553405586 0.13684417089325251 0.0961239791242014 0.1367570799981037" fill="none" stroke="none" stroke-width="0"/>
<path d="M 0.0961239791242014 0.1367570799981037 C 0.09606911168943419 0.13723594162087327 0.09578607719510325 0.14313209635882893 0.09546556990699491 0.1425034194713387 C 0.09578607719510325 0.14313209635882893 0.10034544130437699 0.14445101791270676 0.09997006658150144 0.14430120264798613" fill="none" stroke="none" stroke-width="0"/>
<path d="M 0.09997006658150144 0.14430120264798613 C 0.10005429555804463 0.14364396495779413 0.1006603070119113 0.13578567347819204 0.10098081430001964 0.13641435036568225 C 0.1006603070119113 0.13578567347819204 0.09571924285954987 0.13678564080080546 0.0961239791242014 0.1367570799981037" fill="none" stroke="none" stroke-width="0"/>
<path d="M 0.0961239791242014 0.1367570799981037 C 0.09583206271434694 0.13666998910295486 0.0921943294342169 0.135560308254646 0.09262098220594786 0.13571198925631783 C 0.0921943294342169 0.135560308254646 0.09086940950155348 0.13487231787151835 0.09100414586342997 0.1349369079780414" fill="none" stroke="none" stroke-width="0"/>
<path d="M 0.09100414586342997 0.1349369079780414 C 0.09152588323965014 0.1343894860764842 0.09839631738959599 0.12747962542874408 0.09726499437807183 0.12836784515935504 C 0.09839631738959599 0.12747962542874408 0.10518960763702392 0.123937473381656 0.10458002200171991 0.12427827121070978" fill="none" stroke="none" stroke-width="0"/>
<path d="M 0.10458002200171991 0.12427827121070978 C 0.10501684802628569 0.12467994651082055 0.11061944813136489 0.13003982932767072 0.10982193429650924 0.12909837481203904 C 0.11061944813136489 0.13003982932767072 0.11476489915991818 0.13671185722441723 0.11415018801998766 0.13557572539829016 C 0.11476489915991818 0.13671185722441723 0.11771644668264677 0.14405483377256562 0.11719846797567547 0.14273195672556388 C 0.11771644668264677 0.14405483377256562 0.12062988788097397 0.15217677439870647 0.12036593250364332 0.15145024996231088" fill="none" stroke="none" stroke-width="0"/>
</g><g transform="translate(0.27386708879918514,0.2623727541627052) rotate(0) scale(1,1) translate(-0.09500000000000003,-0.09500000000000001)"><path d="M 0.13375877978333478 0.11341776528964204 C 0.13348639984264543 0.11505429805491783 0.12965332510719732 0.13618225116135854 0.1304902204950626 0.1330561584729516 C 0.12965332510719732 0.13618225116135854 0.12315151968177561 0.15242043747365647 0.12371603512895153 0.1509308775505253" fill="none" stroke="none" stroke-width="0"/>
<path d="M 0.12371603512895153 0.1509308775505253 C 0.12369305927126065 0.1509379023724731 0.12339353034807732 0.15102866433980794 0.12344032483666086 0.1510151754138988 C 0.12339353034807732 0.15102866433980794 0.12313068263505639 0.15109920876539643 0.12315450126594904 0.15109274466143507" fill="none" stroke="none" stroke-width="0"/>
<path d="M 0.12315450126594904 0.15109274466143507 C 0.12287430634763011 0.1503348611120661 0.11927320807310827 0.14066128029066102 0.11979216224612185 0.14199814206900735 C 0.11927320807310827 0.14066128029066102 0.1163376165394387 0.13394877146558512 0.11692705118978612 0.1350504033212792 C 0.1163376165394387 0.13394877146558512 0.1118208178937631 0.12772503516870348 0.1127189464419529 0.12877855980067812 C 0.1118208178937631 0.12772503516870348 0.10560205545897142 0.12187723673232558 0.10614950861150846 0.12240810773758347" fill="none" stroke="none" stroke-width="0"/>
<path d="M 0.10614950861150846 0.12240810773758347 C 0.10639780033553323 0.12159139002929338 0.10986087283107855 0.11094741942703168 0.10912900929980561 0.11260749523810246 C 0.10986087283107855 0.11094741942703168 0.11541544279403188 0.10164383990195339 0.1149318709867837 0.10248719800473409" fill="none" stroke="none" stroke-width="0"/>
<path d="M 0.1149318709867837 0.10248719800473409 C 0.11530310289087099 0.10254315916995714 0.12026815077553604 0.1033591540911029 0.11938665383583119 0.10315873198741075 C 0.12026815077553604 0.1033591540911029 0.1264156190902757 0.1053386122955654 0.12550983426324194 0.10489226324903979 C 0.1264156190902757 0.1053386122955654 0.13094348388691088 0.10922537904910172 0.13025607176023649 0.1085149205457182 C 0.13094348388691088 0.10922537904910172 0.13405067211859298 0.11382633568496903 0.13375877978333478 0.11341776528964204" fill="none" stroke="none" stroke-width="0"/>
</g><g transform="translate(0.27386708879918514,0.2623727541627052) rotate(0) scale(1,1) translate(-0.09500000000000003,-0.09500000000000001)"><path d="M 0.13444920417725906 0.08290016441383943 C 0.13444986541304624 0.08379524338262408 0.13441955195828842 0.09584953515489261 0.13445713900670514 0.09364111203925521 C 0.13441955195828842 0.09584953515489261 0.13395991131205437 0.11071458594834106 0.13399815959625827 0.1094012418014883" fill="none" stroke="none" stroke-width="0"/>
<path d="M 0.13399815959625827 0.1094012418014883 C 0.13369205675319948 0.10905721587677451 0.12967690923707195 0.10470372631965419 0.13032492547955282 0.10527293070492282 C 0.12967690923707195 0.10470372631965419 0.12548068783896782 0.10222199102814147 0.1262219646864878 0.10257078917826477 C 0.12548068783896782 0.10222199102814147 0.12055692758354372 0.10088096680791657 0.12142960330931286 0.10108735290344315 C 0.12055692758354372 0.10088096680791657 0.11527654369958681 0.10001138962598774 0.11574985597725805 0.10009415603194585" fill="none" stroke="none" stroke-width="0"/>
<path d="M 0.11574985597725805 0.10009415603194585 C 0.11580075410144328 0.09920647515666234 0.11654064765907371 0.087624212117725 0.11636063346748074 0.08944198552854377 C 0.11654064765907371 0.087624212117725 0.11803914234378136 0.07735078256658537 0.11791002627637362 0.07828087510212063" fill="none" stroke="none" stroke-width="0"/>
<path d="M 0.11791002627637362 0.07828087510212063 C 0.11826331107013864 0.07824752250954692 0.12288616382742422 0.07788484621362927 0.1221494438015538 0.07788064399123606 C 0.12288616382742422 0.07788484621362927 0.1274890697546225 0.07849858144590645 0.1267506665868186 0.07833130177083919 C 0.1274890697546225 0.07849858144590645 0.13165182661440397 0.08026873864562654 0.1310102818152006 0.0798880000920432 C 0.13165182661440397 0.08026873864562654 0.13473578104076392 0.08315117810732245 0.13444920417725906 0.08290016441383943" fill="none" stroke="none" stroke-width="0"/>
</g><g transform="translate(0.27386708879918514,0.2623727541627052) rotate(0) scale(1,1) translate(-0.09500000000000003,-0.09500000000000001)"><path d="M 0.13717056088784024 0.05820083691552322 C 0.13695982529202133 0.059040339476903 0.13442399455867513 0.07006521538993028 0.13464173373801347 0.06827486765208057 C 0.13442399455867513 0.07006521538993028 0.13455068715226054 0.08063585494618968 0.13455769073578 0.07968500976971975" fill="none" stroke="none" stroke-width="0"/>
<path d="M 0.13455769073578 0.07968500976971975 C 0.13425576188331628 0.07947245702152572 0.1302770110663251 0.07681484986086294 0.13093454450621556 0.07713437679139144 C 0.1302770110663251 0.07681484986086294 0.1259378214866064 0.07572221584079908 0.12666728945709482 0.07585068660337771 C 0.1259378214866064 0.07572221584079908 0.12150101430414843 0.07559614800507315 0.12218092886035463 0.07559272764044785 C 0.12150101430414843 0.07559614800507315 0.1182022636094759 0.0759166479237508 0.11850831478262042 0.07589173097888134" fill="none" stroke="none" stroke-width="0"/>
<path d="M 0.11850831478262042 0.07589173097888134 C 0.11882975664667789 0.07488156515162947 0.1230778301505775 0.06166945443507194 0.12236561715131003 0.06376974105185894 C 0.1230778301505775 0.06166945443507194 0.12744564190903993 0.04959817078790226 0.12705487077382993 0.05068829157743739" fill="none" stroke="none" stroke-width="0"/>
<path d="M 0.12705487077382993 0.05068829157743739 C 0.12783190022221527 0.049806912099034234 0.13760583222596082 0.03831516732770548 0.136379224154454 0.04011173783659949 C 0.13760583222596082 0.03831516732770548 0.14221918699798727 0.029036758752568743 0.14177416763191167 0.029129445470709184 C 0.14221918699798727 0.029036758752568743 0.141335822652022 0.04142211317264871 0.1417194565473613 0.03899949721891421 C 0.141335822652022 0.04142211317264871 0.13679148624954682 0.059800948556907305 0.13717056088784024 0.05820083691552322" fill="none" stroke="none" stroke-width="0"/>
</g><g transform="translate(0.27386708879918514,0.2623727541627052) rotate(0) scale(1,1) translate(-0.09500000000000003,-0.09500000000000001)"><path d="M 0.048478271939169294 0.08137664779683035 C 0.04888126440408159 0.08103008223243711 0.054058850806487875 0.07658299192192874 0.053314181518116795 0.07721786102411152 C 0.054058850806487875 0.07658299192192874 0.058164813972749335 0.07315935854085244 0.05741430339962226 0.07375821857063712 C 0.058164813972749335 0.07315935854085244 0.06299741445590673 0.06954935547740193 0.06232030839564171 0.07003154066669535 C 0.06299741445590673 0.06954935547740193 0.06580784843339926 0.0678003676018177 0.06553957612280253 0.06797199629911597" fill="none" stroke="none" stroke-width="0"/>
<path d="M 0.06553957612280253 0.06797199629911597 C 0.06561215063814091 0.06855667524924255 0.06584686949715389 0.07680680376746221 0.06641047030686298 0.07498814370063492 C 0.06584686949715389 0.07680680376746221 0.058140191081245976 0.09102989821774414 0.05877636640629344 0.08979591710104343" fill="none" stroke="none" stroke-width="0"/>
<path d="M 0.05877636640629344 0.08979591710104343 C 0.058344587979114695 0.09015729754006527 0.05277385819010082 0.09493599942926777 0.05359502528014848 0.0941324823693055 C 0.05277385819010082 0.09493599942926777 0.04810683503704616 0.10045871411987398 0.04892236132572148 0.09943812182059049 C 0.04810683503704616 0.10045871411987398 0.0433825721902382 0.1069580456390504 0.04380870981604461 0.10637958996070733" fill="none" stroke="none" stroke-width="0"/>
<path d="M 0.04380870981604461 0.10637958996070733 C 0.043961484739225676 0.10515608965718547 0.04603113907114449 0.08961400780478856 0.045642008894217434 0.09169758631844498 C 0.04603113907114449 0.08961400780478856 0.048714627192915284 0.0805165695866958 0.048478271939169294 0.08137664779683035" fill="none" stroke="none" stroke-width="0"/>
</g><g transform="translate(0.27386708879918514,0.2623727541627052) rotate(0) scale(1,1) translate(-0.09500000000000003,-0.09500000000000001)"><path d="M 0.04342865655864796 0.11102901080972723 C 0.04370793520365435 0.1106495940021236 0.04740603492146536 0.1056485014966772 0.04678000029872465 0.10647600911848366 C 0.04740603492146536 0.1056485014966772 0.05160101906232905 0.1002951360413464 0.050941072031536444 0.10109891934804964 C 0.05160101906232905 0.1002951360413464 0.055340993537833616 0.09617449632810651 0.054699364668235884 0.09683060943804489 C 0.055340993537833616 0.09617449632810651 0.058969056283248694 0.0929251414113512 0.058640618466709246 0.09322556202878918" fill="none" stroke="none" stroke-width="0"/>
<path d="M 0.058640618466709246 0.09322556202878918 C 0.0590378140714356 0.09376248500105669 0.06346456516411805 0.1013985436732984 0.06340696572342554 0.09966863769599928 C 0.06346456516411805 0.1013985436732984 0.058992215590985615 0.11517741676141015 0.059331811755019455 0.11398443375637854" fill="none" stroke="none" stroke-width="0"/>
<path d="M 0.059331811755019455 0.11398443375637854 C 0.05907876321114883 0.11426060880984462 0.05576343430050662 0.11788955158819699 0.0562952292285719 0.11729853439797153 C 0.05576343430050662 0.11788955158819699 0.05253592051960268 0.12156613229799208 0.052950272618236094 0.12107664003908403 C 0.05253592051960268 0.12156613229799208 0.051035352635895856 0.12353762253696732 0.0513230040449709 0.12317244150486817 C 0.051035352635895856 0.12353762253696732 0.0493464100146993 0.12564934333422434 0.04949845570933557 0.12545881242427387" fill="none" stroke="none" stroke-width="0"/>
<path d="M 0.04949845570933557 0.12545881242427387 C 0.04950993104830382 0.12539552871214196 0.04968317536182464 0.1244374418700811 0.049636159776954555 0.12469940787869106 C 0.04968317536182464 0.1244374418700811 0.0500981829736785 0.12211653802447626 0.050062642727776656 0.12231522032095432" fill="none" stroke="none" stroke-width="0"/>
<path d="M 0.050062642727776656 0.12231522032095432 C 0.04982978690157398 0.12221000783495023 0.046761430043839494 0.1208950005808605 0.04726837281334455 0.12105267048890518 C 0.046761430043839494 0.1208950005808605 0.043705242550413595 0.12037072400237757 0.043979329493715975 0.12042318142441816" fill="none" stroke="none" stroke-width="0"/>
<path d="M 0.043979329493715975 0.12042318142441816 C 0.04393791001739818 0.12013316622500828 0.04343640636664674 0.11616015148027534 0.043482295777902406 0.11694299903149959 C 0.04343640636664674 0.11616015148027534 0.04342418662371009 0.11053617845791286 0.04342865655864796 0.11102901080972723" fill="none" stroke="none" stroke-width="0"/>
</g><g transform="translate(0.27386708879918514,0.2623727541627052) rotate(0) scale(1,1) translate(-0.09500000000000003,-0.09500000000000001)"><path d="M 0.04754006417534807 0.1327161154983493 C 0.04770340794785762 0.1324836499721832 0.04999457268037365 0.1292592132475605 0.04950018944546271 0.1299265291843563 C 0.04999457268037365 0.1292592132475605 0.05407442941234306 0.1239428905275513 0.053472662994279316 0.12470832425679987 C 0.05407442941234306 0.1239428905275513 0.05725174976343481 0.12011955177588537 0.056721386462227685 0.12074132443337345 C 0.05725174976343481 0.12011955177588537 0.06009665895430959 0.11695586302807384 0.05983702260876483 0.11724705236694304" fill="none" stroke="none" stroke-width="0"/>
<path d="M 0.05983702260876483 0.11724705236694304 C 0.0603236281593705 0.11768045141612282 0.06613197370063308 0.12391232258550336 0.06567628921603294 0.12244784095710055 C 0.06613197370063308 0.12391232258550336 0.06527431535796092 0.13585191448699976 0.06530523642396646 0.13482083190777674" fill="none" stroke="none" stroke-width="0"/>
<path d="M 0.06530523642396646 0.13482083190777674 C 0.0650799747318775 0.13514524466909536 0.06213700453062346 0.13942231845125871 0.06260209611889887 0.13871378504360005 C 0.06213700453062346 0.13942231845125871 0.059283170441836355 0.14408838249530362 0.05972413736466149 0.1433232327996809 C 0.059283170441836355 0.14408838249530362 0.057056281087122684 0.14837425458876052 0.05731049304499726 0.14789558139107262 C 0.057056281087122684 0.14837425458876052 0.05662051893893071 0.1491649553203411 0.0566735938701666 0.14906731117193583" fill="none" stroke="none" stroke-width="0"/>
<path d="M 0.0566735938701666 0.14906731117193583 C 0.056617192583171605 0.14894600259520135 0.055730880707546136 0.14721659488283115 0.05599677842622664 0.14761160825112213 C 0.055730880707546136 0.14721659488283115 0.05327332481431502 0.14405344596088768 0.05348282124600053 0.14432715075244418" fill="none" stroke="none" stroke-width="0"/>
<path d="M 0.05348282124600053 0.14432715075244418 C 0.05336499749103907 0.14398464266289784 0.051714460858922194 0.13971054687604578 0.052068936186462966 0.1402170536778883 C 0.051714460858922194 0.13971054687604578 0.048992465742931986 0.13808507041803783 0.049229117315511293 0.13824906913033402" fill="none" stroke="none" stroke-width="0"/>
<path d="M 0.049229117315511293 0.13824906913033402 C 0.0491854832918195 0.1381104887506122 0.048564754602862845 0.13612502510433988 0.04870550903120978 0.13658610457367193 C 0.048564754602862845 0.13612502510433988 0.047442943770692914 0.1323936164087391 0.047540064175348055 0.1327161154983493" fill="none" stroke="none" stroke-width="0"/>
</g><g transform="translate(0.27386708879918514,0.2623727541627052) rotate(0) scale(1,1) translate(-0.09500000000000003,-0.09500000000000001)"><path d="M 0.08109008475674229 0.19035318862148776 C 0.0801757999161718 0.18769967511922278 0.06858832810969034 0.15493256438308964 0.07011866666989643 0.15851102659430794 C 0.06858832810969034 0.15493256438308964 0.06210996831463368 0.1464866933779149 0.06272602203426927 0.14741164208686822" fill="none" stroke="none" stroke-width="0"/>
<path d="M 0.06272602203426927 0.14741164208686822 C 0.06312007942647357 0.14757271588593454 0.06780586968099075 0.1490174966021789 0.06745471074072085 0.14934452767566414 C 0.06780586968099075 0.1490174966021789 0.06689703086557383 0.14299916433249366 0.06693992931750822 0.14348726920504523" fill="none" stroke="none" stroke-width="0"/>
<path d="M 0.06693992931750822 0.14348726920504523 C 0.06675134271539349 0.1436434224739244 0.0643257311518615 0.14568813950508028 0.06467689009213141 0.14536110843159503 C 0.0643257311518615 0.14568813950508028 0.06256344969611409 0.1475825198914743 0.06272602203426927 0.14741164208686822" fill="none" stroke="none" stroke-width="0"/>
<path d="M 0.06272602203426927 0.14741164208686822 C 0.06334207575390487 0.14833659079582154 0.07164900523010251 0.16208948880552623 0.07011866666989643 0.15851102659430794 C 0.07164900523010251 0.16208948880552623 0.08200436959731278 0.19300670212375273 0.08109008475674229 0.19035318862148776" fill="none" stroke="none" stroke-width="0"/>
<path d="M 0.08109008475674229 0.19035318862148776 C 0.08103484429342228 0.18964454058526112 0.08044140162162712 0.18511286789550777 0.08075864197682225 0.18610130040412787 C 0.08044140162162712 0.18511286789550777 0.07892464273369633 0.18414280909737363 0.07918664262557146 0.1844225935697671" fill="none" stroke="none" stroke-width="0"/>
<path d="M 0.07918664262557146 0.1844225935697671 C 0.07906531687889627 0.1841355750466112 0.0774812680011636 0.18045596514705453 0.07773073366546916 0.1809783712918966 C 0.0774812680011636 0.18045596514705453 0.0760649147362743 0.17791833220997627 0.07619305465390468 0.17815371983166245" fill="none" stroke="none" stroke-width="0"/>
<path d="M 0.07619305465390468 0.17815371983166245 C 0.07622881789100695 0.17801865404063963 0.07670627396226494 0.1762176263789531 0.076622213499132 0.17653293033938847 C 0.07670627396226494 0.1762176263789531 0.07725007743753066 0.17418983413702574 0.0772017802115 0.17437007230643825" fill="none" stroke="none" stroke-width="0"/>
<path d="M 0.0772017802115 0.17437007230643825 C 0.0768769758073905 0.17415871630314106 0.07265275495248474 0.17140862799893739 0.07330412736218614 0.17183380026687198 C 0.07265275495248474 0.17140862799893739 0.06905874328949138 0.16905418882658568 0.06938531129508328 0.16926800509122308" fill="none" stroke="none" stroke-width="0"/>
<path d="M 0.06938531129508328 0.16926800509122308 C 0.06923833649295148 0.168965820767413 0.06718478319090919 0.1647400501385447 0.06762161366950173 0.16564179320550226 C 0.06718478319090919 0.1647400501385447 0.06385348987551212 0.15784752954458492 0.06414334555197286 0.1584470882877324" fill="none" stroke="none" stroke-width="0"/>
<path d="M 0.06414334555197286 0.1584470882877324 C 0.06343428782590925 0.15820931834711568 0.0587713976932949 0.15619859707119874 0.059888999195591174 0.15702046864403207 C 0.0587713976932949 0.15619859707119874 0.05702919276196251 0.15293175721851576 0.05743773653819518 0.15351585885073238" fill="none" stroke="none" stroke-width="0"/>
<path d="M 0.05743773653819518 0.15351585885073238 C 0.05752991817948459 0.15333517420898155 0.05880821705590944 0.1508290696319067 0.058543916233668156 0.15134764314972224 C 0.05880821705590944 0.1508290696319067 0.06101965029612937 0.1465256572728324 0.06060934640509057 0.14729297663694582 C 0.06101965029612937 0.1465256572728324 0.06396401021404069 0.14131633720956377 0.0634675629261338 0.14213981078036103 C 0.06396401021404069 0.14131633720956377 0.06682497643779324 0.1370172507046303 0.06656671385997329 0.13741129378737882" fill="none" stroke="none" stroke-width="0"/>
<path d="M 0.06656671385997329 0.13741129378737882 C 0.06756439348191647 0.1377858920295222 0.08026711067610041 0.1435445180968792 0.07853886932329143 0.14190647269309958 C 0.08026711067610041 0.1435445180968792 0.08803617182454683 0.15833128579437067 0.08730561009368103 0.15706783863273444" fill="none" stroke="none" stroke-width="0"/>
<path d="M 0.08730561009368103 0.15706783863273444 C 0.08730497831994839 0.1590261817653744 0.0872984417962172 0.18358070820774533 0.08729802880888944 0.18056795622441402 C 0.0872984417962172 0.18358070820774533 0.08733423778237348 0.19650580944963103 0.087310565941614 0.1932208624327103 C 0.08733423778237348 0.19650580944963103 0.08760471797770235 0.22221785859369209 0.08758209089800324 0.21998732042746272" fill="none" stroke="none" stroke-width="0"/>
<path d="M 0.08758209089800324 0.21998732042746272 C 0.08747339998963541 0.22013476189218745 0.0859169021999669 0.22222638512371357 0.08627779999758922 0.22175661800415958 C 0.0859169021999669 0.22222638512371357 0.08299911043728077 0.22594685151693977 0.08325131732653526 0.22562452586211051" fill="none" stroke="none" stroke-width="0"/>
<path d="M 0.08325131732653526 0.22562452586211051 C 0.0832138189079871 0.22561272163577287 0.0827264394238157 0.22545924363791905 0.0828013363039573 0.22548287514605886 C 0.0827264394238157 0.22545924363791905 0.08231515630324256 0.22532912048263065 0.082352554764836 0.2253409477644328" fill="none" stroke="none" stroke-width="0"/>
<path d="M 0.082352554764836 0.2253409477644328 C 0.08237216231471485 0.22498501210980212 0.08269061674285591 0.21972979418810917 0.08258784536338219 0.22106971990886465 C 0.08269061674285591 0.21972979418810917 0.0836489154843012 0.20771168365838494 0.08358581131852068 0.2092618391153671 C 0.0836489154843012 0.20771168365838494 0.08322407118620491 0.20126348846849298 0.0833450953527484 0.20246785442507859 C 0.08322407118620491 0.20126348846849298 0.0819456037703317 0.19379989215270735 0.08213352131999888 0.19480944763633992 C 0.0819456037703317 0.19379989215270735 0.08100313170980424 0.1899818337035834 0.08109008475674229 0.19035318862148776" fill="none" stroke="none" stroke-width="0"/>
</g><g transform="translate(0.27386708879918514,0.2623727541627052) rotate(0) scale(1,1) translate(-0.09500000000000003,-0.09500000000000001)"><path d="M 0.12036593250364332 0.15145024996231088 C 0.12005780766420665 0.15145553400226397 0.11606997992975762 0.1515156713201254 0.11666843443040326 0.15151365844174813 C 0.11606997992975762 0.1515156713201254 0.11289414883468672 0.1514711333412621 0.11318447849589569 0.15147440450283794" fill="none" stroke="none" stroke-width="0"/>
<path d="M 0.11318447849589569 0.15147440450283794 C 0.11311710927918997 0.15189949337752146 0.11220854839928575 0.15745487395236116 0.11237604789542702 0.15657547099904007 C 0.11220854839928575 0.15745487395236116 0.11107435426276493 0.1624815540213285 0.11117448454220048 0.16202723994269091" fill="none" stroke="none" stroke-width="0"/>
<path d="M 0.11117448454220048 0.16202723994269091 C 0.11126099052949578 0.1621067094586851 0.11241502343583218 0.1631704043959557 0.11221255638974414 0.16298087413462126 C 0.11241502343583218 0.1631704043959557 0.11372005015404968 0.16441166382404443 0.11360408909525695 0.16430160307870417" fill="none" stroke="none" stroke-width="0"/>
<path d="M 0.11360408909525695 0.16430160307870417 C 0.11319509202123022 0.16478563589034406 0.107571143543871 0.17134054622506018 0.10869612420693629 0.1701099968183828 C 0.107571143543871 0.17134054622506018 0.09903178118547712 0.1805563478140552 0.10010432113847337 0.17906819595883292 C 0.09903178118547712 0.1805563478140552 0.09530052096180666 0.18948323711302362 0.09582564477098127 0.18796781908105015 C 0.09530052096180666 0.18948323711302362 0.0935894144590957 0.1985678136529751 0.09380283542837804 0.19725321234251447 C 0.0935894144590957 0.1985678136529751 0.09321973961552776 0.20428385334524943 0.09326459313959316 0.20374303480657752" fill="none" stroke="none" stroke-width="0"/>
<path d="M 0.09326459313959316 0.20374303480657752 C 0.09308356827163282 0.20394718058943928 0.09079552060661249 0.2068060902032214 0.0910922947240691 0.20619278420091852 C 0.09079552060661249 0.2068060902032214 0.08958755448061759 0.21151186705365346 0.08970330373011386 0.2111027068342123" fill="none" stroke="none" stroke-width="0"/>
<path d="M 0.08970330373011386 0.2111027068342123 C 0.08967550385358566 0.20963206217536376 0.08935070711784152 0.19010061306699055 0.08936970521177547 0.19345497092802955 C 0.08935070711784152 0.19010061306699055 0.08951066429567126 0.16782684672056922 0.08947532660290637 0.1708504125017444 C 0.08951066429567126 0.16782684672056922 0.08982029343512467 0.1560323289749424 0.08979375752495403 0.15717218155392718" fill="none" stroke="none" stroke-width="0"/>
<path d="M 0.08979375752495403 0.15717218155392718 C 0.09092153130990498 0.15630350929571224 0.10557987890156811 0.1454645369610036 0.10332704294436541 0.14674811445534786 C 0.10557987890156811 0.1454645369610036 0.11795285118363824 0.14135434638566657 0.11682778901138649 0.1417692516217959" fill="none" stroke="none" stroke-width="0"/>
<path d="M 0.11682778901138649 0.1417692516217959 C 0.11689555025397957 0.14194653835281248 0.1177981633796125 0.1443153238419803 0.11764092392250346 0.14389669239399488 C 0.1177981633796125 0.1443153238419803 0.11888046341404492 0.14724135447564893 0.1187146624966951 0.14679282899762058 C 0.11888046341404492 0.14724135447564893 0.11976814076461363 0.14966711654405931 0.11963053493070128 0.14927899813033513 C 0.11976814076461363 0.14966711654405931 0.12042721563472182 0.15163118761497552 0.12036593250364332 0.15145024996231088" fill="none" stroke="none" stroke-width="0"/>
</g><g transform="translate(0.27386708879918514,0.2623727541627052) rotate(0) scale(1,1) translate(-0.09500000000000003,-0.09500000000000001)"><path d="M 0.13375911021430698 0.1134212551987342 C 0.13348670273770327 0.11505749713825231 0.12965329757128297 0.13618196033560087 0.1304902204950626 0.1330561584729516 C 0.12965329757128297 0.13618196033560087 0.12315151968177561 0.15242043747365647 0.12371603512895153 0.1509308775505253" fill="none" stroke="none" stroke-width="0"/>
<path d="M 0.12371603512895153 0.1509308775505253 C 0.12369305927126065 0.1509379023724731 0.12339353034807732 0.15102866433980794 0.12344032483666086 0.1510151754138988 C 0.12339353034807732 0.15102866433980794 0.12313068263505639 0.15109920876539643 0.12315450126594904 0.15109274466143507" fill="none" stroke="none" stroke-width="0"/>
<path d="M 0.12315450126594904 0.15109274466143507 C 0.1230587501525284 0.15083719337952758 0.1218112301364429 0.14750334051023084 0.12200548790490129 0.14802612927854505 C 0.1218112301364429 0.14750334051023084 0.12063541241744558 0.1443097932909754 0.12082340804444841 0.14481927944166462 C 0.12063541241744558 0.1443097932909754 0.11959967719587827 0.14150815417028922 0.1197495403808672 0.14191229547027445 C 0.11959967719587827 0.14150815417028922 0.11896467561155749 0.13980769120613923 0.11902504982458131 0.13996958384184194" fill="none" stroke="none" stroke-width="0"/>
<path d="M 0.11902504982458131 0.13996958384184194 C 0.1194833430641013 0.1387629008687626 0.1257524070646316 0.12327702744463108 0.12452456869882111 0.12548938816489005 C 0.1257524070646316 0.12327702744463108 0.13452865534059746 0.11241557745155453 0.13375911021430698 0.1134212551987342" fill="none" stroke="none" stroke-width="0"/>
</g></g>
</g>
</svg>
