<?xml version="1.0" encoding="UTF-8"?>
<svg xmlns="http://www.w3.org/2000/svg" viewBox="0 0 1 1">
<g transform="translate(0.3373434528286707,0.1307709240821216) rotate(0) scale(1,1) translate(-0.03174710983899897,-0.026737473081403652)"><path d="M 0.02870573353687414 0.027206709889112363 C 0.028703083644323002 0.027267337489146278 0.02867733235191274 0.028051024223825792 0.02867393482626049 0.027934241089519363 C 0.02867733235191274 0.028051024223825792 0.028752551262904536 0.02866426303506201 0.02874650384470115 0.0286081075007895" fill="none" stroke="#000000" stroke-width="0.001"/>
<path d="M 0.02874650384470115 0.0286081075007895 C 0.028747766644742462 0.028631645027639662 0.028752467034220314 0.02893737488567263 0.028761657445196903 0.02889055782299145 C 0.028752467034220314 0.02893737488567263 0.02860206148729948 0.029202788888886243 0.028636218912982098 0.029169912252963663 C 0.02860206148729948 0.029202788888886243 0.028304359907676085 0.029285077454062402 0.028351768337005506 0.029285077454062402 C 0.028304359907676085 0.029285077454062402 0.02803316033534642 0.029137035617041084 0.028067317761029026 0.029169912252963663 C 0.02803316033534642 0.029137035617041084 0.02793268881783763 0.02884374076031027 0.02794187922881422 0.02889055782299145 C 0.02793268881783763 0.02884374076031027 0.027958295629351287 0.02858456997393934 0.027957032829309975 0.0286081075007895" fill="none" stroke="#000000" stroke-width="0.001"/>
<path d="M 0.027957032829309975 0.0286081075007895 C 0.027963080247513355 0.02855195196651699 0.028032999373402773 0.027817457955212933 0.028029601847750524 0.027934241089519363 C 0.028032999373402773 0.027817457955212933 0.027995153244585857 0.027146082289078447 0.027997803137136984 0.027206709889112363" fill="none" stroke="#000000" stroke-width="0.001"/>
</g></svg>
