<?xml version="1.0" encoding="UTF-8"?>
<svg xmlns="http://www.w3.org/2000/svg" viewBox="0 0 1 1">
<g id="刺">
</g>
<g transform="translate(0.3115244315045804,0.11067365803312038) rotate(0) scale(1,1) translate(-0.04302775014963211,-0.029670372234060955)"><path d="M 0.047652943322036574 0.03578127456586208 C 0.0475148468289268 0.03605001765688376 0.04551626677599132 0.03941016846736586 0.04599578540471931 0.039006191658122226 C 0.04551626677599132 0.03941016846736586 0.041084045170483634 0.04075430074174908 0.04189871977730071 0.04062899627678567 C 0.041084045170483634 0.04075430074174908 0.03559349481018979 0.04060609312758522 0.0362196901229144 0.04050984523768313 C 0.03559349481018979 0.04060609312758522 0.03423143318307957 0.04189014809877142 0.034384376024605326 0.04178397095561078" fill="none" stroke="#000000" stroke-width="0.001"/>
<path d="M 0.034384376024605326 0.04178397095561078 C 0.03441208504919637 0.04194370452317127 0.034967529490659156 0.04411748294414644 0.0347168843196979 0.043700773766336645 C 0.034967529490659156 0.04411748294414644 0.03761505422251066 0.04704145669957766 0.03739211807614044 0.04678448108932835" fill="none" stroke="#000000" stroke-width="0.001"/>
<path d="M 0.03739211807614044 0.04678448108932835 C 0.03695856649079196 0.046687867967137024 0.03151711343913976 0.04556425191818432 0.03218949905195863 0.04562512362303244 C 0.03151711343913976 0.04556425191818432 0.029084656694843586 0.04608976204849413 0.029323490722313973 0.046054020631150924" fill="none" stroke="#000000" stroke-width="0.001"/>
<path d="M 0.029323490722313973 0.046054020631150924 C 0.029353478124253686 0.04642849884576773 0.02913125723797228 0.04882159541898714 0.029503415133952257 0.04830088991885177 C 0.02913125723797228 0.04882159541898714 0.026152120589102955 0.04931314100757163 0.02709054334643411 0.04917825363196314 C 0.026152120589102955 0.04931314100757163 0.023336601130553858 0.04909887426259264 0.023872878589965323 0.04911021417250271" fill="none" stroke="#000000" stroke-width="0.001"/>
<path d="M 0.023872878589965323 0.04911021417250271 C 0.023294380586131237 0.04915320662869652 0.01912516530718787 0.04898849180777598 0.020401890566960817 0.04936816890966558 C 0.01912516530718787 0.04898849180777598 0.015514299775388764 0.046409482003081676 0.01621252703132763 0.04683215156116509" fill="none" stroke="#000000" stroke-width="0.001"/>
<path d="M 0.01621252703132763 0.04683215156116509 C 0.016123487236369086 0.04654292616974403 0.014914063317751518 0.042484268805101165 0.015144049491825122 0.04336144686411239 C 0.014914063317751518 0.042484268805101165 0.013311746563329317 0.0357180621854402 0.013452692942444378 0.036306014853030366" fill="none" stroke="#000000" stroke-width="0.001"/>
<path d="M 0.013452692942444378 0.036306014853030366 C 0.01348412930442467 0.03608395774363774 0.013991963491541245 0.033295838586777454 0.013829929286207878 0.033641329540318884 C 0.013991963491541245 0.033295838586777454 0.015527701249797854 0.03203668956638436 0.01539710340644478 0.032160123410533176" fill="none" stroke="#000000" stroke-width="0.001"/>
<path d="M 0.01539710340644478 0.032160123410533176 C 0.01570743873232786 0.03224597253221493 0.01974520593483802 0.03316326980790905 0.019121127317041745 0.03319031287071425 C 0.01974520593483802 0.03316326980790905 0.023643435973173504 0.03132596902718731 0.022886046820000085 0.031835606656870775 C 0.023643435973173504 0.03132596902718731 0.02921520049580981 0.026598541509135584 0.02820979715512279 0.027074661314512673 C 0.02921520049580981 0.026598541509135584 0.035800283560086396 0.02582923637465796 0.03495088690824433 0.026122168992345696 C 0.035800283560086396 0.02582923637465796 0.03869019614964292 0.023345911644752672 0.03840255697722764 0.02355946990225983" fill="none" stroke="#000000" stroke-width="0.001"/>
<path d="M 0.03840255697722764 0.02355946990225983 C 0.03870881610669368 0.023434978992777626 0.0427113993012857 0.02198640535357238 0.04207766653082007 0.022065578988473385 C 0.0427113993012857 0.02198640535357238 0.046595765718699646 0.022857686289546382 0.04600735022281521 0.022609386283447788 C 0.046595765718699646 0.022857686289546382 0.04952408524580027 0.02555442092263992 0.04913865248143323 0.025045179061656493 C 0.04952408524580027 0.02555442092263992 0.05071171703012068 0.02935402138571454 0.05063254339521968 0.02872028861524891 C 0.05071171703012068 0.02935402138571454 0.049840436094146685 0.03323838780312849 0.05008873610024528 0.032649972307244056 C 0.049840436094146685 0.03323838780312849 0.04744996059051918 0.03604221642074692 0.047652943322036574 0.03578127456586208" fill="none" stroke="#000000" stroke-width="0.001"/>
</g><g transform="translate(0.3007114249939669,0.11479553907515733) rotate(0) scale(1,1) translate(-0.011628401968068896,-0.011628401968068892)"><path d="M 0.008737147728355139 0.023890166821240077 C 0.008613127037964607 0.023599683056049602 0.0074955978780629024 0.019970922093993503 0.007248899443668765 0.020404361638954392 C 0.0074955978780629024 0.019970922093993503 0.012189026692578288 0.018255496595352493 0.011697528941084782 0.018688892281709384 C 0.012189026692578288 0.018255496595352493 0.013530057646263891 0.01489665131340272 0.01314687246159084 0.015203613402671705 C 0.013530057646263891 0.01489665131340272 0.01679355145801276 0.014996662037378549 0.016295751157161385 0.015005347210481582 C 0.01679355145801276 0.014996662037378549 0.019517518883338497 0.01506418487397669 0.01912047607180734 0.015099391325435295 C 0.019517518883338497 0.01506418487397669 0.021221913964179277 0.01453982633194023 0.02106026489553528 0.014582869792978312" fill="none" stroke="#000000" stroke-width="0.001"/>
</g><g transform="translate(0.2912646902317691,0.12744637189521743) rotate(0) scale(1,1) translate(-0.004391772563830167,-0.004391772563830166)"><path d="M 0.005607088893594367 1.3546706562529535E-05 C 0.006161940873058082 0.0006694614883795486 0.009826228462168922 0.0046138954696907765 0.008936200770376653 0.003949035397464644 C 0.009826228462168922 0.0046138954696907765 0.011282430756676539 0.004011652430328441 0.010947255044347983 0.004002707139919327" fill="none" stroke="#000000" stroke-width="0.001"/>
<path d="M -0.002163708661911362 0.00478083828749968 C -0.002219932772026675 0.004501289867786916 -0.0026806587249008883 0.000942962841567227 -0.002838397983295121 0.0014262572509465082 C -0.0026806587249008883 0.000942962841567227 -5.687419267102152E-05 -0.001222440614718209 -0.00027083756118056763 -0.0010186946250516924" fill="none" stroke="#000000" stroke-width="0.001"/>
<path d="M -0.00027083756118056763 -0.0010186946250516924 C -0.0002857490951918384 -0.0011119353964342653 -0.0004206353969043887 -0.002135313991034729 -0.0004497759693158172 -0.0021375838816425673 C -0.0004206353969043887 -0.002135313991034729 0.0001229014141792736 -0.0008959452757672231 7.884930775657432E-05 -0.0009914559377576342" fill="none" stroke="#000000" stroke-width="0.001"/>
<path d="M 7.884930775657432E-05 -0.0009914559377576342 C 0.00046798314782728047 -0.0008354252677019262 0.00333502561248711 0.00011222852329664093 0.002413652348180811 -5.527191742338636E-05 C 0.00333502561248711 0.00011222852329664093 0.00613932831782996 2.501647722684885E-05 0.005607088893594367 1.3546706562529535E-05" fill="none" stroke="#000000" stroke-width="0.001"/>
</g><g transform="translate(0.2912646902317691,0.12744637189521743) rotate(0) scale(1,1) translate(-0.0032452735759437236,-0.0032452735759437236)"><path d="M 0.004460589905707927 -0.001132952281323912 C 0.004735386266450007 -0.00045459447668839026 0.006090960300723794 0.0041114202020912744 0.00610936807016041 0.002937194546489219 C 0.006090960300723794 0.0041114202020912744 0.004056939158909533 0.006408269503254956 0.00435014328908823 0.005912401652288422" fill="none" stroke="#000000" stroke-width="0.001"/>
<path d="M 0.0008791552718769606 0.0061703561839332455 C 0.0010639877727379675 0.005687351063579096 0.001849824793462019 0.0026273644488968148 0.0019881502770430024 0.0032723254618083493 C 0.001849824793462019 0.0026273644488968148 -0.00027395561405092967 0.0021386342139066514 4.920237039106063E-05 0.0023005901064640367" fill="none" stroke="#000000" stroke-width="0.001"/>
<path d="M -0.0023468390650987314 0.0032705711435302557 C -0.0019474988258504327 0.0031089076373525524 0.0006515344412899106 0.0015551997649906894 4.920237039106063E-05 0.0023005901064640367 C 0.0006515344412899106 0.0015551997649906894 0.0014701451919449193 -0.0017854977406054733 0.0012671533602943682 -0.0012017709053098288" fill="none" stroke="#000000" stroke-width="0.001"/>
</g><g transform="translate(0.2912646902317691,0.12744637189521743) rotate(0) scale(1,1) translate(-0.0012318180079876,-0.0012318180079876)"><path d="M 0.0015026257299381568 -0.006300083141523836 C 0.0014448656289246231 -0.0060381350108844765 0.001124457205116796 -0.004379711353492284 0.0011560651238569548 -0.00472839435768768 C 0.001124457205116796 -0.004379711353492284 0.001339130399770579 -0.004121250242795419 0.001312978217497204 -0.004207985116351456" fill="none" stroke="#000000" stroke-width="0.001"/>
<path d="M 0.001312978217497204 -0.004207985116351456 C 0.0012710358455469775 -0.004146188968686083 0.0007558722635434025 -0.0033811626640681642 0.0008096697540944859 -0.003466431344366981 C 0.0007558722635434025 -0.0033811626640681642 0.0006555532122833458 -0.0031612884201322115 0.0006674083308842027 -0.0031847609527656555" fill="none" stroke="#000000" stroke-width="0.001"/>
<path d="M -0.0005221976516419126 -0.006702014414190049 C -0.0004867906780594926 -0.006500272773758038 -3.004534756424808E-05 -0.005162627895514255 -0.00030975581014739263 -0.005491564571597983 C -3.004534756424808E-05 -0.005162627895514255 0.0014003686128576795 -0.004601199322035963 0.0011560651238569548 -0.00472839435768768" fill="none" stroke="#000000" stroke-width="0.001"/>
</g><g transform="translate(0.2912646902317691,0.12744637189521743) rotate(0) scale(1,1) translate(-0.015396266779668091,-0.015396266779668094)"><path d="M 0.012972483872094305 0.01272425288261225 C 0.013555335541902035 0.012733753452603535 0.017936452731520877 0.013508594926841366 0.017396488386044733 0.013242239598784483 C 0.017936452731520877 0.013508594926841366 0.01933510045807741 0.01615595790459603 0.019452056017808056 0.01592051681929485 C 0.01933510045807741 0.01615595790459603 0.015439510742428959 0.016071038902821303 0.015993021669276974 0.01606753262239865 C 0.015439510742428959 0.016071038902821303 0.012344028785554783 0.015717650529074253 0.012809924895631868 0.015962592184366717 C 0.012344028785554783 0.015717650529074253 0.010415814929723826 0.012858371150409529 0.010402268348351956 0.013128232758889068 C 0.010415814929723826 0.012858371150409529 0.013555335541902035 0.012733753452603535 0.012972483872094305 0.01272425288261225 Z" fill="#cccccc" stroke="#000000" stroke-width="0.001"/>
</g></svg>
