<?xml version="1.0" encoding="UTF-8"?>
<svg xmlns="http://www.w3.org/2000/svg" viewBox="0 0 1 1">
<g transform="translate(0.3373434528286706,0.2649004817027368) rotate(0) scale(1,1) translate(-0.31403212779456446,-0.3097273832173949)"><path d="M 0.32196722870051286 0.2988056537933331 C 0.32410710586217695 0.3003603655559895 0.32768875110855505 0.30807123026802036 0.326871390764549 0.3055556537933331 C 0.32768875110855505 0.30807123026802036 0.326054030420543 0.31641468911614395 0.326871390764549 0.3138991126414567 C 0.326054030420543 0.31641468911614395 0.3198273515388488 0.32220382440411305 0.32196722870051286 0.3206491126414567 C 0.3198273515388488 0.32220382440411305 0.3113870941592483 0.3232273832173949 0.31403212779456446 0.3232273832173949 C 0.3113870941592483 0.3232273832173949 0.303957149726952 0.3190944008788003 0.30609702688861606 0.3206491126414567 C 0.303957149726952 0.3190944008788003 0.3003755044805738 0.31138353616676945 0.30119286482457985 0.3138991126414567 C 0.3003755044805738 0.31138353616676945 0.3020102251685859 0.30304007731864585 0.30119286482457985 0.3055556537933331 C 0.3020102251685859 0.30304007731864585 0.30823690405028015 0.29725094203067676 0.30609702688861606 0.2988056537933331 C 0.30823690405028015 0.29725094203067676 0.3166771614298806 0.2962273832173949 0.31403212779456446 0.2962273832173949 C 0.3166771614298806 0.2962273832173949 0.32410710586217695 0.3003603655559895 0.32196722870051286 0.2988056537933331 Z" fill="#cccccc" stroke="none" stroke-width="0"/>
</g><g transform="translate(0.3374170306830153,0.2615453453509264) rotate(0) scale(1,1) translate(-0.04481464761927566,-0.044796685030032785)"><path d="M 0.045364014516182785 0.04405850895466732 C 0.045438089042140264 0.044112327248017266 0.045731835881980674 0.04461290817745994 0.04570354193076545 0.04452582834960322 C 0.045731835881980674 0.04461290817745994 0.04567524797955023 0.04519054671680478 0.04570354193076545 0.045103466888948056 C 0.04567524797955023 0.04519054671680478 0.045289939990225306 0.04564797054698069 0.045364014516182785 0.04557078628388395 C 0.045289939990225306 0.04564797054698069 0.04472308646979115 0.04602967804610897 0.04481464761927567 0.04602967804610897 C 0.04472308646979115 0.04602967804610897 0.04419120619641105 0.04549360202078721 0.04426528072236854 0.04557078628388395 C 0.04419120619641105 0.04549360202078721 0.043897459356570655 0.04501638706109133 0.04392575330778588 0.045103466888948056 C 0.043897459356570655 0.04501638706109133 0.0439540472590011 0.04443874852174649 0.04392575330778588 0.04452582834960322 C 0.0439540472590011 0.04443874852174649 0.044339355248326016 0.044004690661317375 0.04426528072236854 0.04405850895466732 C 0.044339355248326016 0.044004690661317375 0.044906208768760184 0.04388000882940385 0.044814647619275665 0.04388000882940385 C 0.044906208768760184 0.04388000882940385 0.045438089042140264 0.044112327248017266 0.045364014516182785 0.04405850895466732 Z" fill="#cccccc" stroke="#000000" stroke-width="0.001"/>
</g><g transform="translate(0.3409193122067694,0.26455051985393063) rotate(0) scale(1,1) translate(-0.0448317310568246,-0.04480909687393661)"><path d="M 0.045364014516182785 0.04405850895466732 C 0.045438089042140264 0.044112327248017266 0.045731835881980674 0.04461290817745994 0.04570354193076545 0.04452582834960322 C 0.045731835881980674 0.04461290817745994 0.04567524797955023 0.04519054671680478 0.04570354193076545 0.045103466888948056 C 0.04567524797955023 0.04519054671680478 0.045289939990225306 0.0456246045772339 0.045364014516182785 0.04557078628388395 C 0.045289939990225306 0.0456246045772339 0.044723086469791146 0.04574928640914743 0.044814647619275665 0.04574928640914743 C 0.044723086469791146 0.04574928640914743 0.04416898383862381 0.045524188472275816 0.04426528072236854 0.04557078628388395 C 0.04416898383862381 0.045524188472275816 0.043630791063123724 0.045103032841993046 0.04365908501433895 0.04519011266984978 C 0.043630791063123724 0.045103032841993046 0.04397626961678834 0.04443152804000468 0.04392575330778588 0.04452582834960322 C 0.04397626961678834 0.04443152804000468 0.044339355248326016 0.044004690661317375 0.04426528072236854 0.04405850895466732 C 0.044339355248326016 0.044004690661317375 0.044906208768760184 0.04388000882940385 0.044814647619275665 0.04388000882940385 C 0.044906208768760184 0.04388000882940385 0.045438089042140264 0.044112327248017266 0.045364014516182785 0.04405850895466732 Z" fill="#cccccc" stroke="#000000" stroke-width="0.001"/>
</g><g transform="translate(0.3399631185159825,0.2687777624533479) rotate(0) scale(1,1) translate(-0.044825205764325596,-0.044829179659236065)"><path d="M 0.045364014516182785 0.04405850895466732 C 0.045438089042140264 0.044112327248017266 0.045731835881980674 0.04461290817745994 0.04570354193076545 0.04452582834960322 C 0.045731835881980674 0.04461290817745994 0.04567524797955023 0.04519054671680478 0.04570354193076545 0.045103466888948056 C 0.04567524797955023 0.04519054671680478 0.045289939990225306 0.0456246045772339 0.045364014516182785 0.04557078628388395 C 0.045289939990225306 0.0456246045772339 0.044723086469791146 0.04574928640914743 0.044814647619275665 0.04574928640914743 C 0.044723086469791146 0.04574928640914743 0.04419120619641106 0.04551696799053401 0.04426528072236854 0.04557078628388395 C 0.04419120619641106 0.04551696799053401 0.043897459356570655 0.04501638706109133 0.04392575330778588 0.045103466888948056 C 0.043897459356570655 0.04501638706109133 0.04394031308657842 0.04441984505513128 0.04392575330778588 0.04452582834960322 C 0.04394031308657842 0.04441984505513128 0.044174545179253885 0.043777849061934875 0.044100470653296406 0.04383166735528482 C 0.044174545179253885 0.043777849061934875 0.044919942941182865 0.043898912296019055 0.044814647619275665 0.04388000882940385 C 0.044919942941182865 0.043898912296019055 0.045438089042140264 0.044112327248017266 0.045364014516182785 0.04405850895466732 Z" fill="#cccccc" stroke="#000000" stroke-width="0.001"/>
</g><g transform="translate(0.3350129910668116,0.2687687962450282) rotate(0) scale(1,1) translate(-0.044804089474225726,-0.044829179659236065)"><path d="M 0.04552882458525492 0.04383166735528482 C 0.0456028991112124 0.043885485648634766 0.04571810170955799 0.044631811644075155 0.04570354193076545 0.04452582834960322 C 0.04571810170955799 0.044631811644075155 0.04567524797955023 0.04519054671680478 0.04570354193076545 0.045103466888948056 C 0.04567524797955023 0.04519054671680478 0.045289939990225306 0.0456246045772339 0.045364014516182785 0.04557078628388395 C 0.045289939990225306 0.0456246045772339 0.044723086469791146 0.04574928640914743 0.044814647619275665 0.04574928640914743 C 0.044723086469791146 0.04574928640914743 0.04419120619641106 0.04551696799053401 0.04426528072236854 0.04557078628388395 C 0.04419120619641106 0.04551696799053401 0.043897459356570655 0.04501638706109133 0.04392575330778588 0.045103466888948056 C 0.043897459356570655 0.04501638706109133 0.0439540472590011 0.04443874852174649 0.04392575330778588 0.04452582834960322 C 0.0439540472590011 0.04443874852174649 0.044339355248326016 0.044004690661317375 0.04426528072236854 0.04405850895466732 C 0.044339355248326016 0.044004690661317375 0.044919942941182865 0.043861105362788644 0.044814647619275665 0.04388000882940385 C 0.044919942941182865 0.043861105362788644 0.0456028991112124 0.043885485648634766 0.04552882458525492 0.04383166735528482 Z" fill="#cccccc" stroke="#000000" stroke-width="0.001"/>
</g><g transform="translate(0.3337702658302102,0.26425187518545573) rotate(0) scale(1,1) translate(-0.044797564181726715,-0.04480909687393661)"><path d="M 0.045364014516182785 0.04405850895466732 C 0.045438089042140264 0.044112327248017266 0.04575405823976792 0.04462012865920176 0.04570354193076545 0.04452582834960322 C 0.04575405823976792 0.04462012865920176 0.045941916272997166 0.04527719249770651 0.04597021022421239 0.04519011266984978 C 0.045941916272997166 0.04527719249770651 0.04526771763243806 0.04561738409549209 0.045364014516182785 0.04557078628388395 C 0.04526771763243806 0.04561738409549209 0.044723086469791146 0.04574928640914743 0.044814647619275665 0.04574928640914743 C 0.044723086469791146 0.04574928640914743 0.04419120619641106 0.04551696799053401 0.04426528072236854 0.04557078628388395 C 0.04419120619641106 0.04551696799053401 0.043897459356570655 0.04501638706109133 0.04392575330778588 0.045103466888948056 C 0.043897459356570655 0.04501638706109133 0.0439540472590011 0.04443874852174649 0.04392575330778588 0.04452582834960322 C 0.0439540472590011 0.04443874852174649 0.044339355248326016 0.044004690661317375 0.04426528072236854 0.04405850895466732 C 0.044339355248326016 0.044004690661317375 0.044906208768760184 0.04388000882940385 0.044814647619275665 0.04388000882940385 C 0.044906208768760184 0.04388000882940385 0.045438089042140264 0.044112327248017266 0.045364014516182785 0.04405850895466732 Z" fill="#cccccc" stroke="#000000" stroke-width="0.001"/>
</g><g transform="translate(0.34090024399023083,0.259848983898252) rotate(0) scale(1,1) translate(-0.044825205764325596,-0.0448001155793152)"><path d="M 0.045364014516182785 0.04405850895466732 C 0.045438089042140264 0.044112327248017266 0.045731835881980674 0.04461290817745994 0.04570354193076545 0.04452582834960322 C 0.045731835881980674 0.04461290817745994 0.04567524797955023 0.04519054671680478 0.04570354193076545 0.045103466888948056 C 0.04567524797955023 0.04519054671680478 0.045289939990225306 0.0456246045772339 0.045364014516182785 0.04557078628388395 C 0.045289939990225306 0.0456246045772339 0.044709352297368464 0.04576818987576264 0.044814647619275665 0.04574928640914743 C 0.044709352297368464 0.04576818987576264 0.044026396127338926 0.045743809589916494 0.044100470653296406 0.04579762788326644 C 0.044026396127338926 0.045743809589916494 0.043911193528993336 0.04499748359447612 0.04392575330778588 0.045103466888948056 C 0.043911193528993336 0.04499748359447612 0.0439540472590011 0.04443874852174649 0.04392575330778588 0.04452582834960322 C 0.0439540472590011 0.04443874852174649 0.044339355248326016 0.044004690661317375 0.04426528072236854 0.04405850895466732 C 0.044339355248326016 0.044004690661317375 0.044906208768760184 0.04388000882940385 0.044814647619275665 0.04388000882940385 C 0.044906208768760184 0.04388000882940385 0.045438089042140264 0.044112327248017266 0.045364014516182785 0.04405850895466732 Z" fill="#cccccc" stroke="#000000" stroke-width="0.001"/>
</g><g transform="translate(0.34365460322617114,0.2676235932924403) rotate(0) scale(1,1) translate(-0.0448317310568246,-0.04482019836461466)"><path d="M 0.045364014516182785 0.04405850895466732 C 0.045438089042140264 0.044112327248017266 0.045731835881980674 0.04461290817745994 0.04570354193076545 0.04452582834960322 C 0.045731835881980674 0.04461290817745994 0.04567524797955023 0.04519054671680478 0.04570354193076545 0.045103466888948056 C 0.04567524797955023 0.04519054671680478 0.045289939990225306 0.0456246045772339 0.045364014516182785 0.04557078628388395 C 0.045289939990225306 0.0456246045772339 0.044723086469791146 0.04574928640914743 0.044814647619275665 0.04574928640914743 C 0.044723086469791146 0.04574928640914743 0.04419120619641106 0.04551696799053401 0.04426528072236854 0.04557078628388395 C 0.04419120619641106 0.04551696799053401 0.043875236998783415 0.045009166579349516 0.04392575330778588 0.045103466888948056 C 0.043875236998783415 0.045009166579349516 0.04368737896555417 0.044352102740844765 0.04365908501433895 0.044439182568701496 C 0.04368737896555417 0.044352102740844765 0.04436157760611326 0.04401191114305918 0.04426528072236854 0.04405850895466732 C 0.04436157760611326 0.04401191114305918 0.044906208768760184 0.04388000882940385 0.044814647619275665 0.04388000882940385 C 0.044906208768760184 0.04388000882940385 0.045438089042140264 0.044112327248017266 0.045364014516182785 0.04405850895466732 Z" fill="#cccccc" stroke="#000000" stroke-width="0.001"/>
</g><g transform="translate(0.33713756720671184,0.2721984058329843) rotate(0) scale(1,1) translate(-0.04481464761927566,-0.04483261020851849)"><path d="M 0.045364014516182785 0.04405850895466732 C 0.045438089042140264 0.04413569321776406 0.045731835881980674 0.04461290817745994 0.04570354193076545 0.04452582834960322 C 0.045731835881980674 0.04461290817745994 0.04567524797955023 0.04519054671680478 0.04570354193076545 0.045103466888948056 C 0.04567524797955023 0.04519054671680478 0.045289939990225306 0.0456246045772339 0.045364014516182785 0.04557078628388395 C 0.045289939990225306 0.0456246045772339 0.044723086469791146 0.04574928640914743 0.044814647619275665 0.04574928640914743 C 0.044723086469791146 0.04574928640914743 0.04419120619641106 0.04551696799053401 0.04426528072236854 0.04557078628388395 C 0.04419120619641106 0.04551696799053401 0.043897459356570655 0.04501638706109133 0.04392575330778588 0.045103466888948056 C 0.043897459356570655 0.04501638706109133 0.0439540472590011 0.04443874852174649 0.04392575330778588 0.04452582834960322 C 0.0439540472590011 0.04443874852174649 0.04433935524832602 0.04398132469157058 0.04426528072236854 0.04405850895466732 C 0.04433935524832602 0.04398132469157058 0.04490620876876019 0.04359961719244231 0.04481464761927567 0.04359961719244231 C 0.04490620876876019 0.04359961719244231 0.045438089042140264 0.04413569321776406 0.045364014516182785 0.04405850895466732 Z" fill="#cccccc" stroke="#000000" stroke-width="0.001"/>
</g><g transform="translate(0.33097208647501764,0.2675798861488207) rotate(0) scale(1,1) translate(-0.044797564181726715,-0.04482019836461466)"><path d="M 0.045364014516182785 0.04405850895466732 C 0.04546031139992751 0.04410510676627546 0.04599850417542761 0.04452626239655823 0.04597021022421239 0.044439182568701496 C 0.04599850417542761 0.04452626239655823 0.04565302562176298 0.045197767198546596 0.04570354193076545 0.045103466888948056 C 0.04565302562176298 0.045197767198546596 0.045289939990225306 0.0456246045772339 0.045364014516182785 0.04557078628388395 C 0.045289939990225306 0.0456246045772339 0.044723086469791146 0.04574928640914743 0.044814647619275665 0.04574928640914743 C 0.044723086469791146 0.04574928640914743 0.04419120619641106 0.04551696799053401 0.04426528072236854 0.04557078628388395 C 0.04419120619641106 0.04551696799053401 0.043897459356570655 0.04501638706109133 0.04392575330778588 0.045103466888948056 C 0.043897459356570655 0.04501638706109133 0.0439540472590011 0.04443874852174649 0.04392575330778588 0.04452582834960322 C 0.0439540472590011 0.04443874852174649 0.044339355248326016 0.044004690661317375 0.04426528072236854 0.04405850895466732 C 0.044339355248326016 0.044004690661317375 0.044906208768760184 0.04388000882940385 0.044814647619275665 0.04388000882940385 C 0.044906208768760184 0.04388000882940385 0.04546031139992751 0.04410510676627546 0.045364014516182785 0.04405850895466732 Z" fill="#cccccc" stroke="#000000" stroke-width="0.001"/>
</g><g transform="translate(0.33327191639282505,0.26031954749421543) rotate(0) scale(1,1) translate(-0.044804089474225726,-0.0448001155793152)"><path d="M 0.045364014516182785 0.04405850895466732 C 0.045438089042140264 0.044112327248017266 0.045731835881980674 0.04461290817745994 0.04570354193076545 0.04452582834960322 C 0.045731835881980674 0.04461290817745994 0.04568898215197291 0.04520945018341999 0.04570354193076545 0.045103466888948056 C 0.04568898215197291 0.04520945018341999 0.045454750059297444 0.045851446176616385 0.04552882458525492 0.04579762788326644 C 0.045454750059297444 0.045851446176616385 0.044709352297368464 0.045730382942532226 0.044814647619275665 0.04574928640914743 C 0.044709352297368464 0.045730382942532226 0.04419120619641106 0.04551696799053401 0.04426528072236854 0.04557078628388395 C 0.04419120619641106 0.04551696799053401 0.043897459356570655 0.04501638706109133 0.04392575330778588 0.045103466888948056 C 0.043897459356570655 0.04501638706109133 0.0439540472590011 0.04443874852174649 0.04392575330778588 0.04452582834960322 C 0.0439540472590011 0.04443874852174649 0.044339355248326016 0.044004690661317375 0.04426528072236854 0.04405850895466732 C 0.044339355248326016 0.044004690661317375 0.044906208768760184 0.04388000882940385 0.044814647619275665 0.04388000882940385 C 0.044906208768760184 0.04388000882940385 0.045438089042140264 0.044112327248017266 0.045364014516182785 0.04405850895466732 Z" fill="#cccccc" stroke="#000000" stroke-width="0.001"/>
</g></svg>
