<?xml version="1.0" encoding="UTF-8"?>
<svg xmlns="http://www.w3.org/2000/svg" viewBox="0 0 1 1">
<g transform="translate(0.3169476223360119,0.45730337170260116) rotate(0) scale(1,1) translate(-0.09883088016901763,-0.050718111708700546)"><path d="M 0.11298159902648458 0.0508291886062596 C 0.11331038984587928 0.05219848402919683 0.11721136759133556 0.06909515755083877 0.11692708885922097 0.06726073368150629 C 0.11721136759133556 0.06909515755083877 0.1163484317245796 0.07330740348464458 0.11639294381185972 0.07284227503824933" fill="none" stroke="#000000" stroke-width="0.001"/>
<path d="M 0.11639294381185972 0.07284227503824933 C 0.1163621325559423 0.07303395919422809 0.1162122744529051 0.07532676280587797 0.11602320874085076 0.0751424849099944 C 0.1162122744529051 0.07532676280587797 0.11888160932448356 0.07504620352875707 0.11866173235651181 0.07505360978885225" fill="none" stroke="#000000" stroke-width="0.001"/>
<path d="M 0.11866173235651181 0.07505360978885225 C 0.11831567204237552 0.07542354909980811 0.11438282524071174 0.07985541457118332 0.11450900858687628 0.07949288152032263 C 0.11438282524071174 0.07985541457118332 0.11736740917050906 0.07939660013908531 0.1171475322025373 0.0794040063991805" fill="none" stroke="#000000" stroke-width="0.001"/>
<path d="M 0.1171475322025373 0.0794040063991805 C 0.11680147188840101 0.07977394571013637 0.11251700113718544 0.08441971736748412 0.1129948084329018 0.0838432781306509 C 0.11251700113718544 0.08441971736748412 0.11128209767236083 0.08652777716705652 0.1114138446539409 0.08632127724117916" fill="none" stroke="#000000" stroke-width="0.001"/>
<path d="M 0.1114138446539409 0.08632127724117916 C 0.11113706200485429 0.08746045874524264 0.10778003592555864 0.10258606811052524 0.10809245286490168 0.09999145528994083 C 0.10778003592555864 0.10258606811052524 0.10762920709156797 0.11891206240471304 0.1076648413818244 0.1174566310881921" fill="none" stroke="#000000" stroke-width="0.001"/>
<path d="M 0.1076648413818244 0.1174566310881921 C 0.10747653033385371 0.11790927321901867 0.1046722428167082 0.123515535467948 0.1054051088061761 0.12288833665811097 C 0.1046722428167082 0.123515535467948 0.09783127532454039 0.12495118382433505 0.09887044950820967 0.12498301680623639 C 0.09783127532454039 0.12495118382433505 0.09226157932146097 0.12191350598455514 0.09293501860214484 0.12250634087529494 C 0.09226157932146097 0.12191350598455514 0.0906103581014913 0.11748255288753082 0.09078917814000312 0.11786899811735882" fill="none" stroke="#000000" stroke-width="0.001"/>
<path d="M 0.09078917814000312 0.11786899811735882 C 0.09085503817440535 0.11750821253473742 0.09165481651706672 0.11284434939251473 0.09157949855282986 0.11353957112590213 C 0.09165481651706672 0.11284434939251473 0.09170245164068008 0.10919190116594399 0.09169299371084545 0.10952633731670999" fill="none" stroke="#000000" stroke-width="0.001"/>
<path d="M 0.09169299371084545 0.10952633731670999 C 0.09163387942542532 0.10844007920798308 0.0909050612947545 0.09444030187352376 0.09098362228580392 0.09649124001198711 C 0.0909050612947545 0.09444030187352376 0.09073081511262306 0.08395039962541338 0.09075026181825235 0.08491507965514983" fill="none" stroke="#000000" stroke-width="0.001"/>
<path d="M 0.09075026181825235 0.08491507965514983 C 0.09060863357066506 0.08385326793555437 0.08875269194900734 0.07035637646897745 0.0890507228472049 0.07217333902000433 C 0.08875269194900734 0.07035637646897745 0.08701748838927123 0.062356378211395815 0.08717389103988152 0.06311152904282724" fill="none" stroke="#000000" stroke-width="0.001"/>
<path d="M 0.08717389103988152 0.06311152904282724 C 0.08710569519467494 0.06295506431849479 0.08595963214086777 0.06071269594808245 0.08635554089740262 0.061233952350837874 C 0.08595963214086777 0.06071269594808245 0.08209527305013496 0.05649166053133914 0.08242298596146325 0.05685645220976212" fill="none" stroke="#000000" stroke-width="0.001"/>
<path d="M 0.08242298596146325 0.05685645220976212 C 0.0826962347645588 0.05692558796114483 0.08565455718800982 0.05737315177768978 0.08570197159860982 0.057686081226354664 C 0.08565455718800982 0.05737315177768978 0.08153334982056777 0.05271923362573588 0.08185401303426332 0.053101298825783474" fill="none" stroke="#000000" stroke-width="0.001"/>
<path d="M 0.08185401303426332 0.053101298825783474 C 0.08211764874784808 0.05320129359254618 0.08531872153261535 0.05419663353236163 0.0850176415972805 0.05430123602693598 C 0.08531872153261535 0.05419663353236163 0.08550441648003183 0.05164147162955423 0.08546697225828173 0.051846068890891286" fill="none" stroke="#000000" stroke-width="0.001"/>
<path d="M 0.08546697225828173 0.051846068890891286 C 0.08555217592583225 0.05144907418932226 0.08694432338744315 0.04622487225584697 0.08648941626888793 0.047082132472062964 C 0.08694432338744315 0.04622487225584697 0.09185053909686047 0.04088125232964704 0.09092585768094438 0.041558946296299346 C 0.09185053909686047 0.04088125232964704 0.09873211780609528 0.03881604480899264 0.09758559325988092 0.0389498048722353 C 0.09873211780609528 0.03881604480899264 0.10574530958576867 0.040399840278479766 0.10468415223551664 0.03995382553738738 C 0.10574530958576867 0.040399840278479766 0.11101093536215263 0.04520826202108325 0.11031948146290531 0.044301981765343904 C 0.11101093536215263 0.04520826202108325 0.11320344215678285 0.051373122509669245 0.11298159902648458 0.0508291886062596" fill="none" stroke="none" stroke-width="0"/>
</g><g transform="translate(0.3203121627228246,0.4744358284887408) rotate(0) scale(1,1) translate(-0.03875718691907565,-0.03875718691907564)"><path d="M 0.04974103892496114 0.02502423514946784 C 0.05003822757465723 0.026467967642184755 0.052797172592965375 0.04536384625102571 0.053307302721314245 0.04234902506207082 C 0.052797172592965375 0.04536384625102571 0.04281215860672974 0.0627731781131645 0.0436194773847747 0.06120208941692653" fill="none" stroke="none" stroke-width="0"/>
<path d="M 0.0436194773847747 0.06120208941692653 C 0.04360762548932543 0.06077229127476271 0.043417657015961675 0.055196782378843234 0.04347725463938349 0.05604451171096071 C 0.043417657015961675 0.055196782378843234 0.04285656017574033 0.05061140624156316 0.04290430590371288 0.05102933743151682" fill="none" stroke="#000000" stroke-width="0.001"/>
<path d="M 0.04290430590371288 0.05102933743151682 C 0.042321528796162335 0.05002940013128746 0.035401541896018504 0.03726460805753775 0.03591098061310633 0.03903008982876448 C 0.035401541896018504 0.03726460805753775 0.036864379689121686 0.029078011705798705 0.03679104129865897 0.02984355617679607" fill="none" stroke="none" stroke-width="0"/>
<path d="M 0.03679104129865897 0.02984355617679607 C 0.03727256550100633 0.029249566053589117 0.043648498195685795 0.02231406461270194 0.04256933172682728 0.022715674698312625 C 0.043648498195685795 0.02231406461270194 0.05033868119147229 0.02521661518706411 0.04974103892496114 0.02502423514946784" fill="none" stroke="#000000" stroke-width="0.001"/>
</g><g id="脚輪">
<g transform="translate(0.3183107841106559,0.5013584403320513) rotate(0) scale(1,1) translate(-0.011152769902399133,-0.011152769902399133)"><path d="M -0.0016642000200300243 0.0072907605253727855 C -0.0005961191931609276 0.0072907605253727855 0.013288931556137328 0.0072907605253727855 0.011152769902399136 0.0072907605253727855 C 0.013288931556137328 0.0072907605253727855 0.025037820651697375 0.0072907605253727855 0.02396973982482828 0.0072907605253727855" fill="none" stroke="#000000" stroke-width="0.001"/>
<path d="M 0.02396973982482828 0.0072907605253727855 C 0.023969739824828282 0.007612594640124981 0.023969739824828307 0.011796438131903524 0.023969739824828307 0.011152769902399133 C 0.023969739824828307 0.011796438131903524 0.023969739824828275 0.01533661339417768 0.02396973982482828 0.015014779279425485" fill="none" stroke="#000000" stroke-width="0.001"/>
<path d="M 0.02396973982482828 0.015014779279425485 C 0.022901658997959182 0.015014779279425485 0.009016608248660941 0.015014779279425485 0.011152769902399133 0.015014779279425485 C 0.009016608248660941 0.015014779279425485 -0.0027322808468991204 0.015014779279425485 -0.0016642000200300243 0.015014779279425485" fill="none" stroke="#000000" stroke-width="0.001"/>
<path d="M -0.0016642000200300243 0.015014779279425485 C -0.0016642000200300243 0.01469294516467329 -0.0016642000200300243 0.010509101672894745 -0.0016642000200300243 0.011152769902399136 C -0.0016642000200300243 0.010509101672894745 -0.0016642000200300243 0.00696892641062059 -0.0016642000200300243 0.0072907605253727855" fill="none" stroke="#000000" stroke-width="0.001"/>
</g><g transform="translate(0.31501890541170546,0.5013584403320513) rotate(0) scale(1,1) translate(-0.00775832499658671,-0.0077583249965867095)"><path d="M 0.01301781391677544 0.01286628804098481 C 0.012175207170119396 0.012775492826319476 0.0020639262102468644 0.011016213505599786 0.0029065329569029088 0.011776745465000803 C 0.0020639262102468644 0.011016213505599786 0.0037491397035589505 0.0029793725687715963 0.0029065329569029066 0.003739904528172612 C 0.0037491397035589505 0.0029793725687715963 0.01386042066343148 0.00255956673752328 0.013017813916775436 0.002650361952188613" fill="none" stroke="#000000" stroke-width="0.001"/>
<path d="M 0.013017813916775436 0.002650361952188613 C 0.013017813916775436 0.0027219567451146824 0.013017813916775436 0.00360973217739794 0.013017813916775436 0.003509499467301443 C 0.013017813916775436 0.00360973217739794 0.013017813916775436 0.0038817923905170087 0.013017813916775436 0.0038531544733465804" fill="none" stroke="#000000" stroke-width="0.001"/>
<path d="M 0.013017813916775436 0.0038531544733465804 C 0.012309002423100776 0.003922145819257156 0.003803264499004849 0.005262921032236272 0.00451207599267951 0.004681050624273492 C 0.003803264499004849 0.005262921032236272 0.005220887486354171 0.011417469776862716 0.00451207599267951 0.010835599368899936 C 0.005220887486354171 0.011417469776862716 0.0137266254104501 0.011732486865737423 0.01301781391677544 0.011663495519826848" fill="none" stroke="#000000" stroke-width="0.001"/>
<path d="M 0.01301781391677544 0.011663495519826848 C 0.01301781391677544 0.011692133436997276 0.01301781391677544 0.012107383235968477 0.01301781391677544 0.012007150525871979 C 0.01301781391677544 0.012107383235968477 0.01301781391677544 0.012937882833910879 0.01301781391677544 0.01286628804098481" fill="none" stroke="#000000" stroke-width="0.001"/>
</g><g transform="translate(0.31075813614013414,0.5013584403320515) rotate(0) scale(1,1) translate(-0.0022536622055164745,-0.002253662205516475)"><path d="M 0.0033297676109102733 0.0030009805758677193 C 0.00315676685539039 0.002990275173542393 0.0010807577891517898 0.002758668088563923 0.0012537585446716732 0.002872515747963804 C 0.0010807577891517898 0.002758668088563923 0.001426759300191556 0.0015209610036692632 0.0012537585446716726 0.0016348086630691443 C 0.001426759300191556 0.0015209610036692632 0.003502768366430156 0.001495638432839905 0.003329767610910273 0.001506343835165231" fill="none" stroke="#000000" stroke-width="0.001"/>
<path d="M 0.003329767610910273 0.001506343835165231 C 0.0033643677620142495 0.0015686203660278345 0.0037449694241579925 0.002378215267241681 0.0037449694241579925 0.0022536622055164737 C 0.0037449694241579925 0.002378215267241681 0.0032951674598062967 0.003063257106730323 0.0033297676109102733 0.0030009805758677193" fill="none" stroke="#000000" stroke-width="0.001"/>
</g><g transform="translate(0.3253505261273059,0.5013584403320513) rotate(0) scale(1,1) translate(-0.006469483550722008,-0.0064694835507220095)"><path d="M 0.007312350364854818 0.0019034380158566245 C 0.007593305969565754 0.0034254531941450856 0.007031394760143882 0.012557544263875852 0.007312350364854818 0.01103552908558739 C 0.007031394760143882 0.012557544263875852 0.005345661131878262 0.009513513907298932 0.005626616736589199 0.011035529085587394 C 0.005345661131878262 0.009513513907298932 0.0059075723413001355 0.00038142283756816193 0.005626616736589199 0.0019034380158566232 C 0.0059075723413001355 0.00038142283756816193 0.007593305969565754 0.0034254531941450856 0.007312350364854818 0.0019034380158566245 Z" fill="#cccccc" stroke="#000000" stroke-width="0.001"/>
</g><g transform="translate(0.3068071529162838,0.5013584403320513) rotate(0) scale(1,1) translate(-0.009906215631991292,-0.007758324996586713)"><path d="M 0.009906215631991292 0.01286628804098481 C 0.009400651583997666 0.01266578994753177 0.0033338830080741465 0.009809481838935036 0.0038394470560677734 0.010460310919548348 C 0.0033338830080741465 0.009809481838935036 0.004345011104061398 0.004405509993011757 0.0038394470560677717 0.005056339073625069 C 0.004345011104061398 0.004405509993011757 0.010411779679984917 0.002449863858735573 0.00990621563199129 0.0026503619521886113" fill="none" stroke="#000000" stroke-width="0.001"/>
<path d="M 0.00990621563199129 0.0026503619521886113 C 0.00990621563199129 0.0027219567451146807 0.00990621563199129 0.0036097321773979384 0.00990621563199129 0.003509499467301441 C 0.00990621563199129 0.0036097321773979384 0.009906215631991292 0.003881792390517007 0.009906215631991292 0.0038531544733465786" fill="none" stroke="#000000" stroke-width="0.001"/>
<path d="M 0.009906215631991292 0.0038531544733465786 C 0.009495544145281032 0.004014776906654403 0.004567486304757914 0.006281862993606001 0.004978157791468174 0.00579262367304047 C 0.004567486304757914 0.006281862993606001 0.005388829278178435 0.010213265640698483 0.004978157791468174 0.009724026320132952 C 0.005388829278178435 0.010213265640698483 0.010316887118701552 0.011825117953134671 0.009906215631991292 0.011663495519826848" fill="none" stroke="#000000" stroke-width="0.001"/>
<path d="M 0.009906215631991292 0.011663495519826848 C 0.009906215631991292 0.011692133436997276 0.009906215631991292 0.012107383235968477 0.009906215631991292 0.012007150525871979 C 0.009906215631991292 0.012107383235968477 0.009906215631991292 0.012937882833910879 0.009906215631991292 0.01286628804098481" fill="none" stroke="#000000" stroke-width="0.001"/>
</g><g transform="translate(0.32981441530502803,0.5013584403320513) rotate(0) scale(1,1) translate(-0.005610434361182026,-0.007758324996586713)"><path d="M 0.005610434361182026 0.01286628804098481 C 0.005610434361182026 0.01279469324805874 0.005610434361182026 0.011906917815775481 0.005610434361182026 0.012007150525871979 C 0.005610434361182026 0.011906917815775481 0.005610434361182026 0.01163485760265642 0.005610434361182026 0.011663495519826848" fill="none" stroke="#000000" stroke-width="0.001"/>
<path d="M 0.005610434361182026 0.011663495519826848 C 0.006021105847892294 0.011501873086519024 0.010949163688415515 0.00923478699956742 0.010538492201705246 0.009724026320132952 C 0.010949163688415515 0.00923478699956742 0.010127820714994977 0.0053033843524749385 0.010538492201705246 0.00579262367304047 C 0.010127820714994977 0.0053033843524749385 0.005199762874471758 0.0036915320400387544 0.005610434361182026 0.0038531544733465786" fill="none" stroke="#000000" stroke-width="0.001"/>
<path d="M 0.005610434361182026 0.0038531544733465786 C 0.005610434361182026 0.0038245165561761503 0.005610434361182026 0.003409266757204944 0.005610434361182026 0.003509499467301441 C 0.005610434361182026 0.003409266757204944 0.005610434361182026 0.002578767159262542 0.005610434361182026 0.0026503619521886113" fill="none" stroke="#000000" stroke-width="0.001"/>
<path d="M 0.005610434361182026 0.0026503619521886113 C 0.006115998409175657 0.0028508600456416495 0.01218276698509923 0.00570716815423838 0.011677202937105599 0.005056339073625069 C 0.01218276698509923 0.00570716815423838 0.011171638889111967 0.01111114000016166 0.011677202937105599 0.010460310919548348 C 0.011171638889111967 0.01111114000016166 0.005104870313188395 0.013066786134437848 0.005610434361182026 0.01286628804098481" fill="none" stroke="#000000" stroke-width="0.001"/>
</g></g>
</svg>
