<?xml version="1.0" encoding="UTF-8"?>
<svg xmlns="http://www.w3.org/2000/svg" viewBox="0 0 1 1">
<g transform="translate(0.3373403974394918,0.40419038501528964) rotate(0) scale(1,1) translate(-0.31403212779456446,-0.3097273832173949)"><path d="M 0.323951003927 0.2960752214373177 C 0.3266258503790801 0.29801861114063816 0.33110290693705274 0.30765719203067676 0.3300812065070452 0.30451272143731767 C 0.33110290693705274 0.30765719203067676 0.32905950607703766 0.3180865155908313 0.3300812065070452 0.3149420449974722 C 0.32905950607703766 0.3180865155908313 0.3212761574749199 0.3253229347007926 0.323951003927 0.3233795449974721 C 0.3212761574749199 0.3253229347007926 0.3107258357504193 0.32660238321739493 0.31403212779456446 0.32660238321739493 C 0.3107258357504193 0.32660238321739493 0.3014384052100489 0.32143615529415165 0.304113251662129 0.3233795449974721 C 0.3014384052100489 0.32143615529415165 0.2969613486520762 0.3117975744041131 0.29798304908208373 0.3149420449974722 C 0.2969613486520762 0.3117975744041131 0.2990047495120913 0.3013682508439586 0.29798304908208373 0.30451272143731767 C 0.2990047495120913 0.3013682508439586 0.3067880981142091 0.2941318317339972 0.304113251662129 0.2960752214373177 C 0.3067880981142091 0.2941318317339972 0.31733841983870964 0.29285238321739493 0.31403212779456446 0.29285238321739493 C 0.31733841983870964 0.29285238321739493 0.3266258503790801 0.29801861114063816 0.323951003927 0.2960752214373177 Z" fill="#cccccc" stroke="none" stroke-width="0"/>
</g><g transform="translate(0.3378081263149976,0.39612982937696456) rotate(0) scale(1,1) translate(-0.04481464761927566,-0.044760759851547066)"><path d="M 0.04550135624040956 0.04388294623044738 C 0.04559394939785641 0.04395021909713482 0.04596113294765693 0.04457594525893817 0.045925765508637896 0.04446709547411726 C 0.04596113294765693 0.04457594525893817 0.045890398069618865 0.045297993433119216 0.045925765508637896 0.045189143648298305 C 0.045890398069618865 0.045297993433119216 0.04540876308296271 0.045928188145206085 0.04550135624040956 0.04577329289196817 C 0.04540876308296271 0.045928188145206085 0.04470019618242002 0.047047886687153276 0.04481464761927567 0.047047886687153276 C 0.04470019618242002 0.047047886687153276 0.0440353458406949 0.04561839763873026 0.044127938998141755 0.04577329289196817 C 0.0440353458406949 0.04561839763873026 0.0436681622908944 0.045080293863477394 0.043703529729913426 0.045189143648298305 C 0.0436681622908944 0.045080293863477394 0.04373889716893245 0.04435824568929635 0.043703529729913426 0.04446709547411726 C 0.04373889716893245 0.04435824568929635 0.04422053215558861 0.043815673363759945 0.044127938998141755 0.04388294623044738 C 0.04422053215558861 0.043815673363759945 0.044929099056131315 0.043659821073868045 0.044814647619275665 0.043659821073868045 C 0.044929099056131315 0.043659821073868045 0.04559394939785641 0.04395021909713482 0.04550135624040956 0.04388294623044738 Z" fill="#cccccc" stroke="#000000" stroke-width="0.001"/>
</g><g transform="translate(0.34638221407493835,0.40329585533784024) rotate(0) scale(1,1) translate(-0.044865897931922485,-0.04479799538325857)"><path d="M 0.04548854366224786 0.043873637347519506 C 0.04558113681969471 0.043940910214206944 0.04594832036949523 0.04456663637601029 0.045912952930476196 0.04445778659118938 C 0.04594832036949523 0.04456663637601029 0.045877585491457165 0.04528868455019134 0.045912952930476196 0.04517983476537043 C 0.045877585491457165 0.04528868455019134 0.04539595050480101 0.045831256875727734 0.04548854366224786 0.0457639840090403 C 0.04539595050480101 0.045831256875727734 0.044687383604258314 0.04598710916561965 0.044801835041113965 0.04598710916561965 C 0.044687383604258314 0.04598710916561965 0.043939199420831035 0.04572378794888465 0.044115126419980055 0.0457639840090403 C 0.043939199420831035 0.04572378794888465 0.04265534361230672 0.04539590665893098 0.04269071105132574 0.04550475644375189 C 0.04265534361230672 0.04539590665893098 0.04380941843247292 0.044321859999836684 0.043690717151751726 0.04445778659118938 C 0.04380941843247292 0.044321859999836684 0.04420771957742691 0.04380636448083207 0.044115126419980055 0.043873637347519506 C 0.04420771957742691 0.04380636448083207 0.044916286477969615 0.04365051219094017 0.044801835041113965 0.04365051219094017 C 0.044916286477969615 0.04365051219094017 0.04558113681969471 0.043940910214206944 0.04548854366224786 0.043873637347519506 Z" fill="#cccccc" stroke="#000000" stroke-width="0.001"/>
</g><g transform="translate(0.34403231628784675,0.4128851069600723) rotate(0) scale(1,1) translate(-0.04484632205442546,-0.044858243739156936)"><path d="M 0.04549343763162211 0.04385857525854492 C 0.04558603078906896 0.043925848125232356 0.04595321433886948 0.044551574287035704 0.04591784689985045 0.044442724502214793 C 0.04595321433886948 0.044551574287035704 0.04588247946083142 0.04527362246121675 0.04591784689985045 0.04516477267639584 C 0.04588247946083142 0.04527362246121675 0.045400844474175264 0.045816194786753146 0.04549343763162211 0.04574892192006571 C 0.045400844474175264 0.045816194786753146 0.04469227757363257 0.04597204707664506 0.04480672901048822 0.04597204707664506 C 0.04469227757363257 0.04597204707664506 0.04402742723190745 0.04568164905337827 0.04412002038935431 0.04574892192006571 C 0.04402742723190745 0.04568164905337827 0.043660243682106956 0.04505592289157493 0.04369561112112598 0.04516477267639584 C 0.043660243682106956 0.04505592289157493 0.043679475413559966 0.044262986717586855 0.04369561112112598 0.044442724502214793 C 0.043679475413559966 0.044262986717586855 0.04359457578778065 0.042940646394173124 0.043501982630333794 0.04300791926086056 C 0.04359457578778065 0.042940646394173124 0.04497268359392891 0.04370633810177261 0.04480672901048822 0.04363545010196558 C 0.04497268359392891 0.04370633810177261 0.04558603078906896 0.043925848125232356 0.04549343763162211 0.04385857525854492 Z" fill="#cccccc" stroke="#000000" stroke-width="0.001"/>
</g><g transform="translate(0.3321166171550118,0.4136826686729644) rotate(0) scale(1,1) translate(-0.04478297318412586,-0.044858243739156936)"><path d="M 0.046127312608217536 0.04300791926086056 C 0.046219905765664385 0.043075192127548 0.045917548409859336 0.04462246228684273 0.04593368411742535 0.044442724502214793 C 0.045917548409859336 0.04462246228684273 0.04589831667840632 0.04527362246121675 0.04593368411742535 0.04516477267639584 C 0.04589831667840632 0.04527362246121675 0.04541668169175016 0.045816194786753146 0.045509274849197014 0.04574892192006571 C 0.04541668169175016 0.045816194786753146 0.04470811479120747 0.04597204707664506 0.04482256622806312 0.04597204707664506 C 0.04470811479120747 0.04597204707664506 0.04404326444948235 0.04568164905337827 0.04413585760692921 0.04574892192006571 C 0.04404326444948235 0.04568164905337827 0.04367608089968185 0.04505592289157493 0.04371144833870088 0.04516477267639584 C 0.04367608089968185 0.04505592289157493 0.04374681577771991 0.04433387471739388 0.04371144833870088 0.044442724502214793 C 0.04374681577771991 0.04433387471739388 0.044228450764376065 0.04379130239185748 0.04413585760692921 0.04385857525854492 C 0.044228450764376065 0.04379130239185748 0.04498852081150381 0.043564562102158554 0.04482256622806312 0.04363545010196558 C 0.04498852081150381 0.043564562102158554 0.046219905765664385 0.043075192127548 0.046127312608217536 0.04300791926086056 Z" fill="#cccccc" stroke="#000000" stroke-width="0.001"/>
</g><g transform="translate(0.3283725395349267,0.40313499743962605) rotate(0) scale(1,1) translate(-0.04476339730662883,-0.04479799538325857)"><path d="M 0.045514168818571274 0.043873637347519506 C 0.04560676197601812 0.043940910214206944 0.046057279367520805 0.04459371318254208 0.04593857808679961 0.04445778659118938 C 0.046057279367520805 0.04459371318254208 0.0469032167482066 0.0456136062285728 0.04693858418722563 0.04550475644375189 C 0.0469032167482066 0.0456136062285728 0.045338241819422254 0.04580418006919594 0.045514168818571274 0.0457639840090403 C 0.045338241819422254 0.04580418006919594 0.04471300876058173 0.04598710916561965 0.04482746019743738 0.04598710916561965 C 0.04471300876058173 0.04598710916561965 0.04404815841885661 0.04569671114235286 0.04414075157630347 0.0457639840090403 C 0.04404815841885661 0.04569671114235286 0.043680974869056116 0.04507098498054952 0.04371634230807514 0.04517983476537043 C 0.043680974869056116 0.04507098498054952 0.043751709747094164 0.04434893680636847 0.04371634230807514 0.04445778659118938 C 0.043751709747094164 0.04434893680636847 0.044233344733750325 0.04380636448083207 0.04414075157630347 0.043873637347519506 C 0.044233344733750325 0.04380636448083207 0.04494191163429303 0.04365051219094017 0.04482746019743738 0.04365051219094017 C 0.04494191163429303 0.04365051219094017 0.04560676197601812 0.043940910214206944 0.045514168818571274 0.043873637347519506 Z" fill="#cccccc" stroke="#000000" stroke-width="0.001"/>
</g><g transform="translate(0.3467968714018221,0.39162849464553323) rotate(0) scale(1,1) translate(-0.04484632205442547,-0.044771051499394324)"><path d="M 0.04549343763162211 0.04388037331848557 C 0.04558603078906896 0.04394764618517301 0.04595321433886948 0.04457337234697636 0.04591784689985045 0.04446452256215545 C 0.04595321433886948 0.04457337234697636 0.04588247946083142 0.045295420521157405 0.04591784689985045 0.045186570736336494 C 0.04588247946083142 0.045295420521157405 0.045400844474175264 0.0458379928466938 0.04549343763162211 0.04577071998000636 C 0.045400844474175264 0.0458379928466938 0.04464077442704752 0.04606473313639274 0.04480672901048822 0.04599384513658571 C 0.04464077442704752 0.04606473313639274 0.04340938947288694 0.04655410311100327 0.043501982630333794 0.046621375977690706 C 0.04340938947288694 0.04655410311100327 0.04371174682869199 0.045006832951708556 0.04369561112112598 0.045186570736336494 C 0.04371174682869199 0.045006832951708556 0.043730978560145004 0.044355672777334536 0.04369561112112598 0.04446452256215545 C 0.043730978560145004 0.044355672777334536 0.044212613546801165 0.043813100451798134 0.04412002038935431 0.04388037331848557 C 0.044212613546801165 0.043813100451798134 0.04492118044734387 0.043657248161906234 0.04480672901048822 0.043657248161906234 C 0.04492118044734387 0.043657248161906234 0.04558603078906896 0.04394764618517301 0.04549343763162211 0.04388037331848557 Z" fill="#cccccc" stroke="#000000" stroke-width="0.001"/>
</g><g transform="translate(0.35327492258966103,0.41151967421259317) rotate(0) scale(1,1) translate(-0.044865897931922485,-0.0448312998552927)"><path d="M 0.04548854366224786 0.04386531122951097 C 0.04558113681969471 0.04393258409619841 0.04594832036949523 0.044558310258001756 0.045912952930476196 0.044449460473180845 C 0.04594832036949523 0.044558310258001756 0.045877585491457165 0.0452803584321828 0.045912952930476196 0.04517150864736189 C 0.045877585491457165 0.0452803584321828 0.04539595050480101 0.0458229307577192 0.04548854366224786 0.04575565789103176 C 0.04539595050480101 0.0458229307577192 0.044687383604258314 0.04597878304761111 0.044801835041113965 0.04597878304761111 C 0.044687383604258314 0.04597878304761111 0.0440225332625332 0.04568838502434432 0.044115126419980055 0.04575565789103176 C 0.0440225332625332 0.04568838502434432 0.04357201587103053 0.045035582056009195 0.043690717151751726 0.04517150864736189 C 0.04357201587103053 0.045035582056009195 0.042726078490344765 0.04401568900997846 0.04269071105132574 0.04412453879479937 C 0.042726078490344765 0.04401568900997846 0.044291053419129076 0.043825115169355326 0.044115126419980055 0.04386531122951097 C 0.044291053419129076 0.043825115169355326 0.044916286477969615 0.04364218607293163 0.044801835041113965 0.04364218607293163 C 0.044916286477969615 0.04364218607293163 0.04558113681969471 0.04393258409619841 0.04548854366224786 0.04386531122951097 Z" fill="#cccccc" stroke="#000000" stroke-width="0.001"/>
</g><g transform="translate(0.3376552605801883,0.4224464669675493) rotate(0) scale(1,1) translate(-0.04481464761927566,-0.044868535387004194)"><path d="M 0.04550135624040956 0.0438560023465831 C 0.04559394939785641 0.04401089759982101 0.04596113294765693 0.044549001375073886 0.045925765508637896 0.044440151590252976 C 0.04596113294765693 0.044549001375073886 0.045890398069618865 0.045271049549254934 0.045925765508637896 0.04516219976443402 C 0.045890398069618865 0.045271049549254934 0.04540876308296271 0.04581362187479133 0.04550135624040956 0.04574634900810389 C 0.04540876308296271 0.04581362187479133 0.044700196182420014 0.04596947416468324 0.044814647619275665 0.04596947416468324 C 0.044700196182420014 0.04596947416468324 0.0440353458406949 0.045679076141416454 0.044127938998141755 0.04574634900810389 C 0.0440353458406949 0.045679076141416454 0.0436681622908944 0.04505334997961311 0.043703529729913426 0.04516219976443402 C 0.0436681622908944 0.04505334997961311 0.04373889716893245 0.044331301805432065 0.043703529729913426 0.044440151590252976 C 0.04373889716893245 0.044331301805432065 0.04422053215558861 0.04370110709334519 0.044127938998141755 0.0438560023465831 C 0.04422053215558861 0.04370110709334519 0.04492909905613132 0.042581408551398 0.04481464761927567 0.042581408551398 C 0.04492909905613132 0.042581408551398 0.04559394939785641 0.04401089759982101 0.04550135624040956 0.0438560023465831 Z" fill="#cccccc" stroke="#000000" stroke-width="0.001"/>
</g><g transform="translate(0.3213079370682263,0.41135577242401994) rotate(0) scale(1,1) translate(-0.04476339730662883,-0.0448312998552927)"><path d="M 0.045514168818571274 0.04386531122951097 C 0.045690095817720294 0.043905507289666613 0.04697395162624466 0.04423338857962028 0.04693858418722563 0.04412453879479937 C 0.04697395162624466 0.04423338857962028 0.045819876806078415 0.04530743523871459 0.04593857808679961 0.04517150864736189 C 0.045819876806078415 0.04530743523871459 0.045421575661124425 0.0458229307577192 0.045514168818571274 0.04575565789103176 C 0.045421575661124425 0.0458229307577192 0.04471300876058173 0.04597878304761111 0.04482746019743738 0.04597878304761111 C 0.04471300876058173 0.04597878304761111 0.04404815841885661 0.04568838502434432 0.04414075157630347 0.04575565789103176 C 0.04404815841885661 0.04568838502434432 0.043680974869056116 0.04506265886254098 0.04371634230807514 0.04517150864736189 C 0.043680974869056116 0.04506265886254098 0.043751709747094164 0.044340610688359934 0.04371634230807514 0.044449460473180845 C 0.043751709747094164 0.044340610688359934 0.044233344733750325 0.04379803836282353 0.04414075157630347 0.04386531122951097 C 0.044233344733750325 0.04379803836282353 0.04494191163429303 0.04364218607293163 0.04482746019743738 0.04364218607293163 C 0.04494191163429303 0.04364218607293163 0.045690095817720294 0.043905507289666613 0.045514168818571274 0.04386531122951097 Z" fill="#cccccc" stroke="#000000" stroke-width="0.001"/>
</g><g transform="translate(0.3272323748433474,0.39262586044354336) rotate(0) scale(1,1) translate(-0.04478297318412586,-0.044771051499394324)"><path d="M 0.045509274849197014 0.04388037331848557 C 0.04560186800664387 0.04394764618517301 0.04596905155644438 0.04457337234697636 0.04593368411742535 0.04446452256215545 C 0.04596905155644438 0.04457337234697636 0.04594981982499136 0.04536630852096443 0.04593368411742535 0.045186570736336494 C 0.04594981982499136 0.04536630852096443 0.046034719450770686 0.04668864884437814 0.046127312608217536 0.046621375977690706 C 0.046034719450770686 0.04668864884437814 0.044656611644622424 0.045922957136778686 0.04482256622806312 0.04599384513658571 C 0.044656611644622424 0.045922957136778686 0.04404326444948235 0.045703447113318925 0.04413585760692921 0.04577071998000636 C 0.04404326444948235 0.045703447113318925 0.04367608089968185 0.04507772095151558 0.04371144833870088 0.045186570736336494 C 0.04367608089968185 0.04507772095151558 0.04374681577771991 0.044355672777334536 0.04371144833870088 0.04446452256215545 C 0.04374681577771991 0.044355672777334536 0.044228450764376065 0.043813100451798134 0.04413585760692921 0.04388037331848557 C 0.044228450764376065 0.043813100451798134 0.04493701766491877 0.043657248161906234 0.04482256622806312 0.043657248161906234 C 0.04493701766491877 0.043657248161906234 0.04560186800664387 0.04394764618517301 0.045509274849197014 0.04388037331848557 Z" fill="#cccccc" stroke="#000000" stroke-width="0.001"/>
</g></svg>
