<?xml version="1.0" encoding="UTF-8"?>
<svg xmlns="http://www.w3.org/2000/svg" viewBox="0 0 1 1">
<g id="グローブ">
<g transform="translate(0.2106210216258792,0.1541039028081067) rotate(0) scale(1,1) translate(-0.003389818855922237,-0.0033898188559222373)"><path d="M 0.012900990485978061 0.0001876655672490296 C 0.01254991505947498 0.0005259269310833931 0.008625389590281198 0.004979475630195775 0.008688085367941089 0.004246801933261392 C 0.008625389590281198 0.004979475630195775 0.012437020802902555 0.009374162263561633 0.012148641154059366 0.008979749930461614" fill="none" stroke="none" stroke-width="0"/>
<path d="M 0.012148641154059366 0.008979749930461614 C 0.012043408330877423 0.009079090116525627 0.010627423664540954 0.010329747549215574 0.010885847275876052 0.010171832163229765 C 0.010627423664540954 0.010329747549215574 0.008894367029885032 0.01093330976221313 0.009047557818038187 0.010874734562291332" fill="none" stroke="#000000" stroke-width="0.001"/>
<path d="M 0.009047557818038187 0.010874734562291332 C 0.008555085158241025 0.010640261993872819 0.0021529405808779177 0.007546654945501075 0.0031378859004722423 0.008061063741269173 C 0.0021529405808779177 0.007546654945501075 -0.0032642586768908727 0.0044218927857245715 -0.00277178601709371 0.004701829013074157" fill="none" stroke="#000000" stroke-width="0.001"/>
<path d="M -0.00277178601709371 0.004701829013074157 C -0.002228912055500439 0.004304336717532084 0.004794143776904011 -0.0007018058460611375 0.003742701522025545 -6.807853343071717E-05 C 0.004794143776904011 -0.0007018058460611375 0.010354089334733073 -0.0031391337555792343 0.00984552104144788 -0.0029028987384908866" fill="none" stroke="#000000" stroke-width="0.001"/>
<path d="M 0.00984552104144788 -0.0029028987384908866 C 0.00995762740031662 -0.0028510441569866546 0.01144541980158363 -0.0020230967349617783 0.011190797347872782 -0.0022806437604401047 C 0.01144541980158363 -0.0020230967349617783 0.013043506580820166 0.00039335801122312455 0.01290099048597806 0.00018766556724903003" fill="none" stroke="#000000" stroke-width="0.001"/>
</g><g transform="translate(0.2109739042919825,0.15064600541875375) rotate(0) scale(1,1) translate(-0.004561674574908911,-0.004561674574908911)"><path d="M -0.0026329495570143347 0.009309967543763259 C -0.001597547477388813 0.008634317772713413 0.01113163501300475 0.0007676842389580166 0.009791875398491924 0.0012021702911651144 C 0.01113163501300475 0.0007676842389580166 0.013748523352026875 0.004337298636120834 0.01344416581713957 0.004096134917278086" fill="none" stroke="#000000" stroke-width="0.001"/>
<path d="M 0.01344416581713957 0.004096134917278086 C 0.013454520188500046 0.004123639391768584 0.013591401417536338 0.004486295592244527 0.013568418273465284 0.004426188611164059 C 0.013591401417536338 0.004486295592244527 0.013732592318702812 0.004850021196833675 0.013719963545992234 0.004817418690243705" fill="none" stroke="#000000" stroke-width="0.001"/>
<path d="M 0.013719963545992234 0.004817418690243705 C 0.013400950033475046 0.004595812424550598 0.00864986295805436 0.0025313005630674444 0.009891801395785974 0.002158143501926424 C 0.00864986295805436 0.0025313005630674444 -0.002106222632001571 0.009890066750770076 -0.0011832977067871445 0.009295303423935948" fill="none" stroke="#000000" stroke-width="0.001"/>
<path d="M -0.0011832977067871445 0.009295303423935948 C -0.0012436998672132773 0.009295914428928752 -0.0020289279527530056 0.009303857493835214 -0.0019081236319007397 0.009302635483849605 C -0.0020289279527530056 0.009303857493835214 -0.002693351717440468 0.009310578548756063 -0.0026329495570143347 0.009309967543763259" fill="none" stroke="none" stroke-width="0"/>
</g><g transform="translate(0.2103690886704292,0.15877514769345363) rotate(0) scale(1,1) translate(-0.004561674574908911,-0.004561674574908911)"><path d="M -0.002028133935461009 0.0011808252690633484 C -0.0019677317750348765 0.001180214264070545 -0.0011825036894951499 0.0011722711991641 -0.0013033080103474154 0.001173493209149707 C -0.0011825036894951499 0.0011722711991641 -0.0005180799248076903 0.0011655501442432619 -0.000578482085233823 0.0011661611492360653" fill="none" stroke="none" stroke-width="0"/>
<path d="M -0.000578482085233823 0.0011661611492360653 C 0.00028643186122802354 0.0016402862647225715 0.010979727932858296 0.007215179170848256 0.009800485272308335 0.006855662535074138 C 0.010979727932858296 0.007215179170848256 0.01388675855545382 0.005365752298813098 0.013572429841365705 0.0054803607785254855" fill="none" stroke="#000000" stroke-width="0.001"/>
<path d="M 0.013572429841365705 0.0054803607785254855 C 0.013552746700059338 0.005515247327557702 0.01330007955992517 0.0059672622961444086 0.013336232145689294 0.005898999366912083 C 0.01330007955992517 0.0059672622961444086 0.013122129367738468 0.00633289230951351 0.013138598812196223 0.0062995159293134" fill="none" stroke="#000000" stroke-width="0.001"/>
<path d="M 0.013138598812196223 0.0062995159293134 C 0.012839639213723122 0.006410375083898907 0.008287189234880914 0.007203268229318648 0.009551083630519016 0.0076298257843394855 C 0.008287189234880914 0.007203268229318648 -0.0029930687326260113 0.0006434085594570036 -0.002028133935461009 0.0011808252690633484" fill="none" stroke="#000000" stroke-width="0.001"/>
</g></g>
<g transform="translate(0.2106210216258792,0.1541039028081067) rotate(0) scale(1,1) translate(-0.014303772200158306,-0.014303772200158308)"><path d="M 0.017694824944503418 0.02303948413209525 C 0.017422452765558635 0.022692970158896323 0.01375126198319627 0.018197781879107637 0.014426358797166031 0.018881316453708115 C 0.01375126198319627 0.018197781879107637 0.009190938541841298 0.01450004863548797 0.009593663176866277 0.01483706923688952" fill="none" stroke="none" stroke-width="0"/>
<path d="M 0.009593663176866277 0.01483706923688952 C 0.00999847513655588 0.014435236356296868 0.015184050248711101 0.009354931199262138 0.014451406693141508 0.010015074669777696 C 0.015184050248711101 0.009354931199262138 0.01871321743958139 0.006657037000779928 0.018385385843701398 0.0069153475907028335" fill="none" stroke="none" stroke-width="0"/>
<path d="M 0.018385385843701398 0.0069153475907028335 C 0.018670089086072712 0.006585419767454265 0.02044339307150763 0.004922347761751751 0.02009360529792928 0.004935780651211425 C 0.02044339307150763 0.004922347761751751 0.02088586898008334 0.006960324356023211 0.020484112485171513 0.006834750253944786 C 0.02088586898008334 0.006960324356023211 0.022777255303549866 0.005862459282392846 0.02250414426740023 0.005689225263681978 C 0.022777255303549866 0.005862459282392846 0.02205921777451417 0.008238309216631323 0.022122778702069322 0.007874154366209989" fill="none" stroke="#000000" stroke-width="0.001"/>
<path d="M 0.022122778702069322 0.007874154366209989 C 0.022333298123230406 0.008043009873518064 0.023941561325233493 0.00900553078351937 0.023385895229035822 0.008887287410058432 C 0.023941561325233493 0.00900553078351937 0.02552330148413062 0.008952529303253591 0.025456775279255342 0.008583614606975617 C 0.02552330148413062 0.008952529303253591 0.023360512398813402 0.011606281614173734 0.023785052458287492 0.011100775587726281 C 0.023360512398813402 0.011606281614173734 0.022521435806692636 0.011942759477201933 0.022909534922410796 0.011616650765660336 C 0.022521435806692636 0.011942759477201933 0.021174543939464205 0.01368690642830512 0.021456457763978525 0.013057427856975863 C 0.021174543939464205 0.01368690642830512 0.021269499229361468 0.01644813737625209 0.02121805197532489 0.015393522193635874 C 0.021269499229361468 0.01644813737625209 0.02206692638821883 0.02013790052189359 0.021765141288197995 0.019385118952673152 C 0.02206692638821883 0.02013790052189359 0.023339518020248286 0.020416284988334574 0.023028762575449894 0.0199102116089585 C 0.023339518020248286 0.020416284988334574 0.0234549254035891 0.022693830267225143 0.023629673956988336 0.022421559228929605 C 0.0234549254035891 0.022693830267225143 0.021542449780325774 0.02153568758333127 0.02198027125505449 0.02154383783873172 C 0.021542449780325774 0.02153568758333127 0.02083982408420962 0.022510794339492782 0.02100274510861603 0.022372657696526917" fill="none" stroke="none" stroke-width="0"/>
<path d="M 0.02100274510861603 0.022372657696526917 C 0.02097344857194364 0.022694255348747045 0.020565247668713427 0.024411287765687337 0.020826965888581697 0.02430224360984768 C 0.020565247668713427 0.024411287765687337 0.019082725746696193 0.023125974888259883 0.0194324357894064 0.023026922631564847 C 0.019082725746696193 0.023125974888259883 0.018439103824836635 0.024898650733439633 0.018728705632320465 0.0248965571500179 C 0.018439103824836635 0.024898650733439633 0.01752251149653391 0.022729971962441475 0.017694824944503418 0.02303948413209525" fill="none" stroke="#000000" stroke-width="0.001"/>
</g><g transform="translate(0.2193798439177092,0.15510363692965318) rotate(0) scale(1,1) translate(-0.0366225506783444,-0.027678096685783797)"><path d="M 0.03662255067834441 0.02308699607814778 C 0.03654792065677096 0.02320873887918827 0.035622265501565005 0.024925948150636767 0.03572699041946297 0.024547909690633675 C 0.035622265501565005 0.024925948150636767 0.03536940747311857 0.028140602173409975 0.03536585166356884 0.027623457598184867 C 0.03536940747311857 0.028140602173409975 0.03587438505195771 0.03114071426188794 0.035769660134059744 0.03075364459333499 C 0.03587438505195771 0.03114071426188794 0.036693624890368134 0.03239451437311068 0.03662255067834441 0.032268293620820246" fill="none" stroke="none" stroke-width="0"/>
<path d="M 0.03662255067834441 0.032268293620820246 C 0.0362854105049457 0.03250436592225117 0.03141837651381734 0.03539949184041574 0.03257686859755984 0.035101161237991355 C 0.03141837651381734 0.03539949184041574 0.021899293763090712 0.03591051915090633 0.02272064567343449 0.03584826084991287" fill="none" stroke="#000000" stroke-width="0.001"/>
<path d="M 0.02272064567343449 0.03584826084991287 C 0.022603038188844723 0.03579954623475921 0.021143033758613844 0.03509736336832549 0.02130935585835728 0.03526368546806892 C 0.021143033758613844 0.03509736336832549 0.020724780476513247 0.03361718068381209 0.020724780476513247 0.03385239565299164 C 0.020724780476513247 0.03361718068381209 0.02136001013394676 0.03227478373817082 0.02130935585835728 0.032441105837914264 C 0.02136001013394676 0.03227478373817082 0.0213345714440228 0.03180781584091665 0.02133263178358699 0.031856530456070314" fill="none" stroke="#000000" stroke-width="0.001"/>
<path d="M 0.02133263178358699 0.031856530456070314 C 0.021215024298997225 0.03180781584091665 0.019755019868766346 0.03110563297448292 0.01992134196850978 0.031271955074226365 C 0.019755019868766346 0.03110563297448292 0.01933676658666575 0.029625450289969428 0.01933676658666575 0.029860665259148975 C 0.01933676658666575 0.029625450289969428 0.020071140093374084 0.02828305334432836 0.01992134196850978 0.028449375444071796 C 0.020071140093374084 0.02828305334432836 0.021235427594747995 0.02781608544707407 0.021134344085037362 0.027864800062227742" fill="none" stroke="#000000" stroke-width="0.001"/>
<path d="M 0.021134344085037362 0.027864800062227742 C 0.021016736600447596 0.02781608544707408 0.01955673217021672 0.027113902580640344 0.019723054269960155 0.02728022468038378 C 0.01955673217021672 0.027113902580640344 0.019138478888116123 0.025633719896126946 0.019138478888116123 0.025868934865306493 C 0.019138478888116123 0.025633719896126946 0.01988937636970359 0.024291322950485777 0.019723054269960155 0.024457645050229217 C 0.01988937636970359 0.024291322950485777 0.02125195156962713 0.023824355053231543 0.021134344085037362 0.02387306966838521" fill="none" stroke="#000000" stroke-width="0.001"/>
<path d="M 0.021134344085037362 0.02387306966838521 C 0.02110761846228284 0.023824355053231546 0.020738196374074907 0.02312217218679781 0.0208136366119831 0.023288494286541245 C 0.020738196374074907 0.02312217218679781 0.020229061230139067 0.021641989502284412 0.020229061230139067 0.02187720447146396 C 0.020229061230139067 0.021641989502284412 0.020979958711726546 0.02029959255664325 0.0208136366119831 0.02046591465638669 C 0.020979958711726546 0.02029959255664325 0.0223425339116502 0.01983262465938901 0.022224926427060424 0.019881339274542678" fill="none" stroke="#000000" stroke-width="0.001"/>
<path d="M 0.022224926427060424 0.019881339274542678 C 0.022979841631135582 0.019877829084068717 0.03248371089690267 0.02010635505582222 0.03128390887596234 0.01983921698885513 C 0.03248371089690267 0.02010635505582222 0.03706743749520958 0.02335764433558883 0.03662255067834441 0.02308699607814778" fill="none" stroke="#000000" stroke-width="0.001"/>
</g><g transform="translate(0.2106210216258792,0.1541039028081067) rotate(0) scale(1,1) translate(-0.017790115193637077,-0.01843233998853916)"><path d="M 0.014670318242739282 0.01791232954703112 C 0.014731506280312683 0.017784718251660482 0.015605191210254209 0.016155133302812427 0.015404574693620105 0.016380994002583468 C 0.015605191210254209 0.016155133302812427 0.017217144921409227 0.015103751745378235 0.017077716442348526 0.015202001149778637" fill="none" stroke="#000000" stroke-width="0.001"/>
<path d="M 0.017077716442348526 0.015202001149778637 C 0.017024753681957123 0.015071001943911432 0.016477953304219205 0.01339195350181351 0.016442163317651682 0.013630010679372188 C 0.016477953304219205 0.01339195350181351 0.017785880587405437 0.012189948954887838 0.017507196281158814 0.012345315019074514 C 0.017785880587405437 0.012189948954887838 0.020143328904351575 0.011765617909132074 0.019786374992611155 0.011765617909132074 C 0.020143328904351575 0.011765617909132074 0.022046418321455517 0.01250068108326119 0.021790643222043864 0.012345315019074514 C 0.022046418321455517 0.01250068108326119 0.022891466172118517 0.013868067856930866 0.022855676185550993 0.013630010679372188 C 0.022891466172118517 0.013868067856930866 0.02216716030046275 0.015333000355645842 0.022220123060854153 0.015202001149778637" fill="none" stroke="none" stroke-width="0"/>
<path d="M 0.022220123060854153 0.015202001149778637 C 0.022290058463096372 0.015300250554179039 0.023165652371569798 0.016606854702354505 0.02305934788776078 0.016380994002583464 C 0.023165652371569798 0.016606854702354505 0.023532145948129194 0.018039940842401757 0.023495776866562394 0.01791232954703112" fill="none" stroke="none" stroke-width="0"/>
<path d="M 0.023495776866562394 0.01791232954703112 C 0.023459407784995594 0.018039940842401757 0.02295304340395176 0.01966952579124981 0.02305934788776078 0.019443665091478768 C 0.02295304340395176 0.01966952579124981 0.022150187658611938 0.020720907348684005 0.022220123060854156 0.020622657944283602" fill="none" stroke="#000000" stroke-width="0.001"/>
<path d="M 0.022220123060854156 0.020622657944283602 C 0.02227308582124556 0.020753657150150807 0.02281988619898347 0.02243270559224872 0.022855676185550993 0.022194648414690044 C 0.02281988619898347 0.02243270559224872 0.021534868122632212 0.023634710139174397 0.021790643222043864 0.02347934407498772 C 0.021534868122632212 0.023634710139174397 0.019429421080870736 0.024059041184930165 0.019786374992611155 0.024059041184930165 C 0.019429421080870736 0.024059041184930165 0.01722851197491219 0.023323978010801043 0.017507196281158814 0.02347934407498772 C 0.01722851197491219 0.023323978010801043 0.01640637333108416 0.021956591237131368 0.016442163317651682 0.022194648414690044 C 0.01640637333108416 0.021956591237131368 0.017130679202739932 0.0204916587384164 0.01707771644234853 0.020622657944283605" fill="none" stroke="#000000" stroke-width="0.001"/>
<path d="M 0.01707771644234853 0.020622657944283605 C 0.016938287963287828 0.0205244085398832 0.015203958176986 0.019217804391707727 0.015404574693620105 0.019443665091478768 C 0.015203958176986 0.019217804391707727 0.01460913020516588 0.017784718251660482 0.014670318242739282 0.01791232954703112" fill="none" stroke="#000000" stroke-width="0.001"/>
</g><g id="人指">
<g transform="translate(0.2049822196664252,0.1493027447153333) rotate(0) scale(1,1) translate(-0.0213073592558212,-0.01473294942839358)"><path d="M 0.02296831459172087 0.014981911831072286 C 0.02287977240864963 0.015061408420669907 0.021683926668311926 0.015994070024512818 0.021905808394866017 0.01593587090624373 C 0.021683926668311926 0.015994070024512818 0.020117450166826412 0.01555931092692392 0.02030573387307179 0.01568030125030133 C 0.020117450166826412 0.01555931092692392 0.01959145975715894 0.014384294173665945 0.019646403919921465 0.014483987025714821" fill="none" stroke="none" stroke-width="0"/>
<path d="M 0.019646403919921465 0.014483987025714821 C 0.01967812653167324 0.014316483245311824 0.020082586736486194 0.012131571110143517 0.020027075260942776 0.012473941660878856 C 0.020082586736486194 0.012131571110143517 0.020336330490234145 0.010200673646558401 0.020312541626442502 0.010375540416890743" fill="none" stroke="#000000" stroke-width="0.001"/>
<path d="M 0.020312541626442502 0.010375540416890743 C 0.020362426016602556 0.010290853527485952 0.021056194962856437 0.009250001771410256 0.02091115430836313 0.009359297744033242 C 0.021056194962856437 0.009250001771410256 0.022232872634100204 0.009089264052356764 0.022053029480362165 0.009063988745414905 C 0.022232872634100204 0.009089264052356764 0.023178568125842562 0.00980764208182884 0.023069272153219578 0.009662601427335545 C 0.023178568125842562 0.00980764208182884 0.023389190235056187 0.010899632863667682 0.023364581151837985 0.01080447659933444" fill="none" stroke="#000000" stroke-width="0.001"/>
<path d="M 0.023364581151837985 0.01080447659933444 C 0.023342964053783066 0.010982047009922703 0.023072153761835863 0.01328344112903843 0.023105175975178957 0.012935321526393609 C 0.023072153761835863 0.01328344112903843 0.022956909476432696 0.015152461023128843 0.02296831459172087 0.014981911831072286" fill="none" stroke="#000000" stroke-width="0.001"/>
</g><g transform="translate(0.20873473019400232,0.1456362775140053) rotate(0) scale(1,1) translate(-0.018347050754458152,-0.012212198913662067)"><path d="M 0.016974732968441212 0.011804250690358897 C 0.017065504276698305 0.01175310635873662 0.01824801317964119 0.011162686915666818 0.018063988667526346 0.01119051871089157 C 0.01824801317964119 0.011162686915666818 0.019327341296323634 0.011591351088476736 0.019183027113819362 0.011470269147661881 C 0.019327341296323634 0.011591351088476736 0.019846819836224133 0.012741271405087158 0.019795758857577613 0.01264350200066983" fill="none" stroke="#000000" stroke-width="0.001"/>
<path d="M 0.019795758857577613 0.01264350200066983 C 0.019758693198000134 0.012748950802677808 0.01927278624206155 0.014160710441175912 0.01935097094264788 0.013908887624765573 C 0.01927278624206155 0.014160710441175912 0.01881642340953285 0.015811749811996248 0.0188575424505417 0.01566537579759389" fill="none" stroke="#000000" stroke-width="0.001"/>
<path d="M 0.0188575424505417 0.01566537579759389 C 0.018808125381132683 0.015716125320180973 0.018129652126974063 0.016327213966547526 0.018264537617633504 0.016274370068638903 C 0.018129652126974063 0.016327213966547526 0.01708199461029999 0.016253809319216238 0.017238916562628395 0.016299502572497362 C 0.01708199461029999 0.016253809319216238 0.01629443852713519 0.01560858711285768 0.01638147418969265 0.01572605102926542 C 0.01629443852713519 0.01560858711285768 0.01617890648045938 0.014820259287799389 0.016194488611938864 0.014889935575604469" fill="none" stroke="#000000" stroke-width="0.001"/>
<path d="M 0.016194488611938864 0.014889935575604469 C 0.016233798655682866 0.014741573610606748 0.016731229499908747 0.012852451588528031 0.016666209136866884 0.013109591995631829 C 0.016731229499908747 0.012852451588528031 0.017000443287739073 0.01169547224825282 0.016974732968441212 0.011804250690358897" fill="none" stroke="#000000" stroke-width="0.001"/>
</g><g transform="translate(0.20551342179974427,0.1451598037950524) rotate(0) scale(1,1) translate(-0.018347050754458152,-0.013480335131195698)"><path d="M 0.018149260687413297 0.01492502891278307 C 0.01808143109035226 0.014853887105842581 0.017286512674581873 0.013876923808002371 0.01733530552268085 0.01407132722949721 C 0.017286512674581873 0.013876923808002371 0.017666088493224985 0.012415805413456889 0.017563746510225593 0.012592187854845007 C 0.017666088493224985 0.012415805413456889 0.018646714552710886 0.011901617106006027 0.018563409318673556 0.011954737932839795" fill="none" stroke="none" stroke-width="0"/>
<path d="M 0.018563409318673556 0.011954737932839795 C 0.01866433587416142 0.011976932441322058 0.020041607654160076 0.012268352026895234 0.019774527984527918 0.012221072034626947 C 0.020041607654160076 0.012268352026895234 0.021934518468403736 0.01254718332384526 0.021768365354259443 0.012522097840059235" fill="none" stroke="#000000" stroke-width="0.001"/>
<path d="M 0.021768365354259443 0.012522097840059235 C 0.021853390351251896 0.012569847502925589 0.02289914541183564 0.013232658202915184 0.022788665318168887 0.013095093794455477 C 0.02289914541183564 0.013232658202915184 0.023070555520890653 0.014341953055621923 0.023094126478260497 0.014172870741575723 C 0.023070555520890653 0.014341953055621923 0.022361999368473457 0.01522563565623172 0.02250581382973076 0.015124081563009865 C 0.022361999368473457 0.01522563565623172 0.02127356453595972 0.015413806385006982 0.021368352943172877 0.015391519860237972" fill="none" stroke="#000000" stroke-width="0.001"/>
<path d="M 0.021368352943172877 0.015391519860237972 C 0.021201637705422584 0.015368720156292223 0.019099512402189413 0.015079049167267738 0.01936777009016938 0.01511792341288898 C 0.019099512402189413 0.015079049167267738 0.018047718237183624 0.014908954371107577 0.018149260687413297 0.01492502891278307" fill="none" stroke="#000000" stroke-width="0.001"/>
</g><g transform="translate(0.2052409860286649,0.14727442688057596) rotate(0) scale(1,1) translate(-0.00967276663863141,-0.00967276663863141)"><path d="M 0.012024968775921095 0.008310007137474002 C 0.011967213720220774 0.008372753978085266 0.011272823490922849 0.009292310352457889 0.01133190810751724 0.00906296922480917 C 0.011272823490922849 0.009292310352457889 0.011314623815894341 0.011228694956296088 0.01131595337678841 0.011062100669258633" fill="none" stroke="#000000" stroke-width="0.001"/>
<path d="M 0.01131595337678841 0.011062100669258633 C 0.01117188879933521 0.011154328267132335 0.009397862294697593 0.012401140665532837 0.009587178447350029 0.012168831843743056 C 0.009397862294697593 0.012401140665532837 0.00899890796975994 0.013989887754652078 0.009044159544959176 0.013849806530736" fill="none" stroke="none" stroke-width="0"/>
<path d="M 0.009044159544959176 0.013849806530736 C 0.009028786464334183 0.013844309047922287 0.008838243403762103 0.013757424661600235 0.008859682577459258 0.013783836736971438 C 0.008838243403762103 0.013757424661600235 0.008780823367521153 0.013511947033724074 0.008786889460593314 0.013532861626281563" fill="none" stroke="none" stroke-width="0"/>
<path d="M 0.008786889460593314 0.013532861626281563 C 0.008821301062703063 0.01314357707999366 0.009469668628854285 0.008426209196759413 0.009199828685910304 0.00886144707082671 C 0.009469668628854285 0.008426209196759413 0.012260397116755325 0.00826405380969461 0.012024968775921093 0.008310007137474002" fill="none" stroke="#000000" stroke-width="0.001"/>
</g></g>
<g id="中指">
<g transform="translate(0.20389163732440216,0.15329447510917585) rotate(0) scale(1,1) translate(-0.0213073592558212,-0.01473294942839358)"><path d="M 0.022986274967063562 0.014777636566864349 C 0.02290793432546508 0.014879681122354209 0.021826043057435032 0.016094266942693326 0.02204618726788179 0.016002171232742668 C 0.021826043057435032 0.016094266942693326 0.020143065798093846 0.015773292674370606 0.02034454444170243 0.015882785086272257 C 0.020143065798093846 0.015773292674370606 0.01956876846981847 0.01458871872356042 0.019628443544578773 0.01468826228992287" fill="none" stroke="none" stroke-width="0"/>
<path d="M 0.019628443544578773 0.01468826228992287 C 0.019639516125057422 0.01451814104343321 0.01977468773752573 0.012300223612403348 0.01976131451032255 0.012646807332046964 C 0.01977468773752573 0.012300223612403348 0.019791222917741484 0.010352795181045515 0.019788922271016952 0.010529257654199473" fill="none" stroke="#000000" stroke-width="0.001"/>
<path d="M 0.019788922271016952 0.010529257654199473 C 0.019828114094890492 0.010439122630151296 0.020389863872527912 0.009321480059274367 0.020259224157499436 0.009447637365621356 C 0.020389863872527912 0.009321480059274367 0.02153818176656175 0.009018539519610316 0.021356598851358644 0.009015369978035594 C 0.02153818176656175 0.009018539519610316 0.02256437644628372 0.009616311579546486 0.02243821913993673 0.009485671864518019 C 0.02256437644628372 0.009616311579546486 0.02290650880982132 0.010674494449532142 0.022870486527522507 0.01058304655837721" fill="none" stroke="#000000" stroke-width="0.001"/>
<path d="M 0.022870486527522507 0.01058304655837721 C 0.022870670949385018 0.010761927847598234 0.022882348626501042 0.01307917119640344 0.02287269958987262 0.012729622029029511 C 0.022882348626501042 0.01307917119640344 0.022995739581829475 0.014948304445017253 0.022986274967063562 0.014777636566864349" fill="none" stroke="#000000" stroke-width="0.001"/>
</g><g transform="translate(0.20716934725709996,0.1491980212042618) rotate(0) scale(1,1) translate(-0.018347050754458152,-0.012212198913662067)"><path d="M 0.016931312851531242 0.011999210536207606 C 0.017014638443422058 0.011929487782868344 0.01810779872040532 0.011102512648679069 0.01793121995422104 0.011162537496136469 C 0.01810779872040532 0.011102512648679069 0.01920946354272228 0.011385174524505635 0.01905025804574261 0.011278912366718808 C 0.01920946354272228 0.011385174524505635 0.019907638240663286 0.01253424764148335 0.01984168591797708 0.012437683389578385" fill="none" stroke="#000000" stroke-width="0.001"/>
<path d="M 0.01984168591797708 0.012437683389578385 C 0.019819656615618637 0.012547264513876475 0.019534957439473314 0.014012910182455419 0.019577334289675757 0.013752656881155461 C 0.019534957439473314 0.014012910182455419 0.01931281616770376 0.01571139518217974 0.01933316371554776 0.015560723005177872" fill="none" stroke="#000000" stroke-width="0.001"/>
<path d="M 0.01933316371554776 0.015560723005177872 C 0.019291290538091924 0.015617856163689764 0.0187044672408799 0.016317422964056937 0.018830685586077724 0.016246320907320574 C 0.0187044672408799 0.016317422964056937 0.017656789502746347 0.016390538431047232 0.01781854357317384 0.016413947686014202 C 0.017656789502746347 0.016390538431047232 0.016787100285977997 0.01586120210512125 0.016889636740947785 0.015965409847716945 C 0.016787100285977997 0.01586120210512125 0.016562978561252113 0.015096625185461603 0.016588106113536397 0.01516345477486586" fill="none" stroke="#000000" stroke-width="0.001"/>
<path d="M 0.016588106113536397 0.01516345477486586 C 0.016606385599903642 0.015011065757626146 0.01683606051144292 0.0130710995481011 0.01680745994994335 0.013334786567989289 C 0.01683606051144292 0.0130710995481011 0.016941633926663566 0.011887912533559131 0.016931312851531242 0.011999210536207606" fill="none" stroke="#000000" stroke-width="0.001"/>
</g><g transform="translate(0.20391398246785064,0.14911767778707058) rotate(0) scale(1,1) translate(-0.018347050754458152,-0.013480335131195698)"><path d="M 0.0183267988671635 0.014938364930013125 C 0.018240597745948408 0.014870268522234779 0.017214239187972425 0.013928230892534414 0.01729238541258241 0.014121208036672972 C 0.017214239187972425 0.013928230892534414 0.01747870288871141 0.012440768560067747 0.017389044171843695 0.012622639200350439 C 0.01747870288871141 0.012440768560067747 0.018449893835257587 0.01188177044935819 0.01836829001499498 0.01193876035328067" fill="none" stroke="none" stroke-width="0"/>
<path d="M 0.01836829001499498 0.01193876035328067 C 0.018471801031992592 0.011948571380343774 0.019881905021429103 0.012070953234569418 0.019610422218966344 0.012056492678037916 C 0.019881905021429103 0.012070953234569418 0.021794055430013226 0.0121169365611271 0.021626083644548082 0.012112287031658701" fill="none" stroke="#000000" stroke-width="0.001"/>
<path d="M 0.021626083644548082 0.012112287031658701 C 0.0217162940981676 0.012149318835222385 0.022835030563919084 0.012679743562167908 0.022708609087982275 0.01255666867442291 C 0.022835030563919084 0.012679743562167908 0.023140352043356092 0.013759880261813937 0.023143141355789803 0.013589185684598675 C 0.023140352043356092 0.013759880261813937 0.022544771179367495 0.014723327299382425 0.02267513733877774 0.014605003601006056 C 0.022544771179367495 0.014723327299382425 0.02148738161820761 0.015042742270457526 0.02157874744286685 0.015009070065115105" fill="none" stroke="#000000" stroke-width="0.001"/>
<path d="M 0.02157874744286685 0.015009070065115105 C 0.021410496290268127 0.015006757783265448 0.01928873789704023 0.014975430588327392 0.019559733611682176 0.014981322682919223 C 0.01928873789704023 0.014975430588327392 0.018224054305120276 0.014934785117270949 0.0183267988671635 0.014938364930013125" fill="none" stroke="#000000" stroke-width="0.001"/>
</g><g transform="translate(0.20390128511867855,0.15124974036132052) rotate(0) scale(1,1) translate(-0.00967276663863141,-0.00967276663863141)"><path d="M 0.012394422022455755 0.008310738545991762 C 0.012367362232222677 0.008390561486025341 0.012086112337885592 0.009477174395644005 0.01206970453965881 0.009268613826394701 C 0.012086112337885592 0.009477174395644005 0.01263478318963701 0.010942203006199133 0.012591315601177148 0.010813465376983408" fill="none" stroke="#000000" stroke-width="0.001"/>
<path d="M 0.012591315601177148 0.010813465376983408 C 0.012387171119339773 0.010917532400985912 0.009926972736944971 0.012240704569382126 0.010141581819128644 0.01206226966501346 C 0.009926972736944971 0.012240704569382126 0.010005542014626787 0.013029052109773563 0.010016006614973084 0.0129546842294074" fill="none" stroke="none" stroke-width="0"/>
<path d="M 0.010016006614973084 0.0129546842294074 C 0.00998784607290054 0.012953449233742871 0.009633197257084882 0.012919845936785617 0.009678080110102549 0.012939864281433044 C 0.009633197257084882 0.012919845936785617 0.009460690067815972 0.012695680744655376 0.009477412378761093 0.012714464093638274" fill="none" stroke="none" stroke-width="0"/>
<path d="M 0.009477412378761093 0.012714464093638274 C 0.009476064490331329 0.012397633674595798 0.009704321854578474 0.008545521936158016 0.00946123771760392 0.008912499065128558 C 0.009704321854578474 0.008545521936158016 0.012638854047860072 0.008260591836063695 0.012394422022455753 0.008310738545991762" fill="none" stroke="#000000" stroke-width="0.001"/>
</g></g>
<g id="薬指">
<g transform="translate(0.20408992502295178,0.15728620550301844) rotate(0) scale(1,1) translate(-0.0213073592558212,-0.01473294942839358)"><path d="M 0.02298163532730769 0.01486544298389335 C 0.02290728555684106 0.01495514317836855 0.021873542500157387 0.016024184758987634 0.022089438081708077 0.01594184531759575 C 0.021873542500157387 0.016024184758987634 0.020186192107251637 0.015741733826870764 0.020390888348699412 0.01585351628059592 C 0.020186192107251637 0.015741733826870764 0.01956993275397104 0.014496034172252028 0.019633083184334762 0.014600455872893867" fill="none" stroke="none" stroke-width="0"/>
<path d="M 0.019633083184334762 0.014600455872893867 C 0.01965304404833896 0.014431147265747459 0.019904107242430982 0.012223343749069481 0.01987261355238513 0.012568752587136967 C 0.019904107242430982 0.012223343749069481 0.0200225402909266 0.010279449585162958 0.02001100746488495 0.010455549816084035" fill="none" stroke="#000000" stroke-width="0.001"/>
<path d="M 0.02001100746488495 0.010455549816084035 C 0.020054862880400516 0.010367589460533051 0.020674335692175777 0.00928087829173835 0.020537272451071713 0.009400025549472215 C 0.020674335692175777 0.00928087829173835 0.0218369345392732 0.009038451236610344 0.02165576635813371 0.009025782723277654 C 0.0218369345392732 0.009038451236610344 0.022830437882479494 0.009689110950568552 0.022711290624745625 0.009552047709464485 C 0.022830437882479494 0.009689110950568552 0.02311672035312302 0.010763749442114952 0.023085533450940145 0.010670541616526454" fill="none" stroke="#000000" stroke-width="0.001"/>
<path d="M 0.023085533450940145 0.010670541616526454 C 0.023076355696733546 0.010849187407052064 0.0229667422234916 0.013163866216781023 0.02297540040046097 0.012814291102833782 C 0.0229667422234916 0.013163866216781023 0.02298215490454492 0.01503637230731498 0.02298163532730769 0.01486544298389335" fill="none" stroke="#000000" stroke-width="0.001"/>
</g><g transform="translate(0.207577534800421,0.1533669077294254) rotate(0) scale(1,1) translate(-0.018347050754458152,-0.012212198913662067)"><path d="M 0.01694961883606774 0.011900972481336279 C 0.01703437977237592 0.011841823220991721 0.018148681422385557 0.011152303495733599 0.017966750071765885 0.011191181357201591 C 0.018148681422385557 0.011152303495733599 0.01928742554251623 0.011546955913892648 0.019132795043503816 0.011434438143720374 C 0.01928742554251623 0.011546955913892648 0.019879776144615786 0.012633640970564596 0.019822316059914864 0.012541394599268885" fill="none" stroke="#000000" stroke-width="0.001"/>
<path d="M 0.019822316059914864 0.012541394599268885 C 0.019792696427009822 0.012649172103004137 0.01940645249015021 0.014091387921791685 0.01946688046505436 0.01383472464409191 C 0.01940645249015021 0.014091387921791685 0.019066372019065993 0.01577023970563071 0.0190971803610651 0.015621353931666184" fill="none" stroke="#000000" stroke-width="0.001"/>
<path d="M 0.0190971803610651 0.015621353931666184 C 0.01905142377689335 0.01567542699147165 0.018417230638597574 0.016332354958348685 0.018548101351004095 0.016270230649331786 C 0.018417230638597574 0.016332354958348685 0.017367004713624654 0.01633221001510377 0.01752673181218685 0.016366845639868954 C 0.017367004713624654 0.01633221001510377 0.01653635865159912 0.015743496672848464 0.01663137616825776 0.01585460315214956 C 0.01653635865159912 0.015743496672848464 0.01636611706595192 0.01496514828293134 0.01638652161228314 0.015033567888255819" fill="none" stroke="#000000" stroke-width="0.001"/>
<path d="M 0.01638652161228314 0.015033567888255819 C 0.0164153866912203 0.014882825195513878 0.016779827328177795 0.012963605958109239 0.016732902559529077 0.013224655575352535 C 0.016779827328177795 0.012963605958109239 0.016967678525779295 0.011790665556834924 0.01694961883606774 0.011900972481336279" fill="none" stroke="#000000" stroke-width="0.001"/>
</g><g transform="translate(0.20433083622504308,0.15311630179093022) rotate(0) scale(1,1) translate(-0.018347050754458152,-0.013480335131195698)"><path d="M 0.018250519237919358 0.014935306848959778 C 0.018169767227670167 0.014863833367111166 0.017210525900811423 0.013890288205122744 0.01728149511492907 0.014077625066776442 C 0.017210525900811423 0.013890288205122744 0.01749588486727033 0.012509627532615947 0.017398888668507567 0.012687264509115405 C 0.01749588486727033 0.012509627532615947 0.018532662902713458 0.011884207752088583 0.018445449500082235 0.011945981348782954" fill="none" stroke="none" stroke-width="0"/>
<path d="M 0.018445449500082235 0.011945981348782954 C 0.018548596122459342 0.011960863216244377 0.019953853839384757 0.012152879747245462 0.01968320896860751 0.01212456375832004 C 0.019953853839384757 0.012152879747245462 0.02186068619780934 0.012299207337352019 0.0216931879494092 0.01228577321588802" fill="none" stroke="#000000" stroke-width="0.001"/>
<path d="M 0.0216931879494092 0.01228577321588802 C 0.021781336677886343 0.012327475519005242 0.022870779668893074 0.012915723460016224 0.022750972691134935 0.012786200853294672 C 0.022870779668893074 0.012915723460016224 0.023119152728804875 0.014010359161442753 0.023130871682506875 0.01384004449654663 C 0.023119152728804875 0.014010359161442753 0.02247396516569061 0.014941315534293738 0.022610345246710937 0.014829976832048154 C 0.02247396516569061 0.014941315534293738 0.021401307832225623 0.01520495326444742 0.021494310710262955 0.015176108923493631" fill="none" stroke="#000000" stroke-width="0.001"/>
<path d="M 0.021494310710262955 0.015176108923493631 C 0.021326411155503076 0.015164994225585664 0.019209200097115763 0.015022665709053532 0.019479516053144397 0.015042732548598019 C 0.019209200097115763 0.015022665709053532 0.018148102836650606 0.014926354707323258 0.018250519237919358 0.014935306848959778" fill="none" stroke="#000000" stroke-width="0.001"/>
</g><g transform="translate(0.20420657274355364,0.15524477791961025) rotate(0) scale(1,1) translate(-0.00967276663863141,-0.00967276663863141)"><path d="M 0.012373764664775041 0.008264847483165109 C 0.012351036748345466 0.00834207119453107 0.012134309214433323 0.009376163890390848 0.012101029667620142 0.00919153201955663 C 0.012134309214433323 0.009376163890390848 0.012829126689775955 0.010587838092643995 0.0127731192265332 0.010480429933175736" fill="none" stroke="#000000" stroke-width="0.001"/>
<path d="M 0.0127731192265332 0.010480429933175736 C 0.01258445942817371 0.010609523365760666 0.010312803792581749 0.012284316868642257 0.010509201646219322 0.012029551124194893 C 0.010312803792581749 0.012284316868642257 0.010408606927604246 0.013663291178406528 0.010416344982882329 0.013537618866544095" fill="none" stroke="none" stroke-width="0"/>
<path d="M 0.010416344982882329 0.013537618866544095 C 0.010388184440809784 0.013536383870879565 0.010033535624994127 0.013502780573922311 0.010078418478011794 0.013522798918569738 C 0.010033535624994127 0.013502780573922311 0.009861028435725217 0.01327861538179207 0.009877750746670338 0.013297398730774969" fill="none" stroke="none" stroke-width="0"/>
<path d="M 0.009877750746670338 0.013297398730774969 C 0.00985987223494348 0.012938854847571794 0.00987120976579011 0.00857549286170272 0.009663208605948052 0.008994872132336875 C 0.00987120976579011 0.00857549286170272 0.012599644336343955 0.008204012095734129 0.01237376466477504 0.008264847483165109" fill="none" stroke="#000000" stroke-width="0.001"/>
</g></g>
<g id="小指">
<g transform="translate(0.20547793891279928,0.1612779358968609) rotate(0) scale(1,1) translate(-0.0213073592558212,-0.01473294942839358)"><path d="M 0.02296831459172087 0.014981911831072286 C 0.022883505522017275 0.015061408420669907 0.02173992336882652 0.016001536251248095 0.021950605755277706 0.015935870906243738 C 0.02173992336882652 0.016001536251248095 0.020248109134693614 0.015648905647747173 0.020440125954306634 0.015769895971124583 C 0.020248109134693614 0.015648905647747173 0.019580260417056034 0.014376827946930675 0.019646403919921465 0.014483987025714821" fill="none" stroke="none" stroke-width="0"/>
<path d="M 0.019646403919921465 0.014483987025714821 C 0.01967812653167324 0.014316483245311824 0.020082586736486194 0.012131571110143517 0.020027075260942776 0.012473941660878856 C 0.020082586736486194 0.012131571110143517 0.020336330490234145 0.010200673646558401 0.020312541626442502 0.010375540416890743" fill="none" stroke="#000000" stroke-width="0.001"/>
<path d="M 0.020312541626442502 0.010375540416890743 C 0.020362426016602556 0.010290853527485952 0.021056194962856437 0.009250001771410256 0.02091115430836313 0.009359297744033242 C 0.021056194962856437 0.009250001771410256 0.022232872634100204 0.009089264052356764 0.022053029480362165 0.009063988745414905 C 0.022232872634100204 0.009089264052356764 0.023178568125842562 0.009807642081828844 0.023069272153219578 0.009662601427335549 C 0.023178568125842562 0.009807642081828844 0.023389190235056187 0.010899632863667682 0.023364581151837985 0.01080447659933444" fill="none" stroke="#000000" stroke-width="0.001"/>
<path d="M 0.023364581151837985 0.01080447659933444 C 0.023342964053783066 0.010982047009922703 0.023072153761835863 0.01328344112903843 0.023105175975178957 0.012935321526393609 C 0.023072153761835863 0.01328344112903843 0.022956909476432696 0.015152461023128843 0.02296831459172087 0.014981911831072286" fill="none" stroke="#000000" stroke-width="0.001"/>
</g><g transform="translate(0.20923044944037641,0.15761146869553286) rotate(0) scale(1,1) translate(-0.018347050754458152,-0.012212198913662067)"><path d="M 0.01697454163538942 0.011804917948007506 C 0.017060670552716258 0.011750632315757556 0.018199736287345305 0.01113023425778089 0.018008088643311472 0.011153490361008099 C 0.018199736287345305 0.01113023425778089 0.01942330342719289 0.01164995115734297 0.0192743133637954 0.011525844709280987 C 0.01942330342719289 0.01164995115734297 0.01983944074077185 0.012735844656791158 0.019795969404081355 0.012642767737751914" fill="none" stroke="#000000" stroke-width="0.001"/>
<path d="M 0.019795969404081355 0.012642767737751914 C 0.01976044153323173 0.01274285363313878 0.019295083405191874 0.014082950992418505 0.01936963495388584 0.013843798482394292 C 0.019295083405191874 0.014082950992418505 0.018862327141909448 0.015651664472679825 0.018901350819753786 0.015512597858042475" fill="none" stroke="#000000" stroke-width="0.001"/>
<path d="M 0.018901350819753786 0.015512597858042475 C 0.018852793804530994 0.01556034801523807 0.018184993624085974 0.016134215230175986 0.018318666637080278 0.016085599744389598 C 0.018184993624085974 0.016134215230175986 0.017140343482850026 0.01605032261830335 0.017297274663822138 0.01609598368747913 C 0.017140343482850026 0.01605032261830335 0.016347231273919252 0.015424476925192976 0.016435492465414935 0.015537666914280221 C 0.016347231273919252 0.015424476925192976 0.01622169435757888 0.014671040227111517 0.01623814036587396 0.014737703818432186" fill="none" stroke="#000000" stroke-width="0.001"/>
<path d="M 0.01623814036587396 0.014737703818432186 C 0.016275335582134984 0.014596717133344813 0.016745849733465875 0.012801464774848325 0.016684482961006254 0.013045863597383715 C 0.016745849733465875 0.012801464774848325 0.01699871319158802 0.011701505810559489 0.01697454163538942 0.011804917948007506" fill="none" stroke="#000000" stroke-width="0.001"/>
</g><g transform="translate(0.20600914104611834,0.15713499497657996) rotate(0) scale(1,1) translate(-0.018347050754458152,-0.013480335131195698)"><path d="M 0.018149260687413297 0.01492502891278307 C 0.018078413367654214 0.014857331162823737 0.017239836592705313 0.01392335839440526 0.017299092850304305 0.014112655913271075 C 0.017239836592705313 0.01392335839440526 0.01754437098565487 0.01247389188066212 0.01743818559622539 0.012653458686393287 C 0.01754437098565487 0.01247389188066212 0.01866791185072744 0.011899887207672401 0.01857331752345805 0.011957854244497084" fill="none" stroke="none" stroke-width="0"/>
<path d="M 0.01857331752345805 0.011957854244497084 C 0.018673418395213873 0.01197978906034124 0.020040781970428034 0.012268092334257127 0.019774527984527918 0.012221072034626948 C 0.020040781970428034 0.012268092334257127 0.021934518468403736 0.01254718332384526 0.021768365354259443 0.012522097840059235" fill="none" stroke="#000000" stroke-width="0.001"/>
<path d="M 0.021768365354259443 0.012522097840059235 C 0.021853390351251896 0.012569847502925589 0.02289914541183564 0.013232658202915184 0.022788665318168887 0.013095093794455477 C 0.02289914541183564 0.013232658202915184 0.023070555520890653 0.014341953055621923 0.023094126478260497 0.014172870741575723 C 0.023070555520890653 0.014341953055621923 0.022361999368473457 0.01522563565623172 0.02250581382973076 0.015124081563009865 C 0.022361999368473457 0.01522563565623172 0.02127356453595972 0.015413806385006983 0.021368352943172877 0.015391519860237974" fill="none" stroke="#000000" stroke-width="0.001"/>
<path d="M 0.021368352943172877 0.015391519860237974 C 0.021201637705422584 0.015368720156292225 0.019099512402189413 0.015079049167267738 0.01936777009016938 0.01511792341288898 C 0.019099512402189413 0.015079049167267738 0.018047718237183624 0.014908954371107577 0.018149260687413297 0.01492502891278307" fill="none" stroke="#000000" stroke-width="0.001"/>
</g></g>
<g id="親指">
<g transform="translate(0.20895913869637728,0.14661967724734212) rotate(0) scale(1,1) translate(-0.00967276663863141,-0.00967276663863141)"><path d="M 0.007200269078210742 0.011213353746364394 C 0.007315830206581431 0.011160428659280876 0.008836301797071877 0.01045655300213234 0.008587002618659016 0.010578252701362187 C 0.008836301797071877 0.01045655300213234 0.010325597269207242 0.00968418274345991 0.01019185921916507 0.009752957355606238" fill="none" stroke="none" stroke-width="0"/>
<path d="M 0.01019185921916507 0.009752957355606238 C 0.01014486567965344 0.00973444630525251 0.009549360805384962 0.009497962241997275 0.009627936745025514 0.00953082475136149 C 0.009549360805384962 0.009497962241997275 0.009217365543349516 0.009344255784225165 0.00924894794347844 0.009358607243235652" fill="none" stroke="none" stroke-width="0"/>
<path d="M 0.00924894794347844 0.009358607243235652 C 0.00922101508205978 0.009363263836028684 0.008858640784278822 0.009435387888736782 0.008913753606454529 0.009414486356752044 C 0.008858640784278822 0.009435387888736782 0.008560414116612907 0.00962567056624421 0.008587594077369955 0.009609425627052505" fill="none" stroke="none" stroke-width="0"/>
<path d="M 0.008587594077369955 0.009609425627052505 C 0.008536468165879465 0.00967798295619755 0.007858472722887465 0.010565774253402369 0.007974083139484067 0.010432113576793044 C 0.007858472722887465 0.010565774253402369 0.0071357845731046315 0.011278457093828674 0.007200269078210742 0.011213353746364394" fill="none" stroke="none" stroke-width="0"/>
</g><g transform="translate(0.2161297554647994,0.15197297839174811) rotate(0) scale(1,1) translate(-0.02374131944444444,-0.01749131944444444)"><path d="M 0.02774375724021513 0.016420090571688722 C 0.027610583772290618 0.01654056926318591 0.025844361296509025 0.01808447853601223 0.026145675625120976 0.017865834869654956 C 0.025844361296509025 0.01808447853601223 0.023753571240367182 0.019185144815974532 0.024127985296871705 0.01904381456797597 C 0.023753571240367182 0.019185144815974532 0.02128508457335556 0.019564863097569784 0.021652706947066693 0.019561797845637698 C 0.02128508457335556 0.019564863097569784 0.019555167634444048 0.01904049756995462 0.019716516812338096 0.019080597591161014" fill="none" stroke="none" stroke-width="0"/>
<path d="M 0.019716516812338096 0.019080597591161014 C 0.01960681239138716 0.018890581587480446 0.01818578137719 0.016272533606664977 0.018400063760926885 0.016800405546994218 C 0.01818578137719 0.016272533606664977 0.017040550244709518 0.012408278370561441 0.017145128207495468 0.012746134307210116" fill="none" stroke="#000000" stroke-width="0.001"/>
<path d="M 0.017145128207495468 0.012746134307210116 C 0.01709017200467529 0.012626271985800939 0.016476593127427924 0.011064308764931207 0.016485653773653314 0.011307786450299983 C 0.016476593127427924 0.011064308764931207 0.017202158330794727 0.009645830516005025 0.017036400452790767 0.009824402082784792 C 0.017202158330794727 0.009645830516005025 0.018718225995069605 0.009155867002717383 0.01847474830970083 0.009164927648942774 C 0.018718225995069605 0.009155867002717383 0.020081748041175653 0.009761569884674871 0.01995813267721605 0.009715674328080095" fill="none" stroke="#000000" stroke-width="0.001"/>
<path d="M 0.01995813267721605 0.009715674328080095 C 0.02036978809461338 0.00994214018724351 0.02554679973290058 0.012991965991675113 0.02489799768598399 0.01243326463804106 C 0.02554679973290058 0.012991965991675113 0.02798090386973439 0.01675232606615936 0.02774375724021513 0.016420090571688722" fill="none" stroke="#000000" stroke-width="0.001"/>
</g><g transform="translate(0.2161297554647994,0.15197297839174811) rotate(0) scale(1,1) translate(-0.017790115193637077,-0.01843233998853916)"><path d="M 0.017990206313077354 0.020041747246107168 C 0.017854691778225757 0.020087109756748406 0.01601101232529751 0.020592043515535917 0.016364031894858203 0.020586097373802025 C 0.01601101232529751 0.020592043515535917 0.01335464764451615 0.019841877736501593 0.013753971478349045 0.020113100946913872 C 0.01335464764451615 0.019841877736501593 0.011390327089739664 0.017099612007349753 0.011572145888863463 0.017331418848854686" fill="none" stroke="none" stroke-width="0"/>
<path d="M 0.011572145888863463 0.017331418848854686 C 0.011519183128472058 0.01720041964298748 0.010972382750734137 0.015521371200889568 0.010936592764166614 0.015759428378448244 C 0.010972382750734137 0.015521371200889568 0.012280310033920378 0.014319366653963893 0.012001625727673753 0.014474732718150569 C 0.012280310033920378 0.014319366653963893 0.014637758350866531 0.01389503560820813 0.014280804439126108 0.01389503560820813 C 0.014637758350866531 0.01389503560820813 0.01654084776797048 0.014630098782337245 0.016285072668558827 0.014474732718150569 C 0.01654084776797048 0.014630098782337245 0.017385895618633476 0.01599748555600692 0.017350105632065953 0.015759428378448244 C 0.017385895618633476 0.01599748555600692 0.016661589746977706 0.01746241805472189 0.01671455250736911 0.017331418848854686" fill="none" stroke="#000000" stroke-width="0.001"/>
<path d="M 0.01671455250736911 0.017331418848854686 C 0.016784487909611328 0.01742966825325509 0.01766008181808476 0.018736272401430557 0.01755377733427574 0.018510411701659516 C 0.01766008181808476 0.018736272401430557 0.018026575394644154 0.020169358541477805 0.017990206313077354 0.020041747246107168" fill="none" stroke="#000000" stroke-width="0.001"/>
</g><g transform="translate(0.21094006646271066,0.1457125632649488) rotate(0) scale(1,1) translate(-0.018110482705012847,-0.015186404574128454)"><path d="M 0.017116595856939275 0.01351891712892867 C 0.017241265446322363 0.013547592353804734 0.018805976637455785 0.014015888550990903 0.01861263092953632 0.013863019827441439 C 0.018805976637455785 0.014015888550990903 0.019468697114510578 0.01560831627602746 0.01943674435197282 0.015353341811522226 C 0.019468697114510578 0.01560831627602746 0.0189593407239908 0.01705349436733609 0.018996064079989418 0.016922713401504256" fill="none" stroke="none" stroke-width="0"/>
<path d="M 0.018996064079989418 0.016922713401504256 C 0.018811966223368476 0.016982211753872715 0.016407411985744098 0.017772695579451842 0.016786889800538097 0.017636693629925752 C 0.016407411985744098 0.017772695579451842 0.01424695034428836 0.018631240392974965 0.014442330302461417 0.018554736795817334" fill="none" stroke="#000000" stroke-width="0.001"/>
<path d="M 0.014442330302461417 0.018554736795817334 C 0.014352386693206168 0.018549698347139366 0.01320706392746075 0.01841600708284556 0.013363006991398432 0.018494275411681717 C 0.01320706392746075 0.01841600708284556 0.012501620365860928 0.017443762728612557 0.012571013535209232 0.01761551684978344 C 0.012501620365860928 0.017443762728612557 0.012588095261928047 0.016268597278913947 0.01253028895921879 0.016433225957631116 C 0.012588095261928047 0.016268597278913947 0.013325889185095452 0.015573868267472929 0.013264689167720323 0.015639972705177405" fill="none" stroke="#000000" stroke-width="0.001"/>
<path d="M 0.013264689167720323 0.015639972705177405 C 0.01344865007681203 0.015549170270005772 0.015793212300922378 0.014373588851763748 0.015472220076820798 0.014550343483117808 C 0.015793212300922378 0.014373588851763748 0.017253627171949146 0.013432964932746242 0.017116595856939275 0.01351891712892867" fill="none" stroke="#000000" stroke-width="0.001"/>
</g><g transform="translate(0.20668309349278863,0.14762351344131777) rotate(0) scale(1,1) translate(-0.017815859593261256,-0.014881607178823718)"><path d="M 0.016785243338126532 0.015768126471197626 C 0.016783948060740978 0.015680783735951276 0.01684615906062999 0.014561796845644818 0.016769700009499868 0.014720013648241426 C 0.01684615906062999 0.014561796845644818 0.017887904210932344 0.013793651376922183 0.017702751951688012 0.01386952484003833 C 0.017887904210932344 0.013793651376922183 0.019098925051160495 0.013804532695081778 0.018991527120431843 0.013809532090847667" fill="none" stroke="none" stroke-width="0"/>
<path d="M 0.018991527120431843 0.013809532090847667 C 0.019075328432442844 0.013886678752141283 0.02015091489231899 0.014911726282752247 0.01999714286456388 0.014735292026371055 C 0.02015091489231899 0.014911726282752247 0.02090676216923724 0.016026030762509552 0.020836791453493136 0.015926743167421976" fill="none" stroke="#000000" stroke-width="0.001"/>
<path d="M 0.020836791453493136 0.015926743167421976 C 0.02088594490573422 0.016073456220122465 0.021457316362640456 0.01795815716617679 0.02142663288038615 0.017687299799827836 C 0.021457316362640456 0.01795815716617679 0.02111071019161203 0.019321180662914335 0.021204993240544805 0.019177031563609444 C 0.02111071019161203 0.019321180662914335 0.020109774451598034 0.019310346689565633 0.02029523629319286 0.019417088991486534 C 0.020109774451598034 0.019310346689565633 0.01886980237875804 0.017769376852981307 0.018979451141406874 0.01789612394055863" fill="none" stroke="#000000" stroke-width="0.001"/>
<path d="M 0.018979451141406874 0.01789612394055863 C 0.01888790783356159 0.017804175469781986 0.017698080796990097 0.016615409168792148 0.017880931447263458 0.016792742291238897 C 0.017698080796990097 0.016615409168792148 0.016693935995698454 0.015682741819527522 0.016785243338126532 0.015768126471197626" fill="none" stroke="#000000" stroke-width="0.001"/>
</g></g>
<g id="鱗">
</g>
<g id="悪タトゥ">
</g>
</svg>
