<?xml version="1.0" encoding="UTF-8"?>
<svg xmlns="http://www.w3.org/2000/svg" viewBox="0 0 1 1">
<g id="親指">
<g transform="translate(0.204979551883565,0.1655468900901268) rotate(0) scale(1,1) translate(-0.017815859593261256,-0.014881607178823718)"><path d="M 0.016993791432370293 0.01616526542177964 C 0.016896996421383197 0.01608462255707702 0.015622300900371347 0.015040946896013346 0.015832251300525124 0.01519755104534819 C 0.015622300900371347 0.015040946896013346 0.014361231241358283 0.014210054345129279 0.014474386630524963 0.014286015629761502" fill="none" stroke="#000000" stroke-width="0.001"/>
<path d="M 0.014474386630524963 0.014286015629761502 C 0.014321721695311866 0.014198360372686849 0.012495174516011176 0.013064317166914224 0.012642407407967808 0.01323415254486566 C 0.012495174516011176 0.013064317166914224 0.012818404108154761 0.012134445253319717 0.01270759192704538 0.012247991094344268 C 0.012818404108154761 0.012134445253319717 0.014204255287344458 0.011856185881659032 0.013972153581280386 0.01187160245257105 C 0.014204255287344458 0.011856185881659032 0.015619533968025408 0.012078941392635795 0.015492812399814253 0.012062992243400045" fill="none" stroke="#000000" stroke-width="0.001"/>
<path d="M 0.015492812399814253 0.012062992243400045 C 0.015619146423711264 0.012110718017398915 0.017274889665649006 0.012751661252391168 0.017008820686578396 0.01263570153138648 C 0.017274889665649006 0.012751661252391168 0.01882537510383516 0.013522742842462127 0.018685640148661562 0.013454508895456309" fill="none" stroke="#000000" stroke-width="0.001"/>
<path d="M 0.018685640148661562 0.013454508895456309 C 0.0187020105168258 0.013566248616447363 0.018840960787204958 0.015001502482866157 0.01888208456663242 0.014795385547348957 C 0.018840960787204958 0.015001502482866157 0.01803479703434351 0.01604206877786526 0.01819215479553202 0.015927912121662703 C 0.01803479703434351 0.01604206877786526 0.016893927818773483 0.016185044863456052 0.016993791432370293 0.01616526542177964" fill="none" stroke="none" stroke-width="0"/>
</g><g transform="translate(0.20973893718152695,0.16437569328497678) rotate(0) scale(1,1) translate(-0.018110482705012847,-0.015186404574128454)"><path d="M 0.01791902214638014 0.017265652709387166 C 0.01778727566522609 0.017278433398595153 0.015995328267596108 0.017475607752455935 0.01633806437253154 0.017419020979883 C 0.015995328267596108 0.017475607752455935 0.013595199263373573 0.017988500063627337 0.013806188887154956 0.01794469398026239" fill="none" stroke="#000000" stroke-width="0.001"/>
<path d="M 0.013806188887154956 0.01794469398026239 C 0.01370526368859586 0.01792692234982661 0.012420989160210505 0.017646174774162898 0.012595086504445801 0.01773143441503304 C 0.012420989160210505 0.017646174774162898 0.011643848610655209 0.016854090279386325 0.011717020756331409 0.016921578289820688" fill="none" stroke="#000000" stroke-width="0.001"/>
<path d="M 0.011717020756331409 0.016921578289820688 C 0.011737172151394413 0.016805403819954823 0.012065900779272404 0.015341794105463345 0.011958837497087454 0.015527484651430293 C 0.012065900779272404 0.015341794105463345 0.01308869202967275 0.014623775662116244 0.013001780142550804 0.014693291738217325" fill="none" stroke="none" stroke-width="0"/>
<path d="M 0.013001780142550804 0.014693291738217325 C 0.013204160169881627 0.014636700359436887 0.015823579489852007 0.013887798047270075 0.015430340470520693 0.014014195192852078 C 0.015823579489852007 0.013887798047270075 0.017911507366527083 0.013106720224431713 0.017720648374526592 0.01317652599123328" fill="none" stroke="#000000" stroke-width="0.001"/>
<path d="M 0.017720648374526592 0.01317652599123328 C 0.017835619685015545 0.013261027886194505 0.019238745074177745 0.014422260535100003 0.01910030410039404 0.01419054873076799 C 0.019238745074177745 0.014422260535100003 0.019283499897096587 0.016213326308102377 0.019381940059931078 0.015957067643217446 C 0.019283499897096587 0.016213326308102377 0.017797112320250896 0.01737470146490131 0.01791902214638014 0.017265652709387166" fill="none" stroke="none" stroke-width="0"/>
</g><g transform="translate(0.21495734908204084,0.15761353875876577) rotate(0) scale(1,1) translate(-0.02374131944444444,-0.01749131944444444)"><path d="M 0.02854773517700187 0.01943601983613104 C 0.028263838013678464 0.01971290500137315 0.02443323609266911 0.0232883515014418 0.02514096921712099 0.02275864181903636 C 0.02443323609266911 0.0232883515014418 0.019631101722450837 0.02604536054215966 0.02005493768357931 0.02579253602499633" fill="none" stroke="#000000" stroke-width="0.001"/>
<path d="M 0.02005493768357931 0.02579253602499633 C 0.01992036280393262 0.025838531962830712 0.018229139726659283 0.026376646703092033 0.018440039127819007 0.026344487279008927 C 0.018229139726659283 0.026376646703092033 0.017447820348149578 0.026164612600242332 0.01752414486966261 0.02617844911399361" fill="none" stroke="#000000" stroke-width="0.001"/>
<path d="M 0.01752414486966261 0.02617844911399361 C 0.017446664686092725 0.02605760298675587 0.01654994371137556 0.024439625820667492 0.016594382666823972 0.024728295587140747 C 0.01654994371137556 0.024439625820667492 0.01702391863240315 0.02254658827707904 0.016990877404281676 0.022714411916314556" fill="none" stroke="none" stroke-width="0"/>
<path d="M 0.016990877404281676 0.022714411916314556 C 0.01706469061766992 0.022346765367003984 0.018077750892468124 0.017707584061992805 0.017876635964940615 0.018302653324587675 C 0.018077750892468124 0.017707584061992805 0.01953155824875105 0.015346158051891847 0.019404256534611784 0.015573580765176141" fill="none" stroke="#000000" stroke-width="0.001"/>
<path d="M 0.019404256534611784 0.015573580765176141 C 0.01956561922649599 0.015548368789882522 0.021782093408194463 0.015274192071402766 0.02134060883722227 0.015271037061652707 C 0.021782093408194463 0.015274192071402766 0.025144247447495285 0.01592117975549301 0.024702071386278078 0.015611440882176853 C 0.025144247447495285 0.01592117975549301 0.026967193554389098 0.01930661845427611 0.02664672157182878 0.018987903541446596 C 0.026967193554389098 0.01930661845427611 0.02870615297743296 0.019473362860688077 0.02854773517700187 0.01943601983613104" fill="none" stroke="none" stroke-width="0"/>
</g><g transform="translate(0.20751265689804022,0.16490589679721587) rotate(0) scale(1,1) translate(-0.00967276663863141,-0.00967276663863141)"><path d="M 0.005973520063257653 0.009155854321525122 C 0.005888583836679954 0.009083928882889187 0.004315206886729834 0.008049928287460047 0.0049542853443252585 0.008292749057893909 C 0.004315206886729834 0.008049928287460047 -0.0022495636589051696 0.00607110974452085 -0.0016954214278874441 0.006242005076318778" fill="none" stroke="#000000" stroke-width="0.001"/>
<path d="M -0.0016954214278874441 0.006242005076318778 C -0.0007813756582274164 0.0063741481919038275 0.01037772991010789 0.007951094462356065 0.00927312780803289 0.00782772246333938 C 0.01037772991010789 0.007951094462356065 0.01175036012942753 0.007713697947950643 0.011559803797012559 0.007722469064519007" fill="none" stroke="none" stroke-width="0"/>
<path d="M 0.011559803797012559 0.007722469064519007 C 0.011595996064121799 0.007757112874617635 0.012005606354379979 0.008211441073503283 0.011994111002323433 0.008138194785702543 C 0.012005606354379979 0.008211441073503283 0.011673051106638424 0.008640026995829997 0.011697748021691117 0.008601424518127884" fill="none" stroke="#000000" stroke-width="0.001"/>
<path d="M 0.011697748021691117 0.008601424518127884 C 0.011358354413691192 0.008670031568292578 0.007148005729155888 0.009470911603720643 0.00762502472569201 0.009424709120104206 C 0.007148005729155888 0.009470911603720643 0.005835894674721457 0.009133449754976866 0.005973520063257653 0.009155854321525122" fill="none" stroke="#000000" stroke-width="0.001"/>
</g></g>
<g id="人指">
<g transform="translate(0.1951808313163837,0.1597775052674259) rotate(0) scale(1,1) translate(-0.018347050754458152,-0.012212198913662067)"><path d="M 0.017914484908293126 0.013612121281375565 C 0.017802424752184753 0.013556809759970536 0.016346537591434826 0.012827809952819914 0.016569763034992642 0.012948383024515214 C 0.016346537591434826 0.012827809952819914 0.015124614298149899 0.012099982870741691 0.015235779585599341 0.012165244421031961" fill="none" stroke="#000000" stroke-width="0.001"/>
<path d="M 0.015235779585599341 0.012165244421031961 C 0.01514819846316647 0.012085543996659292 0.014083421818148903 0.011057836285415915 0.014184806116404894 0.011208839328559931 C 0.014083421818148903 0.011057836285415915 0.014067295624060316 0.010235955313735424 0.014019168006527447 0.010353207903303767 C 0.014067295624060316 0.010235955313735424 0.014909266942505339 0.009754858529955343 0.01476233752679932 0.009801808253739821 C 0.014909266942505339 0.009754858529955343 0.015867319617349707 0.009788811464902547 0.01578232099499968 0.00978981121789003" fill="none" stroke="#000000" stroke-width="0.001"/>
<path d="M 0.01578232099499968 0.00978981121789003 C 0.015902836312843168 0.009826260459989446 0.017489401202656466 0.010311230578911316 0.017228504809121553 0.010227202123083019 C 0.017489401202656466 0.010311230578911316 0.019053458793110052 0.010845731901558485 0.01891307771741863 0.010798152687829602" fill="none" stroke="#000000" stroke-width="0.001"/>
<path d="M 0.01891307771741863 0.010798152687829602 C 0.01896213620412757 0.010898309888454362 0.019509828613030557 0.012192460098845042 0.019501779557925942 0.012000039095326726 C 0.019509828613030557 0.012192460098845042 0.018877391824537928 0.013241544912220132 0.019009666378673996 0.013107204730049395 C 0.018877391824537928 0.013241544912220132 0.017823219785761388 0.013654197660652746 0.017914484908293126 0.013612121281375565" fill="none" stroke="none" stroke-width="0"/>
</g><g transform="translate(0.19853159818789937,0.1604644784797336) rotate(0) scale(1,1) translate(-0.018347050754458152,-0.013480335131195698)"><path d="M 0.018123255151674632 0.014984876475607806 C 0.017976753746969647 0.014953803785194637 0.0160656297819395 0.014546684719610996 0.016365238295214798 0.014612004190649775 C 0.0160656297819395 0.014546684719610996 0.014374845883800773 0.01416679604251685 0.014527952992371083 0.01420104282314246" fill="none" stroke="#000000" stroke-width="0.001"/>
<path d="M 0.014527952992371083 0.01420104282314246 C 0.014483534217416685 0.014128626400180042 0.013943255001219988 0.013175504656198742 0.013994927692918295 0.013332045747593451 C 0.013943255001219988 0.013175504656198742 0.013948812981869904 0.012183152958367839 0.013907880691991394 0.012322549726405944 C 0.013948812981869904 0.012183152958367839 0.01460331655392175 0.011574520196979087 0.014486115171460421 0.011659284531136198 C 0.01460331655392175 0.011574520196979087 0.015383312457366244 0.011275885481969323 0.015314297281527334 0.01130537771652062" fill="none" stroke="none" stroke-width="0"/>
<path d="M 0.015314297281527334 0.01130537771652062 C 0.015456461387895191 0.011342601484703643 0.01729845243288726 0.011800866364446964 0.017020266557941626 0.011752062934716883 C 0.01729845243288726 0.011800866364446964 0.018788549549452697 0.011902598534828664 0.018652527780874922 0.011891018873281605" fill="none" stroke="#000000" stroke-width="0.001"/>
<path d="M 0.018652527780874922 0.011891018873281605 C 0.018718090759039033 0.011973858726437723 0.01947935415973853 0.013096441345685734 0.01943928351884423 0.01288509711115503 C 0.01947935415973853 0.013096441345685734 0.01902370644100905 0.01460213130135446 0.019133375471606515 0.014427149687650062 C 0.01902370644100905 0.01460213130135446 0.018039078458346975 0.015031353707937617 0.018123255151674632 0.014984876475607806" fill="none" stroke="none" stroke-width="0"/>
</g><g transform="translate(0.20290424023930548,0.16082347418234297) rotate(0) scale(1,1) translate(-0.0213073592558212,-0.01473294942839358)"><path d="M 0.021200418376830073 0.016493856112136836 C 0.021022698152675788 0.01646832803810407 0.018684111803142056 0.01613425807615305 0.019067775686978667 0.01618751922374364 C 0.018684111803142056 0.01613425807615305 0.016390508111108405 0.015826989267491966 0.01659645177079073 0.015854722341049787" fill="none" stroke="#000000" stroke-width="0.001"/>
<path d="M 0.01659645177079073 0.015854722341049787 C 0.016531636063630797 0.015821139114617702 0.015715296607988295 0.015314523169321652 0.015818663284871505 0.015451723623864759 C 0.015715296607988295 0.015314523169321652 0.015317500678468949 0.014104699658421477 0.015356051648192223 0.014208316886532499" fill="none" stroke="none" stroke-width="0"/>
<path d="M 0.015356051648192223 0.014208316886532499 C 0.015397262076280031 0.014137032532873982 0.01599154168725333 0.013232146465925774 0.01585057678524593 0.013352904642630288 C 0.01599154168725333 0.013232146465925774 0.017147384946200623 0.012709744943032338 0.01704763047228103 0.012759218766078334" fill="none" stroke="none" stroke-width="0"/>
<path d="M 0.01704763047228103 0.012759218766078334 C 0.017232491241362224 0.01277296616651364 0.019629848839799572 0.012941922902849679 0.01926595970125533 0.01292418757130201 C 0.019629848839799572 0.012941922902849679 0.02159332850427497 0.012976030675762714 0.021414300134811923 0.012972042744650353" fill="none" stroke="#000000" stroke-width="0.001"/>
<path d="M 0.021414300134811923 0.012972042744650353 C 0.02150472955994887 0.013050266588973656 0.022582644614141115 0.014130602563483667 0.022499453236455257 0.013910728876529997 C 0.022582644614141115 0.014130602563483667 0.022304343762073447 0.015825787591061628 0.022412596667042213 0.015610526988094392 C 0.022304343762073447 0.015825787591061628 0.021099403519312394 0.016567466872473707 0.021200418376830073 0.016493856112136836" fill="none" stroke="none" stroke-width="0"/>
</g><g transform="translate(0.20076374867760127,0.16064637815147223) rotate(0) scale(1,1) translate(-0.00967276663863141,-0.00967276663863141)"><path d="M 0.004673410375439806 0.008030418367682823 C 0.004757369309465853 0.007987254311468038 0.005663682102599282 0.00740137368680456 0.005680917583752374 0.007512449693105413 C 0.005663682102599282 0.00740137368680456 0.004365390186423563 0.006629594341986516 0.004466584601602702 0.0066975062920725855" fill="none" stroke="#000000" stroke-width="0.001"/>
<path d="M 0.004466584601602702 0.0066975062920725855 C 0.004874643532233542 0.0067406090782749905 0.009909555474518968 0.007282151273036966 0.009363291769172777 0.00721473972650144 C 0.009909555474518968 0.007282151273036966 0.011159953840472341 0.007530753610832022 0.011021749065756991 0.007506444850498901" fill="none" stroke="none" stroke-width="0"/>
<path d="M 0.011021749065756991 0.007506444850498901 C 0.011046309986199095 0.007544671787657012 0.0113217235748007 0.008045130851527768 0.01131648011106224 0.007965168096396231 C 0.0113217235748007 0.008045130851527768 0.01106535317391488 0.008507733730050772 0.011084670630618524 0.008465997912077345" fill="none" stroke="none" stroke-width="0"/>
<path d="M 0.011084670630618524 0.008465997912077345 C 0.010846537330667186 0.008469382166679928 0.007692799343270903 0.008470310671942129 0.008227071031202463 0.008506608967308338 C 0.007692799343270903 0.008470310671942129 0.004377271987459585 0.007990735817714029 0.004673410375439806 0.008030418367682823" fill="none" stroke="#000000" stroke-width="0.001"/>
</g></g>
<g id="小指">
<g transform="translate(0.19693615177249285,0.1493121195380355) rotate(0) scale(1,1) translate(-0.018347050754458152,-0.012212198913662067)"><path d="M 0.01874412152908252 0.013433033402724864 C 0.018625792125849507 0.013455453540790311 0.017122283467064167 0.013738286389258215 0.017324168690286364 0.013702075059510219 C 0.017122283467064167 0.013738286389258215 0.016237943030426964 0.013881360551383365 0.016321498850416147 0.013867569359700816" fill="none" stroke="#000000" stroke-width="0.001"/>
<path d="M 0.016321498850416147 0.013867569359700816 C 0.01623587495586599 0.013863913200534294 0.015135676075302938 0.013777732482260403 0.015294012115814286 0.013823695449702564 C 0.015135676075302938 0.013777732482260403 0.01437509029016596 0.013196455398025973 0.014421466364279972 0.013316013750394883 C 0.01437509029016596 0.013196455398025973 0.014829846532796438 0.012258289103024551 0.014737499226446156 0.01238899522127564 C 0.014829846532796438 0.012258289103024551 0.015595645274986449 0.011694085757223992 0.01552963404048335 0.011747540331381812" fill="none" stroke="#000000" stroke-width="0.001"/>
<path d="M 0.01552963404048335 0.011747540331381812 C 0.01563663792719575 0.011705809358644197 0.017046504768201534 0.011168801343201362 0.016813680681032155 0.011246768658530441 C 0.017046504768201534 0.011168801343201362 0.018449343286972897 0.010775696204841407 0.018323523086515917 0.010811932547432871" fill="none" stroke="#000000" stroke-width="0.001"/>
<path d="M 0.018323523086515917 0.010811932547432871 C 0.01838696976351508 0.010848516209157104 0.019178983854965203 0.011398908552977313 0.019084883210505874 0.011250936488123652 C 0.019178983854965203 0.011398908552977313 0.01942433401324257 0.01276943873522689 0.019452730820027853 0.01258759732567679 C 0.01942433401324257 0.01276943873522689 0.018685070754837076 0.013503486409145537 0.01874412152908252 0.013433033402724864" fill="none" stroke="none" stroke-width="0"/>
</g><g transform="translate(0.19986699320100348,0.1488612308879954) rotate(0) scale(1,1) translate(-0.018347050754458152,-0.013480335131195698)"><path d="M 0.018581261052724878 0.014993978759754601 C 0.018444789560748083 0.014996060169427325 0.016710651289352032 0.015031832629188098 0.01694360314900333 0.015018955675827296 C 0.016710651289352032 0.015031832629188098 0.01568935836923483 0.015159297743772303 0.015785838736909332 0.015148502200084225" fill="none" stroke="#000000" stroke-width="0.001"/>
<path d="M 0.015785838736909332 0.015148502200084225 C 0.01571698871188846 0.015116886276972025 0.014853669366235707 0.014674775053100567 0.014959638436658847 0.014769111122737828 C 0.014853669366235707 0.014674775053100567 0.014500726450693297 0.013869223840294284 0.01451420989183164 0.014016469364437074 C 0.014500726450693297 0.013869223840294284 0.014864432049998185 0.012880283176824022 0.014797837142998743 0.013002164833024337 C 0.014864432049998185 0.012880283176824022 0.015356308078560454 0.012516533211450711 0.015313348775824938 0.012553889490033297" fill="none" stroke="none" stroke-width="0"/>
<path d="M 0.015313348775824938 0.012553889490033297 C 0.015439301207837963 0.012523063702872138 0.017064428158960022 0.012132494524931882 0.016824777959981243 0.012183980044099383 C 0.017064428158960022 0.012132494524931882 0.018302848930536058 0.011915403528016953 0.018189151163570304 0.011936063260023293" fill="none" stroke="#000000" stroke-width="0.001"/>
<path d="M 0.018189151163570304 0.011936063260023293 C 0.01828058985563659 0.011990996189361537 0.01939225667137472 0.012777687316876516 0.019286415468365722 0.012595258412082224 C 0.01939225667137472 0.012777687316876516 0.01940048273170822 0.014325103479860823 0.01945924559967829 0.014125210117554791 C 0.01940048273170822 0.014325103479860823 0.018508095673812095 0.015066376146604585 0.018581261052724878 0.014993978759754601" fill="none" stroke="none" stroke-width="0"/>
</g><g transform="translate(0.20363708051077978,0.14853441340907725) rotate(0) scale(1,1) translate(-0.0213073592558212,-0.01473294942839358)"><path d="M 0.021507821285750378 0.016485674071629854 C 0.021328368127601034 0.016491394619461867 0.019030425207011408 0.01656305900316109 0.019354383387958238 0.016554320645613997 C 0.019030425207011408 0.01656305900316109 0.01747581809159094 0.016593552171910067 0.017620323114388426 0.016590534362194986" fill="none" stroke="#000000" stroke-width="0.001"/>
<path d="M 0.017620323114388426 0.016590534362194986 C 0.01754486631001749 0.01654118746030694 0.016611316069052827 0.01588363008090012 0.0167148414619372 0.015998371539538432 C 0.016611316069052827 0.01588363008090012 0.016349949811262483 0.015148242301784978 0.016378018399775922 0.015213636858535244" fill="none" stroke="none" stroke-width="0"/>
<path d="M 0.016378018399775922 0.015213636858535244 C 0.016393173138311488 0.01513461011245493 0.0166426061251308 0.014123420265236034 0.01655987526220271 0.014265315905571493 C 0.0166426061251308 0.014123420265236034 0.017438364879305508 0.013448020280254578 0.017370788754912984 0.013510889174509726" fill="none" stroke="none" stroke-width="0"/>
<path d="M 0.017370788754912984 0.013510889174509726 C 0.017505130104267873 0.013493827746693705 0.019294227319753197 0.013261930008271439 0.018982884947171635 0.013306152040717468 C 0.019294227319753197 0.013261930008271439 0.021283898249118405 0.012953064180527381 0.021106897225891732 0.012980224785157387" fill="none" stroke="#000000" stroke-width="0.001"/>
<path d="M 0.021106897225891732 0.012980224785157387 C 0.02121696342174908 0.013053587604099252 0.022547662905401025 0.014066584751701092 0.0224276915761799 0.013860578612459755 C 0.022547662905401025 0.014066584751701092 0.022469897319009443 0.015671056410984274 0.022546553176545237 0.015452298456053433 C 0.022469897319009443 0.015671056410984274 0.021421260294850808 0.016571788706261224 0.021507821285750378 0.016485674071629854" fill="none" stroke="none" stroke-width="0"/>
</g></g>
<g id="中指">
<g transform="translate(0.19420276819584406,0.15609820602010577) rotate(0) scale(1,1) translate(-0.018347050754458152,-0.012212198913662067)"><path d="M 0.01823051747040025 0.013711497028448429 C 0.01808170387139153 0.013682888495994257 0.016167985969730448 0.013306012002390212 0.01644475428229557 0.01336819463899836 C 0.016167985969730448 0.013306012002390212 0.014781343006062384 0.012931731284996684 0.014909297719618783 0.01296530538915066" fill="none" stroke="#000000" stroke-width="0.001"/>
<path d="M 0.014909297719618783 0.01296530538915066 C 0.014831544196486005 0.01292574959731838 0.013865260309299968 0.012383672065387248 0.013976255442025435 0.012490635887163308 C 0.013865260309299968 0.012383672065387248 0.013583945243619177 0.011549874635010818 0.013577356126913173 0.011681739527837942 C 0.013583945243619177 0.011549874635010818 0.014189073803446457 0.010819007875110365 0.014055324842497486 0.010908257173237831 C 0.014189073803446457 0.010819007875110365 0.015276261892951093 0.01058595551506421 0.015182343658300816 0.010610747950308334" fill="none" stroke="#000000" stroke-width="0.001"/>
<path d="M 0.015182343658300816 0.010610747950308334 C 0.015316545844341542 0.010610292328702833 0.017070095136949882 0.010617319913268343 0.016792769890789525 0.010605280491042316 C 0.017070095136949882 0.010617319913268343 0.01865336967234474 0.010767716060852183 0.018510246612225105 0.010755221017020655" fill="none" stroke="#000000" stroke-width="0.001"/>
<path d="M 0.018510246612225105 0.010755221017020655 C 0.018590093138501837 0.010835036627383754 0.01953614243502737 0.011890557689521854 0.019468404927545892 0.011713008341377843 C 0.01953614243502737 0.011890557689521854 0.01921993941390739 0.013052353918671326 0.01932309670200286 0.012885813194748777 C 0.01921993941390739 0.013052353918671326 0.018139469201100034 0.013780304014590067 0.01823051747040025 0.013711497028448429" fill="none" stroke="none" stroke-width="0"/>
</g><g transform="translate(0.19768211355632392,0.1564919483276569) rotate(0) scale(1,1) translate(-0.018347050754458152,-0.013480335131195698)"><path d="M 0.01815497141555107 0.014999899879949673 C 0.01801588433306103 0.014983662134717675 0.01619705040885399 0.0147695402943522 0.01648592642567055 0.014805046937165691 C 0.01619705040885399 0.0147695402943522 0.014538670279425849 0.01455455126860628 0.014688459213752364 0.014573820166187773" fill="none" stroke="#000000" stroke-width="0.001"/>
<path d="M 0.014688459213752364 0.014573820166187773 C 0.014597689431432227 0.014527339684616735 0.013480259859898678 0.013875820315613026 0.01359922182591073 0.014016054387335308 C 0.013480259859898678 0.013875820315613026 0.013282967558954925 0.012713051541948529 0.013260915621607725 0.012891011305520377 C 0.013282967558954925 0.012713051541948529 0.01401156640916967 0.011775548296025016 0.013863845074077128 0.01188053722447312 C 0.01401156640916967 0.011775548296025016 0.015131048856771653 0.011610361409115607 0.015033571642718228 0.011631144164143108" fill="none" stroke="none" stroke-width="0"/>
<path d="M 0.015033571642718228 0.011631144164143108 C 0.015174809451315161 0.011642455879087776 0.017019389912285486 0.011788493579863148 0.016728425345881433 0.011766884743479124 C 0.017019389912285486 0.011788493579863148 0.018674873197374 0.011900747322190751 0.01852514643956688 0.011890450200751395" fill="none" stroke="#000000" stroke-width="0.001"/>
<path d="M 0.01852514643956688 0.011890450200751395 C 0.018603794890643528 0.011960265217804567 0.01953769887034645 0.012929120594895914 0.019468927852486648 0.012728230405389469 C 0.01953769887034645 0.012929120594895914 0.01924090228413987 0.014490438264375436 0.0193503986538845 0.014301132474828752 C 0.01924090228413987 0.014490438264375436 0.018055352479023287 0.015058130497043083 0.01815497141555107 0.014999899879949673" fill="none" stroke="none" stroke-width="0"/>
</g><g transform="translate(0.2021853265188547,0.15665314840509825) rotate(0) scale(1,1) translate(-0.0213073592558212,-0.01473294942839358)"><path d="M 0.021261938279326775 0.01649651559821693 C 0.021083435400595686 0.016477205421573958 0.018739190732675985 0.016231032509983097 0.019119903734553696 0.016264793478501252 C 0.018739190732675985 0.016231032509983097 0.016491172133647612 0.01607693318412387 0.016693382256794235 0.016091383975999053" fill="none" stroke="#000000" stroke-width="0.001"/>
<path d="M 0.016693382256794235 0.016091383975999053 C 0.016611593870543243 0.016047628380676 0.015595915771081999 0.015436325340163447 0.01571192162178231 0.0155663168321224 C 0.015595915771081999 0.015436325340163447 0.015267094583941187 0.01444525017585571 0.015301312048390504 0.01453148607249161" fill="none" stroke="none" stroke-width="0"/>
<path d="M 0.015301312048390504 0.01453148607249161 C 0.01533211686704851 0.014442207637254928 0.01580085774721544 0.013330293211279319 0.015670969872286552 0.013460144849651435 C 0.01580085774721544 0.013330293211279319 0.016959049603808066 0.012932693208890782 0.01685996654753718 0.012973266412026216" fill="none" stroke="none" stroke-width="0"/>
<path d="M 0.01685996654753718 0.012973266412026216 C 0.017055309200929087 0.012975205314122145 0.019578479528638233 0.012996209641056036 0.019204078388240065 0.012996533237177364 C 0.019578479528638233 0.012996209641056036 0.021531838719321485 0.01296712076035304 0.02135278023231522 0.012969383258570295" fill="none" stroke="#000000" stroke-width="0.001"/>
<path d="M 0.02135278023231522 0.012969383258570295 C 0.02145391655751583 0.013037452072996327 0.022670192930380494 0.014003570545230529 0.022566416134722513 0.013786209031682694 C 0.022670192930380494 0.014003570545230529 0.022489395292261353 0.015803580301688835 0.022598101780211 0.015577721421144315 C 0.022489395292261353 0.015803580301688835 0.021150591320919756 0.016573081779639648 0.021261938279326775 0.01649651559821693" fill="none" stroke="none" stroke-width="0"/>
</g><g transform="translate(0.2000399583244304,0.15655086233454396) rotate(0) scale(1,1) translate(-0.00967276663863141,-0.00967276663863141)"><path d="M 0.004639760229276458 0.008221006086626114 C 0.004728802903580711 0.008169573270202644 0.005703902734047772 0.00748909886222043 0.005708272320927492 0.007603812289544483 C 0.005703902734047772 0.00748909886222043 0.0044939129255358356 0.006781164347836896 0.0045873251867198095 0.006844444958737479" fill="none" stroke="#000000" stroke-width="0.001"/>
<path d="M 0.0045873251867198095 0.006844444958737479 C 0.004994221842352688 0.006862373645746165 0.01001697034180764 0.007087247151533689 0.009470085054314343 0.007059589202841702 C 0.01001697034180764 0.007087247151533689 0.011289937268499792 0.007186069604724621 0.011149948636639373 0.007176340343041319" fill="none" stroke="none" stroke-width="0"/>
<path d="M 0.011149948636639373 0.007176340343041319 C 0.01117837081278601 0.007211790553767675 0.011504587873807034 0.007680719491343092 0.011491014750399018 0.007601742871757588 C 0.011504587873807034 0.007680719491343092 0.01129797706479695 0.008167586186926513 0.01131282611753557 0.008124059778067365" fill="none" stroke="none" stroke-width="0"/>
<path d="M 0.01131282611753557 0.008124059778067365 C 0.011076351087650578 0.008143437019705104 0.007919036934894071 0.00836466553676679 0.008475125758915663 0.008356586677720226 C 0.007919036934894071 0.00836466553676679 0.004320146435139858 0.008209707704034938 0.004639760229276458 0.008221006086626114" fill="none" stroke="#000000" stroke-width="0.001"/>
</g></g>
<g id="薬指">
<g transform="translate(0.19432985595747143,0.15249165403652637) rotate(0) scale(1,1) translate(-0.018347050754458152,-0.012212198913662067)"><path d="M 0.01882560374522639 0.01363784328668152 C 0.018673435754592568 0.01365711032516051 0.01673485477686199 0.01390550182450446 0.016999587857620495 0.013869047748429383 C 0.01673485477686199 0.01390550182450446 0.015536241685999614 0.014092479237178528 0.015648806776124298 0.01407529219958244" fill="none" stroke="#000000" stroke-width="0.001"/>
<path d="M 0.015648806776124298 0.01407529219958244 C 0.015562849099733926 0.014071215108804389 0.014467547869171727 0.013972617238957548 0.014617314659439827 0.014026367110245826 C 0.014467547869171727 0.013972617238957548 0.013808226749233743 0.01330193331180712 0.013851605292907089 0.013430293744123101 C 0.013808226749233743 0.01330193331180712 0.014192736303917704 0.012354362115569197 0.014096772135359668 0.012486041922454063 C 0.014192736303917704 0.012354362115569197 0.01507870891395718 0.011797143906425604 0.015003175315603526 0.011850136061504717" fill="none" stroke="#000000" stroke-width="0.001"/>
<path d="M 0.015003175315603526 0.011850136061504717 C 0.015117856734471968 0.011808855333343974 0.01665078120229097 0.011259602302080906 0.016379352342024835 0.0113547673235758 C 0.01665078120229097 0.011259602302080906 0.018417069080194803 0.010654271510231843 0.018260321638797112 0.010708155803565994" fill="none" stroke="#000000" stroke-width="0.001"/>
<path d="M 0.018260321638797112 0.010708155803565994 C 0.018328066536311416 0.010757974677907045 0.019172850608705008 0.011455083728096935 0.01907326040896874 0.011305982295658606 C 0.019172850608705008 0.011455083728096935 0.01943476598032047 0.012691694742077852 0.019455404035632333 0.012497372992825943 C 0.01943476598032047 0.012691694742077852 0.018773120387692563 0.013732882477836153 0.01882560374522639 0.01363784328668152" fill="none" stroke="none" stroke-width="0"/>
</g><g transform="translate(0.19774927823956484,0.15240726162930043) rotate(0) scale(1,1) translate(-0.018347050754458152,-0.013480335131195698)"><path d="M 0.01836832325666716 0.015011843857498158 C 0.018229920175116283 0.0150074582106937 0.01642983973489961 0.014962855050476087 0.016707486278056637 0.01495921609584465 C 0.01642983973489961 0.014962855050476087 0.014897321277176714 0.01506353591451129 0.015036564738782862 0.015055511313075396" fill="none" stroke="#000000" stroke-width="0.001"/>
<path d="M 0.015036564738782862 0.015055511313075396 C 0.014933588156153126 0.01502269224013178 0.013663381322475498 0.014541505497344743 0.013800845747226028 0.01466168243775199 C 0.013663381322475498 0.014541505497344743 0.013385222391273393 0.013436963785874976 0.013386991641776496 0.013613388028188443 C 0.013385222391273393 0.013436963785874976 0.013894881361082795 0.012418942940145401 0.01377961474118879 0.01254459152999037 C 0.013894881361082795 0.012418942940145401 0.014852739108780863 0.01206902273505368 0.01477019108050455 0.01210560495004881" fill="none" stroke="none" stroke-width="0"/>
<path d="M 0.01477019108050455 0.01210560495004881 C 0.014930030249954094 0.012095046182075842 0.016990699841899264 0.011964594574864925 0.016688261113899084 0.0119788997343732 C 0.016990699841899264 0.011964594574864925 0.01854205537505734 0.0119301966444142 0.018399455816506705 0.011933943035949508" fill="none" stroke="#000000" stroke-width="0.001"/>
<path d="M 0.018399455816506705 0.011933943035949508 C 0.018481603614996307 0.011997827975551044 0.019471269511215854 0.012886520691452921 0.01938522939838193 0.012700562311167937 C 0.019471269511215854 0.012886520691452921 0.01934719499203756 0.014358050394896824 0.01943193717051379 0.014165443599369306 C 0.01934719499203756 0.014358050394896824 0.018279688763846606 0.015082377212342228 0.01836832325666716 0.015011843857498158" fill="none" stroke="none" stroke-width="0"/>
</g><g transform="translate(0.20213631102900534,0.15246036274596994) rotate(0) scale(1,1) translate(-0.0213073592558212,-0.01473294942839358)"><path d="M 0.02132351352028697 0.016497026450575644 C 0.021144445465240524 0.0164839576977982 0.01880011826803567 0.016316048482983993 0.019174696859729626 0.016340201417246326 C 0.01880011826803567 0.016316048482983993 0.01663305988331202 0.016196107057942735 0.016828570419959527 0.016207191239427626" fill="none" stroke="#000000" stroke-width="0.001"/>
<path d="M 0.016828570419959527 0.016207191239427626 C 0.016748226073106224 0.0161736630882346 0.01575061386588469 0.015671854843963495 0.015864438257719878 0.015804853425111322 C 0.01575061386588469 0.015671854843963495 0.01542919767295539 0.01451173783569891 0.015462677717937273 0.014611208265653711" fill="none" stroke="none" stroke-width="0"/>
<path d="M 0.015462677717937273 0.014611208265653711 C 0.015491103202990473 0.014532913489042417 0.01592913721668633 0.01354833849847698 0.01580378353857567 0.01367167094631819 C 0.01592913721668633 0.01354833849847698 0.017063850048322705 0.013086181220329259 0.01696692185526524 0.013131218891559177" fill="none" stroke="none" stroke-width="0"/>
<path d="M 0.01696692185526524 0.013131218891559177 C 0.017148408333907832 0.013126200188821519 0.01950511652698384 0.013057465584928313 0.01914475959897634 0.013070994458707267 C 0.01950511652698384 0.013057465584928313 0.021470075440720156 0.012960362235170433 0.02129120499135525 0.012968872406211729" fill="none" stroke="#000000" stroke-width="0.001"/>
<path d="M 0.02129120499135525 0.012968872406211729 C 0.021395994793584987 0.013042694963291693 0.02265081395830416 0.014077421969215548 0.022548682618112104 0.013854743091171315 C 0.02265081395830416 0.014077421969215548 0.022414683648841183 0.015861209222692883 0.022516781073659946 0.015641018942742523 C 0.022414683648841183 0.015861209222692883 0.021224074557505888 0.016568360409561736 0.02132351352028697 0.016497026450575644" fill="none" stroke="none" stroke-width="0"/>
</g><g transform="translate(0.1999886800025371,0.15243301125555317) rotate(0) scale(1,1) translate(-0.00967276663863141,-0.00967276663863141)"><path d="M 0.005339518536267468 0.008328633887143009 C 0.005428561210571721 0.00828953465622065 0.006474653344653692 0.007795297389305203 0.006408030627918502 0.007859443116074703 C 0.006474653344653692 0.007795297389305203 0.006116571179520684 0.00753383867006187 0.006138991137089747 0.007558885165909011" fill="none" stroke="#000000" stroke-width="0.001"/>
<path d="M 0.006138991137089747 0.007558885165909011 C 0.006416582296858464 0.007517277168986735 0.00993823254649803 0.007009210089351062 0.009470085054314343 0.007059589202841702 C 0.00993823254649803 0.007009210089351062 0.011947317375708984 0.006945564687452966 0.011756761043294012 0.00695433580402133" fill="none" stroke="#000000" stroke-width="0.001"/>
<path d="M 0.011756761043294012 0.00695433580402133 C 0.011771616275389427 0.006997186166048352 0.011935030007795793 0.007554916919231764 0.011935023828438997 0.007468540148345594 C 0.011935030007795793 0.007554916919231764 0.01174198614283693 0.008034383463514518 0.011756835195575549 0.00799085705465537" fill="none" stroke="#000000" stroke-width="0.001"/>
<path d="M 0.011756835195575549 0.00799085705465537 C 0.011558594280744 0.008005300862092663 0.008843167829321284 0.008192330813276865 0.009377944217596957 0.008164182743902895 C 0.008843167829321284 0.008192330813276865 0.005002983062823344 0.008342338149079684 0.005339518536267468 0.008328633887143009" fill="none" stroke="#000000" stroke-width="0.001"/>
</g></g>
<g transform="translate(0.2193798439177092,0.15510363692965318) rotate(0) scale(1,1) translate(-0.036352037868902266,-0.02895815024576776)"><path d="M 0.027704463511266698 0.037643730587824185 C 0.027483783551771584 0.03761496956329962 0.024457541165794874 0.03722442475532402 0.025056303997325318 0.03729859829352937 C 0.024457541165794874 0.03722442475532402 0.020141226660866048 0.03670823561567916 0.020519309532901375 0.036753648129359946" fill="none" stroke="#000000" stroke-width="0.001"/>
<path d="M 0.020519309532901375 0.036753648129359946 C 0.02043049432016553 0.03673978488397352 0.019287982740300483 0.0365383349634426 0.01945352698007124 0.0365872891847228 C 0.019287982740300483 0.0365383349634426 0.01845604962861734 0.03613110649810379 0.018532778655652258 0.03616619747399756" fill="none" stroke="#000000" stroke-width="0.001"/>
<path d="M 0.01805167945311499 0.03402562320038052 C 0.018078813393991703 0.033972323746654286 0.01844319142933632 0.03329017786106176 0.018377286743635528 0.033386029755665673 C 0.01844319142933632 0.03329017786106176 0.018881306426348613 0.03283284802425589 0.01884253568152453 0.03287540046513356" fill="none" stroke="#000000" stroke-width="0.001"/>
<path d="M 0.01884253568152453 0.03287540046513356 C 0.018776785000891402 0.03282817908299945 0.017936304522347294 0.03219969218006671 0.018053527513927015 0.0323087438795242 C 0.017936304522347294 0.03219969218006671 0.017384387471621267 0.031504949754320305 0.017435859782567863 0.03156678007164368" fill="none" stroke="#000000" stroke-width="0.001"/>
<path d="M 0.01747135730802577 0.029452265470882946 C 0.0175183363271268 0.029410117001624173 0.01814214174074372 0.02886457164539196 0.0180351055372381 0.02894648383977766 C 0.01814214174074372 0.02886457164539196 0.018815848934497822 0.02842955541312766 0.018755791750093228 0.02846931913825458" fill="none" stroke="#000000" stroke-width="0.001"/>
<path d="M 0.018755791750093228 0.02846931913825458 C 0.01868848410452036 0.028417181784260233 0.01783716302151279 0.027731450993061103 0.017948100003218812 0.02784367089032239 C 0.01783716302151279 0.027731450993061103 0.01738091863348782 0.02706259782785221 0.017424547969620972 0.02712268037111915" fill="none" stroke="#000000" stroke-width="0.001"/>
<path d="M 0.017541526835778865 0.025166615065097354 C 0.017589748395303962 0.025125923858492227 0.018239578874850292 0.024606304002240082 0.01812018555008003 0.024678320585835824 C 0.018239578874850292 0.024606304002240082 0.01904541849826718 0.024271090684957846 0.018974246733022015 0.02430241606194846" fill="none" stroke="#000000" stroke-width="0.001"/>
<path d="M 0.018974246733022015 0.02430241606194846 C 0.01897748129350162 0.0242538141197998 0.01899394802090086 0.023608427873810418 0.019013061458777288 0.02371919275616453 C 0.01899394802090086 0.023608427873810418 0.018722537480148863 0.02291107453349366 0.018744885478504895 0.02297323747369911" fill="none" stroke="#000000" stroke-width="0.001"/>
<path d="M 0.019032792579779016 0.02152510378094214 C 0.019082016310091703 0.02146854972863437 0.019762134108826455 0.020759819720203028 0.01962347734353126 0.02084645515324889 C 0.019762134108826455 0.020759819720203028 0.020786106798303856 0.020455397203653705 0.02069667376332135 0.020485478584391797" fill="none" stroke="#000000" stroke-width="0.001"/>
<path d="M 0.02069667376332135 0.020485478584391797 C 0.021463763182915416 0.020513053937360144 0.031213750827503845 0.02115025232328762 0.029901746798450125 0.020816382820011966 C 0.031213750827503845 0.02115025232328762 0.03698563672142565 0.02479820677400695 0.036440722111965994 0.02449191262369964" fill="none" stroke="#000000" stroke-width="0.001"/>
<path d="M 0.036440722111965994 0.02449191262369964 C 0.03627950418199007 0.02464168036970884 0.034287109142577 0.026696936258283663 0.03450610695225493 0.02628912557581 C 0.034287109142577 0.026696936258283663 0.03373454615085735 0.02996859971620978 0.03381274839583089 0.029385640813383587 C 0.03373454615085735 0.02996859971620978 0.03305865627219211 0.033972806557594375 0.03356768001257246 0.033284632409724325 C 0.03305865627219211 0.033972806557594375 0.027215862136157884 0.038006988769332506 0.027704463511266698 0.037643730587824185" fill="none" stroke="none" stroke-width="0"/>
</g><g transform="translate(0.20896503675351225,0.15535113512452542) rotate(0) scale(1,1) translate(-0.014303772200158306,-0.014303772200158308)"><path d="M 0.01873575518346076 0.006576988426754901 C 0.01892216697924829 0.006279889610013098 0.020140458976583276 0.004811472062702871 0.019854225958185936 0.00479439552630408 C 0.020140458976583276 0.004811472062702871 0.020778161737850534 0.006794686745315643 0.02045315329384479 0.00667944764514765 C 0.020778161737850534 0.006794686745315643 0.022057398022195928 0.005607208333170319 0.021804276622220405 0.0054858301273120365 C 0.022057398022195928 0.005607208333170319 0.02199981587227751 0.0077280313391282305 0.021971881693697924 0.007407716880297345" fill="none" stroke="#000000" stroke-width="0.001"/>
<path d="M 0.021971881693697924 0.007407716880297345 C 0.02223387741111516 0.0075547955538629395 0.02412916115014456 0.008335863833798389 0.023543855998201323 0.008290188921690912 C 0.02412916115014456 0.008335863833798389 0.02574447032814681 0.007900650872691966 0.025483712605357353 0.007681766352942206 C 0.02574447032814681 0.007900650872691966 0.025189275258899028 0.010269925993847915 0.02510840233493806 0.009603496040189473 C 0.025189275258899028 0.010269925993847915 0.026174744017273523 0.012520991818600646 0.025968950149123163 0.011680346074892857 C 0.026174744017273523 0.012520991818600646 0.026338584600930345 0.015592681656369936 0.026343165543840225 0.014647370502436205 C 0.026338584600930345 0.015592681656369936 0.026000529297975927 0.018080593252708832 0.02594146449166388 0.017352212998495244 C 0.026000529297975927 0.018080593252708832 0.026519416854440987 0.019363508984884512 0.026697554381712493 0.019017652027717734 C 0.026519416854440987 0.019363508984884512 0.024647326769525447 0.019848214898665 0.02487263932803485 0.019427354741495907 C 0.024647326769525447 0.019848214898665 0.02511413939589958 0.021825631035035552 0.02534567903065607 0.021542812970732288 C 0.02511413939589958 0.021825631035035552 0.02287362196938558 0.021219435039051177 0.02348340151949592 0.021124263127315496 C 0.02287362196938558 0.021219435039051177 0.021387601765077053 0.022278774660118197 0.021687001729994035 0.022113844441146384" fill="none" stroke="none" stroke-width="0"/>
<path d="M 0.021687001729994035 0.022113844441146384 C 0.021724192706524766 0.022440772288599718 0.021624349910080276 0.024196122313412137 0.021910147589178412 0.024075411525866383 C 0.021624349910080276 0.024196122313412137 0.019568475118464584 0.02294145144047812 0.019972215655405225 0.022838109166420907 C 0.019568475118464584 0.02294145144047812 0.019135410262755326 0.024670487404551033 0.019487704367534567 0.02469546517020966 C 0.019135410262755326 0.024670487404551033 0.01758690880326232 0.022353705472845736 0.017858451026729782 0.022688242572469153" fill="none" stroke="#000000" stroke-width="0.001"/>
<path d="M 0.017858451026729782 0.022688242572469153 C 0.017587502779368408 0.0224673752128125 0.015767504032094724 0.021346574921577308 0.016232761542561536 0.021363038414529238 C 0.015767504032094724 0.021346574921577308 0.014872596700823484 0.02279386548146229 0.01506690596392892 0.02258946161475757" fill="none" stroke="none" stroke-width="0"/>
<path d="M 0.01506690596392892 0.02258946161475757 C 0.014738854159670963 0.022028978364084413 0.012543174117025024 0.018855455474935306 0.013098595138381177 0.01922656211071863 C 0.012543174117025024 0.018855455474935306 0.011507010618693799 0.02055219841494746 0.011734379835791996 0.020362821800057627" fill="none" stroke="none" stroke-width="0"/>
<path d="M 0.011734379835791996 0.020362821800057627 C 0.01164248474237449 0.020057033846635736 0.010396755871776273 0.016202008466670272 0.010631638714781913 0.01669336635899494 C 0.010396755871776273 0.016202008466670272 0.008772797970136192 0.014280957153258868 0.008915785719724324 0.014466527092161643" fill="none" stroke="none" stroke-width="0"/>
<path d="M 0.008915785719724324 0.014466527092161643 C 0.009052174184498442 0.014356950166253216 0.010850770554647279 0.012654445970868206 0.01055244729701373 0.013151603981260519 C 0.010850770554647279 0.012654445970868206 0.012657599604186321 0.008113049882970007 0.012495664811326891 0.008500630967453892" fill="none" stroke="none" stroke-width="0"/>
<path d="M 0.012495664811326891 0.008500630967453892 C 0.012681283680348765 0.008730791944902238 0.014221051792540117 0.009485365433591958 0.013609378025458136 0.009881596832143975 C 0.014221051792540117 0.009485365433591958 0.016591762311878887 0.00549685020014143 0.01616570741381878 0.006123242576141793" fill="none" stroke="none" stroke-width="0"/>
<path d="M 0.01616570741381878 0.006123242576141793 C 0.016321271779210875 0.006418020736394165 0.017527434901111683 0.007967535846091542 0.017099093606171352 0.007891911537656024 C 0.017527434901111683 0.007967535846091542 0.019008532113008996 0.006357834574938047 0.01873575518346076 0.006576988426754901" fill="none" stroke="none" stroke-width="0"/>
</g><g id="鱗">
<g transform="translate(0.20896503675351225,0.15535113512452542) rotate(0) scale(1,1) translate(-0.022056771251806547,-0.022056771251806547)"><path d="M 0.02739391105459325 0.027347342446501804 C 0.027664464200810496 0.02692105471003988 0.03071485022095159 0.02133001640160883 0.03064054880920019 0.022231889608958742 C 0.03071485022095159 0.02133001640160883 0.028089276261144203 0.016049278487414866 0.028285527995610047 0.016524863958302854" fill="none" stroke="none" stroke-width="0"/>
<path d="M 0.028285527995610047 0.016524863958302854 C 0.028608411771223616 0.0165192881362513 0.03269225726234991 0.01660599385240196 0.032160133302972876 0.0164579540936842 C 0.03269225726234991 0.01660599385240196 0.034880255691897885 0.018454956643685294 0.03467101550813442 0.01830134106291598" fill="none" stroke="#000000" stroke-width="0.001"/>
<path d="M 0.03467101550813442 0.01830134106291598 C 0.03478841591293825 0.018584152940255415 0.03607533306141893 0.02232279911531989 0.03607982036578032 0.021695083590989216 C 0.03607533306141893 0.02232279911531989 0.0344952801466325 0.026178831001875298 0.034617167855797715 0.025833927354884063" fill="none" stroke="#000000" stroke-width="0.001"/>
<path d="M 0.034617167855797715 0.025833927354884063 C 0.0343816299813582 0.025970219853700103 0.031188775295756456 0.027595555264978023 0.031790713362523496 0.027469437340676545 C 0.031188775295756456 0.027595555264978023 0.02702751086226573 0.027337167871987242 0.02739391105459325 0.027347342446501804" fill="none" stroke="#000000" stroke-width="0.001"/>
</g><g transform="translate(0.21425881667345809,0.1552304670751212) rotate(0) scale(1,1) translate(-0.022056771251806547,-0.022056771251806547)"><path d="M 0.017988863036447634 0.027524663177338964 C 0.0182494173123162 0.02709504248409415 0.021166485061141587 0.0214073484289592 0.021115514346870437 0.022369214858401185 C 0.021166485061141587 0.0214073484289592 0.018390928046104028 0.015450020287837981 0.018600511607701445 0.01598226602403515" fill="none" stroke="none" stroke-width="0"/>
<path d="M 0.018600511607701445 0.01598226602403515 C 0.018883399901920297 0.01594614325311357 0.022523962140921817 0.015669618539606814 0.02199517113832768 0.015548792772976185 C 0.022523962140921817 0.015669618539606814 0.02519190634720637 0.017589123761154908 0.024946003638831087 0.0174321752236027" fill="none" stroke="#000000" stroke-width="0.001"/>
<path d="M 0.024946003638831087 0.0174321752236027 C 0.025080068827549377 0.017758315539119742 0.02656696338300362 0.022046899583361524 0.02655478590345055 0.02134585900980721 C 0.02656696338300362 0.022046899583361524 0.024970245684302717 0.02621956236429175 0.025092133393467934 0.02584466210625448" fill="none" stroke="#000000" stroke-width="0.001"/>
<path d="M 0.025092133393467934 0.02584466210625448 C 0.024791857233023677 0.026034281913596802 0.020896880271718498 0.02826009988361941 0.021488819468136855 0.02812009979436237 C 0.020896880271718498 0.02826009988361941 0.01769720000047353 0.02747504345925368 0.017988863036447634 0.027524663177338964" fill="none" stroke="#000000" stroke-width="0.001"/>
</g><g transform="translate(0.21002756213107415,0.1552471242751594) rotate(0) scale(1,1) translate(-0.022056771251806547,-0.022056771251806547)"><path d="M 0.016239902230357452 0.029487308641786305 C 0.01630856919827904 0.02934281274590931 0.01702126011498346 0.02742962442454967 0.017063905845416498 0.027753357891262362 C 0.01702126011498346 0.02742962442454967 0.015616840766806373 0.025423269470398288 0.015728153465160998 0.025602507041233985" fill="none" stroke="#000000" stroke-width="0.001"/>
<path d="M 0.015728153465160998 0.025602507041233985 C 0.015822622318039943 0.025438719458224523 0.01686003281527645 0.023293522148751918 0.01686177969970834 0.02363705604512042 C 0.01686003281527645 0.023293522148751918 0.015610975114667504 0.021300353971452912 0.015707190851978338 0.02148010028481195" fill="none" stroke="#000000" stroke-width="0.001"/>
<path d="M 0.015707190851978338 0.02148010028481195 C 0.01582342257946686 0.021313135460760493 0.0171356724259323 0.019134556322696613 0.017101971581840597 0.01947652239619444 C 0.0171356724259323 0.019134556322696613 0.016029070097681963 0.017201506153391628 0.01611160098107878 0.017376507402838" fill="none" stroke="#000000" stroke-width="0.001"/>
<path d="M 0.01611160098107878 0.017376507402838 C 0.016228891788914634 0.01725271530122325 0.017575966500940073 0.015592208832399881 0.01751909067510902 0.015891002183461 C 0.017575966500940073 0.015592208832399881 0.016733695909046647 0.01361598594065819 0.016794110891051445 0.013790987190104562" fill="none" stroke="#000000" stroke-width="0.001"/>
<path d="M 0.016794110891051445 0.013790987190104562 C 0.017256117082240723 0.013899749383718045 0.02303417436488556 0.015442894287768806 0.022338185185322792 0.015096133513466354 C 0.02303417436488556 0.015442894287768806 0.025379964034178137 0.01819011506242295 0.02514598104580465 0.01795211648173398" fill="none" stroke="#000000" stroke-width="0.001"/>
<path d="M 0.02514598104580465 0.01795211648173398 C 0.025263381450608476 0.018234928359073414 0.02655029859908916 0.021973574534137882 0.02655478590345055 0.02134585900980721 C 0.02655029859908916 0.021973574534137882 0.024970245684302717 0.025829606420693298 0.025092133393467934 0.02548470277370206" fill="none" stroke="#000000" stroke-width="0.001"/>
<path d="M 0.025092133393467934 0.02548470277370206 C 0.02479922920015435 0.025719769179916654 0.020839597143445732 0.02863905013728423 0.02157728307370494 0.028305499648277208 C 0.020839597143445732 0.02863905013728423 0.015795120493411828 0.02958579272457873 0.016239902230357452 0.029487308641786305" fill="none" stroke="#000000" stroke-width="0.001"/>
</g></g>
<g id="悪タトゥ">
<g id="五芒星">
<g transform="translate(0.20896503675351225,0.15535113512452542) rotate(0) scale(1,1) translate(-0.25155149516253505,-0.25573631032976507)"><path d="M 0.25808943492296316 0.2598193855520217 C 0.25756952995265664 0.2602875100899362 0.2531079415409455 0.2612994083455549 0.2538065839062211 0.26133602264043204 C 0.2531079415409455 0.2612994083455549 0.24923760200174191 0.2588601090431895 0.2497057265396565 0.25938001401349603 C 0.24923760200174191 0.2588601090431895 0.24822570374612327 0.2543985206314784 0.24818908945124613 0.2550971629967539 C 0.24822570374612327 0.2543985206314784 0.25066500304848877 0.2505281810922753 0.2501450980781822 0.2509963056301899 C 0.25066500304848877 0.2505281810922753 0.2551265914602004 0.24951628283665658 0.25442794909492483 0.24947966854177944 C 0.2551265914602004 0.24951628283665658 0.25899693099940346 0.25195558213902197 0.2585288064614889 0.25143567716871545 C 0.25899693099940346 0.25195558213902197 0.26000882925502217 0.25641717055073315 0.26004544354989934 0.25571852818545765 C 0.26000882925502217 0.25641717055073315 0.25756952995265664 0.2602875100899362 0.25808943492296316 0.2598193855520217 Z" fill="#cccccc" stroke="#000000" stroke-width="0.001"/>
</g><g transform="translate(0.2115350032703484,0.15526301201826154) rotate(0) scale(1,1) translate(-0.25613753700109465,-0.2561375370010946)"><path d="M 0.2591961066863352 0.259534422771 C 0.25879577985919916 0.2598948786651942 0.2553603567821816 0.26067404032202046 0.25589831140344377 0.2607022333290759 C 0.2553603567821816 0.26067404032202046 0.2523801953369951 0.258795779859199 0.2527406512311893 0.259196106686335 C 0.2523801953369951 0.258795779859199 0.25160103368016884 0.25536035678218155 0.2515728406731134 0.2558983114034437 C 0.25160103368016884 0.25536035678218155 0.2534792941429902 0.252380195336995 0.25307896731585416 0.2527406512311892 C 0.2534792941429902 0.252380195336995 0.25691471722000775 0.25160103368016873 0.2563767625987456 0.2515728406731133 C 0.25691471722000775 0.25160103368016873 0.2598948786651943 0.25347929414299014 0.2595344227710001 0.2530789673158541 C 0.2598948786651943 0.25347929414299014 0.26067404032202063 0.25691471722000775 0.26070223332907605 0.2563767625987456 C 0.26067404032202063 0.25691471722000775 0.25879577985919916 0.2598948786651942 0.2591961066863352 0.259534422771 Z" fill="#cccccc" stroke="#000000" stroke-width="0.001"/>
</g><g transform="translate(0.2115350032703484,0.15526301201826154) rotate(0) scale(1,1) translate(-0.03408017706782698,-0.03408017706782699)"><path d="M 0.0361354271067741 0.03418788815823959 C 0.03649032930611862 0.0347347152218396 0.03801107660556838 0.03778222260803366 0.038264840302841184 0.03746885053983965 C 0.03801107660556838 0.03778222260803366 0.03400417902651992 0.03583466557199768 0.034612844923137244 0.036068120567403675" fill="none" stroke="#000000" stroke-width="0.001"/>
<path d="M 0.034612844923137244 0.036068120567403675 C 0.034202452291952415 0.03657463147237431 0.03177403729353473 0.03896267967397139 0.03215048913602825 0.03910718599722747 C 0.03177403729353473 0.03896267967397139 0.03238807465686743 0.034550065399640485 0.03235413386817612 0.0352010826278672" fill="none" stroke="#000000" stroke-width="0.001"/>
<path d="M 0.03235413386817612 0.0352010826278672 C 0.03174559507402688 0.0349672965192115 0.028724004766764972 0.033395684088377495 0.028702901103280682 0.03379836597593305 C 0.028724004766764972 0.033395684088377495 0.03311039830671538 0.03261609552363401 0.032480755849081853 0.03278499130253387" fill="none" stroke="#000000" stroke-width="0.001"/>
<path d="M 0.032480755849081853 0.03278499130253387 C 0.03251505082200958 0.032133992636316444 0.03307602031046219 0.028774634535322113 0.03268652568664823 0.028878999305229323 C 0.03307602031046219 0.028774634535322113 0.03517292324285181 0.03270543657940084 0.03481772359196558 0.03215880268309062" fill="none" stroke="#000000" stroke-width="0.001"/>
<path d="M 0.03481772359196558 0.03215880268309062 C 0.03544745784502742 0.031990249489393094 0.03881574636280467 0.031485664433430274 0.03859612911033659 0.031147483520905447 C 0.03881574636280467 0.031485664433430274 0.03572531010618035 0.03469462226446195 0.0361354271067741 0.03418788815823959" fill="none" stroke="#000000" stroke-width="0.001"/>
</g><g transform="translate(0.2115350032703484,0.15526301201826154) rotate(0) scale(1,1) translate(-0.03408017706782698,-0.03408017706782699)"><path d="M 0.034612844923137244 0.036068120567403675 C 0.03398262938337091 0.03623698631234161 0.03199878568916689 0.03465389441705556 0.03235413386817612 0.0352010826278672 C 0.03199878568916689 0.03465389441705556 0.0328913541363801 0.03227794464507111 0.032480755849081853 0.03278499130253387 C 0.0328913541363801 0.03227794464507111 0.035426835468247625 0.032392618825708236 0.03481772359196558 0.03215880268309062 C 0.035426835468247625 0.032392618825708236 0.03610128066196938 0.03483944113895843 0.0361354271067741 0.03418788815823959 C 0.03610128066196938 0.03483944113895843 0.03398262938337091 0.03623698631234161 0.034612844923137244 0.036068120567403675 Z" fill="#cccccc" stroke="#000000" stroke-width="0.001"/>
</g></g>
</g>
<g id="グローブ">
<g transform="translate(0.20896503675351225,0.15535113512452542) rotate(0) scale(1,1) translate(-0.003389818855922237,-0.0033898188559222373)"><path d="M 0.013893310271561779 -0.0013239169567278838 C 0.014040436575448782 -0.0011601579777978733 0.015861702688304488 0.0010193881953922382 0.015658825918205808 0.000641190790432244 C 0.015861702688304488 0.0010193881953922382 0.016321025807469483 0.003659417163795231 0.01632783151274596 0.003214451902792047 C 0.016321025807469483 0.003659417163795231 0.015398883739644266 0.006345979838774778 0.01557715745488807 0.005980773922470454 C 0.015398883739644266 0.006345979838774778 0.014072829386064674 0.007731601979775057 0.01418854692982032 0.007596922898443934" fill="none" stroke="none" stroke-width="0"/>
<path d="M 0.01418854692982032 0.007596922898443934 C 0.013974163127070617 0.007845869803067576 0.011246061941732055 0.010946593752564973 0.01161594129682389 0.010584285753927648 C 0.011246061941732055 0.010946593752564973 0.009594499116376163 0.012057979976105509 0.009749994668718296 0.011944618882091827" fill="none" stroke="#000000" stroke-width="0.001"/>
<path d="M 0.009749994668718296 0.011944618882091827 C 0.009198985604697792 0.011627420039140513 0.002094404176654575 0.007489601709200032 0.0031378859004722423 0.008138232766676062 C 0.002094404176654575 0.007489601709200032 -0.0032642586768908727 0.0038296139778547585 -0.00277178601709371 0.004161046192379474" fill="none" stroke="#000000" stroke-width="0.001"/>
<path d="M -0.00277178601709371 0.004161046192379474 C -0.002228912055500439 0.0037581989229184855 0.0047055214203860045 -0.0014147951101430667 0.003742701522025545 -0.0006731210411523915 C 0.0047055214203860045 -0.0014147951101430667 0.009201998699998987 -0.005077869435038315 0.0087820527632318 -0.004739042635508628" fill="none" stroke="#000000" stroke-width="0.001"/>
<path d="M 0.0087820527632318 -0.004739042635508628 C 0.008999702852670167 -0.004622816328097156 0.011819791962186386 -0.0030597331400059034 0.011393853836492222 -0.0033443269465709656 C 0.011819791962186386 -0.0030597331400059034 0.014101598307817573 -0.0011555494575742932 0.013893310271561777 -0.0013239169567278834" fill="none" stroke="#000000" stroke-width="0.001"/>
</g><g transform="translate(0.20931791941961556,0.1512881952274508) rotate(0) scale(1,1) translate(-0.004561674574908911,-0.004561674574908911)"><path d="M -0.0026329495570143347 0.009374227230790247 C -0.0020537242624215505 0.008942083465599196 0.0052867731897410985 0.0034292095495836684 0.004317753978099079 0.004188502048497645 C 0.0052867731897410985 0.0034292095495836684 0.009385074899739136 -6.443148990040561E-05 0.008995280982689901 0.0002627172438225214" fill="none" stroke="#000000" stroke-width="0.001"/>
<path d="M 0.008995280982689901 0.0002627172438225214 C 0.00903861549770404 0.0002784108598804014 0.009584802914247795 0.000476484726677709 0.00951529516285956 0.00045104063651708166 C 0.009584802914247795 0.000476484726677709 0.009855547235722845 0.0005777967998527966 0.009829373999348747 0.0005680463257500493" fill="none" stroke="#000000" stroke-width="0.001"/>
<path d="M 0.009829373999348747 0.0005680463257500493 C 0.009416144950807451 0.0009228234621572471 0.003952902774675223 0.005557998361404163 0.004870625416853213 0.004825371962636423 C 0.003952902774675223 0.005557998361404163 -0.0016877913004238409 0.009737412373323479 -0.0011832977067871445 0.009359563110962936" fill="none" stroke="#000000" stroke-width="0.001"/>
<path d="M -0.0011832977067871445 0.009359563110962936 C -0.0012436998672132773 0.00936017411595574 -0.0020289279527530056 0.009368117180862202 -0.0019081236319007397 0.009366895170876592 C -0.0020289279527530056 0.009368117180862202 -0.002693351717440468 0.009374838235783051 -0.0026329495570143347 0.009374227230790247" fill="none" stroke="none" stroke-width="0"/>
</g><g transform="translate(0.20871310379806224,0.16009954903527923) rotate(0) scale(1,1) translate(-0.004561674574908911,-0.004561674574908911)"><path d="M -0.002028133935461009 0.0005628734229617793 C -0.0019677317750348765 0.0005622624179689758 -0.0011825036894951499 0.000554319353062531 -0.0013033080103474154 0.0005555413630481379 C -0.0011825036894951499 0.000554319353062531 -0.0005180799248076903 0.0005475982981416929 -0.000578482085233823 0.0005482093031344964" fill="none" stroke="none" stroke-width="0"/>
<path d="M -0.000578482085233823 0.0005482093031344964 C -0.00011433080483545121 0.0008637802783852543 0.005998905050286208 0.004972319650294921 0.004991333279546638 0.00433506100614359 C 0.005998905050286208 0.004972319650294921 0.01205579965398221 0.008517000701851043 0.011512379163641012 0.00819531303295047" fill="none" stroke="#000000" stroke-width="0.001"/>
<path d="M 0.011512379163641012 0.00819531303295047 C 0.011485305099639086 0.008210989293035549 0.011121225854668298 0.008420670157164812 0.011187490395617916 0.008383428153971424 C 0.011121225854668298 0.008420670157164812 0.010678014195297895 0.008663782814379439 0.01071720467224559 0.00864221707127113" fill="none" stroke="#000000" stroke-width="0.001"/>
<path d="M 0.01071720467224559 0.00864221707127113 C 0.0102192652527049 0.008351918892906365 0.003679820087115102 0.004485360293534829 0.004741931637757319 0.005158638930893942 C 0.003679820087115102 0.004485360293534829 -0.0025923060665625362 0.00017989296396743243 -0.002028133935461009 0.0005628734229617793" fill="none" stroke="#000000" stroke-width="0.001"/>
</g></g>
</svg>
