<?xml version="1.0" encoding="UTF-8"?>
<svg xmlns="http://www.w3.org/2000/svg" viewBox="0 0 1 1">
<g id="親指">
<g transform="translate(0.21383910021809663,0.15598054620643084) rotate(0) scale(1,1) translate(-0.02374131944444444,-0.01749131944444444)"><path d="M 0.027540943130149043 0.020402610155293235 C 0.027155780548852527 0.02058692310003521 0.022067313712612367 0.02285444509159339 0.022918992154590853 0.02261436549219692 C 0.022067313712612367 0.02285444509159339 0.01685428596572524 0.02333933200270538 0.01732080182640721 0.023283565348050882" fill="none" stroke="#000000" stroke-width="0.001"/>
<path d="M 0.01732080182640721 0.023283565348050882 C 0.017188994878658582 0.02327981183673514 0.015516764052419108 0.023138913981081078 0.015739118453423684 0.023238523212261997 C 0.015516764052419108 0.023138913981081078 0.014565755072412093 0.02186059190626605 0.014652549014352303 0.022088254573879865 C 0.014565755072412093 0.02186059190626605 0.014797200381322073 0.020284216799891643 0.014697591150141156 0.02050657120089622 C 0.014797200381322073 0.020284216799891643 0.015943715508388488 0.01932945430856898 0.015847859788523308 0.019420001761824922" fill="none" stroke="#000000" stroke-width="0.001"/>
<path d="M 0.015847859788523308 0.019420001761824922 C 0.016054417163960114 0.01912883606338246 0.018731885030309457 0.015486348726500284 0.018326548293764997 0.015926013380515382 C 0.018731885030309457 0.015486348726500284 0.02091067998816446 0.013995526958071115 0.02071190062705681 0.01414402591364375" fill="none" stroke="#000000" stroke-width="0.001"/>
<path d="M 0.02071190062705681 0.01414402591364375 C 0.020862002857506463 0.01418458188729635 0.022858790304861758 0.014769462720898395 0.022513127392452644 0.014630697597474934 C 0.022858790304861758 0.014769462720898395 0.025199166162905073 0.016073088013011664 0.02485985557596618 0.01580920739472528 C 0.025199166162905073 0.016073088013011664 0.02680827839856792 0.018180048580292218 0.026584854435719348 0.017797265016911555 C 0.02680827839856792 0.018180048580292218 0.027620617188018184 0.020619722250158373 0.027540943130149043 0.020402610155293235" fill="none" stroke="none" stroke-width="0"/>
</g><g transform="translate(0.2066821115811174,0.1598410103169243) rotate(0) scale(1,1) translate(-0.018110482705012847,-0.015186404574128454)"><path d="M 0.017993166979356136 0.017243091386498585 C 0.01783635096055754 0.017224648041136603 0.01574964100442652 0.01701309631601237 0.016111374753773 0.01702177124215479 C 0.01574964100442652 0.01701309631601237 0.01344744425665047 0.017148760692009095 0.013652361987198356 0.017138992272789533" fill="none" stroke="#000000" stroke-width="0.001"/>
<path d="M 0.013652361987198356 0.017138992272789533 C 0.013566787178584698 0.01711084638602654 0.012495092185077545 0.016685279196531583 0.012625464283834448 0.01680124163163362 C 0.012495092185077545 0.016685279196531583 0.012065321385307798 0.015563581036327215 0.01208789680211551 0.01574744305156512 C 0.012065321385307798 0.015563581036327215 0.012453004920273136 0.014450839728326118 0.01235455928214191 0.014594897448778763 C 0.012453004920273136 0.014450839728326118 0.013345468224485908 0.013970738152579602 0.013269244459690216 0.014018750406133384" fill="none" stroke="#000000" stroke-width="0.001"/>
<path d="M 0.013269244459690216 0.014018750406133384 C 0.013477217301373905 0.01399093987654887 0.016162752388638 0.013619999541101937 0.015764918559894477 0.013685024051119233 C 0.016162752388638 0.013619999541101937 0.018233111391672337 0.01320124230549305 0.0180432504046125 0.013238456285925832" fill="none" stroke="#000000" stroke-width="0.001"/>
<path d="M 0.0180432504046125 0.013238456285925832 C 0.018138773245861568 0.013335036059685224 0.01928519205709756 0.014635910269183866 0.01918952449960133 0.01439741357103852 C 0.01928519205709756 0.014635910269183866 0.019091564634546844 0.016337556481625003 0.019191261094567275 0.016100416663669997 C 0.019091564634546844 0.016337556481625003 0.01789332580308854 0.017338314280067633 0.017993166979356136 0.017243091386498585" fill="none" stroke="none" stroke-width="0"/>
</g><g transform="translate(0.2020324320995488,0.16023347708225727) rotate(0) scale(1,1) translate(-0.017815859593261256,-0.014881607178823718)"><path d="M 0.017774430385106593 0.01633220887258408 C 0.017655900174227412 0.016313862163522222 0.016103952184322402 0.016087197255252192 0.016352067854556417 0.01611204836384181 C 0.016103952184322402 0.016087197255252192 0.01466745688294361 0.016027491169980902 0.014797042342298441 0.016033995569508665" fill="none" stroke="#000000" stroke-width="0.001"/>
<path d="M 0.014797042342298441 0.016033995569508665 C 0.014629481556983303 0.016037321014491023 0.012582889734661946 0.01600750044260074 0.012786312918516791 0.01607390090929697 C 0.012582889734661946 0.01600750044260074 0.012400000119584201 0.015070669434985319 0.012355964136040292 0.015237189969153908 C 0.012400000119584201 0.015070669434985319 0.013536562228374401 0.01391721781655697 0.01331474472104371 0.014075654499273896 C 0.013536562228374401 0.01391721781655697 0.015159693349255642 0.01327430771632386 0.01501777422400857 0.013335949776550787" fill="none" stroke="#000000" stroke-width="0.001"/>
<path d="M 0.01501777422400857 0.013335949776550787 C 0.01513837883398522 0.013321511783186102 0.01669903931856781 0.013158911181949132 0.016465029543728374 0.013162693856174575 C 0.01669903931856781 0.013158911181949132 0.017939296686944585 0.013301213004984705 0.017825891522081798 0.013290557685845463" fill="none" stroke="#000000" stroke-width="0.001"/>
<path d="M 0.017825891522081798 0.013290557685845463 C 0.01789403948949802 0.013373715151053699 0.018711173203067512 0.014476811468108607 0.01864366713107645 0.014288447268344284 C 0.018711173203067512 0.014476811468108607 0.018563527990477023 0.015721241550037332 0.01863596438597451 0.015550928083017349 C 0.018563527990477023 0.015721241550037332 0.017702635885034266 0.016397315605047973 0.017774430385106593 0.01633220887258408" fill="none" stroke="none" stroke-width="0"/>
</g><g transform="translate(0.2045097755329383,0.16000800338943286) rotate(0) scale(1,1) translate(-0.00967276663863141,-0.00967276663863141)"><path d="M 0.006467055693877242 0.008990140038434279 C 0.006521337831008136 0.008913789745363098 0.007173392361943709 0.007924507218072035 0.007118441339447964 0.008073936521580099 C 0.007173392361943709 0.007924507218072035 0.007127136849191029 0.007123909385900626 0.007126467963826178 0.0071969883963375085" fill="none" stroke="none" stroke-width="0"/>
<path d="M 0.007126467963826178 0.0071969883963375085 C 0.007367511293685146 0.0072325897503596704 0.010408983680103437 0.007650179846371419 0.010018987922133798 0.007624204644603456 C 0.010408983680103437 0.007650179846371419 0.011955369487572517 0.007499064665298867 0.011806417059461847 0.007508690817553066" fill="none" stroke="none" stroke-width="0"/>
<path d="M 0.011806417059461847 0.007508690817553066 C 0.011844811792839326 0.007554055187924039 0.012279025430224131 0.008169985361775196 0.012267153859991605 0.008053063262004737 C 0.012279025430224131 0.008169985361775196 0.011922352739107198 0.00898331374419807 0.011948875902252153 0.008911756014798582" fill="none" stroke="none" stroke-width="0"/>
<path d="M 0.011948875902252153 0.008911756014798582 C 0.011676649298976112 0.008938567952941949 0.008225338312241764 0.00924003127448863 0.008682156662939674 0.00923349927251899 C 0.008225338312241764 0.00924003127448863 0.006282463946455373 0.008969860102260554 0.006467055693877242 0.008990140038434279" fill="none" stroke="none" stroke-width="0"/>
</g></g>
<g id="人指">
<g transform="translate(0.19717327238878118,0.16009330238387245) rotate(0) scale(1,1) translate(-0.018347050754458152,-0.012212198913662067)"><path d="M 0.01693090208968957 0.01200195900786709 C 0.01695357238322045 0.011892506608274173 0.017252689382592813 0.010428003066625644 0.017202945612060105 0.010688530212752092 C 0.017252689382592813 0.010428003066625644 0.01755490081308389 0.008724558507816192 0.01752782733608206 0.008875633254349723" fill="none" stroke="#000000" stroke-width="0.001"/>
<path d="M 0.01752782733608206 0.008875633254349723 C 0.01757139601481728 0.008819070385460242 0.018179174975799916 0.00812720322595928 0.018050651480904695 0.008196878827675953 C 0.018179174975799916 0.00812720322595928 0.019231639665451883 0.008064431965207924 0.019070109274824717 0.008039526033749654 C 0.019231639665451883 0.008064431965207924 0.020088931142695877 0.008600647912943678 0.01998901616843071 0.008495750005175195 C 0.020088931142695877 0.008600647912943678 0.020292428365804725 0.009365180170454469 0.020269088966006724 0.009298300926971448" fill="none" stroke="#000000" stroke-width="0.001"/>
<path d="M 0.020269088966006724 0.009298300926971448 C 0.020244495141537786 0.009448338493679733 0.01993839755441002 0.011360022989193573 0.01997396307237949 0.011098751727470872 C 0.01993839755441002 0.011360022989193573 0.0198313310568726 0.012544789762658283 0.01984230275037313 0.012433556067643866" fill="none" stroke="#000000" stroke-width="0.001"/>
<path d="M 0.01984230275037313 0.012433556067643866 C 0.019754706652065798 0.012500585938162858 0.0186091850639463 0.013286662210747303 0.018791149570685117 0.013237914513871768 C 0.0186091850639463 0.013286662210747303 0.01750370804609103 0.012915532137983228 0.017658728669507327 0.013018528430150285 C 0.01750370804609103 0.012915532137983228 0.016870249874704757 0.01191724488934349 0.01693090208968957 0.01200195900786709" fill="none" stroke="none" stroke-width="0"/>
</g><g transform="translate(0.1998541425019173,0.16194175860793142) rotate(0) scale(1,1) translate(-0.018347050754458152,-0.013480335131195698)"><path d="M 0.017506426462299916 0.014671809777427191 C 0.01742120020439153 0.014614314168450026 0.01626100794254498 0.013827341989857474 0.016483711367399276 0.01398186246970122 C 0.01626100794254498 0.013827341989857474 0.014696508197102455 0.012720539148435643 0.014833985364048364 0.012817564019302227" fill="none" stroke="#000000" stroke-width="0.001"/>
<path d="M 0.014833985364048364 0.012817564019302227 C 0.014787363011568978 0.01273305567258119 0.014258474378175323 0.011622271463848179 0.014274517134295731 0.011803463858649792 C 0.014258474378175323 0.011622271463848179 0.014672051886962433 0.01054657123360228 0.014641472290603455 0.010643255281682857" fill="none" stroke="#000000" stroke-width="0.001"/>
<path d="M 0.014641472290603455 0.010643255281682857 C 0.014702722781693722 0.010610521357838704 0.015531220152686003 0.010234026404993726 0.01537647818368665 0.010250448195553027 C 0.015531220152686003 0.010234026404993726 0.016591867396504787 0.010462505928256097 0.0164983759185957 0.010446193794971246" fill="none" stroke="none" stroke-width="0"/>
<path d="M 0.0164983759185957 0.010446193794971246 C 0.01663700087246412 0.010541163584913119 0.018391393596281017 0.011730934058768657 0.018161875365016747 0.011585831274273713 C 0.018391393596281017 0.011730934058768657 0.01934348797116279 0.012237560203463657 0.019252594693766938 0.012187427208910584" fill="none" stroke="#000000" stroke-width="0.001"/>
<path d="M 0.019252594693766938 0.012187427208910584 C 0.019275348319197774 0.012285558070088897 0.01947825020220325 0.01356625927387359 0.01952563819893695 0.013364997543050346 C 0.01947825020220325 0.01356625927387359 0.018515671088242775 0.014711468998320912 0.018683938732962528 0.014602567978789508 C 0.018515671088242775 0.014711468998320912 0.017408300439744697 0.014677579927313665 0.017506426462299916 0.014671809777427191" fill="none" stroke="none" stroke-width="0"/>
</g><g transform="translate(0.20379610708936782,0.16056079866402695) rotate(0) scale(1,1) translate(-0.0213073592558212,-0.01473294942839358)"><path d="M 0.021896213264933784 0.016305846711038956 C 0.021731762238720122 0.016352461768082256 0.019589154300485096 0.016969906129503713 0.019922800950369822 0.016865227395558555 C 0.019589154300485096 0.016969906129503713 0.01772325784264601 0.017620055195282716 0.017892453466317074 0.017561991518380858" fill="none" stroke="#000000" stroke-width="0.001"/>
<path d="M 0.017892453466317074 0.017561991518380858 C 0.01780242250739427 0.017555444152065933 0.016657143382080027 0.017411757326406284 0.016812081959243427 0.017483423122601753 C 0.016657143382080027 0.017411757326406284 0.015968282922115676 0.01663688353415469 0.016033190540356273 0.016702001964035235" fill="none" stroke="#000000" stroke-width="0.001"/>
<path d="M 0.016033190540356273 0.016702001964035235 C 0.016032685358530727 0.01661397601916327 0.016094223802622057 0.015476009397419985 0.016027128358449723 0.015645690625571647 C 0.016094223802622057 0.015476009397419985 0.016905936496422153 0.014584171942935605 0.016838335870424274 0.0146658272262153" fill="none" stroke="none" stroke-width="0"/>
<path d="M 0.016838335870424274 0.0146658272262153 C 0.017004435399379365 0.014606201360285682 0.019154877665909016 0.013824835578354308 0.018831530217885355 0.013950316835059892 C 0.019154877665909016 0.013824835578354308 0.020875753165776778 0.013094196754972334 0.020718505246708208 0.013160052145748299" fill="none" stroke="#000000" stroke-width="0.001"/>
<path d="M 0.020718505246708208 0.013160052145748299 C 0.020827443104530656 0.013193068337296866 0.022183252318820137 0.013715260397146314 0.022025759540577606 0.013556246444331113 C 0.022183252318820137 0.013715260397146314 0.02259762306264828 0.015297352935089707 0.022608418585618597 0.015068219579530721 C 0.02259762306264828 0.015297352935089707 0.021836862821543384 0.016408982305331308 0.021896213264933784 0.016305846711038956" fill="none" stroke="none" stroke-width="0"/>
</g><g transform="translate(0.2018659134176742,0.16123562135094258) rotate(0) scale(1,1) translate(-0.00967276663863141,-0.00967276663863141)"><path d="M 0.005211838200942243 0.00808568092836018 C 0.005373641441914315 0.007919846881613122 0.007309246768746171 0.005607604021057043 0.007153477092607114 0.006095672367395488 C 0.007309246768746171 0.005607604021057043 0.007075040749777907 0.0019066264727074535 0.007081074314610923 0.002228860772298841" fill="none" stroke="#000000" stroke-width="0.001"/>
<path d="M 0.007081074314610923 0.002228860772298841 C 0.007369377817492837 0.0025224657319974303 0.01089316340866719 0.006120584078176927 0.010540716349193898 0.005752120288681914 C 0.01089316340866719 0.006120584078176927 0.011374582584881793 0.006725285076035415 0.011310439028290417 0.006650426246238992" fill="none" stroke="none" stroke-width="0"/>
<path d="M 0.011310439028290417 0.006650426246238992 C 0.011333488807930836 0.006716250554926047 0.011568595320162765 0.007567308225796027 0.011587036383975433 0.007440317950483653 C 0.011568595320162765 0.007567308225796027 0.011047655419085313 0.008235475516612798 0.0110891462625384 0.00817430954998748" fill="none" stroke="none" stroke-width="0"/>
<path d="M 0.0110891462625384 0.00817430954998748 C 0.010803219722215172 0.008258534429563442 0.007168252106859984 0.009177622386430082 0.007658027778659664 0.009185008104899023 C 0.007168252106859984 0.009177622386430082 0.005007989069465791 0.007994070330315276 0.005211838200942243 0.00808568092836018" fill="none" stroke="#000000" stroke-width="0.001"/>
</g></g>
<g id="中指">
<g transform="translate(0.20158777621984583,0.15102925579679513) rotate(0) scale(1,1) translate(-0.018347050754458152,-0.012212198913662067)"><path d="M 0.01882364186506032 0.01086218455373476 C 0.018926757619860797 0.010905322832529284 0.020307279892448224 0.011478384659651855 0.020061030922666048 0.011379843899269052 C 0.020307279892448224 0.011478384659651855 0.02192176271742814 0.012100076159916677 0.02177862950244644 0.012044673678328397" fill="none" stroke="#000000" stroke-width="0.001"/>
<path d="M 0.02177862950244644 0.012044673678328397 C 0.021825839856302796 0.012098234581910196 0.022389025774447634 0.012826861409176648 0.022345153748722698 0.012687404521309995 C 0.022389025774447634 0.012826861409176648 0.0222498240202388 0.013871966679360323 0.022305093811145676 0.013718156332728236 C 0.0222498240202388 0.013871966679360323 0.021559880944225233 0.014611192471268781 0.021681916257840193 0.014533128680895034 C 0.021559880944225233 0.014611192471268781 0.020770566196926663 0.014665071245239712 0.020840670047766165 0.014654921817213198" fill="none" stroke="#000000" stroke-width="0.001"/>
<path d="M 0.020840670047766165 0.014654921817213198 C 0.02069808181668637 0.01460215133319722 0.01887992652280177 0.013936911022819187 0.01912961127480864 0.014021676009021471 C 0.01887992652280177 0.013936911022819187 0.01773735650275666 0.013605747480599473 0.017844453023683735 0.01363774198278578" fill="none" stroke="#000000" stroke-width="0.001"/>
<path d="M 0.017844453023683735 0.01363774198278578 C 0.01779015458990888 0.013534175367975463 0.017173790355426762 0.012204485433452681 0.017192871818385486 0.012394942605061975 C 0.017173790355426762 0.012204485433452681 0.01775137297206861 0.011224526085863643 0.017615475468179043 0.011352255923474244 C 0.01775137297206861 0.011224526085863643 0.01892432239813376 0.010821345272923137 0.01882364186506032 0.01086218455373476" fill="none" stroke="none" stroke-width="0"/>
</g><g transform="translate(0.20013041405160986,0.15394129125096878) rotate(0) scale(1,1) translate(-0.018347050754458152,-0.013480335131195698)"><path d="M 0.01705017916809811 0.012813712958094206 C 0.017095254031164707 0.012721314274076247 0.01771309989582177 0.011462887565104394 0.01759107752489729 0.011704928749878695 C 0.01771309989582177 0.011462887565104394 0.01859139512704978 0.009759576240046239 0.018514447619191896 0.009909218740802582" fill="none" stroke="#000000" stroke-width="0.001"/>
<path d="M 0.018514447619191896 0.009909218740802582 C 0.01858707206833323 0.009844355648714687 0.01955161783814021 0.009071304760697665 0.01938594100888791 0.009130861635747844 C 0.01955161783814021 0.009071304760697665 0.02065459343915314 0.009272209673425682 0.020502569570219502 0.00919453624020043 C 0.02065459343915314 0.009272209673425682 0.021259544824089645 0.010232346532204272 0.021210227436091567 0.01006294283445085 C 0.021259544824089645 0.010232346532204272 0.021084724125371844 0.011324417094807375 0.021094378226196437 0.01122738061324149" fill="none" stroke="#000000" stroke-width="0.001"/>
<path d="M 0.021094378226196437 0.01122738061324149 C 0.021019625540422228 0.011377873718751904 0.020085598106707004 0.01328077685945761 0.020197345996905917 0.013033297879366464 C 0.020085598106707004 0.01328077685945761 0.019716408339384792 0.01429411424891597 0.019753403543809493 0.014197128374335238" fill="none" stroke="#000000" stroke-width="0.001"/>
<path d="M 0.019753403543809493 0.014197128374335238 C 0.019661836120534012 0.014241440058666236 0.018448982350767272 0.014721664367745552 0.01865459446450373 0.014728868586307226 C 0.018448982350767272 0.014721664367745552 0.017152356904271505 0.013951081449244063 0.017286058178971973 0.014110677751595148 C 0.017152356904271505 0.013951081449244063 0.01703052258385862 0.012705632558635794 0.01705017916809811 0.012813712958094206" fill="none" stroke="none" stroke-width="0"/>
</g><g transform="translate(0.2033904574767215,0.15655246953706273) rotate(0) scale(1,1) translate(-0.0213073592558212,-0.01473294942839358)"><path d="M 0.02028551179307381 0.01606583452046953 C 0.020158834215882483 0.015951074357508626 0.01849980247852684 0.014461235436388057 0.018765380866777873 0.014688712564938687 C 0.01849980247852684 0.014461235436388057 0.016959670323001705 0.013223392012272234 0.01709857113406141 0.01333610897786196" fill="none" stroke="#000000" stroke-width="0.001"/>
<path d="M 0.01709857113406141 0.01333610897786196 C 0.01705150983848102 0.013263984872125378 0.016503976576684412 0.012316431774601698 0.016533835587096698 0.012470619709022962 C 0.016503976576684412 0.012316431774601698 0.016757465294282067 0.011403789936122096 0.01674026300911396 0.011485853764806778" fill="none" stroke="#000000" stroke-width="0.001"/>
<path d="M 0.01674026300911396 0.011485853764806778 C 0.01682828924045531 0.011414657902133857 0.01798456091173049 0.010583301707892612 0.01779657778521017 0.010631503412731738 C 0.01798456091173049 0.010583301707892612 0.01909601742253679 0.010930427464571055 0.01899606052735782 0.010907433306737262" fill="none" stroke="none" stroke-width="0"/>
<path d="M 0.01899606052735782 0.010907433306737262 C 0.01913464546961447 0.01101669680103742 0.020936842017038507 0.01242631449080418 0.020659079834437644 0.012218595238339154 C 0.020936842017038507 0.01242631449080418 0.022468383958912392 0.013498520094482429 0.02232920671856818 0.013400064336317562" fill="none" stroke="#000000" stroke-width="0.001"/>
<path d="M 0.02232920671856818 0.013400064336317562 C 0.022369011857771706 0.013509085375776893 0.02276516535594607 0.014933800931504702 0.022806868389010457 0.014708316809829522 C 0.02276516535594607 0.014933800931504702 0.02161865727213417 0.016219000272306383 0.021828770321795556 0.016105873796419715 C 0.02161865727213417 0.016219000272306383 0.020156906915680332 0.01606249791414035 0.02028551179307381 0.01606583452046953" fill="none" stroke="none" stroke-width="0"/>
</g><g transform="translate(0.20179532857150806,0.15527317401030807) rotate(0) scale(1,1) translate(-0.00967276663863141,-0.00967276663863141)"><path d="M 0.007602582270419813 0.007240815312409238 C 0.007649191930682176 0.0071414475887324625 0.0082142917237744 0.005765983725725338 0.008161898193568166 0.006048402628287939 C 0.0082142917237744 0.005765983725725338 0.008237088502838497 0.0036687373027722093 0.008231304632894626 0.0038517884816580347" fill="none" stroke="#000000" stroke-width="0.001"/>
<path d="M 0.008231304632894626 0.0038517884816580347 C 0.008423755609252898 0.004010149465576691 0.010813067461846064 0.006079879580612092 0.010540716349193898 0.005752120288681914 C 0.010813067461846064 0.006079879580612092 0.011579418121014508 0.0079542982928317 0.011499517984720615 0.007784899984820178" fill="none" stroke="none" stroke-width="0"/>
<path d="M 0.011499517984720615 0.007784899984820178 C 0.011522567764361034 0.007850724293507232 0.011757297003164033 0.00871473121944089 0.011776115340405631 0.008574791689064838 C 0.011757297003164033 0.00871473121944089 0.011231829820939418 0.009538289571021805 0.011273697937821434 0.009464174349332808" fill="none" stroke="none" stroke-width="0"/>
<path d="M 0.011273697937821434 0.009464174349332808 C 0.011190725763969156 0.009419376503369888 0.009972105545977293 0.008741320278034122 0.010278031851594096 0.008926600197777752 C 0.009972105545977293 0.008741320278034122 0.0073796281386552896 0.007100333238628528 0.007602582270419813 0.007240815312409238" fill="none" stroke="#000000" stroke-width="0.001"/>
</g></g>
<g id="薬指">
<g transform="translate(0.2033592850254881,0.14680314031330924) rotate(0) scale(1,1) translate(-0.018347050754458152,-0.012212198913662067)"><path d="M 0.01938459023729384 0.011225695147692576 C 0.019456882678819842 0.011310945208593642 0.020426772405205518 0.01244829103175669 0.020252099535605837 0.012248695878505371 C 0.020426772405205518 0.01244829103175669 0.021583045100563688 0.013735182079058638 0.021480664672490008 0.013620836986708388" fill="none" stroke="#000000" stroke-width="0.001"/>
<path d="M 0.021480664672490008 0.013620836986708388 C 0.021498413264401654 0.013689993153381319 0.02166942593436532 0.014594885466599193 0.02169364777542976 0.01445071098678356 C 0.02166942593436532 0.014594885466599193 0.021070928399295592 0.015462884806838542 0.021190002579716757 0.015350930744495995 C 0.021070928399295592 0.015462884806838542 0.02012058313056015 0.01580831220840609 0.02026475761037578 0.01579415973489412 C 0.02012058313056015 0.01580831220840609 0.019392838089558648 0.01549797715095176 0.019459908821929196 0.015520760426639633" fill="none" stroke="#000000" stroke-width="0.001"/>
<path d="M 0.019459908821929196 0.015520760426639633 C 0.019356819076174533 0.01540900787881191 0.018038843628291164 0.013990849191637011 0.018222831872873244 0.01417972985270694 C 0.018038843628291164 0.013990849191637011 0.01717115138811683 0.013177064380558275 0.017252049886944246 0.01325419249380048" fill="none" stroke="#000000" stroke-width="0.001"/>
<path d="M 0.017252049886944246 0.01325419249380048 C 0.017253792399155865 0.013145527789308838 0.017347553305185674 0.011774128892027454 0.01727296003348369 0.011950216039900777 C 0.017347553305185674 0.011774128892027454 0.018323138331018906 0.01108076997830325 0.01814716914736806 0.0111411467193206 C 0.018323138331018906 0.01108076997830325 0.01948770866145432 0.011232740850056907 0.01938459023729384 0.011225695147692576" fill="none" stroke="none" stroke-width="0"/>
</g><g transform="translate(0.20115571284341943,0.14920066499810042) rotate(0) scale(1,1) translate(-0.018347050754458152,-0.013480335131195698)"><path d="M 0.017284163747062153 0.01248207051563157 C 0.017352961015321425 0.012405675515999491 0.018293741989560686 0.011366299523955715 0.018109730966173396 0.011565330520046628 C 0.018293741989560686 0.011366299523955715 0.019607509782837644 0.0099710625660818 0.019492296027709625 0.010093698562540634" fill="none" stroke="#000000" stroke-width="0.001"/>
<path d="M 0.019492296027709625 0.010093698562540634 C 0.019579985820051035 0.010051366167765398 0.020720248425230833 0.009574126805657529 0.020544573535806528 0.009585709825237805 C 0.020720248425230833 0.009574126805657529 0.021725119723124096 0.010071270280982715 0.021600394700801287 0.009954702327577317 C 0.021725119723124096 0.010071270280982715 0.022041986732392146 0.011160960266326844 0.022041273803680244 0.010984525266102578 C 0.022041986732392146 0.011160960266326844 0.021572922848816123 0.012162538752282327 0.021608949845344134 0.0120719223302685" fill="none" stroke="#000000" stroke-width="0.001"/>
<path d="M 0.021608949845344134 0.0120719223302685 C 0.021495611430169287 0.012195980955451439 0.02007325544510323 0.013767716003602706 0.02024888886324598 0.013560625832463766 C 0.02007325544510323 0.013767716003602706 0.019439053824663217 0.014640035929891783 0.01950134882763112 0.01455700438393578" fill="none" stroke="#000000" stroke-width="0.001"/>
<path d="M 0.01950134882763112 0.01455700438393578 C 0.0193924432392315 0.014569503623107074 0.017999402859254717 0.014641429232378567 0.01819448176683569 0.014706995253991295 C 0.017999402859254717 0.014641429232378567 0.017084542101678302 0.01358480172971973 0.01716040193665943 0.01377021212458304 C 0.017084542101678302 0.01358480172971973 0.01729447723126238 0.01237472538155228 0.017284163747062153 0.01248207051563157" fill="none" stroke="none" stroke-width="0"/>
</g><g transform="translate(0.20362885031195932,0.15256663086796401) rotate(0) scale(1,1) translate(-0.0213073592558212,-0.01473294942839358)"><path d="M 0.019975354354263158 0.015755943977756835 C 0.019882695326635662 0.015612307602959183 0.018665792411811447 0.013743844701980883 0.018863446022733214 0.014032307480185016 C 0.018665792411811447 0.013743844701980883 0.017498516439907703 0.01214956423590075 0.017603511023201974 0.012294390639307233" fill="none" stroke="#000000" stroke-width="0.001"/>
<path d="M 0.017603511023201974 0.012294390639307233 C 0.01758123057127148 0.012213027755786294 0.01735075647946835 0.011156557904019895 0.017336145600036077 0.011318036037055963 C 0.01735075647946835 0.011156557904019895 0.017815732907752006 0.010276537793359299 0.017778841576389242 0.010356653042874427" fill="none" stroke="#000000" stroke-width="0.001"/>
<path d="M 0.017778841576389242 0.010356653042874427 C 0.017877358475687954 0.01032196771734635 0.019151551949221416 0.009947339422777366 0.0189610443679738 0.009940429136537502 C 0.019151551949221416 0.009947339422777366 0.020156923233309545 0.010481172089520735 0.020064932551360642 0.010439576477752795" fill="none" stroke="none" stroke-width="0"/>
<path d="M 0.020064932551360642 0.010439576477752795 C 0.0201705158529618 0.010580985331188378 0.02154646813774269 0.012409014252419592 0.0213319321705745 0.012136482718979795 C 0.02154646813774269 0.012409014252419592 0.022748316822945983 0.013841077559034574 0.022639364157378945 0.01370995487903036" fill="none" stroke="#000000" stroke-width="0.001"/>
<path d="M 0.022639364157378945 0.01370995487903036 C 0.022643273884352 0.013831924475467558 0.022575489255712785 0.015378824253642074 0.022686280881055603 0.01517359003627674 C 0.022575489255712785 0.015378824253642074 0.021083954109365775 0.016221294982537705 0.021309864653265145 0.016172765487414364 C 0.021083954109365775 0.016221294982537705 0.019864145162679658 0.01572120885195204 0.019975354354263158 0.015755943977756835" fill="none" stroke="none" stroke-width="0"/>
</g><g transform="translate(0.20241918015279198,0.15091807653915282) rotate(0) scale(1,1) translate(-0.00967276663863141,-0.00967276663863141)"><path d="M 0.008457431429627517 0.00732095742108496 C 0.008526302786744247 0.007199328000553818 0.009398613996426743 0.0055767593024632165 0.00928388771502828 0.005861404374711253 C 0.009398613996426743 0.0055767593024632165 0.009880001730690806 0.0037422009023916217 0.009834146806409073 0.0039052165541085164" fill="none" stroke="#000000" stroke-width="0.001"/>
<path d="M 0.009834146806409073 0.0039052165541085164 C 0.009893027601641142 0.0040591251986563 0.010772996407508202 0.006197866573940239 0.010540716349193898 0.005752120288681914 C 0.010772996407508202 0.006197866573940239 0.01279490676926296 0.009546009617918958 0.012621507506180725 0.009254171977208417" fill="none" stroke="none" stroke-width="0"/>
<path d="M 0.012621507506180725 0.009254171977208417 C 0.012631200267708522 0.009353388831177024 0.01263663402891154 0.01056022588866794 0.012737820644514298 0.010444774224831692 C 0.01263663402891154 0.01056022588866794 0.01129638874181708 0.010655826753111037 0.011407268118947635 0.010639591943243395" fill="none" stroke="none" stroke-width="0"/>
<path d="M 0.011407268118947635 0.010639591943243395 C 0.011299808078555552 0.010510199649233878 0.009871927910132644 0.008810331538282661 0.010117747634242653 0.009086884415129197 C 0.009871927910132644 0.008810331538282661 0.008319071745909588 0.00717379683824794 0.008457431429627517 0.00732095742108496" fill="none" stroke="#000000" stroke-width="0.001"/>
</g></g>
<g id="小指">
<g transform="translate(0.20692360483765584,0.14467106929292212) rotate(0) scale(1,1) translate(-0.018347050754458152,-0.012212198913662067)"><path d="M 0.019889768757249033 0.012160765955112821 C 0.019887459087178986 0.012261190121380978 0.01985738822958195 0.01361474019630191 0.019862052716408472 0.01336585595033071 C 0.01985738822958195 0.01361474019630191 0.019831440098574297 0.015295836986470274 0.01983379491533077 0.01514737690676723" fill="none" stroke="#000000" stroke-width="0.001"/>
<path d="M 0.01983379491533077 0.01514737690676723 C 0.019802774372008898 0.015208632367655434 0.01935008712520628 0.01597287692634106 0.019461548395468306 0.015882442437425683 C 0.01935008712520628 0.01597287692634106 0.018333079121562287 0.01624177971806362 0.018496259672186474 0.016232590773751755 C 0.018333079121562287 0.01624177971806362 0.017384070910431863 0.015915270409922428 0.017503381787978074 0.015992709769168063 C 0.017384070910431863 0.015915270409922428 0.017027958087769787 0.015245869187273789 0.01706452914163196 0.015303318462804118" fill="none" stroke="#000000" stroke-width="0.001"/>
<path d="M 0.01706452914163196 0.015303318462804118 C 0.017057788819709322 0.015159037699014995 0.01696544093787987 0.01333383811458357 0.016983645278560305 0.01357194929733465 C 0.01696544093787987 0.01333383811458357 0.016834613034708946 0.012352153850829219 0.016846077053466742 0.012445984269791176" fill="none" stroke="#000000" stroke-width="0.001"/>
<path d="M 0.016846077053466742 0.012445984269791176 C 0.016908245986749552 0.01232572666531977 0.01778506309772208 0.010891291385287025 0.017592104252860463 0.011002893016134305 C 0.01778506309772208 0.010891291385287025 0.01935305523383856 0.01120325411120535 0.019161583191806178 0.011106764699623807 C 0.01935305523383856 0.01120325411120535 0.019950450887702604 0.012248599393070238 0.019889768757249033 0.012160765955112821" fill="none" stroke="#000000" stroke-width="0.001"/>
</g><g transform="translate(0.2036705654799472,0.14452413422913835) rotate(0) scale(1,1) translate(-0.018347050754458152,-0.013480335131195698)"><path d="M 0.018499302943914196 0.012054731574623445 C 0.018608626247501522 0.012062435188231392 0.020068180449484056 0.012166103959960803 0.01981118258696212 0.0121471749379188 C 0.020068180449484056 0.012166103959960803 0.021730951853112013 0.012293105247561545 0.021583277294177406 0.012281879839127487" fill="none" stroke="#000000" stroke-width="0.001"/>
<path d="M 0.021583277294177406 0.012281879839127487 C 0.02166490483404937 0.01231879104148676 0.022675125630800298 0.012842789675031078 0.02256280777264097 0.01272481426743875 C 0.022675125630800298 0.012842789675031078 0.02292260577548333 0.013856124942390956 0.022931091592089354 0.01369758473023543 C 0.02292260577548333 0.013856124942390956 0.022335708098900356 0.01473327623474274 0.02246097797336869 0.014627296813305065 C 0.022335708098900356 0.01473327623474274 0.021341759358894402 0.014997841202002727 0.021427853098469347 0.014969337787487522" fill="none" stroke="none" stroke-width="0"/>
<path d="M 0.021427853098469347 0.014969337787487522 C 0.021267867213669918 0.0149709627647046 0.019244388285640443 0.014996113399405547 0.019508022480876203 0.01498883751409247 C 0.019244388285640443 0.014996113399405547 0.018160594445203872 0.01506229931934044 0.018264242755640207 0.015056648411244444" fill="none" stroke="#000000" stroke-width="0.001"/>
<path d="M 0.018264242755640207 0.015056648411244444 C 0.018183648238113116 0.014978477700223333 0.017228338255829728 0.013918851850384334 0.017297108545315125 0.014118599878991122 C 0.017228338255829728 0.013918851850384334 0.01753918214836537 0.012487683042599004 0.017438999281815446 0.012659672067962978 C 0.01753918214836537 0.012487683042599004 0.018587661582422425 0.01200431986684515 0.018499302943914196 0.012054731574623445" fill="none" stroke="none" stroke-width="0"/>
</g><g transform="translate(0.2045608273218415,0.14860501269195114) rotate(0) scale(1,1) translate(-0.0213073592558212,-0.01473294942839358)"><path d="M 0.019674422859552294 0.015125726249937212 C 0.019648196802662388 0.014956820070340708 0.019290420106985843 0.012752632746788213 0.0193597101768734 0.01309885209477917 C 0.019290420106985843 0.012752632746788213 0.01879987800790394 0.010793780905651279 0.01884294202090159 0.010971094074045732" fill="none" stroke="#000000" stroke-width="0.001"/>
<path d="M 0.01884294202090159 0.010971094074045732 C 0.01887724202417916 0.010870181990598318 0.01937840945297153 0.009614224512983993 0.019254542060232416 0.009760149072676777 C 0.01937840945297153 0.009614224512983993 0.020418918123232505 0.00917498688148695 0.02032935073377096 0.009219999357732322" fill="none" stroke="#000000" stroke-width="0.001"/>
<path d="M 0.02032935073377096 0.009219999357732322 C 0.020400557044879922 0.009236087450734908 0.02131626541300787 0.009503507994313173 0.0211838264670785 0.00941305647376335 C 0.02131626541300787 0.009503507994313173 0.02197985071974379 0.01037978103187744 0.021918618084923385 0.010305417604330201" fill="none" stroke="none" stroke-width="0"/>
<path d="M 0.021918618084923385 0.010305417604330201 C 0.02195755706815645 0.010477545617714822 0.02247102568098403 0.01270718334848895 0.022385885883720164 0.012370953764945654 C 0.02247102568098403 0.01270718334848895 0.022986496466120616 0.014504274177008423 0.022940295652089812 0.014340172606849748" fill="none" stroke="#000000" stroke-width="0.001"/>
<path d="M 0.022940295652089812 0.014340172606849748 C 0.02288374337432564 0.014452688699107073 0.022080927182776065 0.01582763100114004 0.022261668318919754 0.015690365713937643 C 0.022080927182776065 0.01582763100114004 0.020555798230084944 0.015940302764611804 0.020771402018365567 0.015987356053278508 C 0.020555798230084944 0.015940302764611804 0.01958300792965119 0.015053923766325437 0.019674422859552294 0.015125726249937212" fill="none" stroke="none" stroke-width="0"/>
</g></g>
<g transform="translate(0.2193798439177092,0.15510363692965318) rotate(0) scale(1,1) translate(-0.03705046059658651,-0.027869118277169504)"><path d="M 0.037231828512984115 0.03245981622433834 C 0.03656289157569627 0.03260843395584786 0.028063795292524743 0.03443935588220873 0.02920458526552996 0.034243229002452566 C 0.028063795292524743 0.03443935588220873 0.023070495801204113 0.034860847929658954 0.023542348836921485 0.03481333878141231" fill="none" stroke="#000000" stroke-width="0.001"/>
<path d="M 0.023542348836921485 0.03481333878141231 C 0.023417121884592232 0.034824059918495825 0.021829360618538143 0.03492292134620454 0.02203962540897044 0.03494199242641449 C 0.021829360618538143 0.03492292134620454 0.020934133513630892 0.03455469360159945 0.021019171351733933 0.03458448581889291" fill="none" stroke="#000000" stroke-width="0.001"/>
<path d="M 0.021019171351733933 0.03458448581889291 C 0.020968710691708536 0.0344867316455489 0.020389654000570096 0.03318269359587754 0.020413643431429176 0.03341143573876475 C 0.020389654000570096 0.03318269359587754 0.020757769410591285 0.03170859213470329 0.02073129818142497 0.03183958010424648" fill="none" stroke="none" stroke-width="0"/>
<path d="M 0.02073129818142497 0.03183958010424648 C 0.020621326179894567 0.031750872905503456 0.01928459831815483 0.030550299161905378 0.019411634163060142 0.030775093719330193 C 0.01928459831815483 0.030550299161905378 0.019189804199186297 0.02900595805646689 0.01920686804256121 0.02914204541514868" fill="none" stroke="#000000" stroke-width="0.001"/>
<path d="M 0.01920686804256121 0.02914204541514868 C 0.019273970967594516 0.029053620452083363 0.02015159962393727 0.027966940967951354 0.020012103142960886 0.02808094585836484 C 0.02015159962393727 0.027966940967951354 0.020953219370220866 0.02774840680283868 0.02088082581427779 0.027773986730186846" fill="none" stroke="none" stroke-width="0"/>
<path d="M 0.02088082581427779 0.027773986730186846 C 0.020787657456752064 0.027696417789541048 0.019654280182789325 0.026635199324145913 0.019762805523969085 0.02684315944243727 C 0.019654280182789325 0.026635199324145913 0.019563164736466642 0.02514807413304501 0.019578521720120676 0.025278465310690567" fill="none" stroke="#000000" stroke-width="0.001"/>
<path d="M 0.019578521720120676 0.025278465310690567 C 0.019628907435197844 0.025185491882923017 0.02032724732713072 0.02400722364497327 0.020183150301046685 0.02416278417747995 C 0.02032724732713072 0.02400722364497327 0.021401397344136007 0.023349151815871272 0.021307686033129138 0.023411738920610402" fill="none" stroke="none" stroke-width="0"/>
<path d="M 0.021307686033129138 0.023411738920610402 C 0.02123253135750337 0.023321133328772482 0.020344845346503833 0.022124534515348373 0.020405829925619914 0.02232447181855538 C 0.020344845346503833 0.022124534515348373 0.02059004118024585 0.020903159570757193 0.020575871083736163 0.021012491282126285" fill="none" stroke="#000000" stroke-width="0.001"/>
<path d="M 0.020575871083736163 0.021012491282126285 C 0.020639136539319446 0.02092475153449883 0.02152302671207527 0.019837367831826047 0.021335056550735546 0.019959614310596795 C 0.02152302671207527 0.019837367831826047 0.02295621772556932 0.01951102680573404 0.022831513019812878 0.019545533536877328" fill="none" stroke="none" stroke-width="0"/>
<path d="M 0.022831513019812878 0.019545533536877328 C 0.02352523093771342 0.019563962589740427 0.0323439553124606 0.020080389615037615 0.03115612803461936 0.019766682171234545 C 0.0323439553124606 0.020080389615037615 0.037579549713848415 0.023605301253454128 0.03708544035390772 0.02331002286251416" fill="none" stroke="#000000" stroke-width="0.001"/>
<path d="M 0.03708544035390772 0.02331002286251416 C 0.03697908038157302 0.02351691753352184 0.03565867067781604 0.026232909216730507 0.03580912068589136 0.025792758914606324 C 0.03565867067781604 0.026232909216730507 0.035279112627026835 0.029050670895587036 0.035280040257003924 0.028591826488004346 C 0.035279112627026835 0.029050670895587036 0.03596063814749794 0.03162122428362642 0.03579798912616626 0.03129889180559858 C 0.03596063814749794 0.03162122428362642 0.03735131512855227 0.03255655992589999 0.037231828512984115 0.03245981622433834" fill="none" stroke="none" stroke-width="0"/>
</g><g transform="translate(0.20982486241842416,0.15536297116032738) rotate(0) scale(1,1) translate(-0.014303772200158306,-0.014303772200158308)"><path d="M 0.01698721622615077 0.006064354838536733 C 0.017180604375062275 0.005744271099346365 0.0184472752951941 0.004139277900190316 0.0181475451196198 0.004143852403394523 C 0.0184472752951941 0.004139277900190316 0.019115837124288267 0.006147552682238365 0.01878559727959657 0.006036907819311493 C 0.019115837124288267 0.006147552682238365 0.020381972150259695 0.004906772185980154 0.020128984187769997 0.004807721580955756 C 0.020381972150259695 0.004906772185980154 0.020332615198995554 0.006935126427541573 0.02030352505453476 0.006631211449457885" fill="none" stroke="#000000" stroke-width="0.001"/>
<path d="M 0.02030352505453476 0.006631211449457885 C 0.020637541215627542 0.006767285528067841 0.022885967162578173 0.007476845000351629 0.02230762202109144 0.007447655921117623 C 0.022885967162578173 0.007476845000351629 0.023994290510756786 0.006949412756751391 0.02377359590345516 0.006806345924861916 C 0.023994290510756786 0.006949412756751391 0.023741521632448553 0.008893894664983939 0.023631789664901204 0.008306056912454472 C 0.023741521632448553 0.008893894664983939 0.024674799718638646 0.011276171882110823 0.024431987708739257 0.010333372440038718 C 0.024674799718638646 0.011276171882110823 0.0251379055233864 0.015066007626314017 0.025088661724297544 0.013962853564887103 C 0.0251379055233864 0.015066007626314017 0.024819019609995097 0.017687788030565137 0.02472745050327238 0.016952296808600206 C 0.024819019609995097 0.017687788030565137 0.025484301054659732 0.018710131791778904 0.02563807636463384 0.018375800896676682 C 0.025484301054659732 0.018710131791778904 0.023582153036625954 0.01940583234566473 0.023804798643427737 0.018958282179213533 C 0.023582153036625954 0.01940583234566473 0.024085449217308208 0.021326208429704417 0.02430220272382315 0.021061101895383863 C 0.024085449217308208 0.021326208429704417 0.021942771474479775 0.020573116947609316 0.02250427760433809 0.02054892138513685 C 0.021942771474479775 0.020573116947609316 0.02067131400139579 0.021315834251065632 0.02093316594467326 0.021206275270218664" fill="none" stroke="none" stroke-width="0"/>
<path d="M 0.02093316594467326 0.021206275270218664 C 0.02096500475471269 0.021583035899611903 0.020728880376809766 0.02353600473124145 0.02112419880490985 0.023466839046578092 C 0.020728880376809766 0.02353600473124145 0.01804982524946152 0.021601240674511017 0.018561255376072755 0.02162126937819881 C 0.01804982524946152 0.021601240674511017 0.017532004709094516 0.02316288915856891 0.018055618045242444 0.02334666682445133 C 0.017532004709094516 0.02316288915856891 0.014980234911508968 0.020047259475979788 0.015419575359185178 0.020518603382904295" fill="none" stroke="#000000" stroke-width="0.001"/>
<path d="M 0.015419575359185178 0.020518603382904295 C 0.015200703278149277 0.020388131812159944 0.013788130059145724 0.019752586429084597 0.014106342872969777 0.01973577395843818 C 0.013788130059145724 0.019752586429084597 0.013410957743452707 0.020766762248173556 0.01351029847624086 0.02061947820678279" fill="none" stroke="none" stroke-width="0"/>
<path d="M 0.01351029847624086 0.02061947820678279 C 0.01322192576211435 0.02020832212621355 0.011289502791884993 0.01785382472769874 0.011780062191481797 0.01815254172336736 C 0.011289502791884993 0.01785382472769874 0.010364755393189743 0.018939615317671684 0.010566942078660036 0.018827176232771067" fill="none" stroke="none" stroke-width="0"/>
<path d="M 0.010566942078660036 0.018827176232771067 C 0.010495313488404504 0.018535029761361687 0.009540567465944913 0.014942652357665032 0.009707398995593638 0.015321418575858508 C 0.009540567465944913 0.014942652357665032 0.008469760783482138 0.014195361867665257 0.00856496372287533 0.014281981614449353" fill="none" stroke="none" stroke-width="0"/>
<path d="M 0.00856496372287533 0.014281981614449353 C 0.00868193945208749 0.014167847909228344 0.010173123936416641 0.012400621385925481 0.009968672473421236 0.01291237715179725 C 0.010173123936416641 0.012400621385925481 0.01110585701260345 0.00774329036333737 0.011018381278820202 0.00814091242398813" fill="none" stroke="none" stroke-width="0"/>
<path d="M 0.011018381278820202 0.00814091242398813 C 0.011267916488718995 0.008389614745215266 0.013112173062294353 0.009241523535500916 0.01251559253821296 0.009633126351350954 C 0.013112173062294353 0.009241523535500916 0.014944909737491165 0.005150990391810723 0.014597864423308564 0.005791295528887899" fill="none" stroke="none" stroke-width="0"/>
<path d="M 0.014597864423308564 0.005791295528887899 C 0.01474879908352659 0.006074179338871211 0.01590169768509042 0.007534108273729245 0.01550347238461672 0.007488598388787773 C 0.01590169768509042 0.007534108273729245 0.017234506866406447 0.005826980913494893 0.01698721622615077 0.006064354838536733" fill="none" stroke="none" stroke-width="0"/>
</g><g id="鱗">
<g transform="translate(0.20982486241842416,0.15536297116032738) rotate(0) scale(1,1) translate(-0.022056771251806547,-0.022056771251806547)"><path d="M 0.025861646170249556 0.028469888138299974 C 0.026178616118008122 0.027995626254394283 0.029740329969221282 0.021867853592008248 0.02966528554335237 0.02277874553143166 C 0.029740329969221282 0.021867853592008248 0.026520253758786867 0.0171025548097013 0.02676217928067652 0.01753918486521902" fill="none" stroke="none" stroke-width="0"/>
<path d="M 0.02676217928067652 0.01753918486521902 C 0.027088291894046223 0.017492602007536058 0.031212975840083753 0.01708875945191752 0.030675530641112954 0.01698019057302347 C 0.031212975840083753 0.01708875945191752 0.03342285425392722 0.01899716314852461 0.033211521668326124 0.0188420114119476" fill="none" stroke="#000000" stroke-width="0.001"/>
<path d="M 0.033211521668326124 0.0188420114119476 C 0.03333009607717799 0.019127651408060428 0.03462988239714347 0.02290368404487554 0.03463441457454848 0.02226969136530156 C 0.03462988239714347 0.02290368404487554 0.03303402895320918 0.02679827625029651 0.033157135539466046 0.02644992356683536" fill="none" stroke="#000000" stroke-width="0.001"/>
<path d="M 0.033157135539466046 0.02644992356683536 C 0.03291924228628213 0.02658757899063956 0.02969445905382437 0.02827011903344115 0.030302416501259078 0.028101788652485766 C 0.02969445905382437 0.02827011903344115 0.025491581975998764 0.028500563095451157 0.025861646170249556 0.028469888138299974" fill="none" stroke="#000000" stroke-width="0.001"/>
</g><g transform="translate(0.21411705839484685,0.15631073641028032) rotate(0) scale(1,1) translate(-0.022056771251806547,-0.022056771251806547)"><path d="M 0.017948183954294043 0.027579342096594288 C 0.018255055043000446 0.027101713926337874 0.02168211744018474 0.020876318959780905 0.02163063701877088 0.02184780405351731 C 0.02168211744018474 0.020876318959780905 0.018310558343967852 0.015427664048277447 0.018565949011260394 0.015921520971757436" fill="none" stroke="none" stroke-width="0"/>
<path d="M 0.018565949011260394 0.015921520971757436 C 0.018851666188421434 0.01588503697312664 0.02252863404981297 0.015605747012484815 0.02199455513719289 0.015483712988187879 C 0.02252863404981297 0.015605747012484815 0.02522325769816037 0.017544447286248394 0.024974895962701332 0.017385929263320662" fill="none" stroke="#000000" stroke-width="0.001"/>
<path d="M 0.024974895962701332 0.017385929263320662 C 0.025110301803306805 0.017715330981992874 0.02661206530431559 0.022046800866677072 0.02659976604996699 0.021338749887387213 C 0.02661206530431559 0.022046800866677072 0.024999380428627677 0.0262611902754166 0.025122487014884547 0.025882541014798956" fill="none" stroke="#000000" stroke-width="0.001"/>
<path d="M 0.025122487014884547 0.025882541014798956 C 0.02485049119271949 0.026046737476415234 0.021260678560521322 0.027994298644343905 0.021858537148903862 0.027852898554194296 C 0.021260678560521322 0.027994298644343905 0.017622321188076558 0.02755654572512762 0.017948183954294043 0.027579342096594288" fill="none" stroke="#000000" stroke-width="0.001"/>
</g><g transform="translate(0.21037460584668805,0.15632756018231891) rotate(0) scale(1,1) translate(-0.022056771251806547,-0.022056771251806547)"><path d="M 0.017770102248996264 0.027920222486323584 C 0.017761403645334323 0.02779289584849277 0.017557120008218633 0.02612156900556189 0.017665719005052982 0.02639230283235382 C 0.017557120008218633 0.02612156900556189 0.016367013893811684 0.024528009375859257 0.016466914286984092 0.024671416564820376" fill="none" stroke="#000000" stroke-width="0.001"/>
<path d="M 0.016466914286984092 0.024671416564820376 C 0.016536441855828587 0.024541862638027927 0.01728809183730954 0.022817628917374932 0.017301245113118056 0.023116769443310977 C 0.01728809183730954 0.022817628917374932 0.01622639413262886 0.02091214365444427 0.016309074977281877 0.021081730253587862" fill="none" stroke="#000000" stroke-width="0.001"/>
<path d="M 0.016309074977281877 0.021081730253587862 C 0.016423140502217326 0.020949535568159726 0.017739930650711996 0.01915881088298217 0.01767786127650728 0.019495394028450203 C 0.017739930650711996 0.01915881088298217 0.017001911317007734 0.016838344047931542 0.01705390746773847 0.01704273250797144" fill="none" stroke="#000000" stroke-width="0.001"/>
<path d="M 0.01705390746773847 0.01704273250797144 C 0.01713728829875164 0.016945339683439607 0.01813526812386721 0.01559282316388781 0.0180544774398965 0.015874018613589426 C 0.01813526812386721 0.01559282316388781 0.01802080552834456 0.013484584486382272 0.018023395675387018 0.013668387111552053" fill="none" stroke="#000000" stroke-width="0.001"/>
<path d="M 0.018023395675387018 0.013668387111552053 C 0.01839808735309689 0.013792733977132599 0.02311581893026862 0.015514106400392032 0.022519695807905485 0.015160549498518599 C 0.02311581893026862 0.015514106400392032 0.025398304588397893 0.01814027997032614 0.02517687314374463 0.01791106993403325" fill="none" stroke="#000000" stroke-width="0.001"/>
<path d="M 0.02517687314374463 0.01791106993403325 C 0.02529544755259649 0.018196709930146084 0.026595233872561984 0.021972742566961193 0.02659976604996699 0.021338749887387213 C 0.026595233872561984 0.021972742566961193 0.024999380428627677 0.02586733477238216 0.025122487014884547 0.025518982088921012" fill="none" stroke="#000000" stroke-width="0.001"/>
<path d="M 0.025122487014884547 0.025518982088921012 C 0.02483409946643981 0.025734062098791814 0.021049137703056997 0.028300045573820834 0.021661836433547688 0.02809994220737062 C 0.021049137703056997 0.028300045573820834 0.017445791066950312 0.027905245842902996 0.017770102248996264 0.027920222486323584" fill="none" stroke="#000000" stroke-width="0.001"/>
</g></g>
<g id="悪タトゥ">
<g id="五芒星">
<g transform="translate(0.20982486241842416,0.15536297116032738) rotate(0) scale(1,1) translate(-0.25155149516253505,-0.25573631032976507)"><path d="M 0.2572144662773527 0.2601918560997702 C 0.2566705911330397 0.2605873664016345 0.2521605174800899 0.2612878003903896 0.2528565477220471 0.26135295686156923 C 0.2521605174800899 0.2612878003903896 0.24842164311018147 0.25892232297853207 0.24886210337386616 0.2594099784456149 C 0.24842164311018147 0.25892232297853207 0.24764414992119868 0.2548765987524404 0.24757102455783075 0.2555010912565748 C 0.24764414992119868 0.2548765987524404 0.25028348287859437 0.25152055809413804 0.24973960773428128 0.25191606839600234 C 0.25028348287859437 0.25152055809413804 0.25479355653154484 0.2508201241053826 0.2540975262895876 0.250754967634203 C 0.25479355653154484 0.2508201241053826 0.25853243090145267 0.25318560151724057 0.258091970637768 0.25269794605015766 C 0.25853243090145267 0.25318560151724057 0.25930992409043546 0.2572313257433322 0.2593830494538034 0.2566068332391978 C 0.25930992409043546 0.2572313257433322 0.2566705911330397 0.2605873664016345 0.2572144662773527 0.2601918560997702 Z" fill="#cccccc" stroke="#000000" stroke-width="0.001"/>
</g><g transform="translate(0.21174202243507326,0.15589623347415055) rotate(0) scale(1,1) translate(-0.25613753700109465,-0.2561375370010946)"><path d="M 0.25901535754017707 0.2593237152670453 C 0.25859657367905603 0.2596282581994808 0.25512381696628456 0.2601675923708223 0.2556597602525916 0.26021776285363063 C 0.25512381696628456 0.2601675923708223 0.2522448837014554 0.2583461747636917 0.2525840381044926 0.2587216694733455 C 0.2522448837014554 0.2583461747636917 0.2516462139459388 0.25523096710960136 0.25158990741614545 0.25571182633778483 C 0.2516462139459388 0.25523096710960136 0.2536785003231333 0.2526468158027084 0.2532597164620123 0.25295135873514396 C 0.2536785003231333 0.2526468158027084 0.2571512570359048 0.252107481631367 0.2566153137495978 0.25205731114855867 C 0.2571512570359048 0.252107481631367 0.26003019030073393 0.25392889923849754 0.25969103589769676 0.25355340452884373 C 0.26003019030073393 0.25392889923849754 0.2606288600562507 0.25704410689258794 0.260685166586044 0.25656324766440447 C 0.2606288600562507 0.25704410689258794 0.25859657367905603 0.2596282581994808 0.25901535754017707 0.2593237152670453 Z" fill="#cccccc" stroke="#000000" stroke-width="0.001"/>
</g><g transform="translate(0.21174202243507326,0.15589623347415055) rotate(0) scale(1,1) translate(-0.03408017706782698,-0.03408017706782699)"><path d="M 0.0361277428224842 0.034271852875916206 C 0.03645368530614801 0.03477839745425323 0.037813493890832585 0.03758024668223508 0.03808339772446703 0.03731112034593835 C 0.037813493890832585 0.03758024668223508 0.03391247350337926 0.03564919265165627 0.034508319820677515 0.03588661089369657" fill="none" stroke="#000000" stroke-width="0.001"/>
<path d="M 0.034508319820677515 0.03588661089369657 C 0.0340718397216195 0.03632159578218539 0.03152092227062789 0.03834957486943885 0.03188943922632942 0.0384965202246295 C 0.03152092227062789 0.03834957486943885 0.03236518122982483 0.03442300851887321 0.03229721808646834 0.03500493876255268" fill="none" stroke="#000000" stroke-width="0.001"/>
<path d="M 0.03229721808646834 0.03500493876255268 C 0.03170151606617376 0.03476722962989433 0.028765153794281125 0.033218740406309115 0.028723005964700864 0.03357868396660259 C 0.028765153794281125 0.033218740406309115 0.03318795491382475 0.0327230429731567 0.03255010506394991 0.03284527740079183" fill="none" stroke="#000000" stroke-width="0.001"/>
<path d="M 0.03255010506394991 0.03284527740079183 C 0.0326184210672989 0.03226338018888389 0.03335456683097802 0.029278382130241826 0.03296000108404385 0.029353894129344187 C 0.03335456683097802 0.029278382130241826 0.035243749289140106 0.032898590618983245 0.034917499545554925 0.03239220540617767" fill="none" stroke="#000000" stroke-width="0.001"/>
<path d="M 0.034917499545554925 0.03239220540617767 C 0.035555423177894736 0.03227028228391811 0.038946748552415325 0.03197394125091006 0.03874504133959378 0.031660666672620304 C 0.038946748552415325 0.03197394125091006 0.03569152640296594 0.034707050576465524 0.0361277428224842 0.034271852875916206" fill="none" stroke="#000000" stroke-width="0.001"/>
</g><g transform="translate(0.21174202243507326,0.15589623347415055) rotate(0) scale(1,1) translate(-0.03408017706782698,-0.03408017706782699)"><path d="M 0.034508319820677515 0.03588661089369657 C 0.033869899031341535 0.036008791874802645 0.031970848960347076 0.03449804984706856 0.03229721808646834 0.03500493876255268 C 0.031970848960347076 0.03449804984706856 0.03298681864046434 0.03240982184139599 0.03255010506394991 0.03284527740079183 C 0.03298681864046434 0.03240982184139599 0.03551377250531064 0.03262996798536506 0.034917499545554925 0.03239220540617767 C 0.03551377250531064 0.03262996798536506 0.0360595462016713 0.03485425379050269 0.0361277428224842 0.034271852875916206 C 0.0360595462016713 0.03485425379050269 0.033869899031341535 0.036008791874802645 0.034508319820677515 0.03588661089369657 Z" fill="#cccccc" stroke="#000000" stroke-width="0.001"/>
</g></g>
</g>
<g id="グローブ">
<g transform="translate(0.20982486241842416,0.15536297116032738) rotate(0) scale(1,1) translate(-0.003389818855922237,-0.0033898188559222373)"><path d="M 0.012979779828448784 -0.0014286103492329417 C 0.013136591605808809 -0.0012209568630181767 0.015070171277945521 0.0015098652970371722 0.014861521156769095 0.0010632314853442392 C 0.015070171277945521 0.0015098652970371722 0.015466194205997305 0.004372115936643201 0.015483581282565894 0.003930995391082256 C 0.015466194205997305 0.004372115936643201 0.01445642515547353 0.0066725269639385755 0.014652876237946021 0.006356678032075579 C 0.01445642515547353 0.0066725269639385755 0.012998942630808502 0.007834891285218427 0.013126168292896003 0.0077211825734382076" fill="none" stroke="none" stroke-width="0"/>
<path d="M 0.013126168292896003 0.0077211825734382076 C 0.012885468928848433 0.00782037656523672 0.00973217516199469 0.009075041443695161 0.010237775924325149 0.008911510475020359 C 0.00973217516199469 0.009075041443695161 0.006794057746647612 0.009747891174412132 0.007058959144930499 0.009683554197535842" fill="none" stroke="#000000" stroke-width="0.001"/>
<path d="M 0.007058959144930499 0.009683554197535842 C 0.006732203041225644 0.009593027225337404 0.002318657136970225 0.008182086765782763 0.0031378859004722423 0.00859723053115457 C 0.002318657136970225 0.008182086765782763 -0.0032642586768908727 0.004377212219900789 -0.00277178601709371 0.004701829013074157" fill="none" stroke="#000000" stroke-width="0.001"/>
<path d="M -0.00277178601709371 0.004701829013074157 C -0.002228912055500439 0.004304336717532084 0.0046868174050261995 -0.0008462656309581774 0.003742701522025545 -6.807853343071717E-05 C 0.0046868174050261995 -0.0008462656309581774 0.00895884650032153 -0.005017110959240753 0.008557604578914147 -0.004636416157255366" fill="none" stroke="#000000" stroke-width="0.001"/>
<path d="M 0.008557604578914147 -0.004636416157255366 C 0.008718262838273066 -0.0045364585769764034 0.010854018295349072 -0.0031696080432392863 0.010485503691221185 -0.0034369251939078216 C 0.010854018295349072 -0.0031696080432392863 0.01318763617321775 -0.0012612507788433678 0.012979779828448784 -0.0014286103492329413" fill="none" stroke="#000000" stroke-width="0.001"/>
</g><g transform="translate(0.21017774508452747,0.15190507377097442) rotate(0) scale(1,1) translate(-0.004561674574908911,-0.004561674574908911)"><path d="M -0.0026329495570143347 0.009309967543763259 C -0.0020537242624215505 0.008877823778572208 0.005273280365530229 0.003327197735524911 0.004317753978099079 0.004124242361470655 C 0.005273280365530229 0.003327197735524911 0.009209668184997835 -0.0006194688283403631 0.00883336709215947 -0.00025456796758566933" fill="none" stroke="#000000" stroke-width="0.001"/>
<path d="M 0.00883336709215947 -0.00025456796758566933 C 0.00886847521396056 -0.00024065045509691986 0.00931896111401187 -6.087462906506726E-05 0.009254664553772567 -8.755781772067558E-05 C 0.00931896111401187 -6.087462906506726E-05 0.009634114253469305 7.83959724484894E-05 0.009604925815031095 6.563029628163056E-05" fill="none" stroke="#000000" stroke-width="0.001"/>
<path d="M 0.009604925815031095 6.563029628163056E-05 C 0.009210400781849605 0.000456920461225614 0.003971606790035027 0.005530251702913958 0.004870625416853213 0.004761112275609432 C 0.003971606790035027 0.005530251702913958 -0.0016877913004238409 0.009673152686296491 -0.0011832977067871445 0.009295303423935948" fill="none" stroke="#000000" stroke-width="0.001"/>
<path d="M -0.0011832977067871445 0.009295303423935948 C -0.0012436998672132773 0.009295914428928752 -0.0020289279527530056 0.009303857493835214 -0.0019081236319007397 0.009302635483849605 C -0.0020289279527530056 0.009303857493835214 -0.002693351717440468 0.009310578548756063 -0.0026329495570143347 0.009309967543763259" fill="none" stroke="none" stroke-width="0"/>
</g><g transform="translate(0.20957292946297415,0.16057038283555972) rotate(0) scale(1,1) translate(-0.004561674574908911,-0.004561674574908911)"><path d="M -0.002028133935461009 0.0006446584791779523 C -0.0019677317750348765 0.0006440474741851489 -0.0011825036894951499 0.000636104409278704 -0.0013033080103474154 0.0006373264192643109 C -0.0011825036894951499 0.000636104409278704 -0.0005180799248076903 0.0006293833543578658 -0.000578482085233823 0.0006299943593506693" fill="none" stroke="none" stroke-width="0"/>
<path d="M -0.000578482085233823 0.0006299943593506693 C -0.00011433080483545121 0.0009455653346014271 0.005783252114723372 0.0048335174515360905 0.004991333279546638 0.004416846062359762 C 0.005783252114723372 0.0048335174515360905 0.00925231149166535 0.005731151443392185 0.008924543936886988 0.0056300510294666145" fill="none" stroke="#000000" stroke-width="0.001"/>
<path d="M 0.008924543936886988 0.0056300510294666145 C 0.00885831550633914 0.005637414359772299 0.007997345909217102 0.005733137653746193 0.0081298027703128 0.0057184109931348245 C 0.007997345909217102 0.005733137653746193 0.007268833173190762 0.005814134287108719 0.007335061603738611 0.0058067709568030345" fill="none" stroke="#000000" stroke-width="0.001"/>
<path d="M 0.007335061603738611 0.0058067709568030345 C 0.007082417334707377 0.005731625295548645 0.0035230640804304993 0.004474846981948276 0.004303330375363801 0.004905023021750367 C 0.0035230640804304993 0.004474846981948276 -0.0025557559613630767 0.00028962810063025104 -0.002028133935461009 0.0006446584791779523" fill="none" stroke="#000000" stroke-width="0.001"/>
</g></g>
</svg>
