<?xml version="1.0" encoding="UTF-8"?>
<svg xmlns="http://www.w3.org/2000/svg" viewBox="0 0 1 1">
<g id="親指">
<g transform="translate(0.21115245822136336,0.1599297772326336) rotate(0) scale(1,1) translate(-0.02374131944444444,-0.01749131944444444)"><path d="M 0.024317067875793547 0.021334676420936307 C 0.024154822323334414 0.021379649552005796 0.022068580871684708 0.02192512392324152 0.022370121246283944 0.021874353993770194 C 0.022068580871684708 0.02192512392324152 0.020559288558462608 0.021949712372994066 0.020698583380602712 0.02194391557459223" fill="none" stroke="#000000" stroke-width="0.001"/>
<path d="M 0.020698583380602712 0.02194391557459223 C 0.020596820893905514 0.021905525941147024 0.01930017487600446 0.02136168929229413 0.01947743354023635 0.02148323997324974 C 0.01930017487600446 0.02136168929229413 0.018495983232285337 0.02040214635561453 0.01857147940982003 0.02048530740312493" fill="none" stroke="none" stroke-width="0"/>
<path d="M 0.01857147940982003 0.02048530740312493 C 0.018568819860231216 0.02037804692021073 0.01859421954229858 0.01897285653585028 0.018539564814754272 0.01919818160815452 C 0.01859421954229858 0.01897285653585028 0.01928465041748484 0.01766334194608398 0.019227336140351717 0.017781406535474022" fill="none" stroke="none" stroke-width="0"/>
<path d="M 0.019227336140351717 0.017781406535474022 C 0.01925475526980837 0.017635371584249927 0.019671899910465206 0.0157620106666509 0.019556365693831523 0.01602898712078486 C 0.019671899910465206 0.0157620106666509 0.02070186182713295 0.014456747582956656 0.020613746739955918 0.014577689085866518" fill="none" stroke="#000000" stroke-width="0.001"/>
<path d="M 0.020613746739955918 0.014577689085866518 C 0.02077789200596744 0.014519419372586844 0.02299609044596466 0.013973414171004245 0.022583489932094192 0.013878452526510423 C 0.02299609044596466 0.013973414171004245 0.025867194097952222 0.016159363724365595 0.02556495290640154 0.015717228819792376 C 0.025867194097952222 0.016159363724365595 0.026106393811485076 0.01965219201481771 0.02621038423070241 0.01918407138138905 C 0.026106393811485076 0.01965219201481771 0.024159291512884474 0.021513893507565246 0.024317067875793547 0.021334676420936307" fill="none" stroke="#000000" stroke-width="0.001"/>
</g><g transform="translate(0.20726463900693887,0.1622343423491943) rotate(0) scale(1,1) translate(-0.018110482705012847,-0.015186404574128454)"><path d="M 0.019289127933716215 0.017291199834570583 C 0.01915206627019823 0.017316050257939107 0.017356562491551195 0.01764522019033192 0.01764438797150039 0.01758940491499286 C 0.017356562491551195 0.01764522019033192 0.015684458357894664 0.017991947990609856 0.015835222174325873 0.01796098313863932" fill="none" stroke="#000000" stroke-width="0.001"/>
<path d="M 0.015835222174325873 0.01796098313863932 C 0.015731650347094752 0.01794809132072868 0.01441746858137813 0.01772817592293452 0.014592360247552444 0.017806281323711662 C 0.01441746858137813 0.01772817592293452 0.01366520234129092 0.016958504746447098 0.013736522180234115 0.017023718329313604" fill="none" stroke="#000000" stroke-width="0.001"/>
<path d="M 0.013736522180234115 0.017023718329313604 C 0.013736725418078348 0.016934684687247934 0.013801116365014625 0.015787731963823742 0.013738961034364908 0.01595531462452556 C 0.013801116365014625 0.015787731963823742 0.014544338240836197 0.01493417738225564 0.014482386148030713 0.015012726400891787" fill="none" stroke="#000000" stroke-width="0.001"/>
<path d="M 0.014482386148030713 0.015012726400891787 C 0.014635109405980347 0.014953537532422467 0.016568801076826793 0.014148035976280041 0.016315065243426335 0.014302459979259932 C 0.016568801076826793 0.014148035976280041 0.017628228724287008 0.013064403230622528 0.017527216148836188 0.013159638365133099" fill="none" stroke="#000000" stroke-width="0.001"/>
<path d="M 0.017527216148836188 0.013159638365133099 C 0.01772544116050502 0.013261852127774233 0.020149623230131926 0.014623365845774026 0.019905916288862194 0.014386203516826715 C 0.020149623230131926 0.014623365845774026 0.020400300414477487 0.016247669338979493 0.020451699444072984 0.016005586312500836 C 0.020400300414477487 0.016247669338979493 0.01919224697451982 0.01739833429474306 0.019289127933716215 0.017291199834570583" fill="none" stroke="none" stroke-width="0"/>
</g><g transform="translate(0.20457238305449005,0.16337928396838713) rotate(0) scale(1,1) translate(-0.017815859593261256,-0.014881607178823718)"><path d="M 0.01691712078048481 0.01631093125745082 C 0.016818775175942755 0.016251984685374567 0.015526991700102476 0.015486489920039495 0.015736973525980153 0.015603572392535795 C 0.015526991700102476 0.015486489920039495 0.014285702648617055 0.014847805687075177 0.014397338869952678 0.014905941587495225" fill="none" stroke="#000000" stroke-width="0.001"/>
<path d="M 0.014397338869952678 0.014905941587495225 C 0.014287513271864638 0.014848375817481118 0.012949635270016071 0.014080162644575341 0.013079431692896203 0.014215152347325944 C 0.012949635270016071 0.014080162644575341 0.012901474151352618 0.013149367117403554 0.012839781795391105 0.013286065154487986 C 0.012901474151352618 0.013149367117403554 0.014019938202341289 0.01250160816528207 0.01381973996443435 0.01257477590231276 C 0.014019938202341289 0.01250160816528207 0.015360695707427716 0.012394158677436939 0.01524216065027438 0.012408052310119695" fill="none" stroke="#000000" stroke-width="0.001"/>
<path d="M 0.01524216065027438 0.012408052310119695 C 0.01537379599190522 0.0124321617278229 0.017059940569015455 0.012763310601027977 0.016821784749844464 0.012697365322558144 C 0.017059940569015455 0.012763310601027977 0.01820655095786644 0.013241231512524331 0.01810003048032629 0.0131993956517577" fill="none" stroke="#000000" stroke-width="0.001"/>
<path d="M 0.01810003048032629 0.0131993956517577 C 0.018189954086487554 0.013300697408481022 0.019219516730553967 0.014653865510825129 0.019179113754261467 0.014415016732437549 C 0.019219516730553967 0.014653865510825129 0.018396366781354916 0.01622357386949309 0.018584866195836304 0.01606558099240865 C 0.018396366781354916 0.01622357386949309 0.016778141995872187 0.016331377112871 0.01691712078048481 0.01631093125745082" fill="none" stroke="none" stroke-width="0"/>
</g><g transform="translate(0.2061338829093894,0.16299387022219222) rotate(0) scale(1,1) translate(-0.00967276663863141,-0.00967276663863141)"><path d="M 0.007100767981990422 0.009513105110719651 C 0.007013019844090551 0.009413156584061954 0.0058080946445077525 0.008106182207110874 0.006047790327191965 0.008313722790827283 C 0.0058080946445077525 0.008106182207110874 0.004072472244995521 0.006915026049064035 0.004224419789779863 0.0070226181061227464" fill="none" stroke="none" stroke-width="0"/>
<path d="M 0.004224419789779863 0.0070226181061227464 C 0.0046027222319785935 0.007182409733748213 0.00933725882292542 0.009073895886492099 0.008764049096164626 0.008940117637628345 C 0.00933725882292542 0.009073895886492099 0.011297843795471463 0.00860194371372608 0.011102936510909399 0.008627957092487794" fill="none" stroke="none" stroke-width="0"/>
<path d="M 0.011102936510909399 0.008627957092487794 C 0.011166974056071085 0.008637896877488341 0.011913548916088777 0.00881661863233852 0.011871387052849621 0.00874723451249437 C 0.011913548916088777 0.00881661863233852 0.011587003187856748 0.009520010865461203 0.011608878869779276 0.0094605665306176" fill="none" stroke="none" stroke-width="0"/>
<path d="M 0.011608878869779276 0.0094605665306176 C 0.011378356354533272 0.009504347780048189 0.008466932779511492 0.009990319738793163 0.008842608686827229 0.00998594152378466 C 0.008466932779511492 0.009990319738793163 0.006955614589920688 0.009473702076297568 0.007100767981990422 0.009513105110719651" fill="none" stroke="#000000" stroke-width="0.001"/>
</g></g>
<g transform="translate(0.2193798439177092,0.15510363692965318) rotate(0) scale(1,1) translate(-0.036135277635028024,-0.02730999586301961)"><path d="M 0.036093122704144914 0.03177492692007526 C 0.035545132032841834 0.03211533592568387 0.028537305109801254 0.036180625251179405 0.029517234648507976 0.035859834987378596 C 0.028537305109801254 0.036180625251179405 0.02390202937226059 0.03560479134387716 0.024333968239664234 0.03562441008568496" fill="none" stroke="#000000" stroke-width="0.001"/>
<path d="M 0.024333968239664234 0.03562441008568496 C 0.024168354336518257 0.035483359317405705 0.02226290021628787 0.03354555880397713 0.022346601401912504 0.03393180086633392 C 0.02226290021628787 0.03354555880397713 0.023411466729689988 0.030744314043325966 0.023329554012168643 0.0309895053374035" fill="none" stroke="#000000" stroke-width="0.001"/>
<path d="M 0.023329554012168643 0.0309895053374035 C 0.023303929917957523 0.0307777450254926 0.023122787467382836 0.02804974412970751 0.02302206488163521 0.028448381594472688 C 0.023122787467382836 0.02804974412970751 0.02466457172109887 0.026018978607367096 0.02453822504114013 0.026205855760221372" fill="none" stroke="#000000" stroke-width="0.001"/>
<path d="M 0.02453822504114013 0.026205855760221372 C 0.024513231052351488 0.025986625852813753 0.024327387112986463 0.023179736190651206 0.024238297175676438 0.023575096871329925 C 0.024327387112986463 0.023179736190651206 0.025721388214959083 0.021285396818805664 0.02560730428886042 0.02146152759207676" fill="none" stroke="#000000" stroke-width="0.001"/>
<path d="M 0.02560730428886042 0.02146152759207676 C 0.025621722342521115 0.02126974680415362 0.026005409337275135 0.01891457040465629 0.02578032093278876 0.01916015813699911 C 0.026005409337275135 0.01891457040465629 0.02851903549352262 0.018460667859543225 0.02830836514269694 0.01851447480396291" fill="none" stroke="#000000" stroke-width="0.001"/>
<path d="M 0.02830836514269694 0.01851447480396291 C 0.02872801016208712 0.01859964432399759 0.033999860993980294 0.01989739154454586 0.03334410537537912 0.019536509044379105 C 0.033999860993980294 0.01989739154454586 0.036413543165121964 0.02312077778609602 0.03617743256591097 0.02284506480596395" fill="none" stroke="#000000" stroke-width="0.001"/>
<path d="M 0.03617743256591097 0.02284506480596395 C 0.03605057165557991 0.022919751997545607 0.03444367770819179 0.024057600809038415 0.03465510164193822 0.023741311104943846 C 0.03444367770819179 0.024057600809038415 0.03357914492462618 0.027213406213769584 0.03364034536095381 0.02664054125509877 C 0.03357914492462618 0.027213406213769584 0.03412509451793924 0.03104355608107499 0.03392069640600665 0.030615690608993617 C 0.03412509451793924 0.03104355608107499 0.03627415822898977 0.03187152994599873 0.036093122704144914 0.03177492692007526" fill="none" stroke="none" stroke-width="0"/>
</g><g id="人指">
<g transform="translate(0.20067684849431977,0.15965331947403713) rotate(0) scale(1,1) translate(-0.018347050754458152,-0.012212198913662067)"><path d="M 0.017925616822861704 0.013643478869142123 C 0.017808737971100545 0.01357802396664065 0.016297963195856188 0.012721163953221417 0.016523070601727783 0.012858020039124443 C 0.016297963195856188 0.012721163953221417 0.015116099398292114 0.011929804654904261 0.01522432795240255 0.012001205838305815" fill="none" stroke="#000000" stroke-width="0.001"/>
<path d="M 0.01522432795240255 0.012001205838305815 C 0.015139341483877687 0.011922224856074939 0.014109390991657198 0.010902111232170685 0.014204490330104192 0.011053434051535303 C 0.014109390991657198 0.010902111232170685 0.014137648916050538 0.010070100036785311 0.014083135891038632 0.010185332005930399 C 0.014137648916050538 0.010070100036785311 0.015009911526897868 0.00962555156288495 0.014858646630247078 0.009670650421794255 C 0.015009911526897868 0.00962555156288495 0.015984953652564873 0.009641936972120778 0.01589831465084812 0.009644145699018739" fill="none" stroke="#000000" stroke-width="0.001"/>
<path d="M 0.01589831465084812 0.009644145699018739 C 0.016026904686341575 0.009681946233556902 0.017699037212238825 0.010195886938589017 0.017441395076769613 0.010097752113476691 C 0.017699037212238825 0.010195886938589017 0.019119072376454407 0.010882097890940818 0.018990020276478652 0.010821763600366654" fill="none" stroke="#000000" stroke-width="0.001"/>
<path d="M 0.018990020276478652 0.010821763600366654 C 0.019034027839038514 0.010924942898801726 0.01951607055870595 0.012253603016482352 0.01951811102719699 0.012059915181587519 C 0.01951607055870595 0.012253603016482352 0.01883282680422492 0.013277981259734195 0.018965534654586193 0.013146017619104645 C 0.01883282680422492 0.013277981259734195 0.01783895700355133 0.013684933973311914 0.017925616822861704 0.013643478869142123" fill="none" stroke="none" stroke-width="0"/>
</g><g transform="translate(0.203575773704939,0.16150614210959607) rotate(0) scale(1,1) translate(-0.018347050754458152,-0.013480335131195698)"><path d="M 0.017475978775577144 0.014707654293679862 C 0.01735949066446484 0.014634397247568457 0.01583020201854655 0.01366796898132831 0.01607812144222947 0.013828569740342996 C 0.01583020201854655 0.01366796898132831 0.014369514378811524 0.012693101472600339 0.014500945691382135 0.01278044518550362" fill="none" stroke="#000000" stroke-width="0.001"/>
<path d="M 0.014500945691382135 0.01278044518550362 C 0.014458743369211616 0.012704927993423503 0.013963587832065312 0.011711022726631373 0.013994517825335909 0.011874238880542207 C 0.013963587832065312 0.011711022726631373 0.014212932101820197 0.01068643826092788 0.014129785772134968 0.010821851338573614 C 0.014212932101820197 0.01068643826092788 0.015154664281497901 0.010200325295055549 0.01499227378155866 0.01024928194879339 C 0.015154664281497901 0.010200325295055549 0.0161689882705598 0.010233128955796695 0.016078471771405867 0.010234371493719517" fill="none" stroke="none" stroke-width="0"/>
<path d="M 0.016078471771405867 0.010234371493719517 C 0.01621560589962397 0.010329784807533486 0.017984773014849624 0.011534646540717461 0.0177240813100231 0.01137933125948714 C 0.017984773014849624 0.011534646540717461 0.019330329805932595 0.012158056835899734 0.01920677222932417 0.01209815486848338" fill="none" stroke="#000000" stroke-width="0.001"/>
<path d="M 0.01920677222932417 0.01209815486848338 C 0.0192384799268922 0.012199569686373427 0.019557452550871223 0.013524543093362923 0.019587264600140538 0.013315132683163939 C 0.019557452550871223 0.013524543093362923 0.018673087152712115 0.014727123258414184 0.0188490276380924 0.01461107979087119 C 0.018673087152712115 0.014727123258414184 0.017361558037034205 0.014715702168913918 0.017475978775577144 0.014707654293679862" fill="none" stroke="none" stroke-width="0"/>
</g><g transform="translate(0.20775574146345488,0.1616841361182734) rotate(0) scale(1,1) translate(-0.0213073592558212,-0.01473294942839358)"><path d="M 0.02113313785215419 0.01646740478626804 C 0.020959934598716073 0.016444775410350637 0.018648262601483574 0.016138658797494466 0.01905469881089678 0.0161958522752592 C 0.018648262601483574 0.016138658797494466 0.016022670383220645 0.01574651895124389 0.016255903339195733 0.01578108305309122" fill="none" stroke="#000000" stroke-width="0.001"/>
<path d="M 0.016255903339195733 0.01578108305309122 C 0.016194253940878475 0.01571711168088439 0.015444763080435138 0.014862764343203943 0.01551611055938865 0.015013426586609252 C 0.015444763080435138 0.014862764343203943 0.015390035511117334 0.01388644526102904 0.01539973359175359 0.013973136132227518" fill="none" stroke="none" stroke-width="0"/>
<path d="M 0.01539973359175359 0.013973136132227518 C 0.015456789541567085 0.013899654020341101 0.016219648944140717 0.012989236295646358 0.01608440498951554 0.013091350789590527 C 0.016219648944140717 0.012989236295646358 0.017100849052067418 0.012719129822839742 0.017022661047255735 0.012747762204897494" fill="none" stroke="none" stroke-width="0"/>
<path d="M 0.017022661047255735 0.012747762204897494 C 0.01720860395127758 0.012761592576984702 0.019619994971571464 0.012931571607306548 0.01925397589551787 0.012913726669943984 C 0.019619994971571464 0.012931571607306548 0.02159496613193058 0.012965916018523625 0.021414889959898833 0.012961901453248268" fill="none" stroke="#000000" stroke-width="0.001"/>
<path d="M 0.021414889959898833 0.012961901453248268 C 0.02150585020190072 0.013040577745895957 0.022590095597099725 0.014127158908139245 0.022506412863921473 0.013906016965020529 C 0.022590095597099725 0.014127158908139245 0.02230464317372391 0.01582905375577682 0.022419082758037848 0.015615604770672859 C 0.02230464317372391 0.01582905375577682 0.021025975776663885 0.016538388120900974 0.02113313785215419 0.01646740478626804" fill="none" stroke="none" stroke-width="0"/>
</g><g transform="translate(0.205602719560841,0.1615059761624814) rotate(0) scale(1,1) translate(-0.00967276663863141,-0.00967276663863141)"><path d="M 0.0052307426037133216 0.007290145296602902 C 0.005410435788486506 0.007248633459919728 0.007419542836019604 0.006563514591419418 0.007387060820991538 0.006792003256404823 C 0.007419542836019604 0.006563514591419418 0.005473315614304989 0.004361304488475813 0.0056205267840501085 0.004548281316778044" fill="none" stroke="#000000" stroke-width="0.001"/>
<path d="M 0.0056205267840501085 0.004548281316778044 C 0.006046592731969896 0.004688355857942159 0.011321109188290612 0.006452915732473927 0.010733318159087554 0.006229175810747425 C 0.011321109188290612 0.006452915732473927 0.012835744215770068 0.007316825758058455 0.012674019134486798 0.007233160377496068" fill="none" stroke="none" stroke-width="0"/>
<path d="M 0.012674019134486798 0.007233160377496068 C 0.01270433670299475 0.007300546025995372 0.012973650350446526 0.008154336282548436 0.013037829956582215 0.008041788159487724 C 0.012973650350446526 0.008154336282548436 0.011809366686214892 0.008628900328786009 0.011903863860858533 0.008583737854224602" fill="none" stroke="#000000" stroke-width="0.001"/>
<path d="M 0.011903863860858533 0.008583737854224602 C 0.011589354548456492 0.008560016119272365 0.007573658673938606 0.00819127765499595 0.00812975211203404 0.008299077034797759 C 0.007573658673938606 0.00819127765499595 0.004989158478019928 0.00720606765175333 0.0052307426037133216 0.007290145296602902" fill="none" stroke="#000000" stroke-width="0.001"/>
</g></g>
<g id="中指">
<g transform="translate(0.20112147889210552,0.1548643713903028) rotate(0) scale(1,1) translate(-0.018347050754458152,-0.012212198913662067)"><path d="M 0.018021120549575366 0.013689139593839486 C 0.017876896590457055 0.013639813465652234 0.016023456988861103 0.012996548348611935 0.01629043304015562 0.013097226055592472 C 0.016023456988861103 0.012996548348611935 0.014694655841864985 0.012429655531279766 0.014817407934041188 0.012481007110073052" fill="none" stroke="#000000" stroke-width="0.001"/>
<path d="M 0.014817407934041188 0.012481007110073052 C 0.014745496825816364 0.012430725788179274 0.013858887703166975 0.01175556000751317 0.013954474635343299 0.011877631247347706 C 0.013858887703166975 0.01175556000751317 0.013695384946975883 0.010885741308497128 0.013670364747925304 0.011016152232058634 C 0.013695384946975883 0.010885741308497128 0.014400432043793984 0.010242534588449773 0.014254717023950252 0.010312700164609636 C 0.014400432043793984 0.010242534588449773 0.015515963982891741 0.01016262074760115 0.015418944986050087 0.010174165318140265" fill="none" stroke="#000000" stroke-width="0.001"/>
<path d="M 0.015418944986050087 0.010174165318140265 C 0.015552683084665009 0.01019249894686038 0.017302871745381854 0.010447018664813835 0.01702380216942914 0.01039416886278165 C 0.017302871745381854 0.010447018664813835 0.018913111374820452 0.010842879115838536 0.01876777989748266 0.010808362942526469" fill="none" stroke="#000000" stroke-width="0.001"/>
<path d="M 0.01876777989748266 0.010808362942526469 C 0.018831620363939892 0.01089699958621243 0.01957196487606537 0.012056283909298363 0.01953386549496945 0.011872002666757999 C 0.01957196487606537 0.012056283909298363 0.01909891039185089 0.013171165930267618 0.01922497247063373 0.013019737853010829 C 0.01909891039185089 0.013171165930267618 0.017920799556153836 0.013744923072241873 0.018021120549575366 0.013689139593839486" fill="none" stroke="none" stroke-width="0"/>
</g><g transform="translate(0.20444242216073205,0.15603748443107776) rotate(0) scale(1,1) translate(-0.018347050754458152,-0.013480335131195698)"><path d="M 0.01781499766873298 0.014926014149273527 C 0.017682355363623222 0.014878630970965544 0.015948202551950688 0.01425725773552968 0.01622329000741586 0.014357416009577744 C 0.015948202551950688 0.01425725773552968 0.014371503052795498 0.01367133976495667 0.01451394820315091 0.013724114860696753" fill="none" stroke="#000000" stroke-width="0.001"/>
<path d="M 0.01451394820315091 0.013724114860696753 C 0.014435502982913972 0.013658026986127284 0.013487741508876348 0.012766717139427551 0.013572605560307647 0.012931060365863136 C 0.013487741508876348 0.012766717139427551 0.013557455464098745 0.01158258909219937 0.013495579585975333 0.011751996143469732 C 0.013557455464098745 0.01158258909219937 0.01447723932486668 0.010827467360516188 0.014315116097788587 0.010898175750618813 C 0.01447723932486668 0.010827467360516188 0.015534886828672769 0.01090393877153986 0.015441058310912447 0.010903495462238242" fill="none" stroke="none" stroke-width="0"/>
<path d="M 0.015441058310912447 0.010903495462238242 C 0.015594359343022 0.01094933349480591 0.01756735822639547 0.011541808887643935 0.01728067069622707 0.011453551853050267 C 0.01756735822639547 0.011541808887643935 0.019014695170992073 0.012004998879388254 0.018881308672933226 0.011962579877362255" fill="none" stroke="#000000" stroke-width="0.001"/>
<path d="M 0.018881308672933226 0.011962579877362255 C 0.018942594629413646 0.012048792447121487 0.01963868979051774 0.013209559137572052 0.019616740150698277 0.012997130714473027 C 0.01963868979051774 0.013209559137572052 0.018994559143936333 0.014672461240783937 0.019144704350766775 0.014511720954550562 C 0.018994559143936333 0.014672461240783937 0.017704188778563498 0.014960538582167107 0.01781499766873298 0.014926014149273527" fill="none" stroke="none" stroke-width="0"/>
</g><g transform="translate(0.2088194472857734,0.15721437669064142) rotate(0) scale(1,1) translate(-0.0213073592558212,-0.01473294942839358)"><path d="M 0.020863837536631884 0.01645092810807207 C 0.02069325984224094 0.01639161559743542 0.01844485920623846 0.015618676522677339 0.018816905203940526 0.01573917798043227 C 0.01844485920623846 0.015618676522677339 0.016197817260896002 0.014943721667894613 0.016399285564207118 0.015004910615012895" fill="none" stroke="#000000" stroke-width="0.001"/>
<path d="M 0.016399285564207118 0.015004910615012895 C 0.016335582547888403 0.014944799649909518 0.015557121407255169 0.014131216579748819 0.01563484936838253 0.014283579033772384 C 0.015557121407255169 0.014131216579748819 0.015452525085870155 0.013084309677809935 0.015466550030678799 0.013176561166730124" fill="none" stroke="none" stroke-width="0"/>
<path d="M 0.015466550030678799 0.013176561166730124 C 0.015516940317969477 0.013096040327974722 0.016227912473610762 0.012112448454368072 0.016071233478166927 0.012210311101665292 C 0.016227912473610762 0.012112448454368072 0.017452986684157974 0.011984867590621675 0.017346697976004816 0.012002209399163492" fill="none" stroke="none" stroke-width="0"/>
<path d="M 0.017346697976004816 0.012002209399163492 C 0.017537710189400226 0.012048308697376985 0.02000585978666683 0.012639797756854709 0.01963884453674972 0.012555400977725407 C 0.02000585978666683 0.012639797756854709 0.02192688401153181 0.013053268229630927 0.02175088097501011 0.013014970748715118" fill="none" stroke="#000000" stroke-width="0.001"/>
<path d="M 0.02175088097501011 0.013014970748715118 C 0.021834601862270257 0.01310456029867132 0.022808063002125577 0.014326535889104515 0.02275553162213188 0.01409004534818953 C 0.022808063002125577 0.014326535889104515 0.022223616361142833 0.016049597469685147 0.022381257534934498 0.015852857239694935 C 0.022223616361142833 0.016049597469685147 0.020737385870106668 0.016500767347103498 0.020863837536631884 0.01645092810807207" fill="none" stroke="none" stroke-width="0"/>
</g><g transform="translate(0.20673996290029734,0.15662871674132667) rotate(0) scale(1,1) translate(-0.00967276663863141,-0.00967276663863141)"><path d="M 0.004349796482357967 0.007051193513643235 C 0.004547490507162675 0.0070111354201303575 0.006773317733439267 0.006424237376825811 0.006722124780014462 0.006570496391488708 C 0.006773317733439267 0.006424237376825811 0.004817610852075714 0.00518988441653845 0.004964111923455618 0.00529608533768847" fill="none" stroke="#000000" stroke-width="0.001"/>
<path d="M 0.004964111923455618 0.00529608533768847 C 0.005405487660501988 0.0053935386017381955 0.01089465816433165 0.006616565076689677 0.010260620768012062 0.006465524506285177 C 0.01089465816433165 0.006616565076689677 0.012765222338563911 0.007162159488897238 0.012572560679290691 0.007108572182542464" fill="none" stroke="none" stroke-width="0"/>
<path d="M 0.012572560679290691 0.007108572182542464 C 0.01260234376053325 0.007181289967015128 0.012897783600586429 0.008101119616010692 0.012929957654201381 0.007981185596214427 C 0.012897783600586429 0.008101119616010692 0.012124514901053757 0.008594996655421254 0.012186472035911267 0.008547780420097652" fill="none" stroke="#000000" stroke-width="0.001"/>
<path d="M 0.012186472035911267 0.008547780420097652 C 0.011875986056734235 0.008511298558286811 0.007807583989657443 0.007985282502829693 0.008460640285786884 0.008109998078367561 C 0.007807583989657443 0.007985282502829693 0.004007226165405557 0.006962959799916207 0.004349796482357967 0.007051193513643235" fill="none" stroke="#000000" stroke-width="0.001"/>
</g></g>
<g id="小指">
<g transform="translate(0.2049414375681744,0.14667426901844885) rotate(0) scale(1,1) translate(-0.018347050754458152,-0.012212198913662067)"><path d="M 0.018763694861727565 0.013400072131897476 C 0.01862669183202685 0.01341280543286927 0.0168974980293282 0.013567643250371984 0.017119658505318994 0.013552871743559007 C 0.0168974980293282 0.013567643250371984 0.016012611703547935 0.01357936841949438 0.016097769149838015 0.013577330213653198" fill="none" stroke="#000000" stroke-width="0.001"/>
<path d="M 0.016097769149838015 0.013577330213653198 C 0.016012993823295983 0.013561701869385958 0.01492918536274866 0.01332184610573561 0.015080465231333625 0.013389790082446312 C 0.01492918536274866 0.01332184610573561 0.014252951348137586 0.012636433595836367 0.01428241072681844 0.012762002493124763 C 0.014252951348137586 0.012636433595836367 0.014837231305205586 0.011765712168630173 0.014726952687163387 0.011882963314985565 C 0.014837231305205586 0.011765712168630173 0.015678987598004943 0.01131099085534961 0.015605754143324824 0.01135498873686007" fill="none" stroke="#000000" stroke-width="0.001"/>
<path d="M 0.015605754143324824 0.01135498873686007 C 0.015718178073221668 0.011328405973468741 0.0172075852844182 0.010993045901122956 0.016954841302086934 0.011035995576164137 C 0.0172075852844182 0.010993045901122956 0.018779001983734445 0.010823225724716041 0.01863868193130002 0.010839592636365894" fill="none" stroke="#000000" stroke-width="0.001"/>
<path d="M 0.01863868193130002 0.010839592636365894 C 0.018686835609535254 0.010882801892651981 0.019279622393540058 0.011516543827771439 0.019216526070122846 0.01135810371179893 C 0.019279622393540058 0.011516543827771439 0.01935810187827363 0.012911038063044203 0.01939583781230657 0.012740874028035991 C 0.01935810187827363 0.012911038063044203 0.01871101628251265 0.013455005307219266 0.018763694861727565 0.013400072131897476" fill="none" stroke="none" stroke-width="0"/>
</g><g transform="translate(0.2079063687361697,0.14699922269203838) rotate(0) scale(1,1) translate(-0.018347050754458152,-0.013480335131195698)"><path d="M 0.018180583154602917 0.015011788539982628 C 0.01804744782035545 0.01497828301515694 0.016339911537763593 0.014557245883509326 0.016582959143633315 0.014609722242074373 C 0.016339911537763593 0.014557245883509326 0.015154099612543999 0.01436310140346271 0.015264011884166253 0.01438207223720207" fill="none" stroke="#000000" stroke-width="0.001"/>
<path d="M 0.015264011884166253 0.01438207223720207 C 0.015189996135420204 0.014353873987956147 0.014268442406472025 0.013939591176335505 0.014375822899213648 0.014043693246250988 C 0.014268442406472025 0.013939591176335505 0.013996871114003395 0.0129749527962759 0.013975445971266792 0.013132847398216274 C 0.013996871114003395 0.0129749527962759 0.014775044320224334 0.012036476728302868 0.014632924612052886 0.012148958022966515 C 0.014775044320224334 0.012036476728302868 0.015768212290763438 0.011752581348859686 0.015680882469324163 0.011783071862252519" fill="none" stroke="none" stroke-width="0"/>
<path d="M 0.015680882469324163 0.011783071862252519 C 0.015807933449932195 0.011786536980286788 0.01747019051081045 0.011842075894013494 0.017205494236620534 0.01182465327866374 C 0.01747019051081045 0.011842075894013494 0.018994883053185054 0.012006100743765043 0.018857237759603167 0.011992143246449559" fill="none" stroke="#000000" stroke-width="0.001"/>
<path d="M 0.018857237759603167 0.011992143246449559 C 0.01890997796987309 0.012064884745855292 0.01952366475924528 0.013065392519926503 0.019490120282842232 0.012865041239318366 C 0.01952366475924528 0.013065392519926503 0.0191506433824198 0.01457525422213589 0.01925977147643974 0.014396358613747202 C 0.0191506433824198 0.01457525422213589 0.01809065079444985 0.015063074367168913 0.018180583154602917 0.015011788539982628" fill="none" stroke="none" stroke-width="0"/>
</g><g transform="translate(0.21156447427232095,0.14805129030961514) rotate(0) scale(1,1) translate(-0.0213073592558212,-0.01473294942839358)"><path d="M 0.0205630594993597 0.016283508263877422 C 0.020423898999778978 0.016235976367146188 0.018610601538799516 0.015616957631983239 0.01889313350439102 0.015713125503102617 C 0.018610601538799516 0.015616957631983239 0.017029304446250868 0.015080857836056756 0.01717267591226165 0.0151294938104449" fill="none" stroke="#000000" stroke-width="0.001"/>
<path d="M 0.01717267591226165 0.0151294938104449 C 0.01710726976117402 0.015078435973904682 0.016304621083100945 0.014363385187900202 0.01638780209921008 0.01451679977196229 C 0.016304621083100945 0.014363385187900202 0.016156728853930515 0.013186162054177967 0.01617450371895202 0.013288518801699838" fill="none" stroke="none" stroke-width="0"/>
<path d="M 0.01617450371895202 0.013288518801699838 C 0.016232769660529348 0.013210405149281141 0.01703740920656952 0.012260304383446758 0.01687369501787997 0.012351154972675474 C 0.01703740920656952 0.012260304383446758 0.01824452223033882 0.012185574794145233 0.0181390739832266 0.012198311730955251" fill="none" stroke="none" stroke-width="0"/>
<path d="M 0.0181390739832266 0.012198311730955251 C 0.018274269702514268 0.012231387770238213 0.02006460981142577 0.012673875779152674 0.01976142261467864 0.012595224202350794 C 0.02006460981142577 0.012673875779152674 0.021945311821651648 0.013187706190096715 0.021777320344192184 0.013142130652577797" fill="none" stroke="#000000" stroke-width="0.001"/>
<path d="M 0.021777320344192184 0.013142130652577797 C 0.021852031271031042 0.013240091550287375 0.022710053052050493 0.01454373820239364 0.02267385146625847 0.014317661425092729 C 0.022710053052050493 0.01454373820239364 0.022035840043121542 0.01601887255008747 0.02221173937369644 0.015855051980188745 C 0.022035840043121542 0.01601887255008747 0.02042566950983164 0.01631921295418481 0.0205630594993597 0.016283508263877422" fill="none" stroke="none" stroke-width="0"/>
</g></g>
<g id="薬指">
<g transform="translate(0.20204362700635028,0.15120793440773625) rotate(0) scale(1,1) translate(-0.018347050754458152,-0.012212198913662067)"><path d="M 0.018265562654194312 0.013684231609146813 C 0.01811714373217024 0.013650728109428382 0.01622421780790353 0.013224248153688889 0.016484535589905425 0.01328218961252565 C 0.01622421780790353 0.013224248153688889 0.015029850410193791 0.012964496143987354 0.015141749270171609 0.012988934103105684" fill="none" stroke="#000000" stroke-width="0.001"/>
<path d="M 0.015141749270171609 0.012988934103105684 C 0.015062500346244427 0.01295412116003724 0.014069497075471005 0.012466724450224525 0.014190762183045423 0.012571178786284345 C 0.014069497075471005 0.012466724450224525 0.013692098672012478 0.011599321136294298 0.013686567979278575 0.011735482070387842 C 0.013692098672012478 0.011599321136294298 0.014394707183580565 0.01084819809225588 0.014257130495852258 0.010937247577161826 C 0.014394707183580565 0.01084819809225588 0.01542751804336543 0.010644358307712714 0.015337488232018264 0.010666888251516493" fill="none" stroke="#000000" stroke-width="0.001"/>
<path d="M 0.015337488232018264 0.010666888251516493 C 0.015460058573719663 0.01066946621732968 0.017092338785515124 0.01071334284529279 0.016808332332435044 0.01069782384127473 C 0.017092338785515124 0.01071334284529279 0.018907001780357896 0.010866057337938063 0.018745565668979215 0.01085311629973319" fill="none" stroke="#000000" stroke-width="0.001"/>
<path d="M 0.018745565668979215 0.01085311629973319 C 0.01879640409260884 0.010917279680184487 0.01940058481592092 0.011791941075533965 0.019355626752534716 0.011623076865148742 C 0.01940058481592092 0.011791941075533965 0.019194223754751973 0.013051249719689044 0.019285062429613673 0.01287948682435587 C 0.019194223754751973 0.013051249719689044 0.018180604339576033 0.013751293674546057 0.018265562654194312 0.013684231609146813" fill="none" stroke="none" stroke-width="0"/>
</g><g transform="translate(0.20550267038652073,0.1517486006318513) rotate(0) scale(1,1) translate(-0.018347050754458152,-0.013480335131195698)"><path d="M 0.01810064564410883 0.015000973382753408 C 0.017964312870578418 0.014972455547165656 0.016190304258619684 0.01460980550800187 0.01646465236174387 0.014658759355700386 C 0.016190304258619684 0.01460980550800187 0.014670453077024822 0.014393091198260457 0.014808468406618595 0.014413527210371221" fill="none" stroke="#000000" stroke-width="0.001"/>
<path d="M 0.014808468406618595 0.014413527210371221 C 0.014731981047851563 0.01437503355155955 0.013780486105970442 0.01382345730002881 0.013890620101414218 0.013951603304631176 C 0.013780486105970442 0.01382345730002881 0.013497958404206402 0.012702399294945687 0.013486860461293283 0.012875775155142832 C 0.013497958404206402 0.012702399294945687 0.014164414043370453 0.011762013634660737 0.014023795416371639 0.011871092982265439 C 0.014164414043370453 0.011762013634660737 0.015270158032688006 0.011541467150688151 0.015174283985279055 0.011566822983886404" fill="none" stroke="none" stroke-width="0"/>
<path d="M 0.015174283985279055 0.011566822983886404 C 0.01532360356566007 0.01157821018744127 0.017268942158184742 0.011734865196482256 0.01696611894985124 0.011703469426544799 C 0.017268942158184742 0.011734865196482256 0.01896166611323353 0.01196358078951849 0.018808162485281044 0.011943572223135898" fill="none" stroke="#000000" stroke-width="0.001"/>
<path d="M 0.018808162485281044 0.011943572223135898 C 0.01886678495610662 0.012022384593729136 0.0195527901804651 0.01308972370593213 0.01951163213518792 0.012889320670254745 C 0.0195527901804651 0.01308972370593213 0.019184476821017295 0.014524379710639395 0.01930205902860722 0.014348408651264506 C 0.019184476821017295 0.014524379710639395 0.0180005278620673 0.01505535377704415 0.01810064564410883 0.015000973382753408" fill="none" stroke="none" stroke-width="0"/>
</g><g transform="translate(0.20987599365522883,0.15233940056555087) rotate(0) scale(1,1) translate(-0.0213073592558212,-0.01473294942839358)"><path d="M 0.021107268741986162 0.016495936936392952 C 0.02093009641916837 0.016460939590171166 0.01861019748664301 0.016005939579948038 0.018981200868172662 0.016075968781731523 C 0.01861019748664301 0.016005939579948038 0.016461397104918476 0.015620554659429417 0.016655228163630336 0.01565558651499112" fill="none" stroke="#000000" stroke-width="0.001"/>
<path d="M 0.016655228163630336 0.01565558651499112 C 0.01657912515426181 0.01561226757234141 0.0156415628320749 0.01500144386146474 0.015741992051208013 0.015135759203194606 C 0.0156415628320749 0.01500144386146474 0.015425751324268376 0.013952806015152572 0.015450077534032963 0.014043802414232729" fill="none" stroke="none" stroke-width="0"/>
<path d="M 0.015450077534032963 0.014043802414232729 C 0.015491145692557912 0.013956723328950699 0.01607869629836458 0.012875456259406087 0.015942895436332337 0.01299885339084836 C 0.01607869629836458 0.012875456259406087 0.017174420581927193 0.012526718790765223 0.017079687878419895 0.012563036836925464" fill="none" stroke="none" stroke-width="0"/>
<path d="M 0.017079687878419895 0.012563036836925464 C 0.01726904812282181 0.012583515510754213 0.01974050253471516 0.012854322312764798 0.019352010811242888 0.012808780922870452 C 0.01974050253471516 0.012854322312764798 0.02194072003915751 0.013134596231723198 0.021741588560087156 0.013109533515657603" fill="none" stroke="#000000" stroke-width="0.001"/>
<path d="M 0.021741588560087156 0.013109533515657603 C 0.021817646554261372 0.013184442462526818 0.022709443459864007 0.014231621217585803 0.022654284490177763 0.01400844087808818 C 0.022709443459864007 0.014231621217585803 0.022274578217306135 0.015994988927821134 0.022403496196322103 0.01578769758962907 C 0.022274578217306135 0.015994988927821134 0.020999249787458166 0.016554956881956608 0.021107268741986162 0.016495936936392952" fill="none" stroke="none" stroke-width="0"/>
</g><g transform="translate(0.2077352402391154,0.1520488259894583) rotate(0) scale(1,1) translate(-0.00967276663863141,-0.00967276663863141)"><path d="M 0.005097172422587118 0.007624070749418411 C 0.005275618617568563 0.007533070574784164 0.007312749458994469 0.006328624397783207 0.007238526762364464 0.0065320686538074485 C 0.007312749458994469 0.006328624397783207 0.005883621283795726 0.005070295595737518 0.005987844782147167 0.0051827396771275125" fill="none" stroke="#000000" stroke-width="0.001"/>
<path d="M 0.005987844782147167 0.0051827396771275125 C 0.0062608615641931795 0.005211505734019791 0.00982334466572048 0.005685146295873724 0.00926404616669931 0.005527932359834854 C 0.00982334466572048 0.005685146295873724 0.012985708487376364 0.007197754788740548 0.012699426770401206 0.007069306909593957" fill="none" stroke="#000000" stroke-width="0.001"/>
<path d="M 0.012699426770401206 0.007069306909593957 C 0.012713048066268383 0.00714504069441365 0.012815398987312404 0.008096225874704575 0.012862882320807317 0.007978112327430271 C 0.012815398987312404 0.008096225874704575 0.012068522139100157 0.008529049239340208 0.012129626768462246 0.008486669476885597" fill="none" stroke="#000000" stroke-width="0.001"/>
<path d="M 0.012129626768462246 0.008486669476885597 C 0.011857523546776072 0.008459905924951093 0.008278350246071901 0.008093623626382622 0.008864388108228162 0.008165506853671555 C 0.008278350246071901 0.008093623626382622 0.004783237782117031 0.007578951074063983 0.005097172422587118 0.007624070749418411" fill="none" stroke="#000000" stroke-width="0.001"/>
</g></g>
<g transform="translate(0.21344543487768808,0.15557312158561665) rotate(0) scale(1,1) translate(-0.014303772200158306,-0.014303772200158308)"><path d="M 0.017937623525470653 0.006442703100147652 C 0.018134290363404065 0.00615229094583006 0.01940308724352167 0.004727285696358012 0.019117624553071123 0.004700230174242098 C 0.01940308724352167 0.004727285696358012 0.019971188339220725 0.006731547763584829 0.019650399668173946 0.006605036232843138 C 0.019971188339220725 0.006731547763584829 0.021291087746314462 0.0055894374336908255 0.0210423565793518 0.005459299358692243 C 0.021291087746314462 0.0055894374336908255 0.02115952501838294 0.007706958903525027 0.02114278666994992 0.00738586468283463" fill="none" stroke="#000000" stroke-width="0.001"/>
<path d="M 0.02114278666994992 0.00738586468283463 C 0.021330998407880514 0.007492374235001478 0.02270155996226794 0.00804769293182483 0.022272057097533493 0.00802492199583572 C 0.02270155996226794 0.00804769293182483 0.023918206018888943 0.007708350130388691 0.023719803858356585 0.007522490298769282 C 0.023918206018888943 0.007708350130388691 0.023567996509831404 0.009942587796045914 0.02346247006072765 0.009140080985552178 C 0.023567996509831404 0.009942587796045914 0.024442959206531598 0.013527695223023675 0.024352962552979106 0.012337531161731701 C 0.024442959206531598 0.013527695223023675 0.02378654734377949 0.01738762816949986 0.024002449982042595 0.016281065353304015 C 0.02378654734377949 0.01738762816949986 0.022942935651750415 0.019737732102937732 0.023057546723400463 0.018976908058906776 C 0.022942935651750415 0.019737732102937732 0.023076323652535653 0.02112766380083009 0.023314783552142317 0.020846009617489752 C 0.023076323652535653 0.02112766380083009 0.021353868158950556 0.02095562202220608 0.021626787325760476 0.0206668331589488 C 0.021353868158950556 0.02095562202220608 0.0213846084121809 0.022728146874937138 0.021677268551282797 0.022578742797033438 C 0.0213846084121809 0.022728146874937138 0.019406237671237118 0.02144896663827558 0.019870826491149095 0.021563257626370992 C 0.019406237671237118 0.02144896663827558 0.018726220488587908 0.021947953408809312 0.018889735631810935 0.02189299686846098" fill="none" stroke="none" stroke-width="0"/>
<path d="M 0.018889735631810935 0.02189299686846098 C 0.018947280081081694 0.022190986616763452 0.018899470320544134 0.02373773288816077 0.019235002327435496 0.023680935358275805 C 0.018899470320544134 0.02373773288816077 0.016420161611847298 0.022301609623720076 0.016876543590462756 0.022233782047770774 C 0.016420161611847298 0.022301609623720076 0.016130146709609165 0.024028814871344256 0.01649671045574274 0.02408790081397162 C 0.016130146709609165 0.024028814871344256 0.01437390288998106 0.0215111606550124 0.0146771611136613 0.021879266392006574" fill="none" stroke="#000000" stroke-width="0.001"/>
<path d="M 0.0146771611136613 0.021879266392006574 C 0.014613384920001209 0.02165638703202493 0.013983601482178198 0.02059420489586297 0.014294503951700756 0.020541990232116704 C 0.013983601482178198 0.02059420489586297 0.012564620020663478 0.02246764839821207 0.012811746296525947 0.022192554374484162" fill="none" stroke="none" stroke-width="0"/>
<path d="M 0.012811746296525947 0.022192554374484162 C 0.012891038801731092 0.02158419730757387 0.013070065886069872 0.018029620883038482 0.013287501327756811 0.0185424119730224 C 0.013070065886069872 0.018029620883038482 0.011210405699512227 0.01921137381150703 0.011507133646404311 0.019115807834580653" fill="none" stroke="none" stroke-width="0"/>
<path d="M 0.011507133646404311 0.019115807834580653 C 0.011590469155205686 0.01884504113022044 0.012535544506692893 0.01544453703823143 0.012507159752020805 0.015866607382258077 C 0.012535544506692893 0.01544453703823143 0.011792799948340078 0.013899660066594446 0.011847750702469365 0.01405096370626088" fill="none" stroke="none" stroke-width="0"/>
<path d="M 0.011847750702469365 0.01405096370626088 C 0.011971152669977293 0.013910334188412168 0.013467647070561065 0.011918055671125546 0.013328574312564498 0.012363409492076339 C 0.013467647070561065 0.011918055671125546 0.013532294588916801 0.008401993551749289 0.013516623798428162 0.00870671785485137" fill="none" stroke="none" stroke-width="0"/>
<path d="M 0.013516623798428162 0.00870671785485137 C 0.013804615708796025 0.008952342052546447 0.015628019156370437 0.009795385898120903 0.01524457526063534 0.010180463041021834 C 0.015628019156370437 0.009795385898120903 0.015912739158205978 0.005765553656849767 0.015817287172838743 0.006396254997445777" fill="none" stroke="none" stroke-width="0"/>
<path d="M 0.015817287172838743 0.006396254997445777 C 0.015992747534079782 0.006702995889208313 0.017223438732390305 0.008244441698471308 0.016870049340284986 0.008236700348020995 C 0.017223438732390305 0.008244441698471308 0.01811555255633493 0.006143703558835428 0.017937623525470653 0.006442703100147652" fill="none" stroke="none" stroke-width="0"/>
</g><g id="鱗">
<g transform="translate(0.21344543487768808,0.15557312158561665) rotate(0) scale(1,1) translate(-0.022056771251806547,-0.022056771251806547)"><path d="M 0.02249237910607815 0.02744366761658599 C 0.02284675500087284 0.027003264621355865 0.02688192175557022 0.021264338388757704 0.026744889843614436 0.022158831673824517 C 0.02688192175557022 0.021264338388757704 0.023919418066708647 0.01625565790594755 0.024136762049547553 0.01670974819578424" fill="none" stroke="none" stroke-width="0"/>
<path d="M 0.024136762049547553 0.01670974819578424 C 0.024462076579570113 0.016686262138130042 0.02856386574380639 0.016572266684599823 0.02804053640981826 0.016427915503933858 C 0.02856386574380639 0.016572266684599823 0.030614728861370642 0.018609799602096015 0.030416714057405075 0.01844196236377585" fill="none" stroke="#000000" stroke-width="0.001"/>
<path d="M 0.030416714057405075 0.01844196236377585 C 0.03053253043925385 0.018739646730982086 0.03175824704458515 0.022640048192584097 0.031806510639590405 0.022014174770250687 C 0.03175824704458515 0.022640048192584097 0.029673470940488014 0.026280632486903956 0.029837550917342043 0.025952443431776783" fill="none" stroke="#000000" stroke-width="0.001"/>
<path d="M 0.029837550917342043 0.025952443431776783 C 0.029593079517211383 0.02607197363736166 0.026291796464835475 0.027511074580862712 0.02690389411577413 0.027386805898795278 C 0.026291796464835475 0.027511074580862712 0.02212475285527015 0.027448406093068548 0.02249237910607815 0.02744366761658599" fill="none" stroke="#000000" stroke-width="0.001"/>
</g><g transform="translate(0.21749442127204505,0.15590603687169458) rotate(0) scale(1,1) translate(-0.022056771251806547,-0.022056771251806547)"><path d="M 0.017493935035929293 0.027361726742197 C 0.017758547659073143 0.026895694360808402 0.020817934364723404 0.020837526239721613 0.02066928651365547 0.02176933816553382 C 0.020817934364723404 0.020837526239721613 0.01916174447666859 0.015714204088026918 0.019277709248744505 0.016179983632450524" fill="none" stroke="none" stroke-width="0"/>
<path d="M 0.019277709248744505 0.016179983632450524 C 0.019462920406166574 0.016113806357899163 0.021879179045916103 0.015479236498719576 0.02150024313780934 0.015385856337834196 C 0.021879179045916103 0.015479236498719576 0.024018664896710378 0.01746010299851183 0.023824940146025684 0.01730054556307509" fill="none" stroke="#000000" stroke-width="0.001"/>
<path d="M 0.023824940146025684 0.01730054556307509 C 0.023933740690682544 0.017694068293180702 0.025120809419231036 0.022733250930281043 0.025130546681908013 0.022022818324342424 C 0.025120809419231036 0.022733250930281043 0.023589555186568127 0.02614264671017155 0.023708092993901964 0.025825736834338538" fill="none" stroke="#000000" stroke-width="0.001"/>
<path d="M 0.023708092993901964 0.025825736834338538 C 0.023462737795140808 0.026005964609296557 0.020245984112270368 0.028116469292822962 0.020763830608768092 0.027988470133834757 C 0.020245984112270368 0.028116469292822962 0.017221443738192725 0.02730949812622719 0.017493935035929293 0.027361726742197" fill="none" stroke="#000000" stroke-width="0.001"/>
</g><g transform="translate(0.21618674987702255,0.15592269407173281) rotate(0) scale(1,1) translate(-0.022056771251806547,-0.022056771251806547)"><path d="M 0.015695165798115213 0.029410436429400885 C 0.015794288827108764 0.029272718649408624 0.016922882042251796 0.027445512732317594 0.01688464214603782 0.027757823069493762 C 0.016922882042251796 0.027445512732317594 0.016093161419903378 0.025488119826102967 0.01615404455268295 0.025662712383286875" fill="none" stroke="#000000" stroke-width="0.001"/>
<path d="M 0.01615404455268295 0.025662712383286875 C 0.01628051091150526 0.02549551044357348 0.017772616379715105 0.023281956537801636 0.017671640858550695 0.023656289106726132 C 0.017772616379715105 0.023281956537801636 0.017340259968997948 0.020963590926981815 0.017365750806655852 0.021170721556192915" fill="none" stroke="#000000" stroke-width="0.001"/>
<path d="M 0.017365750806655852 0.021170721556192915 C 0.01749476344704813 0.021026105224105286 0.019023093728373564 0.019100085346030523 0.01891390249136321 0.019435325571141367 C 0.019023093728373564 0.019100085346030523 0.01865622424739817 0.016957214961839585 0.018676045650780095 0.0171478388548628" fill="none" stroke="#000000" stroke-width="0.001"/>
<path d="M 0.018676045650780095 0.0171478388548628 C 0.018812964734821313 0.01702853999856499 0.02041403852614919 0.015394279591465967 0.02031907465927469 0.015716252579289065 C 0.02041403852614919 0.015394279591465967 0.01977365683610739 0.013081488869460329 0.019815612053274104 0.013284163000985616" fill="none" stroke="#000000" stroke-width="0.001"/>
<path d="M 0.019815612053274104 0.013284163000985616 C 0.02002131578714296 0.013433652385916752 0.02261622881034866 0.015465912021542395 0.022284056859700394 0.015078035620159256 C 0.02261622881034866 0.015465912021542395 0.023928143677832695 0.01817706683403529 0.023801675461053287 0.01793867981758329" fill="none" stroke="#000000" stroke-width="0.001"/>
<path d="M 0.023801675461053287 0.01793867981758329 C 0.023795235512486503 0.018338389061257336 0.02359104860294823 0.023437991128924484 0.023724396078251886 0.02273519074167188 C 0.02359104860294823 0.023437991128924484 0.02207459823067253 0.02667537560819312 0.022201505757409402 0.02637228446461456" fill="none" stroke="#000000" stroke-width="0.001"/>
<path d="M 0.022201505757409402 0.02637228446461456 C 0.02201801431813458 0.026537084880449945 0.019457413489503705 0.028603068785038016 0.019999608486111552 0.028349889454639156 C 0.019457413489503705 0.028603068785038016 0.015336462240782184 0.02949881534396436 0.015695165798115213 0.029410436429400885" fill="none" stroke="#000000" stroke-width="0.001"/>
</g></g>
<g id="悪タトゥ">
<g id="五芒星">
<g transform="translate(0.21344543487768808,0.15557312158561662) rotate(0) scale(1,1) translate(-0.25155149516253505,-0.25573631032976507)"><path d="M 0.25716323054123175 0.25993657195343217 C 0.2567185491164552 0.2602685504469244 0.2533833418006516 0.2608805156377908 0.2539046793108172 0.2609851678947606 C 0.2533833418006516 0.2608805156377908 0.25063510355300445 0.25813133206160316 0.2509071804192442 0.2586807448697947 C 0.25063510355300445 0.25813133206160316 0.25080539718441125 0.25376158408667626 0.2506397569159398 0.2543922141964623 C 0.25080539718441125 0.25376158408667626 0.2533766389237282 0.2507780222731346 0.2528948636409015 0.25111318355236206 C 0.2533766389237282 0.2507780222731346 0.2569175727274457 0.2505448555720517 0.2564210603098598 0.2503702788457327 C 0.2569175727274457 0.2505448555720517 0.2590879956601219 0.2537606998621167 0.2588530126519323 0.2532081042681899 C 0.2590879956601219 0.2537606998621167 0.2591000412322439 0.2575621316132908 0.2592408564081356 0.2570014259728539 C 0.2591000412322439 0.2575621316132908 0.2567185491164552 0.2602685504469244 0.25716323054123175 0.25993657195343217 Z" fill="#cccccc" stroke="#000000" stroke-width="0.001"/>
</g><g transform="translate(0.21700107944714994,0.15581757224618695) rotate(0) scale(1,1) translate(-0.25613753700109465,-0.2561375370010946)"><path d="M 0.25769077963562587 0.2592064320918835 C 0.2573483900371271 0.2594745523501345 0.25478045736481864 0.26009223281969046 0.2551818722637347 0.2601604131476328 C 0.25478045736481864 0.26009223281969046 0.25266430173797894 0.25796528348774084 0.2528738008486336 0.2583882681565759 C 0.25266430173797894 0.25796528348774084 0.25279542571664265 0.2545988249146738 0.25266788293587894 0.25508459712161197 C 0.25279542571664265 0.2545988249146738 0.25477528122331955 0.2523009587292351 0.25440431421779797 0.2525590016733177 C 0.25477528122331955 0.2523009587292351 0.25750180167611614 0.2521225989338368 0.2571194870021381 0.25198808179262056 C 0.25750180167611614 0.2521225989338368 0.25917301200916587 0.2545861147225792 0.25899209030553405 0.2541732073679125 C 0.25917301200916587 0.2545861147225792 0.25918210488989407 0.2573624054422849 0.2592905474457198 0.25694297004862066 C 0.25918210488989407 0.2573624054422849 0.2573483900371271 0.2594745523501345 0.25769077963562587 0.2592064320918835 Z" fill="#cccccc" stroke="#000000" stroke-width="0.001"/>
</g><g transform="translate(0.21700107944714994,0.15581757224618692) rotate(0) scale(1,1) translate(-0.03408017706782698,-0.03408017706782699)"><path d="M 0.03549989911802833 0.03451085289622953 C 0.035649846666022555 0.035004395155520854 0.03617412767769483 0.03772111399773431 0.03639958440599366 0.037472106451977454 C 0.03617412767769483 0.03772111399773431 0.03377175447194233 0.03576036345723621 0.03414715874823537 0.036004898170770676" fill="none" stroke="#000000" stroke-width="0.001"/>
<path d="M 0.03414715874823537 0.036004898170770676 C 0.03374007529651972 0.036394442028151994 0.031437482426281374 0.03813987685827769 0.03170465803794147 0.03834216131505858 C 0.031437482426281374 0.03813987685827769 0.03268401291833034 0.034199363115923094 0.032544105078274786 0.03479119143008531" fill="none" stroke="#000000" stroke-width="0.001"/>
<path d="M 0.032544105078274786 0.03479119143008531 C 0.03211900697922591 0.034466063541544995 0.030080140752387144 0.03247437336170392 0.0299935164839815 0.03284042409884342 C 0.030080140752387144 0.03247437336170392 0.0335755730561632 0.032553964158649085 0.033063850688708665 0.032594887007248274" fill="none" stroke="#000000" stroke-width="0.001"/>
<path d="M 0.033063850688708665 0.032594887007248274 C 0.0332040303762879 0.03200314115863447 0.03422564116796945 0.029020464575187203 0.033904928814184075 0.029044411915565473 C 0.03422564116796945 0.029020464575187203 0.035168657477627076 0.03301900147321418 0.03498812481142093 0.03245120296497865" fill="none" stroke="#000000" stroke-width="0.001"/>
<path d="M 0.03498812481142093 0.03245120296497865 C 0.035439638005226586 0.03244365811589533 0.037782499692022735 0.032749208859020544 0.037697203974254835 0.03240593387047873 C 0.037782499692022735 0.032749208859020544 0.03513368164199058 0.03486167273385466 0.03549989911802833 0.03451085289622953" fill="none" stroke="#000000" stroke-width="0.001"/>
</g><g transform="translate(0.21700107944714994,0.15581757224618692) rotate(0) scale(1,1) translate(-0.03408017706782698,-0.03408017706782699)"><path d="M 0.03414715874823537 0.036004898170770676 C 0.03365452640827645 0.03605162125974664 0.03236355373502033 0.0342228562361649 0.032544105078274786 0.03479119143008531 C 0.03236355373502033 0.0342228562361649 0.03347118731089969 0.0322048889297305 0.033063850688708665 0.032594887007248274 C 0.03347118731089969 0.0322048889297305 0.03539413288297421 0.032770530613142196 0.03498812481142093 0.03245120296497865 C 0.03539413288297421 0.032770530613142196 0.0353597381074974 0.035103135430528204 0.03549989911802833 0.03451085289622953 C 0.0353597381074974 0.035103135430528204 0.03365452640827645 0.03605162125974664 0.03414715874823537 0.036004898170770676 Z" fill="#cccccc" stroke="#000000" stroke-width="0.001"/>
</g></g>
</g>
<g id="グローブ">
<g transform="translate(0.21344543487768808,0.15557312158561665) rotate(0) scale(1,1) translate(-0.003389818855922237,-0.0033898188559222373)"><path d="M 0.00936638281587964 -0.0015445968212603725 C 0.009475613398891013 -0.0014010999889012795 0.010849012121540028 0.0005490595953188042 0.010677149812016132 0.00017736516704874422 C 0.010849012121540028 0.0005490595953188042 0.011423807524365314 0.0033783154372275456 0.011428730530166393 0.0029157363179803464 C 0.011423807524365314 0.0033783154372275456 0.010439185611517628 0.006100775341708544 0.010618073742403193 0.005728314598015136 C 0.010439185611517628 0.006100775341708544 0.009170739560967641 0.007523344462658432 0.009282072959539606 0.007385265242301256" fill="none" stroke="none" stroke-width="0"/>
<path d="M 0.009282072959539606 0.007385265242301256 C 0.009157030556334789 0.007505723984600511 0.007490870492289823 0.009072923781011492 0.007781564121081792 0.008830770149892326 C 0.007490870492289823 0.009072923781011492 0.005628098188448834 0.010412803704551162 0.005793749414035984 0.010291108815731252" fill="none" stroke="#000000" stroke-width="0.001"/>
<path d="M 0.005793749414035984 0.010291108815731252 C 0.005572427454572339 0.01014995229201653 0.002649150602688341 0.00813145721426648 0.0031378859004722423 0.00859723053115457 C 0.002649150602688341 0.00813145721426648 -0.00033848749769108886 0.004377212219900789 -7.107415937083263E-05 0.004701829013074157" fill="none" stroke="#000000" stroke-width="0.001"/>
<path d="M -7.107415937083263E-05 0.004701829013074157 C 0.00024674048074553215 0.004304336717532084 0.004365630770228737 -0.0008679977205476129 0.003742701522025545 -6.807853343071717E-05 C 0.004365630770228737 -0.0008679977205476129 0.007709191427154298 -0.005299628123903414 0.007404076819067471 -0.004897201232328592" fill="none" stroke="#000000" stroke-width="0.001"/>
<path d="M 0.007404076819067471 -0.004897201232328592 C 0.007488826672015019 -0.004787376858410988 0.008584600554172392 -0.0032999250443949994 0.008421075054438044 -0.003579308745317351 C 0.008584600554172392 -0.0032999250443949994 0.009445158462666437 -0.0013750374942556238 0.009366382815879638 -0.001544596821260372" fill="none" stroke="#000000" stroke-width="0.001"/>
</g><g transform="translate(0.2137983175437914,0.1521152241962637) rotate(0) scale(1,1) translate(-0.004561674574908911,-0.004561674574908911)"><path d="M 6.776230070854283E-05 0.009309967543763259 C 0.00042192827382442084 0.008877823778572208 0.004962455353520457 0.003301076983606532 0.004317753978099079 0.004124242361470655 C 0.004962455353520457 0.003301076983606532 0.008094714208070586 -0.0009590386032792861 0.007804178805765086 -0.0005680169906062138" fill="none" stroke="#000000" stroke-width="0.001"/>
<path d="M 0.007804178805765086 -0.0005680169906062138 C 0.0078328487193747 -0.0005490227850410977 0.008195766708704361 -0.00030471940195563464 0.008148217769080465 -0.0003400865238248213 C 0.008195766708704361 -0.00030471940195563464 0.00839364510726611 -0.00012723861187190314 0.00837476608125183 -0.00014361152817597377" fill="none" stroke="#000000" stroke-width="0.001"/>
<path d="M 0.00837476608125183 -0.00014361152817597377 C 0.008082754359218612 0.00026511545547281 0.004272538877977806 0.005553016630555238 0.004870625416853213 0.004761112275609432 C 0.004272538877977806 0.005553016630555238 0.0008916527979047552 0.00974241810247073 0.0011977276147469443 0.009359240731173708" fill="none" stroke="#000000" stroke-width="0.001"/>
<path d="M 0.0011977276147469443 0.009359240731173708 C 0.001150645726662011 0.009357187681698272 0.0005385811815578768 0.009330498038517614 0.0006327449577277435 0.009334604137468484 C 0.0005385811815578768 0.009330498038517614 2.068041262360944E-05 0.009307914494287823 6.776230070854283E-05 0.009309967543763259" fill="none" stroke="none" stroke-width="0"/>
</g><g transform="translate(0.21319350192223807,0.16078053326084898) rotate(0) scale(1,1) translate(-0.004561674574908911,-0.004561674574908911)"><path d="M 0.0006725779222618677 0.0006446584791779523 C 0.000719659810346801 0.0006467115286533888 0.0013317243554509333 0.0006734011718340629 0.0012375605792810669 0.00066929507288319 C 0.0013317243554509333 0.0006734011718340629 0.0018496251243851993 0.0006959847160638641 0.001802543236300266 0.0006939316665884276" fill="none" stroke="none" stroke-width="0"/>
<path d="M 0.001802543236300266 0.0006939316665884276 C 0.00207537988515277 0.0010041745329027055 0.00555214453557834 0.0048669542423227736 0.005076583022530314 0.004416846062359762 C 0.00555214453557834 0.0048669542423227736 0.007712006257072089 0.0062350951397933 0.007509281392876568 0.006095229826144566" fill="none" stroke="#000000" stroke-width="0.001"/>
<path d="M 0.007509281392876568 0.006095229826144566 C 0.007485208823570263 0.006115031149147397 0.007172014695489667 0.006371561594429768 0.007220410561200914 0.0063328457021785325 C 0.007172014695489667 0.006371561594429768 0.006904207707936664 0.0065787351024077945 0.006928531004341606 0.00655982053315939" fill="none" stroke="#000000" stroke-width="0.001"/>
<path d="M 0.006928531004341606 0.00655982053315939 C 0.006725001954713663 0.006425006312618378 0.003964852985299643 0.004449119715502124 0.0044861824088062874 0.004942049886667244 C 0.003964852985299643 0.004449119715502124 0.0003547775483831661 0.00028654252855384466 0.0006725779222618677 0.0006446584791779523" fill="none" stroke="#000000" stroke-width="0.001"/>
</g></g>
</svg>
