<?xml version="1.0" encoding="UTF-8"?>
<svg xmlns="http://www.w3.org/2000/svg" viewBox="0 0 1 1">
<g id="グローブ">
<g transform="translate(0.2107961980717158,0.15412389749053762) rotate(0) scale(1,1) translate(-0.003389818855922237,-0.0033898188559222373)"><path d="M 0.012710767053376943 0.0002517086330224937 C 0.012572946101964372 0.000586226498027942 0.010995473774319392 0.004983943236083569 0.011056915636426086 0.004265923013087874 C 0.010995473774319392 0.004983943236083569 0.012049843797402501 0.009251453666961073 0.011973464708096623 0.008867951308970827" fill="none" stroke="none" stroke-width="0"/>
<path d="M 0.011973464708096623 0.008867951308970827 C 0.01187033654137832 0.008965304691313559 0.010482671568368579 0.010190948975349707 0.010735926707476974 0.010036191897083614 C 0.010482671568368579 0.010190948975349707 0.008784276066405776 0.010782439944087311 0.008934403038795868 0.01072503624816395" fill="none" stroke="#000000" stroke-width="0.001"/>
<path d="M 0.008934403038795868 0.01072503624816395 C 0.00845177983219465 0.010495253131113807 0.0021776781463788038 0.007463518223709497 0.003142924559581242 0.007967638843562233 C 0.0021776781463788038 0.007463518223709497 -0.0031311771262346106 0.004401251307128526 -0.0026485539196333912 0.004675588809931118" fill="none" stroke="#000000" stroke-width="0.001"/>
<path d="M -0.0026485539196333912 0.004675588809931118 C -0.0021165374372719855 0.004286046360299887 0.004766057278484375 -0.0006199733520214699 0.003735643868703479 1.0794143563419025E-06 C 0.004766057278484375 -0.0006199733520214699 0.010214803925156855 -0.003008554703349205 0.009716406997737365 -0.0027770443866026243" fill="none" stroke="#000000" stroke-width="0.001"/>
<path d="M 0.009716406997737365 -0.0027770443866026243 C 0.009826271229428732 -0.002726226896728477 0.011284307782670401 -0.001914838423144098 0.01103477777803377 -0.002167234508112858 C 0.011284307782670401 -0.001914838423144098 0.012850432826322205 0.00045328722811710683 0.012710767053376941 0.00025170863302249413" fill="none" stroke="#000000" stroke-width="0.001"/>
</g><g transform="translate(0.21114202308449703,0.15073515804897172) rotate(0) scale(1,1) translate(-0.004561674574908911,-0.004561674574908911)"><path d="M -0.0024890570743758694 0.009215001684386171 C -0.0014743630363428584 0.008552864908757323 0.011000235804242833 0.0008435640456770348 0.009687271382020263 0.0012693603768399906 C 0.011000235804242833 0.0008435640456770348 0.013564786376484516 0.004341786154896596 0.013266515992294958 0.004105445710430703" fill="none" stroke="#000000" stroke-width="0.001"/>
<path d="M 0.013266515992294958 0.004105445710430703 C 0.013276663276228224 0.004132400095431391 0.01341080688068379 0.004487803171897815 0.013388283399494157 0.004428898330438956 C 0.01341080688068379 0.004487803171897815 0.013549173963826934 0.00484425426439518 0.013536797766570567 0.004812303807937009" fill="none" stroke="#000000" stroke-width="0.001"/>
<path d="M 0.013536797766570567 0.004812303807937009 C 0.013224164524303722 0.004595129667557765 0.00856809919039145 0.002571908043304274 0.009785198859368432 0.002206214123386074 C 0.00856809919039145 0.002571908043304274 -0.001972864687863361 0.009783498907252853 -0.001068398261153223 0.009200630846955408" fill="none" stroke="#000000" stroke-width="0.001"/>
<path d="M -0.001068398261153223 0.009200630846955408 C -0.0011275923783708333 0.009201229631848357 -0.0018971159021997667 0.009209013835456688 -0.0017787276677645463 0.009207816265670792 C -0.0018971159021997667 0.009209013835456688 -0.00254825119159348 0.00921560046927912 -0.0024890570743758694 0.009215001684386171" fill="none" stroke="none" stroke-width="0"/>
</g><g transform="translate(0.21054930377537479,0.15870171747817763) rotate(0) scale(1,1) translate(-0.004561674574908911,-0.004561674574908911)"><path d="M -0.0018963377652536102 0.00124844225518026 C -0.001837143648036 0.0012478434702873126 -0.0010676201242070683 0.0012400592666789965 -0.0011860083586422885 0.0012412568364648913 C -0.0010676201242070683 0.0012400592666789965 -0.0004164848348133579 0.001233472632856575 -0.00047567895203096794 0.0012340714177495225" fill="none" stroke="none" stroke-width="0"/>
<path d="M -0.00047567895203096794 0.0012340714177495225 C 0.00037193671550164156 0.0016987140309262985 0.010851366865699309 0.0071621090789294704 0.009695709058360346 0.006809782775870834 C 0.010851366865699309 0.0071621090789294704 0.013700256875842922 0.005349670744335015 0.01339221473603657 0.005461987054453154" fill="none" stroke="#000000" stroke-width="0.001"/>
<path d="M 0.01339221473603657 0.005461987054453154 C 0.01337292525755633 0.005496175872504726 0.013125311460224845 0.005939150541719699 0.013160740994273687 0.00587225287107202 C 0.013125311460224845 0.005939150541719699 0.012950920271881876 0.006297467954821418 0.012967060327450477 0.006264759102225311" fill="none" stroke="#000000" stroke-width="0.001"/>
<path d="M 0.012967060327450477 0.006264759102225311 C 0.01267407992094684 0.006373401073719108 0.008212678941681473 0.007150436356230454 0.009451295449406814 0.007568462760150874 C 0.008212678941681473 0.007150436356230454 -0.0028419738664753123 0.000721773879766042 -0.0018963377652536102 0.00124844225518026" fill="none" stroke="#000000" stroke-width="0.001"/>
</g></g>
<g transform="translate(0.2107961980717158,0.15412389749053762) rotate(0) scale(1,1) translate(-0.014303772200158306,-0.014303772200158308)"><path d="M 0.017627003889616515 0.02286476989345651 C 0.017360079154250627 0.02252518619972156 0.01376231218753551 0.01811990168552865 0.014423907065225876 0.018789765568637116 C 0.01376231218753551 0.01811990168552865 0.009293195215007637 0.014496123106781377 0.009687865357332117 0.014826403296154896" fill="none" stroke="none" stroke-width="0"/>
<path d="M 0.009687865357332117 0.014826403296154896 C 0.010084581077827929 0.014432607073174097 0.015166444687740045 0.009453908019280062 0.014448454003281843 0.010100848620385308 C 0.015166444687740045 0.009453908019280062 0.018625028534792927 0.006809971704767496 0.018303753570830535 0.007063116082891943" fill="none" stroke="none" stroke-width="0"/>
<path d="M 0.018303753570830535 0.007063116082891943 C 0.018582762748354423 0.006739786816108346 0.02032060065408064 0.005109976250519881 0.019977808635973857 0.005123140482190362 C 0.02032060065408064 0.005109976250519881 0.02075422704448484 0.007107193312905913 0.02036050567947125 0.006984130692869056 C 0.02075422704448484 0.007107193312905913 0.022607785641482036 0.0060312855407481545 0.022340136826055394 0.005861516202411505 C 0.022607785641482036 0.0060312855407481545 0.02190410886302705 0.008359618476301863 0.0219663985720311 0.008002746722888955" fill="none" stroke="#000000" stroke-width="0.001"/>
<path d="M 0.0219663985720311 0.008002746722888955 C 0.022172707604768964 0.008168225120050868 0.02374880554273199 0.009111495611852148 0.02320425276845827 0.008995617105860429 C 0.02374880554273199 0.009111495611852148 0.025454653195835262 0.00896938756796932 0.025233715217673404 0.008698017758839272 C 0.025454653195835262 0.00896938756796932 0.02470850753766636 0.011050336457950016 0.02452988063742942 0.010623835960640716 C 0.02470850753766636 0.011050336457950016 0.026451099126124554 0.01162688705771761 0.026305476619095047 0.011257020742695068 C 0.026451099126124554 0.01162688705771761 0.025272383097075482 0.013521566111013182 0.025403615679606452 0.012843033850775959 C 0.025272383097075482 0.013521566111013182 0.0254633432828826 0.01619493777276527 0.02551808112390922 0.015328214304118404 C 0.0254633432828826 0.01619493777276527 0.024826398811543523 0.01884517727780701 0.02507518863344671 0.018043374662657173 C 0.024826398811543523 0.01884517727780701 0.023866985798635918 0.020831785605844182 0.024025342192490105 0.020139029995017432 C 0.023866985798635918 0.020831785605844182 0.02387226584197763 0.02240002688931872 0.02412505027032158 0.022199908327617666 C 0.02387226584197763 0.02240002688931872 0.021965921519113963 0.021341636641720722 0.022508635622426415 0.021339741365223742 C 0.021965921519113963 0.021341636641720722 0.020595453988450283 0.022356536423495513 0.020868765650446874 0.022211279986599546" fill="none" stroke="none" stroke-width="0"/>
<path d="M 0.020868765650446874 0.022211279986599546 C 0.020840055044507932 0.02252644568577527 0.020440018159342318 0.024209137454376754 0.020696502014813226 0.024102274181653893 C 0.020440018159342318 0.024209137454376754 0.018987146675765433 0.022949530834497852 0.019329862517621435 0.022852459622936715 C 0.018987146675765433 0.022949530834497852 0.01835639719234307 0.02468675316277401 0.01864020696367722 0.02468470145102071 C 0.01835639719234307 0.02468675316277401 0.017458136710606396 0.02256144796719581 0.017627003889616515 0.02286476989345651" fill="none" stroke="#000000" stroke-width="0.001"/>
</g><g transform="translate(0.2193798439177092,0.15510363692965318) rotate(0) scale(1,1) translate(-0.0366225506783444,-0.027678096685783797)"><path d="M 0.03662255067834441 0.023178818090300497 C 0.03654941325720243 0.02329812603532018 0.03564227120510059 0.024980991121339707 0.0357449016246406 0.024610513430536676 C 0.03564227120510059 0.024980991121339707 0.03539447033722309 0.028131352063657453 0.03539098564386435 0.027624550379936844 C 0.03539447033722309 0.028131352063657453 0.03588934836448544 0.031071461910365854 0.03578671794494544 0.030692133635183964 C 0.03588934836448544 0.031071461910365854 0.03669220340612766 0.032300186019364144 0.03662255067834441 0.032176489682119516" fill="none" stroke="none" stroke-width="0"/>
<path d="M 0.03662255067834441 0.032176489682119516 C 0.03629215330841367 0.032407840537521826 0.03152245999710788 0.0352450639373231 0.03265778223917552 0.034952699946947205 C 0.03152245999710788 0.0352450639373231 0.022193758901395782 0.03574587070160387 0.022998683773532685 0.035684857566630285" fill="none" stroke="#000000" stroke-width="0.001"/>
<path d="M 0.022998683773532685 0.035684857566630285 C 0.022883428438634713 0.035637117243779694 0.021452624097008453 0.034948978034674644 0.02161561975475702 0.035111973692423214 C 0.021452624097008453 0.034948978034674644 0.02104273588054987 0.033498399003851514 0.02104273588054987 0.03372890967364748 C 0.02104273588054987 0.033498399003851514 0.02166526094483471 0.03218284999712308 0.02161561975475702 0.032345845654871655 C 0.02166526094483471 0.03218284999712308 0.021640331028709228 0.03172522145781399 0.021638430161482137 0.031772961780664584" fill="none" stroke="#000000" stroke-width="0.001"/>
<path d="M 0.021638430161482137 0.031772961780664584 C 0.021523174826584165 0.03172522145781399 0.020092370484957905 0.031037082248708936 0.020255366142706472 0.031200077906457513 C 0.020092370484957905 0.031037082248708936 0.01968248226849932 0.029586503217885713 0.01968248226849932 0.02981701388768167 C 0.01968248226849932 0.029586503217885713 0.020402168305073486 0.028270954211157467 0.020255366142706472 0.028433949868906034 C 0.020402168305073486 0.028270954211157467 0.021543170056419918 0.027813325671848264 0.0214441082169035 0.027861065994698862" fill="none" stroke="#000000" stroke-width="0.001"/>
<path d="M 0.0214441082169035 0.027861065994698862 C 0.021328852882005526 0.02781332567184827 0.01989804854037927 0.027125186462743207 0.020061044198127837 0.027288182120491777 C 0.01989804854037927 0.027125186462743207 0.019488160323920686 0.02567460743192008 0.019488160323920686 0.025905118101716036 C 0.019488160323920686 0.02567460743192008 0.020224039855876404 0.02435905842519174 0.020061044198127837 0.02452205408294031 C 0.020224039855876404 0.02435905842519174 0.02155936355180147 0.023901429885882584 0.0214441082169035 0.02394917020873318" fill="none" stroke="#000000" stroke-width="0.001"/>
<path d="M 0.0214441082169035 0.02394917020873318 C 0.021417917106604067 0.023901429885882588 0.021055883460160296 0.023213290676777524 0.021129814893310322 0.023376286334526094 C 0.021055883460160296 0.023213290676777524 0.02055693101910317 0.0217627116459544 0.02055693101910317 0.021993222315750356 C 0.02055693101910317 0.0217627116459544 0.0212928105510589 0.020447162639226062 0.021129814893310322 0.020610158296974632 C 0.0212928105510589 0.020447162639226062 0.022628134246984084 0.019989534099916904 0.0225128789120861 0.0200372744227675" fill="none" stroke="#000000" stroke-width="0.001"/>
<path d="M 0.0225128789120861 0.0200372744227675 C 0.023252695812079758 0.020033834436103015 0.0325664876925315 0.020257789888421453 0.031390681712009975 0.019995994582793702 C 0.0325664876925315 0.020257789888421453 0.03705853975887228 0.023444053382592728 0.03662255067834441 0.023178818090300497" fill="none" stroke="#000000" stroke-width="0.001"/>
</g><g transform="translate(0.2107961980717158,0.15412389749053762) rotate(0) scale(1,1) translate(-0.017790115193637077,-0.01843233998853916)"><path d="M 0.014732714181757237 0.01792272975586128 C 0.014792678458579171 0.017797670686398058 0.015648889689921865 0.016200677436526964 0.015452285503620444 0.016422020922302584 C 0.015648889689921865 0.016200677436526964 0.017228604326853785 0.015170323510241454 0.017091964417374296 0.015266607926553849" fill="none" stroke="#000000" stroke-width="0.001"/>
<path d="M 0.017091964417374296 0.015266607926553849 C 0.01704006091219072 0.01513822870480399 0.016504196542007563 0.013492761231548026 0.016469122355171388 0.013726057265555529 C 0.016504196542007563 0.013492761231548026 0.01778596527953007 0.012314796775560865 0.01751285465940838 0.012467055518463808 C 0.01778596527953007 0.012314796775560865 0.020096264630137285 0.011898952350720218 0.019746449796631673 0.011898952350720218 C 0.020096264630137285 0.011898952350720218 0.02196129225889915 0.01261931426136675 0.02171063266147573 0.012467055518463808 C 0.02196129225889915 0.01261931426136675 0.02278943915254889 0.013959353299563031 0.022754364965712714 0.013726057265555529 C 0.02278943915254889 0.013959353299563031 0.02207961939832624 0.015394987148303708 0.022131522903509813 0.015266607926553849" fill="none" stroke="none" stroke-width="0"/>
<path d="M 0.022131522903509813 0.015266607926553849 C 0.022200059597707187 0.015362892342866244 0.023058141628011147 0.0166433644080782 0.022953963233878306 0.01642202092230258 C 0.023058141628011147 0.0166433644080782 0.023417305333039356 0.018047788825324505 0.02338166363310389 0.01792272975586128" fill="none" stroke="none" stroke-width="0"/>
<path d="M 0.02338166363310389 0.01792272975586128 C 0.023346021933168423 0.018047788825324505 0.022849784839745466 0.019644782075195596 0.022953963233878306 0.019423438589419976 C 0.022849784839745466 0.019644782075195596 0.022062986209312442 0.02067513600148111 0.022131522903509816 0.020578851585168714" fill="none" stroke="#000000" stroke-width="0.001"/>
<path d="M 0.022131522903509816 0.020578851585168714 C 0.02218342640869339 0.020707230806918574 0.02271929077887654 0.02235269828017453 0.022754364965712714 0.022119402246167028 C 0.02271929077887654 0.02235269828017453 0.02145997306405231 0.02353066273616169 0.02171063266147573 0.02337840399325875 C 0.02145997306405231 0.02353066273616169 0.01939663496312606 0.023946507161002346 0.019746449796631673 0.023946507161002346 C 0.01939663496312606 0.023946507161002346 0.01723974403928669 0.023226145250355806 0.01751285465940838 0.02337840399325875 C 0.01723974403928669 0.023226145250355806 0.016434048168335214 0.021886106212159525 0.016469122355171388 0.022119402246167028 C 0.016434048168335214 0.021886106212159525 0.017143867922557874 0.02045047236341886 0.0170919644173743 0.020578851585168718" fill="none" stroke="#000000" stroke-width="0.001"/>
<path d="M 0.0170919644173743 0.020578851585168718 C 0.01695532450789481 0.02048256716885632 0.015255681317319022 0.019202095103644356 0.015452285503620444 0.019423438589419976 C 0.015255681317319022 0.019202095103644356 0.014672749904935303 0.017797670686398058 0.014732714181757237 0.01792272975586128" fill="none" stroke="#000000" stroke-width="0.001"/>
</g><g id="人指">
<g transform="translate(0.19487768787416004,0.14683870590994696) rotate(0) scale(1,1) translate(-0.018347050754458152,-0.012212198913662067)"><path d="M 0.018705865681901798 0.010855741265713198 C 0.018791096810905707 0.010940481255664778 0.01978309893944007 0.012073543452970143 0.019728639229948712 0.011872621145132158 C 0.01978309893944007 0.012073543452970143 0.01921583902906552 0.013408499287007346 0.019359382195798087 0.01326680895976901 C 0.01921583902906552 0.013408499287007346 0.017893349481937867 0.013598413081344114 0.018006121229157884 0.013572905071992183" fill="none" stroke="#000000" stroke-width="0.001"/>
<path d="M 0.018006121229157884 0.013572905071992183 C 0.0178484784614531 0.013533710342944136 0.015744051358757668 0.013011166253116649 0.016114408016700475 0.013102568323415609 C 0.015744051358757668 0.013011166253116649 0.013349127443606189 0.012423872887153757 0.01356184133384421 0.012476080228404669" fill="none" stroke="#000000" stroke-width="0.001"/>
<path d="M 0.01356184133384421 0.012476080228404669 C 0.013482557135563764 0.012422462997668592 0.012514743986383692 0.011692570414512167 0.012610430954478849 0.011832673459571758 C 0.012514743986383692 0.011692570414512167 0.012453282125635593 0.01063966569253293 0.012413597716702316 0.01079484368768959 C 0.012453282125635593 0.01063966569253293 0.013238453059101546 0.009891185737419012 0.013086643861678182 0.009970537517691844 C 0.013238453059101546 0.009891185737419012 0.014331030104458057 0.009831962724975909 0.014235308085782682 0.009842622324415596" fill="none" stroke="#000000" stroke-width="0.001"/>
<path d="M 0.014235308085782682 0.009842622324415596 C 0.014450538299026785 0.00989314731039678 0.01719061711105519 0.010533348734631269 0.01681807064471193 0.010448922156189802 C 0.01719061711105519 0.010533348734631269 0.01886318193500095 0.010889642858173482 0.018705865681901798 0.010855741265713198" fill="none" stroke="#000000" stroke-width="0.001"/>
</g><g transform="translate(0.1994371090068975,0.14794184795013) rotate(0) scale(1,1) translate(-0.018347050754458152,-0.013480335131195698)"><path d="M 0.018669864274415058 0.012029676559394865 C 0.018758590072934945 0.0121168060361095 0.01979691756375741 0.013281969381096293 0.0197345738566537 0.013075230279970478 C 0.01979691756375741 0.013281969381096293 0.019274830649258085 0.014667112648150042 0.01941798875965955 0.014510545772904646 C 0.019274830649258085 0.014667112648150042 0.017899900512850814 0.014990990033749447 0.018016676531836102 0.014954032782915232" fill="none" stroke="#000000" stroke-width="0.001"/>
<path d="M 0.018016676531836102 0.014954032782915232 C 0.017873938292842367 0.014912249940344282 0.015925915168374386 0.014353450384726948 0.016303817663911296 0.014452638672063844 C 0.015925915168374386 0.014353450384726948 0.013246682328850012 0.013706367890106541 0.013481846585393188 0.013763773334872487" fill="none" stroke="#000000" stroke-width="0.001"/>
<path d="M 0.013481846585393188 0.013763773334872487 C 0.013407605042449519 0.01371191156742863 0.012500881636108156 0.013000401852197245 0.012590948070069172 0.013141432125546195 C 0.012500881636108156 0.013000401852197245 0.012437086254287499 0.01190800000583634 0.01240104937786099 0.0120714100546851 C 0.012437086254287499 0.01190800000583634 0.01316442086053623 0.011090445105400066 0.01302339058718728 0.011180511539361082 C 0.01316442086053623 0.011090445105400066 0.014182581163953469 0.010974787956135556 0.014093412658048378 0.010990612847152904" fill="none" stroke="none" stroke-width="0"/>
<path d="M 0.014093412658048378 0.010990612847152904 C 0.014329409257554377 0.011045856785806036 0.017306742820150923 0.011740128753677328 0.016925371852120365 0.011653540110990498 C 0.017306742820150923 0.011740128753677328 0.018815238642939616 0.012061021263428562 0.018669864274415058 0.012029676559394865" fill="none" stroke="#000000" stroke-width="0.001"/>
</g><g transform="translate(0.20527017215145088,0.14941876255961972) rotate(0) scale(1,1) translate(-0.0213073592558212,-0.01473294942839358)"><path d="M 0.021767866438500243 0.013152059618300554 C 0.02186276953389899 0.013251164270289871 0.022963231080127402 0.014572160911669442 0.022906703583285244 0.014341315442172368 C 0.022963231080127402 0.014572160911669442 0.022274542108094222 0.016086582235291615 0.022446196400606154 0.015922205252265426 C 0.022274542108094222 0.016086582235291615 0.02071357337918673 0.016346475404005086 0.02084685207314207 0.01631383923848665" fill="none" stroke="none" stroke-width="0"/>
<path d="M 0.02084685207314207 0.01631383923848665 C 0.020611680355534998 0.016244021022504183 0.017543504528749265 0.015342515359251204 0.018024791461857197 0.015476020646697033 C 0.017543504528749265 0.015342515359251204 0.014825293660346007 0.014648088717673346 0.015071408875846867 0.014711775789136707" fill="none" stroke="#000000" stroke-width="0.001"/>
<path d="M 0.015071408875846867 0.014711775789136707 C 0.014995462094805078 0.014652504042907563 0.014072309692111066 0.013845629150582496 0.014160047503345399 0.014000514834386975 C 0.014072309692111066 0.013845629150582496 0.014066035857071488 0.01268158686486583 0.014018555141034887 0.012853147583482953 C 0.014066035857071488 0.01268158686486583 0.014884701779589093 0.011854048399747158 0.014729816095784614 0.01194178621098149 C 0.014884701779589093 0.011854048399747158 0.01597279728426397 0.011788502818478432 0.015877183346688636 0.011800293848670975" fill="none" stroke="none" stroke-width="0"/>
<path d="M 0.015877183346688636 0.011800293848670975 C 0.01612726877134808 0.011862460881810151 0.019369098700252944 0.012658945393810206 0.018878208442601976 0.012546298246341075 C 0.019369098700252944 0.012658945393810206 0.022008671271491767 0.013202539732630511 0.021767866438500243 0.013152059618300554" fill="none" stroke="#000000" stroke-width="0.001"/>
</g><g transform="translate(0.20241431284785927,0.1486969725777452) rotate(0) scale(1,1) translate(-0.00967276663863141,-0.00967276663863141)"><path d="M 0.004600329842663264 0.009613055315564166 C 0.004661639297055133 0.009784642337009368 0.005324560505122098 0.012024942943636673 0.005336043295365683 0.0116720995729066 C 0.005324560505122098 0.012024942943636673 0.0043897441151047835 0.0140284321136099 0.004462536359740237 0.01384717576432503" fill="none" stroke="#000000" stroke-width="0.001"/>
<path d="M 0.004462536359740237 0.01384717576432503 C 0.004823507845664982 0.013807521096169485 0.009522933506837307 0.013310500280945362 0.008794194190837172 0.013371319746458488 C 0.009522933506837307 0.013310500280945362 0.013575175981817253 0.01309617738080993 0.013207408151741862 0.01311734217816751" fill="none" stroke="none" stroke-width="0"/>
<path d="M 0.013207408151741862 0.01311734217816751 C 0.0132680242659633 0.013062515775681321 0.013969354265813408 0.0123372872356592 0.013934801522399108 0.012459425348333232 C 0.013969354265813408 0.0123372872356592 0.01359597770190631 0.011584373115891292 0.013622041072713448 0.011651684826079133" fill="none" stroke="none" stroke-width="0"/>
<path d="M 0.013622041072713448 0.011651684826079133 C 0.01322969250995518 0.01156828885111623 0.008162049050443376 0.010481047333981398 0.008913858319614224 0.010650933126524311 C 0.008162049050443376 0.010481047333981398 0.004240869136250685 0.009526565497984155 0.004600329842663265 0.009613055315564167" fill="none" stroke="#000000" stroke-width="0.001"/>
</g></g>
<g id="中指">
<g transform="translate(0.1935745719410556,0.15464630123933154) rotate(0) scale(1,1) translate(-0.018347050754458152,-0.012212198913662067)"><path d="M 0.01819592240151424 0.010817248834350354 C 0.01830586061172398 0.010865816325372162 0.019638027558322814 0.011568119246032986 0.019515180924031157 0.011400058726612042 C 0.019638027558322814 0.011568119246032986 0.01958690786934646 0.013019710697733975 0.019670082013014123 0.012833975067401663 C 0.01958690786934646 0.013019710697733975 0.018421008632269625 0.013695128892532953 0.018517091200019202 0.013628886290599777" fill="none" stroke="#000000" stroke-width="0.001"/>
<path d="M 0.018517091200019202 0.013628886290599777 C 0.018355815187920736 0.013646773930296242 0.016203208080533566 0.013888915695426905 0.016581779054837608 0.013843537966957363 C 0.016203208080533566 0.013888915695426905 0.013756944546165112 0.01420090912100737 0.013974239508370689 0.014173419032234293" fill="none" stroke="#000000" stroke-width="0.001"/>
<path d="M 0.013974239508370689 0.014173419032234293 C 0.013881006635686343 0.014151775950665229 0.012715905114690952 0.013817195735399709 0.012855445036158538 0.013913702053405525 C 0.012715905114690952 0.013817195735399709 0.012281198218238039 0.012856250457004822 0.012299760450759659 0.013015343216164495 C 0.012281198218238039 0.012856250457004822 0.012745987206386677 0.011876104123816305 0.012632698245899094 0.01200458894348945 C 0.012745987206386677 0.011876104123816305 0.013744772120836624 0.01142927008313652 0.01365922797661066 0.011473525380086745" fill="none" stroke="#000000" stroke-width="0.001"/>
<path d="M 0.01365922797661066 0.011473525380086745 C 0.013878269226513038 0.01144356290784733 0.016665780844181154 0.011059286001069058 0.01628772297543919 0.011113975713213757 C 0.016665780844181154 0.011059286001069058 0.018354939020353827 0.01079252159444507 0.01819592240151424 0.010817248834350354" fill="none" stroke="#000000" stroke-width="0.001"/>
</g><g transform="translate(0.1982264890177346,0.15404222265323997) rotate(0) scale(1,1) translate(-0.018347050754458152,-0.013480335131195698)"><path d="M 0.01812249040282365 0.012013687452965346 C 0.018237258224438797 0.012062545415163087 0.019633163647647913 0.012769934009326927 0.01949970426220541 0.012599982999338231 C 0.019633163647647913 0.012769934009326927 0.019647170718266077 0.01425092651362708 0.019724003028133694 0.014053099572829698 C 0.019647170718266077 0.01425092651362708 0.018482192670099058 0.015050640181913249 0.018577716543794028 0.014973906288906822" fill="none" stroke="#000000" stroke-width="0.001"/>
<path d="M 0.018577716543794028 0.014973906288906822 C 0.018428571061863592 0.01498610475972014 0.016398708260244376 0.015163169142295815 0.0167879707606288 0.015120287938666634 C 0.016398708260244376 0.015163169142295815 0.013666449520726976 0.015519163465272864 0.013906566539180962 0.015488480732457" fill="none" stroke="#000000" stroke-width="0.001"/>
<path d="M 0.013906566539180962 0.015488480732457 C 0.013818670492597149 0.015466669391003668 0.012717188990460903 0.015127358455536356 0.012851813980175195 0.015226744635017017 C 0.012717188990460903 0.015127358455536356 0.012266149060932322 0.014130375694077916 0.012291066662609467 0.01429584657868906 C 0.012266149060932322 0.014130375694077916 0.01265218893953011 0.013106469029969002 0.012552802760049449 0.013241094019683293 C 0.01265218893953011 0.013106469029969002 0.013561275654404738 0.012633617758987088 0.013483700816377408 0.012680346702117566" fill="none" stroke="none" stroke-width="0"/>
<path d="M 0.013483700816377408 0.012680346702117566 C 0.013723820279416042 0.012647347744462117 0.01675170017171153 0.012228804272822826 0.01636513437284101 0.012284359210252178 C 0.01675170017171153 0.012228804272822826 0.01826893673865554 0.011991131473191443 0.01812249040282365 0.012013687452965346" fill="none" stroke="#000000" stroke-width="0.001"/>
</g><g transform="translate(0.2042014014562683,0.1533306583455854) rotate(0) scale(1,1) translate(-0.0213073592558212,-0.01473294942839358)"><path d="M 0.02117073950813165 0.013092030630434274 C 0.021294855111333732 0.013150542566002761 0.02279562732873287 0.013989429025987895 0.022660126746556652 0.013794173857256129 C 0.02279562732873287 0.013989429025987895 0.022695400848992426 0.01565006718597353 0.022796746494246244 0.015435092655215463 C 0.022695400848992426 0.01565006718597353 0.021331248379282887 0.016452099523947727 0.021443979003510836 0.016373868226352936" fill="none" stroke="none" stroke-width="0"/>
<path d="M 0.021443979003510836 0.016373868226352936 C 0.02119940668018459 0.01639296531272864 0.018011947047202007 0.0166508731510289 0.01850911112359587 0.016603033262861375 C 0.018011947047202007 0.0166508731510289 0.015225418333716859 0.016976689686155063 0.015478010086784476 0.01694794688436324" fill="none" stroke="#000000" stroke-width="0.001"/>
<path d="M 0.015478010086784476 0.01694794688436324 C 0.015385866564386287 0.016919828834435914 0.014234871449855208 0.016497374462000457 0.014372287818006214 0.016610530285235313 C 0.014234871449855208 0.016497374462000457 0.013811858873146905 0.015412895709839251 0.013829013668972396 0.015590077005544968 C 0.013811858873146905 0.015412895709839251 0.014279586091335183 0.014346938368615699 0.014166430268100326 0.014484354736766706 C 0.014279586091335183 0.014346938368615699 0.015271921321098201 0.013895807741980066 0.015186883547790672 0.013941080587732885" fill="none" stroke="none" stroke-width="0"/>
<path d="M 0.015186883547790672 0.013941080587732885 C 0.015442637077400366 0.013909495912198653 0.01875458056646875 0.013491310318213887 0.018255925903107 0.013562064481322104 C 0.01875458056646875 0.013491310318213887 0.021413640641883704 0.013052861142860289 0.02117073950813165 0.013092030630434274" fill="none" stroke="#000000" stroke-width="0.001"/>
</g><g transform="translate(0.20127656071379854,0.15368025778928354) rotate(0) scale(1,1) translate(-0.00967276663863141,-0.00967276663863141)"><path d="M 0.006614468689033493 0.011093740801046838 C 0.006894669084077019 0.011159202129269819 0.010411727290997033 0.011996794132545873 0.009976873429555801 0.011879276739722604 C 0.010411727290997033 0.011996794132545873 0.011987368492725968 0.012556005579526366 0.011832715026328263 0.012503949514926078" fill="none" stroke="#000000" stroke-width="0.001"/>
<path d="M 0.011832715026328263 0.012503949514926078 C 0.011901434630631513 0.012412486034983152 0.01276019463392047 0.011225528263430174 0.012657350277967263 0.01140638775561097 C 0.01276019463392047 0.011225528263430174 0.013100972049416713 0.010244239596518646 0.013066847297766755 0.010333635608756516" fill="none" stroke="none" stroke-width="0"/>
<path d="M 0.013066847297766755 0.010333635608756516 C 0.012991979830447444 0.010265434613406108 0.012067773818730058 0.009403454647712944 0.012168437689935032 0.009515223664551603 C 0.012067773818730058 0.009403454647712944 0.011833084439421411 0.008948839385204374 0.011858880843307074 0.008992407406692621" fill="none" stroke="none" stroke-width="0"/>
<path d="M 0.011858880843307074 0.008992407406692621 C 0.01168070172100959 0.009106562603331017 0.009283697029547804 0.010537380882549565 0.00972073137573727 0.01036226976635338 C 0.009283697029547804 0.010537380882549565 0.0063556134651415125 0.01115469672060463 0.0066144686890334935 0.011093740801046841" fill="none" stroke="#000000" stroke-width="0.001"/>
</g></g>
<g id="薬指">
<g transform="translate(0.20439572340084694,0.15724255413155114) rotate(0) scale(1,1) translate(-0.0213073592558212,-0.01473294942839358)"><path d="M 0.022948149805877963 0.014862793112783355 C 0.02287528703082066 0.01495069930336905 0.021862218835270664 0.015998360052375753 0.02207379650519034 0.015917667399811708 C 0.021862218835270664 0.015998360052375753 0.020208615450223025 0.01572155813890122 0.020409217766841847 0.015831104943551874 C 0.020208615450223025 0.01572155813890122 0.019604681284008045 0.014500772477374859 0.01966656870576449 0.01460310574400386" fill="none" stroke="none" stroke-width="0"/>
<path d="M 0.01966656870576449 0.01460310574400386 C 0.019686130352488604 0.01443718330900038 0.019932172282698783 0.012273535862655961 0.01990130846645385 0.012612036523962098 C 0.019932172282698783 0.012273535862655961 0.020048236670224494 0.010368519582027568 0.020036934500703676 0.010541097808330225" fill="none" stroke="#000000" stroke-width="0.001"/>
<path d="M 0.020036934500703676 0.010541097808330225 C 0.02007991280790893 0.01045489665989026 0.020686996163448684 0.009389919714471454 0.020552674187166702 0.009506684027050643 C 0.020686996163448684 0.009389919714471454 0.021826343033604163 0.009152341200446007 0.02164879821608746 0.009139926057379972 C 0.021826343033604163 0.009152341200446007 0.02279997630994633 0.009789987720125052 0.022683211997367135 0.009655665743843066 C 0.02279997630994633 0.009789987720125052 0.023080533131176986 0.010843133441840522 0.023049969967037766 0.010751789772763795" fill="none" stroke="#000000" stroke-width="0.001"/>
<path d="M 0.023049969967037766 0.010751789772763795 C 0.0230409757679153 0.010926862647478894 0.02293355456413819 0.013195247881013273 0.022942039577568175 0.012852664269344977 C 0.02293355456413819 0.013195247881013273 0.022948658991570444 0.015030303849736554 0.022948149805877963 0.014862793112783355" fill="none" stroke="#000000" stroke-width="0.001"/>
</g><g transform="translate(0.2077951136185854,0.1527347494406492) rotate(0) scale(1,1) translate(-0.018347050754458152,-0.012212198913662067)"><path d="M 0.016944080508362384 0.012198593617655096 C 0.017013279174444184 0.012124623710914245 0.01794093960249382 0.011236617873960943 0.01777446450134399 0.011310954736764882 C 0.01794093960249382 0.011236617873960943 0.019112934029384125 0.011382902572471444 0.018941781722160357 0.011306551264007826 C 0.019112934029384125 0.011382902572471444 0.019902168060184963 0.012303888702855 0.019828292188029225 0.012227170438328295" fill="none" stroke="#000000" stroke-width="0.001"/>
<path d="M 0.019828292188029225 0.012227170438328295 C 0.019821859301598795 0.01233651940148569 0.01974546825188441 0.0137977038828963 0.019751097550864072 0.013539357996217046 C 0.01974546825188441 0.0137977038828963 0.019761544187724082 0.015476318002001188 0.019760740600273313 0.015327321078479332" fill="none" stroke="#000000" stroke-width="0.001"/>
<path d="M 0.019760740600273313 0.015327321078479332 C 0.019727896613974456 0.015388477745723694 0.019253820151533218 0.016147417854420625 0.019366612764687027 0.01606120108541168 C 0.019253820151533218 0.016147417854420625 0.018247060169480106 0.016361266076896842 0.018407229242427582 0.016361922306586694 C 0.018247060169480106 0.016361266076896842 0.017330863227236065 0.015966181511197077 0.017444583889317307 0.01605332632913345 C 0.017330863227236065 0.015966181511197077 0.017009081081463966 0.015254756004868291 0.017042581297452685 0.015316184491350226" fill="none" stroke="#000000" stroke-width="0.001"/>
<path d="M 0.017042581297452685 0.015316184491350226 C 0.017039536574242044 0.015165803500561152 0.01699783621983412 0.013251813362406748 0.01700604461892498 0.013511612601881343 C 0.01699783621983412 0.013251813362406748 0.01693891683248217 0.012089175368969576 0.016944080508362384 0.012198593617655096" fill="none" stroke="#000000" stroke-width="0.001"/>
</g><g transform="translate(0.2046318163788964,0.15315604849370465) rotate(0) scale(1,1) translate(-0.018347050754458152,-0.013480335131195698)"><path d="M 0.01855097264192019 0.014894717314369215 C 0.018459002035531524 0.014842657433126715 0.017341124832885624 0.014104880722455918 0.0174473253652562 0.014269998739459229 C 0.017341124832885624 0.014104880722455918 0.01733335117253835 0.012723257720798324 0.017276566253473295 0.012913301110329492 C 0.01733335117253835 0.012723257720798324 0.0181997592390838 0.011912492811314844 0.01812874439403684 0.0119894780650852" fill="none" stroke="none" stroke-width="0"/>
<path d="M 0.01812874439403684 0.0119894780650852 C 0.018230651394756665 0.01198272711389064 0.019616833901688346 0.011880465095007127 0.019351628402674736 0.011908466650750479 C 0.019616833901688346 0.011880465095007127 0.02147450888049394 0.011632208791616187 0.021311210382200158 0.011653459396164979" fill="none" stroke="#000000" stroke-width="0.001"/>
<path d="M 0.021311210382200158 0.011653459396164979 C 0.021404205388547513 0.011675473975591882 0.022568386266936167 0.012017381645862074 0.02242715045836843 0.011917634349287822 C 0.022568386266936167 0.012017381645862074 0.023029508677645822 0.013016075755606399 0.023006040085012988 0.01285042695505601 C 0.023029508677645822 0.013016075755606399 0.02260072736338586 0.014039935439647438 0.02270877356996243 0.013905419955892489 C 0.02260072736338586 0.014039935439647438 0.021626211609105148 0.014511212160467312 0.02170948560609417 0.014464612760115403" fill="none" stroke="#000000" stroke-width="0.001"/>
<path d="M 0.02170948560609417 0.014464612760115403 C 0.021546275012252297 0.014488168496036997 0.019487749066310532 0.014783123637362344 0.019750958479991698 0.014747281591174527 C 0.019487749066310532 0.014783123637362344 0.0184509738220809 0.014907003624635439 0.01855097264192019 0.014894717314369215" fill="none" stroke="#000000" stroke-width="0.001"/>
</g><g transform="translate(0.20451003816703675,0.1552419550998111) rotate(0) scale(1,1) translate(-0.00967276663863141,-0.00967276663863141)"><path d="M 0.012319744704252168 0.008293005866274435 C 0.012297471346151185 0.008368685103413076 0.012085078362917284 0.00938209594535566 0.012052464407040367 0.009201156711938125 C 0.012085078362917284 0.00938209594535566 0.012765999488753062 0.010569536663563743 0.012711112174775163 0.010464276667284849" fill="none" stroke="#000000" stroke-width="0.001"/>
<path d="M 0.012711112174775163 0.010464276667284849 C 0.012526225572382864 0.01059078823121808 0.010300003049502742 0.012232085864042038 0.010492472946067564 0.011982415434483622 C 0.010300003049502742 0.012232085864042038 0.010393890121824787 0.013583480687611024 0.01040147341599731 0.01346032182198584" fill="none" stroke="none" stroke-width="0"/>
<path d="M 0.01040147341599731 0.01346032182198584 C 0.010373876084766216 0.0134591115262346 0.010026320245266873 0.013426180295216491 0.010070305441224186 0.01344579827297097 C 0.010026320245266873 0.013426180295216491 0.009857263199783339 0.013206498406928856 0.009873651064509558 0.013224906088932096" fill="none" stroke="none" stroke-width="0"/>
<path d="M 0.009873651064509558 0.013224906088932096 C 0.009856130123017238 0.012873533083392985 0.009867240903246935 0.008597438337241295 0.009663399766601717 0.009008430022462766 C 0.009867240903246935 0.008597438337241295 0.012541106782389703 0.008233387186592073 0.012319744704252166 0.008293005866274435" fill="none" stroke="#000000" stroke-width="0.001"/>
</g></g>
<g id="小指">
<g transform="translate(0.20575597701289747,0.16115444991751673) rotate(0) scale(1,1) translate(-0.0213073592558212,-0.01473294942839358)"><path d="M 0.022935095485002877 0.014976932583018712 C 0.02285198259669335 0.01505483924082438 0.021731272086566413 0.015976164514791006 0.021937740825288574 0.015911812476686736 C 0.021731272086566413 0.015976164514791006 0.020269294137116166 0.0156305865233601 0.020457470620336926 0.01574915704026996 C 0.020269294137116166 0.0156305865233601 0.019614802393831336 0.014383950376559932 0.019679623026639458 0.014488966273768396" fill="none" stroke="none" stroke-width="0"/>
<path d="M 0.019679623026639458 0.014488966273768396 C 0.0197107111861562 0.014324812568973458 0.020107082186872894 0.012183598676508516 0.020052680940840343 0.01251912181622915 C 0.020107082186872894 0.012183598676508516 0.020355751065545886 0.010291319162195105 0.020332437979030074 0.0104626885971208" fill="none" stroke="#000000" stroke-width="0.001"/>
<path d="M 0.020332437979030074 0.0104626885971208 C 0.020381324681386925 0.010379695445504104 0.02106121824871573 0.00935966072454992 0.020919078407312292 0.009466770777720448 C 0.02106121824871573 0.00935966072454992 0.02221436236653462 0.0092021377598775 0.022038116075871344 0.009177367959074478 C 0.02221436236653462 0.0092021377598775 0.023141143948442133 0.009906148228760138 0.02303403389527161 0.009764008387356709 C 0.023141143948442133 0.009906148228760138 0.023347553615471486 0.0109762991949622 0.02332343671391765 0.010883046055915623" fill="none" stroke="#000000" stroke-width="0.001"/>
<path d="M 0.02332343671391765 0.010883046055915623 C 0.02330225195782383 0.011057065058292122 0.02303685787171557 0.013312431295025531 0.0230692196407918 0.012971274084433607 C 0.02303685787171557 0.013312431295025531 0.022923918472020466 0.015144070791234136 0.022935095485002877 0.014976932583018712" fill="none" stroke="#000000" stroke-width="0.001"/>
</g><g transform="translate(0.20939109641032871,0.15639897241221984) rotate(0) scale(1,1) translate(-0.018347050754458152,-0.012212198913662067)"><path d="M 0.01695311715981543 0.012052694363294153 C 0.01702700310775518 0.011985645663060103 0.018020752286723514 0.011193051546679994 0.01783974853509243 0.011248109960485565 C 0.018020752286723514 0.011193051546679994 0.019290074058924758 0.01148641555409308 0.019125162179388415 0.0113919933976273 C 0.019290074058924758 0.01148641555409308 0.01987648516537354 0.012463607708112216 0.01981869108952853 0.012381175838074914" fill="none" stroke="#000000" stroke-width="0.001"/>
<path d="M 0.01981869108952853 0.012381175838074914 C 0.019801434867998225 0.01248381585953302 0.019580363696474236 0.013856351782437364 0.019611616431164887 0.013612856095572178 C 0.019580363696474236 0.013856351782437364 0.019429661760080357 0.015443979745864238 0.019443658273240707 0.015303124080457156" fill="none" stroke="#000000" stroke-width="0.001"/>
<path d="M 0.019443658273240707 0.015303124080457156 C 0.019404921227911976 0.015357471511432907 0.0188580775048249 0.01602496045494621 0.018978813729295954 0.015955293252166183 C 0.0188580775048249 0.01602496045494621 0.017835597094527963 0.01612176828370407 0.01799482357958809 0.016139130513817473 C 0.017835597094527963 0.01612176828370407 0.016963651878384445 0.01565272538672586 0.017068095908574422 0.015746946490805318 C 0.016963651878384445 0.01565272538672586 0.01671427849303617 0.014946938162702194 0.016741495217308344 0.015008477264863972" fill="none" stroke="#000000" stroke-width="0.001"/>
<path d="M 0.016741495217308344 0.015008477264863972 C 0.01675340031258828 0.014866079676038126 0.016901991522543184 0.013053390957156338 0.016884356360667593 0.013299706198953824 C 0.016901991522543184 0.013053390957156338 0.01695884722641108 0.011948776710322514 0.01695311715981543 0.012052694363294153" fill="none" stroke="#000000" stroke-width="0.001"/>
</g><g transform="translate(0.20627655510355014,0.15709436781564143) rotate(0) scale(1,1) translate(-0.018347050754458152,-0.013480335131195698)"><path d="M 0.018673468187276224 0.014871562199584394 C 0.018584873859934372 0.014834506551728643 0.017489640786160783 0.014274515288748542 0.017610336259173996 0.01442689442531539 C 0.017489640786160783 0.014274515288748542 0.01725920849202923 0.012841432935328677 0.017225122511117665 0.013043012560782215 C 0.01725920849202923 0.012841432935328677 0.018085555156695715 0.011921682783130489 0.018019368030112788 0.012007938919872929" fill="none" stroke="none" stroke-width="0"/>
<path d="M 0.018019368030112788 0.012007938919872929 C 0.018118654720646568 0.01199285179103358 0.019470919993035265 0.011776404103470273 0.019210808316518155 0.011826893373800742 C 0.019470919993035265 0.011776404103470273 0.021301533134301432 0.011366665534416185 0.021140708148318102 0.011402067675907304" fill="none" stroke="#000000" stroke-width="0.001"/>
<path d="M 0.021140708148318102 0.011402067675907304 C 0.021235267977611574 0.01141589343436306 0.022424818013235644 0.011655034993574334 0.022275426099839766 0.011567976777376367 C 0.022424818013235644 0.011655034993574334 0.02297122764086836 0.012609739304514306 0.02293341110906863 0.012446766270282909 C 0.02297122764086836 0.012609739304514306 0.02263331322019372 0.013667073647266315 0.022729224481436505 0.013523653188153146 C 0.02263331322019372 0.013667073647266315 0.021703580265215107 0.01422149166226493 0.021782475974155214 0.014167811779640946" fill="none" stroke="#000000" stroke-width="0.001"/>
<path d="M 0.021782475974155214 0.014167811779640946 C 0.02162193946355775 0.014205502619406256 0.019596953864745754 0.01467874772515328 0.01985603784698567 0.01462010185682466 C 0.019596953864745754 0.01467874772515328 0.01857492071563377 0.014892517228147705 0.018673468187276224 0.014871562199584394" fill="none" stroke="#000000" stroke-width="0.001"/>
</g></g>
<g id="親指">
<g transform="translate(0.2090770636504698,0.1469127970958916) rotate(0) scale(1,1) translate(-0.00967276663863141,-0.00967276663863141)"><path d="M 0.007276437284615403 0.011224600069801655 C 0.0073887647451815865 0.011170764900606915 0.00886656132260931 0.010455066645789683 0.008624366811409608 0.010578578039464766 C 0.00886656132260931 0.010455066645789683 0.010312638469645344 0.009672787121220314 0.010182771419011825 0.009742463345700655" fill="none" stroke="none" stroke-width="0"/>
<path d="M 0.010182771419011825 0.009742463345700655 C 0.010136408163360373 0.009725129026634631 0.009548857599220358 0.009503595075198502 0.009626412351194399 0.009534451516908368 C 0.009548857599220358 0.009503595075198502 0.009220922899000745 0.009358663922538413 0.009252114395323334 0.009372186045182257" fill="none" stroke="none" stroke-width="0"/>
<path d="M 0.009252114395323334 0.009372186045182257 C 0.009224824003731973 0.00937722655681965 0.008870984842956297 0.00945409518078462 0.008924629696226991 0.009432672184830982 C 0.008870984842956297 0.00945409518078462 0.00858202169439568 0.00964564448094218 0.008608376156075011 0.009629261996625935" fill="none" stroke="none" stroke-width="0"/>
<path d="M 0.008608376156075011 0.009629261996625935 C 0.00855945295436885 0.009697312371190123 0.0079103028296461 0.01057881133082751 0.008021297735601066 0.0104458664913962 C 0.0079103028296461 0.01057881133082751 0.007214365580366597 0.011289494534668777 0.007276437284615403 0.011224600069801655" fill="none" stroke="none" stroke-width="0"/>
</g><g transform="translate(0.2161947572338576,0.1520355915625062) rotate(0) scale(1,1) translate(-0.02374131944444444,-0.01749131944444444)"><path d="M 0.027644789474209237 0.016373219911694156 C 0.027516359943177356 0.016493548760402 0.02581213157455361 0.018036557741664537 0.02610363510182666 0.01781716609618829 C 0.02581213157455361 0.018036557741664537 0.023782294478002397 0.019150805943436197 0.024146747146932643 0.019005919657409148 C 0.023782294478002397 0.019150805943436197 0.021370040445383685 0.01956509259507047 0.021730203074663723 0.01955580152851287 C 0.021370040445383685 0.01956509259507047 0.019666011638981216 0.01908088003339931 0.019824795595572178 0.019117412456100352" fill="none" stroke="none" stroke-width="0"/>
<path d="M 0.019824795595572178 0.019117412456100352 C 0.01971405172558934 0.01893310144806352 0.01827687602029954 0.01639210959602823 0.018495869155778118 0.016905680359658375 C 0.01827687602029954 0.01639210959602823 0.017088628704333503 0.01262530353694528 0.017196877969829244 0.012954563292538596" fill="none" stroke="#000000" stroke-width="0.001"/>
<path d="M 0.017196877969829244 0.012954563292538596 C 0.017140979045528672 0.012838056043685587 0.016513048511209206 0.011318059483294157 0.016526090878222384 0.011556476306302481 C 0.016513048511209206 0.011318059483294157 0.01719973337181149 0.009915752917982818 0.017040369565671093 0.010093561416438695 C 0.01719973337181149 0.009915752917982818 0.018676873374915463 0.009409731957818787 0.01843845655190714 0.009422774324831967 C 0.018676873374915463 0.009409731957818787 0.02002328101592627 0.00997990956956793 0.019901371441770954 0.009937053012280548" fill="none" stroke="#000000" stroke-width="0.001"/>
<path d="M 0.019901371441770954 0.009937053012280548 C 0.02030860563438257 0.010151915062146978 0.02543346658914688 0.013051744852295518 0.024788181753110355 0.012515397610677718 C 0.02543346658914688 0.013051744852295518 0.027882840117634144 0.016694705103445527 0.027644789474209237 0.016373219911694156" fill="none" stroke="#000000" stroke-width="0.001"/>
</g><g transform="translate(0.2161947572338576,0.1520355915625062) rotate(0) scale(1,1) translate(-0.017790115193637077,-0.01843233998853916)"><path d="M 0.017986204490688548 0.02000955910095581 C 0.017853400246533983 0.020054014361384223 0.0160465943826643 0.020548849444995982 0.01639255356083378 0.020543022226096767 C 0.0160465943826643 0.020548849444995982 0.013443356995498567 0.019813686981542344 0.013834694352654804 0.020079485727746378 C 0.013443356995498567 0.019813686981542344 0.011518322851817612 0.017126266566973542 0.011696505274958935 0.017353437271648377" fill="none" stroke="none" stroke-width="0"/>
<path d="M 0.011696505274958935 0.017353437271648377 C 0.011644601769775359 0.017225058049898517 0.011108737399592197 0.015579590576642561 0.011073663212756024 0.015812886610650063 C 0.011108737399592197 0.015579590576642561 0.012390506137114711 0.0144016261206554 0.012117395516993019 0.014553884863558342 C 0.012390506137114711 0.0144016261206554 0.014700805487721942 0.013985781695814752 0.014350990654216328 0.013985781695814752 C 0.014700805487721942 0.013985781695814752 0.01656583311648381 0.014706143606461285 0.01631517351906039 0.014553884863558342 C 0.01656583311648381 0.014706143606461285 0.01739398001013355 0.016046182644657566 0.017358905823297376 0.015812886610650063 C 0.01739398001013355 0.016046182644657566 0.016684160255910893 0.017481816493398236 0.016736063761094468 0.017353437271648377" fill="none" stroke="#000000" stroke-width="0.001"/>
<path d="M 0.016736063761094468 0.017353437271648377 C 0.016804600455291842 0.017449721687960773 0.017662682485595806 0.01873019375317273 0.017558504091462965 0.01850885026739711 C 0.017662682485595806 0.01873019375317273 0.018021846190624014 0.020134618170419033 0.017986204490688548 0.02000955910095581" fill="none" stroke="#000000" stroke-width="0.001"/>
</g><g transform="translate(0.21100256249521318,0.14599008027047136) rotate(0) scale(1,1) translate(-0.018110482705012847,-0.015186404574128454)"><path d="M 0.01710810230495585 0.013569514567799682 C 0.01723075033717024 0.0135954797394927 0.0187719431953046 0.014027578299280315 0.018579878691528544 0.013881096628115899 C 0.0187719431953046 0.014027578299280315 0.01944854620795221 0.015576585040272163 0.01941287635026854 0.015327294621772685 C 0.01944854620795221 0.015576585040272163 0.018974170369854614 0.01700135556913771 0.01900791698373261 0.01687258165010963" fill="none" stroke="none" stroke-width="0"/>
<path d="M 0.01900791698373261 0.01687258165010963 C 0.018828546184098766 0.016934029846386832 0.01648596186008483 0.01774971196152766 0.016855467388126495 0.01760996000543607 C 0.01648596186008483 0.01774971196152766 0.014383715918824808 0.018627908883023105 0.01457385064723263 0.018549605123208718" fill="none" stroke="#000000" stroke-width="0.001"/>
<path d="M 0.01457385064723263 0.018549605123208718 C 0.014485633160639822 0.0185462065333135 0.013361101230053997 0.018434797914537594 0.013515240808118936 0.0185088220444661 C 0.013361101230053997 0.018434797914537594 0.01265324318975417 0.01749420901736358 0.012724175710453372 0.017661315564066644 C 0.01265324318975417 0.01749420901736358 0.012717876405007326 0.01634124326924904 0.01266405055972851 0.016503543484029333 C 0.012717876405007326 0.01634124326924904 0.013428922128305048 0.01564789377859262 0.01337008585379916 0.015713712986703137" fill="none" stroke="#000000" stroke-width="0.001"/>
<path d="M 0.01337008585379916 0.015713712986703137 C 0.013548787060350264 0.015621593803949651 0.015826001703342134 0.014429599592086017 0.01551450033241241 0.014608282793661305 C 0.015826001703342134 0.014429599592086017 0.01724090246933447 0.01348295054897788 0.01710810230495585 0.013569514567799682" fill="none" stroke="#000000" stroke-width="0.001"/>
</g><g transform="translate(0.20686404804071618,0.14793533475129889) rotate(0) scale(1,1) translate(-0.017815859593261256,-0.014881607178823718)"><path d="M 0.01661541159740703 0.015459384568510353 C 0.016636339322432133 0.015376376759264489 0.016979051525737487 0.014332914953125532 0.016866544297708265 0.014463290857559971 C 0.016979051525737487 0.014332914953125532 0.018160009563104474 0.013870013852811745 0.01796549833375771 0.013894873715297077 C 0.018160009563104474 0.013870013852811745 0.01930361077621211 0.014187480740439238 0.019200679049869464 0.014164972507735995" fill="none" stroke="none" stroke-width="0"/>
<path d="M 0.019200679049869464 0.014164972507735995 C 0.01926043829968215 0.01425925568928233 0.020018600518287043 0.015502387789874412 0.01991779004762169 0.015296370686292011 C 0.020018600518287043 0.015502387789874412 0.020451455918706375 0.01674891167276087 0.020410404697853705 0.016637177750724805" fill="none" stroke="#000000" stroke-width="0.001"/>
<path d="M 0.020410404697853705 0.016637177750724805 C 0.020419721025485282 0.016788524811429853 0.020482544854004456 0.01871752068226046 0.02052220062943261 0.018453342479185376 C 0.020482544854004456 0.01871752068226046 0.01980872400781953 0.01991985457500336 0.019934535392715853 0.01980731618762581 C 0.01980872400781953 0.01991985457500336 0.018863978877583 0.019655719048847085 0.019012464010676716 0.019803803127716006 C 0.018863978877583 0.019655719048847085 0.018081067944334138 0.017882515917322307 0.01815271379559126 0.018030307241198744" fill="none" stroke="#000000" stroke-width="0.001"/>
<path d="M 0.01815271379559126 0.018030307241198744 C 0.01808938028632195 0.017920048858148414 0.017264603167844186 0.016492963088537423 0.01739271168435954 0.01670720664459479 C 0.017264603167844186 0.016492963088537423 0.016550636590160987 0.015355399395503316 0.01661541159740703 0.015459384568510353" fill="none" stroke="#000000" stroke-width="0.001"/>
</g></g>
<g id="鱗">
</g>
<g id="悪タトゥ">
</g>
</svg>
