<?xml version="1.0" encoding="UTF-8"?>
<svg xmlns="http://www.w3.org/2000/svg" viewBox="0 0 1 1">
<g transform="translate(0.33734345282867056,0.2752572326331468) rotate(0) scale(1,1) translate(-0.01919286476298845,-0.019735317662897982)"><path d="M 0.019192864762988426 0.026427532471739314 C 0.01899712013627536 0.026331503332147014 0.016539209556074057 0.02497482616110136 0.01684392924243161 0.025275182796631716 C 0.016539209556074057 0.02497482616110136 0.015571506340923339 0.022203768867999005 0.015536228526697782 0.02282325284537504 C 0.015571506340923339 0.022203768867999005 0.017501505437396175 0.017207148003546863 0.0172672630131383 0.017841375068119298 C 0.017501505437396175 0.017207148003546863 0.018507604430279784 0.014781943083909618 0.018347137617792275 0.015212528070505828 C 0.018507604430279784 0.014781943083909618 0.019263342025088104 0.012462840825503018 0.019192864762988426 0.012674355228964772" fill="none" stroke="#000000" stroke-width="0.001"/>
<path d="M 0.019192864762988426 0.012674355228964772 C 0.019380810800375903 0.012908418137958226 0.02164278392131912 0.015922220097780795 0.021448217211638143 0.015483110136886215 C 0.02164278392131912 0.015922220097780795 0.021644438928130245 0.018555353318740444 0.02152766527916017 0.01794367475969971 C 0.021644438928130245 0.018555353318740444 0.02285067891631116 0.023434211848452718 0.02284950099927907 0.02282325284537505 C 0.02285067891631116 0.023434211848452718 0.02123708059718769 0.025575539432162096 0.021541800283545243 0.02527518279663174 C 0.02123708059718769 0.025575539432162096 0.01899712013627536 0.02652356161133161 0.019192864762988426 0.026427532471739314" fill="none" stroke="#000000" stroke-width="0.001"/>
</g><g transform="translate(0.3373434528286707,0.27834516781562385) rotate(0) scale(1,1) translate(-0.01919286476298845,-0.0207756729228991)"><path d="M 0.019192864762988426 0.023884743351338618 C 0.0190567830984975 0.023823747094186557 0.01738989473549356 0.02276324580004179 0.017559884789097313 0.023152788265513886 C 0.01738989473549356 0.02276324580004179 0.01713620279129281 0.018648123706091316 0.01715298411974342 0.019210233765673483 C 0.01713620279129281 0.018648123706091316 0.01751034987117524 0.01594251479613762 0.01735850884768997 0.01640746755052787 C 0.01751034987117524 0.01594251479613762 0.019238313448742623 0.013297039382266293 0.018975076401566704 0.013630800712990481 C 0.019238313448742623 0.013297039382266293 0.02064587649815387 0.012299959154241542 0.02051735341380101 0.012402331581837615" fill="none" stroke="#000000" stroke-width="0.001"/>
<path d="M 0.02051735341380101 0.012402331581837615 C 0.020583674505697397 0.01253529670518212 0.021355695455264816 0.014331674392695865 0.02131320651655766 0.013997913061971677 C 0.021355695455264816 0.014331674392695865 0.021020515585759864 0.016841827609169694 0.021027220678286884 0.016407467550527875 C 0.021020515585759864 0.016841827609169694 0.021215964077782822 0.019772343825255653 0.021232745406233433 0.019210233765673487 C 0.021215964077782822 0.019772343825255653 0.020655854683275788 0.023542330730985987 0.02082584473687954 0.023152788265513893 C 0.020655854683275788 0.023542330730985987 0.0190567830984975 0.02394573960849068 0.019192864762988426 0.023884743351338618" fill="none" stroke="#000000" stroke-width="0.001"/>
</g><g transform="translate(0.3383497255681251,0.27175916685295015) rotate(0) scale(1,1) translate(-0.022933258138484177,-0.022933258138484177)"><path d="M 0.022933258138484125 0.0219431124484373 C 0.023095336585584426 0.0219431124484373 0.02400678307995401 0.022416785217864648 0.02390572882108588 0.02231591239838557 C 0.02400678307995401 0.022416785217864648 0.024109843397478726 0.02327937263064611 0.024145909244901675 0.02315358628218623 C 0.024109843397478726 0.02327937263064611 0.023326911017015162 0.02388132877138066 0.0234729386520105 0.023825348579904166 C 0.023326911017015162 0.02388132877138066 0.0222475499899623 0.02376936838842767 0.02239357762495764 0.023825348579904166 C 0.0222475499899623 0.02376936838842767 0.021684541184643514 0.023027799933726348 0.021720607032066463 0.02315358628218623 C 0.021684541184643514 0.023027799933726348 0.022061841714750396 0.022215039578906495 0.021960787455882258 0.02231591239838557 C 0.022061841714750396 0.022215039578906495 0.023095336585584426 0.0219431124484373 0.022933258138484125 0.0219431124484373 Z" fill="#cccccc" stroke="#000000" stroke-width="0.001"/>
</g><g transform="translate(0.3373434528286707,0.2754880484339874) rotate(0) scale(1,1) translate(-0.02456377814682995,-0.024563778146829942)"><path d="M 0.024705026611745895 0.024429220912080933 C 0.024740338727974875 0.024440434014976684 0.024846275076661817 0.02458620435262144 0.024846275076661817 0.02456377814682994 C 0.024846275076661817 0.02458620435262144 0.024669714495516915 0.0247095484844747 0.024705026611745895 0.02469833538157895 C 0.024669714495516915 0.0247095484844747 0.02438721756568507 0.0246871222786832 0.02442252968191405 0.02469833538157895 C 0.02438721756568507 0.0246871222786832 0.02428128121699813 0.024541351941038438 0.02428128121699813 0.02456377814682994 C 0.02428128121699813 0.024541351941038438 0.024457841798143032 0.024418007809185183 0.02442252968191405 0.024429220912080933 C 0.024457841798143032 0.024418007809185183 0.024740338727974875 0.024440434014976684 0.024705026611745895 0.024429220912080933 Z" fill="#cccccc" stroke="#000000" stroke-width="0.001"/>
</g><g transform="translate(0.3373434528286707,0.2784273467918402) rotate(0) scale(1,1) translate(-0.04481464761927567,-0.044322296567054956)"><path d="M 0.04481464761927567 0.043221366145495925 C 0.04513190507936369 0.043221366145495925 0.04681623032656323 0.04456248600562915 0.04671819237980379 0.044322296567054956 C 0.04681623032656323 0.04456248600562915 0.045734436303585445 0.04625208464516383 0.04599110298038889 0.04610363940838622 C 0.045734436303585445 0.04625208464516383 0.043381525581359014 0.045955194171608614 0.043638192258162456 0.04610363940838622 C 0.043381525581359014 0.045955194171608614 0.04300914080550699 0.04408210712848076 0.04291110285874755 0.044322296567054956 C 0.04300914080550699 0.04408210712848076 0.04513190507936369 0.043221366145495925 0.04481464761927567 0.043221366145495925 Z" fill="#cccccc" stroke="#000000" stroke-width="0.001"/>
</g></svg>
