<?xml version="1.0" encoding="UTF-8"?>
<svg xmlns="http://www.w3.org/2000/svg" viewBox="0 0 1 1">
<g id="前翅">
<g transform="translate(0.3185107268290297,0.17536888107398066) rotate(0) scale(1,1) translate(-0.4946969387371033,-0.3648058423509145)"><path d="M 0.3725516832775716 0.3450766919810709 C 0.37608227085440576 0.3450062106636475 0.42126694339923754 0.3440834583122574 0.41491873419958136 0.34423091617199053 C 0.42126694339923754 0.3440834583122574 0.45154781529626764 0.34323022112196366 0.44873019367344563 0.3433071976642734" fill="none" stroke="#000000" stroke-width="0.001"/>
<path d="M 0.44873019367344563 0.3433071976642734 C 0.4513376200527148 0.3434554053189718 0.48414144547443994 0.34573318708114636 0.4800193102246757 0.3450856895206539 C 0.48414144547443994 0.34573318708114636 0.49971052554111145 0.35157645829597756 0.4981958166706164 0.35107716839018344" fill="none" stroke="#000000" stroke-width="0.001"/>
<path d="M 0.4981958166706164 0.35107716839018344 C 0.49859995373099064 0.35171352652758064 0.503035877698214 0.35999169351557175 0.5030454613951072 0.3587134660389501 C 0.503035877698214 0.35999169351557175 0.4976670915506312 0.3670577674488679 0.4980808123078986 0.3664158981096435" fill="none" stroke="none" stroke-width="0"/>
<path d="M 0.4980808123078986 0.3664158981096435 C 0.4969096675332453 0.36720959226158345 0.4811917345750856 0.37755282418941033 0.484027075012059 0.3759402279329233 C 0.4811917345750856 0.37755282418941033 0.4623925314018974 0.38658595529203443 0.4640567270642175 0.38576705318748744" fill="none" stroke="#000000" stroke-width="0.001"/>
<path d="M 0.4640567270642175 0.38576705318748744 C 0.46177557062078867 0.3863592553849872 0.43175516435979466 0.3940063532899199 0.4366828497430715 0.3928734795574847 C 0.43175516435979466 0.3940063532899199 0.4022779735250475 0.39990220951164557 0.40492450246489553 0.3993615379767101" fill="none" stroke="#000000" stroke-width="0.001"/>
<path d="M 0.40492450246489553 0.3993615379767101 C 0.4046574879512992 0.39933658715566184 0.4001427269053389 0.39890223157773613 0.4017203283017396 0.39906212812413083 C 0.4001427269053389 0.39890223157773613 0.38468269882528344 0.3973078336946275 0.3859932857080878 0.3974427794199739" fill="none" stroke="#000000" stroke-width="0.001"/>
<path d="M 0.3859932857080878 0.3974427794199739 C 0.38527872055394546 0.3968291594955304 0.37853597578627246 0.3919521118033743 0.37986844142541976 0.3921831799780305 C 0.37853597578627246 0.3919521118033743 0.3739542509787478 0.3958447467818364 0.37457215146375283 0.39546219503204905" fill="none" stroke="#000000" stroke-width="0.001"/>
<path d="M 0.37457215146375283 0.39546219503204905 C 0.37439068591061986 0.39522079718048214 0.37205926722217136 0.39206951423652564 0.3723945648261568 0.3925654208132463 C 0.37205926722217136 0.39206951423652564 0.370394748165075 0.38925680738624757 0.37054858021592746 0.38951131611140133" fill="none" stroke="#000000" stroke-width="0.001"/>
<path d="M 0.37054858021592746 0.38951131611140133 C 0.37052293792152013 0.3893642284159333 0.37016886083008427 0.3874067753056586 0.3702408726830395 0.3877462637657854 C 0.37016886083008427 0.3874067753056586 0.36963806842191693 0.38524505382522056 0.3696844379804648 0.3854374545898794" fill="none" stroke="none" stroke-width="0"/>
<path d="M 0.3696844379804648 0.3854374545898794 C 0.36997141846831 0.38543055701726375 0.3734614610056516 0.3849295709944469 0.3731282038346071 0.385354683718492 C 0.3734614610056516 0.3849295709944469 0.37372980071619777 0.3799178867499086 0.3736835240329985 0.3803361019013381" fill="none" stroke="#000000" stroke-width="0.001"/>
<path d="M 0.3736835240329985 0.3803361019013381 C 0.37345448797374964 0.38037987319212485 0.3706018341509679 0.3812864701148244 0.3709350913220124 0.3808613573907793 C 0.3706018341509679 0.3812864701148244 0.36958021686866915 0.38581879602313773 0.3696844379804648 0.3854374545898794" fill="none" stroke="#000000" stroke-width="0.001"/>
<path d="M 0.3696844379804648 0.3854374545898794 C 0.36973080753901266 0.3856298553545382 0.37031288453599476 0.38808575222591224 0.3702408726830395 0.3877462637657854 C 0.37031288453599476 0.38808575222591224 0.3705742225103348 0.38965840380686934 0.37054858021592746 0.38951131611140133" fill="none" stroke="none" stroke-width="0"/>
<path d="M 0.37054858021592746 0.38951131611140133 C 0.370281535330157 0.389740732084827 0.3667814822625576 0.39278044142592555 0.3673440415866822 0.39226430779250937 C 0.3667814822625576 0.39278044142592555 0.3635023538880778 0.3959916373723862 0.36379786832643196 0.3957049197123957" fill="none" stroke="#000000" stroke-width="0.001"/>
<path d="M 0.36379786832643196 0.3957049197123957 C 0.3635026593103074 0.3956934665149857 0.35945442810457795 0.39554167574996835 0.36025536013293724 0.3955674813434763 C 0.35945442810457795 0.39554167574996835 0.35368096097388557 0.39538090019420247 0.3541866839861203 0.39539525259030045" fill="none" stroke="#000000" stroke-width="0.001"/>
<path d="M 0.3541866839861203 0.39539525259030045 C 0.3535915261985584 0.39491866822369887 0.3456910174614189 0.38965877274133087 0.3470447905353773 0.3896762401910812 C 0.3456910174614189 0.38965877274133087 0.33718279181222316 0.3956447601101475 0.33794140709861964 0.39518564319329624" fill="none" stroke="#000000" stroke-width="0.001"/>
<path d="M 0.33794140709861964 0.39518564319329624 C 0.3374234500929872 0.39518256228510673 0.3308665381983137 0.3951414522113764 0.3317259230310301 0.39514867229502243 C 0.3308665381983137 0.3951414522113764 0.3272873612789388 0.3950948630140878 0.3276287891060228 0.3950990021895443" fill="none" stroke="#000000" stroke-width="0.001"/>
<path d="M 0.3276287891060228 0.3950990021895443 C 0.3274304673135939 0.39500566091486666 0.3241224822342788 0.3934416090352958 0.32524892759687574 0.39397890689341253 C 0.3241224822342788 0.3934416090352958 0.3131833211846916 0.38820747130870403 0.31411144475485964 0.38865142789214313" fill="none" stroke="#000000" stroke-width="0.001"/>
<path d="M 0.31411144475485964 0.38865142789214313 C 0.31383818999792473 0.388426227208743 0.3104140706836492 0.38554647434708517 0.3108323876716409 0.3859490196913412 C 0.3104140706836492 0.38554647434708517 0.3089465786679024 0.38364353910021454 0.30909164089895924 0.38382088376107043" fill="none" stroke="#000000" stroke-width="0.001"/>
<path d="M 0.30909164089895924 0.38382088376107043 C 0.3087442540720032 0.383636892183714 0.3044823473647225 0.38105569997882016 0.3049229989754862 0.381612984832793 C 0.3044823473647225 0.38105569997882016 0.30371055678598746 0.3767601722367801 0.3038038215697951 0.3771334655133965" fill="none" stroke="#000000" stroke-width="0.001"/>
<path d="M 0.3038038215697951 0.3771334655133965 C 0.3040161721621433 0.37710417719602357 0.3068102810103758 0.3767052550215688 0.3063520286779744 0.37678200570492143 C 0.3068102810103758 0.3767052550215688 0.30954875129866444 0.3761649949471855 0.30930284955861137 0.3762124573131652" fill="none" stroke="none" stroke-width="0"/>
<path d="M 0.30930284955861137 0.3762124573131652 C 0.309811447963301 0.37610337334798205 0.31597574890591307 0.37439072994744277 0.315406030414887 0.3749034497309673 C 0.31597574890591307 0.37439072994744277 0.3162005915372602 0.3696561840925299 0.3161394714509238 0.3700598199108713" fill="none" stroke="#000000" stroke-width="0.001"/>
<path d="M 0.3161394714509238 0.3700598199108713 C 0.3156865936510543 0.370233383465018 0.3101352193614634 0.3726553023441567 0.3107049378524894 0.3721425825606322 C 0.3101352193614634 0.3726553023441567 0.30918600886745484 0.37655161354254296 0.30930284955861137 0.3762124573131652" fill="none" stroke="#000000" stroke-width="0.001"/>
<path d="M 0.30930284955861137 0.3762124573131652 C 0.3090569478185583 0.3762599196791449 0.305893776345573 0.37685875638827404 0.3063520286779744 0.37678200570492143 C 0.305893776345573 0.37685875638827404 0.3035914709774468 0.3771627538307694 0.3038038215697951 0.3771334655133965" fill="none" stroke="none" stroke-width="0"/>
<path d="M 0.3038038215697951 0.3771334655133965 C 0.30344906937384547 0.3772677688958036 0.2988664610566795 0.37898045585796486 0.29954679521839966 0.37874510610228157 C 0.2988664610566795 0.37898045585796486 0.2953142296633826 0.38005870895487204 0.29563981162915315 0.37995766258159586" fill="none" stroke="#000000" stroke-width="0.001"/>
<path d="M 0.29563981162915315 0.37995766258159586 C 0.29533621403161703 0.3797117188859421 0.2912479118830775 0.37673876023633923 0.29199664045871965 0.37700633823375074 C 0.2912479118830775 0.37673876023633923 0.2862099377433414 0.37672509231089985 0.2866550687214474 0.3767467266126576" fill="none" stroke="#000000" stroke-width="0.001"/>
<path d="M 0.2866550687214474 0.3767467266126576 C 0.2863310571343523 0.37662952567729113 0.2816566863798275 0.37525932945532964 0.282766929676306 0.3753403153882597 C 0.2816566863798275 0.37525932945532964 0.27254591745432166 0.37581111041993354 0.2733321491637051 0.3757748954174971" fill="none" stroke="#000000" stroke-width="0.001"/>
<path d="M 0.2733321491637051 0.3757748954174971 C 0.27317708281133485 0.37566484067742434 0.2709579574574621 0.3740846904844254 0.2714713529352622 0.3744542385366238 C 0.2709579574574621 0.3740846904844254 0.2668130743046736 0.3710808254789904 0.2671714034301035 0.37134031879111606" fill="none" stroke="#000000" stroke-width="0.001"/>
<path d="M 0.2671714034301035 0.37134031879111606 C 0.26689990252801016 0.3708814421272188 0.26429415338902607 0.3669838932956503 0.264844252801101 0.36740709017644263 C 0.26429415338902607 0.3669838932956503 0.2621776670220383 0.36774859667708376 0.26245626553201995 0.36771291689397884" fill="none" stroke="#000000" stroke-width="0.001"/>
<path d="M 0.26245626553201995 0.36771291689397884 C 0.2623295864326154 0.36757134839041355 0.26064009147995454 0.3656703716757542 0.26093611633916514 0.3660140948511957 C 0.26064009147995454 0.3656703716757542 0.2587346214616869 0.36338608411680534 0.25890396722149295 0.3635882387886815" fill="none" stroke="#000000" stroke-width="0.001"/>
<path d="M 0.25890396722149295 0.3635882387886815 C 0.25911178154042597 0.36360333551344837 0.26184827640792097 0.36365651884844086 0.26139773904868896 0.36376939948588377 C 0.26184827640792097 0.36365651884844086 0.26455313857257595 0.3621056937771564 0.26431041553227697 0.3622336711393662" fill="none" stroke="none" stroke-width="0"/>
<path d="M 0.26431041553227697 0.3622336711393662 C 0.26481667550222704 0.36222214494680605 0.2710017620181275 0.3617976470685023 0.27038553517167785 0.362095356828644 C 0.2710017620181275 0.3617976470685023 0.2718151045661721 0.35837497045008415 0.2717051376896725 0.3586611540176657" fill="none" stroke="#000000" stroke-width="0.001"/>
<path d="M 0.2717051376896725 0.3586611540176657 C 0.2719323732537539 0.35854051095902506 0.274802189478304 0.35698927890401233 0.27443196445864926 0.35721343731397803 C 0.274802189478304 0.35698927890401233 0.27629082738110244 0.3558677377467524 0.2761478379255291 0.3559712530980774" fill="none" stroke="none" stroke-width="0"/>
<path d="M 0.2761478379255291 0.3559712530980774 C 0.276334297876112 0.35611376459077376 0.27864031131235373 0.3576239823587738 0.278385357332524 0.35768139101043345 C 0.27864031131235373 0.3576239823587738 0.2792757797127323 0.3550824291338057 0.2792072856834855 0.3552823492781617" fill="none" stroke="#000000" stroke-width="0.001"/>
<path d="M 0.2792072856834855 0.3552823492781617 C 0.2790644362699475 0.3552107426301127 0.27723813874119935 0.3544804781532332 0.27749309272102907 0.35442306950157354 C 0.27723813874119935 0.3544804781532332 0.2760357333592374 0.3561002683977861 0.2761478379255291 0.3559712530980774" fill="none" stroke="#000000" stroke-width="0.001"/>
<path d="M 0.2761478379255291 0.3559712530980774 C 0.27600484846995577 0.35607476844940245 0.27406173943899453 0.35743759572394374 0.27443196445864926 0.35721343731397803 C 0.27406173943899453 0.35743759572394374 0.27147790212559114 0.3587817970763063 0.2717051376896725 0.3586611540176657" fill="none" stroke="none" stroke-width="0"/>
<path d="M 0.2717051376896725 0.3586611540176657 C 0.2713815105105699 0.358652539932004 0.26720538469399185 0.3588554947498675 0.2678216115404415 0.3585577849897258 C 0.26720538469399185 0.3588554947498675 0.2640178158649299 0.3625399949851696 0.26431041553227697 0.3622336711393662" fill="none" stroke="#000000" stroke-width="0.001"/>
<path d="M 0.26431041553227697 0.3622336711393662 C 0.264067692491978 0.36236164850157604 0.26094720168945695 0.3638822801233267 0.26139773904868896 0.36376939948588377 C 0.26094720168945695 0.3638822801233267 0.25869615290255993 0.36357314206391467 0.25890396722149295 0.3635882387886815" fill="none" stroke="none" stroke-width="0"/>
<path d="M 0.25890396722149295 0.3635882387886815 C 0.2588156450339126 0.3635474975523714 0.2576945450586698 0.36298839273756517 0.25784410097052823 0.3630993439529605 C 0.2576945450586698 0.36298839273756517 0.25704806255491364 0.36218661422485215 0.25710929627919166 0.3622568242039374" fill="none" stroke="#000000" stroke-width="0.001"/>
<path d="M 0.25710929627919166 0.3622568242039374 C 0.256907933270198 0.3618370575562797 0.2544242615666784 0.35844666641817907 0.25538332760128146 0.3586588243055979 C 0.2544242615666784 0.35844666641817907 0.24813102710270368 0.3606459367553316 0.24888873012831306 0.36043832799509273" fill="none" stroke="#000000" stroke-width="0.001"/>
<path d="M 0.24888873012831306 0.36043832799509273 C 0.2487993298750838 0.36039749834330476 0.24701937253363318 0.3595800974799873 0.24781592708956185 0.35994837217363673 C 0.24701937253363318 0.3595800974799873 0.23862292115446979 0.35569158662943845 0.23933007545716917 0.35601903167129983" fill="none" stroke="#000000" stroke-width="0.001"/>
<path d="M 0.23933007545716917 0.35601903167129983 C 0.24108963913846032 0.35483411671839504 0.26457232764979 0.34041680233050947 0.260444839632663 0.3418000522364421 C 0.26457232764979 0.34041680233050947 0.2912278559985285 0.33922169784708056 0.2888599316626927 0.33942003280010835" fill="none" stroke="#000000" stroke-width="0.001"/>
<path d="M 0.2888599316626927 0.33942003280010835 C 0.2892042715218849 0.3400005011814227 0.29361890723204076 0.3471429455976144 0.29299200997299896 0.3463856533758808 C 0.29361890723204076 0.3471429455976144 0.2970392288904918 0.34852528603446725 0.29638269877119416 0.34850753946091184 C 0.2970392288904918 0.34852528603446725 0.3014312047283542 0.345867506508558 0.3008703714045702 0.34659861225854577 C 0.3014312047283542 0.345867506508558 0.30329955926093866 0.339162241977935 0.3031126986566026 0.3397342704610589" fill="none" stroke="#000000" stroke-width="0.001"/>
<path d="M 0.3031126986566026 0.3397342704610589 C 0.3033021488903369 0.3397486147593784 0.3057674345222985 0.3399353085874019 0.3053861014614139 0.33990640204089245 C 0.3057674345222985 0.3399353085874019 0.307880578214368 0.3400957112673625 0.30768869538721766 0.34008114901917247" fill="none" stroke="#000000" stroke-width="0.001"/>
<path d="M 0.30768869538721766 0.34008114901917247 C 0.3078810677972961 0.34072507873746777 0.3103446417579393 0.34861595400971834 0.3099971643081594 0.3478083056387158 C 0.3103446417579393 0.34861595400971834 0.3123372121376017 0.3498273117053515 0.3118584247845767 0.349772929471203 C 0.3123372121376017 0.3498273117053515 0.31636360348010745 0.34772673868523296 0.31574261254445934 0.34846089244849765 C 0.31636360348010745 0.34772673868523296 0.31960762463467834 0.3403382669673207 0.3193103160123538 0.34096308431202665" fill="none" stroke="#000000" stroke-width="0.001"/>
<path d="M 0.3193103160123538 0.34096308431202665 C 0.32072343530019515 0.34107092498200603 0.3407045280718842 0.3425999729908663 0.33626774746644944 0.34225717235177927 C 0.3407045280718842 0.3425999729908663 0.3755753445951651 0.34531165195017854 0.3725516832775716 0.3450766919810709" fill="none" stroke="#000000" stroke-width="0.001"/>
</g><g transform="translate(0.30583698071029375,0.17107599744985508) rotate(0) scale(1,1) translate(-0.034161563925052096,-0.03416156392505209)"><path d="M 0.031390671923045094 0.01792189834476844 C 0.03285320607346967 0.018409994777143085 0.05107830804980464 0.024890817018384002 0.04894108172814003 0.023779055533264152 C 0.05107830804980464 0.024890817018384002 0.05771207995426042 0.03188670121895186 0.057037387783020393 0.031263036166206654" fill="none" stroke="#000000" stroke-width="0.001"/>
<path d="M 0.057037387783020393 0.031263036166206654 C 0.05480721589040921 0.03152607123674194 0.023579573867757306 0.03436086686594244 0.03027532507168618 0.034419457012630134 C 0.023579573867757306 0.03436086686594244 -0.032197279229515735 0.030294127383522728 -0.023311626664126076 0.03055995440595429 C -0.032197279229515735 0.030294127383522728 -0.08077257896706175 0.03128533093824278 -0.07635250571298978 0.03122953274345136" fill="none" stroke="#000000" stroke-width="0.001"/>
<path d="M -0.07534381685219821 0.018671930084574673 C -0.06900027895671614 0.01851578741483118 0.009673178624856943 0.016735715402668903 0.0007786378935866686 0.016798218047652753 C 0.009673178624856943 0.016735715402668903 0.03394167475883328 0.018015538369528093 0.03139067192304508 0.017921898344768452" fill="none" stroke="#000000" stroke-width="0.001"/>
</g><g transform="translate(0.13685469939733133,0.16260882135039254) rotate(0) scale(1,1) translate(-0.034161563925052096,-0.03416156392505209)"><path d="M 0.09363875519438189 0.02713907829755916 C 0.09379210263162858 0.027664857963432644 0.09539514257909908 0.034494875955771345 0.09547892444134218 0.033448434288041 C 0.09539514257909908 0.034494875955771345 0.09239624354797488 0.04021704031218019 0.09263337284746467 0.03969637831032333" fill="none" stroke="#000000" stroke-width="0.001"/>
<path d="M 0.09263337284746467 0.03969637831032333 C 0.09122901956042709 0.03926608727150654 0.06936801089464749 0.033490492067671254 0.07578113340301365 0.03453288584452187 C 0.06936801089464749 0.033490492067671254 0.008292787938678166 0.02658933092174348 0.01567590274707076 0.027187652988115967 C 0.008292787938678166 0.02658933092174348 -0.01519058988476154 0.027366801719713372 -0.012816244297697517 0.027353021048052033" fill="none" stroke="#000000" stroke-width="0.001"/>
<path d="M -0.012816244297697517 0.027353021048052033 C -0.0137629918084911 0.027594615306028174 -0.02640497451362555 0.031150634460562772 -0.02417721442722051 0.030252152143765722 C -0.02640497451362555 0.031150634460562772 -0.040830377910169406 0.03879169690843755 -0.039549365334557954 0.03813480884961664" fill="none" stroke="#000000" stroke-width="0.001"/>
<path d="M -0.039549365334557954 0.03813480884961664 C -0.038288032693850636 0.037163681770316946 -0.022286892943333223 0.025183115000155173 -0.024413373646070158 0.026481283898020277 C -0.022286892943333223 0.025183115000155173 -0.013166448839685135 0.02222974025666996 -0.014031596901714752 0.02255678207523537" fill="none" stroke="#000000" stroke-width="0.001"/>
<path d="M -0.014031596901714752 0.02255678207523537 C -0.011363181821569457 0.022453709033887936 0.026961913401370177 0.02170176359759312 0.017989384060028788 0.02131990557906614 C 0.026961913401370177 0.02170176359759312 0.09994286945557798 0.027624009357433577 0.09363875519438189 0.02713907829755916" fill="none" stroke="#000000" stroke-width="0.001"/>
</g><g transform="translate(0.23337044632679838,0.18547881673753838) rotate(0) scale(1,1) translate(-0.034161563925052096,-0.03416156392505209)"><path d="M -0.04505001144462789 0.05173503676484237 C -0.04099190957547207 0.05061351825246704 0.015522603914567284 0.03678236072053413 0.003647210985241942 0.03827681461633836 C 0.015522603914567284 0.03678236072053413 0.10747491236051687 0.032437324489638986 0.09745470370727621 0.03380159001519166 C 0.10747491236051687 0.032437324489638986 0.12609263241720098 0.02091429816758252 0.12388971482412983 0.0219056283097063" fill="none" stroke="none" stroke-width="0"/>
<path d="M 0.12388971482412983 0.0219056283097063 C 0.12104577193575686 0.022507806543574753 0.08252808552665557 0.02927859075267936 0.0897624001636542 0.029131767116127767 C 0.08252808552665557 0.02927859075267936 0.029410672517931512 0.023590496036771415 0.03707793918014638 0.023667511948325438 C 0.029410672517931512 0.023590496036771415 -0.007744735227754158 0.029480787601180183 -0.002244799782924231 0.028207576177479494 C -0.007744735227754158 0.029480787601180183 -0.03248838712962139 0.04090667074834727 -0.028921286157812753 0.0389460490327337 C -0.03248838712962139 0.04090667074834727 -0.04639407188519582 0.05280078574251809 -0.04505001144462789 0.05173503676484237" fill="none" stroke="#000000" stroke-width="0.001"/>
</g><g transform="translate(0.23337044632679838,0.18547881673753838) rotate(0) scale(1,1) translate(-0.034161563925052096,-0.03416156392505209)"><path d="M 0.0938831662699868 0.03446467819932997 C 0.09196726720058772 0.03441233769906252 0.06584905392654525 0.03348168054059844 0.07089237743719781 0.033836592196120556 C 0.06584905392654525 0.03348168054059844 0.027840720818916864 0.030171146581878663 0.033363284142155974 0.03020573833306462 C 0.027840720818916864 0.030171146581878663 0.0007021819264899911 0.03406287692391085 0.004621617558328475 0.03342149118188907 C 0.0007021819264899911 0.03406287692391085 -0.016381475108746678 0.038783976149461094 -0.013669943439905838 0.03790236723732594 C -0.016381475108746678 0.038783976149461094 -0.029103997386749587 0.04450900070169294 -0.027916762467761605 0.044000798127510864" fill="none" stroke="#000000" stroke-width="0.001"/>
</g><g transform="translate(0.11858429162740519,0.1758481799104622) rotate(0) scale(1,1) translate(-0.034161563925052096,-0.03416156392505209)"><path d="M 0.016270584287778743 0.04257682632371054 C 0.018787961684796448 0.04215947268646215 0.05266681528807843 0.03718620189627026 0.046479113051991185 0.037568582676729766 C 0.05266681528807843 0.03718620189627026 0.09683092488437722 0.0375823762091219 0.09052301112082567 0.03798825695819651 C 0.09683092488437722 0.0375823762091219 0.12432825334034767 0.03209076452358609 0.12217407821460982 0.032698013687834454 C 0.12432825334034767 0.03209076452358609 0.1158896988309357 0.03053487142883131 0.11637311262967986 0.030701266987216168" fill="none" stroke="none" stroke-width="0"/>
<path d="M 0.11637311262967986 0.030701266987216168 C 0.1138966134459715 0.030651367665585152 0.08268200104080996 0.029937268647816363 0.08665512242517952 0.03010247512764399 C 0.08268200104080996 0.029937268647816363 0.0656954141991842 0.028703500966869827 0.0686956560172452 0.028718789229284652 C 0.0656954141991842 0.028703500966869827 0.04762691749086844 0.030403010354248403 0.05065222060844754 0.0299190159786661 C 0.04762691749086844 0.030403010354248403 0.02952688224624029 0.03558153926502598 0.03239201860629602 0.034526721736272276 C 0.02952688224624029 0.03558153926502598 0.014927131427902304 0.04324766837266373 0.016270584287778743 0.04257682632371054" fill="none" stroke="#000000" stroke-width="0.001"/>
</g><g transform="translate(0.11858429162740519,0.1758481799104622) rotate(0) scale(1,1) translate(-0.034161563925052096,-0.03416156392505209)"><path d="M 0.10781734972951353 0.034972385449768065 C 0.10626747830465752 0.03512571833926984 0.08635351994746528 0.03690991668422465 0.08921889263124153 0.036812380123789415 C 0.08635351994746528 0.03690991668422465 0.0709629918957013 0.03605642362093932 0.07343287752419848 0.03614282417499093 C 0.0709629918957013 0.03605642362093932 0.05716584812544713 0.035888516576660916 0.05958026508927518 0.0357755734751701 C 0.05716584812544713 0.035888516576660916 0.04202210169448181 0.037939861385289333 0.0444598739582619 0.037498141392880706 C 0.04202210169448181 0.037939861385289333 0.029149258254385153 0.04137438605000636 0.030326997923914134 0.041076213384073613" fill="none" stroke="#000000" stroke-width="0.001"/>
</g><g transform="translate(0.23337044632679838,0.18547881673753838) rotate(0) scale(1,1) translate(-0.034161563925052096,-0.03416156392505209)"><path d="M 0.07369597104234406 0.035723914024795106 C 0.0716001151588268 0.03656041328396099 0.044943470282005904 0.047490191175329995 0.04854570044013709 0.04576190513478565 C 0.044943470282005904 0.047490191175329995 0.02896283487015587 0.05735513329270565 0.03046920914476981 0.056463346511327187" fill="none" stroke="none" stroke-width="0"/>
<path d="M 0.03046920914476981 0.056463346511327187 C 0.030968074353167 0.055693252627690676 0.037900771339392916 0.04577203115070713 0.03645559164553608 0.04722221990768906 C 0.037900771339392916 0.04577203115070713 0.04989426233656445 0.03805256665055671 0.047811365471051886 0.03906108142754406 C 0.04989426233656445 0.03805256665055671 0.06258693641173975 0.03479162268019889 0.06145035403168683 0.03512004258384083" fill="none" stroke="#000000" stroke-width="0.001"/>
<path d="M 0.06145035403168683 0.03512004258384083 C 0.06295787923341703 0.03718264686520836 0.07253644141051094 0.047596313512205106 0.07049550524206806 0.04749566827204606 C 0.07253644141051094 0.047596313512205106 0.07422938200905672 0.03376195498358661 0.07369597104234406 0.035723914024795106" fill="none" stroke="#000000" stroke-width="0.001"/>
</g><g transform="translate(0.316365470121341,0.16470613364314493) rotate(0) scale(1,1) translate(-0.011392973936386407,-0.015070408950617292)"><path d="M 0.009176071932038447 0.02105618043753242 C 0.009292607489143043 0.020560510960552426 0.010538031582953878 0.014055815517278277 0.01057449861729359 0.015108146713772487 C 0.010538031582953878 0.014055815517278277 0.008585464928517595 0.00787154436008768 0.008738467519961903 0.008428206079601895" fill="none" stroke="#000000" stroke-width="0.001"/>
</g><g transform="translate(0.30130379375955185,0.1626845963502839) rotate(0) scale(1,1) translate(-0.011392973936386407,-0.015070408950617292)"><path d="M 0.009590553984005589 0.023675093694106187 C 0.009781325294302784 0.022989828623960526 0.011891634203741758 0.014066791963929032 0.011879809707571928 0.015451912852358238 C 0.011891634203741758 0.014066791963929032 0.009553501123916185 0.006353787214672181 0.00973244793804355 0.007053643032955723" fill="none" stroke="#000000" stroke-width="0.001"/>
</g><g transform="translate(0.28429015340556485,0.1626002183448408) rotate(0) scale(1,1) translate(-0.011392973936386407,-0.015070408950617292)"><path d="M 0.00951457200125719 0.0225320789608564 C 0.009749571582331251 0.021862848757969913 0.012348192843403232 0.013146218839760948 0.012334566974145929 0.014501316526218593 C 0.012348192843403232 0.013146218839760948 0.009456708720528072 0.005585039239793492 0.009678082432344831 0.006270906723364654" fill="none" stroke="#000000" stroke-width="0.001"/>
</g><g transform="translate(0.26575453601843696,0.16127462151758012) rotate(0) scale(1,1) translate(-0.011392973936386407,-0.015070408950617292)"><path d="M 0.01030370072501929 0.022275240527213126 C 0.010501842922735743 0.02166199340912315 0.012652877055824407 0.01369884826963008 0.012681407097616728 0.0149162751101334 C 0.012652877055824407 0.01369884826963008 0.009734667984002672 0.007061938718759939 0.009961340223511445 0.007666118441173282" fill="none" stroke="#000000" stroke-width="0.001"/>
</g><g transform="translate(0.24732130958261628,0.16113155080027466) rotate(0) scale(1,1) translate(-0.011392973936386407,-0.015070408950617292)"><path d="M 0.010930438953830817 0.021347603431526405 C 0.011098279417875036 0.02080673430710191 0.012899124388288852 0.01375815304490118 0.012944524522361445 0.014857173938432491 C 0.012899124388288852 0.01375815304490118 0.010172396746842899 0.0076012009400438525 0.01038563734495971 0.00815935270915067" fill="none" stroke="#000000" stroke-width="0.001"/>
</g><g transform="translate(0.22993533381700457,0.1610851978844923) rotate(0) scale(1,1) translate(-0.011392973936386407,-0.015070408950617292)"><path d="M 0.010900399883616825 0.021362022689881723 C 0.011055373860468436 0.020815312510313256 0.012720475427003382 0.013745390546825761 0.012760087605836162 0.01480150053506013 C 0.012720475427003382 0.013745390546825761 0.010230467581939068 0.008179303022403396 0.01042505373762346 0.008688702831069298" fill="none" stroke="#000000" stroke-width="0.001"/>
</g><g transform="translate(0.21352409259223215,0.16137278289815718) rotate(0) scale(1,1) translate(-0.011392973936386407,-0.015070408950617292)"><path d="M 0.009245604071846596 0.021453144985322827 C 0.009413194103332197 0.02092952204993025 0.011209180098240967 0.014122010212135987 0.011256684449673818 0.015169669760611914 C 0.011209180098240967 0.014122010212135987 0.008460457471733908 0.008357193790528348 0.008675551854652363 0.0088812304036117" fill="none" stroke="#000000" stroke-width="0.001"/>
</g><g transform="translate(0.18424821657442797,0.15931918010322454) rotate(0) scale(1,1) translate(-0.011392973936386407,-0.015070408950617292)"><path d="M 0.00935510099155402 0.01941287013170278 C 0.009517037907202085 0.019049761859180624 0.011363944897155424 0.014291763234179416 0.011298343979330808 0.015055570861436928 C 0.011363944897155424 0.014291763234179416 0.010045976007625954 0.009846479249877273 0.010142312005449404 0.010247178604612632" fill="none" stroke="#000000" stroke-width="0.001"/>
</g><g transform="translate(0.17040503578061128,0.15749557650028823) rotate(0) scale(1,1) translate(-0.011392973936386407,-0.015070408950617292)"><path d="M 0.009320672113627658 0.019078203610201676 C 0.009485478102436254 0.018742984214471282 0.011378098882489496 0.014373163778994578 0.011298343979330808 0.015055570861436928 C 0.011378098882489496 0.014373163778994578 0.010192679865882001 0.010542130934181538 0.01027773095153191 0.010889318620893491" fill="none" stroke="#000000" stroke-width="0.001"/>
</g><g transform="translate(0.1564696245918633,0.15648549242875232) rotate(0) scale(1,1) translate(-0.011392973936386407,-0.015070408950617292)"><path d="M 0.009564844495205779 0.018270478184350996 C 0.009709302785549531 0.018002569240774823 0.011353215703171401 0.014430019211913527 0.011298343979330808 0.015055570861436928 C 0.011353215703171401 0.014430019211913527 0.01013371861478974 0.01040621568412297 0.0102233051812929 0.010763858390070198" fill="none" stroke="#000000" stroke-width="0.001"/>
</g><g transform="translate(0.14373003694758466,0.15470790153747152) rotate(0) scale(1,1) translate(-0.011392973936386407,-0.015070408950617292)"><path d="M 0.009548413234033902 0.01843246774980323 C 0.009694240796141977 0.018151059675772706 0.011358246217325894 0.014483903957404023 0.011298343979330808 0.015055570861436928 C 0.011358246217325894 0.014483903957404023 0.010181314765861937 0.011282206071406013 0.010267240089974927 0.01157246490140839" fill="none" stroke="#000000" stroke-width="0.001"/>
</g><g transform="translate(0.13090227039086033,0.15331361303600752) rotate(0) scale(1,1) translate(-0.011392973936386407,-0.015070408950617292)"><path d="M 0.009698957482906556 0.018420721106674122 C 0.009827157981513578 0.01814949702181404 0.011270720776967641 0.014634277023155949 0.011237363466190814 0.01516603208835315 C 0.011270720776967641 0.014634277023155949 0.01000440202439828 0.011779129343970579 0.010099245212228474 0.0120396603243077" fill="none" stroke="#000000" stroke-width="0.001"/>
</g><g transform="translate(0.11800417783243672,0.1524810512199997) rotate(0) scale(1,1) translate(-0.011392973936386407,-0.015070408950617292)"><path d="M 0.009711396016759626 0.01804373629916532 C 0.0098421140223759 0.017799621980307174 0.011311847856525154 0.014630360167833298 0.011280012084154927 0.01511436447286759 C 0.011311847856525154 0.014630360167833298 0.009994543051956316 0.011995794652577652 0.010093425285202363 0.012235684638753802" fill="none" stroke="#000000" stroke-width="0.001"/>
</g><g transform="translate(0.1057242161935669,0.15221511839570792) rotate(0) scale(1,1) translate(-0.011392973936386407,-0.015070408950617292)"><path d="M 0.010264622206183203 0.018016433450793835 C 0.010348412389074208 0.01776204071882206 0.011260654737803395 0.014512686145894713 0.011270104400875263 0.01496372066713253 C 0.011260654737803395 0.014512686145894713 0.010057986403357902 0.01240737740667399 0.010151226249320777 0.012604019195940033" fill="none" stroke="#000000" stroke-width="0.001"/>
</g><g transform="translate(0.09463375330325632,0.15281513519252646) rotate(0) scale(1,1) translate(-0.011392973936386407,-0.015070408950617292)"><path d="M 0.010268100936080323 0.017911897043721342 C 0.010320878916213734 0.01767760471235579 0.010872332763147157 0.014684576005815575 0.010901436697681254 0.0151003890673347 C 0.010872332763147157 0.014684576005815575 0.009836971807003655 0.012740619575338256 0.009918853721671162 0.012922140305491828" fill="none" stroke="#000000" stroke-width="0.001"/>
</g><g transform="translate(0.08323468247370955,0.15551077124379484) rotate(0) scale(1,1) translate(-0.011392973936386407,-0.015070408950617292)"><path d="M 0.010167613195385825 0.01710104969795965 C 0.010205968212953076 0.016902720879457385 0.010601284628548854 0.014363035637715873 0.010627873406192848 0.014721103875932487 C 0.010601284628548854 0.014363035637715873 0.00978360406844665 0.012644491419645921 0.009848547863657896 0.012804230839360272" fill="none" stroke="#000000" stroke-width="0.001"/>
</g><g transform="translate(0.0735304580429912,0.16011394144566082) rotate(0) scale(1,1) translate(-0.011392973936386407,-0.015070408950617292)"><path d="M 0.010067705718934287 0.01666879180317012 C 0.010089800962956764 0.016527530709746656 0.010328699642431001 0.014774828679264941 0.010332848647204015 0.014973658682088551 C 0.010328699642431001 0.014774828679264941 0.009991673412862626 0.01422526285988666 0.010017917661658117 0.014282831769286805" fill="none" stroke="#000000" stroke-width="0.001"/>
</g><g id="翅脈網1">
<g transform="translate(0.21866876129054758,0.19882644290454357) rotate(0) scale(1,1) translate(-0.0938348457348635,-0.09260578050107193)"><path d="M 0.10168787605510016 0.09967668076140661 C 0.10016261845594028 0.10055728864686508 0.09388386763306705 0.0978155275052005 0.09519270601977316 0.09899401088192294 C 0.09388386763306705 0.0978155275052005 0.09455119672525843 0.09099682983362226 0.0938348457348635 0.09260578050107193 C 0.09455119672525843 0.09099682983362226 0.10124237960878751 0.08952440405524155 0.0994908119621427 0.08934030687722486 C 0.10124237960878751 0.08952440405524155 0.10471042896355863 0.09543309254986905 0.10434425161473239 0.09371036356917209 C 0.10471042896355863 0.09543309254986905 0.10016261845594028 0.10055728864686508 0.10168787605510016 0.09967668076140661 Z" fill="#cccccc" stroke="#000000" stroke-width="0.001"/>
</g><g transform="translate(0.21842102056853635,0.19077848438600417) rotate(0) scale(1,1) translate(-0.09824460648494275,-0.09309549499081626)"><path d="M 0.09583597164732174 0.10710977070159013 C 0.09431071404816187 0.1079903785870486 0.08803196322528861 0.10524861744538405 0.08934080161199473 0.10642710082210649 C 0.08803196322528861 0.10524861744538405 0.08869929231748 0.09842991977380577 0.08798294132708508 0.10003887044125545 C 0.08869929231748 0.09842991977380577 0.09539047520100907 0.09695749399542508 0.09363890755436426 0.09677339681740839 C 0.09539047520100907 0.09695749399542508 0.0988585245557802 0.10286618249005261 0.09849234720695396 0.10114345350935565 C 0.0988585245557802 0.10286618249005261 0.09431071404816187 0.1079903785870486 0.09583597164732174 0.10710977070159013 Z" fill="#cccccc" stroke="#000000" stroke-width="0.001"/>
</g><g transform="translate(0.22432472751782678,0.19556096928069647) rotate(0) scale(1,1) translate(-0.09326563617664493,-0.09911187552274166)"><path d="M 0.09976080621197193 0.09979454540222531 C 0.09823554861281206 0.10067515328768378 0.09195679778993883 0.09793339214601922 0.09326563617664493 0.09911187552274166 C 0.09195679778993883 0.09793339214601922 0.0926241268821302 0.09111469447444095 0.09190777589173528 0.09272364514189065 C 0.0926241268821302 0.09111469447444095 0.09931530976565928 0.08964226869606025 0.09756374211901446 0.08945817151804356 C 0.09931530976565928 0.08964226869606025 0.1027833591204304 0.09555095719068778 0.10241718177160417 0.09382822820999082 C 0.1027833591204304 0.09555095719068778 0.09823554861281206 0.10067515328768378 0.09976080621197193 0.09979454540222531 Z" fill="#cccccc" stroke="#000000" stroke-width="0.001"/>
</g></g>
<g id="翅脈網2">
<g transform="translate(0.1484087144507238,0.18835696598793647) rotate(0) scale(1,1) translate(-0.09710031935871058,-0.09710031935871058)"><path d="M 0.10148556539034004 0.09466953779053103 C 0.10225616894037581 0.09605974339517726 0.09968321105070457 0.10168226804372105 0.10076724555710669 0.10051978335846837 C 0.09968321105070457 0.10168226804372105 0.09354078463195734 0.10097269534428827 0.09498135835192734 0.10164444590204712 C 0.09354078463195734 0.10097269534428827 0.09231751422144752 0.09491163065000595 0.09212380323728672 0.0964892800119153 C 0.09231751422144752 0.09491163065000595 0.09770391794906762 0.09187525936036031 0.09614362425689206 0.09217854973059103 C 0.09770391794906762 0.09187525936036031 0.10225616894037581 0.09605974339517726 0.10148556539034004 0.09466953779053103 Z" fill="#cccccc" stroke="#000000" stroke-width="0.001"/>
</g><g transform="translate(0.14628975344394052,0.192901092531273) rotate(0) scale(1,1) translate(-0.0938348457348635,-0.09260578050107193)"><path d="M 0.09845846703507813 0.10094701412894927 C 0.09689817334290257 0.10125030449917999 0.09234592235159438 0.09706582046436299 0.09311652590163015 0.09845602606900922 C 0.09234592235159438 0.09706582046436299 0.09491888024126562 0.09144329581581925 0.0938348457348635 0.09260578050107193 C 0.09491888024126562 0.09144329581581925 0.10106130666001284 0.092152868515252 0.09962073294004284 0.09148111795749317 C 0.10106130666001284 0.092152868515252 0.1022845770705227 0.09821393320953427 0.10247828805468348 0.09663628384762492 C 0.1022845770705227 0.09821393320953427 0.09689817334290257 0.10125030449917999 0.09845846703507813 0.10094701412894927 Z" fill="#cccccc" stroke="#000000" stroke-width="0.001"/>
</g><g transform="translate(0.14343219832929988,0.18774592664114118) rotate(0) scale(1,1) translate(-0.10036579298255764,-0.09260578050107193)"><path d="M 0.0992035270775929 0.10207167667252799 C 0.09764323338541736 0.10237496704275871 0.09309098239410918 0.09819048300794173 0.09386158594414494 0.09958068861258795 C 0.09309098239410918 0.09819048300794173 0.09566394028378042 0.092567958359398 0.0945799057773783 0.09373044304465067 C 0.09566394028378042 0.092567958359398 0.10180636670252763 0.09327753105883077 0.10036579298255764 0.09260578050107193 C 0.10180636670252763 0.09327753105883077 0.10302963711303745 0.09933859575311302 0.10322334809719824 0.09776094639120367 C 0.10302963711303745 0.09933859575311302 0.09764323338541736 0.10237496704275871 0.0992035270775929 0.10207167667252799 Z" fill="#cccccc" stroke="#000000" stroke-width="0.001"/>
</g></g>
</g>
</svg>
