<?xml version="1.0" encoding="UTF-8"?>
<svg xmlns="http://www.w3.org/2000/svg" viewBox="0 0 1 1">
<g transform="translate(0.32578435655698074,0.16513021119802657) rotate(0) scale(1,1) translate(-0.015414935846359123,-0.01003602194522539)"><path d="M 0.008751218693194174 0.00501746514993228 C 0.009160177724400653 0.004925987490819872 0.014566009047866278 0.0039539290575541786 0.013658727067671924 0.003919733240583392 C 0.014566009047866278 0.0039539290575541786 0.020539090121082446 0.005859828807101595 0.019638602455526413 0.00542781495358172 C 0.020539090121082446 0.005859828807101595 0.02486674377091247 0.009410239860258575 0.02446457905434431 0.009103899482821894" fill="none" stroke="none" stroke-width="0"/>
<path d="M 0.02446457905434431 0.009103899482821894 C 0.02466629344949165 0.009642717701497805 0.027002393178148468 0.016762746174144912 0.02688515179611242 0.015569718106932818 C 0.027002393178148468 0.016762746174144912 0.025501671240981898 0.024529834249335955 0.025871475638776904 0.023420236289367034 C 0.025501671240981898 0.024529834249335955 0.022162167637888613 0.029340281737992597 0.02244749902257233 0.02888489362655986" fill="none" stroke="#000000" stroke-width="0.001"/>
<path d="M 0.02244749902257233 0.02888489362655986 C 0.022011129402397734 0.029121937672873282 0.01624282970566593 0.03198482851713732 0.017211063580477196 0.031729422182320895 C 0.01624282970566593 0.03198482851713732 0.009847062062880373 0.03175863325999243 0.010828692524837136 0.03194976964435693 C 0.009847062062880373 0.03175863325999243 0.004981731829675939 0.02922628689707937 0.005431498036996031 0.029435785569946873" fill="none" stroke="#000000" stroke-width="0.001"/>
<path d="M 0.005431498036996031 0.029435785569946873 C 0.005165056599511113 0.029069604863989858 0.0018719914939451371 0.02417118231563671 0.002234200787177012 0.02504161709846269 C 0.0018719914939451371 0.02417118231563671 0.0010611781394351879 0.017997920759029416 0.0010849865182135337 0.018990568176035096 C 0.0010611781394351879 0.017997920759029416 0.0020204597188054714 0.01264145475425784 0.0019485002418368608 0.013129848094394552" fill="none" stroke="#000000" stroke-width="0.001"/>
<path d="M 0.0019485002418368608 0.013129848094394552 C 0.002084383040132347 0.012850702192203347 0.003914339815453076 0.00926375595425258 0.003579093821382694 0.009780097268100092 C 0.003914339815453076 0.00926375595425258 0.00640246257666574 0.00653686631837708 0.005971452170681449 0.006933752328224397 C 0.00640246257666574 0.00653686631837708 0.008982865903403567 0.00485777455174127 0.008751218693194174 0.00501746514993228" fill="none" stroke="#000000" stroke-width="0.001"/>
</g><g transform="translate(0.3226177819985803,0.17214469254429915) rotate(0) scale(1,1) translate(-0.20147139163104244,-0.20156258221531054)"><path d="M 0.20378975856111736 0.1987313783287125 C 0.2040802985715407 0.19893824620889894 0.20523245187668682 0.20086238964210343 0.20512147546779685 0.2005276703807811 C 0.20523245187668682 0.20086238964210343 0.2050104990589069 0.20308272872590288 0.20512147546779685 0.20274800946458055 C 0.2050104990589069 0.20308272872590288 0.20349921855069403 0.20475116939683563 0.20378975856111736 0.20454430151664918 C 0.20349921855069403 0.20475116939683563 0.2012758681396503 0.2052304240268181 0.201634995342717 0.2052304240268181 C 0.2012758681396503 0.2052304240268181 0.1991896921138934 0.20433743363646273 0.1994802321243167 0.20454430151664918 C 0.1991896921138934 0.20433743363646273 0.19803753880874733 0.2024132902032582 0.1981485152176373 0.20274800946458055 C 0.19803753880874733 0.2024132902032582 0.19825949162652726 0.20019295111945876 0.1981485152176373 0.2005276703807811 C 0.19825949162652726 0.20019295111945876 0.19977077213474 0.19852451044852604 0.1994802321243167 0.1987313783287125 C 0.19977077213474 0.19852451044852604 0.20199412254578372 0.19804525581854351 0.201634995342717 0.19804525581854351 C 0.20199412254578372 0.19804525581854351 0.2040802985715407 0.19893824620889894 0.20378975856111736 0.1987313783287125 Z" fill="#cccccc" stroke="none" stroke-width="0"/>
</g><g transform="translate(0.3229984434715568,0.1719960921266016) rotate(0) scale(1,1) translate(-0.20213018072626524,-0.20166583800628593)"><path d="M 0.2029883093576479 0.20225365132901596 C 0.20293037315016088 0.20238720573776883 0.20225993010340104 0.20301049583776445 0.2023841497337411 0.20293778270033405 C 0.20225993010340104 0.20301049583776445 0.20135461841709398 0.20311030689721887 0.20149767379356714 0.2031262089781807 C 0.20135461841709398 0.20311030689721887 0.2005602363849964 0.2026485144838734 0.2006674852160633 0.20274695772879192 C 0.2005602363849964 0.2026485144838734 0.20018021094331725 0.20180150760387933 0.20021068782076407 0.20194489003915847 C 0.20018021094331725 0.20180150760387933 0.2003596988941885 0.2008928140966893 0.2003017626867015 0.20102636850544217 C 0.2003596988941885 0.2008928140966893 0.20103014194094831 0.20026952399669362 0.20090592231060825 0.20034223713412402 C 0.20103014194094831 0.20026952399669362 0.2019354536272554 0.20016971293723934 0.20179239825078224 0.20015381085627748 C 0.2019354536272554 0.20016971293723934 0.2027298356593531 0.20063150535058472 0.20262258682828618 0.2005330621056662 C 0.2027298356593531 0.20063150535058472 0.20310986110103213 0.2014785122305788 0.20307938422358532 0.20133512979529966 C 0.20310986110103213 0.2014785122305788 0.20293037315016088 0.20238720573776883 0.2029883093576479 0.20225365132901596 Z" fill="#cccccc" stroke="#000000" stroke-width="0.001"/>
</g><g id="淫タトゥ">
<g transform="translate(0.32002633864385654,0.16546705817191845) rotate(0) scale(1,1) translate(-0.016032243425911998,-0.016032243425912)"><path d="M 0.0171995566402168 0.008409091306799257 C 0.01754869376601395 0.008507274552123805 0.02208877561778285 0.009850753642370992 0.02138920214978259 0.009587290250693842 C 0.02208877561778285 0.009850753642370992 0.026181331028883585 0.011987778136617782 0.025594438256219924 0.011570652006925048 C 0.026181331028883585 0.011987778136617782 0.028845792271505855 0.015146888682388709 0.02843191542174651 0.014592803807006659 C 0.028845792271505855 0.015146888682388709 0.030738380872630824 0.01852190940355156 0.03056096045333203 0.018219670511509644" fill="none" stroke="none" stroke-width="0"/>
<path d="M 0.03056096045333203 0.018219670511509644 C 0.030263602214278047 0.017916153055516748 0.02642013921609381 0.014070458336321872 0.02699266158468422 0.01457746103959491 C 0.02642013921609381 0.014070458336321872 0.023169117637693006 0.011776777941270918 0.02369069203024716 0.012135638072233194 C 0.023169117637693006 0.011776777941270918 0.020192840924865157 0.00996059390426143 0.020733768874034355 0.01027113946804759 C 0.020192840924865157 0.00996059390426143 0.016905038954065338 0.008253920626695228 0.0171995566402168 0.008409091306799257" fill="none" stroke="none" stroke-width="0"/>
</g><g transform="translate(0.32002633864385654,0.16546705817191845) rotate(0) scale(1,1) translate(-0.016032243425911998,-0.016032243425912)"><path d="M 0.010866262170774736 0.014184788032245469 C 0.010998140239806392 0.014043364384313289 0.012760409554055609 0.01222288999436355 0.012448798999154596 0.012487704257059319 C 0.012760409554055609 0.01222288999436355 0.014785321315456254 0.010883626265132666 0.014605588829586895 0.011007016879896254" fill="none" stroke="#000000" stroke-width="0.001"/>
<path d="M 0.014605588829586895 0.011007016879896254 C 0.014698137402490217 0.010993015504653907 0.015961629332155877 0.010827406551454146 0.015716171704426747 0.010839000376988095 C 0.015961629332155877 0.010827406551454146 0.017918353670941342 0.010921871592567231 0.017551080362336477 0.010867890973488855 C 0.017918353670941342 0.010921871592567231 0.020337815661464195 0.01153834087529857 0.02012345140768514 0.011486767805928593" fill="none" stroke="none" stroke-width="0"/>
<path d="M 0.02012345140768514 0.011486767805928593 C 0.019851135563099843 0.011515581062182305 0.016347962482059337 0.011925645797160054 0.01685566127266159 0.01183252688097313 C 0.016347962482059337 0.011925645797160054 0.013531949328634217 0.0128002165627777 0.014031065920458122 0.012604194800171673 C 0.013531949328634217 0.0128002165627777 0.010602528524967788 0.014316504134918289 0.010866262170774736 0.014184788032245472" fill="none" stroke="none" stroke-width="0"/>
</g><g transform="translate(0.32002633864385654,0.16546705817191845) rotate(0) scale(1,1) translate(-0.016032243425911998,-0.016032243425912)"><path d="M 0.011084074203922246 0.034228441059832276 C 0.010977774534658962 0.034099635003189244 0.009617226291675074 0.03242326538106561 0.00980847817276284 0.03268276838011586 C 0.009617226291675074 0.03242326538106561 0.008660320144544017 0.030869744753125546 0.008789051630869073 0.03111440507122921 C 0.008660320144544017 0.030869744753125546 0.008219921062361591 0.02963288118717543 0.008263700336862167 0.029746844562871876" fill="none" stroke="#000000" stroke-width="0.001"/>
<path d="M 0.008263700336862167 0.029746844562871876 C 0.008562614018683452 0.02996226981111519 0.012600477415284616 0.03254221033272131 0.011850664518717587 0.03233194754179164 C 0.012600477415284616 0.03254221033272131 0.018202777720628692 0.03200388170861535 0.017261455095666525 0.032269998054027894 C 0.018202777720628692 0.03200388170861535 0.023953999540198334 0.028832222151261223 0.02314653601826357 0.029138551396841142 C 0.023953999540198334 0.028832222151261223 0.02726805747060203 0.028548671749587837 0.026951017358883687 0.02859404710706886" fill="none" stroke="none" stroke-width="0"/>
<path d="M 0.026951017358883687 0.02859404710706886 C 0.026682490847138456 0.028709901354074762 0.02301612533651256 0.030445602815286858 0.023728699217940914 0.029984298071139653 C 0.02301612533651256 0.030445602815286858 0.017628514812859614 0.03455676493559637 0.018400130781743428 0.03412970403683531 C 0.017628514812859614 0.03455676493559637 0.013859636209850068 0.035117256941522124 0.014469307591335166 0.03510902885627237 C 0.013859636209850068 0.035117256941522124 0.010801971421637836 0.03415505874346227 0.011084074203922246 0.03422844105983228" fill="none" stroke="none" stroke-width="0"/>
</g><g transform="translate(0.32002633864385654,0.16546705817191845) rotate(0) scale(1,1) translate(-0.016032243425911998,-0.016032243425912)"><path d="M 0.024539291591763168 0.037053743154813 C 0.024472902880940284 0.037078094193269934 0.023575308603091875 0.03739286529429378 0.023742627061888566 0.0373459556162962 C 0.023575308603091875 0.03739286529429378 0.02232663838298342 0.03765277316125931 0.02253147008620288 0.037616659290783915 C 0.02232663838298342 0.03765277316125931 0.021180744668009403 0.037792877292935706 0.021284646623255056 0.03777932206200095" fill="none" stroke="#000000" stroke-width="0.001"/>
<path d="M 0.021284646623255056 0.03777932206200095 C 0.021516675062272603 0.03745933867688046 0.024586058016289263 0.033349419434893494 0.024068987891465606 0.033939521440555086 C 0.024586058016289263 0.033349419434893494 0.027774529806945048 0.030427979373520788 0.02748948812113894 0.03069809799406189" fill="none" stroke="none" stroke-width="0"/>
<path d="M 0.02748948812113894 0.03069809799406189 C 0.02729529518737468 0.031017976134851116 0.02491332320518652 0.03506627278026185 0.025159172915967837 0.034536635683532595 C 0.02491332320518652 0.03506627278026185 0.02448763481474612 0.03726350211075303 0.024539291591763174 0.037053743154812996" fill="none" stroke="none" stroke-width="0"/>
</g></g>
<g id="虫性">
<g transform="translate(0.3226177819985803,0.17214469254429915) rotate(0) scale(1,1) translate(-0.016635516905246322,-0.016635516905246325)"><path d="M 0.011639825018264783 0.010602391679874696 C 0.011759709467596868 0.010497171483527521 0.013331615134435728 0.009269771865051747 0.013078438410249799 0.009339749323708608 C 0.013331615134435728 0.009269771865051747 0.014811237983349778 0.009797904913682669 0.014677945708495933 0.009762662175992356" fill="none" stroke="#000000" stroke-width="0.001"/>
<path d="M 0.014677945708495933 0.009762662175992356 C 0.015041127362977717 0.010065647819865655 0.019846490978195457 0.013770942814137481 0.019036125562277337 0.013398489902471935 C 0.019846490978195457 0.013770942814137481 0.024849514460949695 0.014301564383771156 0.02440233069951336 0.014232097115978908" fill="none" stroke="#000000" stroke-width="0.001"/>
<path d="M 0.02440233069951336 0.014232097115978908 C 0.024533597993586738 0.014339705084448899 0.026201458279037974 0.015863646224567433 0.02597753822839389 0.015523392737618807 C 0.026201458279037974 0.015863646224567433 0.02688080853785658 0.01872158879631562 0.02708937130724239 0.018315138959362418 C 0.02688080853785658 0.01872158879631562 0.023003643371360225 0.020785175168008912 0.02347478499576418 0.020400790781057235 C 0.023003643371360225 0.020785175168008912 0.021265745715947443 0.02313833167125965 0.021435671814394885 0.022927751602782542" fill="none" stroke="#000000" stroke-width="0.001"/>
<path d="M 0.021435671814394885 0.022927751602782542 C 0.021042307614006134 0.023043951343307972 0.01598650880233658 0.024406732069998136 0.016715301409729884 0.02432214848908771 C 0.01598650880233658 0.024406732069998136 0.012354732118670662 0.023911138414092675 0.012690160525675218 0.02394275457370768" fill="none" stroke="#000000" stroke-width="0.001"/>
<path d="M 0.012690160525675218 0.02394275457370768 C 0.012515876046577239 0.0238292426014048 0.010303255045635106 0.02228662088608706 0.010598746776499475 0.02258061090607315 C 0.010303255045635106 0.02228662088608706 0.009023052503536397 0.020234396286191374 0.009144259755302787 0.020414874333874587" fill="none" stroke="#000000" stroke-width="0.001"/>
<path d="M 0.009144259755302787 0.020414874333874587 C 0.009127061640703177 0.020003782450334105 0.00914584615202095 0.014664064843555475 0.00893788238010745 0.015481771731388799 C 0.00914584615202095 0.014664064843555475 0.011864986904777894 0.010195776675581854 0.011639825018264783 0.010602391679874696" fill="none" stroke="#000000" stroke-width="0.001"/>
</g></g>
<g transform="translate(0.32002633864385654,0.16546705817191845) rotate(0) scale(1,1) translate(-0.05065453058920214,-0.05065453058920213)"><path d="M 0.06465406971162588 0.05272228249352028 C 0.06438035723012532 0.05256706591521896 0.06106042698366418 0.050685615600945734 0.06136951993361915 0.05085968355390439 C 0.06106042698366418 0.050685615600945734 0.060909573843711824 0.050614615683359065 0.06094495431216623 0.0506334670580164" fill="none" stroke="none" stroke-width="0"/>
<path d="M 0.06094495431216623 0.0506334670580164 C 0.06092368927485341 0.05065776309390606 0.060523864361329595 0.05115434619739281 0.06068977386441236 0.05092501948869229 C 0.060523864361329595 0.05115434619739281 0.058809395809403114 0.05359041823523344 0.05895404027517306 0.05338538756242258" fill="none" stroke="none" stroke-width="0"/>
<path d="M 0.05895404027517306 0.05338538756242258 C 0.059045107760699884 0.0531428717006777 0.06014926096132669 0.050201443622195016 0.06004685010149502 0.050475197221484004 C 0.06014926096132669 0.050201443622195016 0.060194313967457926 0.05006910663341063 0.060182970593153085 0.05010034437095474" fill="none" stroke="none" stroke-width="0"/>
<path d="M 0.060182970593153085 0.05010034437095474 C 0.06015250343252467 0.0500731253846879 0.0595610404448636 0.049596346441305283 0.05981736466561215 0.04977371653575276 C 0.0595610404448636 0.049596346441305283 0.056881222884050356 0.0478217521294044 0.0571070799441705 0.047971903237585045" fill="none" stroke="none" stroke-width="0"/>
<path d="M 0.0571070799441705 0.047971903237585045 C 0.05735946886655103 0.04807686924307438 0.060423516403571784 0.04935531268360378 0.06013574701273685 0.049231495303457114 C 0.060423516403571784 0.04935531268360378 0.060595693102644156 0.04947656317400243 0.06056031263418975 0.0494577117993451" fill="none" stroke="none" stroke-width="0"/>
<path d="M 0.06056031263418975 0.0494577117993451 C 0.06058157767150257 0.04943341576345544 0.06098722296723171 0.04899242909367426 0.06081549308194364 0.04916615936866922 C 0.06098722296723171 0.04899242909367426 0.0627715361056219 0.04722351426030024 0.06262107125764665 0.04737294849940555" fill="none" stroke="none" stroke-width="0"/>
<path d="M 0.06262107125764665 0.04737294849940555 C 0.06252418338991451 0.04755986792744488 0.061350185602824 0.04983413880146093 0.06145841684486098 0.0496159816358775 C 0.061350185602824 0.04983413880146093 0.061310952978898055 0.05002207222395086 0.061322296353202896 0.04999083448640675" fill="none" stroke="none" stroke-width="0"/>
<path d="M 0.061322296353202896 0.04999083448640675 C 0.06135276351383131 0.05001805347267359 0.06196555006061241 0.05054508298886822 0.06168790228074383 0.05031746232160876 C 0.06196555006061241 0.05054508298886822 0.06490125033086605 0.05292268417451291 0.06465406971162588 0.05272228249352028" fill="none" stroke="none" stroke-width="0"/>
</g><g transform="translate(0.32002633864385654,0.16546705817191845) rotate(0) scale(1,1) translate(-0.010565988892664996,-0.010565988892664996)"><path d="M 0.010995385230121613 0.023437208451906243 C 0.010789050829490748 0.023591842047181635 0.008148958427465892 0.02560418657045356 0.00851937242255123 0.025292811595210955 C 0.008148958427465892 0.02560418657045356 0.0063863376946430754 0.027330449534784716 0.006550417289097549 0.027173708154817504" fill="none" stroke="none" stroke-width="0"/>
<path d="M 0.006550417289097549 0.027173708154817504 C 0.0064696028220129565 0.027208540108907508 0.00543483790246964 0.027643297435338905 0.0055806436840824345 0.02759169160389755 C 0.00543483790246964 0.027643297435338905 0.004735756595215813 0.02780975200946508 0.004800747909744015 0.027792978132113733" fill="none" stroke="none" stroke-width="0"/>
<path d="M 0.004800747909744015 0.027792978132113733 C 0.004837739064581384 0.027732775861123445 0.005334447230023578 0.026932088261511025 0.005244641767792455 0.027070550880230262 C 0.005334447230023578 0.026932088261511025 0.005931227763911243 0.026053166359753927 0.00587841345651749 0.026131426707482877" fill="none" stroke="none" stroke-width="0"/>
<path d="M 0.00587841345651749 0.026131426707482877 C 0.0060704932106628055 0.02601811372115461 0.008609784820728284 0.02454715268357896 0.008183370506261275 0.02477167087154368 C 0.008609784820728284 0.02454715268357896 0.011229719790443307 0.02332600325026979 0.010995385230121613 0.023437208451906243" fill="none" stroke="none" stroke-width="0"/>
</g><g transform="translate(0.32002633864385654,0.16546705817191845) rotate(0) scale(1,1) translate(-0.010565988892664996,-0.010565988892664996)"><path d="M 0.013202105902501473 0.0262411890988724 C 0.01302432526175273 0.026390016924375273 0.01075452842577281 0.02832455986044851 0.011068738213516569 0.02802712300490684 C 0.01075452842577281 0.02832455986044851 0.009295159302581348 0.02995904039541123 0.009431588449576365 0.029810431365372432" fill="none" stroke="none" stroke-width="0"/>
<path d="M 0.009431588449576365 0.029810431365372432 C 0.009358190623285207 0.029845667862366573 0.008416744787364755 0.03028677478244017 0.008550814534082473 0.030233269329302113 C 0.008416744787364755 0.03028677478244017 0.007762079568537198 0.030470765759173034 0.007822751488963758 0.030452496803029118" fill="none" stroke="none" stroke-width="0"/>
<path d="M 0.007822751488963758 0.030452496803029118 C 0.007849869001995588 0.030396716119340594 0.008215122577273982 0.029654599690539536 0.008148161645345727 0.02978312859876682 C 0.008215122577273982 0.029654599690539536 0.008666126090999236 0.02883740167976296 0.008626282672102812 0.02891014990430172" fill="none" stroke="none" stroke-width="0"/>
<path d="M 0.008626282672102812 0.02891014990430172 C 0.008796266226492565 0.028799052601807536 0.011047403927313064 0.02735456887391906 0.010666085324779842 0.027576982274371505 C 0.011047403927313064 0.02735456887391906 0.013413440950644943 0.02612987300091414 0.013202105902501473 0.0262411890988724" fill="none" stroke="none" stroke-width="0"/>
</g><g transform="translate(0.32002633864385654,0.16546705817191845) rotate(0) scale(1,1) translate(-0.0160736429962041,-0.016073642996204097)"><path d="M 0.016900753063627563 0.014400759616377325 C 0.017130343004388395 0.014452824688590079 0.01787614388643331 0.015784734698151958 0.017864737674480827 0.015549591739567234 C 0.01787614388643331 0.015784734698151958 0.01681944387824901 0.01740555300576597 0.017037627607057362 0.017222475119394003 C 0.01681944387824901 0.01740555300576597 0.015016942988019803 0.017694461303818115 0.015246532928780636 0.017746526376030868 C 0.015016942988019803 0.017694461303818115 0.014271142105974887 0.01636255129425624 0.014282548317927371 0.016597694252840963 C 0.014271142105974887 0.01636255129425624 0.015327842114159183 0.014741732986642223 0.015109658385350834 0.014924810873014192 C 0.015327842114159183 0.014741732986642223 0.017130343004388395 0.014452824688590079 0.016900753063627563 0.014400759616377325 Z" fill="#cccccc" stroke="none" stroke-width="0"/>
</g><g transform="translate(0.3221155272569152,0.17021163468373537) rotate(0) scale(1,1) translate(-0.016496945118252473,-0.01521748719238703)"><path d="M 0.016710691313129737 0.014785171747327503 C 0.016888686884043033 0.014825536548252319 0.017466888408671284 0.01585813441282541 0.01745804544629361 0.01567583372046568 C 0.017466888408671284 0.01585813441282541 0.016647654253126195 0.017114715947079168 0.01681680686166182 0.016972780055644253 C 0.016647654253126195 0.017114715947079168 0.015250218572952855 0.01733869961675985 0.015428214143866149 0.017379064417684664 C 0.015250218572952855 0.01733869961675985 0.014672017048324604 0.01630610175218676 0.014680860010702276 0.01648840244454649 C 0.014672017048324604 0.01630610175218676 0.015491251203869691 0.015049520217932991 0.01532209859533407 0.015191456109367906 C 0.015491251203869691 0.015049520217932991 0.016888686884043033 0.014825536548252319 0.016710691313129737 0.014785171747327503 Z" fill="#cccccc" stroke="none" stroke-width="0"/>
</g></svg>
