<?xml version="1.0" encoding="UTF-8"?>
<svg xmlns="http://www.w3.org/2000/svg" viewBox="0 0 1 1">
<g transform="translate(0.32578435655698074,0.16513021119802657) rotate(0) scale(1,1) translate(-0.012530390145065616,-0.012852173682361745)"><path d="M 0.004049855715975019 0.006723138974553375 C 0.004542940543207198 0.006691544647732594 0.010971264169132881 0.006515733061761726 0.009966873642761168 0.006344007052704007 C 0.010971264169132881 0.006515733061761726 0.016947493916668544 0.009348214308252674 0.016102542032435566 0.008783851083246003 C 0.016947493916668544 0.009348214308252674 0.020439942438650376 0.013477408641912235 0.020106296253556928 0.013116365752784064" fill="none" stroke="#000000" stroke-width="0.001"/>
<path d="M 0.020106296253556928 0.013116365752784064 C 0.020232438706550022 0.01351156985380538 0.02171151071760188 0.018771372745937258 0.021620005689474045 0.017858814965039847 C 0.02171151071760188 0.018771372745937258 0.020954908348900778 0.025056273840262492 0.021204356591090955 0.02406705912355301 C 0.020954908348900778 0.025056273840262492 0.01841181596586701 0.030201252602387003 0.01862662678319193 0.02972939156555362" fill="none" stroke="none" stroke-width="0"/>
<path d="M 0.01862662678319193 0.02972939156555362 C 0.01818526867342331 0.029989813045621913 0.012352837074790547 0.033164808555510225 0.013330329465968512 0.03285444932637314 C 0.012352837074790547 0.033164808555510225 0.005913929938342229 0.03337708656265421 0.006896718089056359 0.03345370231519865 C 0.005913929938342229 0.03337708656265421 0.0010902177880941569 0.03180850679422666 0.0015368716573989417 0.03193506029583989" fill="none" stroke="none" stroke-width="0"/>
<path d="M 0.0015368716573989417 0.03193506029583989 C 0.0011645099368301204 0.03157293580850565 -0.0034975917621764625 0.0267389057640335 -0.002931468989426915 0.027589566447829013 C -0.0034975917621764625 0.0267389057640335 -0.005428224897554234 0.020793348788193007 -0.005256601615595628 0.02172713209029374 C -0.005428224897554234 0.020793348788193007 -0.004968810602708064 0.015938919716980745 -0.004990948372930184 0.016384166822620207" fill="none" stroke="#000000" stroke-width="0.001"/>
<path d="M -0.004990948372930184 0.016384166822620207 C -0.004855690393673744 0.01606148107402526 -0.0029716150525837034 0.011904959803167876 -0.003367852621852904 0.012511937839480845 C -0.0029716150525837034 0.011904959803167876 0.0003820448197858831 0.008618030481453945 -0.0002360975416997771 0.009100430386864568 C 0.0003820448197858831 0.008618030481453945 0.004407018487447918 0.006525031356860775 0.004049855715975019 0.006723138974553375" fill="none" stroke="#000000" stroke-width="0.001"/>
</g><g transform="translate(0.31727723304692484,0.166737747214924) rotate(0) scale(1,1) translate(-0.20147139163104244,-0.20156258221531054)"><path d="M 0.20374385030507625 0.19878744177201146 C 0.20402863704796642 0.19899021325853086 0.205157975436179 0.2008762548415729 0.20504919657994033 0.20054816368443515 C 0.205157975436179 0.2008762548415729 0.20494041772370167 0.20305262681480207 0.20504919657994033 0.20272453565766432 C 0.20494041772370167 0.20305262681480207 0.20345906356218607 0.2046880290566074 0.20374385030507625 0.204485257570088 C 0.20345906356218607 0.2046880290566074 0.2012797398919551 0.20515779349589716 0.20163175566525812 0.20515779349589716 C 0.2012797398919551 0.20515779349589716 0.19923487428254977 0.2042824860835686 0.19951966102543994 0.204485257570088 C 0.19923487428254977 0.2042824860835686 0.19810553589433733 0.20239644450052657 0.198214314750576 0.20272453565766432 C 0.19810553589433733 0.20239644450052657 0.19832309360681466 0.2002200725272974 0.198214314750576 0.20054816368443515 C 0.19832309360681466 0.2002200725272974 0.19980444776833012 0.19858467028549207 0.19951966102543994 0.19878744177201146 C 0.19980444776833012 0.19858467028549207 0.20198377143856114 0.19811490584620228 0.20163175566525812 0.19811490584620228 C 0.20198377143856114 0.19811490584620228 0.20402863704796642 0.19899021325853086 0.20374385030507625 0.19878744177201146 Z" fill="#cccccc" stroke="none" stroke-width="0"/>
</g><g transform="translate(0.31670282058400695,0.16610767592085396) rotate(0) scale(1,1) translate(-0.20209600839938086,-0.20180644575994078)"><path d="M 0.20297097160515268 0.2022434314589433 C 0.20291418264929906 0.2023743412259387 0.20225701570247506 0.2029852889477166 0.20237877553815492 0.20291401567439374 C 0.20225701570247506 0.2029852889477166 0.20136963098025332 0.2030831235505481 0.20150985357699433 0.20309871073881763 C 0.20136963098025332 0.2030831235505481 0.20059097928542496 0.20263047554142735 0.20069610437726285 0.20272696941515936 C 0.20059097928542496 0.20263047554142735 0.20021847910001672 0.20180024107489847 0.20024835247493983 0.20194078425403347 C 0.20021847910001672 0.20180024107489847 0.20039441283403905 0.20090954149854393 0.20033762387818543 0.20104045126553932 C 0.20039441283403905 0.20090954149854393 0.201051579780863 0.20029859377676598 0.20092981994518314 0.20036986705008883 C 0.201051579780863 0.20029859377676598 0.20193896450308482 0.20020075917393454 0.2017987419063438 0.20018517198566502 C 0.20193896450308482 0.20020075917393454 0.20271761619791326 0.20065340718305522 0.20261249110607538 0.2005569133093232 C 0.20271761619791326 0.20065340718305522 0.20309011638332136 0.2014836416495841 0.20306024300839826 0.2013430984704491 C 0.20309011638332136 0.2014836416495841 0.20291418264929906 0.2023743412259387 0.20297097160515268 0.2022434314589433 Z" fill="#cccccc" stroke="#000000" stroke-width="0.001"/>
</g><g id="淫タトゥ">
<g transform="translate(0.3211286714928061,0.1608572336953117) rotate(0) scale(1,1) translate(-0.016032243425911998,-0.016032243425912)"><path d="M 0.016378919263937197 0.013705831482623432 C 0.01659236180683286 0.013723927740838422 0.019488483384969717 0.01407006300177319 0.018940229778685147 0.013922986581203318 C 0.019488483384969717 0.01407006300177319 0.02352173413496598 0.015777578149060435 0.02295796253935203 0.015470748529461887 C 0.02352173413496598 0.015777578149060435 0.026051397350928287 0.018056500371567592 0.025705488926052546 0.017604942016385877 C 0.026051397350928287 0.018056500371567592 0.02722581153051164 0.02116315768958053 0.02710886363786094 0.02088944879164248" fill="none" stroke="none" stroke-width="0"/>
<path d="M 0.02710886363786094 0.02088944879164248 C 0.02690726158149576 0.020625019432217336 0.024251364833550306 0.01726137572767109 0.024689638961478754 0.017716296478540786 C 0.024251364833550306 0.01726137572767109 0.021333478018127384 0.015116058527505803 0.02184957410271957 0.015430399781206099 C 0.021333478018127384 0.015116058527505803 0.018040598043140687 0.013800487409255349 0.01849648594637255 0.013944201434137238 C 0.018040598043140687 0.013800487409255349 0.01620245537373425 0.013685967319997282 0.016378919263937197 0.013705831482623432" fill="none" stroke="none" stroke-width="0"/>
</g><g transform="translate(0.3211286714928061,0.1608572336953117) rotate(0) scale(1,1) translate(-0.016032243425911998,-0.016032243425912)"><path d="M 0.007435948322086411 0.03743021566251727 C 0.007326097870950674 0.03732456060939567 0.005909241959668033 0.03592651204895529 0.006117742908457568 0.03616235502505808 C 0.005909241959668033 0.03592651204895529 0.004757673111375123 0.03431554320984406 0.004933936936611999 0.03460009994928379 C 0.004757673111375123 0.03431554320984406 0.0039249636780319805 0.03259330533532275 0.004002577005615059 0.03274767415178129" fill="none" stroke="#000000" stroke-width="0.001"/>
<path d="M 0.004002577005615059 0.03274767415178129 C 0.004343457560732386 0.03297660945496436 0.008884878346964576 0.03571867115209327 0.008093143667022979 0.035494897789978115 C 0.008884878346964576 0.03571867115209327 0.014444621657613893 0.03516686476338516 0.013503393164914224 0.035432954497163154 C 0.014444621657613893 0.03516686476338516 0.02019526835500158 0.03199552237198683 0.01938788557941901 0.03230182098464218 C 0.02019526835500158 0.03199552237198683 0.023508994879612236 0.03171200032535362 0.023191986471905065 0.0317573711452989" fill="none" stroke="none" stroke-width="0"/>
<path d="M 0.023191986471905065 0.0317573711452989 C 0.02292348681281101 0.031873213806880095 0.019257487938736172 0.03360874169794602 0.019969990562776384 0.03314748308427324 C 0.019257487938736172 0.03360874169794602 0.013870416176135594 0.03771949270204346 0.014641954983422517 0.03729247450937228 C 0.013870416176135594 0.03771949270204346 0.010111024320221955 0.03828317982575615 0.010711524875333297 0.0382717013963274 C 0.010111024320221955 0.03828317982575615 0.007162983609315837 0.037360091851366434 0.007435948322086411 0.03743021566251728" fill="none" stroke="none" stroke-width="0"/>
</g><g transform="translate(0.3211286714928061,0.1608572336953117) rotate(0) scale(1,1) translate(-0.016032243425911998,-0.016032243425912)"><path d="M 0.022997205326335424 0.03964019856578547 C 0.022926866005528714 0.03967475966310107 0.02200479417866302 0.04011726726789134 0.022153133476654905 0.0400549317335727 C 0.02200479417866302 0.04011726726789134 0.021047682003183237 0.0404374960494 0.021217133750432795 0.04038822497760915 C 0.021047682003183237 0.0404374960494 0.02002826073959581 0.040667681229850726 0.020119712509660194 0.04064618459506291" fill="none" stroke="none" stroke-width="0"/>
<path d="M 0.020119712509660194 0.04064618459506291 C 0.020192348838158448 0.04040667126777965 0.02122833241775552 0.037197795503284316 0.02099134845163925 0.03777202466766376 C 0.02122833241775552 0.037197795503284316 0.02312786774067345 0.033420718785413375 0.022963520103055433 0.03375543462250956" fill="none" stroke="none" stroke-width="0"/>
<path d="M 0.022963520103055433 0.03375543462250956 C 0.022937974020368984 0.034085414387290715 0.022659774212758034 0.03820558879515639 0.022656967110818035 0.0377151917998834 C 0.022659774212758034 0.03820558879515639 0.02302555851096188 0.0398006157962773 0.02299720532633543 0.03964019856578546" fill="none" stroke="none" stroke-width="0"/>
</g></g>
<g id="虫性">
<g transform="translate(0.31670282058400695,0.16610767592085396) rotate(0) scale(1,1) translate(-0.016635516905246322,-0.016635516905246325)"><path d="M 0.012912299478988361 0.011108788613053255 C 0.01304715559498063 0.011049889217190304 0.014761507238892965 0.01037499256378307 0.014530572870895587 0.010401995862697851 C 0.014761507238892965 0.01037499256378307 0.015779590146961998 0.010816645123024054 0.01568351189495689 0.010784749026075884" fill="none" stroke="#000000" stroke-width="0.001"/>
<path d="M 0.01568351189495689 0.010784749026075884 C 0.015979386380622553 0.011004858846738495 0.019931721970538715 0.01376357781672364 0.019234005722944845 0.013426066874027205 C 0.019931721970538715 0.01376357781672364 0.02445794862801152 0.014952281460466909 0.024056106866083317 0.014834880338433085" fill="none" stroke="#000000" stroke-width="0.001"/>
<path d="M 0.024056106866083317 0.014834880338433085 C 0.024163782431712678 0.014953339364458449 0.025513417709933373 0.016609368008476736 0.025348213653635644 0.01625638865073746 C 0.025513417709933373 0.016609368008476736 0.025800363830549594 0.019419840620682326 0.026038555541656065 0.0190706326313044 C 0.025800363830549594 0.019419840620682326 0.022021076806358095 0.020741844408241197 0.022489913120358 0.020446884523272535 C 0.022021076806358095 0.020741844408241197 0.02023940366143214 0.022790423478233006 0.020412519773657208 0.022610151250928353" fill="none" stroke="#000000" stroke-width="0.001"/>
<path d="M 0.020412519773657208 0.022610151250928353 C 0.020029720490067453 0.022701668431707397 0.015059219698584455 0.023739745985524776 0.015818928370580153 0.02370835742027689 C 0.015059219698584455 0.023739745985524776 0.010919106321302895 0.02292668541837184 0.011296015709708838 0.022986814033902996" fill="none" stroke="#000000" stroke-width="0.001"/>
<path d="M 0.011296015709708838 0.022986814033902996 C 0.011081493232479814 0.022803675958042724 0.008465771389885725 0.02034301838262162 0.008721745982960546 0.02078915712357973 C 0.008465771389885725 0.02034301838262162 0.008182868476965198 0.017370148477307862 0.008224320592810993 0.0176331491424057" fill="none" stroke="#000000" stroke-width="0.001"/>
<path d="M 0.008224320592810993 0.0176331491424057 C 0.008346382113517072 0.017329701503387737 0.010079723748465382 0.013448080763410775 0.009689058841283935 0.013991777474190146 C 0.010079723748465382 0.013448080763410775 0.01318090286546373 0.010868539541291848 0.012912299478988361 0.011108788613053255" fill="none" stroke="#000000" stroke-width="0.001"/>
</g></g>
<g transform="translate(0.3211286714928061,0.1608572336953117) rotate(0) scale(1,1) translate(-0.05065453058920214,-0.05065453058920213)"><path d="M 0.06131629823518088 0.05494969345437528 C 0.06115470199573478 0.05484239671915196 0.05908436709844585 0.053470809728561164 0.05937714336182764 0.05366213263169542 C 0.05908436709844585 0.053470809728561164 0.057671803050663724 0.05256979244885331 0.05780298307459941 0.05265381861676424" fill="none" stroke="none" stroke-width="0"/>
<path d="M 0.05780298307459941 0.05265381861676424 C 0.05777083384032451 0.052690321251671446 0.05730039225199404 0.053199311540198906 0.05741719226330062 0.05309185023565069 C 0.05730039225199404 0.053199311540198906 0.05631673216188874 0.054014312940983814 0.05640138293892042 0.0539433542713428" fill="none" stroke="none" stroke-width="0"/>
<path d="M 0.05640138293892042 0.0539433542713428 C 0.0564296425343257 0.05383491416128666 0.056786801393465265 0.05249385190680783 0.05674049808378373 0.05264207295066912 C 0.056786801393465265 0.05249385190680783 0.05697506636937511 0.052124920811202236 0.05695702265509885 0.05216470174500738" fill="none" stroke="none" stroke-width="0"/>
<path d="M 0.05695702265509885 0.05216470174500738 C 0.056829685674633625 0.052108164277502665 0.055144450209008045 0.05136700107963725 0.05542897888951614 0.051486252134950734 C 0.055144450209008045 0.05136700107963725 0.053385486788958894 0.05067097549343684 0.05354267848900176 0.0507336890812456" fill="none" stroke="none" stroke-width="0"/>
<path d="M 0.05354267848900176 0.0507336890812456 C 0.05372413296369424 0.05075610569632178 0.0560377577348401 0.05106839215844388 0.055720132185311605 0.05100268846215977 C 0.0560377577348401 0.05106839215844388 0.057490356158179656 0.05156542051786283 0.05735418508334365 0.051522133436654904" fill="none" stroke="none" stroke-width="0"/>
<path d="M 0.05735418508334365 0.051522133436654904 C 0.05738755522048067 0.051494177121782496 0.05782812967974925 0.05114607516960712 0.05775462672898782 0.051186657658186 C 0.05782812967974925 0.05114607516960712 0.05827635330610526 0.05102251740000181 0.058236220492480846 0.05103514357370829" fill="none" stroke="none" stroke-width="0"/>
<path d="M 0.058236220492480846 0.05103514357370829 C 0.05824295581815835 0.05107694904836752 0.05831159634575028 0.05161937240037317 0.0583170444006109 0.0515368092696191 C 0.05831159634575028 0.05161937240037317 0.05815866045361536 0.05206665879885195 0.05817084383415348 0.05202590114275712" fill="none" stroke="none" stroke-width="0"/>
<path d="M 0.05817084383415348 0.05202590114275712 C 0.05829685247230473 0.05212317769696485 0.05994506869205407 0.053436869152551345 0.05968294749196845 0.053193219793249834 C 0.05994506869205407 0.053436869152551345 0.06145241079711525 0.05509606625946907 0.06131629823518088 0.05494969345437528" fill="none" stroke="none" stroke-width="0"/>
</g><g transform="translate(0.3211286714928061,0.1608572336953117) rotate(0) scale(1,1) translate(-0.010565988892664996,-0.010565988892664996)"><path d="M 0.00424500346952467 0.024700051061953734 C 0.004185859353591433 0.024951341477309968 0.0034507437626478785 0.0281924927994918 0.003535274078325826 0.027715536046228548 C 0.0034507437626478785 0.0281924927994918 0.0032052534816445913 0.030649198439019754 0.0032306396813893017 0.03042353210111274" fill="none" stroke="none" stroke-width="0"/>
<path d="M 0.0032306396813893017 0.03042353210111274 C 0.0031909828978455195 0.03050226910100674 0.0026795817545690877 0.031522743752036196 0.0027547582788639145 0.03136837609984076 C 0.0026795817545690877 0.031522743752036196 0.0022930016491003328 0.03235157457975948 0.0023285213898513774 0.032275943927458035" fill="none" stroke="none" stroke-width="0"/>
<path d="M 0.0023285213898513774 0.032275943927458035 C 0.0023147338549032895 0.03218513960734587 0.0021396329433708756 0.031001577098295187 0.002163070970474323 0.031186292086112073 C 0.0021396329433708756 0.031001577098295187 0.002037614572454648 0.029965453405950675 0.002047265064610008 0.0300593640736554" fill="none" stroke="none" stroke-width="0"/>
<path d="M 0.002047265064610008 0.0300593640736554 C 0.00212195854005386 0.029848871403559105 0.0031267316370124534 0.02708684261485806 0.0029435867699362317 0.027533452032499864 C 0.0031267316370124534 0.02708684261485806 0.004353454861157039 0.024463934314408225 0.00424500346952467 0.024700051061953734" fill="none" stroke="none" stroke-width="0"/>
</g><g transform="translate(0.3211286714928061,0.1608572336953117) rotate(0) scale(1,1) translate(-0.010565988892664996,-0.010565988892664996)"><path d="M 0.006833020834044056 0.027650503914326108 C 0.006792055001196131 0.027878947910920444 0.006291073223722838 0.030821898252085103 0.006341430839868962 0.03039183187345814 C 0.006291073223722838 0.030821898252085103 0.006219337656992376 0.03301292283988227 0.006228729440290575 0.03281130045784964" fill="none" stroke="none" stroke-width="0"/>
<path d="M 0.006228729440290575 0.03281130045784964 C 0.0061950200702198055 0.03288556632644625 0.005756718392429442 0.03382940945722439 0.005824216999441338 0.03370249088100896 C 0.005756718392429442 0.03382940945722439 0.005384956919206697 0.03438697608005361 0.005418746156147823 0.03433432337243479" fill="none" stroke="none" stroke-width="0"/>
<path d="M 0.005418746156147823 0.03433432337243479 C 0.005402760240296834 0.034274603282781896 0.005194863467363609 0.033476628956316444 0.005226915165935954 0.03361768229660003 C 0.005194863467363609 0.033476628956316444 0.005018059990558323 0.03256035003840106 0.005034125773279679 0.032641683289031755" fill="none" stroke="none" stroke-width="0"/>
<path d="M 0.005034125773279679 0.032641683289031755 C 0.005093292709370003 0.032447128289033206 0.005894036928093928 0.02989109167449037 0.005744129006363564 0.030307023289049176 C 0.005894036928093928 0.02989109167449037 0.006923761819684096 0.027429127299765852 0.006833020834044056 0.027650503914326108" fill="none" stroke="none" stroke-width="0"/>
</g><g transform="translate(0.3211286714928061,0.1608572336953117) rotate(0) scale(1,1) translate(-0.0160736429962041,-0.016073642996204097)"><path d="M 0.017856422247715078 0.015603473857844543 C 0.017976270106720975 0.015787456827663172 0.017521196299059048 0.01709321887314035 0.01768411977599497 0.01694245624593609 C 0.017521196299059048 0.01709321887314035 0.015618569188542177 0.01737940504168127 0.015901340524483998 0.017412625384295638 C 0.015618569188542177 0.01737940504168127 0.014171015885687224 0.016359829164745026 0.014290863744693122 0.016543812134563653 C 0.014171015885687224 0.016359829164745026 0.014626089693349144 0.01505406711926785 0.01446316621641322 0.015204829746472108 C 0.014626089693349144 0.01505406711926785 0.01652871680386602 0.014767880950726923 0.0162459454679242 0.014734660608112553 C 0.01652871680386602 0.014767880950726923 0.017976270106720975 0.015787456827663172 0.017856422247715078 0.015603473857844543 Z" fill="#cccccc" stroke="none" stroke-width="0"/>
</g><g transform="translate(0.3174375970811405,0.1639626067716249) rotate(0) scale(1,1) translate(-0.016496945118252473,-0.01521748719238703)"><path d="M 0.016776859971829507 0.014836551890238822 C 0.016941809796258832 0.014905812854265768 0.017324193480163175 0.016001001847941867 0.0173466866380399 0.015823520627622815 C 0.017324193480163175 0.016001001847941867 0.016319499095002753 0.017074546790359538 0.016506942077308802 0.016966326534067433 C 0.016319499095002753 0.017074546790359538 0.014932421025937979 0.017052902739101126 0.015097370850367303 0.017122163703128072 C 0.014932421025937979 0.017052902739101126 0.014550037342033638 0.015957713745425022 0.014527544184156912 0.016135194965744074 C 0.014550037342033638 0.015957713745425022 0.015554731727194066 0.014884168803007348 0.015367288744888016 0.014992389059299453 C 0.015554731727194066 0.014884168803007348 0.016941809796258832 0.014905812854265768 0.016776859971829507 0.014836551890238822 Z" fill="#cccccc" stroke="none" stroke-width="0"/>
</g></svg>
