<?xml version="1.0" encoding="UTF-8"?>
<svg xmlns="http://www.w3.org/2000/svg" viewBox="0 0 1 1">
<g transform="translate(0.3373434528286707,0.1259206661913191) rotate(0) scale(1,1) translate(-0.09832873292759998,-0.0846133331755345)"><path d="M 0.09120729286634942 0.08093044757130578 C 0.09161295333636102 0.08104094294064262 0.09685646471335219 0.08236688737268476 0.0960752185064887 0.08225639200334792 C 0.09685646471335219 0.08236688737268476 0.10136349355557475 0.08214589663401108 0.10058224734871127 0.08225639200334792 C 0.10136349355557475 0.08214589663401108 0.10585583345886215 0.08081995220196894 0.10545017298885055 0.08093044757130578" fill="none" stroke="none" stroke-width="0"/>
<path d="M 0.10545017298885055 0.08093044757130578 C 0.10571949524955096 0.08077895065255691 0.10931480110488613 0.07864455093294552 0.10868204011725549 0.07911248454631926 C 0.10931480110488613 0.07864455093294552 0.11340674356734848 0.07499880751619598 0.11304330484041825 0.07531524421082085" fill="none" stroke="none" stroke-width="0"/>
<path d="M 0.11304330484041825 0.07531524421082085 C 0.1126554602042861 0.07602845749528259 0.10716295488076431 0.0848456724664471 0.1083891692068325 0.08387380362436164 C 0.10716295488076431 0.0848456724664471 0.09665199354772791 0.08697767031584634 0.0983287329276 0.08697767031584634 C 0.09665199354772791 0.08697767031584634 0.08704208232229932 0.08290193478227618 0.08826829664836751 0.08387380362436164 C 0.08704208232229932 0.08290193478227618 0.08322631637864958 0.07460203092635911 0.08361416101478172 0.07531524421082085" fill="none" stroke="none" stroke-width="0"/>
<path d="M 0.08361416101478172 0.07531524421082085 C 0.08397759974171196 0.07563168090544573 0.08860818672557513 0.07958041815969302 0.0879754257379445 0.07911248454631928 C 0.08860818672557513 0.07958041815969302 0.09147661512704983 0.08108194449005465 0.09120729286634942 0.08093044757130578" fill="none" stroke="none" stroke-width="0"/>
</g><g transform="translate(0.3373434528286707,0.11344159583471114) rotate(0) scale(1,1) translate(-0.09832873292759998,-0.0846133331755345)"><path d="M 0.08357988781459966 0.08541726996447309 C 0.08366128666503198 0.08559875593338123 0.08473053910821081 0.08792094422898998 0.0845566740197874 0.08759510159137088 C 0.08473053910821081 0.08792094422898998 0.08575873511367162 0.08947173828461322 0.08566626887568052 0.08932738161590227" fill="none" stroke="#000000" stroke-width="0.0017000000000000001"/>
<path d="M 0.08566626887568052 0.08932738161590227 C 0.08544226182684272 0.08863031470595013 0.08303070171960968 0.07960146853299774 0.08297818428962693 0.08096257869647663 C 0.08303070171960968 0.07960146853299774 0.08757569042197116 0.0719947816613484 0.08629647803547341 0.07299405965415559 C 0.08757569042197116 0.0719947816613484 0.10033410874295441 0.06897124278279029 0.09832873292759998 0.06897124278279029 C 0.10033410874295441 0.06897124278279029 0.1116402002062243 0.07399333764696278 0.11036098781972654 0.07299405965415559 C 0.1116402002062243 0.07399333764696278 0.11373179899555577 0.08232368885995553 0.11367928156557303 0.08096257869647663 C 0.11373179899555577 0.08232368885995553 0.11076718993068167 0.09002444852585441 0.11099119697951947 0.08932738161590227" fill="none" stroke="none" stroke-width="0"/>
<path d="M 0.11099119697951947 0.08932738161590227 C 0.11108366321751056 0.08918302494719133 0.11227465692383598 0.08726925895375177 0.11210079183541258 0.08759510159137088 C 0.11227465692383598 0.08726925895375177 0.1131589768910326 0.08523578399556495 0.1130775780406003 0.08541726996447309" fill="none" stroke="#000000" stroke-width="0.0017000000000000001"/>
<path d="M 0.1130775780406003 0.08541726996447309 C 0.11263440882846874 0.08486782772405499 0.10653047706893834 0.07805710022538301 0.1077595474950217 0.07882396307945584 C 0.10653047706893834 0.07805710022538301 0.09675693049969639 0.07621491571559909 0.0983287329276 0.07621491571559909 C 0.09675693049969639 0.07621491571559909 0.08766884793409492 0.07959082593352867 0.08889791836017828 0.07882396307945584 C 0.08766884793409492 0.07959082593352867 0.0831367186024681 0.08596671220489119 0.08357988781459966 0.08541726996447309" fill="none" stroke="#000000" stroke-width="0.0017000000000000001"/>
</g><g transform="translate(0.3373434528286707,0.10182232231333223) rotate(0) scale(1,1) translate(-0.004673193949358962,-0.009407905204451655)"><path d="M -0.009669827507903024 0.017319659258971186 C -0.009264988364874337 0.01703047913243534 -0.0036165060034536083 0.013316121062708299 -0.004811757791558774 0.013849497740541075 C -0.0036165060034536083 0.013316121062708299 0.00625401923951192 0.010919139124977866 0.004673193949358964 0.010919139124977866 C 0.00625401923951192 0.010919139124977866 0.015353397478381872 0.014382874418373852 0.014158145690276706 0.013849497740541075 C 0.015353397478381872 0.014382874418373852 0.019421054549649635 0.01760883938550703 0.019016215406620948 0.017319659258971186" fill="none" stroke="none" stroke-width="0"/>
<path d="M 0.019016215406620948 0.017319659258971186 C 0.018627441826177586 0.016824839931343188 0.013155680653195436 0.01063638522347613 0.014350932441300602 0.011381827327435192 C 0.013155680653195436 0.01063638522347613 0.0030602375340353562 0.008374354011462441 0.004673193949358962 0.008374354011462441 C 0.0030602375340353562 0.008374354011462441 -0.006199796330687835 0.012127269431394257 -0.005004544542582669 0.011381827327435194 C -0.006199796330687835 0.012127269431394257 -0.010058601088346386 0.017814478586599184 -0.009669827507903024 0.017319659258971186" fill="none" stroke="#000000" stroke-width="0.001"/>
</g><g transform="translate(0.32431112382478683,0.11757821760023512) rotate(0) scale(1,1) translate(-0.008380251738491874,-0.0057170889593407765)"><path d="M 0.006983942987493364 0.007508231371163522 C 0.007055729924172291 0.007387077346085781 0.00793658088827126 0.005898781415791473 0.007845386227640487 0.0060543830702306295 C 0.00793658088827126 0.005898781415791473 0.008097686639014487 0.005606563888532231 0.008078278915062641 0.005641011517893646" fill="none" stroke="#000000" stroke-width="0.001"/>
<path d="M 0.008078278915062641 0.005641011517893646 C 0.008097299189613829 0.005629607430069149 0.008348975132368843 0.005507194531753336 0.008306522209676896 0.005504162463999683 C 0.008348975132368843 0.005507194531753336 0.008612868666638874 0.005715561871625493 0.008587713987366019 0.005677396330937474 C 0.008612868666638874 0.005715561871625493 0.008610100392083243 0.005985878337365781 0.008608378360951149 0.005962148952255912" fill="none" stroke="#000000" stroke-width="0.001"/>
<path d="M 0.008608378360951149 0.005962148952255912 C 0.008578560034501944 0.005996061500843593 0.00811518882910587 0.006497939736883715 0.008250558443560685 0.0063690995353080804 C 0.00811518882910587 0.006497939736883715 0.0068783916994877535 0.007603159024151476 0.006983942987493364 0.007508231371163522" fill="none" stroke="#000000" stroke-width="0.001"/>
</g><g transform="translate(0.3233834268386099,0.11607107086837028) rotate(0) scale(1,1) translate(-0.008380251738491874,-0.0057170889593407765)"><path d="M 0.005669395662350483 0.007415057393176147 C 0.00582276858022032 0.007289289836877236 0.007705523986369929 0.005743836413984875 0.007509870676788515 0.005905846717589215 C 0.007705523986369929 0.005743836413984875 0.008059515769039034 0.00543469100261864 0.008017235377327455 0.005470933749924069" fill="none" stroke="#000000" stroke-width="0.001"/>
<path d="M 0.008017235377327455 0.005470933749924069 C 0.008047902475064506 0.00546500273563198 0.008439966845857615 0.005424224911373255 0.008385240550172065 0.005399761578418996 C 0.008439966845857615 0.005424224911373255 0.008688858366110006 0.005827123722787915 0.008673950925554062 0.00576449374537517 C 0.008688858366110006 0.005827123722787915 0.008554978079450826 0.00618355693753833 0.008564129836843383 0.006151321307371933" fill="none" stroke="#000000" stroke-width="0.001"/>
<path d="M 0.008564129836843383 0.006151321307371933 C 0.008508328659298311 0.006181840889588832 0.007653287858428117 0.006622867634458407 0.007894515706302525 0.006517556293974723 C 0.007653287858428117 0.006622867634458407 0.005483968992021146 0.007489849151442933 0.005669395662350483 0.007415057393176147" fill="none" stroke="#000000" stroke-width="0.001"/>
</g><g transform="translate(0.3503757818325545,0.11757821760023512) rotate(0) scale(1,1) translate(-0.008380251738491874,-0.0057170889593407765)"><path d="M 0.009776560489490382 0.007508231371163522 C 0.009671009201484773 0.007413303718175569 0.008374575418968244 0.006240259333732446 0.00850994503342306 0.0063690995353080804 C 0.008374575418968244 0.006240259333732446 0.008122306789583375 0.005928236403668231 0.008152125116032582 0.005962148952255912" fill="none" stroke="#000000" stroke-width="0.001"/>
<path d="M 0.008152125116032582 0.005962148952255912 C 0.00815384714716468 0.005938419567146042 0.008197944168890609 0.005639230790249455 0.008172789489617749 0.005677396330937474 C 0.008197944168890609 0.005639230790249455 0.008496434189998847 0.005501130396246031 0.008453981267306898 0.005504162463999683 C 0.008496434189998847 0.005501130396246031 0.008701244836472324 0.005652415605718143 0.008682224561921137 0.005641011517893646" fill="none" stroke="#000000" stroke-width="0.001"/>
<path d="M 0.008682224561921137 0.005641011517893646 C 0.008701632285872979 0.005675459147255061 0.00900631190997401 0.006209984724669786 0.00891511724934324 0.0060543830702306295 C 0.00900631190997401 0.006209984724669786 0.00984834742616931 0.007629385396241264 0.009776560489490382 0.007508231371163522" fill="none" stroke="#000000" stroke-width="0.001"/>
</g><g transform="translate(0.3513034788187315,0.11607107086837028) rotate(0) scale(1,1) translate(-0.008380251738491874,-0.0057170889593407765)"><path d="M 0.011091107814633294 0.007415057393176147 C 0.010905681144303958 0.0073402656349093615 0.00862475992280685 0.006412244953491039 0.00886598777068126 0.006517556293974723 C 0.00862475992280685 0.006412244953491039 0.008140572462595289 0.006120801725155034 0.008196373640140364 0.006151321307371933" fill="none" stroke="#000000" stroke-width="0.001"/>
<path d="M 0.008196373640140364 0.006151321307371933 C 0.008187221882747814 0.006119085677205536 0.008101459991985702 0.005701863767962426 0.00808655255142976 0.00576449374537517 C 0.008101459991985702 0.005701863767962426 0.008429989222497223 0.005375298245464738 0.008375262926811677 0.005399761578418996 C 0.008429989222497223 0.005375298245464738 0.008773935197393362 0.005476864764216158 0.00874326809965631 0.005470933749924069" fill="none" stroke="#000000" stroke-width="0.001"/>
<path d="M 0.00874326809965631 0.005470933749924069 C 0.008785548491367886 0.005507176497229498 0.009446286109776639 0.006067857021193555 0.009250632800195224 0.005905846717589215 C 0.009446286109776639 0.006067857021193555 0.011244480732503134 0.007540824949475058 0.011091107814633294 0.007415057393176147" fill="none" stroke="#000000" stroke-width="0.001"/>
</g><g transform="translate(0.322723168808557,0.11374976126268328) rotate(0) scale(1,1) translate(-0.008380251738491874,-0.0057170889593407765)"><path d="M 0.004255420739700296 0.005525348145550783 C 0.004510789592169798 0.005507749282506112 0.007646777983146438 0.005290205486052018 0.007319846969334317 0.005314161789014739 C 0.007646777983146438 0.005290205486052018 0.008250155066788367 0.0052315150700800814 0.008178592905445748 0.0052378725099981325" fill="none" stroke="#000000" stroke-width="0.001"/>
<path d="M 0.008178592905445748 0.0052378725099981325 C 0.008215422300975252 0.005252758597436429 0.008660312137473486 0.005476637814901918 0.00862054565179979 0.005416505559257692 C 0.008660312137473486 0.005476637814901918 0.008625173776271844 0.006029442752039725 0.0086557907335301 0.005959459577728851 C 0.008625173776271844 0.006029442752039725 0.008219588117298265 0.006281040657093127 0.008253142164700713 0.006256303650988183" fill="none" stroke="#000000" stroke-width="0.001"/>
<path d="M 0.008253142164700713 0.006256303650988183 C 0.008171517632943822 0.00624811194726284 0.006940504331534649 0.006097090247497611 0.007273647783618017 0.0061580032062840614 C 0.006940504331534649 0.006097090247497611 0.0040039018193738195 0.005472626890489676 0.004255420739700296 0.005525348145550783" fill="none" stroke="#000000" stroke-width="0.001"/>
</g><g transform="translate(0.32516302883871895,0.1100087462594813) rotate(0) scale(1,1) translate(-0.008380251738491874,-0.0057170889593407765)"><path d="M 0.004349340097548617 0.00476520430206191 C 0.004603697952138884 0.0047951137574315066 0.0077275034463434936 0.005161004725108779 0.007401634352631819 0.005124117766497073 C 0.0077275034463434936 0.005161004725108779 0.00833128046121012 0.0052148253086444826 0.008259769222088712 0.005207847805402374" fill="none" stroke="#000000" stroke-width="0.001"/>
<path d="M 0.008259769222088712 0.005207847805402374 C 0.008293612652145461 0.0052293208482712674 0.00869525112024129 0.005532099475330824 0.008665890382769695 0.005465524319829095 C 0.00869525112024129 0.005532099475330824 0.00857053894128773 0.006070005780995718 0.008612098071747856 0.006006749671423122 C 0.00857053894128773 0.006070005780995718 0.008130104379373209 0.006242751631639996 0.008167180817248182 0.006224597634700236" fill="none" stroke="#000000" stroke-width="0.001"/>
<path d="M 0.008167180817248182 0.006224597634700236 C 0.00808813159981959 0.006201430573530608 0.006900436814796784 0.005824976789611508 0.007218590208105081 0.005946592900664702 C 0.006900436814796784 0.005824976789611508 0.004110235921668912 0.004666755252178344 0.004349340097548617 0.00476520430206191" fill="none" stroke="#000000" stroke-width="0.001"/>
</g><g transform="translate(0.32887099727561586,0.10681396038418044) rotate(0) scale(1,1) translate(-0.008380251738491874,-0.0057170889593407765)"><path d="M 0.004401627498276641 0.004541766988386412 C 0.004654167404374491 0.004585817072581046 0.007755716729648633 0.005125373103775077 0.007432106371450845 0.005070367998722021 C 0.007755716729648633 0.005125373103775077 0.00835602224875004 0.005212783269881511 0.008284951796650102 0.005201828249023088" fill="none" stroke="#000000" stroke-width="0.001"/>
<path d="M 0.008284951796650102 0.005201828249023088 C 0.008317693940664407 0.0052251587905062236 0.008703907391034991 0.005549915659357584 0.008677857524821761 0.005481794746820719 C 0.008703907391034991 0.005549915659357584 0.008552940437260743 0.006080131506328361 0.008597550191208853 0.006019279199465469 C 0.008552940437260743 0.006080131506328361 0.008104623001297412 0.0062280843649845895 0.008142540477444445 0.006212022429175426" fill="none" stroke="#000000" stroke-width="0.001"/>
<path d="M 0.008142540477444445 0.006212022429175426 C 0.008064737720947032 0.006184479760702363 0.006897164651211507 0.005742322454099583 0.007208907399475491 0.005881510407498667 C 0.006897164651211507 0.005742322454099583 0.004167687506510071 0.00443012170346039 0.004401627498276641 0.004541766988386412" fill="none" stroke="#000000" stroke-width="0.001"/>
</g><g transform="translate(0.35196373684878435,0.11374976126268328) rotate(0) scale(1,1) translate(-0.008380251738491874,-0.0057170889593407765)"><path d="M 0.012505082737283457 0.005525348145550783 C 0.012253563816956978 0.005578069400611889 0.009153712241282344 0.006218916165070512 0.009486855693365714 0.0061580032062840614 C 0.009153712241282344 0.006218916165070512 0.008425736780526133 0.006264495354713526 0.008507361312283024 0.006256303650988183" fill="none" stroke="#000000" stroke-width="0.001"/>
<path d="M 0.008507361312283024 0.006256303650988183 C 0.008473807264880581 0.006231566644883239 0.008074095786195445 0.005889476403417977 0.008104712743453701 0.005959459577728851 C 0.008074095786195445 0.005889476403417977 0.008179724310857645 0.005356373303613465 0.008139957825183952 0.005416505559257692 C 0.008179724310857645 0.005356373303613465 0.008618739967067515 0.005222986422559836 0.00858191057153801 0.0052378725099981325" fill="none" stroke="#000000" stroke-width="0.001"/>
<path d="M 0.00858191057153801 0.0052378725099981325 C 0.008653472732880632 0.0052442299499161835 0.00976758752146159 0.005338118091977461 0.00944065650764947 0.005314161789014739 C 0.00976758752146159 0.005338118091977461 0.012760451589752956 0.005542947008595453 0.012505082737283457 0.005525348145550783" fill="none" stroke="#000000" stroke-width="0.001"/>
</g><g transform="translate(0.3495238768186224,0.1100087462594813) rotate(0) scale(1,1) translate(-0.008380251738491874,-0.0057170889593407765)"><path d="M 0.012411163379435153 0.00476520430206191 C 0.012172059203555444 0.004863653351945475 0.009223759875570356 0.006068209011717896 0.009541913268878655 0.005946592900664702 C 0.009223759875570356 0.006068209011717896 0.008514273442306966 0.006247764695869864 0.008593322659735558 0.006224597634700236" fill="none" stroke="#000000" stroke-width="0.001"/>
<path d="M 0.008593322659735558 0.006224597634700236 C 0.008556246221860584 0.006206443637760476 0.00810684627477575 0.005943493561850527 0.00814840540523587 0.006006749671423122 C 0.00810684627477575 0.005943493561850527 0.008123973831685708 0.005398949164327366 0.00809461309421411 0.005465524319829095 C 0.008123973831685708 0.005398949164327366 0.008534577684951805 0.0051863747625334805 0.00850073425489506 0.005207847805402374" fill="none" stroke="#000000" stroke-width="0.001"/>
<path d="M 0.00850073425489506 0.005207847805402374 C 0.008572245494016464 0.005200870302160265 0.009684738218063585 0.005087230807885368 0.00935886912435191 0.005124117766497073 C 0.009684738218063585 0.005087230807885368 0.012665521234025423 0.004735294846692313 0.012411163379435153 0.00476520430206191" fill="none" stroke="#000000" stroke-width="0.001"/>
</g><g transform="translate(0.34581590838172555,0.10681396038418042) rotate(0) scale(1,1) translate(-0.008380251738491874,-0.0057170889593407765)"><path d="M 0.012358875978707107 0.004541766988386412 C 0.012124935986940541 0.0046534122733124334 0.009239853329244346 0.0060206983608977515 0.009551596077508329 0.005881510407498667 C 0.009239853329244346 0.0060206983608977515 0.008540160243041902 0.00623956509764849 0.00861796299953932 0.006212022429175426" fill="none" stroke="#000000" stroke-width="0.001"/>
<path d="M 0.00861796299953932 0.006212022429175426 C 0.008580045523392282 0.006195960493366263 0.008118343531826768 0.005958426892602577 0.008162953285774877 0.006019279199465469 C 0.008118343531826768 0.005958426892602577 0.008108695818375247 0.005413673834283854 0.008082645952162015 0.005481794746820719 C 0.008108695818375247 0.005413673834283854 0.008508293824347951 0.005178497707539953 0.008475551680333648 0.005201828249023088" fill="none" stroke="#000000" stroke-width="0.001"/>
<path d="M 0.008475551680333648 0.005201828249023088 C 0.008546622132433587 0.0051908732281646655 0.009652007463730692 0.005015362893668965 0.009328397105532904 0.005070367998722021 C 0.009652007463730692 0.005015362893668965 0.012611415884804958 0.004497716904191778 0.012358875978707107 0.004541766988386412" fill="none" stroke="#000000" stroke-width="0.001"/>
</g></svg>
