<?xml version="1.0" encoding="UTF-8"?>
<svg xmlns="http://www.w3.org/2000/svg" viewBox="0 0 1 1">
<g transform="translate(0.3373434528286707,0.1259206661913191) rotate(0) scale(1,1) translate(-0.09832873292759998,-0.0846133331755345)"><path d="M 0.09120729286634942 0.07890399049183647 C 0.09161295333636102 0.07898201972687545 0.09685646471335219 0.07991837054734323 0.0960752185064887 0.07984034131230425 C 0.09685646471335219 0.07991837054734323 0.10136349355557475 0.07976231207726527 0.10058224734871127 0.07984034131230425 C 0.10136349355557475 0.07976231207726527 0.10585583345886215 0.07882596125679749 0.10545017298885055 0.07890399049183647" fill="none" stroke="none" stroke-width="0"/>
<path d="M 0.10545017298885055 0.07890399049183647 C 0.10571949524955096 0.07879763124072028 0.10931480110488613 0.07730578302019392 0.10868204011725549 0.07762767947844232 C 0.10931480110488613 0.07730578302019392 0.11340674356734848 0.07482569578572348 0.11304330484041825 0.0750412329928557" fill="none" stroke="none" stroke-width="0"/>
<path d="M 0.11304330484041825 0.0750412329928557 C 0.1126554602042861 0.07577728054548119 0.10716295488076431 0.08486850673461087 0.1083891692068325 0.08387380362436164 C 0.10716295488076431 0.08486850673461087 0.09665199354772791 0.08697767031584634 0.0983287329276 0.08697767031584634 C 0.09665199354772791 0.08697767031584634 0.08704208232229932 0.08287910051411242 0.08826829664836751 0.08387380362436164 C 0.08704208232229932 0.08287910051411242 0.08322631637864958 0.07430518544023021 0.08361416101478172 0.0750412329928557" fill="none" stroke="none" stroke-width="0"/>
<path d="M 0.08361416101478172 0.0750412329928557 C 0.08397759974171196 0.07525677019998792 0.08860818672557513 0.07794957593669072 0.0879754257379445 0.07762767947844232 C 0.08860818672557513 0.07794957593669072 0.09147661512704983 0.07901034974295265 0.09120729286634942 0.07890399049183647" fill="none" stroke="none" stroke-width="0"/>
</g><g transform="translate(0.3373434528286707,0.11344159583471114) rotate(0) scale(1,1) translate(-0.09832873292759998,-0.0846133331755345)"><path d="M 0.08357988781459966 0.08678326080200437 C 0.08366128666503198 0.0869022681865333 0.08473053910821081 0.08842333941295252 0.0845566740197874 0.08821134941635142 C 0.08473053910821081 0.08842333941295252 0.08575873511367162 0.0894201233732898 0.08566626887568052 0.08932714076121762" fill="none" stroke="#000000" stroke-width="0.0017000000000000001"/>
<path d="M 0.08566626887568052 0.08932714076121762 C 0.08544226182684272 0.08869382432979503 0.08303070171960968 0.08036625349189147 0.08297818428962693 0.08172734358414664 C 0.08303070171960968 0.08036625349189147 0.08757569042197116 0.07193105125404256 0.08629647803547341 0.07299405965415559 C 0.08757569042197116 0.07193105125404256 0.10033410874295441 0.06897124278279029 0.09832873292759998 0.06897124278279029 C 0.10033410874295441 0.06897124278279029 0.1116402002062243 0.07405706805426862 0.11036098781972654 0.07299405965415559 C 0.1116402002062243 0.07405706805426862 0.11373179899555577 0.08308843367640181 0.11367928156557303 0.08172734358414664 C 0.11373179899555577 0.08308843367640181 0.11076718993068167 0.0899604571926402 0.11099119697951947 0.08932714076121762" fill="none" stroke="none" stroke-width="0"/>
<path d="M 0.11099119697951947 0.08932714076121762 C 0.11108366321751056 0.08923415814914543 0.11227465692383598 0.08799935941975032 0.11210079183541258 0.08821134941635142 C 0.11227465692383598 0.08799935941975032 0.1131589768910326 0.08666425341747544 0.1130775780406003 0.08678326080200437" fill="none" stroke="#000000" stroke-width="0.0017000000000000001"/>
<path d="M 0.1130775780406003 0.08678326080200437 C 0.11263440882846874 0.08630270584900662 0.10653047706893834 0.08034707789195718 0.1077595474950217 0.08101660136603145 C 0.10653047706893834 0.08034707789195718 0.09675693049969639 0.0787489791131131 0.0983287329276 0.0787489791131131 C 0.09675693049969639 0.0787489791131131 0.08766884793409492 0.08168612484010572 0.08889791836017828 0.08101660136603145 C 0.08766884793409492 0.08168612484010572 0.0831367186024681 0.08726381575500211 0.08357988781459966 0.08678326080200437" fill="none" stroke="#000000" stroke-width="0.0017000000000000001"/>
</g><g transform="translate(0.3373434528286707,0.10182232231333223) rotate(0) scale(1,1) translate(-0.004673193949358962,-0.009407905204451655)"><path d="M -0.009669827507903024 0.017319659258971186 C -0.009264988364874337 0.01703047913243534 -0.0036165060034536083 0.013316121062708299 -0.004811757791558774 0.013849497740541075 C -0.0036165060034536083 0.013316121062708299 0.00625401923951192 0.010919139124977866 0.004673193949358964 0.010919139124977866 C 0.00625401923951192 0.010919139124977866 0.015353397478381872 0.014382874418373852 0.014158145690276706 0.013849497740541075 C 0.015353397478381872 0.014382874418373852 0.019421054549649635 0.01760883938550703 0.019016215406620948 0.017319659258971186" fill="none" stroke="none" stroke-width="0"/>
<path d="M 0.019016215406620948 0.017319659258971186 C 0.018627441826177586 0.016824839931343188 0.013155680653195436 0.01063638522347613 0.014350932441300602 0.011381827327435192 C 0.013155680653195436 0.01063638522347613 0.0030602375340353562 0.008374354011462441 0.004673193949358962 0.008374354011462441 C 0.0030602375340353562 0.008374354011462441 -0.006199796330687835 0.012127269431394257 -0.005004544542582669 0.011381827327435194 C -0.006199796330687835 0.012127269431394257 -0.010058601088346386 0.017814478586599184 -0.009669827507903024 0.017319659258971186" fill="none" stroke="#000000" stroke-width="0.001"/>
</g><g transform="translate(0.32431112382478683,0.11762685890776911) rotate(0) scale(1,1) translate(-0.008380251738491874,-0.0057170889593407765)"><path d="M 0.006983942987493364 0.006612660165252141 C 0.007064171012003961 0.006545526559690823 0.008048917680707321 0.00572256570808086 0.007946679281620538 0.00580705689851632 C 0.008048917680707321 0.00572256570808086 0.008232814151110953 0.005581408295152483 0.008210803776534768 0.005598765880026624" fill="none" stroke="#000000" stroke-width="0.001"/>
<path d="M 0.008210803776534768 0.005598765880026624 C 0.008224638474665135 0.005596145160435719 0.008402371176299925 0.00557913268092301 0.008376820154099178 0.005567317244935765 C 0.008402371176299925 0.00557913268092301 0.008525668821725393 0.005769933284328003 0.008517416042943739 0.005740551111873574 C 0.008525668821725393 0.005769933284328003 0.008472389954190297 0.0059348493312651905 0.008475853499479023 0.005919903314388912" fill="none" stroke="#000000" stroke-width="0.001"/>
<path d="M 0.008475853499479023 0.005919903314388912 C 0.008448637823654157 0.0059367258184893175 0.00802493951358183 0.0061795031011657115 0.008149265389580634 0.006121773363593775 C 0.00802493951358183 0.0061795031011657115 0.006886832787319425 0.006653567398723671 0.006983942987493364 0.006612660165252141" fill="none" stroke="#000000" stroke-width="0.001"/>
</g><g transform="translate(0.3233834268386099,0.11665093497867296) rotate(0) scale(1,1) translate(-0.008380251738491874,-0.0057170889593407765)"><path d="M 0.005669395662350483 0.006566073176258457 C 0.005830782018335194 0.006490445448600969 0.00781307887832168 0.005563360551786267 0.007606031934167017 0.0056585404443686 C 0.00781307887832168 0.005563360551786267 0.00819961958037639 0.005404362300345614 0.008153958992206438 0.0054239144652704595" fill="none" stroke="#000000" stroke-width="0.001"/>
<path d="M 0.008153958992206438 0.0054239144652704595 C 0.008179247254857365 0.00542752511209299 0.00849473600564274 0.005501247221209704 0.008457418144017563 0.005467242227140827 C 0.00849473600564274 0.005501247221209704 0.008599272338204133 0.005885062710395117 0.008601773331708563 0.005831974394096993 C 0.008599272338204133 0.005885062710395117 0.00841287562948572 0.006126995991770084 0.0084274062219644 0.006104302022718308" fill="none" stroke="#000000" stroke-width="0.001"/>
<path d="M 0.0084274062219644 0.006104302022718308 C 0.008374985240877701 0.0061181310225546254 0.007568520235622863 0.006308730950215794 0.0077983544489240225 0.006270250020754115 C 0.007568520235622863 0.006308730950215794 0.005491982430136022 0.006590725105883819 0.005669395662350483 0.006566073176258457" fill="none" stroke="#000000" stroke-width="0.001"/>
</g><g transform="translate(0.3503757818325545,0.11762685890776911) rotate(0) scale(1,1) translate(-0.008380251738491874,-0.0057170889593407765)"><path d="M 0.009776560489490382 0.006612660165252141 C 0.009679450289316447 0.006571752931780611 0.00848691221140436 0.006064043626021839 0.008611238087403161 0.006121773363593775 C 0.00848691221140436 0.006064043626021839 0.008257434301679911 0.005903080810288507 0.008284649977504777 0.005919903314388912" fill="none" stroke="#000000" stroke-width="0.001"/>
<path d="M 0.008284649977504777 0.005919903314388912 C 0.008281186432216045 0.005904957297512634 0.008251340212821664 0.005711168939419145 0.008243087434040008 0.005740551111873574 C 0.008251340212821664 0.005711168939419145 0.008409234345085392 0.005555501808948519 0.008383683322884639 0.005567317244935765 C 0.008409234345085392 0.005555501808948519 0.008563534398579422 0.005601386599617529 0.008549699700449054 0.005598765880026624" fill="none" stroke="#000000" stroke-width="0.001"/>
<path d="M 0.008549699700449054 0.005598765880026624 C 0.008571710075025238 0.005616123464900765 0.008916062594450028 0.00589154808895178 0.008813824195363251 0.00580705689851632 C 0.008916062594450028 0.00589154808895178 0.009856788514000977 0.00667979377081346 0.009776560489490382 0.006612660165252141" fill="none" stroke="#000000" stroke-width="0.001"/>
</g><g transform="translate(0.3513034788187315,0.11665093497867296) rotate(0) scale(1,1) translate(-0.008380251738491874,-0.0057170889593407765)"><path d="M 0.011091107814633294 0.006566073176258457 C 0.010913694582418828 0.006541421246633095 0.008732314814758538 0.006231769091292436 0.008962149028059696 0.006270250020754115 C 0.008732314814758538 0.006231769091292436 0.008280676273932716 0.0060904730228819905 0.008333097255019406 0.006104302022718308" fill="none" stroke="#000000" stroke-width="0.001"/>
<path d="M 0.008333097255019406 0.006104302022718308 C 0.008318566662540725 0.006081608053666532 0.008156229151770805 0.005778886077798869 0.00815873014527524 0.005831974394096993 C 0.008156229151770805 0.005778886077798869 0.008340403194591376 0.005433237233071949 0.008303085332966198 0.005467242227140827 C 0.008340403194591376 0.005433237233071949 0.008631832747428311 0.005420303818447929 0.008606544484777379 0.0054239144652704595" fill="none" stroke="#000000" stroke-width="0.001"/>
<path d="M 0.008606544484777379 0.0054239144652704595 C 0.00865220507294733 0.005443466630195305 0.009361518486971449 0.005753720336950934 0.009154471542816789 0.0056585404443686 C 0.009361518486971449 0.005753720336950934 0.011252494170618002 0.006641700903915945 0.011091107814633294 0.006566073176258457" fill="none" stroke="#000000" stroke-width="0.001"/>
</g><g transform="translate(0.322723168808557,0.11504204996525744) rotate(0) scale(1,1) translate(-0.008380251738491874,-0.0057170889593407765)"><path d="M 0.004255420739700296 0.0056212185524457696 C 0.004509827109134041 0.0055948390913969906 0.007636781296285175 0.005271469552941767 0.007308297172905242 0.005304665019860419 C 0.007636781296285175 0.005271469552941767 0.008271307974205677 0.005216056943552069 0.00819723022025949 0.005222872949421942" fill="none" stroke="#000000" stroke-width="0.001"/>
<path d="M 0.00819723022025949 0.005222872949421942 C 0.00823324077875723 0.005240221766526901 0.008666836025802205 0.0054936537399923316 0.008629356922232368 0.005431058754681444 C 0.008666836025802205 0.0054936537399923316 0.008614075123735404 0.006041533217796803 0.008646979463097521 0.005974012773152593 C 0.008614075123735404 0.006041533217796803 0.008200131965452759 0.00626357836685025 0.008234504849886972 0.006241304090411969" fill="none" stroke="#000000" stroke-width="0.001"/>
<path d="M 0.008234504849886972 0.006241304090411969 C 0.008155395910733648 0.00623357095263845 0.006953607237531536 0.006096832642299217 0.007285197580047092 0.006148506437129734 C 0.006953607237531536 0.006096832642299217 0.004002939336338063 0.005577277895388772 0.004255420739700296 0.0056212185524457696" fill="none" stroke="#000000" stroke-width="0.001"/>
</g><g transform="translate(0.32516302883871895,0.11179345984228724) rotate(0) scale(1,1) translate(-0.008380251738491874,-0.0057170889593407765)"><path d="M 0.0045605499899618734 0.004341582794566136 C 0.004806948728982131 0.0043969421281491216 0.007833885787648888 0.005078784565232973 0.007517334858204964 0.0050058947975619664 C 0.007833885787648888 0.005078784565232973 0.008429313333712626 0.005233790440706226 0.00835916114328896 0.005216260006618206" fill="none" stroke="#000000" stroke-width="0.001"/>
<path d="M 0.00835916114328896 0.005216260006618206 C 0.008386497398509706 0.005242498765760282 0.008702839842473595 0.005598871251549187 0.008687196205937917 0.005531125116323119 C 0.008702839842473595 0.005598871251549187 0.008498005679829035 0.006080810061811376 0.008546884781717086 0.006029213629331022 C 0.008498005679829035 0.006080810061811376 0.008063460500078308 0.006160371362483735 0.008100646983281291 0.006150282306087372" fill="none" stroke="#000000" stroke-width="0.001"/>
<path d="M 0.008100646983281291 0.006150282306087372 C 0.008029207815237822 0.006119678948046488 0.006948368883983049 0.005632317050303322 0.007243376966759667 0.005783042009596758 C 0.006948368883983049 0.005632317050303322 0.004336981075228724 0.004221461193313584 0.0045605499899618734 0.004341582794566136" fill="none" stroke="#000000" stroke-width="0.001"/>
</g><g transform="translate(0.32887099727561586,0.10913121402366112) rotate(0) scale(1,1) translate(-0.008380251738491874,-0.0057170889593407765)"><path d="M 0.0046570747920723935 0.004108103538777693 C 0.0048992456028893495 0.0041787615566486165 0.007874050393134121 0.005048547755108375 0.007563124521875867 0.004955999753228781 C 0.007874050393134121 0.005048547755108375 0.008456940307612739 0.00524056954534148 0.00838818524717144 0.0052186795613328105" fill="none" stroke="#000000" stroke-width="0.001"/>
<path d="M 0.00838818524717144 0.0052186795613328105 C 0.00841382552308668 0.0052464150556659735 0.008707507110580154 0.005619725766162159 0.00869586855815431 0.005551505493330768 C 0.008707507110580154 0.005619725766162159 0.008476338281240638 0.0060855225523015226 0.008527847876281563 0.006037322835309504 C 0.008476338281240638 0.0060855225523015226 0.008040245546111699 0.006137617035728776 0.008077753417663227 0.006129902097234985" fill="none" stroke="#000000" stroke-width="0.001"/>
<path d="M 0.008077753417663227 0.006129902097234985 C 0.008008392071283116 0.00609503296625525 0.006960360708969325 0.0055429893122733885 0.007245417261101894 0.005711472525478163 C 0.006960360708969325 0.0055429893122733885 0.004441379586319935 0.003974489456552654 0.0046570747920723935 0.004108103538777693" fill="none" stroke="#000000" stroke-width="0.001"/>
</g><g transform="translate(0.35196373684878435,0.11504204996525744) rotate(0) scale(1,1) translate(-0.008380251738491874,-0.0057170889593407765)"><path d="M 0.012505082737283457 0.0056212185524457696 C 0.012252601333921226 0.005665159209502767 0.009143715554421126 0.006200180231960251 0.009475305896936681 0.006148506437129734 C 0.009143715554421126 0.006200180231960251 0.008446889687943474 0.0062490372281854886 0.008525998627096798 0.006241304090411969" fill="none" stroke="#000000" stroke-width="0.001"/>
<path d="M 0.008525998627096798 0.006241304090411969 C 0.008491625742662582 0.006219029813973688 0.008080619674524095 0.005906492328508383 0.008113524013886209 0.005974012773152593 C 0.008080619674524095 0.005906492328508383 0.00816862565832128 0.005368463769370556 0.008131146554751445 0.005431058754681444 C 0.00816862565832128 0.005368463769370556 0.008599283815221967 0.005205524132316983 0.008563273256724235 0.005222872949421942" fill="none" stroke="#000000" stroke-width="0.001"/>
<path d="M 0.008563273256724235 0.005222872949421942 C 0.008637351010670424 0.005229688955291815 0.009780690427458438 0.005337860486779071 0.009452206304078503 0.005304665019860419 C 0.009780690427458438 0.005337860486779071 0.012759489106717203 0.0056475980134945486 0.012505082737283457 0.0056212185524457696" fill="none" stroke="#000000" stroke-width="0.001"/>
</g><g transform="translate(0.3495238768186224,0.11179345984228724) rotate(0) scale(1,1) translate(-0.008380251738491874,-0.0057170889593407765)"><path d="M 0.012199953487021853 0.004341582794566136 C 0.011976384572288704 0.004461704395818688 0.009222118427447459 0.005933766968890194 0.009517126510224072 0.005783042009596758 C 0.009222118427447459 0.005933766968890194 0.008588417325659023 0.006180885664128257 0.008659856493702489 0.006150282306087372" fill="none" stroke="#000000" stroke-width="0.001"/>
<path d="M 0.008659856493702489 0.006150282306087372 C 0.008622670010499508 0.00614019324969101 0.008164739593378656 0.005977617196850667 0.008213618695266711 0.006029213629331022 C 0.008164739593378656 0.005977617196850667 0.008088950907581502 0.005463378981097051 0.008073307271045826 0.005531125116323119 C 0.008088950907581502 0.005463378981097051 0.008428678588915578 0.00519002124747613 0.008401342333694828 0.005216260006618206" fill="none" stroke="#000000" stroke-width="0.001"/>
<path d="M 0.008401342333694828 0.005216260006618206 C 0.008471494524118495 0.0051987295725301865 0.009559719548222748 0.00493300502989096 0.00924316861877883 0.0050058947975619664 C 0.009559719548222748 0.00493300502989096 0.012446352226042104 0.0042862234609831506 0.012199953487021853 0.004341582794566136" fill="none" stroke="#000000" stroke-width="0.001"/>
</g><g transform="translate(0.34581590838172555,0.10913121402366112) rotate(0) scale(1,1) translate(-0.008380251738491874,-0.0057170889593407765)"><path d="M 0.012103428684911322 0.004108103538777693 C 0.011887733479158872 0.004241717621002732 0.009230029663749362 0.005879955738682938 0.00951508621588193 0.005711472525478163 C 0.009230029663749362 0.005879955738682938 0.008613388712940392 0.006164771228214721 0.00868275005932051 0.006129902097234985" fill="none" stroke="#000000" stroke-width="0.001"/>
<path d="M 0.00868275005932051 0.006129902097234985 C 0.008645242187768984 0.006122187158741195 0.008181146005661269 0.005989123118317486 0.008232655600702188 0.006037322835309504 C 0.008181146005661269 0.005989123118317486 0.008076273471255316 0.005483285220499377 0.008064634918829472 0.005551505493330768 C 0.008076273471255316 0.005483285220499377 0.008397958505727563 0.0051909440669996474 0.008372318229812326 0.0052186795613328105" fill="none" stroke="#000000" stroke-width="0.001"/>
<path d="M 0.008372318229812326 0.0052186795613328105 C 0.00844107329025362 0.005196789577324141 0.00950830482636611 0.004863451751349188 0.00919737895510786 0.004955999753228781 C 0.00950830482636611 0.004863451751349188 0.012345599495728277 0.004037445520906769 0.012103428684911322 0.004108103538777693" fill="none" stroke="#000000" stroke-width="0.001"/>
</g></svg>
