<?xml version="1.0" encoding="UTF-8"?>
<svg xmlns="http://www.w3.org/2000/svg" viewBox="0 0 1 1">
<g transform="translate(0.3150970874052552,0.5269031213308868) rotate(0) scale(1,1) translate(-0.06277174950212588,-0.053873714979789225)"><path d="M 0.07103175391133441 0.05878570572653995 C 0.0707351911955388 0.059193621168704844 0.06673683168478246 0.06430456011353236 0.06747300132178699 0.06368069103251872 C 0.06673683168478246 0.06430456011353236 0.061321074592887645 0.0663485286949956 0.062197718267280114 0.06627213469870366 C 0.061321074592887645 0.0663485286949956 0.05625476642744051 0.0640927829704884 0.05695327722907736 0.06459741898802207 C 0.05625476642744051 0.0640927829704884 0.053509478988550435 0.05941358022991954 0.053815588647637996 0.06021650248829965 C 0.053509478988550435 0.05941358022991954 0.053284106248905116 0.054068429805651685 0.0532799613200266 0.05496235188746077 C 0.053284106248905116 0.054068429805651685 0.05391410833369296 0.04903336130818479 0.053865327794180164 0.049489437506590635" fill="none" stroke="#000000" stroke-width="0.001"/>
<path d="M 0.053865327794180164 0.049489437506590635 C 0.053956432420938595 0.04861855964249513 0.05510350560020276 0.03719287837403004 0.05495858331528132 0.03903890313744464 C 0.05510350560020276 0.03719287837403004 0.05560294254727517 0.02516568547088847 0.05560439521323743 0.027337140345615484 C 0.05560294254727517 0.02516568547088847 0.05462282960642158 0.010848253798237804 0.05494115132373428 0.012981444640720494 C 0.05462282960642158 0.010848253798237804 0.05152148321229747 0.000801967368748443 0.05178453460548492 0.001738850235823216" fill="none" stroke="#000000" stroke-width="0.001"/>
<path d="M 0.05178453460548492 0.001738850235823216 C 0.051959101910674474 0.0013769211245050952 0.054369810650090854 -0.0032173305770452866 0.05387934226775957 -0.002604299099994235 C 0.054369810650090854 -0.0032173305770452866 0.058380723037095614 -0.005959171571568245 0.05767015519346035 -0.005617527488789402 C 0.058380723037095614 -0.005959171571568245 0.06319608702034729 -0.00670661798126293 0.06240615639138273 -0.006704028093340353 C 0.06319608702034729 -0.00670661798126293 0.0678621607063992 -0.0053116288778606805 0.06714932274103516 -0.005648606143860327 C 0.0678621607063992 -0.0053116288778606805 0.07145477097609042 -0.0020504989617089148 0.07096021197575118 -0.0026603009013445988 C 0.07145477097609042 -0.0020504989617089148 0.07326235730503516 0.002430864992164755 0.07308403074510601 0.0016690171317678792 C 0.07326235730503516 0.002430864992164755 0.07310147235738393 0.00688294478105541 0.07310013069490101 0.0064818734234179075" fill="none" stroke="#000000" stroke-width="0.001"/>
<path d="M 0.07310013069490101 0.0064818734234179075 C 0.07296758977497834 0.007290606389693078 0.0714487849171687 0.018169827829563327 0.07150963965582906 0.016186669018719953 C 0.0714487849171687 0.018169827829563327 0.07259963997658307 0.03247045240306465 0.0723698738309768 0.030279779153538394 C 0.07259963997658307 0.03247045240306465 0.07452776287285577 0.044254177572122445 0.07426683340310423 0.042474748013035 C 0.07452776287285577 0.044254177572122445 0.07523143751034769 0.05299218033871312 0.07550102746799518 0.05163293386258771 C 0.07523143751034769 0.05299218033871312 0.07065931444827935 0.05938177004853597 0.07103175391133441 0.05878570572653995" fill="none" stroke="#000000" stroke-width="0.001"/>
</g><g transform="translate(0.31631247242523647,0.5018378661006746) rotate(0) scale(1,1) translate(-0.03875718691907565,-0.03875718691907564)"><path d="M 0.04005821513696748 0.02982942399078782 C 0.040096040076361784 0.03031905428225514 0.040572980775843086 0.03666964367594799 0.040512114409699145 0.035704987488395686 C 0.040572980775843086 0.03666964367594799 0.04081165295744445 0.04188032413750043 0.04078861153069481 0.04140529824141545" fill="none" stroke="#000000" stroke-width="0.001"/>
<path d="M 0.04078861153069481 0.04140529824141545 C 0.040817011241238134 0.04197495495893877 0.04108593353165573 0.04932944584167132 0.04112940805721469 0.04824117885169527 C 0.04108593353165573 0.04932944584167132 0.040195042987885024 0.05498311239358081 0.04026691722398731 0.05446450212112807" fill="none" stroke="#000000" stroke-width="0.001"/>
<path d="M 0.04026691722398731 0.05446450212112807 C 0.040196655076690006 0.05500307629552175 0.039421035882170274 0.06184829933848634 0.039423771456419704 0.060927392213852204 C 0.039421035882170274 0.06184829933848634 0.04030161690604206 0.06589772056697815 0.04023409033299419 0.0655153876167377" fill="none" stroke="#000000" stroke-width="0.001"/>
</g><g transform="translate(0.3147676705533223,0.4771397681807182) rotate(0) scale(1,1) translate(-0.0947247629339958,-0.08294301729212561)"><path d="M 0.10483099889141356 0.07881868142197121 C 0.10478243769586594 0.07940274477369254 0.1039719794111384 0.08677214613682321 0.10424826454484204 0.0858274416426272 C 0.1039719794111384 0.08677214613682321 0.10090849664217205 0.09071537753644371 0.10151557728696983 0.09015513535232335 C 0.10090849664217205 0.09071537753644371 0.09616368328199153 0.09272538255937751 0.09696329680726859 0.09255034785207154 C 0.09616368328199153 0.09272538255937751 0.09113435933974684 0.09196826315246032 0.09192021498364511 0.09225555183999497 C 0.09113435933974684 0.09196826315246032 0.08701122899639349 0.0884746507040775 0.08753302908048939 0.08910288360165566 C 0.08701122899639349 0.0884746507040775 0.08550241271566143 0.08435124652467381 0.08565861397449435 0.08471675706905703" fill="none" stroke="none" stroke-width="0"/>
<path d="M 0.08565861397449435 0.08471675706905703 C 0.08564299628526426 0.08437882142924866 0.08559033024560937 0.07999669194321209 0.08547120170373318 0.08066152939135662 C 0.08559033024560937 0.07999669194321209 0.087006245452309 0.0760735701015801 0.08708815647700871 0.07673870769132266 C 0.087006245452309 0.0760735701015801 0.0842627108462035 0.07206533218085351 0.0844882694073368 0.07267987831444589 C 0.0842627108462035 0.07206533218085351 0.08437255243808181 0.06908784373602801 0.08438145374340912 0.069364154088214" fill="none" stroke="#000000" stroke-width="0.001"/>
<path d="M 0.08438145374340912 0.069364154088214 C 0.08440229402138597 0.06908996255381537 0.08482085960036076 0.0655507258407287 0.0846315370791312 0.06607385567543038 C 0.08482085960036076 0.0655507258407287 0.08721961868508372 0.06258074538452026 0.08665332399816386 0.06308659607179382 C 0.08721961868508372 0.06258074538452026 0.09236546344820126 0.05976589360262995 0.09142707332216957 0.060003647428147684 C 0.09236546344820126 0.05976589360262995 0.09881325159308625 0.060561140423766466 0.09791400551054413 0.06023355016558102 C 0.09881325159308625 0.060561140423766466 0.10265525016857874 0.06478035725654466 0.10221802631267506 0.06393473052637302 C 0.10265525016857874 0.06478035725654466 0.1032392472371145 0.07091826596107954 0.10316069178138838 0.07038107092764058" fill="none" stroke="#000000" stroke-width="0.001"/>
<path d="M 0.10316069178138838 0.07038107092764058 C 0.10309702191048614 0.0706614420696088 0.10238025462244231 0.07418170556667714 0.1023966533305614 0.07374552463125911 C 0.10238025462244231 0.07418170556667714 0.10310972763023278 0.07592565979908739 0.1029639072839593 0.07561524215265684 C 0.10310972763023278 0.07592565979908739 0.10430208845313113 0.07773748966086855 0.10414649748584327 0.07747053638842569 C 0.10430208845313113 0.07773748966086855 0.10488804067521108 0.07893102684143334 0.10483099889141356 0.07881868142197121" fill="none" stroke="#000000" stroke-width="0.001"/>
</g><g id="蹄">
<g transform="translate(0.31683685015374796,0.4652336876510236) rotate(0) scale(1,1) translate(-0.04383356025617218,-0.018129742788067973)"><path d="M 0.052006910673234444 -0.003455144620100272 C 0.05231420054822784 -0.0030159933844849554 0.056000996758145447 0.0027579303294281068 0.055694389173155244 0.0018146702072835295 C 0.056000996758145447 0.0027579303294281068 0.055133924011495854 0.009220560174054506 0.05568620169311685 0.007863976845634654 C 0.055133924011495854 0.009220560174054506 0.047961896363069405 0.01923037267869242 0.04906705699370323 0.018093670148321743 C 0.047961896363069405 0.01923037267869242 0.041870708886494926 0.021788635298562856 0.04242427412551095 0.02150440721008277" fill="none" stroke="#000000" stroke-width="0.001"/>
<path d="M 0.04242427412551095 0.02150440721008277 C 0.0419104452789121 0.021444291496083328 0.03541907791766204 0.020448155740610593 0.03625832796632476 0.020783018642089472 C 0.03541907791766204 0.020448155740610593 0.03195549341492626 0.016889546351934896 0.03235327354155825 0.017486052392336214 C 0.03195549341492626 0.016889546351934896 0.031412607522172745 0.013303187304351758 0.03148496644674086 0.01362494615727364" fill="none" stroke="#000000" stroke-width="0.001"/>
<path d="M 0.03148496644674086 0.01362494615727364 C 0.031573598343470025 0.012607847226304812 0.03293283056741742 -9.265129947583434E-05 0.0325485492074908 0.0014197589856477107 C 0.03293283056741742 -9.265129947583434E-05 0.03639199222905784 -0.0050192886183636175 0.03609634276586038 -0.0045239772642089" fill="none" stroke="#000000" stroke-width="0.001"/>
<path d="M 0.03609634276586038 -0.0045239772642089 C 0.03684165593952651 -0.004601237418078268 0.046365981508801835 -0.005362029723632272 0.045040100849854 -0.005451099110641324 C 0.046365981508801835 -0.005362029723632272 0.052587478158516145 -0.0032888150792218514 0.052006910673234444 -0.003455144620100272" fill="none" stroke="#000000" stroke-width="0.001"/>
</g><g transform="translate(0.31404361587787916,0.4522521326530146) rotate(0) scale(1,1) translate(-0.03356062064634187,-0.03372627279972515)"><path d="M 0.04452720533927296 0.025122940389565928 C 0.04482303958182377 0.025468898247904048 0.04842390552609128 0.03006688296550874 0.048077216249882766 0.02927443468962335 C 0.04842390552609128 0.03006688296550874 0.04847816512993093 0.03551287095326659 0.048687476653775125 0.03463231970019058 C 0.04847816512993093 0.03551287095326659 0.04482180703366506 0.0405598333984867 0.04556547796375248 0.03984104972653547 C 0.04482180703366506 0.0405598333984867 0.03927992112014055 0.04354244660002786 0.03976342549272609 0.043257723763605364" fill="none" stroke="#000000" stroke-width="0.001"/>
<path d="M 0.03976342549272609 0.043257723763605364 C 0.03909034164804933 0.04334405859073005 0.030373495338729684 0.04420701983803142 0.03168641935660504 0.044293741689101634 C 0.030373495338729684 0.04420701983803142 0.02336849710502323 0.04204400487256796 0.024008337278221832 0.04221706155076286" fill="none" stroke="#000000" stroke-width="0.001"/>
<path d="M 0.024008337278221832 0.04221706155076286 C 0.02390861926083946 0.04186406967665675 0.022843717664610824 0.03739953174687784 0.02281172106963338 0.03798115906148957 C 0.022843717664610824 0.03739953174687784 0.024524011030311002 0.03500889833491642 0.024392296417951185 0.03523753377542205" fill="none" stroke="#000000" stroke-width="0.001"/>
<path d="M 0.024392296417951185 0.03523753377542205 C 0.024997643086223893 0.03538414873175951 0.03280007420144399 0.03703453618196309 0.03165645643722367 0.03699691325147162 C 0.03280007420144399 0.03703453618196309 0.03899103877879266 0.035274308433912355 0.038115709588594976 0.035689008941319725 C 0.03899103877879266 0.035274308433912355 0.04219946812804042 0.0314737808351 0.042160406719595866 0.0320205071625832 C 0.04219946812804042 0.0314737808351 0.0377053390529559 0.028894366095640223 0.03858444648992963 0.029128293011521384 C 0.0377053390529559 0.028894366095640223 0.03044957396300587 0.029491904427236492 0.03161111747591108 0.029213384172009253 C 0.03044957396300587 0.029491904427236492 0.024065491573330083 0.032741965399434844 0.02464592433506708 0.03247053607424826" fill="none" stroke="#000000" stroke-width="0.001"/>
<path d="M 0.02464592433506708 0.03247053607424826 C 0.024619044319934537 0.03207429199311342 0.024654256911545883 0.02701423807323098 0.024323364153476565 0.02771560710063023 C 0.024654256911545883 0.02701423807323098 0.02897441020510077 0.023748982799192866 0.028616637431898906 0.024054107745457277" fill="none" stroke="#000000" stroke-width="0.001"/>
<path d="M 0.028616637431898906 0.024054107745457277 C 0.029361950605565037 0.023976847591587913 0.03888627617484032 0.02321605528603394 0.037560395515892485 0.023126985899024885 C 0.03888627617484032 0.02321605528603394 0.045107772824554665 0.02528926993044435 0.04452720533927296 0.025122940389565928" fill="none" stroke="#000000" stroke-width="0.001"/>
</g></g>
<g id="脚輪">
<g transform="translate(0.31576176175483234,0.49348054213584985) rotate(0) scale(1,1) translate(-0.011152769902399133,-0.011152769902399133)"><path d="M -0.0004229776696474131 0.007629533277743516 C 0.000541667961356466 0.007629533277743516 0.013082061164406893 0.007629533277743516 0.011152769902399136 0.007629533277743516 C 0.013082061164406893 0.007629533277743516 0.02369316310544955 0.007629533277743516 0.022728517474445674 0.007629533277743516" fill="none" stroke="#000000" stroke-width="0.001"/>
<path d="M 0.022728517474445674 0.007629533277743516 C 0.022728517474445674 0.00792313632979815 0.02272851747444569 0.011739976006508402 0.02272851747444569 0.011152769902399133 C 0.02272851747444569 0.011739976006508402 0.022728517474445674 0.014969609579109389 0.022728517474445674 0.014676006527054754" fill="none" stroke="#000000" stroke-width="0.001"/>
<path d="M 0.022728517474445674 0.014676006527054754 C 0.021763871843441796 0.014676006527054754 0.009223478640391376 0.014676006527054754 0.011152769902399133 0.014676006527054754 C 0.009223478640391376 0.014676006527054754 -0.001387623300651292 0.014676006527054754 -0.0004229776696474131 0.014676006527054754" fill="none" stroke="#000000" stroke-width="0.001"/>
<path d="M -0.0004229776696474131 0.014676006527054754 C -0.0004229776696474131 0.01438240347500012 -0.0004229776696474131 0.010565563798289867 -0.0004229776696474131 0.011152769902399136 C -0.0004229776696474131 0.010565563798289867 -0.0004229776696474131 0.007335930225688881 -0.0004229776696474131 0.007629533277743516" fill="none" stroke="#000000" stroke-width="0.001"/>
</g><g transform="translate(0.31278867551935924,0.4934805421358499) rotate(0) scale(1,1) translate(-0.00775832499658671,-0.0077583249965867095)"><path d="M 0.012508473937136107 0.012418221107265679 C 0.011747467001735176 0.012335390385114848 0.0026153837769239854 0.010730433811826718 0.003376390712324918 0.011424252441455715 C 0.0026153837769239854 0.010730433811826718 0.004137397647725848 0.0033985789220887107 0.003376390712324916 0.004092397551717708 C 0.004137397647725848 0.0033985789220887107 0.013269480872537036 0.0030155981637569147 0.012508473937136104 0.003098428885907745" fill="none" stroke="#000000" stroke-width="0.001"/>
<path d="M 0.012508473937136104 0.003098428885907745 C 0.012508473937136104 0.0031637434338402993 0.012508473937136104 0.003973643828203973 0.012508473937136104 0.0038822034610983967 C 0.012508473937136104 0.003973643828203973 0.012508473937136104 0.004221839110347685 0.012508473937136104 0.004195713291174663" fill="none" stroke="#000000" stroke-width="0.001"/>
<path d="M 0.012508473937136104 0.004195713291174663 C 0.011868305240743622 0.004258652764636942 0.0041862808840338285 0.005481816116828417 0.004826449580426311 0.004950986972722022 C 0.0041862808840338285 0.005481816116828417 0.005466618276818794 0.011096492164557806 0.004826449580426311 0.01056566302045141 C 0.005466618276818794 0.011096492164557806 0.013148642633528591 0.011383876175461048 0.012508473937136107 0.011320936701998768" fill="none" stroke="#000000" stroke-width="0.001"/>
<path d="M 0.012508473937136107 0.011320936701998768 C 0.012508473937136107 0.01134706252117179 0.012508473937136107 0.011725886899180606 0.012508473937136107 0.01163444653207503 C 0.012508473937136107 0.011725886899180606 0.012508473937136107 0.012483535655198233 0.012508473937136107 0.012418221107265679" fill="none" stroke="#000000" stroke-width="0.001"/>
</g><g transform="translate(0.30894052811408745,0.49348054213584996) rotate(0) scale(1,1) translate(-0.0022536622055164745,-0.002253662205516475)"><path d="M 0.0032255552979668744 0.002935426332854453 C 0.0030693082998236535 0.002925660000908541 0.0011943443221050015 0.0027143693268930945 0.0013505913202482224 0.0028182303495035126 C 0.0011943443221050015 0.0027143693268930945 0.001506838318391443 0.001585233038919019 0.001350591320248222 0.0016890940615294369 C 0.001506838318391443 0.001585233038919019 0.003381802296110095 0.0015621317462325866 0.003225555297966874 0.0015718980781784981" fill="none" stroke="#000000" stroke-width="0.001"/>
<path d="M 0.003225555297966874 0.0015718980781784981 C 0.003256804697595518 0.0016287117554566629 0.003600548093510603 0.0023672895600728035 0.003600548093510603 0.002253662205516474 C 0.003600548093510603 0.0023672895600728035 0.0031943058983382303 0.0029922400101326176 0.0032255552979668744 0.002935426332854453" fill="none" stroke="#000000" stroke-width="0.001"/>
</g><g transform="translate(0.32211976033408046,0.49348054213584985) rotate(0) scale(1,1) translate(-0.006469483550722008,-0.0064694835507220095)"><path d="M 0.007230725368117747 0.0023039683259325353 C 0.007484472640582993 0.003692473400862359 0.006976978095652501 0.012023503850441302 0.007230725368117747 0.010634998775511478 C 0.006976978095652501 0.012023503850441302 0.0054544944608610245 0.009246493700581657 0.0057082417333262706 0.010634998775511481 C 0.0054544944608610245 0.009246493700581657 0.005961989005791517 0.0009154632510027095 0.0057082417333262706 0.002303968325932534 C 0.005961989005791517 0.0009154632510027095 0.007484472640582993 0.003692473400862359 0.007230725368117747 0.0023039683259325353 Z" fill="#cccccc" stroke="#000000" stroke-width="0.001"/>
</g><g transform="translate(0.30537216642349413,0.4934805421358499) rotate(0) scale(1,1) translate(-0.009906215631991292,-0.007758324996586713)"><path d="M 0.009906215631991292 0.012418221107265679 C 0.009449611470750732 0.012235310565869925 0.003970361535864014 0.009629555800132554 0.004426965697104574 0.010223294610516628 C 0.003970361535864014 0.009629555800132554 0.004883569858345133 0.004699616572272719 0.0044269656971045734 0.005293355382656793 C 0.004883569858345133 0.004699616572272719 0.01036281979323185 0.002915518344511989 0.00990621563199129 0.0030984288859077433" fill="none" stroke="#000000" stroke-width="0.001"/>
<path d="M 0.00990621563199129 0.0030984288859077433 C 0.00990621563199129 0.0031637434338402976 0.00990621563199129 0.003973643828203972 0.00990621563199129 0.0038822034610983954 C 0.00990621563199129 0.003973643828203972 0.009906215631991292 0.004221839110347683 0.009906215631991292 0.004195713291174661" fill="none" stroke="#000000" stroke-width="0.001"/>
<path d="M 0.009906215631991292 0.004195713291174661 C 0.009535314436625605 0.004343158318051974 0.005084500092237355 0.0064113772043937825 0.005455401287603042 0.005965053613702421 C 0.005084500092237355 0.0064113772043937825 0.0058263024829687295 0.009997919970162365 0.005455401287603042 0.009551596379471002 C 0.0058263024829687295 0.009997919970162365 0.01027711682735698 0.011468381728876082 0.009906215631991292 0.011320936701998768" fill="none" stroke="#000000" stroke-width="0.001"/>
<path d="M 0.009906215631991292 0.011320936701998768 C 0.009906215631991292 0.01134706252117179 0.009906215631991292 0.011725886899180603 0.009906215631991292 0.011634446532075026 C 0.009906215631991292 0.011725886899180603 0.009906215631991292 0.012483535655198233 0.009906215631991292 0.012418221107265679" fill="none" stroke="#000000" stroke-width="0.001"/>
</g><g transform="translate(0.32615135708617055,0.49348054213584985) rotate(0) scale(1,1) translate(-0.005610434361182026,-0.007758324996586713)"><path d="M 0.005610434361182026 0.012418221107265679 C 0.005610434361182026 0.012352906559333125 0.005610434361182026 0.01154300616496945 0.005610434361182026 0.011634446532075026 C 0.005610434361182026 0.01154300616496945 0.005610434361182026 0.011294810882825747 0.005610434361182026 0.011320936701998768" fill="none" stroke="#000000" stroke-width="0.001"/>
<path d="M 0.005610434361182026 0.011320936701998768 C 0.005981335556547721 0.011173491675121454 0.010432149900936055 0.00910527278877964 0.010061248705570361 0.009551596379471002 C 0.010432149900936055 0.00910527278877964 0.009690347510204667 0.0055187300230110595 0.010061248705570361 0.005965053613702421 C 0.009690347510204667 0.0055187300230110595 0.005239533165816331 0.004048268264297348 0.005610434361182026 0.004195713291174661" fill="none" stroke="#000000" stroke-width="0.001"/>
<path d="M 0.005610434361182026 0.004195713291174661 C 0.005610434361182026 0.004169587472001639 0.005610434361182026 0.003790763093992819 0.005610434361182026 0.0038822034610983954 C 0.005610434361182026 0.003790763093992819 0.005610434361182026 0.003033114337975189 0.005610434361182026 0.0030984288859077433" fill="none" stroke="#000000" stroke-width="0.001"/>
<path d="M 0.005610434361182026 0.0030984288859077433 C 0.00606703852242259 0.0032813394273034976 0.01154628845730935 0.005887094193040867 0.011089684296068787 0.005293355382656793 C 0.01154628845730935 0.005887094193040867 0.010633080134828223 0.010817033420900702 0.011089684296068787 0.010223294610516628 C 0.010633080134828223 0.010817033420900702 0.0051538301999414626 0.012601131648661433 0.005610434361182026 0.012418221107265679" fill="none" stroke="#000000" stroke-width="0.001"/>
</g></g>
</svg>
