<?xml version="1.0" encoding="UTF-8"?>
<svg xmlns="http://www.w3.org/2000/svg" viewBox="0 0 1 1">
<g transform="translate(0.3150970874052552,0.5269031213308868) rotate(0) scale(1,1) translate(-0.06277174950212588,-0.053873714979789225)"><path d="M 0.07056423766177321 0.05850768705027386 C 0.07028446039569163 0.05889251447841222 0.06651240803324408 0.0637141742789625 0.06720691046879415 0.06312561618793423 C 0.06651240803324408 0.0637141742789625 0.06140318279275052 0.06564245423871495 0.06223020843517237 0.06557038414261313 C 0.06140318279275052 0.06564245423871495 0.05662362766946772 0.06351438372221484 0.05728260275973192 0.0639904573411561 C 0.05662362766946772 0.06351438372221484 0.0540337234996188 0.05910002385676215 0.05432250735200201 0.059857500715317945 C 0.0540337234996188 0.05910002385676215 0.05382110685703741 0.05405740894650788 0.05381719653113341 0.05490073503848657 C 0.05382110685703741 0.05405740894650788 0.054415450823826275 0.04930732532599759 0.054369431262849904 0.049737587611573666" fill="none" stroke="#000000" stroke-width="0.001"/>
<path d="M 0.054369431262849904 0.049737587611573666 C 0.05445537936773381 0.04891600143458597 0.05553131111559822 0.038389090261517815 0.05540080852145673 0.03987855348772133 C 0.05553131111559822 0.038389090261517815 0.05577308018773817 0.03027244661128224 0.05593546239254779 0.03186402889713147 C 0.05577308018773817 0.03027244661128224 0.05317199973114915 0.019465013310521 0.053452222063741214 0.0207795660575306 C 0.05317199973114915 0.019465013310521 0.05249950876291823 0.01569854842264009 0.05257279440144307 0.01608939593301628" fill="none" stroke="#000000" stroke-width="0.001"/>
<path d="M 0.05257279440144307 0.01608939593301628 C 0.05272438362740126 0.015736276835666325 0.054841475415075086 0.011261957695634378 0.05439186511294138 0.011851966764816783 C 0.054841475415075086 0.011261957695634378 0.058638467730733015 0.008686980075133854 0.05796811802704751 0.009009287102827414 C 0.058638467730733015 0.008686980075133854 0.06318128211253263 0.007981839132227895 0.06243606155716746 0.007984282432494053 C 0.06318128211253263 0.007981839132227895 0.067583256027954 0.009297871852377576 0.06691076469142956 0.008979967499633508 C 0.067583256027954 0.009297871852377576 0.07097252455638074 0.01237442181527516 0.0705059575954607 0.011799134665422855 C 0.07097252455638074 0.01237442181527516 0.07267780149910719 0.016602140569359585 0.07250956822247002 0.015883413297861172 C 0.07267780149910719 0.016602140569359585 0.07252602263949304 0.020802232642199037 0.07252475691510665 0.020423861923403817" fill="none" stroke="#000000" stroke-width="0.001"/>
<path d="M 0.07252475691510665 0.020423861923403817 C 0.07239971781125161 0.02118682060378781 0.07095989250263088 0.03076405379010526 0.07102428766884618 0.02957936608801175 C 0.07095989250263088 0.03076405379010526 0.07196800858597835 0.035768494636471054 0.07175201492052312 0.03464011434852592 C 0.07196800858597835 0.035768494636471054 0.07386858960552585 0.04454656685379457 0.07361621165430886 0.04311992954335329 C 0.07386858960552585 0.04454656685379457 0.07452621916908235 0.05304207519939802 0.07478055033512698 0.051759762073821304 C 0.07452621916908235 0.05304207519939802 0.07021287827232706 0.0590700141316449 0.07056423766177321 0.05850768705027386" fill="none" stroke="#000000" stroke-width="0.001"/>
</g><g transform="translate(0.3162436816331055,0.5032565595467046) rotate(0) scale(1,1) translate(-0.03875718691907565,-0.03875718691907564)"><path d="M 0.03977452310830523 0.033018098962698514 C 0.03982771164209062 0.03325640254715465 0.04048771132951085 0.03656418499099488 0.04041278551372986 0.035877741976172176 C 0.04048771132951085 0.03656418499099488 0.040695370179672785 0.04170355457093757 0.04067363289767718 0.041255415140571" fill="none" stroke="#000000" stroke-width="0.001"/>
<path d="M 0.04067363289767718 0.041255415140571 C 0.04070042518460375 0.0417928292878825 0.0409541264733837 0.0487310559866524 0.04099514034079602 0.04770438490830899 C 0.0409541264733837 0.0487310559866524 0.040113660334390414 0.05406472501172379 0.040181466488729306 0.053575468080691885" fill="none" stroke="#000000" stroke-width="0.001"/>
<path d="M 0.040181466488729306 0.053575468080691885 C 0.040115181178969034 0.05408355895681488 0.03938346203085912 0.060541342375547695 0.03938604277160603 0.05967255859416785 C 0.03938346203085912 0.060541342375547695 0.04021420216877976 0.06436156636250688 0.0401504975997664 0.06400087345725003" fill="none" stroke="#000000" stroke-width="0.001"/>
</g><g transform="translate(0.3147955281428584,0.491215984236913) rotate(0) scale(1,1) translate(-0.0947247629339958,-0.08294301729212561)"><path d="M 0.10477101068046732 0.08379004208998019 C 0.10453432571333442 0.08411935075039204 0.10136258108781787 0.08828926920998206 0.10193079107487252 0.08774174601492238 C 0.10136258108781787 0.08828926920998206 0.09720987763404638 0.09060840677725207 0.09795249083581163 0.0903603204306964 C 0.09720987763404638 0.09060840677725207 0.09225491574892035 0.09056726295943109 0.0930194326536896 0.09071878217359039 C 0.09225491574892035 0.09056726295943109 0.08819328624388274 0.08807088824754292 0.08877828797858053 0.08854208986078478 C 0.08819328624388274 0.08807088824754292 0.08567350881579555 0.08442229678170657 0.08599941183731609 0.08506436281468804 C 0.08567350881579555 0.08442229678170657 0.0847731217105855 0.0804850420192003 0.08486745172033401 0.08083729746500705" fill="none" stroke="none" stroke-width="0"/>
<path d="M 0.08486745172033401 0.08083729746500705 C 0.08470532081639981 0.08048010637679559 0.08285114635952484 0.07585720739253901 0.08292188087312367 0.07655100440646963 C 0.08285114635952484 0.07585720739253901 0.08440465901480261 0.07201803285220572 0.08401863755714802 0.07251173329783968 C 0.08440465901480261 0.07201803285220572 0.0878677920929826 0.07024404460835702 0.08755413836497888 0.07062659905886211 C 0.0878677920929826 0.07024404460835702 0.08780151095387702 0.06769561996118836 0.08778248229319255 0.06792107989177865" fill="none" stroke="#000000" stroke-width="0.001"/>
<path d="M 0.08778248229319255 0.06792107989177865 C 0.08798744387844701 0.06758724317572666 0.0910212032544147 0.06352559171923267 0.09024202131624612 0.06391503929915489 C 0.0910212032544147 0.06352559171923267 0.09833990601925285 0.06352055935087945 0.09713266555121552 0.06324770893271192 C 0.09833990601925285 0.06352055935087945 0.10564948516453834 0.06791288586654735 0.10472890693269413 0.06718924431716528 C 0.10564948516453834 0.06791288586654735 0.10846716245006714 0.07232658779264121 0.10817960433334614 0.0719314075252969" fill="none" stroke="#000000" stroke-width="0.001"/>
<path d="M 0.10817960433334614 0.0719314075252969 C 0.10823234839106928 0.07218097609502816 0.10876639295773352 0.07547635496977335 0.1088125330260238 0.07492623036207202 C 0.10876639295773352 0.07547635496977335 0.10737824574773444 0.07905263001679622 0.10762592351386288 0.07853290281771294 C 0.10737824574773444 0.07905263001679622 0.10560249042969948 0.08160105169042685 0.10584039983248245 0.08116295675107124 C 0.10560249042969948 0.08160105169042685 0.10468189491779939 0.0840089658682226 0.10477101068046732 0.08379004208998019" fill="none" stroke="#000000" stroke-width="0.001"/>
</g><g id="蹄">
<g transform="translate(0.31788273387483795,0.4804298329176175) rotate(0) scale(1,1) translate(-0.04383356025617218,-0.018129742788067973)"><path d="M 0.039063517526330055 -0.004133021306777446 C 0.03930385945033118 -0.0033451615014237985 0.0423132267674523 0.0053635810274484715 0.04194762061434355 0.0053212963574663244 C 0.0423132267674523 0.0053635810274484715 0.04424670541771178 -0.003807133143944093 0.04345079136363503 -0.0036256052669916797 C 0.04424670541771178 -0.003807133143944093 0.052323105175388324 0.004800327248047941 0.05149858926326453 0.0031429618340373658 C 0.052323105175388324 0.004800327248047941 0.053498848396275216 0.01735609785672671 0.05334498230912055 0.016262779701135224" fill="none" stroke="#000000" stroke-width="0.001"/>
<path d="M 0.05334498230912055 0.016262779701135224 C 0.05288140785298397 0.016734047531240935 0.04664901150172055 0.022288670767276236 0.04778208883548167 0.021917993662403743 C 0.04664901150172055 0.022288670767276236 0.038714342655407304 0.02065222585824459 0.039748054303987146 0.020710904959605127 C 0.038714342655407304 0.02065222585824459 0.035013340281568245 0.021255756069949998 0.03537754905252354 0.021213844446077317" fill="none" stroke="#000000" stroke-width="0.001"/>
<path d="M 0.03537754905252354 0.021213844446077317 C 0.03493030999827377 0.020737177872380504 0.029479120980569828 0.014403760265939855 0.030010680401526296 0.01549384556171558 C 0.029479120980569828 0.014403760265939855 0.02891451563433923 0.007519402174689703 0.028998836001045927 0.008132820896768617" fill="none" stroke="#000000" stroke-width="0.001"/>
<path d="M 0.028998836001045927 0.008132820896768617 C 0.029310705237953313 0.007486735866048346 0.0335799903043749 -0.0006423529888368027 0.03274126684393455 0.00037980052812536925 C 0.0335799903043749 -0.0006423529888368027 0.03959037174986301 -0.004509089793019347 0.039063517526330055 -0.004133021306777446" fill="none" stroke="#000000" stroke-width="0.001"/>
</g><g transform="translate(0.3118768781134398,0.47223925573303566) rotate(0) scale(1,1) translate(-0.03356062064634187,-0.03372627279972515)"><path d="M 0.035234027230991026 0.04336327217582054 C 0.03523332105966699 0.042983804346141095 0.03529645946042325 0.03809505939612693 0.03522555317510264 0.03880965821966723 C 0.03529645946042325 0.03809505939612693 0.036156515111483 0.034452955299476035 0.03608490265483835 0.0347880862933369" fill="none" stroke="#000000" stroke-width="0.001"/>
</g><g transform="translate(0.3118768781134398,0.47223925573303566) rotate(0) scale(1,1) translate(-0.03356062064634187,-0.03372627279972515)"><path d="M 0.03501900683830159 0.019077900871952852 C 0.03505693347749249 0.019273993061136283 0.0353237274092179 0.022157366939892655 0.035474126508592364 0.021431007142154027 C 0.0353237274092179 0.022157366939892655 0.03295985226142655 0.029025901102482644 0.03321421764580803 0.02779421844481638 C 0.03295985226142655 0.029025901102482644 0.03216462523344141 0.0372501692293112 0.032421741896014634 0.03621119903414917 C 0.03216462523344141 0.0372501692293112 0.02993774067817223 0.040599415932811744 0.03012881769492934 0.04026186078676078" fill="none" stroke="#000000" stroke-width="0.001"/>
<path d="M 0.03012881769492934 0.04026186078676078 C 0.029777216451883318 0.04008728392093027 0.0253929588627795 0.037603617407398655 0.02590960277837708 0.03816693839679467 C 0.0253929588627795 0.037603617407398655 0.023764048035206837 0.033113264790443075 0.023929090707758394 0.033502008914008584" fill="none" stroke="#000000" stroke-width="0.001"/>
<path d="M 0.023929090707758394 0.033502008914008584 C 0.024236163610165215 0.03270694744547882 0.028538125214185507 0.022759262288146783 0.02761396553664024 0.023961271291651428 C 0.028538125214185507 0.022759262288146783 0.03563609361344004 0.01867095333697797 0.03501900683830159 0.019077900871952852" fill="none" stroke="#000000" stroke-width="0.001"/>
</g><g transform="translate(0.3118768781134398,0.47223925573303566) rotate(0) scale(1,1) translate(-0.03356062064634187,-0.03372627279972515)"><path d="M 0.0370242476136087 0.040240111391283084 C 0.03692265068505616 0.03989394881028013 0.03590760412600283 0.03506882249179697 0.03580508447097815 0.03608616041924763 C 0.03590760412600283 0.03506882249179697 0.03846162197727106 0.0268031258258098 0.03825448347390485 0.02803205626187515 C 0.03846162197727106 0.0268031258258098 0.03837669959617004 0.020616851149927083 0.03829074651137264 0.021338995186463417 C 0.03837669959617004 0.020616851149927083 0.03936885165648203 0.019201938876520455 0.039285920491473614 0.019366327823439146" fill="none" stroke="#000000" stroke-width="0.001"/>
<path d="M 0.039285920491473614 0.019366327823439146 C 0.03979542697173883 0.019821806235370925 0.04597204849187652 0.026079233618509192 0.04539999825465619 0.024832068766620485 C 0.04597204849187652 0.026079233618509192 0.04621306709507272 0.035123992486060546 0.0461505233381176 0.03433230604610362" fill="none" stroke="#000000" stroke-width="0.001"/>
<path d="M 0.0461505233381176 0.03433230604610362 C 0.04584789028973564 0.03473558104923083 0.04175840378049163 0.039663923195728375 0.04251892675753404 0.03917160608363009 C 0.04175840378049163 0.039663923195728375 0.03656635768494826 0.040329153500254164 0.0370242476136087 0.040240111391283084" fill="none" stroke="#000000" stroke-width="0.001"/>
</g><g transform="translate(0.30635174100639373,0.4831145570645297) rotate(0) scale(1,1) translate(-0.1355,-0.1355)"><path d="M 0.13808347958547912 0.1365856558020052 C 0.13791600099576248 0.1371095751735145 0.13481221151581846 0.13822956551074156 0.13525538957638153 0.138267950836402 C 0.13481221151581846 0.13822956551074156 0.13265042689579187 0.1355366933051282 0.13276534285872213 0.13612503189407985 C 0.13265042689579187 0.1355366933051282 0.1342513805040732 0.13086254497599972 0.13387639802121828 0.13120788776898215 C 0.1342513805040732 0.13086254497599972 0.13761572278333623 0.13242906571437604 0.13726513265298115 0.1319809183782908 C 0.13761572278333623 0.13242906571437604 0.13791600099576248 0.1371095751735145 0.13808347958547912 0.1365856558020052 Z" fill="#cccccc" stroke="#000000" stroke-width="0.001"/>
</g><g transform="translate(0.3149559860106993,0.48770164500221086) rotate(0) scale(1,1) translate(-0.1355,-0.1355)"><path d="M 0.13808347958547912 0.1365856558020052 C 0.13791600099576248 0.1371095751735145 0.13481221151581846 0.13822956551074156 0.13525538957638153 0.138267950836402 C 0.13481221151581846 0.13822956551074156 0.13265042689579187 0.1355366933051282 0.13276534285872213 0.13612503189407985 C 0.13265042689579187 0.1355366933051282 0.1342513805040732 0.13086254497599972 0.13387639802121828 0.13120788776898215 C 0.1342513805040732 0.13086254497599972 0.13761572278333623 0.13242906571437604 0.13726513265298115 0.1319809183782908 C 0.13761572278333623 0.13242906571437604 0.13791600099576248 0.1371095751735145 0.13808347958547912 0.1365856558020052 Z" fill="#cccccc" stroke="#000000" stroke-width="0.001"/>
</g></g>
<g id="脚輪">
<g transform="translate(0.3156076178544239,0.5051382213010739) rotate(0) scale(1,1) translate(-0.011152769902399133,-0.011152769902399133)"><path d="M -0.00042059140958308695 0.007630259568534003 C 0.0005438553664154317 0.007630259568534003 0.013081663454396172 0.007630259568534003 0.011152769902399136 0.007630259568534003 C 0.013081663454396172 0.007630259568534003 0.023690577990379862 0.007630259568534003 0.022726131214381346 0.007630259568534003" fill="none" stroke="#000000" stroke-width="0.001"/>
<path d="M 0.022726131214381346 0.007630259568534003 C 0.02272613121438135 0.007923802096356097 0.022726131214381367 0.011739854958043321 0.022726131214381367 0.011152769902399133 C 0.022726131214381367 0.011739854958043321 0.022726131214381343 0.01496882276408636 0.022726131214381346 0.014675280236264266" fill="none" stroke="#000000" stroke-width="0.001"/>
<path d="M 0.022726131214381346 0.014675280236264266 C 0.02176168443838283 0.014675280236264266 0.009223876350402097 0.014675280236264266 0.011152769902399133 0.014675280236264266 C 0.009223876350402097 0.014675280236264266 -0.0013850381855816053 0.014675280236264266 -0.00042059140958308695 0.014675280236264266" fill="none" stroke="#000000" stroke-width="0.001"/>
<path d="M -0.00042059140958308695 0.014675280236264266 C -0.00042059140958308695 0.014381737708442172 -0.00042059140958308695 0.010565684846754948 -0.00042059140958308695 0.011152769902399136 C -0.00042059140958308695 0.010565684846754948 -0.00042059140958308695 0.007336717040711909 -0.00042059140958308695 0.007630259568534003" fill="none" stroke="#000000" stroke-width="0.001"/>
</g><g transform="translate(0.3126351445000548,0.5051382213010739) rotate(0) scale(1,1) translate(-0.00775832499658671,-0.0077583249965867095)"><path d="M 0.01250749472688244 0.012417260502006828 C 0.011746644667782354 0.012334446854834796 0.0026164439585813055 0.01072982113221112 0.003377294017681393 0.01142349673594244 C 0.0026164439585813055 0.01072982113221112 0.004138144076781479 0.0033994776534996586 0.0033772940176813914 0.004093153257230979 C 0.004138144076781479 0.0033994776534996586 0.013268344785982523 0.0030165758439945622 0.012507494726882437 0.0030993894911665945" fill="none" stroke="#000000" stroke-width="0.001"/>
<path d="M 0.012507494726882437 0.0030993894911665945 C 0.012507494726882437 0.003164690574958161 0.012507494726882437 0.003974424013973585 0.012507494726882437 0.0038830024966653915 C 0.012507494726882437 0.003974424013973585 0.012507494726882437 0.004222568132381542 0.012507494726882437 0.004196447698864915" fill="none" stroke="#000000" stroke-width="0.001"/>
<path d="M 0.012507494726882437 0.004196447698864915 C 0.011867457996826048 0.0042593741977913335 0.004187017236149383 0.005482285403342488 0.004827053966205772 0.00495156568598194 C 0.004187017236149383 0.005482285403342488 0.005467090696262161 0.011095804024552038 0.004827053966205772 0.01056508430719149 C 0.005467090696262161 0.011095804024552038 0.01314753145693883 0.011383128793234935 0.01250749472688244 0.011320202294308516" fill="none" stroke="#000000" stroke-width="0.001"/>
<path d="M 0.01250749472688244 0.011320202294308516 C 0.01250749472688244 0.011346322727825143 0.01250749472688244 0.011725069013816225 0.01250749472688244 0.011633647496508033 C 0.01250749472688244 0.011725069013816225 0.01250749472688244 0.012482561585798394 0.01250749472688244 0.012417260502006828" fill="none" stroke="#000000" stroke-width="0.001"/>
</g><g transform="translate(0.3087877903636771,0.5051382213010739) rotate(0) scale(1,1) translate(-0.0022536622055164745,-0.002253662205516475)"><path d="M 0.0032253549489476094 0.0029352857919088043 C 0.003069140160039215 0.002925521473224477 0.001194562693138481 0.0027142743553158167 0.0013507774820468756 0.0028181139676968776 C 0.001194562693138481 0.0027142743553158167 0.0015069922709552695 0.0015853708309550112 0.0013507774820468751 0.001689210443336072 C 0.0015069922709552695 0.0015853708309550112 0.0033815697378560034 0.001562274300439819 0.003225354948947609 0.0015720386191241463" fill="none" stroke="#000000" stroke-width="0.001"/>
<path d="M 0.003225354948947609 0.0015720386191241463 C 0.003256597906729288 0.0016288405846568402 0.003600270442327755 0.002367266136581863 0.003600270442327755 0.0022536622055164745 C 0.003600270442327755 0.002367266136581863 0.0031941119911659305 0.0029920877574414985 0.0032253549489476094 0.0029352857919088043" fill="none" stroke="#000000" stroke-width="0.001"/>
</g><g transform="translate(0.3219643057763686,0.5051382213010739) rotate(0) scale(1,1) translate(-0.006469483550722008,-0.0064694835507220095)"><path d="M 0.0072305684433976065 0.0023048270180011377 C 0.007484263407622806 0.0036930458622414283 0.006976873479172407 0.012022358927683168 0.0072305684433976065 0.010634140083442878 C 0.006976873479172407 0.012022358927683168 0.0054547036938212105 0.00924592123920259 0.00570839865804641 0.010634140083442881 C 0.0054547036938212105 0.00924592123920259 0.005962093622271609 0.0009166081737608457 0.00570839865804641 0.0023048270180011363 C 0.005962093622271609 0.0009166081737608457 0.007484263407622806 0.0036930458622414283 0.0072305684433976065 0.0023048270180011377 Z" fill="#cccccc" stroke="#000000" stroke-width="0.001"/>
</g><g transform="translate(0.3052201642660936,0.5051382213010739) rotate(0) scale(1,1) translate(-0.009906215631991292,-0.007758324996586713)"><path d="M 0.009906215631991292 0.012417260502006828 C 0.00944970559653124 0.012234387666350384 0.003971585171010608 0.009629170058882594 0.004428095206470661 0.010222786474129504 C 0.003971585171010608 0.009629170058882594 0.0048846052419307135 0.004700247103797005 0.004428095206470661 0.005293863519043915 C 0.0048846052419307135 0.004700247103797005 0.010362725667451342 0.0029165166555101493 0.00990621563199129 0.0030993894911665928" fill="none" stroke="#000000" stroke-width="0.001"/>
<path d="M 0.00990621563199129 0.0030993894911665928 C 0.00990621563199129 0.003164690574958159 0.00990621563199129 0.0039744240139735825 0.00990621563199129 0.0038830024966653894 C 0.00990621563199129 0.0039744240139735825 0.009906215631991292 0.00422256813238154 0.009906215631991292 0.004196447698864913" fill="none" stroke="#000000" stroke-width="0.001"/>
<path d="M 0.009906215631991292 0.004196447698864913 C 0.009535390895334193 0.004343862330972719 0.005085494055449013 0.0064116548683377525 0.0054563187921061115 0.005965423284158593 C 0.005085494055449013 0.0064116548683377525 0.00582714352876321 0.009997458293193989 0.0054563187921061115 0.009551226709014829 C 0.00582714352876321 0.009997458293193989 0.01027704036864839 0.01146761692641632 0.009906215631991292 0.011320202294308513" fill="none" stroke="#000000" stroke-width="0.001"/>
<path d="M 0.009906215631991292 0.011320202294308513 C 0.009906215631991292 0.01134632272782514 0.009906215631991292 0.011725069013816225 0.009906215631991292 0.011633647496508033 C 0.009906215631991292 0.011725069013816225 0.009906215631991292 0.012482561585798394 0.009906215631991292 0.012417260502006828" fill="none" stroke="#000000" stroke-width="0.001"/>
</g><g transform="translate(0.32599507144275425,0.5051382213010739) rotate(0) scale(1,1) translate(-0.005610434361182026,-0.007758324996586713)"><path d="M 0.005610434361182026 0.012417260502006828 C 0.005610434361182026 0.012351959418215262 0.005610434361182026 0.01154222597919984 0.005610434361182026 0.011633647496508033 C 0.005610434361182026 0.01154222597919984 0.005610434361182026 0.011294081860791887 0.005610434361182026 0.011320202294308513" fill="none" stroke="#000000" stroke-width="0.001"/>
<path d="M 0.005610434361182026 0.011320202294308513 C 0.005981259097839132 0.011172787662200706 0.010431155937724396 0.009104995124835669 0.01006033120106729 0.009551226709014829 C 0.010431155937724396 0.009104995124835669 0.009689506464410184 0.005519191699979433 0.01006033120106729 0.005965423284158593 C 0.009689506464410184 0.005519191699979433 0.005239609624524921 0.004049033066757106 0.005610434361182026 0.004196447698864913" fill="none" stroke="#000000" stroke-width="0.001"/>
<path d="M 0.005610434361182026 0.004196447698864913 C 0.005610434361182026 0.004170327265348286 0.005610434361182026 0.003791580979357196 0.005610434361182026 0.0038830024966653894 C 0.005610434361182026 0.003791580979357196 0.005610434361182026 0.0030340884073750264 0.005610434361182026 0.0030993894911665928" fill="none" stroke="#000000" stroke-width="0.001"/>
<path d="M 0.005610434361182026 0.0030993894911665928 C 0.006066944396642082 0.0032822623268230363 0.01154506482216276 0.0058874799342908245 0.011088554786702703 0.005293863519043915 C 0.01154506482216276 0.0058874799342908245 0.010632044751242646 0.010816402889376414 0.011088554786702703 0.010222786474129504 C 0.010632044751242646 0.010816402889376414 0.00515392432572197 0.012600133337663272 0.005610434361182026 0.012417260502006828" fill="none" stroke="#000000" stroke-width="0.001"/>
</g></g>
</svg>
