<?xml version="1.0" encoding="UTF-8"?>
<svg xmlns="http://www.w3.org/2000/svg" viewBox="0 0 1 1">
<g id="中">
<g transform="translate(0.33734345282867056,0.22296548292119495) rotate(0) scale(1,1) translate(-0.05000000000000001,-0.05000000000000001)"><path d="M 0.05000000000000001 0.05977997059266612 C 0.051643797818683675 0.061541456225946076 0.07206643912501952 0.08493967319202558 0.06972557382420398 0.08091779819202559 C 0.07206643912501952 0.08493967319202558 0.07878745109191825 0.11030285995938616 0.07809038360978637 0.10804247059266611" fill="none" stroke="none" stroke-width="0"/>
<path d="M 0.07809038360978637 0.10804247059266611 C 0.07574951830897084 0.10804247059266611 0.04531826939836896 0.10804247059266611 0.05000000000000002 0.10804247059266611 C 0.04531826939836896 0.10804247059266611 0.01956875108939813 0.10804247059266611 0.02190961639021366 0.10804247059266611" fill="none" stroke="#000000" stroke-width="0.001"/>
<path d="M 0.02190961639021366 0.10804247059266611 C 0.022606683872345525 0.10578208122594607 0.03261529147661156 0.0768959231920256 0.03027442617579603 0.08091779819202559 C 0.03261529147661156 0.0768959231920256 0.051643797818683654 0.05801848495938616 0.04999999999999999 0.05977997059266612" fill="none" stroke="none" stroke-width="0"/>
</g><g transform="translate(0.3373434528286706,0.272964203513861) rotate(0) scale(1,1) translate(-0.011628401968068896,-0.011628401968068892)"><path d="M -0.005388226623103803 0.016229458481507704 C -0.005965140421940055 0.015846037105387803 -0.01231119220913882 0.01086155921582909 -0.01231119220913882 0.011628401968068892 C -0.01231119220913882 0.01086155921582909 -0.004811312824267562 0.006643924078510182 -0.005388226623103813 0.007027345454630083" fill="none" stroke="none" stroke-width="0"/>
<path d="M -0.005388226623103813 0.007027345454630083 C -0.0038229353243827502 0.007219056142690033 0.01652585155899106 0.00971129508746939 0.013395268961548934 0.009327873711349488 C 0.01652585155899106 0.00971129508746939 0.033744055844922745 0.011820112656128843 0.03217876454620168 0.011628401968068892" fill="none" stroke="#000000" stroke-width="0.001"/>
<path d="M 0.03217876454620168 0.011628401968068892 C 0.030613473247480618 0.011820112656128843 0.010264686364106816 0.0143123516009082 0.01339526896154894 0.013928930224788298 C 0.010264686364106816 0.0143123516009082 -0.006953517921824865 0.016421169169567654 -0.005388226623103803 0.016229458481507704" fill="none" stroke="#000000" stroke-width="0.001"/>
</g><g transform="translate(0.33734345282867056,0.26388234723812704) rotate(0) scale(1,1) translate(-0.011628401968068896,-0.011628401968068892)"><path d="M 0.024561039697360194 0.007027345454630083 C 0.025271087449774046 0.007410766830749984 0.03308161272632641 0.012395244720308694 0.03308161272632641 0.011628401968068892 C 0.03308161272632641 0.012395244720308694 0.023850991944946342 0.016612879857627605 0.024561039697360194 0.016229458481507704" fill="none" stroke="none" stroke-width="0"/>
<path d="M 0.024561039697360194 0.016229458481507704 C 0.023371418310332185 0.016037747793447753 0.007906340278968076 0.013545508848668397 0.010285583053024093 0.013928930224788298 C 0.007906340278968076 0.013545508848668397 -0.005179494978340011 0.011436691280008942 -0.003989873591312003 0.011628401968068892" fill="none" stroke="#000000" stroke-width="0.001"/>
<path d="M -0.003989873591312003 0.011628401968068892 C -0.0028002522042839956 0.011436691280008942 0.01266482582708011 0.008944452335229587 0.010285583053024093 0.009327873711349488 C 0.01266482582708011 0.008944452335229587 0.025750661084388202 0.006835634766570132 0.024561039697360194 0.007027345454630083" fill="none" stroke="#000000" stroke-width="0.001"/>
</g></g>
<g id="左">
<g transform="translate(0.32025568104403607,0.24974725005791132) rotate(0) scale(1,1) translate(-0.0495775971461754,-0.05000000000000001)"><path d="M 0.02924195189938378 0.09993380356931067 C 0.028871351995385697 0.09698750470607659 0.025358329467046876 0.059076441913059094 0.024794753051406763 0.06457821721050165 C 0.025358329467046876 0.059076441913059094 0.03693904520670331 0.03135702356579155 0.03600486888706512 0.03391250000000002" fill="none" stroke="#000000" stroke-width="0.001"/>
<path d="M 0.03600486888706512 0.03391250000000002 C 0.03713592957532431 0.033912500000000026 0.0529010919859374 0.03391250000000009 0.0495775971461754 0.03391250000000008 C 0.0529010919859374 0.03391250000000009 0.07807924111571188 0.03391250000000008 0.07588680696420907 0.03391250000000008" fill="none" stroke="#000000" stroke-width="0.001"/>
<path d="M 0.07588680696420907 0.03391250000000008 C 0.07442542203049429 0.036804952019456466 0.054463116504229574 0.07412369953091927 0.05835018775963168 0.06862192423347672 C 0.054463116504229574 0.07412369953091927 0.02681626557769648 0.10254312684729683 0.029241951899383802 0.09993380356931067" fill="none" stroke="#000000" stroke-width="0.001"/>
</g><g transform="translate(0.30172129001470477,0.2957277488812041) rotate(0) scale(1,1) translate(-0.06890552069993462,-0.06890552069993462)"><path d="M 0.06319969887151408 0.050683789652513474 C 0.06366352157690333 0.051831353243042555 0.0711654140996363 0.0641445046013915 0.06876557133618508 0.06445455273886246 C 0.0711654140996363 0.0641445046013915 0.09393383209099072 0.045505600274861925 0.09199781203292876 0.046963212002861965" fill="none" stroke="#000000" stroke-width="0.001"/>
<path d="M 0.09199781203292876 0.046963212002861965 C 0.09052874920020298 0.0488882470344862 0.07232090620929467 0.07300832522765138 0.07436905804021957 0.07006363238235282 C 0.07232090620929467 0.07300832522765138 0.06684090106363093 0.0833191839601191 0.06741999006183005 0.08229952614644477" fill="none" stroke="#000000" stroke-width="0.001"/>
<path d="M 0.06741999006183005 0.08229952614644477 C 0.06681938878295776 0.08134175662065052 0.05986108378283628 0.06817164712908619 0.06021277471536261 0.0708062918369138 C 0.05986108378283628 0.06817164712908619 0.06344860921786002 0.04900691447048011 0.06319969887151407 0.050683789652513474" fill="none" stroke="#000000" stroke-width="0.001"/>
</g><g transform="translate(0.3005125355292394,0.2853239386485958) rotate(0) scale(1,1) translate(-0.06890552069993462,-0.06890552069993462)"><path d="M 0.06384859490974132 0.05560353414281544 C 0.06443229028319034 0.05603108591115382 0.07384715370982968 0.059553824074675146 0.07085293939112952 0.060734155362875984 C 0.07384715370982968 0.059553824074675146 0.10218968567939431 0.03983167562786619 0.09977916673414317 0.0414395586844054" fill="none" stroke="#000000" stroke-width="0.001"/>
<path d="M 0.09977916673414317 0.0414395586844054 C 0.0978374561406854 0.043678545607577834 0.07382123277631489 0.07103312694451305 0.07647863961264997 0.06830740176247457 C 0.07382123277631489 0.07103312694451305 0.06717458845524474 0.07463499912773314 0.06789028469812207 0.0741482608688671" fill="none" stroke="none" stroke-width="0"/>
<path d="M 0.06789028469812207 0.0741482608688671 C 0.06727513816509154 0.07346146616493728 0.06017171881939062 0.0643613305278716 0.06050852630175568 0.06590672442170924 C 0.06017171881939062 0.0643613305278716 0.06412693396040678 0.05474493495290763 0.0638485949097413 0.05560353414281544" fill="none" stroke="#000000" stroke-width="0.001"/>
</g><g transform="translate(0.3117276916305118,0.26233982821574753) rotate(0) scale(1,1) translate(-0.016744898834019206,-0.016744898834019206)"><path d="M 0.00041020357517758643 0.019657166454459127 C 0.0012817676593329217 0.01926758873351687 0.012517021144501948 0.0141517585197059 0.010868972585041608 0.014982233803152063 C 0.012517021144501948 0.0141517585197059 0.02096327076400667 0.009250565490601272 0.020186786288701665 0.009691463053105179" fill="none" stroke="#000000" stroke-width="0.001"/>
<path d="M 0.020186786288701665 0.009691463053105179 C 0.020772687229570454 0.009286415438617393 0.028347281466291556 0.004000416395805595 0.027217597579127135 0.004830891679251757 C 0.028347281466291556 0.004000416395805595 0.03428677588097033 -0.000699668017207142 0.0337429929346747 -0.00027424034824876525" fill="none" stroke="none" stroke-width="0"/>
<path d="M 0.0337429929346747 -0.00027424034824876525 C 0.03426992868314106 -0.0007608081806189183 0.041035749261010446 -0.007099214606519136 0.040066221916271086 -0.006113054336690602 C 0.041035749261010446 -0.007099214606519136 0.045819912667819984 -0.01260775602364955 0.04537732107154699 -0.01210816358619117" fill="none" stroke="#000000" stroke-width="0.001"/>
<path d="M 0.04537732107154699 -0.01210816358619117 C 0.0457424520645574 -0.012238330164168582 0.05033606741147699 -0.013673999485540017 0.049758892987671915 -0.01367016252192011 C 0.05033606741147699 -0.013673999485540017 0.05251545758800251 -0.012027877535272563 0.05230341415720785 -0.012154207149630067" fill="none" stroke="#000000" stroke-width="0.001"/>
<path d="M 0.05230341415720785 -0.012154207149630067 C 0.05054256017137601 -0.010177895150081922 0.027007815779867272 0.01511145904729353 0.031173166327225752 0.011561536844947679 C 0.027007815779867272 0.01511145904729353 -8.528897262052599E-05 0.032018469481317834 0.0023192075889061107 0.030444859278520132" fill="none" stroke="#000000" stroke-width="0.001"/>
<path d="M 0.0023192075889061107 0.030444859278520132 C 0.0020535308382527446 0.030007058826456528 -0.0010279970867449948 0.024292279451751813 -0.000868913418934284 0.025191253853756895 C -0.0010279970867449948 0.024292279451751813 0.0005167966580202376 0.01919599250451765 0.00041020357517758215 0.01965716645445913" fill="none" stroke="#000000" stroke-width="0.001"/>
</g><g transform="translate(0.31449715240402987,0.2507144123923123) rotate(0) scale(1,1) translate(-0.017735275757644442,-0.016744898834019206)"><path d="M 0.0006945633527692782 0.021581042231721612 C 0.0017995796007462086 0.021028571925196873 0.015491751423319586 0.014139930724751771 0.013954758328492441 0.014951398553424729 C 0.015491751423319586 0.014139930724751771 0.019570457337545234 0.011584430765497903 0.01913848049069502 0.01184342828764612" fill="none" stroke="#000000" stroke-width="0.001"/>
<path d="M 0.01913848049069502 0.01184342828764612 C 0.019570040141150102 0.011591648060935083 0.025151319057805266 0.008301547110513365 0.024317196296156043 0.008822065567113683 C 0.025151319057805266 0.008301547110513365 0.02955051674167981 0.005328468578553037 0.029147953630485675 0.005597206808442318" fill="none" stroke="none" stroke-width="0"/>
<path d="M 0.029147953630485675 0.005597206808442318 C 0.029541087547230102 0.0052841554410083995 0.034535966061633075 0.001278208808628227 0.033865560631418795 0.0018405903992352933 C 0.034535966061633075 0.001278208808628227 0.037470090306526864 -0.0014007025020156259 0.03719281879305701 -0.0011513722788424783" fill="none" stroke="#000000" stroke-width="0.001"/>
<path d="M 0.03719281879305701 -0.0011513722788424783 C 0.037399403564456785 -0.0012178456001276051 0.04002242432578216 -0.0018789179072440992 0.03967183604985431 -0.0019490521342639994 C 0.04002242432578216 -0.0018789179072440992 0.041543881608719295 -0.00017315400629864904 0.04139987810419122 -0.000309761554603676" fill="none" stroke="#000000" stroke-width="0.001"/>
<path d="M 0.04139987810419122 -0.000309761554603676 C 0.039557193747263304 0.0013468890470332106 0.015737843447435493 0.0220603893587925 0.0192876658210562 0.019570045665038963 C 0.015737843447435493 0.0220603893587925 -0.002905128395950065 0.030408055862555405 -0.0011979903792572757 0.029574362770438754" fill="none" stroke="none" stroke-width="0"/>
<path d="M -0.0011979903792572757 0.029574362770438754 C -0.0011853893642404406 0.02922091159258473 -0.0008890653880530413 0.024666838591297355 -0.0010467781990552538 0.02533294863619045 C -0.0008890653880530413 0.024666838591297355 0.0008396751487546513 0.021268383364682546 0.000694563352769274 0.021581042231721616" fill="none" stroke="#000000" stroke-width="0.001"/>
</g><g transform="translate(0.3077501009676945,0.24183818815479863) rotate(0) scale(1,1) translate(-0.02120189008406099,-0.019715036973858124)"><path d="M 0.017271522200538222 0.017971305745092512 C 0.017729328030280146 0.017946897458139804 0.024406264775504047 0.017142180804576985 0.022765192157441317 0.017678406301660003 C 0.024406264775504047 0.017142180804576985 0.03814766040561179 0.011024782569965997 0.03696439361729098 0.011536599780096305" fill="none" stroke="none" stroke-width="0"/>
<path d="M 0.03696439361729098 0.011536599780096305 C 0.03730718969917497 0.011413216500239382 0.04166470350999293 0.010056000640045104 0.04107794659989884 0.010056000421813226 C 0.04166470350999293 0.010056000640045104 0.044249437366630076 0.011659985896967644 0.044005476538419984 0.011536602398878843" fill="none" stroke="#000000" stroke-width="0.001"/>
<path d="M 0.044005476538419984 0.011536602398878843 C 0.042954953830240894 0.0121779236400067 0.028812377230139474 0.020584699465497604 0.031399204040270925 0.019232457292413126 C 0.028812377230139474 0.020584699465497604 0.011427250714890196 0.028474429407849184 0.01296355481684256 0.027763508475892564" fill="none" stroke="#000000" stroke-width="0.001"/>
<path d="M 0.01296355481684256 0.027763508475892564 C 0.013041853503956254 0.027220696166902283 0.014262136344181543 0.020433743873775854 0.013903139062206905 0.02124976076800919 C 0.014262136344181543 0.020433743873775854 0.017552220795399157 0.017698101159849454 0.017271522200538215 0.017971305745092512" fill="none" stroke="#000000" stroke-width="0.001"/>
</g><g transform="translate(0.30701794188213977,0.23633183112908812) rotate(0) scale(1,1) translate(-0.06733824782050474,-0.06098934136132629)"><path d="M 0.06669484985596687 0.05910966426541873 C 0.06705565369275904 0.05915221960326911 0.07196210628759495 0.05963022189943174 0.07102449589747285 0.05962032831962326 C 0.07196210628759495 0.05963022189943174 0.07852298109076195 0.059195725465078605 0.07794617453743201 0.0592283872231205" fill="none" stroke="none" stroke-width="0"/>
<path d="M 0.07794617453743201 0.0592283872231205 C 0.07734066555156158 0.059431640506209284 0.0695834753490466 0.06201198096059757 0.07068006670698676 0.06166742662018592 C 0.0695834753490466 0.06201198096059757 0.06429599587008045 0.06350434036538312 0.06478707824215016 0.06336303930806025" fill="none" stroke="#000000" stroke-width="0.001"/>
<path d="M 0.06478707824215016 0.06336303930806025 C 0.06480032301802156 0.06313332489297906 0.06510499652042512 0.06025201840686582 0.06494601555260705 0.06060646632708595 C 0.06510499652042512 0.06025201840686582 0.06684058604791351 0.058984930760279795 0.06669484985596687 0.05910966426541873" fill="none" stroke="#000000" stroke-width="0.001"/>
</g></g>
<g id="右">
<g transform="translate(0.3544312246133051,0.24974725005791132) rotate(0) scale(1,1) translate(-0.0495775971461754,-0.05000000000000001)"><path d="M 0.06991324239296692 0.09993380356931067 C 0.0674875560712796 0.09732448029132451 0.03691793527731695 0.06312014893603418 0.040805006532719054 0.06862192423347672 C 0.03691793527731695 0.06312014893603418 0.02180700239442692 0.031020047980543693 0.0232683873281417 0.03391250000000008" fill="none" stroke="#000000" stroke-width="0.001"/>
<path d="M 0.0232683873281417 0.03391250000000008 C 0.025460821479644506 0.03391250000000008 0.05290109198593737 0.033912500000000075 0.04957759714617538 0.03391250000000008 C 0.05290109198593737 0.033912500000000075 0.0642813860935448 0.03391250000000001 0.06315032540528562 0.03391250000000002" fill="none" stroke="#000000" stroke-width="0.001"/>
<path d="M 0.06315032540528562 0.03391250000000002 C 0.06408450172492382 0.03646797643420849 0.07492401765658416 0.07007999250794421 0.07436044124094404 0.06457821721050165 C 0.07492401765658416 0.07007999250794421 0.06954264248896895 0.10288010243254475 0.06991324239296703 0.09993380356931067" fill="none" stroke="#000000" stroke-width="0.001"/>
</g><g transform="translate(0.3729656156426364,0.2957277488812041) rotate(0) scale(1,1) translate(-0.06890552069993462,-0.06890552069993462)"><path d="M 0.07461134252835512 0.050683789652513474 C 0.07486025287470108 0.052360664834546836 0.07724657575198024 0.0734409365447414 0.07759826668450658 0.0708062918369138 C 0.07724657575198024 0.0734409365447414 0.06979045005916683 0.08325729567223902 0.07039105133803912 0.08229952614644477" fill="none" stroke="#000000" stroke-width="0.001"/>
<path d="M 0.07039105133803912 0.08229952614644477 C 0.06981196233984 0.08127986833277044 0.061393831528724706 0.06711893953705425 0.0634419833596496 0.07006363238235282 C 0.061393831528724706 0.06711893953705425 0.044344166534214725 0.04503817697123773 0.04581322936694048 0.046963212002861965" fill="none" stroke="#000000" stroke-width="0.001"/>
<path d="M 0.04581322936694048 0.046963212002861965 C 0.04774924942500246 0.048420823730862005 0.0714453128271354 0.06476460087633341 0.06904547006368418 0.06445455273886246 C 0.0714453128271354 0.06476460087633341 0.07507516523374437 0.04953622606198439 0.07461134252835512 0.050683789652513474" fill="none" stroke="#000000" stroke-width="0.001"/>
</g><g transform="translate(0.37417437012810184,0.2853239386485958) rotate(0) scale(1,1) translate(-0.06890552069993462,-0.06890552069993462)"><path d="M 0.07396244649012788 0.05560353414281544 C 0.07424078554079336 0.056462133332723256 0.07696570761574849 0.06745211831554687 0.07730251509811355 0.06590672442170924 C 0.07696570761574849 0.06745211831554687 0.06930561016871668 0.07483505557279692 0.06992075670174722 0.0741482608688671" fill="none" stroke="#000000" stroke-width="0.001"/>
<path d="M 0.06992075670174722 0.0741482608688671 C 0.06920506045886989 0.07366152261000106 0.05867499495088416 0.0655816765804361 0.06133240178721926 0.06830740176247457 C 0.05867499495088416 0.0655816765804361 0.03609016407226824 0.03920057176123297 0.03803187466572601 0.0414395586844054" fill="none" stroke="none" stroke-width="0"/>
<path d="M 0.03803187466572601 0.0414395586844054 C 0.04044239361097715 0.04304744174094462 0.06995231632743983 0.06191448665107682 0.06695810200873967 0.060734155362875984 C 0.06995231632743983 0.06191448665107682 0.0745461418635769 0.055175982374477066 0.07396244649012788 0.05560353414281544" fill="none" stroke="#000000" stroke-width="0.001"/>
</g><g transform="translate(0.3629592140268294,0.26233982821574753) rotate(0) scale(1,1) translate(-0.016744898834019206,-0.016744898834019206)"><path d="M 0.033079594092860876 0.01965716645445913 C 0.03318618717570353 0.020118340404400612 0.03419962741916195 0.026090228255761978 0.034358711086972665 0.025191253853756895 C 0.03419962741916195 0.026090228255761978 0.03090491332847896 0.030882659730583736 0.03117059007913232 0.030444859278520132" fill="none" stroke="#000000" stroke-width="0.001"/>
<path d="M 0.03117059007913232 0.030444859278520132 C 0.028766093517605677 0.028871249075722426 -0.0018487192065458824 0.008011614642601828 0.0023166313408126034 0.011561536844947679 C -0.0018487192065458824 0.008011614642601828 -0.02057447047500135 -0.014130519149178213 -0.01881361648916951 -0.012154207149630067" fill="none" stroke="#000000" stroke-width="0.001"/>
<path d="M -0.01881361648916951 -0.012154207149630067 C -0.018601573058374843 -0.012280536763987571 -0.015691920895828423 -0.013666325558300201 -0.016269095319633498 -0.01367016252192011 C -0.015691920895828423 -0.013666325558300201 -0.011522392410498235 -0.011977997008213758 -0.01188752340350864 -0.01210816358619117" fill="none" stroke="#000000" stroke-width="0.001"/>
<path d="M -0.01188752340350864 -0.01210816358619117 C -0.011444931807235647 -0.01160857114873279 -0.005606896903493354 -0.005126894066862069 -0.006576424248232717 -0.006113054336690602 C -0.005606896903493354 -0.005126894066862069 0.0002737404818300931 0.00021232748412138784 -0.0002531952666362769 -0.00027424034824876525" fill="none" stroke="#000000" stroke-width="0.001"/>
<path d="M -0.0002531952666362769 -0.00027424034824876525 C 0.00029058767965935026 0.0001511873207096116 0.0074018839760756645 0.005661366962697919 0.006272200088911249 0.004830891679251757 C 0.0074018839760756645 0.005661366962697919 0.013888912320205494 0.010096510667592965 0.013303011379336706 0.009691463053105179" fill="none" stroke="none" stroke-width="0"/>
<path d="M 0.013303011379336706 0.009691463053105179 C 0.014079495854641709 0.010132360615609086 0.024268873642457098 0.015812709086598226 0.02262082508299675 0.014982233803152063 C 0.024268873642457098 0.015812709086598226 0.033951158177016216 0.020046744175401383 0.033079594092860876 0.019657166454459127" fill="none" stroke="#000000" stroke-width="0.001"/>
</g><g transform="translate(0.36018975325331126,0.2507144123923123) rotate(0) scale(1,1) translate(-0.017735275757644442,-0.016744898834019206)"><path d="M 0.03477598816251956 0.021581042231721616 C 0.03492109995850495 0.021893701098760685 0.036675042525346445 0.025999058681083542 0.03651732971434423 0.02533294863619045 C 0.036675042525346445 0.025999058681083542 0.03668114290956292 0.02992781394829278 0.036668541894546096 0.029574362770438754" fill="none" stroke="#000000" stroke-width="0.001"/>
<path d="M 0.036668541894546096 0.029574362770438754 C 0.03496140387785331 0.028740669678322103 0.012633063320612037 0.017079701971285426 0.016182885694232735 0.019570045665038963 C 0.012633063320612037 0.017079701971285426 -0.007772010945830203 -0.001966412156240563 -0.005929326588902285 -0.000309761554603676" fill="none" stroke="none" stroke-width="0"/>
<path d="M -0.005929326588902285 -0.000309761554603676 C -0.005785323084374217 -0.000446369102908703 -0.003850696258637629 -0.0020191863612838996 -0.004201284534565473 -0.0019490521342639994 C -0.003850696258637629 -0.0020191863612838996 -0.0015156825063683793 -0.0010848989575573515 -0.0017222672777681557 -0.0011513722788424783" fill="none" stroke="#000000" stroke-width="0.001"/>
<path d="M -0.0017222672777681557 -0.0011513722788424783 C -0.0014449957642982995 -0.0009020420556693307 0.0022753963140844007 0.0024029719898423594 0.0016049908838701196 0.0018405903992352933 C 0.0022753963140844007 0.0024029719898423594 0.006715731801547641 0.005910258175876236 0.006322597884803216 0.005597206808442318" fill="none" stroke="#000000" stroke-width="0.001"/>
<path d="M 0.006322597884803216 0.005597206808442318 C 0.006725160995997351 0.005865945038331598 0.011987477980782063 0.009342584023714 0.011153355219132839 0.008822065567113683 C 0.011987477980782063 0.009342584023714 0.016763630675048984 0.012095208514357157 0.016332071024593896 0.01184342828764612" fill="none" stroke="none" stroke-width="0"/>
<path d="M 0.016332071024593896 0.01184342828764612 C 0.016764047871444112 0.012102425809794337 0.023052786281623612 0.015762866382097687 0.021515793186796472 0.014951398553424729 C 0.023052786281623612 0.015762866382097687 0.035881004410496485 0.02213351253824635 0.03477598816251956 0.021581042231721612" fill="none" stroke="#000000" stroke-width="0.001"/>
</g><g transform="translate(0.3669368046896467,0.24183818815479863) rotate(0) scale(1,1) translate(-0.02120189008406099,-0.019715036973858124)"><path d="M 0.025132257967583886 0.017971305745092512 C 0.025412956562444827 0.01824451033033557 0.02885963838788983 0.022065777662242526 0.028500641105915197 0.02124976076800919 C 0.02885963838788983 0.022065777662242526 0.02951852403839321 0.028306320784882846 0.029440225351279516 0.027763508475892564" fill="none" stroke="#000000" stroke-width="0.001"/>
<path d="M 0.029440225351279516 0.027763508475892564 C 0.027903921249327154 0.027052587543935944 0.008417749317719738 0.01788021511932865 0.01100457612785119 0.019232457292413126 C 0.008417749317719738 0.01788021511932865 -0.002652219078476987 0.010895281157750986 -0.0016016963702978964 0.011536602398878843" fill="none" stroke="#000000" stroke-width="0.001"/>
<path d="M -0.0016016963702978964 0.011536602398878843 C -0.0013577355420877992 0.011413218900790043 0.001912590478317356 0.010056000203581347 0.0013258335682232688 0.010056000421813226 C 0.001912590478317356 0.010056000203581347 0.005782182632715141 0.011659983059953229 0.005439386550831151 0.011536599780096305" fill="none" stroke="#000000" stroke-width="0.001"/>
<path d="M 0.005439386550831151 0.011536599780096305 C 0.006622653339151956 0.012048416990226614 0.021279660628743542 0.01821463179874302 0.019638588010680812 0.017678406301660003 C 0.021279660628743542 0.01821463179874302 0.02559006379732581 0.01799571403204522 0.025132257967583886 0.017971305745092512" fill="none" stroke="none" stroke-width="0"/>
</g><g transform="translate(0.3676689637752014,0.23633183112908812) rotate(0) scale(1,1) translate(-0.06733824782050474,-0.06098934136132629)"><path d="M 0.06798164578504245 0.05910966426541873 C 0.06812738197698912 0.05923439777055766 0.06988946105622042 0.06096091424730608 0.06973048008840235 0.06060646632708595 C 0.06988946105622042 0.06096091424730608 0.0699026621747306 0.06359275372314145 0.06988941739885919 0.06336303930806025" fill="none" stroke="#000000" stroke-width="0.001"/>
<path d="M 0.06988941739885919 0.06336303930806025 C 0.06939833502678948 0.06322173825073739 0.06289983757608242 0.061322872279774274 0.06399642893402258 0.06166742662018592 C 0.06289983757608242 0.061322872279774274 0.056124812117706896 0.05902513394003172 0.056730321103577334 0.0592283872231205" fill="none" stroke="#000000" stroke-width="0.001"/>
<path d="M 0.056730321103577334 0.0592283872231205 C 0.057307127656907264 0.0592610489811624 0.06458961013365855 0.059610434739814776 0.06365199974353646 0.05962032831962326 C 0.06458961013365855 0.059610434739814776 0.06834244962183463 0.05906710892756835 0.06798164578504245 0.05910966426541873" fill="none" stroke="none" stroke-width="0"/>
</g></g>
</svg>
