<?xml version="1.0" encoding="UTF-8"?>
<svg xmlns="http://www.w3.org/2000/svg" viewBox="0 0 1 1">
<g transform="translate(0.33734345282867056,0.2229654829211949) rotate(0) scale(1,1) translate(-0.03181113772348237,-0.03181113772348236)"><path d="M 0.009791031169856423 0.02535362316553376 C 0.01003687574353523 0.024740008575704697 0.013658670493736525 0.016944982553257056 0.012741166054002112 0.017990248087585013 C 0.013658670493736525 0.016944982553257056 0.0223902487524594 0.012220790597845248 0.02080108444666938 0.012810436753598284 C 0.0223902487524594 0.012220790597845248 0.03364614660295115 0.010914494218548575 0.031811137723482326 0.010914494218548575 C 0.03364614660295115 0.010914494218548575 0.0444103553060853 0.01340008290935132 0.04282119100029528 0.012810436753598284 C 0.0444103553060853 0.01340008290935132 0.051798613832696974 0.01903551362191297 0.05088110939296256 0.017990248087585013 C 0.051798613832696974 0.01903551362191297 0.05407708885078705 0.02596723775536282 0.05383124427710824 0.02535362316553376" fill="none" stroke="#000000" stroke-width="0.001"/>
<path d="M 0.05383124427710824 0.02535362316553376 C 0.054074864686628456 0.02563782270431044 0.05720478618096826 0.029522706655005327 0.05675468919135084 0.02876401763085393 C 0.05720478618096826 0.029522706655005327 0.05943888473261443 0.034932380940725226 0.059232408152517235 0.03445789145535051" fill="none" stroke="#000000" stroke-width="0.001"/>
<path d="M 0.059232408152517235 0.03445789145535051 C 0.058296760283452494 0.03497202395726549 0.04437006985463261 0.04114161398024518 0.04800463372374036 0.0406274814783302 C 0.04437006985463261 0.04114161398024518 0.01198307785411656 0.040113348976415227 0.015617641723224308 0.0406274814783302 C 0.01198307785411656 0.040113348976415227 0.0034542194253826325 0.03394375895343555 0.004389867294447377 0.034457891455350526" fill="none" stroke="none" stroke-width="0"/>
<path d="M 0.004389867294447377 0.034457891455350526 C 0.004596343874544578 0.03398340196997581 0.007317683245231221 0.028005328606702535 0.0068675862556138 0.02876401763085393 C 0.007317683245231221 0.028005328606702535 0.01003465157937664 0.025069423626757077 0.009791031169856423 0.02535362316553376" fill="none" stroke="#000000" stroke-width="0.001"/>
</g><g transform="translate(0.3373434528286705,0.2317488820115735) rotate(0) scale(1,1) translate(-0.006729399287076907,-0.006729399287076907)"><path d="M -0.02069187114195801 0.0005927539285664532 C -0.019756223272893267 0.001106886430481427 -0.005829532844073379 0.007276476453461115 -0.009464096713181123 0.006762343951546141 C -0.005829532844073379 0.007276476453461115 0.026557459156442673 0.006248211449631167 0.022922895287334925 0.006762343951546141 C 0.026557459156442673 0.006248211449631167 0.03508631758517658 7.862142665148342E-05 0.03415066971611184 0.0005927539285664571" fill="none" stroke="#000000" stroke-width="0.001"/>
<path d="M 0.03415066971611184 0.0005927539285664571 C 0.03417184872421602 0.0009718134654636043 0.033916066151682536 0.0056928547168289805 0.034404817813362 0.0051414683713322225 C 0.033916066151682536 0.0056928547168289805 0.026746601377531605 0.0077104479008554124 0.0282856497759583 0.00720939007452755 C 0.026746601377531605 0.0077104479008554124 0.014272800067629874 0.012020163268227926 0.01593623703224164 0.011154162287266569 C 0.014272800067629874 0.012020163268227926 0.007690086964648412 0.01813867180929696 0.008324406200617121 0.017601401846063854" fill="none" stroke="#000000" stroke-width="0.001"/>
<path d="M 0.008324406200617121 0.017601401846063854 C 0.008191488957822103 0.017601401846063854 0.006463564801486877 0.01760140184606386 0.006729399287076911 0.01760140184606386 C 0.006463564801486877 0.01760140184606386 0.005001475130741684 0.01760140184606386 0.005134392373536701 0.01760140184606386" fill="none" stroke="#000000" stroke-width="0.001"/>
<path d="M 0.005134392373536701 0.01760140184606386 C 0.004500073137567991 0.017064131882830753 -0.004140875422699589 0.010288161306305216 -0.0024774384580878222 0.011154162287266576 C -0.004140875422699589 0.010288161306305216 -0.016365899600231205 0.006708332248199692 -0.014826851201804506 0.007209390074527554 C -0.016365899600231205 0.006708332248199692 -0.021434770900887683 0.004590082025835468 -0.020946019239208226 0.005141468371332226 C -0.021434770900887683 0.004590082025835468 -0.020670692133853825 0.0002136943916693055 -0.02069187114195801 0.0005927539285664532" fill="none" stroke="#000000" stroke-width="0.001"/>
</g><g transform="translate(0.3373434528286705,0.2279751960102086) rotate(0) scale(1,1) translate(-0.05564574782993492,-0.12056097869157315)"><path d="M 0.045593690630838526 0.11424397195399015 C 0.046012526347467546 0.11442289732735085 0.05145739066364477 0.11683556869555234 0.05061971923038674 0.11639107643431858 C 0.05145739066364477 0.11683556869555234 0.056064583546563955 0.1198434459766683 0.055645747829934936 0.11957787908879523" fill="none" stroke="#000000" stroke-width="0.001"/>
<path d="M 0.055645747829934936 0.11957787908879523 C 0.05606458354656395 0.11931231220092217 0.061509447862741144 0.11594658417308482 0.060671776429483106 0.11639107643431858 C 0.061509447862741144 0.11594658417308482 0.06611664074566041 0.11406504658062948 0.06569780502903139 0.11424397195399018" fill="none" stroke="#000000" stroke-width="0.001"/>
<path d="M 0.06569780502903139 0.11424397195399018 C 0.0659895553984038 0.11430214887334349 0.06966554166460698 0.11580200821957555 0.06919880946150037 0.11494209498622983 C 0.06966554166460698 0.11580200821957555 0.07147357330004488 0.12536466706813132 0.07129859146631068 0.12456293075413889" fill="none" stroke="#000000" stroke-width="0.001"/>
<path d="M 0.07129859146631068 0.12456293075413889 C 0.07057250355172025 0.12481120602323373 0.06134891127613604 0.12826427310927788 0.0625855364912255 0.1275422339832769 C 0.06134891127613604 0.12826427310927788 0.05594855158473803 0.1337011641230568 0.05645908888523706 0.13322740026615065" fill="none" stroke="#000000" stroke-width="0.001"/>
<path d="M 0.05645908888523706 0.13322740026615065 C 0.05639131046396188 0.13322740026615065 0.05551019098738457 0.13322740026615065 0.05564574782993493 0.13322740026615065 C 0.05551019098738457 0.13322740026615065 0.054764628353357624 0.13322740026615065 0.0548324067746328 0.13322740026615065" fill="none" stroke="#000000" stroke-width="0.001"/>
<path d="M 0.0548324067746328 0.13322740026615065 C 0.05432186947413377 0.1327536364092445 0.047469333953554876 0.12682019485727594 0.04870595916864436 0.1275422339832769 C 0.047469333953554876 0.12682019485727594 0.03926681627896855 0.12431465548504406 0.039992904193559 0.12456293075413889" fill="none" stroke="#000000" stroke-width="0.001"/>
<path d="M 0.039992904193559 0.12456293075413889 C 0.04016788602729321 0.12376119444014647 0.042559418401476125 0.1140821817528841 0.0420926861983695 0.11494209498622983 C 0.042559418401476125 0.1140821817528841 0.04588544100021095 0.11418579503463684 0.045593690630838526 0.11424397195399015" fill="none" stroke="#000000" stroke-width="0.001"/>
</g><g id="鎧左">
<g transform="translate(0.2989848982253758,0.23284461751754548) rotate(0) scale(1,1) translate(-0.06815509906222245,-0.06361885217922258)"><path d="M 0.0418440026157967 0.0750487221123458 C 0.04296814495234019 0.07441846530709328 0.05758199532740563 0.0662251268388107 0.055333710654318635 0.06748564044931571 C 0.05758199532740563 0.0662251268388107 0.06994756102938407 0.059292301981033114 0.06882341869284057 0.05992255878628562" fill="none" stroke="#000000" stroke-width="0.001"/>
<path d="M 0.08367476682605705 0.07108010008598717 C 0.08328604181640248 0.07131830187390155 0.07823261669089297 0.0744149251167884 0.07901006671020212 0.07393852154095966 C 0.07823261669089297 0.0744149251167884 0.07395664158469262 0.07703514478384654 0.07434536659434719 0.07679694299593216" fill="none" stroke="#000000" stroke-width="0.001"/>
<path d="M 0.07434536659434719 0.07679694299593216 C 0.07320198868502142 0.07663859649875313 0.058480728364162196 0.07498955653684904 0.06062483168243797 0.07489678502978366 C 0.058480728364162196 0.07498955653684904 0.04761540136608787 0.07816131908496124 0.04861612677503788 0.0779102010807168" fill="none" stroke="#000000" stroke-width="0.001"/>
<path d="M 0.04861612677503788 0.0779102010807168 C 0.04838360494009076 0.0778310087630614 0.04526152107573573 0.07672143668815427 0.04582586475567249 0.07695989326885186 C 0.04526152107573573 0.07672143668815427 0.04151218077080707 0.07488945784930365 0.04184400261579672 0.07504872211234581" fill="none" stroke="#000000" stroke-width="0.001"/>
</g><g transform="translate(0.31404115908116365,0.23118403576851154) rotate(0) scale(1,1) translate(-0.07593467079720921,-0.07593467079720916)"><path d="M 0.0735905683315896 0.07093962466366699 C 0.07381306103642171 0.07138650359579397 0.07687528708335986 0.07717212472416063 0.07626048078957501 0.07630217184919079 C 0.07687528708335986 0.07717212472416063 0.08136055744596049 0.08180213310614785 0.08096824385700777 0.081379059163305" fill="none" stroke="#000000" stroke-width="0.001"/>
<path d="M 0.08096824385700777 0.081379059163305 C 0.08090220444701951 0.0815196644763718 0.07982321434252115 0.08344602272173456 0.08017577093714878 0.08306632292010649 C 0.07982321434252115 0.08344602272173456 0.07628559375620846 0.08622167629107032 0.0767375647214762 0.08593545678284173 C 0.07628559375620846 0.08622167629107032 0.07458666557330733 0.08654808203851694 0.0747521193539357 0.08650095701884962" fill="none" stroke="#000000" stroke-width="0.001"/>
<path d="M 0.0747521193539357 0.08650095701884962 C 0.07445569623309417 0.08626907173180952 0.07047069116426252 0.08337014129220235 0.07119504190383726 0.08371833357436845 C 0.07047069116426252 0.08337014129220235 0.06523731986138435 0.0822824317425036 0.06605991047903896 0.08232264963285653 C 0.06523731986138435 0.0822824317425036 0.06092929149306054 0.08331180799490646 0.061323954491981955 0.0832357188901334" fill="none" stroke="#000000" stroke-width="0.001"/>
<path d="M 0.061323954491981955 0.0832357188901334 C 0.06095383810788617 0.08311601166504827 0.05619416219829326 0.08158382108700495 0.05688255788283249 0.08179923218911192 C 0.05619416219829326 0.08158382108700495 0.052744926977067785 0.08055508178782791 0.053063206277511224 0.08065078566484976" fill="none" stroke="#000000" stroke-width="0.001"/>
<path d="M 0.053063206277511224 0.08065078566484976 C 0.05298866309603903 0.08057174369165473 0.052029135488722386 0.07956193188055284 0.05216868809984493 0.07970228198650951 C 0.052029135488722386 0.07956193188055284 0.05132356551439039 0.07890527626060802 0.05138857494404074 0.07896658439336968" fill="none" stroke="#000000" stroke-width="0.001"/>
<path d="M 0.05138857494404074 0.07896658439336968 C 0.051935320913706264 0.07861860006057131 0.05903772619930957 0.07410327321670496 0.057949526580027035 0.0747907723997893 C 0.05903772619930957 0.07410327321670496 0.06498842402504817 0.07037707934607146 0.06444697037543116 0.07071659419635745" fill="none" stroke="#000000" stroke-width="0.001"/>
<path d="M 0.06444697037543116 0.07071659419635745 C 0.06467422051197458 0.07080080922951175 0.06763845808658672 0.07180864763292773 0.06717397201395206 0.07172717459420905 C 0.06763845808658672 0.07180864763292773 0.07047848756660516 0.07160977341850333 0.07002080324704703 0.0716942706609816 C 0.07047848756660516 0.07160977341850333 0.07296366427236144 0.07065032051802696 0.07266618384864956 0.07071320768446984 C 0.07296366427236144 0.07065032051802696 0.07366760037183456 0.07095849274526679 0.07359056833158956 0.07093962466366703" fill="none" stroke="#000000" stroke-width="0.001"/>
</g></g>
<g id="鎧右">
<g transform="translate(0.37570200743196513,0.23284461751754548) rotate(0) scale(1,1) translate(-0.06815509906222245,-0.06361885217922258)"><path d="M 0.09446619550864808 0.07504872211234585 C 0.09413437366365843 0.07520798637538803 0.0899199896888355 0.07719834984954953 0.09048433336877226 0.07695989326885194 C 0.0899199896888355 0.07719834984954953 0.0874615495144598 0.07798939339837228 0.0876940713494069 0.07791020108071688" fill="none" stroke="#000000" stroke-width="0.001"/>
<path d="M 0.0876940713494069 0.07791020108071688 C 0.0866933459404569 0.07765908307647244 0.07354126312373105 0.07480401352271834 0.07568536644200682 0.07489678502978372 C 0.07354126312373105 0.07480401352271834 0.060821453620771855 0.07695528949311126 0.061964831530097624 0.07679694299593222" fill="none" stroke="#000000" stroke-width="0.001"/>
<path d="M 0.061964831530097624 0.07679694299593222 C 0.06157610652044304 0.07655874120801784 0.05652268139493351 0.07346211796513098 0.057300131414242665 0.07393852154095973 C 0.05652268139493351 0.07346211796513098 0.05224670628873312 0.0708418982980729 0.0526354312983877 0.07108010008598727" fill="none" stroke="#000000" stroke-width="0.001"/>
<path d="M 0.06748677943160424 0.059922558786285676 C 0.06861092176814773 0.06055281559153818 0.08322477214321317 0.06874615405982076 0.08097648747012617 0.06748564044931575 C 0.08322477214321317 0.06874615405982076 0.09559033784519158 0.07567897891759837 0.09446619550864808 0.07504872211234585" fill="none" stroke="#000000" stroke-width="0.001"/>
</g><g transform="translate(0.3606457465761774,0.23118403576851154) rotate(0) scale(1,1) translate(-0.07593467079720921,-0.07593467079720916)"><path d="M 0.07827877326282882 0.07093962466366706 C 0.07835580530307382 0.0709207565820673 0.07950063816948066 0.07077609485091278 0.07920315774576879 0.0707132076844699 C 0.07950063816948066 0.07077609485091278 0.08230622266692948 0.0717787679034599 0.08184853834737135 0.07169427066098163 C 0.08230622266692948 0.0717787679034599 0.08515985565310097 0.07164570155549038 0.08469536958046632 0.07172717459420906 C 0.08515985565310097 0.07164570155549038 0.08764962135553059 0.07063237916320318 0.08742237121898719 0.07071659419635748" fill="none" stroke="#000000" stroke-width="0.001"/>
<path d="M 0.08742237121898719 0.07071659419635748 C 0.0879638248686042 0.07105610904664347 0.09500801463367384 0.07547827158287371 0.0939198150143913 0.07479077239978936 C 0.09500801463367384 0.07547827158287371 0.10102751262004316 0.07931456872616809 0.10048076665037763 0.07896658439336972" fill="none" stroke="#000000" stroke-width="0.001"/>
<path d="M 0.10048076665037763 0.07896658439336972 C 0.10041575722072728 0.07902789252613136 0.09956110088345092 0.0798426320924662 0.09970065349457347 0.07970228198650953 C 0.09956110088345092 0.0798426320924662 0.09873159213543493 0.08072982763804482 0.09880613531690713 0.08065078566484979" fill="none" stroke="#000000" stroke-width="0.001"/>
<path d="M 0.09880613531690713 0.08065078566484979 C 0.09848785601646369 0.08074648954187164 0.09429838802704667 0.08201464329121891 0.09498678371158589 0.08179923218911193 C 0.09429838802704667 0.08201464329121891 0.09017527071834065 0.08335542611521855 0.09054538710243644 0.08323571889013343" fill="none" stroke="#000000" stroke-width="0.001"/>
<path d="M 0.09054538710243644 0.08323571889013343 C 0.09015072410351502 0.08315962978536036 0.08498684049772476 0.08236286752320952 0.08580943111537936 0.0823226496328566 C 0.08498684049772476 0.08236286752320952 0.07994994895100639 0.08406652585653457 0.08067429969058112 0.08371833357436848 C 0.07994994895100639 0.08406652585653457 0.0768207991196411 0.08673284230588976 0.07711722224048263 0.08650095701884966" fill="none" stroke="#000000" stroke-width="0.001"/>
<path d="M 0.07711722224048263 0.08650095701884966 C 0.07695176845985426 0.08645383199918234 0.07467980590767437 0.08564923727461318 0.07513177687294212 0.08593545678284178 C 0.07467980590767437 0.08564923727461318 0.07134101406264198 0.08268662311847844 0.07169357065726961 0.08306632292010649 C 0.07134101406264198 0.08268662311847844 0.07083505832742229 0.08123845385023828 0.07090109773741055 0.08137905916330507" fill="none" stroke="#000000" stroke-width="0.001"/>
<path d="M 0.07090109773741055 0.08137905916330507 C 0.07129341132636327 0.08095598522046221 0.07622366709862818 0.075432218974221 0.07560886080484333 0.07630217184919084 C 0.07622366709862818 0.075432218974221 0.07850126596766094 0.07049274573154002 0.07827877326282881 0.070939624663667" fill="none" stroke="#000000" stroke-width="0.001"/>
</g></g>
<g id="鎧中">
<g transform="translate(0.33734345282867056,0.23816128807393477) rotate(0) scale(1,1) translate(-0.06815509906222245,-0.06361885217922258)"><path d="M 0.06815509906222245 0.07756339566822926 C 0.06795460144316051 0.07748595139350188 0.06534813239535543 0.07647917582204597 0.06574912763347929 0.07663406437150072 C 0.06534813239535543 0.07647917582204597 0.06314265858567426 0.07562728880004484 0.06334315620473618 0.07570473307477221" fill="none" stroke="#000000" stroke-width="0.001"/>
<path d="M 0.06334315620473618 0.07570473307477221 C 0.0631269315197006 0.07522835056977217 0.05996708204295605 0.0691142114707064 0.06074845998430921 0.06998814301477174 C 0.05996708204295605 0.0691142114707064 0.05340146765218078 0.0648200055069228 0.05396662090849835 0.0652175545459881" fill="none" stroke="#000000" stroke-width="0.001"/>
<path d="M 0.05396662090849835 0.0652175545459881 C 0.05396662090849835 0.06501465790920494 0.05396662090849835 0.06245180847651828 0.05396662090849835 0.06278279490459023 C 0.05396662090849835 0.06245180847651828 0.05396662090849835 0.061117627617836026 0.05396662090849835 0.06124571740912481" fill="none" stroke="#000000" stroke-width="0.001"/>
<path d="M 0.08234357721594654 0.06124571740912481 C 0.08234357721594654 0.06137380720041359 0.08234357721594654 0.06311378133266217 0.08234357721594654 0.06278279490459023 C 0.08234357721594654 0.06311378133266217 0.08234357721594654 0.06542045118277126 0.08234357721594654 0.0652175545459881" fill="none" stroke="#000000" stroke-width="0.001"/>
<path d="M 0.08234357721594654 0.0652175545459881 C 0.08177842395962898 0.0656151035850534 0.07478036019878263 0.07086207455883708 0.07556173814013578 0.06998814301477174 C 0.07478036019878263 0.07086207455883708 0.07275081723467315 0.07618111557977225 0.07296704191970874 0.07570473307477221" fill="none" stroke="#000000" stroke-width="0.001"/>
<path d="M 0.07296704191970874 0.07570473307477221 C 0.07276654430064682 0.07578217734949959 0.07016007525284178 0.07678895292095547 0.07056107049096563 0.07663406437150072 C 0.07016007525284178 0.07678895292095547 0.06795460144316057 0.07764083994295663 0.0681550990622225 0.07756339566822926" fill="none" stroke="#000000" stroke-width="0.001"/>
</g><g transform="translate(0.3373434528286705,0.23609931689398808) rotate(0) scale(1,1) translate(-0.08579707501459224,-0.08579707501459216)"><path d="M 0.08489324665656045 0.08499317172242046 C 0.08496856568639644 0.08499317172242046 0.0859477130742642 0.08499317172242046 0.08579707501459224 0.08499317172242046 C 0.0859477130742642 0.08499317172242046 0.08677622240245994 0.08499317172242046 0.08670090337262397 0.08499317172242046" fill="none" stroke="#000000" stroke-width="0.001"/>
<path d="M 0.08670090337262397 0.08499317172242046 C 0.08724707353615432 0.0847950753619125 0.0943353955841197 0.08234253599853662 0.09325494533498824 0.08261601539632481 C 0.0943353955841197 0.08234253599853662 0.10020058644780258 0.08163603591168198 0.09966630636220147 0.0817114189489622" fill="none" stroke="#000000" stroke-width="0.001"/>
<path d="M 0.09966630636220147 0.0817114189489622 C 0.09979892248050741 0.08175666285369516 0.10146374879883413 0.08248660388656884 0.10125769978187271 0.08225434580575784 C 0.10146374879883413 0.08248660388656884 0.10220746012403713 0.0847569815777425 0.10213889456573855 0.08449851591869406 C 0.10220746012403713 0.0847569815777425 0.1020756191410987 0.08542738519730951 0.10208048648145561 0.0853559337143391" fill="none" stroke="#000000" stroke-width="0.001"/>
<path d="M 0.10208048648145561 0.0853559337143391 C 0.10141663032954724 0.08551332924834605 0.09314503073424601 0.08757005379404084 0.0941142126585553 0.08724468012242258 C 0.09314503073424601 0.08757005379404084 0.09014497761734326 0.08942839591136965 0.09045030338974419 0.08926041777375834" fill="none" stroke="#000000" stroke-width="0.001"/>
<path d="M 0.09045030338974419 0.08926041777375834 C 0.09033370826126677 0.0894287923898067 0.08884453526791644 0.09157126169646042 0.08905116184801508 0.09128091316633859 C 0.08884453526791644 0.09157126169646042 0.08788075297693933 0.09286657404929373 0.08797078442856054 0.09274460013522026" fill="none" stroke="#000000" stroke-width="0.001"/>
<path d="M 0.08797078442856054 0.09274460013522026 C 0.08778964197739653 0.09274460013522026 0.0854347901122642 0.09274460013522026 0.08579707501459224 0.09274460013522026 C 0.0854347901122642 0.09274460013522026 0.0834422231494599 0.09274460013522026 0.08362336560062393 0.09274460013522026" fill="none" stroke="#000000" stroke-width="0.001"/>
<path d="M 0.08362336560062393 0.09274460013522026 C 0.08353333414900271 0.0926226262211468 0.08233636160107075 0.09099056463621676 0.08254298818116938 0.09128091316633859 C 0.08233636160107075 0.09099056463621676 0.08102725151096282 0.08909204315771 0.08114384663944026 0.08926041777375834" fill="none" stroke="#000000" stroke-width="0.001"/>
<path d="M 0.08114384663944026 0.08926041777375834 C 0.08083852086703933 0.08909243963614703 0.07651075544631983 0.08691930645080431 0.07747993737062911 0.08724468012242258 C 0.07651075544631983 0.08691930645080431 0.06884980739582049 0.08519853818033214 0.06951366354772884 0.0853559337143391" fill="none" stroke="#000000" stroke-width="0.001"/>
<path d="M 0.06951366354772884 0.0853559337143391 C 0.06950879620737192 0.08528448223136868 0.06952382102174451 0.08424005025964562 0.06945525546344593 0.08449851591869406 C 0.06952382102174451 0.08424005025964562 0.0705424992642732 0.08202208772494685 0.07033645024731178 0.08225434580575784 C 0.0705424992642732 0.08202208772494685 0.0720604597852889 0.08166617504422923 0.07192784366698296 0.0817114189489622" fill="none" stroke="#000000" stroke-width="0.001"/>
<path d="M 0.07192784366698296 0.0817114189489622 C 0.07246212375258407 0.08178680198624241 0.07941965494332766 0.08288949479411299 0.0783392046941962 0.08261601539632481 C 0.07941965494332766 0.08288949479411299 0.0854394168200908 0.08519126808292843 0.08489324665656045 0.08499317172242046" fill="none" stroke="#000000" stroke-width="0.001"/>
</g></g>
</svg>
