<?xml version="1.0" encoding="UTF-8"?>
<svg xmlns="http://www.w3.org/2000/svg" viewBox="0 0 1 1">
<g transform="translate(0.3373434528286707,0.07439478626293816) rotate(0) scale(1,1) translate(-0.18294501755560244,-0.17151790391238764)"><path d="M 0.18294501755560244 0.1771656262374324 C 0.18214574144411624 0.1771656262374324 0.17854899894242843 0.16901551681725188 0.17814936088668534 0.16964244831111192 C 0.17854899894242843 0.16901551681725188 0.18814031228026268 0.17026937980497195 0.1877406742245196 0.16964244831111192 C 0.18814031228026268 0.17026937980497195 0.18214574144411624 0.1771656262374324 0.18294501755560244 0.1771656262374324 Z" fill="#cccccc" stroke="none" stroke-width="0"/>
</g><g transform="translate(0.3129577314292855,0.09061884933651274) rotate(0) scale(1,1) translate(-0.17199583769089846,-0.15739337258770392)"><path d="M 0.17925481705303895 0.14316204219110687 C 0.17900585739755417 0.14397200386419928 0.17585558023959355 0.15464767900504547 0.17626730118722164 0.15288158226821574 C 0.17585558023959355 0.15464767900504547 0.17415140438935867 0.165311338096801 0.17431416568150196 0.1643552030330637" fill="none" stroke="none" stroke-width="0"/>
<path d="M 0.17431416568150196 0.1643552030330637 C 0.174307128633746 0.16548607315197486 0.1741826309257239 0.18016374590219586 0.17422972110843044 0.1779256444599976 C 0.1741826309257239 0.18016374590219586 0.17370903035407276 0.19231965166272988 0.17374908348902335 0.19121242033944277" fill="none" stroke="none" stroke-width="0"/>
<path d="M 0.17374908348902335 0.19121242033944277 C 0.17375606409466676 0.19237144053219796 0.17403465192327658 0.20698472789108738 0.17383285075674415 0.20512066265250486 C 0.17403465192327658 0.20698472789108738 0.17636551804830136 0.21428624824826017 0.17617069748741235 0.21358120320243285" fill="none" stroke="none" stroke-width="0"/>
<path d="M 0.17617069748741235 0.21358120320243285 C 0.1756671880739257 0.21192913258786325 0.16949258228273995 0.19169905538006993 0.1701285845255727 0.19375635582759773 C 0.16949258228273995 0.19169905538006993 0.1684061777440731 0.18848836799914107 0.16853867057341923 0.18889359783209927" fill="none" stroke="#000000" stroke-width="0.001"/>
<path d="M 0.16853867057341923 0.18889359783209927 C 0.16836376472925724 0.18763060857245392 0.166405331783732 0.1712789809076184 0.16643980044347526 0.173737726716355 C 0.166405331783732 0.1712789809076184 0.16826548384091927 0.15819289157816857 0.1681250466565005 0.15938864812725984" fill="none" stroke="#000000" stroke-width="0.001"/>
<path d="M 0.1681250466565005 0.15938864812725984 C 0.16851897063736404 0.15855282415218497 0.1737796152932411 0.14800654326501517 0.1728521344268629 0.14935876042636126 C 0.1737796152932411 0.14800654326501517 0.17978837393855363 0.14264564900483567 0.17925481705303895 0.14316204219110687" fill="none" stroke="#000000" stroke-width="0.001"/>
</g><g transform="translate(0.33292955934003177,0.07935596154029032) rotate(0) scale(1,1) translate(-0.18233721705154246,-0.14882968924032608)"><path d="M 0.18828821864890796 0.14113418372672246 C 0.18836646102394544 0.14150898248647367 0.18913239098202225 0.14631973628867928 0.18922712714935755 0.14563176884373713 C 0.18913239098202225 0.14631973628867928 0.18697840609851163 0.14970296175121933 0.1871513846408844 0.1493897930660284" fill="none" stroke="none" stroke-width="0"/>
<path d="M 0.1871513846408844 0.1493897930660284 C 0.18721876009674024 0.1504108899006494 0.18687894329708687 0.16283860183781473 0.18795989011115438 0.1616429550814805 C 0.18687894329708687 0.16283860183781473 0.17303170060215112 0.16391210406375242 0.17418002287207446 0.1637375541420392" fill="none" stroke="none" stroke-width="0"/>
<path d="M 0.17418002287207446 0.1637375541420392 C 0.17359102955905809 0.1642576837770685 0.16635956998295798 0.17133490449497765 0.16711210311587787 0.1699791097623909 C 0.16635956998295798 0.17133490449497765 0.16498608545713211 0.18084275603063774 0.16514962527703564 0.1800070909330803" fill="none" stroke="none" stroke-width="0"/>
<path d="M 0.16514962527703564 0.1800070909330803 C 0.1651496179234639 0.18098121284829927 0.16530066389865491 0.1949925073517875 0.16514953703417462 0.1916965539157079 C 0.16530066389865491 0.1949925073517875 0.16711428186885124 0.2218803636868961 0.1669631476507992 0.21955853216603546" fill="none" stroke="#000000" stroke-width="0.001"/>
<path d="M 0.1669631476507992 0.21955853216603546 C 0.16653391062426737 0.21751830302071234 0.1612033926067959 0.19116059801135193 0.16181230333241722 0.1950757824221582 C 0.1612033926067959 0.19116059801135193 0.1594765452442537 0.1707013639708772 0.1596562189433432 0.17257631923636035" fill="none" stroke="#000000" stroke-width="0.001"/>
<path d="M 0.1596562189433432 0.17257631923636035 C 0.1598985129525078 0.17123351663642683 0.1634050583180737 0.1542154821064634 0.16256374705331844 0.1564626880371581 C 0.1634050583180737 0.1542154821064634 0.17035097137599706 0.1447054447372627 0.1697519541204064 0.1456098480680239" fill="none" stroke="#000000" stroke-width="0.001"/>
<path d="M 0.1697519541204064 0.1456098480680239 C 0.17053395836359297 0.14520622085288737 0.18068069374935394 0.14039334945794385 0.1791360050386455 0.14076632148638563 C 0.18068069374935394 0.14039334945794385 0.18905090311642983 0.1411648389134172 0.18828821864890796 0.14113418372672246" fill="none" stroke="#000000" stroke-width="0.001"/>
</g><g transform="translate(0.3129577314292855,0.09061884933651274) rotate(0) scale(1,1) translate(-0.11911739335740366,-0.12684064787770738)"><path d="M 0.13069183421722966 0.12068269020483846 C 0.13036681575967493 0.12122995694988857 0.12621555211079402 0.1284443930246756 0.12679161272657288 0.12724989114543975 C 0.12621555211079402 0.1284443930246756 0.12352806466965921 0.13566394788985472 0.12377910682788335 0.13501671275566896" fill="none" stroke="none" stroke-width="0"/>
<path d="M 0.12377910682788335 0.13501671275566896 C 0.12414157952411665 0.13446523328075416 0.12913884366769532 0.12739971245496157 0.1281287791826831 0.12839895905669127 C 0.12913884366769532 0.12739971245496157 0.13654747243680893 0.12257798640809778 0.13589988064803002 0.12302575353491266" fill="none" stroke="none" stroke-width="0"/>
<path d="M 0.13589988064803002 0.12302575353491266 C 0.13539437873566548 0.12371922201263424 0.12904868222953228 0.13255953446903837 0.12983385769965552 0.13134737526757173 C 0.12904868222953228 0.13255953446903837 0.12619810144879237 0.13809035467625744 0.12647777500655108 0.13757166395251239" fill="none" stroke="none" stroke-width="0"/>
<path d="M 0.12647777500655108 0.13757166395251239 C 0.12664853967736897 0.13704070476204733 0.12889094249315844 0.13036250603737035 0.12852695105636577 0.13120015366693152 C 0.12889094249315844 0.13036250603737035 0.13103889901403795 0.12721320395868213 0.13084567224806318 0.12751989239777825" fill="none" stroke="none" stroke-width="0"/>
<path d="M 0.13084567224806318 0.12751989239777825 C 0.13051554020458483 0.127901974347292 0.12609418315057258 0.1334645795139699 0.12688408772632306 0.13210487579194338 C 0.12609418315057258 0.1334645795139699 0.1209070448067851 0.14481395883460926 0.12136681733905726 0.1438363370620965" fill="none" stroke="none" stroke-width="0"/>
<path d="M 0.12136681733905726 0.1438363370620965 C 0.12147369073526561 0.1430053064557728 0.12296816730515658 0.1324358587511487 0.12264929809355749 0.13386396978621223 C 0.12296816730515658 0.1324358587511487 0.12540524369363718 0.12610192421259409 0.12519324787824643 0.12669900464133393" fill="none" stroke="none" stroke-width="0"/>
<path d="M 0.12519324787824643 0.12669900464133393 C 0.12490144864543648 0.1271461424367952 0.1211003716439178 0.13333632344793278 0.1216916570845271 0.13206465818686924 C 0.1211003716439178 0.13333632344793278 0.11779833638313551 0.14278351523969873 0.11809782259093486 0.14195898777409646" fill="none" stroke="none" stroke-width="0"/>
<path d="M 0.11809782259093486 0.14195898777409646 C 0.1181333883413351 0.14115480507127032 0.11864561181700574 0.13113536627322506 0.11852461159573772 0.13230879534018286 C 0.11864561181700574 0.13113536627322506 0.11963525971701873 0.12750859260647124 0.11954982524615096 0.1278778389706029" fill="none" stroke="none" stroke-width="0"/>
<path d="M 0.11954982524615096 0.1278778389706029 C 0.1193347887996369 0.12799927425063642 0.11671458917513124 0.12919612388348212 0.11696938788798222 0.1293350623310053 C 0.11671458917513124 0.12919612388348212 0.11645247842560222 0.12595020387276798 0.11649224069193914 0.1262105776003247" fill="none" stroke="none" stroke-width="0"/>
<path d="M 0.11649224069193914 0.1262105776003247 C 0.11663230379888526 0.12630411382343923 0.11880804816267304 0.1270270266120247 0.11817299797529258 0.127333012277699 C 0.11880804816267304 0.1270270266120247 0.12460783002093896 0.12213922772344427 0.12411284294050462 0.12253874961223309" fill="none" stroke="none" stroke-width="0"/>
<path d="M 0.12411284294050462 0.12253874961223309 C 0.12388537181644317 0.12294277731135712 0.12101677222852791 0.12825182971688268 0.12138318945176717 0.12738708200172147 C 0.12101677222852791 0.12825182971688268 0.11957689016245573 0.13337644221020473 0.11971583626163354 0.13291572219416756" fill="none" stroke="none" stroke-width="0"/>
<path d="M 0.11971583626163354 0.13291572219416756 C 0.1200448038990352 0.13237559387962655 0.12457811440675308 0.12541476308723157 0.1236634479104534 0.12643418241967566 C 0.12457811440675308 0.12541476308723157 0.1312775330761277 0.12020339918693536 0.13069183421722966 0.12068269020483846" fill="none" stroke="none" stroke-width="0"/>
</g><g transform="translate(0.3617291742280557,0.09061884933651274) rotate(0) scale(1,1) translate(-0.17199583769089846,-0.15739337258770392)"><path d="M 0.1647368583287578 0.14316204219110687 C 0.1652704152142725 0.14367843537737807 0.17206702182131223 0.15071097758770735 0.17113954095493403 0.14935876042636126 C 0.17206702182131223 0.15071097758770735 0.17626055270615978 0.1602244721023347 0.17586662872529626 0.15938864812725984" fill="none" stroke="#000000" stroke-width="0.001"/>
<path d="M 0.17586662872529626 0.15938864812725984 C 0.17600706590971504 0.1605844046763511 0.17751740627857834 0.17619647252509163 0.17755187493832156 0.173737726716355 C 0.17751740627857834 0.17619647252509163 0.17527809896421562 0.19015658709174463 0.1754530048083776 0.18889359783209927" fill="none" stroke="#000000" stroke-width="0.001"/>
<path d="M 0.1754530048083776 0.18889359783209927 C 0.1753205119790315 0.18929882766505748 0.17322708861339148 0.19581365627512554 0.17386309085622423 0.19375635582759773 C 0.17322708861339148 0.19581365627512554 0.1673174684808978 0.21523327381700244 0.16782097789438444 0.21358120320243285" fill="none" stroke="#000000" stroke-width="0.001"/>
<path d="M 0.16782097789438444 0.21358120320243285 C 0.16801579845527345 0.21287615815660552 0.1703606257915851 0.20325659741392235 0.17015882462505266 0.20512066265250486 C 0.1703606257915851 0.20325659741392235 0.17024957249841688 0.1900534001466876 0.17024259189277346 0.19121242033944277" fill="none" stroke="none" stroke-width="0"/>
<path d="M 0.17024259189277346 0.19121242033944277 C 0.17020253875782287 0.19010518901615567 0.16971486409065997 0.17568754301779932 0.16976195427336652 0.1779256444599976 C 0.16971486409065997 0.17568754301779932 0.16967047265253885 0.16322433291415253 0.16967750970029483 0.1643552030330637" fill="none" stroke="none" stroke-width="0"/>
<path d="M 0.16967750970029483 0.1643552030330637 C 0.16951474840815153 0.16339906796932638 0.16731265324694708 0.151115485531386 0.16772437419457517 0.15288158226821574 C 0.16731265324694708 0.151115485531386 0.16448789867327304 0.14235208051801446 0.1647368583287578 0.14316204219110687" fill="none" stroke="none" stroke-width="0"/>
</g><g transform="translate(0.34175734631730964,0.07935596154029032) rotate(0) scale(1,1) translate(-0.17728282351693694,-0.14882968924032608)"><path d="M 0.1713318219195714 0.14113418372672246 C 0.17209450638709325 0.14110352854002772 0.18202872424054223 0.1411392935148274 0.18048403552983378 0.14076632148638563 C 0.18202872424054223 0.1411392935148274 0.19065009069125952 0.14601347528316044 0.18986808644807293 0.1456098480680239" fill="none" stroke="#000000" stroke-width="0.001"/>
<path d="M 0.18986808644807293 0.1456098480680239 C 0.1904671037036636 0.1465142513987851 0.1978976047799161 0.1587098939678528 0.19705629351516085 0.1564626880371581 C 0.1978976047799161 0.1587098939678528 0.20020611563430069 0.17391912183629388 0.1999638216251361 0.17257631923636035" fill="none" stroke="#000000" stroke-width="0.001"/>
<path d="M 0.1999638216251361 0.17257631923636035 C 0.1997841479260466 0.1744512745018435 0.1971988265104408 0.19899096683296447 0.19780773723606213 0.1950757824221582 C 0.1971988265104408 0.19899096683296447 0.19222765589114826 0.22159876131135858 0.1926568929176801 0.21955853216603546" fill="none" stroke="#000000" stroke-width="0.001"/>
<path d="M 0.1926568929176801 0.21955853216603546 C 0.19280802713573214 0.21723670064517484 0.194621630398785 0.18840060047962828 0.1944705035343047 0.1916965539157079 C 0.194621630398785 0.18840060047962828 0.1944704079378719 0.1790329690178613 0.19447041529144365 0.1800070909330803" fill="none" stroke="#000000" stroke-width="0.001"/>
<path d="M 0.19447041529144365 0.1800070909330803 C 0.19430687547154013 0.17917142583552284 0.1917554043196815 0.16862331502980413 0.1925079374526014 0.1699791097623909 C 0.1917554043196815 0.16862331502980413 0.18485102438338852 0.16321742450700988 0.1854400176964049 0.1637375541420392" fill="none" stroke="none" stroke-width="0"/>
<path d="M 0.1854400176964049 0.1637375541420392 C 0.18429169542648155 0.16356300422032596 0.17057920364325746 0.16044730832514625 0.17166015045732497 0.1616429550814805 C 0.17057920364325746 0.16044730832514625 0.17253603138345072 0.1483686962314074 0.1724686559275949 0.1493897930660284" fill="none" stroke="none" stroke-width="0"/>
<path d="M 0.1724686559275949 0.1493897930660284 C 0.17239744610048335 0.14905476874579787 0.1715194018349212 0.14468153377832008 0.1716141380022565 0.14536950122326223 C 0.1715194018349212 0.14468153377832008 0.17130829557934762 0.1407812406020108 0.1713318219195714 0.14113418372672246" fill="none" stroke="none" stroke-width="0"/>
</g><g transform="translate(0.3617291742280557,0.09061884933651274) rotate(0) scale(1,1) translate(-0.11911739335740366,-0.12684064787770738)"><path d="M 0.10754295249757771 0.12068269020483846 C 0.10812865135647573 0.12116198122274156 0.1154860053006536 0.12745360175211976 0.11457133880435393 0.12643418241967566 C 0.1154860053006536 0.12745360175211976 0.11884791809057545 0.13345585050870856 0.11851895045317379 0.13291572219416756" fill="none" stroke="none" stroke-width="0"/>
<path d="M 0.11851895045317379 0.13291572219416756 C 0.118380004353996 0.1324550021781304 0.11648518003980096 0.12652233428656026 0.11685159726304022 0.12738708200172147 C 0.11648518003980096 0.12652233428656026 0.11389447265024132 0.12213472191310905 0.11412194377430276 0.12253874961223309" fill="none" stroke="none" stroke-width="0"/>
<path d="M 0.11412194377430276 0.12253874961223309 C 0.11461693085473709 0.1229382715010219 0.12069683892689521 0.1276389979433733 0.12006178873951476 0.127333012277699 C 0.12069683892689521 0.1276389979433733 0.12188260912981433 0.12611704137721017 0.12174254602286821 0.1262105776003247" fill="none" stroke="none" stroke-width="0"/>
<path d="M 0.12174254602286821 0.1262105776003247 C 0.12170278375653129 0.12647095132788141 0.1210106001139741 0.1294740007785285 0.12126539882682509 0.1293350623310053 C 0.1210106001139741 0.1294740007785285 0.11846992502214237 0.12775640369056937 0.11868496146865642 0.1278778389706029" fill="none" stroke="none" stroke-width="0"/>
<path d="M 0.11868496146865642 0.1278778389706029 C 0.1187703959395242 0.12824708533473456 0.11983117534033762 0.13348222440714066 0.11971017511906962 0.13230879534018286 C 0.11983117534033762 0.13348222440714066 0.12017252987427268 0.1427631704769226 0.12013696412387245 0.14195898777409646" fill="none" stroke="none" stroke-width="0"/>
<path d="M 0.12013696412387245 0.14195898777409646 C 0.1198374779160731 0.1411344603084942 0.1159518441896709 0.1307929929258057 0.1165431296302802 0.13206465818686924 C 0.1159518441896709 0.1307929929258057 0.11274973960375095 0.12625186684587267 0.1130415388365609 0.12669900464133393" fill="none" stroke="none" stroke-width="0"/>
<path d="M 0.1130415388365609 0.12669900464133393 C 0.11325353465195165 0.12729608507007378 0.11590435783284897 0.13529208082127578 0.11558548862124987 0.13386396978621223 C 0.11590435783284897 0.13529208082127578 0.11697484277195845 0.1446673676684202 0.1168679693757501 0.1438363370620965" fill="none" stroke="none" stroke-width="0"/>
<path d="M 0.1168679693757501 0.1438363370620965 C 0.11640819684347796 0.14285871528958374 0.11056079441273385 0.13074517206991687 0.11135069898848435 0.13210487579194338 C 0.11056079441273385 0.13074517206991687 0.10705898242326585 0.1271378104482645 0.10738911446674419 0.12751989239777825" fill="none" stroke="none" stroke-width="0"/>
<path d="M 0.10738911446674419 0.12751989239777825 C 0.10758234123271897 0.12782658083687437 0.11007182709523419 0.1320378012964927 0.10970783565844153 0.13120015366693152 C 0.11007182709523419 0.1320378012964927 0.11192777637907414 0.13810262314297744 0.11175701170825625 0.13757166395251239" fill="none" stroke="none" stroke-width="0"/>
<path d="M 0.11175701170825625 0.13757166395251239 C 0.11147733815049754 0.13705297322876733 0.10761575354502857 0.1301352160661051 0.1084009290151518 0.13134737526757173 C 0.10761575354502857 0.1301352160661051 0.10182940415441287 0.12233228505719107 0.1023349060667774 0.12302575353491266" fill="none" stroke="none" stroke-width="0"/>
<path d="M 0.1023349060667774 0.12302575353491266 C 0.10298249785555631 0.12347352066172754 0.11111607201713647 0.12939820565842097 0.11010600753212425 0.12839895905669127 C 0.11111607201713647 0.12939820565842097 0.11481815258315732 0.13556819223058375 0.11445567988692401 0.13501671275566896" fill="none" stroke="none" stroke-width="0"/>
<path d="M 0.11445567988692401 0.13501671275566896 C 0.11420463772869988 0.13436947762148319 0.11086711337245554 0.12605538926620388 0.1114431739882344 0.12724989114543975 C 0.11086711337245554 0.12605538926620388 0.10721793404002299 0.12013542345978835 0.10754295249757771 0.12068269020483846" fill="none" stroke="none" stroke-width="0"/>
</g><g transform="translate(0.3347665044579903,0.09469060430334211) rotate(0) scale(1,1) translate(-0.17175142008376063,-0.17000147314616015)"><path d="M 0.1624443938762119 0.15936321005773862 C 0.16263909100326432 0.15935792123573728 0.16523262003195344 0.1595294720361198 0.16478075940084097 0.1592997441937224 C 0.16523262003195344 0.1595294720361198 0.16812388495362146 0.16235496083090642 0.1678667214495614 0.16211994416650766" fill="none" stroke="none" stroke-width="0"/>
<path d="M 0.1678667214495614 0.16211994416650766 C 0.1680598752629677 0.16224346329766315 0.17055008391900214 0.16391400822007005 0.17018456721043682 0.16360217374037342 C 0.17055008391900214 0.16391400822007005 0.17242528484750427 0.1660502732714083 0.17225292195234523 0.16586195792286718" fill="none" stroke="none" stroke-width="0"/>
<path d="M 0.17225292195234523 0.16586195792286718 C 0.17226252911717715 0.16609294284103854 0.1722994822089117 0.1691520605672076 0.17236820793032837 0.1686337769409235 C 0.1722994822089117 0.1691520605672076 0.17134988040909668 0.17236866014638935 0.17142821329534527 0.1720813614382766" fill="none" stroke="#000000" stroke-width="0.001"/>
<path d="M 0.17142821329534527 0.1720813614382766 C 0.17112913951185113 0.17205728984899718 0.16727523477084907 0.17175030786018466 0.1678393278934156 0.1717925023669236 C 0.16727523477084907 0.17175030786018466 0.16439407648547438 0.17155690443995011 0.1646590958245468 0.17157502735740962" fill="none" stroke="#000000" stroke-width="0.001"/>
<path d="M 0.1646590958245468 0.17157502735740962 C 0.16447549178144721 0.17144619912745165 0.16217659520921412 0.16968323548271763 0.16245584730735194 0.17002908859791396 C 0.16217659520921412 0.16968323548271763 0.16121242259185473 0.16720776508981516 0.16130807064689298 0.16742478997505353" fill="none" stroke="none" stroke-width="0"/>
<path d="M 0.16130807064689298 0.16742478997505353 C 0.16127609541145863 0.16708477523782475 0.16101906142412384 0.1626728148018654 0.1609243678216806 0.1633446131283083 C 0.16101906142412384 0.1626728148018654 0.1625710627140895 0.15903142646852447 0.1624443938762119 0.15936321005773862" fill="none" stroke="none" stroke-width="0"/>
</g><g transform="translate(0.33696230500515867,0.09389895795106015) rotate(0) scale(1,1) translate(-0.17295983519055422,-0.17005901672267412)"><path d="M 0.16364908444955406 0.15869244215764988 C 0.16394210395504938 0.15872335754562003 0.1676520015776333 0.1593022811217741 0.1671653185154979 0.1590634268132917 C 0.1676520015776333 0.1593022811217741 0.16968294475181872 0.16176663277995124 0.16948928119517867 0.16155869385943897" fill="none" stroke="none" stroke-width="0"/>
<path d="M 0.16948928119517867 0.16155869385943897 C 0.16960472911172353 0.16176162975739716 0.17113019241628863 0.16446252299572509 0.17087465619371706 0.16399392463493748 C 0.17113019241628863 0.16446252299572509 0.1726958041720643 0.1674475366517197 0.17255571586603757 0.16718187418889027" fill="none" stroke="#000000" stroke-width="0.001"/>
<path d="M 0.17255571586603757 0.16718187418889027 C 0.17265345408508662 0.1674450175850314 0.1738002595003166 0.17082119712465274 0.17372857449462614 0.1703395949425839 C 0.1738002595003166 0.17082119712465274 0.17338988272096445 0.17317955915964406 0.17341593593432303 0.17296110037371634" fill="none" stroke="#000000" stroke-width="0.001"/>
<path d="M 0.17341593593432303 0.17296110037371634 C 0.17316430413733808 0.17280163791712988 0.1698713442788349 0.17076462103406384 0.17039635437050377 0.17104755089467877 C 0.1698713442788349 0.17076462103406384 0.1668424365396127 0.1694424746423087 0.16711581483429663 0.16956594204633715" fill="none" stroke="#000000" stroke-width="0.001"/>
<path d="M 0.16711581483429663 0.16956594204633715 C 0.16696328547061143 0.1694589209707862 0.16497003735232207 0.16794324612337178 0.16528546247007408 0.1682816891397256 C 0.16497003735232207 0.16794324612337178 0.16316781766720584 0.16527320390928849 0.16333071342127262 0.16550462585009135" fill="none" stroke="#000000" stroke-width="0.001"/>
<path d="M 0.16333071342127262 0.16550462585009135 C 0.16320645240000337 0.16520041970862384 0.16186611208506502 0.16128647017811124 0.16183958116604155 0.16185415215248136 C 0.16186611208506502 0.16128647017811124 0.16379987638984678 0.15842896632474726 0.16364908444955406 0.15869244215764988" fill="none" stroke="none" stroke-width="0"/>
</g><g id="編み左">
<g id="編節1">
<g transform="translate(0.3129577314292855,0.09061884933651274) rotate(0) scale(1,1) translate(-0.18027204884513678,-0.12848593137462816)"><path d="M 0.18148015649647106 0.13016232655993948 C 0.18147553236232805 0.13038164708146308 0.1813671065335975 0.1332044962385103 0.18142466688675496 0.1327941728182226 C 0.1813671065335975 0.1332044962385103 0.18073649603956715 0.13527721050215613 0.1807894322585816 0.13508620760339202" fill="none" stroke="#000000" stroke-width="0.001"/>
<path d="M 0.1807894322585816 0.13508620760339202 C 0.1806622462676783 0.13518192422694025 0.17899422117560104 0.1363517613488291 0.179263200367742 0.13623480708597085 C 0.17899422117560104 0.1363517613488291 0.17741988875165277 0.13651089639700087 0.1775616819528904 0.13648965875769087" fill="none" stroke="#000000" stroke-width="0.001"/>
<path d="M 0.1775616819528904 0.13648965875769087 C 0.17750843185644288 0.13654312431137666 0.17680617056274922 0.13719016130215148 0.17692268079552015 0.13713124540192034 C 0.17680617056274922 0.13719016130215148 0.17604397934955765 0.1371580746304593 0.17616355915963938 0.13719664956046437 C 0.17604397934955765 0.1371580746304593 0.17539711500068944 0.13654261660296105 0.1754877230745395 0.1366683462418594 C 0.17539711500068944 0.13654261660296105 0.17503890429603605 0.13550869870110005 0.1750762622734386 0.13568789389368419 C 0.17503890429603605 0.13550869870110005 0.17506532950462977 0.13433335839172017 0.17503942734570893 0.13451800393084964 C 0.17506532950462977 0.13433335839172017 0.1754160599167205 0.1333849927152373 0.17538708818048884 0.13347214742413055" fill="none" stroke="#000000" stroke-width="0.001"/>
<path d="M 0.17538708818048884 0.13347214742413055 C 0.17538603197067146 0.13325268898499967 0.17542190645207656 0.1304143527743947 0.17537441366268022 0.13083864615456 C 0.17542190645207656 0.1304143527743947 0.17600555065245857 0.12817579192111234 0.17595700165324485 0.12838062686214677" fill="none" stroke="#000000" stroke-width="0.001"/>
<path d="M 0.17595700165324485 0.12838062686214677 C 0.1760748007102479 0.12827962898006276 0.17762950196566113 0.12703772805440292 0.1773705903372813 0.12716865227713875 C 0.17762950196566113 0.12703772805440292 0.17920505376517942 0.126779609848665 0.17906394119380264 0.1268095361893168" fill="none" stroke="#000000" stroke-width="0.001"/>
</g><g transform="translate(0.31105889954006194,0.09386633519465398) rotate(0) scale(1,1) translate(-0.10433725337565573,-0.10418740031181734)"><path d="M 0.1074426825075449 0.10260728048883422 C 0.10725458299105614 0.10281871455667363 0.10577954796671585 0.10418509197839254 0.10631408540861231 0.10387588489587068 C 0.10577954796671585 0.10418509197839254 0.10387777810458945 0.1041026467690811 0.10423545785616607 0.10446252298396536 C 0.10387777810458945 0.1041026467690811 0.10429935432234501 0.10084968350298185 0.10416800689915257 0.10171662760656518 C 0.10429935432234501 0.10084968350298185 0.10502354239532076 0.09926085836246534 0.10502354239532076 0.09926085836246534 C 0.10502354239532076 0.09926085836246534 0.10403665947596012 0.10258357171014851 0.10416800689915257 0.10171662760656518 C 0.10403665947596012 0.10258357171014851 0.10396018699109025 0.10500381473697916 0.10423545785616607 0.10446252298396536 C 0.10396018699109025 0.10500381473697916 0.10203664999233049 0.10520855078643669 0.10251638170869759 0.10496437812464798 C 0.10203664999233049 0.10520855078643669 0.10116384853284113 0.10608808909303921 0.10135706755796349 0.1059275589546976" fill="none" stroke="#000000" stroke-width="0.001"/>
</g></g>
<g id="編節2">
<g transform="translate(0.30916006765083837,0.09711382105279523) rotate(0) scale(1,1) translate(-0.13796833536796266,-0.11460177227368223)"><path d="M 0.13938203154071174 0.11521981853458556 C 0.13943455045636835 0.1153999045620633 0.14007069967994484 0.11774760369523599 0.140012258528591 0.11738085086431846 C 0.14007069967994484 0.11774760369523599 0.14008924759265498 0.11980751930903569 0.14008332535695775 0.1196208525055959" fill="none" stroke="#000000" stroke-width="0.001"/>
<path d="M 0.14008332535695775 0.1196208525055959 C 0.14000434981268098 0.11977579372894688 0.13894666314675927 0.12173874192106711 0.13913561882563655 0.12148014718580766 C 0.13894666314675927 0.12173874192106711 0.13770587707582996 0.12282764284061776 0.13781585721043046 0.12272398932870929" fill="none" stroke="#000000" stroke-width="0.001"/>
<path d="M 0.13781585721043046 0.12272398932870929 C 0.13778622829392562 0.12279968322781969 0.1373805815175252 0.12375100142237923 0.13746031021237215 0.12363231611803409 C 0.1373805815175252 0.12375100142237923 0.13675186664889322 0.12418997378513073 0.13685911287226693 0.12414821298085103 C 0.13675186664889322 0.12418997378513073 0.1360673283189315 0.1240870922998228 0.1361733555318877 0.12413344576939055 C 0.1360673283189315 0.1240870922998228 0.13551038802034132 0.12346992397735988 0.13558678631679266 0.12359197134603803 C 0.13551038802034132 0.12346992397735988 0.13523027745636249 0.1225038385713399 0.13525657597447172 0.12266887734525278 C 0.13523027745636249 0.1225038385713399 0.13527242310989956 0.12152339178523588 0.13527120409948204 0.12161150605908334" fill="none" stroke="#000000" stroke-width="0.001"/>
<path d="M 0.13527120409948204 0.12161150605908334 C 0.13521402556617335 0.12143477334411107 0.13451483974698414 0.119118810262991 0.13458506169977755 0.11949071347941605 C 0.13451483974698414 0.119118810262991 0.13441549724647633 0.11695349696052988 0.13442854066596105 0.11714866746198266" fill="none" stroke="#000000" stroke-width="0.001"/>
<path d="M 0.13442854066596105 0.11714866746198266 C 0.13449851923737888 0.11699518332603626 0.13544545840041256 0.11504311270985879 0.13526828352297487 0.11530685783062576 C 0.13544545840041256 0.11504311270985879 0.13666183550123326 0.11387346502795832 0.13655463919521338 0.1139837260127789" fill="none" stroke="#000000" stroke-width="0.001"/>
</g><g transform="translate(0.3084476652943351,0.10089680876290223) rotate(0) scale(1,1) translate(-0.10433725337565573,-0.10418740031181734)"><path d="M 0.10645980520642277 0.10101608235456618 C 0.10636093758351041 0.10130170686355712 0.10551079656701257 0.10330579218795909 0.10586659946894861 0.10272982940851184 C 0.10551079656701257 0.10330579218795909 0.10394145622525501 0.10439916005173182 0.10432498779480648 0.10447185903124966 C 0.10394145622525501 0.10439916005173182 0.10344985643637755 0.1015128125219442 0.10356541005163979 0.10229363553140484 C 0.10344985643637755 0.1015128125219442 0.10363166610323309 0.0997869209744858 0.10363166610323309 0.0997869209744858 C 0.10363166610323309 0.0997869209744858 0.10368096366690202 0.10307445854086549 0.10356541005163979 0.10229363553140484 C 0.10368096366690202 0.10307445854086549 0.10423980617594346 0.10507726159011721 0.10432498779480648 0.10447185903124966 C 0.10423980617594346 0.10507726159011721 0.1027264438814729 0.10641602037319747 0.1030543203384617 0.10592605088461013 C 0.1027264438814729 0.10641602037319747 0.10224163050527574 0.10765928014246767 0.10235772905287373 0.10741167596277373" fill="none" stroke="#000000" stroke-width="0.001"/>
</g></g>
<g id="編節3">
<g transform="translate(0.30773526293783193,0.1046797964730093) rotate(0) scale(1,1) translate(-0.13796833536796266,-0.11460177227368223)"><path d="M 0.13928487422229538 0.11430959349649668 C 0.13937119639072942 0.11442786040679763 0.1404564077751189 0.11599710921464265 0.14032074024350402 0.11572879642010804 C 0.1404564077751189 0.11599710921464265 0.1409622299648547 0.11767939291514576 0.14091288460167387 0.11752934703091208" fill="none" stroke="#000000" stroke-width="0.001"/>
<path d="M 0.14091288460167387 0.11752934703091208 C 0.1408844503444628 0.11770136905167897 0.1404769467472478 0.11991305536065672 0.1405716735151412 0.11959361128011461 C 0.1404769467472478 0.11991305536065672 0.13970987087627104 0.12151009805719255 0.13977616338695337 0.12136267599741733" fill="none" stroke="#000000" stroke-width="0.001"/>
<path d="M 0.13977616338695337 0.12136267599741733 C 0.13976967823617864 0.12144164740239999 0.1396606515528085 0.12245298702303878 0.13969834157765676 0.12231033285720928 C 0.1396606515528085 0.12245298702303878 0.1392451149381362 0.12316953912058846 0.1393238830887742 0.12307452598737131 C 0.1392451149381362 0.12316953912058846 0.13865438335592595 0.12347240386410402 0.1387531237700009 0.1234504904558151 C 0.13865438335592595 0.12347240386410402 0.13804674285657448 0.12328042889014457 0.1381389981198747 0.12333748688683831 C 0.13804674285657448 0.12328042889014457 0.13758501022117137 0.12264505373794958 0.13764606061039805 0.12276579449549016 C 0.13758501022117137 0.12264505373794958 0.13738642118571745 0.1218154980714231 0.13740639344915442 0.12188859779635133" fill="none" stroke="#000000" stroke-width="0.001"/>
<path d="M 0.13740639344915442 0.12188859779635133 C 0.13731701539540914 0.1217757236232629 0.1361872181154768 0.12026822974789875 0.13633385680421112 0.12053410771929016 C 0.1361872181154768 0.12026822974789875 0.1355894685493536 0.11854505834135148 0.13564672918434265 0.11869806213965446" fill="none" stroke="#000000" stroke-width="0.001"/>
<path d="M 0.13564672918434265 0.11869806213965446 C 0.13566806828899047 0.11853232928856203 0.13598655405089055 0.11639225866914629 0.13590279844011663 0.11670926792654518 C 0.13598655405089055 0.11639225866914629 0.13671421301975592 0.11474267464456141 0.13665179651362983 0.11489395105086785" fill="none" stroke="#000000" stroke-width="0.001"/>
</g><g transform="translate(0.30804673446287756,0.10819172878461028) rotate(0) scale(1,1) translate(-0.10433725337565573,-0.10418740031181734)"><path d="M 0.10533786866573912 0.10038005641801928 C 0.10532409669544622 0.10067072807858037 0.1050980652491578 0.10279876066452964 0.10525523684398173 0.10212408638138577 C 0.1050980652491578 0.10279876066452964 0.10406028023751573 0.10458541724689552 0.1043948390967955 0.10442810211688247 C 0.10406028023751573 0.10458541724689552 0.10296638110671914 0.10249171554404668 0.10324788368830312 0.10306797716146406 C 0.10296638110671914 0.10249171554404668 0.10270582360729164 0.10097053241237818 0.10270582360729164 0.10097053241237818 C 0.10270582360729164 0.10097053241237818 0.1035293862698871 0.10364423877888143 0.10324788368830312 0.10306797716146406 C 0.1035293862698871 0.10364423877888143 0.10446852918897014 0.10497381289110118 0.1043948390967955 0.10442810211688247 C 0.10446852918897014 0.10497381289110118 0.10353547719638646 0.1069304444365268 0.10369002424135089 0.10634224180677633 C 0.10353547719638646 0.1069304444365268 0.10343047892461865 0.10822649724348683 0.10346755682700898 0.10795731789538533" fill="none" stroke="#000000" stroke-width="0.001"/>
</g></g>
<g id="編節4">
</g>
<g id="編節5">
</g>
<g id="編節6">
</g>
<g id="編節7">
</g>
</g>
<g transform="translate(0.316461777994791,0.09612716508869268) rotate(0) scale(1,1) translate(-0.17354151290850753,-0.17151703483688832)"><path d="M 0.17816403679157827 0.16313431235160122 C 0.17803650865252096 0.16328876849951413 0.17651296666374616 0.16519082232414029 0.1766336991228906 0.16498778612655607 C 0.17651296666374616 0.16519082232414029 0.17672204296175795 0.16561932677228305 0.17671524728184507 0.16557074672261174" fill="none" stroke="none" stroke-width="0"/>
<path d="M 0.17671524728184507 0.16557074672261174 C 0.17651670169476968 0.16627248340837483 0.1738600984600251 0.1754481361327324 0.1743327002369404 0.17399158695176875 C 0.1738600984600251 0.1754481361327324 0.17076996976902153 0.18380414938937642 0.17104402595886145 0.18304933689417582" fill="none" stroke="none" stroke-width="0"/>
<path d="M 0.17104402595886145 0.18304933689417582 C 0.17072466751564191 0.18389373113099364 0.16627219884634148 0.19520705402247998 0.16721172464022713 0.19318206773598973 C 0.16627219884634148 0.19520705402247998 0.15914954908156767 0.20852976438173135 0.15976971643223378 0.2073491723320589" fill="none" stroke="#000000" stroke-width="0.001"/>
<path d="M 0.15976971643223378 0.2073491723320589 C 0.16012062398248872 0.20629646491188364 0.16450740699614408 0.19240990303850072 0.16398060703529313 0.1947166832899556 C 0.16450740699614408 0.19240990303850072 0.16626720837304132 0.1784137364833209 0.1660913159624453 0.1796678093146005" fill="none" stroke="#000000" stroke-width="0.001"/>
<path d="M 0.1660913159624453 0.1796678093146005 C 0.16621740560782816 0.17919171277242665 0.16796493470383259 0.17303681962258904 0.16760439170703945 0.17395465080851444 C 0.16796493470383259 0.17303681962258904 0.17065228527537343 0.16821210043974436 0.17041783192396312 0.1686538350834959" fill="none" stroke="#000000" stroke-width="0.001"/>
<path d="M 0.17041783192396312 0.1686538350834959 C 0.17070440949600288 0.16839753272516728 0.1745022798607416 0.1651182465558943 0.17385676278844034 0.1655782067835522 C 0.1745022798607416 0.1651182465558943 0.17852297629183977 0.16293065448227198 0.17816403679157827 0.16313431235160122" fill="none" stroke="#000000" stroke-width="0.001"/>
</g><g transform="translate(0.3231917403757077,0.09843056045461346) rotate(0) scale(1,1) translate(-0.1740239204174037,-0.16693920371592752)"><path d="M 0.17998613132484706 0.1500512243110228 C 0.17987128429598642 0.15052487521756736 0.17843547047716193 0.15658298110356153 0.17860796697851944 0.1557350351895576 C 0.17843547047716193 0.15658298110356153 0.17785852383606013 0.16060087028652928 0.177916173308557 0.16022657527906992" fill="none" stroke="none" stroke-width="0"/>
<path d="M 0.177916173308557 0.16022657527906992 C 0.1775900088530411 0.16082925716002286 0.17342353723410758 0.16857049088753479 0.17400219984236628 0.16745875785050518 C 0.17342353723410758 0.16857049088753479 0.17071972385670983 0.17407642287950173 0.17097222200945264 0.17356737172342507" fill="none" stroke="none" stroke-width="0"/>
<path d="M 0.17097222200945264 0.17356737172342507 C 0.17074804546519276 0.1742063097387917 0.16791266390921356 0.18242570076648737 0.1682821034783341 0.18123462790782469 C 0.16791266390921356 0.18242570076648737 0.16639368415514533 0.1884123808706734 0.166538947180006 0.18786024602737736" fill="none" stroke="none" stroke-width="0"/>
<path d="M 0.166538947180006 0.18786024602737736 C 0.16650160918534504 0.18862014192648985 0.16625376718160484 0.19965352862257965 0.16609089124407436 0.1969789968167272 C 0.16625376718160484 0.19965352862257965 0.16869367236256314 0.22186926360434667 0.1684934584303717 0.2199546276976067" fill="none" stroke="none" stroke-width="0"/>
<path d="M 0.1684934584303717 0.2199546276976067 C 0.1681108790527149 0.21834656363828417 0.1634133988536304 0.19839869206664668 0.16390250589849034 0.20065785898573638 C 0.1634133988536304 0.19839869206664668 0.16251764622484932 0.1921935218087631 0.16262417389205247 0.19284462466853028" fill="none" stroke="#000000" stroke-width="0.001"/>
<path d="M 0.16262417389205247 0.19284462466853028 C 0.16258391086080143 0.1921006293135003 0.16214132028875258 0.18243686027029865 0.16214101751704 0.18391668040817055 C 0.16214132028875258 0.18243686027029865 0.16266837295556716 0.17435095823122554 0.16262780715260353 0.17508678301406747" fill="none" stroke="#000000" stroke-width="0.001"/>
<path d="M 0.16262780715260353 0.17508678301406747 C 0.16274295821724205 0.1744518878525938 0.16432072116197877 0.16618300993098253 0.16400961992826565 0.16746804107638355 C 0.16432072116197877 0.16618300993098253 0.16655697212623563 0.15901627328532786 0.16636102195716101 0.1596664092692552" fill="none" stroke="#000000" stroke-width="0.001"/>
<path d="M 0.16636102195716101 0.1596664092692552 C 0.1668290117516849 0.15926154290600814 0.17311232527208825 0.1540067474971042 0.17197689949144776 0.15480801291029023 C 0.17311232527208825 0.1540067474971042 0.18065356731096366 0.14965482526108384 0.17998613132484706 0.1500512243110228" fill="none" stroke="#000000" stroke-width="0.001"/>
</g><g transform="translate(0.32999469549601246,0.08443790798830217) rotate(0) scale(1,1) translate(-0.17390341090239536,-0.15286408272832677)"><path d="M 0.1761531741775898 0.14831078659221877 C 0.17627230668330476 0.1489085093476148 0.1772429828741997 0.15682005717195366 0.17758276424616945 0.15548345965697102 C 0.1772429828741997 0.15682005717195366 0.1716168838362682 0.16508883153159695 0.1720757977139529 0.16434995677201034" fill="none" stroke="#000000" stroke-width="0.001"/>
<path d="M 0.1720757977139529 0.16434995677201034 C 0.17155605572472113 0.16514257627188497 0.16495803320992555 0.1754623574463087 0.1658388938431718 0.17386139077050605 C 0.16495803320992555 0.1754623574463087 0.16114435147098358 0.1843699040575702 0.16150547011499805 0.1835615568816422" fill="none" stroke="#000000" stroke-width="0.001"/>
<path d="M 0.16150547011499805 0.1835615568816422 C 0.1613917520742534 0.18440027956861835 0.16005072660835373 0.19527103402202203 0.16014085362606226 0.19362622912535601 C 0.16005072660835373 0.19527103402202203 0.160447536925532 0.20410529785132422 0.16042394590249587 0.20329921564163436" fill="none" stroke="#000000" stroke-width="0.001"/>
<path d="M 0.16042394590249587 0.20329921564163436 C 0.1604859384925529 0.2039631925538412 0.1613576167759802 0.21322751146513144 0.1611678569831803 0.2112669385881165 C 0.1613576167759802 0.21322751146513144 0.16282883061883727 0.228122686130622 0.16270106341609442 0.2268260901658139" fill="none" stroke="#000000" stroke-width="0.001"/>
<path d="M 0.16270106341609442 0.2268260901658139 C 0.1624292583574813 0.22521560822584388 0.15904327067966054 0.20511628514698946 0.159439402712737 0.20750030688617366 C 0.15904327067966054 0.20511628514698946 0.1578231520447135 0.1974442894963894 0.15794747901917686 0.19821782929560358" fill="none" stroke="#000000" stroke-width="0.001"/>
<path d="M 0.15794747901917686 0.19821782929560358 C 0.15791959815409704 0.19752616690023883 0.1576255861460331 0.1885594569789948 0.15761290863821903 0.18991788055122658 C 0.1576255861460331 0.1885594569789948 0.15814016748583937 0.1812499852519549 0.1580996091129455 0.18191674642882197" fill="none" stroke="#000000" stroke-width="0.001"/>
<path d="M 0.1580996091129455 0.18191674642882197 C 0.15824037231975865 0.18110034785855217 0.16016127457311058 0.1704449697645565 0.15978876759470356 0.17211996358558435 C 0.16016127457311058 0.1704449697645565 0.16280143662542335 0.16095822532572984 0.16256969285382952 0.16181682057648789" fill="none" stroke="#000000" stroke-width="0.001"/>
<path d="M 0.16256969285382952 0.16181682057648789 C 0.16303867673261932 0.16102800109999005 0.1693294561762871 0.1512254840264915 0.1681974993993071 0.15235098685851392 C 0.1693294561762871 0.1512254840264915 0.17681614707578003 0.1479741032366942 0.1761531741775898 0.14831078659221877" fill="none" stroke="#000000" stroke-width="0.001"/>
</g><g transform="translate(0.3399204011993512,0.09469060430334211) rotate(0) scale(1,1) translate(-0.17175142008376063,-0.17000147314616015)"><path d="M 0.18105844629130935 0.15936321005773862 C 0.18118511512918697 0.15969499364695278 0.18267316594828398 0.1640164114547512 0.18257847234584074 0.1633446131283083 C 0.18267316594828398 0.1640164114547512 0.18216279428519405 0.1677648047122823 0.1821947695206284 0.16742478997505353" fill="none" stroke="none" stroke-width="0"/>
<path d="M 0.1821947695206284 0.16742478997505353 C 0.18209912146559015 0.1676418148602919 0.1807677407620316 0.1703749417131103 0.1810469928601694 0.17002908859791396 C 0.1807677407620316 0.1703749417131103 0.17866014029987495 0.1717038555873676 0.17884374434297454 0.17157502735740962" fill="none" stroke="none" stroke-width="0"/>
<path d="M 0.17884374434297454 0.17157502735740962 C 0.17857872500390212 0.17159315027486913 0.17509941915153915 0.1718346968736625 0.17566351227410568 0.1717925023669236 C 0.17509941915153915 0.1718346968736625 0.1717755530886819 0.17210543302755602 0.17207462687217603 0.1720813614382766" fill="none" stroke="#000000" stroke-width="0.001"/>
<path d="M 0.17207462687217603 0.1720813614382766 C 0.17199629398592745 0.17179406273016384 0.1710659065157763 0.16811549331463937 0.17113463223719297 0.1686337769409235 C 0.1710659065157763 0.16811549331463937 0.171259525380008 0.16563097300469581 0.17124991821517607 0.16586195792286718" fill="none" stroke="#000000" stroke-width="0.001"/>
<path d="M 0.17124991821517607 0.16586195792286718 C 0.1714222811103351 0.16567364257432604 0.1736837896656498 0.1632903392606768 0.1733182729570845 0.16360217374037342 C 0.1736837896656498 0.1632903392606768 0.17582927253136613 0.16199642503535217 0.17563611871795984 0.16211994416650766" fill="none" stroke="none" stroke-width="0"/>
<path d="M 0.17563611871795984 0.16211994416650766 C 0.1758932822220199 0.1618849275021089 0.17917394139779275 0.15907001635132498 0.17872208076668028 0.1592997441937224 C 0.17917394139779275 0.15907001635132498 0.18125314341836177 0.15936849887973997 0.18105844629130935 0.15936321005773862" fill="none" stroke="none" stroke-width="0"/>
</g><g transform="translate(0.3377246006521828,0.09389895795106015) rotate(0) scale(1,1) translate(-0.17295983519055422,-0.17005901672267412)"><path d="M 0.18227058593155443 0.15869244215764988 C 0.18242137787184715 0.1589559179905525 0.18410662013409046 0.1624218341268515 0.184080089215067 0.16185415215248136 C 0.18410662013409046 0.1624218341268515 0.18246469593856665 0.16580883199155885 0.1825889569598359 0.16550462585009135" fill="none" stroke="none" stroke-width="0"/>
<path d="M 0.1825889569598359 0.16550462585009135 C 0.18242606120576912 0.1657360477908942 0.18031878279328245 0.16862013215607943 0.18063420791103446 0.1682816891397256 C 0.18031878279328245 0.16862013215607943 0.17865132618312665 0.16967296312188812 0.17880385554681186 0.16956594204633715" fill="none" stroke="#000000" stroke-width="0.001"/>
<path d="M 0.17880385554681186 0.16956594204633715 C 0.17853047725212792 0.16968940945036562 0.17499830591893592 0.1713304807552937 0.17552331601060478 0.17104755089467877 C 0.17499830591893592 0.1713304807552937 0.17225210264980054 0.1731205628303028 0.1725037344467855 0.17296110037371634" fill="none" stroke="#000000" stroke-width="0.001"/>
<path d="M 0.1725037344467855 0.17296110037371634 C 0.17247768123342688 0.17271818174511624 0.1722627808921728 0.16956447464844623 0.17219109588648235 0.17004607683051506 C 0.1722627808921728 0.16956447464844623 0.17346169273412002 0.16694319063542154 0.17336395451507097 0.16718187418889027" fill="none" stroke="#000000" stroke-width="0.001"/>
<path d="M 0.17336395451507097 0.16718187418889027 C 0.1735040428210977 0.16691621172606086 0.17530055040996306 0.16352532627414987 0.1750450141873915 0.16399392463493748 C 0.17530055040996306 0.16352532627414987 0.17654583710247473 0.16135575796148077 0.17643038918592988 0.16155869385943897" fill="none" stroke="#000000" stroke-width="0.001"/>
<path d="M 0.17643038918592988 0.16155869385943897 C 0.17662405274256993 0.1613507549389267 0.17924103492774596 0.15882457250480927 0.1787543518656106 0.1590634268132917 C 0.17924103492774596 0.15882457250480927 0.18256360543704975 0.15866152676967973 0.18227058593155443 0.15869244215764988" fill="none" stroke="none" stroke-width="0"/>
</g><g id="編み右">
<g id="編節1">
<g transform="translate(0.3617291742280557,0.09061884933651274) rotate(0) scale(1,1) translate(-0.18027204884513678,-0.12848593137462816)"><path d="M 0.181480156496471 0.1268095361893168 C 0.18162126906784778 0.12683946252996864 0.1834324189813722 0.12729957649987458 0.18317350735299237 0.12716865227713875 C 0.1834324189813722 0.12729957649987458 0.18470489509403185 0.12848162474423078 0.1845870960370288 0.12838062686214677" fill="none" stroke="#000000" stroke-width="0.001"/>
<path d="M 0.1845870960370288 0.12838062686214677 C 0.18463564503624252 0.1285854618031812 0.1852171768169897 0.13126293953472531 0.18516968402759337 0.13083864615456 C 0.1852171768169897 0.13126293953472531 0.18515595329996737 0.13369160586326143 0.18515700950978475 0.13347214742413055" fill="none" stroke="#000000" stroke-width="0.001"/>
<path d="M 0.18515700950978475 0.13347214742413055 C 0.18518598124601643 0.1335593021330238 0.18553057250348554 0.13470264946997912 0.1855046703445647 0.13451800393084964 C 0.18553057250348554 0.13470264946997912 0.1854304774394325 0.13586708908626832 0.18546783541683504 0.13568789389368419 C 0.1854304774394325 0.13586708908626832 0.18496576654188415 0.13679407588075773 0.1850563746157342 0.1366683462418594 C 0.18496576654188415 0.13679407588075773 0.1842609587205525 0.13723522449046946 0.18438053853063424 0.13719664956046437 C 0.1842609587205525 0.13723522449046946 0.18350490666198258 0.1370723295016892 0.1836214168947535 0.13713124540192034 C 0.18350490666198258 0.1370723295016892 0.1829291656409357 0.13643619320400507 0.18298241573738322 0.13648965875769087" fill="none" stroke="#000000" stroke-width="0.001"/>
<path d="M 0.18298241573738322 0.13648965875769087 C 0.18284062253614558 0.13646842111838087 0.1810119181303907 0.13611785282311262 0.18128089732253164 0.13623480708597085 C 0.1810119181303907 0.13611785282311262 0.1796274794407887 0.13499049097984378 0.179754665431692 0.13508620760339202" fill="none" stroke="#000000" stroke-width="0.001"/>
<path d="M 0.179754665431692 0.13508620760339202 C 0.17970172921267755 0.1348952047046279 0.1790618704503612 0.13238384939793488 0.17911943080351866 0.1327941728182226 C 0.1790618704503612 0.13238384939793488 0.17905931705965958 0.12994300603841588 0.1790639411938026 0.13016232655993948" fill="none" stroke="#000000" stroke-width="0.001"/>
</g><g transform="translate(0.36362800611727936,0.09386633519465398) rotate(0) scale(1,1) translate(-0.10433725337565573,-0.10418740031181734)"><path d="M 0.10731743919334794 0.1059275589546976 C 0.10712422016822558 0.105767028816356 0.1056783933262467 0.10472020546285928 0.10615812504261381 0.10496437812464798 C 0.1056783933262467 0.10472020546285928 0.10416377803006954 0.10392123123095155 0.10443904889514537 0.10446252298396536 C 0.10416377803006954 0.10392123123095155 0.10437515242896639 0.10084968350298185 0.10450649985215883 0.10171662760656518 C 0.10437515242896639 0.10084968350298185 0.1036509643559907 0.09926085836246534 0.1036509643559907 0.09926085836246534 C 0.1036509643559907 0.09926085836246534 0.10463784727535128 0.10258357171014851 0.10450649985215883 0.10171662760656518 C 0.10463784727535128 0.10258357171014851 0.10408136914356875 0.10482239919884961 0.10443904889514537 0.10446252298396536 C 0.10408136914356875 0.10482239919884961 0.10182588390080263 0.10356667781334883 0.10236042134269911 0.10387588489587068 C 0.10182588390080263 0.10356667781334883 0.10104372472727777 0.10239584642099481 0.10123182424376653 0.10260728048883422" fill="none" stroke="#000000" stroke-width="0.001"/>
</g></g>
<g id="編節2">
<g transform="translate(0.365526838006503,0.09711382105279523) rotate(0) scale(1,1) translate(-0.13796833536796266,-0.11460177227368223)"><path d="M 0.13938203154071185 0.1139837260127789 C 0.13948922784673173 0.11409398699759947 0.14084556209038804 0.11557060295139274 0.14066838721295036 0.11530685783062576 C 0.14084556209038804 0.11557060295139274 0.14157810864138198 0.11730215159792906 0.14150813006996416 0.11714866746198266" fill="none" stroke="#000000" stroke-width="0.001"/>
<path d="M 0.14150813006996416 0.11714866746198266 C 0.14149508665047944 0.11734383796343544 0.14128138708335422 0.1198626166958411 0.14135160903614763 0.11949071347941605 C 0.14128138708335422 0.1198626166958411 0.14060828810313453 0.12178823877405562 0.14066546663644322 0.12161150605908334" fill="none" stroke="#000000" stroke-width="0.001"/>
<path d="M 0.14066546663644322 0.12161150605908334 C 0.14066668564686075 0.1216996203329308 0.14065379624334434 0.12283391611916566 0.14068009476145357 0.12266887734525278 C 0.14065379624334434 0.12283391611916566 0.14027348612268123 0.12371401871471617 0.14034988441913257 0.12359197134603803 C 0.14027348612268123 0.12371401871471617 0.13965728799108137 0.12417979923895829 0.13976331520403756 0.12413344576939055 C 0.13965728799108137 0.12417979923895829 0.13897031164028462 0.12410645217657133 0.13907755786365833 0.12414821298085103 C 0.13897031164028462 0.12410645217657133 0.1383966318287061 0.12351363081368895 0.13847636052355305 0.12363231611803409 C 0.1383966318287061 0.12351363081368895 0.13809118460898995 0.12264829542959889 0.1381208135254948 0.12272398932870929" fill="none" stroke="#000000" stroke-width="0.001"/>
<path d="M 0.1381208135254948 0.12272398932870929 C 0.1380108333908943 0.12262033581680082 0.13661209623141146 0.1212215524505482 0.13680105191028874 0.12148014718580766 C 0.13661209623141146 0.1212215524505482 0.13577436983469074 0.11946591128224492 0.1358533453789675 0.1196208525055959" fill="none" stroke="#000000" stroke-width="0.001"/>
<path d="M 0.1358533453789675 0.1196208525055959 C 0.13585926761466474 0.11943418570215611 0.1359828533586881 0.11701409803340093 0.13592441220733426 0.11738085086431846 C 0.1359828533586881 0.11701409803340093 0.1366071581108701 0.11503973250710782 0.1365546391952135 0.11521981853458556" fill="none" stroke="#000000" stroke-width="0.001"/>
</g><g transform="translate(0.3662392403630062,0.10089680876290223) rotate(0) scale(1,1) translate(-0.10433725337565573,-0.10418740031181734)"><path d="M 0.10631677769843774 0.10741167596277373 C 0.10620067915083974 0.1071640717830798 0.10529230995586095 0.10543608139602278 0.10562018641284975 0.10592605088461013 C 0.10529230995586095 0.10543608139602278 0.10426433733764195 0.1038664564723821 0.10434951895650496 0.10447185903124966 C 0.10426433733764195 0.1038664564723821 0.1052246503149339 0.1015128125219442 0.10510909669967167 0.10229363553140484 C 0.1052246503149339 0.1015128125219442 0.10504284064807835 0.0997869209744858 0.10504284064807835 0.0997869209744858 C 0.10504284064807835 0.0997869209744858 0.10499354308440943 0.10307445854086549 0.10510909669967167 0.10229363553140484 C 0.10499354308440943 0.10307445854086549 0.10396598738695349 0.1045445580107675 0.10434951895650496 0.10447185903124966 C 0.10396598738695349 0.1045445580107675 0.1024521043804268 0.1021538666290646 0.10280790728236285 0.10272982940851184 C 0.1024521043804268 0.1021538666290646 0.10211583392197635 0.10073045784557523 0.10221470154488871 0.10101608235456618" fill="none" stroke="#000000" stroke-width="0.001"/>
</g></g>
<g id="編節3">
<g transform="translate(0.3669516427195093,0.1046797964730093) rotate(0) scale(1,1) translate(-0.13796833536796266,-0.11460177227368223)"><path d="M 0.13928487422229546 0.11489395105086785 C 0.13934729072842156 0.11504522745717428 0.1401176279065825 0.11702627718394407 0.14003387229580858 0.11670926792654518 C 0.1401176279065825 0.11702627718394407 0.1403112806562304 0.1188637949907469 0.1402899415515826 0.11869806213965446" fill="none" stroke="#000000" stroke-width="0.001"/>
<path d="M 0.1402899415515826 0.11869806213965446 C 0.14023268091659355 0.11885106593795744 0.13945617524297982 0.12079998569068157 0.13960281393171411 0.12053410771929016 C 0.13945617524297982 0.12079998569068157 0.1384408992330256 0.12200147196943976 0.13853027728677086 0.12188859779635133" fill="none" stroke="#000000" stroke-width="0.001"/>
<path d="M 0.13853027728677086 0.12188859779635133 C 0.1385103050233339 0.12196169752127957 0.13822955973630044 0.12288653525303074 0.13829061012552712 0.12276579449549016 C 0.13822955973630044 0.12288653525303074 0.13770541735275027 0.12339454488353205 0.1377976726160505 0.12333748688683831 C 0.13770541735275027 0.12339454488353205 0.1370848065518494 0.12342857704752619 0.13718354696592436 0.1234504904558151 C 0.1370848065518494 0.12342857704752619 0.13653401949651306 0.12297951285415416 0.13661278764715104 0.12307452598737131 C 0.13653401949651306 0.12297951285415416 0.13620063913342023 0.12216767869137979 0.1362383291582685 0.12231033285720928 C 0.13620063913342023 0.12216767869137979 0.13615402219819714 0.12128370459243468 0.13616050734897187 0.12136267599741733" fill="none" stroke="#000000" stroke-width="0.001"/>
<path d="M 0.13616050734897187 0.12136267599741733 C 0.13609421483828954 0.12121525393764211 0.1352702704528907 0.11927416719957251 0.13536499722078407 0.11959361128011461 C 0.1352702704528907 0.11927416719957251 0.13499535187704034 0.1173573250101452 0.1350237861342514 0.11752934703091208" fill="none" stroke="#000000" stroke-width="0.001"/>
<path d="M 0.1350237861342514 0.11752934703091208 C 0.13507313149743222 0.11737930114667841 0.13575159802403605 0.11546048362557343 0.13561593049242118 0.11572879642010804 C 0.13575159802403605 0.11546048362557343 0.13673811868206392 0.11419132658619573 0.13665179651362988 0.11430959349649668" fill="none" stroke="#000000" stroke-width="0.001"/>
</g><g transform="translate(0.3666401711944637,0.10819172878461028) rotate(0) scale(1,1) translate(-0.10433725337565573,-0.10418740031181734)"><path d="M 0.10520694992430243 0.10795731789538533 C 0.10516987202191212 0.10768813854728383 0.10482993546499615 0.10575403917702586 0.10498448250996056 0.10634224180677633 C 0.10482993546499615 0.10575403917702586 0.10435335774669056 0.10388239134266376 0.10427966765451595 0.10442810211688247 C 0.10435335774669056 0.10388239134266376 0.10570812564459227 0.10249171554404668 0.10542662306300829 0.10306797716146406 C 0.10570812564459227 0.10249171554404668 0.10596868314401979 0.10097053241237818 0.10596868314401979 0.10097053241237818 C 0.10596868314401979 0.10097053241237818 0.10514512048142431 0.10364423877888143 0.10542662306300829 0.10306797716146406 C 0.10514512048142431 0.10364423877888143 0.10394510879523618 0.10427078698686942 0.10427966765451595 0.10442810211688247 C 0.10394510879523618 0.10427078698686942 0.10326209831250575 0.1014494120982419 0.10341926990732969 0.10212408638138577 C 0.10326209831250575 0.1014494120982419 0.1033228661152794 0.1000893847574582 0.1033366380855723 0.10038005641801928" fill="none" stroke="#000000" stroke-width="0.001"/>
</g></g>
<g id="編節4">
</g>
<g id="編節5">
</g>
<g id="編節6">
</g>
<g id="編節7">
</g>
</g>
<g transform="translate(0.35822512766255044,0.09612716508869268) rotate(0) scale(1,1) translate(-0.17354151290850753,-0.17151703483688832)"><path d="M 0.1689189890254367 0.16313431235160122 C 0.1692779285256982 0.16333797022093047 0.17387178010087598 0.1660381670112101 0.17322626302857472 0.1655782067835522 C 0.17387178010087598 0.1660381670112101 0.1769517714650916 0.16891013744182454 0.17666519389305185 0.1686538350834959" fill="none" stroke="#000000" stroke-width="0.001"/>
<path d="M 0.17666519389305185 0.1686538350834959 C 0.17689964724446217 0.16909556972724746 0.17983917710676878 0.17487248199443983 0.17947863410997564 0.17395465080851444 C 0.17983917710676878 0.17487248199443983 0.18111779949995252 0.18014390585677434 0.1809917098545697 0.1796678093146005" fill="none" stroke="#000000" stroke-width="0.001"/>
<path d="M 0.1809917098545697 0.1796678093146005 C 0.1811676022651657 0.1809218821458801 0.1836292187425728 0.19702346354141045 0.18310241878172184 0.1947166832899556 C 0.1836292187425728 0.19702346354141045 0.18766421693503615 0.20840187975223418 0.18731330938478122 0.2073491723320589" fill="none" stroke="#000000" stroke-width="0.001"/>
<path d="M 0.18731330938478122 0.2073491723320589 C 0.1866931420341151 0.20616858028238647 0.17893177538290228 0.19115708144949947 0.1798713011767879 0.19318206773598973 C 0.17893177538290228 0.19115708144949947 0.17571964141493412 0.182204942657358 0.17603899985815363 0.18304933689417582" fill="none" stroke="#000000" stroke-width="0.001"/>
<path d="M 0.17603899985815363 0.18304933689417582 C 0.17576494366831372 0.18229452439897523 0.1722777238031593 0.1725350377708051 0.1727503255800746 0.17399158695176875 C 0.1722777238031593 0.1725350377708051 0.17016923294809455 0.16486901003684865 0.17036777853516993 0.16557074672261174" fill="none" stroke="none" stroke-width="0"/>
<path d="M 0.17036777853516993 0.16557074672261174 C 0.1703745742150828 0.16552216667294042 0.17032859423498006 0.16478474992897185 0.1704493266941245 0.16498778612655607 C 0.17032859423498006 0.16478474992897185 0.1687914608863794 0.16297985620368832 0.1689189890254367 0.16313431235160122" fill="none" stroke="none" stroke-width="0"/>
</g><g transform="translate(0.3514951652816338,0.09843056045461346) rotate(0) scale(1,1) translate(-0.1740239204174037,-0.16693920371592752)"><path d="M 0.16806170950996024 0.1500512243110228 C 0.16872914549607684 0.15044762336096176 0.17720636712400006 0.15560927832347626 0.17607094134335954 0.15480801291029023 C 0.17720636712400006 0.15560927832347626 0.1821548086721702 0.16007127563250229 0.18168681887764632 0.1596664092692552" fill="none" stroke="#000000" stroke-width="0.001"/>
<path d="M 0.18168681887764632 0.1596664092692552 C 0.18188276904672093 0.16031654525318256 0.1843493221402548 0.16875307222178457 0.18403822090654165 0.16746804107638355 C 0.1843493221402548 0.16875307222178457 0.18553518474684236 0.17572167817554113 0.18542003368220383 0.17508678301406747" fill="none" stroke="#000000" stroke-width="0.001"/>
<path d="M 0.18542003368220383 0.17508678301406747 C 0.18546059948516747 0.1758226077969094 0.18590712608947993 0.18539650054604245 0.18590682331776734 0.18391668040817055 C 0.18590712608947993 0.18539650054604245 0.1853834039115038 0.19358862002356025 0.18542366694275483 0.19284462466853028" fill="none" stroke="#000000" stroke-width="0.001"/>
<path d="M 0.18542366694275483 0.19284462466853028 C 0.18531713927555168 0.19349572752829747 0.18365622789145705 0.20291702590482608 0.184145334936317 0.20065785898573638 C 0.18365622789145705 0.20291702590482608 0.17917180302677882 0.22156269175692925 0.1795543824044356 0.2199546276976067" fill="none" stroke="#000000" stroke-width="0.001"/>
<path d="M 0.1795543824044356 0.2199546276976067 C 0.17975459633662705 0.21803999179086675 0.18211982552826345 0.19430446501087476 0.18195694959073297 0.1969789968167272 C 0.18211982552826345 0.19430446501087476 0.18147155566014034 0.18710035012826487 0.1815088936548013 0.18786024602737736" fill="none" stroke="none" stroke-width="0"/>
<path d="M 0.1815088936548013 0.18786024602737736 C 0.18136363062994063 0.1873081111840813 0.17939629778735272 0.180043555049162 0.17976573735647328 0.18123462790782469 C 0.17939629778735272 0.180043555049162 0.1768514422810948 0.17292843370805844 0.1770756188253547 0.17356737172342507" fill="none" stroke="none" stroke-width="0"/>
<path d="M 0.1770756188253547 0.17356737172342507 C 0.17682312067261188 0.1730583205673484 0.17346697838418237 0.16634702481347557 0.17404564099244108 0.16745875785050518 C 0.17346697838418237 0.16634702481347557 0.1698055030707344 0.15962389339811697 0.17013166752625028 0.16022657527906992" fill="none" stroke="none" stroke-width="0"/>
<path d="M 0.17013166752625028 0.16022657527906992 C 0.1700740180537534 0.15985228027161055 0.1692673773549304 0.1548870892755537 0.1694398738562879 0.1557350351895576 C 0.1692673773549304 0.1548870892755537 0.1679468624810996 0.14957757340447825 0.16806170950996024 0.1500512243110228" fill="none" stroke="none" stroke-width="0"/>
</g><g transform="translate(0.34469221016132906,0.08443790798830217) rotate(0) scale(1,1) translate(-0.17390341090239536,-0.15286408272832677)"><path d="M 0.17165364762720095 0.14831078659221877 C 0.17231662052539118 0.14864746994774336 0.1807412791824637 0.15347648969053634 0.17960932240548366 0.15235098685851392 C 0.1807412791824637 0.15347648969053634 0.18570611282975097 0.16260564005298572 0.18523712895096117 0.16181682057648789" fill="none" stroke="#000000" stroke-width="0.001"/>
<path d="M 0.18523712895096117 0.16181682057648789 C 0.185468872722555 0.16267541582724593 0.18839056118849415 0.1737949574066122 0.18801805421008713 0.17211996358558435 C 0.18839056118849415 0.1737949574066122 0.18984797589865843 0.18273314499909177 0.18970721269184526 0.18191674642882197" fill="none" stroke="#000000" stroke-width="0.001"/>
<path d="M 0.18970721269184526 0.18191674642882197 C 0.1897477710647391 0.18258350760568903 0.19020659067438567 0.19127630412345836 0.1901939131665716 0.18991788055122658 C 0.19020659067438567 0.19127630412345836 0.18983146192053404 0.19890949169096833 0.18985934278561387 0.19821782929560358" fill="none" stroke="#000000" stroke-width="0.001"/>
<path d="M 0.18985934278561387 0.19821782929560358 C 0.18973501581115051 0.19899136909481777 0.18797128705897728 0.20988432862535786 0.18836741909205373 0.20750030688617366 C 0.18797128705897728 0.20988432862535786 0.18483395333008318 0.2284365721057839 0.1851057583886963 0.2268260901658139" fill="none" stroke="#000000" stroke-width="0.001"/>
<path d="M 0.1851057583886963 0.2268260901658139 C 0.18523352559143916 0.22552949420100576 0.1868287246144103 0.2093063657111015 0.18663896482161044 0.21126693858811646 C 0.1868287246144103 0.2093063657111015 0.1874448684923519 0.2026352387294275 0.18738287590229485 0.20329921564163436" fill="none" stroke="#000000" stroke-width="0.001"/>
<path d="M 0.18738287590229485 0.20329921564163436 C 0.187406466925331 0.2024931334319445 0.18757584116101994 0.19198142422869 0.18766596817872847 0.19362622912535601 C 0.18757584116101994 0.19198142422869 0.18618763364904803 0.18272283419466603 0.18630135168979267 0.1835615568816422" fill="none" stroke="#000000" stroke-width="0.001"/>
<path d="M 0.18630135168979267 0.1835615568816422 C 0.1859402330457782 0.18275320970571418 0.18108706732837265 0.1722604240947034 0.1819679279616189 0.17386139077050605 C 0.18108706732837265 0.1722604240947034 0.17521128210160614 0.1635573372721357 0.17573102409083788 0.16434995677201034" fill="none" stroke="#000000" stroke-width="0.001"/>
<path d="M 0.17573102409083788 0.16434995677201034 C 0.17527211021315314 0.16361108201242372 0.16988427618665147 0.1541468621419884 0.17022405755862122 0.15548345965697102 C 0.16988427618665147 0.1541468621419884 0.17177278013291591 0.14771306383682276 0.17165364762720095 0.14831078659221877" fill="none" stroke="#000000" stroke-width="0.001"/>
</g></svg>
