<?xml version="1.0" encoding="UTF-8"?>
<svg xmlns="http://www.w3.org/2000/svg" viewBox="0 0 1 1">
<g transform="translate(0.3373434528286707,0.07439478626293816) rotate(0) scale(1,1) translate(-0.18294501755560244,-0.17151790391238764)"><path d="M 0.18294501755560244 0.1772221034606828 C 0.18214574144411624 0.1772221034606828 0.17854899894242843 0.16899049294630047 0.17814936088668534 0.16962369375509911 C 0.17854899894242843 0.16899049294630047 0.18814031228026268 0.17025689456389775 0.1877406742245196 0.16962369375509911 C 0.18814031228026268 0.17025689456389775 0.18214574144411624 0.1772221034606828 0.18294501755560244 0.1772221034606828 Z" fill="#cccccc" stroke="none" stroke-width="0"/>
</g><g transform="translate(0.31295573404675614,0.09073261587990888) rotate(0) scale(1,1) translate(-0.17199583769089846,-0.15739337258770392)"><path d="M 0.17925554302357222 0.14287454056693322 C 0.17900655846963204 0.14370086510210828 0.17585596625244973 0.15459221044781998 0.1762677283762902 0.1527904349890341 C 0.17585596625244973 0.15459221044781998 0.17415161996758632 0.16547129699597463 0.17431439753748662 0.1644958460723638" fill="none" stroke="none" stroke-width="0"/>
<path d="M 0.17431439753748662 0.1644958460723638 C 0.17426293292112063 0.1655929122462405 0.17364972724889888 0.17994395577163183 0.17369682214109466 0.1776606401588841 C 0.17364972724889888 0.17994395577163183 0.17375362855530757 0.1930818828642075 0.17374925883113734 0.19189563342533647" fill="none" stroke="none" stroke-width="0"/>
<path d="M 0.17374925883113734 0.19189563342533647 C 0.17396549835156255 0.19320544206830947 0.17680792034552442 0.2107012301127105 0.17634413307623995 0.20761333714101235 C 0.17680792034552442 0.2107012301127105 0.1795622538114103 0.23072843341443955 0.17931470606255104 0.22895034908571438" fill="none" stroke="#000000" stroke-width="0.001"/>
<path d="M 0.17931470606255104 0.22895034908571438 C 0.17876556934083432 0.22715657155668023 0.1718555688432771 0.2042819984843432 0.17272506540195043 0.20742501873730462 C 0.1718555688432771 0.2042819984843432 0.16856038752151448 0.1898848633262499 0.16888074735847108 0.19123410605017718" fill="none" stroke="#000000" stroke-width="0.001"/>
<path d="M 0.16888074735847108 0.19123410605017718 C 0.16871859537951828 0.18980359018671666 0.16688382938210883 0.17141748657813774 0.16693492361103726 0.17406791568865096 C 0.16688382938210883 0.17141748657813774 0.16837867436135415 0.15820904347696582 0.16826761661132977 0.15942895672401852" fill="none" stroke="#000000" stroke-width="0.001"/>
<path d="M 0.16826761661132977 0.15942895672401852 C 0.16864966689914399 0.15857624741611384 0.17376788059945383 0.14781691034940533 0.1728522200651003 0.14919644502916243 C 0.17376788059945383 0.14781691034940533 0.17978915327011155 0.14234771519508077 0.17925554302357222 0.14287454056693322" fill="none" stroke="#000000" stroke-width="0.001"/>
</g><g id="編み左">
<g id="編節1">
<g transform="translate(0.31295573404675614,0.09073261587990888) rotate(0) scale(1,1) translate(-0.18027204884513678,-0.12848593137462816)"><path d="M 0.18150865314490128 0.1301405630549283 C 0.18150778196568002 0.13035993249725825 0.18144766743633753 0.13318428204739913 0.1814981989942462 0.13277299636288756 C 0.18144766743633753 0.13318428204739913 0.1808526140713096 0.13526790751124862 0.180902274449997 0.135075991269067" fill="none" stroke="#000000" stroke-width="0.001"/>
<path d="M 0.180902274449997 0.135075991269067 C 0.18077674540039101 0.1351739576321185 0.17912898854435755 0.13637331276614428 0.179395925854725 0.13625158762568523 C 0.17912898854435755 0.13637331276614428 0.1775576184648261 0.13656045173198306 0.17769902672558754 0.13653669295457554" fill="none" stroke="#000000" stroke-width="0.001"/>
<path d="M 0.17769902672558754 0.13653669295457554 C 0.17764669945615397 0.13659109838730532 0.1769556149688432 0.1372505393293406 0.17707109949238445 0.13718955814733289 C 0.1769556149688432 0.1372505393293406 0.17619299088543772 0.13723202698706327 0.17631321244309273 0.13726846713866794 C 0.17619299088543772 0.13723202698706327 0.17553569547804188 0.1366281789520543 0.1756284408005242 0.13675227632807682 C 0.17553569547804188 0.1366281789520543 0.17515985052025598 0.13560079581764553 0.17520026857330473 0.13577929862639782 C 0.17515985052025598 0.13560079581764553 0.17516616336499827 0.1344251640650191 0.17514342416393935 0.1346102426230493 C 0.17516616336499827 0.1344251640650191 0.17550061522118432 0.13347069870561754 0.17547313898601163 0.13355835593003537" fill="none" stroke="#000000" stroke-width="0.001"/>
<path d="M 0.17547313898601163 0.13355835593003537 C 0.17546832832684955 0.13333894971940216 0.17545563759814392 0.13050040712058947 0.17541541107606662 0.13092548140243687 C 0.17545563759814392 0.13050040712058947 0.17600089443217884 0.12825179647665239 0.17595585725093943 0.12845746454786658" fill="none" stroke="#000000" stroke-width="0.001"/>
<path d="M 0.17595585725093943 0.12845746454786658 C 0.17607191044177653 0.12835438484810036 0.17760512781552082 0.1270849944128769 0.17734849554098472 0.1272205081506718 C 0.17760512781552082 0.1270849944128769 0.1791760236290714 0.12679886565629941 0.17903544454537243 0.12683129969432805" fill="none" stroke="#000000" stroke-width="0.001"/>
</g><g transform="translate(0.3111127510520876,0.0940134124137475) rotate(0) scale(1,1) translate(-0.10433725337565573,-0.10418740031181734)"><path d="M 0.1074151760160208 0.10255223457341625 C 0.10723072247305253 0.10276698521209862 0.10577928880608341 0.10415941487117819 0.10630845475821118 0.10384073840551045 C 0.10577928880608341 0.10415941487117819 0.10387639807678697 0.10411083980751319 0.10424018030325413 0.1044642933674227 C 0.10387639807678697 0.10411083980751319 0.10424225668281012 0.10085086657783698 0.10412576139940823 0.1017200170460534 C 0.10424225668281012 0.10085086657783698 0.10493915200366545 0.09924939055812425 0.10493915200366545 0.09924939055812425 C 0.10493915200366545 0.09924939055812425 0.10400926611600633 0.1025891675142698 0.10412576139940823 0.1017200170460534 C 0.10400926611600633 0.1025891675142698 0.10397421206679808 0.10501040338129261 0.10424018030325413 0.1044642933674227 C 0.10397421206679808 0.10501040338129261 0.10205447076387766 0.10524935336198257 0.1025299519806719 0.10499667712927285 C 0.10205447076387766 0.10524935336198257 0.10119684983945816 0.10614429636941575 0.1013872930024887 0.10598035076368105" fill="none" stroke="#000000" stroke-width="0.001"/>
</g></g>
<g id="編節2">
<g transform="translate(0.30926976805741896,0.09729420894758617) rotate(0) scale(1,1) translate(-0.13796833536796266,-0.11460177227368223)"><path d="M 0.13939239008789442 0.11519455608771707 C 0.13944798201098402 0.1153736796824715 0.14012420001546003 0.11770969575796066 0.14005949316496955 0.11734403922477017 C 0.14012420001546003 0.11770969575796066 0.140177987221181 0.119768967424439 0.1401688722937801 0.11958243448600293" fill="none" stroke="#000000" stroke-width="0.001"/>
<path d="M 0.1401688722937801 0.11958243448600293 C 0.14009255959366737 0.11973875812844972 0.13906861716692961 0.12172023756109877 0.13925311989242722 0.12145831819536439 C 0.13906861716692961 0.12172023756109877 0.13784664956242393 0.12283106259810325 0.1379548395878088 0.12272546687481564" fill="none" stroke="#000000" stroke-width="0.001"/>
<path d="M 0.1379548395878088 0.12272546687481564 C 0.137926510194903 0.12280167673489917 0.1375372008516651 0.12376007184970109 0.13761488687293927 0.12363998519581797 C 0.1375372008516651 0.12376007184970109 0.1369160919090318 0.1242101704912632 0.13702260733251873 0.12416650672141304 C 0.1369160919090318 0.1242101704912632 0.1362298976871014 0.12411949164796743 0.13633670179109628 0.12416395043402005 C 0.1362298976871014 0.12411949164796743 0.13566248337349093 0.12351233264264551 0.13574095808458003 0.12363300128878164 C 0.13566248337349093 0.12351233264264551 0.1353658871753064 0.1225513812404507 0.1353950052580271 0.12271592668038642 C 0.1353658871753064 0.1225513812404507 0.13539125241142358 0.1215703334536502 0.13539154109193155 0.121658456009553" fill="none" stroke="#000000" stroke-width="0.001"/>
<path d="M 0.13539154109193155 0.121658456009553 C 0.1353313476311033 0.12148276817268239 0.13459264558883605 0.11917960556879821 0.13466921956199263 0.11955020196710565 C 0.13459264558883605 0.11917960556879821 0.13445627290172432 0.11701639066842681 0.13447265341405265 0.11721129922986365" fill="none" stroke="#000000" stroke-width="0.001"/>
<path d="M 0.13447265341405265 0.11721129922986365 C 0.1345399954402054 0.11705659262780542 0.1354533933307171 0.11508796077431363 0.1352807577278856 0.11535482000516499 C 0.1354533933307171 0.11508796077431363 0.13664957422470947 0.11389683583085423 0.1365442806480307 0.11400898845964737" fill="none" stroke="#000000" stroke-width="0.001"/>
</g><g transform="translate(0.30862219554337267,0.10108930353183718) rotate(0) scale(1,1) translate(-0.10433725337565573,-0.10418740031181734)"><path d="M 0.10640522535867998 0.10097877714730853 C 0.10631125940786189 0.10126611831434842 0.10549553481599983 0.10328503363722903 0.10584142965377143 0.10270282414954787 C 0.10549553481599983 0.10328503363722903 0.10394513940390002 0.10440617425544924 0.10432985633205036 0.10447203407339548 C 0.10394513940390002 0.10440617425544924 0.10340423333893958 0.10152901837963707 0.10353312808486934 0.10230766524187047 C 0.10340423333893958 0.10152901837963707 0.1035564878564718 0.09980015289999507 0.1035564878564718 0.09980015289999507 C 0.1035564878564718 0.09980015289999507 0.10366202283079909 0.10308631210410388 0.10353312808486934 0.10230766524187047 C 0.10366202283079909 0.10308631210410388 0.10425504523162425 0.10507886093190144 0.10432985633205036 0.10447203407339548 C 0.10425504523162425 0.10507886093190144 0.10276481761778185 0.10644435850684299 0.10308426148231267 0.1059486263929063 C 0.10276481761778185 0.10644435850684299 0.1023013484219575 0.10769606015103383 0.10241319314486538 0.10744642675701561" fill="none" stroke="#000000" stroke-width="0.001"/>
</g></g>
<g id="編節3">
<g transform="translate(0.30797462302932643,0.10488439811608827) rotate(0) scale(1,1) translate(-0.13796833536796266,-0.11460177227368223)"><path d="M 0.13927967495911284 0.1142861993924627 C 0.13936800735266391 0.114402911479328 0.14047990098669386 0.11595260104787002 0.14033966368172576 0.11568674443484622 C 0.14047990098669386 0.11595260104787002 0.14101442753014712 0.11762562327490668 0.1409625226187301 0.11747647874874818" fill="none" stroke="#000000" stroke-width="0.001"/>
<path d="M 0.1409625226187301 0.11747647874874818 C 0.1409370357352513 0.11764898079049058 0.14056743289350104 0.11986758511689409 0.14065668001698425 0.11954650324965686 C 0.14056743289350104 0.11986758511689409 0.13982779689692731 0.12147804098108968 0.1398915571369317 0.12132946115559484" fill="none" stroke="#000000" stroke-width="0.001"/>
<path d="M 0.1398915571369317 0.12132946115559484 C 0.13988642405813984 0.12140853598928504 0.13979471650932893 0.12242166260182936 0.13982996019142954 0.12227835915987718 C 0.13979471650932893 0.12242166260182936 0.13939150233242997 0.1231455034464019 0.13946863295172424 0.12304910245902094 C 0.13939150233242997 0.1231455034464019 0.13880604229056223 0.12345883897454027 0.1389043927598985 0.12343517100844881 C 0.13880604229056223 0.12345883897454027 0.13819520992914466 0.12327771118451976 0.13828842731968907 0.1233331180521185 C 0.13819520992914466 0.12327771118451976 0.13772267728612986 0.12265065312140332 0.1377857840733655 0.12277028859726402 C 0.13772267728612986 0.12265065312140332 0.1375099260228193 0.12182475932050048 0.13753114587286133 0.12189749234178998" fill="none" stroke="#000000" stroke-width="0.001"/>
<path d="M 0.13753114587286133 0.12189749234178998 C 0.13743985032120504 0.12178622657533399 0.1362844341180914 0.12029907630530445 0.13643559925298576 0.12056230314431808 C 0.1362844341180914 0.12029907630530445 0.13565729467089097 0.11858680920106882 0.13571716425412902 0.11873877027362645" fill="none" stroke="#000000" stroke-width="0.001"/>
<path d="M 0.13571716425412902 0.11873877027362645 C 0.13573566466408785 0.11857268276010624 0.13601748846719192 0.11642726801815684 0.13593916917363497 0.11674572011138389 C 0.13601748846719192 0.11642726801815684 0.1367168146604105 0.11476498057519495 0.13665699577681237 0.11491734515490179" fill="none" stroke="#000000" stroke-width="0.001"/>
</g><g transform="translate(0.3083461310977934,0.10839025035359327) rotate(0) scale(1,1) translate(-0.10433725337565573,-0.10418740031181734)"><path d="M 0.10527257822867676 0.10036282214099662 C 0.10526378131931731 0.10065369471599475 0.10507419179758737 0.1027854272752747 0.10521979677252004 0.10210805759098544 C 0.10507419179758737 0.1027854272752747 0.10406713190458351 0.10459028763510785 0.10439894837908076 0.10442704024673223 C 0.10406713190458351 0.10459028763510785 0.10293757923182321 0.10251637971796333 0.10322889792553655 0.10308754192123916 C 0.10293757923182321 0.10251637971796333 0.10265103621680076 0.10100006702707724 0.10265103621680076 0.10100006702707724 C 0.10265103621680076 0.10100006702707724 0.10352021661924989 0.10365870412451499 0.10322889792553655 0.10308754192123916 C 0.10352021661924989 0.10365870412451499 0.10448196355436626 0.10497135598712207 0.10439894837908076 0.10442704024673223 C 0.10448196355436626 0.10497135598712207 0.10358252874999373 0.10694430083914014 0.10372698897724959 0.10635343636357816 C 0.10358252874999373 0.10694430083914014 0.10349972002192821 0.10824202555619174 0.10353218701554555 0.10797222710010408" fill="none" stroke="#000000" stroke-width="0.001"/>
</g></g>
<g id="編節4">
</g>
<g id="編節5">
</g>
<g id="編節6">
</g>
<g id="編節7">
</g>
</g>
<g transform="translate(0.31295573404675614,0.09073261587990888) rotate(0) scale(1,1) translate(-0.17354151290850753,-0.17151703483688832)"><path d="M 0.18111122677948235 0.15687135354092305 C 0.18081032632726757 0.15739714830712323 0.17709811612909965 0.16406505845480943 0.17750042135290484 0.1631808907353251 C 0.17709811612909965 0.16406505845480943 0.17618215932222958 0.167839739128019 0.17628356409381998 0.16748136617473486" fill="none" stroke="none" stroke-width="0"/>
<path d="M 0.17628356409381998 0.16748136617473486 C 0.1761457348165565 0.1681234666793023 0.17430955699576015 0.17657753727461198 0.17462961276665812 0.17518657222954437 C 0.17430955699576015 0.17657753727461198 0.17226066834940987 0.1849218112560462 0.17244289484304434 0.18417294671554607" fill="none" stroke="none" stroke-width="0"/>
<path d="M 0.17244289484304434 0.18417294671554607 C 0.17216224872347338 0.18508589882154677 0.16826058820776904 0.1973610854798396 0.16907514140819282 0.19512837198755462 C 0.16826058820776904 0.1973610854798396 0.162134349357106 0.21228527000925024 0.16266825643795882 0.21096550862296595" fill="none" stroke="#000000" stroke-width="0.001"/>
<path d="M 0.16266825643795882 0.21096550862296595 C 0.1629310268779396 0.20981301618445686 0.1661656274359334 0.19471627789481338 0.1658215017177281 0.1971355993608567 C 0.1661656274359334 0.19471627789481338 0.1668791203346471 0.1806668220029121 0.16679776505642258 0.1819336510304463" fill="none" stroke="#000000" stroke-width="0.001"/>
<path d="M 0.16679776505642258 0.1819336510304463 C 0.16693148522760834 0.18130888581387467 0.16868913683101722 0.1734122381923517 0.16840240711065185 0.17443646843158697 C 0.16868913683101722 0.1734122381923517 0.17039153124998654 0.169243423136959 0.17023852170080694 0.1696428881596227" fill="none" stroke="#000000" stroke-width="0.001"/>
<path d="M 0.17023852170080694 0.1696428881596227 C 0.17056112326650819 0.16908467495874607 0.17501579924577815 0.16188003519754487 0.17410974048922187 0.16294432974910317 C 0.17501579924577815 0.16188003519754487 0.1816946839703374 0.15636527219024138 0.18111122677948235 0.15687135354092305" fill="none" stroke="#000000" stroke-width="0.001"/>
</g><g transform="translate(0.33292955934003177,0.07935596154029032) rotate(0) scale(1,1) translate(-0.18233721705154246,-0.14882968924032608)"><path d="M 0.18828881380858364 0.1410564513477972 C 0.18836706400864112 0.1414350359536065 0.18913307056737386 0.1462943832285616 0.18922781620927334 0.14559946661750892 C 0.18913307056737386 0.1462943832285616 0.18697887026383286 0.14971178268567276 0.18715186610578982 0.1493954506804294" fill="none" stroke="none" stroke-width="0"/>
<path d="M 0.18715186610578982 0.1493954506804294 C 0.18721924829986505 0.1502219528238997 0.18687939751513322 0.1605212003983701 0.18796045243469267 0.15931347640207288 C 0.18687939751513322 0.1605212003983701 0.17303076995744168 0.1642693604888229 0.17417920707107637 0.16388813863599597" fill="none" stroke="none" stroke-width="0"/>
<path d="M 0.17417920707107637 0.16388813863599597 C 0.17359015485283816 0.16441352210572255 0.16635797205845868 0.1715622299015903 0.16711058045221794 0.1701927402727148 C 0.16635797205845868 0.1715622299015903 0.16498435017044402 0.18116612034165092 0.1651479063459651 0.180322014182502" fill="none" stroke="none" stroke-width="0"/>
<path d="M 0.1651479063459651 0.180322014182502 C 0.1651478989916579 0.1813059757130262 0.1654535444626474 0.19588809034859644 0.16514781809427886 0.19212955254879258 C 0.1654535444626474 0.19588809034859644 0.1691223564890632 0.22819904404942792 0.16881662276638748 0.22542446778014827" fill="none" stroke="#000000" stroke-width="0.001"/>
<path d="M 0.16881662276638748 0.22542446778014827 C 0.16823275842216984 0.2229343383548459 0.16104669462330165 0.19146540579992988 0.16181025063577564 0.19554291467652007 C 0.16104669462330165 0.19146540579992988 0.1594742589484434 0.17490698180977818 0.1596539506166997 0.17649436126106602" fill="none" stroke="#000000" stroke-width="0.001"/>
<path d="M 0.1596539506166997 0.17649436126106602 C 0.1598962688576884 0.17483148024223602 0.16337679431534186 0.15398147877789164 0.16256176950856413 0.15653978903510593 C 0.16337679431534186 0.15398147877789164 0.17000695486382142 0.14489920893611016 0.16943424829803239 0.14579463817449445" fill="none" stroke="#000000" stroke-width="0.001"/>
<path d="M 0.16943424829803239 0.14579463817449445 C 0.17016314618393433 0.14551678549277308 0.1797522367214016 0.14206555709161323 0.17818102292885565 0.142460405993838 C 0.1797522367214016 0.14206555709161323 0.18913112971522764 0.1409394551272938 0.18828881380858364 0.1410564513477972" fill="none" stroke="#000000" stroke-width="0.001"/>
</g><g transform="translate(0.3617311716105851,0.09073261587990888) rotate(0) scale(1,1) translate(-0.17199583769089846,-0.15739337258770392)"><path d="M 0.16473613235822454 0.14287454056693322 C 0.16526974260476388 0.14340136593878566 0.17205511585105016 0.15057597970891953 0.1711394553166966 0.14919644502916243 C 0.17205511585105016 0.15057597970891953 0.17610610905828117 0.1602816660319232 0.17572405877046698 0.15942895672401852" fill="none" stroke="#000000" stroke-width="0.001"/>
<path d="M 0.17572405877046698 0.15942895672401852 C 0.17583511652049136 0.16064886997107122 0.17700565754183117 0.17671834479916418 0.1770567517707596 0.17406791568865096 C 0.17700565754183117 0.17671834479916418 0.17494877604437298 0.1926646219136377 0.17511092802332578 0.19123410605017718" fill="none" stroke="#000000" stroke-width="0.001"/>
<path d="M 0.17511092802332578 0.19123410605017718 C 0.17479056818636918 0.19258334877410446 0.17039711342117314 0.21056803899026605 0.17126660997984647 0.20742501873730462 C 0.17039711342117314 0.21056803899026605 0.16412783259752903 0.23074412661474852 0.16467696931924575 0.22895034908571438" fill="none" stroke="#000000" stroke-width="0.001"/>
<path d="M 0.16467696931924575 0.22895034908571438 C 0.16492451706810501 0.2271722647569892 0.16811132957484134 0.2045254441693142 0.16764754230555687 0.20761333714101235 C 0.16811132957484134 0.2045254441693142 0.17045865607108468 0.19058582478236347 0.17024241655065947 0.19189563342533647" fill="none" stroke="#000000" stroke-width="0.001"/>
<path d="M 0.17024241655065947 0.19189563342533647 C 0.1702467862748297 0.19070938398646545 0.17024775834850647 0.1753773245461364 0.17029485324070226 0.1776606401588841 C 0.17024775834850647 0.1753773245461364 0.16962581322794412 0.1633987798984871 0.16967727784431014 0.1644958460723638" fill="none" stroke="none" stroke-width="0"/>
<path d="M 0.16967727784431014 0.1644958460723638 C 0.16951450027440984 0.163520395148753 0.1673121848816662 0.15098865953024823 0.16772394700550666 0.1527904349890341 C 0.1673121848816662 0.15098865953024823 0.16448714780428436 0.14204821603175816 0.16473613235822454 0.14287454056693322" fill="none" stroke="none" stroke-width="0"/>
</g><g id="編み右">
<g id="編節1">
<g transform="translate(0.3617311716105851,0.09073261587990888) rotate(0) scale(1,1) translate(-0.18027204884513678,-0.12848593137462816)"><path d="M 0.18150865314490122 0.12683129969432805 C 0.1816492322286002 0.12686373373235668 0.18345223442382505 0.12735602188846668 0.18319560214928896 0.1272205081506718 C 0.18345223442382505 0.12735602188846668 0.18470429363017132 0.1285605442476328 0.18458824043933422 0.12845746454786658" fill="none" stroke="#000000" stroke-width="0.001"/>
<path d="M 0.18458824043933422 0.12845746454786658 C 0.18463327762057363 0.12866313261908077 0.1851689131362843 0.13135055568428428 0.185128686614207 0.13092548140243687 C 0.1851689131362843 0.13135055568428428 0.18506614804509988 0.13377776214066858 0.18507095870426196 0.13355835593003537" fill="none" stroke="#000000" stroke-width="0.001"/>
<path d="M 0.18507095870426196 0.13355835593003537 C 0.18509843493943465 0.1336460131544532 0.18542341272739318 0.1347953211810795 0.18540067352633427 0.1346102426230493 C 0.18542341272739318 0.1347953211810795 0.18530341106392018 0.1359578014351501 0.1853438291169689 0.13577929862639782 C 0.18530341106392018 0.1359578014351501 0.18482291156726718 0.13687637370409933 0.1849156568897495 0.13675227632807682 C 0.18482291156726718 0.13687637370409933 0.18411066368952586 0.13730490729027262 0.1842308852471809 0.13726846713866794 C 0.18411066368952586 0.13730490729027262 0.18335751367434797 0.13712857696532518 0.1834729981978892 0.13718955814733289 C 0.18335751367434797 0.13712857696532518 0.18279274369525247 0.1364822875218458 0.18284507096468608 0.13653669295457557" fill="none" stroke="#000000" stroke-width="0.001"/>
<path d="M 0.18284507096468608 0.13653669295457557 C 0.18270366270392463 0.13651293417716803 0.18088123452518118 0.13612986248522618 0.18114817183554863 0.13625158762568523 C 0.18088123452518118 0.13612986248522618 0.17951629419067058 0.1349780249060155 0.17964182324027658 0.135075991269067" fill="none" stroke="#000000" stroke-width="0.001"/>
<path d="M 0.17964182324027658 0.135075991269067 C 0.17959216286158916 0.13488407502688537 0.17899536713811873 0.132361710678376 0.1790458986960274 0.13277299636288756 C 0.17899536713811873 0.132361710678376 0.1790345733661511 0.12992119361259835 0.17903544454537237 0.1301405630549283" fill="none" stroke="#000000" stroke-width="0.001"/>
</g><g transform="translate(0.3635741546052538,0.0940134124137475) rotate(0) scale(1,1) translate(-0.10433725337565573,-0.10418740031181734)"><path d="M 0.10728721374882275 0.10598035076368105 C 0.1070967705857922 0.10581640515794635 0.10566907355384528 0.10474400089656313 0.10614455477063951 0.10499667712927285 C 0.10566907355384528 0.10474400089656313 0.10416835821160125 0.1039181833535528 0.10443432644805731 0.1044642933674227 C 0.10416835821160125 0.1039181833535528 0.1044322500685013 0.10085086657783698 0.10454874535190319 0.1017200170460534 C 0.1044322500685013 0.10085086657783698 0.103735354747646 0.09924939055812425 0.103735354747646 0.09924939055812425 C 0.103735354747646 0.09924939055812425 0.10466524063530507 0.1025891675142698 0.10454874535190319 0.1017200170460534 C 0.10466524063530507 0.1025891675142698 0.10407054422159015 0.10481774692733221 0.10443432644805731 0.1044642933674227 C 0.10407054422159015 0.10481774692733221 0.10183688604097246 0.1035220619398427 0.10236605199310024 0.10384073840551045 C 0.10183688604097246 0.1035220619398427 0.10107487719232237 0.10233748393473388 0.10125933073529064 0.10255223457341625" fill="none" stroke="#000000" stroke-width="0.001"/>
</g></g>
<g id="編節2">
<g transform="translate(0.36541713759992234,0.09729420894758617) rotate(0) scale(1,1) translate(-0.13796833536796266,-0.11460177227368223)"><path d="M 0.13939239008789453 0.11400898845964737 C 0.1394976836645733 0.1141211410884405 0.14082854861087118 0.11562167923601635 0.14065591300803967 0.11535482000516499 C 0.14082854861087118 0.11562167923601635 0.1415313593480253 0.11736600583192187 0.14146401732187255 0.11721129922986365" fill="none" stroke="#000000" stroke-width="0.001"/>
<path d="M 0.14146401732187255 0.11721129922986365 C 0.14144763680954422 0.11740620779130048 0.14119087720077597 0.11992079836541308 0.14126745117393255 0.11955020196710564 C 0.14119087720077597 0.11992079836541308 0.1404849361831655 0.1218341438464236 0.1405451296439937 0.121658456009553" fill="none" stroke="#000000" stroke-width="0.001"/>
<path d="M 0.1405451296439937 0.121658456009553 C 0.14054484096348574 0.12174657856545579 0.14051254739517746 0.12288047212032213 0.14054166547789818 0.12271592668038642 C 0.14051254739517746 0.12288047212032213 0.1401172379402561 0.12375366993491778 0.1401957126513452 0.12363300128878164 C 0.1401172379402561 0.12375366993491778 0.13949316484083413 0.12420840922007267 0.139599968944829 0.12416395043402005 C 0.13949316484083413 0.12420840922007267 0.13880754797991962 0.12412284295156287 0.13891406340340653 0.12416650672141304 C 0.13880754797991962 0.12412284295156287 0.13824409784171177 0.12351989854193483 0.13832178386298594 0.12363998519581795 C 0.13824409784171177 0.12351989854193483 0.13795350175521068 0.12264925701473212 0.13798183114811646 0.12272546687481564" fill="none" stroke="#000000" stroke-width="0.001"/>
<path d="M 0.13798183114811646 0.12272546687481564 C 0.1378736411227316 0.12261987115152803 0.13649904811800043 0.12119639882963 0.13668355084349804 0.12145831819536439 C 0.13649904811800043 0.12119639882963 0.13569148574203244 0.11942611084355614 0.13576779844214518 0.11958243448600293" fill="none" stroke="#000000" stroke-width="0.001"/>
<path d="M 0.13576779844214518 0.11958243448600293 C 0.13577691336954606 0.11939590154756687 0.13594188442144622 0.11697838269157969 0.13587717757095574 0.11734403922477017 C 0.13594188442144622 0.11697838269157969 0.1365998725711204 0.11501543249296264 0.1365442806480308 0.11519455608771707" fill="none" stroke="#000000" stroke-width="0.001"/>
</g><g transform="translate(0.36606471011396857,0.10108930353183718) rotate(0) scale(1,1) translate(-0.10433725337565573,-0.10418740031181734)"><path d="M 0.10626131360644608 0.10744642675701561 C 0.1061494688835382 0.1071967933629974 0.10527080140446793 0.1054528942789696 0.10559024526899877 0.1059486263929063 C 0.10527080140446793 0.1054528942789696 0.10426983931883498 0.10386520721488951 0.10434465041926108 0.10447203407339548 C 0.10426983931883498 0.10386520721488951 0.10527027341237188 0.10152901837963707 0.10514137866644212 0.10230766524187047 C 0.10527027341237188 0.10152901837963707 0.10511801889483964 0.09980015289999507 0.10511801889483964 0.09980015289999507 C 0.10511801889483964 0.09980015289999507 0.10501248392051235 0.10308631210410388 0.10514137866644212 0.10230766524187047 C 0.10501248392051235 0.10308631210410388 0.10395993349111074 0.10453789389134172 0.10434465041926108 0.10447203407339548 C 0.10395993349111074 0.10453789389134172 0.10248718225976843 0.10212061466186671 0.10283307709754003 0.10270282414954787 C 0.10248718225976843 0.10212061466186671 0.10217531544181341 0.10069143598026864 0.1022692813926315 0.10097877714730853" fill="none" stroke="#000000" stroke-width="0.001"/>
</g></g>
<g id="編節3">
<g transform="translate(0.36671228262801475,0.10488439811608827) rotate(0) scale(1,1) translate(-0.13796833536796266,-0.11460177227368223)"><path d="M 0.1392796749591129 0.11491734515490179 C 0.139339493842711 0.11506970973460863 0.1400758208558472 0.11706417220461093 0.13999750156229024 0.11674572011138387 C 0.1400758208558472 0.11706417220461093 0.14023800689175503 0.11890485778714666 0.1402195064817962 0.11873877027362645" fill="none" stroke="#000000" stroke-width="0.001"/>
<path d="M 0.1402195064817962 0.11873877027362645 C 0.14015963689855815 0.11889073134618408 0.13934990634804512 0.12082552998333171 0.13950107148293947 0.12056230314431808 C 0.13934990634804512 0.12082552998333171 0.13831422931140763 0.12200875810824598 0.13840552486306393 0.12189749234178998" fill="none" stroke="#000000" stroke-width="0.001"/>
<path d="M 0.13840552486306393 0.12189749234178998 C 0.1383843050130219 0.12197022536307948 0.13808777987532403 0.12288992407312473 0.13815088666255967 0.12277028859726402 C 0.13808777987532403 0.12288992407312473 0.13755502602569172 0.12338852491971723 0.13764824341623613 0.1233331180521185 C 0.13755502602569172 0.12338852491971723 0.13693392750669053 0.12341150304235735 0.1370322779760268 0.12343517100844881 C 0.13693392750669053 0.12341150304235735 0.1363909071649067 0.12295270147163997 0.13646803778420097 0.12304910245902094 C 0.1363909071649067 0.12295270147163997 0.13607146686239513 0.122135055717925 0.13610671054449575 0.12227835915987718 C 0.13607146686239513 0.122135055717925 0.13603998052020166 0.12125038632190464 0.13604511359899352 0.12132946115559484" fill="none" stroke="#000000" stroke-width="0.001"/>
<path d="M 0.13604511359899352 0.12132946115559484 C 0.13598135335898914 0.12118088133010001 0.13519074359545785 0.11922542138241964 0.13527999071894103 0.11954650324965686 C 0.13519074359545785 0.11922542138241964 0.13494866123371638 0.11730397670700579 0.1349741481171952 0.11747647874874818" fill="none" stroke="#000000" stroke-width="0.001"/>
<path d="M 0.1349741481171952 0.11747647874874818 C 0.1350260530286122 0.11732733422258969 0.13573724435916756 0.11542088782182243 0.13559700705419947 0.11568674443484622 C 0.13573724435916756 0.11542088782182243 0.1367453281703635 0.11416948730559741 0.13665699577681242 0.1142861993924627" fill="none" stroke="#000000" stroke-width="0.001"/>
</g><g transform="translate(0.3663407745595478,0.10839025035359327) rotate(0) scale(1,1) translate(-0.10433725337565573,-0.10418740031181734)"><path d="M 0.10514231973576588 0.10797222710010408 C 0.10510985274214854 0.10770242864401643 0.104803057546806 0.10576257188801619 0.10494751777406186 0.10635343636357816 C 0.104803057546806 0.10576257188801619 0.1043585735475162 0.1038827245063424 0.1042755583722307 0.10442704024673223 C 0.1043585735475162 0.1038827245063424 0.1057369275194882 0.10251637971796333 0.10544560882577486 0.10308754192123916 C 0.1057369275194882 0.10251637971796333 0.10602347053451068 0.10100006702707724 0.10602347053451068 0.10100006702707724 C 0.10602347053451068 0.10100006702707724 0.10515429013206153 0.10365870412451499 0.10544560882577486 0.10308754192123916 C 0.10515429013206153 0.10365870412451499 0.10394374189773345 0.10426379285835662 0.1042755583722307 0.10442704024673223 C 0.10394374189773345 0.10426379285835662 0.10330910500385872 0.10143068790669618 0.10345470997879139 0.10210805759098544 C 0.10330910500385872 0.10143068790669618 0.1033931316132752 0.10007194956599849 0.10340192852263465 0.10036282214099662" fill="none" stroke="#000000" stroke-width="0.001"/>
</g></g>
<g id="編節4">
</g>
<g id="編節5">
</g>
<g id="編節6">
</g>
<g id="編節7">
</g>
</g>
<g transform="translate(0.3617311716105851,0.09073261587990888) rotate(0) scale(1,1) translate(-0.17354151290850753,-0.17151703483688832)"><path d="M 0.16597179903753273 0.15687135354092305 C 0.16655525622838777 0.15737743489160472 0.17387934408434938 0.16400862430066146 0.1729732853277931 0.16294432974910317 C 0.17387934408434938 0.16400862430066146 0.17716710568190933 0.17020110136049932 0.17684450411620808 0.1696428881596227" fill="none" stroke="#000000" stroke-width="0.001"/>
<path d="M 0.17684450411620808 0.1696428881596227 C 0.17699751366538768 0.1700423531822864 0.1789673484267285 0.17546069867082226 0.17868061870636315 0.17443646843158697 C 0.1789673484267285 0.17546069867082226 0.18041898093177816 0.1825584162470179 0.1802852607605924 0.1819336510304463" fill="none" stroke="#000000" stroke-width="0.001"/>
<path d="M 0.1802852607605924 0.1819336510304463 C 0.18036661603881696 0.18320048005798048 0.1816056498174923 0.19955492082690002 0.181261524099287 0.1971355993608567 C 0.1816056498174923 0.19955492082690002 0.18467753981903692 0.21211800106147505 0.18441476937905615 0.21096550862296595" fill="none" stroke="#000000" stroke-width="0.001"/>
<path d="M 0.18441476937905615 0.21096550862296595 C 0.18388086229820333 0.20964574723668167 0.17719333120839845 0.19289565849526963 0.17800788440882223 0.19512837198755462 C 0.17719333120839845 0.19289565849526963 0.17435948485439975 0.18325999460954537 0.17464013097397071 0.18417294671554607" fill="none" stroke="#000000" stroke-width="0.001"/>
<path d="M 0.17464013097397071 0.18417294671554607 C 0.17445790448033624 0.18342408217504594 0.17213335727945894 0.17379560718447676 0.1724534130503569 0.17518657222954437 C 0.17213335727945894 0.17379560718447676 0.17066163244593158 0.1668392656701674 0.17079946172319507 0.16748136617473486" fill="none" stroke="none" stroke-width="0"/>
<path d="M 0.17079946172319507 0.16748136617473486 C 0.17069805695160467 0.16712299322145072 0.16918029924030495 0.16229672301584078 0.16958260446411014 0.1631808907353251 C 0.16918029924030495 0.16229672301584078 0.16567089858531794 0.15634555877472286 0.16597179903753273 0.15687135354092305" fill="none" stroke="none" stroke-width="0"/>
</g><g transform="translate(0.34175734631730964,0.07935596154029032) rotate(0) scale(1,1) translate(-0.17728282351693694,-0.14882968924032608)"><path d="M 0.16436201118284827 0.14244370473010448 C 0.16513696630948638 0.14220069261809087 0.1756544635790391 0.13965053377220882 0.1736614727025056 0.1395275593859412 C 0.1756544635790391 0.13965053377220882 0.18949593745114582 0.14428538386359718 0.18827790170125042 0.14391939736531595" fill="none" stroke="#000000" stroke-width="0.001"/>
<path d="M 0.18827790170125042 0.14391939736531595 C 0.18899039204355209 0.14487367289462236 0.19779254589957407 0.15778830342893357 0.19682778580887056 0.15537070371699294 C 0.19779254589957407 0.15778830342893357 0.20010729253809417 0.17439391809123778 0.19985502278969236 0.17293059390860355" fill="none" stroke="#000000" stroke-width="0.001"/>
<path d="M 0.19985502278969236 0.17293059390860355 C 0.1997041224730775 0.17469737806410193 0.19734468193653834 0.1981064703527419 0.19804421899031424 0.19413200377458406 C 0.19734468193653834 0.1981064703527419 0.19091194140722043 0.22283187526915718 0.1914605781443815 0.2206241928464977" fill="none" stroke="#000000" stroke-width="0.001"/>
<path d="M 0.1914605781443815 0.2206241928464977 C 0.19171154850519975 0.2182496394883556 0.19472318548071146 0.18877103766012626 0.1944722224742004 0.19212955254879258 C 0.19472318548071146 0.18877103766012626 0.194472126868207 0.17933805265197778 0.1944721342225142 0.180322014182502" fill="none" stroke="#000000" stroke-width="0.001"/>
<path d="M 0.1944721342225142 0.180322014182502 C 0.1941563902530648 0.17928848017077834 0.18888287611443408 0.1662710423070552 0.1906832065891216 0.16791960604181808 C 0.18888287611443408 0.1662710423070552 0.17138358202102572 0.15992421964230816 0.17286816852626385 0.1605392493653474" fill="none" stroke="none" stroke-width="0"/>
<path d="M 0.17286816852626385 0.1605392493653474 C 0.17227060567630642 0.16029108241117754 0.16503271173080566 0.15665075062391756 0.16569741432677448 0.15756124591530934 C 0.16503271173080566 0.15665075062391756 0.16482459762862658 0.14895097753142392 0.16489173737463797 0.14961330586864588" fill="none" stroke="none" stroke-width="0"/>
<path d="M 0.16489173737463797 0.14961330586864588 C 0.16479212120165562 0.149299391942451 0.16365219944953396 0.1452488719927623 0.16369634329884977 0.14584633875430741 C 0.16365219944953396 0.1452488719927623 0.1644174835065148 0.14216015189475423 0.16436201118284827 0.14244370473010448" fill="none" stroke="none" stroke-width="0"/>
</g><g transform="translate(0.336009105406829,0.09452972510769928) rotate(0) scale(1,1) translate(-0.17175142008376063,-0.17000147314616015)"><path d="M 0.18543274860885722 0.15871959514088915 C 0.1856189518005373 0.15907145163725075 0.18780638650460993 0.163654315222421 0.18766718690901835 0.1629418730972283 C 0.18780638650460993 0.163654315222421 0.18705614015986774 0.16762948627203272 0.18710314375595624 0.1672689006432016" fill="none" stroke="none" stroke-width="0"/>
<path d="M 0.18710314375595624 0.1672689006432016 C 0.18696254111505 0.16749905553399688 0.18500541148081892 0.17039753656141074 0.1854159120650815 0.17003075933274503 C 0.18500541148081892 0.17039753656141074 0.18190723880144866 0.1718068497250606 0.18217713674480504 0.17167022738719018" fill="none" stroke="none" stroke-width="0"/>
<path d="M 0.18217713674480504 0.17167022738719018 C 0.1817875583163686 0.171689446741156 0.176672978713395 0.17194560690917643 0.1775021956035678 0.1719008596347798 C 0.176672978713395 0.17194560690917643 0.17178689560099492 0.17223272260038042 0.17222653406273128 0.1722071946799496" fill="none" stroke="#000000" stroke-width="0.001"/>
<path d="M 0.17222653406273128 0.1722071946799496 C 0.17211138471994586 0.17190251439999601 0.1707437151388237 0.16800139153483232 0.17084474194930618 0.1685510313205066 C 0.1707437151388237 0.16800139153483232 0.17102833486924424 0.16536655774613723 0.1710142123369413 0.16561151725185796" fill="none" stroke="#000000" stroke-width="0.001"/>
<path d="M 0.1710142123369413 0.16561151725185796 C 0.17126758579282508 0.16541180882473008 0.1745920033691377 0.16288431566060502 0.17405469380754668 0.1632150161263233 C 0.1745920033691377 0.16288431566060502 0.1777458631817407 0.1615121196246483 0.17746192707603348 0.16164311166323866" fill="none" stroke="none" stroke-width="0"/>
<path d="M 0.17746192707603348 0.16164311166323866 C 0.17783995742700173 0.16139387649064377 0.18266252641538783 0.15840866321523744 0.18199829128765252 0.1586522895920999 C 0.18266252641538783 0.15840866321523744 0.18571895338562427 0.1587252039366216 0.18543274860885722 0.15871959514088915" fill="none" stroke="none" stroke-width="0"/>
</g><g transform="translate(0.3327812786024914,0.09369018415110425) rotate(0) scale(1,1) translate(-0.17295983519055422,-0.17005901672267412)"><path d="M 0.18664663877982457 0.15800476439646588 C 0.18686830293205486 0.15828418051725912 0.18934560905755246 0.1619597845798042 0.189306608606588 0.1613577578459847 C 0.18934560905755246 0.1619597845798042 0.1869319804901325 0.1655516958153263 0.18711464419139828 0.16522908520230004" fill="none" stroke="none" stroke-width="0"/>
<path d="M 0.18711464419139828 0.16522908520230004 C 0.18687518743292011 0.16547450817052148 0.18377748816656467 0.16853307963980046 0.18424116308966013 0.16817416082095724 C 0.18377748816656467 0.16853307963980046 0.18132632694963566 0.16964960687904052 0.18155054511425292 0.16953611102841873" fill="none" stroke="#000000" stroke-width="0.001"/>
<path d="M 0.18155054511425292 0.16953611102841873 C 0.18114867902106757 0.16966704821039091 0.17595638716127535 0.17140740432926715 0.17672815199602857 0.171107357212085 C 0.17595638716127535 0.17140740432926715 0.17191946835564634 0.17330578636981436 0.1722893670972142 0.17313667643460443" fill="none" stroke="#000000" stroke-width="0.001"/>
<path d="M 0.1722893670972142 0.17313667643460443 C 0.17225106887357708 0.172879061228974 0.1719351653719335 0.16953455485295543 0.17182978841356855 0.17004529396703943 C 0.1719351653719335 0.16953455485295543 0.17369756577959597 0.16675468315714276 0.17355389059759385 0.16700780706559634" fill="none" stroke="#000000" stroke-width="0.001"/>
<path d="M 0.17355389059759385 0.16700780706559634 C 0.1737598204074531 0.16672607202376577 0.17640068656308522 0.16313003800201417 0.176025048315905 0.16362698656362942 C 0.17640068656308522 0.16313003800201417 0.17823125800107742 0.1608292108064286 0.17806154956375647 0.16104442432621327" fill="none" stroke="#000000" stroke-width="0.001"/>
<path d="M 0.17806154956375647 0.16104442432621327 C 0.17834623499201735 0.16082390510101 0.1821931988042261 0.15814488862962847 0.1814777747028871 0.15839819362377408 C 0.1821931988042261 0.15814488862962847 0.1870773774529027 0.15797197862752352 0.18664663877982457 0.15800476439646588" fill="none" stroke="none" stroke-width="0"/>
</g><g transform="translate(0.3299315385665266,0.0948583526504837) rotate(0) scale(1,1) translate(-0.17175142008376063,-0.17000147314616015)"><path d="M 0.16337509649696677 0.16033129199878499 C 0.16355032391131397 0.16032648445958575 0.16588450003713417 0.16048242413713346 0.16547782546913295 0.1602736015283942 C 0.16588450003713417 0.16048242413713346 0.1684866384666354 0.1630507934515945 0.16825519131298136 0.16283716330365602" fill="none" stroke="none" stroke-width="0"/>
<path d="M 0.16825519131298136 0.16283716330365602 C 0.168429029745047 0.16294944219387636 0.17067021753547798 0.16446796752834425 0.17034125249776919 0.16418450998630002 C 0.17067021753547798 0.16446796752834425 0.1723578983711299 0.16640983246001073 0.17220277176548676 0.16623865380818684" fill="none" stroke="none" stroke-width="0"/>
<path d="M 0.17220277176548676 0.16623865380818684 C 0.1722114182138355 0.1664486190988046 0.1722446759963966 0.16922935711189233 0.17230652914567157 0.16875823729560005 C 0.1722446759963966 0.16922935711189233 0.17139003437656308 0.17215324612936853 0.1714605339741868 0.17189209160369404" fill="none" stroke="#000000" stroke-width="0.001"/>
<path d="M 0.1714605339741868 0.17189209160369404 C 0.17119136756904207 0.17187021052903906 0.1677228533021402 0.17159116390120846 0.1682305371124501 0.17162951870783413 C 0.1677228533021402 0.17159116390120846 0.16512981084530304 0.1714153601922152 0.16536832825046818 0.1714318339241859" fill="none" stroke="#000000" stroke-width="0.001"/>
<path d="M 0.16536832825046818 0.1714318339241859 C 0.16520308461167857 0.17131472906315412 0.16313407769666877 0.16971219511009092 0.16338540458499282 0.1700265755918044 C 0.16313407769666877 0.16971219511009092 0.1622663223410453 0.16746199252294258 0.16235240559057973 0.16765926814362425" fill="none" stroke="none" stroke-width="0"/>
<path d="M 0.16235240559057973 0.16765926814362425 C 0.16232362787868881 0.1673501947474833 0.16209229729008753 0.16333972271119626 0.1620070730478886 0.16395038738993287 C 0.16209229729008753 0.16333972271119626 0.1634890984510566 0.16002970071618933 0.16337509649696677 0.16033129199878499" fill="none" stroke="none" stroke-width="0"/>
</g><g transform="translate(0.3319077590589781,0.09413874611625936) rotate(0) scale(1,1) translate(-0.17295983519055422,-0.17005901672267412)"><path d="M 0.16458015952365407 0.1597268004430671 C 0.16484387707859985 0.15975490253073196 0.16818278493892536 0.16028114406145597 0.16774477018300352 0.16006402549504545 C 0.16818278493892536 0.16028114406145597 0.17001063379569228 0.16252123971873902 0.16983633659471623 0.16233222323999336" fill="none" stroke="none" stroke-width="0"/>
<path d="M 0.16983633659471623 0.16233222323999336 C 0.16994023971960662 0.16251669197123736 0.17131315669371522 0.16497180392487742 0.1710831740934008 0.1645458480149215 C 0.17131315669371522 0.16497180392487742 0.1727222072739133 0.1676851813381765 0.17259612779848926 0.16744369415946458" fill="none" stroke="#000000" stroke-width="0.001"/>
<path d="M 0.17259612779848926 0.16744369415946458 C 0.1726840921956334 0.16766065750956766 0.17371621706934037 0.17048503074420213 0.17365170056421897 0.17004725436070156 C 0.17371621706934037 0.17048503074420213 0.1733468779679234 0.17291782379486897 0.17337032585994613 0.17269701076147148" fill="none" stroke="#000000" stroke-width="0.001"/>
<path d="M 0.17337032585994613 0.17269701076147148 C 0.17314385724265968 0.17255205938843438 0.17018019337000684 0.1707004110417274 0.17065270245250883 0.17095759428502635 C 0.17018019337000684 0.1707004110417274 0.16745417640470686 0.16949857997162193 0.1677002168699224 0.1696108118418838" fill="none" stroke="#000000" stroke-width="0.001"/>
<path d="M 0.1677002168699224 0.1696108118418838 C 0.1675629404426057 0.169513529684208 0.1657690171361453 0.16813578124790826 0.16605289974212212 0.16844342594977388 C 0.1657690171361453 0.16813578124790826 0.16414701941954069 0.16570871287530659 0.1642936255982008 0.16591907541949638" fill="none" stroke="#000000" stroke-width="0.001"/>
<path d="M 0.1642936255982008 0.16591907541949638 C 0.16418179067905847 0.16564255203690242 0.16297548439561393 0.16208477191366646 0.16295160656849283 0.1626007948283689 C 0.16297548439561393 0.16208477191366646 0.16471587226991752 0.15948730091095864 0.16458015952365407 0.1597268004430671" fill="none" stroke="none" stroke-width="0"/>
</g><g transform="translate(0.3256369105007465,0.08553865170011232) rotate(0) scale(1,1) translate(-0.17390341090239536,-0.15286408272832677)"><path d="M 0.17826169240020062 0.1541465717590146 C 0.17817018836180948 0.15440401967396233 0.17682888316073297 0.1580953884786423 0.1771636439395069 0.15723594673838737 C 0.17682888316073297 0.1580953884786423 0.1740013063145309 0.1650618664673808 0.17424456305491368 0.16445987264207362" fill="none" stroke="#000000" stroke-width="0.001"/>
<path d="M 0.17424456305491368 0.16445987264207362 C 0.17386695070804434 0.1651784817786926 0.16900525165720157 0.17453911626079435 0.16971321489248153 0.17308318228150119 C 0.16900525165720157 0.17453911626079435 0.16541865334314332 0.18266840523626574 0.16574900423155395 0.18193108039359154" fill="none" stroke="#000000" stroke-width="0.001"/>
<path d="M 0.16574900423155395 0.18193108039359154 C 0.1657245827767534 0.18263358386349543 0.16543696731110108 0.19168853868496863 0.16545594677394723 0.19036112203243832 C 0.16543696731110108 0.19168853868496863 0.16552669266935466 0.19848499340658177 0.16552125067740023 0.19786008022395535" fill="none" stroke="#000000" stroke-width="0.001"/>
<path d="M 0.16552125067740023 0.19786008022395535 C 0.16556290677596458 0.19852216344392823 0.16616178811244925 0.20758264689551492 0.16602112386017234 0.20580507886362998 C 0.16616178811244925 0.20758264689551492 0.16730822985843552 0.22030638141848657 0.16720922170472297 0.21919089660657454" fill="none" stroke="#000000" stroke-width="0.001"/>
<path d="M 0.16720922170472297 0.21919089660657454 C 0.1670076580862723 0.21796229045785528 0.16448296352975367 0.20248157774239023 0.16479045828331482 0.20444762282194354 C 0.16448296352975367 0.20248157774239023 0.16341335352687889 0.19486091672110067 0.16351928466198934 0.19559835565193473" fill="none" stroke="#000000" stroke-width="0.001"/>
<path d="M 0.16351928466198934 0.19559835565193473 C 0.16345499762908122 0.1949436227025087 0.16264845562221655 0.18649667892237917 0.16274784026709177 0.18774156025882227 C 0.16264845562221655 0.18649667892237917 0.16229157131151975 0.18006963122760064 0.16232666892348682 0.18065977961461768" fill="none" stroke="#000000" stroke-width="0.001"/>
<path d="M 0.16232666892348682 0.18065977961461768 C 0.16234959008211963 0.17992716602288003 0.16278644909266712 0.1702967854176424 0.1626017228270806 0.1718684165137659 C 0.16278644909266712 0.1702967854176424 0.1647051892174787 0.16096118895674996 0.164543384110525 0.1618002064611358" fill="none" stroke="#000000" stroke-width="0.001"/>
<path d="M 0.164543384110525 0.1618002064611358 C 0.1653234133250864 0.16040393754931526 0.17249840636322578 0.14967335082880634 0.17078361782701632 0.1506300551665715 C 0.17249840636322578 0.14967335082880634 0.17919645172184867 0.15458613633307 0.17826169240020062 0.1541465717590146" fill="none" stroke="none" stroke-width="0"/>
</g><g transform="translate(0.31295573404675614,0.09073261587990888) rotate(0) scale(1,1) translate(-0.11911739335740366,-0.12684064787770738)"><path d="M 0.13023271168011705 0.11953255881101033 C 0.12995289885221706 0.12011823133995933 0.12639840042073885 0.12782686549280742 0.1268749577453171 0.12656062915839847 C 0.12639840042073885 0.12782686549280742 0.12431727928850005 0.13540795862937774 0.12451402378517828 0.1347273948239178" fill="none" stroke="none" stroke-width="0"/>
<path d="M 0.12451402378517828 0.1347273948239178 C 0.12483116157567338 0.13413404425592976 0.12917104814329317 0.1264652654081637 0.12831967727111945 0.12760718800806145 C 0.12917104814329317 0.1264652654081637 0.13526470733294135 0.12047575159323486 0.13473047425126275 0.12102432362514459" fill="none" stroke="none" stroke-width="0"/>
<path d="M 0.13473047425126275 0.12102432362514459 C 0.134360428763905 0.12180972131754282 0.1296791960350778 0.1317870116507764 0.1302899284029696 0.1304490959339234 C 0.1296791960350778 0.1317870116507764 0.127160998956027 0.13763183025183529 0.12740168583656106 0.1370793122273805" fill="none" stroke="none" stroke-width="0"/>
<path d="M 0.12740168583656106 0.1370793122273805 C 0.1275317233595644 0.1365242019786183 0.1292601365240736 0.12953366257228233 0.12896213611260113 0.13041798924223422 C 0.1292601365240736 0.12953366257228233 0.13114565366269954 0.12613817576676803 0.13097769077423044 0.12646739218795774" fill="none" stroke="none" stroke-width="0"/>
<path d="M 0.13097769077423044 0.12646739218795774 C 0.13067847382524503 0.12688564785968856 0.1267096080318562 0.132939987050404 0.12738708738640564 0.13148646024872768 C 0.1267096080318562 0.132939987050404 0.12246967611407325 0.1449449849380192 0.12284793851963728 0.14390971380807369" fill="none" stroke="none" stroke-width="0"/>
<path d="M 0.12284793851963728 0.14390971380807369 C 0.12288374716369277 0.14305542904002344 0.12347523401201801 0.13217796217926717 0.12327764224830315 0.13365829659147074 C 0.12347523401201801 0.13217796217926717 0.12538082280387508 0.12551965121747746 0.1252190396842157 0.1261457008616308" fill="none" stroke="none" stroke-width="0"/>
<path d="M 0.1252190396842157 0.1261457008616308 C 0.12496401094122116 0.12662659784867153 0.12167347799641613 0.1332625043882238 0.12215869476828135 0.13191646470611967 C 0.12167347799641613 0.1332625043882238 0.1191662503929624 0.1431633197419435 0.11939643842183309 0.1422981770468801" fill="none" stroke="none" stroke-width="0"/>
<path d="M 0.11939643842183309 0.1422981770468801 C 0.11936281070516289 0.14147764490870054 0.11901337429366118 0.13124823917190329 0.11899290582179065 0.13245179138872534 C 0.11901337429366118 0.13124823917190329 0.11969615627282036 0.1274725303663728 0.11964206008427962 0.1278555504450153" fill="none" stroke="none" stroke-width="0"/>
<path d="M 0.11964206008427962 0.1278555504450153 C 0.11943616023292042 0.1279984682273636 0.1169028758233429 0.1294524644923298 0.11717126186796917 0.12957056383319504 C 0.1169028758233429 0.1294524644923298 0.11635894135549733 0.12617734123141885 0.1164214275487644 0.1264383583546324" fill="none" stroke="none" stroke-width="0"/>
<path d="M 0.1164214275487644 0.1264383583546324 C 0.11657044099439505 0.12652071937495155 0.11882220047749395 0.1270581214216688 0.11820958889633223 0.127426690598462 C 0.11882220047749395 0.1270581214216688 0.12423636465823597 0.12156459803600168 0.12377276652270491 0.12201552823311401" fill="none" stroke="none" stroke-width="0"/>
<path d="M 0.12377276652270491 0.12201552823311401 C 0.12357874719905396 0.12244677794413078 0.12115046854905655 0.12810261377379142 0.12144453463889339 0.12719052476531523 C 0.12115046854905655 0.12810261377379142 0.12014392667847695 0.1334414356322878 0.12024397344466284 0.13296059633482837" fill="none" stroke="none" stroke-width="0"/>
<path d="M 0.12024397344466284 0.13296059633482837 C 0.12052837634359352 0.13238182060092687 0.12448920308478548 0.12489628440102542 0.12365680823183096 0.12601528752801025 C 0.12448920308478548 0.12489628440102542 0.13078070363414088 0.118992331417927 0.13023271168011705 0.11953255881101033" fill="none" stroke="none" stroke-width="0"/>
</g><g transform="translate(0.3490764884642936,0.09923301026529399) rotate(0) scale(1,1) translate(-0.1740239204174037,-0.16693920371592752)"><path d="M 0.16921680764116542 0.1484103965877463 C 0.1699157243148126 0.14890876320786028 0.17877912922550518 0.15537246755097023 0.17760380772493184 0.15439079602911415 C 0.17877912922550518 0.15537246755097023 0.18379707047497168 0.16067375975176143 0.18332066564804553 0.16019045485001934" fill="none" stroke="none" stroke-width="0"/>
<path d="M 0.18332066564804553 0.16019045485001934 C 0.18346841832889893 0.16089971864016533 0.18530106904509558 0.17009435394159916 0.18509369781828638 0.16870162033177138 C 0.18530106904509558 0.17009435394159916 0.18586873891571146 0.17758672798763436 0.1858091203697557 0.1769032581679526" fill="none" stroke="#000000" stroke-width="0.001"/>
<path d="M 0.1858091203697557 0.1769032581679526 C 0.18580605219967233 0.17768174276520213 0.18572701822402327 0.18778652981730892 0.18577230232875552 0.1862450733349468 C 0.18572701822402327 0.18778652981730892 0.18522349517831957 0.19616370784141052 0.1852657111129685 0.19540073595629792" fill="none" stroke="#000000" stroke-width="0.001"/>
<path d="M 0.1852657111129685 0.19540073595629792 C 0.1851801188385618 0.19619141769624263 0.18385309293481594 0.20705805865884 0.1842386038200884 0.20488891683563432 C 0.18385309293481594 0.20705805865884 0.1803396618788332 0.22280889791802727 0.180639580489699 0.22143043783476626" fill="none" stroke="#000000" stroke-width="0.001"/>
<path d="M 0.180639580489699 0.22143043783476626 C 0.1807055909918212 0.21972682562051832 0.18138581901720474 0.19827177472250315 0.18143170651516555 0.20098709126379102 C 0.18138581901720474 0.19827177472250315 0.17997703251408623 0.18783493501227183 0.18008893051416924 0.18884663933931176" fill="none" stroke="#000000" stroke-width="0.001"/>
<path d="M 0.18008893051416924 0.18884663933931176 C 0.1799774372859019 0.18830562171475124 0.17846871078994364 0.18114195534365396 0.17875101177496108 0.1823544278445857 C 0.17846871078994364 0.18114195534365396 0.17653051093720987 0.17362551445175956 0.17670131869395997 0.1742969693281308" fill="none" stroke="#000000" stroke-width="0.001"/>
<path d="M 0.17670131869395997 0.1742969693281308 C 0.17647555401233736 0.17372970399727627 0.17346883996416637 0.16624764167351272 0.17399214251448877 0.16748978535787643 C 0.17346883996416637 0.16624764167351272 0.1701241502213914 0.15871636676225703 0.1704216880900912 0.15939124511576622" fill="none" stroke="none" stroke-width="0"/>
<path d="M 0.1704216880900912 0.15939124511576622 C 0.17039791423146594 0.15898954487218006 0.17003599508251097 0.15365577148206402 0.17013640178658812 0.15457084219273234 C 0.17003599508251097 0.15365577148206402 0.16914017479571353 0.14789702612066413 0.16921680764116542 0.1484103965877463" fill="none" stroke="none" stroke-width="0"/>
</g><g transform="translate(0.3430236645809364,0.08365674066559942) rotate(0) scale(1,1) translate(-0.17390341090239536,-0.15286408272832677)"><path d="M 0.16817882484189153 0.15302599802439426 C 0.169041011443031 0.1525871345907849 0.17723151168984422 0.1510201838765871 0.1750763176510072 0.14951509055551937 C 0.17723151168984422 0.1510201838765871 0.18671338459028525 0.1670107013476134 0.1854203771525877 0.16506674459293627" fill="none" stroke="none" stroke-width="0"/>
<path d="M 0.1854203771525877 0.16506674459293627 C 0.18559482141152295 0.16588376411942546 0.18779474287643985 0.17673254502128954 0.18751370825981092 0.1748709789108064 C 0.18779474287643985 0.17673254502128954 0.18889938290982858 0.1884500845027279 0.1887927925521349 0.18740553791873393" fill="none" stroke="#000000" stroke-width="0.001"/>
<path d="M 0.1887927925521349 0.18740553791873393 C 0.18879387022788843 0.1880355234028337 0.18878674154208955 0.19625184371565085 0.18880572466117712 0.19496536372793094 C 0.18878674154208955 0.19625184371565085 0.1885449343282429 0.2034997922749931 0.188564995123084 0.20284329777137294" fill="none" stroke="#000000" stroke-width="0.001"/>
<path d="M 0.188564995123084 0.20284329777137294 C 0.18853154384564372 0.20373926466543785 0.18795231795480638 0.21556345908126964 0.18816357979380058 0.21359490050015187 C 0.18795231795480638 0.21556345908126964 0.18585204249359988 0.22753859243183908 0.18602985305515377 0.2264660007447862" fill="none" stroke="#000000" stroke-width="0.001"/>
<path d="M 0.18602985305515377 0.2264660007447862 C 0.18605086997954232 0.2255040154112967 0.1862667294181411 0.21315384801225104 0.1862820561478163 0.21492217674291197 C 0.1862667294181411 0.21315384801225104 0.18580958864498776 0.20443971257968346 0.1858459322990515 0.20524605597685489" fill="none" stroke="#000000" stroke-width="0.001"/>
<path d="M 0.1858459322990515 0.20524605597685489 C 0.18577898548995503 0.20449475199983153 0.18485495102109387 0.1945789849492222 0.185042570589894 0.19623040825257446 C 0.18485495102109387 0.1945789849492222 0.18347382471374618 0.18452885701029895 0.18359449747344986 0.18542897633662783" fill="none" stroke="#000000" stroke-width="0.001"/>
<path d="M 0.18359449747344986 0.18542897633662783 C 0.18332627697834714 0.1846415494516542 0.1796344764528577 0.17429393693121298 0.18037585153221722 0.17597985371694416 C 0.1796344764528577 0.17429393693121298 0.17422484193687907 0.1642994850070959 0.17469799652113585 0.16519797490785346" fill="none" stroke="#000000" stroke-width="0.001"/>
<path d="M 0.17469799652113585 0.16519797490785346 C 0.17427999451602438 0.1644059771745939 0.16913870815319454 0.15467967070178376 0.16968197245979824 0.15569400210873868 C 0.16913870815319454 0.15467967070178376 0.1680535625403993 0.1528036643506989 0.16817882484189153 0.15302599802439426" fill="none" stroke="#000000" stroke-width="0.001"/>
</g><g transform="translate(0.3617311716105851,0.09073261587990888) rotate(0) scale(1,1) translate(-0.11911739335740366,-0.12684064787770738)"><path d="M 0.10800207503469031 0.11953255881101033 C 0.10855006698871415 0.12007278620409365 0.11541037333593088 0.1271342906549951 0.11457797848297636 0.12601528752801025 C 0.11541037333593088 0.1271342906549951 0.11827521616907516 0.13353937206872987 0.11799081327014448 0.13296059633482837" fill="none" stroke="none" stroke-width="0"/>
<path d="M 0.11799081327014448 0.13296059633482837 C 0.1178907665039586 0.13247975703736894 0.11649618598607714 0.12627843575683903 0.11679025207591398 0.12719052476531523 C 0.11649618598607714 0.12627843575683903 0.1142680008684515 0.12158427852209724 0.11446202019210246 0.12201552823311401" fill="none" stroke="none" stroke-width="0"/>
<path d="M 0.11446202019210246 0.12201552823311401 C 0.11492561832763351 0.12246645843022634 0.1206378093996368 0.12779525977525522 0.1200251978184751 0.127426690598462 C 0.1206378093996368 0.12779525977525522 0.12196237261167359 0.12635599733431327 0.12181335916604294 0.1264383583546324" fill="none" stroke="none" stroke-width="0"/>
<path d="M 0.12181335916604294 0.1264383583546324 C 0.12175087297277587 0.12669937547784596 0.12079513880221189 0.12968866317406028 0.12106352484683816 0.12957056383319504 C 0.12079513880221189 0.12968866317406028 0.11838682677916855 0.12771263266266697 0.11859272663052775 0.1278555504450153" fill="none" stroke="none" stroke-width="0"/>
<path d="M 0.11859272663052775 0.1278555504450153 C 0.11864682281906849 0.12823857052365778 0.11926234936488722 0.1336553436055474 0.11924188089301668 0.13245179138872534 C 0.11926234936488722 0.1336553436055474 0.11880472057630402 0.14311870918505967 0.11883834829297422 0.1422981770468801" fill="none" stroke="none" stroke-width="0"/>
<path d="M 0.11883834829297422 0.1422981770468801 C 0.11860816026410353 0.14143303435181673 0.11559087517466073 0.13057042502401553 0.11607609194652595 0.13191646470611965 C 0.11559087517466073 0.13057042502401553 0.11276071828759711 0.12566480387459006 0.11301574703059164 0.1261457008616308" fill="none" stroke="none" stroke-width="0"/>
<path d="M 0.11301574703059164 0.1261457008616308 C 0.11317753015025102 0.12677175050578413 0.11515473623021906 0.13513863100367432 0.1149571444665042 0.13365829659147074 C 0.11515473623021906 0.13513863100367432 0.11542265683922558 0.14476399857612393 0.11538684819517009 0.14390971380807369" fill="none" stroke="none" stroke-width="0"/>
<path d="M 0.11538684819517009 0.14390971380807369 C 0.11500858578960606 0.14287444267812818 0.11017021997385233 0.13003293344705136 0.11084769932840176 0.13148646024872768 C 0.11017021997385233 0.13003293344705136 0.10695787899159151 0.12604913651622693 0.10725709594057692 0.12646739218795774" fill="none" stroke="none" stroke-width="0"/>
<path d="M 0.10725709594057692 0.12646739218795774 C 0.10742505882904602 0.12679660860914746 0.10956661497115922 0.1313023159121861 0.10927265060220616 0.13041798924223422 C 0.10956661497115922 0.1313023159121861 0.11091066984849762 0.13763442247614271 0.11078466836801366 0.1370793122273805" fill="none" stroke="none" stroke-width="0"/>
<path d="M 0.11078466836801366 0.1370793122273805 C 0.110548017529999 0.13652679420292574 0.1072594018018783 0.1291459504178185 0.10794485831183773 0.1304490959339234 C 0.1072594018018783 0.1291459504178185 0.10211038457655584 0.12069093854247177 0.1025591902485006 0.1214415660341219" fill="none" stroke="none" stroke-width="0"/>
<path d="M 0.1025591902485006 0.1214415660341219 C 0.10317218351476622 0.12195536786528353 0.1108452405004486 0.1287143404072111 0.10991510944368789 0.12760718800806145 C 0.1108452405004486 0.1287143404072111 0.11403790072012417 0.13532074539190586 0.11372076292962907 0.13472739482391782" fill="none" stroke="none" stroke-width="0"/>
<path d="M 0.11372076292962907 0.13472739482391782 C 0.11352401843295083 0.13404683101845788 0.11088327164491198 0.12529439282398952 0.1113598289694902 0.12656062915839847 C 0.11088327164491198 0.12529439282398952 0.10772226220679032 0.11894688628206132 0.10800207503469031 0.11953255881101033" fill="none" stroke="none" stroke-width="0"/>
</g></svg>
