<?xml version="1.0" encoding="UTF-8"?>
<svg xmlns="http://www.w3.org/2000/svg" viewBox="0 0 1 1">
<g transform="translate(0.3342255704678405,0.08741492338496484) rotate(0) scale(1,1) translate(-0.1746342267458757,-0.17286777966550146)"><path d="M 0.17558466369534229 0.15568117740203538 C 0.17558171593484967 0.155791226978559 0.17552666220941332 0.15746306414360664 0.17554929056943072 0.1570017723203186 C 0.17552666220941332 0.15746306414360664 0.17529344277560854 0.16156792152825633 0.17531312337513333 0.1612166792814919" fill="none" stroke="#000000" stroke-width="0.001"/>
<path d="M 0.17531312337513333 0.1612166792814919 C 0.17531199247904716 0.16216840660319182 0.17521318848773948 0.1746948769480515 0.17529955262209923 0.17263740714189102 C 0.17521318848773948 0.1746948769480515 0.1741915205245426 0.1870120594398783 0.17427675376281618 0.18590631695541776" fill="none" stroke="none" stroke-width="0"/>
<path d="M 0.17427675376281618 0.18590631695541776 C 0.174322713618167 0.18652946134540718 0.17483465654962482 0.19482969762190425 0.17482827202702625 0.1933840496352907 C 0.17483465654962482 0.19482969762190425 0.17431379270124686 0.20407659639140427 0.17435336803399912 0.20325409279478016" fill="none" stroke="#000000" stroke-width="0.001"/>
<path d="M 0.17435336803399912 0.20325409279478016 C 0.17404284520248567 0.2023702172492729 0.17010171994709394 0.19096662094222444 0.17062709405583767 0.19264758624869324 C 0.17010171994709394 0.19096662094222444 0.16783402745184423 0.18228541935619302 0.16804887872907448 0.18308250911715457" fill="none" stroke="#000000" stroke-width="0.001"/>
<path d="M 0.16804887872907448 0.18308250911715457 C 0.16806008448289433 0.18210292038295162 0.16840522472099212 0.16943257597354494 0.16818334777491287 0.17132744430671923 C 0.16840522472099212 0.16943257597354494 0.17092207327428494 0.15942880952009195 0.17071140208202554 0.16034408911906328" fill="none" stroke="none" stroke-width="0"/>
<path d="M 0.17071140208202554 0.16034408911906328 C 0.17092839868177387 0.16002831944179216 0.17372146641344852 0.15616627701539088 0.17331536127900546 0.15655485299180988 C 0.17372146641344852 0.15616627701539088 0.175773772230037 0.1556083711028875 0.17558466369534229 0.15568117740203538" fill="none" stroke="#000000" stroke-width="0.001"/>
</g><g transform="translate(0.3245206654383008,0.08742697586365877) rotate(0) scale(1,1) translate(-0.1735889769813819,-0.17324546383976883)"><path d="M 0.1786599865902263 0.15722227430024227 C 0.17865146313552593 0.15738612260129817 0.17836186608769766 0.15974594705153372 0.17855770513382194 0.15918845391291306 C 0.17836186608769766 0.15974594705153372 0.1761226024453111 0.16430583680125493 0.176309918036735 0.16391219196369017" fill="none" stroke="#000000" stroke-width="0.001"/>
<path d="M 0.176309918036735 0.16391219196369017 C 0.17618473309945673 0.16458870446388532 0.1745291230364016 0.17339698689746172 0.17480769878939548 0.1720303419660319 C 0.1745291230364016 0.17339698689746172 0.1728136181850929 0.18100206357208273 0.17296700900080847 0.18031193114084806" fill="none" stroke="none" stroke-width="0"/>
<path d="M 0.17296700900080847 0.18031193114084806 C 0.1729293658683999 0.1811069171132604 0.1725136214250294 0.19125563240809454 0.17251529141190572 0.1898517628097963 C 0.1725136214250294 0.19125563240809454 0.17298294230382502 0.197767249946313 0.17294696915829277 0.1971583663204271" fill="none" stroke="#000000" stroke-width="0.001"/>
<path d="M 0.17294696915829277 0.1971583663204271 C 0.17252214690653864 0.1965092814839254 0.16729073057932914 0.18795458231367468 0.167849102137243 0.1893693482824067 C 0.16729073057932914 0.18795458231367468 0.16611296115716692 0.17941549356341238 0.1662465104633266 0.1801811746956427" fill="none" stroke="#000000" stroke-width="0.001"/>
<path d="M 0.1662465104633266 0.1801811746956427 C 0.16635675171802933 0.17930658185735374 0.167979380985807 0.16821951588095993 0.16756940551975935 0.16968606063617517 C 0.167979380985807 0.16821951588095993 0.17146595026724348 0.16199068571613356 0.17116621605589855 0.16258263763305983" fill="none" stroke="none" stroke-width="0"/>
<path d="M 0.17116621605589855 0.16258263763305983 C 0.1715550934691663 0.16223987512896498 0.17645722589297252 0.1580227906395203 0.17583274501511187 0.15846948758392176 C 0.17645722589297252 0.1580227906395203 0.17889559005481917 0.15711833985993565 0.1786599865902263 0.15722227430024227" fill="none" stroke="#000000" stroke-width="0.001"/>
</g><g transform="translate(0.31370917817631905,0.09000166485692815) rotate(0) scale(1,1) translate(-0.17199583769089846,-0.15739337258770392)"><path d="M 0.18037896509729023 0.1421297383217348 C 0.18009145077787153 0.14301030158550862 0.17645331193450076 0.15457241883611142 0.17692879326426567 0.15269649748702047 C 0.17645331193450076 0.15457241883611142 0.1744852221297652 0.16563615259614342 0.17467318914011137 0.16464079451082628" fill="none" stroke="none" stroke-width="0"/>
<path d="M 0.17467318914011137 0.16464079451082628 C 0.17472910506001832 0.16573407679123917 0.17537213813894803 0.1800714337833251 0.17534418017899456 0.17776018187578085 C 0.17537213813894803 0.1800714337833251 0.17498072669959963 0.19359378702848853 0.17500868465955308 0.19237581740135717" fill="none" stroke="none" stroke-width="0"/>
<path d="M 0.17500868465955308 0.19237581740135717 C 0.17493440562910717 0.193601045447743 0.1742080922228128 0.20988475798942216 0.17411733629420212 0.2070785539579873 C 0.1742080922228128 0.20988475798942216 0.17626279076193796 0.22763124176362454 0.17609775580288137 0.2260502657785755" fill="none" stroke="#000000" stroke-width="0.001"/>
<path d="M 0.17609775580288137 0.2260502657785755 C 0.17567233094311904 0.2244932681294339 0.1703181180819626 0.20446251190422063 0.17099265748573358 0.20736629398887615 C 0.1703181180819626 0.20446251190422063 0.1677541684136207 0.18985809632719536 0.1680032829576294 0.19120488076270928" fill="none" stroke="#000000" stroke-width="0.001"/>
<path d="M 0.1680032829576294 0.19120488076270928 C 0.16784898931415237 0.1898051584063693 0.1661257092642108 0.1717636806945214 0.16615175923590525 0.17440821248662944 C 0.1661257092642108 0.1717636806945214 0.16781892696907863 0.15822568982164456 0.16769068329729606 0.15947049925741263" fill="none" stroke="#000000" stroke-width="0.001"/>
<path d="M 0.16769068329729606 0.15947049925741263 C 0.16813185495532196 0.15853479453812094 0.17404210001027293 0.1467969792146058 0.17298474319360674 0.14824204262591228 C 0.17404210001027293 0.1467969792146058 0.18099515025593052 0.14162037962972002 0.18037896509729023 0.1421297383217348" fill="none" stroke="#000000" stroke-width="0.001"/>
</g><g id="編み左">
<g id="編節1">
<g transform="translate(0.31370917817631905,0.09000166485692815) rotate(0) scale(1,1) translate(-0.18027204884513678,-0.12848593137462816)"><path d="M 0.18145129184674708 0.13018357941873765 C 0.18144291616623837 0.13040278421229942 0.18128621206567752 0.13322327310905416 0.18135078368064256 0.132814036941479 C 0.18128621206567752 0.13322327310905416 0.18062023653271014 0.13528444480365276 0.18067643246716647 0.1350944134296394" fill="none" stroke="#000000" stroke-width="0.001"/>
<path d="M 0.18067643246716647 0.1350944134296394 C 0.1805476282770508 0.1351878511574736 0.1788598430455313 0.13632781392350574 0.17913078218577813 0.13621566616364975 C 0.1788598430455313 0.13632781392350574 0.17728302783407338 0.13645889657993326 0.1774251627842045 0.13644018654791146" fill="none" stroke="#000000" stroke-width="0.001"/>
<path d="M 0.1774251627842045 0.13644018654791146 C 0.1773710060812383 0.13649269593642768 0.1766577818967548 0.13712713188220674 0.17677528234860984 0.13707029921010613 C 0.1766577818967548 0.13712713188220674 0.1758962557246042 0.13708148065501066 0.1760151573619441 0.1371221786131188 C 0.1758962557246042 0.13708148065501066 0.17526001947541053 0.13645460010950033 0.1753484627005313 0.13658192371280853 C 0.17526001947541053 0.13645460010950033 0.17491955213834037 0.13541446238159588 0.1749538386604949 0.1355942953734203 C 0.17491955213834037 0.13541446238159588 0.17496608166141106 0.1342397715355065 0.1749370244346768 0.13442392781091533 C 0.17496608166141106 0.1342397715355065 0.17533298379352527 0.13329779442331435 0.17530252538130617 0.13338442006851442" fill="none" stroke="#000000" stroke-width="0.001"/>
<path d="M 0.17530252538130617 0.13338442006851442 C 0.17530522394256523 0.13316497625005239 0.17538965270636647 0.13032771101236051 0.17533490811641483 0.13075109424696993 C 0.17538965270636647 0.13032771101236051 0.17601150648941827 0.12809988183705423 0.1759594604607257 0.12830382125320158" fill="none" stroke="#000000" stroke-width="0.001"/>
<path d="M 0.1759594604607257 0.12830382125320158 C 0.17607896950116075 0.12820493595373308 0.17765468106117985 0.12699090283268932 0.17739356894594643 0.12711719765957957 C 0.17765468106117985 0.12699090283268932 0.17923440891832498 0.12676087380309692 0.17909280584352663 0.12678828333051867" fill="none" stroke="#000000" stroke-width="0.001"/>
</g><g transform="translate(0.3117550757951283,0.0932148508237205) rotate(0) scale(1,1) translate(-0.10433725337565573,-0.10418740031181734)"><path d="M 0.10746924305527246 0.10266280772405723 C 0.10727755486219809 0.10287086081618842 0.105779367790444 0.10421076978874763 0.10631911389682619 0.10391112627684436 C 0.105779367790444 0.10421076978874763 0.10387929809301054 0.10409447954739914 0.10423076641697937 0.1044606687954769 C 0.10387929809301054 0.10409447954739914 0.1043564635062987 0.10084951712899984 0.10421030395301319 0.10171399078837787 C 0.1043564635062987 0.10084951712899984 0.10510772373669244 0.09927382683920868 0.10510772373669244 0.09927382683920868 C 0.10510772373669244 0.09927382683920868 0.10406414439972768 0.1025784644477559 0.10421030395301319 0.10171399078837787 C 0.10406414439972768 0.1025784644477559 0.10394627677345587 0.10499697740492302 0.10423076641697937 0.1044606687954769 C 0.10394627677345587 0.10499697740492302 0.10201953000686034 0.10516743715856411 0.10250336609187223 0.10493184244505455 C 0.10201953000686034 0.10516743715856411 0.10113181387608071 0.10603130284844758 0.10132774990690807 0.10587423707653429" fill="none" stroke="#000000" stroke-width="0.001"/>
</g></g>
<g id="編節2">
<g transform="translate(0.3098009734139376,0.09642803679051287) rotate(0) scale(1,1) translate(-0.13796833536796266,-0.11460177227368223)"><path d="M 0.13937124236798004 0.11524489271857584 C 0.1394206722784332 0.1154258863228284 0.14001655894389423 0.11778455338178594 0.13996440129341786 0.11741681596960649 C 0.14001655894389423 0.11778455338178594 0.1399998619137196 0.11984448547265619 0.13999713417369639 0.1196577416647293" fill="none" stroke="#000000" stroke-width="0.001"/>
<path d="M 0.13999713417369639 0.1196577416647293 C 0.13991551984197143 0.11981125327238688 0.13882441111847021 0.12175507229094347 0.1390177621929969 0.12149988095662038 C 0.13882441111847021 0.12175507229094347 0.13756518453657424 0.12282171740327175 0.13767692127937597 0.12272003767660626" fill="none" stroke="#000000" stroke-width="0.001"/>
<path d="M 0.13767692127937597 0.12272003767660626 C 0.13764600186452705 0.1227951925576486 0.13722414121890184 0.12373914405122813 0.13730588830118878 0.12362189624911439 C 0.13722414121890184 0.12373914405122813 0.1365880119369107 0.12416685641993487 0.13669595629193262 0.12412701130197117 C 0.1365880119369107 0.12416685641993487 0.13590533801592422 0.12405180363131182 0.13601055604092555 0.12410003766467885 C 0.13590533801592422 0.12405180363131182 0.1353590413817645 0.12342481398715757 0.13543333999191687 0.12354820290156693 C 0.1353590413817645 0.12342481398715757 0.1350955017763826 0.12245388885628578 0.13511897271909695 0.12261937069176654 C 0.1350955017763826 0.12245388885628578 0.13515441500936526 0.12147434172446711 0.13515168867934463 0.12156242087579784" fill="none" stroke="#000000" stroke-width="0.001"/>
<path d="M 0.13515168867934463 0.12156242087579784 C 0.13509754249069061 0.12138469711722093 0.13443808587335312 0.1190566390236547 0.1345019344154963 0.11942973577287494 C 0.13443808587335312 0.1190566390236547 0.1343758038201373 0.11688988689451163 0.13438550617362646 0.11708525988515496" fill="none" stroke="#000000" stroke-width="0.001"/>
<path d="M 0.13438550617362646 0.11708525988515496 C 0.1344580999741586 0.11693304496807501 0.13543829196287208 0.11499813020883173 0.13525663178001218 0.1152586808801956 C 0.13543829196287208 0.11499813020883173 0.1366744947502728 0.11385031607450471 0.13656542836794505 0.11395865182878863" fill="none" stroke="#000000" stroke-width="0.001"/>
</g><g transform="translate(0.30902395821963635,0.10019776529177275) rotate(0) scale(1,1) translate(-0.10433725337565573,-0.10418740031181734)"><path d="M 0.1065137385043163 0.10105435357599485 C 0.10640999932534535 0.1013381744229445 0.10552570084540083 0.103326819285064 0.10589130343049066 0.10275727865769277 C 0.10552570084540083 0.103326819285064 0.10393789361025617 0.10439208134394624 0.10432012299377733 0.10447159734022227 C 0.10393789361025617 0.10439208134394624 0.10349574984351964 0.10149742136960146 0.10359792712936373 0.10228018268003666 C 0.10349574984351964 0.10149742136960146 0.10370705927871272 0.09977502947761109 0.10370705927871272 0.09977502947761109 C 0.10370705927871272 0.09977502947761109 0.10370010441520783 0.10306294399047186 0.10359792712936373 0.10228018268003666 C 0.10370010441520783 0.10306294399047186 0.10422459680362368 0.10507539118796728 0.10432012299377733 0.10447159734022227 C 0.10422459680362368 0.10507539118796728 0.10268856081334014 0.10638700338029214 0.10302476998844189 0.1059029457665068 C 0.10268856081334014 0.10638700338029214 0.10218255093562102 0.10762144256567222 0.10230286794316686 0.1073759430229343" fill="none" stroke="#000000" stroke-width="0.001"/>
</g></g>
<g id="編節3">
<g transform="translate(0.3082469430253352,0.10396749379303268) rotate(0) scale(1,1) translate(-0.13796833536796266,-0.11460177227368223)"><path d="M 0.1392896724549893 0.11433307660101658 C 0.1393739581037376 0.11445286230950662 0.1404321566725862 0.11604119234826614 0.14030110023996895 0.11577050510289712 C 0.1404321566725862 0.11604119234826614 0.14090912043026554 0.11773222508232385 0.14086234964639657 0.11758132354544487" fill="none" stroke="#000000" stroke-width="0.001"/>
<path d="M 0.14086234964639657 0.11758132354544487 C 0.14083097667680347 0.1177528131456623 0.140385696453667 0.1199569077361395 0.1404858740112794 0.11963919874805397 C 0.140385696453667 0.1199569077361395 0.1395914143670283 0.12154005079033932 0.1396602189550476 0.12139383140247122" fill="none" stroke="#000000" stroke-width="0.001"/>
<path d="M 0.1396602189550476 0.12139383140247122 C 0.13965238370772975 0.12147267532329138 0.13952607110038437 0.12248191988817914 0.1395661959872336 0.12233995845231314 C 0.13952607110038437 0.12248191988817914 0.13909833862441687 0.12319096496999565 0.13917872031285686 0.12309736863286311 C 0.13909833862441687 0.12319096496999565 0.13850251544442668 0.12348326667335362 0.13860161572595367 0.12346311449790369 C 0.13850251544442668 0.12348326667335362 0.1378982519003237 0.12328050299289194 0.13798951693453287 0.12333919473826217 C 0.1378982519003237 0.12328050299289194 0.13744745992076593 0.12263700429304482 0.1375064353154437 0.12275881355346088 C 0.13744745992076593 0.12263700429304482 0.1372630936053126 0.12180403945158681 0.1372818121983996 0.12187748361326943" fill="none" stroke="#000000" stroke-width="0.001"/>
<path d="M 0.1372818121983996 0.12187748361326943 C 0.13719437886798636 0.12176303541611512 0.13609054465843134 0.12023565713265422 0.13623261223344052 0.1205041052474177 C 0.13609054465843134 0.12023565713265422 0.13552236705369378 0.1185021063184985 0.13557700129828967 0.11865610623610767" fill="none" stroke="#000000" stroke-width="0.001"/>
<path d="M 0.13557700129828967 0.11865610623610767 C 0.13560117259752852 0.11849077853127493 0.13595622330437634 0.1163567039206349 0.13586705688915582 0.11667217377811487 C 0.13595622330437634 0.1163567039206349 0.1367119933969176 0.11472032579370069 0.13664699828093593 0.11487046794634793" fill="none" stroke="#000000" stroke-width="0.001"/>
</g><g transform="translate(0.30849828312971567,0.10748443641012664) rotate(0) scale(1,1) translate(-0.10433725337565573,-0.10418740031181734)"><path d="M 0.10540285430569092 0.10039845044887453 C 0.10538411146954015 0.10068883265359496 0.10512170695006143 0.10281251704687318 0.1052903972887863 0.10214074367719708 C 0.10512170695006143 0.10281251704687318 0.10405351293914894 0.10458042561886906 0.10439071227334175 0.10442909066693114 C 0.10405351293914894 0.10458042561886906 0.10299560056258814 0.10246756789213672 0.10326720128362943 0.10304875338882462 C 0.10299560056258814 0.10246756789213672 0.10276110794709399 0.10094197768680375 0.10276110794709399 0.10094197768680375 C 0.10276110794709399 0.10094197768680375 0.10353880200467072 0.10362993888551252 0.10326720128362943 0.10304875338882462 C 0.10353880200467072 0.10362993888551252 0.10445505483568956 0.10497603024619048 0.10439071227334175 0.10442909066693114 C 0.10445505483568956 0.10497603024619048 0.10348866987157038 0.10691575247610062 0.10365325665771633 0.1063303908643807 C 0.10348866987157038 0.10691575247610062 0.10336151403959103 0.10820973858272893 0.10340319155646607 0.10794126033725061" fill="none" stroke="#000000" stroke-width="0.001"/>
</g></g>
<g id="編節4">
</g>
<g id="編節5">
</g>
<g id="編節6">
</g>
<g id="編節7">
</g>
</g>
<g transform="translate(0.31370917817631905,0.09000166485692815) rotate(0) scale(1,1) translate(-0.17086573660060742,-0.1716896655664302)"><path d="M 0.17935136146313815 0.15632979545162684 C 0.17921266112691453 0.15672348145964712 0.17747440795064046 0.16181857044922215 0.1776869574284547 0.16105402754787024 C 0.17747440795064046 0.16181857044922215 0.1767269185877766 0.1658751671611815 0.1768007677293672 0.16550431026784987" fill="none" stroke="none" stroke-width="0"/>
<path d="M 0.1768007677293672 0.16550431026784987 C 0.17660023668642105 0.1662130643204706 0.17391706741932902 0.1754804735720717 0.17439439521401348 0.1740093588992984 C 0.17391706741932902 0.1754804735720717 0.17079603744141544 0.18392004696128217 0.17107283419315375 0.18315768634112958" fill="none" stroke="none" stroke-width="0"/>
<path d="M 0.17107283419315375 0.18315768634112958 C 0.1706695693871994 0.1844520517655866 0.1652700604192766 0.20084007676081286 0.16623365652170158 0.19869007143461373 C 0.1652700604192766 0.20084007676081286 0.15894934966758345 0.2098133901572612 0.15950968096405407 0.20895775025551908" fill="none" stroke="#000000" stroke-width="0.001"/>
<path d="M 0.15950968096405407 0.20895775025551908 C 0.15982007243801014 0.20793941683693232 0.16373709651078536 0.19430313200166469 0.16323437865152685 0.19673774923247808 C 0.16373709651078536 0.19430313200166469 0.1657346216604587 0.17832605967353182 0.16554229527515624 0.17974234348575846" fill="none" stroke="#000000" stroke-width="0.001"/>
<path d="M 0.16554229527515624 0.17974234348575846 C 0.16569165839289363 0.1789621454728944 0.16777217636776837 0.1690338811262292 0.1673346526880049 0.17037996733138971 C 0.16777217636776837 0.1690338811262292 0.17108073999434392 0.16302342083153584 0.17079257943231785 0.16358930902383229" fill="none" stroke="#000000" stroke-width="0.001"/>
<path d="M 0.17079257943231785 0.16358930902383229 C 0.17103066010297635 0.16333044364192037 0.17436277931612154 0.15987796497653878 0.17364954748021985 0.16048292444088924 C 0.17436277931612154 0.15987796497653878 0.17982651262838134 0.15598370136918832 0.17935136146313815 0.15632979545162684" fill="none" stroke="#000000" stroke-width="0.001"/>
</g><g transform="translate(0.32895831599132364,0.08626044283757239) rotate(0) scale(1,1) translate(-0.1733257244965802,-0.17311386908515122)"><path d="M 0.1757298995055652 0.1578322999450191 C 0.17577144635843892 0.15808690834906525 0.1762261583370189 0.16148993902191597 0.17622846174004975 0.160887600793573 C 0.1762261583370189 0.16148993902191597 0.17565840841329042 0.1654080885094316 0.17570225866919498 0.16506035868513477" fill="none" stroke="#000000" stroke-width="0.001"/>
<path d="M 0.17570225866919498 0.16506035868513477 C 0.1755209943614404 0.1658766460492025 0.1732845269538506 0.17633579257918777 0.17352708697614 0.17485580705394757 C 0.1732845269538506 0.17633579257918777 0.1727302426871876 0.1834838831491898 0.1727915384017224 0.18282018498801733" fill="none" stroke="#000000" stroke-width="0.001"/>
<path d="M 0.1727915384017224 0.18282018498801733 C 0.17281637061926844 0.18348315371741564 0.17313846200169003 0.19229178129191207 0.17308952501227473 0.1907758097407969 C 0.17313846200169003 0.19229178129191207 0.1734028870465751 0.2018648464231164 0.17337878227470585 0.2010118436013995" fill="none" stroke="#000000" stroke-width="0.001"/>
<path d="M 0.17337878227470585 0.2010118436013995 C 0.17300190079791272 0.20019823063102862 0.16832704331698145 0.18967318906149067 0.1688562045531883 0.19124848795694874 C 0.16832704331698145 0.18967318906149067 0.16687656768080977 0.18134657093081566 0.1670288474402235 0.18210825685590282" fill="none" stroke="#000000" stroke-width="0.001"/>
<path d="M 0.1670288474402235 0.18210825685590282 C 0.1670547895099245 0.1812880033491109 0.16756241228841484 0.1707690785292359 0.1673401522766355 0.17226521477439993 C 0.16756241228841484 0.1707690785292359 0.1698922855236537 0.1634787391755623 0.16969596758157537 0.16415462191393443" fill="none" stroke="#000000" stroke-width="0.001"/>
<path d="M 0.16969596758157537 0.16415462191393443 C 0.1699017265649532 0.16387836807436926 0.17266790304244165 0.16031271567507613 0.17216507538210915 0.1608395758391524 C 0.17266790304244165 0.16031271567507613 0.17602696818251987 0.157581693620508 0.1757298995055652 0.1578322999450191" fill="none" stroke="#000000" stroke-width="0.001"/>
</g><g transform="translate(0.3204281041742859,0.0862623187976928) rotate(0) scale(1,1) translate(-0.16923840088096093,-0.16884701953825593)"><path d="M 0.1740718582300162 0.15581206742386275 C 0.1738550861155747 0.15617741239577623 0.17115043187412018 0.16088151488644062 0.17147059285671834 0.16019620708682453 C 0.17115043187412018 0.16088151488644062 0.1701265375706816 0.16435572384695857 0.17022992643883827 0.16403576101925596" fill="none" stroke="#000000" stroke-width="0.001"/>
<path d="M 0.17022992643883827 0.16403576101925596 C 0.1700755482110875 0.16481993864214797 0.1681561084369181 0.1751370799208897 0.1683773877058289 0.17344589249396025 C 0.1681561084369181 0.1751370799208897 0.1675076741707486 0.18523701994644662 0.16757457521190863 0.1843300101424092" fill="none" stroke="#000000" stroke-width="0.001"/>
<path d="M 0.16757457521190863 0.1843300101424092 C 0.16744096404530734 0.18587662788684106 0.16590163632208135 0.2060938378673997 0.16597124121269305 0.20288942307559135 C 0.16590163632208135 0.2060938378673997 0.16680332280055774 0.2244407846914859 0.16673931652456814 0.2227829876441094" fill="none" stroke="#000000" stroke-width="0.001"/>
<path d="M 0.16673931652456814 0.2227829876441094 C 0.16630453949022553 0.22090834863278697 0.1609305485515985 0.19712421564919758 0.16152199211245669 0.20028731950824022 C 0.1609305485515985 0.19712421564919758 0.15948532726775444 0.18353727648787735 0.15964199379427 0.18482574133559757" fill="none" stroke="#000000" stroke-width="0.001"/>
<path d="M 0.15964199379427 0.18482574133559757 C 0.15975043506692838 0.18369040847333232 0.1614038237946122 0.16939030506374783 0.16094328906617045 0.1712017469884147 C 0.1614038237946122 0.16939030506374783 0.1655205039913544 0.16241232917719342 0.16516841053557102 0.16308843823959507" fill="none" stroke="#000000" stroke-width="0.001"/>
<path d="M 0.16516841053557102 0.16308843823959507 C 0.1655472004424301 0.16270446786445084 0.17045584339241723 0.15787442950321987 0.16971388941788013 0.15848079373786422 C 0.17045584339241723 0.15787442950321987 0.1744350222976942 0.15558967356436262 0.1740718582300162 0.15581206742386275" fill="none" stroke="#000000" stroke-width="0.001"/>
</g><g transform="translate(0.31370917817631905,0.09000166485692815) rotate(0) scale(1,1) translate(-0.11911739335740366,-0.12684064787770738)"><path d="M 0.12844423897559284 0.11714421259350746 C 0.12829804885777157 0.11777971286641452 0.12655820516397365 0.12619185869145574 0.12668995756173754 0.12477021586839213 C 0.12655820516397365 0.12619185869145574 0.12687764792248368 0.13499006902042743 0.12686321020242627 0.13420392647027088" fill="none" stroke="none" stroke-width="0"/>
<path d="M 0.12686321020242627 0.13420392647027088 C 0.12700102952778713 0.13340736804596925 0.12909869998210627 0.12298708997312786 0.1285170421067567 0.1246452253786513 C 0.12909869998210627 0.12298708997312786 0.13428694325660956 0.11344472462276785 0.1338431047066209 0.11430630160398965" fill="none" stroke="none" stroke-width="0"/>
<path d="M 0.1338431047066209 0.11430630160398965 C 0.13382864608886222 0.11493452557518195 0.13373894831560215 0.12347643197408228 0.1336696012935168 0.12184498925829733 C 0.13373894831560215 0.12347643197408228 0.13475907461148923 0.13488683293800185 0.1346752689716452 0.1338836141934092" fill="none" stroke="none" stroke-width="0"/>
<path d="M 0.1346752689716452 0.1338836141934092 C 0.13451647356577104 0.13334492881186963 0.1325280812158875 0.1264658809750106 0.13276972410115537 0.12741938961493435 C 0.1325280812158875 0.1264658809750106 0.13169270686903703 0.12202668725593992 0.13177555434843075 0.1224415105143241" fill="none" stroke="none" stroke-width="0"/>
<path d="M 0.13177555434843075 0.1224415105143241 C 0.13158747554117994 0.12297497436497107 0.12916026777457018 0.13038417313191636 0.12951860866142126 0.12884307672208775 C 0.12916026777457018 0.13038417313191636 0.12730520162661754 0.14194229999144894 0.12747546370621782 0.14093466743226732" fill="none" stroke="none" stroke-width="0"/>
<path d="M 0.12747546370621782 0.14093466743226732 C 0.12726937790844545 0.14020251429833752 0.1247952020619554 0.13080526945459062 0.12500243413294954 0.13214882982510961 C 0.1247952020619554 0.13080526945459062 0.12498753258106626 0.12420053574945 0.12498867885428805 0.1248119429860392" fill="none" stroke="none" stroke-width="0"/>
<path d="M 0.12498867885428805 0.1248119429860392 C 0.12486014587561006 0.1253090881423622 0.12320113747528008 0.13220041468081864 0.12344628311015216 0.13077768486191488 C 0.12320113747528008 0.13220041468081864 0.12193031857962909 0.14281028547546498 0.12204693123582318 0.1418847008128842" fill="none" stroke="none" stroke-width="0"/>
<path d="M 0.12204693123582318 0.1418847008128842 C 0.12189572802021886 0.14108904445459908 0.12005004627866071 0.13115542963640162 0.12023249264857144 0.13233682451346265 C 0.12005004627866071 0.13115542963640162 0.11982633164258807 0.12732222376937585 0.11985757479689449 0.12770796228815176" fill="none" stroke="none" stroke-width="0"/>
<path d="M 0.11985757479689449 0.12770796228815176 C 0.11968646825657298 0.12789492840515032 0.11751412559782946 0.12989867389763712 0.11780429631303639 0.12995155569213465 C 0.11751412559782946 0.12989867389763712 0.11625646203952592 0.12683353284268542 0.11637552621441134 0.1270733807541815" fill="none" stroke="none" stroke-width="0"/>
<path d="M 0.11637552621441134 0.1270733807541815 C 0.11652175610829894 0.12711377777290125 0.11866257990009113 0.12705309229990502 0.11813028494106256 0.1275581449788186 C 0.11866257990009113 0.12705309229990502 0.12314913078789513 0.12046729890958541 0.12276306572275417 0.12101274860721872" fill="none" stroke="none" stroke-width="0"/>
<path d="M 0.12276306572275417 0.12101274860721872 C 0.12265653815683279 0.12148187872880256 0.12140186734415127 0.12759717607892357 0.12148473493169769 0.12664231006622476 C 0.12140186734415127 0.12759717607892357 0.12179231465057208 0.13295687665071942 0.12176865467219712 0.13247114075960445" fill="none" stroke="none" stroke-width="0"/>
<path d="M 0.12176865467219712 0.13247114075960445 C 0.1218942966170324 0.13186347774939242 0.12383265670217003 0.12390194062321866 0.12327635801022038 0.12517918463706007 C 0.12383265670217003 0.12390194062321866 0.12887489572270722 0.11647463158987809 0.12844423897559284 0.11714421259350746" fill="none" stroke="none" stroke-width="0"/>
</g><g transform="translate(0.32929630507967844,0.07168783285742691) rotate(0) scale(1,1) translate(-0.17937141817669924,-0.1476763379794267)"><path d="M 0.18028687260076753 0.1470464113533468 C 0.17988950169696852 0.14774854681380611 0.1747669134523392 0.15698392010569917 0.17551842175517926 0.15547203687885836 C 0.1747669134523392 0.15698392010569917 0.1709146355676456 0.16599875784181797 0.17126877296668666 0.16518901007543646" fill="none" stroke="none" stroke-width="0"/>
<path d="M 0.17126877296668666 0.16518901007543646 C 0.1709629790169605 0.16625860913400087 0.16706956055520586 0.18026230445894967 0.16759924556997285 0.17802419877820952 C 0.16706956055520586 0.18026230445894967 0.16468866172444174 0.19321478486649413 0.1649125527894826 0.19204627824431839" fill="none" stroke="none" stroke-width="0"/>
<path d="M 0.1649125527894826 0.19204627824431839 C 0.1649193838787505 0.19343751242385693 0.16527787849179537 0.21140401543079507 0.16499452586069727 0.20874108839878078 C 0.16527787849179537 0.21140401543079507 0.16858930590449017 0.22527309548096544 0.16831278436265995 0.2240014026284897" fill="none" stroke="#000000" stroke-width="0.001"/>
<path d="M 0.16831278436265995 0.2240014026284897 C 0.16757694573173298 0.22224019566486167 0.1586899671128418 0.19920285535120366 0.1594827207915364 0.20286691906495327 C 0.1586899671128418 0.19920285535120366 0.15874282517055727 0.17812978131337281 0.15879974021832488 0.1800326380634944" fill="none" stroke="#000000" stroke-width="0.001"/>
<path d="M 0.15879974021832488 0.1800326380634944 C 0.1590346619414924 0.17907657363643534 0.16225686201903128 0.16668877734349996 0.16161880089633504 0.16855986493878566 C 0.16225686201903128 0.16668877734349996 0.16685961309020853 0.15666456375183943 0.16645647369067978 0.15757958692006607" fill="none" stroke="#000000" stroke-width="0.001"/>
<path d="M 0.16645647369067978 0.15757958692006607 C 0.1670097732073946 0.15692818614176227 0.17424860113376495 0.14888501294986034 0.17309606789125764 0.14976277758042028 C 0.17424860113376495 0.14888501294986034 0.18088610632656002 0.14682004750109068 0.18028687260076753 0.1470464113533468" fill="none" stroke="#000000" stroke-width="0.001"/>
</g><g transform="translate(0.33204590415693686,0.07182747088453473) rotate(0) scale(1,1) translate(-0.17175389447439587,-0.1626537797756489)"><path d="M 0.17198902227819265 0.1626108762015488 C 0.17181442655886522 0.16286342620627017 0.16939100909058086 0.16639298083428627 0.16989387364626352 0.16564147625820538 C 0.16939100909058086 0.16639298083428627 0.1656263787736456 0.172127885685879 0.16595464761000084 0.1716289311145195" fill="none" stroke="#000000" stroke-width="0.001"/>
<path d="M 0.16595464761000084 0.1716289311145195 C 0.16552192360582638 0.1726489338376011 0.1599872743328142 0.18653885347962607 0.16076195955990732 0.18386896379149884 C 0.1599872743328142 0.18653885347962607 0.15631646366196483 0.20531749433709182 0.1566584248848835 0.2036676073720462" fill="none" stroke="#000000" stroke-width="0.001"/>
<path d="M 0.1566584248848835 0.2036676073720462 C 0.15661627879446122 0.20509011775999766 0.15649926550443793 0.2237442591312344 0.1561526717998161 0.2207377320274638 C 0.15649926550443793 0.2237442591312344 0.16120628913538979 0.2413299493331125 0.16081754934034564 0.23974593261729338" fill="none" stroke="#000000" stroke-width="0.001"/>
<path d="M 0.16081754934034564 0.23974593261729338 C 0.16009568857528234 0.23806169554775938 0.15137011362584168 0.21590655519290733 0.15215522015958588 0.2195350877828853 C 0.15137011362584168 0.21590655519290733 0.1513330251667344 0.1942592460171138 0.15139627093541527 0.19620354153755776" fill="none" stroke="#000000" stroke-width="0.001"/>
<path d="M 0.15139627093541527 0.19620354153755776 C 0.15180140873525755 0.1947035353262734 0.1572977458587032 0.17569886723375175 0.15625792453352264 0.17820346700214543 C 0.1572977458587032 0.17569886723375175 0.16450881036292028 0.1651437507597242 0.163874126837582 0.16614834431683353" fill="none" stroke="#000000" stroke-width="0.001"/>
<path d="M 0.163874126837582 0.16614834431683353 C 0.16433687964084345 0.16575522654360325 0.17010340176343677 0.16113614202846308 0.1694271604767192 0.16143093103807013 C 0.17010340176343677 0.16113614202846308 0.17220251076164877 0.16270920496517202 0.17198902227819265 0.1626108762015488" fill="none" stroke="#000000" stroke-width="0.001"/>
</g><g transform="translate(0.3404488702846278,0.08741492338496484) rotate(0) scale(1,1) translate(-0.1746342267458757,-0.17286777966550146)"><path d="M 0.17368378979640908 0.15568117740203538 C 0.1738728983311038 0.15575398370118326 0.17635919734718897 0.15694342896822888 0.1759530922127459 0.15655485299180988 C 0.17635919734718897 0.15694342896822888 0.17877404800947416 0.1606598587963344 0.17855705140972583 0.16034408911906328" fill="none" stroke="#000000" stroke-width="0.001"/>
<path d="M 0.17855705140972583 0.16034408911906328 C 0.17876772260198523 0.16125936871803462 0.18130698266291775 0.17322231263989352 0.1810851057168385 0.17132744430671923 C 0.18130698266291775 0.17322231263989352 0.1812307805164966 0.18406209785135752 0.18121957476267675 0.18308250911715457" fill="none" stroke="none" stroke-width="0"/>
<path d="M 0.18121957476267675 0.18308250911715457 C 0.1810047234854465 0.1838795988781161 0.17811598532717 0.19432855155516204 0.1786413594359137 0.19264758624869324 C 0.17811598532717 0.19432855155516204 0.17460456262623883 0.2041379683402874 0.17491508545775228 0.20325409279478016" fill="none" stroke="#000000" stroke-width="0.001"/>
<path d="M 0.17491508545775228 0.20325409279478016 C 0.17487551012500002 0.20243158919815604 0.17444656598732372 0.19193840164867718 0.17444018146472515 0.1933840496352907 C 0.17444656598732372 0.19193840164867718 0.1750376595842862 0.18528317256542834 0.17499169972893533 0.18590631695541776" fill="none" stroke="#000000" stroke-width="0.001"/>
<path d="M 0.17499169972893533 0.18590631695541776 C 0.17490646649066172 0.1848005744709572 0.17388253673529236 0.17057993733573054 0.17396890086965214 0.17263740714189102 C 0.17388253673529236 0.17057993733573054 0.17395419922053174 0.16026495195979196 0.17395533011661793 0.1612166792814919" fill="none" stroke="none" stroke-width="0"/>
<path d="M 0.17395533011661793 0.1612166792814919 C 0.17393564951709317 0.16086543703472744 0.17369653456230327 0.15654048049703054 0.17371916292232067 0.1570017723203186 C 0.17369653456230327 0.15654048049703054 0.17368084203591644 0.15557112782551177 0.17368378979640908 0.15568117740203538" fill="none" stroke="#000000" stroke-width="0.001"/>
</g><g transform="translate(0.3501537753141675,0.08742697586365877) rotate(0) scale(1,1) translate(-0.1735889769813819,-0.17324546383976883)"><path d="M 0.16851796737253746 0.15722227430024227 C 0.16875357083713033 0.1573262087405489 0.17196968982551245 0.15891618452832323 0.1713452089476518 0.15846948758392176 C 0.17196968982551245 0.15891618452832323 0.17640061532013304 0.16292540013715467 0.17601173790686525 0.16258263763305983" fill="none" stroke="#000000" stroke-width="0.001"/>
<path d="M 0.17601173790686525 0.16258263763305983 C 0.1763114721182102 0.1631745895499861 0.18001852390905207 0.1711526053913904 0.17960854844300442 0.16968606063617517 C 0.18001852390905207 0.1711526053913904 0.1810416847541399 0.18105576753393168 0.18093144349943716 0.1801811746956427" fill="none" stroke="none" stroke-width="0"/>
<path d="M 0.18093144349943716 0.1801811746956427 C 0.18079789419327744 0.18094685582787304 0.17877048026760678 0.19078411425113873 0.17932885182552064 0.1893693482824067 C 0.17877048026760678 0.19078411425113873 0.17380616255271686 0.1978074511569288 0.174230984804471 0.1971583663204271" fill="none" stroke="#000000" stroke-width="0.001"/>
<path d="M 0.174230984804471 0.1971583663204271 C 0.17426695795000324 0.1965494826945412 0.17466099256398174 0.18844789321149805 0.17466266255085805 0.1898517628097963 C 0.17466099256398174 0.18844789321149805 0.17417330182954677 0.17951694516843572 0.17421094496195533 0.18031193114084806" fill="none" stroke="#000000" stroke-width="0.001"/>
<path d="M 0.17421094496195533 0.18031193114084806 C 0.17405755414623975 0.1796217987096134 0.17209167942037437 0.17066369703460207 0.17237025517336826 0.1720303419660319 C 0.17209167942037437 0.17066369703460207 0.17074285098875047 0.16323567946349501 0.17086803592602876 0.16391219196369017" fill="none" stroke="none" stroke-width="0"/>
<path d="M 0.17086803592602876 0.16391219196369017 C 0.17068072033460485 0.1635185471261254 0.16842440978281759 0.1586309607742924 0.16862024882894186 0.15918845391291306 C 0.16842440978281759 0.1586309607742924 0.1685094439178371 0.15705842599918637 0.16851796737253746 0.15722227430024227" fill="none" stroke="#000000" stroke-width="0.001"/>
</g><g transform="translate(0.36096526257614914,0.09000166485692815) rotate(0) scale(1,1) translate(-0.17199583769089846,-0.15739337258770392)"><path d="M 0.16361271028450658 0.1421297383217348 C 0.16422889544314687 0.1426390970137496 0.17206428900485626 0.14968710603721877 0.17100693218819008 0.14824204262591228 C 0.17206428900485626 0.14968710603721877 0.17674216374252666 0.16040620397670433 0.17630099208450076 0.15947049925741263" fill="none" stroke="#000000" stroke-width="0.001"/>
<path d="M 0.17630099208450076 0.15947049925741263 C 0.17642923575628333 0.1607153086931807 0.17781386617419714 0.1770527442787375 0.1778399161458916 0.17440821248662944 C 0.17781386617419714 0.1770527442787375 0.1758340987806904 0.19260460311904926 0.17598839242416742 0.19120488076270928" fill="none" stroke="#000000" stroke-width="0.001"/>
<path d="M 0.17598839242416742 0.19120488076270928 C 0.17573927788015872 0.1925516651982232 0.17232447849229224 0.21027007607353168 0.17299901789606323 0.20736629398887615 C 0.17232447849229224 0.21027007607353168 0.16746849471915312 0.22760726342771712 0.16789391957891545 0.2260502657785755" fill="none" stroke="#000000" stroke-width="0.001"/>
<path d="M 0.16789391957891545 0.2260502657785755 C 0.16805895453797204 0.22446928979352648 0.1699650950162054 0.20427234992655244 0.16987433908759472 0.2070785539579873 C 0.1699650950162054 0.20427234992655244 0.16890871169179783 0.19115058935497134 0.16898299072224374 0.19237581740135717" fill="none" stroke="#000000" stroke-width="0.001"/>
<path d="M 0.16898299072224374 0.19237581740135717 C 0.1689550327622903 0.19115784777422581 0.16867545316275573 0.1754489299682366 0.16864749520280226 0.17776018187578085 C 0.16867545316275573 0.1754489299682366 0.16937440216159239 0.1635475122304134 0.16931848624168544 0.16464079451082628" fill="none" stroke="none" stroke-width="0"/>
<path d="M 0.16931848624168544 0.16464079451082628 C 0.16913051923133926 0.16364543642550913 0.16658740078776627 0.1508205761379295 0.16706288211753118 0.15269649748702047 C 0.16658740078776627 0.1508205761379295 0.16332519596508788 0.141249175057961 0.16361271028450658 0.1421297383217348" fill="none" stroke="none" stroke-width="0"/>
</g><g id="編み右">
<g id="編節1">
<g transform="translate(0.36096526257614914,0.09000166485692815) rotate(0) scale(1,1) translate(-0.18027204884513678,-0.12848593137462816)"><path d="M 0.18145129184674702 0.12678828333051867 C 0.18159289492154537 0.12681569285794042 0.18341164085956066 0.12724349248646982 0.18315052874432725 0.12711719765957957 C 0.18341164085956066 0.12724349248646982 0.18470414626998302 0.12840270655267008 0.18458463722954796 0.12830382125320158" fill="none" stroke="#000000" stroke-width="0.001"/>
<path d="M 0.18458463722954796 0.12830382125320158 C 0.18463668325824054 0.12850776066934894 0.18526393416381035 0.13117447748157934 0.18520918957385873 0.13075109424696993 C 0.18526393416381035 0.13117447748157934 0.1852442708702265 0.13360386388697645 0.18524157230896743 0.13338442006851442" fill="none" stroke="#000000" stroke-width="0.001"/>
<path d="M 0.18524157230896743 0.13338442006851442 C 0.18527203072118653 0.1334710457137145 0.1856361304823311 0.13460808408632416 0.18560707325559683 0.13442392781091533 C 0.1856361304823311 0.13460808408632416 0.18555597250762418 0.13577412836524472 0.18559025902977871 0.13559429537342027 C 0.18555597250762418 0.13577412836524472 0.18510719176462162 0.13670924731611675 0.1851956349897424 0.13658192371280853 C 0.18510719176462162 0.13670924731611675 0.18441003869098965 0.13716287657122692 0.18452894032832953 0.1371221786131188 C 0.18441003869098965 0.13716287657122692 0.18365131488980876 0.1370134665380055 0.1837688153416638 0.1370702992101061 C 0.18365131488980876 0.1370134665380055 0.1830647782031029 0.13638767715939523 0.18311893490606912 0.13644018654791146" fill="none" stroke="#000000" stroke-width="0.001"/>
<path d="M 0.18311893490606912 0.13644018654791146 C 0.182976799955938 0.13642147651588965 0.18114237636424865 0.13610351840379376 0.1814133155044955 0.13621566616364975 C 0.18114237636424865 0.13610351840379376 0.17973886103299141 0.13500097570180522 0.17986766522310713 0.1350944134296394" fill="none" stroke="#000000" stroke-width="0.001"/>
<path d="M 0.17986766522310713 0.1350944134296394 C 0.1798114692886508 0.13490438205562605 0.17912874239466603 0.13240480077390385 0.17919331400963107 0.132814036941479 C 0.17912874239466603 0.13240480077390385 0.17908443016301787 0.12996437462517588 0.17909280584352658 0.13018357941873765" fill="none" stroke="#000000" stroke-width="0.001"/>
</g><g transform="translate(0.3629193649573399,0.0932148508237205) rotate(0) scale(1,1) translate(-0.10433725337565573,-0.10418740031181734)"><path d="M 0.10734675684440337 0.10587423707653429 C 0.107150820813576 0.105717171304621 0.1056873045744273 0.10469624773154498 0.10617114065943918 0.10493184244505455 C 0.1056873045744273 0.10469624773154498 0.10415925069080859 0.10392436018603078 0.10444374033433208 0.1044606687954769 C 0.10415925069080859 0.10392436018603078 0.1043180432450127 0.10084951712899984 0.10446420279829823 0.10171399078837787 C 0.1043180432450127 0.10084951712899984 0.103566783014619 0.09927382683920868 0.103566783014619 0.09927382683920868 C 0.103566783014619 0.09927382683920868 0.10461036235158375 0.1025784644477559 0.10446420279829823 0.10171399078837787 C 0.10461036235158375 0.1025784644477559 0.10409227201036325 0.10482685804355465 0.10444374033433208 0.1044606687954769 C 0.10409227201036325 0.10482685804355465 0.10181564674810303 0.10361148276494109 0.10235539285448522 0.10391112627684436 C 0.10181564674810303 0.10361148276494109 0.10101357550296461 0.10245475463192603 0.10120526369603898 0.10266280772405723" fill="none" stroke="#000000" stroke-width="0.001"/>
</g></g>
<g id="編節2">
<g transform="translate(0.36487346733853065,0.09642803679051287) rotate(0) scale(1,1) translate(-0.13796833536796266,-0.11460177227368223)"><path d="M 0.13937124236798015 0.11395865182878863 C 0.1394803087503079 0.11406698758307254 0.14086169913877297 0.11551923155155946 0.14068003895591308 0.1152586808801956 C 0.14086169913877297 0.11551923155155946 0.1416237583628309 0.11723747480223493 0.14155116456229874 0.11708525988515497" fill="none" stroke="#000000" stroke-width="0.001"/>
<path d="M 0.14155116456229874 0.11708525988515497 C 0.1415414622088096 0.1172806328757983 0.14137088777828571 0.11980283252209518 0.14143473632042888 0.11942973577287494 C 0.14137088777828571 0.11980283252209518 0.14073083586792665 0.12174014463437476 0.14078498205658066 0.12156242087579784" fill="none" stroke="#000000" stroke-width="0.001"/>
<path d="M 0.14078498205658066 0.12156242087579784 C 0.1407877083866013 0.12165050002712857 0.140794227074114 0.1227848525272473 0.14081769801682834 0.12261937069176654 C 0.140794227074114 0.1227848525272473 0.140429032133856 0.12367159181597628 0.14050333074400836 0.12354820290156693 C 0.140429032133856 0.12367159181597628 0.13982089666999842 0.12414827169804588 0.13992611469499971 0.12410003766467885 C 0.13982089666999842 0.12414827169804588 0.13913277008897074 0.12408716618400746 0.13924071444399266 0.12412701130197117 C 0.13913277008897074 0.12408716618400746 0.13854903535244947 0.12350464844700065 0.13863078243473642 0.12362189624911439 C 0.13854903535244947 0.12350464844700065 0.13822883004170033 0.12264488279556392 0.13825974945654926 0.12272003767660626" fill="none" stroke="#000000" stroke-width="0.001"/>
<path d="M 0.13825974945654926 0.12272003767660626 C 0.13814801271374752 0.12261835794994078 0.13672555746840165 0.1212446896222973 0.13691890854292835 0.12149988095662038 C 0.13672555746840165 0.1212446896222973 0.13585792223050394 0.11950423005707171 0.1359395365622289 0.1196577416647293" fill="none" stroke="#000000" stroke-width="0.001"/>
<path d="M 0.1359395365622289 0.1196577416647293 C 0.13594226430225212 0.1194709978568024 0.1360244270929838 0.11704907855742704 0.13597226944250743 0.11741681596960649 C 0.1360244270929838 0.11704907855742704 0.1366148582783983 0.11506389911432327 0.13656542836794516 0.11524489271857583" fill="none" stroke="#000000" stroke-width="0.001"/>
</g><g transform="translate(0.36565048253283183,0.10019776529177274) rotate(0) scale(1,1) translate(-0.10433725337565573,-0.10418740031181734)"><path d="M 0.10637163880814458 0.1073759430229343 C 0.10625132180059874 0.10713044348019637 0.1053135275877678 0.10541888815272146 0.10564973676286954 0.1059029457665068 C 0.1053135275877678 0.10541888815272146 0.10425885756738047 0.10386780349247725 0.10435438375753411 0.10447159734022227 C 0.10425885756738047 0.10386780349247725 0.10517875690779183 0.10149742136960146 0.10507657962194772 0.10228018268003666 C 0.10517875690779183 0.10149742136960146 0.10496744747259873 0.0997750294776111 0.10496744747259873 0.0997750294776111 C 0.10496744747259873 0.0997750294776111 0.10497440233610361 0.10306294399047186 0.10507657962194772 0.10228018268003666 C 0.10497440233610361 0.10306294399047186 0.10397215437401296 0.10455111333649829 0.10435438375753411 0.10447159734022227 C 0.10397215437401296 0.10455111333649829 0.10241760073573097 0.10218773803032154 0.10278320332082079 0.10275727865769277 C 0.10241760073573097 0.10218773803032154 0.10205702906802423 0.1007705327290452 0.10216076824699517 0.10105435357599485" fill="none" stroke="#000000" stroke-width="0.001"/>
</g></g>
<g id="編節3">
<g transform="translate(0.366427497727133,0.10396749379303269) rotate(0) scale(1,1) translate(-0.13796833536796266,-0.11460177227368223)"><path d="M 0.13928967245498936 0.11487046794634793 C 0.13935466757097104 0.11502061009899518 0.1401587802619899 0.11698764363559484 0.1400696138467694 0.11667217377811487 C 0.1401587802619899 0.11698764363559484 0.1403838407368744 0.11882143394094039 0.14035966943763556 0.11865610623610766" fill="none" stroke="#000000" stroke-width="0.001"/>
<path d="M 0.14035966943763556 0.11865610623610766 C 0.14030503519303966 0.11881010615371683 0.13956199092747554 0.12077255336218118 0.13970405850248468 0.1205041052474177 C 0.13956199092747554 0.12077255336218118 0.1385674252071124 0.12199193181042374 0.13865485853752565 0.12187748361326943" fill="none" stroke="#000000" stroke-width="0.001"/>
<path d="M 0.13865485853752565 0.12187748361326943 C 0.13863613994443863 0.12195092777495205 0.13837126002580372 0.12288062281387695 0.1384302354204815 0.12275881355346088 C 0.13837126002580372 0.12288062281387695 0.1378558887671832 0.12339788648363241 0.13794715380139236 0.12333919473826217 C 0.1378558887671832 0.12339788648363241 0.13723595472844458 0.12344296232245376 0.1373350550099716 0.12346311449790369 C 0.13723595472844458 0.12344296232245376 0.13667756873462836 0.12300377229573056 0.13675795042306835 0.12309736863286311 C 0.13667756873462836 0.12300377229573056 0.13633034986184242 0.12219799701644715 0.13637047474869166 0.12233995845231314 C 0.13633034986184242 0.12219799701644715 0.13626861653355976 0.12131498748165105 0.1362764517808776 0.12139383140247122" fill="none" stroke="#000000" stroke-width="0.001"/>
<path d="M 0.1362764517808776 0.12139383140247122 C 0.1362076471928583 0.12124761201460311 0.13535061916703345 0.11932148975996844 0.13545079672464586 0.11963919874805397 C 0.13535061916703345 0.11932148975996844 0.1350429481199356 0.11740983394522744 0.13507432108952871 0.11758132354544487" fill="none" stroke="#000000" stroke-width="0.001"/>
<path d="M 0.13507432108952871 0.11758132354544487 C 0.1351210918733977 0.11743042200856589 0.13576662692857352 0.1154998178575281 0.13563557049595626 0.11577050510289712 C 0.13576662692857352 0.1154998178575281 0.1367312839296843 0.11421329089252653 0.136646998280936 0.11433307660101658" fill="none" stroke="#000000" stroke-width="0.001"/>
</g><g transform="translate(0.36617615762275246,0.10748443641012666) rotate(0) scale(1,1) translate(-0.10433725337565573,-0.10418740031181734)"><path d="M 0.10527131519484535 0.10794126033725061 C 0.10522963767797032 0.10767278209177229 0.1048566633074492 0.10574502925266079 0.10502125009359513 0.1063303908643807 C 0.1048566633074492 0.10574502925266079 0.10434813704031752 0.10388215108767179 0.1042837944779697 0.10442909066693114 C 0.10434813704031752 0.10388215108767179 0.10567890618872329 0.10246756789213672 0.105407305467682 0.10304875338882462 C 0.10567890618872329 0.10246756789213672 0.10591339880421745 0.10094197768680375 0.10591339880421745 0.10094197768680375 C 0.10591339880421745 0.10094197768680375 0.1051357047466407 0.10362993888551252 0.105407305467682 0.10304875338882462 C 0.1051357047466407 0.10362993888551252 0.1039465951437769 0.10427775571499322 0.1042837944779697 0.10442909066693114 C 0.1039465951437769 0.10427775571499322 0.10321541912380026 0.10146897030752099 0.10338410946252513 0.10214074367719708 C 0.10321541912380026 0.10146897030752099 0.1032529096094697 0.10010806824415411 0.10327165244562048 0.10039845044887453" fill="none" stroke="#000000" stroke-width="0.001"/>
</g></g>
<g id="編節4">
</g>
<g id="編節5">
</g>
<g id="編節6">
</g>
<g id="編節7">
</g>
</g>
<g transform="translate(0.36096526257614914,0.09000166485692815) rotate(0) scale(1,1) translate(-0.17086573660060742,-0.1716896655664302)"><path d="M 0.16238011173807673 0.15632979545162684 C 0.16285526290331992 0.15667588953406536 0.16879515755689667 0.1610878839052397 0.16808192572099498 0.16048292444088924 C 0.16879515755689667 0.1610878839052397 0.1711769744395555 0.1638481744057442 0.170938893768897 0.16358930902383229" fill="none" stroke="#000000" stroke-width="0.001"/>
<path d="M 0.170938893768897 0.16358930902383229 C 0.17122705433092308 0.16415519721612873 0.1748343441929734 0.17172605353655024 0.17439682051320993 0.17037996733138971 C 0.1748343441929734 0.17172605353655024 0.17633854104379598 0.1805225414986225 0.1761891779260586 0.17974234348575846" fill="none" stroke="#000000" stroke-width="0.001"/>
<path d="M 0.1761891779260586 0.17974234348575846 C 0.17638150431136104 0.1811586272979851 0.17899981240894644 0.19917236646329148 0.17849709454968793 0.19673774923247808 C 0.17899981240894644 0.19917236646329148 0.18253218371111687 0.20997608367410583 0.1822217922371608 0.20895775025551908" fill="none" stroke="#000000" stroke-width="0.001"/>
<path d="M 0.1822217922371608 0.20895775025551908 C 0.1816614609406902 0.20810211035377696 0.17453422057708826 0.1965400661084146 0.17549781667951322 0.19869007143461373 C 0.17453422057708826 0.1965400661084146 0.1702553742021068 0.18186332091667257 0.17065863900806114 0.18315768634112958" fill="none" stroke="#000000" stroke-width="0.001"/>
<path d="M 0.17065863900806114 0.18315768634112958 C 0.17038184225632283 0.182395325720977 0.16685975019251686 0.17253824422652508 0.16733707798720132 0.1740093588992984 C 0.16685975019251686 0.17253824422652508 0.16473017442890145 0.16479555621522915 0.1649307054718476 0.16550431026784987" fill="none" stroke="none" stroke-width="0"/>
<path d="M 0.1649307054718476 0.16550431026784987 C 0.16485685633025698 0.16513345337451824 0.16383196629494587 0.16028948464651832 0.1640445157727601 0.16105402754787024 C 0.16383196629494587 0.16028948464651832 0.1622414114018531 0.15593610944360656 0.16238011173807673 0.15632979545162684" fill="none" stroke="none" stroke-width="0"/>
</g><g transform="translate(0.34571612476114466,0.08626044283757239) rotate(0) scale(1,1) translate(-0.1733257244965802,-0.17311386908515122)"><path d="M 0.1709215494875951 0.1578322999450191 C 0.17121861816454978 0.1580829062695302 0.17498920127138365 0.16136643600322867 0.17448637361105115 0.1608395758391524 C 0.17498920127138365 0.16136643600322867 0.17716124039496287 0.1644308757534996 0.17695548141158504 0.16415462191393443" fill="none" stroke="#000000" stroke-width="0.001"/>
<path d="M 0.17695548141158504 0.16415462191393443 C 0.17715179935366338 0.16483050465230656 0.17953355672830437 0.17376135101956397 0.17931129671652504 0.17226521477439993 C 0.17953355672830437 0.17376135101956397 0.1796485436226379 0.18292851036269472 0.1796226015529369 0.18210825685590282" fill="none" stroke="#000000" stroke-width="0.001"/>
<path d="M 0.1796226015529369 0.18210825685590282 C 0.17947032179352318 0.18286994278098997 0.17726608320376525 0.1928237868524068 0.1777952444399721 0.19124848795694874 C 0.17726608320376525 0.1928237868524068 0.1728957852416615 0.2018254565717704 0.17327266671845462 0.2010118436013995" fill="none" stroke="#000000" stroke-width="0.001"/>
<path d="M 0.17327266671845462 0.2010118436013995 C 0.17329677149032388 0.20015884077968263 0.173610860970301 0.1892598381896817 0.1735619239808857 0.1907758097407969 C 0.173610860970301 0.1892598381896817 0.17388474280898417 0.18215721625861903 0.17385991059143813 0.18282018498801733" fill="none" stroke="#000000" stroke-width="0.001"/>
<path d="M 0.17385991059143813 0.18282018498801733 C 0.17379861487690332 0.18215648682684485 0.17288180199473113 0.17337582152870737 0.17312436201702053 0.17485580705394757 C 0.17288180199473113 0.17337582152870737 0.17076792601621085 0.16424407132106705 0.17094919032396544 0.16506035868513477" fill="none" stroke="#000000" stroke-width="0.001"/>
<path d="M 0.17094919032396544 0.16506035868513477 C 0.17090534006806088 0.16471262886083796 0.17042068385007983 0.16028526256523004 0.1704229872531107 0.160887600793573 C 0.17042068385007983 0.16028526256523004 0.1709630963404688 0.15757769154097295 0.1709215494875951 0.1578322999450191" fill="none" stroke="#000000" stroke-width="0.001"/>
</g><g transform="translate(0.3542463365781824,0.0862623187976928) rotate(0) scale(1,1) translate(-0.16923840088096093,-0.16884701953825593)"><path d="M 0.16440494353190555 0.15581206742386275 C 0.16476810759958355 0.15603446128336287 0.16950486631857872 0.15908715797250858 0.16876291234404162 0.15848079373786422 C 0.16950486631857872 0.15908715797250858 0.1736871811332098 0.1634724086147393 0.17330839122635072 0.16308843823959507" fill="none" stroke="#000000" stroke-width="0.001"/>
<path d="M 0.17330839122635072 0.16308843823959507 C 0.1736604846821341 0.16376454730199672 0.17799404742419306 0.17301318891308157 0.1775335126957513 0.1712017469884147 C 0.17799404742419306 0.17301318891308157 0.17894324924031013 0.1859610741978628 0.17883480796765175 0.18482574133559757" fill="none" stroke="#000000" stroke-width="0.001"/>
<path d="M 0.17883480796765175 0.18482574133559757 C 0.1786781414411362 0.18611420618331778 0.17636336608860687 0.20345042336728286 0.17695480964946506 0.20028731950824022 C 0.17636336608860687 0.20345042336728286 0.171302708203011 0.22465762665543182 0.1717374852373536 0.2227829876441094" fill="none" stroke="#000000" stroke-width="0.001"/>
<path d="M 0.1717374852373536 0.2227829876441094 C 0.1718014915133432 0.22112519059673288 0.172435955658617 0.199685008283783 0.1725055605492287 0.20288942307559135 C 0.172435955658617 0.199685008283783 0.17076861538341181 0.18278339239797736 0.1709022265500131 0.1843300101424092" fill="none" stroke="#000000" stroke-width="0.001"/>
<path d="M 0.1709022265500131 0.1843300101424092 C 0.17083532550885308 0.1834230003383718 0.16987813478718203 0.1717547050670308 0.17009941405609283 0.17344589249396025 C 0.16987813478718203 0.1717547050670308 0.1680924970953327 0.16325158339636395 0.16824687532308347 0.16403576101925596" fill="none" stroke="#000000" stroke-width="0.001"/>
<path d="M 0.16824687532308347 0.16403576101925596 C 0.1681434864549268 0.16371579819155335 0.16668604792260525 0.15951089928720844 0.1670062089052034 0.16019620708682453 C 0.16668604792260525 0.15951089928720844 0.16418817141746406 0.15544672245194927 0.16440494353190555 0.15581206742386275" fill="none" stroke="#000000" stroke-width="0.001"/>
</g><g transform="translate(0.3373434528286707,0.07439478626293816) rotate(0) scale(1,1) translate(-0.17194709033670127,-0.15955296299577326)"><path d="M 0.1718241093950515 0.15522038932254642 C 0.17196262269886842 0.15526669360631995 0.1737700435173715 0.15622346925582883 0.17348626904085473 0.15577604072782866 C 0.1737700435173715 0.15622346925582883 0.1753746642859523 0.16099065590277528 0.1752294031132525 0.1605895316585486" fill="none" stroke="#000000" stroke-width="0.001"/>
<path d="M 0.1752294031132525 0.1605895316585486 C 0.17536549687071398 0.1615964128476336 0.17690409050589462 0.1747127175519616 0.17686252820279044 0.17267210592756826 C 0.17690409050589462 0.1747127175519616 0.17563361929614546 0.18611060158657697 0.17572815075050277 0.1850768711512686" fill="none" stroke="#000000" stroke-width="0.001"/>
<path d="M 0.17572815075050277 0.1850768711512686 C 0.17562872164297635 0.18572558706370035 0.17423135952817267 0.19470556499614455 0.17453500146018588 0.1928614621004496 C 0.17423135952817267 0.19470556499614455 0.1718802347418575 0.20840149288287113 0.1720844475663443 0.20720610589960795" fill="none" stroke="#000000" stroke-width="0.001"/>
<path d="M 0.1720844475663443 0.20720610589960795 C 0.17186365150525146 0.20601071891634476 0.16909355057555192 0.19101735920475466 0.16943489483323024 0.1928614621004496 C 0.16909355057555192 0.19101735920475466 0.16786776827761885 0.18442815523883688 0.16798831647420434 0.1850768711512686" fill="none" stroke="#000000" stroke-width="0.001"/>
<path d="M 0.16798831647420434 0.1850768711512686 C 0.1679126127956436 0.18404314071596026 0.16714026241037624 0.17063149430317492 0.16707987233147548 0.17267210592756826 C 0.16714026241037624 0.17063149430317492 0.16884909117847494 0.15958265046946363 0.16871299742101345 0.1605895316585486" fill="none" stroke="#000000" stroke-width="0.001"/>
<path d="M 0.16871299742101345 0.1605895316585486 C 0.1688487558729351 0.1601725974931417 0.17060135817524308 0.15513889314566554 0.17034209884407325 0.1555863216736657 C 0.17060135817524308 0.15513889314566554 0.17194761027429967 0.15518989495995314 0.1718241093950515 0.15522038932254642" fill="none" stroke="#000000" stroke-width="0.001"/>
</g><g transform="translate(0.36096526257614914,0.09000166485692815) rotate(0) scale(1,1) translate(-0.11911739335740366,-0.12684064787770738)"><path d="M 0.10979054773921448 0.11714421259350746 C 0.11022120448632886 0.11781379359713684 0.11551472739653659 0.12645642865090148 0.11495842870458695 0.12517918463706007 C 0.11551472739653659 0.12645642865090148 0.11659177398744551 0.13307880376981648 0.11646613204261023 0.13247114075960445" fill="none" stroke="none" stroke-width="0"/>
<path d="M 0.11646613204261023 0.13247114075960445 C 0.11648979202098518 0.13198540486848948 0.11666718419556317 0.12568744405352594 0.1167500517831096 0.12664231006622476 C 0.11666718419556317 0.12568744405352594 0.11536519342613175 0.12054361848563488 0.11547172099205312 0.12101274860721872" fill="none" stroke="none" stroke-width="0"/>
<path d="M 0.11547172099205312 0.12101274860721872 C 0.1158577860571941 0.12155819830485204 0.12063679673277337 0.12806319765773216 0.1201045017737448 0.1275581449788186 C 0.12063679673277337 0.12806319765773216 0.12200549039428357 0.12703298373546176 0.12185926050039597 0.1270733807541815" fill="none" stroke="none" stroke-width="0"/>
<path d="M 0.12185926050039597 0.1270733807541815 C 0.12174019632551056 0.1273132286656776 0.12014031968656405 0.13000443748663218 0.12043049040177098 0.12995155569213465 C 0.12014031968656405 0.13000443748663218 0.11820610537759135 0.1275209961711532 0.11837721191791287 0.12770796228815176" fill="none" stroke="none" stroke-width="0"/>
<path d="M 0.11837721191791287 0.12770796228815176 C 0.11834596876360645 0.12809370080692767 0.11781984769632516 0.1335182193905237 0.11800229406623587 0.13233682451346265 C 0.11781984769632516 0.1335182193905237 0.1160366522633799 0.14268035717116934 0.1161878554789842 0.1418847008128842" fill="none" stroke="none" stroke-width="0"/>
<path d="M 0.1161878554789842 0.1418847008128842 C 0.11607124282279012 0.14095911615030343 0.11454335796978315 0.12935495504301112 0.11478850360465523 0.13077768486191488 C 0.11454335796978315 0.12935495504301112 0.11311757488184125 0.12431479782971623 0.11324610786051925 0.1248119429860392" fill="none" stroke="none" stroke-width="0"/>
<path d="M 0.11324610786051925 0.1248119429860392 C 0.11324496158729747 0.1254233502226284 0.11302512051086361 0.1334923901956286 0.11323235258185775 0.13214882982510961 C 0.11302512051086361 0.1334923901956286 0.1105532372108172 0.14166682056619712 0.11075932300858955 0.14093466743226732" fill="none" stroke="none" stroke-width="0"/>
<path d="M 0.11075932300858955 0.14093466743226732 C 0.11058906092898926 0.1399270348730857 0.10835783716653494 0.12730198031225914 0.10871617805338601 0.12884307672208775 C 0.10835783716653494 0.12730198031225914 0.10627115355912578 0.12190804666367713 0.10645923236637657 0.1224415105143241" fill="none" stroke="none" stroke-width="0"/>
<path d="M 0.10645923236637657 0.1224415105143241 C 0.10637638488698287 0.12285633377270828 0.10522341972838423 0.1283728982548581 0.10546506261365209 0.12741938961493435 C 0.10522341972838423 0.1283728982548581 0.10340072233728817 0.13442229957494875 0.10355951774316231 0.1338836141934092" fill="none" stroke="none" stroke-width="0"/>
<path d="M 0.10355951774316231 0.1338836141934092 C 0.10364332338300633 0.13288039544881652 0.10463453244337595 0.12021354654251237 0.1045651854212906 0.12184498925829733 C 0.10463453244337595 0.12021354654251237 0.10437722339042779 0.11367807763279734 0.10439168200818646 0.11430630160398965" fill="none" stroke="none" stroke-width="0"/>
<path d="M 0.10439168200818646 0.11430630160398965 C 0.10483552055817515 0.11516787858521145 0.11029940248340019 0.12630336078417473 0.10971774460805064 0.1246452253786513 C 0.11029940248340019 0.12630336078417473 0.11150939583774189 0.1350004848945725 0.11137157651238103 0.13420392647027088" fill="none" stroke="none" stroke-width="0"/>
<path d="M 0.11137157651238103 0.13420392647027088 C 0.11138601423243844 0.13341778392011433 0.11141307675530598 0.12334857304532851 0.11154482915306986 0.12477021586839213 C 0.11141307675530598 0.12334857304532851 0.1096443576213932 0.11650871232060041 0.10979054773921448 0.11714421259350746" fill="none" stroke="none" stroke-width="0"/>
</g><g transform="translate(0.34537813567278985,0.07168783285742691) rotate(0) scale(1,1) translate(-0.17937141817669924,-0.1476763379794267)"><path d="M 0.17845596375263093 0.1470464113533468 C 0.1790551974784234 0.14727277520560295 0.18679930170464806 0.15064054221098022 0.18564676846214076 0.14976277758042028 C 0.18679930170464806 0.15064054221098022 0.19283966217943344 0.15823098769836988 0.19228636266271862 0.15757958692006607" fill="none" stroke="#000000" stroke-width="0.001"/>
<path d="M 0.19228636266271862 0.15757958692006607 C 0.19268950206224736 0.15849461008829271 0.19776209657975963 0.17043095253407137 0.1971240354570634 0.16855986493878566 C 0.19776209657975963 0.17043095253407137 0.20017801785824102 0.18098870249055346 0.19994309613507352 0.1800326380634944" fill="none" stroke="#000000" stroke-width="0.001"/>
<path d="M 0.19994309613507352 0.1800326380634944 C 0.1998861810873059 0.18193549481361598 0.19846736188316755 0.20653098277870288 0.19926011556186213 0.20286691906495327 C 0.19846736188316755 0.20653098277870288 0.18969421335981157 0.22576260959211772 0.19043005199073854 0.2240014026284897" fill="none" stroke="#000000" stroke-width="0.001"/>
<path d="M 0.19043005199073854 0.2240014026284897 C 0.19070657353256876 0.22272970977601395 0.19403166312379933 0.2060781613667665 0.19374831049270122 0.20874108839878078 C 0.19403166312379933 0.2060781613667665 0.1938371146531837 0.19065504406477984 0.19383028356391582 0.19204627824431839" fill="none" stroke="#000000" stroke-width="0.001"/>
<path d="M 0.19383028356391582 0.19204627824431839 C 0.19360639249887496 0.19087777162214264 0.19061390576865858 0.17578609309746937 0.1911435907834256 0.17802419877820952 C 0.19061390576865858 0.17578609309746937 0.18716826943698553 0.16411941101687205 0.1874740633867117 0.16518901007543646" fill="none" stroke="none" stroke-width="0"/>
<path d="M 0.1874740633867117 0.16518901007543646 C 0.18711992598767063 0.16437926230905495 0.18247290629537904 0.15396015365201754 0.18322441459821912 0.15547203687885836 C 0.18247290629537904 0.15396015365201754 0.1780585928488319 0.1463442758928875 0.17845596375263093 0.1470464113533468" fill="none" stroke="none" stroke-width="0"/>
</g><g transform="translate(0.3426285365955314,0.07182747088453473) rotate(0) scale(1,1) translate(-0.17175389447439587,-0.1626537797756489)"><path d="M 0.17151876667059912 0.1626108762015488 C 0.17173225515405524 0.16251254743792556 0.17475686975879018 0.16172572004767719 0.17408062847207262 0.16143093103807013 C 0.17475686975879018 0.16172572004767719 0.1800964149144713 0.16654146209006382 0.17963366211120985 0.16614834431683353" fill="none" stroke="#000000" stroke-width="0.001"/>
<path d="M 0.17963366211120985 0.16614834431683353 C 0.18026834563654812 0.16715293787394286 0.1882896857404498 0.1807080667705391 0.18724986441526922 0.17820346700214543 C 0.1882896857404498 0.1807080667705391 0.19251665581321886 0.1977035477488421 0.1921115180133766 0.19620354153755776" fill="none" stroke="#000000" stroke-width="0.001"/>
<path d="M 0.1921115180133766 0.19620354153755776 C 0.1920482722446957 0.1981478370580017 0.1905674622554617 0.22316362037286328 0.1913525687892059 0.2195350877828853 C 0.1905674622554617 0.22316362037286328 0.18196837884338282 0.24143016968682737 0.18269023960844613 0.23974593261729338" fill="none" stroke="#000000" stroke-width="0.001"/>
<path d="M 0.18269023960844613 0.23974593261729338 C 0.18307897940349027 0.23816191590147426 0.18770171085359758 0.2177312049236932 0.18735511714897574 0.2207377320274638 C 0.18770171085359758 0.2177312049236932 0.18680721797348607 0.20224509698409474 0.18684936406390834 0.2036676073720462" fill="none" stroke="#000000" stroke-width="0.001"/>
<path d="M 0.18684936406390834 0.2036676073720462 C 0.18650740284098968 0.20201772040700058 0.1819711441617914 0.1811990741033716 0.1827458293888845 0.18386896379149884 C 0.1819711441617914 0.1811990741033716 0.17712041733461653 0.17060892839143788 0.177553141338791 0.1716289311145195" fill="none" stroke="#000000" stroke-width="0.001"/>
<path d="M 0.177553141338791 0.1716289311145195 C 0.17722487250243577 0.17112997654315998 0.17311105074684557 0.1648899716821245 0.17361391530252823 0.16564147625820538 C 0.17311105074684557 0.1648899716821245 0.1713441709512717 0.1623583261968274 0.17151876667059912 0.1626108762015488" fill="none" stroke="#000000" stroke-width="0.001"/>
</g></svg>
