<?xml version="1.0" encoding="UTF-8"?>
<svg xmlns="http://www.w3.org/2000/svg" viewBox="0 0 1 1">
<g transform="translate(0.3373434528286707,0.07439478626293816) rotate(0) scale(1,1) translate(-0.18294501755560244,-0.17151790391238764)"><path d="M 0.18294501755560244 0.1771656262374324 C 0.18214574144411624 0.1771656262374324 0.17854899894242843 0.16798807745923464 0.17814936088668534 0.16869404274986524 C 0.17854899894242843 0.16798807745923464 0.18814031228026268 0.16940000804049585 0.1877406742245196 0.16869404274986524 C 0.18814031228026268 0.16940000804049585 0.18214574144411624 0.1771656262374324 0.18294501755560244 0.1771656262374324 Z" fill="#cccccc" stroke="none" stroke-width="0"/>
</g><g transform="translate(0.33450013027075615,0.07387680868310725) rotate(0) scale(1,1) translate(-0.18224766527367303,-0.16198050313523393)"><path d="M 0.1851272845921429 0.1586177017566029 C 0.18518149068751266 0.15902488289632932 0.18577111384913034 0.1643724572378792 0.1857777577365801 0.16350387543332012 C 0.18577111384913034 0.1643724572378792 0.1849867079599265 0.16950208407614434 0.185047557942746 0.1690406834113117" fill="none" stroke="none" stroke-width="0"/>
<path d="M 0.185047557942746 0.1690406834113117 C 0.18442881293694313 0.16903734461897973 0.17636105766710578 0.16968774076943366 0.17762261787311168 0.1690006179033282 C 0.17636105766710578 0.16968774076943366 0.16926602027047205 0.17797661946301455 0.1699088354706751 0.17728615780457713" fill="none" stroke="none" stroke-width="0"/>
<path d="M 0.1699088354706751 0.17728615780457713 C 0.16946453255143892 0.17879713168080189 0.16408930841539757 0.20020735298315676 0.16457720043984111 0.19541784431927423 C 0.16408930841539757 0.20020735298315676 0.16401054207214522 0.23803879655882537 0.1640541311773526 0.2347602617711676" fill="none" stroke="#000000" stroke-width="0.001"/>
<path d="M 0.1640541311773526 0.2347602617711676 C 0.16343642776706227 0.2321055473840807 0.15597161966213177 0.19889326301872315 0.1566416902538687 0.20290368912612475 C 0.15597161966213177 0.19889326301872315 0.15596091689506292 0.18527943676203357 0.15601328407650952 0.18663514848234827" fill="none" stroke="#000000" stroke-width="0.001"/>
<path d="M 0.15601328407650952 0.18663514848234827 C 0.1563109419226159 0.18558517580875838 0.16043665307524366 0.17221530064279622 0.15958517822978624 0.17403547639926967 C 0.16043665307524366 0.17221530064279622 0.16678479922134964 0.1640228363217834 0.1662309822219986 0.16479303940466697" fill="none" stroke="#000000" stroke-width="0.001"/>
<path d="M 0.1662309822219986 0.16479303940466697 C 0.16713507992996865 0.16430850205723616 0.17865484658181777 0.15846397976482524 0.17708015471763908 0.15897859123549724 C 0.17865484658181777 0.15846397976482524 0.18579787874835155 0.1585876276333617 0.1851272845921429 0.1586177017566029" fill="none" stroke="#000000" stroke-width="0.001"/>
</g><g transform="translate(0.3358066801329858,0.0880816368818722) rotate(0) scale(1,1) translate(-0.18500200957702506,-0.17234778295095274)"><path d="M 0.1865949668591181 0.16993481994732954 C 0.1866604874879344 0.17023277198147718 0.18737924377138016 0.17413992817268686 0.18738121440491354 0.17351024435710147 C 0.18737924377138016 0.17413992817268686 0.1865038279943678 0.17782275751579188 0.18657131925671747 0.17749102573435416" fill="none" stroke="#000000" stroke-width="0.001"/>
<path d="M 0.18657131925671747 0.17749102573435416 C 0.18595575358167035 0.17821047727980593 0.17768149792113086 0.18746251803516087 0.17918453115615213 0.18612444427977548 C 0.17768149792113086 0.18746251803516087 0.16764745287648813 0.1941665330089125 0.1685349204364623 0.1935479107989789" fill="none" stroke="#000000" stroke-width="0.001"/>
<path d="M 0.1685349204364623 0.1935479107989789 C 0.16831618630275494 0.19433038853391593 0.16569196956067492 0.2062190274283871 0.16591011083197402 0.20293764361822322 C 0.16569196956067492 0.2062190274283871 0.16591781804328135 0.2354234225961723 0.1659172251808731 0.23292451652094545" fill="none" stroke="none" stroke-width="0"/>
<path d="M 0.1659172251808731 0.23292451652094545 C 0.16556213928598218 0.22992593138638043 0.16161980289802222 0.1921166842912458 0.16165619444218196 0.19694149490616514 C 0.16161980289802222 0.1921166842912458 0.16579922100168754 0.17320056366155898 0.16548052665095633 0.1750267891419133" fill="none" stroke="#000000" stroke-width="0.001"/>
<path d="M 0.16548052665095633 0.1750267891419133 C 0.16593134394786743 0.174345900150517 0.17180718096636044 0.16587429125092545 0.17089033421388955 0.16685612124515797 C 0.17180718096636044 0.16587429125092545 0.1769487171361669 0.1629438882082868 0.1764826876806071 0.16324482921112304" fill="none" stroke="none" stroke-width="0"/>
<path d="M 0.1764826876806071 0.16324482921112304 C 0.17690562029531962 0.16322334019834378 0.18240056898869994 0.16354446028578912 0.18155787905715737 0.1629869610577719 C 0.18240056898869994 0.16354446028578912 0.18701472417594817 0.170513808188126 0.1865949668591181 0.16993481994732954" fill="none" stroke="none" stroke-width="0"/>
</g><g transform="translate(0.33663064815517535,0.08325881655015177) rotate(0) scale(1,1) translate(-0.18136792537595256,-0.16319014549459962)"><path d="M 0.18342753288550126 0.16083667134286292 C 0.1832910755530639 0.16118235087721505 0.18097414196713432 0.1659661687034979 0.1817900448962529 0.16498482575508866 C 0.18097414196713432 0.1659661687034979 0.1729572521393971 0.1732484501378309 0.17363669773607832 0.1726127867237738" fill="none" stroke="none" stroke-width="0"/>
<path d="M 0.17363669773607832 0.1726127867237738 C 0.17303609610255385 0.17320332671690233 0.16546211642174777 0.18110491156196568 0.16642947813378473 0.1796992666413161 C 0.16546211642174777 0.18110491156196568 0.1616615971131225 0.19029563069908967 0.16202835719163497 0.18948052577156863" fill="none" stroke="none" stroke-width="0"/>
<path d="M 0.16202835719163497 0.18948052577156863 C 0.16198958723485937 0.19065393486286095 0.16171520934333913 0.20767739133476137 0.1615631177103277 0.20356143486707648 C 0.16171520934333913 0.20767739133476137 0.16404431837755928 0.24181455076017996 0.16385345678777224 0.2388720033837874" fill="none" stroke="#000000" stroke-width="0.001"/>
<path d="M 0.16385345678777224 0.2388720033837874 C 0.16338937876724813 0.23662695009665144 0.15766075936394122 0.208194917776096 0.1582845205414829 0.21193136393815593 C 0.15766075936394122 0.208194917776096 0.1562086395002544 0.19254325656414428 0.156368322657272 0.19403464943906826" fill="none" stroke="#000000" stroke-width="0.001"/>
<path d="M 0.156368322657272 0.19403464943906826 C 0.1563638332810098 0.19309207006986517 0.15652552871306247 0.18091988908260034 0.15631445014212586 0.18272369700863128 C 0.15652552871306247 0.18091988908260034 0.15911683345571018 0.17152772576986924 0.15890126550851139 0.1723889543266971" fill="none" stroke="#000000" stroke-width="0.001"/>
<path d="M 0.15890126550851139 0.1723889543266971 C 0.15956222504902662 0.17155193995219806 0.16841712733989259 0.16112853941281216 0.16683277999469415 0.1623447818327085 C 0.16841712733989259 0.16112853941281216 0.17929632972512663 0.15766836941378726 0.1779134336508927 0.15779404528794105 C 0.17929632972512663 0.15766836941378726 0.18388704115505197 0.1610902235141064 0.18342753288550126 0.16083667134286292" fill="none" stroke="none" stroke-width="0"/>
</g><g id="編み左">
<g id="編節1">
<g transform="translate(0.31019459248045644,0.09449108642269155) rotate(0) scale(1,1) translate(-0.18027204884513678,-0.12848593137462816)"><path d="M 0.1817471697171048 0.12992285596574463 C 0.18177995002558545 0.13013966362794954 0.1821536955068073 0.13293883375271087 0.18214053341887265 0.13252454791220372 C 0.1821536955068073 0.13293883375271087 0.18188549655177444 0.13509176423013272 0.18190511477232046 0.1348942860518305" fill="none" stroke="#000000" stroke-width="0.001"/>
<path d="M 0.18190511477232046 0.1348942860518305 C 0.1817961545399532 0.13501107806121052 0.1803526079192536 0.13645861420145267 0.18059759198391334 0.1362957901643909 C 0.1803526079192536 0.13645861420145267 0.17882928216411098 0.1368942065242537 0.17896530599640348 0.13684817449657194" fill="none" stroke="#000000" stroke-width="0.001"/>
<path d="M 0.17896530599640348 0.13684817449657194 C 0.1789219661492002 0.13691026043089188 0.1783405167041372 0.1376718649923058 0.1784452278299642 0.13759320570841133 C 0.1783405167041372 0.1376718649923058 0.1775844428823572 0.13777527920207502 0.1777087724864794 0.13779208590330574 C 0.1775844428823572 0.13777527920207502 0.17684263851510004 0.13728375594930892 0.17695327258049764 0.13739152529364265 C 0.17684263851510004 0.13728375594930892 0.1763138694835139 0.1363289984926473 0.17638116370170823 0.13649885377130097 C 0.1763138694835139 0.1363289984926473 0.17613981902259515 0.13516683332157017 0.17614574196216573 0.1353532619497984 C 0.17613981902259515 0.13516683332157017 0.1763237839655858 0.13417074758945927 0.17631008842686116 0.13426171023256228" fill="none" stroke="#000000" stroke-width="0.001"/>
<path d="M 0.17631008842686116 0.13426171023256228 C 0.17627169059436007 0.13404577295567136 0.1758238596749802 0.13124420269777134 0.17584931443684793 0.13167046290987114 C 0.1758238596749802 0.13124420269777134 0.17601757435508208 0.12893626475215578 0.17600463128444868 0.12914658768736464" fill="none" stroke="#000000" stroke-width="0.001"/>
<path d="M 0.17600463128444868 0.12914658768736464 C 0.17610344818073057 0.1290262574410803 0.17750025540422976 0.12749635420884112 0.1771904340398314 0.1277026247319525 C 0.17750025540422976 0.12749635420884112 0.17993349212534543 0.12658540113320074 0.17972248765722895 0.1266713414100278" fill="none" stroke="#000000" stroke-width="0.001"/>
</g><g transform="translate(0.3088774166637042,0.098025591917661) rotate(0) scale(1,1) translate(-0.10433725337565573,-0.10418740031181734)"><path d="M 0.10712652560047375 0.10208119498242545 C 0.10697727544555884 0.10232273655902191 0.10575724333125666 0.10392964113803693 0.10623102467098428 0.1035304444420042 C 0.10575724333125666 0.10392964113803693 0.10387033125706284 0.10418532512891354 0.1042838375621081 0.1044763751586219 C 0.10387033125706284 0.10418532512891354 0.1038860217820584 0.1008441600738867 0.10374998684071271 0.10178414426375403 C 0.1038860217820584 0.1008441600738867 0.10510004721018222 0.09883647001941798 0.10510004721018222 0.09883647001941798 C 0.10510004721018222 0.09883647001941798 0.10361395189936702 0.10272412845362135 0.10374998684071271 0.10178414426375403 C 0.10361395189936702 0.10272412845362135 0.1041048909469347 0.10505820454342679 0.1042838375621081 0.1044763751586219 C 0.1041048909469347 0.10505820454342679 0.10224542832356438 0.10560056266252285 0.10267630714967234 0.10527512057258337 C 0.10224542832356438 0.10560056266252285 0.10153560751475836 0.10662134555253804 0.10169856460546035 0.1064290276982588" fill="none" stroke="#000000" stroke-width="0.001"/>
</g></g>
<g id="編節2">
<g transform="translate(0.307560240846952,0.10156009741263042) rotate(0) scale(1,1) translate(-0.13796833536796266,-0.11460177227368223)"><path d="M 0.1394657622468651 0.11496000899510757 C 0.13954813871841015 0.11512805598891868 0.140574264300073 0.11732740177392557 0.1404542799054057 0.11697657292084078 C 0.140574264300073 0.11732740177392557 0.1409431829059947 0.11935273709139882 0.14090557498287246 0.11916995523212512" fill="none" stroke="#000000" stroke-width="0.001"/>
<path d="M 0.14090557498287246 0.11916995523212512 C 0.1408541743757157 0.11933653216006909 0.14014670238785068 0.12145701579428812 0.14028876769699133 0.12116887836745276 C 0.14014670238785068 0.12145701579428812 0.13911012657120056 0.12274916485304092 0.13920079127318447 0.12262760435414953" fill="none" stroke="#000000" stroke-width="0.001"/>
<path d="M 0.13920079127318447 0.12262760435414953 C 0.1391844976032906 0.12270739671485437 0.13894695319614073 0.12371611791238891 0.13900526723445814 0.12358511268260765 C 0.13894695319614073 0.12371611791238891 0.1384025147017835 0.12425979091113805 0.13850102281337554 0.12419966711152473 C 0.1384025147017835 0.12425979091113805 0.1377108628794359 0.12427973052386056 0.1378231698953536 0.12430659827796746 C 0.1377108628794359 0.12427973052386056 0.1370573252763394 0.12377059394743017 0.13715333862236323 0.12387725406224191 C 0.1370573252763394 0.12377059394743017 0.13661701676546728 0.12286880391633845 0.13667100974306756 0.1230266769002266 C 0.13661701676546728 0.12286880391633845 0.13649162398683437 0.12189578670186378 0.13650542289116 0.121982778255584" fill="none" stroke="#000000" stroke-width="0.001"/>
<path d="M 0.13650542289116 0.121982778255584 C 0.13641902841508727 0.12181885902763616 0.13533622622629565 0.11966193336111322 0.13546868917828714 0.1200157475202099 C 0.13533622622629565 0.11966193336111322 0.1348697989913436 0.11754711341527506 0.13491586746726233 0.1177370083464239" fill="none" stroke="#000000" stroke-width="0.001"/>
<path d="M 0.13491586746726233 0.1177370083464239 C 0.1349586558208616 0.11757346007978386 0.13555891446227009 0.11548330641389629 0.1354293277104536 0.11577442914674353 C 0.13555891446227009 0.11548330641389629 0.13655770688727722 0.1141159610860497 0.13647090848906002 0.11424353555225691" fill="none" stroke="#000000" stroke-width="0.001"/>
</g><g transform="translate(0.3075026267040567,0.10541180692822266) rotate(0) scale(1,1) translate(-0.10433725337565573,-0.10418740031181734)"><path d="M 0.10588771612985891 0.10068827613995919 C 0.10583897142377699 0.100987074633882 0.10534289463565841 0.10311130610863513 0.10559524789336738 0.10248106710349607 C 0.10534289463565841 0.10311130610863513 0.10398351641863944 0.10446605386137708 0.10437359658360508 0.10446971017079355 C 0.10398351641863944 0.10446605386137708 0.10300805194366207 0.10171063768832493 0.10325476690357353 0.10245912924699725 C 0.10300805194366207 0.10171063768832493 0.10289330682413632 0.09997876081875962 0.10289330682413632 0.09997876081875962 C 0.10289330682413632 0.09997876081875962 0.103501481863485 0.10320762080566957 0.10325476690357353 0.10245912924699725 C 0.103501481863485 0.10320762080566957 0.10439276469781598 0.10508100424916704 0.10437359658360508 0.10446971017079355 C 0.10439276469781598 0.10508100424916704 0.10313028616316273 0.10666749901409445 0.10336977558883893 0.10612689371723817 C 0.10313028616316273 0.10666749901409445 0.10286447410299938 0.10797774999104673 0.10293666002954789 0.10771334195193122" fill="none" stroke="#000000" stroke-width="0.001"/>
</g></g>
<g id="編節3">
<g transform="translate(0.3074450125611615,0.10926351644381495) rotate(0) scale(1,1) translate(-0.13796833536796266,-0.11460177227368223)"><path d="M 0.13921513643242922 0.11408082262284674 C 0.13932027934986027 0.11418200181308155 0.14065613185936984 0.11553517748208628 0.14047685144160194 0.11529497290566434 C 0.14065613185936984 0.11553517748208628 0.14144063894598086 0.11710230292609712 0.14136650144564403 0.11696327753990998" fill="none" stroke="#000000" stroke-width="0.001"/>
<path d="M 0.14136650144564403 0.11696327753990998 C 0.14136778189629143 0.11713772296149269 0.14134295708489908 0.11938799336422073 0.14138186685341284 0.11905662259890257 C 0.14134295708489908 0.11938799336422073 0.14085939400431774 0.1210966520674634 0.1408995842234789 0.12093972672372795" fill="none" stroke="#000000" stroke-width="0.001"/>
<path d="M 0.1408995842234789 0.12093972672372795 C 0.14090664063226502 0.12101864714554081 0.1409714272370729 0.12203393506868478 0.14098426112891232 0.12188677178548224 C 0.1409714272370729 0.12203393506868478 0.14068417980073275 0.12281320866491603 0.14074557752140568 0.1227056861221584 C 0.14068417980073275 0.12281320866491603 0.14015397840100213 0.12321611352238643 0.14024748848083712 0.12317704229857376 C 0.14015397840100213 0.12321611352238643 0.13952289007476465 0.12313469160991014 0.13962345656338576 0.12317454080791033 C 0.13952289007476465 0.12313469160991014 0.13896001442938827 0.12259075986318153 0.13904069061738383 0.1226988519225714 C 0.13896001442938827 0.12259075986318153 0.13862322994827705 0.12180898477628688 0.13865534230743912 0.12187743609523184" fill="none" stroke="#000000" stroke-width="0.001"/>
<path d="M 0.13865534230743912 0.12187743609523184 C 0.13854810791790326 0.12178210902937253 0.1371788592063703 0.12049764797558854 0.13736852963300875 0.12073351130492019 C 0.1371788592063703 0.12049764797558854 0.136296861150675 0.1189065398797798 0.13637929718777758 0.11904707614325213" fill="none" stroke="#000000" stroke-width="0.001"/>
<path d="M 0.13637929718777758 0.11904707614325213 C 0.13637209995998947 0.11888008116944998 0.13632145021396336 0.11671610693939838 0.13629293045432014 0.11704313645762623 C 0.13632145021396336 0.11671610693939838 0.13675725129092736 0.11496268738009209 0.13672153430349604 0.11512272192451779" fill="none" stroke="#000000" stroke-width="0.001"/>
</g><g transform="translate(0.3083495765099097,0.11266692101171369) rotate(0) scale(1,1) translate(-0.10433725337565573,-0.10418740031181734)"><path d="M 0.10467455577917108 0.10026065102921712 C 0.10471047309110174 0.1005493462803615 0.1048501233701625 0.10268508814238013 0.10489005965075505 0.10199282253608337 C 0.1048501233701625 0.10268508814238013 0.10413224116041683 0.10462843308321526 0.10443493809561577 0.10441424466699768 C 0.10413224116041683 0.10462843308321526 0.10269855704588435 0.10276031107154046 0.10307387803956145 0.10327795303338883 C 0.10269855704588435 0.10276031107154046 0.10218301213355323 0.10130839289590754 0.10218301213355323 0.10130839289590754 C 0.10218301213355323 0.10130839289590754 0.10344919903323854 0.10379559499523719 0.10307387803956145 0.10327795303338883 C 0.10344919903323854 0.10379559499523719 0.10460040317169589 0.10493861151551295 0.10443493809561577 0.10441424466699768 C 0.10460040317169589 0.10493861151551295 0.10401459711499564 0.10703079686725844 0.10406666849604215 0.1064241541244804 C 0.10401459711499564 0.10703079686725844 0.10413181669488575 0.10832575895686344 0.10412250980933667 0.10805410112366587" fill="none" stroke="#000000" stroke-width="0.001"/>
</g></g>
<g id="編節4">
</g>
<g id="編節5">
</g>
<g id="編節6">
</g>
<g id="編節7">
</g>
</g>
<g transform="translate(0.31409382000938413,0.09852731555035957) rotate(0) scale(1,1) translate(-0.17086573660060742,-0.1716896655664302)"><path d="M 0.17881838980285963 0.15829053461299128 C 0.1785642157543259 0.15855516003452855 0.17539995246231654 0.16221975519811813 0.1757683012204549 0.1614660396714384 C 0.17539995246231654 0.16221975519811813 0.17428402999559486 0.16782421103829046 0.17439820470519948 0.16733512093314798" fill="none" stroke="none" stroke-width="0"/>
<path d="M 0.17439820470519948 0.16733512093314798 C 0.1742407158657578 0.1678838189140887 0.17207679360261763 0.17520102235062074 0.17250833863189924 0.1739194967044367 C 0.17207679360261763 0.17520102235062074 0.16894560816398038 0.18344625635259953 0.1692196643538203 0.18271342868735624" fill="none" stroke="none" stroke-width="0"/>
<path d="M 0.1692196643538203 0.18271342868735624 C 0.16882039226871698 0.18333902777778477 0.16334322283038327 0.1914930515741319 0.16442839933258052 0.19022061777249857 C 0.16334322283038327 0.1914930515741319 0.15551164191035927 0.1986294690181609 0.1561975463274532 0.1979826343069561" fill="none" stroke="#000000" stroke-width="0.001"/>
<path d="M 0.1561975463274532 0.1979826343069561 C 0.15661027558251675 0.19715973856310384 0.1617341663135273 0.18656186520534374 0.16115029738821587 0.18810788538072912 C 0.1617341663135273 0.18656186520534374 0.16337511310143824 0.1787072677707985 0.16320397343119036 0.17943039220233165" fill="none" stroke="#000000" stroke-width="0.001"/>
<path d="M 0.16320397343119036 0.17943039220233165 C 0.16332361998887865 0.178857426602881 0.16492260880786366 0.17135750714243417 0.16463973212344968 0.17255480500892392 C 0.16492260880786366 0.17135750714243417 0.16676172377088394 0.16443848553741533 0.16659849364415824 0.16506281780445445" fill="none" stroke="#000000" stroke-width="0.001"/>
<path d="M 0.16659849364415824 0.16506281780445445 C 0.16715361219341235 0.16469443177170306 0.17427824091509914 0.16007782847881574 0.17325991623520737 0.16064218541143768 C 0.17427824091509914 0.16007782847881574 0.17928159593349732 0.15809456371312075 0.17881838980285963 0.15829053461299128" fill="none" stroke="none" stroke-width="0"/>
</g><g transform="translate(0.33663064815517535,0.08325881655015177) rotate(0) scale(1,1) translate(-0.18224766527367303,-0.16198050313523393)"><path d="M 0.18298629467244681 0.15920435592177784 C 0.18305165892406866 0.15949274751712075 0.18377066569190897 0.16306912235636126 0.18377066569190897 0.16266505506589268 C 0.18377066569190897 0.16306912235636126 0.18292093042082497 0.16416883910252655 0.18298629467244681 0.16405316340740086" fill="none" stroke="none" stroke-width="0"/>
<path d="M 0.18298629467244681 0.16405316340740086 C 0.18253932160583555 0.16446545128206147 0.17674443936243892 0.1697739580516099 0.17762261787311165 0.1690006179033282 C 0.17674443936243892 0.1697739580516099 0.1720169471003126 0.17369429746040235 0.17244815254437407 0.17333324518678125" fill="none" stroke="none" stroke-width="0"/>
<path d="M 0.17244815254437407 0.17333324518678125 C 0.1717308080000184 0.17493144979507172 0.16308841981272515 0.19641984599859427 0.1638400180121059 0.19251170048626673 C 0.16308841981272515 0.19641984599859427 0.16339472049677994 0.22254093223874902 0.16342897415180502 0.2202309913347119" fill="none" stroke="#000000" stroke-width="0.001"/>
<path d="M 0.16342897415180502 0.2202309913347119 C 0.1631017838526216 0.21813576684026556 0.15912768659460194 0.1917895221462881 0.15950269056160402 0.19508829740135575 C 0.15912768659460194 0.1917895221462881 0.15888111287996134 0.17944213751327895 0.15892892654778001 0.18064568827390023" fill="none" stroke="#000000" stroke-width="0.001"/>
<path d="M 0.15892892654778001 0.18064568827390023 C 0.15918832051066345 0.1798192543994323 0.16272111326537222 0.16927595867612638 0.16204165410238125 0.17072848178028513 C 0.16272111326537222 0.16927595867612638 0.16750250170377912 0.16258932179430435 0.16708243650367158 0.16321541102399517" fill="none" stroke="#000000" stroke-width="0.001"/>
<path d="M 0.16708243650367158 0.16321541102399517 C 0.1678982239449109 0.1628004603251974 0.17819720731260824 0.15790174804657048 0.17687188579854363 0.1582360026384219 C 0.17819720731260824 0.15790174804657048 0.1834958287452721 0.15928505202872417 0.18298629467244681 0.15920435592177784" fill="none" stroke="none" stroke-width="0"/>
</g><g transform="translate(0.31019459248045644,0.09449108642269155) rotate(0) scale(1,1) translate(-0.11911739335740366,-0.12944226356934785)"><path d="M 0.1265542020676122 0.12124859616852302 C 0.1263490914218577 0.12183722443717974 0.12382077380876848 0.12933253399898914 0.1240928743185585 0.12831213539240374 C 0.12382077380876848 0.12933253399898914 0.12322200608609636 0.13392514978547632 0.12328899595013192 0.13349337944754766" fill="none" stroke="none" stroke-width="0"/>
<path d="M 0.12328899595013192 0.13349337944754766 C 0.12354154528074175 0.13289435816874226 0.12703957186331635 0.1252235839769856 0.12631958791744996 0.12630512410188285 C 0.12703957186331635 0.1252235839769856 0.13239623791578506 0.1200323791026888 0.1319288033005285 0.12051489794878065" fill="none" stroke="none" stroke-width="0"/>
<path d="M 0.1319288033005285 0.12051489794878065 C 0.1315190365932238 0.12149145182730217 0.12644083985130664 0.13395255399197858 0.1270116028128722 0.1322335444910389 C 0.12644083985130664 0.13395255399197858 0.12491865150748094 0.14188546758247483 0.1250796477617418 0.14114301196005669" fill="none" stroke="none" stroke-width="0"/>
<path d="M 0.1250796477617418 0.14114301196005669 C 0.12513761427550765 0.14050093681501624 0.12598762679740433 0.13222892555923146 0.12577524592693215 0.13343811021957153 C 0.12598762679740433 0.13222892555923146 0.12778263256411412 0.12606568652067635 0.12762821820740783 0.12663279603597596" fill="none" stroke="none" stroke-width="0"/>
<path d="M 0.12762821820740783 0.12663279603597596 C 0.12746194946741182 0.12694857941840917 0.12522107498843565 0.1315122617787674 0.12563299332745562 0.13042219662517449 C 0.12522107498843565 0.1315122617787674 0.12243954854014452 0.14048785965025085 0.12268519813916845 0.13971357787909114" fill="none" stroke="none" stroke-width="0"/>
<path d="M 0.12268519813916845 0.13971357787909114 C 0.12265782431448675 0.13907694301435228 0.1223682794565734 0.1310647272156556 0.12235671224298808 0.13207395950222475 C 0.1223682794565734 0.1310647272156556 0.12286294574045936 0.12723019301843116 0.12282400470219235 0.12760279044026143" fill="none" stroke="none" stroke-width="0"/>
<path d="M 0.12282400470219235 0.12760279044026143 C 0.12272893342007767 0.12785839103135724 0.1214219687677923 0.13156471670497175 0.12168314931681617 0.130669997533411 C 0.1214219687677923 0.13156471670497175 0.11952372884699655 0.1389785390794555 0.11968983811390575 0.13833942049899053" fill="none" stroke="none" stroke-width="0"/>
<path d="M 0.11968983811390575 0.13833942049899053 C 0.11966453953874526 0.13777937827956868 0.11939781111944286 0.13077328559093132 0.11938625521197982 0.13161891386592828 C 0.11939781111944286 0.13077328559093132 0.11986536348608587 0.12790629514345184 0.11982850900346233 0.12819188119902694" fill="none" stroke="none" stroke-width="0"/>
<path d="M 0.11982850900346233 0.12819188119902694 C 0.11976984110831312 0.12837510268370372 0.11900844049359177 0.13079266394711847 0.11912449426167188 0.13039053901514824 C 0.11900844049359177 0.13079266394711847 0.1183784779135701 0.13323628382996316 0.118435863786501 0.13301738038266972" fill="none" stroke="none" stroke-width="0"/>
<path d="M 0.118435863786501 0.13301738038266972 C 0.11851106853562936 0.1325830344858521 0.11974097537308055 0.12688536292328575 0.1193383207760412 0.12780522962085814 C 0.11974097537308055 0.12688536292328575 0.12359516879888426 0.1214934592110464 0.12326771895097326 0.12197898001180114" fill="none" stroke="none" stroke-width="0"/>
<path d="M 0.12326771895097326 0.12197898001180114 C 0.12309506930860156 0.12240407438215377 0.12095017109527158 0.1279046565232517 0.12119592324251298 0.1270801124560326 C 0.12095017109527158 0.1279046565232517 0.12024559067920675 0.13227295851529683 0.12031869318407645 0.13187350881843035" fill="none" stroke="none" stroke-width="0"/>
<path d="M 0.12031869318407645 0.13187350881843035 C 0.12047702366525655 0.13143536305451453 0.12273828469853226 0.12573035026394813 0.12221865895823762 0.1266157596514404 C 0.12273828469853226 0.12573035026394813 0.12691549732672674 0.12080133254494657 0.1265542020676122 0.12124859616852302" fill="none" stroke="none" stroke-width="0"/>
</g><g transform="translate(0.34018677538658526,0.07387680868310725) rotate(0) scale(1,1) translate(-0.18224766527367303,-0.16198050313523393)"><path d="M 0.17941787364062783 0.1586177017566029 C 0.18008430584626686 0.15864777587984408 0.18898559002190507 0.15949320270616923 0.18741506010829603 0.15897859123549724 C 0.18898559002190507 0.15949320270616923 0.19916833031190648 0.16527757675209778 0.19826423260393644 0.16479303940466697" fill="none" stroke="#000000" stroke-width="0.001"/>
<path d="M 0.19826423260393644 0.16479303940466697 C 0.19881804960328747 0.16556324248755053 0.20576152108505716 0.17585565215574311 0.20491003659614881 0.17403547639926967 C 0.20576152108505716 0.17585565215574311 0.20877971396039388 0.18768512115593816 0.20848204647083657 0.18663514848234827" fill="none" stroke="#000000" stroke-width="0.001"/>
<path d="M 0.20848204647083657 0.18663514848234827 C 0.20842967928938996 0.18799086020266298 0.2071835697017405 0.20691411523352635 0.20785364029347742 0.20290368912612475 C 0.2071835697017405 0.20691411523352635 0.19982349595970322 0.2374149761582545 0.20044119936999355 0.2347602617711676" fill="none" stroke="#000000" stroke-width="0.001"/>
<path d="M 0.20044119936999355 0.2347602617711676 C 0.20039761026478617 0.23148172698350983 0.1994302380830615 0.1906283356553917 0.19991813010750506 0.19541784431927423 C 0.1994302380830615 0.1906283356553917 0.19414219215743486 0.17577518392835237 0.19458649507667103 0.17728615780457713" fill="none" stroke="#000000" stroke-width="0.001"/>
<path d="M 0.19458649507667103 0.17728615780457713 C 0.193943679876468 0.1765956961461397 0.1856037132346569 0.16831349503722276 0.18687271267423453 0.1690006179033282 C 0.1856037132346569 0.16831349503722276 0.17873231756236488 0.16904402220364367 0.17935850180173946 0.1690406834113117" fill="none" stroke="none" stroke-width="0"/>
<path d="M 0.17935850180173946 0.1690406834113117 C 0.17930261130796776 0.16857928274647907 0.1786927635297198 0.16263529362876106 0.1786878158764791 0.16350387543332012 C 0.1786927635297198 0.16263529362876106 0.17947871178764022 0.15821052061687646 0.17941787364062783 0.1586177017566029" fill="none" stroke="none" stroke-width="0"/>
</g><g transform="translate(0.3388802255243556,0.0880816368818722) rotate(0) scale(1,1) translate(-0.18500200957702506,-0.17234778295095274)"><path d="M 0.18340905229493198 0.16993481994732954 C 0.18382880961176204 0.16935583170653307 0.18928883002843538 0.1624294618297547 0.18844614009689278 0.1629869610577719 C 0.18928883002843538 0.1624294618297547 0.19394426408815554 0.1632663182239023 0.19352133147344303 0.16324482921112304" fill="none" stroke="none" stroke-width="0"/>
<path d="M 0.19352133147344303 0.16324482921112304 C 0.19398736092900282 0.16354577021395927 0.20003053169263138 0.1678379512393905 0.1991136849401605 0.16685612124515797 C 0.20003053169263138 0.1678379512393905 0.20497430980000483 0.1757076781333096 0.20452349250309373 0.1750267891419133" fill="none" stroke="none" stroke-width="0"/>
<path d="M 0.20452349250309373 0.1750267891419133 C 0.20484218685382494 0.17685301462226763 0.20831143316770845 0.2017663055210845 0.20834782471186816 0.19694149490616514 C 0.20831143316770845 0.2017663055210845 0.20373170807828606 0.23592310165551048 0.204086793973177 0.23292451652094545" fill="none" stroke="#000000" stroke-width="0.001"/>
<path d="M 0.204086793973177 0.23292451652094545 C 0.20408738683558525 0.2304256104457186 0.203875767050777 0.19965625980805934 0.2040939083220761 0.20293764361822322 C 0.203875767050777 0.19965625980805934 0.20125036458388051 0.19276543306404187 0.20146909871758786 0.1935479107989789" fill="none" stroke="none" stroke-width="0"/>
<path d="M 0.20146909871758786 0.1935479107989789 C 0.2005816311576137 0.1929292885890453 0.1893164547628767 0.1847863705243901 0.19081948799789797 0.18612444427977548 C 0.1893164547628767 0.1847863705243901 0.1828171342222855 0.17677157418890238 0.1834326998973326 0.17749102573435416" fill="none" stroke="#000000" stroke-width="0.001"/>
<path d="M 0.1834326998973326 0.17749102573435416 C 0.18336520863498293 0.17715929395291644 0.18262083411560315 0.17288056054151607 0.18262280474913653 0.17351024435710147 C 0.18262083411560315 0.17288056054151607 0.18347457292374827 0.1696368679131819 0.18340905229493198 0.16993481994732954" fill="none" stroke="#000000" stroke-width="0.001"/>
</g><g transform="translate(0.33805625750216606,0.08325881655015177) rotate(0) scale(1,1) translate(-0.18136792537595256,-0.16319014549459962)"><path d="M 0.17930831786640392 0.16083667134286292 C 0.17976782613595463 0.16058311917161944 0.18620531317524638 0.15791972116209488 0.18482241710101247 0.15779404528794108 C 0.18620531317524638 0.15791972116209488 0.19748741810240947 0.16356102425260488 0.19590307075721103 0.16234478183270853 C 0.19748741810240947 0.16356102425260488 0.20449554478390905 0.17322596870119614 0.20383458524339382 0.1723889543266971" fill="none" stroke="none" stroke-width="0"/>
<path d="M 0.20383458524339382 0.1723889543266971 C 0.2040501531905926 0.17325018288352495 0.20663247918071598 0.18452750493466222 0.20642140060977937 0.18272369700863128 C 0.20663247918071598 0.18452750493466222 0.20636303871837094 0.19497722880827134 0.20636752809463313 0.19403464943906826" fill="none" stroke="#000000" stroke-width="0.001"/>
<path d="M 0.20636752809463313 0.19403464943906826 C 0.20620784493761557 0.19552604231399223 0.20382756903288063 0.21566781010021585 0.2044513302104223 0.21193136393815593 C 0.20382756903288063 0.21566781010021585 0.19841831594360884 0.24111705667092334 0.19888239396413296 0.2388720033837874" fill="none" stroke="#000000" stroke-width="0.001"/>
<path d="M 0.19888239396413296 0.2388720033837874 C 0.19907325555392 0.23592945600739482 0.20132482467458887 0.19944547839939158 0.20117273304157743 0.20356143486707648 C 0.20132482467458887 0.19944547839939158 0.20066872360349458 0.1883071166802763 0.20070749356027018 0.18948052577156863" fill="none" stroke="#000000" stroke-width="0.001"/>
<path d="M 0.20070749356027018 0.18948052577156863 C 0.2003407334817577 0.18866542084404758 0.19533901090608352 0.17829362172066654 0.19630637261812045 0.1796992666413161 C 0.19533901090608352 0.17829362172066654 0.18849855138230245 0.17202224673064528 0.18909915301582692 0.1726127867237738" fill="none" stroke="none" stroke-width="0"/>
<path d="M 0.18909915301582692 0.1726127867237738 C 0.1884197074191457 0.1719771233097167 0.1801299029265337 0.16400348280667942 0.1809458058556523 0.16498482575508866 C 0.1801299029265337 0.16400348280667942 0.17917186053396655 0.16049099180851079 0.17930831786640392 0.16083667134286292" fill="none" stroke="none" stroke-width="0"/>
</g><g id="編み右">
<g id="編節1">
<g transform="translate(0.364492313176885,0.09449108642269155) rotate(0) scale(1,1) translate(-0.18027204884513678,-0.12848593137462816)"><path d="M 0.1808216100330447 0.1266713414100278 C 0.18103261450116118 0.12675728168685488 0.18366348501484064 0.1279088952550639 0.18335366365044228 0.1277026247319525 C 0.18366348501484064 0.1279088952550639 0.18463828330210685 0.12926691793364903 0.18453946640582497 0.12914658768736467" fill="none" stroke="#000000" stroke-width="0.001"/>
<path d="M 0.18453946640582497 0.12914658768736467 C 0.18455240947645837 0.12935691062257354 0.18466932849155795 0.13209672312197093 0.18469478325342567 0.13167046290987114 C 0.18466932849155795 0.13209672312197093 0.18419561143091134 0.1344776475094532 0.18423400926341243 0.13426171023256228" fill="none" stroke="#000000" stroke-width="0.001"/>
<path d="M 0.18423400926341243 0.13426171023256228 C 0.18424770480213706 0.1343526728756653 0.18439243278853729 0.13553969057802664 0.18439835572810787 0.1353532619497984 C 0.18439243278853729 0.13553969057802664 0.18409563977037108 0.13666870904995465 0.1841629339885654 0.13649885377130097 C 0.18409563977037108 0.13666870904995465 0.18348019104437846 0.13749929463797642 0.18359082510977606 0.13739152529364268 C 0.18348019104437846 0.13749929463797642 0.18271099559967202 0.1378088926045365 0.18283532520379422 0.13779208590330577 C 0.18271099559967202 0.1378088926045365 0.18199415873448246 0.13751454642451688 0.18209886986030946 0.13759320570841135 C 0.18199415873448246 0.13751454642451688 0.18153545184666686 0.13678608856225202 0.18157879169387015 0.13684817449657197" fill="none" stroke="#000000" stroke-width="0.001"/>
<path d="M 0.18157879169387015 0.13684817449657197 C 0.18144276786157765 0.13680214246889022 0.17970152164170053 0.1361329661273291 0.17994650570636028 0.13629579016439092 C 0.17970152164170053 0.1361329661273291 0.17853002268558588 0.13477749404245046 0.17863898291795313 0.1348942860518305" fill="none" stroke="#000000" stroke-width="0.001"/>
<path d="M 0.17863898291795313 0.1348942860518305 C 0.1786193646974071 0.13469680787352825 0.17841672635933561 0.13211026207169657 0.17840356427140097 0.13252454791220372 C 0.17841672635933561 0.13211026207169657 0.17882970828164946 0.1297060483035397 0.17879692797316882 0.12992285596574463" fill="none" stroke="#000000" stroke-width="0.001"/>
</g><g transform="translate(0.3658094889936373,0.098025591917661) rotate(0) scale(1,1) translate(-0.10433725337565573,-0.10418740031181734)"><path d="M 0.10697594214585109 0.1064290276982588 C 0.10681298505514908 0.10623670984397955 0.1055673207755311 0.10494967848264387 0.10599819960163906 0.10527512057258336 C 0.1055673207755311 0.10494967848264387 0.10421172257402996 0.10389454577381702 0.10439066918920335 0.1044763751586219 C 0.10421172257402996 0.10389454577381702 0.10478848496925301 0.10084416007388669 0.1049245199105987 0.10178414426375401 C 0.10478848496925301 0.10084416007388669 0.10357445954112923 0.09883647001941798 0.10357445954112923 0.09883647001941798 C 0.10357445954112923 0.09883647001941798 0.10506055485194439 0.10272412845362133 0.1049245199105987 0.10178414426375401 C 0.10506055485194439 0.10272412845362133 0.10397716288415809 0.10476742518833027 0.10439066918920335 0.1044763751586219 C 0.10397716288415809 0.10476742518833027 0.10196970074059952 0.10313124774597143 0.10244348208032714 0.10353044444200418 C 0.10196970074059952 0.10313124774597143 0.1013987309959228 0.10183965340582897 0.1015479811508377 0.10208119498242543" fill="none" stroke="#000000" stroke-width="0.001"/>
</g></g>
<g id="編節2">
<g transform="translate(0.3671266648103896,0.10156009741263045) rotate(0) scale(1,1) translate(-0.13796833536796266,-0.11460177227368223)"><path d="M 0.13946576224686522 0.11424353555225689 C 0.13955256064508242 0.1143711100184641 0.1406369297772881 0.11606555187959076 0.14050734302547163 0.11577442914674352 C 0.1406369297772881 0.11606555187959076 0.14106359162226215 0.11790055661306391 0.14102080326866287 0.11773700834642388" fill="none" stroke="#000000" stroke-width="0.001"/>
<path d="M 0.14102080326866287 0.11773700834642388 C 0.14097473479274414 0.11792690327757271 0.1403355186056466 0.12036956167930656 0.14046798155763807 0.12001574752020988 C 0.1403355186056466 0.12036956167930656 0.13934485336869254 0.12214669748353184 0.13943124784476527 0.121982778255584" fill="none" stroke="#000000" stroke-width="0.001"/>
<path d="M 0.13943124784476527 0.121982778255584 C 0.13941744894043964 0.12206976980930422 0.13921166801525742 0.12318454988411476 0.1392656609928577 0.1230266769002266 C 0.13921166801525742 0.12318454988411476 0.13868731876753815 0.12398391417705365 0.13878333211356197 0.12387725406224191 C 0.13868731876753815 0.12398391417705365 0.138001193824654 0.12433346603207433 0.1381135008405717 0.12430659827796743 C 0.138001193824654 0.12433346603207433 0.1373371398109577 0.12413954331191142 0.13743564792254975 0.12419966711152473 C 0.1373371398109577 0.12413954331191142 0.13687308946314966 0.12345410745282635 0.13693140350146707 0.12358511268260762 C 0.13687308946314966 0.12345410745282635 0.13671958579284696 0.12254781199344468 0.13673587946274082 0.12262760435414952" fill="none" stroke="#000000" stroke-width="0.001"/>
<path d="M 0.13673587946274082 0.12262760435414952 C 0.13664521476075692 0.12250604385525812 0.1355058377297933 0.12088074094061739 0.13564790303893395 0.12116887836745276 C 0.1355058377297933 0.12088074094061739 0.13497969514589608 0.11900337830418113 0.13503109575305283 0.1191699552321251" fill="none" stroke="#000000" stroke-width="0.001"/>
<path d="M 0.13503109575305283 0.1191699552321251 C 0.13506870367617507 0.1189871733728514 0.1356023752251868 0.11662574406775597 0.13548239083051955 0.11697657292084077 C 0.1356023752251868 0.11662574406775597 0.13655328496060518 0.11479196200129646 0.13647090848906013 0.11496000899510755" fill="none" stroke="#000000" stroke-width="0.001"/>
</g><g transform="translate(0.3671842789532848,0.10541180692822269) rotate(0) scale(1,1) translate(-0.10433725337565573,-0.10418740031181734)"><path d="M 0.10573784672176358 0.10771334195193122 C 0.10566566079521506 0.10744893391281571 0.1050652417367963 0.1055862884203819 0.10530473116247249 0.10612689371723817 C 0.1050652417367963 0.1055862884203819 0.10432007828191728 0.10385841609242005 0.10430091016770637 0.10446971017079354 C 0.10432007828191728 0.10385841609242005 0.10566645480764938 0.10171063768832493 0.10541973984773792 0.10245912924699725 C 0.10566645480764938 0.10171063768832493 0.10578119992717515 0.09997876081875962 0.10578119992717515 0.09997876081875962 C 0.10578119992717515 0.09997876081875962 0.10517302488782646 0.10320762080566957 0.10541973984773792 0.10245912924699725 C 0.10517302488782646 0.10320762080566957 0.10391083000274073 0.10447336648021001 0.10430091016770637 0.10446971017079354 C 0.10391083000274073 0.10447336648021001 0.10282690560023508 0.101850828098357 0.10307925885794406 0.10248106710349605 C 0.10282690560023508 0.101850828098357 0.10273804591537064 0.10038947764603638 0.10278679062145256 0.10068827613995919" fill="none" stroke="#000000" stroke-width="0.001"/>
</g></g>
<g id="編節3">
<g transform="translate(0.36724189309617994,0.10926351644381496) rotate(0) scale(1,1) translate(-0.13796833536796266,-0.11460177227368223)"><path d="M 0.13921513643242925 0.11512272192451779 C 0.13925085341986057 0.1152827564689435 0.13967226004124828 0.11737016597585408 0.1396437402816051 0.11704313645762622 C 0.13967226004124828 0.11737016597585408 0.13955017632035954 0.11921407111705427 0.13955737354814765 0.11904707614325212" fill="none" stroke="#000000" stroke-width="0.001"/>
<path d="M 0.13955737354814765 0.11904707614325212 C 0.13947493751104506 0.11918761240672446 0.13837847067627804 0.12096937463425182 0.1385681411029165 0.12073351130492017 C 0.13837847067627804 0.12096937463425182 0.1371740940389503 0.12197276316109115 0.13728132842848617 0.12187743609523184" fill="none" stroke="#000000" stroke-width="0.001"/>
<path d="M 0.13728132842848617 0.12187743609523184 C 0.1372492160693241 0.1219458874141768 0.1368153039305458 0.12280694398196126 0.13689598011854137 0.12269885192257139 C 0.1368153039305458 0.12280694398196126 0.13621264768391836 0.12321439000591052 0.13631321417253947 0.12317454080791032 C 0.13621264768391836 0.12321439000591052 0.13559567217525315 0.1231379710747611 0.13568918225508814 0.12317704229857376 C 0.13559567217525315 0.1231379710747611 0.13512969549384662 0.12259816357940076 0.13519109321451955 0.12270568612215839 C 0.13512969549384662 0.12259816357940076 0.1349395757151735 0.1217396085022797 0.13495240960701294 0.12188677178548224 C 0.1349395757151735 0.1217396085022797 0.13504414292123243 0.12086080630191508 0.1350370865124463 0.12093972672372794" fill="none" stroke="#000000" stroke-width="0.001"/>
<path d="M 0.1350370865124463 0.12093972672372794 C 0.13499689629328515 0.12078280137999249 0.1345158941139987 0.11872525183358439 0.13455480388251245 0.11905662259890255 C 0.1345158941139987 0.11872525183358439 0.13457144974092863 0.11678883211832725 0.13457016929028123 0.11696327753990997" fill="none" stroke="#000000" stroke-width="0.001"/>
<path d="M 0.13457016929028123 0.11696327753990997 C 0.13464430679061806 0.11682425215372283 0.13563909971209118 0.1150547683292424 0.13545981929432327 0.11529497290566433 C 0.13563909971209118 0.1150547683292424 0.13682667722092715 0.11397964343261195 0.13672153430349607 0.11408082262284674" fill="none" stroke="#000000" stroke-width="0.001"/>
</g><g transform="translate(0.3663373291474317,0.1126669210117137) rotate(0) scale(1,1) translate(-0.10433725337565573,-0.10418740031181734)"><path d="M 0.10455199694197474 0.10805410112366585 C 0.10456130382752384 0.10778244329046828 0.10455576687422277 0.10581751138170238 0.10460783825526929 0.1064241541244804 C 0.10455576687422277 0.10581751138170238 0.10440503373177579 0.10388987781848241 0.10423956865569567 0.10441424466699768 C 0.10440503373177579 0.10388987781848241 0.10597594970542706 0.10276031107154046 0.10560062871174998 0.10327795303338883 C 0.10597594970542706 0.10276031107154046 0.10649149461775821 0.10130839289590754 0.10649149461775821 0.10130839289590754 C 0.10649149461775821 0.10130839289590754 0.1052253077180729 0.10379559499523719 0.10560062871174998 0.10327795303338883 C 0.1052253077180729 0.10379559499523719 0.10393687172049673 0.1042000562507801 0.10423956865569567 0.10441424466699768 C 0.10393687172049673 0.1042000562507801 0.10374451081996382 0.1013005569297866 0.10378444710055637 0.10199282253608336 C 0.10374451081996382 0.1013005569297866 0.10403586828407099 0.09997195577807275 0.10399995097214033 0.10026065102921712" fill="none" stroke="#000000" stroke-width="0.001"/>
</g></g>
<g id="編節4">
</g>
<g id="編節5">
</g>
<g id="編節6">
</g>
<g id="編節7">
</g>
</g>
<g transform="translate(0.36059308564795745,0.09852731555035957) rotate(0) scale(1,1) translate(-0.17086573660060742,-0.1716896655664302)"><path d="M 0.16291308339835525 0.15829053461299128 C 0.16337628952899294 0.1584865055128618 0.1694898816458993 0.16120654234405962 0.1684715569660075 0.16064218541143768 C 0.1694898816458993 0.16120654234405962 0.17568809810631075 0.16543120383720583 0.17513297955705664 0.16506281780445445" fill="none" stroke="none" stroke-width="0"/>
<path d="M 0.17513297955705664 0.16506281780445445 C 0.17529620968378234 0.16568715007149357 0.17737461776217917 0.17375210287541368 0.17709174107776518 0.17255480500892392 C 0.17737461776217917 0.17375210287541368 0.17864714632771278 0.18000335780178228 0.1785274997700245 0.17943039220233165" fill="none" stroke="#000000" stroke-width="0.001"/>
<path d="M 0.1785274997700245 0.17943039220233165 C 0.17869863944027237 0.18015351663386478 0.18116504473831035 0.1896539055561145 0.18058117581299893 0.18810788538072912 C 0.18116504473831035 0.1896539055561145 0.18594665612882527 0.19880553005080834 0.18553392687376172 0.1979826343069561" fill="none" stroke="#000000" stroke-width="0.001"/>
<path d="M 0.18553392687376172 0.1979826343069561 C 0.18484802245666776 0.1973357995957513 0.17621789736643706 0.18894818397086524 0.1773030738686343 0.19022061777249857 C 0.17621789736643706 0.18894818397086524 0.1721125367622913 0.1820878295969277 0.17251180884739462 0.18271342868735624" fill="none" stroke="#000000" stroke-width="0.001"/>
<path d="M 0.17251180884739462 0.18271342868735624 C 0.1722377526575547 0.18198060102211294 0.16879158954003398 0.17263797105825268 0.1692231345693156 0.1739194967044367 C 0.16879158954003398 0.17263797105825268 0.16717577965657365 0.16678642295220725 0.16733326849601535 0.16733512093314798" fill="none" stroke="none" stroke-width="0"/>
<path d="M 0.16733326849601535 0.16733512093314798 C 0.16721909378641073 0.1668460308280055 0.1655948232226216 0.1607123241447587 0.16596317198075994 0.1614660396714384 C 0.1655948232226216 0.1607123241447587 0.16265890934982152 0.158025909191454 0.16291308339835525 0.15829053461299128" fill="none" stroke="none" stroke-width="0"/>
</g><g transform="translate(0.33805625750216606,0.08325881655015177) rotate(0) scale(1,1) translate(-0.18224766527367303,-0.16198050313523393)"><path d="M 0.1815090358748993 0.15920435592177784 C 0.18201856994772458 0.1591236598148315 0.18894876626286716 0.15857025723027335 0.18762344474880255 0.1582360026384219 C 0.18894876626286716 0.15857025723027335 0.19822868148491388 0.16363036172279294 0.19741289404367454 0.16321541102399517" fill="none" stroke="none" stroke-width="0"/>
<path d="M 0.19741289404367454 0.16321541102399517 C 0.19783295924378208 0.163841500253686 0.20313313560795593 0.17218100488444388 0.20245367644496495 0.17072848178028513 C 0.20313313560795593 0.17218100488444388 0.2058257979624496 0.18147212214836816 0.20556640399956616 0.18064568827390023" fill="none" stroke="#000000" stroke-width="0.001"/>
<path d="M 0.20556640399956616 0.18064568827390023 C 0.2055185903317475 0.18184923903452152 0.20461763601874 0.19838707265642339 0.2049926399857421 0.19508829740135575 C 0.20461763601874 0.19838707265642339 0.2007391660963577 0.22232621582915826 0.2010663563955411 0.2202309913347119" fill="none" stroke="#000000" stroke-width="0.001"/>
<path d="M 0.2010663563955411 0.2202309913347119 C 0.20103210274051603 0.2179210504306748 0.19990371433585946 0.18860355497393919 0.20065531253524022 0.19251170048626673 C 0.19990371433585946 0.18860355497393919 0.1913298334586164 0.1717350405784908 0.19204717800297208 0.17333324518678125" fill="none" stroke="#000000" stroke-width="0.001"/>
<path d="M 0.19204717800297208 0.17333324518678125 C 0.1916159725589106 0.17297219291316016 0.1859945341635618 0.1682272777550465 0.18687271267423453 0.1690006179033282 C 0.1859945341635618 0.1682272777550465 0.18106206280828804 0.16364087553274026 0.1815090358748993 0.16405316340740086" fill="none" stroke="none" stroke-width="0"/>
<path d="M 0.1815090358748993 0.16405316340740086 C 0.18144367162327746 0.16393748771227518 0.18072466485543723 0.1622609877754241 0.18072466485543723 0.16266505506589268 C 0.18072466485543723 0.1622609877754241 0.18157440012652115 0.15891596432643493 0.1815090358748993 0.15920435592177784" fill="none" stroke="none" stroke-width="0"/>
</g><g transform="translate(0.364492313176885,0.09449108642269155) rotate(0) scale(1,1) translate(-0.11911739335740366,-0.12944226356934785)"><path d="M 0.1116805846471951 0.12124859616852302 C 0.11204187990630965 0.12169585979209946 0.11653575349686439 0.12750116903893266 0.11601612775656973 0.1266157596514404 C 0.11653575349686439 0.12750116903893266 0.11807442401191104 0.13231165458234617 0.11791609353073094 0.13187350881843035" fill="none" stroke="none" stroke-width="0"/>
<path d="M 0.11791609353073094 0.13187350881843035 C 0.11784299102586124 0.13147405912156387 0.11679311132505302 0.1262555683888135 0.11703886347229442 0.1270801124560326 C 0.11679311132505302 0.1262555683888135 0.1147944181214624 0.12155388564144852 0.1149670677638341 0.12197898001180114" fill="none" stroke="none" stroke-width="0"/>
<path d="M 0.1149670677638341 0.12197898001180114 C 0.11529451761174511 0.12246450081255589 0.11929912053580552 0.12872509631843052 0.11889646593876617 0.12780522962085814 C 0.11929912053580552 0.12872509631843052 0.11987412767743466 0.13345172627948734 0.11979892292830631 0.13301738038266972" fill="none" stroke="none" stroke-width="0"/>
<path d="M 0.11979892292830631 0.13301738038266972 C 0.11974153705537541 0.13279847693537628 0.11899423868505535 0.12998841408317802 0.11911029245313545 0.13039053901514824 C 0.11899423868505535 0.12998841408317802 0.11834760981619578 0.12800865971435016 0.11840627771134499 0.12819188119902694" fill="none" stroke="none" stroke-width="0"/>
<path d="M 0.11840627771134499 0.12819188119902694 C 0.11844313219396853 0.12847746725460205 0.11886008741029053 0.13246454214092523 0.11884853150282747 0.13161891386592828 C 0.11886008741029053 0.13246454214092523 0.11851965002574116 0.1388994627184124 0.11854494860090165 0.13833942049899053" fill="none" stroke="none" stroke-width="0"/>
<path d="M 0.11854494860090165 0.13833942049899053 C 0.11837883933399244 0.13770030191852556 0.11629045684896729 0.12977527836185024 0.11655163739799117 0.130669997533411 C 0.11629045684896729 0.12977527836185024 0.11531571073050033 0.12734718984916563 0.11541078201261501 0.12760279044026143" fill="none" stroke="none" stroke-width="0"/>
<path d="M 0.11541078201261501 0.12760279044026143 C 0.11544972305088202 0.1279753878620917 0.11588964168540458 0.1330831917887939 0.11587807447181926 0.13207395950222475 C 0.11588964168540458 0.1330831917887939 0.11552221475095718 0.14035021274383 0.11554958857563888 0.13971357787909114" fill="none" stroke="none" stroke-width="0"/>
<path d="M 0.11554958857563888 0.13971357787909114 C 0.11530393897661495 0.13893929610793143 0.11218987504833175 0.12933213147158157 0.1126017933873517 0.13042219662517449 C 0.11218987504833175 0.12933213147158157 0.11044029976740355 0.12631701265354275 0.11060656850739956 0.12663279603597596" fill="none" stroke="none" stroke-width="0"/>
<path d="M 0.11060656850739956 0.12663279603597596 C 0.11076098286410586 0.12719990555127558 0.11267192165834736 0.1346472948799116 0.11245954078787519 0.13343811021957153 C 0.11267192165834736 0.1346472948799116 0.11321310546683144 0.14178508710509713 0.11315513895306557 0.14114301196005669" fill="none" stroke="none" stroke-width="0"/>
<path d="M 0.11315513895306557 0.14114301196005669 C 0.1129941426988047 0.14040055633763854 0.11065242094036962 0.13051453499009924 0.11122318390193518 0.1322335444910389 C 0.11065242094036962 0.13051453499009924 0.10589621670697408 0.11953834407025912 0.10630598341427878 0.12051489794878065" fill="none" stroke="none" stroke-width="0"/>
<path d="M 0.10630598341427878 0.12051489794878065 C 0.10677341802953533 0.1209974167948725 0.11263518274322376 0.1273866642267801 0.11191519879735738 0.12630512410188285 C 0.11263518274322376 0.1273866642267801 0.11519834009528522 0.13409240072635306 0.11494579076467538 0.13349337944754766" fill="none" stroke="none" stroke-width="0"/>
<path d="M 0.11494579076467538 0.13349337944754766 C 0.11487880090063984 0.133061609109619 0.11386981188645887 0.12729173678581834 0.11414191239624889 0.12831213539240374 C 0.11386981188645887 0.12729173678581834 0.11147547400144062 0.12065996789986629 0.1116805846471951 0.12124859616852302" fill="none" stroke="none" stroke-width="0"/>
</g></svg>
