<?xml version="1.0" encoding="UTF-8"?>
<svg xmlns="http://www.w3.org/2000/svg" viewBox="0 0 1 1">
<g transform="translate(0.3331344687915756,0.08767004086829941) rotate(0) scale(1,1) translate(-0.1746342267458757,-0.17286777966550146)"><path d="M 0.17558666654926788 0.15511194585830043 C 0.17564135741192455 0.15523786914177867 0.1762657347002776 0.15691440538056511 0.17624295690114794 0.15662302526003918 C 0.1762657347002776 0.15691440538056511 0.17582808707529668 0.15877396414165929 0.1758600001388237 0.1586085073046116" fill="none" stroke="#000000" stroke-width="0.001"/>
<path d="M 0.1758600001388237 0.1586085073046116 C 0.1758134130157565 0.15977720612976448 0.17533622976478175 0.1748681939056227 0.17530095466201756 0.17263289320644612 C 0.17533622976478175 0.1748681939056227 0.17636516359782525 0.18649871756875414 0.17628330137199388 0.18543211569473045" fill="none" stroke="none" stroke-width="0"/>
<path d="M 0.17628330137199388 0.18543211569473045 C 0.1762102843216978 0.18581216456193161 0.1750243714804904 0.19118400559225657 0.17540709676844096 0.18999270210114447 C 0.1750243714804904 0.19118400559225657 0.17138088967893267 0.20053901221198672 0.17169059791658714 0.1997277575880758" fill="none" stroke="#000000" stroke-width="0.001"/>
<path d="M 0.17169059791658714 0.1997277575880758 C 0.17164969723322865 0.19893423557386974 0.1708697839464339 0.18876371386991211 0.17119978971628513 0.19020549341760332 C 0.1708697839464339 0.18876371386991211 0.16744142359187952 0.1817781454822962 0.16773052867837226 0.18242640301578136" fill="none" stroke="#000000" stroke-width="0.001"/>
<path d="M 0.16773052867837226 0.18242640301578136 C 0.16764565315323432 0.18142127592850338 0.16689432858596653 0.1684848629667774 0.1667120223767169 0.17036487796844565 C 0.16689432858596653 0.1684848629667774 0.17018538492375554 0.15899133508137195 0.16991820318936796 0.15986622299576222" fill="none" stroke="none" stroke-width="0"/>
<path d="M 0.16991820318936796 0.15986622299576222 C 0.17020106809328606 0.15954426610520572 0.1737849539830436 0.1556065505476291 0.17331258203638528 0.15600274030908423 C 0.1737849539830436 0.1556065505476291 0.1757761735920081 0.1550377129874018 0.17558666654926788 0.15511194585830043" fill="none" stroke="#000000" stroke-width="0.001"/>
</g><g transform="translate(0.32343342602503145,0.08768232950410915) rotate(0) scale(1,1) translate(-0.1735889769813819,-0.17324546383976883)"><path d="M 0.1785365928741599 0.15663025954268958 C 0.17855997143982344 0.15683590405130463 0.1787181738507043 0.15972246892849354 0.17881713566212237 0.15909799364606997 C 0.1787181738507043 0.15972246892849354 0.1772267107600614 0.1645427937055811 0.17734905113714303 0.16412396293177253" fill="none" stroke="#000000" stroke-width="0.001"/>
<path d="M 0.17734905113714303 0.16412396293177253 C 0.17703978574299603 0.16477412991063714 0.17340180166898628 0.17333892560941777 0.17363786640737905 0.17192596667814775 C 0.17340180166898628 0.17333892560941777 0.17458947493218419 0.18184226205941809 0.17451627427642993 0.18107947010701267" fill="none" stroke="none" stroke-width="0"/>
<path d="M 0.17451627427642993 0.18107947010701267 C 0.1742832137992879 0.18177478799353136 0.17127104264400375 0.19068747415796233 0.17171954855072574 0.18942328474523715 C 0.17127104264400375 0.19068747415796233 0.16891875796618594 0.1968186145859212 0.16913420339576593 0.19624974305971474" fill="none" stroke="#000000" stroke-width="0.001"/>
<path d="M 0.16913420339576593 0.19624974305971474 C 0.16898324161747724 0.19556159579680749 0.16718862403454626 0.1867623959615001 0.16732266205630167 0.18799197590482764 C 0.16718862403454626 0.1867623959615001 0.16754267089123415 0.18095335105936397 0.1675257471347009 0.18149478373978425" fill="none" stroke="#000000" stroke-width="0.001"/>
<path d="M 0.1675257471347009 0.18149478373978425 C 0.16747451416612924 0.180534064201613 0.16727853781548924 0.16840890404353884 0.16691095151184102 0.16996614928172912 C 0.16727853781548924 0.16840890404353884 0.17235560205069927 0.16221131518148166 0.1719367827784794 0.1628078408815007" fill="none" stroke="none" stroke-width="0"/>
<path d="M 0.1719367827784794 0.1628078408815007 C 0.17221137410254905 0.16245650344017612 0.17578186284195507 0.15807699314070486 0.17523187866731504 0.1585917915856058 C 0.17578186284195507 0.15807699314070486 0.1788119857247303 0.15646679853911322 0.1785365928741599 0.15663025954268958" fill="none" stroke="#000000" stroke-width="0.001"/>
</g><g transform="translate(0.31241092917350344,0.09034205385627028) rotate(0) scale(1,1) translate(-0.17199583769089846,-0.15739337258770392)"><path d="M 0.1810569937338512 0.14135419197573382 C 0.18082494662088255 0.1424375292035823 0.1777403558699083 0.1563066227957859 0.1782724283782276 0.15435423870991558 C 0.1777403558699083 0.1563066227957859 0.17437209823866903 0.1656518478641993 0.17467212363401968 0.16478280100617745" fill="none" stroke="#000000" stroke-width="0.001"/>
<path d="M 0.17467212363401968 0.16478280100617745 C 0.17457850638069258 0.1658683422678178 0.17373551878049998 0.18020471871096858 0.17354871659409443 0.1778092961458615 C 0.17373551878049998 0.18020471871096858 0.1771941693106188 0.19483775309092927 0.17691374987088615 0.1935278717874625" fill="none" stroke="#000000" stroke-width="0.001"/>
<path d="M 0.17691374987088615 0.1935278717874625 C 0.17668064504839387 0.19473822321345685 0.17387355392307374 0.21068473021525067 0.17411649200097867 0.2080520888993947 C 0.17387355392307374 0.21068473021525067 0.17398865968061444 0.22654185746759578 0.17399849293602707 0.22511956757773416" fill="none" stroke="#000000" stroke-width="0.001"/>
<path d="M 0.17399849293602707 0.22511956757773416 C 0.17374803991815485 0.2237217258569817 0.1706524436527315 0.20561333560838393 0.1709930567215605 0.20834546692870448 C 0.1706524436527315 0.20561333560838393 0.16982097605912216 0.1909997021343197 0.16991113611007896 0.19233399173388774" fill="none" stroke="#000000" stroke-width="0.001"/>
<path d="M 0.16991113611007896 0.19233399173388774 C 0.16963190859490276 0.19079548772182542 0.16647690455255673 0.17097849214105146 0.1665604059279645 0.17387194358913993 C 0.16647690455255673 0.17097849214105146 0.16910484574495427 0.1562576269208 0.16890911960518581 0.15761257435682616" fill="none" stroke="#000000" stroke-width="0.001"/>
<path d="M 0.16890911960518581 0.15761257435682616 C 0.16936085529825068 0.15694319540188786 0.17534227076601946 0.14822516169914216 0.17432994792196402 0.14958002689756653 C 0.17534227076601946 0.14822516169914216 0.1816175808848418 0.14066870573224777 0.1810569937338512 0.14135419197573382" fill="none" stroke="#000000" stroke-width="0.001"/>
</g><g id="編み左">
<g id="編節1">
<g transform="translate(0.31241092917350344,0.09034205385627028) rotate(0) scale(1,1) translate(-0.18027204884513678,-0.12848593137462816)"><path d="M 0.18148015649647106 0.13016232655993948 C 0.18147553236232805 0.13038164708146308 0.1813671065335975 0.1332044962385103 0.18142466688675496 0.1327941728182226 C 0.1813671065335975 0.1332044962385103 0.18073649603956715 0.13527721050215613 0.1807894322585816 0.13508620760339202" fill="none" stroke="#000000" stroke-width="0.001"/>
<path d="M 0.1807894322585816 0.13508620760339202 C 0.1806622462676783 0.13518192422694025 0.17899422117560104 0.1363517613488291 0.179263200367742 0.13623480708597085 C 0.17899422117560104 0.1363517613488291 0.17741988875165277 0.13651089639700087 0.1775616819528904 0.13648965875769087" fill="none" stroke="#000000" stroke-width="0.001"/>
<path d="M 0.1775616819528904 0.13648965875769087 C 0.17750843185644288 0.13654312431137666 0.17680617056274922 0.13719016130215148 0.17692268079552015 0.13713124540192034 C 0.17680617056274922 0.13719016130215148 0.17604397934955765 0.1371580746304593 0.17616355915963938 0.13719664956046437 C 0.17604397934955765 0.1371580746304593 0.17539711500068944 0.13654261660296105 0.1754877230745395 0.1366683462418594 C 0.17539711500068944 0.13654261660296105 0.17503890429603605 0.13550869870110005 0.1750762622734386 0.13568789389368419 C 0.17503890429603605 0.13550869870110005 0.17506532950462977 0.13433335839172017 0.17503942734570893 0.13451800393084964 C 0.17506532950462977 0.13433335839172017 0.1754160599167205 0.1333849927152373 0.17538708818048884 0.13347214742413055" fill="none" stroke="#000000" stroke-width="0.001"/>
<path d="M 0.17538708818048884 0.13347214742413055 C 0.17538603197067146 0.13325268898499967 0.17542190645207656 0.1304143527743947 0.17537441366268022 0.13083864615456 C 0.17542190645207656 0.1304143527743947 0.17600555065245857 0.12817579192111234 0.17595700165324485 0.12838062686214677" fill="none" stroke="#000000" stroke-width="0.001"/>
<path d="M 0.17595700165324485 0.12838062686214677 C 0.1760748007102479 0.12827962898006276 0.17762950196566113 0.12703772805440292 0.1773705903372813 0.12716865227713875 C 0.17762950196566113 0.12703772805440292 0.17920505376517942 0.126779609848665 0.17906394119380264 0.1268095361893168" fill="none" stroke="#000000" stroke-width="0.001"/>
</g><g transform="translate(0.31051209728427986,0.09358953971441153) rotate(0) scale(1,1) translate(-0.10433725337565573,-0.10418740031181734)"><path d="M 0.1074426825075449 0.10260728048883422 C 0.10725458299105614 0.10281871455667363 0.10577954796671585 0.10418509197839254 0.10631408540861231 0.10387588489587068 C 0.10577954796671585 0.10418509197839254 0.10387777810458945 0.1041026467690811 0.10423545785616607 0.10446252298396536 C 0.10387777810458945 0.1041026467690811 0.10429935432234501 0.10084968350298185 0.10416800689915257 0.10171662760656518 C 0.10429935432234501 0.10084968350298185 0.10502354239532076 0.09926085836246534 0.10502354239532076 0.09926085836246534 C 0.10502354239532076 0.09926085836246534 0.10403665947596012 0.10258357171014851 0.10416800689915257 0.10171662760656518 C 0.10403665947596012 0.10258357171014851 0.10396018699109025 0.10500381473697916 0.10423545785616607 0.10446252298396536 C 0.10396018699109025 0.10500381473697916 0.10203664999233049 0.10520855078643669 0.10251638170869759 0.10496437812464798 C 0.10203664999233049 0.10520855078643669 0.10116384853284113 0.10608808909303921 0.10135706755796349 0.1059275589546976" fill="none" stroke="#000000" stroke-width="0.001"/>
</g></g>
<g id="編節2">
<g transform="translate(0.3086132653950563,0.09683702557255278) rotate(0) scale(1,1) translate(-0.13796833536796266,-0.11460177227368223)"><path d="M 0.13938203154071174 0.11521981853458556 C 0.13943455045636835 0.1153999045620633 0.14007069967994484 0.11774760369523599 0.140012258528591 0.11738085086431846 C 0.14007069967994484 0.11774760369523599 0.14008924759265498 0.11980751930903569 0.14008332535695775 0.1196208525055959" fill="none" stroke="#000000" stroke-width="0.001"/>
<path d="M 0.14008332535695775 0.1196208525055959 C 0.14000434981268098 0.11977579372894688 0.13894666314675927 0.12173874192106711 0.13913561882563655 0.12148014718580766 C 0.13894666314675927 0.12173874192106711 0.13770587707582996 0.12282764284061776 0.13781585721043046 0.12272398932870929" fill="none" stroke="#000000" stroke-width="0.001"/>
<path d="M 0.13781585721043046 0.12272398932870929 C 0.13778622829392562 0.12279968322781969 0.1373805815175252 0.12375100142237923 0.13746031021237215 0.12363231611803409 C 0.1373805815175252 0.12375100142237923 0.13675186664889322 0.12418997378513073 0.13685911287226693 0.12414821298085103 C 0.13675186664889322 0.12418997378513073 0.1360673283189315 0.1240870922998228 0.1361733555318877 0.12413344576939055 C 0.1360673283189315 0.1240870922998228 0.13551038802034132 0.12346992397735988 0.13558678631679266 0.12359197134603803 C 0.13551038802034132 0.12346992397735988 0.13523027745636249 0.1225038385713399 0.13525657597447172 0.12266887734525278 C 0.13523027745636249 0.1225038385713399 0.13527242310989956 0.12152339178523588 0.13527120409948204 0.12161150605908334" fill="none" stroke="#000000" stroke-width="0.001"/>
<path d="M 0.13527120409948204 0.12161150605908334 C 0.13521402556617335 0.12143477334411107 0.13451483974698414 0.119118810262991 0.13458506169977755 0.11949071347941605 C 0.13451483974698414 0.119118810262991 0.13441549724647633 0.11695349696052988 0.13442854066596105 0.11714866746198266" fill="none" stroke="#000000" stroke-width="0.001"/>
<path d="M 0.13442854066596105 0.11714866746198266 C 0.13449851923737888 0.11699518332603626 0.13544545840041256 0.11504311270985879 0.13526828352297487 0.11530685783062576 C 0.13544545840041256 0.11504311270985879 0.13666183550123326 0.11387346502795832 0.13655463919521338 0.1139837260127789" fill="none" stroke="#000000" stroke-width="0.001"/>
</g><g transform="translate(0.307900863038553,0.10062001328265978) rotate(0) scale(1,1) translate(-0.10433725337565573,-0.10418740031181734)"><path d="M 0.10645980520642277 0.10101608235456618 C 0.10636093758351041 0.10130170686355712 0.10551079656701257 0.10330579218795909 0.10586659946894861 0.10272982940851184 C 0.10551079656701257 0.10330579218795909 0.10394145622525501 0.10439916005173182 0.10432498779480648 0.10447185903124966 C 0.10394145622525501 0.10439916005173182 0.10344985643637755 0.1015128125219442 0.10356541005163979 0.10229363553140484 C 0.10344985643637755 0.1015128125219442 0.10363166610323309 0.0997869209744858 0.10363166610323309 0.0997869209744858 C 0.10363166610323309 0.0997869209744858 0.10368096366690202 0.10307445854086549 0.10356541005163979 0.10229363553140484 C 0.10368096366690202 0.10307445854086549 0.10423980617594346 0.10507726159011721 0.10432498779480648 0.10447185903124966 C 0.10423980617594346 0.10507726159011721 0.1027264438814729 0.10641602037319747 0.1030543203384617 0.10592605088461013 C 0.1027264438814729 0.10641602037319747 0.10224163050527574 0.10765928014246767 0.10235772905287373 0.10741167596277373" fill="none" stroke="#000000" stroke-width="0.001"/>
</g></g>
<g id="編節3">
<g transform="translate(0.30718846068204986,0.10440300099276685) rotate(0) scale(1,1) translate(-0.13796833536796266,-0.11460177227368223)"><path d="M 0.13928487422229538 0.11430959349649668 C 0.13937119639072942 0.11442786040679763 0.1404564077751189 0.11599710921464265 0.14032074024350402 0.11572879642010804 C 0.1404564077751189 0.11599710921464265 0.1409622299648547 0.11767939291514576 0.14091288460167387 0.11752934703091208" fill="none" stroke="#000000" stroke-width="0.001"/>
<path d="M 0.14091288460167387 0.11752934703091208 C 0.1408844503444628 0.11770136905167897 0.1404769467472478 0.11991305536065672 0.1405716735151412 0.11959361128011461 C 0.1404769467472478 0.11991305536065672 0.13970987087627104 0.12151009805719255 0.13977616338695337 0.12136267599741733" fill="none" stroke="#000000" stroke-width="0.001"/>
<path d="M 0.13977616338695337 0.12136267599741733 C 0.13976967823617864 0.12144164740239999 0.1396606515528085 0.12245298702303878 0.13969834157765676 0.12231033285720928 C 0.1396606515528085 0.12245298702303878 0.1392451149381362 0.12316953912058846 0.1393238830887742 0.12307452598737131 C 0.1392451149381362 0.12316953912058846 0.13865438335592595 0.12347240386410402 0.1387531237700009 0.1234504904558151 C 0.13865438335592595 0.12347240386410402 0.13804674285657448 0.12328042889014457 0.1381389981198747 0.12333748688683831 C 0.13804674285657448 0.12328042889014457 0.13758501022117137 0.12264505373794958 0.13764606061039805 0.12276579449549016 C 0.13758501022117137 0.12264505373794958 0.13738642118571745 0.1218154980714231 0.13740639344915442 0.12188859779635133" fill="none" stroke="#000000" stroke-width="0.001"/>
<path d="M 0.13740639344915442 0.12188859779635133 C 0.13731701539540914 0.1217757236232629 0.1361872181154768 0.12026822974789875 0.13633385680421112 0.12053410771929016 C 0.1361872181154768 0.12026822974789875 0.1355894685493536 0.11854505834135148 0.13564672918434265 0.11869806213965446" fill="none" stroke="#000000" stroke-width="0.001"/>
<path d="M 0.13564672918434265 0.11869806213965446 C 0.13566806828899047 0.11853232928856203 0.13598655405089055 0.11639225866914629 0.13590279844011663 0.11670926792654518 C 0.13598655405089055 0.11639225866914629 0.13671421301975592 0.11474267464456141 0.13665179651362983 0.11489395105086785" fill="none" stroke="#000000" stroke-width="0.001"/>
</g><g transform="translate(0.3074999322070955,0.10791493330436783) rotate(0) scale(1,1) translate(-0.10433725337565573,-0.10418740031181734)"><path d="M 0.10533786866573912 0.10038005641801928 C 0.10532409669544622 0.10067072807858037 0.1050980652491578 0.10279876066452964 0.10525523684398173 0.10212408638138577 C 0.1050980652491578 0.10279876066452964 0.10406028023751573 0.10458541724689552 0.1043948390967955 0.10442810211688247 C 0.10406028023751573 0.10458541724689552 0.10296638110671914 0.10249171554404668 0.10324788368830312 0.10306797716146406 C 0.10296638110671914 0.10249171554404668 0.10270582360729164 0.10097053241237818 0.10270582360729164 0.10097053241237818 C 0.10270582360729164 0.10097053241237818 0.1035293862698871 0.10364423877888143 0.10324788368830312 0.10306797716146406 C 0.1035293862698871 0.10364423877888143 0.10446852918897014 0.10497381289110118 0.1043948390967955 0.10442810211688247 C 0.10446852918897014 0.10497381289110118 0.10353547719638646 0.1069304444365268 0.10369002424135089 0.10634224180677633 C 0.10353547719638646 0.1069304444365268 0.10343047892461865 0.10822649724348683 0.10346755682700898 0.10795731789538533" fill="none" stroke="#000000" stroke-width="0.001"/>
</g></g>
<g id="編節4">
</g>
<g id="編節5">
</g>
<g id="編節6">
</g>
<g id="編節7">
</g>
</g>
<g transform="translate(0.31241092917350344,0.09034205385627028) rotate(0) scale(1,1) translate(-0.17086573660060742,-0.1716896655664302)"><path d="M 0.1771567623446851 0.15908741129064596 C 0.17716673335647753 0.1593269141401348 0.1772169810510682 0.16253205796049738 0.1772764144861941 0.16196144548451205 C 0.1772169810510682 0.16253205796049738 0.17637415667625575 0.16626587062896633 0.17644356112317408 0.16593476100246984" fill="none" stroke="none" stroke-width="0"/>
<path d="M 0.17644356112317408 0.16593476100246984 C 0.17625509926937508 0.1665869260453811 0.17378071188626631 0.1750189889489132 0.17418201887758605 0.17376074151740498 C 0.17378071188626631 0.1750189889489132 0.17141503208981634 0.1816398125691657 0.17162787722733708 0.18103373018056873" fill="none" stroke="none" stroke-width="0"/>
<path d="M 0.17162787722733708 0.18103373018056873 C 0.17125206111546648 0.1823970774696751 0.1662354748132096 0.19976258444045017 0.16711808388488975 0.19739389764984497 C 0.1662354748132096 0.19976258444045017 0.16052977540736596 0.21046331116933006 0.16103656836717548 0.2094579716678312" fill="none" stroke="#000000" stroke-width="0.001"/>
<path d="M 0.16103656836717548 0.2094579716678312 C 0.16128435095891414 0.20837002160906998 0.16434353463742904 0.19423598982347712 0.16400995946803956 0.1964025709626964 C 0.16434353463742904 0.19423598982347712 0.16512526297750008 0.18238036691674173 0.16503947039984926 0.18345899799719978" fill="none" stroke="#000000" stroke-width="0.001"/>
<path d="M 0.16503947039984926 0.18345899799719978 C 0.16516937607038631 0.18272570088680534 0.16701663245450435 0.17306247568853533 0.16659833844629385 0.17465943267246642 C 0.16701663245450435 0.17306247568853533 0.17034738683604872 0.1634318543164901 0.17005899849837527 0.16429551419002675" fill="none" stroke="#000000" stroke-width="0.001"/>
<path d="M 0.17005899849837527 0.16429551419002675 C 0.1703793907722591 0.16409256650784504 0.17449518610550707 0.16142613342889775 0.17390370578498124 0.16186014200384616 C 0.17449518610550707 0.16142613342889775 0.1774278503913271 0.1588563503978793 0.1771567623446851 0.15908741129064596" fill="none" stroke="#000000" stroke-width="0.001"/>
</g><g transform="translate(0.32786931052537616,0.08649293934779043) rotate(0) scale(1,1) translate(-0.1733257244965802,-0.17311386908515122)"><path d="M 0.17573496581886183 0.157143011943484 C 0.17577660022333738 0.15740523135665418 0.17623227041558076 0.16090998882676977 0.1762345786725683 0.160289644901526 C 0.17623227041558076 0.16090998882676977 0.17566332407354798 0.16494526355848282 0.17570726673501108 0.16458713904640923" fill="none" stroke="#000000" stroke-width="0.001"/>
<path d="M 0.17570726673501108 0.16458713904640923 C 0.17563530598952623 0.16515408040400947 0.17478368196198116 0.1730552291597648 0.17484373778919282 0.17139043533761208 C 0.17478368196198116 0.1730552291597648 0.1749985017267444 0.18566251737679432 0.1749865968084712 0.18456466491224183" fill="none" stroke="#000000" stroke-width="0.001"/>
<path d="M 0.1749865968084712 0.18456466491224183 C 0.1747342147985128 0.18537150056572393 0.17170589523549937 0.19561954949918842 0.17195801268897054 0.19424669275402723 C 0.17170589523549937 0.19561954949918842 0.17196145192330434 0.20160496694585514 0.17196118736681712 0.20103894585417606" fill="none" stroke="#000000" stroke-width="0.001"/>
<path d="M 0.17196118736681712 0.20103894585417606 C 0.17175257647705602 0.2003397681767149 0.16916449103384873 0.19136269908174017 0.16945785668968386 0.19264881372464202 C 0.16916449103384873 0.19136269908174017 0.16835604473072158 0.18501863317391323 0.1684407994967956 0.18560557013935391" fill="none" stroke="#000000" stroke-width="0.001"/>
<path d="M 0.1684407994967956 0.18560557013935391 C 0.1683480277797291 0.18449175979030352 0.16743149881742492 0.1704105756962652 0.16732753889199753 0.17223984595074926 C 0.16743149881742492 0.1704105756962652 0.16988505024441805 0.16293886718011139 0.16968831860192415 0.16365432708554506" fill="none" stroke="#000000" stroke-width="0.001"/>
<path d="M 0.16968831860192415 0.16365432708554506 C 0.16989451118080542 0.16336981518984328 0.17266651681657744 0.1596975747419519 0.17216262954849929 0.16024018433712364 C 0.17266651681657744 0.1596975747419519 0.1760326605080587 0.15688491424401405 0.17573496581886183 0.157143011943484" fill="none" stroke="#000000" stroke-width="0.001"/>
</g><g transform="translate(0.3191271812391471,0.08652943878711525) rotate(0) scale(1,1) translate(-0.16923840088096093,-0.16884701953825593)"><path d="M 0.17406993465802825 0.15486384556077773 C 0.17390931540756507 0.15532331541273836 0.17182247008440227 0.16111458105690907 0.17214250365247014 0.16037748378430514 C 0.17182247008440227 0.16111458105690907 0.17007011752360895 0.16398664025266824 0.17022953184121367 0.1637090128320249" fill="none" stroke="#000000" stroke-width="0.001"/>
<path d="M 0.17022953184121367 0.1637090128320249 C 0.17016840833157904 0.1645963671252253 0.16917202391094133 0.17651227660361563 0.169496049725598 0.1743572643504297 C 0.16917202391094133 0.17651227660361563 0.16607831976031154 0.19083681783024167 0.16634122206533358 0.18956915987025613" fill="none" stroke="#000000" stroke-width="0.001"/>
<path d="M 0.16634122206533358 0.18956915987025613 C 0.1663024094730014 0.19044517738571742 0.16589724856703006 0.20265195428235575 0.16587547095734725 0.2000813700557915 C 0.16589724856703006 0.20265195428235575 0.16666314358354228 0.2221107373001301 0.16660255338152727 0.22041617058902713" fill="none" stroke="#000000" stroke-width="0.001"/>
<path d="M 0.16660255338152727 0.22041617058902713 C 0.1662819668968712 0.218692320615868 0.1621757871903868 0.19679019248997626 0.1627555155656543 0.19972997091111747 C 0.1621757871903868 0.19679019248997626 0.15938667098770615 0.18392290108735074 0.15964581287831756 0.18513882953533278" fill="none" stroke="#000000" stroke-width="0.001"/>
<path d="M 0.15964581287831756 0.18513882953533278 C 0.1597448665620582 0.18404929757476263 0.16129480853254907 0.17014442731807972 0.1608344570832053 0.17206444600849077 C 0.16129480853254907 0.17014442731807972 0.1655313280360459 0.16126811852055922 0.16517003027044277 0.16209860525040012" fill="none" stroke="#000000" stroke-width="0.001"/>
<path d="M 0.16517003027044277 0.16209860525040012 C 0.16560473602534345 0.16180942635498569 0.1711281580282164 0.15802556186462516 0.17038649932925096 0.15862845850542703 C 0.1711281580282164 0.15802556186462516 0.17437688760209302 0.1545501278153903 0.17406993465802825 0.15486384556077773" fill="none" stroke="#000000" stroke-width="0.001"/>
</g><g transform="translate(0.31241092917350344,0.09034205385627028) rotate(0) scale(1,1) translate(-0.11911739335740366,-0.12684064787770738)"><path d="M 0.12860496606697341 0.12005010485135269 C 0.12844798606567007 0.12050498819699408 0.12656520875002197 0.12650472654647144 0.12672120605133333 0.12550870499904937 C 0.12656520875002197 0.12650472654647144 0.126733981151229 0.13254350162219825 0.12673299845123703 0.13200236342041757" fill="none" stroke="none" stroke-width="0"/>
<path d="M 0.12673299845123703 0.13200236342041757 C 0.12688436718759663 0.13145592301043874 0.12915912376004615 0.12429183281959791 0.1285494232875523 0.1254450785006717 C 0.12915912376004615 0.12429183281959791 0.13450773585729744 0.11755660997643735 0.1340494041211632 0.11816341524753231" fill="none" stroke="none" stroke-width="0"/>
<path d="M 0.1340494041211632 0.11816341524753231 C 0.1340242076014897 0.11861490534973952 0.13378844869985468 0.12472414927362506 0.133747045885081 0.12358129647401891 C 0.13378844869985468 0.12472414927362506 0.13461283723289452 0.13256901154020495 0.13454623789844733 0.13187764884280603" fill="none" stroke="none" stroke-width="0"/>
<path d="M 0.13454623789844733 0.13187764884280603 C 0.13439674415148628 0.1315050227523934 0.1325271129012103 0.1267470461024011 0.13275231293491457 0.12740613575785426 C 0.1325271129012103 0.1267470461024011 0.13176813120725278 0.12368210941232761 0.131843837493996 0.12396857297736813" fill="none" stroke="none" stroke-width="0"/>
<path d="M 0.131843837493996 0.12396857297736813 C 0.1316467371980325 0.12433335675213991 0.1290941295542944 0.12940204961218274 0.12947863394243375 0.12834597827462946 C 0.1290941295542944 0.12940204961218274 0.12704238074414767 0.13733271659078897 0.12722978483632352 0.13664142902800747" fill="none" stroke="none" stroke-width="0"/>
<path d="M 0.12722978483632352 0.13664142902800747 C 0.12703633600977965 0.136135094364483 0.12472426265342865 0.12963834209265176 0.12490839891779687 0.13056541306571412 C 0.12472426265342865 0.12963834209265176 0.12502946222608047 0.1250958410417214 0.12502014966390482 0.1255165773512593" fill="none" stroke="none" stroke-width="0"/>
<path d="M 0.12502014966390482 0.1255165773512593 C 0.12488318366979129 0.12585709891012586 0.12310721099350526 0.13057884349889773 0.12337655773454244 0.12960283605765802 C 0.12310721099350526 0.13057884349889773 0.12165560802453504 0.13786415252850887 0.12178798877145869 0.13722866664613573" fill="none" stroke="none" stroke-width="0"/>
<path d="M 0.12178798877145869 0.13722866664613573 C 0.12165047856126295 0.13667930639031242 0.11997572818535078 0.12982116574264438 0.12013786624910984 0.1306363435762561 C 0.11997572818535078 0.12982116574264438 0.11981770415278664 0.12718071506500667 0.11984233200634996 0.1274465326427951" fill="none" stroke="none" stroke-width="0"/>
<path d="M 0.11984233200634996 0.1274465326427951 C 0.11966812153022259 0.12757309190236693 0.11746269978408282 0.1289253000330576 0.1177518062928216 0.12896524375765708 C 0.11746269978408282 0.1289253000330576 0.11625815786887318 0.1268007049634302 0.1163730539014846 0.1269672079476015" fill="none" stroke="none" stroke-width="0"/>
<path d="M 0.1163730539014846 0.1269672079476015 C 0.11651851234102442 0.12699679733340855 0.11865919625401766 0.12698126383939773 0.1181185551759625 0.12732228057728606 C 0.11865919625401766 0.12698126383939773 0.12325592947666204 0.12250440096924628 0.1228607468381467 0.12287500709294165" fill="none" stroke="none" stroke-width="0"/>
<path d="M 0.1228607468381467 0.12287500709294165 C 0.12274625335010858 0.12319652048326678 0.12138766987487683 0.12738921615931537 0.12148682498168938 0.12673316777684326 C 0.12138766987487683 0.12738921615931537 0.12168622393762166 0.1310821226747537 0.1216708855563961 0.13074758768260675" fill="none" stroke="none" stroke-width="0"/>
<path d="M 0.1216708855563961 0.13074758768260675 C 0.1218068525304155 0.13033098103233307 0.1238803292871769 0.12485685097671817 0.12330248924462879 0.12574830787932267 C 0.1238803292871769 0.12485685097671817 0.12904683913550213 0.11957525459902185 0.12860496606697341 0.12005010485135269" fill="none" stroke="none" stroke-width="0"/>
</g><g transform="translate(0.32801649240252173,0.07145654151837846) rotate(0) scale(1,1) translate(-0.17937141817669924,-0.1476763379794267)"><path d="M 0.1801930721507112 0.14678120074001888 C 0.1798496334188897 0.14749719928388752 0.17542796819878517 0.15693050887202112 0.1760718073688534 0.15537318326644256 C 0.17542796819878517 0.15693050887202112 0.1721666016716459 0.16631043506867157 0.17246700210989263 0.16546910800696166" fill="none" stroke="none" stroke-width="0"/>
<path d="M 0.17246700210989263 0.16546910800696166 C 0.1722190280135635 0.16654894813896717 0.16907366218850697 0.18068272344793673 0.16949131295394312 0.1784271895910278 C 0.16907366218850697 0.18068272344793673 0.1672855162555518 0.19371120801477218 0.16745519292465882 0.19253551428986876" fill="none" stroke="none" stroke-width="0"/>
<path d="M 0.16745519292465882 0.19253551428986876 C 0.16750435853967138 0.19392537758521872 0.16830561480442738 0.21147873244795257 0.16804518030480964 0.20921387383406828 C 0.16830561480442738 0.21147873244795257 0.17079167580467697 0.22058881297501443 0.1705804069200718 0.2197138176564801" fill="none" stroke="#000000" stroke-width="0.001"/>
<path d="M 0.1705804069200718 0.2197138176564801 C 0.16991981346406385 0.2181347610538641 0.16189397534806038 0.19751844903483307 0.1626532854479764 0.20076513842508806 C 0.16189397534806038 0.19751844903483307 0.16136996907717177 0.17908591218578113 0.1614686857210798 0.1807535449734201" fill="none" stroke="#000000" stroke-width="0.001"/>
<path d="M 0.1614686857210798 0.1807535449734201 C 0.16176778165805217 0.17982016589144567 0.1655863728513538 0.16764087553492432 0.16505783696474824 0.16955299598972673 C 0.1655863728513538 0.16764087553492432 0.16804055630997974 0.15682935814296337 0.16781111636034654 0.1578080995157913" fill="none" stroke="#000000" stroke-width="0.001"/>
<path d="M 0.16781111636034654 0.1578080995157913 C 0.168299378552425 0.15713713246091562 0.17470209231448502 0.14883758662596863 0.17367026266528796 0.149756494857283 C 0.17470209231448502 0.14883758662596863 0.18073663960782982 0.1465332595635802 0.1801930721507112 0.14678120074001888" fill="none" stroke="#000000" stroke-width="0.001"/>
</g><g transform="translate(0.33054867708776625,0.07173069344093944) rotate(0) scale(1,1) translate(-0.17175389447439587,-0.1626537797756489)"><path d="M 0.1719687040507564 0.16237006733059525 C 0.1718161425755952 0.16262862681366155 0.16969932325906964 0.16624157452967808 0.17013796634882197 0.16547278112739094 C 0.16969932325906964 0.16624157452967808 0.16641890535913725 0.17210582207726166 0.16670498697372838 0.17159558815804082" fill="none" stroke="#000000" stroke-width="0.001"/>
<path d="M 0.16670498697372838 0.17159558815804082 C 0.16633927783967278 0.17264953993567203 0.16156534291330754 0.18694753780932072 0.16231647736506127 0.1842430094896152 C 0.16156534291330754 0.18694753780932072 0.15730594823498548 0.20570050453658126 0.15769137355268362 0.20404992799450694" fill="none" stroke="#000000" stroke-width="0.001"/>
<path d="M 0.15769137355268362 0.20404992799450694 C 0.15782038865358614 0.20548293831246567 0.15977581085660653 0.22424796641937952 0.15923955476351395 0.22124605181001178 C 0.15977581085660653 0.22424796641937952 0.1645336876619844 0.2416418075983288 0.16412644666979437 0.2400729033069198" fill="none" stroke="#000000" stroke-width="0.001"/>
<path d="M 0.16412644666979437 0.2400729033069198 C 0.1634098028575302 0.2384157142590063 0.15469073192452698 0.2165889700654309 0.1555267209226245 0.2201866347319577 C 0.15469073192452698 0.2165889700654309 0.1539752335067908 0.19496045168998483 0.15409457869262416 0.19690092730859812" fill="none" stroke="#000000" stroke-width="0.001"/>
<path d="M 0.15409457869262416 0.19690092730859812 C 0.15441981771716007 0.1953877141492763 0.15887454765668846 0.17618341409465083 0.15799744698705498 0.17874236939673635 C 0.15887454765668846 0.17618341409465083 0.16517164837332352 0.16514772154080812 0.16461978672822594 0.16619346368357182" fill="none" stroke="none" stroke-width="0"/>
<path d="M 0.16461978672822594 0.16619346368357182 C 0.16498453725675444 0.1658234092077211 0.1696092028474453 0.16143419361061515 0.16899679307056775 0.1617528099733632 C 0.1696092028474453 0.16143419361061515 0.17221636329910545 0.16242150544369793 0.1719687040507564 0.16237006733059525" fill="none" stroke="#000000" stroke-width="0.001"/>
</g><g transform="translate(0.3415524871779959,0.08767004086829941) rotate(0) scale(1,1) translate(-0.1746342267458757,-0.17286777966550146)"><path d="M 0.17368178694248348 0.15511194585830043 C 0.1738712939852237 0.15518617872919907 0.17642824340202443 0.15639893007053937 0.1759558714553661 0.15600274030908423 C 0.17642824340202443 0.15639893007053937 0.17963311520630154 0.16018817988631873 0.17935025030238344 0.15986622299576222" fill="none" stroke="#000000" stroke-width="0.001"/>
<path d="M 0.17935025030238344 0.15986622299576222 C 0.17961743203677102 0.1607411109101525 0.18273873732428414 0.17224489297011392 0.1825564311150345 0.17036487796844565 C 0.18273873732428414 0.17224489297011392 0.18145304928824113 0.18343153010305935 0.18153792481337908 0.18242640301578136" fill="none" stroke="none" stroke-width="0"/>
<path d="M 0.18153792481337908 0.18242640301578136 C 0.18124881972688633 0.18307466054926652 0.17773865800561506 0.19164727296529452 0.1780686637754663 0.19020549341760332 C 0.17773865800561506 0.19164727296529452 0.17753695489180576 0.20052127960228183 0.17757785557516426 0.1997277575880758" fill="none" stroke="#000000" stroke-width="0.001"/>
<path d="M 0.17757785557516426 0.1997277575880758 C 0.17726814733750978 0.19891650296416485 0.1734786314353599 0.18880139861003237 0.17386135672331046 0.18999270210114447 C 0.1734786314353599 0.18880139861003237 0.17291213506946143 0.18505206682752928 0.1729851521197575 0.18543211569473045" fill="none" stroke="#000000" stroke-width="0.001"/>
<path d="M 0.1729851521197575 0.18543211569473045 C 0.17306701434558888 0.18436551382070676 0.17400277393249802 0.17039759250726955 0.17396749882973384 0.17263289320644612 C 0.17400277393249802 0.17039759250726955 0.17336186622986052 0.1574398084794587 0.1734084533529277 0.1586085073046116" fill="none" stroke="none" stroke-width="0"/>
<path d="M 0.1734084533529277 0.1586085073046116 C 0.1733765402894007 0.1584430504675639 0.17304827438973305 0.15633164513951325 0.1730254965906034 0.15662302526003918 C 0.17304827438973305 0.15633164513951325 0.17373647780514015 0.1549860225748222 0.17368178694248348 0.15511194585830043" fill="none" stroke="#000000" stroke-width="0.001"/>
</g><g transform="translate(0.35125352994454007,0.08768232950410915) rotate(0) scale(1,1) translate(-0.1735889769813819,-0.17324546383976883)"><path d="M 0.16864136108860386 0.15663025954268958 C 0.16891675393917427 0.15679372054626595 0.17249605947008878 0.15910659003050673 0.17194607529544875 0.1585917915856058 C 0.17249605947008878 0.15910659003050673 0.17551576250835396 0.16315917832282525 0.17524117118428434 0.1628078408815007" fill="none" stroke="#000000" stroke-width="0.001"/>
<path d="M 0.17524117118428434 0.1628078408815007 C 0.1756599904565042 0.16340436658151972 0.18063458875457097 0.1715233945199194 0.18026700245092275 0.16996614928172912 C 0.18063458875457097 0.1715233945199194 0.1796009738594912 0.1824555032779555 0.17965220682806285 0.18149478373978425" fill="none" stroke="none" stroke-width="0"/>
<path d="M 0.17965220682806285 0.18149478373978425 C 0.1796691305845961 0.18203621642020454 0.17972125388470667 0.18922155584815517 0.17985529190646207 0.18799197590482764 C 0.17972125388470667 0.18922155584815517 0.17789278878870926 0.196937890322622 0.17804375056699795 0.19624974305971474" fill="none" stroke="#000000" stroke-width="0.001"/>
<path d="M 0.17804375056699795 0.19624974305971474 C 0.17782830513741796 0.19568087153350827 0.17500989950531598 0.18815909533251196 0.175458405412038 0.18942328474523715 C 0.17500989950531598 0.18815909533251196 0.17242861920919178 0.18038415222049398 0.1726616796863338 0.18107947010701267" fill="none" stroke="#000000" stroke-width="0.001"/>
<path d="M 0.1726616796863338 0.18107947010701267 C 0.17273488034208806 0.18031667815460725 0.17330402281699198 0.17051300774687772 0.17354008755538472 0.17192596667814775 C 0.17330402281699198 0.17051300774687772 0.16951963743147375 0.16347379595290792 0.16982890282562074 0.16412396293177253" fill="none" stroke="none" stroke-width="0"/>
<path d="M 0.16982890282562074 0.16412396293177253 C 0.16970656244853913 0.16370513215796398 0.16826185648922334 0.1584735183636464 0.16836081830064142 0.15909799364606997 C 0.16826185648922334 0.1584735183636464 0.1686647396542674 0.15642461503407454 0.16864136108860386 0.15663025954268958" fill="none" stroke="#000000" stroke-width="0.001"/>
</g><g transform="translate(0.36227602679606796,0.09034205385627028) rotate(0) scale(1,1) translate(-0.17199583769089846,-0.15739337258770392)"><path d="M 0.16293468164794567 0.14135419197573382 C 0.16349526879893628 0.14203967821921987 0.1706740503038883 0.1509348920959909 0.16966172745983285 0.14958002689756653 C 0.1706740503038883 0.1509348920959909 0.17553429146967592 0.15828195331176445 0.17508255577661105 0.15761257435682616" fill="none" stroke="#000000" stroke-width="0.001"/>
<path d="M 0.17508255577661105 0.15761257435682616 C 0.1752782819163795 0.1589675217928523 0.17734776807842456 0.1767653950372284 0.17743126945383234 0.17387194358913993 C 0.17734776807842456 0.1767653950372284 0.17380131175654168 0.19387249574595006 0.17408053927171788 0.19233399173388774" fill="none" stroke="#000000" stroke-width="0.001"/>
<path d="M 0.17408053927171788 0.19233399173388774 C 0.17399037922076108 0.1936682813334558 0.17265800559140737 0.21107759824902503 0.1729986186602364 0.20834546692870448 C 0.17265800559140737 0.21107759824902503 0.16974272942789764 0.22651740929848663 0.16999318244576986 0.22511956757773416" fill="none" stroke="#000000" stroke-width="0.001"/>
<path d="M 0.16999318244576986 0.22511956757773416 C 0.1699833491903572 0.22369727768787254 0.16963224530291326 0.20541944758353872 0.1698751833808182 0.2080520888993947 C 0.16963224530291326 0.20541944758353872 0.16684482068841847 0.19231752036146815 0.16707792551091075 0.1935278717874625" fill="none" stroke="#000000" stroke-width="0.001"/>
<path d="M 0.16707792551091075 0.1935278717874625 C 0.1673583449506434 0.19221799048399574 0.17062976097410798 0.17541387358075441 0.17044295878770244 0.1778092961458615 C 0.17062976097410798 0.17541387358075441 0.16922593449445011 0.1636972597445371 0.1693195517477772 0.16478280100617745" fill="none" stroke="#000000" stroke-width="0.001"/>
<path d="M 0.1693195517477772 0.16478280100617745 C 0.16901952635242656 0.16391375414815562 0.16518717449524997 0.15240185462404526 0.16571924700356927 0.15435423870991558 C 0.16518717449524997 0.15240185462404526 0.16270263453497702 0.14027085474788534 0.16293468164794567 0.14135419197573382" fill="none" stroke="#000000" stroke-width="0.001"/>
</g><g id="編み右">
<g id="編節1">
<g transform="translate(0.36227602679606796,0.09034205385627028) rotate(0) scale(1,1) translate(-0.18027204884513678,-0.12848593137462816)"><path d="M 0.181480156496471 0.1268095361893168 C 0.18162126906784778 0.12683946252996864 0.1834324189813722 0.12729957649987458 0.18317350735299237 0.12716865227713875 C 0.1834324189813722 0.12729957649987458 0.18470489509403185 0.12848162474423078 0.1845870960370288 0.12838062686214677" fill="none" stroke="#000000" stroke-width="0.001"/>
<path d="M 0.1845870960370288 0.12838062686214677 C 0.18463564503624252 0.1285854618031812 0.1852171768169897 0.13126293953472531 0.18516968402759337 0.13083864615456 C 0.1852171768169897 0.13126293953472531 0.18515595329996737 0.13369160586326143 0.18515700950978475 0.13347214742413055" fill="none" stroke="#000000" stroke-width="0.001"/>
<path d="M 0.18515700950978475 0.13347214742413055 C 0.18518598124601643 0.1335593021330238 0.18553057250348554 0.13470264946997912 0.1855046703445647 0.13451800393084964 C 0.18553057250348554 0.13470264946997912 0.1854304774394325 0.13586708908626832 0.18546783541683504 0.13568789389368419 C 0.1854304774394325 0.13586708908626832 0.18496576654188415 0.13679407588075773 0.1850563746157342 0.1366683462418594 C 0.18496576654188415 0.13679407588075773 0.1842609587205525 0.13723522449046946 0.18438053853063424 0.13719664956046437 C 0.1842609587205525 0.13723522449046946 0.18350490666198258 0.1370723295016892 0.1836214168947535 0.13713124540192034 C 0.18350490666198258 0.1370723295016892 0.1829291656409357 0.13643619320400507 0.18298241573738322 0.13648965875769087" fill="none" stroke="#000000" stroke-width="0.001"/>
<path d="M 0.18298241573738322 0.13648965875769087 C 0.18284062253614558 0.13646842111838087 0.1810119181303907 0.13611785282311262 0.18128089732253164 0.13623480708597085 C 0.1810119181303907 0.13611785282311262 0.1796274794407887 0.13499049097984378 0.179754665431692 0.13508620760339202" fill="none" stroke="#000000" stroke-width="0.001"/>
<path d="M 0.179754665431692 0.13508620760339202 C 0.17970172921267755 0.1348952047046279 0.1790618704503612 0.13238384939793488 0.17911943080351866 0.1327941728182226 C 0.1790618704503612 0.13238384939793488 0.17905931705965958 0.12994300603841588 0.1790639411938026 0.13016232655993948" fill="none" stroke="#000000" stroke-width="0.001"/>
</g><g transform="translate(0.3641748586852916,0.09358953971441153) rotate(0) scale(1,1) translate(-0.10433725337565573,-0.10418740031181734)"><path d="M 0.10731743919334794 0.1059275589546976 C 0.10712422016822558 0.105767028816356 0.1056783933262467 0.10472020546285928 0.10615812504261381 0.10496437812464798 C 0.1056783933262467 0.10472020546285928 0.10416377803006954 0.10392123123095155 0.10443904889514537 0.10446252298396536 C 0.10416377803006954 0.10392123123095155 0.10437515242896639 0.10084968350298185 0.10450649985215883 0.10171662760656518 C 0.10437515242896639 0.10084968350298185 0.1036509643559907 0.09926085836246534 0.1036509643559907 0.09926085836246534 C 0.1036509643559907 0.09926085836246534 0.10463784727535128 0.10258357171014851 0.10450649985215883 0.10171662760656518 C 0.10463784727535128 0.10258357171014851 0.10408136914356875 0.10482239919884961 0.10443904889514537 0.10446252298396536 C 0.10408136914356875 0.10482239919884961 0.10182588390080263 0.10356667781334883 0.10236042134269911 0.10387588489587068 C 0.10182588390080263 0.10356667781334883 0.10104372472727777 0.10239584642099481 0.10123182424376653 0.10260728048883422" fill="none" stroke="#000000" stroke-width="0.001"/>
</g></g>
<g id="編節2">
<g transform="translate(0.3660736905745152,0.09683702557255278) rotate(0) scale(1,1) translate(-0.13796833536796266,-0.11460177227368223)"><path d="M 0.13938203154071185 0.1139837260127789 C 0.13948922784673173 0.11409398699759947 0.14084556209038804 0.11557060295139274 0.14066838721295036 0.11530685783062576 C 0.14084556209038804 0.11557060295139274 0.14157810864138198 0.11730215159792906 0.14150813006996416 0.11714866746198266" fill="none" stroke="#000000" stroke-width="0.001"/>
<path d="M 0.14150813006996416 0.11714866746198266 C 0.14149508665047944 0.11734383796343544 0.14128138708335422 0.1198626166958411 0.14135160903614763 0.11949071347941605 C 0.14128138708335422 0.1198626166958411 0.14060828810313453 0.12178823877405562 0.14066546663644322 0.12161150605908334" fill="none" stroke="#000000" stroke-width="0.001"/>
<path d="M 0.14066546663644322 0.12161150605908334 C 0.14066668564686075 0.1216996203329308 0.14065379624334434 0.12283391611916566 0.14068009476145357 0.12266887734525278 C 0.14065379624334434 0.12283391611916566 0.14027348612268123 0.12371401871471617 0.14034988441913257 0.12359197134603803 C 0.14027348612268123 0.12371401871471617 0.13965728799108137 0.12417979923895829 0.13976331520403756 0.12413344576939055 C 0.13965728799108137 0.12417979923895829 0.13897031164028462 0.12410645217657133 0.13907755786365833 0.12414821298085103 C 0.13897031164028462 0.12410645217657133 0.1383966318287061 0.12351363081368895 0.13847636052355305 0.12363231611803409 C 0.1383966318287061 0.12351363081368895 0.13809118460898995 0.12264829542959889 0.1381208135254948 0.12272398932870929" fill="none" stroke="#000000" stroke-width="0.001"/>
<path d="M 0.1381208135254948 0.12272398932870929 C 0.1380108333908943 0.12262033581680082 0.13661209623141146 0.1212215524505482 0.13680105191028874 0.12148014718580766 C 0.13661209623141146 0.1212215524505482 0.13577436983469074 0.11946591128224492 0.1358533453789675 0.1196208525055959" fill="none" stroke="#000000" stroke-width="0.001"/>
<path d="M 0.1358533453789675 0.1196208525055959 C 0.13585926761466474 0.11943418570215611 0.1359828533586881 0.11701409803340093 0.13592441220733426 0.11738085086431846 C 0.1359828533586881 0.11701409803340093 0.1366071581108701 0.11503973250710782 0.1365546391952135 0.11521981853458556" fill="none" stroke="#000000" stroke-width="0.001"/>
</g><g transform="translate(0.36678609293101844,0.10062001328265978) rotate(0) scale(1,1) translate(-0.10433725337565573,-0.10418740031181734)"><path d="M 0.10631677769843774 0.10741167596277373 C 0.10620067915083974 0.1071640717830798 0.10529230995586095 0.10543608139602278 0.10562018641284975 0.10592605088461013 C 0.10529230995586095 0.10543608139602278 0.10426433733764195 0.1038664564723821 0.10434951895650496 0.10447185903124966 C 0.10426433733764195 0.1038664564723821 0.1052246503149339 0.1015128125219442 0.10510909669967167 0.10229363553140484 C 0.1052246503149339 0.1015128125219442 0.10504284064807835 0.0997869209744858 0.10504284064807835 0.0997869209744858 C 0.10504284064807835 0.0997869209744858 0.10499354308440943 0.10307445854086549 0.10510909669967167 0.10229363553140484 C 0.10499354308440943 0.10307445854086549 0.10396598738695349 0.1045445580107675 0.10434951895650496 0.10447185903124966 C 0.10396598738695349 0.1045445580107675 0.1024521043804268 0.1021538666290646 0.10280790728236285 0.10272982940851184 C 0.1024521043804268 0.1021538666290646 0.10211583392197635 0.10073045784557523 0.10221470154488871 0.10101608235456618" fill="none" stroke="#000000" stroke-width="0.001"/>
</g></g>
<g id="編節3">
<g transform="translate(0.36749849528752154,0.10440300099276685) rotate(0) scale(1,1) translate(-0.13796833536796266,-0.11460177227368223)"><path d="M 0.13928487422229546 0.11489395105086785 C 0.13934729072842156 0.11504522745717428 0.1401176279065825 0.11702627718394407 0.14003387229580858 0.11670926792654518 C 0.1401176279065825 0.11702627718394407 0.1403112806562304 0.1188637949907469 0.1402899415515826 0.11869806213965446" fill="none" stroke="#000000" stroke-width="0.001"/>
<path d="M 0.1402899415515826 0.11869806213965446 C 0.14023268091659355 0.11885106593795744 0.13945617524297982 0.12079998569068157 0.13960281393171411 0.12053410771929016 C 0.13945617524297982 0.12079998569068157 0.1384408992330256 0.12200147196943976 0.13853027728677086 0.12188859779635133" fill="none" stroke="#000000" stroke-width="0.001"/>
<path d="M 0.13853027728677086 0.12188859779635133 C 0.1385103050233339 0.12196169752127957 0.13822955973630044 0.12288653525303074 0.13829061012552712 0.12276579449549016 C 0.13822955973630044 0.12288653525303074 0.13770541735275027 0.12339454488353205 0.1377976726160505 0.12333748688683831 C 0.13770541735275027 0.12339454488353205 0.1370848065518494 0.12342857704752619 0.13718354696592436 0.1234504904558151 C 0.1370848065518494 0.12342857704752619 0.13653401949651306 0.12297951285415416 0.13661278764715104 0.12307452598737131 C 0.13653401949651306 0.12297951285415416 0.13620063913342023 0.12216767869137979 0.1362383291582685 0.12231033285720928 C 0.13620063913342023 0.12216767869137979 0.13615402219819714 0.12128370459243468 0.13616050734897187 0.12136267599741733" fill="none" stroke="#000000" stroke-width="0.001"/>
<path d="M 0.13616050734897187 0.12136267599741733 C 0.13609421483828954 0.12121525393764211 0.1352702704528907 0.11927416719957251 0.13536499722078407 0.11959361128011461 C 0.1352702704528907 0.11927416719957251 0.13499535187704034 0.1173573250101452 0.1350237861342514 0.11752934703091208" fill="none" stroke="#000000" stroke-width="0.001"/>
<path d="M 0.1350237861342514 0.11752934703091208 C 0.13507313149743222 0.11737930114667841 0.13575159802403605 0.11546048362557343 0.13561593049242118 0.11572879642010804 C 0.13575159802403605 0.11546048362557343 0.13673811868206392 0.11419132658619573 0.13665179651362988 0.11430959349649668" fill="none" stroke="#000000" stroke-width="0.001"/>
</g><g transform="translate(0.3671870237624759,0.10791493330436783) rotate(0) scale(1,1) translate(-0.10433725337565573,-0.10418740031181734)"><path d="M 0.10520694992430243 0.10795731789538533 C 0.10516987202191212 0.10768813854728383 0.10482993546499615 0.10575403917702586 0.10498448250996056 0.10634224180677633 C 0.10482993546499615 0.10575403917702586 0.10435335774669056 0.10388239134266376 0.10427966765451595 0.10442810211688247 C 0.10435335774669056 0.10388239134266376 0.10570812564459227 0.10249171554404668 0.10542662306300829 0.10306797716146406 C 0.10570812564459227 0.10249171554404668 0.10596868314401979 0.10097053241237818 0.10596868314401979 0.10097053241237818 C 0.10596868314401979 0.10097053241237818 0.10514512048142431 0.10364423877888143 0.10542662306300829 0.10306797716146406 C 0.10514512048142431 0.10364423877888143 0.10394510879523618 0.10427078698686942 0.10427966765451595 0.10442810211688247 C 0.10394510879523618 0.10427078698686942 0.10326209831250575 0.1014494120982419 0.10341926990732969 0.10212408638138577 C 0.10326209831250575 0.1014494120982419 0.1033228661152794 0.1000893847574582 0.1033366380855723 0.10038005641801928" fill="none" stroke="#000000" stroke-width="0.001"/>
</g></g>
<g id="編節4">
</g>
<g id="編節5">
</g>
<g id="編節6">
</g>
<g id="編節7">
</g>
</g>
<g transform="translate(0.36227602679606796,0.09034205385627028) rotate(0) scale(1,1) translate(-0.17086573660060742,-0.1716896655664302)"><path d="M 0.1645747108565298 0.15908741129064596 C 0.1648457989031718 0.15931847218341263 0.16841924773675945 0.16229415057879457 0.16782776741623365 0.16186014200384616 C 0.16841924773675945 0.16229415057879457 0.1719928669767234 0.16449846187220846 0.17167247470283956 0.16429551419002675" fill="none" stroke="#000000" stroke-width="0.001"/>
<path d="M 0.17167247470283956 0.16429551419002675 C 0.171960863040513 0.1651591740635634 0.17555142876313154 0.1762563896563975 0.17513313475492104 0.17465943267246642 C 0.17555142876313154 0.1762563896563975 0.17682190847190268 0.18419229510759422 0.17669200280136563 0.18345899799719978" fill="none" stroke="#000000" stroke-width="0.001"/>
<path d="M 0.17669200280136563 0.18345899799719978 C 0.17677779537901644 0.18453762907765783 0.17805508890256477 0.19856915210191567 0.1777215137331753 0.1964025709626964 C 0.17805508890256477 0.19856915210191567 0.18094268742577807 0.21054592172659242 0.18069490483403938 0.2094579716678312" fill="none" stroke="#000000" stroke-width="0.001"/>
<path d="M 0.18069490483403938 0.2094579716678312 C 0.18018811187422987 0.20845263216633234 0.173730780244645 0.19502521085923977 0.17461338931632514 0.19739389764984497 C 0.173730780244645 0.19502521085923977 0.1697277798620072 0.17967038289146237 0.1701035959738778 0.18103373018056873" fill="none" stroke="#000000" stroke-width="0.001"/>
<path d="M 0.1701035959738778 0.18103373018056873 C 0.16989075083635705 0.18042764779197176 0.167148147332309 0.17250249408589674 0.16754945432362878 0.17376074151740498 C 0.167148147332309 0.17250249408589674 0.16509945022424174 0.16528259595955858 0.16528791207804075 0.16593476100246984" fill="none" stroke="none" stroke-width="0"/>
<path d="M 0.16528791207804075 0.16593476100246984 C 0.16521850763112242 0.16560365137597335 0.16439562527989482 0.16139083300852672 0.16445505871502072 0.16196144548451205 C 0.16439562527989482 0.16139083300852672 0.16458468186832223 0.15884790844115712 0.1645747108565298 0.15908741129064596" fill="none" stroke="none" stroke-width="0"/>
</g><g transform="translate(0.3468176454441953,0.08649293934779043) rotate(0) scale(1,1) translate(-0.1733257244965802,-0.17311386908515122)"><path d="M 0.17091648317429867 0.157143011943484 C 0.17121417786349555 0.15740110964295398 0.1749927067127393 0.1607827939322954 0.1744888194446612 0.16024018433712364 C 0.1749927067127393 0.1607827939322954 0.1771693229701176 0.16393883898124684 0.17696313039123632 0.16365432708554506" fill="none" stroke="#000000" stroke-width="0.001"/>
<path d="M 0.17696313039123632 0.16365432708554506 C 0.17715986203373021 0.16436978699097873 0.17942787002659036 0.17406911620523333 0.17932391010116297 0.17223984595074926 C 0.17942787002659036 0.17406911620523333 0.1781178777792984 0.1867193804884043 0.17821064949636492 0.18560557013935391" fill="none" stroke="#000000" stroke-width="0.001"/>
<path d="M 0.17821064949636492 0.18560557013935391 C 0.1781258947302909 0.1861925071047946 0.17690022664764155 0.19393492836754386 0.17719359230347667 0.19264881372464202 C 0.17690022664764155 0.19393492836754386 0.17448165073658228 0.20173812353163723 0.17469026162634338 0.20103894585417606" fill="none" stroke="#000000" stroke-width="0.001"/>
<path d="M 0.17469026162634338 0.20103894585417606 C 0.1746905261828306 0.20047292476249698 0.17444131885071887 0.19287383600886604 0.17469343630419004 0.19424669275402723 C 0.17444131885071887 0.19287383600886604 0.17141247017473088 0.18375782925875972 0.17166485218468927 0.18456466491224183" fill="none" stroke="#000000" stroke-width="0.001"/>
<path d="M 0.17166485218468927 0.18456466491224183 C 0.17167675710296249 0.18346681244768934 0.17174765537675604 0.16972564151545938 0.1718077112039677 0.17139043533761208 C 0.17174765537675604 0.16972564151545938 0.1708722215126645 0.164020197688809 0.17094418225814936 0.16458713904640923" fill="none" stroke="#000000" stroke-width="0.001"/>
<path d="M 0.17094418225814936 0.16458713904640923 C 0.17090023959668627 0.16422901453433564 0.17041456206360459 0.15966930097628224 0.17041687032059213 0.160289644901526 C 0.17041456206360459 0.15966930097628224 0.17095811757877422 0.15688079253031384 0.17091648317429867 0.157143011943484" fill="none" stroke="#000000" stroke-width="0.001"/>
</g><g transform="translate(0.35555977473042444,0.08652943878711525) rotate(0) scale(1,1) translate(-0.16923840088096093,-0.16884701953825593)"><path d="M 0.16440686710389346 0.15486384556077773 C 0.16471382004795823 0.15517756330616517 0.16883196113163623 0.1592313551462289 0.16809030243267079 0.15862845850542703 C 0.16883196113163623 0.1592313551462289 0.17374147724637964 0.16238778414581456 0.17330677149147897 0.16209860525040012" fill="none" stroke="#000000" stroke-width="0.001"/>
<path d="M 0.17330677149147897 0.16209860525040012 C 0.17366806925708209 0.16292909198024103 0.17810269612806023 0.17398446469890183 0.17764234467871645 0.17206444600849077 C 0.17810269612806023 0.17398446469890183 0.17893004256734482 0.18622836149590294 0.17883098888360419 0.18513882953533278" fill="none" stroke="#000000" stroke-width="0.001"/>
<path d="M 0.17883098888360419 0.18513882953533278 C 0.17857184699299278 0.18635475798331483 0.17514155782099997 0.20266974933225868 0.17572128619626745 0.19972997091111747 C 0.17514155782099997 0.20266974933225868 0.17155366189573842 0.22214002056218626 0.1718742483803945 0.22041617058902713" fill="none" stroke="#000000" stroke-width="0.001"/>
<path d="M 0.1718742483803945 0.22041617058902713 C 0.1719348385824095 0.21872160387792416 0.1726231084142573 0.19751078582922724 0.1726013308045745 0.2000813700557915 C 0.1726231084142573 0.19751078582922724 0.172096767104256 0.18869314235479484 0.1721355796965882 0.18956915987025613" fill="none" stroke="#000000" stroke-width="0.001"/>
<path d="M 0.1721355796965882 0.18956915987025613 C 0.17187267739156614 0.1883015019102706 0.16865672622166708 0.17220225209724377 0.16898075203632376 0.1743572643504297 C 0.16865672622166708 0.17220225209724377 0.16818614641107343 0.16282165853882452 0.16824726992070807 0.1637090128320249" fill="none" stroke="#000000" stroke-width="0.001"/>
<path d="M 0.16824726992070807 0.1637090128320249 C 0.16808785560310335 0.16343138541138158 0.16601426454138368 0.1596403865117012 0.16633429810945158 0.16037748378430514 C 0.16601426454138368 0.1596403865117012 0.16424624785343028 0.1544043757088171 0.16440686710389346 0.15486384556077773" fill="none" stroke="#000000" stroke-width="0.001"/>
</g><g transform="translate(0.36227602679606796,0.09034205385627028) rotate(0) scale(1,1) translate(-0.11911739335740366,-0.12684064787770738)"><path d="M 0.10962982064783398 0.12005010485135269 C 0.11007169371636269 0.12052495510368352 0.11551013751272658 0.12663976478192718 0.11493229747017847 0.12574830787932267 C 0.11551013751272658 0.12663976478192718 0.1166998681324308 0.13116419433288043 0.11656390115841139 0.13074758768260675" fill="none" stroke="none" stroke-width="0"/>
<path d="M 0.11656390115841139 0.13074758768260675 C 0.11657923953963693 0.1304130526904598 0.11664880662630533 0.12607711939437116 0.1167479617331179 0.12673316777684326 C 0.11664880662630533 0.12607711939437116 0.11525954638862257 0.12255349370261652 0.11537403987666067 0.12287500709294165" fill="none" stroke="none" stroke-width="0"/>
<path d="M 0.11537403987666067 0.12287500709294165 C 0.11576922251517602 0.12324561321663702 0.12065687261690003 0.1276632973151744 0.12011623153884486 0.12732228057728606 C 0.12065687261690003 0.1276632973151744 0.12200719125286244 0.12693761856179445 0.12186173281332263 0.1269672079476015" fill="none" stroke="none" stroke-width="0"/>
<path d="M 0.12186173281332263 0.1269672079476015 C 0.12174683678071123 0.12713371093177278 0.120193873913247 0.12900518748225656 0.12048298042198577 0.12896524375765708 C 0.120193873913247 0.12900518748225656 0.11821824423233004 0.12731997338322326 0.11839245470845741 0.1274465326427951" fill="none" stroke="none" stroke-width="0"/>
<path d="M 0.11839245470845741 0.1274465326427951 C 0.11836782685489408 0.12771235022058353 0.11793478240193847 0.1314515214098678 0.11809692046569752 0.1306363435762561 C 0.11793478240193847 0.1314515214098678 0.11630928773315305 0.13777802690195903 0.11644679794334878 0.13722866664613573" fill="none" stroke="none" stroke-width="0"/>
<path d="M 0.11644679794334878 0.13722866664613573 C 0.11631441719642512 0.1365931807637626 0.1145888822392277 0.1286268286164183 0.11485822898026489 0.12960283605765802 C 0.1145888822392277 0.1286268286164183 0.1130776710567889 0.12517605579239272 0.11321463705090244 0.1255165773512593" fill="none" stroke="none" stroke-width="0"/>
<path d="M 0.11321463705090244 0.1255165773512593 C 0.1132239496130781 0.1259373136607972 0.11314225153264229 0.13149248403877647 0.1133263877970105 0.13056541306571412 C 0.11314225153264229 0.13149248403877647 0.11081155305193996 0.13714776369153192 0.11100500187848385 0.13664142902800747" fill="none" stroke="none" stroke-width="0"/>
<path d="M 0.11100500187848385 0.13664142902800747 C 0.110817597786308 0.13595014146522597 0.10837164838423423 0.12728990693707617 0.10875615277237362 0.12834597827462946 C 0.10837164838423423 0.12728990693707617 0.10619384892484765 0.12360378920259635 0.10639094922081119 0.12396857297736813" fill="none" stroke="none" stroke-width="0"/>
<path d="M 0.10639094922081119 0.12396857297736813 C 0.106315242934068 0.12425503654240865 0.10525727374618868 0.12806522541330742 0.10548247377989292 0.12740613575785426 C 0.10525727374618868 0.12806522541330742 0.1035390550693992 0.13225027493321867 0.10368854881636025 0.13187764884280603" fill="none" stroke="none" stroke-width="0"/>
<path d="M 0.10368854881636025 0.13187764884280603 C 0.10375514815080743 0.13118628614540712 0.10452914364450003 0.12243844367441277 0.10448774082972637 0.12358129647401891 C 0.10452914364450003 0.12243844367441277 0.10416018607397065 0.1177119251453251 0.10418538259364417 0.11816341524753231" fill="none" stroke="none" stroke-width="0"/>
<path d="M 0.10418538259364417 0.11816341524753231 C 0.10464371432977843 0.11877022051862726 0.11029506389974904 0.12659832418174546 0.1096853634272552 0.1254450785006717 C 0.11029506389974904 0.12659832418174546 0.1116531569999299 0.1325488038303964 0.11150178826357031 0.13200236342041757" fill="none" stroke="none" stroke-width="0"/>
<path d="M 0.11150178826357031 0.13200236342041757 C 0.11150277096356229 0.1314612252186369 0.11135758336216274 0.12451268345162729 0.1115135806634741 0.12550870499904937 C 0.11135758336216274 0.12451268345162729 0.10947284064653064 0.1195952215057113 0.10962982064783398 0.12005010485135269" fill="none" stroke="none" stroke-width="0"/>
</g><g transform="translate(0.3373434528286707,0.07439478626293816) rotate(0) scale(1,1) translate(-0.17197072520625506,-0.15955296299577326)"><path d="M 0.17211812604264365 0.15489930315137812 C 0.17224188717505326 0.15494651472454754 0.17387751095570636 0.1557779173781635 0.17360325963155895 0.1554658420294111 C 0.17387751095570636 0.1557779173781635 0.17555963212415024 0.1589090711119896 0.17540914193241244 0.15864420733640663" fill="none" stroke="#000000" stroke-width="0.001"/>
<path d="M 0.17540914193241244 0.15864420733640663 C 0.17553107682368718 0.15981774536403207 0.1768420879451161 0.17476549742205025 0.17687236062770936 0.17272666366791195 C 0.1768420879451161 0.17476549742205025 0.17489366216742525 0.18397550811257918 0.17504586974129324 0.1831102123860663" fill="none" stroke="#000000" stroke-width="0.001"/>
<path d="M 0.17504586974129324 0.1831102123860663 C 0.17494110248966133 0.1839548976848651 0.1733531863242083 0.1951645572540279 0.1737886627217103 0.19324643597165164 C 0.1733531863242083 0.1951645572540279 0.1694894438253988 0.20720110375815892 0.1698201529712689 0.20612766777458144" fill="none" stroke="#000000" stroke-width="0.001"/>
<path d="M 0.1698201529712689 0.20612766777458144 C 0.16980609343724026 0.20511428207507848 0.16950722673070912 0.19204891809816968 0.1696514385629254 0.19396703938054594 C 0.16950722673070912 0.19204891809816968 0.16795945868648585 0.18220547680319302 0.1680896109846735 0.1831102123860663" fill="none" stroke="#000000" stroke-width="0.001"/>
<path d="M 0.1680896109846735 0.1831102123860663 C 0.16794437655668837 0.18208424747960195 0.16638512861001492 0.16873732983311515 0.16634679784885165 0.17079863350849386 C 0.16638512861001492 0.16873732983311515 0.16873314530778116 0.15733922951260754 0.16854958011863275 0.15837456828152188" fill="none" stroke="#000000" stroke-width="0.001"/>
<path d="M 0.16854958011863275 0.15837456828152188 C 0.16870815375300238 0.15811636450599909 0.17074984255806913 0.15498651754773618 0.17045246373106823 0.15527612297524815 C 0.17074984255806913 0.15498651754773618 0.17225693123527494 0.15486790149938895 0.17211812604264365 0.15489930315137812" fill="none" stroke="#000000" stroke-width="0.001"/>
</g><g transform="translate(0.34667046356704984,0.07145654151837846) rotate(0) scale(1,1) translate(-0.17937141817669924,-0.1476763379794267)"><path d="M 0.17854976420268728 0.14678120074001888 C 0.1790933316598059 0.14702914191645755 0.18610440333730754 0.1506754030885974 0.1850725736881105 0.149756494857283 C 0.18610440333730754 0.1506754030885974 0.1914199821851303 0.15847906657066696 0.19093171999305183 0.15780809951579128" fill="none" stroke="#000000" stroke-width="0.001"/>
<path d="M 0.19093171999305183 0.15780809951579128 C 0.19116115994268504 0.15878684088861922 0.19421353527525573 0.17146511644452914 0.19368499938865016 0.16955299598972673 C 0.19421353527525573 0.17146511644452914 0.19757324656929093 0.18168692405539455 0.19727415063231857 0.1807535449734201" fill="none" stroke="#000000" stroke-width="0.001"/>
<path d="M 0.19727415063231857 0.1807535449734201 C 0.19717543398841053 0.1824211777610591 0.19533024080550618 0.20401182781534305 0.19608955090542216 0.20076513842508806 C 0.19533024080550618 0.20401182781534305 0.1875018359773188 0.2212928742590961 0.18816242943332673 0.2197138176564801" fill="none" stroke="#000000" stroke-width="0.001"/>
<path d="M 0.18816242943332673 0.2197138176564801 C 0.1883736983179319 0.21883882233794577 0.1909580905482066 0.206949015220184 0.19069765604858885 0.20921387383406828 C 0.1909580905482066 0.206949015220184 0.19133680904375217 0.1911456509945188 0.1912876434287396 0.19253551428986876" fill="none" stroke="#000000" stroke-width="0.001"/>
<path d="M 0.1912876434287396 0.19253551428986876 C 0.19111796675963258 0.19135982056496534 0.1888338726340192 0.17617165573411886 0.18925152339945536 0.1784271895910278 C 0.1888338726340192 0.17617165573411886 0.18602786014717668 0.16438926787495614 0.1862758342435058 0.16546910800696166" fill="none" stroke="none" stroke-width="0"/>
<path d="M 0.1862758342435058 0.16546910800696166 C 0.18597543380525908 0.16462778094525174 0.18202718981447677 0.15381585766086397 0.182671028984545 0.15537318326644253 C 0.18202718981447677 0.15381585766086397 0.17820632547086582 0.14606520219615024 0.17854976420268728 0.14678120074001888" fill="none" stroke="none" stroke-width="0"/>
</g><g transform="translate(0.34413827888180526,0.07173069344093944) rotate(0) scale(1,1) translate(-0.17175389447439587,-0.1626537797756489)"><path d="M 0.17153908489803538 0.16237006733059525 C 0.17178674414638445 0.16231862921749257 0.17512340565510165 0.16207142633611124 0.1745109958782241 0.1617528099733632 C 0.17512340565510165 0.16207142633611124 0.17925275274909444 0.16656351815942255 0.17888800222056594 0.16619346368357182" fill="none" stroke="#000000" stroke-width="0.001"/>
<path d="M 0.17888800222056594 0.16619346368357182 C 0.17943986386566352 0.16723920582633553 0.18638744263137044 0.18130132469882188 0.18551034196173696 0.17874236939673635 C 0.18638744263137044 0.18130132469882188 0.1897384492807036 0.19841414046791994 0.1894132102561677 0.19690092730859812" fill="none" stroke="none" stroke-width="0"/>
<path d="M 0.1894132102561677 0.19690092730859812 C 0.18929386507033433 0.19884140292721142 0.1871450790280697 0.22378429939848452 0.18798106802616724 0.2201866347319577 C 0.1871450790280697 0.22378429939848452 0.17866469846673325 0.2417300923548333 0.1793813422789974 0.2400729033069198" fill="none" stroke="#000000" stroke-width="0.001"/>
<path d="M 0.1793813422789974 0.2400729033069198 C 0.17978858327118746 0.2385039990155108 0.1848044902783705 0.21824413720064403 0.18426823418527793 0.22124605181001178 C 0.1848044902783705 0.21824413720064403 0.1859454304970108 0.2026169176765482 0.18581641539610827 0.20404992799450694" fill="none" stroke="#000000" stroke-width="0.001"/>
<path d="M 0.18581641539610827 0.20404992799450694 C 0.18543099007841013 0.20239935145243262 0.1804401771319768 0.18153848116990967 0.18119131158373053 0.1842430094896152 C 0.1804401771319768 0.18153848116990967 0.17643709284100786 0.17054163638040962 0.17680280197506346 0.17159558815804082" fill="none" stroke="#000000" stroke-width="0.001"/>
<path d="M 0.17680280197506346 0.17159558815804082 C 0.1765167203604723 0.17108535423882 0.17293117951021744 0.1647039877251038 0.17336982259996978 0.16547278112739094 C 0.17293117951021744 0.1647039877251038 0.17138652342287417 0.16211150784752895 0.17153908489803538 0.16237006733059525" fill="none" stroke="#000000" stroke-width="0.001"/>
</g></svg>
