<?xml version="1.0" encoding="UTF-8"?>
<svg xmlns="http://www.w3.org/2000/svg" viewBox="0 0 1 1">
<g transform="translate(0.3373434528286709,0.2140233417315604) rotate(0) scale(1,1) translate(-0.49999999596755706,-0.5243570774287807)"><path d="M 0.4999999959675571 0.5288950160058731 C 0.5010253990543796 0.5293077202523272 0.5099638729963817 0.5320708656881413 0.5082032206621366 0.5321966499775059 C 0.5099638729963817 0.5320708656881413 0.5148204638889401 0.5273502531551377 0.5140852146415175 0.5278887416909565" fill="none" stroke="#000000" stroke-width="0.001"/>
<path d="M 0.5140852146415175 0.5278887416909565 C 0.5140885703778266 0.5274559452817025 0.5140129045438202 0.521939358094831 0.5141254834772268 0.5226951847799087 C 0.5140129045438202 0.521939358094831 0.5126183327709228 0.5184957911942003 0.5127342674406385 0.518818821470024" fill="none" stroke="#000000" stroke-width="0.001"/>
<path d="M 0.5127342674406385 0.518818821470024 C 0.5116730781512151 0.5185600759649464 0.49787761738871017 0.5157138754090926 0.49999999596755706 0.5157138754090926 C 0.49787761738871017 0.5157138754090926 0.4862045352050522 0.5190775669751017 0.48726572449447564 0.518818821470024" fill="none" stroke="#000000" stroke-width="0.001"/>
<path d="M 0.48726572449447564 0.518818821470024 C 0.4871497898247599 0.5191418517458477 0.48576192952448083 0.5234510114649864 0.4858745084578874 0.5226951847799087 C 0.48576192952448083 0.5234510114649864 0.48591813302990583 0.5283215381002104 0.4859147772935967 0.5278887416909565" fill="none" stroke="#000000" stroke-width="0.001"/>
<path d="M 0.4859147772935967 0.5278887416909565 C 0.4866500265410193 0.5284272302267752 0.49355742360722255 0.5323224342668705 0.4917967712729775 0.5321966499775059 C 0.49355742360722255 0.5323224342668705 0.5010253990543796 0.528482311759419 0.4999999959675571 0.5288950160058731" fill="none" stroke="#000000" stroke-width="0.001"/>
</g><g transform="translate(0.3373434528286709,0.21254100168026407) rotate(0) scale(1,1) translate(-0.011152769902399133,-0.011152769902399133)"><path d="M 0.010133122315786119 0.004036153542634903 C 0.010303063580221622 0.004028779594969531 0.011492652431270137 0.003991909856642669 0.011152769902399133 0.003991909856642669 C 0.011492652431270137 0.003991909856642669 0.012342358753447639 0.004043527490300273 0.012172417489012138 0.004036153542634901" fill="none" stroke="#000000" stroke-width="0.001"/>
<path d="M 0.012172417489012138 0.004036153542634901 C 0.012131996680953291 0.004077537201823058 0.011640777950030162 0.004655947407293281 0.011687367792305984 0.004532757452892784 C 0.011640777950030162 0.004655947407293281 0.011607170347485311 0.005596239290653204 0.011613339381702286 0.005514432995440864" fill="none" stroke="#000000" stroke-width="0.001"/>
<path d="M 0.011613339381702286 0.005514432995440864 C 0.011613339381702286 0.005984294404354053 0.011613339381702286 0.011977405567197544 0.011613339381702286 0.01115276990239913 C 0.011613339381702286 0.011977405567197544 0.011613339381702286 0.015764835228907065 0.011613339381702286 0.015410060973021838" fill="none" stroke="#000000" stroke-width="0.001"/>
<path d="M 0.011613339381702286 0.015410060973021838 C 0.011625426226556065 0.015506689147221987 0.011857913098423432 0.016779805715459752 0.01175838151994763 0.01656959906342363 C 0.011857913098423432 0.016779805715459752 0.012895163057033933 0.01804611927529129 0.01280771832341191 0.017932540797455314" fill="none" stroke="#000000" stroke-width="0.001"/>
<path d="M 0.01280771832341191 0.017932540797455314 C 0.012531893586576446 0.017805958781693047 0.010601120428728206 0.01717304870288172 0.011152769902399133 0.01717304870288172 C 0.010601120428728206 0.01717304870288172 0.009221996744550888 0.01805912281321758 0.009497821481386351 0.017932540797455314" fill="none" stroke="#000000" stroke-width="0.001"/>
<path d="M 0.009497821481386351 0.017932540797455314 C 0.009585266215008374 0.01781896231961934 0.01064668986332643 0.016359392411387508 0.010547158284850628 0.01656959906342363 C 0.01064668986332643 0.016359392411387508 0.010704287267949749 0.015313432798821703 0.01069220042309597 0.015410060973021852" fill="none" stroke="#000000" stroke-width="0.001"/>
<path d="M 0.01069220042309597 0.015410060973021852 C 0.01069220042309597 0.015055286717136625 0.01069220042309597 0.010328134237600721 0.01069220042309597 0.011152769902399136 C 0.01069220042309597 0.010328134237600721 0.01069220042309597 0.005044571586527684 0.01069220042309597 0.005514432995440873" fill="none" stroke="#000000" stroke-width="0.001"/>
<path d="M 0.01069220042309597 0.005514432995440873 C 0.010686031388878995 0.005432626700228533 0.010571582170216457 0.004409567498492294 0.010618172012492278 0.004532757452892791 C 0.010571582170216457 0.004409567498492294 0.010092701507727272 0.003994769883446746 0.010133122315786119 0.004036153542634903" fill="none" stroke="#000000" stroke-width="0.001"/>
</g></svg>
