<?xml version="1.0" encoding="UTF-8"?>
<svg xmlns="http://www.w3.org/2000/svg" viewBox="0 0 1 1">
<g id="布">
<g id="布左">
<g transform="translate(0.3373434528286707,0.16513021119802657) rotate(0) scale(1,1) translate(-0.027518731894252097,-0.027518731894252097)"><path d="M 0.0013949462108530165 0.04867691122545722 C 0.0015598079256913411 0.04829124605391715 0.003606238409126501 0.04326741030338739 0.0033732867889129116 0.04404892916697643 C 0.003606238409126501 0.04326741030338739 0.004258455558791352 0.03890283117033976 0.0041903656534160874 0.03929868486238874" fill="none" stroke="#000000" stroke-width="0.001"/>
<path d="M 0.013526825698149442 0.05191377674040483 C 0.013082354103472386 0.052050554016050916 0.0073289192101013015 0.05394145665704984 0.008193166562024774 0.05355510404815791 C 0.0073289192101013015 0.05394145665704984 0.0027360817178213592 0.05679958338035383 0.0031558574750677757 0.05655000804710799" fill="none" stroke="#000000" stroke-width="0.001"/>
<path d="M 0.0031558574750677757 0.05655000804710799 C 0.0030662536970261123 0.05621122147429886 0.001933869533216583 0.05182847777159422 0.002080612138567813 0.05248456917339845 C 0.001933869533216583 0.05182847777159422 0.0013378073835434501 0.04835960639646213 0.0013949462108530165 0.04867691122545723" fill="none" stroke="#000000" stroke-width="0.001"/>
</g><g id="皺">
<g transform="translate(0.3141470873498783,0.1853340399868551) rotate(0) scale(1,1) translate(-0.004939132902295487,-0.004939132902295487)"><path d="M 0.0022816154321253306 0.007509490206286206 C 0.0025252849514898253 0.007248764228577487 0.005707861725377934 0.003736398290669775 0.005205649664499265 0.004380778473781579 C 0.005707861725377934 0.003736398290669775 0.008566702704183526 -0.0006067261964585336 0.008308160162669352 -0.00022307199105544803" fill="none" stroke="none" stroke-width="0"/>
<path d="M 0.008583468755889462 3.7427115682861855E-05 C 0.008348367385895495 0.0004437011574756124 0.0052645911639247 0.005684638837411338 0.005762252315961852 0.004912715617195869 C 0.0052645911639247 0.005684638837411338 0.002348975149400457 0.009666154936691212 0.0026115349314436414 0.009300505758268494" fill="none" stroke="#000000" stroke-width="0.001"/>
<path d="M 0.0026115349314436414 0.009300505758268494 C 0.002539560118592023 0.009247015757349656 0.001720343885614364 0.008509374451243914 0.0017478371772242233 0.008658625747242438 C 0.001720343885614364 0.008509374451243914 0.0023260969533670894 0.0074137289112065205 0.0022816154321253306 0.007509490206286207" fill="none" stroke="#000000" stroke-width="0.001"/>
</g><g transform="translate(0.31607942935525496,0.18842409997393691) rotate(0) scale(1,1) translate(-0.004939132902295487,-0.004939132902295487)"><path d="M 0.0010074055283388293 0.007610287411275128 C 0.001353553208955433 0.007308632195318479 0.005846584652102739 0.0033067184352610544 0.005161177695738073 0.003990424819795338 C 0.005846584652102739 0.0033067184352610544 0.009571548280462883 -0.0009762403717139059 0.00923228900471482 -0.0005941892031362718" fill="none" stroke="#000000" stroke-width="0.001"/>
<path d="M 0.009538314159653082 -0.00031051616603906747 C 0.009224720352279595 8.828735882458169E-05 0.005093578181317283 0.005245258604215459 0.005775188471171247 0.004475126132324723 C 0.005093578181317283 0.005245258604215459 0.000990974198925037 0.009302402443676855 0.0013589906814055147 0.008931073496649768" fill="none" stroke="none" stroke-width="0"/>
<path d="M 0.0013589906814055147 0.008931073496649768 C 0.001295296905725742 0.008894908795826374 0.0005653666104926859 0.008387031579654479 0.000594665373248243 0.008497097086769032 C 0.0005653666104926859 0.008387031579654479 0.0010418005412630449 0.007536386604983972 0.0010074055283388293 0.007610287411275131" fill="none" stroke="#000000" stroke-width="0.001"/>
</g></g>
<g id="縁">
<g transform="translate(0.3131980077233315,0.18166040847075088) rotate(0) scale(1,1) translate(-0.013368228944623991,-0.013368228944623991)"><path d="M 0.010887829953697742 0.016984897029899478 C 0.011059244187282236 0.016630673228881256 0.013206293027278281 0.012004801567241171 0.012944800756711674 0.01273421141768083 C 0.013206293027278281 0.012004801567241171 0.014115815237479137 0.007856792775202142 0.014025737200497025 0.008231978824623579" fill="none" stroke="#000000" stroke-width="0.001"/>
<path d="M 0.015081939250253662 0.009426341786087424 C 0.01498698522231883 0.009773942973871134 0.013643528175543597 0.014363369679631394 0.013942490915035664 0.013597556039491941 C 0.013643528175543597 0.014363369679631394 0.011290377664791629 0.01903431792011659 0.011494386376348862 0.018616105467760848" fill="none" stroke="#000000" stroke-width="0.001"/>
<path d="M 0.011494386376348862 0.018616105467760848 C 0.011453513093003484 0.018536096865072012 0.010953360607650054 0.017520068199006353 0.011003906976204314 0.0176560022354948 C 0.010953360607650054 0.017520068199006353 0.01087815686848886 0.01692897159609987 0.010887829953697742 0.016984897029899478" fill="none" stroke="#000000" stroke-width="0.001"/>
</g><g transform="translate(0.3180178874964434,0.19116658335193237) rotate(0) scale(1,1) translate(-0.013368228944623991,-0.013368228944623991)"><path d="M 0.00839968359321161 0.017172927538353807 C 0.00837824986148055 0.0171208525784365 0.008123326620840142 0.01643154611476313 0.008142478812438875 0.016548028019346094 C 0.008123326620840142 0.01643154611476313 0.008172138834159137 0.015710737738692616 0.008169857294026809 0.015775144683358267" fill="none" stroke="#000000" stroke-width="0.001"/>
<path d="M 0.008169857294026809 0.015775144683358267 C 0.008574760912096703 0.015528201460418759 0.013844136511930331 0.01240294462651341 0.013028700710865534 0.012811826008084169 C 0.013844136511930331 0.01240294462651341 0.01836561908979929 0.010706629945877903 0.017955086906804384 0.010868568104509153" fill="none" stroke="#000000" stroke-width="0.001"/>
<path d="M 0.018877643176262084 0.011799275285119079 C 0.018451259012398497 0.011970538138378967 0.01288786991131149 0.014302233878673971 0.01376103320989903 0.013854429524237743 C 0.01288786991131149 0.014302233878673971 0.007952904458487658 0.017449469039530145 0.00839968359321161 0.017172927538353807" fill="none" stroke="#000000" stroke-width="0.001"/>
</g></g>
</g>
<g id="布右">
<g transform="translate(0.3373434528286707,0.16513021119802657) rotate(0) scale(1,1) translate(-0.027518731894252097,-0.027518731894252097)"><path d="M 0.05364251757765126 0.04867691122545723 C 0.053585378750341695 0.04899421605445233 0.052810109044585225 0.05314066057520268 0.05295685164993646 0.05248456917339845 C 0.052810109044585225 0.05314066057520268 0.05179200253539483 0.05688879461991712 0.051881606313436496 0.05655000804710799" fill="none" stroke="#000000" stroke-width="0.001"/>
<path d="M 0.051881606313436496 0.05655000804710799 C 0.05146183055619008 0.05630043271386215 0.045980049874556055 0.05316875143926598 0.04684429722647953 0.05355510404815791 C 0.045980049874556055 0.05316875143926598 0.04106616649567777 0.05177699946475874 0.04151063809035483 0.05191377674040483" fill="none" stroke="#000000" stroke-width="0.001"/>
<path d="M 0.050847098135088184 0.03929868486238874 C 0.05091518804046345 0.03969453855443771 0.05189712861980495 0.044830448030565476 0.05166417699959136 0.04404892916697643 C 0.05189712861980495 0.044830448030565476 0.053807379292489584 0.049062576396997286 0.05364251757765126 0.04867691122545722" fill="none" stroke="#000000" stroke-width="0.001"/>
</g><g id="皺">
<g transform="translate(0.3605398183074632,0.1853340399868551) rotate(0) scale(1,1) translate(-0.004939132902295487,-0.004939132902295487)"><path d="M 0.007596650372465729 0.007509490206286207 C 0.007641131893707488 0.007605251501365893 0.008102935335756978 0.008807877043240962 0.008130428627366838 0.008658625747242438 C 0.008102935335756978 0.008807877043240962 0.0071947560602958005 0.009353995759187331 0.007266730873147419 0.009300505758268494" fill="none" stroke="#000000" stroke-width="0.001"/>
<path d="M 0.007266730873147419 0.009300505758268494 C 0.007004171091104234 0.008934856579845775 0.0036183523365920563 0.0041407923969804 0.004116013488629208 0.004912715617195869 C 0.0036183523365920563 0.0041407923969804 0.0010596956787076285 -0.0003688469261098887 0.0012947970487015962 3.7427115682861855E-05" fill="none" stroke="#000000" stroke-width="0.001"/>
<path d="M 0.0015701056419217094 -0.00022307199105544803 C 0.0018286481834358832 0.00016058221434763756 0.005174828200970464 0.0050251586568933835 0.004672616140091795 0.004380778473781579 C 0.005174828200970464 0.0050251586568933835 0.007840319891830224 0.007770216183994924 0.007596650372465729 0.007509490206286206" fill="none" stroke="none" stroke-width="0"/>
</g><g transform="translate(0.3586074763020865,0.18842409997393691) rotate(0) scale(1,1) translate(-0.004939132902295487,-0.004939132902295487)"><path d="M 0.008870860276252234 0.007610287411275131 C 0.00890525528917645 0.007684188217566289 0.009254301668587261 0.008607162593883584 0.009283600431342819 0.008497097086769032 C 0.009254301668587261 0.008607162593883584 0.008455581347505773 0.008967238197473162 0.008519275123185545 0.008931073496649768" fill="none" stroke="#000000" stroke-width="0.001"/>
<path d="M 0.008519275123185545 0.008931073496649768 C 0.008151258640705067 0.00855974454962268 0.00342146704356585 0.0037049936604339863 0.004103077333419814 0.004475126132324723 C 0.00342146704356585 0.0037049936604339863 2.6357837564494233E-05 -0.0007093196909027167 0.0003399516449379803 -0.00031051616603906747" fill="none" stroke="none" stroke-width="0"/>
<path d="M 0.0006459767998762407 -0.0005941892031362718 C 0.0009852360756243028 -0.00021213803455863764 0.005402495065217653 0.004674131204329621 0.004717088108852987 0.003990424819795338 C 0.005402495065217653 0.004674131204329621 0.009217007956868839 0.007911942627231777 0.008870860276252234 0.007610287411275128" fill="none" stroke="#000000" stroke-width="0.001"/>
</g></g>
<g id="縁">
<g transform="translate(0.36148889793400996,0.18166040847075088) rotate(0) scale(1,1) translate(-0.013368228944623991,-0.013368228944623991)"><path d="M 0.0158486279355502 0.016984897029899478 C 0.01583895485034132 0.017040822463699087 0.015682004544489373 0.01779193627198325 0.01573255091304363 0.0176560022354948 C 0.015682004544489373 0.01779193627198325 0.015201198229553702 0.018696114070449684 0.01524207151289908 0.018616105467760848" fill="none" stroke="#000000" stroke-width="0.001"/>
<path d="M 0.01524207151289908 0.018616105467760848 C 0.015038062801341847 0.018197893015405107 0.01249500423472021 0.012831742399352489 0.012793966974212277 0.013597556039491941 C 0.01249500423472021 0.012831742399352489 0.011559564611059447 0.009078740598303714 0.01165451863899428 0.009426341786087424" fill="none" stroke="#000000" stroke-width="0.001"/>
<path d="M 0.012710720688750916 0.008231978824623579 C 0.012800798725733028 0.008607164874045016 0.014053149403102875 0.013463621268120488 0.013791657132536267 0.01273421141768083 C 0.014053149403102875 0.013463621268120488 0.016020042169134694 0.0173391208309177 0.0158486279355502 0.016984897029899478" fill="none" stroke="#000000" stroke-width="0.001"/>
</g><g transform="translate(0.35666901816089813,0.19116658335193237) rotate(0) scale(1,1) translate(-0.013368228944623991,-0.013368228944623991)"><path d="M 0.018336774296036303 0.017172927538353807 C 0.017889995161312355 0.01689638603717747 0.01210226138076137 0.013406625169801515 0.012975424679348911 0.013854429524237743 C 0.01210226138076137 0.013406625169801515 0.007432430549122222 0.01162801243185919 0.007858814712985813 0.011799275285119079" fill="none" stroke="#000000" stroke-width="0.001"/>
<path d="M 0.008781370982443514 0.010868568104509153 C 0.009191903165438421 0.011030506263140404 0.014523192979447208 0.013220707389654928 0.013707757178382409 0.012811826008084169 C 0.014523192979447208 0.013220707389654928 0.01897150421329099 0.016022087906297774 0.018566600595221097 0.015775144683358267" fill="none" stroke="#000000" stroke-width="0.001"/>
<path d="M 0.018566600595221097 0.015775144683358267 C 0.018568882135353425 0.015839551628023918 0.018574826885210304 0.016664509923929056 0.018593979076809035 0.016548028019346094 C 0.018574826885210304 0.016664509923929056 0.01831534056430524 0.017225002498271115 0.018336774296036303 0.017172927538353807" fill="none" stroke="#000000" stroke-width="0.001"/>
</g></g>
</g>
</g>
<g id="カップ右">
<g transform="translate(0.3373434528286707,0.16513021119802657) rotate(0) scale(1,1) translate(-0.07566010624316709,-0.07566010624316706)"><path d="M 0.06694983588457024 0.054554357442053364 C 0.06841903729498866 0.05586670188015946 0.08759424550136215 0.0729928327158381 0.0845802528095914 0.07030249069932647 C 0.08759424550136215 0.0729928327158381 0.10466253946717141 0.08821645921859851 0.1031177481858191 0.08683846164019297" fill="none" stroke="#000000" stroke-width="0.001"/>
<path d="M 0.1031177481858191 0.08683846164019297 C 0.10307176512803201 0.08722284437134775 0.10238757522847518 0.0921491791171826 0.10256595149237396 0.09145105441405026 C 0.10238757522847518 0.0921491791171826 0.10084483981292205 0.09552970004975866 0.10097723301903375 0.09521595807778109" fill="none" stroke="#000000" stroke-width="0.001"/>
<path d="M 0.10097723301903375 0.09521595807778109 C 0.10070473350234105 0.09547429237038857 0.09715118368933692 0.09872549291275787 0.09770723881872138 0.09831596958907077 C 0.09715118368933692 0.09872549291275787 0.0940210158537285 0.10028142699310597 0.09430457146642027 0.10013023796202633" fill="none" stroke="none" stroke-width="0"/>
<path d="M 0.09430457146642027 0.10013023796202633 C 0.09407611465685087 0.10018010172158251 0.09123414609151843 0.10076696427361856 0.09156308975158751 0.10072860307670042 C 0.09123414609151843 0.10076696427361856 0.09025676069509159 0.100579069762406 0.09035724754559127 0.10059057232504404" fill="none" stroke="#000000" stroke-width="0.001"/>
<path d="M 0.09035724754559127 0.10059057232504404 C 0.08915276319087063 0.098632933393826 0.07354800904729161 0.07346131710153772 0.0759034352889436 0.07709890515042761 C 0.07354800904729161 0.07346131710153772 0.06094119075883616 0.055259566620693534 0.0620921326457675 0.056939515738365386" fill="none" stroke="#000000" stroke-width="0.001"/>
<path d="M 0.0620921326457675 0.056939515738365386 C 0.06232469515406902 0.056884293411860916 0.06528769134861927 0.05607808462895239 0.0648828827453857 0.056276847820311726 C 0.06528769134861927 0.05607808462895239 0.06712208197950228 0.0544108165771985 0.06694983588457024 0.054554357442053364" fill="none" stroke="#000000" stroke-width="0.001"/>
</g><g id="縁">
<g transform="translate(0.346263599395095,0.15977259565418597) rotate(0) scale(1,1) translate(-0.01602013802246163,-0.01602013802246163)"><path d="M 0.035086250748815107 0.032085951781797614 C 0.03506151722651683 0.03213920526320552 0.03474121221443516 0.032833624036960954 0.03478944848123584 0.03272499355869246 C 0.03474121221443516 0.032833624036960954 0.034483912802704506 0.033444894517880144 0.03450741554720692 0.033389517521019554" fill="none" stroke="#000000" stroke-width="0.001"/>
<path d="M 0.03450741554720692 0.033389517521019554 C 0.03292675085629261 0.03198355074149215 0.01248020596853402 0.013771849506991347 0.015539439256235247 0.016517916166690735 C 0.01248020596853402 0.013771849506991347 -0.003681952501994723 -0.0009033822755450737 -0.0022033839052078025 0.0004367176046269117" fill="none" stroke="#000000" stroke-width="0.001"/>
<path d="M -0.0022033839052078025 0.0004367176046269117 C -0.002160251695189854 0.00040064561082970066 -0.001597271613041137 -5.073541442484264E-05 -0.0016857973849924153 3.85367906037914E-06 C -0.001597271613041137 -5.073541442484264E-05 -0.0010956810798591358 -0.00023686861688376043 -0.001141074641792465 -0.0002183515171957497" fill="none" stroke="#000000" stroke-width="0.001"/>
<path d="M -0.001141074641792465 -0.0002183515171957497 C 0.00032908464408090373 0.0010933744324232726 0.01951978057123859 0.018214385153148632 0.01650083678868796 0.015522359878232517 C 0.01951978057123859 0.018214385153148632 0.036635035245492366 0.033466251107094704 0.035086250748815107 0.032085951781797614" fill="none" stroke="#000000" stroke-width="0.001"/>
</g><g transform="translate(0.3375867818744472,0.16656901010528713) rotate(0) scale(1,1) translate(-0.01602013802246163,-0.01602013802246163)"><path d="M 0.03149929366641563 0.03969395694406255 C 0.03142729825918644 0.03970301744230862 0.030506606933023286 0.03980918986232114 0.03063534877966543 0.03980268292301538 C 0.030506606933023286 0.03980918986232114 0.029897645067296936 0.039769486656791427 0.029954391506709897 0.03977204021573173" fill="none" stroke="#000000" stroke-width="0.001"/>
<path d="M 0.029954391506709897 0.03977204021573173 C 0.02874326341946278 0.03782154807681386 0.01307913549535262 0.012698808687055098 0.015420854459744488 0.016366134548717205 C 0.01307913549535262 0.012698808687055098 0.0007231730568627319 -0.0059527038469577714 0.0018537639340074825 -0.004235870124213542" fill="none" stroke="#000000" stroke-width="0.001"/>
<path d="M 0.0018537639340074825 -0.004235870124213542 C 0.0019015777212840592 -0.004260872483176359 0.0025240822653270854 -0.004566188407997701 0.0024275293813264035 -0.004535898431767344 C 0.0025240822653270854 -0.004566188407997701 0.003061137638739771 -0.004604637456245372 0.0030123985420156658 -0.004599349838977832" fill="none" stroke="#000000" stroke-width="0.001"/>
<path d="M 0.0030123985420156658 -0.004599349838977832 C 0.00414631712894591 -0.0029098922277125084 0.018993329512211936 0.019365250394792748 0.016619421585178606 0.015674141496206048 C 0.018993329512211936 0.019365250394792748 0.03273928300651872 0.04169560823138393 0.03149929366641563 0.03969395694406255" fill="none" stroke="#000000" stroke-width="0.001"/>
</g></g>
<g transform="translate(0.34203869297925904,0.16305730053524847) rotate(0) scale(1,1) translate(-0.013690997898512585,-0.013690997898512587)"><path d="M -0.000831020764084256 -0.004289489404684177 C 0.000633567239588545 -0.0027181264123319884 0.018606153910537816 0.016500461972356807 0.016744035279989355 0.014566866503542093 C 0.018606153910537816 0.016500461972356807 0.021911933429372938 0.019275888697554942 0.02151440280249728 0.018913656221092416" fill="none" stroke="#000000" stroke-width="0.001"/>
<path d="M 0.02151440280249728 0.018913656221092416 C 0.021327341478231166 0.019030209513290174 0.018918712648782282 0.020579757848335885 0.01926966691130394 0.020312295727465502 C 0.018918712648782282 0.020579757848335885 0.01713905871398184 0.022274110500209637 0.017302951652237386 0.022123201671537012" fill="none" stroke="none" stroke-width="0"/>
<path d="M 0.017302951652237386 0.022123201671537012 C 0.016997332408406007 0.02169630407004073 0.011979881968739484 0.014877946002958284 0.013635520726260841 0.01700043045358161 C 0.011979881968739484 0.014877946002958284 -0.003914732951708873 -0.005042198585069944 -0.002564713438018895 -0.0033466117359429014" fill="none" stroke="#000000" stroke-width="0.001"/>
<path d="M -0.002564713438018895 -0.0033466117359429014 C -0.0024918710886673487 -0.003379855870901399 -0.001546130856305783 -0.0038241144945066453 -0.0016906052458003362 -0.003745541355444872 C -0.001546130856305783 -0.0038241144945066453 -0.0007593887239412492 -0.004334818408787454 -0.000831020764084256 -0.004289489404684179" fill="none" stroke="#000000" stroke-width="0.001"/>
</g></g>
<g id="カップ左">
<g transform="translate(0.3373434528286707,0.16513021119802657) rotate(0) scale(1,1) translate(-0.07566010624316709,-0.07566010624316706)"><path d="M 0.08437037660176394 0.054554357442053364 C 0.08454262269669599 0.05469789830690823 0.08684213834418211 0.05647561101167106 0.08643732974094855 0.056276847820311726 C 0.08684213834418211 0.05647561101167106 0.08946064234886825 0.056994738064869856 0.08922807984056673 0.056939515738365386" fill="none" stroke="#000000" stroke-width="0.001"/>
<path d="M 0.08922807984056673 0.056939515738365386 C 0.08807713795363539 0.05861946485603724 0.07306135095573867 0.0807364931993175 0.07541677719739065 0.07709890515042761 C 0.07306135095573867 0.0807364931993175 0.0597584805860223 0.10254821125626207 0.06096296494074294 0.10059057232504404" fill="none" stroke="#000000" stroke-width="0.001"/>
<path d="M 0.06096296494074294 0.10059057232504404 C 0.060862478090243255 0.10060207488768207 0.05942817907467762 0.10069024187978229 0.059757122734746704 0.10072860307670042 C 0.05942817907467762 0.10069024187978229 0.05678718421034453 0.10008037420247015 0.05701564101991393 0.10013023796202633" fill="none" stroke="#000000" stroke-width="0.001"/>
<path d="M 0.05701564101991393 0.10013023796202633 C 0.056732085407222174 0.0999790489309467 0.05305691853822839 0.09790644626538367 0.05361297366761284 0.09831596958907077 C 0.05305691853822839 0.09790644626538367 0.050070479950607795 0.09495762378517361 0.05034297946730049 0.09521595807778109" fill="none" stroke="none" stroke-width="0"/>
<path d="M 0.05034297946730049 0.09521595807778109 C 0.0502105862611888 0.09490221610580352 0.04857588473006145 0.09075292971091792 0.04875426099396023 0.09145105441405026 C 0.04857588473006145 0.09075292971091792 0.048156481242728026 0.0864540789090382 0.04820246430051512 0.08683846164019297" fill="none" stroke="#000000" stroke-width="0.001"/>
<path d="M 0.04820246430051512 0.08683846164019297 C 0.04974725558186743 0.08546046406178744 0.06975395236851357 0.06761214868281483 0.06673995967674284 0.07030249069932647 C 0.06975395236851357 0.06761214868281483 0.08583957801218237 0.05324201300394727 0.08437037660176394 0.054554357442053364" fill="none" stroke="#000000" stroke-width="0.001"/>
</g><g transform="translate(0.33264821267808226,0.16305730053524847) rotate(0) scale(1,1) translate(-0.013690997898512585,-0.013690997898512587)"><path d="M 0.028213016561109416 -0.004289489404684179 C 0.028284648601252422 -0.004244160400580904 0.02921707543232005 -0.003666968216383099 0.029072601042825497 -0.003745541355444872 C 0.02921707543232005 -0.003666968216383099 0.030019551584395603 -0.003313367600984404 0.029946709235044056 -0.0033466117359429014" fill="none" stroke="#000000" stroke-width="0.001"/>
<path d="M 0.029946709235044056 -0.0033466117359429014 C 0.02859668972135408 -0.0016510248868158589 0.012090836313242962 0.019122914904204938 0.013746475070764319 0.01700043045358161 C 0.012090836313242962 0.019122914904204938 0.009773424900956389 0.022550099273033294 0.010079044144787767 0.022123201671537012" fill="none" stroke="#000000" stroke-width="0.001"/>
<path d="M 0.010079044144787767 0.022123201671537012 C 0.009915151206532226 0.021972292842864387 0.007761374623199609 0.02004483360659512 0.008112328885721267 0.020312295727465502 C 0.007761374623199609 0.02004483360659512 0.0056805316702617445 0.01879710292889466 0.005867592994527862 0.018913656221092416" fill="none" stroke="none" stroke-width="0"/>
<path d="M 0.005867592994527862 0.018913656221092416 C 0.006265123621403523 0.01855142374462989 0.012500079147584268 0.012633271034727377 0.010637960517035805 0.014566866503542093 C 0.012500079147584268 0.012633271034727377 0.029677604564782217 -0.005860852397036366 0.028213016561109416 -0.004289489404684177" fill="none" stroke="#000000" stroke-width="0.001"/>
</g><g id="縁">
<g transform="translate(0.3284233062622464,0.15977259565418597) rotate(0) scale(1,1) translate(-0.01602013802246163,-0.01602013802246163)"><path d="M -0.0030459747038919013 0.032085951781797614 C -0.0014971902072146367 0.03070565245650052 0.018558383038785906 0.012830334603316404 0.015539439256235271 0.015522359878232517 C 0.018558383038785906 0.012830334603316404 0.03465150997258908 -0.0015300774668147719 0.03318135068671571 -0.0002183515171957497" fill="none" stroke="#000000" stroke-width="0.001"/>
<path d="M 0.03318135068671571 -0.0002183515171957497 C 0.03322674424864904 -0.00019983441750773896 0.03381459920186693 5.8442772545600924E-05 0.033726073429915654 3.85367906037914E-06 C 0.03381459920186693 5.8442772545600924E-05 0.034286792160148925 0.0004727895984241227 0.034243659950130984 0.0004367176046269117" fill="none" stroke="#000000" stroke-width="0.001"/>
<path d="M 0.034243659950130984 0.0004367176046269117 C 0.032765091353344065 0.0017768174847988972 0.013441603500986707 0.019263982826390122 0.016500836788687936 0.016517916166690735 C 0.013441603500986707 0.019263982826390122 -0.00404780419319807 0.03479548430054696 -0.0024671395022837616 0.033389517521019554" fill="none" stroke="#000000" stroke-width="0.001"/>
<path d="M -0.0024671395022837616 0.033389517521019554 C -0.0024906422467861605 0.033334140524158964 -0.0027974087031132243 0.03261636308042397 -0.002749172436312546 0.03272499355869246 C -0.0027974087031132243 0.03261636308042397 -0.003070708226190181 0.03203269830038971 -0.0030459747038919013 0.032085951781797614" fill="none" stroke="#000000" stroke-width="0.001"/>
</g><g transform="translate(0.3371001237828942,0.16656901010528713) rotate(0) scale(1,1) translate(-0.01602013802246163,-0.01602013802246163)"><path d="M 0.0005409823785076152 0.03969395694406255 C 0.0017809717186107 0.03769230565674118 0.017794762386777956 0.01198303259761935 0.015420854459744632 0.015674141496206048 C 0.017794762386777956 0.01198303259761935 0.030161796089837732 -0.006288807450243155 0.029027877502907494 -0.004599349838977832" fill="none" stroke="#000000" stroke-width="0.001"/>
<path d="M 0.029027877502907494 -0.004599349838977832 C 0.029076616599631604 -0.004594062221710291 0.029709299547597497 -0.004505608455536987 0.029612746663596812 -0.004535898431767344 C 0.029709299547597497 -0.004505608455536987 0.030234325898192266 -0.004210867765250726 0.030186512110915692 -0.004235870124213542" fill="none" stroke="#000000" stroke-width="0.001"/>
<path d="M 0.030186512110915692 -0.004235870124213542 C 0.029055921233770942 -0.002519036401469313 0.014277702620786821 0.02003346041037931 0.01661942158517869 0.016366134548717205 C 0.014277702620786821 0.02003346041037931 0.0008747564509661481 0.04172253235464961 0.0020858845382132666 0.03977204021573173" fill="none" stroke="#000000" stroke-width="0.001"/>
<path d="M 0.0020858845382132666 0.03977204021573173 C 0.0020291380988003136 0.03977459377467204 0.001276185418615695 0.03979617598370962 0.0014049272652578327 0.03980268292301538 C 0.001276185418615695 0.03979617598370962 0.0004689869712784304 0.039684896445816485 0.0005409823785076152 0.03969395694406255" fill="none" stroke="#000000" stroke-width="0.001"/>
</g></g>
</g>
</svg>
