<?xml version="1.0" encoding="UTF-8"?>
<svg xmlns="http://www.w3.org/2000/svg" viewBox="0 0 1 1">
<g transform="translate(0.3373434528286707,0.10039800795060094) rotate(0) scale(1,1) translate(-0.012112918716738431,-0.012112918716738433)"><path d="M 0.012112918716738412 -0.00836393862063017 C 0.012361395703381932 -0.008349549904962972 0.014109156359608856 -0.007829333990967568 0.013603780636599533 -0.008277606326626986 C 0.014109156359608856 -0.007829333990967568 0.01540207179116015 -0.005240420986681443 0.015145173054794348 -0.005674304606673663" fill="none" stroke="#000000" stroke-width="0.001"/>
<path d="M 0.015145173054794348 -0.005674304606673663 C 0.015205761524922912 -0.0050388354460959555 0.016189566212747985 0.004101355062707705 0.01587223469633712 0.0019513253202588312 C 0.016189566212747985 0.004101355062707705 0.019209894298007034 0.021640612884583976 0.018953151251724733 0.02012605230271281" fill="none" stroke="#000000" stroke-width="0.001"/>
<path d="M 0.018953151251724733 0.02012605230271281 C 0.018733798047561877 0.020489818074910265 0.015750893423854953 0.02506523145197798 0.016320912801770476 0.024491241569082264 C 0.015750893423854953 0.02506523145197798 0.011411586369233095 0.027013930897461395 0.012112918716738436 0.027013930897461395 C 0.011411586369233095 0.027013930897461395 0.007334905253790863 0.023917251686186556 0.00790492463170639 0.02449124156908227 C 0.007334905253790863 0.023917251686186556 0.005053332977589272 0.01976228653051537 0.005272686181752128 0.020126052302712825" fill="none" stroke="#000000" stroke-width="0.001"/>
<path d="M 0.005272686181752128 0.020126052302712825 C 0.005562378097280703 0.018342281779077728 0.009057271942652337 -0.0037205234087445346 0.008748989168095035 -0.001279193980908353 C 0.009057271942652337 -0.0037205234087445346 0.008990670335468484 -0.009827459735522442 0.008972079476439757 -0.009169900831321357" fill="none" stroke="#000000" stroke-width="0.001"/>
<path d="M 0.008972079476439757 -0.009169900831321357 C 0.009222690695939263 -0.00914043260591683 0.010999220000153239 -0.008858764443778989 0.010475746793436796 -0.008993091478894186 C 0.010999220000153239 -0.008858764443778989 0.012385780703955348 -0.0082590798109195 0.012112918716738412 -0.00836393862063017" fill="none" stroke="#000000" stroke-width="0.001"/>
</g><g id="器官左">
<g transform="translate(0.33425240833117903,0.10361072900911159) rotate(0) scale(1,1) translate(-0.06790510541082928,-0.06790510541082931)"><path d="M 0.06682842964914458 0.0663019968855992 C 0.06685711302683539 0.0663010742795526 0.06724498911987378 0.06632211916873801 0.06717263018143436 0.06629092561304017 C 0.06724498911987378 0.06632211916873801 0.06774041247116624 0.06670843571571768 0.06769673691041764 0.06667631955397325" fill="none" stroke="#000000" stroke-width="0.001"/>
<path d="M 0.06769673691041764 0.06667631955397325 C 0.06774544804325952 0.06673813137392504 0.06837099348466064 0.06755165377049706 0.06828127050452025 0.06741806139339455 C 0.06837099348466064 0.06755165377049706 0.06881442451940083 0.0683512086363541 0.06877341267210232 0.06827942807920337" fill="none" stroke="#000000" stroke-width="0.001"/>
<path d="M 0.06877341267210232 0.06827942807920337 C 0.0687934404272534 0.06834216250520173 0.06903110977561613 0.06913464001258833 0.06901374573391517 0.06903224119118366 C 0.06903110977561613 0.06913464001258833 0.06897911745906386 0.0695478783314657 0.06898178117251397 0.06950821393605938" fill="none" stroke="#000000" stroke-width="0.001"/>
<path d="M 0.06898178117251397 0.06950821393605938 C 0.06895309779482316 0.06950913654210597 0.0685652217017848 0.06948809165292053 0.06863758064022422 0.06951928520861836 C 0.0685652217017848 0.06948809165292053 0.06806979835049236 0.06910177510594091 0.06811347391124097 0.06913389126768534" fill="none" stroke="#000000" stroke-width="0.001"/>
<path d="M 0.06811347391124097 0.06913389126768534 C 0.06806476277839908 0.06907207944773355 0.06743921733699791 0.0682585570511615 0.0675289403171383 0.06839214942826402 C 0.06743921733699791 0.0682585570511615 0.06699578630225776 0.06745900218530446 0.06703679814955626 0.06753078274245519" fill="none" stroke="#000000" stroke-width="0.001"/>
<path d="M 0.06703679814955626 0.06753078274245519 C 0.06701677039440519 0.06746804831645684 0.06677910104604241 0.06667557080907023 0.06679646508774338 0.0667779696304749 C 0.06677910104604241 0.06667557080907023 0.06683109336259468 0.06626233249019288 0.06682842964914458 0.0663019968855992" fill="none" stroke="#000000" stroke-width="0.001"/>
</g><g transform="translate(0.3336927471784809,0.10724109350196503) rotate(0) scale(1,1) translate(-0.06790510541082928,-0.06790510541082931)"><path d="M 0.06682842964914458 0.0663019968855992 C 0.06685711302683539 0.0663010742795526 0.06724498911987378 0.06632211916873801 0.06717263018143436 0.06629092561304017 C 0.06724498911987378 0.06632211916873801 0.06774041247116624 0.06670843571571768 0.06769673691041764 0.06667631955397325" fill="none" stroke="#000000" stroke-width="0.001"/>
<path d="M 0.06769673691041764 0.06667631955397325 C 0.06774544804325952 0.06673813137392504 0.06837099348466064 0.06755165377049706 0.06828127050452025 0.06741806139339455 C 0.06837099348466064 0.06755165377049706 0.06881442451940083 0.0683512086363541 0.06877341267210232 0.06827942807920337" fill="none" stroke="#000000" stroke-width="0.001"/>
<path d="M 0.06877341267210232 0.06827942807920337 C 0.0687934404272534 0.06834216250520173 0.06903110977561613 0.06913464001258833 0.06901374573391517 0.06903224119118366 C 0.06903110977561613 0.06913464001258833 0.06897911745906386 0.0695478783314657 0.06898178117251397 0.06950821393605938" fill="none" stroke="#000000" stroke-width="0.001"/>
<path d="M 0.06898178117251397 0.06950821393605938 C 0.06895309779482316 0.06950913654210597 0.0685652217017848 0.06948809165292053 0.06863758064022422 0.06951928520861836 C 0.0685652217017848 0.06948809165292053 0.06806979835049236 0.06910177510594091 0.06811347391124097 0.06913389126768534" fill="none" stroke="#000000" stroke-width="0.001"/>
<path d="M 0.06811347391124097 0.06913389126768534 C 0.06806476277839908 0.06907207944773355 0.06743921733699791 0.0682585570511615 0.0675289403171383 0.06839214942826402 C 0.06743921733699791 0.0682585570511615 0.06699578630225776 0.06745900218530446 0.06703679814955626 0.06753078274245519" fill="none" stroke="#000000" stroke-width="0.001"/>
<path d="M 0.06703679814955626 0.06753078274245519 C 0.06701677039440519 0.06746804831645684 0.06677910104604241 0.06667557080907023 0.06679646508774338 0.0667779696304749 C 0.06677910104604241 0.06667557080907023 0.06683109336259468 0.06626233249019288 0.06682842964914458 0.0663019968855992" fill="none" stroke="#000000" stroke-width="0.001"/>
</g></g>
<g id="器官右">
<g transform="translate(0.3404344973261623,0.10361072900911157) rotate(0) scale(1,1) translate(-0.06790510541082928,-0.06790510541082931)"><path d="M 0.06898178117251397 0.0663019968855992 C 0.06898444488596407 0.0663416612810055 0.06899638169221418 0.06688036845187957 0.06901374573391515 0.0667779696304749 C 0.06899638169221418 0.06688036845187957 0.0687533849169513 0.06759351716845355 0.06877341267210237 0.06753078274245519" fill="none" stroke="#000000" stroke-width="0.001"/>
<path d="M 0.06877341267210237 0.06753078274245519 C 0.06873240082480385 0.06760256329960593 0.06819154752437984 0.06852574180536654 0.06828127050452024 0.06839214942826402 C 0.06819154752437984 0.06852574180536654 0.06764802577757567 0.06919570308763712 0.06769673691041755 0.06913389126768534" fill="none" stroke="#000000" stroke-width="0.001"/>
<path d="M 0.06769673691041755 0.06913389126768534 C 0.06765306134966896 0.06916600742942976 0.06710027124299495 0.06955047876431619 0.06717263018143436 0.06951928520861836 C 0.06710027124299495 0.06955047876431619 0.06679974627145377 0.0695072913300128 0.06682842964914458 0.06950821393605938" fill="none" stroke="#000000" stroke-width="0.001"/>
<path d="M 0.06682842964914458 0.06950821393605938 C 0.06682576593569448 0.06946854954065307 0.06681382912944438 0.06892984236977899 0.06679646508774341 0.06903224119118366 C 0.06681382912944438 0.06892984236977899 0.06705682590470728 0.06821669365320501 0.06703679814955621 0.06827942807920337" fill="none" stroke="#000000" stroke-width="0.001"/>
<path d="M 0.06703679814955621 0.06827942807920337 C 0.06707780999685471 0.06820764752205263 0.0676186632972787 0.06728446901629205 0.06752894031713831 0.06741806139339455 C 0.0676186632972787 0.06728446901629205 0.0681621850440828 0.06661450773402147 0.06811347391124091 0.06667631955397325" fill="none" stroke="#000000" stroke-width="0.001"/>
<path d="M 0.06811347391124091 0.06667631955397325 C 0.06815714947198952 0.06664420339222883 0.06870993957866364 0.06625973205734234 0.06863758064022422 0.06629092561304017 C 0.06870993957866364 0.06625973205734234 0.06901046455020478 0.06630291949164578 0.06898178117251397 0.0663019968855992" fill="none" stroke="#000000" stroke-width="0.001"/>
</g><g transform="translate(0.34099415847886044,0.10724109350196503) rotate(0) scale(1,1) translate(-0.06790510541082928,-0.06790510541082931)"><path d="M 0.06898178117251397 0.0663019968855992 C 0.06898444488596407 0.0663416612810055 0.06899638169221418 0.06688036845187957 0.06901374573391515 0.0667779696304749 C 0.06899638169221418 0.06688036845187957 0.0687533849169513 0.06759351716845355 0.06877341267210237 0.06753078274245519" fill="none" stroke="#000000" stroke-width="0.001"/>
<path d="M 0.06877341267210237 0.06753078274245519 C 0.06873240082480385 0.06760256329960593 0.06819154752437984 0.06852574180536654 0.06828127050452024 0.06839214942826402 C 0.06819154752437984 0.06852574180536654 0.06764802577757567 0.06919570308763712 0.06769673691041755 0.06913389126768534" fill="none" stroke="#000000" stroke-width="0.001"/>
<path d="M 0.06769673691041755 0.06913389126768534 C 0.06765306134966896 0.06916600742942976 0.06710027124299495 0.06955047876431619 0.06717263018143436 0.06951928520861836 C 0.06710027124299495 0.06955047876431619 0.06679974627145377 0.0695072913300128 0.06682842964914458 0.06950821393605938" fill="none" stroke="#000000" stroke-width="0.001"/>
<path d="M 0.06682842964914458 0.06950821393605938 C 0.06682576593569448 0.06946854954065307 0.06681382912944438 0.06892984236977899 0.06679646508774341 0.06903224119118366 C 0.06681382912944438 0.06892984236977899 0.06705682590470728 0.06821669365320501 0.06703679814955621 0.06827942807920337" fill="none" stroke="#000000" stroke-width="0.001"/>
<path d="M 0.06703679814955621 0.06827942807920337 C 0.06707780999685471 0.06820764752205263 0.0676186632972787 0.06728446901629205 0.06752894031713831 0.06741806139339455 C 0.0676186632972787 0.06728446901629205 0.0681621850440828 0.06661450773402147 0.06811347391124091 0.06667631955397325" fill="none" stroke="#000000" stroke-width="0.001"/>
<path d="M 0.06811347391124091 0.06667631955397325 C 0.06815714947198952 0.06664420339222883 0.06870993957866364 0.06625973205734234 0.06863758064022422 0.06629092561304017 C 0.06870993957866364 0.06625973205734234 0.06901046455020478 0.06630291949164578 0.06898178117251397 0.0663019968855992" fill="none" stroke="#000000" stroke-width="0.001"/>
</g></g>
<g transform="translate(0.3373434528286707,0.06954856880709169) rotate(0) scale(1,1) translate(-0.004037639572246146,-0.008075279144492287)"><path d="M 0.00403763957224615 0.034579780913962375 C 0.00403763957224615 0.03415084768198377 0.004037639572246147 0.028646328850539707 0.004037639572246147 0.02943258213021919 C 0.004037639572246147 0.028646328850539707 0.004037639572246144 0.024332772454942187 0.0040376395722461446 0.025144741557808575 C 0.004037639572246144 0.024332772454942187 0.004037639572246134 0.019234303840657024 0.004037639572246135 0.01968895289582253" fill="none" stroke="#000000" stroke-width="0.001"/>
</g><g transform="translate(0.3372891603775493,0.080862986514865) rotate(0) scale(1,1) translate(-0.012058626265617052,0.007422102718997511)"><path d="M 0.012112918716738405 -0.007122846675440573 C 0.012368661197543094 -0.0069155313321199886 0.01415274932457586 -0.005637530937389251 0.013647373601566537 -0.005878954615517069 C 0.01415274932457586 -0.005637530937389251 0.015394806296998983 -0.005640196271866429 0.015145173054794348 -0.005674304606673663" fill="none" stroke="#000000" stroke-width="0.001"/>
<path d="M 0.008972079476439757 -0.009169900831321357 C 0.00922114514993576 -0.008739592878757285 0.010989946724132218 -0.006246877423290123 0.010466473517415777 -0.006588053115936921 C 0.010989946724132218 -0.006246877423290123 0.012387326249958842 -0.007211978935357848 0.012112918716738405 -0.007122846675440573" fill="none" stroke="#000000" stroke-width="0.001"/>
</g><g transform="translate(0.3372891603775493,0.080862986514865) rotate(0) scale(1,1) translate(-0.012058626265617052,0.007422102718997511)"><path d="M 0.013649837969240306 -0.005887821923604 C 0.013369541403037002 -0.006233572891499088 0.011960382349913694 -0.008360625131478354 0.011968058572020487 -0.007962327730974524 C 0.011960382349913694 -0.008360625131478354 0.013876400980696065 -0.008330152759235727 0.013603780636599554 -0.008277606326626984" fill="none" stroke="#000000" stroke-width="0.001"/>
<path d="M 0.010475746793436817 -0.008993091478894185 C 0.010724465423200762 -0.008821297520907575 0.011968533465609879 -0.007563111455754701 0.011968058572020487 -0.007962327730974524 C 0.011968533465609879 -0.007563111455754701 0.010230352418798619 -0.006370371510342037 0.010478596154973171 -0.00659779382757525" fill="none" stroke="#000000" stroke-width="0.001"/>
</g></svg>
