<?xml version="1.0" encoding="UTF-8"?>
<svg xmlns="http://www.w3.org/2000/svg" viewBox="0 0 1 1">
<g transform="translate(0.3373434528286706,0.24784340432461505) rotate(0) scale(1,1) translate(-0.5000000000000002,-0.5027560368733484)"><path d="M 0.4797179758448602 0.47210778026026223 C 0.4799444155112451 0.47129708399980275 0.48328033618127686 0.4609752580221266 0.48243525184147934 0.4623794251347485 C 0.48328033618127686 0.4609752580221266 0.4913227169356403 0.45444707864833983 0.4898589879224302 0.4552577749087993 C 0.4913227169356403 0.45444707864833983 0.5016901686795953 0.45265107000923466 0.5000000000000002 0.45265107000923466 C 0.5016901686795953 0.45265107000923466 0.5116047410907802 0.4560684711692588 0.5101410120775701 0.4552577749087993 C 0.5116047410907802 0.4560684711692588 0.5184098324983185 0.4637835922473704 0.517564748158521 0.4623794251347485 C 0.5184098324983185 0.4637835922473704 0.520508463821525 0.4729184765207217 0.5202820241551401 0.47210778026026223" fill="none" stroke="#000000" stroke-width="0.001"/>
<path d="M 0.5202820241551401 0.47210778026026223 C 0.5206031562042632 0.47269284989052135 0.5248792829636385 0.4802987550838901 0.5241356087446167 0.47912861582337185 C 0.5248792829636385 0.4802987550838901 0.5296286569533005 0.4867345210167404 0.5292061147834017 0.4861494513864813" fill="none" stroke="#000000" stroke-width="0.001"/>
<path d="M 0.5292061147834017 0.4861494513864813 C 0.5293582299645653 0.4866429134636549 0.5315836187260321 0.4933642713792419 0.5310314969573644 0.49207099631256435 C 0.5315836187260321 0.4933642713792419 0.5362315825949183 0.5024685651761154 0.5358315760074142 0.5016687521866114" fill="none" stroke="#000000" stroke-width="0.001"/>
<path d="M 0.5358315760074142 0.5016687521866114 C 0.5359977002534245 0.5022577741122469 0.5381074501114262 0.510144458087274 0.5378250669595382 0.508737015294237 C 0.5381074501114262 0.510144458087274 0.5391426085859086 0.5201326043112421 0.5392201738300705 0.5185580657030563 C 0.5391426085859086 0.5201326043112421 0.5361195202309377 0.5290477432905308 0.5368942840295949 0.5276314785924671 C 0.5361195202309377 0.5290477432905308 0.5284484027530066 0.5364799948706956 0.5299230082461828 0.5355532420798217 C 0.5284484027530066 0.5364799948706956 0.5173698320480079 0.5387715450664196 0.5191990181114815 0.5387525120829542 C 0.5173698320480079 0.5387715450664196 0.5063728573085428 0.5350015925471205 0.5079727754844995 0.5357816378814061 C 0.5063728573085428 0.5350015925471205 0.4993356020429586 0.5288594955873703 0.5000000000000002 0.5293919680715269" fill="none" stroke="#000000" stroke-width="0.001"/>
<path d="M 0.5000000000000002 0.5293919680715269 C 0.4993356020429585 0.5299244405556834 0.49042730633954307 0.5365616832156918 0.49202722451549996 0.5357816378814061 C 0.49042730633954307 0.5365616832156918 0.4789717958250443 0.5387334790994889 0.48080098188851755 0.5387525120829543 C 0.4789717958250443 0.5387334790994889 0.46860238626064454 0.534626489288948 0.4700769917538206 0.5355532420798219 C 0.46860238626064454 0.534626489288948 0.46233095217174697 0.5262152138944035 0.46310571597040456 0.5276314785924673 C 0.46233095217174697 0.5262152138944035 0.46070226092576744 0.5169835270948705 0.46077982616992935 0.5185580657030564 C 0.46070226092576744 0.5169835270948705 0.46245731619234987 0.5073295725011999 0.4621749330404618 0.508737015294237 C 0.46245731619234987 0.5073295725011999 0.46433454823859643 0.501079730260976 0.46416842399258607 0.5016687521866114" fill="none" stroke="#000000" stroke-width="0.001"/>
<path d="M 0.46416842399258607 0.5016687521866114 C 0.46456843058009023 0.5008689391971075 0.46952062481130363 0.4907777212458868 0.46896850304263593 0.49207099631256435 C 0.46952062481130363 0.4907777212458868 0.470946000397762 0.4856559893093077 0.4707938852165985 0.4861494513864813" fill="none" stroke="#000000" stroke-width="0.001"/>
<path d="M 0.4707938852165985 0.4861494513864813 C 0.4712164273864972 0.4855643817562222 0.4766080654744054 0.4779584765628536 0.47586439125538355 0.47912861582337185 C 0.4766080654744054 0.4779584765628536 0.4800391078939832 0.4715227106300031 0.47971797584486014 0.47210778026026223" fill="none" stroke="#000000" stroke-width="0.001"/>
</g><g transform="translate(0.3373434528286705,0.26454005283103343) rotate(0) scale(1,1) translate(-0.09500000000000001,-0.10078471569180053)"><path d="M 0.1063398522164957 0.0899618563029558 C 0.1061109384960548 0.0904029009962119 0.10326580629235121 0.09613932853183194 0.10359288757120493 0.09525439262202884 C 0.10326580629235121 0.09613932853183194 0.10231670931183832 0.10102497843713991 0.10241487687025114 0.1005810872205929" fill="none" stroke="#000000" stroke-width="0.001"/>
<path d="M 0.10241487687025114 0.1005810872205929 C 0.10237864837252308 0.10072898418315603 0.10189073355740742 0.10261562843525586 0.10198013489751442 0.10235585077135032 C 0.10189073355740742 0.10261562843525586 0.10128888794658823 0.1038102998888018 0.10134206078896717 0.10369841918745938" fill="none" stroke="#000000" stroke-width="0.001"/>
<path d="M 0.10134206078896717 0.10369841918745938 C 0.10126227647854223 0.10379335197666913 0.10021721508340686 0.105014523974892 0.10038464906386799 0.10483761265797638 C 0.10021721508340686 0.105014523974892 0.09924520335339745 0.10590333351815276 0.09933285302343364 0.10582135499044688" fill="none" stroke="#000000" stroke-width="0.001"/>
<path d="M 0.09933285302343364 0.10582135499044688 C 0.09919142643134653 0.10588384324099014 0.09727260723551859 0.10666213743906781 0.09763573391838824 0.10657121399696597 C 0.09727260723551859 0.10666213743906781 0.09453604384259978 0.10691243629566903 0.09497533282899781 0.10691243629566903 C 0.09453604384259978 0.10691243629566903 0.0920052505939092 0.10648029055486412 0.09236426608161181 0.10657121399696597 C 0.0920052505939092 0.10648029055486412 0.0905257203844793 0.10575886673990363 0.09066714697656642 0.10582135499044688" fill="none" stroke="none" stroke-width="0"/>
<path d="M 0.09066714697656642 0.10582135499044688 C 0.09057949730653023 0.10573937646274101 0.089447916955671 0.10466070134106076 0.08961535093613213 0.10483761265797638 C 0.089447916955671 0.10466070134106076 0.08857815490060798 0.10360348639824964 0.08865793921103292 0.10369841918745938" fill="none" stroke="#000000" stroke-width="0.001"/>
<path d="M 0.08865793921103292 0.10369841918745938 C 0.08860476636865398 0.10358653848611696 0.08793046376237865 0.10209607310744477 0.08801986510248565 0.10235585077135032 C 0.08793046376237865 0.10209607310744477 0.08754889463202081 0.10043319025802978 0.08758512312974888 0.1005810872205929" fill="none" stroke="#000000" stroke-width="0.001"/>
<path d="M 0.08758512312974888 0.1005810872205929 C 0.08748695557133607 0.1001371960040459 0.08608003114994138 0.09436945671222574 0.08640711242879509 0.09525439262202884 C 0.08608003114994138 0.09436945671222574 0.08343123406306352 0.08952081160969971 0.0836601477835044 0.0899618563029558" fill="none" stroke="#000000" stroke-width="0.001"/>
</g><g transform="translate(0.3373434528286706,0.23715836376383106) rotate(0) scale(1,1) translate(-0.095,-0.09632994090643211)"><path d="M 0.07497818711520889 0.07653922078693011 C 0.07591099396729327 0.07590137127215574 0.08857603130226899 0.06824717709486335 0.08617186934022152 0.06888502660963772 C 0.08857603130226899 0.06824717709486335 0.10623229262182599 0.06952287612441209 0.10382813065977851 0.06888502660963772 C 0.10623229262182599 0.06952287612441209 0.11595461973687554 0.07717707030170448 0.11502181288479116 0.07653922078693011" fill="none" stroke="none" stroke-width="0"/>
<path d="M 0.11502181288479116 0.07653922078693011 C 0.11532484086123342 0.077340682895676 0.1185510077164761 0.08858240293011144 0.11865814860209824 0.08615676609188086 C 0.1185510077164761 0.08858240293011144 0.11332595339526119 0.10727103757518172 0.11373612225732559 0.10564686284569703" fill="none" stroke="none" stroke-width="0"/>
<path d="M 0.11373612225732559 0.10564686284569703 C 0.11351740151644449 0.10586119754128821 0.11049641870710403 0.10882309599823564 0.11111147336675242 0.10821887919279123 C 0.11049641870710403 0.10882309599823564 0.10595913242277756 0.11328734662088316 0.10635546634154486 0.11289746451102993" fill="none" stroke="#000000" stroke-width="0.001"/>
<path d="M 0.10635546634154486 0.11289746451102993 C 0.10601608076609342 0.11305306082439705 0.1013365505743323 0.11505775711019567 0.1022828394361277 0.1147646202714354 C 0.1013365505743323 0.11505775711019567 0.09378619342731208 0.11641510657615319 0.09500000000000003 0.11641510657615319 C 0.09378619342731208 0.11641510657615319 0.08677087170207695 0.11447148343267513 0.08771716056387235 0.1147646202714354 C 0.08677087170207695 0.11447148343267513 0.08330514808300377 0.11274186819766281 0.0836445336584552 0.11289746451102993" fill="none" stroke="none" stroke-width="0"/>
<path d="M 0.0836445336584552 0.11289746451102993 C 0.0832481997396879 0.1125075824011767 0.07827347197359923 0.10761466238734682 0.07888852663324762 0.10821887919279123 C 0.07827347197359923 0.10761466238734682 0.07604515700179337 0.10543252815010586 0.07626387774267447 0.10564686284569703" fill="none" stroke="#000000" stroke-width="0.001"/>
<path d="M 0.07626387774267447 0.10564686284569703 C 0.07585370888061009 0.10402268811621235 0.07123471051227971 0.08373112925365028 0.07134185139790185 0.08615676609188086 C 0.07123471051227971 0.08373112925365028 0.07528121509165114 0.07573775867818422 0.07497818711520889 0.07653922078693011" fill="none" stroke="none" stroke-width="0"/>
</g><g transform="translate(0.3373434528286705,0.21987155614485115) rotate(0) scale(1,1) translate(-0.027392108961499424,-0.025875389182202276)"><path d="M 0.04046858311886087 0.0245780556502559 C 0.040169215445940896 0.024662540950586738 0.03624785216975137 0.025699597709954475 0.03687617104382121 0.025591879254225954 C 0.03624785216975137 0.025699597709954475 0.03259980542887289 0.025893910274395814 0.03292875663002276 0.025870677118998132" fill="none" stroke="#000000" stroke-width="0.001"/>
<path d="M 0.03292875663002276 0.025870677118998132 C 0.03246736932431248 0.025918803804302754 0.026469334350078873 0.026448197342653603 0.027392108961499427 0.026448197342653603 C 0.026469334350078873 0.026448197342653603 0.021394073987265828 0.025822550433693515 0.021855461292976105 0.025870677118998136" fill="none" stroke="none" stroke-width="0"/>
<path d="M 0.021855461292976105 0.025870677118998136 C 0.021526510091826233 0.025847443963600454 0.017279728005107815 0.025484160798497437 0.017908046879177655 0.025591879254225958 C 0.017279728005107815 0.025484160798497437 0.014016267131218072 0.024493570349925064 0.01431563480413804 0.024578055650255903" fill="none" stroke="#000000" stroke-width="0.001"/>
</g><g id="筋肉">
<g transform="translate(0.3373434528286706,0.23715836376383104) rotate(0) scale(1,1) translate(-0.006218922926089482,-0.009647509792301043)"><path d="M 0.011451846736499455 0.007591506757991204 C 0.011369837488081264 0.007647649220588411 0.010231735823159805 0.008397839071767135 0.010467735755481149 0.00826521630915768 C 0.010231735823159805 0.008397839071767135 0.008465856864740174 0.009259460209316924 0.008619847548643327 0.009182979909304674" fill="none" stroke="#000000" stroke-width="0.001"/>
<path d="M 0.008619847548643327 0.009182979909304674 C 0.00841977049676384 0.009281171754351582 0.005818768822330509 0.010356215297894138 0.006218922926089482 0.010361282049867571 C 0.005818768822330509 0.010356215297894138 0.003617921251656156 0.009018920288603129 0.0038179983035356428 0.00912217888562347" fill="none" stroke="#000000" stroke-width="0.001"/>
<path d="M 0.0038179983035356428 0.00912217888562347 C 0.003664007619632491 0.009040631833637788 0.001734110164376478 0.008000857995238949 0.001970110096697822 0.008143614261795272 C 0.001734110164376478 0.008000857995238949 0.000903989867261324 0.007347894472376951 0.000985999115679516 0.007409103686947591" fill="none" stroke="#000000" stroke-width="0.001"/>
</g><g transform="translate(0.33080353711486177,0.22274431948109802) rotate(0) scale(1,1) translate(-0.03649433879459807,-0.02487077539596666)"><path d="M 0.036165054023246546 0.03457606091321448 C 0.035959282876937566 0.03440695827700532 0.033325338635225556 0.032143589339547696 0.03369580026753882 0.032546829278704566 C 0.033325338635225556 0.032143589339547696 0.031554823949483085 0.029503044340384376 0.03171951443548737 0.029737181643332083" fill="none" stroke="none" stroke-width="0"/>
<path d="M 0.03171951443548737 0.029737181643332083 C 0.03158356629046793 0.029321385187265132 0.03009285341112644 0.024155440973668004 0.03008813669525401 0.024747624170528667 C 0.03009285341112644 0.024155440973668004 0.03191677988684844 0.022454596540210432 0.031776115025956564 0.022630983281004144" fill="none" stroke="#000000" stroke-width="0.001"/>
<path d="M 0.031776115025956564 0.022630983281004144 C 0.03231427347502231 0.022640239494244502 0.038980871018160834 0.022773681654588086 0.03823401641474555 0.02274205783988844 C 0.038980871018160834 0.022773681654588086 0.04094706642128947 0.023032836658859173 0.04073837026693994 0.023010469057399886" fill="none" stroke="none" stroke-width="0"/>
<path d="M 0.04073837026693994 0.023010469057399886 C 0.04084033919905746 0.02316398353356927 0.04206848872237339 0.02548028725982726 0.041961997452350186 0.024852642771432513 C 0.04206848872237339 0.02548028725982726 0.04202078784512406 0.031016332930362232 0.042016265507218375 0.03054220291813687" fill="none" stroke="#000000" stroke-width="0.001"/>
<path d="M 0.042016265507218375 0.03054220291813687 C 0.04179160959219266 0.030900236807170023 0.03883279356991218 0.03517476441945785 0.03932039452690983 0.034838609586534716 C 0.03883279356991218 0.03517476441945785 0.035902108981274605 0.03455418185710446 0.036165054023246546 0.03457606091321448" fill="none" stroke="#000000" stroke-width="0.001"/>
</g><g transform="translate(0.34388336854247936,0.22274431948109802) rotate(0) scale(1,1) translate(-0.03649433879459807,-0.02487077539596666)"><path d="M 0.03682362356594955 0.03457606091321448 C 0.03656067852397761 0.034597939969324504 0.03318068210528865 0.034502454753611585 0.033668283062286294 0.034838609586534716 C 0.03318068210528865 0.034502454753611585 0.03074775616695209 0.030184169029103716 0.030972412081977797 0.03054220291813687" fill="none" stroke="#000000" stroke-width="0.001"/>
<path d="M 0.030972412081977797 0.03054220291813687 C 0.03097693441988348 0.030068072905911507 0.031133171406869168 0.024224998283037764 0.031026680136845966 0.024852642771432513 C 0.031133171406869168 0.024224998283037764 0.03235227625437376 0.0228569545812305 0.032250307322256234 0.023010469057399886" fill="none" stroke="#000000" stroke-width="0.001"/>
<path d="M 0.032250307322256234 0.023010469057399886 C 0.03245900347660577 0.022988101455940598 0.035501515777865915 0.022710434025188794 0.034754661174450634 0.02274205783988844 C 0.035501515777865915 0.022710434025188794 0.04175072101230537 0.022621727067763785 0.04121256256323962 0.022630983281004144" fill="none" stroke="none" stroke-width="0"/>
<path d="M 0.04121256256323962 0.022630983281004144 C 0.0413532274241315 0.022807370021797856 0.04290525760981457 0.02533980736738933 0.042900540893942136 0.024747624170528667 C 0.04290525760981457 0.02533980736738933 0.041133215008689335 0.030152978099399035 0.04126916315370878 0.029737181643332083" fill="none" stroke="#000000" stroke-width="0.001"/>
<path d="M 0.04126916315370878 0.029737181643332083 C 0.04110447266770449 0.02997131894627979 0.03892241568934408 0.032950069217861436 0.039292877321657343 0.032546829278704566 C 0.03892241568934408 0.032950069217861436 0.036617852419640565 0.03474516354942364 0.03682362356594955 0.03457606091321448" fill="none" stroke="none" stroke-width="0"/>
</g><g transform="translate(0.3157769004770384,0.21953542623256544) rotate(0) scale(1,1) translate(-0.006478044714676546,-0.010275205513680292)"><path d="M 0.012374892246811325 0.015608519878510644 C 0.011917942730245665 0.015155605532303648 0.008975380152993859 0.011932245664021675 0.009633195147417364 0.012891033801268669 C 0.008975380152993859 0.011932245664021675 0.008227136802412455 0.009349917263988683 0.008428002280270299 0.00985579105502868" fill="none" stroke="#000000" stroke-width="0.001"/>
</g><g transform="translate(0.3589100051803027,0.21953542623256544) rotate(0) scale(1,1) translate(-0.006478044714676546,-0.010275205513680292)"><path d="M 0.004528087149082688 0.00985579105502868 C 0.004327221671224842 0.010361664846068678 0.002665079287512101 0.013849821938515663 0.0033228942819356106 0.012891033801268669 C 0.002665079287512101 0.013849821938515663 0.00012424766597596612 0.01606143422471764 0.0005811971825416296 0.015608519878510644" fill="none" stroke="#000000" stroke-width="0.001"/>
</g><g transform="translate(0.3169666551230875,0.23997858678515727) rotate(0) scale(1,1) translate(-0.006478044714676546,-0.010275205513680292)"><path d="M 0.008117085971517946 0.016764994511527853 C 0.007938810827591548 0.016439265420316023 0.005664283190704173 0.01218451262789532 0.005977784244401178 0.012856245416985875 C 0.005664283190704173 0.01218451262789532 0.004219847417383281 0.008358197344562472 0.004355073327153888 0.008704201042441195" fill="none" stroke="#000000" stroke-width="0.001"/>
</g><g transform="translate(0.35772025053425377,0.23997858678515727) rotate(0) scale(1,1) translate(-0.006478044714676546,-0.010275205513680292)"><path d="M 0.0086010161021991 0.008704201042441195 C 0.008465790192428496 0.009050204740319917 0.006664804131254854 0.01352797820607643 0.0069783051849518565 0.012856245416985875 C 0.006664804131254854 0.01352797820607643 0.004660728313908667 0.017090723602739683 0.004839003457835066 0.016764994511527853" fill="none" stroke="#000000" stroke-width="0.001"/>
</g></g>
<g transform="translate(0.3373434528286705,0.22437515707292727) rotate(0) scale(1,1) translate(-0.017697491909778828,-0.017697491909778828)"><path d="M 0.015936232638433596 0.01769749190977883 C 0.015979221046529372 0.017601492451767897 0.01659886514152837 0.01640973467814811 0.016452093535582933 0.016545498413647636 C 0.01659886514152837 0.01640973467814811 0.017905058305478137 0.016068327083784494 0.01769749190977882 0.016068327083784494 C 0.017905058305478137 0.016068327083784494 0.01908966188992015 0.01668126214914716 0.018942890283974712 0.016545498413647632 C 0.01908966188992015 0.01668126214914716 0.019501739589219837 0.017793491367789762 0.019458751181124057 0.017697491909778828" fill="none" stroke="none" stroke-width="0"/>
<path d="M 0.019458751181124057 0.017697491909778828 C 0.01937215593361625 0.017899528461348128 0.018272836605084934 0.020614702605608697 0.01841960821103037 0.02012193052861041 C 0.018272836605084934 0.020614702605608697 0.017637315551341202 0.023901492359187277 0.01769749190977883 0.023610756833758288" fill="none" stroke="none" stroke-width="0"/>
<path d="M 0.01769749190977883 0.023610756833758288 C 0.017637315551341202 0.0233200213083293 0.016828604002581845 0.01962915845161212 0.01697537560852728 0.02012193052861041 C 0.016828604002581845 0.01962915845161212 0.015849637390925788 0.01749545535820953 0.015936232638433596 0.01769749190977883" fill="none" stroke="none" stroke-width="0"/>
</g><g transform="translate(0.3373434528286705,0.22437515707292727) rotate(0) scale(1,1) translate(-0.35878523175949983,-0.3587852317595001)"><path d="M 0.3591292968750171 0.3574260459463944 C 0.3591756892959546 0.3574693095116927 0.35975011867518236 0.3580584742143996 0.35968600592626715 0.35794520872997415 C 0.35975011867518236 0.3580584742143996 0.35989864986199993 0.3589252355977544 0.35989864986199993 0.35878523175950006 C 0.35989864986199993 0.3589252355977544 0.35962189317735194 0.3597385202734517 0.35968600592626715 0.35962525478902624 C 0.35962189317735194 0.3597385202734517 0.35902556026816007 0.3601876811379041 0.3591292968750171 0.3601444175726058 C 0.35902556026816007 0.3601876811379041 0.3583374300371256 0.36010115400730747 0.3584411666439826 0.3601444175726058 C 0.3583374300371256 0.36010115400730747 0.3578203448438175 0.35951198930460077 0.3578844575927327 0.35962525478902624 C 0.3578203448438175 0.35951198930460077 0.35767181365699985 0.3586452279212457 0.35767181365699985 0.35878523175950006 C 0.35767181365699985 0.3586452279212457 0.3579485703416479 0.3578319432455487 0.3578844575927327 0.35794520872997415 C 0.3579485703416479 0.3578319432455487 0.35848755906492014 0.35738278238109605 0.3584411666439826 0.3574260459463944" fill="none" stroke="#000000" stroke-width="0.001"/>
</g><g id="虫性">
<g transform="translate(0.3373434528286707,0.2440104653354848) rotate(0) scale(1,1) translate(-0.019192864762988458,-0.012340763191334692)"><path d="M -0.0073220076384178726 -0.004089957097726987 C -0.00687028609731228 -0.004064609079737831 -0.0010769637215450067 -0.003410582191408991 -0.0019013491451507656 -0.003785780881857115 C -0.0010769637215450067 -0.003410582191408991 0.002943281327351403 0.0007622778601094653 0.0025706174448512364 0.0004124271876504976" fill="none" stroke="none" stroke-width="0"/>
<path d="M 0.0025706174448512364 0.0004124271876504976 C 0.002866944129919426 0.0009638402715725454 0.006694317208003956 0.008093862331544794 0.006126537665669511 0.007029384194715071 C 0.006694317208003956 0.008093862331544794 0.009655424810130823 0.013699229882514848 0.009383971952864568 0.013186164829607173" fill="none" stroke="none" stroke-width="0"/>
<path d="M 0.009383971952864568 0.013186164829607173 C 0.01020137968704156 0.013746086866999907 0.020827680231342467 0.01990522927831998 0.019192864762988482 0.01990522927831998 C 0.020827680231342467 0.01990522927831998 0.029819165307289383 0.01262624279221444 0.02900175757311239 0.013186164829607173" fill="none" stroke="none" stroke-width="0"/>
<path d="M 0.02900175757311239 0.013186164829607173 C 0.02927321043037864 0.012673099776699498 0.03282697140264184 0.005964906057885347 0.0322591918603074 0.00702938419471507 C 0.03282697140264184 0.005964906057885347 0.03611143876619383 -0.00013898589627155014 0.035815112081125644 0.0004124271876504976" fill="none" stroke="none" stroke-width="0"/>
<path d="M 0.035815112081125644 0.0004124271876504976 C 0.03618777596362581 6.25765151915299E-05 0.04111146409473341 -0.004160979572305239 0.04028707867112765 -0.003785780881857115 C 0.04111146409473341 -0.004160979572305239 0.04615945870550036 -0.004115305115716145 0.04570773716439477 -0.004089957097726989" fill="none" stroke="none" stroke-width="0"/>
<path d="M 0.04570773716439477 -0.004089957097726989 C 0.04615713006798952 -0.0034801134871032596 0.049371389786988615 0.0016220507441429706 0.04840409458596331 -0.00043089543398461304 C 0.049371389786988615 0.0016220507441429706 0.05202941066797714 0.00967082253854237 0.05151150837054659 0.008227719971038515" fill="none" stroke="#000000" stroke-width="0.001"/>
<path d="M 0.05151150837054659 0.008227719971038515 C 0.050745158634650685 0.00844036694533559 0.041051250226008085 0.011515831515697975 0.0423153115397957 0.010779483662603414 C 0.041051250226008085 0.011515831515697975 0.03584506102720344 0.017587595086970723 0.03634277260509515 0.01706389420817324" fill="none" stroke="#000000" stroke-width="0.001"/>
<path d="M 0.03634277260509515 0.01706389420817324 C 0.035705767321077636 0.017656816407561136 0.027269550210042775 0.025633547383673655 0.028698709196884997 0.024178960600828026 C 0.027269550210042775 0.025633547383673655 0.018711679731602524 0.035813271611688874 0.01919286476298849 0.0345189356023208 C 0.018711679731602524 0.035813271611688874 0.02323545749169218 0.04014366413915531 0.022924488820253434 0.039710992713244964" fill="none" stroke="#000000" stroke-width="0.001"/>
<path d="M 0.022924488820253434 0.039710992713244964 C 0.022302551477375948 0.04001513339297352 0.019192864762988506 0.04153583679161632 0.019192864762988506 0.04153583679161632 C 0.019192864762988506 0.04153583679161632 0.02354642616313092 0.039406852033516404 0.022924488820253434 0.039710992713244964" fill="none" stroke="#000000" stroke-width="0.001"/>
<path d="M 0.022924488820253434 0.039710992713244964 C 0.023004663490714533 0.040110050857765 0.024348080962954377 0.04534201059687871 0.023886584865786622 0.044499690447485404 C 0.024348080962954377 0.04534201059687871 0.02884376341297313 0.05026209651083787 0.028462441986266476 0.0498188345059646" fill="none" stroke="#000000" stroke-width="0.001"/>
<path d="M 0.028462441986266476 0.0498188345059646 C 0.02802787789990284 0.04965841430542563 0.022475208181296332 0.047359520496612656 0.02324767294990283 0.047893792099496874 C 0.022475208181296332 0.047359520496612656 0.018854964080745627 0.04303372386900878 0.01919286476298849 0.04340757527135401" fill="none" stroke="#000000" stroke-width="0.001"/>
<path d="M 0.01919286476298849 0.04340757527135401 C 0.018854964080745624 0.04378142667369925 0.014365591807467623 0.04842806370238109 0.015138056576074123 0.047893792099496874 C 0.014365591807467623 0.04842806370238109 0.009488723453346858 0.04997925470650358 0.009923287539710493 0.0498188345059646" fill="none" stroke="#000000" stroke-width="0.001"/>
<path d="M 0.009923287539710493 0.0498188345059646 C 0.010304608966417148 0.049375572501091335 0.014960640757358097 0.04365737029809209 0.014499144660190342 0.04449969044748539 C 0.014960640757358097 0.04365737029809209 0.015541415376184666 0.03931193456872493 0.015461240705723564 0.039710992713244964" fill="none" stroke="#000000" stroke-width="0.001"/>
<path d="M 0.015461240705723564 0.039710992713244964 C 0.016083178048601054 0.04001513339297352 0.019192864762988506 0.04153583679161632 0.019192864762988506 0.04153583679161632 C 0.019192864762988506 0.04153583679161632 0.014839303362846074 0.039406852033516404 0.015461240705723564 0.039710992713244964" fill="none" stroke="#000000" stroke-width="0.001"/>
<path d="M 0.015461240705723564 0.039710992713244964 C 0.015772209377162307 0.03927832128733462 0.018711679731602524 0.03322459959295272 0.01919286476298849 0.0345189356023208 C 0.018711679731602524 0.03322459959295272 0.008257861342249777 0.022724373817982396 0.009687020329091998 0.024178960600828026 C 0.008257861342249777 0.022724373817982396 0.001405951636864336 0.01647097200878534 0.0020429569208818485 0.01706389420817324" fill="none" stroke="#000000" stroke-width="0.001"/>
<path d="M 0.0020429569208818485 0.01706389420817324 C 0.0015452453429901365 0.016540193329375754 -0.005193643327606324 0.010043135809508854 -0.0039295820138186945 0.010779483662603414 C -0.005193643327606324 0.010043135809508854 -0.013892128580465627 0.008015072996741448 -0.013125778844569709 0.008227719971038522" fill="none" stroke="#000000" stroke-width="0.001"/>
<path d="M -0.013125778844569709 0.008227719971038522 C -0.012607876547139138 0.006784617403534667 -0.00905106985896098 -0.0024838416121121913 -0.010018365059986285 -0.00043089543398460697 C -0.00905106985896098 -0.0024838416121121913 -0.006872614734823145 -0.004699800708350713 -0.0073220076384178795 -0.004089957097726984" fill="none" stroke="#000000" stroke-width="0.001"/>
</g><g transform="translate(0.3373434528286706,0.23715836376383104) rotate(0) scale(1,1) translate(-0.01919286476298845,-0.01919286476298845)"><path d="M -0.0010891599937096705 -0.0007703532775328377 C -0.0007826107256185034 -0.0005802853952936016 0.0032866670310292105 0.001865616694024347 0.0025894312233843346 0.0015104613093379958 C 0.0032866670310292105 0.001865616694024347 0.0076683562375825486 0.0036565988411504905 0.00727766969802884 0.0034915113387033753" fill="none" stroke="#000000" stroke-width="0.001"/>
<path d="M 0.00727766969802884 0.0034915113387033753 C 0.007717187632429821 0.00408745356235007 0.01316933722661827 0.011706955611986593 0.01255188491084061 0.010642818022463712 C 0.01316933722661827 0.011706955611986593 0.014865031868737449 0.016729357778854145 0.01468709748736077 0.016261162412977957" fill="none" stroke="#000000" stroke-width="0.001"/>
<path d="M 0.01468709748736077 0.016261162412977957 C 0.015062578093663077 0.016472445485108372 0.019943825975593077 0.018796559278542953 0.01919286476298846 0.018796559278542953 C 0.019943825975593077 0.018796559278542953 0.024074112644918457 0.01604987934084754 0.02369863203861615 0.016261162412977957" fill="none" stroke="#000000" stroke-width="0.001"/>
<path d="M 0.02369863203861615 0.016261162412977957 C 0.023876566419992827 0.01579296704710177 0.02645129693091394 0.00957868043294083 0.02583384461513628 0.010642818022463712 C 0.02645129693091394 0.00957868043294083 0.031547577762349024 0.0028955691150566805 0.031108059827948047 0.0034915113387033753" fill="none" stroke="#000000" stroke-width="0.001"/>
<path d="M 0.031108059827948047 0.0034915113387033753 C 0.03149874636750176 0.00332642383625626 0.03649353411023745 0.0011553059246516438 0.035796298302592566 0.001510461309337995 C 0.03649353411023745 0.0011553059246516438 0.039781438787777845 -0.0009604211597720757 0.03947488951968667 -0.0007703532775328395" fill="none" stroke="#000000" stroke-width="0.001"/>
<path d="M 0.03947488951968667 -0.0007703532775328395 C 0.04010008863843311 0.00023448783048067795 0.04426489217295001 0.0069894599244004875 0.04322608423216532 0.005258693370548266 C 0.04426489217295001 0.0069894599244004875 0.04612134598643304 0.010340171491419197 0.045707737164394795 0.009614246045580492" fill="none" stroke="#000000" stroke-width="0.001"/>
<path d="M 0.045707737164394795 0.009614246045580492 C 0.0452560156232892 0.009639594063569651 0.03946269324752192 0.010293620951898518 0.04028707867112768 0.009918422261450389 C 0.03946269324752192 0.010293620951898518 0.035442448198625506 0.01446648100341701 0.03581511208112567 0.014116630330958039" fill="none" stroke="#000000" stroke-width="0.001"/>
<path d="M 0.03581511208112567 0.014116630330958039 C 0.03551878539605748 0.014668043414880082 0.03169141231797299 0.021798065474852288 0.03225919186030743 0.02073358733802257 C 0.03169141231797299 0.021798065474852288 0.02873030471584615 0.02740343302582232 0.029001757573112404 0.026890367972914647" fill="none" stroke="#000000" stroke-width="0.001"/>
<path d="M 0.029001757573112404 0.026890367972914647 C 0.02818434983893541 0.027450290010307386 0.017558049294634517 0.0336094324216275 0.019192864762988503 0.0336094324216275 C 0.017558049294634517 0.0336094324216275 0.008566564218687593 0.026330445935521907 0.009383971952864585 0.026890367972914647" fill="none" stroke="#000000" stroke-width="0.001"/>
<path d="M 0.009383971952864585 0.026890367972914647 C 0.00911251909559833 0.02637730292000697 0.005558758123335087 0.01966910920119285 0.006126537665669531 0.02073358733802257 C 0.005558758123335087 0.01966910920119285 0.0022742907597830676 0.013565217247035995 0.0025706174448512573 0.014116630330958039" fill="none" stroke="#000000" stroke-width="0.001"/>
<path d="M 0.0025706174448512573 0.014116630330958039 C 0.0021979535623510905 0.013766779658499068 -0.002725734568756505 0.009543223571002265 -0.0019013491451507457 0.009918422261450392 C -0.002725734568756505 0.009543223571002265 -0.007773729179523447 0.009588898027591341 -0.007322007638417855 0.0096142460455805" fill="none" stroke="#000000" stroke-width="0.001"/>
<path d="M -0.007322007638417855 0.0096142460455805 C -0.00690839881637961 0.008888320599741794 -0.00380154676540369 0.003527926816696043 -0.004840354706188386 0.005258693370548266 C -0.00380154676540369 0.003527926816696043 -0.0004639608749632259 -0.0017751943855463508 -0.0010891599937096774 -0.0007703532775328343" fill="none" stroke="#000000" stroke-width="0.001"/>
</g></g>
<g id="淫タトゥ">
<g id="渦">
<g transform="translate(0.3373434528286706,0.23715836376383104) rotate(0) scale(1,1) translate(-0.004044276755330287,-0.0037120127838791922)"><path d="M -0.01807782232743366 -0.012746983685705985 C -0.01801526259556657 -0.012865663866163057 -0.017202713948035204 -0.01440873502848567 -0.01732710554502855 -0.014171145851190847 C -0.017202713948035204 -0.01440873502848567 -0.01652329129838727 -0.015716962810081614 -0.016585123163513522 -0.015598053813243863" fill="none" stroke="#000000" stroke-width="0.001"/>
<path d="M -0.016585123163513522 -0.015598053813243863 C -0.016569233233429813 -0.015512014623992449 -0.016299620096498456 -0.014397913093899376 -0.01639444400250903 -0.01456558354222689 C -0.016299620096498456 -0.014397913093899376 -0.015254940570512427 -0.013424306447892114 -0.015447236291386637 -0.013586008433313692 C -0.015254940570512427 -0.013424306447892114 -0.013855332211761752 -0.012423340229013176 -0.014086895352018517 -0.012625159717167954 C -0.013855332211761752 -0.012423340229013176 -0.012459773270124817 -0.010830301179716085 -0.012668478608305445 -0.011164174575456352 C -0.012459773270124817 -0.010830301179716085 -0.011530280283682333 -0.008162209755659303 -0.011582431293850982 -0.008618678968284749 C -0.011530280283682333 -0.008162209755659303 -0.012269030504532649 -0.005279679869397699 -0.012042666486281647 -0.005686544023951004 C -0.012269030504532649 -0.005279679869397699 -0.014709921193751646 -0.003570692815248436 -0.014298799512863001 -0.0037363091136450835 C -0.014709921193751646 -0.003570692815248436 -0.01734814829255564 -0.0038256178075819058 -0.016976126656945374 -0.0036991484431912356 C -0.01734814829255564 -0.0038256178075819058 -0.018925369304887637 -0.0055585731072787066 -0.018763059140186174 -0.005253941486333123 C -0.018925369304887637 -0.0055585731072787066 -0.018851697816301218 -0.007627440111508047 -0.018923848633362918 -0.007354727894538243 C -0.018851697816301218 -0.007627440111508047 -0.01767892612017938 -0.008620266024813722 -0.017897249335445793 -0.008526488089970762 C -0.01767892612017938 -0.008620266024813722 -0.01610113300608227 -0.008397337376560558 -0.016303970050165973 -0.00848006311265376 C -0.01610113300608227 -0.008397337376560558 -0.015406602804658727 -0.007360784355207522 -0.01546320480644138 -0.0075337792568523285 C -0.015406602804658727 -0.007360784355207522 -0.015697423669270037 -0.006243832432701157 -0.015624746028774138 -0.006404124292916081 C -0.015697423669270037 -0.006243832432701157 -0.016394552364360333 -0.005544122987719677 -0.016335336492392164 -0.005610276934273246" fill="none" stroke="none" stroke-width="0"/>
<path d="M -0.016335336492392164 -0.005610276934273246 C -0.016310569874157688 -0.005676521399138085 -0.016017940099833924 -0.0065540374447528044 -0.016038137073578443 -0.006405210512651313 C -0.016017940099833924 -0.0065540374447528044 -0.01617834687210438 -0.007526714562871934 -0.016092972807457917 -0.007396200119491152 C -0.01617834687210438 -0.007526714562871934 -0.017224778844138186 -0.007977176581876803 -0.017062625849336002 -0.007971383833220705 C -0.017224778844138186 -0.007977176581876803 -0.018125180255983402 -0.007285661417384388 -0.018038808745084105 -0.007465713103364331 C -0.018125180255983402 -0.007285661417384388 -0.018002350728338105 -0.005564992759329239 -0.018099083980127547 -0.0058107636014613955 C -0.018002350728338105 -0.005564992759329239 -0.01661173214232693 -0.004408785415389118 -0.016878009723610813 -0.004516462997778447 C -0.01661173214232693 -0.004408785415389118 -0.014617734887005757 -0.004635868292409862 -0.014903753004720926 -0.004518632612789451 C -0.014617734887005757 -0.004635868292409862 -0.013310313277549111 -0.0062164843016456126 -0.013445792311028791 -0.005923291153223388 C -0.013310313277549111 -0.0062164843016456126 -0.013326857479616223 -0.008359866521086733 -0.01327800460296477 -0.008036950393856145 C -0.013326857479616223 -0.008359866521086733 -0.01418205807381487 -0.010040058419074514 -0.014032026830846233 -0.009798284679990457 C -0.01418205807381487 -0.010040058419074514 -0.015258845490200405 -0.011090358298638742 -0.015078379518588404 -0.010938235262864821 C -0.015258845490200405 -0.011090358298638742 -0.016399847361495558 -0.01174017948828053 -0.01619761849019024 -0.011623761109277509 C -0.016399847361495558 -0.01174017948828053 -0.017661809627355838 -0.01242885769227013 -0.01750512597425222 -0.012335255810901091 C -0.017661809627355838 -0.01242885769227013 -0.018125547023532113 -0.012781294341939727 -0.01807782232743366 -0.012746983685705985" fill="none" stroke="none" stroke-width="0"/>
</g><g transform="translate(0.3373434528286706,0.23715836376383104) rotate(0) scale(1,1) translate(-0.004044276755330287,-0.0037120127838791922)"><path d="M 0.026166375838094114 -0.012746983685705985 C 0.02611865114199567 -0.012712673029472243 0.02543699583180914 -0.012241653929532052 0.025593679484912757 -0.012335255810901091 C 0.02543699583180914 -0.012241653929532052 0.02408394312954539 -0.011507342730274487 0.024286172000850703 -0.011623761109277509 C 0.02408394312954539 -0.011507342730274487 0.022986467057637 -0.0107861122270909 0.023166933029248993 -0.010938235262864821 C 0.022986467057637 -0.0107861122270909 0.021970549098538128 -0.0095565109409064 0.022120580341506768 -0.009798284679990457 C 0.021970549098538128 -0.0095565109409064 0.02131770523697385 -0.007714034266625556 0.02136655811362531 -0.008036950393856145 C 0.02131770523697385 -0.007714034266625556 0.0216698248551689 -0.005630098004801163 0.021534345821689227 -0.005923291153223388 C 0.0216698248551689 -0.005630098004801163 0.023278324633096592 -0.0044013969331690396 0.022992306515381422 -0.004518632612789451 C 0.023278324633096592 -0.0044013969331690396 0.025232840815555158 -0.004624140580167776 0.024966563234271266 -0.004516462997778447 C 0.025232840815555158 -0.004624140580167776 0.026284370742577556 -0.006056534443593552 0.026187637490788118 -0.0058107636014613955 C 0.026284370742577556 -0.006056534443593552 0.026040990744845227 -0.007645764789344273 0.026127362255744524 -0.007465713103364331 C 0.026040990744845227 -0.007645764789344273 0.024989026365194383 -0.007965591084564606 0.025151179359996556 -0.007971383833220705 C 0.024989026365194383 -0.007965591084564606 0.024096152253471965 -0.007265685676110369 0.02418152631811843 -0.007396200119491152 C 0.024096152253471965 -0.007265685676110369 0.024146887557983516 -0.006256383580549821 0.024126690584238997 -0.006405210512651313 C 0.024146887557983516 -0.006256383580549821 0.024448656621287146 -0.005544032469408408 0.024423890003052673 -0.005610276934273246" fill="none" stroke="none" stroke-width="0"/>
<path d="M 0.024423890003052673 -0.005610276934273246 C 0.024364674131084507 -0.005676430880826816 0.023640621898938785 -0.006564416153131004 0.023713299539434685 -0.006404124292916081 C 0.023640621898938785 -0.006564416153131004 0.023608360318884525 -0.007706774158497135 0.02355175831710188 -0.0075337792568523285 C 0.023608360318884525 -0.007706774158497135 0.02459536060491015 -0.008562788848746963 0.02439252356082644 -0.00848006311265376 C 0.02459536060491015 -0.008562788848746963 0.026204126061372828 -0.008432710155127802 0.02598580284610641 -0.008526488089970762 C 0.026204126061372828 -0.008432710155127802 0.02708455296108514 -0.007082015677568439 0.02701240214402345 -0.007354727894538243 C 0.02708455296108514 -0.007082015677568439 0.026689302486145223 -0.004949309865387539 0.02685161265084668 -0.005253941486333123 C 0.026689302486145223 -0.004949309865387539 0.02469265853199572 -0.0035726790788005655 0.02506468016760599 -0.0036991484431912356 C 0.02469265853199572 -0.0035726790788005655 0.021976231342634805 -0.003901925412041731 0.02238735302352346 -0.0037363091136450835 C 0.021976231342634805 -0.003901925412041731 0.019904855978691127 -0.00609340817850431 0.020131219996942118 -0.005686544023951004 C 0.019904855978691127 -0.00609340817850431 0.019723135814680232 -0.009075148180910195 0.01967098480451157 -0.008618678968284749 C 0.019723135814680232 -0.009075148180910195 0.020965737457146694 -0.011498047971196619 0.020757032118966068 -0.011164174575456352 C 0.020965737457146694 -0.011498047971196619 0.02240701200293584 -0.012826979205322732 0.02217544886267908 -0.012625159717167954 C 0.02240701200293584 -0.012826979205322732 0.023728085522921383 -0.01374771041873527 0.02353578980204718 -0.013586008433313692 C 0.023728085522921383 -0.01374771041873527 0.02457782141918008 -0.014733253990554404 0.024482997513169513 -0.01456558354222689 C 0.02457782141918008 -0.014733253990554404 0.024689566604257678 -0.015684093002495278 0.024673676674173972 -0.015598053813243863" fill="none" stroke="none" stroke-width="0"/>
<path d="M 0.024673676674173972 -0.015598053813243863 C 0.024735508539300233 -0.015479144816406111 0.025540050652682444 -0.013933556673896024 0.0254156590556891 -0.014171145851190847 C 0.025540050652682444 -0.013933556673896024 0.026228935569961198 -0.012628303505248913 0.026166375838094114 -0.012746983685705985" fill="none" stroke="#000000" stroke-width="0.001"/>
</g><g transform="translate(0.3373434528286706,0.23715836376383104) rotate(0) scale(1,1) translate(-0.0050491035115750255,-0.003435371609681657)"><path d="M -0.022362325831208833 -0.004886798506670759 C -0.022282349216884014 -0.0049950634951929015 -0.021236467402732724 -0.006413223483445958 -0.02140260645931101 -0.006185978368936472 C -0.021236467402732724 -0.006413223483445958 -0.020282494710015937 -0.0077327200067719365 -0.020368657152269404 -0.007613739880784593" fill="none" stroke="#000000" stroke-width="0.001"/>
<path d="M -0.020368657152269404 -0.007613739880784593 C -0.02036712359235308 -0.007542762222476321 -0.02030293990518585 -0.006623881276776231 -0.02035025443327351 -0.006762007981085322 C -0.02030293990518585 -0.006623881276776231 -0.019665286191098266 -0.005804768879167521 -0.019800882815217496 -0.005956219429075502 C -0.019665286191098266 -0.005804768879167521 -0.018544965257905936 -0.00474725486871516 -0.018723094943842732 -0.004944601382189548 C -0.018544965257905936 -0.00474725486871516 -0.01751231496596152 -0.0032884487051487213 -0.017663326583975923 -0.0035880612673828485 C -0.01751231496596152 -0.0032884487051487213 -0.01688661087234696 -0.000918338504018642 -0.016910955527669906 -0.0013492506353800227 C -0.01688661087234696 -0.000918338504018642 -0.017599172410320208 0.0019848659312660223 -0.017371190720100564 0.00158288430895372 C -0.017599172410320208 0.0019848659312660223 -0.020059475163162938 0.0036352625985232516 -0.01964673581030565 0.003474528832367607 C -0.020059475163162938 0.0036352625985232516 -0.022696084589998295 0.003385220138430784 -0.02232406295438803 0.0035116895028214547 C -0.022696084589998295 0.003385220138430784 -0.02427330560233029 0.0016522648387339784 -0.024110995437628825 0.0019568964596795623 C -0.02427330560233029 0.0016522648387339784 -0.02419963411374387 -0.0004166021654953541 -0.02427178493080557 -0.00014388994852555142 C -0.02419963411374387 -0.0004166021654953541 -0.023026862417622026 -0.0014094280788010303 -0.023245185632888438 -0.0013156501439580703 C -0.023026862417622026 -0.0014094280788010303 -0.02144906930352493 -0.001186499430547868 -0.021651906347608628 -0.0012692251666410704 C -0.02144906930352493 -0.001186499430547868 -0.02075453910210138 -0.0001499464091948326 -0.02081114110388403 -0.0003229413108396394 C -0.02075453910210138 -0.0001499464091948326 -0.02104535996671269 0.0009670055133115348 -0.02097268232621679 0.0008067136530966114 C -0.02104535996671269 0.0009670055133115348 -0.02174248866180298 0.0016667149582930108 -0.021683272789834812 0.0016005610117394416" fill="none" stroke="none" stroke-width="0"/>
<path d="M -0.021683272789834812 0.0016005610117394416 C -0.021658506171600336 0.0015343165468746029 -0.021365876397276575 0.0006568005012598862 -0.021386073371021094 0.0008056274333613782 C -0.021365876397276575 0.0006568005012598862 -0.021526283169547036 -0.00031587661685924493 -0.021440909104900572 -0.00018536217347846218 C -0.021526283169547036 -0.00031587661685924493 -0.022572715141580837 -0.0007663386358641128 -0.022410562146778657 -0.0007605458872080148 C -0.022572715141580837 -0.0007663386358641128 -0.023473116553426047 -7.482347137169562E-05 -0.023386745042526753 -0.0002548751573516381 C -0.023473116553426047 -7.482347137169562E-05 -0.02335028702578075 0.0016458451866834516 -0.02344702027757019 0.0014000743445512951 C -0.02335028702578075 0.0016458451866834516 -0.02195966843976958 0.0028020525306235683 -0.022225946021053464 0.00269437494823424 C -0.02195966843976958 0.0028020525306235683 -0.019965671184448405 0.0025749696536028236 -0.020251689302163575 0.002692205333223235 C -0.019965671184448405 0.0025749696536028236 -0.01865824957499176 0.0009943536443670804 -0.01879372860847144 0.0012875467927893046 C -0.01865824957499176 0.0009943536443670804 -0.018656015654653198 -0.0011334849226089267 -0.018625940900407423 -0.0008261124478434539 C -0.018656015654653198 -0.0011334849226089267 -0.01925564149161282 -0.0026087870786574516 -0.019154625659420735 -0.00240092290439637 C -0.01925564149161282 -0.0026087870786574516 -0.019959686547123653 -0.003440587743309762 -0.019838130886712442 -0.0033204825389764347 C -0.019959686547123653 -0.003440587743309762 -0.020768935641719007 -0.0039325020789986505 -0.020613293584355253 -0.0038421853563963 C -0.020768935641719007 -0.0039325020789986505 -0.02185158826231528 -0.004491334306060844 -0.021705835575077482 -0.004404283210204639 C -0.02185158826231528 -0.004491334306060844 -0.02241703335255311 -0.004927008114709602 -0.022362325831208833 -0.004886798506670759" fill="none" stroke="none" stroke-width="0"/>
</g><g transform="translate(0.3373434528286706,0.23715836376383104) rotate(0) scale(1,1) translate(-0.0050491035115750255,-0.003435371609681657)"><path d="M 0.032460532854359014 -0.004886798506670759 C 0.032405825333014726 -0.004846588898631915 0.031658289910989755 -0.004317232114348433 0.031804042598227555 -0.004404283210204639 C 0.031658289910989755 -0.004317232114348433 0.03055585855014163 -0.00375186863379395 0.030711500607505382 -0.0038421853563963 C 0.03055585855014163 -0.00375186863379395 0.029814782249451294 -0.0032003773346431074 0.029936337909862498 -0.0033204825389764347 C 0.029814782249451294 -0.0032003773346431074 0.029151816850378875 -0.0021930587301352885 0.02925283268257095 -0.00240092290439637 C 0.029151816850378875 -0.0021930587301352885 0.02869407316931181 -0.0005187399730779811 0.028724147923557597 -0.0008261124478434539 C 0.02869407316931181 -0.0005187399730779811 0.029027414665101187 0.0015807399412115287 0.028891935631621513 0.0012875467927893046 C 0.029027414665101187 0.0015807399412115287 0.030635914443028878 0.0028094410128436465 0.030349896325313708 0.002692205333223235 C 0.030635914443028878 0.0028094410128436465 0.03259043062548744 0.002586697365844912 0.03232415304420355 0.00269437494823424 C 0.03259043062548744 0.002586697365844912 0.03364196055250984 0.0011543035024191386 0.033545227300720404 0.0014000743445512951 C 0.03364196055250984 0.0011543035024191386 0.03339858055477751 -0.00043492684333158065 0.03348495206567681 -0.0002548751573516381 C 0.03339858055477751 -0.00043492684333158065 0.032346616175126665 -0.0007547531385519168 0.03250876916992884 -0.0007605458872080148 C 0.032346616175126665 -0.0007547531385519168 0.031453742063404254 -5.484773009767943E-05 0.031539116128050715 -0.00018536217347846218 C 0.031453742063404254 -5.484773009767943E-05 0.031504477367915805 0.0009544543654628702 0.03148428039417128 0.0008056274333613782 C 0.031504477367915805 0.0009544543654628702 0.03180624643121943 0.0016668054766042803 0.03178147981298496 0.0016005610117394416" fill="none" stroke="none" stroke-width="0"/>
<path d="M 0.03178147981298496 0.0016005610117394416 C 0.03172226394101679 0.0015344070651858723 0.03099821170887107 0.000646421792881688 0.03107088934936697 0.0008067136530966114 C 0.03099821170887107 0.000646421792881688 0.03096595012881681 -0.0004959362124844462 0.030909348127034164 -0.0003229413108396394 C 0.03096595012881681 -0.0004959362124844462 0.03195295041484242 -0.001351950902734273 0.031750113370758726 -0.0012692251666410704 C 0.03195295041484242 -0.001351950902734273 0.03356171587130489 -0.0012218722091151104 0.03334339265603847 -0.0013156501439580703 C 0.03356171587130489 -0.0012218722091151104 0.034442142771017446 0.00012882226844425126 0.034369991953955736 -0.00014388994852555142 C 0.034442142771017446 0.00012882226844425126 0.03404689229607749 0.002261528080625146 0.034209202460778965 0.0019568964596795623 C 0.03404689229607749 0.002261528080625146 0.03205024834192779 0.0036381588672121253 0.032422269977538054 0.0035116895028214547 C 0.03205024834192779 0.0036381588672121253 0.02933220348059847 0.003313795066211962 0.029744942833455745 0.003474528832367607 C 0.02933220348059847 0.003313795066211962 0.027241416053031098 0.0011809026866414175 0.027469397743250745 0.00158288430895372 C 0.027241416053031098 0.0011809026866414175 0.02703350720614291 -0.0017801627667414033 0.027009162550819976 -0.0013492506353800227 C 0.02703350720614291 -0.0017801627667414033 0.02791254522514038 -0.0038876738296169757 0.027761533607125966 -0.0035880612673828485 C 0.02791254522514038 -0.0038876738296169757 0.028999431652929748 -0.005141947895663936 0.02882130196699295 -0.004944601382189548 C 0.028999431652929748 -0.005141947895663936 0.030034686462486748 -0.006107669978983483 0.029899089838367532 -0.005956219429075502 C 0.030034686462486748 -0.006107669978983483 0.030495775984511215 -0.006900134685394413 0.030448461456423548 -0.006762007981085322 C 0.030495775984511215 -0.006900134685394413 0.030468397735335884 -0.007684717539092866 0.03046686417541955 -0.007613739880784593" fill="none" stroke="none" stroke-width="0"/>
<path d="M 0.03046686417541955 -0.007613739880784593 C 0.030553026617673007 -0.00749475975479725 0.03166695253903932 -0.0059587332544269855 0.03150081348246103 -0.006185978368936472 C 0.03166695253903932 -0.0059587332544269855 0.032540509468683844 -0.004778533518148616 0.032460532854359014 -0.004886798506670759" fill="none" stroke="#000000" stroke-width="0.001"/>
</g></g>
<g id="ハート">
<g transform="translate(0.3373434528286706,0.23715836376383104) rotate(0) scale(1,1) translate(4.531817165381619E-05,-0.007618185234386916)"><path d="M -0.03587690239336134 0.017215967939827038 C -0.0358566846057845 0.017177597184486103 -0.03558100213928624 0.016656136477773947 -0.03563428894243927 0.01675551887573584 C -0.03558100213928624 0.016656136477773947 -0.03514713205818319 0.015872362617860694 -0.035237460755525 0.01602337916428436 C -0.03514713205818319 0.015872362617860694 -0.03441123650400947 0.014727451215627319 -0.03455034457433751 0.014943320318651823 C -0.03441123650400947 0.014727451215627319 -0.03346332067559758 0.013240126956613626 -0.03356816391158851 0.0134329499279903 C -0.03346332067559758 0.013240126956613626 -0.03328255184739747 0.012563819094183377 -0.03329222574244636 0.012629444662131742 C -0.03328255184739747 0.012563819094183377 -0.033486772630428784 0.012679825836474319 -0.03345207717100185 0.012645443112609909 C -0.033486772630428784 0.012679825836474319 -0.03376600379333935 0.013142900245453438 -0.03370857125556955 0.01304203734850467 C -0.03376600379333935 0.013142900245453438 -0.03417732565496194 0.013923611253285988 -0.03414126762423945 0.013855797875995118" fill="none" stroke="none" stroke-width="0"/>
<path d="M -0.03414126762423945 0.013855797875995118 C -0.03412941010695774 0.013832833453523246 -0.03397421291238859 0.013532226911320935 -0.03399897741685894 0.013580224806332659 C -0.03397421291238859 0.013532226911320935 -0.03383118658340656 0.013254789663314571 -0.0338440935705952 0.013279823135854425" fill="none" stroke="#000000" stroke-width="0.001"/>
<path d="M -0.0338440935705952 0.013279823135854425 C -0.03380430516363684 0.013204195735673378 -0.03328308188884773 0.012258883892351942 -0.03336663268709489 0.012372294333681876 C -0.03328308188884773 0.012258883892351942 -0.032766423600821576 0.011901969597056144 -0.0328414839916293 0.011918897839895222 C -0.032766423600821576 0.011901969597056144 -0.03245827851904832 0.01229944420397284 -0.03246590799740222 0.012169155419612939 C -0.03245827851904832 0.01229944420397284 -0.03288265461404952 0.013737224436754993 -0.03274993025138253 0.013482363252214039 C -0.03288265461404952 0.013737224436754993 -0.03425847028399893 0.015494035241793234 -0.0340586003494061 0.015227489634104384 C -0.03425847028399893 0.015494035241793234 -0.03531950429022203 0.016956696294667898 -0.03514836946649644 0.016680910544480235 C -0.03531950429022203 0.016956696294667898 -0.03629264517042077 0.018976653324095434 -0.03611221823411316 0.018536918636356346 C -0.03629264517042077 0.018976653324095434 -0.037413598907860675 0.0222427941440987 -0.03731349270218779 0.02195772679734929" fill="none" stroke="none" stroke-width="0"/>
<path d="M -0.03731349270218779 0.02195772679734929 C -0.03726274117954573 0.02178365369703179 -0.03658475857141412 0.0194737030220791 -0.03670447443048299 0.019868849593539288 C -0.03658475857141412 0.0194737030220791 -0.03580793805693454 0.01699489446868435 -0.03587690239336134 0.017215967939827038" fill="none" stroke="#000000" stroke-width="0.001"/>
</g><g transform="translate(0.3373434528286706,0.23715836376383104) rotate(0) scale(1,1) translate(4.531817165381619E-05,-0.007618185234386916)"><path d="M 0.03578626605005386 0.017215967939827038 C 0.035855230386480655 0.017437041410969724 0.03673355394624423 0.020263996164999475 0.03661383808717537 0.019868849593539288 C 0.03673355394624423 0.020263996164999475 0.03727360788152228 0.022131799897666792 0.03722285635888021 0.02195772679734929" fill="none" stroke="#000000" stroke-width="0.001"/>
<path d="M 0.03722285635888021 0.02195772679734929 C 0.037122750153207325 0.02167265945059988 0.035841154954498015 0.018097183948617257 0.03602158189080562 0.018536918636356346 C 0.035841154954498015 0.018097183948617257 0.034886598299463355 0.016405124794292573 0.03505773312318894 0.016680910544480235 C 0.034886598299463355 0.016405124794292573 0.03376809407150575 0.014960944026415533 0.03396796400609858 0.015227489634104384 C 0.03376809407150575 0.014960944026415533 0.03252656954540798 0.013227502067673085 0.03265929390807498 0.013482363252214039 C 0.03252656954540798 0.013227502067673085 0.032382901132448495 0.012038866635253038 0.032375271654094595 0.012169155419612939 C 0.032382901132448495 0.012038866635253038 0.03282590803912955 0.0119358260827343 0.03275084764832181 0.011918897839895222 C 0.03282590803912955 0.0119358260827343 0.03335954714203458 0.01248570477501181 0.03327599634378742 0.012372294333681876 C 0.03335954714203458 0.01248570477501181 0.033793245634246113 0.01335545053603547 0.03375345722728775 0.013279823135854425" fill="none" stroke="none" stroke-width="0"/>
<path d="M 0.03375345722728775 0.013279823135854425 C 0.033766364214476395 0.013304856608394278 0.0339331055780218 0.013628222701344382 0.03390834107355146 0.013580224806332659 C 0.0339331055780218 0.013628222701344382 0.034062488798213594 0.01387876229846699 0.034050631280931894 0.013855797875995118" fill="none" stroke="#000000" stroke-width="0.001"/>
<path d="M 0.034050631280931894 0.013855797875995118 C 0.03401457325020941 0.013787984498704248 0.03356050237449226 0.012941174451555904 0.03361793491226206 0.01304203734850467 C 0.03356050237449226 0.012941174451555904 0.03332674536826739 0.012611060388745498 0.03336144082769432 0.012645443112609909 C 0.03332674536826739 0.012611060388745498 0.033211263294187755 0.012695070230080107 0.033201589399138864 0.012629444662131742 C 0.033211263294187755 0.012695070230080107 0.033582370804271976 0.013625772899366975 0.03347752756828104 0.0134329499279903 C 0.033582370804271976 0.013625772899366975 0.0345988163013581 0.015159189421676328 0.03445970823103006 0.014943320318651823 C 0.0345988163013581 0.015159189421676328 0.035237153109559306 0.01617439571070803 0.0351468244122175 0.01602337916428436 C 0.035237153109559306 0.01617439571070803 0.035596939402284755 0.01685490127369773 0.035543652599131725 0.01675551887573584 C 0.035596939402284755 0.01685490127369773 0.03580648383763071 0.017254338695167973 0.03578626605005386 0.017215967939827038" fill="none" stroke="none" stroke-width="0"/>
</g><g transform="translate(0.3373434528286706,0.23715836376383104) rotate(0) scale(1,1) translate(0.00011198358255654973,-0.007639437628074994)"><path d="M -0.0378118289987688 0.02371462524414032 C -0.03767340375599444 0.023383623886988746 -0.03588334144359535 0.019242398525228646 -0.03615072608547643 0.01974260895832146 C -0.03588334144359535 0.019242398525228646 -0.03427354076052838 0.017327345468730743 -0.034603213296195756 0.017712100047026585 C -0.03427354076052838 0.017327345468730743 -0.031868863977282995 0.014723099202864156 -0.03219465565746793 0.015125554018771345 C -0.031868863977282995 0.014723099202864156 -0.030521293277799108 0.012519120344302184 -0.03069371313397655 0.01288264225614032 C -0.030521293277799108 0.012519120344302184 -0.030101263327691016 0.010486238980509145 -0.030125617383338625 0.01076329107671371 C -0.030101263327691016 0.010486238980509145 -0.03050585991390601 0.00946348760384958 -0.030401464466205255 0.009558017101685547 C -0.03050585991390601 0.00946348760384958 -0.03158804897975846 0.009778573428179201 -0.03137836275574768 0.00962893710268209 C -0.03158804897975846 0.009778573428179201 -0.03304597718755023 0.01149737933306495 -0.03291769915433465 0.011353653007650883" fill="none" stroke="none" stroke-width="0"/>
<path d="M -0.03291769915433465 0.011353653007650883 C -0.03283196194975681 0.0111816363061761 -0.03228746933209674 0.01008867540756839 -0.03240327592686758 0.010321552798802184 C -0.03228746933209674 0.01008867540756839 -0.03219279019551664 0.009895527970489117 -0.03222285958570963 0.009956388660248127" fill="none" stroke="#000000" stroke-width="0.001"/>
<path d="M -0.03222285958570963 0.009956388660248127 C -0.03213153282086535 0.009838022750891795 -0.03091684793178498 0.00839517301440847 -0.031126938407578294 0.008535997747972136 C -0.03091684793178498 0.00839517301440847 -0.0294972969857139 0.008367329647634359 -0.029701773876189882 0.008266491857484131 C -0.0294972969857139 0.008367329647634359 -0.028611361856441028 0.010115906971279969 -0.028673215721866506 0.009746051229774857 C -0.028611361856441028 0.010115906971279969 -0.029160037139613824 0.013209504980209154 -0.028959527491084137 0.012704760755545476 C -0.029160037139613824 0.013209504980209154 -0.03146777845098324 0.01626158479091871 -0.031079331504222724 0.015802981925738983 C -0.03146777845098324 0.01626158479091871 -0.03399382663276436 0.01859588988304656 -0.03362089085221027 0.01820799513770221 C -0.03399382663276436 0.01859588988304656 -0.03592785500894691 0.021031893017174275 -0.03555456087087186 0.020457718869871203 C -0.03592785500894691 0.021031893017174275 -0.03831257547896412 0.0254847820749614 -0.03810042050911087 0.025098084905339078" fill="none" stroke="none" stroke-width="0"/>
<path d="M -0.03810042050911087 0.025098084905339078 C -0.03808767120593624 0.025036040558858996 -0.03792337957848678 0.02423826444247819 -0.037947428871015286 0.024353552747578083 C -0.03792337957848678 0.02423826444247819 -0.03780052900941493 0.023661381285520505 -0.0378118289987688 0.02371462524414032" fill="none" stroke="#000000" stroke-width="0.001"/>
</g><g transform="translate(0.3373434528286706,0.23715836376383104) rotate(0) scale(1,1) translate(0.00011198358255654973,-0.007639437628074994)"><path d="M 0.03758786183365573 0.02371462524414032 C 0.037599161823009604 0.023767869202760132 0.03774751099843077 0.024468841052677978 0.03772346170590225 0.024353552747578083 C 0.03774751099843077 0.024468841052677978 0.037889202647172555 0.02516012925181916 0.03787645334399792 0.025098084905339078" fill="none" stroke="#000000" stroke-width="0.001"/>
<path d="M 0.03787645334399792 0.025098084905339078 C 0.037664298374144665 0.024711387735716756 0.03495729956768381 0.01988354472256813 0.03533059370575886 0.020457718869871203 C 0.03495729956768381 0.01988354472256813 0.03302398790654315 0.017820100392357856 0.033396923687097235 0.01820799513770221 C 0.03302398790654315 0.017820100392357856 0.03046691739234934 0.015344379060559256 0.030855364339109848 0.015802981925738983 C 0.03046691739234934 0.015344379060559256 0.028535050677441443 0.012200016530881798 0.028735560325971132 0.012704760755545476 C 0.028535050677441443 0.012200016530881798 0.02851110242217904 0.009376195488269746 0.02844924855675357 0.009746051229774857 C 0.02851110242217904 0.009376195488269746 0.029682283601552784 0.008165654067333904 0.029477806711076804 0.008266491857484131 C 0.029682283601552784 0.008165654067333904 0.031113061718258655 0.008676822481535802 0.030902971242465327 0.008535997747972136 C 0.031113061718258655 0.008676822481535802 0.032090219185441006 0.010074754569604459 0.031998892420596725 0.009956388660248127" fill="none" stroke="none" stroke-width="0"/>
<path d="M 0.031998892420596725 0.009956388660248127 C 0.0320289618107897 0.010017249350007137 0.03229511535652542 0.010554430190035977 0.03217930876175458 0.010321552798802184 C 0.03229511535652542 0.010554430190035977 0.03277946919379963 0.011525669709125667 0.032693731989221764 0.011353653007650883" fill="none" stroke="#000000" stroke-width="0.001"/>
<path d="M 0.032693731989221764 0.011353653007650883 C 0.032565453956006185 0.011209926682236818 0.030944709366624024 0.009479300777184977 0.03115439559063482 0.00962893710268209 C 0.030944709366624024 0.009479300777184977 0.030073101853391442 0.009652546599521515 0.030177497301092204 0.009558017101685547 C 0.030073101853391442 0.009652546599521515 0.02992600427387328 0.011040343172918275 0.02990165021822566 0.01076329107671371 C 0.02992600427387328 0.011040343172918275 0.03064216582504109 0.013246164167978457 0.03046974596886365 0.01288264225614032 C 0.03064216582504109 0.013246164167978457 0.03229648017253989 0.015528008834678534 0.03197068849235496 0.015125554018771345 C 0.03229648017253989 0.015528008834678534 0.03470891866675017 0.01809685462532243 0.034379246131082786 0.017712100047026585 C 0.03470891866675017 0.01809685462532243 0.036194143562244645 0.02024281939141427 0.035926758920363566 0.01974260895832146 C 0.036194143562244645 0.02024281939141427 0.037726287076430075 0.024045626601291892 0.03758786183365573 0.02371462524414032" fill="none" stroke="none" stroke-width="0"/>
</g></g>
</g>
<g id="獣性">
<g transform="translate(0.3157769004770384,0.21953542623256544) rotate(0) scale(1,1) translate(-0.009690334973390745,-0.009690334973390745)"><path d="M 0.010208333364096772 0.008809333994421327 C 0.010496508761091143 0.009110904167072768 0.014175987967361754 0.013096679197605605 0.013666438128029233 0.012428176066238621 C 0.014175987967361754 0.013096679197605605 0.01654430587842519 0.017198304529540676 0.016322931436087037 0.016831371570825135" fill="none" stroke="none" stroke-width="0"/>
<path d="M 0.016322931436087037 0.016831371570825135 C 0.015889346508678657 0.016544406968812382 0.01045384548370658 0.013012451182453436 0.011119912307186484 0.013387796346672105 C 0.01045384548370658 0.013012451182453436 0.008097647658256666 0.012238849037995192 0.00833012955432819 0.012327229600201108" fill="none" stroke="none" stroke-width="0"/>
<path d="M 0.00833012955432819 0.012327229600201108 C 0.008417623808763094 0.012165664669168855 0.009536577591694413 0.010095292460665756 0.009380060607547033 0.010388450427814071 C 0.009536577591694413 0.010095292460665756 0.010277356093809243 0.008677740958305266 0.010208333364096765 0.008809333994421329" fill="none" stroke="none" stroke-width="0"/>
</g><g transform="translate(0.3589100051803027,0.21953542623256544) rotate(0) scale(1,1) translate(-0.009690334973390745,-0.009690334973390745)"><path d="M 0.009172336582684792 0.008809333994421329 C 0.00924135931239727 0.008940927030537392 0.010157126323381902 0.010681608394962386 0.010000609339234523 0.010388450427814071 C 0.010157126323381902 0.010681608394962386 0.011138034646888248 0.01248879453123336 0.011050540392453345 0.012327229600201108" fill="none" stroke="none" stroke-width="0"/>
<path d="M 0.011050540392453345 0.012327229600201108 C 0.010818058496381825 0.012415610162407024 0.007594690816115209 0.013763141510890774 0.008260757639595107 0.013387796346672105 C 0.007594690816115209 0.013763141510890774 0.0026241535832861964 0.017118336172837888 0.0030577385106945743 0.016831371570825135" fill="none" stroke="none" stroke-width="0"/>
<path d="M 0.0030577385106945743 0.016831371570825135 C 0.003279112953032718 0.016464438612109594 0.00622378165808482 0.011759672934871637 0.005714231818752302 0.012428176066238621 C 0.00622378165808482 0.011759672934871637 0.009460511979679167 0.008507763821769886 0.009172336582684792 0.008809333994421327" fill="none" stroke="none" stroke-width="0"/>
</g></g>
<g id="紋柄">
<g id="紋左">
<g transform="translate(0.3157769004770384,0.21953542623256544) rotate(0) scale(1,1) translate(-0.011409164915427155,-0.011409164915427157)"><path d="M 0.014387931697342139 0.020359160768640527 C 0.014467937038332516 0.020136209040793975 0.016812042773722783 0.02012664165477152 0.01669942377491539 0.01993872614551847 C 0.016812042773722783 0.02012664165477152 0.015546735343233085 0.022649183098270624 0.015739359683030855 0.022614146879677118 C 0.015546735343233085 0.022649183098270624 0.014467937038332516 0.020136209040793975 0.014387931697342139 0.020359160768640527 Z" fill="#cccccc" stroke="none" stroke-width="0"/>
</g><g transform="translate(0.3157769004770384,0.21953542623256544) rotate(0) scale(1,1) translate(-0.011409164915427155,-0.011409164915427157)"><path d="M 0.007671622785987226 0.022082227192045483 C 0.007557988320232345 0.021906976655515522 0.009133977774628776 0.019655659585253827 0.00891659557634415 0.019680548905902453 C 0.009133977774628776 0.019655659585253827 0.010176461432872987 0.021983695201440556 0.01028020916540273 0.02178355534426197 C 0.010176461432872987 0.021983695201440556 0.007557988320232345 0.021906976655515522 0.007671622785987226 0.022082227192045483 Z" fill="#cccccc" stroke="none" stroke-width="0"/>
</g><g transform="translate(0.3157769004770384,0.21953542623256544) rotate(0) scale(1,1) translate(-0.011409164915427155,-0.011409164915427157)"><path d="M 0.011329011292822747 0.01598860372633486 C 0.011319993951753328 0.015779789552901925 0.013314706981319226 0.014237113503149197 0.013153637459678494 0.01417909197561 C 0.013314706981319226 0.014237113503149197 0.013109793371940216 0.01683565470269896 0.013261845552511529 0.016684862056805222 C 0.013109793371940216 0.01683565470269896 0.011319993951753328 0.015779789552901925 0.011329011292822747 0.01598860372633486 Z" fill="#cccccc" stroke="none" stroke-width="0"/>
</g></g>
<g id="紋右">
<g transform="translate(0.3589100051803027,0.21953542623256544) rotate(0) scale(1,1) translate(-0.011409164915427155,-0.011409164915427157)"><path d="M 0.007078970147823515 0.022614146879677118 C 0.006886345808025748 0.02257911066108361 0.006231525054746434 0.01975081063626542 0.00611890605593904 0.01993872614551847 C 0.006231525054746434 0.01975081063626542 0.008510403474502614 0.02058211249648708 0.008430398133512242 0.020359160768640527 C 0.008510403474502614 0.02058211249648708 0.006886345808025748 0.02257911066108361 0.007078970147823515 0.022614146879677118 Z" fill="#cccccc" stroke="none" stroke-width="0"/>
</g><g transform="translate(0.3589100051803027,0.21953542623256544) rotate(0) scale(1,1) translate(-0.011409164915427155,-0.011409164915427157)"><path d="M 0.012538120665451662 0.02178355534426197 C 0.012434372932921921 0.021583415487083382 0.014119116452794893 0.01970543822655108 0.013901734254510268 0.019680548905902453 C 0.014119116452794893 0.01970543822655108 0.015033072579112279 0.022257477728575444 0.015146707044867163 0.022082227192045483 C 0.015033072579112279 0.022257477728575444 0.012434372932921921 0.021583415487083382 0.012538120665451662 0.02178355534426197 Z" fill="#cccccc" stroke="none" stroke-width="0"/>
</g><g transform="translate(0.3589100051803027,0.21953542623256544) rotate(0) scale(1,1) translate(-0.011409164915427155,-0.011409164915427157)"><path d="M 0.009556484278342854 0.016684862056805222 C 0.009404432097771545 0.016534069410911484 0.009825761892816656 0.014121070448070804 0.009664692371175924 0.01417909197561 C 0.009825761892816656 0.014121070448070804 0.011480301196962209 0.016197417899767797 0.011489318538031632 0.01598860372633486 C 0.011480301196962209 0.016197417899767797 0.009404432097771545 0.016534069410911484 0.009556484278342854 0.016684862056805222 Z" fill="#cccccc" stroke="none" stroke-width="0"/>
</g></g>
</g>
<g id="鱗">
<g id="左">
<g transform="translate(0.3157769004770384,0.21953542623256544) rotate(0) scale(1,1) translate(-0.0857970750145922,-0.08579707501459222)"><path d="M 0.08846179593326453 0.09416612357780238 C 0.08784337093593066 0.09410275826706853 0.0855110742821036 0.09224577860636224 0.08583501789831602 0.09275232887116722 C 0.0855110742821036 0.09224577860636224 0.08605924264481896 0.08968274792880992 0.08587024700356512 0.09011372145936253 C 0.08605924264481896 0.08968274792880992 0.0879107618170444 0.08945800977312912 0.08734698302834668 0.08930454062674634 C 0.0879107618170444 0.08945800977312912 0.09080990666922686 0.09183581347171123 0.09038047731314683 0.09134147463042477 C 0.09080990666922686 0.09183581347171123 0.09054258270450173 0.09361233247546019 0.09078241787698701 0.093259251357038 C 0.09054258270450173 0.09361233247546019 0.08784337093593066 0.09410275826706853 0.08846179593326453 0.09416612357780238 Z" fill="#cccccc" stroke="#000000" stroke-width="0.001"/>
</g><g transform="translate(0.3157769004770384,0.21953542623256544) rotate(0) scale(1,1) translate(-0.0857970750145922,-0.08579707501459222)"><path d="M 0.08534484193370917 0.09917962238823946 C 0.08475036247142775 0.09915070180869645 0.0828011943784399 0.09774150365347103 0.08310119245959988 0.09822509076414879 C 0.0828011943784399 0.09774150365347103 0.0831398393094463 0.09485698881813757 0.08294485728442935 0.0953109255028174 C 0.0831398393094463 0.09485698881813757 0.08520088191338071 0.09471262170190207 0.08466104865973545 0.09459359728671013 C 0.08520088191338071 0.09471262170190207 0.08766302075085594 0.09674597808857582 0.08726352331359147 0.09626312082435298 C 0.08766302075085594 0.09674597808857582 0.08761719298536597 0.0988210180959787 0.08785702815785125 0.09845645540049289 C 0.08761719298536597 0.0988210180959787 0.08475036247142775 0.09915070180869645 0.08534484193370917 0.09917962238823946 Z" fill="#cccccc" stroke="#000000" stroke-width="0.001"/>
</g></g>
<g id="右">
<g transform="translate(0.3589100051803027,0.21953542623256544) rotate(0) scale(1,1) translate(-0.0857970750145922,-0.08579707501459222)"><path d="M 0.08081173215219747 0.093259251357038 C 0.08057189697971218 0.0929061702386158 0.08164310207211761 0.09084713578913832 0.08121367271603758 0.09134147463042477 C 0.08164310207211761 0.09084713578913832 0.08481094578953548 0.08915107148036355 0.08424716700083776 0.08930454062674634 C 0.08481094578953548 0.08915107148036355 0.08591289866687314 0.09054469498991513 0.0857239030256193 0.09011372145936253 C 0.08591289866687314 0.09054469498991513 0.08543518851465605 0.0932588791359722 0.08575913213086847 0.09275232887116722 C 0.08543518851465605 0.0932588791359722 0.08251392909858606 0.09422948888853623 0.08313235409591993 0.09416612357780238 C 0.08251392909858606 0.09422948888853623 0.08057189697971218 0.0929061702386158 0.08081173215219747 0.093259251357038 Z" fill="#cccccc" stroke="#000000" stroke-width="0.001"/>
</g><g transform="translate(0.3589100051803027,0.21953542623256544) rotate(0) scale(1,1) translate(-0.0857970750145922,-0.08579707501459222)"><path d="M 0.08373712187133321 0.09845645540049289 C 0.08349728669884791 0.09809189270500708 0.08473012415285741 0.09578026356013014 0.08433062671559294 0.09626312082435298 C 0.08473012415285741 0.09578026356013014 0.08747293462309425 0.09447457287151818 0.08693310136944898 0.09459359728671013 C 0.08747293462309425 0.09447457287151818 0.08884427476977201 0.09576486218749723 0.08864929274475505 0.0953109255028174 C 0.08884427476977201 0.09576486218749723 0.08819295948842465 0.09870867787482654 0.08849295756958461 0.09822509076414879 C 0.08819295948842465 0.09870867787482654 0.08565482863319386 0.09920854296778248 0.08624930809547529 0.09917962238823946 C 0.08565482863319386 0.09920854296778248 0.08349728669884791 0.09809189270500708 0.08373712187133321 0.09845645540049289 Z" fill="#cccccc" stroke="#000000" stroke-width="0.001"/>
</g></g>
</g>
<g transform="translate(0.3157769004770384,0.21953542623256544) rotate(0) scale(1,1) translate(-0.05065453058920214,-0.05065453058920213)"><path d="M 0.053906824017354645 0.053773902828729694 C 0.053694486626594776 0.054239990797597996 0.051114480432403735 0.05990579132500571 0.051358775328236225 0.059366958455149346 C 0.051114480432403735 0.05990579132500571 0.05094332776229213 0.060312642167994104 0.05097528526736475 0.06023989726700604" fill="none" stroke="none" stroke-width="0"/>
<path d="M 0.05097528526736475 0.06023989726700604 C 0.05098569898208783 0.06031274427435751 0.05118496110765542 0.06165368706566004 0.05110024984404175 0.06111406135522365 C 0.05118496110765542 0.06165368706566004 0.052066117979619436 0.06718218449532762 0.05199182043072884 0.0667154057922427" fill="none" stroke="none" stroke-width="0"/>
<path d="M 0.05199182043072884 0.0667154057922427 C 0.05186169756519464 0.06635147829710832 0.050279471442460436 0.0619305478681351 0.0504303460443184 0.0623482758506301 C 0.050279471442460436 0.0619305478681351 0.050160573472109594 0.06164886951494204 0.050181325208433346 0.06170267000230266" fill="none" stroke="none" stroke-width="0"/>
<path d="M 0.050181325208433346 0.06170267000230266 C 0.05014467181518547 0.061756332154513864 0.04946713590930471 0.06276331910652161 0.04974148448945883 0.06234661582883709 C 0.04946713590930471 0.06276331910652161 0.046651447059677706 0.06706615045999022 0.04688914224658395 0.0667031093345169" fill="none" stroke="none" stroke-width="0"/>
<path d="M 0.04688914224658395 0.0667031093345169 C 0.04710147963734382 0.06623702136564859 0.049681485831534866 0.060571220838240826 0.049437190935702376 0.061110053708097196 C 0.049681485831534866 0.060571220838240826 0.04985263850164647 0.06016436999525241 0.04982068099657385 0.06023711489624047" fill="none" stroke="none" stroke-width="0"/>
<path d="M 0.04982068099657385 0.06023711489624047 C 0.04981026728185077 0.060164267888889005 0.04961100515628319 0.05882332509758648 0.04969571641989686 0.05936295080802287 C 0.04961100515628319 0.05882332509758648 0.048729848284319165 0.05329482766791896 0.04880414583320976 0.05376160637100388" fill="none" stroke="none" stroke-width="0"/>
<path d="M 0.04880414583320976 0.05376160637100388 C 0.04893426869874396 0.054125533866138255 0.05051649482147817 0.058546464295111435 0.05036562021962022 0.05812873631261643 C 0.05051649482147817 0.058546464295111435 0.050635392791829 0.05882814264830454 0.05061464105550525 0.05877434216094392" fill="none" stroke="none" stroke-width="0"/>
<path d="M 0.05061464105550525 0.05877434216094392 C 0.050651294448753124 0.05872068000873271 0.0513288303546339 0.05771369305672492 0.051054481774479785 0.05813039633440944 C 0.0513288303546339 0.05771369305672492 0.05414451920426088 0.05341086170325638 0.053906824017354645 0.053773902828729694" fill="none" stroke="none" stroke-width="0"/>
</g><g transform="translate(0.3589100051803027,0.21953542623256544) rotate(0) scale(1,1) translate(-0.05065453058920214,-0.05065453058920213)"><path d="M 0.0474022371610495 0.0537739028287297 C 0.047639932347955743 0.054136943954203015 0.050528927984078535 0.058547099612093964 0.050254579403924415 0.058130396334409445 C 0.050528927984078535 0.058547099612093964 0.05073107351614683 0.05882800431315514 0.05069442012289895 0.05877434216094393" fill="none" stroke="none" stroke-width="0"/>
<path d="M 0.05069442012289895 0.05877434216094393 C 0.050715171859222696 0.05872054167358331 0.05109431556064188 0.057711008330121445 0.05094344095878392 0.05812873631261645 C 0.05109431556064188 0.057711008330121445 0.052635038210728666 0.053397678875869506 0.052504915345194456 0.053761606371003884" fill="none" stroke="none" stroke-width="0"/>
<path d="M 0.052504915345194456 0.053761606371003884 C 0.05243061779630386 0.0542283850740888 0.05152863349489365 0.05990257651845927 0.051613344758507325 0.05936295080802288 C 0.05152863349489365 0.05990257651845927 0.05147796646710729 0.060309961903591947 0.05148838018183037 0.06023711489624048" fill="none" stroke="none" stroke-width="0"/>
<path d="M 0.05148838018183037 0.06023711489624048 C 0.05152033768690299 0.06030985979722854 0.052116165138534294 0.06164888657795358 0.051871870242701804 0.06111005370809721 C 0.052116165138534294 0.06164888657795358 0.05463225632258017 0.0671691973033852 0.05441991893182029 0.0667031093345169" fill="none" stroke="none" stroke-width="0"/>
<path d="M 0.05441991893182029 0.0667031093345169 C 0.05418222374491405 0.06634006820904358 0.05129322810879126 0.061929912551152586 0.05156757668894538 0.062346615828837104 C 0.05129322810879126 0.061929912551152586 0.051091082576722964 0.061649007850091454 0.05112773596997084 0.06170267000230266" fill="none" stroke="none" stroke-width="0"/>
<path d="M 0.05112773596997084 0.06170267000230266 C 0.05110698423364709 0.061756470489663276 0.0507278405322279 0.0627660038331251 0.05087871513408586 0.06234827585063009 C 0.0507278405322279 0.0627660038331251 0.049187117882141126 0.06707933328737711 0.04931724074767534 0.06671540579224272" fill="none" stroke="none" stroke-width="0"/>
<path d="M 0.04931724074767534 0.06671540579224272 C 0.04939153829656593 0.0662486270891578 0.050293522597976134 0.060574435644787275 0.05020881133436246 0.06111406135522367 C 0.050293522597976134 0.060574435644787275 0.050344189625762495 0.06016705025965459 0.050333775911039415 0.06023989726700606" fill="none" stroke="none" stroke-width="0"/>
<path d="M 0.050333775911039415 0.06023989726700606 C 0.05030181840596679 0.060167152366017995 0.04970599095433549 0.05882812558529299 0.04995028585016798 0.05936695845514935 C 0.04970599095433549 0.05882812558529299 0.047189899770289624 0.0533078148598614 0.0474022371610495 0.0537739028287297" fill="none" stroke="none" stroke-width="0"/>
</g><g transform="translate(0.3157769004770384,0.21953542623256544) rotate(0) scale(1,1) translate(-0.010565988892664996,-0.010565988892664996)"><path d="M 0.0023438692401545683 0.03247071710743922 C 0.0025502788207462826 0.03237407459922062 0.0052336033684385695 0.03111772199237884 0.004820784207255142 0.03131100700881604 C 0.0052336033684385695 0.03111772199237884 0.0075041087549474125 0.03005465440197424 0.0072976991743556995 0.03015129691019284" fill="none" stroke="none" stroke-width="0"/>
<path d="M 0.0072976991743556995 0.03015129691019284 C 0.007514505921759718 0.03010080347657536 0.010332993638011958 0.029444388839548155 0.009899380143203922 0.02954537570678311 C 0.010332993638011958 0.029444388839548155 0.01271786785945615 0.028888961069755897 0.012501061112052132 0.028939454503373374" fill="none" stroke="none" stroke-width="0"/>
<path d="M 0.012501061112052132 0.028939454503373374 C 0.012294651531460418 0.029036097011591974 0.009611326983768138 0.03029244961843375 0.010024146144951566 0.030099164601996554 C 0.009611326983768138 0.03029244961843375 0.007340821597259278 0.031355517208838335 0.007547231177850992 0.031258874700619735" fill="none" stroke="none" stroke-width="0"/>
<path d="M 0.007547231177850992 0.031258874700619735 C 0.007330424430446975 0.031309368134237216 0.0045119367141947505 0.03196578277126444 0.0049455502090027855 0.031864795904029485 C 0.0045119367141947505 0.03196578277126444 0.0021270624927505503 0.0325212105410567 0.0023438692401545683 0.03247071710743922" fill="none" stroke="none" stroke-width="0"/>
</g><g transform="translate(0.3589100051803027,0.21953542623256544) rotate(0) scale(1,1) translate(-0.010565988892664996,-0.010565988892664996)"><path d="M 0.01878810854517547 0.03247071710743919 C 0.018571301797771455 0.03242022367382172 0.01575281408151927 0.03176380903679457 0.0161864275763273 0.031864795904029526 C 0.01575281408151927 0.03176380903679457 0.013367939860075066 0.031208381267002275 0.013584746607479084 0.031258874700619756" fill="none" stroke="none" stroke-width="0"/>
<path d="M 0.013584746607479084 0.031258874700619756 C 0.013378337026887366 0.031162232192401156 0.010695012479195045 0.029905879585559344 0.011107831640378475 0.03009916460199654 C 0.010695012479195045 0.029905879585559344 0.00842450709268623 0.028842811995154802 0.008630916673277941 0.0289394545033734" fill="none" stroke="none" stroke-width="0"/>
<path d="M 0.008630916673277941 0.0289394545033734 C 0.008847723420681955 0.028989947936990872 0.011666211136934137 0.029646362574018023 0.011232597642126103 0.029545375706783072 C 0.011666211136934137 0.029646362574018023 0.014051085358378361 0.030201790343810306 0.01383427861097434 0.030151296910192825" fill="none" stroke="none" stroke-width="0"/>
<path d="M 0.01383427861097434 0.030151296910192825 C 0.014040688191566057 0.03024793941841143 0.016724012739258356 0.03150429202525326 0.01631119357807493 0.03131100700881606 C 0.016724012739258356 0.03150429202525326 0.01899451812576718 0.032567359615657786 0.01878810854517547 0.03247071710743919" fill="none" stroke="none" stroke-width="0"/>
</g><g transform="translate(0.3169666551230875,0.23997858678515727) rotate(0) scale(1,1) translate(-0.022986364471475812,-0.022986364471475812)"><path d="M 0.017341837192536094 0.01635770898214701 C 0.01757520379793631 0.016037055456288033 0.02033284708123666 0.012604055099232413 0.020142236457338654 0.012509866671839278 C 0.02033284708123666 0.012604055099232413 0.019586408697809955 0.017902812064116758 0.019629164679312163 0.017487970110864642" fill="none" stroke="none" stroke-width="0"/>
<path d="M 0.019629164679312163 0.017487970110864642 C 0.019597652176317 0.01771522162767887 0.01914005886572172 0.020717696057254032 0.019251014643370194 0.020214988312635386 C 0.01914005886572172 0.020717696057254032 0.0182182520728772 0.023795919274092813 0.018297695347530507 0.023520463046288395" fill="none" stroke="none" stroke-width="0"/>
<path d="M 0.018297695347530507 0.023520463046288395 C 0.0180396253745473 0.023883182918084916 0.014994826316359006 0.027868907355618897 0.015200855671732023 0.027873101507846658 C 0.014994826316359006 0.027868907355618897 0.015877383700664487 0.023103219195530978 0.015825343083054298 0.02347013321955526" fill="none" stroke="none" stroke-width="0"/>
<path d="M 0.015825343083054298 0.02347013321955526 C 0.015823947989108217 0.023161581396624924 0.01593497646482481 0.019174809324607214 0.01580860195570133 0.019767511344391236 C 0.01593497646482481 0.019174809324607214 0.017469606795605656 0.016073558785293325 0.017341837192536094 0.01635770898214701" fill="none" stroke="none" stroke-width="0"/>
</g><g transform="translate(0.35772025053425377,0.23997858678515727) rotate(0) scale(1,1) translate(-0.022986364471475812,-0.022986364471475812)"><path d="M 0.028630891750415555 0.01635770898214701 C 0.02875866135348512 0.016641859179000698 0.03029050149637384 0.020360213364175258 0.03016412698725035 0.019767511344391236 C 0.03029050149637384 0.020360213364175258 0.030145990765951324 0.023778685042485596 0.030147385859897402 0.02347013321955526" fill="none" stroke="none" stroke-width="0"/>
<path d="M 0.030147385859897402 0.02347013321955526 C 0.03019942647750759 0.023837047243579542 0.030565843915846647 0.02787729566007442 0.030771873271219663 0.027873101507846658 C 0.030565843915846647 0.02787729566007442 0.027416963622438024 0.023157743174491874 0.027675033595421228 0.023520463046288395" fill="none" stroke="none" stroke-width="0"/>
<path d="M 0.027675033595421228 0.023520463046288395 C 0.027595590320767915 0.023245006818483977 0.026610758521933 0.01971228056801674 0.026721714299581478 0.020214988312635386 C 0.026610758521933 0.01971228056801674 0.026312051760644318 0.017260718594050414 0.026343564263639485 0.017487970110864642" fill="none" stroke="none" stroke-width="0"/>
<path d="M 0.026343564263639485 0.017487970110864642 C 0.026300808282137277 0.017073128157612527 0.026021103109510984 0.012415678244446143 0.025830492485612977 0.012509866671839278 C 0.026021103109510984 0.012415678244446143 0.02886425835581577 0.01667836250800599 0.028630891750415555 0.01635770898214701" fill="none" stroke="none" stroke-width="0"/>
</g><g transform="translate(0.3373434528286705,0.26146107047309675) rotate(0) scale(1,1) translate(-0.032753407916317374,-0.032753407916317374)"><path d="M 0.028595592495859894 0.03359276928992462 C 0.028670556132018438 0.0337908018129356 0.02852062885970135 0.03537506199702346 0.028595592495859894 0.03517702947401248 C 0.02852062885970135 0.03537506199702346 0.027546101589640284 0.035969159566056425 0.02769602886195737 0.035969159566056425 C 0.027546101589640284 0.035969159566056425 0.026721501591896315 0.0349789969510015 0.026796465228054858 0.03517702947401248 C 0.026721501591896315 0.0349789969510015 0.0268714288642134 0.03339473676691364 0.026796465228054858 0.03359276928992462 C 0.0268714288642134 0.03339473676691364 0.027845956134274458 0.03280063919788068 0.02769602886195737 0.03280063919788068 C 0.027845956134274458 0.03280063919788068 0.028670556132018438 0.0337908018129356 0.028595592495859894 0.03359276928992462 Z" fill="#cccccc" stroke="none" stroke-width="0"/>
</g><g transform="translate(0.3373434528286705,0.26146107047309675) rotate(0) scale(1,1) translate(-0.032753407916317374,-0.032753407916317374)"><path d="M 0.037810786970677523 0.03280063919788068 C 0.0379607142429946 0.03280063919788068 0.03878531424073848 0.0337908018129356 0.038710350604579946 0.03359276928992462 C 0.03878531424073848 0.0337908018129356 0.03863538696842141 0.03537506199702346 0.038710350604579946 0.03517702947401248 C 0.03863538696842141 0.03537506199702346 0.037660859698360444 0.035969159566056425 0.037810786970677523 0.035969159566056425 C 0.037660859698360444 0.035969159566056425 0.03683625970061643 0.0349789969510015 0.036911223336774976 0.03517702947401248 C 0.03683625970061643 0.0349789969510015 0.03698618697293352 0.03339473676691364 0.036911223336774976 0.03359276928992462 C 0.03698618697293352 0.03339473676691364 0.0379607142429946 0.03280063919788068 0.037810786970677523 0.03280063919788068 Z" fill="#cccccc" stroke="none" stroke-width="0"/>
</g></svg>
