<?xml version="1.0" encoding="UTF-8"?>
<svg xmlns="http://www.w3.org/2000/svg" viewBox="0 0 1 1">
<g transform="translate(0.3373434528286706,0.24784340432461505) rotate(0) scale(1,1) translate(-0.5000000000000002,-0.501846076880224)"><path d="M 0.479117627929868 0.47255990333414194 C 0.4793507702103779 0.4717669451078613 0.4827854341322426 0.4616709606825765 0.4819153352959871 0.4630444046187743 C 0.4827854341322426 0.4616709606825765 0.4910658693569352 0.45528561787348837 0.4895588139649341 0.456078576099769 C 0.4910658693569352 0.45528561787348837 0.5017401976725112 0.4535289059034069 0.5000000000000002 0.4535289059034069 C 0.5017401976725112 0.4535289059034069 0.5119482414270673 0.4568715343260496 0.5104411860350662 0.456078576099769 C 0.5119482414270673 0.4568715343260496 0.5189547635402687 0.46441784855497203 0.5180846647040132 0.4630444046187743 C 0.5189547635402687 0.46441784855497203 0.5211155143506423 0.47335286156042256 0.5208823720701323 0.47255990333414194" fill="none" stroke="#000000" stroke-width="0.001"/>
<path d="M 0.5208823720701323 0.47255990333414194 C 0.5212130096279094 0.473132171640891 0.5255658426348587 0.48046645292027407 0.5248500227634574 0.4794271230151306 C 0.5255658426348587 0.48046645292027407 0.5298573928405731 0.48549892379425846 0.5294722105269488 0.485031862195864" fill="none" stroke="#000000" stroke-width="0.001"/>
<path d="M 0.5294722105269488 0.485031862195864 C 0.5296786954219783 0.48570991120973334 0.5325068739603974 0.4945236057491038 0.5319500292673024 0.49316845036229556 C 0.5325068739603974 0.4945236057491038 0.5365047066421544 0.5019708332105021 0.5361543468440889 0.5012937268375631" fill="none" stroke="#000000" stroke-width="0.001"/>
<path d="M 0.5361543468440889 0.5012937268375631 C 0.5362924866102232 0.5018650045972489 0.5380622986821568 0.5095399379628398 0.5378120240377003 0.5081490599537932 C 0.5380622986821568 0.5095399379628398 0.5390769821137815 0.5195013775271189 0.5391576425775663 0.5179842629461227 C 0.5390769821137815 0.5195013775271189 0.536066525189532 0.5276893284713776 0.5368440984722841 0.5263544349257485 C 0.536066525189532 0.5276893284713776 0.5283351463388758 0.5349065358216322 0.5298267631845418 0.5340029854936714 C 0.5283351463388758 0.5349065358216322 0.5171324419215086 0.5372371797839695 0.5189446963242916 0.537197038861278 C 0.5171324419215086 0.5372371797839695 0.506500985657455 0.5337875505436387 0.508079710351146 0.5344846765659691 C 0.506500985657455 0.5337875505436387 0.49932669080407144 0.5283604307622577 0.5000000000000002 0.5288315265933125" fill="none" stroke="#000000" stroke-width="0.001"/>
<path d="M 0.5000000000000002 0.5288315265933125 C 0.49932669080407144 0.5293026224243672 0.49034156495516407 0.5351818025882995 0.4919202896488551 0.534484676565969 C 0.49034156495516407 0.5351818025882995 0.4792430492729247 0.5371568979385866 0.4810553036757078 0.537197038861278 C 0.4792430492729247 0.5371568979385866 0.4686816199697917 0.5330994351657108 0.47017323681545786 0.5340029854936715 C 0.4686816199697917 0.5330994351657108 0.46237832824496183 0.5250195413801195 0.4631559015277138 0.5263544349257486 C 0.46237832824496183 0.5250195413801195 0.4607616969586497 0.5164671483651266 0.4608423574224342 0.5179842629461229 C 0.4607616969586497 0.5164671483651266 0.4624382506067569 0.5067581819447468 0.4621879759623005 0.5081490599537934 C 0.4624382506067569 0.5067581819447468 0.46398379292204556 0.5007224490778772 0.4638456531559113 0.5012937268375631" fill="none" stroke="#000000" stroke-width="0.001"/>
<path d="M 0.4638456531559113 0.5012937268375631 C 0.4641960129539769 0.5006166204646242 0.468606815425793 0.4918132949754873 0.468049970732698 0.49316845036229556 C 0.468606815425793 0.4918132949754873 0.4707342743680809 0.4843538131819947 0.47052778947305146 0.485031862195864" fill="none" stroke="#000000" stroke-width="0.001"/>
<path d="M 0.47052778947305146 0.485031862195864 C 0.47091297178667574 0.4845648005974696 0.4758657971079443 0.4783877931099871 0.4751499772365429 0.4794271230151306 C 0.4758657971079443 0.4783877931099871 0.479448265487645 0.4719876350273929 0.47911762792986795 0.47255990333414194" fill="none" stroke="#000000" stroke-width="0.001"/>
</g><g transform="translate(0.3373434528286705,0.25494673972915993) rotate(0) scale(1,1) translate(-0.09500000000000004,-0.10128887608393074)"><path d="M 0.10790296643675147 0.09331441630496828 C 0.1076973153587592 0.0935448984332765 0.10510008233745431 0.09667924080067453 0.10543515350084419 0.09608020184466694 C 0.10510008233745431 0.09667924080067453 0.10375269239067539 0.10087144060475864 0.10388211247607299 0.10050288377705928" fill="none" stroke="#000000" stroke-width="0.001"/>
<path d="M 0.10388211247607299 0.10050288377705928 C 0.10383865060515385 0.10070709817912638 0.10327251747553813 0.10331912914174414 0.10336057002504333 0.1029534566018644 C 0.10327251747553813 0.10331912914174414 0.10278089120342458 0.10505241239342868 0.10282548188201064 0.10489095425561604" fill="none" stroke="#000000" stroke-width="0.001"/>
<path d="M 0.10282548188201064 0.10489095425561604 C 0.10277833733799076 0.1049927852870967 0.10213852584758562 0.10629705793166459 0.10225974735377198 0.10611292663338401 C 0.10213852584758562 0.10629705793166459 0.10129674684560779 0.10718283010178303 0.10137082380777426 0.10710052983498311" fill="none" stroke="#000000" stroke-width="0.001"/>
<path d="M 0.10137082380777426 0.10710052983498311 C 0.10117173556378133 0.10720391148983013 0.09845086289587776 0.10848268223803677 0.09898176487985895 0.10834110969314738 C 0.09845086289587776 0.10848268223803677 0.09433637252002358 0.10879940037365578 0.09500000000000006 0.10879940037365578 C 0.09433637252002358 0.10879940037365578 0.09048733313616 0.10819953714825799 0.09101823512014119 0.10834110969314738 C 0.09048733313616 0.10819953714825799 0.08843008794823289 0.10699714818013609 0.08862917619222584 0.10710052983498311" fill="none" stroke="none" stroke-width="0"/>
<path d="M 0.08862917619222584 0.10710052983498311 C 0.08855509923005936 0.10701822956818319 0.08761903114004176 0.10592879533510342 0.08774025264622812 0.10611292663338401 C 0.08761903114004176 0.10592879533510342 0.08712737357396956 0.10478912322413537 0.08717451811798944 0.10489095425561604" fill="none" stroke="#000000" stroke-width="0.001"/>
<path d="M 0.08717451811798944 0.10489095425561604 C 0.08712992743940338 0.1047294961178034 0.08655137742545156 0.10258778406198467 0.08663942997495676 0.1029534566018644 C 0.08655137742545156 0.10258778406198467 0.08607442565300792 0.10029866937499218 0.08611788752392706 0.10050288377705928" fill="none" stroke="#000000" stroke-width="0.001"/>
<path d="M 0.08611788752392706 0.10050288377705928 C 0.08598846743852945 0.10013432694935992 0.08422977533576594 0.09548116288865935 0.08456484649915581 0.09608020184466694 C 0.08422977533576594 0.09548116288865935 0.08189138248525632 0.09308393417666007 0.08209703356324859 0.09331441630496828" fill="none" stroke="#000000" stroke-width="0.001"/>
</g><g transform="translate(0.3373434528286706,0.23916577780668657) rotate(0) scale(1,1) translate(-0.095,-0.09632994090643211)"><path d="M 0.07497818711520889 0.07653922078693011 C 0.07591099396729327 0.07590137127215574 0.08857603130226899 0.06824717709486335 0.08617186934022152 0.06888502660963772 C 0.08857603130226899 0.06824717709486335 0.10623229262182599 0.06952287612441209 0.10382813065977851 0.06888502660963772 C 0.10623229262182599 0.06952287612441209 0.11595461973687554 0.07717707030170448 0.11502181288479116 0.07653922078693011" fill="none" stroke="none" stroke-width="0"/>
<path d="M 0.11502181288479116 0.07653922078693011 C 0.11537560933830321 0.07731892497693181 0.11929217061171747 0.08774448789322603 0.11926737032693581 0.08589567106695047 C 0.11929217061171747 0.08774448789322603 0.11499042013344066 0.09979413533851085 0.11531941630217106 0.09872502270223697" fill="none" stroke="none" stroke-width="0"/>
<path d="M 0.11531941630217106 0.09872502270223697 C 0.11508062192758656 0.09892047836833226 0.11184199429618527 0.10151658992422836 0.11245388380715704 0.10107049069538047 C 0.11184199429618527 0.10151658992422836 0.10760364703412247 0.10432885701116425 0.10797674217050975 0.10407821344841164" fill="none" stroke="#000000" stroke-width="0.001"/>
<path d="M 0.10797674217050975 0.10407821344841164 C 0.1075662982121243 0.10424111040403047 0.10197001948900858 0.10629695548156404 0.10305141466988439 0.10603297691583762 C 0.10197001948900858 0.10629695548156404 0.0936580975550193 0.10724595623712867 0.09500000000000003 0.10724595623712867 C 0.0936580975550193 0.10724595623712867 0.08586719014923985 0.10576899835011119 0.08694858533011567 0.10603297691583762 C 0.08586719014923985 0.10576899835011119 0.08161281387110486 0.10391531649279281 0.08202325782949031 0.10407821344841164" fill="none" stroke="none" stroke-width="0"/>
<path d="M 0.08202325782949031 0.10407821344841164 C 0.08165016269310303 0.10382756988565904 0.07693422668187122 0.10062439146653258 0.077546116192843 0.10107049069538047 C 0.07693422668187122 0.10062439146653258 0.0744417893232445 0.09852956703614169 0.074680583697829 0.09872502270223697" fill="none" stroke="#000000" stroke-width="0.001"/>
<path d="M 0.074680583697829 0.09872502270223697 C 0.07435158752909861 0.0976559100659631 0.07075742995784594 0.0840468542406749 0.07073262967306428 0.08589567106695047 C 0.07075742995784594 0.0840468542406749 0.07533198356872094 0.07575951659692841 0.07497818711520889 0.07653922078693011" fill="none" stroke="none" stroke-width="0"/>
</g><g transform="translate(0.3373434528286705,0.22024030782214926) rotate(0) scale(1,1) translate(-0.027392108961499424,-0.025436636444181805)"><path d="M 0.0426703395124278 0.024468385987676353 C 0.04230209745062729 0.024563178494647554 0.03735292414002835 0.025726756178658147 0.03825143477082161 0.02560589607133075 C 0.03735292414002835 0.025726756178658147 0.03135794337391597 0.025944774875961335 0.03188821194290871 0.025918707275605135" fill="none" stroke="#000000" stroke-width="0.001"/>
<path d="M 0.03188821194290871 0.025918707275605135 C 0.03151353669445794 0.02597270541651692 0.02664275846459788 0.026566684966546576 0.027392108961499427 0.026566684966546576 C 0.02664275846459788 0.026566684966546576 0.022521330731639363 0.025864709134693357 0.022896005980090138 0.025918707275605142" fill="none" stroke="#000000" stroke-width="0.001"/>
<path d="M 0.022896005980090138 0.025918707275605142 C 0.0223657374110974 0.025892639675248942 0.015634272521384003 0.025485035964003356 0.016532783152177256 0.025605896071330753 C 0.015634272521384003 0.025485035964003356 0.011745636348770579 0.024373593480705155 0.012113878410571093 0.024468385987676356" fill="none" stroke="#000000" stroke-width="0.001"/>
</g><g id="筋肉">
<g transform="translate(0.3373434528286706,0.23916577780668663) rotate(0) scale(1,1) translate(-0.006218922926089482,-0.015194750693370984)"><path d="M 0.010911958739056898 0.007849094628117384 C 0.01084207133717367 0.007901532879469013 0.00987864009695033 0.008616939944535442 0.010073309916458145 0.008478353644336939 C 0.00987864009695033 0.008616939944535442 0.008451138487338555 0.009598278279346282 0.00857592090496314 0.00951213023049941" fill="none" stroke="#000000" stroke-width="0.001"/>
<path d="M 0.00857592090496314 0.00951213023049941 C 0.008379504406723668 0.009604404826479646 0.005826089929610539 0.010614091959132299 0.006218922926089482 0.010619425382262229 C 0.005826089929610539 0.010614091959132299 0.0036655084489763522 0.009350521133830083 0.0038619249472158237 0.009448129152940249" fill="none" stroke="#000000" stroke-width="0.001"/>
<path d="M 0.0038619249472158237 0.009448129152940249 C 0.0037371425295912395 0.009356647680963446 0.0021698661162130035 0.00820109834276025 0.0023645359357208156 0.008350351489218612 C 0.0021698661162130035 0.00820109834276025 0.001455999711238849 0.007599319720958336 0.001525887113122077 0.007657091395439896" fill="none" stroke="#000000" stroke-width="0.001"/>
</g><g transform="translate(0.3308706714775631,0.22043292550255283) rotate(0) scale(1,1) translate(-0.03649433879459807,-0.02487077539596666)"><path d="M 0.036165054023246546 0.034065256412306705 C 0.035959282876937566 0.03390235959115082 0.033325338635225556 0.03174006336585839 0.03369580026753882 0.03211049455843614 C 0.033325338635225556 0.03174006336585839 0.031554823949483085 0.029412547729951867 0.03171951443548737 0.029620082101373735" fill="none" stroke="none" stroke-width="0"/>
<path d="M 0.03171951443548737 0.029620082101373735 C 0.03158356629046793 0.029214584077423656 0.03009285341112644 0.024181504561902337 0.03008813669525401 0.024754105813972773 C 0.03009285341112644 0.024181504561902337 0.03191677988684844 0.02258176384840813 0.031776115025956564 0.022748867076528487" fill="none" stroke="#000000" stroke-width="0.001"/>
<path d="M 0.031776115025956564 0.022748867076528487 C 0.03231427347502231 0.02275763612065093 0.038980871018160834 0.022884055009397487 0.03823401641474555 0.022854095605997823 C 0.038980871018160834 0.022884055009397487 0.04094706642128947 0.02312957027660167 0.04073837026693994 0.02310837991732445" fill="none" stroke="none" stroke-width="0"/>
<path d="M 0.04073837026693994 0.02310837991732445 C 0.04084033919905746 0.023253814684221764 0.04206848872237339 0.025448207688045125 0.041961997452350186 0.024853597120092205 C 0.04206848872237339 0.025448207688045125 0.04202078784512406 0.030692882533815097 0.042016265507218375 0.03024370673275949" fill="none" stroke="#000000" stroke-width="0.001"/>
<path d="M 0.042016265507218375 0.03024370673275949 C 0.04179160959219266 0.030582896732896162 0.03883279356991218 0.03463244920769516 0.03932039452690983 0.03431398673439956 C 0.03883279356991218 0.03463244920769516 0.035902108981274605 0.034044528885465636 0.036165054023246546 0.034065256412306705" fill="none" stroke="#000000" stroke-width="0.001"/>
</g><g transform="translate(0.34381623417977747,0.22043292550255283) rotate(0) scale(1,1) translate(-0.03649433879459807,-0.02487077539596666)"><path d="M 0.03682362356594955 0.034065256412306705 C 0.03656067852397761 0.034085983939147774 0.03318068210528865 0.03399552426110396 0.033668283062286294 0.03431398673439956 C 0.03318068210528865 0.03399552426110396 0.03074775616695209 0.02990451673262282 0.030972412081977797 0.03024370673275949" fill="none" stroke="#000000" stroke-width="0.001"/>
<path d="M 0.030972412081977797 0.03024370673275949 C 0.03097693441988348 0.029794530931703884 0.031133171406869168 0.024258986552139285 0.031026680136845966 0.024853597120092205 C 0.031133171406869168 0.024258986552139285 0.03235227625437376 0.022962945150427138 0.032250307322256234 0.02310837991732445" fill="none" stroke="#000000" stroke-width="0.001"/>
<path d="M 0.032250307322256234 0.02310837991732445 C 0.03245900347660577 0.02308718955804723 0.035501515777865915 0.02282413620259816 0.034754661174450634 0.022854095605997823 C 0.035501515777865915 0.02282413620259816 0.04175072101230537 0.022740098032406043 0.04121256256323962 0.022748867076528487" fill="none" stroke="none" stroke-width="0"/>
<path d="M 0.04121256256323962 0.022748867076528487 C 0.0413532274241315 0.022915970304648845 0.04290525760981457 0.02532670706604321 0.042900540893942136 0.024754105813972773 C 0.04290525760981457 0.02532670706604321 0.041133215008689335 0.030025580125323813 0.04126916315370878 0.029620082101373735" fill="none" stroke="#000000" stroke-width="0.001"/>
<path d="M 0.04126916315370878 0.029620082101373735 C 0.04110447266770449 0.029827616472795603 0.03892241568934408 0.03248092575101389 0.039292877321657343 0.03211049455843614 C 0.03892241568934408 0.03248092575101389 0.036617852419640565 0.03422815323346259 0.03682362356594955 0.034065256412306705" fill="none" stroke="none" stroke-width="0"/>
</g><g transform="translate(0.31513853052743,0.22084630400552918) rotate(0) scale(1,1) translate(-0.006478044714676546,-0.010275205513680292)"><path d="M 0.013601302919453438 0.0139121492651109 C 0.013084808589675678 0.013596623568375906 0.009737345794467712 0.011287942876678347 0.01050233694078688 0.012018995084700935 C 0.009737345794467712 0.011287942876678347 0.008762859224997024 0.009110309505687784 0.009011356041538432 0.009525836016975377" fill="none" stroke="#000000" stroke-width="0.001"/>
</g><g transform="translate(0.3595483751299111,0.22084630400552924) rotate(0) scale(1,1) translate(-0.006478044714676546,-0.010275205513680292)"><path d="M 0.003944733387814547 0.009525836016975377 C 0.0036962365712731385 0.00994136252826297 0.0016887613422469278 0.012750047292723523 0.002453752488566096 0.012018995084700935 C 0.0016887613422469278 0.012750047292723523 -0.0011617078198782234 0.014227674961845896 -0.0006452134901004634 0.0139121492651109" fill="none" stroke="#000000" stroke-width="0.001"/>
</g><g transform="translate(0.315708051851578,0.237284409057396) rotate(0) scale(1,1) translate(-0.006478044714676546,-0.010275205513680292)"><path d="M 0.007790452522239388 0.014552766109508211 C 0.0076207587936850145 0.014329624557710186 0.005467846179996453 0.011387687065676314 0.005754127779586911 0.0118750674879319 C 0.005467846179996453 0.011387687065676314 0.004238485456117803 0.008439962171983636 0.004355073327153888 0.008704201042441195" fill="none" stroke="#000000" stroke-width="0.001"/>
</g><g transform="translate(0.3589788538057633,0.237284409057396) rotate(0) scale(1,1) translate(-0.006478044714676546,-0.010275205513680292)"><path d="M 0.0086010161021991 0.008704201042441195 C 0.008484428231163018 0.008968439912898753 0.006915680050175668 0.012362447910187485 0.0072019616497661235 0.0118750674879319 C 0.006915680050175668 0.012362447910187485 0.0049959431785592595 0.014775907661306237 0.005165636907113634 0.014552766109508211" fill="none" stroke="#000000" stroke-width="0.001"/>
</g></g>
<g transform="translate(0.3373434528286705,0.2221124434899437) rotate(0) scale(1,1) translate(-0.017697491909778828,-0.017697491909778828)"><path d="M 0.015936232638433596 0.01769749190977883 C 0.015979221046529372 0.017609276191606623 0.01659886514152837 0.016514147426658705 0.016452093535582933 0.016638903291712324 C 0.01659886514152837 0.016514147426658705 0.017905058305478137 0.016200421529135388 0.01769749190977882 0.016200421529135388 C 0.017905058305478137 0.016200421529135388 0.01908966188992015 0.016763659156765944 0.018942890283974712 0.016638903291712324 C 0.01908966188992015 0.016763659156765944 0.019501739589219837 0.017785707627951036 0.019458751181124057 0.017697491909778828" fill="none" stroke="none" stroke-width="0"/>
<path d="M 0.019458751181124057 0.017697491909778828 C 0.01937215593361625 0.017883147119328993 0.018272836605084934 0.02037817200864952 0.01841960821103037 0.01992535442438082 C 0.018272836605084934 0.02037817200864952 0.017637315551341202 0.02339846529572173 0.01769749190977883 0.023131302921003197" fill="none" stroke="none" stroke-width="0"/>
<path d="M 0.01769749190977883 0.023131302921003197 C 0.017637315551341202 0.022864140546284665 0.016828604002581845 0.019472536840112124 0.01697537560852728 0.01992535442438082 C 0.016828604002581845 0.019472536840112124 0.015849637390925788 0.017511836700228666 0.015936232638433596 0.01769749190977883" fill="none" stroke="none" stroke-width="0"/>
</g><g transform="translate(0.3373434528286705,0.2221124434899437) rotate(0) scale(1,1) translate(-0.35878523175949983,-0.35878523175950006)"><path d="M 0.35913948120243633 0.3578878551509275 C 0.3591872468390336 0.357916419097908 0.35977867932788654 0.3583054038987408 0.3597126688416034 0.3582306225146931 C 0.35977867932788654 0.3583054038987408 0.35993160703783394 0.3588776666336346 0.35993160703783394 0.35878523175950006 C 0.35993160703783394 0.3588776666336346 0.3596466583553203 0.3594146223883549 0.3597126688416034 0.3593398410043072 C 0.3596466583553203 0.3594146223883549 0.3590326739920163 0.35971117231505323 0.35913948120243633 0.35968260836807275 C 0.3590326739920163 0.35971117231505323 0.35832417510614334 0.3596540444210923 0.35843098231656334 0.35968260836807275 C 0.35832417510614334 0.3596540444210923 0.3577917841911132 0.3592650596202595 0.3578577946773963 0.3593398410043072 C 0.3577917841911132 0.3592650596202595 0.35763885648116583 0.35869279688536554 0.35763885648116583 0.35878523175950006 C 0.35763885648116583 0.35869279688536554 0.35792380516367944 0.3581558411306454 0.3578577946773963 0.3582306225146931 C 0.35792380516367944 0.3581558411306454 0.3584787479531606 0.35785929120394705 0.35843098231656334 0.3578878551509275" fill="none" stroke="#000000" stroke-width="0.001"/>
</g><g id="虫性">
<g transform="translate(0.3373434528286707,0.24601787937834038) rotate(0) scale(1,1) translate(-0.019192864762988458,-0.012340763191334692)"><path d="M -0.007574634574353184 -0.005779895763477567 C -0.0072466518499357405 -0.005854869129005744 -0.0027824675868047587 -0.006420940397108328 -0.0036388418813438606 -0.006679576149815695 C -0.0027824675868047587 -0.006420940397108328 0.0032302485302376943 -0.0023426576127536162 0.002701856960116036 -0.0026762667309891608" fill="none" stroke="none" stroke-width="0"/>
<path d="M 0.002701856960116036 -0.0026762667309891608 C 0.0029820593663061504 -0.0022813773219171707 0.006624690646777638 0.0029209146755281106 0.00606428583439741 0.0020624061778747203 C 0.006624690646777638 0.0029209146755281106 0.009706917114868898 0.008089454329432925 0.009426714708678783 0.007625835240851524" fill="none" stroke="none" stroke-width="0"/>
<path d="M 0.009426714708678783 0.007625835240851524 C 0.010240560546537925 0.00806509850754996 0.020820556438706766 0.012896994441232768 0.019192864762988482 0.012896994441232768 C 0.020820556438706766 0.012896994441232768 0.029772860655157316 0.007186571974153086 0.028959014817298175 0.007625835240851524" fill="none" stroke="none" stroke-width="0"/>
<path d="M 0.028959014817298175 0.007625835240851524 C 0.02923921722348829 0.0071622161522701235 0.03288184850395974 0.0012038976802213291 0.032321443691579514 0.0020624061778747194 C 0.03288184850395974 0.0012038976802213291 0.035964074972050966 -0.003071156140061151 0.03568387256586086 -0.0026762667309891608" fill="none" stroke="none" stroke-width="0"/>
<path d="M 0.03568387256586086 -0.0026762667309891608 C 0.03621226413598252 -0.0030098758492247053 0.04288094570185987 -0.006938211902523062 0.04202457140732077 -0.006679576149815695 C 0.04288094570185987 -0.006938211902523062 0.046288346824747514 -0.005704922397949392 0.045960364100330074 -0.005779895763477569" fill="none" stroke="none" stroke-width="0"/>
<path d="M 0.045960364100330074 -0.005779895763477569 C 0.0464118619414277 -0.005258200638559825 0.04953310880061345 -0.0007716243002856013 0.04866935114691584 -0.0026497250139711085 C 0.04953310880061345 -0.0007716243002856013 0.05155516983511571 0.006845114107403239 0.05114291002251573 0.005488708518635475" fill="none" stroke="#000000" stroke-width="0.001"/>
<path d="M 0.05114291002251573 0.005488708518635475 C 0.05048227555167263 0.005475485224055389 0.04204127156613281 0.005739889628745921 0.0432152963723985 0.0053300289836744515 C 0.04204127156613281 0.005739889628745921 0.036541222011904864 0.010830120199144672 0.03705461234732745 0.010407036259493116" fill="none" stroke="#000000" stroke-width="0.001"/>
<path d="M 0.03705461234732745 0.010407036259493116 C 0.03635828708479058 0.010958720651175369 0.027210230231523417 0.018162841035602086 0.028698709196884997 0.017027248959680143 C 0.027210230231523417 0.018162841035602086 0.018714820829293825 0.025432798703949107 0.01919286476298849 0.02403414117055645 C 0.018714820829293825 0.025432798703949107 0.023276291761679085 0.03462588920954501 0.02296218199254904 0.03381113936039205" fill="none" stroke="#000000" stroke-width="0.001"/>
<path d="M 0.02296218199254904 0.03381113936039205 C 0.022333962454288953 0.03397888045134673 0.019192864762988506 0.03481758590612011 0.019192864762988506 0.03481758590612011 C 0.019192864762988506 0.03481758590612011 0.02359040153080913 0.033643398269437366 0.02296218199254904 0.03381113936039205" fill="none" stroke="#000000" stroke-width="0.001"/>
<path d="M 0.02296218199254904 0.03381113936039205 C 0.02303921556531884 0.034445261147481365 0.024344939865263076 0.042547363816002 0.023886584865786622 0.04142060080546387 C 0.024344939865263076 0.042547363816002 0.02884376341297313 0.04782493671029842 0.028462441986266476 0.04733229548684961" fill="none" stroke="#000000" stroke-width="0.001"/>
<path d="M 0.028462441986266476 0.04733229548684961 C 0.028029651655008106 0.047185330002666295 0.022496493242559548 0.04508471286611857 0.023268958011166047 0.0455687096766498 C 0.022496493242559548 0.04508471286611857 0.01885319032564036 0.04118730243412699 0.01919286476298849 0.0415243337604749" fill="none" stroke="#000000" stroke-width="0.001"/>
<path d="M 0.01919286476298849 0.0415243337604749 C 0.018853190325640357 0.04186136508682281 0.01434430674620441 0.046052706487181023 0.01511677151481091 0.0455687096766498 C 0.01434430674620441 0.046052706487181023 0.009490497208452124 0.04747926097103293 0.009923287539710493 0.04733229548684961" fill="none" stroke="#000000" stroke-width="0.001"/>
<path d="M 0.009923287539710493 0.04733229548684961 C 0.010304608966417148 0.0468396542634008 0.014957499659666798 0.040293837794925735 0.014499144660190342 0.041420600805463864 C 0.014957499659666798 0.040293837794925735 0.01550058110619776 0.03317701757330273 0.015423547533427959 0.03381113936039205" fill="none" stroke="#000000" stroke-width="0.001"/>
<path d="M 0.015423547533427959 0.03381113936039205 C 0.01605176707168805 0.03397888045134673 0.019192864762988506 0.03481758590612011 0.019192864762988506 0.03481758590612011 C 0.019192864762988506 0.03481758590612011 0.014795327995167869 0.033643398269437366 0.015423547533427959 0.03381113936039205" fill="none" stroke="#000000" stroke-width="0.001"/>
<path d="M 0.015423547533427959 0.03381113936039205 C 0.015737657302558 0.03299638951123908 0.018714820829293825 0.022635483637163792 0.01919286476298849 0.02403414117055645 C 0.018714820829293825 0.022635483637163792 0.00819854136373042 0.0158916568837582 0.009687020329091998 0.017027248959680143 C 0.00819854136373042 0.0158916568837582 0.0006347919161126724 0.009855351867810863 0.0013311171786495437 0.010407036259493116" fill="none" stroke="#000000" stroke-width="0.001"/>
<path d="M 0.0013311171786495437 0.010407036259493116 C 0.0008177268432269569 0.00998395231984156 -0.006003591652687182 0.0049201683386029815 -0.0048295668464214975 0.0053300289836744515 C -0.006003591652687182 0.0049201683386029815 -0.013417814967381765 0.005501931813215568 -0.012757180496538668 0.005488708518635482" fill="none" stroke="#000000" stroke-width="0.001"/>
<path d="M -0.012757180496538668 0.005488708518635482 C -0.0123449206839387 0.004132302929867718 -0.009419863967241279 -0.00452782572765661 -0.010283621620938859 -0.0026497250139711024 C -0.009419863967241279 -0.00452782572765661 -0.00712313673325558 -0.006301590888395307 -0.007574634574353191 -0.0057798957634775635" fill="none" stroke="#000000" stroke-width="0.001"/>
</g><g transform="translate(0.3373434528286706,0.23916577780668663) rotate(0) scale(1,1) translate(-0.01919286476298845,-0.01919286476298845)"><path d="M -0.0016895058002789024 -0.0014156860156025453 C -0.0012755397506380764 -0.0012381045170721929 0.004011853897686174 0.0009741987743233146 0.00327808679541101 0.0007152919667616829 C 0.004011853897686174 0.0009741987743233146 0.0074355004796574035 0.001772520984168315 0.007115699427023066 0.0016911956751370356" fill="none" stroke="#000000" stroke-width="0.001"/>
<path d="M 0.007115699427023066 0.0016911956751370356 C 0.007553384124353007 0.0020403180624754273 0.013006528502860203 0.00660347582085576 0.012367915794982354 0.005880664323197737 C 0.013006528502860203 0.00660347582085576 0.014979979932105161 0.01073862275735295 0.014779051921557254 0.010364933647033317" fill="none" stroke="#000000" stroke-width="0.001"/>
<path d="M 0.014779051921557254 0.010364933647033317 C 0.015146869658343188 0.010541851879409028 0.01992850023656033 0.012487952435541851 0.01919286476298846 0.012487952435541851 C 0.01992850023656033 0.012487952435541851 0.0239744953412056 0.010188015414657607 0.023606677604419667 0.010364933647033317" fill="none" stroke="#000000" stroke-width="0.001"/>
<path d="M 0.023606677604419667 0.010364933647033317 C 0.023807605614967572 0.009991244536713685 0.026656426438872387 0.005157852825539713 0.02601781373099454 0.005880664323197737 C 0.026656426438872387 0.005157852825539713 0.03170771479628376 0.001342073287798644 0.03127003009895382 0.0016911956751370356" fill="none" stroke="#000000" stroke-width="0.001"/>
<path d="M 0.03127003009895382 0.0016911956751370356 C 0.03158983115158816 0.0016098703661057562 0.03584140983284105 0.0004563851592000502 0.03510764273056588 0.000715291966761682 C 0.03584140983284105 0.0004563851592000502 0.04048920137589668 -0.0015932675141328994 0.04007523532625585 -0.001415686015602547" fill="none" stroke="#000000" stroke-width="0.001"/>
<path d="M 0.04007523532625585 -0.001415686015602547 C 0.04061717739889862 -0.0006604292303244568 0.0443077425577915 0.004672520261971405 0.04332688776211246 0.0031158546960659943 C 0.0443077425577915 0.004672520261971405 0.04639927682336638 0.008725716160457236 0.0459603641003301 0.007924307379829916" fill="none" stroke="#000000" stroke-width="0.001"/>
<path d="M 0.0459603641003301 0.007924307379829916 C 0.04563238137591266 0.007849334014301742 0.0411681971127817 0.007283262746199186 0.0420245714073208 0.007024626993491814 C 0.0411681971127817 0.007283262746199186 0.035155480995739216 0.011361545530553926 0.03568387256586088 0.01102793641231838" fill="none" stroke="#000000" stroke-width="0.001"/>
<path d="M 0.03568387256586088 0.01102793641231838 C 0.03540367015967077 0.011422825821390366 0.03176103887919931 0.016625117818835605 0.032321443691579535 0.01576660932118222 C 0.03176103887919931 0.016625117818835605 0.02867881241110808 0.021793657472740386 0.028959014817298193 0.02133003838415899" fill="none" stroke="#000000" stroke-width="0.001"/>
<path d="M 0.028959014817298193 0.02133003838415899 C 0.028145168979439052 0.02176930165085743 0.01756517308727022 0.026601197584540267 0.019192864762988503 0.026601197584540267 C 0.01756517308727022 0.026601197584540267 0.008612868870819657 0.02089077511746055 0.009426714708678799 0.02133003838415899" fill="none" stroke="#000000" stroke-width="0.001"/>
<path d="M 0.009426714708678799 0.02133003838415899 C 0.009146512302488684 0.02086641929557759 0.005503881022017199 0.014908100823528836 0.006064285834397428 0.01576660932118222 C 0.005503881022017199 0.014908100823528836 0.0024216545539259425 0.010633047003246392 0.002701856960116057 0.01102793641231838" fill="none" stroke="#000000" stroke-width="0.001"/>
<path d="M 0.002701856960116057 0.01102793641231838 C 0.0021734653899943986 0.010694327294082833 -0.0044952161758829426 0.006765991240784446 -0.0036388418813438407 0.007024626993491817 C -0.0044952161758829426 0.006765991240784446 -0.007902617298770611 0.007999280745358099 -0.007574634574353167 0.007924307379829923" fill="none" stroke="#000000" stroke-width="0.001"/>
<path d="M -0.007574634574353167 0.007924307379829923 C -0.007135721851316893 0.0071228985992026015 -0.0039603034404564795 0.0015591891301605836 -0.004941158236135523 0.0031158546960659943 C -0.0039603034404564795 0.0015591891301605836 -0.0011475637276361405 -0.0021709428008806313 -0.0016895058002789093 -0.0014156860156025418" fill="none" stroke="#000000" stroke-width="0.001"/>
</g></g>
<g id="淫タトゥ">
<g id="渦">
<g transform="translate(0.3373434528286706,0.23916577780668663) rotate(0) scale(1,1) translate(-0.004044276755330287,-0.0037120127838791922)"><path d="M -0.01892968259352716 -0.013105686077159718 C -0.01887117072984451 -0.013210514137751123 -0.018119592120849414 -0.014559127715314087 -0.018227540229335374 -0.014363622804256576 C -0.018119592120849414 -0.014559127715314087 -0.017584869046892316 -0.015542421860315962 -0.01763430529169563 -0.015451745009849855" fill="none" stroke="#000000" stroke-width="0.001"/>
<path d="M -0.01763430529169563 -0.015451745009849855 C -0.017618473768767517 -0.015385008119010179 -0.017349561517703293 -0.014520669111052431 -0.01744432701655827 -0.014650902319773746 C -0.017349561517703293 -0.014520669111052431 -0.016251475870433144 -0.013744909410778237 -0.016497119305435872 -0.01388894650519408 C -0.016251475870433144 -0.013744909410778237 -0.014177552405097991 -0.012733936196861036 -0.014496605796525527 -0.012922457186783622 C -0.014177552405097991 -0.012733936196861036 -0.012427272043468244 -0.011359732529672227 -0.012668478608305445 -0.011626694626123042 C -0.012427272043468244 -0.011359732529672227 -0.011551617318696156 -0.009369868382998714 -0.011602127018479128 -0.00971891202937385 C -0.011551617318696156 -0.009369868382998714 -0.012287084918775113 -0.007115676547078238 -0.012062362210909791 -0.007438170869621401 C -0.012287084918775113 -0.007115676547078238 -0.014708279883365967 -0.005714138835129112 -0.014298799512863001 -0.005848980158855895 C -0.014708279883365967 -0.005714138835129112 -0.01734814829255564 -0.0059184483170588685 -0.016976126656945374 -0.005820074984900013 C -0.01734814829255564 -0.0059184483170588685 -0.018925369304887637 -0.007266415772536169 -0.018763059140186174 -0.007029460144762164 C -0.018925369304887637 -0.007266415772536169 -0.018851697816301218 -0.008875669855373677 -0.018923848633362918 -0.008663542518188076 C -0.018851697816301218 -0.008875669855373677 -0.01767892612017938 -0.009647932717736446 -0.017897249335445793 -0.009574988190989394 C -0.01767892612017938 -0.009647932717736446 -0.01610113300608227 -0.009474529189791211 -0.016303970050165973 -0.00953887683915271 C -0.01610113300608227 -0.009474529189791211 -0.015406602804658727 -0.00866825349479491 -0.01546320480644138 -0.008802816398651402 C -0.015406602804658727 -0.00866825349479491 -0.015697423669270037 -0.007799440063118513 -0.015624746028774138 -0.00792412199287483 C -0.015697423669270037 -0.007799440063118513 -0.016394552364360333 -0.007255175845633995 -0.016335336492392164 -0.007306633241575598" fill="none" stroke="none" stroke-width="0"/>
<path d="M -0.016335336492392164 -0.007306633241575598 C -0.016310569874157688 -0.007358161046567992 -0.016017940099833924 -0.008040730915135713 -0.016038137073578443 -0.007924966901484327 C -0.016017940099833924 -0.008040730915135713 -0.01617834687210438 -0.008797321174642945 -0.016092972807457917 -0.008695801405392226 C -0.01617834687210438 -0.008797321174642945 -0.017224778844138186 -0.009147709982509711 -0.017062625849336002 -0.009143204132492953 C -0.017224778844138186 -0.009147709982509711 -0.018125180255983402 -0.008609819630191976 -0.018038808745084105 -0.008749871605593328 C -0.018125180255983402 -0.008609819630191976 -0.018002350728338105 -0.00727140925508077 -0.018099083980127547 -0.007462580427676717 C -0.018002350728338105 -0.00727140925508077 -0.01661173214232693 -0.006372061261691777 -0.016878009723610813 -0.006455817534441966 C -0.01661173214232693 -0.006372061261691777 -0.014617734887005757 -0.006548696128138518 -0.014903753004720926 -0.006457505154674443 C -0.014617734887005757 -0.006548696128138518 -0.013310313277549111 -0.007778167505980164 -0.013445792311028791 -0.007550109216010866 C -0.013310313277549111 -0.007778167505980164 -0.013326857479616223 -0.009445382740534013 -0.01327800460296477 -0.009194204634306022 C -0.013326857479616223 -0.009445382740534013 -0.014205140582377642 -0.010763051345211501 -0.014032026830846233 -0.010564246490746759 C -0.014205140582377642 -0.010763051345211501 -0.015597234108990226 -0.011724692853708597 -0.015355369621341673 -0.011579862887882923 C -0.015597234108990226 -0.011724692853708597 -0.017163272943058448 -0.012399289829174478 -0.01693440068262887 -0.012302206080654843 C -0.017163272943058448 -0.012399289829174478 -0.01826811023907149 -0.012811824536493948 -0.01810183674649663 -0.012744867870118541 C -0.01826811023907149 -0.012811824536493948 -0.01899866974744637 -0.013135754261079815 -0.01892968259352716 -0.013105686077159718" fill="none" stroke="none" stroke-width="0"/>
</g><g transform="translate(0.3373434528286706,0.23916577780668663) rotate(0) scale(1,1) translate(-0.004044276755330287,-0.0037120127838791922)"><path d="M 0.027018236104187743 -0.013105686077159718 C 0.02694924895026853 -0.01307561789323962 0.026024116764582328 -0.012677911203743135 0.026190390257157192 -0.012744867870118541 C 0.026024116764582328 -0.012677911203743135 0.024794081932859795 -0.012205122332135209 0.02502295419328937 -0.012302206080654843 C 0.024794081932859795 -0.012205122332135209 0.023202058644353724 -0.01143503292205725 0.023443923132002276 -0.011579862887882923 C 0.023202058644353724 -0.01143503292205725 0.021947466589975356 -0.010365441636282016 0.022120580341506768 -0.010564246490746759 C 0.021947466589975356 -0.010365441636282016 0.02131770523697385 -0.00894302652807803 0.02136655811362531 -0.009194204634306022 C 0.02131770523697385 -0.00894302652807803 0.0216698248551689 -0.007322050926041567 0.021534345821689227 -0.007550109216010866 C 0.0216698248551689 -0.007322050926041567 0.023278324633096592 -0.006366314181210368 0.022992306515381422 -0.006457505154674443 C 0.023278324633096592 -0.006366314181210368 0.025232840815555158 -0.006539573807192156 0.024966563234271266 -0.006455817534441966 C 0.025232840815555158 -0.006539573807192156 0.026284370742577556 -0.0076537516002726635 0.026187637490788118 -0.007462580427676717 C 0.026284370742577556 -0.0076537516002726635 0.026040990744845227 -0.00888992358099468 0.026127362255744524 -0.008749871605593328 C 0.026040990744845227 -0.00888992358099468 0.024989026365194383 -0.009138698282476194 0.025151179359996556 -0.009143204132492953 C 0.024989026365194383 -0.009138698282476194 0.024096152253471965 -0.008594281636141508 0.02418152631811843 -0.008695801405392226 C 0.024096152253471965 -0.008594281636141508 0.024146887557983516 -0.007809202887832941 0.024126690584238997 -0.007924966901484327 C 0.024146887557983516 -0.007809202887832941 0.024448656621287146 -0.007255105436583204 0.024423890003052673 -0.007306633241575598" fill="none" stroke="none" stroke-width="0"/>
<path d="M 0.024423890003052673 -0.007306633241575598 C 0.024364674131084507 -0.007358090637517201 0.023640621898938785 -0.008048803922631147 0.023713299539434685 -0.00792412199287483 C 0.023640621898938785 -0.008048803922631147 0.023608360318884525 -0.008937379302507893 0.02355175831710188 -0.008802816398651402 C 0.023608360318884525 -0.008937379302507893 0.02459536060491015 -0.00960322448851421 0.02439252356082644 -0.00953887683915271 C 0.02459536060491015 -0.00960322448851421 0.026204126061372828 -0.009502043664242342 0.02598580284610641 -0.009574988190989394 C 0.026204126061372828 -0.009502043664242342 0.02708455296108514 -0.008451415181002474 0.02701240214402345 -0.008663542518188076 C 0.02708455296108514 -0.008451415181002474 0.026689302486145223 -0.0067925045169881584 0.02685161265084668 -0.007029460144762164 C 0.026689302486145223 -0.0067925045169881584 0.02469265853199572 -0.005721701652741157 0.02506468016760599 -0.005820074984900013 C 0.02469265853199572 -0.005721701652741157 0.02197787265302048 -0.005983821482582677 0.02238735302352346 -0.005848980158855895 C 0.02197787265302048 -0.005983821482582677 0.019926193013704924 -0.007760665192164564 0.02015091572157024 -0.007438170869621401 C 0.019926193013704924 -0.007760665192164564 0.019741190228922678 -0.010067955675748986 0.019690680529139692 -0.00971891202937385 C 0.019741190228922678 -0.010067955675748986 0.020998238683803256 -0.011893656722573857 0.020757032118966068 -0.011626694626123042 C 0.020998238683803256 -0.011893656722573857 0.022904212698613497 -0.013110978176706208 0.022585159307185965 -0.012922457186783622 C 0.022904212698613497 -0.013110978176706208 0.024831316251099207 -0.014032983599609923 0.02458567281609647 -0.01388894650519408 C 0.024831316251099207 -0.014032983599609923 0.025627646026073776 -0.014781135528495061 0.025532880527218804 -0.014650902319773746 C 0.025627646026073776 -0.014781135528495061 0.025738690325284252 -0.01551848190068953 0.02572285880235614 -0.015451745009849855" fill="none" stroke="none" stroke-width="0"/>
<path d="M 0.02572285880235614 -0.015451745009849855 C 0.02577229504715946 -0.015361068159383748 0.02642404184848196 -0.014168117893199064 0.026316093739995994 -0.014363622804256576 C 0.02642404184848196 -0.014168117893199064 0.02707674796787039 -0.013000858016568313 0.027018236104187743 -0.013105686077159718" fill="none" stroke="#000000" stroke-width="0.001"/>
</g><g transform="translate(0.3373434528286706,0.23916577780668663) rotate(0) scale(1,1) translate(-0.0050491035115750255,-0.003435371609681657)"><path d="M -0.022620263233708745 -0.006772735292067625 C -0.022538751438544707 -0.006868938385172324 -0.02149039012211558 -0.008109523983241029 -0.0216421216917403 -0.007927172409324022 C -0.02149039012211558 -0.008109523983241029 -0.020729264623751385 -0.009047102659884005 -0.02079948439821207 -0.008960954179071699" fill="none" stroke="#000000" stroke-width="0.001"/>
<path d="M -0.02079948439821207 -0.008960954179071699 C -0.020792744425434044 -0.008905153618226469 -0.02067431631889804 -0.00819056268159056 -0.020718604724875734 -0.008291347448928935 C -0.02067431631889804 -0.00819056268159056 -0.02013666047694475 -0.007650177649253573 -0.02026802352647978 -0.0077515369710112 C -0.02013666047694475 -0.007650177649253573 -0.01893415274085458 -0.006921694610343968 -0.019142248130455414 -0.0070750355878374084 C -0.01893415274085458 -0.006921694610343968 -0.017584937801037606 -0.0056596656698935585 -0.017770878851269732 -0.005911445241089915 C -0.017584937801037606 -0.0056596656698935585 -0.01687764818340581 -0.003708805261201031 -0.016910955527669906 -0.004053680733481134 C -0.01687764818340581 -0.003708805261201031 -0.017599172410320208 -0.0014602609116352305 -0.017371190720100564 -0.0017729395737286823 C -0.017599172410320208 -0.0014602609116352305 -0.020059475163162938 -0.0001765111250826427 -0.01964673581030565 -0.00030153678835971365 C -0.020059475163162938 -0.0001765111250826427 -0.022696084589998295 -0.00037100494656268725 -0.02232406295438803 -0.00027263161440383094 C -0.022696084589998295 -0.00037100494656268725 -0.02427330560233029 -0.0017189724020399946 -0.024110995437628825 -0.0014820167742659893 C -0.02427330560233029 -0.0017189724020399946 -0.02419963411374387 -0.003328226484877496 -0.02427178493080557 -0.003116099147691894 C -0.02419963411374387 -0.003328226484877496 -0.023026862417622026 -0.004100489347240264 -0.023245185632888438 -0.004027544820493211 C -0.023026862417622026 -0.004100489347240264 -0.02144906930352493 -0.003927085819295034 -0.021651906347608628 -0.003991433468656533 C -0.02144906930352493 -0.003927085819295034 -0.02075453910210138 -0.003120810124298733 -0.02081114110388403 -0.0032553730281552236 C -0.02075453910210138 -0.003120810124298733 -0.02104535996671269 -0.0022519966926223284 -0.02097268232621679 -0.0023766786223786457 C -0.02104535996671269 -0.0022519966926223284 -0.02174248866180298 -0.0017077324751378165 -0.021683272789834812 -0.0017591898710794186" fill="none" stroke="none" stroke-width="0"/>
<path d="M -0.021683272789834812 -0.0017591898710794186 C -0.021658506171600336 -0.0018107176760718126 -0.021365876397276575 -0.002493287544639531 -0.021386073371021094 -0.0023775235309881453 C -0.021365876397276575 -0.002493287544639531 -0.021526283169547036 -0.0032498778041467665 -0.021440909104900572 -0.0031483580348960474 C -0.021526283169547036 -0.0032498778041467665 -0.022572715141580837 -0.003600266612013534 -0.022410562146778657 -0.003595760761996776 C -0.022572715141580837 -0.003600266612013534 -0.023473116553426047 -0.0030623762596957917 -0.023386745042526753 -0.003202428235097145 C -0.023473116553426047 -0.0030623762596957917 -0.02335028702578075 -0.001723965884584587 -0.02344702027757019 -0.0019151370571805332 C -0.02335028702578075 -0.001723965884584587 -0.02195966843976958 -0.0008246178911956026 -0.022225946021053464 -0.0009083741639457912 C -0.02195966843976958 -0.0008246178911956026 -0.019965671184448405 -0.0010012527576423443 -0.020251689302163575 -0.00091006178417827 C -0.019965671184448405 -0.0010012527576423443 -0.01865824957499176 -0.002230724135483979 -0.01879372860847144 -0.002002665845514681 C -0.01865824957499176 -0.002230724135483979 -0.018654308800768644 -0.0038839233336287267 -0.018625940900407423 -0.0036467612638098426 C -0.018654308800768644 -0.0038839233336287267 -0.019249221455702226 -0.005012793605696156 -0.0191341434128061 -0.004848610683341291 C -0.019249221455702226 -0.005012793605696156 -0.02016799016541503 -0.005723152284306122 -0.02000687741516093 -0.005616956332068217 C -0.02016799016541503 -0.005723152284306122 -0.021233988618711078 -0.006194317369297215 -0.021067496415855282 -0.006122962110196144 C -0.021233988618711078 -0.006194317369297215 -0.022134181084251612 -0.0065273672064370195 -0.02200478384943049 -0.006473219441281063 C -0.022134181084251612 -0.0065273672064370195 -0.0226715531823986 -0.006797694946299838 -0.022620263233708745 -0.006772735292067625" fill="none" stroke="none" stroke-width="0"/>
</g><g transform="translate(0.3373434528286706,0.23916577780668663) rotate(0) scale(1,1) translate(-0.0050491035115750255,-0.003435371609681657)"><path d="M 0.03271847025685881 -0.006772735292067625 C 0.03266718030816895 -0.006747775637835411 0.03197359363775939 -0.006419071676125106 0.032102990872580506 -0.006473219441281063 C 0.03197359363775939 -0.006419071676125106 0.030999211236149588 -0.006051606851095073 0.031165703439005377 -0.006122962110196144 C 0.030999211236149588 -0.006051606851095073 0.02994397168805696 -0.005510760379830312 0.03010508443831106 -0.005616956332068217 C 0.02994397168805696 -0.005510760379830312 0.029117272393060056 -0.004684427760986426 0.029232350435956178 -0.004848610683341291 C 0.029117272393060056 -0.004684427760986426 0.028695780023196376 -0.0034095991939909584 0.028724147923557597 -0.0036467612638098426 C 0.028695780023196376 -0.0034095991939909584 0.029027414665101187 -0.0017746075555453834 0.028891935631621513 -0.002002665845514681 C 0.029027414665101187 -0.0017746075555453834 0.030635914443028878 -0.0008188708107141958 0.030349896325313708 -0.00091006178417827 C 0.030635914443028878 -0.0008188708107141958 0.03259043062548744 -0.0009921304366959799 0.03232415304420355 -0.0009083741639457912 C 0.03259043062548744 -0.0009921304366959799 0.03364196055250984 -0.0021063082297764794 0.033545227300720404 -0.0019151370571805332 C 0.03364196055250984 -0.0021063082297764794 0.03339858055477751 -0.0033424802104984985 0.03348495206567681 -0.003202428235097145 C 0.03339858055477751 -0.0033424802104984985 0.032346616175126665 -0.003591254911980018 0.03250876916992884 -0.003595760761996776 C 0.032346616175126665 -0.003591254911980018 0.031453742063404254 -0.0030468382656453283 0.031539116128050715 -0.0031483580348960474 C 0.031453742063404254 -0.0030468382656453283 0.031504477367915805 -0.0022617595173367597 0.03148428039417128 -0.0023775235309881453 C 0.031504477367915805 -0.0022617595173367597 0.03180624643121943 -0.0017076620660870247 0.03178147981298496 -0.0017591898710794186" fill="none" stroke="none" stroke-width="0"/>
<path d="M 0.03178147981298496 -0.0017591898710794186 C 0.03172226394101679 -0.0018106472670210208 0.03099821170887107 -0.002501360552134963 0.03107088934936697 -0.0023766786223786457 C 0.03099821170887107 -0.002501360552134963 0.03096595012881681 -0.003389935932011714 0.030909348127034164 -0.0032553730281552236 C 0.03096595012881681 -0.003389935932011714 0.03195295041484242 -0.004055781118018032 0.031750113370758726 -0.003991433468656533 C 0.03195295041484242 -0.004055781118018032 0.03356171587130489 -0.0039546002937461576 0.03334339265603847 -0.004027544820493211 C 0.03356171587130489 -0.0039546002937461576 0.034442142771017446 -0.0029039718105062923 0.034369991953955736 -0.003116099147691894 C 0.034442142771017446 -0.0029039718105062923 0.03404689229607749 -0.001245061146491984 0.034209202460778965 -0.0014820167742659893 C 0.03404689229607749 -0.001245061146491984 0.03205024834192779 -0.00017425828224497462 0.032422269977538054 -0.00027263161440383094 C 0.03205024834192779 -0.00017425828224497462 0.02933220348059847 -0.0004265624516367846 0.029744942833455745 -0.00030153678835971365 C 0.02933220348059847 -0.0004265624516367846 0.027241416053031098 -0.002085618235822134 0.027469397743250745 -0.0017729395737286823 C 0.027241416053031098 -0.002085618235822134 0.027042469895084076 -0.004398556205761237 0.027009162550819976 -0.004053680733481134 C 0.027042469895084076 -0.004398556205761237 0.028055026924652077 -0.006163224812286271 0.02786908587441994 -0.005911445241089915 C 0.028055026924652077 -0.006163224812286271 0.02944855054320646 -0.007228376565330849 0.029240455153605627 -0.0070750355878374084 C 0.02944855054320646 -0.007228376565330849 0.030497593599164968 -0.007852896292768828 0.030366230549629947 -0.0077515369710112 C 0.030497593599164968 -0.007852896292768828 0.030861100154003545 -0.00839213221626731 0.030816811748025863 -0.008291347448928935 C 0.030861100154003545 -0.00839213221626731 0.030904431394140137 -0.009016754739916928 0.030897691421362117 -0.008960954179071699" fill="none" stroke="none" stroke-width="0"/>
<path d="M 0.030897691421362117 -0.008960954179071699 C 0.030967911195822817 -0.008874805698259393 0.031892060284515245 -0.0077448208354070165 0.03174032871489052 -0.007927172409324022 C 0.031892060284515245 -0.0077448208354070165 0.032799982052022836 -0.006676532198962925 0.03271847025685881 -0.006772735292067625" fill="none" stroke="#000000" stroke-width="0.001"/>
</g></g>
<g id="ハート">
<g transform="translate(0.3373434528286706,0.23916577780668663) rotate(0) scale(1,1) translate(4.531817165381619E-05,-0.007618185234386916)"><path d="M -0.036199665645516174 0.015743464241063244 C -0.03609938807508192 0.01555852958817754 -0.03480606393557553 0.013179501517404785 -0.034996334800305166 0.013524248406434791 C -0.03480606393557553 0.013179501517404785 -0.03376365294334223 0.011353396326339249 -0.03391641526876053 0.011606501572703175 C -0.03376365294334223 0.011353396326339249 -0.03302602041897583 0.010290551630196144 -0.033163186895285544 0.010486985450067678 C -0.03302602041897583 0.010290551630196144 -0.03216850127476303 0.009086387528284253 -0.03227041755304398 0.009249295734244763 C -0.03216850127476303 0.009086387528284253 -0.03192306289193474 0.008456666769783957 -0.03194019155591406 0.008532086978541551 C -0.03192306289193474 0.008456666769783957 -0.03209469028844586 0.00833916598130244 -0.03206487358529222 0.008344253229153643 C -0.03209469028844586 0.00833916598130244 -0.03233516319141314 0.0085076939394198 -0.03229799199375777 0.008471040004327107 C -0.03233516319141314 0.0085076939394198 -0.032528672620773295 0.008810188820760869 -0.03251092795715672 0.008784100450265965" fill="none" stroke="none" stroke-width="0"/>
<path d="M -0.03251092795715672 0.008784100450265965 C -0.03250891848871401 0.008779772977936428 -0.0324829878260364 0.00872396259990548 -0.03248681433584428 0.008732170782311534 C -0.0324829878260364 0.00872396259990548 -0.032463192798096924 0.0086817215513168 -0.03246500983946211 0.008685602261393317" fill="none" stroke="#000000" stroke-width="0.001"/>
<path d="M -0.03246500983946211 0.008685602261393317 C -0.032431582187950336 0.008625044323669676 -0.03198405182387271 0.007873878756960382 -0.03206387802132083 0.007958907008709626 C -0.03198405182387271 0.007873878756960382 -0.03142599972441644 0.007684552412319166 -0.03150709547008466 0.007665263240402393 C -0.03142599972441644 0.007684552412319166 -0.031087998680589538 0.008325537705213453 -0.031090729073302195 0.008190377071710902 C -0.031087998680589538 0.008325537705213453 -0.03161105644674989 0.009500117340084265 -0.031474330757532774 0.009287190842433003 C -0.03161105644674989 0.009500117340084265 -0.032923432815229886 0.01096823305873465 -0.032731437343907585 0.01074549504352606 C -0.032923432815229886 0.01096823305873465 -0.03395448653570421 0.01218904232027772 -0.033778276413400386 0.011960047024936074 C -0.03395448653570421 0.01218904232027772 -0.035062664123903804 0.013866478313022143 -0.034845958811553425 0.013493438587625813 C -0.035062664123903804 0.013866478313022143 -0.03650647194077593 0.016681780824864215 -0.036378740161604965 0.01643652372969203" fill="none" stroke="none" stroke-width="0"/>
<path d="M -0.036378740161604965 0.01643652372969203 C -0.03636905681806275 0.01639971928066807 -0.03624761716275766 0.015937115384018766 -0.03626254003909839 0.0159948703414045 C -0.03624761716275766 0.015937115384018766 -0.036194426112717656 0.015722513732701473 -0.036199665645516174 0.015743464241063244" fill="none" stroke="#000000" stroke-width="0.001"/>
</g><g transform="translate(0.3373434528286706,0.23916577780668663) rotate(0) scale(1,1) translate(4.531817165381619E-05,-0.007618185234386916)"><path d="M 0.036109029302208606 0.015743464241063244 C 0.03611426883500713 0.015764414749425016 0.03618682657213163 0.016052625298790233 0.036171903695790895 0.0159948703414045 C 0.03618682657213163 0.016052625298790233 0.036297787161839686 0.016473328178715992 0.036288103818297474 0.01643652372969203" fill="none" stroke="#000000" stroke-width="0.001"/>
<path d="M 0.036288103818297474 0.01643652372969203 C 0.03616037203912652 0.016191266634519846 0.034538617155895596 0.013120398862229482 0.034755322468245975 0.013493438587625813 C 0.034538617155895596 0.013120398862229482 0.03351142994778913 0.011731051729594428 0.03368764007009295 0.011960047024936074 C 0.03351142994778913 0.011731051729594428 0.03244880552927776 0.01052275702831747 0.03264080100060007 0.01074549504352606 C 0.03244880552927776 0.01052275702831747 0.031246968725008057 0.00907426434478174 0.03138369441422517 0.009287190842433003 C 0.031246968725008057 0.00907426434478174 0.031002823122707374 0.00805521643820835 0.03100009272999471 0.008190377071710902 C 0.031002823122707374 0.00805521643820835 0.03149755487244538 0.00764597406848562 0.03141645912677715 0.007665263240402393 C 0.03149755487244538 0.00764597406848562 0.03205306787546153 0.00804393526045887 0.03197324167801341 0.007958907008709626 C 0.03205306787546153 0.00804393526045887 0.03240780114766634 0.008746160199116958 0.032374373496154574 0.008685602261393317" fill="none" stroke="none" stroke-width="0"/>
<path d="M 0.032374373496154574 0.008685602261393317 C 0.03237619053751976 0.008689482971469835 0.03240000450234468 0.008740378964717589 0.0323961779925368 0.008732170782311534 C 0.03240000450234468 0.008740378964717589 0.03242230108229188 0.008788427922595501 0.032420291613849184 0.008784100450265965" fill="none" stroke="#000000" stroke-width="0.001"/>
<path d="M 0.032420291613849184 0.008784100450265965 C 0.03240254695023261 0.00875801207977106 0.032170184452794924 0.008434386069234414 0.0322073556504503 0.008471040004327107 C 0.032170184452794924 0.008434386069234414 0.03194442053883103 0.008349340477004847 0.03197423724198467 0.008344253229153643 C 0.03194442053883103 0.008349340477004847 0.03186668387658589 0.008607507187299145 0.03184955521260657 0.008532086978541551 C 0.03186668387658589 0.008607507187299145 0.03228169748801737 0.009412203940205274 0.03217978120973641 0.009249295734244763 C 0.03228169748801737 0.009412203940205274 0.03320971702828771 0.010683419269939213 0.033072550551978 0.010486985450067678 C 0.03320971702828771 0.010683419269939213 0.033978541250871325 0.0118596068190671 0.03382577892545302 0.011606501572703175 C 0.033978541250871325 0.0118596068190671 0.035095969321727295 0.013868995295464797 0.03490569845699766 0.013524248406434791 C 0.035095969321727295 0.013868995295464797 0.03620930687264285 0.01592839889394895 0.036109029302208606 0.015743464241063244" fill="none" stroke="none" stroke-width="0"/>
</g><g transform="translate(0.3373434528286706,0.23916577780668663) rotate(0) scale(1,1) translate(0.00011198358255654973,-0.007639437628074994)"><path d="M -0.0368602921237716 0.01800299613094585 C -0.03669059627548167 0.01771730920260005 -0.03453048358223136 0.014147800074696421 -0.03482394194429248 0.014574752990796224 C -0.03453048358223136 0.014147800074696421 -0.033024409034841676 0.01256067846168595 -0.03333879177903817 0.01287956113774821 C -0.033024409034841676 0.01256067846168595 -0.030739735207031462 0.010413388462640618 -0.031051349013934616 0.010748160878049117 C -0.030739735207031462 0.010413388462640618 -0.029428198993785144 0.008552100931981946 -0.029599426096200327 0.008862292152846203 C -0.029428198993785144 0.008552100931981946 -0.029003576702535214 0.006770447144750735 -0.028996623784952432 0.007025866227678041 C -0.029003576702535214 0.006770447144750735 -0.029827769741834546 0.005696122603900121 -0.029682861107193727 0.005797263157718529 C -0.029827769741834546 0.005696122603900121 -0.030911684663511525 0.005909197935415897 -0.030735527400642237 0.005812179581857154 C -0.030911684663511525 0.005909197935415897 -0.03188518333337378 0.0070572587186372975 -0.0317967482616252 0.00696148340042344" fill="none" stroke="none" stroke-width="0"/>
<path d="M -0.0317967482616252 0.00696148340042344 C -0.03175808576612128 0.00685406213467988 -0.03149318090315871 0.00611251357243537 -0.03156477328860171 0.006316955805962082 C -0.03149318090315871 0.00611251357243537 -0.03133426405902813 0.005637809031480014 -0.03136719394896721 0.0057348299992631665" fill="none" stroke="#000000" stroke-width="0.001"/>
<path d="M -0.03136719394896721 0.0057348299992631665 C -0.03129410508340672 0.0056628693213899685 -0.0302918221730403 0.004781656151397172 -0.030490127562241367 0.004871301864784792 C -0.0302918221730403 0.004781656151397172 -0.02875412072721674 0.004773219823518565 -0.02898752927855443 0.004659081438611727 C -0.02875412072721674 0.004773219823518565 -0.027604077155955337 0.006587107231720629 -0.027689224946189046 0.006240962483666853 C -0.027604077155955337 0.006587107231720629 -0.028164213897216264 0.009244256149147406 -0.027965755795749902 0.008812818415257039 C -0.028164213897216264 0.009244256149147406 -0.0304461492076678 0.01179887060082085 -0.030070722163785382 0.011418215290351261 C -0.0304461492076678 0.01179887060082085 -0.032824534695664 0.013699568899613806 -0.03247088032233888 0.013380682140892088 C -0.032824534695664 0.013699568899613806 -0.034709456501967204 0.015742870061016493 -0.03431457464368687 0.015244856395011878 C -0.034709456501967204 0.015742870061016493 -0.037450703286537615 0.019699511944442093 -0.037209462621702945 0.019356846132947463" fill="none" stroke="none" stroke-width="0"/>
<path d="M -0.037209462621702945 0.019356846132947463 C -0.03719357457325282 0.01929417499425319 -0.0369897084988072 0.018491971635116056 -0.03701880604030148 0.01860479246861619 C -0.0369897084988072 0.018491971635116056 -0.036847082630727446 0.01795284643613999 -0.0368602921237716 0.01800299613094585" fill="none" stroke="#000000" stroke-width="0.001"/>
</g><g transform="translate(0.3373434528286706,0.23916577780668663) rotate(0) scale(1,1) translate(0.00011198358255654973,-0.007639437628074994)"><path d="M 0.036636324958658685 0.01800299613094585 C 0.036649534451702846 0.018053145825751713 0.0368239364166829 0.018717613302116323 0.03679483887518862 0.01860479246861619 C 0.0368239364166829 0.018717613302116323 0.03700138350504011 0.019419517271641734 0.036985495456589995 0.019356846132947463" fill="none" stroke="#000000" stroke-width="0.001"/>
<path d="M 0.036985495456589995 0.019356846132947463 C 0.03674425479175532 0.01901418032145283 0.03369572562029349 0.014746842729007264 0.03409060747857384 0.015244856395011878 C 0.03369572562029349 0.014746842729007264 0.03189325878390072 0.01306179538217037 0.03224691315722583 0.013380682140892088 C 0.03189325878390072 0.01306179538217037 0.02947132795479011 0.011037559979881673 0.02984675499867251 0.011418215290351261 C 0.02947132795479011 0.011037559979881673 0.027543330529170667 0.008381380681366672 0.027741788630637032 0.008812818415257039 C 0.027543330529170667 0.008381380681366672 0.027550405571309815 0.0058948177356130775 0.027465257781076113 0.006240962483666853 C 0.027550405571309815 0.0058948177356130775 0.02899697066477913 0.004544943053704888 0.028763562113441443 0.004659081438611727 C 0.02899697066477913 0.004544943053704888 0.030464465786329442 0.004960947578172412 0.030266160397128372 0.004871301864784792 C 0.030464465786329442 0.004960947578172412 0.031216315649414777 0.005806790677136364 0.031143226783854283 0.0057348299992631665" fill="none" stroke="none" stroke-width="0"/>
<path d="M 0.031143226783854283 0.0057348299992631665 C 0.031176156673793365 0.005831850967046319 0.03141239850893177 0.006521398039488794 0.031340806123488774 0.006316955805962082 C 0.03141239850893177 0.006521398039488794 0.03161144359201621 0.007068904666167 0.03157278109651229 0.00696148340042344" fill="none" stroke="#000000" stroke-width="0.001"/>
<path d="M 0.03157278109651229 0.00696148340042344 C 0.03148434602476371 0.006865708082209583 0.030335402972659964 0.005715161228298411 0.030511560235529256 0.005812179581857154 C 0.030335402972659964 0.005715161228298411 0.029313985307439967 0.005898403711536936 0.029458893942080788 0.005797263157718529 C 0.029313985307439967 0.005898403711536936 0.028765703702256618 0.007281285310605347 0.02877265661983941 0.007025866227678041 C 0.028765703702256618 0.007281285310605347 0.029546686033502467 0.00917248337371046 0.029375458931087284 0.008862292152846203 C 0.029546686033502467 0.00917248337371046 0.031138995655724772 0.011082933293457617 0.03082738184882161 0.010748160878049117 C 0.031138995655724772 0.011082933293457617 0.033429207358121715 0.01319844381381047 0.03311482461392523 0.01287956113774821 C 0.033429207358121715 0.01319844381381047 0.03489343314124054 0.015001705906896028 0.03459997477917942 0.014574752990796224 C 0.03489343314124054 0.015001705906896028 0.03680602080694862 0.018288683059291655 0.036636324958658685 0.01800299613094585" fill="none" stroke="none" stroke-width="0"/>
</g></g>
</g>
<g id="獣性">
<g transform="translate(0.31513853052743,0.22084630400552918) rotate(0) scale(1,1) translate(-0.009690334973390745,-0.009690334973390745)"><path d="M 0.010212786241114694 0.008853209355832928 C 0.010500590565024238 0.00908630495891528 0.014175616894276927 0.012167459451052342 0.013666438128029233 0.01165035659282116 C 0.014175616894276927 0.012167459451052342 0.01654430587842519 0.015342450909755915 0.016322931436087037 0.015058443654607089" fill="none" stroke="none" stroke-width="0"/>
<path d="M 0.016322931436087037 0.015058443654607089 C 0.015889346508678657 0.014851072741298436 0.010454880521656565 0.012331595566595173 0.011119912307186484 0.012569992694903248 C 0.010454880521656565 0.012331595566595173 0.008111103151606463 0.012166651899910756 0.008342550009728004 0.012197678114910179" fill="none" stroke="none" stroke-width="0"/>
<path d="M 0.008342550009728004 0.012197678114910179 C 0.008438308305088623 0.012027784145983673 0.009647502573337656 0.009880244757869009 0.009491649554055431 0.010158950487792112 C 0.009647502573337656 0.009880244757869009 0.010272880965036292 0.00874439759483633 0.010212786241114687 0.00885320935583293" fill="none" stroke="none" stroke-width="0"/>
</g><g transform="translate(0.3595483751299111,0.22084630400552924) rotate(0) scale(1,1) translate(-0.009690334973390745,-0.009690334973390745)"><path d="M 0.009167883705666902 0.00885320935583293 C 0.009227978429588501 0.00896202111682953 0.010044873412008317 0.010437656217715216 0.0098890203927261 0.010158950487792112 C 0.010044873412008317 0.010437656217715216 0.01113387823241412 0.012367572083836684 0.011038119937053503 0.012197678114910179" fill="none" stroke="none" stroke-width="0"/>
<path d="M 0.011038119937053503 0.012197678114910179 C 0.01080667307893197 0.012228704329909601 0.0075957258540651955 0.012808389823211324 0.008260757639595107 0.012569992694903248 C 0.0075957258540651955 0.012808389823211324 0.0026241535832861964 0.015265814567915741 0.0030577385106945743 0.015058443654607089" fill="none" stroke="none" stroke-width="0"/>
<path d="M 0.0030577385106945743 0.015058443654607089 C 0.003279112953032718 0.014774436399458262 0.006223410584999996 0.01113325373458998 0.005714231818752302 0.01165035659282116 C 0.006223410584999996 0.01113325373458998 0.009455688029576451 0.008620113752750576 0.009167883705666902 0.008853209355832928" fill="none" stroke="none" stroke-width="0"/>
</g></g>
<g id="紋柄">
<g id="紋左">
<g transform="translate(0.31513853052743,0.22084630400552918) rotate(0) scale(1,1) translate(-0.011409164915427155,-0.011409164915427157)"><path d="M 0.01430495226897865 0.018456344470335836 C 0.014343756200608352 0.01823755580283601 0.01667651164751686 0.01770485365064278 0.016529903016825956 0.017560701866773172 C 0.01667651164751686 0.01770485365064278 0.015878843274948904 0.02026080276040133 0.016064255837269514 0.02018616587677111 C 0.015878843274948904 0.02026080276040133 0.014343756200608352 0.01823755580283601 0.01430495226897865 0.018456344470335836 Z" fill="#cccccc" stroke="none" stroke-width="0"/>
</g><g transform="translate(0.31513853052743,0.22084630400552918) rotate(0) scale(1,1) translate(-0.011409164915427155,-0.011409164915427157)"><path d="M 0.007780607273201432 0.020711274362442036 C 0.00764637729088728 0.020569796144061896 0.008952587129043909 0.01831313356663632 0.008738530233381423 0.018367010657039707 C 0.008952587129043909 0.01831313356663632 0.010269463107802919 0.020260104586384914 0.010349290021151251 0.020064749277601386 C 0.010269463107802919 0.020260104586384914 0.00764637729088728 0.020569796144061896 0.007780607273201432 0.020711274362442036 Z" fill="#cccccc" stroke="none" stroke-width="0"/>
</g><g transform="translate(0.31513853052743,0.22084630400552918) rotate(0) scale(1,1) translate(-0.011409164915427155,-0.011409164915427157)"><path d="M 0.011391823520292735 0.015277170786322864 C 0.011349655830608157 0.015090755817432515 0.01309312242176711 0.01331414473316831 0.012923329254252547 0.013293071381358339 C 0.01309312242176711 0.01331414473316831 0.013301716052637502 0.015695392625122904 0.013429341530467487 0.015530051008042528 C 0.013301716052637502 0.015695392625122904 0.011349655830608157 0.015090755817432515 0.011391823520292735 0.015277170786322864 Z" fill="#cccccc" stroke="none" stroke-width="0"/>
</g></g>
<g id="紋右">
<g transform="translate(0.3595483751299111,0.22084630400552924) rotate(0) scale(1,1) translate(-0.011409164915427155,-0.011409164915427157)"><path d="M 0.006754073993584857 0.02018616587677111 C 0.006568661431264255 0.02011152899314089 0.00643503544471939 0.017416550082903565 0.006288426814028487 0.017560701866773172 C 0.00643503544471939 0.017416550082903565 0.0085521814935054 0.018675133137835663 0.008513377561875703 0.018456344470335836 C 0.0085521814935054 0.018675133137835663 0.006568661431264255 0.02011152899314089 0.006754073993584857 0.02018616587677111 Z" fill="#cccccc" stroke="none" stroke-width="0"/>
</g><g transform="translate(0.3595483751299111,0.22084630400552924) rotate(0) scale(1,1) translate(-0.011409164915427155,-0.011409164915427157)"><path d="M 0.012469039809703156 0.020064749277601386 C 0.012389212896354829 0.01986939396881786 0.014293856493135486 0.018420887747443094 0.014079799597473006 0.018367010657039707 C 0.014293856493135486 0.018420887747443094 0.014903492575338774 0.020852752580822177 0.015037722557652929 0.020711274362442036 C 0.014903492575338774 0.020852752580822177 0.012389212896354829 0.01986939396881786 0.012469039809703156 0.020064749277601386 Z" fill="#cccccc" stroke="none" stroke-width="0"/>
</g><g transform="translate(0.3595483751299111,0.22084630400552924) rotate(0) scale(1,1) translate(-0.011409164915427155,-0.011409164915427157)"><path d="M 0.009388988300386886 0.015530051008042528 C 0.009261362822556907 0.01536470939096215 0.010064793744116443 0.013271998029548367 0.00989500057660188 0.013293071381358339 C 0.010064793744116443 0.013271998029548367 0.011384338620877062 0.015463585755213213 0.011426506310561645 0.015277170786322864 C 0.011384338620877062 0.015463585755213213 0.009261362822556907 0.01536470939096215 0.009388988300386886 0.015530051008042528 Z" fill="#cccccc" stroke="none" stroke-width="0"/>
</g></g>
</g>
<g id="鱗">
<g id="左">
<g transform="translate(0.31513853052743,0.22084630400552918) rotate(0) scale(1,1) translate(-0.0857970750145922,-0.08579707501459222)"><path d="M 0.08845284791383735 0.09250620544295744 C 0.08785027996771717 0.09244724520730135 0.08557778579219336 0.09071936038931795 0.08589342316183624 0.09119069592983167 C 0.08557778579219336 0.09071936038931795 0.08611189855586474 0.08833450831501793 0.08592774895669433 0.08873552111884764 C 0.08611189855586474 0.08833450831501793 0.08791594287752029 0.08812539366748608 0.08736661995519944 0.08798259349919407 C 0.08791594287752029 0.08812539366748608 0.09074075068221091 0.09033789550466943 0.09032233233526113 0.08987792246518364 C 0.09074075068221091 0.09033789550466943 0.09048028117811975 0.09199091318730217 0.09071396673079772 0.09166237781508044 C 0.09048028117811975 0.09199091318730217 0.08785027996771717 0.09244724520730135 0.08845284791383735 0.09250620544295744 Z" fill="#cccccc" stroke="#000000" stroke-width="0.001"/>
</g><g transform="translate(0.31513853052743,0.22084630400552918) rotate(0) scale(1,1) translate(-0.0857970750145922,-0.08579707501459222)"><path d="M 0.08534101048160089 0.09717117225052992 C 0.08476177408245489 0.09714426219255941 0.08286258465851801 0.0958330296844887 0.08315489048118671 0.0962829984398787 C 0.08286258465851801 0.0958330296844887 0.08319254638616527 0.0931490426184565 0.08300256390025132 0.09357142220740992 C 0.08319254638616527 0.0931490426184565 0.08520074174384495 0.0930147117188577 0.0846747503684983 0.09290396172825129 C 0.08520074174384495 0.0930147117188577 0.0875997488162567 0.09490671177918514 0.08721049490302465 0.09445742213226122 C 0.0875997488162567 0.09490671177918514 0.08755509612167674 0.09683749766842631 0.08778878167435471 0.09649827890364272 C 0.08755509612167674 0.09683749766842631 0.08476177408245489 0.09714426219255941 0.08534101048160089 0.09717117225052992 Z" fill="#cccccc" stroke="#000000" stroke-width="0.001"/>
</g></g>
<g id="右">
<g transform="translate(0.3595483751299111,0.22084630400552924) rotate(0) scale(1,1) translate(-0.0857970750145922,-0.08579707501459222)"><path d="M 0.08088018329838677 0.09166237781508044 C 0.08064649774570878 0.0913338424428587 0.08169023604087307 0.08941794942569785 0.08127181769392329 0.08987792246518364 C 0.08169023604087307 0.08941794942569785 0.08477685299630584 0.08783979333090207 0.084227530073985 0.08798259349919407 C 0.08477685299630584 0.08783979333090207 0.0858505506716605 0.08913653392267734 0.0856664010724901 0.08873552111884764 C 0.0858505506716605 0.08913653392267734 0.08538508949770539 0.09166203147034539 0.08570072686734827 0.09119069592983167 C 0.08538508949770539 0.09166203147034539 0.08253873416922691 0.09256516567861353 0.08314130211534711 0.09250620544295744 C 0.08253873416922691 0.09256516567861353 0.08064649774570878 0.0913338424428587 0.08088018329838677 0.09166237781508044 Z" fill="#cccccc" stroke="#000000" stroke-width="0.001"/>
</g><g transform="translate(0.3595483751299111,0.22084630400552924) rotate(0) scale(1,1) translate(-0.0857970750145922,-0.08579707501459222)"><path d="M 0.08380536835482975 0.09649827890364272 C 0.08357168280215177 0.09615906013885914 0.0847729090393918 0.09400813248533729 0.08438365512615975 0.09445742213226122 C 0.0847729090393918 0.09400813248533729 0.0874453910360328 0.09279321173764488 0.08691939966068614 0.09290396172825129 C 0.0874453910360328 0.09279321173764488 0.08878156861484704 0.09399380179636335 0.08859158612893309 0.09357142220740992 C 0.08878156861484704 0.09399380179636335 0.08814695372532909 0.0967329671952687 0.08843925954799778 0.0962829984398787 C 0.08814695372532909 0.0967329671952687 0.08567390314843756 0.09719808230850042 0.08625313954758357 0.09717117225052992 C 0.08567390314843756 0.09719808230850042 0.08357168280215177 0.09615906013885914 0.08380536835482975 0.09649827890364272 Z" fill="#cccccc" stroke="#000000" stroke-width="0.001"/>
</g></g>
</g>
<g transform="translate(0.31513853052743,0.22084630400552918) rotate(0) scale(1,1) translate(-0.05065453058920214,-0.05065453058920213)"><path d="M 0.053906824017354645 0.05337454311402829 C 0.053694486626594776 0.05378095985933618 0.051114480432403735 0.05872139248947643 0.051358775328236225 0.05825154405772296 C 0.051114480432403735 0.05872139248947643 0.05094332776229213 0.05907615598151549 0.05097528526736475 0.059012724295069915" fill="none" stroke="none" stroke-width="0"/>
<path d="M 0.05097528526736475 0.059012724295069915 C 0.05098569898208783 0.05907624501564352 0.05118496110765542 0.060245512710341814 0.05110024984404175 0.05977497294195319 C 0.05118496110765542 0.060245512710341814 0.052066117979619436 0.06506622056354835 0.05199182043072884 0.06465920151573334" fill="none" stroke="none" stroke-width="0"/>
<path d="M 0.05199182043072884 0.06465920151573334 C 0.05186169756519464 0.06434186608126655 0.050279471442460436 0.06048692822363741 0.0504303460443184 0.06085117630213183 C 0.050279471442460436 0.06048692822363741 0.050160573472109594 0.0602413119297726 0.050181325208433346 0.06028822457380023" fill="none" stroke="none" stroke-width="0"/>
<path d="M 0.050181325208433346 0.06028822457380023 C 0.05014467181518547 0.06033501659312836 0.04946713590930471 0.06121308336793957 0.04974148448945883 0.06084972880573776 C 0.04946713590930471 0.06121308336793957 0.046651447059677706 0.0649650418630956 0.04688914224658395 0.06464847932022191" fill="none" stroke="none" stroke-width="0"/>
<path d="M 0.04688914224658395 0.06464847932022191 C 0.04710147963734382 0.06424206257491402 0.049681485831534866 0.059301629944773726 0.049437190935702376 0.0597714783765272 C 0.049681485831534866 0.059301629944773726 0.04985263850164647 0.05894686645273464 0.04982068099657385 0.059010298139180226" fill="none" stroke="none" stroke-width="0"/>
<path d="M 0.04982068099657385 0.059010298139180226 C 0.04981026728185077 0.05894677741860662 0.04961100515628319 0.05777750972390834 0.04969571641989686 0.058248049492296956 C 0.04961100515628319 0.05777750972390834 0.048729848284319165 0.05295680187070182 0.04880414583320976 0.05336382091851683" fill="none" stroke="none" stroke-width="0"/>
<path d="M 0.04880414583320976 0.05336382091851683 C 0.04893426869874396 0.05368115635298362 0.05051649482147817 0.05753609421061275 0.05036562021962022 0.05717184613211832 C 0.05051649482147817 0.05753609421061275 0.050635392791829 0.057781710504477606 0.05061464105550525 0.057734797860449966" fill="none" stroke="none" stroke-width="0"/>
<path d="M 0.05061464105550525 0.057734797860449966 C 0.050651294448753124 0.05768800584112183 0.0513288303546339 0.05680993906631058 0.051054481774479785 0.05717329362851239 C 0.0513288303546339 0.05680993906631058 0.05414451920426088 0.053057980571154614 0.053906824017354645 0.05337454311402829" fill="none" stroke="none" stroke-width="0"/>
</g><g transform="translate(0.3595483751299111,0.22084630400552924) rotate(0) scale(1,1) translate(-0.05065453058920214,-0.05065453058920213)"><path d="M 0.0474022371610495 0.0533745431140283 C 0.047639932347955743 0.05369110565690197 0.050528927984078535 0.0575366481907142 0.050254579403924415 0.05717329362851239 C 0.050528927984078535 0.0575366481907142 0.05073107351614683 0.057781589879778106 0.05069442012289895 0.05773479786044997" fill="none" stroke="none" stroke-width="0"/>
<path d="M 0.05069442012289895 0.05773479786044997 C 0.050715171859222696 0.05768788521642233 0.05109431556064188 0.0568075980536239 0.05094344095878392 0.05717184613211833 C 0.05109431556064188 0.0568075980536239 0.052635038210728666 0.05304648548405005 0.052504915345194456 0.05336382091851684" fill="none" stroke="none" stroke-width="0"/>
<path d="M 0.052504915345194456 0.05336382091851684 C 0.05243061779630386 0.05377083996633185 0.05152863349489365 0.058718589260685586 0.051613344758507325 0.05824804949229697 C 0.05152863349489365 0.058718589260685586 0.05147796646710729 0.05907381885975384 0.05148838018183037 0.05901029813918023" fill="none" stroke="none" stroke-width="0"/>
<path d="M 0.05148838018183037 0.05901029813918023 C 0.05152033768690299 0.059073729825625816 0.052116165138534294 0.06024132680828069 0.051871870242701804 0.059771478376527215 C 0.052116165138534294 0.06024132680828069 0.05463225632258017 0.0650548960655298 0.05441991893182029 0.06464847932022191" fill="none" stroke="none" stroke-width="0"/>
<path d="M 0.05441991893182029 0.06464847932022191 C 0.05418222374491405 0.06433191677734823 0.05129322810879126 0.060486374243535965 0.05156757668894538 0.060849728805737774 C 0.05129322810879126 0.060486374243535965 0.051091082576722964 0.060241432554472105 0.05112773596997084 0.06028822457380023" fill="none" stroke="none" stroke-width="0"/>
<path d="M 0.05112773596997084 0.06028822457380023 C 0.05110698423364709 0.060335137217827864 0.0507278405322279 0.06121542438062625 0.05087871513408586 0.06085117630213182 C 0.0507278405322279 0.06121542438062625 0.049187117882141126 0.06497653695020017 0.04931724074767534 0.06465920151573337" fill="none" stroke="none" stroke-width="0"/>
<path d="M 0.04931724074767534 0.06465920151573337 C 0.04939153829656593 0.06425218246791836 0.050293522597976134 0.059304433173564576 0.05020881133436246 0.0597749729419532 C 0.050293522597976134 0.059304433173564576 0.050344189625762495 0.05894920357449632 0.050333775911039415 0.05901272429506992" fill="none" stroke="none" stroke-width="0"/>
<path d="M 0.050333775911039415 0.05901272429506992 C 0.05030181840596679 0.058949292608624346 0.04970599095433549 0.0577816956259695 0.04995028585016798 0.05825154405772297 C 0.04970599095433549 0.0577816956259695 0.047189899770289624 0.052968126368720406 0.0474022371610495 0.0533745431140283" fill="none" stroke="none" stroke-width="0"/>
</g><g transform="translate(0.31513853052743,0.22084630400552918) rotate(0) scale(1,1) translate(-0.010565988892664996,-0.010565988892664996)"><path d="M 0.002626002437785817 0.030120862730975622 C 0.0028225032216437963 0.03001619623737387 0.00537701341179753 0.028655531820551097 0.004984011844081572 0.028864864807754603 C 0.00537701341179753 0.028655531820551097 0.007538522034235292 0.02750420039093181 0.007342021250377314 0.027608866884533564" fill="none" stroke="none" stroke-width="0"/>
<path d="M 0.007342021250377314 0.027608866884533564 C 0.007545225694712463 0.027547358523076236 0.010186883471069401 0.02674774982413098 0.009780474582399104 0.026870766547045635 C 0.010186883471069401 0.02674774982413098 0.012422132358756034 0.026071157848100376 0.012218927914420885 0.026132666209557703" fill="none" stroke="none" stroke-width="0"/>
<path d="M 0.012218927914420885 0.026132666209557703 C 0.012022427130562906 0.026237332703159456 0.009467916940409177 0.027597997119982228 0.009860918508125137 0.027388664132778726 C 0.009467916940409177 0.027597997119982228 0.007306408317971398 0.028749328549601494 0.007502909101829378 0.02864466205599974" fill="none" stroke="none" stroke-width="0"/>
<path d="M 0.007502909101829378 0.02864466205599974 C 0.00729970465749423 0.02870617041745707 0.004658046881137305 0.029505779116402345 0.005064455769807602 0.02938276239348769 C 0.004658046881137305 0.029505779116402345 0.002422797993450668 0.03018237109243295 0.002626002437785817 0.030120862730975622" fill="none" stroke="none" stroke-width="0"/>
</g><g transform="translate(0.3595483751299111,0.22084630400552924) rotate(0) scale(1,1) translate(-0.010565988892664996,-0.010565988892664996)"><path d="M 0.01850597534754422 0.030120862730975598 C 0.018302770903209076 0.030059354369518277 0.01566111312685219 0.02925974567057308 0.016067522015522483 0.029382762393487732 C 0.01566111312685219 0.02925974567057308 0.013425864239165548 0.028583153694542434 0.013629068683500696 0.028644662055999765" fill="none" stroke="none" stroke-width="0"/>
<path d="M 0.013629068683500696 0.028644662055999765 C 0.013432567899642714 0.02853999556239801 0.010878057709488943 0.027179331145575202 0.011271059277204903 0.027388664132778705 C 0.010878057709488943 0.027179331145575202 0.008716549087051212 0.026027999715955978 0.008913049870909188 0.026132666209557728" fill="none" stroke="none" stroke-width="0"/>
<path d="M 0.008913049870909188 0.026132666209557728 C 0.009116254315244331 0.02619417457101505 0.011757912091601212 0.02699378326996025 0.011351503202930917 0.026870766547045597 C 0.011757912091601212 0.02699378326996025 0.013993160979287876 0.027670375245990874 0.013789956534952725 0.027608866884533546" fill="none" stroke="none" stroke-width="0"/>
<path d="M 0.013789956534952725 0.027608866884533546 C 0.013986457318810706 0.027713533378135303 0.016540967508964454 0.029074197794958123 0.016147965941248496 0.02886486480775462 C 0.016540967508964454 0.029074197794958123 0.018702476131402197 0.030225529224577347 0.01850597534754422 0.030120862730975598" fill="none" stroke="none" stroke-width="0"/>
</g><g transform="translate(0.315708051851578,0.237284409057396) rotate(0) scale(1,1) translate(-0.022986364471475812,-0.022986364471475812)"><path d="M 0.018837481281485886 0.016895167535335834 C 0.0190708478868861 0.01660051294400596 0.021828491170186454 0.01344586396725215 0.021637880546288447 0.013359312439377376 C 0.021828491170186454 0.01344586396725215 0.021082052786759748 0.01831499198903776 0.021124808768261956 0.017933785869833116" fill="none" stroke="none" stroke-width="0"/>
<path d="M 0.021124808768261956 0.017933785869833116 C 0.021093296265266792 0.01814261158798673 0.020635702954671514 0.02090164214489364 0.020746658732319987 0.020439694487676505 C 0.020635702954671514 0.02090164214489364 0.01971389616182699 0.023730279695502246 0.0197933394364803 0.023477157756438726" fill="none" stroke="none" stroke-width="0"/>
<path d="M 0.0197933394364803 0.023477157756438726 C 0.019535269463497092 0.023810467908900394 0.0164904704053088 0.027473025500147838 0.016696499760681816 0.027476879585978754 C 0.0164904704053088 0.027473025500147838 0.01737302778961428 0.023093744488175156 0.01732098717200409 0.02343090872646774" fill="none" stroke="none" stroke-width="0"/>
<path d="M 0.01732098717200409 0.02343090872646774 C 0.01731959207805801 0.023147374618910133 0.017430620553774603 0.01948385433651548 0.017304246044651122 0.020028499435776472 C 0.017430620553774603 0.01948385433651548 0.01896525088455545 0.016634056543632446 0.018837481281485886 0.016895167535335834" fill="none" stroke="none" stroke-width="0"/>
</g><g transform="translate(0.3589788538057633,0.237284409057396) rotate(0) scale(1,1) translate(-0.022986364471475812,-0.022986364471475812)"><path d="M 0.0271352476614658 0.016895167535335834 C 0.027263017264535366 0.017156278527039222 0.028794857407424074 0.020573144535037464 0.028668482898300596 0.020028499435776472 C 0.028794857407424074 0.020573144535037464 0.028650346677001448 0.023714442834025348 0.028651741770947536 0.02343090872646774" fill="none" stroke="none" stroke-width="0"/>
<path d="M 0.028651741770947536 0.02343090872646774 C 0.028703782388557735 0.023768072964760325 0.029070199826896893 0.02748073367180967 0.02927622918226991 0.027476879585978754 C 0.029070199826896893 0.02748073367180967 0.02592131953348815 0.023143847603977058 0.026179389506471362 0.023477157756438726" fill="none" stroke="none" stroke-width="0"/>
<path d="M 0.026179389506471362 0.023477157756438726 C 0.02609994623181806 0.023224035817375206 0.025115114432983254 0.01997774683045937 0.025226070210631724 0.020439694487676505 C 0.025115114432983254 0.01997774683045937 0.024816407671694563 0.0177249601516795 0.02484792017468973 0.017933785869833116" fill="none" stroke="none" stroke-width="0"/>
<path d="M 0.02484792017468973 0.017933785869833116 C 0.024805164193187523 0.01755257975062847 0.02452545902056123 0.013272760911502602 0.024334848396663222 0.013359312439377376 C 0.02452545902056123 0.013272760911502602 0.027368614266866015 0.017189822126665706 0.0271352476614658 0.016895167535335834" fill="none" stroke="none" stroke-width="0"/>
</g><g transform="translate(0.3373434528286705,0.2541030184897981) rotate(0) scale(1,1) translate(-0.032753407916317374,-0.032753407916317374)"><path d="M 0.028595592495859894 0.03352471296233484 C 0.028670556132018438 0.03370668879429088 0.02852062885970135 0.03516249544993919 0.028595592495859894 0.03498051961798315 C 0.02852062885970135 0.03516249544993919 0.027546101589640284 0.03570842294580731 0.02769602886195737 0.03570842294580731 C 0.027546101589640284 0.03570842294580731 0.026721501591896315 0.03479854378602711 0.026796465228054858 0.03498051961798315 C 0.026721501591896315 0.03479854378602711 0.0268714288642134 0.0333427371303788 0.026796465228054858 0.03352471296233484 C 0.0268714288642134 0.0333427371303788 0.027845956134274458 0.03279680963451068 0.02769602886195737 0.03279680963451068 C 0.027845956134274458 0.03279680963451068 0.028670556132018438 0.03370668879429088 0.028595592495859894 0.03352471296233484 Z" fill="#cccccc" stroke="none" stroke-width="0"/>
</g><g transform="translate(0.3373434528286705,0.2541030184897981) rotate(0) scale(1,1) translate(-0.032753407916317374,-0.032753407916317374)"><path d="M 0.037810786970677523 0.03279680963451068 C 0.0379607142429946 0.03279680963451068 0.03878531424073848 0.03370668879429088 0.038710350604579946 0.03352471296233484 C 0.03878531424073848 0.03370668879429088 0.03863538696842141 0.03516249544993919 0.038710350604579946 0.03498051961798315 C 0.03863538696842141 0.03516249544993919 0.037660859698360444 0.03570842294580731 0.037810786970677523 0.03570842294580731 C 0.037660859698360444 0.03570842294580731 0.03683625970061643 0.03479854378602711 0.036911223336774976 0.03498051961798315 C 0.03683625970061643 0.03479854378602711 0.03698618697293352 0.0333427371303788 0.036911223336774976 0.03352471296233484 C 0.03698618697293352 0.0333427371303788 0.0379607142429946 0.03279680963451068 0.037810786970677523 0.03279680963451068 Z" fill="#cccccc" stroke="none" stroke-width="0"/>
</g></svg>
