<?xml version="1.0" encoding="UTF-8"?>
<svg xmlns="http://www.w3.org/2000/svg" viewBox="0 0 1 1">
<g transform="translate(0.334747156543161,0.39335457757181125) rotate(0) scale(1,1) translate(-0.018432339988539145,-0.01776796487153932)"><path d="M 0.020706883095967316 0.01716678930735719 C 0.020407989952066174 0.01776775682922568 0.01676418501744413 0.02569172501779133 0.017120165369153593 0.02437839956977906 C 0.01676418501744413 0.02569172501779133 0.016378031667645464 0.03363905260964819 0.01643511887545378 0.03292669468350441" fill="none" stroke="#000000" stroke-width="0.001"/>
<path d="M 0.01643511887545378 0.03292669468350441 C 0.016272988162714882 0.03287927464506139 0.014165288897109178 0.032262814145302125 0.014489550322586978 0.03235765422218816 C 0.014165288897109178 0.032262814145302125 0.012381851056981275 0.031741193722428916 0.012543981769720176 0.031788613760871935" fill="none" stroke="#000000" stroke-width="0.001"/>
<path d="M 0.012543981769720176 0.031788613760871935 C 0.012621460982455635 0.03109461347144299 0.013829712674255151 0.022147284839712317 0.01347373232254569 0.023460610287724584 C 0.013829712674255151 0.022147284839712317 0.017094247129207714 0.01540938322614139 0.01681574599023371 0.016028708384724713" fill="none" stroke="#000000" stroke-width="0.001"/>
</g><g transform="translate(0.33993974911418046,0.39335457757181125) rotate(0) scale(1,1) translate(-0.018432339988539145,-0.01776796487153932)"><path d="M 0.020048933986844493 0.016028708384724713 C 0.02032743512581849 0.016648033543308037 0.023746928006241924 0.02477393573573685 0.02339094765453246 0.023460610287724584 C 0.023746928006241924 0.02477393573573685 0.024398177420093512 0.03248261405030088 0.024320698207358046 0.031788613760871935" fill="none" stroke="#000000" stroke-width="0.001"/>
<path d="M 0.024320698207358046 0.031788613760871935 C 0.024158567494619147 0.031836033799314954 0.022050868229013462 0.0324524942990742 0.02237512965449126 0.03235765422218816 C 0.022050868229013462 0.0324524942990742 0.020267430388885573 0.03297411472194743 0.02042956110162447 0.03292669468350441" fill="none" stroke="#000000" stroke-width="0.001"/>
<path d="M 0.02042956110162447 0.03292669468350441 C 0.020372473893816148 0.032214336757360636 0.019388534256215128 0.02306507412176679 0.01974451460792459 0.02437839956977906 C 0.019388534256215128 0.02306507412176679 0.015858903737209783 0.0165658217854887 0.016157796881110922 0.01716678930735719" fill="none" stroke="#000000" stroke-width="0.001"/>
</g><g transform="translate(0.33734345282867073,0.37369955748837125) rotate(0) scale(1,1) translate(-0.013432873520353284,-0.0039368765802043765)"><path d="M 0.05032005177696649 -0.00989542834728507 C 0.049590049104066045 -0.009227362658192545 0.039473981033913474 -8.267485747179997E-05 0.0415600197021612 -0.0018786400781747666 C 0.039473981033913474 -8.267485747179997E-05 0.023268195945198498 0.013752734484043013 0.02528758775799378 0.01165615430115053 C 0.023268195945198498 0.013752734484043013 0.016663962131169816 0.02424900276781708 0.01732731794861781 0.023280322116535038" fill="none" stroke="#000000" stroke-width="0.001"/>
<path d="M 0.01732731794861781 0.023280322116535038 C 0.0170027809129291 0.02335821575331237 0.01278379944897586 0.02421504575786302 0.013432873520353284 0.02421504575786302 C 0.01278379944897586 0.02421504575786302 0.009213892056400002 0.023202428479757706 0.009538429092088716 0.023280322116535038" fill="none" stroke="#000000" stroke-width="0.001"/>
<path d="M 0.009538429092088716 0.023280322116535038 C 0.00887507327464072 0.022311641465252996 -0.00044123253008250367 0.009559574118258047 0.0015781592827127742 0.01165615430115053 C -0.00044123253008250367 0.009559574118258047 -0.01678031132970234 -0.0036746052988777334 -0.014694272661454616 -0.0018786400781747666 C -0.01678031132970234 -0.0036746052988777334 -0.024184307409160364 -0.010563494036377595 -0.023454304736259923 -0.00989542834728507" fill="none" stroke="#000000" stroke-width="0.001"/>
<path d="M -0.023454304736259923 -0.00989542834728507 C -0.023269272283078526 -0.010249334269496159 -0.020767002723196596 -0.014836519885741677 -0.021233915298083182 -0.014142299413818133 C -0.020767002723196596 -0.014836519885741677 -0.017569473715915697 -0.01856638856008007 -0.01785135383762089 -0.01822607401036761" fill="none" stroke="#000000" stroke-width="0.001"/>
<path d="M -0.01785135383762089 -0.01822607401036761 C -0.016202205061309944 -0.016956515916503743 0.005503320594795201 -0.0017218187901373314 0.0019384314781104419 -0.002991376884001199 C 0.005503320594795201 -0.0017218187901373314 0.028492204679280975 -0.004260934977865067 0.024927315562596218 -0.002991376884001199 C 0.028492204679280975 -0.004260934977865067 0.046366249654638474 -0.01949563210423148 0.04471710087832753 -0.01822607401036761" fill="none" stroke="#000000" stroke-width="0.001"/>
<path d="M 0.04471710087832753 -0.01822607401036761 C 0.04499898100003272 -0.017885759460655154 0.048566574913676344 -0.013448078941894589 0.04809966233878976 -0.014142299413818133 C 0.048566574913676344 -0.013448078941894589 0.050505084230147886 -0.009541522425073981 0.05032005177696649 -0.00989542834728507" fill="none" stroke="#000000" stroke-width="0.001"/>
</g><g transform="translate(0.3081854223033656,0.36031724511711904) rotate(0) scale(1,1) translate(-0.00775832499658671,-0.0077583249965867095)"><path d="M 0.007359173931510443 0.01605434235033256 C 0.006829207039110937 0.015447217333084233 0.0010163343783871103 0.007497118277158048 0.0009995712227163717 0.008768842143352632 C 0.0010163343783871103 0.007497118277158048 0.008785267499418364 0.0005559847687544242 0.007560331799559305 0.0007936559559975492 C 0.008785267499418364 0.0005559847687544242 0.016377005272813886 0.0063437155581382645 0.01569879962102507 0.0059167878964351325" fill="none" stroke="#000000" stroke-width="0.001"/>
<path d="M 0.01569879962102507 0.0059167878964351325 C 0.015640354232018525 0.005987833448800621 0.014915631408337357 0.006868798298132688 0.014997454952946514 0.006769334524821003 C 0.014915631408337357 0.006868798298132688 0.014693538930112592 0.007138771397121552 0.014716917085715202 0.007110353176175356" fill="none" stroke="#000000" stroke-width="0.001"/>
<path d="M 0.014716917085715202 0.007110353176175356 C 0.014152431941549038 0.006743886132575706 0.006959928697580969 0.00285522611177995 0.007943095355721234 0.002712748652979552 C 0.006959928697580969 0.00285522611177995 0.0029520806139569328 0.009832418383247865 0.0029189171880320214 0.008820082681780132 C 0.0029520806139569328 0.009832418383247865 0.008792901406719185 0.015364168269660033 0.008341056466820172 0.014860777070592348" fill="none" stroke="#000000" stroke-width="0.001"/>
<path d="M 0.008341056466820172 0.014860777070592348 C 0.008317678311217562 0.014889195291538544 0.007978695054979716 0.015301259495258377 0.00806051859958886 0.015201795721946692 C 0.007978695054979716 0.015301259495258377 0.0073007285425039075 0.01612538790269805 0.007359173931510443 0.01605434235033256" fill="none" stroke="#000000" stroke-width="0.001"/>
</g><g transform="translate(0.30513076811773104,0.3577028227325682) rotate(0) scale(1,1) translate(-0.0022536622055164745,-0.002253662205516475)"><path d="M 0.002415086920121408 0.00365554941484548 C 0.002299797467773867 0.003538772292550689 0.0010005227514281196 0.002035095825358066 0.001031613491950913 0.0022542239473079847 C 0.0010005227514281196 0.002035095825358066 0.0022589646033008832 0.0010191915227542908 0.0020419980338478878 0.0010260119514464532 C 0.0022589646033008832 0.0010191915227542908 0.003767980183015104 0.0022679093739650024 0.003635212325386857 0.0021723788030020372" fill="none" stroke="#000000" stroke-width="0.001"/>
<path d="M 0.003635212325386857 0.0021723788030020372 C 0.0036091794978317074 0.0022554083478212865 0.003221141277619611 0.003292330891819983 0.003322818394725065 0.0031687333408330293 C 0.003221141277619611 0.003292330891819983 0.0023394426305711033 0.0036961174210131845 0.002415086920121408 0.00365554941484548" fill="none" stroke="#000000" stroke-width="0.001"/>
</g><g transform="translate(0.3151958496133254,0.36634621260368455) rotate(0) scale(1,1) translate(-0.006469483550722008,-0.0064694835507220095)"><path d="M 0.01058929732098496 0.0022299155608516644 C 0.009636013579019926 0.003965917849425784 0.0022363610680725936 0.013090679746401256 0.0036096323248269273 0.011677490416444447 C 0.0022363610680725936 0.013090679746401256 0.003302953522423993 0.008973049252018396 0.002349669780458959 0.010709051540592516 C 0.003302953522423993 0.008973049252018396 0.010702606033371464 -0.00015171264495708017 0.00932933477661713 0.0012614766849997285 C 0.010702606033371464 -0.00015171264495708017 0.009636013579019926 0.003965917849425784 0.01058929732098496 0.0022299155608516644 Z" fill="#cccccc" stroke="#000000" stroke-width="0.001"/>
</g><g transform="translate(0.3224917327073779,0.36876617720102384) rotate(0) scale(1,1) translate(-0.029189151001757105,-0.02918915100175711)"><path d="M 0.02918915100175712 0.027666758669450404 C 0.02940458081128396 0.027666758669450404 0.030589444763681594 0.02861825387714209 0.030481729858918172 0.028427954835603755 C 0.030589444763681594 0.02861825387714209 0.03037401495415475 0.0301406462094488 0.030481729858918172 0.02995034716791046 C 0.03037401495415475 0.0301406462094488 0.028973721192230278 0.030711543334063816 0.02918915100175712 0.030711543334063816 C 0.028973721192230278 0.030711543334063816 0.027788857239832643 0.02976004812637212 0.027896572144596066 0.02995034716791046 C 0.027788857239832643 0.02976004812637212 0.028004287049359488 0.028237655794065418 0.027896572144596066 0.028427954835603755 C 0.028004287049359488 0.028237655794065418 0.02940458081128396 0.027666758669450404 0.02918915100175712 0.027666758669450404 Z" fill="#cccccc" stroke="#000000" stroke-width="0.001"/>
</g><g transform="translate(0.3200627714649718,0.3726907998245371) rotate(0) scale(1,1) translate(-0.029189151001757105,-0.02918915100175711)"><path d="M 0.02918915100175712 0.027666758669450404 C 0.02940458081128396 0.027666758669450404 0.030589444763681594 0.02861825387714209 0.030481729858918172 0.028427954835603755 C 0.030589444763681594 0.02861825387714209 0.03037401495415475 0.0301406462094488 0.030481729858918172 0.02995034716791046 C 0.03037401495415475 0.0301406462094488 0.028973721192230278 0.030711543334063816 0.02918915100175712 0.030711543334063816 C 0.028973721192230278 0.030711543334063816 0.027788857239832643 0.02976004812637212 0.027896572144596066 0.02995034716791046 C 0.027788857239832643 0.02976004812637212 0.028004287049359488 0.028237655794065418 0.027896572144596066 0.028427954835603755 C 0.028004287049359488 0.028237655794065418 0.02940458081128396 0.027666758669450404 0.02918915100175712 0.027666758669450404 Z" fill="#cccccc" stroke="#000000" stroke-width="0.001"/>
</g><g transform="translate(0.33540938306064405,0.3908722037240779) rotate(0) scale(1,1) translate(-0.029189151001757105,-0.02918915100175711)"><path d="M 0.02918915100175712 0.027666758669450404 C 0.02940458081128396 0.027666758669450404 0.030589444763681594 0.02861825387714209 0.030481729858918172 0.028427954835603755 C 0.030589444763681594 0.02861825387714209 0.03037401495415475 0.0301406462094488 0.030481729858918172 0.02995034716791046 C 0.03037401495415475 0.0301406462094488 0.028973721192230278 0.030711543334063816 0.02918915100175712 0.030711543334063816 C 0.028973721192230278 0.030711543334063816 0.027788857239832643 0.02976004812637212 0.027896572144596066 0.02995034716791046 C 0.027788857239832643 0.02976004812637212 0.028004287049359488 0.028237655794065418 0.027896572144596066 0.028427954835603755 C 0.028004287049359488 0.028237655794065418 0.02940458081128396 0.027666758669450404 0.02918915100175712 0.027666758669450404 Z" fill="#cccccc" stroke="#000000" stroke-width="0.001"/>
</g><g transform="translate(0.3665014833539759,0.36031724511711904) rotate(0) scale(1,1) translate(-0.00775832499658671,-0.0077583249965867095)"><path d="M 0.008157476061662963 0.01605434235033256 C 0.008099030672656425 0.015983296797967072 0.007374307848975364 0.015102331948635007 0.007456131393584516 0.015201795721946692 C 0.007374307848975364 0.015102331948635007 0.007152215370750526 0.014832358849646152 0.00717559352635314 0.014860777070592348" fill="none" stroke="#000000" stroke-width="0.001"/>
<path d="M 0.00717559352635314 0.014860777070592348 C 0.007627438466252157 0.014357385871524663 0.012630896231066257 0.007807746980312399 0.012597732805141343 0.008820082681780132 C 0.012630896231066257 0.007807746980312399 0.006590387979311844 0.002570271194179154 0.007573554637452109 0.002712748652979552 C 0.006590387979311844 0.002570271194179154 0.00023524776329200117 0.007476820219775007 0.0007997329074581633 0.007110353176175356" fill="none" stroke="#000000" stroke-width="0.001"/>
<path d="M 0.0007997329074581633 0.007110353176175356 C 0.0007763547518555481 0.00708193495522916 0.00043737149561762814 0.006669870751509317 0.0005191950402267807 0.006769334524821003 C 0.00043737149561762814 0.006669870751509317 -0.00024059501685820558 0.0058457423440696436 -0.00018214962785166816 0.0059167878964351325" fill="none" stroke="#000000" stroke-width="0.001"/>
<path d="M -0.00018214962785166816 0.0059167878964351325 C 0.0004960560239371375 0.005489860234732 0.00918125389347305 0.0010313271432406742 0.007956318193614 0.0007936559559975492 C 0.00918125389347305 0.0010313271432406742 0.014533841926127677 0.010040566009547216 0.01451707877045693 0.008768842143352632 C 0.014533841926127677 0.010040566009547216 0.007627509169263466 0.01666146736758089 0.008157476061662963 0.01605434235033256" fill="none" stroke="#000000" stroke-width="0.001"/>
</g><g transform="translate(0.3695561375396105,0.3577028227325682) rotate(0) scale(1,1) translate(-0.0022536622055164745,-0.002253662205516475)"><path d="M 0.0020922374909115547 0.00365554941484548 C 0.0020165932013612485 0.003614981408677776 0.00108282889920242 0.0030451357898460757 0.0011845060163078788 0.0031687333408330293 C 0.00108282889920242 0.0030451357898460757 0.0008460792580908991 0.002089349258182788 0.0008721120856460514 0.0021723788030020372" fill="none" stroke="#000000" stroke-width="0.001"/>
<path d="M 0.0008721120856460514 0.0021723788030020372 C 0.001004879943274309 0.002076848232039072 0.002682292946638146 0.0010328323801386155 0.00246532637718514 0.0010260119514464532 C 0.002682292946638146 0.0010328323801386155 0.0034446201785593242 0.0024733520692579035 0.003475710919082123 0.0022542239473079847 C 0.0034446201785593242 0.0024733520692579035 0.0019769480385640075 0.0037723265371402714 0.0020922374909115547 0.00365554941484548" fill="none" stroke="#000000" stroke-width="0.001"/>
</g><g transform="translate(0.35949105604401616,0.36634621260368455) rotate(0) scale(1,1) translate(-0.006469483550722008,-0.0064694835507220095)"><path d="M 0.0036096323248267824 0.0012614766849997248 C 0.0049829035815811065 0.0026746660149565334 0.011542581062949924 0.012445053829166632 0.010589297320984882 0.010709051540592512 C 0.011542581062949924 0.012445053829166632 0.007956063519862716 0.010264301086487635 0.00932933477661704 0.011677490416444444 C 0.007956063519862716 0.010264301086487635 0.0013963860384938963 0.0004939132722775411 0.002349669780458939 0.002229915560851661 C 0.0013963860384938963 0.0004939132722775411 0.0049829035815811065 0.0026746660149565334 0.0036096323248267824 0.0012614766849997248 Z" fill="#cccccc" stroke="#000000" stroke-width="0.001"/>
</g><g transform="translate(0.3521951729499636,0.36876617720102384) rotate(0) scale(1,1) translate(-0.029189151001757105,-0.02918915100175711)"><path d="M 0.03048172985891813 0.028427954835603755 C 0.03058944476368155 0.02861825387714209 0.03037401495415471 0.0301406462094488 0.03048172985891813 0.02995034716791046 C 0.03037401495415471 0.0301406462094488 0.028973721192230267 0.030711543334063816 0.029189151001757105 0.030711543334063816 C 0.028973721192230267 0.030711543334063816 0.027788857239832654 0.02976004812637212 0.027896572144596073 0.02995034716791046 C 0.027788857239832654 0.02976004812637212 0.02800428704935949 0.028237655794065418 0.027896572144596073 0.028427954835603755 C 0.02800428704935949 0.028237655794065418 0.029404580811283942 0.027666758669450404 0.029189151001757105 0.027666758669450404 C 0.029404580811283942 0.027666758669450404 0.03058944476368155 0.02861825387714209 0.03048172985891813 0.028427954835603755 Z" fill="#cccccc" stroke="#000000" stroke-width="0.001"/>
</g><g transform="translate(0.3546241341923697,0.3726907998245371) rotate(0) scale(1,1) translate(-0.029189151001757105,-0.02918915100175711)"><path d="M 0.03048172985891813 0.028427954835603755 C 0.03058944476368155 0.02861825387714209 0.03037401495415471 0.0301406462094488 0.03048172985891813 0.02995034716791046 C 0.03037401495415471 0.0301406462094488 0.028973721192230267 0.030711543334063816 0.029189151001757105 0.030711543334063816 C 0.028973721192230267 0.030711543334063816 0.027788857239832654 0.02976004812637212 0.027896572144596073 0.02995034716791046 C 0.027788857239832654 0.02976004812637212 0.02800428704935949 0.028237655794065418 0.027896572144596073 0.028427954835603755 C 0.02800428704935949 0.028237655794065418 0.029404580811283942 0.027666758669450404 0.029189151001757105 0.027666758669450404 C 0.029404580811283942 0.027666758669450404 0.03058944476368155 0.02861825387714209 0.03048172985891813 0.028427954835603755 Z" fill="#cccccc" stroke="#000000" stroke-width="0.001"/>
</g><g transform="translate(0.3392775225966974,0.3908722037240779) rotate(0) scale(1,1) translate(-0.029189151001757105,-0.02918915100175711)"><path d="M 0.03048172985891813 0.028427954835603755 C 0.03058944476368155 0.02861825387714209 0.03037401495415471 0.0301406462094488 0.03048172985891813 0.02995034716791046 C 0.03037401495415471 0.0301406462094488 0.028973721192230267 0.030711543334063816 0.029189151001757105 0.030711543334063816 C 0.028973721192230267 0.030711543334063816 0.027788857239832654 0.02976004812637212 0.027896572144596073 0.02995034716791046 C 0.027788857239832654 0.02976004812637212 0.02800428704935949 0.028237655794065418 0.027896572144596073 0.028427954835603755 C 0.02800428704935949 0.028237655794065418 0.029404580811283942 0.027666758669450404 0.029189151001757105 0.027666758669450404 C 0.029404580811283942 0.027666758669450404 0.03058944476368155 0.02861825387714209 0.03048172985891813 0.028427954835603755 Z" fill="#cccccc" stroke="#000000" stroke-width="0.001"/>
</g><g transform="translate(0.33734345282867073,0.418513279020278) rotate(0) scale(1,1) translate(-0.007606109943618106,-0.016121803466892737)"><path d="M 0.015885421594651648 0.01866292792179984 C 0.01580771604615661 0.01874063347029488 0.014797543915721103 0.01959539450374031 0.014952955012711181 0.01959539450374031 C 0.014797543915721103 0.01959539450374031 0.013942782882275677 0.018585222373304802 0.014020488430770715 0.01866292792179984" fill="none" stroke="none" stroke-width="0"/>
<path d="M 0.014020488430770715 0.01866292792179984 C 0.01396368433422029 0.01860138414408473 0.013080123799988595 0.01779910213472498 0.013338839272165632 0.0179244025892185 C 0.013080123799988595 0.01779910213472498 0.010438175320600658 0.017075926781615625 0.010915902764646285 0.01715932246787759 C 0.010438175320600658 0.017075926781615625 0.007054477806780081 0.01692365435407491 0.00760610994361811 0.01692365435407491 C 0.007054477806780081 0.01692365435407491 0.003818589678544315 0.017242718154139552 0.004296317122589942 0.01715932246787759 C 0.003818589678544315 0.017242718154139552 0.001614665142893557 0.01804970304371202 0.0018733806150705926 0.0179244025892185 C 0.001614665142893557 0.01804970304371202 0.0011349273599150912 0.018724471699514952 0.0011917314564655144 0.01866292792179984" fill="none" stroke="#000000" stroke-width="0.001"/>
<path d="M 0.0011917314564655144 0.01866292792179984 C 0.0011140259079704753 0.01874063347029488 0.00010385377753496629 0.019595394503740312 0.0002592648745250446 0.019595394503740312 C 0.00010385377753496629 0.019595394503740312 -0.0007509072559104645 0.018585222373304802 -0.0006732017074154253 0.01866292792179984" fill="none" stroke="none" stroke-width="0"/>
<path d="M -0.0006732017074154253 0.01866292792179984 C -0.0005807669211329243 0.018529888749920686 0.0007809870467676502 0.016835079886826015 0.00043601572797458653 0.017066457859249973 C 0.0007809870467676502 0.016835079886826015 0.004063961969404964 0.015748639747366802 0.0034664541181013376 0.015886392252712333 C 0.004063961969404964 0.015748639747366802 0.00829605258120423 0.015413427795103615 0.007606109943618103 0.015413427795103615 C 0.00829605258120423 0.015413427795103615 0.0123432736204385 0.016024144758057864 0.011745765769134872 0.015886392252712333 C 0.0123432736204385 0.016024144758057864 0.015121175478054694 0.017297835831673932 0.01477620415926163 0.017066457859249973 C 0.015121175478054694 0.017297835831673932 0.01597785638093415 0.018795967093678995 0.015885421594651648 0.01866292792179984" fill="none" stroke="#000000" stroke-width="0.001"/>
</g><g transform="translate(0.33734345282867073,0.42105440347518513) rotate(0) scale(1,1) translate(-0.007606109943618107,-0.001029294317343837)"><path d="M 0.015885421594651644 0.0010292943173439127 C 0.015792986808369144 0.0011623334892230542 0.014431232840468563 0.002857142352317556 0.014776204159261628 0.0026257643798936105 C 0.014431232840468563 0.002857142352317556 0.011148257917831243 0.003943582491776828 0.01174576576913487 0.0038058299864312554 C 0.011148257917831243 0.003943582491776828 0.006916167306031974 0.004278794444040475 0.007606109943618102 0.004278794444040475 C 0.006916167306031974 0.004278794444040475 0.0028689462667977096 0.0036680774810856835 0.003466454118101336 0.0038058299864312554 C 0.0028689462667977096 0.0036680774810856835 9.104440918152219E-05 0.0023943864074696653 0.00043601572797458566 0.0026257643798936105 C 9.104440918152219E-05 0.0023943864074696653 -0.0007656364936979271 0.0008962551454647712 -0.0006732017074154262 0.0010292943173439127" fill="none" stroke="#000000" stroke-width="0.001"/>
<path d="M 0.001191731456465511 0.0010292943173439127 C 0.0012485355530159345 0.0010908380950590438 0.0021320960872476306 0.0018931201044192335 0.0018733806150705947 0.0017678196499254857 C 0.0021320960872476306 0.0018931201044192335 0.004774044566635566 0.0026162954575308685 0.004296317122589939 0.0025328997712688863 C 0.004774044566635566 0.0026162954575308685 0.00815774208045614 0.0027685678850692735 0.007606109943618112 0.0027685678850692735 C 0.00815774208045614 0.0027685678850692735 0.011393630208691913 0.002449504085006904 0.010915902764646285 0.0025328997712688863 C 0.011393630208691913 0.002449504085006904 0.013597554744342667 0.001642519195431738 0.013338839272165632 0.0017678196499254857 C 0.013597554744342667 0.001642519195431738 0.01407729252732113 0.0009677505396287816 0.014020488430770707 0.0010292943173439127" fill="none" stroke="#000000" stroke-width="0.001"/>
</g><g transform="translate(0.33734345282867073,0.40725972094417273) rotate(0) scale(1,1) translate(-0.007606109943618106,-0.016121803466892737)"><path d="M 0.015885421594651648 0.021060787919551998 C 0.0158162663442776 0.021129943169926047 0.014917248089414952 0.02189065092404059 0.015055558590163052 0.02189065092404059 C 0.014917248089414952 0.02189065092404059 0.014156540335300408 0.02099163266917795 0.014225695585674457 0.021060787919551998" fill="none" stroke="none" stroke-width="0"/>
<path d="M 0.014225695585674457 0.021060787919551998 C 0.014151790892882054 0.020895131902638236 0.013063023203746617 0.018779534009466515 0.013338839272165632 0.01907291571658684 C 0.013063023203746617 0.018779534009466515 0.010438175320600658 0.017375242647297288 0.010915902764646285 0.01754020743410808 C 0.010438175320600658 0.017375242647297288 0.007054477806780081 0.017093338274857303 0.00760610994361811 0.017093338274857303 C 0.007054477806780081 0.017093338274857303 0.003818589678544315 0.017705172220918875 0.004296317122589942 0.01754020743410808 C 0.003818589678544315 0.017705172220918875 0.001597564546651578 0.019366297423707168 0.0018733806150705926 0.01907291571658684 C 0.001597564546651578 0.019366297423707168 0.0009126196087693656 0.02122644393646576 0.0009865243015617677 0.021060787919551998" fill="none" stroke="#000000" stroke-width="0.001"/>
<path d="M 0.0009865243015617677 0.021060787919551998 C 0.0009173690511877179 0.021129943169926047 1.8350796325071814E-05 0.021890650924040595 0.00015666129707317123 0.021890650924040595 C 1.8350796325071814E-05 0.021890650924040595 -0.000742356957789475 0.02099163266917795 -0.0006732017074154253 0.021060787919551998" fill="none" stroke="none" stroke-width="0"/>
<path d="M -0.0006732017074154253 0.021060787919551998 C -0.0005807669211329243 0.020832071935192195 0.0007809870467676502 0.017920048401820075 0.00043601572797458653 0.01831619610723438 C 0.0007809870467676502 0.017920048401820075 0.004063961969404964 0.01607829947022052 0.0034664541181013376 0.016307015454580322 C 0.004063961969404964 0.01607829947022052 0.00829605258120423 0.01557160429491676 0.007606109943618103 0.01557160429491676 C 0.00829605258120423 0.01557160429491676 0.0123432736204385 0.016535731438940125 0.011745765769134872 0.016307015454580322 C 0.0123432736204385 0.016535731438940125 0.015121175478054694 0.018712343812648687 0.01477620415926163 0.01831619610723438 C 0.015121175478054694 0.018712343812648687 0.01597785638093415 0.0212895039039118 0.015885421594651648 0.021060787919551998" fill="none" stroke="#000000" stroke-width="0.001"/>
</g><g transform="translate(0.33734345282867073,0.412198705396832) rotate(0) scale(1,1) translate(-0.007606109943618107,-0.001029294317343837)"><path d="M 0.015885421594651644 0.0010292943173439012 C 0.015792986808369144 0.0012580103017037028 0.014431232840468563 0.004170033835075825 0.014776204159261628 0.003773886129661519 C 0.014431232840468563 0.004170033835075825 0.011148257917831243 0.006011782766675389 0.01174576576913487 0.005783066782315576 C 0.011148257917831243 0.006011782766675389 0.006916167306031974 0.0065184779419792775 0.007606109943618102 0.0065184779419792775 C 0.006916167306031974 0.0065184779419792775 0.0028689462667977096 0.005554350797955763 0.003466454118101336 0.005783066782315576 C 0.0028689462667977096 0.005554350797955763 9.104440918152219E-05 0.003377738424247213 0.00043601572797458566 0.003773886129661519 C 9.104440918152219E-05 0.003377738424247213 -0.0007656364936979271 0.0008005783329840997 -0.0006732017074154262 0.0010292943173439012" fill="none" stroke="#000000" stroke-width="0.001"/>
<path d="M 0.0009865243015617642 0.0010292943173439012 C 0.0010604289943541667 0.001194950334257664 0.0021491966834896094 0.0033105482274293826 0.0018733806150705947 0.003017166520309056 C 0.0021491966834896094 0.0033105482274293826 0.004774044566635566 0.004714839589598636 0.004296317122589939 0.004549874802787817 C 0.004774044566635566 0.004714839589598636 0.00815774208045614 0.004996743962038879 0.007606109943618112 0.004996743962038879 C 0.00815774208045614 0.004996743962038879 0.011393630208691913 0.004384910015976998 0.010915902764646285 0.004549874802787817 C 0.011393630208691913 0.004384910015976998 0.013614655340584645 0.00272378481318873 0.013338839272165632 0.003017166520309056 C 0.013614655340584645 0.00272378481318873 0.014299600278466853 0.0008636383004301382 0.014225695585674452 0.0010292943173439012" fill="none" stroke="#000000" stroke-width="0.001"/>
</g><g transform="translate(0.3324072602516386,0.40882788306286355) rotate(0) scale(1,1) translate(-0.018432339988539145,-0.01776796487153932)"><path d="M 0.0175361781565793 0.019944472745302238 C 0.017436913571803093 0.019808593559161015 0.016108625627262747 0.01799035510813398 0.016345003139264788 0.018313922511607565 C 0.016108625627262747 0.01799035510813398 0.014562535085328987 0.01587397568628686 0.014699648012554817 0.01606166390361922" fill="none" stroke="#000000" stroke-width="0.001"/>
<path d="M 0.014699648012554817 0.01606166390361922 C 0.014832862900928567 0.015960414027147478 0.01656465644978731 0.01464416563301481 0.01629822667303981 0.014846665385958297 C 0.01656465644978731 0.01464416563301481 0.018030020221898545 0.013530416991825632 0.017896805333524796 0.013631666868297376" fill="none" stroke="#000000" stroke-width="0.001"/>
<path d="M 0.017896805333524796 0.013631666868297376 C 0.018033918260750615 0.013819355085629738 0.019778537972236672 0.01620749287975931 0.01954216046023463 0.015883925476285726 C 0.019778537972236672 0.01620749287975931 0.02083260006232551 0.01765035489612161 0.020733335477549287 0.01751447570998039" fill="none" stroke="#000000" stroke-width="0.001"/>
<path d="M 0.020733335477549287 0.01751447570998039 C 0.020600120589175538 0.017615725586452132 0.018868327040316792 0.018931973980584802 0.01913475681706429 0.018729474227641315 C 0.018868327040316792 0.018931973980584802 0.017402963268205552 0.02004572262177398 0.0175361781565793 0.019944472745302238" fill="none" stroke="#000000" stroke-width="0.001"/>
</g><g transform="translate(0.3422796454057029,0.40882788306286355) rotate(0) scale(1,1) translate(-0.018432339988539145,-0.01776796487153932)"><path d="M 0.019328501820498827 0.019944472745302217 C 0.01919528693212508 0.019843222868830473 0.01746349338326637 0.018526974474697817 0.017729923160013865 0.018729474227641305 C 0.01746349338326637 0.018526974474697817 0.015998129611155154 0.017413225833508638 0.0161313444995289 0.01751447570998038" fill="none" stroke="#000000" stroke-width="0.001"/>
<path d="M 0.0161313444995289 0.01751447570998038 C 0.01623060908430512 0.01737859652383916 0.017558897028845576 0.015560358072812135 0.01732251951684353 0.01588392547628572 C 0.017558897028845576 0.015560358072812135 0.01910498757077925 0.01344397865096501 0.018967874643553425 0.013631666868297372" fill="none" stroke="#000000" stroke-width="0.001"/>
<path d="M 0.018967874643553425 0.013631666868297372 C 0.01910108953192717 0.013732916744769116 0.020832883080785885 0.015049165138901772 0.02056645330403839 0.014846665385958286 C 0.020832883080785885 0.015049165138901772 0.0222982468528971 0.01616291378009095 0.022165031964523355 0.016061663903619208" fill="none" stroke="#000000" stroke-width="0.001"/>
<path d="M 0.022165031964523355 0.016061663903619208 C 0.02202791903729753 0.01624935212095157 0.02028329932581141 0.01863748991508114 0.020519676837813455 0.018313922511607555 C 0.02028329932581141 0.01863748991508114 0.019229237235722608 0.02008035193144344 0.019328501820498827 0.019944472745302217" fill="none" stroke="#000000" stroke-width="0.001"/>
</g><g transform="translate(0.33156087411983254,0.40766930007971525) rotate(0) scale(1,1) translate(-0.05264458246194619,-0.05264458246194618)"><path d="M 0.05367265018640039 0.051891301846738076 C 0.05377924498198022 0.052042658416990066 0.053722974029885434 0.05334591993788109 0.053798185097652294 0.05317608157585408 C 0.053722974029885434 0.05334591993788109 0.052588311509851424 0.053947843982837196 0.05277011737319811 0.05392936219106218 C 0.052588311509851424 0.053947843982837196 0.05150991994191219 0.053246506506902276 0.05161651473749202 0.053397863077154266 C 0.05150991994191219 0.053246506506902276 0.051566190894006964 0.05194324498601127 0.0514909798262401 0.052113083348038276 C 0.051566190894006964 0.05194324498601127 0.052700853414040995 0.051341320941055174 0.0525190475506943 0.05135980273283019 C 0.052700853414040995 0.051341320941055174 0.05377924498198022 0.052042658416990066 0.05367265018640039 0.051891301846738076 Z" fill="#cccccc" stroke="#000000" stroke-width="0.001"/>
</g><g transform="translate(0.3431260315375088,0.40766930007971525) rotate(0) scale(1,1) translate(-0.05264458246194619,-0.05264458246194618)"><path d="M 0.053798185097652294 0.052113083348038276 C 0.053873396165419155 0.05228292171006528 0.05356605539082056 0.05354921964740627 0.05367265018640039 0.05339786307715428 C 0.05356605539082056 0.05354921964740627 0.05233724168734761 0.05391088039928717 0.0525190475506943 0.05392936219106218 C 0.05233724168734761 0.05391088039928717 0.05141576875847324 0.053006243213827076 0.0514909798262401 0.05317608157585408 C 0.05141576875847324 0.053006243213827076 0.051723109533071854 0.0517399452764861 0.05161651473749202 0.05189130184673809 C 0.051723109533071854 0.0517399452764861 0.05295192323654478 0.0513782845246052 0.052770117373198096 0.05135980273283019 C 0.05295192323654478 0.0513782845246052 0.053873396165419155 0.05228292171006528 0.053798185097652294 0.052113083348038276 Z" fill="#cccccc" stroke="#000000" stroke-width="0.001"/>
</g><g transform="translate(0.33734345282867073,0.4234020127837842) rotate(0) scale(1,1) translate(-0.018432339988539145,-0.017725908331667376)"><path d="M 0.016408366120561752 0.015061013543286561 C 0.016577030609559867 0.015061013543286561 0.01876966896653538 0.015061013543286561 0.018432339988539145 0.015061013543286561 C 0.01876966896653538 0.015061013543286561 0.020624978345514657 0.015061013543286561 0.020456313856516542 0.015061013543286561" fill="none" stroke="#000000" stroke-width="0.001"/>
<path d="M 0.020456313856516542 0.015061013543286561 C 0.020456313856516542 0.015344623271698192 0.020456313856516542 0.018940770492241972 0.020456313856516542 0.01846433028422612 C 0.020456313856516542 0.018940770492241972 0.020456313856516542 0.020971126519081004 0.020456313856516542 0.02077829603947678" fill="none" stroke="#000000" stroke-width="0.001"/>
<path d="M 0.020456313856516542 0.02077829603947678 C 0.020287649367518427 0.020764516474293077 0.01809501101054291 0.02061294125727234 0.018432339988539145 0.02061294125727234 C 0.01809501101054291 0.02061294125727234 0.016239701631563637 0.020792075604660485 0.016408366120561752 0.02077829603947678" fill="none" stroke="#000000" stroke-width="0.001"/>
<path d="M 0.016408366120561752 0.02077829603947678 C 0.016408366120561752 0.02058546555987256 0.016408366120561752 0.017987890076210267 0.016408366120561752 0.01846433028422612 C 0.016408366120561752 0.017987890076210267 0.016408366120561752 0.014777403814874931 0.016408366120561752 0.015061013543286561" fill="none" stroke="#000000" stroke-width="0.001"/>
</g><g transform="translate(0.33734345282867073,0.4168116095825788) rotate(0) scale(1,1) translate(-0.018432339988539145,-0.017583825426694587)"><path d="M 0.016408366120561752 0.01660122814770947 C 0.016577030609559867 0.01660122814770947 0.01876966896653538 0.016601228147709465 0.018432339988539145 0.016601228147709465 C 0.01876966896653538 0.016601228147709465 0.020624978345514657 0.016601228147709465 0.020456313856516542 0.016601228147709465" fill="none" stroke="#000000" stroke-width="0.001"/>
<path d="M 0.020456313856516542 0.016601228147709465 C 0.020456313856516542 0.016773265926487545 0.020456313856516542 0.018990832894936978 0.020456313856516542 0.01866568149304641 C 0.020456313856516542 0.018990832894936978 0.020456313856516542 0.020656158593508785 0.020456313856516542 0.020503044970396293" fill="none" stroke="#000000" stroke-width="0.001"/>
<path d="M 0.020456313856516542 0.020503044970396293 C 0.020287649367518427 0.020503044970396293 0.01809501101054291 0.020503044970396293 0.018432339988539145 0.020503044970396293 C 0.01809501101054291 0.020503044970396293 0.016239701631563637 0.020503044970396293 0.016408366120561752 0.020503044970396293" fill="none" stroke="#000000" stroke-width="0.001"/>
<path d="M 0.016408366120561752 0.020503044970396293 C 0.016408366120561752 0.0203499313472838 0.016408366120561752 0.01834053009115584 0.016408366120561752 0.01866568149304641 C 0.016408366120561752 0.01834053009115584 0.016408366120561752 0.01642919036893139 0.016408366120561752 0.01660122814770947" fill="none" stroke="#000000" stroke-width="0.001"/>
</g><g transform="translate(0.3373434528286708,0.4249179947982147) rotate(0) scale(1,1) translate(-0.03552174005267797,-0.03552174005267798)"><path d="M 0.03660860898447784 0.03522251473673231 C 0.03669918139546116 0.03529732106571873 0.03651803657349452 0.035895771697610095 0.03660860898447784 0.035820965368623676 C 0.03651803657349452 0.035895771697610095 0.03534059523071133 0.03612019068456934 0.03552174005267797 0.03612019068456934 C 0.03534059523071133 0.03612019068456934 0.03434429870989479 0.03574615903963726 0.03443487112087811 0.035820965368623676 C 0.03434429870989479 0.03574615903963726 0.03452544353186142 0.03514770840774589 0.0344348711208781 0.03522251473673231 C 0.03452544353186142 0.03514770840774589 0.03570288487464461 0.03492328942078662 0.03552174005267797 0.03492328942078662 C 0.03570288487464461 0.03492328942078662 0.03669918139546116 0.03529732106571873 0.03660860898447784 0.03522251473673231 Z" fill="#cccccc" stroke="#000000" stroke-width="0.001"/>
</g><g transform="translate(0.33734345282867073,0.418513279020278) rotate(0) scale(1,1) translate(-0.03552174005267797,-0.03552174005267798)"><path d="M 0.03660860898447784 0.035169710269212485 C 0.03669918139546116 0.035257717715078865 0.03651803657349452 0.03596177728200987 0.03660860898447784 0.035873769836143495 C 0.03651803657349452 0.03596177728200987 0.03534059523071133 0.03622579961960899 0.03552174005267797 0.03622579961960899 C 0.03534059523071133 0.03622579961960899 0.03434429870989479 0.03578576239027712 0.03443487112087811 0.035873769836143495 C 0.03434429870989479 0.03578576239027712 0.03452544353186142 0.035081702823346106 0.0344348711208781 0.035169710269212485 C 0.03452544353186142 0.035081702823346106 0.03570288487464461 0.03481768048574697 0.03552174005267797 0.03481768048574697 C 0.03570288487464461 0.03481768048574697 0.03669918139546116 0.035257717715078865 0.03660860898447784 0.035169710269212485 Z" fill="#cccccc" stroke="#000000" stroke-width="0.001"/>
</g></svg>
