<?xml version="1.0" encoding="UTF-8"?>
<svg xmlns="http://www.w3.org/2000/svg" viewBox="0 0 1 1">
<g transform="translate(0.334747156543161,0.3897173302011098) rotate(0) scale(1,1) translate(-0.018432339988539145,-0.01776796487153932)"><path d="M 0.020706883095967316 0.01716678930735719 C 0.020048522422530392 0.017519371318469368 0.012450574663014783 0.022426950751512836 0.012806555014724243 0.02139777344070333 C 0.012450574663014783 0.022426950751512836 0.016737499197181243 0.030193512336768577 0.01643511887545378 0.02951691703707125" fill="none" stroke="#000000" stroke-width="0.001"/>
<path d="M 0.01643511887545378 0.02951691703707125 C 0.016272988162714882 0.02946949699862823 0.014165288897109178 0.028853036498868976 0.014489550322586978 0.028947876575755014 C 0.014165288897109178 0.028853036498868976 0.012381851056981275 0.028331416075995756 0.012543981769720176 0.028378836114438775" fill="none" stroke="#000000" stroke-width="0.001"/>
<path d="M 0.012543981769720176 0.028378836114438775 C 0.01229002436762923 0.027724959358490536 0.009852473296338279 0.01950313773225039 0.009496492944628818 0.020532315043059895 C 0.009852473296338279 0.01950313773225039 0.01742568374403412 0.015653407829863446 0.01681574599023371 0.016028708384724713" fill="none" stroke="#000000" stroke-width="0.001"/>
</g><g transform="translate(0.33993974911418046,0.3897173302011098) rotate(0) scale(1,1) translate(-0.018432339988539145,-0.01776796487153932)"><path d="M 0.020048933986844493 0.016028708384724713 C 0.020658871740644895 0.01640400893958598 0.027724167384158796 0.0215614923538694 0.027368187032449334 0.020532315043059895 C 0.027724167384158796 0.0215614923538694 0.024066740805267106 0.029032712870387015 0.024320698207358046 0.028378836114438775" fill="none" stroke="#000000" stroke-width="0.001"/>
<path d="M 0.024320698207358046 0.028378836114438775 C 0.024158567494619147 0.028426256152881794 0.022050868229013462 0.029042716652641052 0.02237512965449126 0.028947876575755014 C 0.022050868229013462 0.029042716652641052 0.020267430388885573 0.029564337075514268 0.02042956110162447 0.02951691703707125" fill="none" stroke="#000000" stroke-width="0.001"/>
<path d="M 0.02042956110162447 0.02951691703707125 C 0.020731941423351927 0.02884032173737392 0.023702144610644488 0.020368596129893824 0.02405812496235395 0.02139777344070333 C 0.023702144610644488 0.020368596129893824 0.015499436207674003 0.016814207296245012 0.016157796881110922 0.01716678930735719" fill="none" stroke="#000000" stroke-width="0.001"/>
</g><g transform="translate(0.33734345282867073,0.37369955748837125) rotate(0) scale(1,1) translate(-0.013432873520353284,-0.006789619616048636)"><path d="M 0.05032005177696649 -0.010679932682142242 C 0.049590049104066045 -0.010011866993049717 0.039473981033913474 -0.000867179192328972 0.0415600197021612 -0.0026631444130319386 C 0.039473981033913474 -0.000867179192328972 0.023268195945198498 0.012968230149185841 0.02528758775799378 0.010871649966293358 C 0.023268195945198498 0.012968230149185841 0.016663962131169816 0.023464498432959904 0.01732731794861781 0.022495817781677863" fill="none" stroke="#000000" stroke-width="0.001"/>
<path d="M 0.01732731794861781 0.022495817781677863 C 0.0170027809129291 0.022573711418455194 0.01278379944897586 0.023430541423005845 0.013432873520353284 0.023430541423005845 C 0.01278379944897586 0.023430541423005845 0.009213892056400002 0.02241792414490053 0.009538429092088716 0.022495817781677863" fill="none" stroke="#000000" stroke-width="0.001"/>
<path d="M 0.009538429092088716 0.022495817781677863 C 0.00887507327464072 0.02152713713039582 -0.00044123253008250367 0.008775069783400875 0.0015781592827127742 0.010871649966293358 C -0.00044123253008250367 0.008775069783400875 -0.01678031132970234 -0.004459109633734905 -0.014694272661454616 -0.0026631444130319386 C -0.01678031132970234 -0.004459109633734905 -0.024184307409160364 -0.011347998371234767 -0.023454304736259923 -0.010679932682142242" fill="none" stroke="#000000" stroke-width="0.001"/>
<path d="M -0.023454304736259923 -0.010679932682142242 C -0.02323944169301368 -0.01104600948509979 -0.02034340834427576 -0.015706220385824057 -0.020875948217305013 -0.015072854317632802 C -0.02034340834427576 -0.015706220385824057 -0.016746149430125888 -0.018547614765671003 -0.017063826259908897 -0.018280325500437296" fill="none" stroke="#000000" stroke-width="0.001"/>
<path d="M -0.017063826259908897 -0.018280325500437296 C -0.015480304781740619 -0.01707162181030572 0.0054376932966525345 -0.002567177528726794 0.0019384314781104419 -0.003775881218858371 C 0.0054376932966525345 -0.002567177528726794 0.02842657738113831 -0.004984584908989948 0.024927315562596218 -0.003775881218858371 C 0.02842657738113831 -0.004984584908989948 0.04551309477878384 -0.01948902919056887 0.04392957330061556 -0.018280325500437296" fill="none" stroke="#000000" stroke-width="0.001"/>
<path d="M 0.04392957330061556 -0.018280325500437296 C 0.04424725013039856 -0.01801303623520359 0.048274235131040844 -0.014439488249441548 0.0477416952580116 -0.015072854317632802 C 0.048274235131040844 -0.014439488249441548 0.05053491482021273 -0.010313855879184694 0.05032005177696649 -0.010679932682142242" fill="none" stroke="#000000" stroke-width="0.001"/>
</g><g transform="translate(0.3081854223033656,0.3566799977464176) rotate(0) scale(1,1) translate(-0.00775832499658671,-0.0077583249965867095)"><path d="M 0.007359173931510443 0.01605434235033256 C 0.006829207039110937 0.015447217333084233 0.0010163343783871103 0.007497118277158048 0.0009995712227163717 0.008768842143352632 C 0.0010163343783871103 0.007497118277158048 0.008785267499418364 0.0005559847687544242 0.007560331799559305 0.0007936559559975492 C 0.008785267499418364 0.0005559847687544242 0.016377005272813886 0.0063437155581382645 0.01569879962102507 0.0059167878964351325" fill="none" stroke="#000000" stroke-width="0.001"/>
<path d="M 0.01569879962102507 0.0059167878964351325 C 0.015640354232018525 0.005987833448800621 0.014915631408337357 0.006868798298132688 0.014997454952946514 0.006769334524821003 C 0.014915631408337357 0.006868798298132688 0.014693538930112592 0.007138771397121552 0.014716917085715202 0.007110353176175356" fill="none" stroke="#000000" stroke-width="0.001"/>
<path d="M 0.014716917085715202 0.007110353176175356 C 0.014152431941549038 0.006743886132575706 0.006959928697580969 0.00285522611177995 0.007943095355721234 0.002712748652979552 C 0.006959928697580969 0.00285522611177995 0.0029520806139569328 0.009832418383247865 0.0029189171880320214 0.008820082681780132 C 0.0029520806139569328 0.009832418383247865 0.008792901406719185 0.015364168269660033 0.008341056466820172 0.014860777070592348" fill="none" stroke="#000000" stroke-width="0.001"/>
<path d="M 0.008341056466820172 0.014860777070592348 C 0.008317678311217562 0.014889195291538544 0.007978695054979716 0.015301259495258377 0.00806051859958886 0.015201795721946692 C 0.007978695054979716 0.015301259495258377 0.0073007285425039075 0.01612538790269805 0.007359173931510443 0.01605434235033256" fill="none" stroke="#000000" stroke-width="0.001"/>
</g><g transform="translate(0.30513076811773104,0.3540655753618668) rotate(0) scale(1,1) translate(-0.0022536622055164745,-0.002253662205516475)"><path d="M 0.002415086920121408 0.00365554941484548 C 0.002299797467773867 0.003538772292550689 0.0010005227514281196 0.002035095825358066 0.001031613491950913 0.0022542239473079847 C 0.0010005227514281196 0.002035095825358066 0.0022589646033008832 0.0010191915227542908 0.0020419980338478878 0.0010260119514464532 C 0.0022589646033008832 0.0010191915227542908 0.003767980183015104 0.0022679093739650024 0.003635212325386857 0.0021723788030020372" fill="none" stroke="#000000" stroke-width="0.001"/>
<path d="M 0.003635212325386857 0.0021723788030020372 C 0.0036091794978317074 0.0022554083478212865 0.003221141277619611 0.003292330891819983 0.003322818394725065 0.0031687333408330293 C 0.003221141277619611 0.003292330891819983 0.0023394426305711033 0.0036961174210131845 0.002415086920121408 0.00365554941484548" fill="none" stroke="#000000" stroke-width="0.001"/>
</g><g transform="translate(0.3151958496133254,0.36270896523298307) rotate(0) scale(1,1) translate(-0.006469483550722008,-0.0064694835507220095)"><path d="M 0.01058929732098496 0.0022299155608516644 C 0.009636013579019926 0.003965917849425784 0.0022363610680725936 0.013090679746401256 0.0036096323248269273 0.011677490416444447 C 0.0022363610680725936 0.013090679746401256 0.003302953522423993 0.008973049252018396 0.002349669780458959 0.010709051540592516 C 0.003302953522423993 0.008973049252018396 0.010702606033371464 -0.00015171264495708017 0.00932933477661713 0.0012614766849997285 C 0.010702606033371464 -0.00015171264495708017 0.009636013579019926 0.003965917849425784 0.01058929732098496 0.0022299155608516644 Z" fill="#cccccc" stroke="#000000" stroke-width="0.001"/>
</g><g transform="translate(0.3224917327073779,0.3651289298303224) rotate(0) scale(1,1) translate(-0.029189151001757105,-0.02918915100175711)"><path d="M 0.02918915100175712 0.027666758669450404 C 0.02940458081128396 0.027666758669450404 0.030589444763681594 0.02861825387714209 0.030481729858918172 0.028427954835603755 C 0.030589444763681594 0.02861825387714209 0.03037401495415475 0.0301406462094488 0.030481729858918172 0.02995034716791046 C 0.03037401495415475 0.0301406462094488 0.028973721192230278 0.030711543334063816 0.02918915100175712 0.030711543334063816 C 0.028973721192230278 0.030711543334063816 0.027788857239832643 0.02976004812637212 0.027896572144596066 0.02995034716791046 C 0.027788857239832643 0.02976004812637212 0.028004287049359488 0.028237655794065418 0.027896572144596066 0.028427954835603755 C 0.028004287049359488 0.028237655794065418 0.02940458081128396 0.027666758669450404 0.02918915100175712 0.027666758669450404 Z" fill="#cccccc" stroke="#000000" stroke-width="0.001"/>
</g><g transform="translate(0.3200627714649718,0.3690535524538357) rotate(0) scale(1,1) translate(-0.029189151001757105,-0.02918915100175711)"><path d="M 0.02918915100175712 0.027666758669450404 C 0.02940458081128396 0.027666758669450404 0.030589444763681594 0.02861825387714209 0.030481729858918172 0.028427954835603755 C 0.030589444763681594 0.02861825387714209 0.03037401495415475 0.0301406462094488 0.030481729858918172 0.02995034716791046 C 0.03037401495415475 0.0301406462094488 0.028973721192230278 0.030711543334063816 0.02918915100175712 0.030711543334063816 C 0.028973721192230278 0.030711543334063816 0.027788857239832643 0.02976004812637212 0.027896572144596066 0.02995034716791046 C 0.027788857239832643 0.02976004812637212 0.028004287049359488 0.028237655794065418 0.027896572144596066 0.028427954835603755 C 0.028004287049359488 0.028237655794065418 0.02940458081128396 0.027666758669450404 0.02918915100175712 0.027666758669450404 Z" fill="#cccccc" stroke="#000000" stroke-width="0.001"/>
</g><g transform="translate(0.33540938306064405,0.38723495635337646) rotate(0) scale(1,1) translate(-0.029189151001757105,-0.02918915100175711)"><path d="M 0.02918915100175712 0.027666758669450404 C 0.02940458081128396 0.027666758669450404 0.030589444763681594 0.02861825387714209 0.030481729858918172 0.028427954835603755 C 0.030589444763681594 0.02861825387714209 0.03037401495415475 0.0301406462094488 0.030481729858918172 0.02995034716791046 C 0.03037401495415475 0.0301406462094488 0.028973721192230278 0.030711543334063816 0.02918915100175712 0.030711543334063816 C 0.028973721192230278 0.030711543334063816 0.027788857239832643 0.02976004812637212 0.027896572144596066 0.02995034716791046 C 0.027788857239832643 0.02976004812637212 0.028004287049359488 0.028237655794065418 0.027896572144596066 0.028427954835603755 C 0.028004287049359488 0.028237655794065418 0.02940458081128396 0.027666758669450404 0.02918915100175712 0.027666758669450404 Z" fill="#cccccc" stroke="#000000" stroke-width="0.001"/>
</g><g transform="translate(0.3665014833539759,0.3566799977464176) rotate(0) scale(1,1) translate(-0.00775832499658671,-0.0077583249965867095)"><path d="M 0.008157476061662963 0.01605434235033256 C 0.008099030672656425 0.015983296797967072 0.007374307848975364 0.015102331948635007 0.007456131393584516 0.015201795721946692 C 0.007374307848975364 0.015102331948635007 0.007152215370750526 0.014832358849646152 0.00717559352635314 0.014860777070592348" fill="none" stroke="#000000" stroke-width="0.001"/>
<path d="M 0.00717559352635314 0.014860777070592348 C 0.007627438466252157 0.014357385871524663 0.012630896231066257 0.007807746980312399 0.012597732805141343 0.008820082681780132 C 0.012630896231066257 0.007807746980312399 0.006590387979311844 0.002570271194179154 0.007573554637452109 0.002712748652979552 C 0.006590387979311844 0.002570271194179154 0.00023524776329200117 0.007476820219775007 0.0007997329074581633 0.007110353176175356" fill="none" stroke="#000000" stroke-width="0.001"/>
<path d="M 0.0007997329074581633 0.007110353176175356 C 0.0007763547518555481 0.00708193495522916 0.00043737149561762814 0.006669870751509317 0.0005191950402267807 0.006769334524821003 C 0.00043737149561762814 0.006669870751509317 -0.00024059501685820558 0.0058457423440696436 -0.00018214962785166816 0.0059167878964351325" fill="none" stroke="#000000" stroke-width="0.001"/>
<path d="M -0.00018214962785166816 0.0059167878964351325 C 0.0004960560239371375 0.005489860234732 0.00918125389347305 0.0010313271432406742 0.007956318193614 0.0007936559559975492 C 0.00918125389347305 0.0010313271432406742 0.014533841926127677 0.010040566009547216 0.01451707877045693 0.008768842143352632 C 0.014533841926127677 0.010040566009547216 0.007627509169263466 0.01666146736758089 0.008157476061662963 0.01605434235033256" fill="none" stroke="#000000" stroke-width="0.001"/>
</g><g transform="translate(0.3695561375396105,0.3540655753618668) rotate(0) scale(1,1) translate(-0.0022536622055164745,-0.002253662205516475)"><path d="M 0.0020922374909115547 0.00365554941484548 C 0.0020165932013612485 0.003614981408677776 0.00108282889920242 0.0030451357898460757 0.0011845060163078788 0.0031687333408330293 C 0.00108282889920242 0.0030451357898460757 0.0008460792580908991 0.002089349258182788 0.0008721120856460514 0.0021723788030020372" fill="none" stroke="#000000" stroke-width="0.001"/>
<path d="M 0.0008721120856460514 0.0021723788030020372 C 0.001004879943274309 0.002076848232039072 0.002682292946638146 0.0010328323801386155 0.00246532637718514 0.0010260119514464532 C 0.002682292946638146 0.0010328323801386155 0.0034446201785593242 0.0024733520692579035 0.003475710919082123 0.0022542239473079847 C 0.0034446201785593242 0.0024733520692579035 0.0019769480385640075 0.0037723265371402714 0.0020922374909115547 0.00365554941484548" fill="none" stroke="#000000" stroke-width="0.001"/>
</g><g transform="translate(0.35949105604401616,0.36270896523298307) rotate(0) scale(1,1) translate(-0.006469483550722008,-0.0064694835507220095)"><path d="M 0.0036096323248267824 0.0012614766849997248 C 0.0049829035815811065 0.0026746660149565334 0.011542581062949924 0.012445053829166632 0.010589297320984882 0.010709051540592512 C 0.011542581062949924 0.012445053829166632 0.007956063519862716 0.010264301086487635 0.00932933477661704 0.011677490416444444 C 0.007956063519862716 0.010264301086487635 0.0013963860384938963 0.0004939132722775411 0.002349669780458939 0.002229915560851661 C 0.0013963860384938963 0.0004939132722775411 0.0049829035815811065 0.0026746660149565334 0.0036096323248267824 0.0012614766849997248 Z" fill="#cccccc" stroke="#000000" stroke-width="0.001"/>
</g><g transform="translate(0.3521951729499636,0.3651289298303224) rotate(0) scale(1,1) translate(-0.029189151001757105,-0.02918915100175711)"><path d="M 0.03048172985891813 0.028427954835603755 C 0.03058944476368155 0.02861825387714209 0.03037401495415471 0.0301406462094488 0.03048172985891813 0.02995034716791046 C 0.03037401495415471 0.0301406462094488 0.028973721192230267 0.030711543334063816 0.029189151001757105 0.030711543334063816 C 0.028973721192230267 0.030711543334063816 0.027788857239832654 0.02976004812637212 0.027896572144596073 0.02995034716791046 C 0.027788857239832654 0.02976004812637212 0.02800428704935949 0.028237655794065418 0.027896572144596073 0.028427954835603755 C 0.02800428704935949 0.028237655794065418 0.029404580811283942 0.027666758669450404 0.029189151001757105 0.027666758669450404 C 0.029404580811283942 0.027666758669450404 0.03058944476368155 0.02861825387714209 0.03048172985891813 0.028427954835603755 Z" fill="#cccccc" stroke="#000000" stroke-width="0.001"/>
</g><g transform="translate(0.3546241341923697,0.3690535524538357) rotate(0) scale(1,1) translate(-0.029189151001757105,-0.02918915100175711)"><path d="M 0.03048172985891813 0.028427954835603755 C 0.03058944476368155 0.02861825387714209 0.03037401495415471 0.0301406462094488 0.03048172985891813 0.02995034716791046 C 0.03037401495415471 0.0301406462094488 0.028973721192230267 0.030711543334063816 0.029189151001757105 0.030711543334063816 C 0.028973721192230267 0.030711543334063816 0.027788857239832654 0.02976004812637212 0.027896572144596073 0.02995034716791046 C 0.027788857239832654 0.02976004812637212 0.02800428704935949 0.028237655794065418 0.027896572144596073 0.028427954835603755 C 0.02800428704935949 0.028237655794065418 0.029404580811283942 0.027666758669450404 0.029189151001757105 0.027666758669450404 C 0.029404580811283942 0.027666758669450404 0.03058944476368155 0.02861825387714209 0.03048172985891813 0.028427954835603755 Z" fill="#cccccc" stroke="#000000" stroke-width="0.001"/>
</g><g transform="translate(0.3392775225966974,0.38723495635337646) rotate(0) scale(1,1) translate(-0.029189151001757105,-0.02918915100175711)"><path d="M 0.03048172985891813 0.028427954835603755 C 0.03058944476368155 0.02861825387714209 0.03037401495415471 0.0301406462094488 0.03048172985891813 0.02995034716791046 C 0.03037401495415471 0.0301406462094488 0.028973721192230267 0.030711543334063816 0.029189151001757105 0.030711543334063816 C 0.028973721192230267 0.030711543334063816 0.027788857239832654 0.02976004812637212 0.027896572144596073 0.02995034716791046 C 0.027788857239832654 0.02976004812637212 0.02800428704935949 0.028237655794065418 0.027896572144596073 0.028427954835603755 C 0.02800428704935949 0.028237655794065418 0.029404580811283942 0.027666758669450404 0.029189151001757105 0.027666758669450404 C 0.029404580811283942 0.027666758669450404 0.03058944476368155 0.02861825387714209 0.03048172985891813 0.028427954835603755 Z" fill="#cccccc" stroke="#000000" stroke-width="0.001"/>
</g><g transform="translate(0.33734345282867073,0.41087114254656654) rotate(0) scale(1,1) translate(-0.007606109943618106,-0.016121803466892737)"><path d="M 0.015885421594651648 0.019823830091157055 C 0.01580771604615661 0.019901535639652093 0.014797543915721103 0.020756296673097523 0.014952955012711181 0.020756296673097523 C 0.014797543915721103 0.020756296673097523 0.013942782882275677 0.019746124542662016 0.014020488430770715 0.019823830091157055" fill="none" stroke="none" stroke-width="0"/>
<path d="M 0.014020488430770715 0.019823830091157055 C 0.01396368433422029 0.019692216878906908 0.013080123799988595 0.018006834730376217 0.013338839272165632 0.018244471544155302 C 0.013080123799988595 0.018006834730376217 0.010438175320600658 0.01683043409668427 0.010915902764646285 0.01697218832580805 C 0.010438175320600658 0.01683043409668427 0.007054477806780081 0.016543420794669923 0.00760610994361811 0.016543420794669923 C 0.007054477806780081 0.016543420794669923 0.003818589678544315 0.01711394255493183 0.004296317122589942 0.01697218832580805 C 0.003818589678544315 0.01711394255493183 0.001614665142893557 0.018482108357934388 0.0018733806150705926 0.018244471544155302 C 0.001614665142893557 0.018482108357934388 0.0011349273599150912 0.019955443303407202 0.0011917314564655144 0.019823830091157055" fill="none" stroke="#000000" stroke-width="0.001"/>
<path d="M 0.0011917314564655144 0.019823830091157055 C 0.0011140259079704753 0.019901535639652093 0.00010385377753496629 0.020756296673097526 0.0002592648745250446 0.020756296673097526 C 0.00010385377753496629 0.020756296673097526 -0.0007509072559104645 0.019746124542662016 -0.0006732017074154253 0.019823830091157055" fill="none" stroke="none" stroke-width="0"/>
<path d="M -0.0006732017074154253 0.019823830091157055 C -0.0005807669211329243 0.01963001252530914 0.0007809870467676502 0.017160937261364632 0.00043601572797458653 0.017498019300982052 C 0.0007809870467676502 0.017160937261364632 0.004063961969404964 0.015578161449585477 0.0034664541181013376 0.015778845615748015 C 0.004063961969404964 0.015578161449585477 0.00829605258120423 0.015089809307031594 0.007606109943618103 0.015089809307031594 C 0.00829605258120423 0.015089809307031594 0.0123432736204385 0.015979529781910553 0.011745765769134872 0.015778845615748015 C 0.0123432736204385 0.015979529781910553 0.015121175478054694 0.01783510134059947 0.01477620415926163 0.017498019300982052 C 0.015121175478054694 0.01783510134059947 0.01597785638093415 0.02001764765700497 0.015885421594651648 0.019823830091157055" fill="none" stroke="#000000" stroke-width="0.001"/>
</g><g transform="translate(0.33734345282867073,0.41457316917083087) rotate(0) scale(1,1) translate(-0.007606109943618107,-0.001029294317343837)"><path d="M 0.015885421594651644 0.0010292943173439474 C 0.015792986808369144 0.0012231118831918443 0.014431232840468563 0.003692187147136112 0.014776204159261628 0.0033551051075187115 C 0.014431232840468563 0.003692187147136112 0.011148257917831243 0.005274962958915348 0.01174576576913487 0.0050742787927527495 C 0.011148257917831243 0.005274962958915348 0.006916167306031974 0.005763315101469898 0.007606109943618102 0.005763315101469898 C 0.006916167306031974 0.005763315101469898 0.0028689462667977096 0.004873594626590151 0.003466454118101336 0.0050742787927527495 C 0.0028689462667977096 0.004873594626590151 9.104440918152219E-05 0.003018023067901311 0.00043601572797458566 0.0033551051075187115 C 9.104440918152219E-05 0.003018023067901311 -0.0007656364936979271 0.0008354767514960503 -0.0006732017074154262 0.0010292943173439474" fill="none" stroke="#000000" stroke-width="0.001"/>
<path d="M 0.001191731456465511 0.0010292943173439474 C 0.0012485355530159345 0.0011609075295941711 0.0021320960872476306 0.0028462896781265875 0.0018733806150705947 0.002608652864346632 C 0.0021320960872476306 0.0028462896781265875 0.004774044566635566 0.004022690311827225 0.004296317122589939 0.0038809360827034133 C 0.004774044566635566 0.004022690311827225 0.00815774208045614 0.004309703613832376 0.007606109943618112 0.004309703613832376 C 0.00815774208045614 0.004309703613832376 0.011393630208691913 0.0037391818535796014 0.010915902764646285 0.0038809360827034133 C 0.011393630208691913 0.0037391818535796014 0.013597554744342667 0.0023710160505666764 0.013338839272165632 0.002608652864346632 C 0.013597554744342667 0.0023710160505666764 0.01407729252732113 0.0008976811050937237 0.014020488430770707 0.0010292943173439474" fill="none" stroke="#000000" stroke-width="0.001"/>
</g><g transform="translate(0.33734345282867073,0.39961758447046125) rotate(0) scale(1,1) translate(-0.007606109943618106,-0.016121803466892737)"><path d="M 0.015885421594651648 0.021060787919551998 C 0.0158162663442776 0.021129943169926047 0.014917248089414952 0.02189065092404059 0.015055558590163052 0.02189065092404059 C 0.014917248089414952 0.02189065092404059 0.014156540335300408 0.02099163266917795 0.014225695585674457 0.021060787919551998" fill="none" stroke="none" stroke-width="0"/>
<path d="M 0.014225695585674457 0.021060787919551998 C 0.014151790892882054 0.020895131902638236 0.013063023203746617 0.018779534009466515 0.013338839272165632 0.01907291571658684 C 0.013063023203746617 0.018779534009466515 0.010438175320600658 0.017375242647297288 0.010915902764646285 0.01754020743410808 C 0.010438175320600658 0.017375242647297288 0.007054477806780081 0.017093338274857303 0.00760610994361811 0.017093338274857303 C 0.007054477806780081 0.017093338274857303 0.003818589678544315 0.017705172220918875 0.004296317122589942 0.01754020743410808 C 0.003818589678544315 0.017705172220918875 0.001597564546651578 0.019366297423707168 0.0018733806150705926 0.01907291571658684 C 0.001597564546651578 0.019366297423707168 0.0009126196087693656 0.02122644393646576 0.0009865243015617677 0.021060787919551998" fill="none" stroke="#000000" stroke-width="0.001"/>
<path d="M 0.0009865243015617677 0.021060787919551998 C 0.0009173690511877179 0.021129943169926047 1.8350796325071814E-05 0.021890650924040595 0.00015666129707317123 0.021890650924040595 C 1.8350796325071814E-05 0.021890650924040595 -0.000742356957789475 0.02099163266917795 -0.0006732017074154253 0.021060787919551998" fill="none" stroke="none" stroke-width="0"/>
<path d="M -0.0006732017074154253 0.021060787919551998 C -0.0005807669211329243 0.020832071935192195 0.0007809870467676502 0.017920048401820075 0.00043601572797458653 0.01831619610723438 C 0.0007809870467676502 0.017920048401820075 0.004063961969404964 0.01607829947022052 0.0034664541181013376 0.016307015454580322 C 0.004063961969404964 0.01607829947022052 0.00829605258120423 0.01557160429491676 0.007606109943618103 0.01557160429491676 C 0.00829605258120423 0.01557160429491676 0.0123432736204385 0.016535731438940125 0.011745765769134872 0.016307015454580322 C 0.0123432736204385 0.016535731438940125 0.015121175478054694 0.018712343812648687 0.01477620415926163 0.01831619610723438 C 0.015121175478054694 0.018712343812648687 0.01597785638093415 0.0212895039039118 0.015885421594651648 0.021060787919551998" fill="none" stroke="#000000" stroke-width="0.001"/>
</g><g transform="translate(0.33734345282867073,0.40455656892312053) rotate(0) scale(1,1) translate(-0.007606109943618107,-0.001029294317343837)"><path d="M 0.015885421594651644 0.0010292943173439012 C 0.015792986808369144 0.0012580103017037028 0.014431232840468563 0.004170033835075825 0.014776204159261628 0.003773886129661519 C 0.014431232840468563 0.004170033835075825 0.011148257917831243 0.006011782766675389 0.01174576576913487 0.005783066782315576 C 0.011148257917831243 0.006011782766675389 0.006916167306031974 0.0065184779419792775 0.007606109943618102 0.0065184779419792775 C 0.006916167306031974 0.0065184779419792775 0.0028689462667977096 0.005554350797955763 0.003466454118101336 0.005783066782315576 C 0.0028689462667977096 0.005554350797955763 9.104440918152219E-05 0.003377738424247213 0.00043601572797458566 0.003773886129661519 C 9.104440918152219E-05 0.003377738424247213 -0.0007656364936979271 0.0008005783329840997 -0.0006732017074154262 0.0010292943173439012" fill="none" stroke="#000000" stroke-width="0.001"/>
<path d="M 0.0009865243015617642 0.0010292943173439012 C 0.0010604289943541667 0.001194950334257664 0.0021491966834896094 0.0033105482274293826 0.0018733806150705947 0.003017166520309056 C 0.0021491966834896094 0.0033105482274293826 0.004774044566635566 0.004714839589598636 0.004296317122589939 0.004549874802787817 C 0.004774044566635566 0.004714839589598636 0.00815774208045614 0.004996743962038879 0.007606109943618112 0.004996743962038879 C 0.00815774208045614 0.004996743962038879 0.011393630208691913 0.004384910015976998 0.010915902764646285 0.004549874802787817 C 0.011393630208691913 0.004384910015976998 0.013614655340584645 0.00272378481318873 0.013338839272165632 0.003017166520309056 C 0.013614655340584645 0.00272378481318873 0.014299600278466853 0.0008636383004301382 0.014225695585674452 0.0010292943173439012" fill="none" stroke="#000000" stroke-width="0.001"/>
</g><g transform="translate(0.3324072602516386,0.40118574658915207) rotate(0) scale(1,1) translate(-0.018432339988539145,-0.01776796487153932)"><path d="M 0.018208243802915153 0.020153697825348794 C 0.01807179136496812 0.020052576556145882 0.01624588206673447 0.018699443783549652 0.016570814547550747 0.018940242594913836 C 0.01624588206673447 0.018699443783549652 0.014120573990250535 0.01712443454681731 0.014309054033119783 0.017264112088978583" fill="none" stroke="#000000" stroke-width="0.001"/>
<path d="M 0.014309054033119783 0.017264112088978583 C 0.014408192532338325 0.0171249306022726 0.015696993022179362 0.015315571275094806 0.015498716023742278 0.015593934248506774 C 0.015696993022179362 0.015315571275094806 0.016787516513583307 0.013784574921328983 0.016688378014364767 0.013923756408034966" fill="none" stroke="#000000" stroke-width="0.001"/>
<path d="M 0.016688378014364767 0.013923756408034966 C 0.016876858057234004 0.014063433950196241 0.019275071009611885 0.015840685725334456 0.018950138528795603 0.015599886913970271 C 0.019275071009611885 0.015840685725334456 0.020724020222107183 0.016914463413608083 0.020587567784160137 0.016813342144405174" fill="none" stroke="#000000" stroke-width="0.001"/>
<path d="M 0.020587567784160137 0.016813342144405174 C 0.020488429284941597 0.016952523631111157 0.019199628795100558 0.01876188295828896 0.019397905793537642 0.01848351998487699 C 0.019199628795100558 0.01876188295828896 0.018109105303696613 0.020292879312054778 0.018208243802915153 0.020153697825348794" fill="none" stroke="#000000" stroke-width="0.001"/>
</g><g transform="translate(0.3422796454057029,0.40118574658915207) rotate(0) scale(1,1) translate(-0.018432339988539145,-0.01776796487153932)"><path d="M 0.018656436174162988 0.02015369782534873 C 0.018557297674944448 0.020014516338642745 0.017268497185103444 0.018205157011464967 0.01746677418354052 0.018483519984876934 C 0.017268497185103444 0.018205157011464967 0.01617797369369951 0.016674160657699152 0.01627711219291805 0.016813342144405136" fill="none" stroke="#000000" stroke-width="0.001"/>
<path d="M 0.01627711219291805 0.016813342144405136 C 0.01641356463086509 0.016712220875202227 0.018239473929098846 0.015359088102606033 0.01791454144828256 0.015599886913970216 C 0.018239473929098846 0.015359088102606033 0.020364782005582702 0.013784078865873664 0.02017630196271346 0.013923756408034938" fill="none" stroke="#000000" stroke-width="0.001"/>
<path d="M 0.02017630196271346 0.013923756408034938 C 0.020275440461932002 0.014062937894740921 0.021564240951773006 0.0158722972219187 0.02136596395333593 0.015593934248506733 C 0.021564240951773006 0.0158722972219187 0.022654764443176937 0.017403293575684518 0.022555625943958397 0.017264112088978534" fill="none" stroke="#000000" stroke-width="0.001"/>
<path d="M 0.022555625943958397 0.017264112088978534 C 0.022367145901089156 0.017403789631139806 0.019968932948711212 0.019181041406278 0.020293865429527495 0.018940242594913816 C 0.019968932948711212 0.019181041406278 0.018519983736215946 0.020254819094551638 0.018656436174162988 0.02015369782534873" fill="none" stroke="#000000" stroke-width="0.001"/>
</g><g transform="translate(0.33124378939856586,0.40032352931320314) rotate(0) scale(1,1) translate(-0.05264458246194619,-0.05264458246194618)"><path d="M 0.05341799200127376 0.05159770635530659 C 0.05356613273705233 0.05171157104776636 0.05389752582175472 0.05299212442294484 0.05392013164628138 0.05280433256338501 C 0.05389752582175472 0.05299212442294484 0.05297597554664861 0.05392513583712466 0.053146722106953835 0.053851208670024596 C 0.05297597554664861 0.05392513583712466 0.05172303218684008 0.053577593876126 0.05187117292261865 0.053691458568585766 C 0.05172303218684008 0.053577593876126 0.051391639102137676 0.05229704050094752 0.05136903327761102 0.052484832360507355 C 0.051391639102137676 0.05229704050094752 0.0523131893772438 0.05136402908676771 0.052142442816938576 0.051437956253867774 C 0.0523131893772438 0.05136402908676771 0.05356613273705233 0.05171157104776636 0.05341799200127376 0.05159770635530659 Z" fill="#cccccc" stroke="#000000" stroke-width="0.001"/>
</g><g transform="translate(0.3434431162587755,0.4003235293132031) rotate(0) scale(1,1) translate(-0.05264458246194619,-0.05264458246194618)"><path d="M 0.05392013164628138 0.052484832360507355 C 0.05394273747080804 0.05267262422006719 0.053269851265495195 0.053805323261045535 0.05341799200127376 0.053691458568585766 C 0.053269851265495195 0.053805323261045535 0.05197169625663335 0.05377728150292453 0.052142442816938576 0.053851208670024596 C 0.05197169625663335 0.05377728150292453 0.05134642745308436 0.052616540703825175 0.05136903327761102 0.05280433256338501 C 0.05134642745308436 0.052616540703825175 0.052019313658397216 0.05148384166284682 0.05187117292261865 0.05159770635530659 C 0.052019313658397216 0.05148384166284682 0.053317468667259046 0.05151188342096784 0.05314672210695382 0.051437956253867774 C 0.053317468667259046 0.05151188342096784 0.05394273747080804 0.05267262422006719 0.05392013164628138 0.052484832360507355 Z" fill="#cccccc" stroke="#000000" stroke-width="0.001"/>
</g><g transform="translate(0.33734345282867073,0.41799327405669023) rotate(0) scale(1,1) translate(-0.018432339988539145,-0.017725908331667376)"><path d="M 0.016408366120561752 0.01673615309046977 C 0.016577030609559867 0.01673615309046977 0.01876966896653538 0.01673615309046977 0.018432339988539145 0.01673615309046977 C 0.01876966896653538 0.01673615309046977 0.020624978345514657 0.01673615309046977 0.020456313856516542 0.01673615309046977" fill="none" stroke="#000000" stroke-width="0.001"/>
<path d="M 0.020456313856516542 0.01673615309046977 C 0.020456313856516542 0.016880167856616134 0.020456313856516542 0.01898922722985252 0.020456313856516542 0.01846433028422612 C 0.020456313856516542 0.01898922722985252 0.020456313856516542 0.023415798617466604 0.020456313856516542 0.023034916437986566" fill="none" stroke="#000000" stroke-width="0.001"/>
<path d="M 0.020456313856516542 0.023034916437986566 C 0.020287649367518427 0.022979798177251754 0.01809501101054291 0.02237349730916882 0.018432339988539145 0.02237349730916882 C 0.01809501101054291 0.02237349730916882 0.016239701631563637 0.023090034698721378 0.016408366120561752 0.023034916437986566" fill="none" stroke="#000000" stroke-width="0.001"/>
<path d="M 0.016408366120561752 0.023034916437986566 C 0.016408366120561752 0.02265403425850653 0.016408366120561752 0.01793943333859972 0.016408366120561752 0.01846433028422612 C 0.016408366120561752 0.01793943333859972 0.016408366120561752 0.016592138324323408 0.016408366120561752 0.01673615309046977" fill="none" stroke="#000000" stroke-width="0.001"/>
</g><g transform="translate(0.33734345282867073,0.4091694731088673) rotate(0) scale(1,1) translate(-0.018432339988539145,-0.017583825426694587)"><path d="M 0.016408366120561752 0.01660122814770947 C 0.016577030609559867 0.01660122814770947 0.01876966896653538 0.016601228147709465 0.018432339988539145 0.016601228147709465 C 0.01876966896653538 0.016601228147709465 0.020624978345514657 0.016601228147709465 0.020456313856516542 0.016601228147709465" fill="none" stroke="#000000" stroke-width="0.001"/>
<path d="M 0.020456313856516542 0.016601228147709465 C 0.020456313856516542 0.016773265926487545 0.020456313856516542 0.018990832894936978 0.020456313856516542 0.01866568149304641 C 0.020456313856516542 0.018990832894936978 0.020456313856516542 0.020656158593508785 0.020456313856516542 0.020503044970396293" fill="none" stroke="#000000" stroke-width="0.001"/>
<path d="M 0.020456313856516542 0.020503044970396293 C 0.020287649367518427 0.020503044970396293 0.01809501101054291 0.020503044970396293 0.018432339988539145 0.020503044970396293 C 0.01809501101054291 0.020503044970396293 0.016239701631563637 0.020503044970396293 0.016408366120561752 0.020503044970396293" fill="none" stroke="#000000" stroke-width="0.001"/>
<path d="M 0.016408366120561752 0.020503044970396293 C 0.016408366120561752 0.0203499313472838 0.016408366120561752 0.01834053009115584 0.016408366120561752 0.01866568149304641 C 0.016408366120561752 0.01834053009115584 0.016408366120561752 0.01642919036893139 0.016408366120561752 0.01660122814770947" fill="none" stroke="#000000" stroke-width="0.001"/>
</g><g transform="translate(0.33734345282867073,0.4195092560711207) rotate(0) scale(1,1) translate(-0.03552174005267797,-0.03552174005267798)"><path d="M 0.03660860898447784 0.03522251473673231 C 0.03669918139546116 0.03529732106571873 0.03651803657349452 0.035895771697610095 0.03660860898447784 0.035820965368623676 C 0.03651803657349452 0.035895771697610095 0.03534059523071133 0.03612019068456934 0.03552174005267797 0.03612019068456934 C 0.03534059523071133 0.03612019068456934 0.03434429870989479 0.03574615903963726 0.03443487112087811 0.035820965368623676 C 0.03434429870989479 0.03574615903963726 0.03452544353186142 0.03514770840774589 0.0344348711208781 0.03522251473673231 C 0.03452544353186142 0.03514770840774589 0.03570288487464461 0.03492328942078662 0.03552174005267797 0.03492328942078662 C 0.03570288487464461 0.03492328942078662 0.03669918139546116 0.03529732106571873 0.03660860898447784 0.03522251473673231 Z" fill="#cccccc" stroke="#000000" stroke-width="0.001"/>
</g><g transform="translate(0.33734345282867073,0.41087114254656654) rotate(0) scale(1,1) translate(-0.03552174005267797,-0.03552174005267798)"><path d="M 0.03660860898447784 0.035169710269212485 C 0.03669918139546116 0.035257717715078865 0.03651803657349452 0.03596177728200987 0.03660860898447784 0.035873769836143495 C 0.03651803657349452 0.03596177728200987 0.03534059523071133 0.03622579961960899 0.03552174005267797 0.03622579961960899 C 0.03534059523071133 0.03622579961960899 0.03434429870989479 0.03578576239027712 0.03443487112087811 0.035873769836143495 C 0.03434429870989479 0.03578576239027712 0.03452544353186142 0.035081702823346106 0.0344348711208781 0.035169710269212485 C 0.03452544353186142 0.035081702823346106 0.03570288487464461 0.03481768048574697 0.03552174005267797 0.03481768048574697 C 0.03570288487464461 0.03481768048574697 0.03669918139546116 0.035257717715078865 0.03660860898447784 0.035169710269212485 Z" fill="#cccccc" stroke="#000000" stroke-width="0.001"/>
</g></svg>
