<?xml version="1.0" encoding="UTF-8"?>
<svg xmlns="http://www.w3.org/2000/svg" viewBox="0 0 1 1">
<g transform="translate(0.3257456317518053,0.1130072566562324) rotate(0) scale(1,1) translate(-0.14152185117886698,-0.14116273906070584)"><path d="M 0.1317977015429457 0.14152128608500533 C 0.13196925763618353 0.1409422222775161 0.13460631227699027 0.1336900036301274 0.13385637466179962 0.13457252039513456 C 0.13460631227699027 0.1336900036301274 0.14198031706012848 0.13082619305892967 0.1407969529252334 0.13093108490491925 C 0.14198031706012848 0.13082619305892967 0.14892763470799497 0.13394357602344725 0.14805674428054072 0.13331381824325977 C 0.14892763470799497 0.13394357602344725 0.1515135458691963 0.13891937493582826 0.15124763805468433 0.13848817826716914" fill="none" stroke="none" stroke-width="0"/>
<path d="M 0.15124763805468433 0.13848817826716914 C 0.1513317201593399 0.1392156041124309 0.15120259349468493 0.1437635673076048 0.15175213068261778 0.14285273333873974 C 0.15120259349468493 0.1437635673076048 0.14731679563449876 0.1441365902039629 0.1479504149270872 0.1439531820803596" fill="none" stroke="none" stroke-width="0"/>
<path d="M 0.1479504149270872 0.1439531820803596 C 0.14773532792531496 0.1437170358649255 0.14484955175664946 0.14079575073165218 0.14536937090582047 0.14111942749515077 C 0.14484955175664946 0.14079575073165218 0.141052801098917 0.1400039619125143 0.14171258513703516 0.14006906091837637 C 0.141052801098917 0.1400039619125143 0.13676718142656624 0.14046427497690192 0.13745196244840252 0.14033823942480605 C 0.13676718142656624 0.14046427497690192 0.13316548374388304 0.14168509155342 0.13349521287499994 0.14158148754352662" fill="none" stroke="#000000" stroke-width="0.001"/>
<path d="M 0.13349521287499994 0.14158148754352662 C 0.13364685618242236 0.1417040948370669 0.1355840581900731 0.14324411193405148 0.13531493256406907 0.14305277506601002 C 0.1355840581900731 0.14324411193405148 0.13684220270563005 0.1439462595345253 0.13672472038704844 0.14387752996002412" fill="none" stroke="#000000" stroke-width="0.001"/>
<path d="M 0.13672472038704844 0.14387752996002412 C 0.13705511564993925 0.14399868102349475 0.14139508260311504 0.14539264362713028 0.14068946354173817 0.14533134272167184 C 0.14139508260311504 0.14539264362713028 0.1457599383888804 0.14446067285138317 0.14519214912357092 0.14461314082552532 C 0.1457599383888804 0.14446067285138317 0.1477327902090782 0.14344673046986886 0.14750293472545184 0.143501727031966 C 0.1477327902090782 0.14344673046986886 0.14798770494389013 0.1439908033343924 0.1479504149270872 0.1439531820803596" fill="none" stroke="none" stroke-width="0"/>
<path d="M 0.1479504149270872 0.1439531820803596 C 0.1485840002528508 0.14376985056571132 0.15203553210083673 0.1432740674192593 0.1517519268816688 0.14285319299246987 C 0.15203553210083673 0.1432740674192593 0.14930206613549912 0.14708263458253393 0.1496520462420948 0.1464784286410962" fill="none" stroke="none" stroke-width="0"/>
<path d="M 0.1496520462420948 0.1464784286410962 C 0.14939840210976751 0.14681606825337767 0.14579868898608916 0.15095336070947737 0.14660831665416735 0.15053010398847386 C 0.14579868898608916 0.15095336070947737 0.13890654781332942 0.15139561909381702 0.13993651422515677 0.15155750929313846 C 0.13890654781332942 0.15139561909381702 0.1335704853220549 0.1477510696626053 0.13424871971223915 0.1485874215966164 C 0.1335704853220549 0.1477510696626053 0.13159345002883793 0.14093244145903774 0.1317977015429457 0.14152128608500533" fill="none" stroke="none" stroke-width="0"/>
<path d="M 0.1317977015429457 0.14152128608500533 C 0.1317977015429457 0.14152128608500533 0.1317977015429457 0.14152128608500533 0.1317977015429457 0.14152128608500533 C 0.1317977015429457 0.14152128608500533 0.1317977015429457 0.14152128608500533 0.1317977015429457 0.14152128608500533 C 0.1317977015429457 0.14152128608500533 0.1317977015429457 0.14152128608500533 0.1317977015429457 0.14152128608500533 C 0.1317977015429457 0.14152128608500533 0.1317977015429457 0.14152128608500533 0.1317977015429457 0.14152128608500533" fill="none" stroke="#000000" stroke-width="0.001"/>
</g><g transform="translate(0.32588449103078504,0.10825672161350267) rotate(0) scale(1,1) translate(-0.014991016181195468,-0.014142268789137224)"><path d="M 0.02113215678326686 0.018311609242841552 C 0.020914236415704567 0.018210879658769673 0.017998817319649495 0.016926618339897233 0.01851711237251935 0.017102854233979004 C 0.017998817319649495 0.016926618339897233 0.014297716461264246 0.01613830676016449 0.014912616148828566 0.01619677851386031 C 0.014297716461264246 0.01613830676016449 0.010381053474533915 0.016490718527518336 0.011138316121747502 0.01640119318962914 C 0.010381053474533915 0.016490718527518336 0.005382726737308696 0.017343573350105772 0.005825464382265527 0.017271082568530646" fill="none" stroke="none" stroke-width="0"/>
<path d="M 0.005825464382265527 0.017271082568530646 C 0.006265152974687828 0.01715528318021981 0.011881070571435094 0.015746077289770205 0.011101727491333143 0.01588148990880063 C 0.011881070571435094 0.015746077289770205 0.01581244003512884 0.015702603165609525 0.015177581343488932 0.015646131140165533 C 0.01581244003512884 0.015702603165609525 0.019216246410993548 0.016781277389351548 0.018720031791012053 0.016559154214128548 C 0.019216246410993548 0.016781277389351548 0.021333167199288093 0.01845764716190097 0.02113215678326686 0.018311609242841552" fill="none" stroke="#000000" stroke-width="0.001"/>
</g><g id="睫毛">
<g transform="translate(0.31975747446001734,0.1154347659701088) rotate(0) scale(1,1) translate(-0.008417252494995203,-0.005828091228850773)"><path d="M 0.006176204567083583 0.0069121848304941735 C 0.0062962522957293356 0.006830367758955792 0.0077892697962460905 0.0058137830013898 0.007616777310832616 0.0059303799720335955 C 0.0077892697962460905 0.0058137830013898 0.008298559148813002 0.005478241283663219 0.00824611439204528 0.005513021182768633" fill="none" stroke="#000000" stroke-width="0.001"/>
<path d="M 0.00824611439204528 0.005513021182768633 C 0.008277368561186943 0.005519161152701749 0.008661727273494901 0.005624257288426952 0.008621164421745226 0.005586700821966027 C 0.008661727273494901 0.005624257288426952 0.008722179510863326 0.006017428314759871 0.008732868613041372 0.005963698780299732 C 0.008722179510863326 0.006017428314759871 0.00847289741082261 0.0062537682734200295 0.008492895195608668 0.006231455235487699" fill="none" stroke="#000000" stroke-width="0.001"/>
<path d="M 0.008492895195608668 0.006231455235487699 C 0.008433102520868966 0.006246214003817661 0.007582325546355148 0.00646528792169779 0.007775383098732238 0.006408560455447251 C 0.007582325546355148 0.00646528792169779 0.006042939689446194 0.006954153528414751 0.006176204567083583 0.0069121848304941735" fill="none" stroke="#000000" stroke-width="0.001"/>
</g><g transform="translate(0.3207986291151641,0.11594506244728547) rotate(0) scale(1,1) translate(-0.008417252494995203,-0.005828091228850773)"><path d="M 0.006617764833050027 0.007033448440389828 C 0.006711284469951496 0.0069484234108687 0.007874492263069879 0.005891808340583857 0.007740000475867651 0.0060131480861362885 C 0.007874492263069879 0.005891808340583857 0.008272638429777513 0.005541056777729347 0.008231666279476755 0.00557737149376065" fill="none" stroke="#000000" stroke-width="0.001"/>
<path d="M 0.008231666279476755 0.00557737149376065 C 0.008259336141336775 0.005578876629876923 0.008603197770745107 0.005622877405104205 0.008563704621797003 0.005595433127155925 C 0.008603197770745107 0.005622877405104205 0.008702880003831149 0.00595428698028135 0.008705584066853999 0.005906702829140001 C 0.008702880003831149 0.00595428698028135 0.008516728515411864 0.006188087950161448 0.008531255865522797 0.006166442940852106" fill="none" stroke="#000000" stroke-width="0.001"/>
<path d="M 0.008531255865522797 0.006166442940852106 C 0.008481529311726193 0.006186398566901115 0.007775079633924148 0.006478160911735019 0.007934537219963546 0.006405910453440209 C 0.007775079633924148 0.006478160911735019 0.006508033800807234 0.00708574327263563 0.006617764833050027 0.007033448440389828" fill="none" stroke="#000000" stroke-width="0.001"/>
</g><g transform="translate(0.32102134258148973,0.11236564880549652) rotate(0) scale(1,1) translate(-0.008380251738491874,-0.0057170889593407765)"><path d="M 0.004605185430069413 0.004590738846102762 C 0.0048581491118691355 0.004641580210732759 0.007950290160723303 0.005262458973096602 0.007640749611666085 0.005200835221662722 C 0.007950290160723303 0.005262458973096602 0.008376248886013536 0.005341006250113199 0.00831967201875604 0.005330223863309316" fill="none" stroke="#000000" stroke-width="0.001"/>
<path d="M 0.00831967201875604 0.005330223863309316 C 0.008345178663215769 0.0053487936228387885 0.008644531672126489 0.005604705301737139 0.008625751752272771 0.005553060977662986 C 0.008644531672126489 0.005604705301737139 0.008507450524718145 0.005993575465985173 0.008545031057000654 0.005949955752199163 C 0.008507450524718145 0.005993575465985173 0.008143931557206177 0.006087042692336441 0.008174785364882675 0.0060764975430951116" fill="none" stroke="#000000" stroke-width="0.001"/>
<path d="M 0.008174785364882675 0.0060764975430951116 C 0.008113323962512598 0.006053125197121789 0.007139781875207321 0.005672216166665875 0.0074372485364417595 0.005796029391415237 C 0.007139781875207321 0.005672216166665875 0.00436918017120505 0.004490297967326723 0.004605185430069413 0.004590738846102762" fill="none" stroke="#000000" stroke-width="0.001"/>
</g><g transform="translate(0.31778237020850375,0.11334994609047092) rotate(0) scale(1,1) translate(-0.008355584567489648,-0.005692421788338555)"><path d="M 0.004394441819438949 0.004929923097341449 C 0.00465507770385236 0.004958388784391233 0.007848508226997918 0.00530290241900878 0.0075220724323998844 0.005271511341938853 C 0.007848508226997918 0.00530290241900878 0.00837747126479997 0.005309541412200718 0.008311671354615347 0.005306616022180574" fill="none" stroke="#000000" stroke-width="0.001"/>
<path d="M 0.008311671354615347 0.005306616022180574 C 0.00833744560602182 0.005325294808444505 0.008646309698712532 0.005581336009323405 0.008620962371493018 0.005530761457347748 C 0.008646309698712532 0.005581336009323405 0.00858174837624495 0.0059624597580426085 0.008615839281249517 0.005913510645888458 C 0.00858174837624495 0.0059624597580426085 0.008178207530620618 0.006135204149639985 0.008211871511438226 0.00611815080319756" fill="none" stroke="#000000" stroke-width="0.001"/>
<path d="M 0.008211871511438226 0.00611815080319756 C 0.008142340397155463 0.006101091567499247 0.00705937899904513 0.005814420999329794 0.00737749814004507 0.005913439974817803 C 0.00705937899904513 0.005814420999329794 0.004145853792721772 0.004847963357551753 0.004394441819438949 0.004929923097341449" fill="none" stroke="#000000" stroke-width="0.001"/>
</g></g>
</svg>
