<?xml version="1.0" encoding="UTF-8"?>
<svg xmlns="http://www.w3.org/2000/svg" viewBox="0 0 1 1">
<g transform="translate(0.3257456317518053,0.1130072566562324) rotate(0) scale(1,1) translate(-0.14152185117886698,-0.14116273906070584)"><path d="M 0.1317977015429457 0.14152128608500533 C 0.13196925763618353 0.1409422222775161 0.13460631227699027 0.1336900036301274 0.13385637466179962 0.13457252039513456 C 0.13460631227699027 0.1336900036301274 0.14198031706012848 0.13082619305892967 0.1407969529252334 0.13093108490491925 C 0.14198031706012848 0.13082619305892967 0.14892763470799497 0.13394357602344725 0.14805674428054072 0.13331381824325977 C 0.14892763470799497 0.13394357602344725 0.1515135458691963 0.13891937493582826 0.15124763805468433 0.13848817826716914" fill="none" stroke="none" stroke-width="0"/>
<path d="M 0.15124763805468433 0.13848817826716914 C 0.1513317201593399 0.1392156041124309 0.15111252639096656 0.1439615444743663 0.15175213068261778 0.14285273333873974 C 0.15111252639096656 0.1439615444743663 0.14668632590847014 0.14552243037129328 0.14741001230477693 0.14514104508092848" fill="none" stroke="none" stroke-width="0"/>
<path d="M 0.14741001230477693 0.14514104508092848 C 0.1472375119793753 0.14500150907774123 0.14495998858469514 0.1432364794785669 0.14534000839995737 0.14346661304268143 C 0.14495998858469514 0.1432364794785669 0.142274698992535 0.14228011473927743 0.1428497745216303 0.14237944231155414 C 0.142274698992535 0.14228011473927743 0.1376719291280264 0.14234298453361402 0.13843910205081364 0.142274682175361 C 0.1376719291280264 0.14234298453361402 0.13324408256463094 0.1432761029801928 0.13364369944818347 0.14319907061059037" fill="none" stroke="#000000" stroke-width="0.001"/>
<path d="M 0.13364369944818347 0.14319907061059037 C 0.13380655253669038 0.14316173237551547 0.13589677995562785 0.14269106868155287 0.13559793651026641 0.14275101178969157 C 0.13589677995562785 0.14269106868155287 0.1373658111493751 0.14245714843986215 0.13722982079252058 0.14247975331292595" fill="none" stroke="#000000" stroke-width="0.001"/>
<path d="M 0.13722982079252058 0.14247975331292595 C 0.1375331175470978 0.14245378929089494 0.14145968186725214 0.14221707065232514 0.14086938184744732 0.14216818504855389 C 0.14145968186725214 0.14221707065232514 0.1448094705576319 0.1432776001369263 0.1443134210301784 0.14306638055818086 C 0.1448094705576319 0.1432776001369263 0.14708002544977256 0.14487570870372826 0.14682197617688936 0.1447028199934993 C 0.14708002544977256 0.14487570870372826 0.14745901531543423 0.14517756383821426 0.14741001230477693 0.14514104508092848" fill="none" stroke="none" stroke-width="0"/>
<path d="M 0.14741001230477693 0.14514104508092848 C 0.1481336647342589 0.14475973639951872 0.15212559920455512 0.14307609025249782 0.1517519268816688 0.14285319299246987 C 0.15212559920455512 0.14307609025249782 0.14930206613549912 0.14708263458253393 0.1496520462420948 0.1464784286410962" fill="none" stroke="none" stroke-width="0"/>
<path d="M 0.1496520462420948 0.1464784286410962 C 0.14939840210976751 0.14681606825337767 0.14579868898608916 0.15095336070947737 0.14660831665416735 0.15053010398847386 C 0.14579868898608916 0.15095336070947737 0.13890654781332942 0.15139561909381702 0.13993651422515677 0.15155750929313846 C 0.13890654781332942 0.15139561909381702 0.1335704853220549 0.1477510696626053 0.13424871971223915 0.1485874215966164 C 0.1335704853220549 0.1477510696626053 0.13159345002883793 0.14093244145903774 0.1317977015429457 0.14152128608500533" fill="none" stroke="none" stroke-width="0"/>
<path d="M 0.1317977015429457 0.14152128608500533 C 0.1317977015429457 0.14152128608500533 0.1317977015429457 0.14152128608500533 0.1317977015429457 0.14152128608500533 C 0.1317977015429457 0.14152128608500533 0.1317977015429457 0.14152128608500533 0.1317977015429457 0.14152128608500533 C 0.1317977015429457 0.14152128608500533 0.1317977015429457 0.14152128608500533 0.1317977015429457 0.14152128608500533 C 0.1317977015429457 0.14152128608500533 0.1317977015429457 0.14152128608500533 0.1317977015429457 0.14152128608500533" fill="none" stroke="#000000" stroke-width="0.001"/>
</g><g transform="translate(0.32588449103078504,0.10825672161350267) rotate(0) scale(1,1) translate(-0.014991016181195468,-0.014142268789137224)"><path d="M 0.02113215678326686 0.018311609242841552 C 0.020914236415704567 0.018210879658769673 0.017998817319649495 0.016926618339897233 0.01851711237251935 0.017102854233979004 C 0.017998817319649495 0.016926618339897233 0.014297716461264246 0.01613830676016449 0.014912616148828566 0.01619677851386031 C 0.014297716461264246 0.01613830676016449 0.010381053474533915 0.016490718527518336 0.011138316121747502 0.01640119318962914 C 0.010381053474533915 0.016490718527518336 0.005382726737308696 0.017343573350105772 0.005825464382265527 0.017271082568530646" fill="none" stroke="none" stroke-width="0"/>
<path d="M 0.005825464382265527 0.017271082568530646 C 0.006265152974687828 0.01715528318021981 0.011881070571435094 0.015746077289770205 0.011101727491333143 0.01588148990880063 C 0.011881070571435094 0.015746077289770205 0.01581244003512884 0.015702603165609525 0.015177581343488932 0.015646131140165533 C 0.01581244003512884 0.015702603165609525 0.019216246410993548 0.016781277389351548 0.018720031791012053 0.016559154214128548 C 0.019216246410993548 0.016781277389351548 0.021333167199288093 0.01845764716190097 0.02113215678326686 0.018311609242841552" fill="none" stroke="#000000" stroke-width="0.001"/>
</g><g id="睫毛">
<g transform="translate(0.31917107828257874,0.11499618050074145) rotate(0) scale(1,1) translate(-0.008417252494995203,-0.005828091228850773)"><path d="M 0.006205096014967328 0.00697061497809301 C 0.006322974507575145 0.006885673364831405 0.00778903872474328 0.005830228880832482 0.007619637926261139 0.0059513156189537455 C 0.00778903872474328 0.005830228880832482 0.00828942790262734 0.005481428995778192 0.008237905596753017 0.0055175741206378495" fill="none" stroke="#000000" stroke-width="0.001"/>
<path d="M 0.008237905596753017 0.0055175741206378495 C 0.00826931335660684 0.005522894352801794 0.008656335451080497 0.005617902725577793 0.008614798714998883 0.005581416906605187 C 0.008656335451080497 0.005617902725577793 0.008727066300885121 0.006009401081127428 0.008736346429732386 0.0059554039483091245 C 0.008727066300885121 0.006009401081127428 0.008484028063756638 0.006252214046434466 0.008503437168831696 0.006229382500424824" fill="none" stroke="#000000" stroke-width="0.001"/>
<path d="M 0.008503437168831696 0.006229382500424824 C 0.008444044511062012 0.006245703461342673 0.0075991968461067904 0.006487003404578031 0.0077907252755954875 0.006425234031439015 C 0.0075991968461067904 0.006487003404578031 0.006072960243248314 0.007016063390314176 0.006205096014967328 0.00697061497809301" fill="none" stroke="#000000" stroke-width="0.001"/>
</g><g transform="translate(0.32042678073209796,0.11467071324869915) rotate(0) scale(1,1) translate(-0.008417252494995203,-0.005828091228850773)"><path d="M 0.006649729824897293 0.007080289409947891 C 0.006741002309342811 0.006992835162599723 0.007876284265081213 0.005906004993126448 0.007744999638243507 0.0060308384417698795 C 0.007876284265081213 0.005906004993126448 0.008265157489341944 0.005544908824931442 0.008225145346949757 0.005582288026226706" fill="none" stroke="#000000" stroke-width="0.001"/>
<path d="M 0.008225145346949757 0.005582288026226706 C 0.008252848287896832 0.005583068332308187 0.008597783199292474 0.005618055648484711 0.00855758063831465 0.005591651699204481 C 0.008597783199292474 0.005618055648484711 0.008706118290720183 0.005946779497211066 0.008707576078683657 0.0058991354175894585 C 0.008706118290720183 0.005946779497211066 0.008526129774758737 0.006185401091086626 0.008540087182752962 0.006163380654663767" fill="none" stroke="#000000" stroke-width="0.001"/>
<path d="M 0.008540087182752962 0.006163380654663767 C 0.008490894389161868 0.006184633722385186 0.007792243879838532 0.006494826530261132 0.007949773659659837 0.006418417467320789 C 0.007792243879838532 0.006494826530261132 0.006541392838667081 0.007135445405166816 0.006649729824897293 0.007080289409947891" fill="none" stroke="#000000" stroke-width="0.001"/>
</g><g transform="translate(0.32160773340388304,0.11428840539803567) rotate(0) scale(1,1) translate(-0.008380251738491874,-0.0057170889593407765)"><path d="M 0.00457656242621457 0.004689839605656843 C 0.004830799232309189 0.004734045949315685 0.007938487106498644 0.005273820631686267 0.007627404099349992 0.0052203157295629505 C 0.007938487106498644 0.005273820631686267 0.008366404713052436 0.00534119698960111 0.008309558511998402 0.005331898431136636" fill="none" stroke="#000000" stroke-width="0.001"/>
<path d="M 0.008309558511998402 0.005331898431136636 C 0.008335545447281666 0.005349796101500719 0.008641529308537852 0.0055978112804594745 0.008621401735397577 0.0055466704755056315 C 0.008641529308537852 0.0055978112804594745 0.008514659320472778 0.005990181817012746 0.0085510893896817 0.005945588090582752 C 0.008514659320472778 0.005990181817012746 0.008153670197824574 0.00609314578450579 0.008184240904890507 0.006081795192665556" fill="none" stroke="#000000" stroke-width="0.001"/>
<path d="M 0.008184240904890507 0.006081795192665556 C 0.0081221817050371 0.00606003744460239 0.00713889063342664 0.005704705916990176 0.007439530506649635 0.005820702215907568 C 0.00713889063342664 0.005704705916990176 0.004337981752844981 0.004595601054802616 0.00457656242621457 0.004689839605656843" fill="none" stroke="#000000" stroke-width="0.001"/>
</g><g transform="translate(0.31795255625244717,0.11498289930279595) rotate(0) scale(1,1) translate(-0.008355584567489648,-0.005692421788338555)"><path d="M 0.00434270172864153 0.005242702209154618 C 0.004605037065461419 0.005250632288524956 0.007818955356194876 0.0053435430006302685 0.007490725770480192 0.005337863161598673 C 0.007818955356194876 0.0053435430006302685 0.008347351006112547 0.005308610037195024 0.008281456757217752 0.0053108602775337665" fill="none" stroke="#000000" stroke-width="0.001"/>
<path d="M 0.008281456757217752 0.0053108602775337665 C 0.008308645168132671 0.005327475644057685 0.008636985462069011 0.00555872369159589 0.008607717688196792 0.005510244675820788 C 0.008636985462069011 0.00555872369159589 0.008602494261915252 0.005944135188230417 0.008632670043684386 0.005892608466834978 C 0.008602494261915252 0.005944135188230417 0.008213353162240757 0.006148228404710306 0.00824560830696719 0.006128565332566049" fill="none" stroke="#000000" stroke-width="0.001"/>
<path d="M 0.00824560830696719 0.006128565332566049 C 0.008174880322956655 0.006117003966232886 0.007071630283980304 0.005916007009617147 0.007396872498840776 0.0059898289365681 C 0.007071630283980304 0.005916007009617147 0.004088187497791593 0.0051804416485368284 0.00434270172864153 0.005242702209154618" fill="none" stroke="#000000" stroke-width="0.001"/>
</g></g>
</svg>
