<?xml version="1.0" encoding="UTF-8"?>
<svg xmlns="http://www.w3.org/2000/svg" viewBox="0 0 1 1">
<g transform="translate(0.3373434528286706,0.2649004817027368) rotate(0) scale(1,1) translate(-0.11919468730772295,-0.11388483716227914)"><path d="M 0.1194742739491885 0.11396272990092292 C 0.11955652763178898 0.11399133815206842 0.12023348299368895 0.1142681660010825 0.12018173149892863 0.11421925606374048 C 0.12023348299368895 0.1142681660010825 0.12011464400939648 0.11463052727594289 0.12009529188631234 0.11454964914902724 C 0.12011464400939648 0.11463052727594289 0.12045143567339767 0.11527245931881785 0.12041395697593825 0.1151897935867282 C 0.12045143567339767 0.11527245931881785 0.12055000722807825 0.11565072102089571 0.1205450362558253 0.11554163793410308 C 0.12055000722807825 0.11565072102089571 0.12044505361686701 0.1166522678674951 0.12047360864297366 0.11649879062823995 C 0.12044505361686701 0.1166522678674951 0.12021980622927111 0.1174988297460552 0.12020237594254558 0.11738336480516483 C 0.12021980622927111 0.1174988297460552 0.12068704689417992 0.11797988478300016 0.12068277208368008 0.11788436991892451 C 0.12068704689417992 0.11797988478300016 0.12023590615847068 0.11874428580553045 0.12025367366854355 0.11852954317407259 C 0.12023590615847068 0.11874428580553045 0.12047356664132167 0.12077120699661084 0.12046956196280569 0.12046128149641894 C 0.12047356664132167 0.12077120699661084 0.12028849910746033 0.12243618827423478 0.12030172981073527 0.12224864917637546 C 0.12028849910746033 0.12243618827423478 0.12037556240215794 0.12274288030369088 0.1203107935235064 0.12271175067073081 C 0.12037556240215794 0.12274288030369088 0.12135175375077083 0.12274425096154207 0.12107895635455365 0.12262220477189623 C 0.12135175375077083 0.12274425096154207 0.12343527666544095 0.1244531495472399 0.12358436227811258 0.12417630494648087 C 0.12343527666544095 0.1244531495472399 0.11857899760279382 0.12594150890771882 0.11928992900249406 0.12594433998100477 C 0.11857899760279382 0.12594150890771882 0.11489141846424351 0.12386589103247751 0.11505318548170963 0.12414233206704965 C 0.11489141846424351 0.12386589103247751 0.11759566598327599 0.12251148853934032 0.11734872479290066 0.1226270475661391 C 0.11759566598327599 0.12251148853934032 0.11806851954355228 0.12270863400505883 0.11801647976621354 0.12275562374546435 C 0.11806851954355228 0.12270863400505883 0.1179285182287526 0.12191632753289791 0.11797320212096556 0.12206317068127273 C 0.1179285182287526 0.12191632753289791 0.11746615058512622 0.12071718164142364 0.11748027305965797 0.1209935059649665 C 0.11746615058512622 0.12071718164142364 0.11787785127583478 0.11847468737085458 0.11780373242658457 0.1187472787987584 C 0.11787785127583478 0.11847468737085458 0.11836775456355375 0.11759521755688754 0.11836969925066049 0.11772240883012061 C 0.11836775456355375 0.11759521755688754 0.11777922423719306 0.11709583052458354 0.11778039618130373 0.11722098351996144 C 0.11777922423719306 0.11709583052458354 0.11835782945187047 0.11608590548012965 0.11835563592133247 0.11622057288558586 C 0.11835782945187047 0.11608590548012965 0.11780251179791656 0.11551907637958207 0.11780671854775979 0.11560497465448688 C 0.11780251179791656 0.11551907637958207 0.11831206182386075 0.11511692521352464 0.11830515492321385 0.1151897935867282 C 0.11831206182386075 0.11511692521352464 0.11788148454818342 0.11465371273271956 0.11788960135552264 0.114730554176044 C 0.11788148454818342 0.11465371273271956 0.11829321151103783 0.11420371091057487 0.11820775323514326 0.11426769626683496 C 0.11829321151103783 0.11420371091057487 0.11899734517230574 0.1139300849661862 0.11891510066625743 0.11396272990092292 C 0.11899734517230574 0.1139300849661862 0.11924128508130054 0.11387595704999444 0.11919468730772295 0.11387595704999444 C 0.11924128508130054 0.11387595704999444 0.11955652763178898 0.11399133815206842 0.1194742739491885 0.11396272990092292 Z" fill="#cccccc" stroke="#000000" stroke-width="0.001"/>
</g><g transform="translate(0.33859268298985035,0.27546429385224097) rotate(0) scale(1,1) translate(-0.007632439264170959,-0.011489070732754177)"><path d="M 0.011307456424729996 0.009236245034342156 C 0.011392952792822923 0.009370866901069029 0.01122196005663707 0.010447841834884003 0.011307456424729996 0.010313219968157131 C 0.01122196005663707 0.010447841834884003 0.009927317986119679 0.010988854493584986 0.010281500007614875 0.010851707435064622 C 0.009927317986119679 0.010988854493584986 0.006971775798694713 0.011824362803674632 0.007057272166787639 0.011958984670401504 C 0.006971775798694713 0.011824362803674632 0.009524229243902031 0.00896447610909492 0.009255543590499762 0.009236245034342156 C 0.009524229243902031 0.00896447610909492 0.010452492743800728 0.008697757567434666 0.010281500007614875 0.008697757567434666 C 0.010452492743800728 0.008697757567434666 0.011392952792822923 0.009370866901069029 0.011307456424729996 0.009236245034342156 Z" fill="#cccccc" stroke="#000000" stroke-width="0.001"/>
</g><g transform="translate(0.3369155672465563,0.27398488492193646) rotate(0) scale(1,1) translate(-0.009274318487558978,-0.011539567016504784)"><path d="M 0.006353729017912096 0.00846214425174002 C 0.006542248509556993 0.00846214425174002 0.0077810719006574935 0.00935545192409061 0.007484845967781477 0.009055826684005532 C 0.0077810719006574935 0.00935545192409061 0.009814180466601843 0.01220606774082734 0.009908440212424291 0.012057647132760963 C 0.009814180466601843 0.01220606774082734 0.005963243339213631 0.010685669348783346 0.006353729017912096 0.010836873980802048 C 0.005963243339213631 0.010685669348783346 0.005128352322220267 0.010094770940470163 0.005222612068042715 0.01024319154853654 C 0.005128352322220267 0.010094770940470163 0.0053168718138651636 0.008907406075939156 0.005222612068042715 0.009055826684005532 C 0.0053168718138651636 0.008907406075939156 0.006542248509556993 0.00846214425174002 0.006353729017912096 0.00846214425174002 Z" fill="#cccccc" stroke="#000000" stroke-width="0.001"/>
</g><g transform="translate(0.3343957675294744,0.2744627597924386) rotate(0) scale(1,1) translate(-0.008434564811809,-0.010934425164257432)"><path d="M 0.007372833408661317 0.010950700939610578 C 0.007386043879973035 0.010814437876527763 0.008080524771844344 0.01016975064856069 0.007939911638635644 0.010222257493181792 C 0.008080524771844344 0.01016975064856069 0.009175539622035869 0.010411034068715784 0.009060191007165723 0.010320618804157349 C 0.009175539622035869 0.010411034068715784 0.009298830498738841 0.011450162777062553 0.009324095017077396 0.011307240667883016 C 0.009298830498738841 0.011450162777062553 0.008628457700921207 0.012081531912836174 0.008757016787103071 0.012035684114311794 C 0.008628457700921207 0.012081531912836174 0.007666037368024888 0.011766998985617137 0.0077813859828950345 0.011857414250175571 C 0.007666037368024888 0.011766998985617137 0.007386043879973035 0.010814437876527763 0.007372833408661317 0.010950700939610578 Z" fill="#cccccc" stroke="#000000" stroke-width="0.001"/>
</g><g transform="translate(0.33738777770644274,0.2746040721846154) rotate(0) scale(1,1) translate(-0.007887010811670887,-0.011755036522883896)"><path d="M 0.010389632817056325 0.00824535593115057 C 0.010520933592743944 0.0083358699204668 0.010784341580423937 0.009394042758863467 0.010810440448300509 0.00923671658477387 C 0.010784341580423937 0.009394042758863467 0.009804007757690181 0.01039790449417988 0.01007644640253746 0.010133270020225729 C 0.009804007757690181 0.01039790449417988 0.007409875934445549 0.01232181628290746 0.007541176710133168 0.01241233027222369 C 0.007409875934445549 0.01232181628290746 0.008641974963445698 0.00869195368516059 0.008500837094286038 0.009047102148430972 C 0.008641974963445698 0.00869195368516059 0.009392230783613275 0.008083736528205751 0.009234831140049084 0.008150548712979117 C 0.009392230783613275 0.008083736528205751 0.010520933592743944 0.0083358699204668 0.010389632817056325 0.00824535593115057 Z" fill="#cccccc" stroke="#000000" stroke-width="0.001"/>
</g><g transform="translate(0.34209317089220564,0.2712047374997844) rotate(0) scale(1,1) translate(-0.008434564811809,-0.010934425164257432)"><path d="M 0.007372833408661317 0.010950700939610578 C 0.007386043879973035 0.010814437876527763 0.008080524771844344 0.01016975064856069 0.007939911638635644 0.010222257493181792 C 0.008080524771844344 0.01016975064856069 0.009175539622035869 0.010411034068715784 0.009060191007165723 0.010320618804157349 C 0.009175539622035869 0.010411034068715784 0.009298830498738841 0.011450162777062553 0.009324095017077396 0.011307240667883016 C 0.009298830498738841 0.011450162777062553 0.008628457700921207 0.012081531912836174 0.008757016787103071 0.012035684114311794 C 0.008628457700921207 0.012081531912836174 0.007666037368024888 0.011766998985617137 0.0077813859828950345 0.011857414250175571 C 0.007666037368024888 0.011766998985617137 0.007386043879973035 0.010814437876527763 0.007372833408661317 0.010950700939610578 Z" fill="#cccccc" stroke="#000000" stroke-width="0.001"/>
</g></svg>
