<?xml version="1.0" encoding="UTF-8"?>
<svg xmlns="http://www.w3.org/2000/svg" viewBox="0 0 1 1">
<g transform="translate(0.20219590779756433,0.2613118083014545) rotate(0) scale(1,1) translate(-0.02714239482104793,-0.016584637548414206)"><path d="M 0.019394900094747154 0.0006494875573502604 C 0.019577268620248736 0.0006682536984302876 0.022126177466933846 0.00067100656654014 0.02158332240076616 0.0008746812503105869 C 0.022126177466933846 0.00067100656654014 0.02626964742942553 -0.0020170494727455757 0.025909160888759424 -0.0017946086478951018" fill="none" stroke="#000000" stroke-width="0.001"/>
<path d="M 0.025909160888759424 -0.0017946086478951018 C 0.025804131279667988 -0.0015374740272665409 0.02495312868071281 0.0013330245336507802 0.024648805579662203 0.0012910067996476302 C 0.02495312868071281 0.0013330245336507802 0.029970390811508756 -0.0015055127264827124 0.02956103810136671 -0.0012903958398573015" fill="none" stroke="#000000" stroke-width="0.001"/>
<path d="M 0.02956103810136671 -0.0012903958398573015 C 0.0293914506277211 -0.0010489080797891441 0.027557239916822265 0.001930192615256527 0.02752598841761936 0.0016074572809605878 C 0.027557239916822265 0.001930192615256527 0.03013689506465007 0.002663675745921751 0.029936056091801555 0.0025824281716939693" fill="none" stroke="#000000" stroke-width="0.001"/>
<path d="M 0.029936056091801555 0.0025824281716939693 C 0.03022702793770053 0.0026618644558909503 0.034125659092342914 0.003942776752766389 0.03342771824258924 0.0035356635820577437 C 0.034125659092342914 0.003942776752766389 0.03897348778445521 0.008362621624155546 0.03831134628884561 0.00746778622019772 C 0.03897348778445521 0.008362621624155546 0.04156599528314301 0.01545960687695636 0.04137341618990446 0.014273688429551649 C 0.04156599528314301 0.01545960687695636 0.04019611457098815 0.02282213263794261 0.040622295407708155 0.021698807589054257 C 0.04019611457098815 0.02282213263794261 0.03532850019361462 0.028513326626896575 0.03625924614926443 0.027753589016211867 C 0.03532850019361462 0.028513326626896575 0.028886185422464322 0.031070831409025643 0.029453343939910483 0.030815658917270738" fill="none" stroke="none" stroke-width="0"/>
<path d="M 0.029453343939910483 0.030815658917270738 C 0.029178254502520408 0.03107247246743468 0.025608596827401776 0.03427238474164684 0.026152270691229582 0.03389742151923805 C 0.025608596827401776 0.03427238474164684 0.022660673147539084 0.035433367258421 0.022929257573976815 0.03531521758617616" fill="none" stroke="#000000" stroke-width="0.001"/>
<path d="M 0.022929257573976815 0.03531521758617616 C 0.02245122878957315 0.03518973593817078 0.016539321334098075 0.03332754615354715 0.01719291216113284 0.033809437810111614 C 0.016539321334098075 0.03332754615354715 0.014521513009731967 0.028813634441292577 0.015086167649559607 0.029532517707402534 C 0.014521513009731967 0.028813634441292577 0.009862421374703043 0.024044723700156458 0.010417056483201154 0.02518283861679214 C 0.009862421374703043 0.024044723700156458 0.00831543407941603 0.014422890083077755 0.008430546347582266 0.015875138707774357 C 0.00831543407941603 0.014422890083077755 0.009529462734579323 0.006447367606106677 0.009035709265206318 0.007755855120432921 C 0.009529462734579323 0.006447367606106677 0.014798911206296003 -0.000458592012855031 0.014355587980058334 0.00017328853585942688" fill="none" stroke="#000000" stroke-width="0.001"/>
<path d="M 0.014355587980058334 0.00017328853585942688 C 0.014634734073989098 0.00020066468285265607 0.018125283783451573 0.0005414855515690799 0.017705341107227504 0.0005018022997781771 C 0.018125283783451573 0.0005414855515690799 0.019535696677040457 0.000661794662147934 0.019394900094747154 0.0006494875573502604" fill="none" stroke="#000000" stroke-width="0.001"/>
</g><g id="親指">
<g transform="translate(0.19731811266534907,0.2765431030845348) rotate(0) scale(1,1) translate(-0.022137508518625178,-0.018243133376229348)"><path d="M 0.02199396426809911 0.015084784685027153 C 0.022135427022646127 0.015112065799339582 0.023939743214751275 0.01552993341462113 0.023691517322663315 0.015412158056776284 C 0.023939743214751275 0.01552993341462113 0.025122894534744932 0.01671804273597597 0.024972674973154627 0.016498088979165316 C 0.025122894534744932 0.01671804273597597 0.025506114082624154 0.01831479886277097 0.02549415206174698 0.018051603138504117 C 0.025506114082624154 0.01831479886277097 0.024986718490010853 0.019892352280321955 0.025116219223680698 0.01965643767036753 C 0.024986718490010853 0.019892352280321955 0.023753611561024388 0.021055097899438113 0.023940143257708855 0.020882578457957192 C 0.023753611561024388 0.021055097899438113 0.022789313497280292 0.021797012010653687 0.022877838863467104 0.021726670968138573" fill="none" stroke="none" stroke-width="0"/>
<path d="M 0.022877838863467104 0.021726670968138573 C 0.02255077879785607 0.021768171891076795 0.018343945311088055 0.022229504674625873 0.018953118076134676 0.02222468204339725 C 0.018343945311088055 0.022229504674625873 0.015285652983472077 0.021747864251172436 0.015567765682907662 0.02178454254288204" fill="none" stroke="#000000" stroke-width="0.001"/>
<path d="M 0.015567765682907662 0.02178454254288204 C 0.015401065675886378 0.021743658186485805 0.013293070235966029 0.021127246166893692 0.013567365598652258 0.02129393026612725 C 0.013293070235966029 0.021127246166893692 0.012161233039531752 0.019495869705951453 0.012276221330672923 0.01978433335207934 C 0.012161233039531752 0.019495869705951453 0.01227574650426974 0.017532306627872543 0.012187506104958196 0.017832366512592627 C 0.01227574650426974 0.017532306627872543 0.013592870378819556 0.01598657128942876 0.013335106122411445 0.016183614735438345 C 0.013592870378819556 0.01598657128942876 0.015442808103475862 0.015408197695897565 0.015280677181855523 0.015467845160477625" fill="none" stroke="#000000" stroke-width="0.001"/>
<path d="M 0.015280677181855523 0.015467845160477625 C 0.015558005072940239 0.015399245162480485 0.01916805246539241 0.014612723478224406 0.01860861187487211 0.014644645184511945 C 0.01916805246539241 0.014612723478224406 0.022276076967534694 0.015121462976736754 0.02199396426809911 0.015084784685027153" fill="none" stroke="#000000" stroke-width="0.001"/>
</g><g transform="translate(0.18956997728829134,0.2769803976608017) rotate(0) scale(1,1) translate(-0.010121944866682102,-0.0101219448666821)"><path d="M 0.004076225997519334 0.010471133993396452 C 0.004485913978380633 0.010345791192695334 0.009648775559388957 0.008797977503097779 0.008992481767854917 0.008967020384983027 C 0.009648775559388957 0.008797977503097779 0.012198357306600547 0.008398919329589338 0.011951751495927806 0.008442619410773467" fill="none" stroke="#000000" stroke-width="0.001"/>
<path d="M 0.011951751495927806 0.008442619410773467 C 0.012185591121051147 0.008560249893711873 0.014769952601940516 0.010115758076774896 0.014757826997407901 0.009854185206034328 C 0.014769952601940516 0.010115758076774896 0.011875544729728469 0.01172543624746245 0.012097258750319194 0.011581493859660287" fill="none" stroke="#000000" stroke-width="0.001"/>
<path d="M 0.012097258750319194 0.011581493859660287 C 0.011847929221915288 0.011566438052499925 0.008436885013405677 0.011308294184880618 0.009105304409472333 0.011400824173735937 C 0.008436885013405677 0.011308294184880618 0.003657136129856584 0.010393659811701499 0.004076225997519334 0.010471133993396456" fill="none" stroke="#000000" stroke-width="0.001"/>
</g></g>
<g id="小指">
<g transform="translate(0.19041363051034066,0.24890637555306028) rotate(0) scale(1,1) translate(-0.022137508518625178,-0.018243133376229348)"><path d="M 0.021938515893631168 0.014446127898868625 C 0.02208065727371637 0.014481186873525634 0.02389485187291633 0.015012343232729541 0.023644212454653566 0.014866835594752721 C 0.02389485187291633 0.015012343232729541 0.025100469685521803 0.016458911939751263 0.024946188912784346 0.016192219554590475 C 0.025100469685521803 0.016458911939751263 0.02551216444625257 0.01838356133979558 0.025495581727503068 0.018067144216682186 C 0.02551216444625257 0.01838356133979558 0.025019622876442663 0.020270583180407583 0.02514518153777836 0.019989225031951198 C 0.025019622876442663 0.020270583180407583 0.023754821091961437 0.02161435148329539 0.0239888777914747 0.021443441998158817 C 0.023754821091961437 0.02161435148329539 0.02219880308963124 0.022089863591542688 0.022336501143619198 0.02204013885359008" fill="none" stroke="none" stroke-width="0"/>
<path d="M 0.022336501143619198 0.02204013885359008 C 0.022059978253295944 0.022118088041508357 0.01845854759159382 0.02300486063520059 0.019018226459740134 0.022975529108609394 C 0.01845854759159382 0.02300486063520059 0.015337198748040392 0.022343499511357327 0.015620354725863449 0.022392117172684408" fill="none" stroke="#000000" stroke-width="0.001"/>
<path d="M 0.015620354725863449 0.022392117172684408 C 0.015452702216037159 0.022340307198859745 0.013330923113813377 0.02156570660177704 0.013608524607947967 0.021770397486788443 C 0.013330923113813377 0.02156570660177704 0.012168939128126994 0.019587389104654268 0.012289136796248365 0.019935826552547546 C 0.012168939128126994 0.019587389104654268 0.012249270172237236 0.017230055363435918 0.01216615259049151 0.017589148112069106 C 0.012249270172237236 0.017230055363435918 0.013541232517645751 0.015394126744440429 0.013286547777197094 0.015626713568949274 C 0.013541232517645751 0.015394126744440429 0.015383687950765253 0.014729055605380782 0.015222369475875394 0.014798106217962972" fill="none" stroke="#000000" stroke-width="0.001"/>
<path d="M 0.015222369475875394 0.014798106217962972 C 0.015498892366198651 0.014720157030044697 0.01910032302790079 0.013833384436352462 0.01854064415975448 0.013862715962943657 C 0.01910032302790079 0.013833384436352462 0.02222167187145422 0.014494745560195706 0.021938515893631164 0.014446127898868625" fill="none" stroke="#000000" stroke-width="0.001"/>
</g><g transform="translate(0.18157769356997935,0.24818076994734306) rotate(0) scale(1,1) translate(-0.010121944866682102,-0.0101219448666821)"><path d="M 0.004073430395592291 0.010438934078073253 C 0.004482454787171055 0.010311189168466925 0.009637220206920078 0.008734535591872742 0.008981723094537463 0.008905995162797315 C 0.009637220206920078 0.008734535591872742 0.012185868464987513 0.008337704565660124 0.011939395744183663 0.00838141922697837" fill="none" stroke="#000000" stroke-width="0.001"/>
<path d="M 0.011939395744183663 0.00838141922697837 C 0.012174443655208393 0.0085062073108746 0.014774302200174281 0.010152337996278911 0.014759970676480431 0.009878876233733139 C 0.014774302200174281 0.010152337996278911 0.01189065764117898 0.011811634056177175 0.01211137402850986 0.011662960377527634" fill="none" stroke="#000000" stroke-width="0.001"/>
<path d="M 0.01211137402850986 0.011662960377527634 C 0.011861682084689578 0.011645248604441055 0.008445242066590012 0.011348416908867476 0.009115070702666477 0.011450419100488675 C 0.008445242066590012 0.011348416908867476 0.0036532937033361087 0.010354643659538634 0.004073430395592291 0.010438934078073253" fill="none" stroke="#000000" stroke-width="0.001"/>
</g></g>
<g id="薬指">
<g transform="translate(0.18835112285093944,0.25464081663262383) rotate(0) scale(1,1) translate(-0.022137508518625178,-0.018243133376229348)"><path d="M 0.021938515893631168 0.014446127898868625 C 0.022101645231271855 0.014480086941278465 0.024183059572415375 0.01499723890722653 0.02389606794531941 0.01485363640778669 C 0.024183059572415375 0.01499723890722653 0.025557684149075718 0.016434950345060314 0.02538241541878277 0.016169357892146696 C 0.025557684149075718 0.016434950345060314 0.026015875427584257 0.018357162965863507 0.025999292708834755 0.018040745842750113 C 0.026015875427584257 0.018357162965863507 0.0254348614248856 0.020248821450210976 0.025581408043776784 0.019966363369507422 C 0.0254348614248856 0.020248821450210976 0.02397032437379408 0.02160305743486633 0.024240733282140544 0.021430242811192775 C 0.02397032437379408 0.02160305743486633 0.022177815132075753 0.022090963523789857 0.022336501143619198 0.02204013885359008" fill="none" stroke="none" stroke-width="0"/>
<path d="M 0.022336501143619198 0.02204013885359008 C 0.022018002338184968 0.022120287906002695 0.017870884780040185 0.023035658738121332 0.018514515478408444 0.02300192748254146 C 0.017870884780040185 0.023035658738121332 0.014287800870266052 0.02239849612371582 0.014612932763200082 0.02244491392054856" fill="none" stroke="#000000" stroke-width="0.001"/>
<path d="M 0.014612932763200082 0.02244491392054856 C 0.01442060742952008 0.02239439699463071 0.01198750579731173 0.021636112119985274 0.012305028759040063 0.02183871080953437 C 0.01198750579731173 0.021636112119985274 0.010667210910598681 0.019666091345621604 0.010802657222460085 0.020013729645959388 C 0.010667210910598681 0.019666091345621604 0.010778039242188982 0.017307159309292275 0.010679673016703223 0.017667051205480955 C 0.010778039242188982 0.017307159309292275 0.012277658136331597 0.015460347871724055 0.011983051928289197 0.015695026891695208 C 0.012277658136331597 0.015460347871724055 0.0144009388119556 0.014780559305338111 0.01421494751321203 0.014850902965827119" fill="none" stroke="#000000" stroke-width="0.001"/>
<path d="M 0.01421494751321203 0.014850902965827119 C 0.01453344631864626 0.014770753913414503 0.018680563876791057 0.013855383081295858 0.018036933178422795 0.013889114336875733 C 0.018680563876791057 0.013855383081295858 0.022263647786565196 0.014492545695701365 0.021938515893631164 0.014446127898868625" fill="none" stroke="#000000" stroke-width="0.001"/>
</g><g transform="translate(0.1788327063941221,0.2546641847259582) rotate(0) scale(1,1) translate(-0.010121944866682102,-0.0101219448666821)"><path d="M 0.0031661532249288235 0.010486482459781926 C 0.0036373646977952085 0.01035547846334522 0.009575587442842485 0.008737765628169124 0.008820690899325441 0.008914434502541452 C 0.009575587442842485 0.008737765628169124 0.012508596817784014 0.008320791089378382 0.012224911747133355 0.008366455967314003" fill="none" stroke="#000000" stroke-width="0.001"/>
<path d="M 0.012224911747133355 0.008366455967314003 C 0.012494141980534756 0.008489452631603736 0.015470006071644027 0.010115877701336567 0.015455674547950177 0.009842415938790795 C 0.015470006071644027 0.010115877701336567 0.012141991321752008 0.01179846221611931 0.01239689003145956 0.011647997117863271" fill="none" stroke="#000000" stroke-width="0.001"/>
<path d="M 0.01239689003145956 0.011647997117863271 C 0.012109985737792468 0.011632235561394066 0.008184810440243561 0.011362065552059368 0.008954038507454456 0.011458858440232814 C 0.008184810440243561 0.011362065552059368 0.002683829451385021 0.010405451128077685 0.0031661532249288235 0.010486482459781926" fill="none" stroke="#000000" stroke-width="0.001"/>
</g></g>
<g id="中指">
<g transform="translate(0.18796589499099625,0.26201222390658413) rotate(0) scale(1,1) translate(-0.022137508518625178,-0.018243133376229348)"><path d="M 0.021938515893631168 0.014446127898868625 C 0.022101645231271855 0.014480086941278465 0.024183059572415375 0.01499723890722653 0.02389606794531941 0.01485363640778669 C 0.024183059572415375 0.01499723890722653 0.025557684149075718 0.016434950345060314 0.02538241541878277 0.016169357892146696 C 0.025557684149075718 0.016434950345060314 0.026015875427584257 0.018357162965863507 0.025999292708834755 0.018040745842750113 C 0.026015875427584257 0.018357162965863507 0.0254348614248856 0.020248821450210976 0.025581408043776784 0.019966363369507422 C 0.0254348614248856 0.020248821450210976 0.02397032437379408 0.02160305743486633 0.024240733282140544 0.021430242811192775 C 0.02397032437379408 0.02160305743486633 0.022177815132075753 0.022090963523789857 0.022336501143619198 0.02204013885359008" fill="none" stroke="none" stroke-width="0"/>
<path d="M 0.022336501143619198 0.02204013885359008 C 0.022018002338184968 0.022120287906002695 0.017870884780040185 0.023035658738121332 0.018514515478408444 0.02300192748254146 C 0.017870884780040185 0.023035658738121332 0.014287800870266052 0.02239849612371582 0.014612932763200082 0.02244491392054856" fill="none" stroke="#000000" stroke-width="0.001"/>
<path d="M 0.014612932763200082 0.02244491392054856 C 0.01442060742952008 0.02239439699463071 0.01198750579731173 0.021636112119985274 0.012305028759040063 0.02183871080953437 C 0.01198750579731173 0.021636112119985274 0.010667210910598681 0.019666091345621604 0.010802657222460085 0.020013729645959388 C 0.010667210910598681 0.019666091345621604 0.010778039242188982 0.017307159309292275 0.010679673016703223 0.017667051205480955 C 0.010778039242188982 0.017307159309292275 0.012277658136331597 0.015460347871724055 0.011983051928289197 0.015695026891695208 C 0.012277658136331597 0.015460347871724055 0.0144009388119556 0.014780559305338111 0.01421494751321203 0.014850902965827119" fill="none" stroke="#000000" stroke-width="0.001"/>
<path d="M 0.01421494751321203 0.014850902965827119 C 0.01453344631864626 0.014770753913414503 0.018680563876791057 0.013855383081295858 0.018036933178422795 0.013889114336875733 C 0.018680563876791057 0.013855383081295858 0.022263647786565196 0.014492545695701365 0.021938515893631164 0.014446127898868625" fill="none" stroke="#000000" stroke-width="0.001"/>
</g><g transform="translate(0.17876017599223132,0.26237580745214845) rotate(0) scale(1,1) translate(-0.010121944866682102,-0.0101219448666821)"><path d="M 0.0031661532249288235 0.010486482459781926 C 0.0036373646977952085 0.01035547846334522 0.009575587442842485 0.008737765628169124 0.008820690899325441 0.008914434502541452 C 0.009575587442842485 0.008737765628169124 0.012508596817784014 0.008320791089378382 0.012224911747133355 0.008366455967314003" fill="none" stroke="#000000" stroke-width="0.001"/>
<path d="M 0.012224911747133355 0.008366455967314003 C 0.012494141980534756 0.008489452631603736 0.015470006071644027 0.010115877701336567 0.015455674547950177 0.009842415938790795 C 0.015470006071644027 0.010115877701336567 0.012141991321752008 0.01179846221611931 0.01239689003145956 0.011647997117863271" fill="none" stroke="#000000" stroke-width="0.001"/>
<path d="M 0.01239689003145956 0.011647997117863271 C 0.012109985737792468 0.011632235561394066 0.008184810440243561 0.011362065552059368 0.008954038507454456 0.011458858440232814 C 0.008184810440243561 0.011362065552059368 0.002683829451385021 0.010405451128077685 0.0031661532249288235 0.010486482459781926" fill="none" stroke="#000000" stroke-width="0.001"/>
</g></g>
<g id="人指">
<g transform="translate(0.18939572034941654,0.26941059128129635) rotate(0) scale(1,1) translate(-0.022137508518625178,-0.018243133376229348)"><path d="M 0.021938515893631168 0.014446127898868625 C 0.022101645231271855 0.014480086941278465 0.024183059572415375 0.01499723890722653 0.02389606794531941 0.01485363640778669 C 0.024183059572415375 0.01499723890722653 0.025557684149075718 0.016434950345060314 0.02538241541878277 0.016169357892146696 C 0.025557684149075718 0.016434950345060314 0.026015875427584257 0.018357162965863507 0.025999292708834755 0.018040745842750113 C 0.026015875427584257 0.018357162965863507 0.0254348614248856 0.020248821450210976 0.025581408043776784 0.019966363369507422 C 0.0254348614248856 0.020248821450210976 0.02397032437379408 0.02160305743486633 0.024240733282140544 0.021430242811192775 C 0.02397032437379408 0.02160305743486633 0.022177815132075753 0.022090963523789857 0.022336501143619198 0.02204013885359008" fill="none" stroke="none" stroke-width="0"/>
<path d="M 0.022336501143619198 0.02204013885359008 C 0.022018002338184968 0.022120287906002695 0.017870884780040185 0.023035658738121332 0.018514515478408444 0.02300192748254146 C 0.017870884780040185 0.023035658738121332 0.014287800870266052 0.02239849612371582 0.014612932763200082 0.02244491392054856" fill="none" stroke="#000000" stroke-width="0.001"/>
<path d="M 0.014612932763200082 0.02244491392054856 C 0.01442060742952008 0.02239439699463071 0.01198750579731173 0.021636112119985274 0.012305028759040063 0.02183871080953437 C 0.01198750579731173 0.021636112119985274 0.010667210910598681 0.019666091345621604 0.010802657222460085 0.020013729645959388 C 0.010667210910598681 0.019666091345621604 0.010778039242188982 0.017307159309292275 0.010679673016703223 0.017667051205480955 C 0.010778039242188982 0.017307159309292275 0.012277658136331597 0.015460347871724055 0.011983051928289197 0.015695026891695208 C 0.012277658136331597 0.015460347871724055 0.0144009388119556 0.014780559305338111 0.01421494751321203 0.014850902965827119" fill="none" stroke="#000000" stroke-width="0.001"/>
<path d="M 0.01421494751321203 0.014850902965827119 C 0.01453344631864626 0.014770753913414503 0.018680563876791057 0.013855383081295858 0.018036933178422795 0.013889114336875733 C 0.018680563876791057 0.013855383081295858 0.022263647786565196 0.014492545695701365 0.021938515893631164 0.014446127898868625" fill="none" stroke="#000000" stroke-width="0.001"/>
</g><g transform="translate(0.1806373036781833,0.26986960044907127) rotate(0) scale(1,1) translate(-0.010121944866682102,-0.0101219448666821)"><path d="M 0.0031661532249288235 0.010486482459781926 C 0.0036373646977952085 0.01035547846334522 0.009575587442842485 0.008737765628169124 0.008820690899325441 0.008914434502541452 C 0.009575587442842485 0.008737765628169124 0.012508596817784014 0.008320791089378382 0.012224911747133355 0.008366455967314003" fill="none" stroke="#000000" stroke-width="0.001"/>
<path d="M 0.012224911747133355 0.008366455967314003 C 0.012499237161293754 0.008480186633748395 0.015531148240751993 0.010004685727072474 0.015516816717058143 0.009731223964526702 C 0.015531148240751993 0.010004685727072474 0.01213689614099301 0.011807728213974652 0.01239689003145956 0.011647997117863271" fill="none" stroke="#000000" stroke-width="0.001"/>
<path d="M 0.01239689003145956 0.011647997117863271 C 0.012109985737792468 0.011632235561394066 0.008184810440243561 0.011362065552059368 0.008954038507454456 0.011458858440232814 C 0.008184810440243561 0.011362065552059368 0.002683829451385021 0.010405451128077685 0.0031661532249288235 0.010486482459781926" fill="none" stroke="#000000" stroke-width="0.001"/>
</g></g>
<g id="鱗">
<g transform="translate(0.20271387811734826,0.25973508615309376) rotate(0) scale(1,1) translate(-0.028123214666599918,-0.025164625937061574)"><path d="M 0.027840412792990165 0.0147816578875287 C 0.02803722702329708 0.015594011236330295 0.030249317202274795 0.026260392748069995 0.03020218355667317 0.02452989807314785 C 0.030249317202274795 0.026260392748069995 0.028256335955504384 0.036465735312714985 0.028406016540209675 0.035547593986594433" fill="none" stroke="#000000" stroke-width="0.001"/>
<path d="M 0.028406016540209675 0.035547593986594433 C 0.02813892452137916 0.03574005236291027 0.02449959344550843 0.0379742746455578 0.02520091231424352 0.03785709450238454 C 0.02449959344550843 0.0379742746455578 0.019555963265484037 0.036878477471530946 0.019990190115388613 0.03695375570467353" fill="none" stroke="#000000" stroke-width="0.001"/>
<path d="M 0.019990190115388613 0.03695375570467353 C 0.019990681616314503 0.036668811453591646 0.019863703512669775 0.03299668788034093 0.0199960881264993 0.033534424691690864 C 0.019863703512669775 0.03299668788034093 0.018268698634678917 0.030248121408206267 0.01840157474943433 0.030500913968474312" fill="none" stroke="#000000" stroke-width="0.001"/>
<path d="M 0.01840157474943433 0.030500913968474312 C 0.01845273147257029 0.030246320015530546 0.01898491067729042 0.026915580886791274 0.01901545542706584 0.02744578653314913 C 0.01898491067729042 0.026915580886791274 0.017953336279217868 0.02386283451876597 0.01803503775212925 0.02413844621218006" fill="none" stroke="#000000" stroke-width="0.001"/>
<path d="M 0.01803503775212925 0.02413844621218006 C 0.018125261227176826 0.023897218680751918 0.019174501694811857 0.020765107110519387 0.01911771945270016 0.021243715835042355 C 0.019174501694811857 0.020765107110519387 0.018682983424533745 0.01815776032480962 0.018716424657469623 0.018395141517904445" fill="none" stroke="#000000" stroke-width="0.001"/>
<path d="M 0.018716424657469623 0.018395141517904445 C 0.018813722360922963 0.018200384112627484 0.019970497366620273 0.01562442819021551 0.019883997098909707 0.016058052654580927 C 0.019970497366620273 0.01562442819021551 0.01974363043425363 0.012952780886430964 0.019754427869996406 0.013191647945519422" fill="none" stroke="#000000" stroke-width="0.001"/>
<path d="M 0.019754427869996406 0.013191647945519422 C 0.02013159010795626 0.013130990233544066 0.024954206802430795 0.012596256230315917 0.02428037472551465 0.012463755401815144 C 0.024954206802430795 0.012596256230315917 0.028137082631946458 0.01497481642800483 0.027840412792990165 0.0147816578875287" fill="none" stroke="#000000" stroke-width="0.001"/>
</g><g transform="translate(0.20812008408894106,0.25997491851008986) rotate(0) scale(1,1) translate(-0.028123214666599918,-0.025164625937061574)"><path d="M 0.02784041279299016 0.015276084937506457 C 0.028037227023297077 0.0160494544540342 0.030249317202274795 0.026204609302431903 0.03020218355667317 0.024556519135839384 C 0.030249317202274795 0.026204609302431903 0.028256335955504388 0.03592788758668146 0.02840601654020968 0.035053166936616684" fill="none" stroke="#000000" stroke-width="0.001"/>
<path d="M 0.02840601654020968 0.035053166936616684 C 0.028138924521379165 0.03523491045538376 0.024596403122852342 0.03733307070948262 0.025200912314243512 0.03723408916182162 C 0.024596403122852342 0.03733307070948262 0.020814489070954966 0.03615818353744269 0.021151906243515622 0.03624094550854876" fill="none" stroke="#000000" stroke-width="0.001"/>
<path d="M 0.021151906243515622 0.03624094550854876 C 0.02131036920553092 0.035214667000530386 0.023034711472092708 0.022058409529574753 0.023053461787699188 0.02392560341232826 C 0.023034711472092708 0.022058409529574753 0.020749689178616096 0.012993703540771548 0.02092690245623787 0.013834618915506679" fill="none" stroke="#000000" stroke-width="0.001"/>
<path d="M 0.02092690245623787 0.013834618915506679 C 0.021206358478677603 0.013770780569267489 0.024856500586910673 0.013188680929136384 0.02428037472551465 0.013068558760636402 C 0.024856500586910673 0.013188680929136384 0.028137082631946454 0.015460045452245628 0.02784041279299016 0.015276084937506457" fill="none" stroke="#000000" stroke-width="0.001"/>
</g><g transform="translate(0.20550753884097972,0.25924946866097004) rotate(0) scale(1,1) translate(-0.02798110733953146,-0.027981107339531453)"><path d="M 0.03379446700602094 0.019514562372306254 C 0.03398763994867459 0.02025080442952557 0.03615743150415201 0.029919076741407098 0.036112542317864746 0.028349467058938035 C 0.03615743150415201 0.029919076741407098 0.03418485348510171 0.03918324618718477 0.034333137241468095 0.03834987856193502" fill="none" stroke="#000000" stroke-width="0.001"/>
<path d="M 0.034333137241468095 0.03834987856193502 C 0.03419786392175981 0.03848306579721328 0.03227401920352694 0.04004262256674513 0.03270985740496865 0.03994812538527407 C 0.03227401920352694 0.04004262256674513 0.028802513942434157 0.03944515468578055 0.02910307882416758 0.03948384473958774" fill="none" stroke="#000000" stroke-width="0.001"/>
<path d="M 0.02910307882416758 0.03948384473958774 C 0.02926174369455983 0.03850215394689627 0.030989199825439826 0.025925275338953377 0.03100705726887457 0.02770355522729005 C 0.030989199825439826 0.025925275338953377 0.028712267189123657 0.01734789698390247 0.02888878950295065 0.01814448607954767" fill="none" stroke="#000000" stroke-width="0.001"/>
<path d="M 0.02888878950295065 0.01814448607954767 C 0.02913380866509214 0.018124701658573193 0.032237825907237734 0.018021246052250507 0.03182901944864854 0.017907073027853958 C 0.032237825907237734 0.018021246052250507 0.03395825430246864 0.01964851981767728 0.03379446700602094 0.019514562372306254" fill="none" stroke="#000000" stroke-width="0.001"/>
</g></g>
</svg>
