<?xml version="1.0" encoding="UTF-8"?>
<svg xmlns="http://www.w3.org/2000/svg" viewBox="0 0 1 1">
<g id="植タトゥ">
<g transform="translate(0.3373434528286709,0.20476944689109206) rotate(0) scale(1,1) translate(-0.004597736078453554,-0.008426498256477545)"><path d="M -0.0010409431552720215 -0.0015112145611371388 C -0.0007647624879925563 -0.0013429541224574046 0.0027291990823501712 0.0008769732904253826 0.0022732248520815606 0.000507910703019672 C 0.0027291990823501712 0.0008769732904253826 0.004638470075670612 0.003338940712620606 0.004430747607951304 0.0029175364877313892 C 0.004638470075670612 0.003338940712620606 0.004774602308510321 0.00598035776608601 0.0047658944647132485 0.005564761401690276 C 0.004774602308510321 0.00598035776608601 0.00451602067258308 0.008099687148712693 0.00453524173351617 0.007904692860480199" fill="none" stroke="none" stroke-width="0"/>
<path d="M 0.00453524173351617 0.007904692860480199 C 0.00445830675197815 0.00774608442335503 0.0034937550625847346 0.005738951964756102 0.0036120219550599296 0.006001391614978172 C 0.0034937550625847346 0.005738951964756102 0.0029642457565208107 0.004388436806036171 0.0031160390238138295 0.00475541705781537 C 0.0029642457565208107 0.004388436806036171 0.0014440875659532141 0.0010754092920484035 0.0017905027475437019 0.0015976285936277793 C 0.0014440875659532141 0.0010754092920484035 -0.0012768969805066678 -0.0017702848240342152 -0.001040943155272024 -0.0015112145611371388" fill="none" stroke="none" stroke-width="0"/>
</g><g transform="translate(0.3373434528286709,0.20476944689109206) rotate(0) scale(1,1) translate(-0.004597736078453554,-0.008426498256477545)"><path d="M 0.010236415312179215 -0.0015112145611371388 C 0.01000046148694457 -0.0012521442982400624 0.007058554227772987 0.002119847895207155 0.00740496940936348 0.0015976285936277793 C 0.007058554227772987 0.002119847895207155 0.005927639865800287 0.0051223973095945695 0.006079433133093304 0.00475541705781537 C 0.005927639865800287 0.0051223973095945695 0.005465183309372072 0.006263831265200241 0.005583450201847266 0.006001391614978172 C 0.005465183309372072 0.006263831265200241 0.0045832954418529625 0.008063301297605368 0.004660230423390986 0.007904692860480199" fill="none" stroke="none" stroke-width="0"/>
<path d="M 0.004660230423390986 0.007904692860480199 C 0.004641009362457897 0.007709698572247705 0.004438285535990982 0.005149165037294542 0.004429577692193912 0.005564761401690276 C 0.004438285535990982 0.005149165037294542 0.004972447016675131 0.0024961322628421724 0.004764724548955825 0.0029175364877313892 C 0.004972447016675131 0.0024961322628421724 0.007378221535094201 0.00013884811561396129 0.006922247304825584 0.000507910703019672 C 0.007378221535094201 0.00013884811561396129 0.010512595979458684 -0.001679474999816873 0.010236415312179215 -0.0015112145611371388" fill="none" stroke="none" stroke-width="0"/>
</g><g transform="translate(0.3373434528286709,0.20476944689109206) rotate(0) scale(1,1) translate(-0.004597736078453554,-0.008426498256477545)"><path d="M 0.004597736078453555 -0.006138601277321707 C 0.004661611119517059 -0.0056924956983103745 0.005505126184728091 3.54089136672829E-05 0.005364236571215602 -0.0007853343291857143 C 0.005505126184728091 3.54089136672829E-05 0.006282138302598522 0.0043807774563334075 0.006288411440603422 0.0037103176369142604 C 0.006282138302598522 0.0043807774563334075 0.005148069301644326 0.0077503914515271105 0.005288958915156815 0.007260183503844045 C 0.005148069301644326 0.0077503914515271105 0.00454013417539495 0.009787198801216623 0.004597736078453555 0.00959281300911104" fill="none" stroke="none" stroke-width="0"/>
<path d="M 0.004597736078453555 0.00959281300911104 C 0.00454013417539495 0.009398427217005458 0.003765623628237803 0.006769975556160983 0.003906513241750292 0.007260183503844047 C 0.003765623628237803 0.006769975556160983 0.0029007875782987875 0.0030398578174951167 0.0029070607163036864 0.0037103176369142634 C 0.0029007875782987875 0.0030398578174951167 0.003972125199203996 -0.0016060775720387098 0.003831235585691507 -0.0007853343291857124 C 0.003972125199203996 -0.0016060775720387098 0.0046616111195170555 -0.00658470685633304 0.004597736078453552 -0.006138601277321707" fill="none" stroke="none" stroke-width="0"/>
</g><g transform="translate(0.3373434528286709,0.2140233417315604) rotate(0) scale(1,1) translate(-0.09500000000000003,-0.09500000000000001)"><path d="M 0.09500000000000003 0.0864012128689671 C 0.09503759093000003 0.08634662055984749 0.0955932555681464 0.08563138398377641 0.09545109116000002 0.08574610515953168 C 0.0955932555681464 0.08563138398377641 0.09681054637590307 0.08496442989326816 0.09670597289775668 0.08502455875990382" fill="none" stroke="none" stroke-width="0"/>
<path d="M 0.09670597289775668 0.08502455875990382 C 0.09661743429650393 0.08542252106350778 0.09550134527457742 0.09196971322473443 0.09564350968272381 0.08980010640315146 C 0.09550134527457742 0.09196971322473443 0.09494637419310638 0.11283148513687857 0.09500000000000003 0.11105984061889956" fill="none" stroke="none" stroke-width="0"/>
<path d="M 0.09500000000000003 0.11105984061889956 C 0.09494637419310638 0.10928819610092055 0.09421432590912984 0.08763049958156849 0.09435649031727623 0.08980010640315146 C 0.09421432590912984 0.08763049958156849 0.09320548850099061 0.08462659645629986 0.09329402710224335 0.08502455875990382" fill="none" stroke="none" stroke-width="0"/>
<path d="M 0.09329402710224335 0.08502455875990382 C 0.09339860058038975 0.08508468762653948 0.09469107324814642 0.08586082633528695 0.09454890884000003 0.08574610515953168 C 0.09469107324814642 0.08586082633528695 0.09503759093000003 0.08645580517808671 0.09500000000000003 0.0864012128689671" fill="none" stroke="none" stroke-width="0"/>
</g><g transform="translate(0.3373434528286709,0.2125656848831849) rotate(0) scale(1,1) translate(-0.013921307510479429,-0.013921307510479425)"><path d="M 0.003288726444553297 0.004939628756382524 C 0.004060162676052373 0.005308833704091615 0.012371060685275189 0.009661093804209035 0.011003088836179361 0.008631678270150647 C 0.012371060685275189 0.009661093804209035 0.01711557518565502 0.016729766391086878 0.01696844507140736 0.015233784199229645 C 0.01711557518565502 0.016729766391086878 0.012429621558368225 0.025026961526980425 0.012474389993272009 0.02359150033733547 C 0.012429621558368225 0.025026961526980425 0.01692539778636749 0.030188085822416482 0.016520760717922182 0.029588396238279465" fill="none" stroke="none" stroke-width="0"/>
<path d="M 0.016520760717922182 0.029588396238279465 C 0.01600496026620027 0.028996439270365347 0.011288738042546318 0.022248638572649176 0.011362756149462859 0.023668826500332654 C 0.011288738042546318 0.022248638572649176 0.01566330923944912 0.013983950563097196 0.01578057964140374 0.015386516820361672 C 0.01566330923944912 0.013983950563097196 0.00894086681099142 0.008598474992335594 0.010190052118266924 0.009643163788355459 C 0.00894086681099142 0.008598474992335594 0.0025985938840377854 0.0044692752578577724 0.003288726444553297 0.004939628756382524" fill="none" stroke="none" stroke-width="0"/>
</g><g transform="translate(0.3373434528286709,0.2125656848831849) rotate(0) scale(1,1) translate(-0.013921307510479429,-0.013921307510479425)"><path d="M 0.024553888576405378 0.004939628756382524 C 0.023863756015889873 0.005409982254907276 0.016403377595416324 0.010687852584375324 0.017652562902691828 0.009643163788355459 C 0.016403377595416324 0.010687852584375324 0.0119447649776003 0.01678908307762615 0.01206203537955492 0.015386516820361672 C 0.0119447649776003 0.01678908307762615 0.01640584076457932 0.025089014428016133 0.016479858871495855 0.023668826500332654 C 0.01640584076457932 0.025089014428016133 0.010806053851314643 0.030180353206193583 0.011321854303036555 0.029588396238279465" fill="none" stroke="none" stroke-width="0"/>
<path d="M 0.011321854303036555 0.029588396238279465 C 0.01172649137148186 0.028988706654142448 0.015323456592782904 0.022156039147690515 0.015368225027686684 0.02359150033733547 C 0.015323456592782904 0.022156039147690515 0.011021300063799068 0.01373780200737241 0.010874169949551407 0.015233784199229645 C 0.011021300063799068 0.01373780200737241 0.01820749803387517 0.0076022627360922594 0.016839526184779352 0.008631678270150647 C 0.01820749803387517 0.0076022627360922594 0.02532532480790445 0.0045704238086734334 0.024553888576405378 0.004939628756382524" fill="none" stroke="none" stroke-width="0"/>
</g></g>
</svg>
