<?xml version="1.0" encoding="UTF-8"?>
<svg xmlns="http://www.w3.org/2000/svg" viewBox="0 0 1 1">
<g transform="translate(0.3373434528286706,0.2718577331237974) rotate(0) scale(1,1) translate(-0.013421596340595336,-0.016242689429619418)"><path d="M 0.01601814099216734 0.015365419896189654 C 0.016234519713131675 0.01573834884135173 0.01580176227120301 0.018414557279039075 0.01601814099216734 0.018041628333876996 C 0.01580176227120301 0.018414557279039075 0.012988838898666664 0.019840567238134578 0.013421596340595332 0.019840567238134578 C 0.012988838898666664 0.019840567238134578 0.01060867296805899 0.017668699388714924 0.010825051689023325 0.018041628333877 C 0.01060867296805899 0.017668699388714924 0.011041430409987658 0.014992490951027584 0.010825051689023325 0.01536541989618966 C 0.011041430409987658 0.014992490951027584 0.013854353782523997 0.013566480991932079 0.013421596340595329 0.013566480991932079 C 0.013854353782523997 0.013566480991932079 0.016234519713131675 0.01573834884135173 0.01601814099216734 0.015365419896189654 Z" fill="#cccccc" stroke="none" stroke-width="0"/>
</g><g transform="translate(0.33734345282867056,0.2712976456560574) rotate(0) scale(1,1) translate(-0.23427950000000003,-0.23483958746773995)"><path d="M 0.23427950000000003 0.23682612220681987 C 0.2340967734531577 0.23682612220681987 0.23305393353857107 0.23628945486810446 0.23318314071894605 0.23640832547404944 C 0.23305393353857107 0.23628945486810446 0.23272901383550007 0.23523156651238505 0.23272901383550007 0.23539967493547997 C 0.23272901383550007 0.23523156651238505 0.23331234789932104 0.23427215379096528 0.23318314071894605 0.23439102439691029 C 0.23331234789932104 0.23427215379096528 0.23446222654684234 0.23397322766413986 0.23427950000000003 0.23397322766413986 C 0.23446222654684234 0.23397322766413986 0.23550506646142894 0.2345098950028553 0.23537585928105392 0.23439102439691029 C 0.23550506646142894 0.2345098950028553 0.2358299861645001 0.2355677833585749 0.2358299861645001 0.23539967493547997 C 0.2358299861645001 0.2355677833585749 0.2352466521006789 0.23652719607999442 0.23537585928105392 0.23640832547404944 C 0.2352466521006789 0.23652719607999442 0.2340967734531577 0.23682612220681987 0.23427950000000003 0.23682612220681987 Z" fill="#cccccc" stroke="#000000" stroke-width="0.001"/>
</g><g transform="translate(0.3373434528286706,0.2718577331237974) rotate(0) scale(1,1) translate(-0.23427950000000003,-0.2342795)"><path d="M 0.2349079319468537 0.23427949999999997 C 0.2349079319468537 0.23430216515706906 0.23467149916223012 0.2344315176286745 0.2347238684911346 0.23441549094241432 C 0.23467149916223012 0.2344315176286745 0.23420543858481097 0.23447182023512214 0.23427950000000006 0.23447182023512214 C 0.23420543858481097 0.23447182023512214 0.23378276217996097 0.23439946425615413 0.23383513150886545 0.23441549094241432 C 0.23378276217996097 0.23439946425615413 0.23365106805314625 0.2342568348429309 0.23365106805314625 0.23427949999999997 C 0.23365106805314625 0.2342568348429309 0.23388750083776993 0.2341274823713252 0.23383513150886545 0.2341435090575854 C 0.23388750083776993 0.2341274823713252 0.23435356141518915 0.23408717976487736 0.23427950000000006 0.23408717976487736 C 0.23435356141518915 0.23408717976487736 0.2347762378200391 0.23415953574384563 0.2347238684911346 0.2341435090575854 C 0.2347762378200391 0.23415953574384563 0.2349079319468537 0.23430216515706906 0.2349079319468537 0.23427949999999997 Z" fill="#cccccc" stroke="#000000" stroke-width="0.001"/>
</g></svg>
